<?xml version="1.0" encoding="utf-8"?>
<!-- Generator: Adobe Illustrator 16.0.0, SVG Export Plug-In . SVG Version: 6.00 Build 0)  -->
<!DOCTYPE svg PUBLIC "-//W3C//DTD SVG 1.1//EN" "http://www.w3.org/Graphics/SVG/1.1/DTD/svg11.dtd">
<svg version="1.1" id="Layer_1" xmlns="http://www.w3.org/2000/svg" xmlns:xlink="http://www.w3.org/1999/xlink" x="0px" y="0px"
	 width="126.877px" height="112.438px" viewBox="0 0 126.877 112.438" enable-background="new 0 0 126.877 112.438"
	 xml:space="preserve">
<path fill="#EF8AA8" d="M100.209,35.846c-0.58-2.623-1.319-5.433-3.891-6.746c-1.902-0.974-4.102-0.402-5.212,1.374
	c-1.28,2.048,0.335,5.607,1.463,7.352c1.765,2.728,4.302,4.968,7.089,6.601c0.314,0.186,0.721,0.129,0.98-0.127
	c4.041-3.971,5.53-10.635,4.922-16.092c-0.067-0.606-0.507-0.949-1.112-0.849c-3.126,0.52-5.831,3.136-6.077,6.326
	c-0.078,1.016,1.561,1.229,1.77,0.24c0.552-2.61,1.989-4.461,4.773-4.87c-0.37-0.283-0.741-0.565-1.112-0.848
	c0.241,2.604,0.041,5.139-0.62,7.671c-0.738,2.826-2.282,5.025-3.814,7.44c0.368-0.097,0.738-0.193,1.108-0.291
	c-3.384-1.918-5.905-4.775-7.827-8.135c-0.58-1.014-0.844-2.301-0.653-3.447c0.355-2.138,2.927-1.855,4.267-1.21
	c2.061,0.992,2.704,3.805,3.241,5.805C99.626,36.499,100.311,36.305,100.209,35.846"/>
<path fill="#EF8AA8" d="M87.93,41.689c-0.562-1.972-4.1-3.765-4.256-0.884c-0.105,1.944,5.297,5.185,6.646,6.178
	C90.223,46.05,90.274,34.701,87.93,41.689"/>
<path fill="#EF8AA8" d="M21.226,69.143c-0.813-0.074-5.232-1.358-3.571,2.014c0.854,1.736,4.386,1.646,6.055,1.741
	c0.194-2.078-0.195-5.426-1.611-7.093C20.814,66.575,20.846,67.681,21.226,69.143"/>
<g>
	<path fill="#EB6E96" d="M27.599,51.605c0.08-0.28,0.288-0.421,0.622-0.421c0.134,0,0.26,0.033,0.381,0.101
		c0.12,0.066,0.194,0.174,0.221,0.32c0.04,0.696,0.103,1.381,0.19,2.057c0.087,0.676,0.137,1.348,0.15,2.017l0.181,0.18h0.502h0.723
		c0.079,0,0.18-0.01,0.3-0.029c0.121-0.021,0.188-0.037,0.201-0.05c0.026-0.041,0.057-0.124,0.09-0.252
		c0.034-0.126,0.037-0.21,0.011-0.25c0.026-0.588,0.057-1.254,0.089-1.996c0.034-0.742,0.051-1.448,0.051-2.117v-0.481
		c-0.066-0.133-0.194-0.22-0.381-0.26c-0.16-0.041-0.349-0.074-0.562-0.101h-0.633c-0.22,0-0.421-0.017-0.602-0.05
		c-0.18-0.034-0.33-0.104-0.451-0.211c-0.12-0.106-0.181-0.28-0.181-0.522c0-0.188,0.08-0.344,0.241-0.471s0.327-0.191,0.501-0.191
		h0.101c0.093,0.014,0.217,0.027,0.371,0.04c0.153,0.015,0.305,0.028,0.451,0.04c0.174,0.015,0.321,0.031,0.442,0.051
		c0.119,0.02,0.193,0.03,0.22,0.03c0.147,0.026,0.328,0.057,0.542,0.09c0.214,0.034,0.425,0.094,0.632,0.181
		s0.381,0.201,0.522,0.341c0.14,0.141,0.209,0.318,0.209,0.532v0.2c-0.012,0.294-0.029,0.724-0.049,1.284
		c-0.021,0.562-0.047,1.13-0.081,1.706c-0.033,0.575-0.06,1.093-0.079,1.554c-0.021,0.462-0.03,0.746-0.03,0.854
		c0,0.134-0.018,0.277-0.051,0.431s-0.084,0.308-0.15,0.461c-0.066,0.154-0.16,0.271-0.28,0.352
		c-0.107,0.107-0.255,0.161-0.442,0.161h-2.989c-0.188,0-0.351-0.084-0.491-0.252c-0.141-0.166-0.224-0.33-0.251-0.491
		c-0.094-0.708-0.157-1.401-0.19-2.075c-0.033-0.676-0.05-1.368-0.05-2.077V51.605z M33.817,46.47c-0.08-0.094-0.157-0.2-0.23-0.321
		c-0.074-0.119-0.11-0.24-0.11-0.361c0-0.16,0.05-0.303,0.15-0.431c0.101-0.127,0.224-0.23,0.372-0.311h0.24
		c0.12,0,0.247-0.004,0.381-0.011c0.134-0.006,0.264-0.01,0.392-0.01h0.281h0.3c0.141,0,0.281,0.004,0.422,0.01
		c0.14,0.007,0.261,0.011,0.36,0.011h0.171c0.081,0,0.288,0.007,0.622,0.02c0.321,0.04,0.675,0.067,1.063,0.081
		c0.414,0.026,0.812,0.053,1.194,0.08c0.381,0.027,0.672,0.053,0.872,0.08c0.174,0.013,0.381,0.036,0.622,0.07
		c0.241,0.033,0.461,0.09,0.662,0.171c0.227,0.094,0.414,0.213,0.561,0.36c0.148,0.147,0.222,0.334,0.222,0.562v0.081
		c-0.014,0.106-0.04,0.294-0.08,0.562c-0.041,0.294-0.094,0.589-0.16,0.883c-0.041,0.32-0.094,0.615-0.161,0.882
		c-0.04,0.28-0.066,0.475-0.08,0.582c0,0.027-0.017,0.094-0.05,0.2c-0.034,0.108-0.067,0.225-0.101,0.352
		c-0.033,0.128-0.077,0.258-0.131,0.392c-0.026,0.134-0.047,0.228-0.06,0.28c-0.094,0.335-0.185,0.613-0.271,0.834
		c-0.087,0.22-0.197,0.383-0.331,0.491c-0.133,0.146-0.308,0.243-0.521,0.291c-0.215,0.046-0.489,0.069-0.823,0.069
		c-0.549,0-1.087-0.017-1.615-0.051c-0.528-0.032-1.066-0.05-1.614-0.05h-0.262h-0.32c-0.08,0.014-0.167,0.021-0.261,0.021h-0.121
		l-0.18,0.16c-0.014,0.321-0.027,0.643-0.041,0.963c-0.013,0.268-0.023,0.546-0.029,0.833c-0.008,0.288-0.01,0.519-0.01,0.691v0.142
		c0,0.228,0.029,0.404,0.089,0.53c0.062,0.129,0.15,0.219,0.271,0.271c0.12,0.08,0.261,0.131,0.421,0.151
		c0.161,0.02,0.349,0.043,0.562,0.07c0.094,0.013,0.221,0.029,0.381,0.05c0.162,0.02,0.331,0.037,0.513,0.05
		c0.18,0.013,0.337,0.027,0.471,0.039c0.161,0.014,0.262,0.021,0.302,0.021c0.106,0,0.301,0.003,0.581,0.01
		c0.281,0.006,0.582,0.01,0.903,0.01s0.622-0.004,0.902-0.01c0.281-0.007,0.482-0.01,0.603-0.01c0.28,0.093,0.421,0.287,0.421,0.582
		c0,0.146-0.054,0.28-0.16,0.4c-0.081,0.147-0.201,0.24-0.361,0.281c-0.388,0.04-0.722,0.077-1.003,0.11
		c-0.28,0.033-0.596,0.05-0.942,0.05h-0.301c-0.122,0-0.289-0.01-0.502-0.029c-0.215-0.021-0.435-0.041-0.663-0.062
		c-0.227-0.02-0.438-0.036-0.632-0.05c-0.193-0.013-0.311-0.02-0.351-0.02c-0.28-0.026-0.589-0.081-0.924-0.161
		c-0.334-0.053-0.642-0.15-0.923-0.29c-0.28-0.142-0.521-0.331-0.722-0.572c-0.174-0.213-0.261-0.508-0.261-0.883V46.47z
		 M37.067,50.783c0-0.12-0.014-0.237-0.039-0.352c-0.028-0.113-0.04-0.23-0.04-0.351c0-0.534,0.042-1.066,0.13-1.595
		c0.087-0.528,0.13-1.053,0.13-1.575c0-0.026-0.003-0.053-0.01-0.079c-0.007-0.027-0.01-0.067-0.01-0.122v-0.159l-0.081-0.081
		h-1.925v4.313H37.067z M38.051,50.863c0.04,0.014,0.08,0.034,0.12,0.061c0.067,0.027,0.113,0.039,0.141,0.039h1.564
		c0.094,0,0.168-0.093,0.222-0.28c0.065-0.16,0.106-0.26,0.12-0.301c0.014-0.094,0.032-0.207,0.06-0.341
		c0.055-0.134,0.098-0.264,0.131-0.392c0.034-0.126,0.066-0.243,0.1-0.351c0.034-0.107,0.051-0.171,0.051-0.191
		c0-0.02,0.014-0.119,0.04-0.3s0.054-0.385,0.08-0.612c0.054-0.214,0.097-0.428,0.131-0.642c0.033-0.214,0.063-0.382,0.091-0.502
		v-0.1c0-0.067-0.045-0.12-0.132-0.161c-0.087-0.04-0.18-0.07-0.28-0.091c-0.101-0.02-0.2-0.036-0.301-0.05
		c-0.1-0.013-0.171-0.02-0.212-0.02h-0.741h-0.502l-0.08,0.079l-0.341,3.411c-0.014,0.12-0.06,0.241-0.141,0.361
		c-0.08,0.12-0.12,0.234-0.12,0.342V50.863z"/>
</g>
<path fill="#EB6E96" d="M46.096,57.244c-0.013-0.148-0.037-0.401-0.069-0.763c-0.034-0.362-0.068-0.743-0.101-1.144
	c-0.034-0.402-0.064-0.782-0.091-1.144s-0.054-0.615-0.08-0.763v-0.34c0-0.282,0.063-0.476,0.19-0.583
	c0.127-0.106,0.338-0.161,0.632-0.161h0.422c0.16,0,0.388,0.004,0.682,0.011s0.588,0.023,0.883,0.051
	c0.321,0.013,0.603,0.022,0.843,0.029c0.241,0.007,0.381,0.01,0.422,0.01c0.28,0.014,0.534,0.054,0.762,0.121
	c0.227,0.093,0.414,0.267,0.562,0.522v0.58c0,0.724-0.017,1.401-0.05,2.036c-0.033,0.637-0.077,1.335-0.13,2.098
	c-0.027,0.294-0.162,0.462-0.402,0.501c-0.093,0.013-0.264,0.036-0.511,0.07c-0.248,0.033-0.505,0.06-0.772,0.08
	c-0.269,0.021-0.525,0.04-0.772,0.061c-0.248,0.02-0.419,0.044-0.513,0.07H47.38h-0.622c-0.147-0.026-0.262-0.091-0.341-0.19
	c-0.08-0.101-0.138-0.217-0.171-0.352c-0.032-0.134-0.057-0.281-0.07-0.441C46.149,57.471,46.122,57.351,46.096,57.244
	 M47.239,54.856c0.013,0.133,0.033,0.308,0.061,0.521c0.013,0.241,0.03,0.473,0.051,0.693c0.019,0.22,0.036,0.414,0.05,0.581
	c0.013,0.168,0.019,0.258,0.019,0.271l0.081,0.24h0.321c0.294,0,0.555-0.007,0.782-0.02s0.495-0.041,0.803-0.081
	c0.04-0.012,0.084-0.03,0.13-0.05c0.047-0.02,0.084-0.05,0.111-0.09c0.026-0.534,0.05-0.997,0.069-1.384
	c0.021-0.389,0.031-0.817,0.031-1.285v-0.421c-0.389-0.026-0.727-0.047-1.014-0.061c-0.288-0.013-0.612-0.02-0.974-0.02
	c-0.054,0-0.134,0.003-0.241,0.01c-0.106,0.007-0.167,0.01-0.18,0.01l-0.101,0.061v0.401V54.856z M51.974,57.946
	c0-0.147,0.041-0.281,0.121-0.402c0.106-0.106,0.227-0.213,0.36-0.321c0.134-0.106,0.265-0.21,0.392-0.311
	c0.127-0.1,0.224-0.211,0.292-0.33c0.119-0.228,0.173-0.458,0.159-0.693c-0.013-0.233-0.02-0.472-0.02-0.712
	c-0.201,0-0.401,0.014-0.602,0.04c-0.175,0.027-0.368,0.041-0.582,0.041c-0.255,0-0.448-0.094-0.582-0.281
	c-0.135-0.161-0.201-0.374-0.201-0.643c0-0.08,0.011-0.112,0.03-0.1c0.021,0.013,0.091-0.007,0.211-0.061
	c0.307-0.121,0.555-0.208,0.743-0.261c0.212-0.054,0.493-0.133,0.843-0.241c0.146-0.04,0.223-0.116,0.23-0.23
	c0.006-0.113,0.01-0.23,0.01-0.35c0-0.321-0.008-0.626-0.021-0.913c-0.013-0.288-0.032-0.612-0.06-0.974
	c-0.013-0.054-0.046-0.081-0.101-0.081h-0.079c-0.295,0-0.572,0.031-0.833,0.091c-0.262,0.06-0.532,0.09-0.812,0.09
	c-0.214,0-0.408-0.053-0.582-0.16s-0.262-0.281-0.262-0.521c0-0.16,0.058-0.317,0.172-0.473c0.113-0.152,0.257-0.244,0.431-0.27
	c0.04,0,0.123-0.004,0.251-0.011c0.127-0.007,0.261-0.016,0.401-0.029c0.14-0.014,0.274-0.023,0.401-0.03s0.213-0.01,0.261-0.01
	c0.047,0,0.131-0.021,0.25-0.061c0.134-0.014,0.215-0.027,0.241-0.04c0.053,0,0.094-0.006,0.121-0.021
	c0.026-0.013,0.046-0.026,0.06-0.04v-4.815c0-0.213,0.063-0.384,0.19-0.512c0.127-0.126,0.298-0.189,0.512-0.189
	c0.335,0,0.542,0.153,0.622,0.461c-0.027,0.789-0.043,1.605-0.051,2.448c-0.006,0.843,0.064,1.651,0.211,2.427
	c0.094,0.094,0.207,0.128,0.341,0.101h0.382c0.134,0.027,0.247,0.066,0.341,0.12c0.094,0.08,0.14,0.24,0.14,0.482
	c0,0.2-0.056,0.347-0.169,0.44s-0.245,0.161-0.393,0.2c-0.146,0.041-0.273,0.067-0.381,0.081c-0.106,0.04-0.16,0.087-0.16,0.141
	v2.067l0.06,0.1c0.121-0.014,0.254-0.034,0.402-0.062c0.147,0,0.284,0.021,0.41,0.062c0.128,0.039,0.234,0.1,0.321,0.181
	c0.088,0.08,0.13,0.213,0.13,0.4c0,0.215-0.059,0.355-0.18,0.422c-0.107,0.094-0.234,0.164-0.381,0.21
	c-0.147,0.047-0.298,0.101-0.451,0.16c-0.154,0.062-0.258,0.157-0.312,0.292c-0.04,0.334-0.077,0.658-0.11,0.973
	s-0.097,0.619-0.191,0.913c-0.065,0.281-0.184,0.545-0.351,0.792s-0.391,0.484-0.671,0.712c-0.175,0.121-0.321,0.201-0.442,0.241
	c-0.107,0.067-0.241,0.101-0.401,0.101s-0.311-0.061-0.451-0.182C52.044,58.287,51.974,58.133,51.974,57.946 M56.869,57.785
	c0-0.147,0.057-0.287,0.171-0.421c0.113-0.134,0.251-0.201,0.411-0.201h2.046c0-0.12-0.06-0.221-0.181-0.301
	c-0.12-0.054-0.193-0.147-0.221-0.28c-0.04-0.082-0.09-0.221-0.149-0.422c-0.061-0.201-0.125-0.418-0.191-0.652
	c-0.066-0.233-0.134-0.451-0.2-0.651c-0.067-0.201-0.107-0.348-0.121-0.441c-0.026-0.12-0.046-0.218-0.06-0.292
	c-0.014-0.072-0.021-0.17-0.021-0.29c0-0.201,0.062-0.378,0.181-0.531c0.121-0.154,0.287-0.231,0.502-0.231
	c0.16,0,0.273,0.021,0.341,0.06c0.094,0.067,0.163,0.145,0.211,0.231c0.046,0.086,0.08,0.187,0.101,0.301
	c0.02,0.114,0.043,0.23,0.069,0.352c0.013,0.08,0.047,0.217,0.101,0.411s0.113,0.401,0.181,0.622s0.127,0.431,0.182,0.632
	c0.052,0.2,0.093,0.335,0.119,0.4v0.302c0,0.201-0.03,0.345-0.09,0.432c-0.061,0.087-0.171,0.203-0.331,0.351h1.224
	c0.428,0,0.843-0.032,1.244-0.101c0.428-0.053,0.849-0.08,1.264-0.08c0.12,0,0.241,0.027,0.36,0.08
	c0.135,0.081,0.242,0.168,0.321,0.261v0.281c0,0.295-0.144,0.508-0.431,0.642c-0.288,0.135-0.619,0.222-0.993,0.261
	c-0.361,0.067-0.729,0.098-1.104,0.091s-0.648-0.01-0.822-0.01h-1.225c-0.053,0-0.167-0.014-0.341-0.04
	c-0.146,0-0.314-0.007-0.502-0.021c-0.188-0.013-0.367-0.023-0.541-0.03c-0.174-0.006-0.294-0.01-0.361-0.01
	c-0.12-0.013-0.244-0.026-0.372-0.04c-0.126-0.014-0.249-0.043-0.37-0.091c-0.12-0.046-0.221-0.116-0.301-0.21
	C56.902,58.08,56.869,57.959,56.869,57.785 M57.271,49.841c0-0.201,0.066-0.353,0.201-0.452c0.133-0.101,0.301-0.184,0.501-0.25
	c0.188-0.041,0.378-0.063,0.572-0.07c0.193-0.007,0.352-0.011,0.471-0.011h0.181c0.106,0,0.231-0.003,0.371-0.01
	c0.141-0.007,0.278-0.01,0.411-0.01h0.361c0.574,0,1.073,0.003,1.495,0.01c0.421,0.007,0.913,0.03,1.475,0.071
	c0.308,0.093,0.461,0.301,0.461,0.621c0,0.16-0.027,0.28-0.08,0.36c-0.026,0.107-0.12,0.201-0.281,0.281
	c-0.949-0.04-1.853-0.036-2.708,0.011s-1.739,0.07-2.648,0.07c-0.214,0-0.401-0.047-0.562-0.141
	C57.344,50.256,57.271,50.094,57.271,49.841 M58.434,45.326c0-0.173,0.061-0.331,0.182-0.472c0.119-0.14,0.267-0.211,0.44-0.211
	h0.04c0.027,0.014,0.074,0.028,0.141,0.041c0.094,0.014,0.153,0.032,0.181,0.06c0.08,0.041,0.207,0.121,0.382,0.242
	c0.2,0.119,0.408,0.243,0.621,0.369c0.214,0.129,0.415,0.252,0.602,0.372c0.188,0.12,0.322,0.201,0.402,0.241
	c0.12,0.094,0.233,0.194,0.34,0.3c0.107,0.108,0.161,0.248,0.161,0.422c0,0.175-0.061,0.321-0.181,0.442
	c-0.12,0.119-0.274,0.18-0.462,0.18c-0.133,0-0.357-0.073-0.671-0.221c-0.315-0.146-0.633-0.323-0.953-0.532
	c-0.321-0.206-0.605-0.424-0.853-0.651C58.558,45.682,58.434,45.487,58.434,45.326 M61.483,55.599c0-0.041,0.021-0.145,0.061-0.312
	s0.083-0.357,0.13-0.572c0.048-0.213,0.09-0.424,0.131-0.631c0.04-0.207,0.08-0.371,0.12-0.492c0.04-0.2,0.113-0.364,0.221-0.491
	c0.106-0.127,0.261-0.19,0.461-0.19c0.429,0,0.643,0.22,0.643,0.662v0.2l-0.501,2.407c-0.041,0.188-0.121,0.314-0.241,0.382
	s-0.274,0.101-0.462,0.101c-0.227,0-0.377-0.078-0.451-0.23c-0.073-0.155-0.11-0.332-0.11-0.532V55.599z"/>
<path fill="#EB6E96" d="M66.158,57.244c-0.013-0.148-0.037-0.401-0.07-0.763c-0.034-0.362-0.066-0.743-0.101-1.144
	c-0.034-0.402-0.063-0.782-0.091-1.144c-0.025-0.361-0.053-0.615-0.079-0.763v-0.34c0-0.282,0.063-0.476,0.19-0.583
	c0.127-0.106,0.337-0.161,0.632-0.161h0.421c0.16,0,0.389,0.004,0.683,0.011s0.588,0.023,0.882,0.051
	c0.321,0.013,0.603,0.022,0.844,0.029c0.24,0.007,0.381,0.01,0.421,0.01c0.28,0.014,0.535,0.054,0.763,0.121
	c0.227,0.093,0.414,0.267,0.562,0.522v0.58c0,0.724-0.017,1.401-0.051,2.036c-0.033,0.637-0.077,1.335-0.13,2.098
	c-0.027,0.294-0.16,0.462-0.401,0.501c-0.094,0.013-0.265,0.036-0.511,0.07c-0.248,0.033-0.505,0.06-0.773,0.08
	c-0.268,0.021-0.524,0.04-0.771,0.061c-0.248,0.02-0.419,0.044-0.513,0.07h-0.622H66.82c-0.147-0.026-0.262-0.091-0.341-0.19
	c-0.081-0.101-0.138-0.217-0.171-0.352c-0.033-0.134-0.057-0.281-0.07-0.441C66.211,57.471,66.185,57.351,66.158,57.244
	 M67.301,54.856c0.014,0.133,0.034,0.308,0.062,0.521c0.013,0.241,0.029,0.473,0.05,0.693c0.021,0.22,0.037,0.414,0.051,0.581
	c0.013,0.168,0.02,0.258,0.02,0.271l0.08,0.24h0.32c0.294,0,0.555-0.007,0.783-0.02c0.228-0.013,0.495-0.041,0.803-0.081
	c0.04-0.012,0.083-0.03,0.131-0.05c0.046-0.02,0.082-0.05,0.109-0.09c0.027-0.534,0.051-0.997,0.07-1.384
	c0.02-0.389,0.03-0.817,0.03-1.285v-0.421c-0.388-0.026-0.726-0.047-1.013-0.061c-0.288-0.013-0.612-0.02-0.974-0.02
	c-0.054,0-0.134,0.003-0.241,0.01c-0.106,0.007-0.167,0.01-0.181,0.01l-0.101,0.061v0.401V54.856z M72.036,57.946
	c0-0.147,0.041-0.281,0.12-0.402c0.107-0.106,0.229-0.213,0.361-0.321c0.134-0.106,0.265-0.21,0.391-0.311
	c0.128-0.1,0.225-0.211,0.292-0.33c0.12-0.228,0.174-0.458,0.16-0.693c-0.014-0.233-0.02-0.472-0.02-0.712
	c-0.2,0-0.401,0.014-0.602,0.04c-0.175,0.027-0.368,0.041-0.583,0.041c-0.253,0-0.447-0.094-0.582-0.281
	c-0.133-0.161-0.2-0.374-0.2-0.643c0-0.08,0.011-0.112,0.03-0.1c0.021,0.013,0.09-0.007,0.211-0.061
	c0.307-0.121,0.555-0.208,0.742-0.261c0.214-0.054,0.495-0.133,0.843-0.241c0.146-0.04,0.224-0.116,0.231-0.23
	c0.006-0.113,0.009-0.23,0.009-0.35c0-0.321-0.007-0.626-0.021-0.913c-0.013-0.288-0.032-0.612-0.06-0.974
	c-0.014-0.054-0.047-0.081-0.101-0.081h-0.08c-0.294,0-0.571,0.031-0.832,0.091c-0.262,0.06-0.531,0.09-0.812,0.09
	c-0.214,0-0.408-0.053-0.582-0.16s-0.262-0.281-0.262-0.521c0-0.16,0.058-0.317,0.171-0.473c0.113-0.152,0.258-0.244,0.432-0.27
	c0.041,0,0.123-0.004,0.251-0.011c0.127-0.007,0.26-0.016,0.401-0.029c0.14-0.014,0.273-0.023,0.401-0.03
	c0.127-0.007,0.213-0.01,0.261-0.01c0.046,0,0.131-0.021,0.251-0.061c0.133-0.014,0.214-0.027,0.24-0.04
	c0.053,0,0.094-0.006,0.121-0.021c0.025-0.013,0.046-0.026,0.06-0.04v-4.815c0-0.213,0.063-0.384,0.19-0.512
	c0.127-0.126,0.298-0.189,0.512-0.189c0.334,0,0.542,0.153,0.621,0.461c-0.026,0.789-0.042,1.605-0.05,2.448
	c-0.006,0.843,0.063,1.651,0.211,2.427c0.093,0.094,0.207,0.128,0.342,0.101h0.381c0.133,0.027,0.247,0.066,0.341,0.12
	c0.094,0.08,0.141,0.24,0.141,0.482c0,0.2-0.057,0.347-0.171,0.44c-0.113,0.094-0.244,0.161-0.392,0.2
	c-0.146,0.041-0.273,0.067-0.381,0.081c-0.106,0.04-0.16,0.087-0.16,0.141v2.067l0.061,0.1c0.119-0.014,0.253-0.034,0.4-0.062
	c0.147,0,0.284,0.021,0.412,0.062c0.127,0.039,0.233,0.1,0.32,0.181c0.087,0.08,0.13,0.213,0.13,0.4c0,0.215-0.06,0.355-0.18,0.422
	c-0.108,0.094-0.233,0.164-0.382,0.21c-0.146,0.047-0.297,0.101-0.451,0.16c-0.153,0.062-0.257,0.157-0.311,0.292
	c-0.04,0.334-0.077,0.658-0.11,0.973c-0.034,0.314-0.097,0.619-0.19,0.913c-0.067,0.281-0.185,0.545-0.352,0.792
	s-0.391,0.484-0.672,0.712c-0.174,0.121-0.32,0.201-0.441,0.241c-0.107,0.067-0.24,0.101-0.401,0.101
	c-0.16,0-0.311-0.061-0.45-0.182C72.106,58.287,72.036,58.133,72.036,57.946 M76.932,57.785c0-0.147,0.057-0.287,0.171-0.421
	c0.113-0.134,0.251-0.201,0.411-0.201h2.046c0-0.12-0.061-0.221-0.181-0.301c-0.12-0.054-0.193-0.147-0.22-0.28
	c-0.041-0.082-0.092-0.221-0.151-0.422c-0.061-0.201-0.124-0.418-0.19-0.652c-0.067-0.233-0.134-0.451-0.2-0.651
	c-0.067-0.201-0.107-0.348-0.12-0.441c-0.027-0.12-0.048-0.218-0.062-0.292c-0.014-0.072-0.02-0.17-0.02-0.29
	c0-0.201,0.061-0.378,0.181-0.531c0.12-0.154,0.287-0.231,0.502-0.231c0.16,0,0.274,0.021,0.341,0.06
	c0.094,0.067,0.164,0.145,0.211,0.231c0.047,0.086,0.079,0.187,0.101,0.301c0.02,0.114,0.043,0.23,0.07,0.352
	c0.013,0.08,0.046,0.217,0.1,0.411s0.112,0.401,0.181,0.622c0.067,0.221,0.127,0.431,0.181,0.632c0.053,0.2,0.094,0.335,0.12,0.4
	v0.302c0,0.201-0.03,0.345-0.09,0.432c-0.061,0.087-0.171,0.203-0.332,0.351h1.225c0.428,0,0.843-0.032,1.243-0.101
	c0.428-0.053,0.85-0.08,1.265-0.08c0.12,0,0.24,0.027,0.361,0.08c0.133,0.081,0.24,0.168,0.32,0.261v0.281
	c0,0.295-0.144,0.508-0.432,0.642c-0.288,0.135-0.619,0.222-0.992,0.261c-0.361,0.067-0.729,0.098-1.104,0.091
	c-0.373-0.007-0.648-0.01-0.822-0.01h-1.223c-0.055,0-0.168-0.014-0.342-0.04c-0.146,0-0.314-0.007-0.501-0.021
	c-0.188-0.013-0.369-0.023-0.543-0.03c-0.174-0.006-0.293-0.01-0.36-0.01c-0.12-0.013-0.244-0.026-0.371-0.04
	c-0.128-0.014-0.251-0.043-0.371-0.091c-0.12-0.046-0.221-0.116-0.302-0.21C76.965,58.08,76.932,57.959,76.932,57.785
	 M77.333,49.841c0-0.201,0.066-0.353,0.2-0.452c0.135-0.101,0.302-0.184,0.502-0.25c0.188-0.041,0.377-0.063,0.571-0.07
	s0.352-0.011,0.472-0.011h0.181c0.106,0,0.23-0.003,0.371-0.01s0.277-0.01,0.411-0.01h0.361c0.574,0,1.073,0.003,1.494,0.01
	c0.422,0.007,0.913,0.03,1.475,0.071c0.308,0.093,0.462,0.301,0.462,0.621c0,0.16-0.026,0.28-0.08,0.36
	c-0.027,0.107-0.12,0.201-0.281,0.281c-0.949-0.04-1.853-0.036-2.708,0.011c-0.856,0.047-1.739,0.07-2.648,0.07
	c-0.214,0-0.401-0.047-0.562-0.141C77.405,50.256,77.333,50.094,77.333,49.841 M78.497,45.326c0-0.173,0.06-0.331,0.18-0.472
	c0.12-0.14,0.268-0.211,0.441-0.211h0.041c0.026,0.014,0.073,0.028,0.139,0.041c0.094,0.014,0.155,0.032,0.182,0.06
	c0.08,0.041,0.207,0.121,0.381,0.242c0.201,0.119,0.408,0.243,0.622,0.369c0.214,0.129,0.414,0.252,0.602,0.372
	s0.321,0.201,0.402,0.241c0.12,0.094,0.232,0.194,0.34,0.3c0.107,0.108,0.161,0.248,0.161,0.422c0,0.175-0.061,0.321-0.181,0.442
	c-0.12,0.119-0.273,0.18-0.461,0.18c-0.135,0-0.358-0.073-0.673-0.221c-0.313-0.146-0.632-0.323-0.952-0.532
	c-0.322-0.206-0.605-0.424-0.854-0.651C78.62,45.682,78.497,45.487,78.497,45.326 M81.546,55.599c0-0.041,0.02-0.145,0.061-0.312
	c0.04-0.167,0.083-0.357,0.13-0.572c0.047-0.213,0.09-0.424,0.13-0.631s0.081-0.371,0.121-0.492c0.039-0.2,0.114-0.364,0.221-0.491
	s0.261-0.19,0.462-0.19c0.428,0,0.643,0.22,0.643,0.662v0.2L82.81,56.18c-0.04,0.188-0.12,0.314-0.241,0.382
	c-0.12,0.067-0.273,0.101-0.461,0.101c-0.228,0-0.378-0.078-0.45-0.23c-0.075-0.155-0.111-0.332-0.111-0.532V55.599z"/>
<path fill="#EB6E96" d="M93.402,50.803c-0.24,0-0.421,0.088-0.541,0.261c-0.121,0.174-0.225,0.361-0.312,0.562
	c-0.087,0.2-0.181,0.388-0.28,0.562c-0.101,0.174-0.258,0.261-0.472,0.261c-0.134,0-0.268-0.066-0.401-0.2
	c-0.135-0.134-0.2-0.262-0.2-0.381c0-0.281,0.065-0.562,0.2-0.843c0.134-0.281,0.308-0.538,0.521-0.773
	c0.214-0.233,0.458-0.424,0.732-0.571c0.273-0.146,0.552-0.221,0.833-0.221c0.308,0,0.562,0.064,0.762,0.191
	s0.375,0.284,0.522,0.471c0.146,0.188,0.28,0.395,0.401,0.622c0.12,0.228,0.253,0.435,0.4,0.622
	c0.146,0.188,0.324,0.345,0.532,0.471c0.206,0.128,0.464,0.191,0.771,0.191c0.215,0,0.385-0.063,0.512-0.191
	c0.127-0.126,0.24-0.27,0.341-0.431c0.101-0.16,0.208-0.305,0.321-0.431c0.114-0.127,0.277-0.191,0.491-0.191
	c0.027,0,0.091,0.004,0.191,0.01c0.101,0.007,0.163,0.018,0.19,0.03c0.079,0.08,0.128,0.157,0.141,0.231
	c0.014,0.073,0.02,0.163,0.02,0.27c0,0.268-0.067,0.52-0.201,0.754c-0.133,0.232-0.307,0.434-0.521,0.602
	c-0.214,0.167-0.448,0.298-0.702,0.391c-0.255,0.094-0.502,0.141-0.743,0.141c-0.388,0-0.726-0.06-1.013-0.181
	c-0.287-0.12-0.535-0.268-0.742-0.441c-0.207-0.173-0.385-0.367-0.531-0.582c-0.148-0.214-0.288-0.408-0.422-0.582
	c-0.133-0.173-0.264-0.32-0.391-0.44C93.688,50.863,93.55,50.803,93.402,50.803"/>
<path fill="#EB6E96" d="M29.665,72.025c0-0.133,0.057-0.308,0.17-0.521s0.262-0.415,0.442-0.603c0.18-0.187,0.367-0.347,0.562-0.481
	c0.193-0.133,0.37-0.2,0.531-0.2c0.16,0,0.305,0.05,0.432,0.15c0.126,0.101,0.19,0.244,0.19,0.432c0,0.107-0.027,0.221-0.08,0.342
	c-0.2,0.254-0.415,0.515-0.643,0.781c-0.2,0.269-0.435,0.509-0.701,0.723h-0.241c-0.215,0-0.375-0.054-0.481-0.161
	C29.725,72.406,29.665,72.253,29.665,72.025 M35.483,78.807c-0.041,0.026-0.107,0.074-0.201,0.141
	c-0.094,0.067-0.194,0.145-0.301,0.23c-0.107,0.087-0.208,0.157-0.302,0.211c-0.08,0.08-0.147,0.134-0.199,0.16
	c-0.135,0.106-0.279,0.204-0.432,0.291c-0.154,0.087-0.324,0.131-0.512,0.131c-0.429,0-0.643-0.208-0.643-0.622
	c0-0.147,0.034-0.281,0.1-0.401c0.094-0.121,0.205-0.23,0.331-0.331c0.128-0.101,0.258-0.188,0.392-0.261
	c0.134-0.074,0.255-0.15,0.361-0.23v-0.081c0-0.094-0.029-0.146-0.09-0.16s-0.16-0.058-0.301-0.131s-0.292-0.146-0.451-0.221
	c-0.16-0.073-0.311-0.149-0.452-0.23c-0.14-0.08-0.233-0.13-0.28-0.15c-0.047-0.02-0.115-0.061-0.201-0.12
	c-0.086-0.061-0.184-0.128-0.29-0.2c-0.107-0.073-0.215-0.151-0.321-0.231c-0.08-0.054-0.147-0.093-0.201-0.12
	c-0.174-0.12-0.384-0.291-0.631-0.512c-0.249-0.221-0.372-0.458-0.372-0.712c0-0.188,0.06-0.338,0.181-0.452
	c0.121-0.112,0.271-0.17,0.451-0.17s0.352,0.054,0.512,0.16c0.188,0.094,0.361,0.211,0.521,0.352
	c0.161,0.14,0.314,0.277,0.461,0.411c0.175,0.147,0.328,0.254,0.463,0.32c0.066,0.055,0.199,0.125,0.4,0.212
	c0.2,0.087,0.411,0.187,0.632,0.3c0.222,0.114,0.429,0.214,0.622,0.301c0.193,0.088,0.338,0.158,0.432,0.212h0.161
	c0.106,0,0.26-0.101,0.461-0.302c0.214-0.173,0.424-0.387,0.632-0.642c0.207-0.254,0.391-0.505,0.551-0.753
	c0.161-0.246,0.242-0.431,0.242-0.552h-5.558c-0.107,0-0.191-0.08-0.251-0.24c-0.061-0.16-0.091-0.274-0.091-0.341
	c0-0.214,0.081-0.375,0.241-0.481c0.161-0.107,0.327-0.188,0.501-0.241c0.2-0.039,0.374-0.08,0.521-0.12
	c0.161-0.013,0.241-0.04,0.241-0.08v-4.254h-2.387c-0.175,0-0.331-0.06-0.473-0.181c-0.14-0.119-0.209-0.261-0.209-0.421
	c0-0.187,0.042-0.328,0.13-0.421c0.087-0.094,0.202-0.174,0.351-0.241c0.134-0.041,0.274-0.07,0.421-0.09
	c0.147-0.021,0.288-0.037,0.422-0.051c0.16,0,0.414-0.02,0.763-0.061c0.348-0.013,0.738-0.026,1.173-0.04
	c0.435-0.012,0.886-0.036,1.354-0.069c0.468-0.033,0.92-0.057,1.354-0.07s0.825-0.027,1.174-0.04
	c0.347-0.014,0.602-0.026,0.762-0.04c0.04,0,0.147-0.007,0.321-0.021h0.411h0.371c0.2,0.014,0.327,0.021,0.381,0.021
	c0.174,0.026,0.288,0.094,0.342,0.2c0.08,0.12,0.12,0.255,0.12,0.401c0,0.308-0.109,0.498-0.331,0.572
	c-0.221,0.073-0.458,0.123-0.713,0.15c-0.039,0-0.123,0.003-0.25,0.009c-0.128,0.008-0.271,0.018-0.431,0.03
	c-0.135,0.014-0.265,0.024-0.392,0.03c-0.128,0.007-0.211,0.011-0.251,0.011l-0.161,0.16l-0.02,0.141
	c-0.014,0.107-0.024,0.22-0.03,0.341c-0.007,0.121-0.014,0.244-0.021,0.371s-0.009,0.238-0.009,0.331v2.829
	c-0.041,0.026-0.092,0.076-0.151,0.15s-0.097,0.124-0.11,0.15v0.061v0.04c0,0.014,0.007,0.026,0.021,0.04
	c0.04,0.014,0.066,0.027,0.08,0.04c0.039,0,0.126,0.003,0.261,0.01c0.134,0.008,0.28,0.01,0.44,0.01
	c0.147,0.027,0.288,0.044,0.422,0.05c0.134,0.007,0.228,0.012,0.281,0.012c0.201,0.025,0.392,0.109,0.571,0.25
	c0.181,0.141,0.271,0.324,0.271,0.551c0,0.121-0.034,0.242-0.101,0.361c-0.041,0.135-0.101,0.248-0.18,0.342
	c-0.175,0.28-0.332,0.538-0.473,0.771c-0.141,0.234-0.291,0.453-0.45,0.653c-0.135,0.214-0.285,0.425-0.452,0.631
	c-0.167,0.208-0.365,0.432-0.592,0.673c-0.014,0.014-0.021,0.05-0.021,0.11c0,0.06,0.01,0.091,0.03,0.091s0.07,0.02,0.151,0.06
	c0.053,0.027,0.2,0.087,0.44,0.18c0.241,0.095,0.495,0.198,0.763,0.312c0.268,0.114,0.518,0.221,0.753,0.321
	c0.232,0.101,0.383,0.164,0.45,0.19c0.161,0.08,0.338,0.18,0.532,0.301c0.193,0.12,0.291,0.295,0.291,0.522
	c0,0.226-0.073,0.384-0.221,0.47c-0.147,0.088-0.321,0.131-0.521,0.131h-0.241l-3.43-1.424H35.483z M33.657,64.823
	c0-0.187,0.062-0.331,0.19-0.431c0.127-0.101,0.271-0.15,0.432-0.15c0.214,0,0.428,0.087,0.642,0.26l1.064,1.063
	c0.066,0.134,0.1,0.261,0.1,0.381c0,0.188-0.061,0.328-0.181,0.421c-0.12,0.094-0.265,0.142-0.431,0.142
	c-0.169,0-0.352-0.061-0.553-0.181c-0.2-0.094-0.397-0.224-0.591-0.392c-0.194-0.167-0.358-0.356-0.492-0.571
	C33.717,65.178,33.657,64.997,33.657,64.823 M35.904,73.229l0.081-0.08v-0.04c0-0.041-0.062-0.167-0.181-0.382
	c-0.095-0.214-0.141-0.435-0.141-0.661v-3.23l-0.101-0.101c-0.015,0-0.067-0.007-0.161-0.021h-0.171c-0.046,0-0.126-0.003-0.24-0.01
	c-0.113-0.006-0.228-0.003-0.341,0.01c-0.113,0.014-0.211,0.041-0.291,0.081s-0.12,0.106-0.12,0.2v4.233H35.904z M37.871,70.901
	c0-0.214,0.057-0.381,0.169-0.501c0.114-0.12,0.271-0.181,0.473-0.181c0.146,0,0.327,0.074,0.541,0.221
	c0.201,0.174,0.396,0.372,0.582,0.592c0.188,0.222,0.345,0.452,0.472,0.692c0.127,0.241,0.19,0.435,0.19,0.582
	c0,0.187-0.043,0.349-0.13,0.481c-0.087,0.134-0.238,0.201-0.452,0.201c-0.134,0-0.301-0.088-0.502-0.262
	c-0.2-0.173-0.407-0.381-0.621-0.622c-0.188-0.227-0.354-0.454-0.502-0.682S37.871,71.022,37.871,70.901"/>
<path fill="#EB6E96" d="M51.693,80.472c0-0.014,0.003-0.05,0.01-0.11c0.006-0.061,0.011-0.104,0.011-0.13
	c0.026-0.067,0.076-0.184,0.15-0.352c0.073-0.168,0.143-0.337,0.21-0.512c0.094-0.174,0.167-0.348,0.222-0.521
	c0.079-0.16,0.133-0.281,0.159-0.36c0.027-0.08,0.053-0.142,0.08-0.181c0.014-0.014,0.021-0.026,0.021-0.041
	c0-0.014-0.004-0.026-0.01-0.04c-0.007-0.013-0.011-0.061-0.011-0.141H50.39c-0.161,0-0.288-0.076-0.382-0.23
	c-0.094-0.153-0.141-0.294-0.141-0.422c0-0.126,0.034-0.254,0.101-0.381c0.067-0.126,0.181-0.203,0.342-0.23l2.728-0.141
	c0.094,0,0.201-0.106,0.32-0.32c0.122-0.214,0.237-0.462,0.353-0.743c0.113-0.28,0.206-0.564,0.28-0.852
	c0.073-0.288,0.11-0.505,0.11-0.653h-3.31c-0.188,0-0.331-0.082-0.432-0.25c-0.101-0.167-0.15-0.331-0.15-0.491
	c0-0.121,0.016-0.218,0.05-0.291c0.033-0.074,0.131-0.15,0.291-0.23c0.093,0,0.261-0.004,0.501-0.011
	c0.241-0.007,0.492-0.013,0.753-0.02s0.511-0.014,0.752-0.021c0.24-0.006,0.397-0.01,0.472-0.01s0.16-0.003,0.261-0.01
	s0.2-0.017,0.301-0.03c0.1-0.014,0.184-0.033,0.251-0.061c0.067,0,0.134-0.026,0.2-0.08v-0.361v-0.541
	c-0.026-0.107-0.046-0.258-0.06-0.451s-0.027-0.291-0.04-0.291l-0.061-0.081h-2.007c-0.188,0-0.354-0.08-0.501-0.24
	c-0.12-0.147-0.181-0.302-0.181-0.462s0.037-0.287,0.111-0.381c0.072-0.093,0.183-0.174,0.33-0.241h1.324
	c0.054,0,0.133-0.013,0.24-0.04c0.107,0,0.211-0.004,0.312-0.01s0.184-0.017,0.251-0.03l0.12-0.02l0.061-0.161v-0.863
	c-0.521,0-1.044,0.021-1.565,0.062c-0.521,0.039-1.05,0.06-1.584,0.06H50.31c-0.121-0.027-0.235-0.101-0.342-0.221
	s-0.16-0.24-0.16-0.361c0-0.24,0.08-0.4,0.24-0.481c0.188-0.08,0.381-0.133,0.581-0.16c0.148-0.013,0.335-0.04,0.562-0.08
	c0.268-0.027,0.529-0.054,0.782-0.08c0.254-0.027,0.481-0.061,0.683-0.101c0.214-0.013,0.341-0.02,0.381-0.02
	c0.094,0,0.268-0.004,0.521-0.01c0.254-0.007,0.516-0.018,0.782-0.031c0.295,0,0.568-0.003,0.823-0.01
	c0.254-0.007,0.428-0.01,0.521-0.01l0.16-0.1c-0.041-0.068-0.079-0.148-0.12-0.242c-0.04-0.093-0.06-0.188-0.06-0.28
	c0-0.294,0.097-0.575,0.29-0.843s0.352-0.528,0.472-0.782l0.742-1.485c0.16-0.227,0.361-0.34,0.603-0.34
	c0.213,0,0.363,0.077,0.451,0.23c0.086,0.153,0.13,0.31,0.13,0.471v0.291c0,0.074-0.033,0.165-0.1,0.271l-1.505,2.709l0.101,0.14
	h1.985c0.12,0,0.228,0.073,0.321,0.221c0.094,0.174,0.153,0.301,0.181,0.381v0.06c0,0.148-0.074,0.295-0.221,0.442
	c-0.147,0.146-0.301,0.221-0.462,0.221h-3.13c-0.053,0-0.087,0.029-0.1,0.09c-0.013,0.06-0.026,0.134-0.04,0.221
	s-0.021,0.157-0.021,0.211v0.14v0.281c0.014,0.067,0.041,0.101,0.08,0.101h0.142c0.333,0,0.658-0.017,0.973-0.051
	c0.314-0.032,0.632-0.05,0.952-0.05h0.502c0.12,0.041,0.214,0.107,0.281,0.201c0.08,0.12,0.121,0.247,0.121,0.381
	c0,0.2-0.074,0.354-0.222,0.461c-0.147,0.107-0.331,0.185-0.553,0.23c-0.22,0.048-0.457,0.071-0.711,0.071
	c-0.255,0.027-0.495,0.04-0.723,0.04c-0.201,0.013-0.378,0.03-0.532,0.051c-0.153,0.019-0.23,0.069-0.23,0.149v1.806h4.395
	c0.146,0,0.246,0.067,0.3,0.2c0.082,0.148,0.121,0.281,0.121,0.401c0,0.161-0.067,0.314-0.201,0.462
	c-0.133,0.147-0.294,0.221-0.481,0.221h-3.631c-0.08,0-0.15,0.054-0.211,0.161c-0.061,0.106-0.104,0.18-0.13,0.221
	c-0.054,0.147-0.131,0.338-0.23,0.57c-0.101,0.235-0.194,0.462-0.281,0.684c-0.088,0.22-0.163,0.41-0.231,0.571l-0.08,0.241v0.26
	l3.872,0.141c0.201,0.027,0.388,0.088,0.562,0.181c0.187,0.12,0.28,0.291,0.28,0.512c0,0.22-0.089,0.385-0.271,0.491
	c-0.18,0.107-0.378,0.16-0.592,0.16c-0.669,0-1.344-0.033-2.026-0.101c-0.654-0.039-1.317-0.06-1.985-0.06h-0.342l-0.16,0.16
	l-1.164,2.569c-0.067,0.12-0.163,0.221-0.291,0.301c-0.127,0.08-0.258,0.12-0.391,0.12c-0.188,0-0.335-0.074-0.441-0.221
	C51.74,80.812,51.693,80.659,51.693,80.472 M51.051,63.76c0-0.214,0.071-0.364,0.211-0.451c0.141-0.087,0.294-0.131,0.461-0.131
	c0.168,0,0.284,0.021,0.352,0.061c0.094,0.04,0.194,0.127,0.301,0.262c0.04,0.066,0.114,0.177,0.221,0.33
	c0.107,0.154,0.218,0.32,0.331,0.501s0.212,0.345,0.291,0.493c0.107,0.173,0.181,0.287,0.221,0.34
	c0.094,0.147,0.147,0.245,0.161,0.291c0.013,0.047,0.02,0.15,0.02,0.312c0,0.227-0.043,0.391-0.131,0.491
	c-0.087,0.101-0.25,0.151-0.491,0.151c-0.146,0-0.244-0.014-0.291-0.041c-0.047-0.026-0.13-0.127-0.251-0.301l-1.323-1.986
	c-0.014-0.026-0.034-0.074-0.061-0.141C51.058,63.847,51.051,63.787,51.051,63.76 M55.826,78.968c0-0.188,0.057-0.332,0.17-0.432
	c0.114-0.101,0.259-0.15,0.432-0.15c0.04,0,0.09,0.003,0.151,0.01c0.06,0.007,0.096,0.011,0.109,0.011l2.97,2.005
	c0.08,0.054,0.153,0.142,0.22,0.262c0.067,0.119,0.101,0.233,0.101,0.341c0,0.201-0.066,0.344-0.201,0.432
	c-0.133,0.086-0.28,0.13-0.44,0.13h-0.23c-0.034,0-0.098-0.029-0.191-0.091c-0.094-0.06-0.22-0.14-0.381-0.24
	c-0.16-0.1-0.32-0.204-0.481-0.311c-0.147-0.08-0.284-0.158-0.412-0.23c-0.126-0.074-0.196-0.124-0.21-0.15
	c-0.12-0.081-0.28-0.175-0.48-0.281c-0.175-0.094-0.346-0.208-0.513-0.342s-0.312-0.281-0.432-0.44
	C55.887,79.328,55.826,79.154,55.826,78.968"/>
<path fill="#EB6E96" d="M69.789,72.025c0-0.133,0.058-0.308,0.171-0.521c0.114-0.214,0.261-0.415,0.441-0.603
	c0.181-0.187,0.367-0.347,0.562-0.481c0.193-0.133,0.372-0.2,0.532-0.2s0.304,0.05,0.431,0.15s0.19,0.244,0.19,0.432
	c0,0.107-0.026,0.221-0.08,0.342c-0.2,0.254-0.414,0.515-0.642,0.781c-0.201,0.269-0.436,0.509-0.703,0.723h-0.239
	c-0.216,0-0.375-0.054-0.482-0.161C69.85,72.406,69.789,72.253,69.789,72.025 M75.607,78.807c-0.04,0.026-0.107,0.074-0.201,0.141
	c-0.094,0.067-0.193,0.145-0.3,0.23c-0.107,0.087-0.208,0.157-0.301,0.211c-0.081,0.08-0.147,0.134-0.201,0.16
	c-0.134,0.106-0.278,0.204-0.432,0.291s-0.324,0.131-0.512,0.131c-0.427,0-0.642-0.208-0.642-0.622c0-0.147,0.033-0.281,0.101-0.401
	c0.093-0.121,0.203-0.23,0.331-0.331c0.127-0.101,0.258-0.188,0.391-0.261c0.134-0.074,0.254-0.15,0.361-0.23v-0.081
	c0-0.094-0.03-0.146-0.09-0.16c-0.061-0.014-0.162-0.058-0.302-0.131s-0.29-0.146-0.451-0.221c-0.16-0.073-0.311-0.149-0.452-0.23
	c-0.14-0.08-0.233-0.13-0.279-0.15c-0.047-0.02-0.114-0.061-0.201-0.12c-0.088-0.061-0.185-0.128-0.291-0.2
	c-0.107-0.073-0.215-0.151-0.32-0.231c-0.082-0.054-0.148-0.093-0.201-0.12c-0.174-0.12-0.386-0.291-0.632-0.512
	c-0.247-0.221-0.372-0.458-0.372-0.712c0-0.188,0.062-0.338,0.182-0.452c0.12-0.112,0.271-0.17,0.45-0.17
	c0.182,0,0.352,0.054,0.513,0.16c0.187,0.094,0.36,0.211,0.521,0.352c0.16,0.14,0.313,0.277,0.461,0.411
	c0.175,0.147,0.327,0.254,0.462,0.32c0.066,0.055,0.2,0.125,0.401,0.212c0.199,0.087,0.411,0.187,0.631,0.3
	c0.222,0.114,0.429,0.214,0.623,0.301c0.193,0.088,0.337,0.158,0.431,0.212h0.16c0.107,0,0.261-0.101,0.462-0.302
	c0.214-0.173,0.425-0.387,0.633-0.642c0.207-0.254,0.391-0.505,0.551-0.753c0.161-0.246,0.24-0.431,0.24-0.552h-5.557
	c-0.107,0-0.189-0.08-0.251-0.24c-0.06-0.16-0.09-0.274-0.09-0.341c0-0.214,0.08-0.375,0.24-0.481
	c0.161-0.107,0.328-0.188,0.502-0.241c0.201-0.039,0.375-0.08,0.521-0.12c0.161-0.013,0.241-0.04,0.241-0.08v-4.254h-2.388
	c-0.174,0-0.331-0.06-0.472-0.181c-0.141-0.119-0.211-0.261-0.211-0.421c0-0.187,0.044-0.328,0.131-0.421
	c0.087-0.094,0.204-0.174,0.352-0.241c0.134-0.041,0.272-0.07,0.422-0.09c0.146-0.021,0.286-0.037,0.42-0.051
	c0.16,0,0.415-0.02,0.763-0.061c0.348-0.013,0.739-0.026,1.174-0.04c0.435-0.012,0.886-0.036,1.354-0.069
	c0.469-0.033,0.92-0.057,1.354-0.07s0.826-0.027,1.174-0.04c0.348-0.014,0.602-0.026,0.762-0.04c0.041,0,0.147-0.007,0.321-0.021
	h0.411h0.372c0.2,0.014,0.327,0.021,0.381,0.021c0.174,0.026,0.288,0.094,0.341,0.2c0.08,0.12,0.12,0.255,0.12,0.401
	c0,0.308-0.11,0.498-0.33,0.572c-0.221,0.073-0.459,0.123-0.712,0.15c-0.041,0-0.124,0.003-0.252,0.009
	c-0.127,0.008-0.271,0.018-0.431,0.03c-0.134,0.014-0.265,0.024-0.392,0.03c-0.127,0.007-0.211,0.011-0.25,0.011l-0.161,0.16
	l-0.02,0.141c-0.015,0.107-0.024,0.22-0.03,0.341c-0.007,0.121-0.014,0.244-0.021,0.371s-0.011,0.238-0.011,0.331v2.829
	c-0.039,0.026-0.089,0.076-0.15,0.15c-0.06,0.074-0.097,0.124-0.11,0.15v0.061v0.04c0,0.014,0.008,0.026,0.021,0.04
	c0.04,0.014,0.066,0.027,0.08,0.04c0.041,0,0.128,0.003,0.261,0.01c0.134,0.008,0.281,0.01,0.442,0.01
	c0.146,0.027,0.287,0.044,0.421,0.05c0.134,0.007,0.228,0.012,0.28,0.012c0.201,0.025,0.392,0.109,0.572,0.25
	s0.271,0.324,0.271,0.551c0,0.121-0.034,0.242-0.101,0.361c-0.04,0.135-0.101,0.248-0.182,0.342
	c-0.174,0.28-0.331,0.538-0.471,0.771c-0.141,0.234-0.292,0.453-0.451,0.653c-0.134,0.214-0.284,0.425-0.452,0.631
	c-0.167,0.208-0.363,0.432-0.592,0.673c-0.014,0.014-0.02,0.05-0.02,0.11c0,0.06,0.01,0.091,0.029,0.091
	c0.021,0,0.071,0.02,0.15,0.06c0.055,0.027,0.201,0.087,0.442,0.18c0.24,0.095,0.494,0.198,0.763,0.312
	c0.267,0.114,0.518,0.221,0.752,0.321c0.233,0.101,0.385,0.164,0.451,0.19c0.16,0.08,0.338,0.18,0.532,0.301
	c0.193,0.12,0.29,0.295,0.29,0.522c0,0.226-0.073,0.384-0.221,0.47c-0.146,0.088-0.32,0.131-0.521,0.131h-0.24l-3.431-1.424H75.607z
	 M73.782,64.823c0-0.187,0.063-0.331,0.189-0.431c0.128-0.101,0.271-0.15,0.432-0.15c0.214,0,0.429,0.087,0.643,0.26l1.063,1.063
	c0.066,0.134,0.101,0.261,0.101,0.381c0,0.188-0.061,0.328-0.181,0.421c-0.121,0.094-0.265,0.142-0.432,0.142
	s-0.352-0.061-0.552-0.181c-0.2-0.094-0.398-0.224-0.592-0.392c-0.194-0.167-0.358-0.356-0.492-0.571
	C73.842,65.178,73.782,64.997,73.782,64.823 M76.029,73.229l0.08-0.08v-0.04c0-0.041-0.061-0.167-0.181-0.382
	c-0.094-0.214-0.141-0.435-0.141-0.661v-3.23l-0.101-0.101c-0.013,0-0.067-0.007-0.16-0.021h-0.17c-0.048,0-0.128-0.003-0.242-0.01
	c-0.113-0.006-0.227-0.003-0.34,0.01c-0.114,0.014-0.211,0.041-0.292,0.081c-0.08,0.04-0.12,0.106-0.12,0.2v4.233H76.029z
	 M77.995,70.901c0-0.214,0.057-0.381,0.171-0.501c0.113-0.12,0.27-0.181,0.471-0.181c0.147,0,0.328,0.074,0.541,0.221
	c0.201,0.174,0.395,0.372,0.582,0.592c0.188,0.222,0.345,0.452,0.472,0.692c0.128,0.241,0.19,0.435,0.19,0.582
	c0,0.187-0.044,0.349-0.13,0.481c-0.087,0.134-0.238,0.201-0.452,0.201c-0.133,0-0.3-0.088-0.501-0.262
	c-0.201-0.173-0.408-0.381-0.622-0.622c-0.188-0.227-0.354-0.454-0.501-0.682C78.067,71.196,77.995,71.022,77.995,70.901"/>
<path fill="#EB6E96" d="M91.817,80.472c0-0.014,0.004-0.05,0.011-0.11s0.01-0.104,0.01-0.13c0.027-0.067,0.076-0.184,0.15-0.352
	c0.073-0.168,0.144-0.337,0.211-0.512c0.093-0.174,0.167-0.348,0.22-0.521c0.081-0.16,0.135-0.281,0.161-0.36
	c0.026-0.08,0.054-0.142,0.08-0.181c0.014-0.014,0.02-0.026,0.02-0.041c0-0.014-0.002-0.026-0.009-0.04
	c-0.008-0.013-0.011-0.061-0.011-0.141h-2.146c-0.16,0-0.288-0.076-0.382-0.23c-0.094-0.153-0.14-0.294-0.14-0.422
	c0-0.126,0.033-0.254,0.101-0.381c0.066-0.126,0.181-0.203,0.341-0.23l2.729-0.141c0.093,0,0.2-0.106,0.321-0.32
	c0.12-0.214,0.237-0.462,0.351-0.743c0.113-0.28,0.207-0.564,0.281-0.852c0.073-0.288,0.11-0.505,0.11-0.653h-3.311
	c-0.188,0-0.331-0.082-0.432-0.25c-0.1-0.167-0.15-0.331-0.15-0.491c0-0.121,0.017-0.218,0.051-0.291
	c0.033-0.074,0.13-0.15,0.29-0.23c0.094,0,0.261-0.004,0.502-0.011c0.24-0.007,0.492-0.013,0.752-0.02
	c0.261-0.007,0.512-0.014,0.752-0.021c0.242-0.006,0.398-0.01,0.473-0.01c0.073,0,0.16-0.003,0.261-0.01s0.2-0.017,0.301-0.03
	s0.183-0.033,0.251-0.061c0.066,0,0.133-0.026,0.201-0.08v-0.361v-0.541c-0.027-0.107-0.048-0.258-0.062-0.451
	s-0.026-0.291-0.04-0.291l-0.06-0.081h-2.007c-0.188,0-0.354-0.08-0.501-0.24c-0.121-0.147-0.181-0.302-0.181-0.462
	s0.036-0.287,0.109-0.381c0.073-0.093,0.185-0.174,0.331-0.241h1.325c0.053,0,0.133-0.013,0.24-0.04c0.106,0,0.211-0.004,0.312-0.01
	s0.184-0.017,0.251-0.03l0.12-0.02l0.06-0.161v-0.863c-0.521,0-1.043,0.021-1.564,0.062c-0.521,0.039-1.051,0.06-1.585,0.06h-0.481
	c-0.121-0.027-0.234-0.101-0.341-0.221c-0.107-0.12-0.161-0.24-0.161-0.361c0-0.24,0.08-0.4,0.241-0.481
	c0.188-0.08,0.381-0.133,0.582-0.16c0.146-0.013,0.334-0.04,0.562-0.08c0.268-0.027,0.527-0.054,0.781-0.08
	c0.255-0.027,0.482-0.061,0.683-0.101c0.215-0.013,0.342-0.02,0.382-0.02c0.093,0,0.267-0.004,0.521-0.01
	c0.254-0.007,0.515-0.018,0.782-0.031c0.294,0,0.568-0.003,0.823-0.01c0.253-0.007,0.427-0.01,0.521-0.01l0.161-0.1
	c-0.04-0.068-0.081-0.148-0.12-0.242c-0.041-0.093-0.061-0.188-0.061-0.28c0-0.294,0.097-0.575,0.291-0.843s0.351-0.528,0.471-0.782
	l0.743-1.485c0.16-0.227,0.361-0.34,0.602-0.34c0.214,0,0.365,0.077,0.451,0.23c0.088,0.153,0.131,0.31,0.131,0.471v0.291
	c0,0.074-0.034,0.165-0.101,0.271l-1.504,2.709l0.101,0.14h1.986c0.119,0,0.226,0.073,0.32,0.221
	c0.093,0.174,0.153,0.301,0.18,0.381v0.06c0,0.148-0.073,0.295-0.22,0.442c-0.147,0.146-0.302,0.221-0.462,0.221h-3.13
	c-0.054,0-0.087,0.029-0.1,0.09c-0.014,0.06-0.028,0.134-0.041,0.221s-0.021,0.157-0.021,0.211v0.14v0.281
	c0.014,0.067,0.041,0.101,0.081,0.101h0.141c0.335,0,0.659-0.017,0.973-0.051c0.314-0.032,0.633-0.05,0.953-0.05h0.502
	c0.12,0.041,0.213,0.107,0.28,0.201c0.08,0.12,0.12,0.247,0.12,0.381c0,0.2-0.073,0.354-0.22,0.461
	c-0.147,0.107-0.332,0.185-0.552,0.23c-0.221,0.048-0.459,0.071-0.712,0.071c-0.255,0.027-0.496,0.04-0.723,0.04
	c-0.2,0.013-0.379,0.03-0.531,0.051c-0.154,0.019-0.231,0.069-0.231,0.149v1.806h4.394c0.146,0,0.247,0.067,0.301,0.2
	c0.08,0.148,0.121,0.281,0.121,0.401c0,0.161-0.068,0.314-0.201,0.462c-0.134,0.147-0.294,0.221-0.481,0.221H96.07
	c-0.08,0-0.15,0.054-0.21,0.161c-0.06,0.106-0.104,0.18-0.131,0.221c-0.054,0.147-0.13,0.338-0.23,0.57
	c-0.101,0.235-0.193,0.462-0.28,0.684c-0.087,0.22-0.164,0.41-0.23,0.571l-0.081,0.241v0.26l3.872,0.141
	c0.201,0.027,0.389,0.088,0.562,0.181c0.187,0.12,0.28,0.291,0.28,0.512c0,0.22-0.091,0.385-0.271,0.491
	c-0.18,0.107-0.378,0.16-0.591,0.16c-0.669,0-1.345-0.033-2.026-0.101c-0.656-0.039-1.318-0.06-1.987-0.06h-0.34l-0.161,0.16
	l-1.163,2.569c-0.067,0.12-0.165,0.221-0.291,0.301c-0.128,0.08-0.258,0.12-0.392,0.12c-0.188,0-0.334-0.074-0.441-0.221
	C91.865,80.812,91.817,80.659,91.817,80.472 M91.176,63.76c0-0.214,0.07-0.364,0.211-0.451c0.14-0.087,0.294-0.131,0.461-0.131
	s0.284,0.021,0.352,0.061c0.093,0.04,0.193,0.127,0.301,0.262c0.04,0.066,0.113,0.177,0.221,0.33
	c0.107,0.154,0.217,0.32,0.331,0.501c0.113,0.181,0.211,0.345,0.291,0.493c0.106,0.173,0.18,0.287,0.22,0.34
	c0.095,0.147,0.146,0.245,0.161,0.291c0.013,0.047,0.021,0.15,0.021,0.312c0,0.227-0.045,0.391-0.131,0.491
	s-0.251,0.151-0.491,0.151c-0.148,0-0.244-0.014-0.291-0.041c-0.047-0.026-0.13-0.127-0.251-0.301l-1.324-1.986
	c-0.014-0.026-0.033-0.074-0.06-0.141C91.183,63.847,91.176,63.787,91.176,63.76 M95.951,78.968c0-0.188,0.057-0.332,0.17-0.432
	c0.113-0.101,0.258-0.15,0.431-0.15c0.041,0,0.091,0.003,0.15,0.01c0.062,0.007,0.098,0.011,0.11,0.011l2.97,2.005
	c0.08,0.054,0.153,0.142,0.222,0.262c0.066,0.119,0.1,0.233,0.1,0.341c0,0.201-0.067,0.344-0.2,0.432
	c-0.135,0.086-0.281,0.13-0.442,0.13h-0.23c-0.033,0-0.097-0.029-0.19-0.091c-0.094-0.06-0.221-0.14-0.381-0.24
	c-0.161-0.1-0.321-0.204-0.481-0.311c-0.148-0.08-0.285-0.158-0.411-0.23c-0.128-0.074-0.198-0.124-0.21-0.15
	c-0.121-0.081-0.281-0.175-0.482-0.281c-0.174-0.094-0.345-0.208-0.512-0.342c-0.168-0.134-0.312-0.281-0.431-0.44
	C96.01,79.328,95.951,79.154,95.951,78.968"/>
<path fill="#EB6E96" d="M108.53,77.703c0-0.254,0.056-0.468,0.17-0.642c0.114-0.173,0.312-0.261,0.592-0.261
	c0.321,0,0.578,0.076,0.772,0.23c0.193,0.153,0.291,0.391,0.291,0.713c0,0.253-0.104,0.461-0.311,0.621
	c-0.208,0.16-0.432,0.24-0.673,0.24c-0.281,0-0.491-0.083-0.632-0.25S108.53,77.972,108.53,77.703 M109.292,72.908v-0.211
	c0-0.1,0.007-0.156,0.021-0.171l1.183-5.938c0.027-0.174,0.098-0.344,0.212-0.512c0.112-0.167,0.263-0.251,0.451-0.251
	c0.187,0,0.348,0.084,0.481,0.251c0.134,0.168,0.2,0.331,0.2,0.491v0.091c0,0.033-0.007,0.058-0.021,0.07l-1.184,5.938
	c-0.04,0.24-0.11,0.45-0.21,0.631s-0.284,0.271-0.552,0.271c-0.229,0-0.382-0.057-0.462-0.171
	C109.332,73.286,109.292,73.123,109.292,72.908"/>
<path fill="#79556D" d="M21.879,51.128c-0.028-0.038-0.056-0.076-0.085-0.115c-0.133-0.125-0.264-0.084-0.394,0.007l-0.004,0.004
	c-0.134,0.229-0.226,0.5-0.535,0.562v0.001c-0.094,0.103-0.213,0.179-0.306,0.28c-0.173,0.322-0.472,0.283-0.763,0.268
	c-0.037-0.006-0.074-0.014-0.111-0.02c-0.387-0.142-0.469-0.472-0.511-0.825c-0.006-0.039-0.008-0.079-0.01-0.118
	c-0.007-0.177,0.033-0.35,0.037-0.525c-0.062-0.272,0.049-0.535,0.047-0.804c-0.151-0.201-0.142-0.478-0.314-0.668
	c-0.026-0.03-0.05-0.062-0.074-0.093c-0.655-0.267-1.324-0.491-1.999-0.7c-0.039-0.018-0.076-0.039-0.111-0.063
	c-0.135-0.104-0.262-0.217-0.354-0.364c-0.09-0.198,0.015-0.382,0.044-0.57c0.104-0.655,0.656-0.898,1.125-1.218
	c0.428-0.244,0.839-0.518,1.27-0.761c0.433-0.244,0.58-0.701,0.674-1.174c0.071-0.356,0.107-0.731,0.372-1.02h-0.001
	c0.039-0.168,0.057-0.343,0.177-0.479l-0.005,0.004c0.207-0.237,0.376-0.512,0.648-0.689c0.434-0.281,0.79-0.258,1.162,0.097
	c0.251,0.238,0.469,0.507,0.677,0.783c0.379,0.504,0.795,0.977,1.214,1.446c0.193,0.218,0.436,0.354,0.727,0.347
	c0.489-0.009,0.957,0.134,1.437,0.191c0.364,0.045,0.543,0.267,0.52,0.628c-0.042,0.633-0.258,1.184-0.827,1.54l0.003,0.001
	c-0.519,0.518-0.303,1.035-0.026,1.574c0.24,0.471,0.415,0.949,0.189,1.504c-0.199,0.486-0.501,0.705-1.02,0.588
	c-0.308-0.069-0.623-0.115-0.916-0.246c-0.256-0.115-0.34,0.017-0.291,0.247c0.109,0.521,0.244,1.038,0.352,1.559
	c0.112,0.54,0.303,1.058,0.433,1.592c0.393,1.622,0.724,3.256,1.068,4.889c0.171,0.808,0.355,1.606,0.404,2.437
	c0.022,0.376,0.22,0.738,0.284,1.119c0.186,1.094,0.396,2.184,0.541,3.282c0.044,0.341,0.11,0.669,0.323,0.968
	c0.236,0.332,0.127,1.152-0.133,1.449c-0.203,0.231-0.482,0.143-0.729,0.187L26.05,68.22l-0.035,0.011
	c-0.844-0.002-1.156-0.421-0.9-1.208c0.109-0.331,0.141-0.664,0.097-1.017c-0.115-0.914-0.24-1.843-0.453-2.721
	c-0.228-0.934-0.355-1.887-0.613-2.81c-0.017-0.038-0.027-0.078-0.035-0.116c-0.028-0.103,0.045-0.192,0.037-0.292l0.002,0.005
	c-0.164-0.202-0.208-0.455-0.244-0.695c-0.13-0.864-0.469-1.689-0.49-2.574l0.004,0.002c-0.25-0.342-0.325-0.745-0.415-1.144
	c-0.066-0.232-0.072-0.484-0.237-0.683c-0.078-0.112-0.089-0.243-0.104-0.374c-0.005-0.104-0.004-0.211-0.048-0.312
	c-0.013-0.032-0.021-0.065-0.028-0.1c-0.011-0.066-0.012-0.136-0.04-0.199c-0.015-0.032-0.026-0.065-0.037-0.098
	c-0.043-0.136-0.053-0.278-0.099-0.412c-0.013-0.033-0.021-0.068-0.031-0.103c-0.043-0.173-0.081-0.347-0.112-0.522
	c-0.009-0.035-0.013-0.07-0.016-0.105c-0.008-0.195-0.039-0.387-0.056-0.581l0.002,0.005c-0.115-0.101-0.084-0.242-0.1-0.371
	c-0.021-0.083-0.043-0.165-0.065-0.248C21.996,51.41,21.92,51.274,21.879,51.128"/>
<path fill="#F7F099" d="M19.664,50.43c0.037-0.598-0.007-1.188-0.128-1.776c-0.034-0.157-0.129-0.213-0.268-0.27
	c-0.468-0.188-0.968-0.304-1.392-0.595c-0.205-0.168-0.495-0.137-0.703-0.298c0.015-0.192,0.224-0.187,0.303-0.308
	c0.472-0.274,0.942-0.553,1.418-0.819c0.322-0.181,0.614-0.404,0.904-0.629c0.06,0.032,0.112,0.077,0.176,0.103
	c1.317,0.249,2.316,0.973,3.07,2.058c0.165,0.237,0.385,0.149,0.487,0.013c0.181-0.236,0.542-0.265,0.632-0.59
	c0.01-0.039,0.099-0.011,0.139,0.034c0.274,0.714,0.552,1.427,0.822,2.142c0.042,0.111,0.176,0.231,0.095,0.337
	c-0.101,0.128-0.255,0.011-0.381-0.017c-0.792-0.167-1.557-0.414-2.295-0.749c-0.265-0.12-0.479,0.007-0.582,0.279
	c-0.157,0.419-0.396,0.779-0.759,1.049c-0.114,0.054-0.153,0.178-0.251,0.255C20.485,51.012,20.031,50.94,19.664,50.43"/>
<path fill="#F8F1A1" d="M23.065,45.06c0.271,0.075,0.465,0.328,0.768,0.33c-0.004,0.165-0.092,0.13-0.201,0.089
	c0.408,0.173,0.537,0.521,0.572,0.917c0.025,0.287,0.126,0.531,0.333,0.731c0.018,0.062,0.008,0.119-0.029,0.171
	c-0.273,0.039-0.459-0.209-0.718-0.216c-0.677-0.133-1.234-0.412-1.513-1.11c-0.168-0.42-0.502-0.511-0.947-0.329
	c-0.444,0.183-0.986-0.07-1.026-0.479c0.479-0.235,0.829-0.604,1.107-1.052c0.108-0.176,0.253-0.275,0.409-0.035
	c0.082,0.127,0.214,0.188,0.349,0.201C22.662,44.322,22.829,44.728,23.065,45.06"/>
<path fill="#F7F09A" d="M23.859,47.013c0.252-0.001,0.418,0.183,0.62,0.288c0.05-0.033,0.088-0.107,0.165-0.05
	c-0.04,0.282-0.227,0.07-0.342,0.102c-0.088,0.295-0.433,0.315-0.584,0.574c-0.196,0.336-0.587,0.228-0.825-0.077
	c-0.583-0.745-1.245-1.411-2.19-1.699c-0.284-0.086-0.57-0.167-0.854-0.25c0.111-0.238,0.528-0.323,0.82-0.154
	c0.886,0.511,1.849,0.839,2.79,1.218C23.584,47.015,23.718,47.066,23.859,47.013"/>
<path fill="#F8F09C" d="M23.859,47.013c-0.44,0.159-0.781-0.18-1.182-0.242c-0.634-0.099-1.176-0.483-1.76-0.726
	c-0.33-0.138-0.608-0.291-0.968-0.251c-0.068,0.008-0.088,0.053-0.102,0.106c-0.057-0.043-0.062-0.102-0.05-0.165
	c0.074-0.312,0.389-0.422,0.55-0.661c0.016,0.019,0.021,0.036,0.013,0.053c-0.008,0.016-0.015,0.024-0.021,0.022
	c0.134,0.387,0.656,0.566,1.006,0.347c0.333-0.21,0.908-0.027,1.038,0.409c0.207,0.703,0.772,0.886,1.353,1.084
	C23.777,47.002,23.818,47.005,23.859,47.013"/>
<path fill="#F1E99B" d="M22.788,51.299c0.266-0.105,0.221,0.129,0.251,0.245c0.308,1.231,0.612,2.464,0.905,3.698
	c0.046,0.197,0.181,0.376,0.138,0.594c-0.074,0.337,0.143,0.625,0.159,0.945c-0.021,0.115,0.042,0.229,0.009,0.344
	c-0.017,0.037-0.041,0.066-0.075,0.088c-0.304-1.049-0.622-2.093-0.904-3.147c-0.201-0.747-0.44-1.488-0.517-2.266
	C22.711,51.63,22.729,51.462,22.788,51.299"/>
<path fill="#F7F2B0" d="M24.511,47.14c-0.183-0.074-0.322-0.167-0.36-0.396c-0.067-0.417-0.042-0.859-0.475-1.161
	c-0.213-0.147,0.174-0.066,0.157-0.193c0.429,0.084,0.857,0.17,1.287,0.255c0.16-0.037,0.307,0.038,0.46,0.054
	c0.112,0.024,0.198,0.075,0.212,0.202c-0.193,0.322-0.639,0.298-0.844,0.622c-0.099,0.155-0.286,0.248-0.241,0.483
	C24.715,47.044,24.653,47.207,24.511,47.14"/>
<path fill="#F6F0A9" d="M21.301,42.733c0.298,0.259,0.568,0.542,0.762,0.891c0.048,0.229-0.112,0.295-0.254,0.218
	c-0.369-0.203-0.382,0.011-0.447,0.288c-0.1,0.417-0.554,0.546-0.889,0.285c0.008-0.027,0.015-0.055,0.022-0.082
	c0.141-0.228,0.079-0.491,0.135-0.735c-0.015-0.345,0.156-0.651,0.199-0.984c0.014-0.102,0.055-0.15,0.159-0.094
	C21.034,42.678,21.161,42.714,21.301,42.733"/>
<path fill="#F7F0A5" d="M20.473,44.415c0.514,0.162,0.79-0.022,0.816-0.535c0.016-0.302,0.113-0.426,0.402-0.183
	c0.115,0.096,0.3,0.209,0.371-0.073c0.283,0.332,0.56,0.672,0.853,0.993c0.121,0.135,0.176,0.27,0.15,0.443
	c-0.187-0.052-0.23-0.306-0.444-0.316c0.043-0.435-0.349-0.314-0.542-0.373c-0.223-0.066-0.357-0.152-0.411-0.401
	c-0.444,0.427-0.596,1.137-1.327,1.18c0-0.025,0.003-0.051,0.008-0.076C20.39,44.854,20.431,44.635,20.473,44.415"/>
<path fill="#F5EFAA" d="M24.511,47.14c0.032-0.024,0.096-0.061,0.092-0.069c-0.16-0.396,0.222-0.553,0.393-0.751
	c0.17-0.198,0.499-0.26,0.758-0.382c0.03-0.019,0.054-0.013,0.073,0.017c-0.325,0.495-0.85,0.809-1.182,1.296
	c-0.055,0.018-0.11,0.034-0.165,0.051C24.49,47.247,24.501,47.192,24.511,47.14"/>
<path fill="#F2EBA0" d="M19.664,50.43c0.237,0.128,0.473,0.261,0.712,0.384c0.164,0.084,0.272-0.063,0.393-0.125
	c0.155-0.079,0.291-0.194,0.435-0.295c-0.154,0.28-0.373,0.49-0.665,0.624c-0.346,0.278-0.462,0.28-0.855,0.013
	C19.689,50.83,19.571,50.633,19.664,50.43"/>
<path fill="#F0E79E" d="M22.302,50.256c0.229-0.021,0.599,0.243,0.585,0.422c-0.007,0.08-0.021,0.192-0.133,0.161
	c-0.179-0.05-0.463,0.22-0.531-0.168C22.188,50.521,22.217,50.383,22.302,50.256"/>
<path fill="#E4D9C1" d="M24.175,57.213c0.007-0.027,0.013-0.055,0.02-0.082c0.2,0.059,0.104,0.25,0.167,0.371
	c0.023,0.04,0.048,0.079,0.072,0.118c-0.007,0.404,0.174,0.78,0.171,1.184c-0.019,0.041-0.047,0.071-0.086,0.093
	C24.34,58.349,24.171,57.799,24.175,57.213"/>
<path fill="#EAE1AC" d="M19.683,51.03c0.286,0.057,0.573,0.181,0.855-0.013C20.229,51.44,19.889,51.445,19.683,51.03"/>
<path fill="#D8C48B" d="M24.991,61.103c-0.113-0.256-0.171-0.522-0.165-0.801c0.069-0.062,0.123,0.15,0.198,0.013
	c0.081,0.261,0.142,0.523,0.089,0.799C25.07,61.146,25.028,61.143,24.991,61.103"/>
<path fill="#E9DF98" d="M17.477,47.184c-0.074,0.089-0.149,0.18-0.232,0.28c0.178,0.173,0.533,0.014,0.632,0.325
	c-0.143-0.031-0.303-0.035-0.424-0.105c-0.132-0.076-0.39-0.05-0.382-0.222C17.08,47.287,17.302,47.225,17.477,47.184"/>
<path fill="#DFCE90" d="M26.199,66.815c0.145,0.235,0.105,0.428-0.074,0.591c-0.044,0.041-0.161,0.054-0.168-0.027
	C25.939,67.158,25.997,66.956,26.199,66.815"/>
<path fill="#EDE5D4" d="M24.167,56.791c-0.062-0.246-0.114-0.496-0.189-0.738c-0.038-0.122-0.075-0.214,0.104-0.217
	c0.096,0.351,0.216,0.695,0.218,1.064C24.206,56.924,24.202,56.838,24.167,56.791"/>
<path fill="#E1D6DA" d="M24.545,58.801c0.022-0.398-0.251-0.77-0.111-1.181c0.178,0.292,0.118,0.644,0.242,0.948
	C24.678,58.673,24.742,58.811,24.545,58.801"/>
<path fill="#CBB484" d="M25.804,65.39c-0.028-0.323-0.207-0.624-0.14-0.96c0.035-0.029,0.065-0.023,0.091,0.014
	c0.056,0.266,0.112,0.531,0.168,0.797C25.902,65.305,25.875,65.365,25.804,65.39"/>
<path fill="#D2BE88" d="M25.189,61.712c0.189,0.209,0.138,0.475,0.17,0.721c0.013,0.091-0.028,0.099-0.098,0.063
	c-0.071-0.263-0.176-0.519-0.185-0.796C25.119,61.669,25.156,61.672,25.189,61.712"/>
<path fill="#DBCA8C" d="M25.189,61.712c-0.038-0.003-0.075-0.008-0.112-0.012c-0.079-0.191-0.083-0.395-0.086-0.598
	c0.041,0.004,0.081,0.007,0.122,0.011C25.249,61.299,25.207,61.508,25.189,61.712"/>
<path fill="#E9E0DA" d="M24.761,59.092c0.082,0.142,0.145,0.286,0.065,0.449c-0.046,0.04-0.088,0.094-0.158,0.045
	c-0.033-0.171-0.066-0.341-0.101-0.511C24.652,58.843,24.695,59.092,24.761,59.092"/>
<path fill="#D1BD86" d="M25.938,65.581c0.009,0.01,0.021,0.019,0.026,0.03c0.081,0.186,0.112,0.377,0.05,0.574
	c-0.004,0.012-0.094,0.016-0.1,0.003c-0.078-0.172-0.092-0.354-0.058-0.541C25.871,65.611,25.899,65.59,25.938,65.581"/>
<path fill="#E0D29F" d="M25.024,60.314c-0.084,0.25-0.133-0.012-0.199-0.013c-0.093-0.196-0.098-0.408-0.11-0.617
	c0.279,0.013,0.08,0.272,0.192,0.373C24.996,60.12,25.064,60.192,25.024,60.314"/>
<path fill="#CAB482" d="M25.262,62.497c0.032-0.021,0.064-0.044,0.098-0.064c0.081,0.169,0.172,0.337,0.146,0.535
	c-0.052,0.043-0.036,0.135-0.117,0.155C25.346,62.914,25.304,62.706,25.262,62.497"/>
<path fill="#C5AC7F" d="M25.554,64.156c-0.027-0.147-0.054-0.296-0.079-0.443c0.048-0.037,0.102-0.058,0.163-0.056
	c0.095,0.138,0.097,0.291,0.076,0.447C25.67,64.15,25.627,64.201,25.554,64.156"/>
<path fill="#F4EED4" d="M24.167,56.791c0.044,0.036,0.089,0.072,0.133,0.109c0.056,0.197,0.172,0.388,0.062,0.602
	c-0.056-0.123-0.111-0.247-0.166-0.371C24.186,57.018,24.177,56.904,24.167,56.791"/>
<path fill="#D9C896" d="M26.313,67.843c-0.272,0.185-0.42,0.117-0.567,0.034c0.005-0.037,0.009-0.074,0.012-0.11
	C25.913,67.788,26.067,67.81,26.313,67.843"/>
<path fill="#F7F0A5" d="M20.63,43.598c0.057,0.264,0.047,0.515-0.135,0.736C20.555,44.091,20.512,43.83,20.63,43.598"/>
<path fill="#E2D6C8" d="M24.761,59.092c-0.065-0.007-0.122-0.095-0.193-0.017c-0.065-0.046-0.063-0.11-0.049-0.179
	c0.009-0.031,0.019-0.063,0.027-0.096c0.109-0.039,0.102-0.146,0.13-0.232C24.704,58.743,24.732,58.918,24.761,59.092"/>
<path fill="#F3EBB1" d="M24.907,60.058c-0.127-0.093-0.03-0.299-0.192-0.373c-0.015-0.033-0.031-0.066-0.047-0.099
	c0.053-0.015,0.105-0.03,0.158-0.045C25.052,59.684,24.91,59.881,24.907,60.058"/>
<path fill="#C9B083" d="M22.788,51.299c0.056,0.172,0.015,0.337-0.034,0.501C22.618,51.623,22.596,51.454,22.788,51.299"/>
<path fill="#DFD18F" d="M25.938,65.581c-0.027,0.022-0.055,0.044-0.081,0.066c-0.019-0.086-0.036-0.172-0.053-0.258
	c0.021-0.065,0.044-0.129,0.119-0.149C26.025,65.35,25.913,65.468,25.938,65.581"/>
<path fill="#E7DC93" d="M25.638,63.658c-0.039,0.062-0.099,0.067-0.163,0.055c0.058-0.103-0.154-0.259,0.022-0.304
	C25.619,63.378,25.58,63.576,25.638,63.658"/>
<path fill="#D2BE87" d="M25.553,64.156c0.055-0.018,0.107-0.034,0.161-0.052c0.077,0.105,0.025,0.227,0.041,0.339
	c-0.03-0.005-0.061-0.01-0.091-0.014C25.589,64.354,25.557,64.261,25.553,64.156"/>
<path fill="#ECE4DC" d="M25.826,45.954c-0.024-0.005-0.049-0.01-0.072-0.016c-0.043-0.067-0.085-0.135-0.128-0.203l0.001-0.01
	c0.089-0.016,0.188-0.065,0.251,0.034C25.921,45.829,25.924,45.911,25.826,45.954"/>
<path fill="#E8DC93" d="M25.389,63.123c0.027-0.06,0.037-0.134,0.117-0.155c0.053,0.112,0.094,0.256-0.025,0.315
	C25.389,63.329,25.383,63.201,25.389,63.123"/>
<path fill="#F5EFAA" d="M25.627,45.726l-0.001,0.01c-0.169-0.03-0.337-0.061-0.506-0.091C25.302,45.594,25.472,45.617,25.627,45.726
	"/>
<path fill="#EADE92" d="M22.302,50.256c-0.027,0.138-0.054,0.276-0.079,0.415C22.138,50.512,22.165,50.374,22.302,50.256"/>
<path fill="#E9DE90" d="M23.595,48.281c-0.042,0.021-0.087,0.058-0.134,0.061c-0.051,0.004-0.06-0.047-0.024-0.076
	c0.041-0.032,0.092-0.047,0.14-0.07C23.581,48.219,23.585,48.241,23.595,48.281"/>
</svg>
