<?xml version="1.0" encoding="utf-8"?>
<!-- Generator: Adobe Illustrator 16.0.0, SVG Export Plug-In . SVG Version: 6.00 Build 0)  -->
<!DOCTYPE svg PUBLIC "-//W3C//DTD SVG 1.1//EN" "http://www.w3.org/Graphics/SVG/1.1/DTD/svg11.dtd">
<svg version="1.1" id="Layer_1" xmlns="http://www.w3.org/2000/svg" xmlns:xlink="http://www.w3.org/1999/xlink" x="0px" y="0px"
	 width="126.876px" height="112.438px" viewBox="0 0 126.876 112.438" enable-background="new 0 0 126.876 112.438"
	 xml:space="preserve">
<path fill="#EF8AA8" d="M75.131,67.24c-3.743,0.633-4.256,1.146-4.89,4.89c-0.633-3.743-1.146-4.257-4.889-4.89
	c3.742-0.634,4.256-1.146,4.889-4.889C70.875,66.094,71.388,66.606,75.131,67.24"/>
<path fill="#EF8AA8" d="M28.425,74.006c-2.322,0.393-2.641,0.712-3.034,3.033c-0.393-2.321-0.71-2.641-3.032-3.033
	c2.322-0.393,2.64-0.712,3.032-3.034C25.784,73.294,26.103,73.613,28.425,74.006"/>
<path fill="#EF8AA8" d="M58.832,79.978c-1.825,0.31-2.075,0.56-2.385,2.386c-0.309-1.826-0.561-2.076-2.386-2.386
	c1.825-0.309,2.077-0.56,2.386-2.385C56.757,79.418,57.007,79.669,58.832,79.978"/>
<path fill="#8C1C2B" d="M62.784,61.774c-0.152,0.138-0.341,0.312-0.562,0.513c-0.111,0.1-0.229,0.212-0.358,0.321
	c-0.134,0.103-0.275,0.211-0.426,0.324c-0.293,0.224-0.616,0.471-0.968,0.738c-0.385,0.238-0.786,0.503-1.212,0.777
	c-0.436,0.266-0.93,0.501-1.422,0.77c-0.241,0.142-0.524,0.235-0.792,0.356c-0.271,0.114-0.549,0.231-0.831,0.352
	c-0.287,0.108-0.592,0.194-0.893,0.297c-0.15,0.051-0.302,0.101-0.454,0.151c-0.153,0.052-0.307,0.103-0.47,0.133
	c-0.649,0.132-1.285,0.342-1.981,0.407c-1.358,0.251-2.826,0.254-4.305,0.176c-1.488-0.101-2.987-0.448-4.463-0.901
	c-0.363-0.137-0.726-0.275-1.09-0.413l-0.272-0.104l-0.262-0.13l-0.53-0.253l-0.531-0.249c-0.181-0.076-0.339-0.196-0.51-0.292
	l-0.98-0.584l-0.004-0.002L39.4,64.112l-0.137-0.099l-0.273-0.195l-0.545-0.39l-0.273-0.195l-0.136-0.098
	c-0.044-0.031-0.069-0.062-0.105-0.092l-0.405-0.362l-0.408-0.356l-0.209-0.175l-0.201-0.206c-0.271-0.278-0.542-0.555-0.812-0.83
	c-0.996-1.168-1.912-2.393-2.583-3.71c-0.653-1.314-1.225-2.651-1.52-3.985c-0.215-0.659-0.268-1.321-0.398-1.963
	c-0.037-0.16-0.05-0.319-0.06-0.479c-0.014-0.158-0.027-0.317-0.04-0.474c-0.023-0.312-0.06-0.623-0.073-0.927
	c0.001-0.305,0.002-0.604,0.003-0.895c0.006-0.292-0.017-0.584,0.021-0.859c0.058-0.554,0.081-1.096,0.157-1.595
	c0.087-0.497,0.178-0.965,0.247-1.407c0.106-0.431,0.225-0.82,0.314-1.186c0.047-0.182,0.093-0.354,0.136-0.517
	c0.05-0.158,0.105-0.305,0.153-0.442c0.1-0.277,0.184-0.515,0.252-0.704c0.133-0.393,0.204-0.602,0.204-0.602
	s-0.151,0.156-0.428,0.465c-0.14,0.155-0.311,0.348-0.511,0.574c-0.099,0.114-0.214,0.234-0.321,0.372
	c-0.098,0.142-0.202,0.294-0.312,0.453c-0.22,0.324-0.468,0.685-0.721,1.09c-0.222,0.418-0.449,0.881-0.7,1.38
	c-0.138,0.246-0.21,0.522-0.318,0.798c-0.102,0.28-0.205,0.567-0.312,0.864c-0.123,0.294-0.17,0.612-0.254,0.935
	C28.757,48.626,28.68,48.96,28.6,49.3c-0.069,0.342-0.093,0.699-0.141,1.061c-0.005,0.04-0.009,0.079-0.013,0.119
	c-0.056,0.015-0.104,0.024-0.159,0.038c-0.121,0.03-0.252,0.062-0.392,0.096c-0.071,0.019-0.143,0.037-0.219,0.057
	c-0.081,0.014-0.162,0.026-0.248,0.041c-0.172,0.029-0.352,0.06-0.54,0.093c-0.375,0.034-0.79,0.09-1.225,0.087
	c-0.11,0.001-0.223,0.009-0.336,0.006c-0.111-0.006-0.226-0.011-0.339-0.017c-0.116-0.005-0.234-0.012-0.352-0.017
	c-0.117-0.016-0.235-0.029-0.354-0.044c-0.119-0.016-0.243-0.026-0.364-0.047c-0.121-0.024-0.241-0.048-0.365-0.072
	c-0.248-0.04-0.491-0.114-0.741-0.181c-0.253-0.062-0.494-0.163-0.748-0.243c-0.243-0.101-0.494-0.198-0.736-0.314
	c-0.487-0.231-0.967-0.498-1.418-0.8c-0.453-0.3-0.885-0.628-1.282-0.976c-0.404-0.34-0.765-0.707-1.104-1.059
	c-0.33-0.362-0.639-0.713-0.901-1.055c-0.536-0.678-0.925-1.289-1.186-1.724c-0.259-0.437-0.384-0.7-0.384-0.7
	s0.066,0.281,0.232,0.764c0.167,0.479,0.424,1.166,0.822,1.96c0.193,0.399,0.433,0.82,0.696,1.263
	c0.275,0.436,0.573,0.897,0.928,1.348c0.348,0.455,0.742,0.908,1.176,1.342c0.433,0.439,0.914,0.853,1.425,1.238
	c0.256,0.192,0.526,0.368,0.795,0.547c0.279,0.16,0.551,0.34,0.84,0.479c0.287,0.144,0.572,0.296,0.868,0.411
	c0.147,0.062,0.293,0.122,0.439,0.182c0.146,0.058,0.296,0.104,0.441,0.154c0.149,0.05,0.295,0.099,0.44,0.147
	c0.147,0.038,0.293,0.077,0.438,0.115c0.146,0.037,0.291,0.074,0.433,0.111c0.143,0.032,0.284,0.054,0.424,0.081
	c0.563,0.119,1.098,0.162,1.595,0.215c0.248,0.011,0.485,0.021,0.71,0.029c0.113,0.005,0.225,0.009,0.332,0.012
	c0.112-0.003,0.22-0.007,0.325-0.01c0.008-0.001,0.016-0.001,0.024-0.001c0.047,0.56,0.131,1.125,0.249,1.698
	c-0.006,0.005-0.012,0.011-0.018,0.017c-0.098,0.095-0.202,0.195-0.311,0.302c-0.11,0.109-0.214,0.187-0.328,0.289
	c-0.229,0.196-0.476,0.41-0.738,0.637c-0.262,0.229-0.582,0.437-0.895,0.674c-0.312,0.246-0.655,0.451-1.008,0.665
	c-0.177,0.105-0.353,0.226-0.536,0.323l-0.561,0.283c-0.373,0.207-0.766,0.349-1.154,0.508c-0.194,0.085-0.392,0.145-0.588,0.203
	c-0.199,0.061-0.394,0.119-0.587,0.177c-0.392,0.075-0.775,0.188-1.146,0.22c-0.186,0.021-0.368,0.053-0.543,0.062
	c-0.178,0.009-0.351,0.017-0.516,0.024c-0.167,0.012-0.323-0.005-0.476-0.007c-0.153-0.002-0.298-0.009-0.434-0.026
	c-0.272-0.022-0.509-0.063-0.704-0.101c-0.193-0.042-0.349-0.077-0.449-0.11c-0.104-0.03-0.157-0.052-0.157-0.052
	s0.046,0.034,0.14,0.09c0.092,0.06,0.232,0.133,0.416,0.227c0.185,0.087,0.412,0.191,0.683,0.287c0.136,0.055,0.28,0.1,0.436,0.145
	c0.155,0.043,0.319,0.104,0.492,0.137c0.176,0.038,0.358,0.078,0.547,0.118c0.19,0.038,0.387,0.056,0.592,0.086
	c0.411,0.07,0.842,0.065,1.298,0.095c0.227-0.007,0.456-0.014,0.688-0.02c0.234-0.007,0.473-0.014,0.705-0.047
	c0.47-0.058,0.959-0.102,1.427-0.213c0.237-0.049,0.476-0.098,0.712-0.146c0.236-0.054,0.459-0.129,0.689-0.191
	c0.458-0.131,0.913-0.26,1.327-0.431c0.419-0.165,0.837-0.299,1.219-0.479c0.287-0.135,0.557-0.264,0.817-0.386
	c0.157,0.36,0.313,0.724,0.483,1.087c0.198,0.424,0.457,0.823,0.688,1.241c0.12,0.206,0.24,0.415,0.36,0.621
	c0.14,0.199,0.278,0.396,0.417,0.596c0.097,0.128,0.191,0.259,0.287,0.389c-0.138,0.133-0.278,0.271-0.426,0.412
	c-0.258,0.221-0.527,0.453-0.807,0.692c-0.277,0.251-0.592,0.461-0.898,0.704c-0.308,0.246-0.644,0.45-0.974,0.679
	c-0.329,0.231-0.681,0.414-1.021,0.622c-0.345,0.19-0.693,0.369-1.034,0.536c-0.346,0.153-0.682,0.313-1.011,0.432
	c-0.327,0.132-0.644,0.231-0.939,0.325c-0.296,0.086-0.572,0.165-0.82,0.216c-0.247,0.058-0.466,0.095-0.648,0.122
	c-0.365,0.053-0.578,0.059-0.578,0.059s0.207,0.054,0.584,0.104c0.188,0.024,0.417,0.05,0.683,0.065
	c0.264,0.019,0.562,0.021,0.89,0.021c0.327-0.008,0.685-0.016,1.058-0.054c0.379-0.023,0.769-0.086,1.179-0.142
	c0.406-0.067,0.825-0.147,1.251-0.242c0.414-0.11,0.855-0.199,1.271-0.338c0.418-0.136,0.851-0.253,1.252-0.415
	c0.401-0.157,0.819-0.291,1.19-0.466c0.381-0.169,0.748-0.332,1.097-0.487c0.288-0.147,0.559-0.288,0.816-0.421l0.008,0.009
	l0.59,0.528l0.596,0.523c0.049,0.042,0.102,0.091,0.147,0.126l0.135,0.1l0.103,0.076c-0.045,0.066-0.092,0.136-0.142,0.207
	c-0.113,0.172-0.266,0.362-0.412,0.562c-0.146,0.203-0.317,0.406-0.488,0.623c-0.347,0.433-0.737,0.884-1.139,1.331
	c-0.805,0.895-1.669,1.753-2.336,2.386c-0.665,0.632-1.134,1.034-1.134,1.034s0.594-0.194,1.474-0.532
	c0.879-0.336,2.046-0.812,3.195-1.357c0.573-0.272,1.146-0.557,1.679-0.846c0.265-0.146,0.525-0.28,0.766-0.426
	c0.242-0.145,0.47-0.269,0.686-0.408c0.216-0.142,0.416-0.271,0.591-0.385c0.127-0.085,0.235-0.159,0.334-0.225
	c0.473,0.243,0.953,0.473,1.438,0.683c-0.014,0.07-0.027,0.138-0.041,0.211c-0.017,0.091-0.034,0.182-0.052,0.275
	c-0.007,0.091-0.013,0.185-0.02,0.278c-0.017,0.376-0.061,0.761-0.047,1.165c0.014,0.203,0.027,0.409,0.042,0.618
	c0.018,0.206,0.02,0.412,0.069,0.621c0.091,0.417,0.139,0.836,0.29,1.238c0.065,0.2,0.131,0.4,0.195,0.598
	c0.08,0.195,0.169,0.384,0.252,0.571c0.153,0.377,0.379,0.717,0.563,1.049c0.099,0.162,0.215,0.314,0.317,0.465
	c0.104,0.15,0.205,0.296,0.319,0.427c0.11,0.133,0.217,0.263,0.319,0.387c0.106,0.122,0.218,0.234,0.319,0.344
	c0.199,0.219,0.41,0.396,0.58,0.562c0.187,0.155,0.34,0.293,0.478,0.395c0.269,0.212,0.436,0.313,0.436,0.313
	s-0.127-0.146-0.314-0.422c-0.098-0.134-0.2-0.31-0.322-0.502c-0.109-0.203-0.245-0.419-0.36-0.675
	c-0.059-0.126-0.125-0.254-0.184-0.39c-0.054-0.139-0.11-0.28-0.168-0.427c-0.062-0.142-0.106-0.297-0.152-0.452
	c-0.047-0.155-0.102-0.31-0.139-0.472c-0.062-0.327-0.156-0.65-0.174-0.993c-0.016-0.168-0.038-0.335-0.049-0.502l0.006-0.504
	c-0.018-0.33,0.064-0.659,0.096-0.972c0.01-0.156,0.066-0.311,0.104-0.46c0.04-0.148,0.08-0.295,0.119-0.438
	c0.085-0.285,0.221-0.549,0.314-0.797c0.025-0.062,0.051-0.122,0.075-0.182c0.032-0.053,0.064-0.104,0.095-0.155
	c0.034-0.057,0.066-0.109,0.1-0.164c0.217,0.048,0.435,0.095,0.651,0.145c0.238,0.049,0.478,0.098,0.715,0.146
	c0.241,0.028,0.48,0.057,0.72,0.085c0.479,0.048,0.952,0.127,1.424,0.142c0.383,0.011,0.76,0.012,1.137,0.012
	c0.032,0.253,0.065,0.514,0.102,0.793c0.027,0.179,0.044,0.363,0.08,0.549c0.04,0.183,0.082,0.371,0.123,0.562
	c0.09,0.381,0.151,0.767,0.289,1.163c0.062,0.195,0.124,0.394,0.186,0.592l0.094,0.295l0.123,0.294
	c0.168,0.389,0.311,0.774,0.529,1.14c0.102,0.182,0.2,0.359,0.3,0.537c0.117,0.168,0.233,0.334,0.348,0.498
	c0.058,0.079,0.114,0.158,0.171,0.236c0.065,0.074,0.13,0.148,0.193,0.22c0.13,0.143,0.245,0.285,0.376,0.41
	c0.271,0.247,0.52,0.474,0.786,0.646c0.062,0.045,0.125,0.088,0.186,0.132c0.064,0.036,0.129,0.072,0.191,0.106
	c0.126,0.066,0.233,0.14,0.354,0.186c0.114,0.048,0.22,0.096,0.318,0.138c0.102,0.032,0.195,0.063,0.279,0.09
	c0.169,0.048,0.302,0.079,0.395,0.092c0.092,0.016,0.141,0.018,0.141,0.018s-0.047-0.017-0.128-0.06
	c-0.083-0.037-0.199-0.105-0.341-0.196c-0.067-0.049-0.143-0.102-0.226-0.16c-0.075-0.065-0.158-0.136-0.246-0.21
	c-0.09-0.069-0.168-0.169-0.256-0.258c-0.044-0.045-0.088-0.092-0.134-0.14c-0.041-0.055-0.081-0.107-0.124-0.163
	c-0.177-0.21-0.325-0.47-0.479-0.733c-0.074-0.135-0.13-0.286-0.198-0.429c-0.032-0.073-0.064-0.146-0.097-0.221
	c-0.024-0.078-0.05-0.157-0.075-0.236c-0.05-0.158-0.099-0.316-0.148-0.479c-0.032-0.166-0.065-0.336-0.098-0.506
	c-0.081-0.33-0.091-0.691-0.124-1.035l-0.021-0.257l0.005-0.266c0.002-0.174,0.004-0.347,0.008-0.519
	c-0.011-0.338,0.05-0.686,0.077-1.011c0.018-0.163,0.034-0.321,0.05-0.478c0.02-0.154,0.057-0.303,0.082-0.447
	c0.055-0.285,0.105-0.555,0.154-0.804c0.019-0.117,0.053-0.251,0.085-0.377c0.003-0.012,0.006-0.023,0.01-0.035
	c0.734-0.135,1.444-0.312,2.115-0.543c0.04-0.011,0.079-0.025,0.12-0.038c0.09,0.191,0.197,0.405,0.303,0.618
	c0.094,0.186,0.191,0.379,0.292,0.578c0.05,0.1,0.102,0.2,0.153,0.302c0.057,0.098,0.122,0.189,0.183,0.286
	c0.256,0.382,0.501,0.788,0.796,1.186c0.32,0.383,0.625,0.789,0.979,1.166c0.184,0.182,0.369,0.364,0.555,0.548l0.277,0.273
	c0.095,0.088,0.201,0.167,0.301,0.25l0.604,0.488c0.194,0.166,0.422,0.294,0.629,0.438c0.213,0.136,0.41,0.286,0.63,0.403
	c0.215,0.117,0.428,0.234,0.636,0.348c0.204,0.121,0.423,0.208,0.629,0.304c0.208,0.09,0.404,0.19,0.607,0.264
	c0.404,0.148,0.779,0.295,1.138,0.391c0.353,0.112,0.685,0.184,0.974,0.252c0.292,0.059,0.546,0.106,0.756,0.136
	c0.419,0.062,0.66,0.071,0.66,0.071s-0.232-0.067-0.62-0.228c-0.193-0.079-0.426-0.186-0.686-0.311
	c-0.259-0.133-0.551-0.275-0.853-0.463c-0.31-0.17-0.621-0.393-0.952-0.616c-0.166-0.11-0.32-0.248-0.486-0.374
	c-0.162-0.132-0.334-0.254-0.487-0.405c-0.156-0.146-0.316-0.294-0.478-0.443c-0.163-0.145-0.301-0.321-0.453-0.482
	c-0.144-0.167-0.307-0.315-0.435-0.5l-0.397-0.532c-0.064-0.088-0.136-0.171-0.194-0.264l-0.17-0.282
	c-0.11-0.185-0.222-0.369-0.331-0.553c-0.205-0.373-0.361-0.763-0.535-1.117c-0.149-0.37-0.257-0.744-0.377-1.082
	c-0.027-0.086-0.062-0.17-0.084-0.251c-0.016-0.082-0.032-0.162-0.049-0.243c-0.033-0.156-0.064-0.307-0.096-0.451
	c-0.06-0.295-0.129-0.516-0.156-0.827c-0.014-0.109-0.025-0.207-0.039-0.305c0.28-0.158,0.561-0.307,0.816-0.479
	c0.285-0.205,0.564-0.406,0.836-0.601c0.268-0.202,0.546-0.371,0.771-0.598c0.233-0.213,0.461-0.419,0.682-0.621
	c0.214-0.206,0.443-0.381,0.617-0.603c0.366-0.424,0.708-0.811,1.01-1.178c0.283-0.393,0.526-0.764,0.741-1.092
	c0.106-0.164,0.208-0.318,0.302-0.465c0.084-0.149,0.147-0.296,0.215-0.43c0.129-0.268,0.239-0.495,0.329-0.681
	c0.179-0.371,0.266-0.574,0.266-0.574S63.091,61.497,62.784,61.774"/>
<path fill="#A52E41" d="M49.662,74.65l-0.261-0.831c-0.088-0.256-0.138-0.485-0.194-0.751c-0.028-0.133-0.051-0.239-0.076-0.347
	l-0.118-0.545c-0.017-0.083-0.029-0.186-0.042-0.285l-0.239-1.831l-1.025-0.005c-0.32-0.002-0.643-0.003-0.969-0.011
	c-0.26-0.01-0.543-0.044-0.843-0.08l-0.039-0.005c-0.155-0.019-0.312-0.038-0.469-0.053l-0.672-0.08l-0.658-0.137
	c-0.119-0.026-0.641-0.142-0.641-0.142l-0.682-0.15l-0.445,0.744l-0.128,0.208l-0.103,0.25c-0.038,0.102-0.074,0.183-0.11,0.267
	c-0.079,0.183-0.165,0.384-0.233,0.609c-0.006,0.02-0.145,0.532-0.157,0.579c-0.037,0.134-0.09,0.315-0.103,0.524
	c-0.006,0.056-0.02,0.144-0.032,0.233c-0.037,0.245-0.079,0.52-0.065,0.827v0.042l-0.025-0.075
	c-0.092-0.248-0.136-0.486-0.188-0.762c-0.025-0.135-0.049-0.258-0.075-0.38c-0.024-0.102-0.03-0.209-0.039-0.333l-0.054-0.773
	c-0.007-0.2,0.01-0.447,0.026-0.685c0.008-0.136,0.017-0.256,0.021-0.376l0.015-0.204l0.041-0.224l0.182-0.912l-0.729-0.364
	c-0.447-0.192-0.91-0.412-1.371-0.651l-0.526-0.271l-0.812,0.546l-0.578,0.376c-0.13,0.084-0.262,0.161-0.401,0.241
	c-0.083,0.048-0.168,0.098-0.255,0.149c-0.154,0.094-0.314,0.181-0.479,0.269l-0.255,0.139c-0.461,0.251-0.995,0.52-1.632,0.823
	c-0.026,0.013-0.051,0.023-0.077,0.036c0.022-0.023,0.044-0.048,0.065-0.071c0.466-0.522,0.849-0.968,1.171-1.37l0.157-0.197
	c0.127-0.157,0.251-0.311,0.359-0.464c0.045-0.06,0.092-0.122,0.139-0.184c0.112-0.149,0.212-0.283,0.294-0.407l0.64-0.943
	l-0.984-0.725l-0.016-0.014l-0.659-0.581l-1.084-0.971L33.627,64.6l-0.826,0.425l-1.063,0.472c-0.225,0.105-0.461,0.192-0.713,0.284
	c-0.15,0.057-0.297,0.109-0.44,0.166c-0.25,0.102-0.531,0.189-0.803,0.271c-0.136,0.042-0.264,0.082-0.393,0.122
	c-0.013,0.005-0.022,0.009-0.034,0.012c0.03-0.02,0.058-0.038,0.087-0.06c0.092-0.062,0.19-0.13,0.291-0.195
	c0.245-0.163,0.489-0.325,0.729-0.519c0.097-0.077,0.201-0.153,0.304-0.231c0.21-0.155,0.427-0.317,0.637-0.509l0.802-0.687
	l1.024-0.989l-0.478-0.663c-0.099-0.136-0.197-0.272-0.299-0.406l-0.38-0.542l-0.331-0.573c-0.071-0.131-0.153-0.272-0.236-0.414
	c-0.158-0.268-0.302-0.513-0.415-0.754c-0.15-0.324-0.291-0.65-0.433-0.975l-0.45-1.034l-1.744,0.823
	c-0.216,0.102-0.458,0.191-0.716,0.286c-0.158,0.059-0.301,0.112-0.446,0.169c-0.368,0.151-0.778,0.269-1.213,0.392
	c-0.102,0.029-0.185,0.053-0.268,0.078c-0.132,0.04-0.261,0.076-0.394,0.108l-0.694,0.141c-0.013,0.004-0.024,0.006-0.038,0.009
	c0.033-0.016,0.065-0.034,0.098-0.052l0.53-0.269c0.155-0.081,0.292-0.165,0.426-0.25c0.057-0.035,0.246-0.15,0.246-0.15
	c0.324-0.197,0.692-0.421,1.028-0.686c0.087-0.066,0.186-0.139,0.283-0.208c0.242-0.174,0.447-0.32,0.646-0.496
	c0,0,0.799-0.689,0.848-0.73c0.088-0.074,0.173-0.147,0.263-0.237l0.63-0.611l-0.045-0.509l-0.008-0.036
	c-0.11-0.53-0.189-1.062-0.233-1.585l-0.08-0.942l-0.964,0.044l-0.311,0.009l-0.974-0.038l-0.181-0.02
	c-0.236-0.024-0.476-0.048-0.722-0.082c-0.2-0.027-0.38-0.059-0.548-0.095l-0.166-0.029c-0.095-0.019-0.167-0.031-0.239-0.048
	l-0.408-0.104l-0.409-0.108l-0.543-0.183c-0.086-0.028-0.169-0.056-0.25-0.088l-0.418-0.173c-0.218-0.085-0.414-0.185-0.641-0.299
	l-0.161-0.082c-0.168-0.081-0.328-0.177-0.497-0.278c-0.099-0.061-0.187-0.113-0.273-0.162l-0.083-0.057
	c-0.227-0.15-0.435-0.289-0.626-0.434c-0.013-0.01-0.026-0.02-0.039-0.029c0.016,0.007,0.033,0.015,0.05,0.024
	c0.206,0.098,0.416,0.184,0.626,0.27l0.186,0.076l0.022,0.008c0.104,0.032,0.183,0.061,0.259,0.089
	c0.186,0.064,0.375,0.133,0.587,0.184l0.149,0.041c0.201,0.055,0.429,0.117,0.674,0.156l0.33,0.065l0.129,0.021
	c0.071,0.01,0.661,0.082,0.661,0.082l0.047,0.004l0.716,0.035c0.12,0.002,0.207,0.001,0.293-0.001l0.112-0.005
	c0.366,0.005,0.743-0.035,1.047-0.066l0.276-0.026l0.857-0.145c0,0,0.799-0.196,0.837-0.207l0.61-0.164l0.084-0.735
	c0.016-0.112,0.029-0.241,0.045-0.368c0.022-0.22,0.045-0.427,0.084-0.615l0.227-0.971c0.022-0.087,0.047-0.197,0.072-0.307
	c0.041-0.184,0.08-0.355,0.134-0.486l0.328-0.904c0.016-0.037,0.031-0.079,0.048-0.126c-0.012,0.132-0.023,0.262-0.033,0.396
	c-0.017,0.197-0.032,0.391-0.053,0.585c-0.03,0.222-0.028,0.464-0.026,0.677c0.001,0.086,0.003,0.172,0,0.258l-0.001,0.912
	c0.01,0.243,0.027,0.45,0.047,0.658l0.002,0.034c0.01,0.101,0.02,0.202,0.025,0.304l0.039,0.465
	c0.014,0.202,0.032,0.406,0.082,0.629c0.036,0.177,0.067,0.377,0.102,0.577c0.074,0.47,0.151,0.94,0.31,1.438
	c0.269,1.203,0.757,2.482,1.583,4.146c0.63,1.235,1.493,2.477,2.717,3.912l0.031,0.033l1.062,1.091l0.248,0.205l0.392,0.344
	l0.427,0.382c0.036,0.034,0.083,0.075,0.144,0.121l1.484,1.062l1.021,0.608c0.07,0.039,0.115,0.068,0.162,0.097
	c0.123,0.078,0.278,0.175,0.47,0.257l0.498,0.235l0.523,0.248l0.29,0.146l1.432,0.542l0.021,0.007
	c1.34,0.413,2.525,0.688,3.625,0.839c0.37,0.05,0.735,0.088,1.089,0.112c1.882,0.1,3.275,0.043,4.521-0.186
	c0.492-0.046,0.957-0.16,1.404-0.271c0.208-0.052,0.414-0.103,0.623-0.145c0.207-0.038,0.398-0.1,0.591-0.166l0.444-0.146
	c0.122-0.042,0.233-0.078,0.346-0.113c0.202-0.064,0.396-0.126,0.583-0.196l0.868-0.367c0.092-0.041,0.166-0.071,0.241-0.104
	c0.219-0.089,0.441-0.18,0.66-0.309c0.148-0.08,0.322-0.171,0.493-0.259c0.111-0.059,0.221-0.115,0.328-0.171
	c-0.031,0.026-0.061,0.054-0.09,0.082l-0.664,0.605c-0.133,0.134-0.275,0.233-0.44,0.35c-0.093,0.067-0.179,0.128-0.264,0.191
	l-0.82,0.59c-0.146,0.098-0.337,0.205-0.541,0.316l-0.724,0.407l0.115,0.916c0.02,0.247,0.072,0.47,0.116,0.666
	c0.019,0.078,0.035,0.151,0.051,0.23l0.147,0.7c0.031,0.126,0.058,0.203,0.085,0.28l0.026,0.079c0.048,0.138,0.09,0.261,0.132,0.388
	c0.08,0.242,0.161,0.487,0.265,0.748l0.018,0.039c0.068,0.143,0.126,0.27,0.184,0.396c0.122,0.268,0.238,0.523,0.384,0.787
	l0.521,0.866c0.065,0.104,0.125,0.185,0.185,0.263l0.093,0.124l-0.164-0.133c-0.054-0.043-0.099-0.079-0.14-0.117L56.84,73.58
	c-0.191-0.205-0.401-0.466-0.604-0.718l-0.023-0.028c-0.091-0.112-0.181-0.224-0.273-0.335c-0.167-0.226-0.332-0.483-0.494-0.731
	c-0.092-0.143-0.17-0.264-0.25-0.384l-0.058-0.089c-0.034-0.051-0.063-0.095-0.088-0.141l-0.134-0.261l-0.289-0.572l-0.086-0.174
	c-0.077-0.154-0.146-0.292-0.205-0.421l-0.364-0.774l-0.821,0.238l-0.131,0.042c-0.618,0.211-1.291,0.384-2.01,0.517l-0.596,0.109
	l-0.151,0.607c-0.039,0.158-0.077,0.315-0.1,0.454c0,0-0.167,0.868-0.178,0.924c-0.023,0.114-0.047,0.232-0.062,0.354l-0.054,0.5
	c-0.009,0.104-0.02,0.196-0.029,0.288c-0.029,0.254-0.062,0.542-0.053,0.845l-0.014,0.771c0,0,0.03,0.365,0.032,0.389L49.662,74.65z
	"/>
<path fill="#C87183" d="M32.242,71.511c1.539-1.553,2.921-3.389,4.692-4.764c0.123,0.131,0.376,0.17,0.502,0.28
	C36.151,68.966,34.022,70.131,32.242,71.511 M33.722,63.467c-0.126-0.126-0.331-0.175-0.453-0.3
	c-1.616,2.075-4.29,2.968-6.567,4.098C29.016,67.128,32.294,65.158,33.722,63.467 M29.543,56.288
	c-0.109-0.12-0.381-0.223-0.528-0.321c-1.495,1.481-3.446,2.716-5.32,3.739c-0.883,0.48-1.951,1.089-3.025,0.851
	c1.837,0.447,4.243-0.902,5.766-1.692C27.699,58.206,28.694,57.447,29.543,56.288 M29.467,51.187
	c-1.298,1.761-4.389,0.859-6.141,0.286c-1.222-0.399-2.827-0.742-3.745-1.654c2.538,1.875,6.634,3.368,9.792,2.861
	C29.451,52.164,29.409,51.705,29.467,51.187 M41.012,68.447c-0.342,2.899-0.77,5.676,1.003,8.234
	c-0.665-2.566-1.415-5.095-0.164-7.568c-0.185-0.142-0.507-0.255-0.641-0.24 M50.829,70.145c-0.983-0.465-0.976,3.779-0.935,4.276
	c0.092,1.1,0.468,2.489,0.99,3.481c-0.138-1.587-0.38-3.131-0.344-4.74C50.562,72.221,50.735,70.974,50.829,70.145 M55.97,68.095
	c-0.193,0.102-0.454,0.215-0.532,0.399c-0.407,0.97,0.69,2.587,1.134,3.437c0.472,0.907,0.995,1.79,1.567,2.643
	c0.253,0.376,0.494,0.794,0.837,1.096c0.338,0.297,0.771,0.468,1.1,0.778c-0.174-0.163-0.52-0.218-0.727-0.425
	c-0.231-0.234-0.365-0.518-0.517-0.797c-0.377-0.695-0.72-1.409-1.035-2.132c-0.378-0.865-0.712-1.748-0.999-2.644
	c-0.057-0.181-0.769-2.354-0.771-2.352C55.96,68.148,55.993,68.015,55.97,68.095"/>
<path fill="#EF8AA8" d="M104.627,47.938c-2.323,0.393-2.641,0.712-3.034,3.033c-0.393-2.321-0.711-2.641-3.033-3.033
	c2.322-0.392,2.641-0.712,3.033-3.034C101.986,47.226,102.304,47.546,104.627,47.938"/>
<path fill="#EF8AA8" stroke="#FFFFFF" stroke-miterlimit="10" d="M39.308,59.53c-0.794,0.071-1.153-0.271-1.081-1.027v-8.702
	c-0.036-0.757,0.341-1.116,1.135-1.08h2.702c-0.433,1.08-0.325,1.909,0.324,2.486c-0.108,0.324-0.127,0.774-0.053,1.351
	c-0.649,0.865-0.632,1.657,0.053,2.378c-0.037,0.648,0.055,1.171,0.271,1.567c-0.181,0.829-0.577,1.657-1.189,2.487
	c-0.216,0.288-0.343,0.468-0.378,0.54H39.308z M41.091,50.937h-0.812v0.919h0.812V50.937z M40.279,54.611h0.812v-0.919h-0.812
	V54.611z M40.279,57.315h0.812v-0.92h-0.812V57.315z M42.388,49.855c0.035-0.649,0.271-0.955,0.703-0.919h2.216v-0.324
	c0.035-0.433,0.432-0.649,1.188-0.649c0.901,0,1.351,0.254,1.351,0.758v0.216h2.218c0.539,0,0.81,0.252,0.81,0.757v0.271
	c0.036,0.612-0.234,0.899-0.81,0.864h-2.218v0.486h1.676c0.649-0.035,0.955,0.325,0.92,1.081v0.378h0.216
	c0.288-0.035,0.414,0.162,0.378,0.595v0.217c-0.036,0.433-0.162,0.667-0.378,0.702h-0.271v0.972
	c-0.036,0.579-0.342,0.885-0.917,0.92h-1.624v0.54h2.163c0.433-0.035,0.63,0.181,0.594,0.648v0.271
	c-0.036,0.36-0.233,0.56-0.594,0.596h-2.163v0.594h2.379c0.54,0,0.811,0.235,0.811,0.703v0.216c0,0.612-0.288,0.919-0.864,0.919
	h-3.352c-1.154-0.036-2-0.323-2.54-0.865c-0.181,0.252-0.379,0.522-0.594,0.811c-0.289,0.397-0.739,0.397-1.351,0
	c-0.649-0.36-0.83-0.721-0.542-1.08c0.649-0.973,1.136-1.909,1.46-2.812c0.288-0.504,0.773-0.594,1.459-0.27
	c0.288,0.182,0.45,0.397,0.486,0.648c0,0.289-0.091,0.576-0.271,0.864c-0.036,0.182,0.036,0.325,0.216,0.433
	c0.146,0,0.252-0.107,0.325-0.323c0.468-1.008,0.359-1.676-0.325-2c-0.612-0.36-1.262-0.38-1.944-0.055
	c-0.181-0.035-0.289-0.179-0.324-0.433v-0.216c0-0.433,0.216-0.648,0.648-0.648h1.838v-0.541h-1.623c-0.539,0-0.9,0.073-1.08,0.217
	c-0.145-0.108-0.216-0.306-0.216-0.595c0-0.396,0.089-0.648,0.27-0.756c0.181,0.107,0.379,0.18,0.595,0.215h2.055v-0.54h-1.893
	c-0.433-0.035-0.648-0.217-0.648-0.54c0-0.575,0.18-0.847,0.541-0.811h2v-0.541h-2.162c-0.541,0-0.812-0.234-0.812-0.702V49.855z
	 M47.685,53.26h0.811v-0.648h-0.811V53.26z M47.685,54.773h0.811v-0.541h-0.811V54.773z"/>
<path fill="#EF8AA8" stroke="#FFFFFF" stroke-miterlimit="10" d="M52.819,50.126c0-0.685,0.234-1.026,0.702-1.026
	c3.315-0.181,6.125-0.47,8.432-0.866c0.829-0.108,1.261,0.308,1.297,1.243c0.072,0.757-0.252,1.172-0.973,1.243
	c-0.432,0.036-1.1,0.108-2,0.217c-0.72,0.072-1.242,0.127-1.566,0.162v0.918c1.477-0.107,2.864-0.18,4.162-0.215
	c0.611-0.036,0.918,0.288,0.918,0.972v0.271c0.036,0.612-0.27,0.937-0.918,0.973c-1.334,0.145-2.722,0.253-4.162,0.323v0.757
	c0.648-0.034,1.549-0.09,2.702-0.162c0.901-0.072,1.567-0.107,2-0.107c0.612-0.036,0.937,0.343,0.972,1.134v0.217
	c0,0.253-0.089,0.452-0.27,0.595c-0.252-0.143-0.54-0.216-0.865-0.216h-0.216c-0.324-0.036-0.631,0.161-0.919,0.595
	c-0.324,0.036-0.757,0.072-1.297,0.107c-0.937,0.072-1.641,0.127-2.107,0.163v0.755c0.035,0.217,0.162,0.345,0.378,0.38h2.161
	c0.433,0.036,0.884-0.343,1.352-1.135c0.359-0.433,0.901-0.451,1.622-0.056c0.18,0.108,0.342,0.235,0.485,0.379
	c0.289,0.252,0.271,0.703-0.053,1.353c-0.648,1.26-1.388,1.854-2.216,1.783H57.63c-0.974,0-1.459-0.452-1.459-1.352v-1.893
	c-0.757,0.073-1.587,0.145-2.487,0.217c-0.323,0.035-0.577,0.055-0.756,0.055c-0.613-0.036-0.919-0.379-0.919-1.027v-0.379
	c-0.073-0.648,0.342-0.973,1.243-0.973c0.396-0.035,0.919-0.071,1.566-0.107c0.541-0.035,0.991-0.072,1.353-0.108v-0.757
	c-0.722,0.037-1.46,0.073-2.217,0.108c-0.216,0.035-0.397,0.054-0.54,0.054c-0.648,0-0.974-0.324-0.974-0.973v-0.271
	c0-0.721,0.288-1.099,0.865-1.135c0.468-0.036,1.099-0.072,1.892-0.109c0.433-0.034,0.757-0.053,0.974-0.053v-0.865
	c-1.154,0.073-1.947,0.108-2.38,0.108c-0.647,0-0.972-0.324-0.972-0.973V50.126z"/>
<path fill="#EF8AA8" stroke="#FFFFFF" stroke-miterlimit="10" d="M66.439,52.126c0.144-0.109,0.325-0.271,0.541-0.486
	c0.324-0.252,0.594-0.468,0.811-0.648c0.504-0.396,0.99-0.396,1.459,0c0.468,0.36,0.521,0.756,0.162,1.188
	c-0.576,0.613-1.081,1.045-1.514,1.297c-0.505,0.324-0.955,0.324-1.351,0C66.043,53.008,66.008,52.558,66.439,52.126 M70.925,48.883
	v-0.162c0-0.433,0.433-0.667,1.299-0.703h0.486c0.899,0,1.351,0.235,1.351,0.703v0.162h3.352c0.575,0.036,0.881,0.378,0.918,1.026
	c-0.037,0.577-0.324,0.883-0.864,0.919c-0.865-0.647-1.604-0.774-2.216-0.378c-0.613,0.36-0.794,0.901-0.541,1.621
	c0.036,0.145,0.306,0.468,0.811,0.974c0.035,0.54-0.397,0.792-1.297,0.756c-0.938-0.036-1.424-0.324-1.459-0.865v-2.107h-0.596
	v1.999c-0.035,0.542-0.468,0.829-1.297,0.865c-0.864-0.036-1.333-0.305-1.405-0.811c0.468-0.359,0.685-0.774,0.649-1.242
	c0.035-0.577-0.324-1.01-1.081-1.298c-0.577-0.145-1.189,0.019-1.837,0.486c-0.47-0.108-0.758-0.413-0.865-0.919
	c0.035-0.648,0.341-0.99,0.919-1.026H70.925z M66.656,54.126c0.684,0.18,1.459-0.127,2.323-0.919
	c0.253,0.505,0.792,0.792,1.622,0.864c0.865,0.036,1.477-0.163,1.838-0.595c0.324,0.469,0.919,0.722,1.783,0.757
	c0.828-0.035,1.423-0.288,1.783-0.757c0.721,0.612,1.279,0.847,1.676,0.702c0,0.108-0.019,0.289-0.054,0.541
	c-0.037,0.505-0.072,0.864-0.108,1.081c-0.181,0.686-0.541,1.026-1.082,1.026h-6.484c-0.217,0.145-0.271,0.289-0.162,0.433h7.242
	c0.685,0.037,1.027,0.343,1.027,0.918c-0.073,0.723-0.199,1.263-0.379,1.622c-0.253,0.865-0.685,1.262-1.297,1.189h-3.567
	c-0.505-0.036-0.775-0.324-0.811-0.864v-0.271c0.035-0.575,0.324-0.881,0.864-0.918h2.163c0.287-0.144,0.323-0.306,0.108-0.486h-2
	c-0.723,0.036-1.264,0.324-1.623,0.864h-3.891c-0.686-0.035-0.991-0.432-0.919-1.188c0.107-0.468,0.233-1.009,0.379-1.621
	c0.071-0.253,0.125-0.45,0.162-0.595c0.216-0.433,0.63-0.685,1.242-0.758h6.054c0.18-0.107,0.234-0.252,0.162-0.432h-6.161
	c-0.613,0-1.117,0.216-1.514,0.648C66.781,55.008,66.656,54.595,66.656,54.126 M76.655,53.423c-0.109-0.108-0.29-0.271-0.542-0.487
	c-0.251-0.216-0.431-0.378-0.539-0.485c-0.577-0.613-0.649-1.117-0.217-1.514c0.396-0.36,0.865-0.36,1.405,0
	c0.576,0.396,0.973,0.739,1.189,1.027c0.468,0.468,0.504,0.936,0.108,1.405C77.628,53.801,77.159,53.819,76.655,53.423"/>
<path fill="#EF8AA8" stroke="#FFFFFF" stroke-miterlimit="10" d="M80.276,52.126c0.144-0.109,0.325-0.271,0.541-0.486
	c0.323-0.252,0.594-0.468,0.811-0.648c0.504-0.396,0.99-0.396,1.458,0c0.469,0.36,0.522,0.756,0.162,1.188
	c-0.575,0.613-1.08,1.045-1.513,1.297c-0.505,0.324-0.955,0.324-1.351,0C79.879,53.008,79.845,52.558,80.276,52.126 M84.762,48.883
	v-0.162c0-0.433,0.433-0.667,1.298-0.703h0.486c0.9,0,1.351,0.235,1.351,0.703v0.162h3.352c0.576,0.036,0.882,0.378,0.919,1.026
	c-0.037,0.577-0.325,0.883-0.864,0.919c-0.865-0.647-1.604-0.774-2.217-0.378c-0.613,0.36-0.793,0.901-0.54,1.621
	c0.035,0.145,0.306,0.468,0.811,0.974c0.035,0.54-0.397,0.792-1.298,0.756c-0.937-0.036-1.424-0.324-1.459-0.865v-2.107h-0.595
	v1.999c-0.036,0.542-0.468,0.829-1.297,0.865c-0.864-0.036-1.333-0.305-1.404-0.811c0.468-0.359,0.684-0.774,0.647-1.242
	c0.036-0.577-0.323-1.01-1.08-1.298c-0.578-0.145-1.19,0.019-1.838,0.486c-0.469-0.108-0.757-0.413-0.865-0.919
	c0.036-0.648,0.342-0.99,0.919-1.026H84.762z M80.492,54.126c0.685,0.18,1.46-0.127,2.324-0.919
	c0.252,0.505,0.792,0.792,1.621,0.864c0.865,0.036,1.478-0.163,1.838-0.595c0.324,0.469,0.919,0.722,1.783,0.757
	c0.829-0.035,1.424-0.288,1.785-0.757c0.719,0.612,1.278,0.847,1.675,0.702c0,0.108-0.02,0.289-0.055,0.541
	c-0.036,0.505-0.071,0.864-0.107,1.081c-0.182,0.686-0.541,1.026-1.081,1.026H83.79c-0.217,0.145-0.271,0.289-0.162,0.433h7.242
	c0.684,0.037,1.026,0.343,1.026,0.918c-0.072,0.723-0.199,1.263-0.378,1.622c-0.253,0.865-0.686,1.262-1.297,1.189h-3.567
	c-0.506-0.036-0.775-0.324-0.811-0.864v-0.271c0.035-0.575,0.324-0.881,0.863-0.918h2.163c0.287-0.144,0.324-0.306,0.108-0.486h-2
	c-0.721,0.036-1.263,0.324-1.622,0.864h-3.892c-0.685-0.035-0.991-0.432-0.919-1.188c0.108-0.468,0.234-1.009,0.379-1.621
	c0.072-0.253,0.125-0.45,0.162-0.595c0.216-0.433,0.63-0.685,1.242-0.758h6.054c0.18-0.107,0.234-0.252,0.163-0.432h-6.161
	c-0.614,0-1.118,0.216-1.514,0.648C80.618,55.008,80.492,54.595,80.492,54.126 M90.491,53.423c-0.108-0.108-0.288-0.271-0.54-0.487
	c-0.253-0.216-0.433-0.378-0.54-0.485c-0.577-0.613-0.649-1.117-0.217-1.514c0.397-0.36,0.864-0.36,1.405,0
	c0.575,0.396,0.973,0.739,1.188,1.027c0.469,0.468,0.505,0.936,0.108,1.405C91.464,53.801,90.995,53.819,90.491,53.423"/>
<path fill-rule="evenodd" clip-rule="evenodd" fill="#A52E41" d="M91.453,33.082c-0.234,0.021-0.55-0.039-0.674,0.209
	c0.415,0.197,1.226-0.704,1.65,0.227c-0.193,0.273-0.764,0.348-0.968,0.615c0.613,0.236,1.275-0.761,1.662-0.409
	c0.023,0.654-0.656,0.939-1.298,1.244c0.278,0.417,1.141-0.625,1.529-0.158c0.079,0.47-0.492,0.599-0.908,0.808
	c0.41,0.123,1.161-0.515,1.361,0.314c0.195,0.124,0.383-0.226,0.635,0.016c0.057,0.377,0.006,0.697-0.242,0.916
	c0.182,0.113,0.506-0.044,0.665,0.109c-0.002,0.241-0.2,0.377-0.36,0.532c0.416,0.219,0.679,0.482,0.392,0.933
	c0.07,0.12,0.267,0.005,0.415-0.022c0.021,0.575,0.298,0.504,0.298,0.959c-0.68,0.286-1.061,0.729-1.805,0.98
	c0.733,0.223,1.341-0.893,1.951-0.499c-0.157,0.641-0.484,1.191-1.084,1.599c0.66,0.155,0.85-0.724,1.441-0.446
	c-0.048,0.802-1.159,1.017-1.433,1.495c0.433,0.103,0.896-0.389,1.404-0.223c0.261,0.6-0.89,0.676-1.255,0.703
	c2.022,8.234,4.337,16.229,6.886,23.972c1.117,0.068,2.572-0.507,3.534-0.146c1.619,5.857,3.646,13.471,5.269,19.42
	c-1.605,2.099-5.951,3.039-8.35,2.267c-2.205-6.711-3.444-12.955-5.343-18.976c0.43-0.927,1.889-1.309,3.124-1.809
	c-2.232-8.107-4.822-15.736-7.042-24.135c-0.406-0.124-1.406,0.995-1.723,0.217c0.203-0.241,0.82-0.264,0.998-0.519
	c-0.351-0.097-0.819,0.029-1.175-0.058c-0.138-0.286,0.109-0.371,0.391-0.437c-0.299-0.246-0.853-0.009-0.939-0.656
	c1.261-0.661,3.158-0.228,4.228-1.308c-1.173,0.436-3.202,1.209-4.502,0.761c-0.008-0.459,0.979-0.395,1.381-0.638
	c-0.299-0.298-0.986,0.144-1.302-0.124c-0.082-0.203-0.015-0.33,0.199-0.377c-0.149-0.427-0.696-0.101-0.813-0.591
	c0.638-0.598,1.999-0.208,3.199-0.883c-1.034-0.003-2.037,0.548-2.705,0.099c-0.099-0.479-0.196-0.538-0.549-1.093
	c0.731-0.612,1.523-0.078,2.749-0.641c-0.635-0.368-1.904,0.462-2.578,0.166c-0.225-0.557,0.206-0.352,0.581-0.494
	c-0.202-0.174-0.577-0.023-0.79-0.178c0.093-0.263,0.266-0.863-0.237-0.768c-0.05-0.295,0.531-0.256,0.206-0.695
	c0.499-0.075,0.529-0.201,0.989-0.201c-0.248-0.341-0.96,0.192-1.139-0.278c-0.161-0.328,0.194-0.381,0.487-0.467
	c-0.547-1.014,0.727-1.064,0.205-2.064c0.246,0.091,0.57,0.037,0.857,0.051C91.102,32.632,91.239,32.929,91.453,33.082
	 M92.895,38.426c0.235-0.201,1.304-0.381,0.968-0.615C93.835,38.171,92.726,37.96,92.895,38.426 M93.325,39.134
	c0.265,0.345,1.278-0.21,1.314-0.512C94.283,38.836,93.834,39.001,93.325,39.134 M93.483,42.031
	c-0.601,0.224-1.087,0.231-1.596,0.284C92.133,42.653,93.375,42.413,93.483,42.031 M93.522,43.178
	c-0.106,0.051-0.057,0.184-0.007,0.318c1.029,4.191,2.35,9.552,3.797,13.98c1.218,3.724,2.206,7.81,3.758,11.469
	c0.211-0.13,0.395-0.273,0.738-0.334c-2.03-6.721-5.31-17.392-7.458-25.479C94.04,43.212,93.861,43.046,93.522,43.178
	 M97.471,69.216c0.633,0.574,1.854,0.038,2.896-0.16c-0.197-0.371-0.005-0.538-0.171-0.894C99.28,68.22,98.262,68.835,97.471,69.216
	 M102.385,68.433c0.919-0.338,1.757-0.528,2.252-1.223c-0.717-0.062-1.998,0.133-2.682,0.513
	C102.219,67.732,102.134,68.4,102.385,68.433 M97.479,70.265c1.58,5.615,2.598,10.404,4.237,15.741
	c0.187,0.609,0.227,1.514,0.882,1.833c-2.029-6.578-3.021-11.828-4.919-17.951c-0.097,0.031-0.193,0.061-0.289,0.09
	C97.42,70.073,97.448,70.169,97.479,70.265 M101.889,83.847c0.233,1.035,0.697,3.693,1.5,4.167c1.285,0.76,6.142-0.91,6.502-2.116
	c0.212-0.706-0.655-3.354-0.922-4.346c-1.047-3.874-2.967-10.49-3.805-13.663c-1.633,0.896-4.809,1.935-6.79,2.206
	C99.416,74.655,100.799,78.981,101.889,83.847"/>
</svg>
