<?xml version="1.0" encoding="utf-8"?>
<!-- Generator: Adobe Illustrator 16.0.0, SVG Export Plug-In . SVG Version: 6.00 Build 0)  -->
<!DOCTYPE svg PUBLIC "-//W3C//DTD SVG 1.1//EN" "http://www.w3.org/Graphics/SVG/1.1/DTD/svg11.dtd">
<svg version="1.1" id="Layer_1" xmlns="http://www.w3.org/2000/svg" xmlns:xlink="http://www.w3.org/1999/xlink" x="0px" y="0px"
	 width="126.876px" height="112.438px" viewBox="0 0 126.876 112.438" enable-background="new 0 0 126.876 112.438"
	 xml:space="preserve">
<path opacity="0.8" fill="#FFFFFF" stroke="#F2A2A3" d="M85.393,33.552v2.56c0,1.413-0.159,2.473-0.318,3.356
	c-6.204,0-12.409-0.089-18.614-0.265c0,2.648,0.08,5.297,0.16,7.77c4.693,0.089,8.193,0.177,10.499,0.265
	c0.08,0.707,0.159,1.502,0.159,2.385v2.472c-0.954,0.53-4.533,0.796-10.58,0.796v6.533c3.66-0.088,7.398-0.177,11.217-0.177
	c0.079,0.707,0.159,1.59,0.159,2.473v2.825c-9.466,0.884-18.772,1.237-28,1.237c-0.318-1.768-0.397-3.621-0.397-5.563
	c3.658-0.265,7.317-0.441,11.136-0.618c-0.158-2.208-0.317-4.415-0.317-6.622h-0.796c-6.523,0-11.137-0.177-13.921-0.706
	c-0.238-0.795-0.318-1.679-0.318-2.649c0-0.972,0-1.854,0.159-2.561c3.818,0,8.512-0.089,14.239-0.089h0.397
	c-0.079-2.648-0.159-5.298-0.159-7.946c-7.159-0.089-14.397-0.265-21.637-0.618c-0.238-0.707-0.318-1.767-0.318-3.091
	c0-0.971,0.239-1.942,0.717-2.914C54.21,32.757,69.722,33.11,85.393,33.552z M66.381,68.694c-0.637,1.412-1.193,2.825-1.75,4.15
	c5.887-0.177,11.772-0.441,17.738-0.618c0.159,0.883,0.319,1.767,0.319,2.737v2.913c-7.001,0.53-13.921,0.883-20.922,1.236
	c-0.317,0.707-0.636,1.414-0.954,2.12c-1.034,2.118-1.909,3.885-2.546,5.562c-0.557,1.06-1.113,2.031-1.59,3.09
	c-0.397,1.061-1.113,2.296-2.148,3.798c-1.83-0.707-3.42-1.59-4.693-2.826c1.75-3.974,3.421-7.682,5.171-11.391
	c-4.693,0.266-9.307,0.442-13.921,0.53c-0.317-1.943-0.477-3.974-0.477-5.916c5.807-0.354,11.613-0.706,17.42-0.972
	c1.034-2.119,2.068-4.238,3.182-6.357C63.278,67.018,64.949,67.636,66.381,68.694z M53.335,29.048
	c-1.67,1.06-3.34,1.678-4.932,1.854c-1.75-2.473-2.704-5.562-3.022-9.271c1.272-0.617,2.864-1.06,4.693-1.412
	C51.585,22.161,52.698,25.163,53.335,29.048z M79.108,22.426c-0.478,3.355-1.433,5.916-2.705,7.858
	c-1.272,0-2.943-0.529-4.852-1.589c0.397-2.826,1.272-5.476,2.545-8.124C75.688,21.014,77.357,21.631,79.108,22.426z M83.245,87.943
	c-0.717,1.854-1.751,3.355-3.023,4.592c-2.864-1.589-5.408-3.531-7.636-5.739c0.795-1.766,1.67-3.268,2.624-4.592
	C77.994,83.617,80.699,85.471,83.245,87.943z"/>
<path fill="#5BB1BF" d="M47.381,62.66v0.227c0,2.051-0.813,3.369-2.432,3.978l-0.34,0.113c-2.359,0-3.534-1.618-3.534-4.863
	c0-2.503,1-3.761,2.988-3.761C46.278,58.725,47.381,60.156,47.381,62.66 M41.849,62.114v0.329h0.112l0.217-0.216v-0.113H41.849z
	 M41.849,62.773v0.228h0.329l-0.217-0.228H41.849z M41.961,61.785h0.33v-0.228h-0.33V61.785z M41.961,63.773h0.217V63.33h-0.217
	V63.773z M42.075,61.228h0.329v-0.216h-0.329V61.228z M42.075,64.318h0.216v-0.216h-0.216V64.318z M42.178,60.455v0.217h0.34
	l-0.227-0.217H42.178z M42.404,59.899v0.113l0.216,0.216h0.114v-0.329H42.404z M42.404,64.659v0.33h0.216v-0.113L42.404,64.659z
	 M44.063,65.535h0.329c1.031-0.516,1.546-1.474,1.546-2.875c0-1.226-0.629-2.102-1.875-2.647c-1.03,0-1.546,1.144-1.546,3.431
	C42.889,64.834,43.403,65.535,44.063,65.535 M42.734,65.205v0.227h0.216L42.734,65.205z M42.848,59.353l0.103,0.547h0.34v-0.444
	l-0.113-0.103v-0.113L42.848,59.353z M43.507,59.127l0.113,0.556h0.33v-0.33l-0.217-0.226H43.507z M43.62,65.874v0.33h0.443v-0.113
	l-0.227-0.217H43.62z M44.279,59.127v0.556h0.228v-0.228l0.103-0.103l-0.217-0.226H44.279z M44.393,65.874v0.33h0.33v-0.113
	l-0.216-0.217H44.393z M44.949,59.353l-0.113,0.547l0.113,0.113h0.103l0.341-0.558l-0.113-0.103H44.949z M44.836,65.762l0.329,0.217
	h0.114l-0.114-0.443h-0.113L44.836,65.762z M45.608,59.683l-0.216,0.659h0.103l0.33-0.329v-0.113L45.608,59.683z M45.495,65.205
	l-0.103,0.113v0.113l0.216,0.217l0.217-0.217L45.495,65.205z M45.825,60.672v0.227h0.227l0.216-0.227l-0.216-0.217L45.825,60.672z
	 M45.825,64.762v0.114l0.34,0.329v-0.104L45.825,64.762z M46.052,61.342v0.103l0.33-0.103v-0.33L46.052,61.342z M46.052,64.318
	v0.228l0.443,0.113v-0.341H46.052z M46.268,61.672v0.442h0.341v-0.227l-0.227-0.216H46.268z M46.268,62.557v0.217h0.443V62.66
	l-0.103-0.104v-0.113L46.268,62.557z M46.268,63.33v0.216h0.228l0.216-0.216l-0.216-0.228L46.268,63.33z"/>
<path fill="#E091AC" d="M40.688,53.819l-1.255,1.604h-0.073c-1.273-1.145-2.214-1.882-2.805-2.195l-0.812-0.147
	c-1.9,0-3.413,1.771-4.502,5.331l-0.221,1.9c0,2.141,0.94,3.506,2.804,4.096l1.033,0.148c2.307-0.333,3.469-1.384,3.469-3.137
	v-0.295h0.073c0.277,0,0.941,0.442,1.992,1.31l0.296,0.147c-1.439,3.505-3.155,5.259-5.166,5.259h-0.517
	c-1.347,0-2.601-0.406-3.764-1.237c-1.679-2.011-2.509-4.557-2.509-7.601c0-3.266,1.089-5.756,3.247-7.454
	c1.145-0.719,2.158-1.088,3.025-1.088C37.827,51.291,39.71,52.398,40.688,53.819 M29.618,58.34l-0.074,0.072v0.887l0.074-0.074
	h0.074l0.885,0.222l-0.074-0.074v-0.073l0.074-0.665L29.618,58.34z M29.913,56.531c-0.203,0.276-0.295,0.627-0.295,1.014h0.074
	l1.033,0.148l0.221-0.96L29.913,56.531z M29.692,60.46c0,0.535,0.073,0.812,0.221,0.812h0.738l-0.074-0.074V60.46
	c0-0.147-0.276-0.222-0.812-0.222L29.692,60.46z M29.913,62.287c0.055,0.59,0.129,0.886,0.222,0.886l0.886-0.443
	c0-0.258-0.092-0.424-0.295-0.516h-0.443L29.913,62.287z M30.356,55.129l1.18,0.295c0.148-0.24,0.222-0.479,0.222-0.719
	c-0.166-0.296-0.388-0.443-0.664-0.443h-0.295c-0.296,0.202-0.442,0.443-0.442,0.72V55.129z M30.43,64.188
	c0.203,0.535,0.351,0.83,0.442,0.885h0.074c0.424-0.313,0.664-0.664,0.738-1.032c-0.037-0.147-0.129-0.24-0.296-0.296L30.43,64.188z
	 M31.463,53.303l0.96,0.59h0.073l0.664-0.738v-0.073l-0.737-0.941c-0.684,0.572-1.034,0.96-1.034,1.163H31.463z M32.644,64.557
	l-0.959,1.53h0.073l0.665,0.517c0-0.295,0.221-0.885,0.663-1.752L32.644,64.557z M33.824,65.072l-0.517,1.956h1.107l0.222-1.753
	l-0.074-0.203H33.824z M33.529,51.328c0.24,0.886,0.424,1.328,0.59,1.328c0.13,0,0.203-0.203,0.222-0.59
	c-0.092-0.627-0.24-0.94-0.442-0.94h-0.074L33.529,51.328z M35.374,51.272v0.573l-0.073,0.516l0.885,0.222
	c0.111-0.167,0.203-0.498,0.296-1.034L35.374,51.272z M35.891,64.999l0.442,1.9c0.646-0.13,0.96-0.351,0.96-0.665
	c-0.388-0.663-0.591-1.069-0.591-1.235v-0.222h-0.073L35.891,64.999z M37.515,52.14l-0.222,0.812l0.664,0.277l0.222-0.867
	l-0.591-0.222H37.515z M37.515,64.188c0.387,0.535,0.59,0.996,0.59,1.384c0.166,0,0.498-0.314,0.959-0.941
	c-0.608-0.535-1.014-0.812-1.254-0.812L37.515,64.188z M38.474,62.508v0.148l-0.074,0.073l0.074,0.074
	c0.664,0.571,1.089,0.867,1.255,0.867l0.221-0.351v-0.074c-0.332,0-0.793-0.24-1.402-0.738H38.474z M38.916,53.025
	c0,0.425-0.092,0.646-0.295,0.646v0.073l0.295,0.296l0.296-0.886L38.916,53.025z"/>
<path fill="#4A1617" d="M40.595,53.747l-1.254,1.604l0.092-0.045h-0.073l0.078,0.03c-1.281-1.151-2.232-1.896-2.827-2.212
	l-0.017-0.009l-0.018-0.003l-0.812-0.147l-0.011-0.003h-0.01c-1.963,0-3.516,1.822-4.613,5.416l-0.004,0.01l-0.001,0.011
	l-0.222,1.899l-0.001,0.008v0.007c0,2.185,0.972,3.601,2.887,4.207l0.009,0.003l0.01,0.001l1.033,0.147l0.017,0.003l0.017-0.003
	c2.368-0.341,3.569-1.435,3.569-3.252v-0.295l-0.117,0.117h0.073c0.166,0,0.632,0.222,1.918,1.283l0.01,0.008l0.013,0.007
	l0.296,0.147l-0.057-0.15c-1.413,3.441-3.114,5.186-5.058,5.186h-0.517c-1.324,0-2.567-0.408-3.695-1.215l0.022,0.021
	c-1.647-1.972-2.481-4.504-2.481-7.525c0-3.214,1.076-5.69,3.201-7.361l-0.01,0.007c1.129-0.71,2.126-1.069,2.963-1.069
	l-0.033-0.006c2.817,0.829,4.656,1.913,5.619,3.312L40.595,53.747z M35.005,50.344c-0.882,0-1.921,0.373-3.088,1.106l-0.005,0.003
	l-0.005,0.004c-2.185,1.718-3.292,4.257-3.292,7.546c0,3.078,0.853,5.66,2.536,7.676l0.01,0.012l0.012,0.01
	c1.169,0.834,2.459,1.257,3.832,1.257h0.517c2.048,0,3.823-1.793,5.274-5.33l0.042-0.101l-0.098-0.049l-0.296-0.147l0.022,0.014
	c-1.437-1.185-1.859-1.337-2.067-1.337h-0.073h-0.117v0.118v0.295c0,1.682-1.134,2.699-3.368,3.02h0.033l-1.033-0.147l0.019,0.004
	c-1.806-0.571-2.722-1.912-2.722-3.982l-0.001,0.014l0.222-1.9l-0.004,0.021c1.064-3.483,2.541-5.249,4.389-5.249l-0.021-0.002
	l0.812,0.147L36.5,53.332c0.578,0.308,1.513,1.04,2.781,2.18l0.033,0.029h0.045h0.073h0.058l0.035-0.045l1.255-1.605l0.053-0.067
	l-0.049-0.07c-0.995-1.446-2.875-2.56-5.746-3.404l-0.016-0.005H35.005z"/>
<path fill="#4A1617" d="M47.315,62.66v0.227c0,2.031-0.782,3.312-2.389,3.916c0.002-0.001-0.338,0.112-0.338,0.112l0.021-0.003
	c-2.334,0-3.469-1.569-3.469-4.798c0-2.452,0.983-3.694,2.923-3.694l-0.012-0.001c1.086,0.181,1.91,0.628,2.449,1.328
	C47.041,60.448,47.315,61.429,47.315,62.66 M44.063,58.288c-2.026,0-3.054,1.288-3.054,3.826c0,3.271,1.211,4.928,3.6,4.928h0.011
	l0.01-0.003l0.34-0.113c1.645-0.617,2.477-1.977,2.477-4.039V62.66c0-2.525-1.135-3.996-3.372-4.371l-0.005-0.001H44.063z"/>
<path fill="#4A1617" d="M44.063,65.6h0.329h0.016l0.015-0.007c1.049-0.524,1.581-1.511,1.581-2.933c0-1.24-0.644-2.151-1.914-2.707
	l-0.013-0.007h-0.014c-1.068,0-1.611,1.177-1.611,3.497v0.008l0.002,0.009C42.833,64.881,43.374,65.6,44.063,65.6 M42.583,63.443
	c0-2.232,0.498-3.365,1.48-3.365l-0.026-0.006c1.235,0.541,1.836,1.388,1.836,2.588c0,1.368-0.508,2.315-1.51,2.816l0.029-0.008
	h-0.329c-0.622,0-1.121-0.688-1.482-2.042L42.583,63.443z"/>
<path fill="#4A1617" d="M51.476,61.498h0.536l0.082,0.051l0.052-0.051c0,0.03,0.051,0.051,0.154,0.071l0.031-0.021
	c0.205,0.021,0.442,0.104,0.7,0.237c0.083,0,0.309,0.124,0.67,0.36c0.144,0.155,0.268,0.361,0.371,0.629
	c0.03,0,0.082,0.093,0.134,0.288h-0.021l0.052,0.124l-0.031,0.021c0.051,0,0.082,0.083,0.082,0.247c0,0.124-0.082,0.289-0.237,0.484
	c-0.216,0.258-0.423,0.381-0.617,0.381h-0.217l-0.031,0.031l-0.021-0.031h-0.216c-0.237,0-0.371-0.051-0.402-0.144
	c-0.051,0-0.071-0.031-0.082-0.094l-0.134-0.071l0.031-0.031V63.96c-0.073-0.051-0.145-0.195-0.196-0.412l0.03-0.021v-0.021
	l-0.03-0.154l0.03-0.021l-0.03-0.021v-0.031L52.3,62.95c0.145-0.062,0.247-0.124,0.299-0.175h0.031v-0.072
	c-0.031,0-0.104-0.071-0.217-0.216l-0.217-0.072l-0.35-0.072l-0.104,0.051l-0.134-0.03c-0.299,0.082-0.649,0.236-1.071,0.463
	c0,0.031-0.124,0.124-0.381,0.289c-0.217,0.237-0.32,0.423-0.32,0.536v0.164c0,0.165,0.237,0.402,0.722,0.722
	c0.134,0.195,0.412,0.329,0.854,0.412l0.65,0.124c0.226,0.072,0.412,0.165,0.566,0.268c0.288,0.144,0.525,0.309,0.721,0.483
	c0.382,0.258,0.567,0.423,0.567,0.506h0.051l-0.03,0.021v0.03c0.174,0.154,0.318,0.371,0.453,0.67c0.051,0,0.092,0.072,0.113,0.217
	c0.041,0,0.113,0.154,0.217,0.464l0.071,0.598l-0.052,0.144l0.031,0.031c-0.051,0.329-0.134,0.577-0.247,0.741
	c-0.031,0.154-0.083,0.227-0.154,0.227v0.041c0,0.176-0.259,0.505-0.783,0.969c-0.104,0.094-0.351,0.268-0.753,0.505
	c-0.062,0-0.164,0.042-0.318,0.124c-0.196,0.082-0.351,0.124-0.453,0.124c-0.289,0.051-0.454,0.082-0.505,0.113h-0.413l-0.401,0.03
	v-0.052h-0.021c-0.135,0-0.227-0.02-0.299-0.051l-0.021,0.031h-0.031c-0.351-0.083-0.659-0.217-0.938-0.393
	c-0.072-0.061-0.144-0.093-0.216-0.093c-0.166-0.133-0.32-0.298-0.454-0.483c-0.041,0-0.123-0.093-0.247-0.288l-0.288-0.464
	c-0.072-0.031-0.114-0.082-0.114-0.165l0.062-0.052c-0.041-0.03-0.062-0.134-0.062-0.288l-0.103-0.289h0.03l0.021-0.021l0.051-0.536
	v-0.071l0.165-0.289c0.093-0.072,0.207-0.227,0.319-0.463c0.072,0,0.186-0.083,0.351-0.238l0.103-0.02l0.031,0.02
	c0-0.04,0.135-0.103,0.402-0.195l0.03,0.021l0.134-0.021h0.104c0.217,0.052,0.319,0.104,0.319,0.176
	c0.072,0,0.175,0.133,0.299,0.401c0,0.278-0.052,0.484-0.165,0.629c-0.113,0.093-0.205,0.145-0.268,0.145l-0.423,0.144l-0.052,0.195
	v0.464c0.094,0.36,0.207,0.588,0.341,0.701c0.216,0.288,0.464,0.433,0.752,0.433l0.113,0.021l0.474,0.072v0.03l0.031-0.03
	l0.134,0.03h0.103c0.042,0,0.062-0.021,0.062-0.071h0.083c0.03,0,0.051,0.021,0.051,0.071c0.536-0.071,0.813-0.175,0.824-0.318
	h0.083l0.03,0.02h0.021l0.196-0.185h-0.031c0-0.072,0.062-0.113,0.186-0.145l0.401-0.536l0.269-0.701l-0.021-0.02v-0.031
	l0.051-0.093c0-0.34-0.082-0.566-0.247-0.68c0-0.062-0.041-0.124-0.134-0.186c0-0.093-0.134-0.247-0.402-0.484
	c-0.299-0.237-0.639-0.433-1.009-0.577l-1-0.443l-0.288-0.144l-0.598-0.268l-0.134-0.072c-0.052,0-0.103-0.042-0.155-0.113
	l-0.247-0.217c-0.134-0.154-0.257-0.268-0.351-0.319c-0.268-0.257-0.401-0.453-0.401-0.577l-0.052-0.052v-0.092l-0.021-0.217
	l0.021-0.145l-0.021-0.03h0.021l-0.021-0.021v-0.123c0-0.413,0.186-0.783,0.557-1.113l0.464-0.309
	c0.164-0.062,0.277-0.125,0.34-0.197l0.433-0.195l0.269-0.072l0.03,0.031h0.021c0.011-0.041,0.278-0.124,0.783-0.247V61.498z
	 M48.251,68.885l0.03,0.072l-0.03,0.072c0.041,0,0.082,0.113,0.113,0.34c0.072,0.113,0.124,0.175,0.154,0.175h0.03v-0.031
	l-0.134-0.339l0.031-0.021c0-0.165-0.062-0.259-0.195-0.289V68.885z M48.281,68.7h0.052v-0.104h-0.052V68.7z M48.333,68.545
	l0.134,0.031v-0.053l-0.021-0.02c0-0.072,0.042-0.104,0.134-0.104l0.021-0.071l-0.082-0.31c-0.082,0-0.154,0.176-0.206,0.525H48.333
	z M48.735,67.803l-0.021,0.124v0.041h0.021l0.113-0.093l-0.031-0.072H48.735z M48.849,63.692l0.051-0.041v-0.247
	c0-0.146,0.052-0.217,0.154-0.217c0.094-0.154,0.145-0.278,0.145-0.382v-0.03c-0.072,0-0.113,0.051-0.113,0.145
	c-0.092,0.041-0.164,0.134-0.216,0.288c-0.052,0.113-0.093,0.269-0.104,0.443L48.849,63.692z M48.786,63.889v0.194
	c0.052,0.228,0.093,0.341,0.135,0.341l0.113-0.031l0.082,0.123c0,0.114,0.031,0.165,0.082,0.165l0.021-0.112h-0.021l0.021-0.031
	v-0.021c-0.114-0.071-0.166-0.174-0.166-0.309h-0.02c0.03-0.072,0.051-0.103,0.082-0.103l-0.031-0.072l-0.164,0.051v-0.03
	l0.03-0.021v-0.021c0-0.093-0.062-0.145-0.186-0.145L48.786,63.889z M49.003,67.772l0.051-0.041l0.145,0.071h0.021v-0.03
	l-0.104-0.165l0.021-0.145h0.083c0.175,0.154,0.268,0.299,0.268,0.434h0.082v-0.021c0-0.135-0.052-0.278-0.165-0.412
	c-0.051-0.051-0.072-0.103-0.072-0.145c-0.093,0-0.257,0.094-0.515,0.289L49.003,67.772z M48.951,67.968h0.083v-0.021h-0.083V67.968
	z M48.981,69.854l-0.03,0.124h0.052l0.051-0.104l-0.02-0.021H48.981z M49.034,68.38l0.082,0.072h0.052v-0.021
	c-0.031-0.072-0.052-0.103-0.083-0.103L49.034,68.38z M49.054,68.185c0.031,0.083,0.052,0.123,0.083,0.123h0.031v-0.072
	l-0.052-0.051H49.054z M49.116,70.431v0.051l0.082,0.072v-0.072l-0.062-0.051H49.116z M49.198,68.432l-0.03,0.092h0.03l0.052-0.051
	L49.198,68.432z M49.198,68.185v0.03l0.021,0.114h0.051v-0.021l-0.021-0.123H49.198z M49.332,69.564c0,0.072-0.04,0.145-0.112,0.217
	l0.134-0.021l0.216,0.185v-0.04l-0.186-0.341H49.332z M49.569,63.507l-0.319,0.258l0.134,0.103h0.186
	c0-0.082,0.021-0.123,0.052-0.123v-0.072l-0.021-0.021l0.021-0.03v-0.073L49.569,63.507z M49.25,64.207v0.072h0.052l0.134-0.072
	v-0.072h-0.031L49.25,64.207z M49.271,64.516l-0.021,0.021v0.072l0.052,0.051h0.03l0.155-0.092v-0.031l-0.021-0.021l-0.03,0.021
	h-0.031L49.271,64.516z M49.25,67.875l0.052,0.052v-0.052H49.25z M49.354,62.826v0.052h-0.021l0.021,0.072h0.051v-0.124H49.354z
	 M49.354,68.256h0.051v-0.021h-0.051V68.256z M49.466,67.246v0.072l0.104,0.052c0.041,0,0.072-0.041,0.082-0.124H49.466z
	 M49.704,64.784c0,0.031-0.031,0.041-0.104,0.041l-0.031,0.031v0.052l0.165,0.021l0.021-0.021h0.031l0.103,0.021h0.031v-0.052
	l-0.113-0.093H49.704z M49.704,62.848l-0.104,0.175l0.021,0.021c0.165-0.041,0.247-0.093,0.247-0.144
	c0-0.031-0.052-0.062-0.164-0.073V62.848z M49.601,69.998v0.02l0.104,0.443h0.082v-0.288l-0.165-0.175H49.601z M49.92,70.626
	l0.021,0.145l-0.072,0.093c-0.134-0.093-0.195-0.186-0.195-0.258l-0.052,0.041v0.031l0.03,0.021l-0.03,0.021v0.072
	c0,0.03,0.134,0.113,0.401,0.247h0.052c0.041,0,0.062-0.021,0.062-0.072c0-0.134-0.031-0.195-0.083-0.195v-0.165
	c0-0.227-0.041-0.34-0.134-0.34V70.626z M49.673,64.135l0.062,0.145v0.041h-0.062v0.072l0.031-0.021
	c0.174,0.021,0.268,0.072,0.268,0.144c0.051,0,0.082,0.021,0.082,0.072l0.021,0.021h0.083v-0.041c0-0.031-0.124-0.145-0.371-0.341
	c0-0.062-0.041-0.103-0.113-0.123V64.135z M49.673,67.484c0.01,0.092,0.041,0.145,0.082,0.145h0.031
	c0-0.083-0.041-0.135-0.113-0.166V67.484z M49.972,67.391l0.051,0.382l-0.051,0.051c0,0.052-0.052,0.094-0.165,0.145v0.031
	l-0.021-0.031h-0.052v0.072l-0.03,0.124c0.174,0,0.318-0.113,0.453-0.341l0.03-0.092c-0.041-0.145-0.093-0.259-0.165-0.341V67.34
	L49.972,67.391z M49.734,62.343v0.093l0.072,0.072v-0.165H49.734z M49.734,62.632h0.071V62.56h-0.071V62.632z M49.786,67.823
	l0.021,0.073l0.062-0.052v-0.021H49.786z M49.807,65.166v0.103c0.093,0,0.154,0.011,0.196,0.041l0.02-0.021v-0.021L49.807,65.166z
	 M49.868,62.363v0.145l-0.031,0.124l0.083,0.029c0.093-0.134,0.134-0.236,0.134-0.298l-0.113-0.021L49.868,62.363z M50.188,64.825
	v0.031h-0.051v0.052l0.154,0.021c0.071-0.021,0.134-0.062,0.164-0.124v-0.072h-0.051l-0.196,0.093v-0.041l0.031-0.071l0.031,0.02
	h0.051v-0.052l-0.051-0.04c-0.145,0-0.248,0.04-0.299,0.112L50.188,64.825z M50.538,61.961v0.041l0.021,0.031v0.021h-0.083v-0.053
	h-0.051c0,0.053-0.041,0.072-0.134,0.072c0,0.083-0.021,0.125-0.052,0.125l-0.031-0.073l-0.134,0.052v0.072h0.165l0.031-0.031h0.021
	l0.134,0.124h0.03v-0.052h-0.051v-0.021c0.051,0,0.071-0.021,0.071-0.052v-0.02l-0.021-0.021v-0.031l0.021-0.021h0.062v0.052h0.021
	c0.03,0,0.052-0.021,0.052-0.072h0.062v0.041h0.052v-0.072c-0.093,0-0.135-0.041-0.135-0.113H50.538z M50.157,70.986v0.052
	l0.051,0.052h0.083l0.03-0.072l-0.03-0.031H50.157z M50.208,62.467l0.083,0.092v0.176h0.03c0.052-0.052,0.104-0.073,0.154-0.073
	V62.58c-0.071,0-0.103-0.031-0.103-0.093c-0.052,0-0.082-0.021-0.082-0.072h-0.021L50.208,62.467z M50.208,64.949v0.103h0.031
	l0.052-0.051l-0.052-0.052H50.208z M50.342,70.431l-0.021,0.03v0.072c0.072,0.011,0.104,0.031,0.104,0.072
	c0.113-0.041,0.164-0.072,0.164-0.103v-0.021L50.342,70.431z M50.373,65.506v0.051l0.371,0.145v-0.052
	c0-0.03-0.052-0.051-0.155-0.051c-0.03-0.062-0.092-0.093-0.185-0.093H50.373z M50.476,70.966c0.031,0.113,0.113,0.165,0.248,0.165
	V71.09c0-0.031-0.062-0.072-0.186-0.124H50.476z M50.507,64.908v0.113c0.082-0.031,0.124-0.062,0.135-0.093l-0.083-0.072
	L50.507,64.908z M50.589,70.771l0.104,0.093h0.052v-0.186c-0.103,0.011-0.155,0.031-0.155,0.071V70.771z M50.61,65.31h0.082v-0.041
	H50.61V65.31z M50.806,62.074l0.237-0.236h-0.052c-0.236,0.062-0.35,0.113-0.35,0.145C50.642,62.013,50.692,62.044,50.806,62.074
	 M50.775,65.001v0.021l0.03,0.103h0.052l0.083-0.072L50.775,65.001z M50.806,62.415v0.021h0.072l0.082-0.113V62.25h-0.02
	L50.806,62.415z M50.991,65.166v0.051l0.052,0.052h0.052l-0.021-0.103H50.991z M51.012,65.794l-0.021,0.03v0.042l0.104,0.031
	l0.03-0.031v-0.042L51.012,65.794z M51.012,62.25h0.062v-0.031h-0.062V62.25z M51.012,71.018h0.062v-0.031h-0.062V71.018z
	 M51.146,70.605l-0.051,0.34h0.051c0.041,0,0.083-0.072,0.113-0.227h0.021l0.03,0.03h0.031l0.021-0.174l-0.082,0.03h-0.052
	l-0.083-0.03V70.605z M51.259,62.033h0.052c0.021-0.164,0.052-0.247,0.103-0.247h0.031l0.031,0.021l0.021-0.021h0.031
	c0.041,0,0.071,0.062,0.082,0.196l0.186,0.051h0.031c0-0.041,0.041-0.103,0.134-0.176l0.072-0.123v-0.021h-0.319l-0.021-0.021
	c-0.361,0.031-0.547,0.082-0.547,0.145C51.218,61.838,51.259,61.899,51.259,62.033 M51.259,70.945c0,0.052-0.03,0.104-0.082,0.165
	l0.052,0.052h0.165c0.134,0,0.205-0.021,0.216-0.072v-0.052h-0.196c-0.041,0-0.061-0.031-0.071-0.093H51.259z M51.28,65.866
	l-0.021,0.031v0.072l0.805,0.329l0.03,0.031h0.021l0.134-0.031l0.031,0.031v-0.104c0-0.02-0.062-0.052-0.186-0.092
	c0-0.062-0.042-0.093-0.134-0.093l-0.113,0.093h-0.052c-0.062-0.062-0.165-0.113-0.319-0.165L51.28,65.866z M51.496,70.863h0.031
	l0.186-0.237v-0.051H51.63c-0.093,0.041-0.134,0.103-0.134,0.195V70.863z M51.579,65.599v0.051l0.051-0.051H51.579z M51.743,65.341
	l0.135,0.113c0.071-0.021,0.123-0.062,0.154-0.113c0-0.052-0.094-0.072-0.289-0.072V65.341z M51.764,71.09
	c0.134-0.145,0.248-0.319,0.33-0.536h-0.082c-0.176,0.175-0.269,0.351-0.269,0.536H51.764z M51.847,65.649l-0.052,0.103l0.052,0.042
	l0.051-0.093L51.847,65.649z M52.012,62.002v0.031l0.052,0.041h0.03v-0.02l-0.062-0.053H52.012z M52.114,65.382v0.052
	c0.031,0,0.052,0.021,0.052,0.072l0.082-0.021v-0.051l-0.052-0.052H52.114z M52.3,70.863l-0.021,0.103h0.052l0.051-0.052v-0.051
	H52.3z M52.3,62.105h0.134l0.083-0.268h-0.104c-0.051,0-0.082,0.062-0.113,0.195V62.105z M52.3,66.33v0.072l0.062-0.052V66.33H52.3z
	 M52.465,63.136l-0.083,0.299h0.052v-0.155l0.083-0.092v-0.052H52.465z M52.434,65.526l-0.021,0.123h0.021l0.113-0.093v-0.03H52.434
	z M52.732,65.701c-0.134,0.217-0.236,0.329-0.319,0.341v0.021l0.288,0.195h0.062v-0.051l-0.031-0.094
	c0.031-0.134,0.083-0.247,0.165-0.319v-0.042L52.732,65.701z M52.547,63.435v0.021h0.021l0.062-0.051v-0.021h-0.031L52.547,63.435z
	 M52.567,63.867v0.072l0.113,0.093l0.052-0.052l-0.052-0.144l0.052-0.042v-0.051h-0.031L52.567,63.867z M52.567,70.389v0.093h0.062
	l0.021-0.123v-0.021H52.63L52.567,70.389z M52.599,66.546v0.021l0.186,0.124v-0.093l-0.134-0.052H52.599z M52.701,61.982
	l-0.071,0.123v0.041l0.051,0.053c0.052-0.062,0.083-0.135,0.083-0.217H52.701z M52.63,70.771l0.051,0.051h0.021l0.382-0.268
	c-0.052,0-0.154-0.051-0.299-0.165C52.784,70.544,52.732,70.668,52.63,70.771 M52.918,62.343l0.052-0.144h-0.052
	c-0.052,0.009-0.083,0.061-0.083,0.144H52.918z M52.949,63.353l-0.083,0.269l0.031,0.03h0.021c0.041,0,0.083-0.104,0.113-0.299
	H52.949z M52.918,66.042l-0.021,0.165l0.021,0.02v0.031l-0.021,0.021h0.021l0.083-0.071v-0.125l-0.052-0.04H52.918z M53.031,63.889
	l-0.113,0.194l0.083,0.052h0.164l0.052-0.052v-0.216l-0.113,0.021l-0.072-0.021V63.889z M52.918,70.143v0.03l0.031,0.021v0.021
	h-0.031l0.052,0.124h0.113v-0.021l-0.134-0.175H52.918z M52.949,62.848c0.03,0.072,0.052,0.103,0.082,0.103
	c0.154-0.175,0.237-0.289,0.237-0.34l-0.268,0.216h-0.052V62.848z M53.031,63.115l-0.062,0.144v0.073h0.031
	c0.051,0,0.082-0.073,0.103-0.217H53.031z M53.135,66.566l0.082-0.021c-0.052-0.041-0.082-0.103-0.082-0.195h-0.031
	c-0.093,0.041-0.134,0.093-0.134,0.145L53.135,66.566z M53.135,62.033v0.041l0.051,0.052h0.031v-0.093H53.135z M53.135,65.938v0.031
	c0,0.082,0.071,0.144,0.216,0.185c0,0.053,0.093,0.206,0.268,0.464v0.052l0.052-0.052l-0.03-0.123l0.062-0.042v-0.03
	c-0.073-0.145-0.165-0.237-0.299-0.288l-0.217-0.196H53.135z M53.135,69.854c0,0.031,0.071,0.072,0.216,0.145h0.052
	c0-0.113-0.052-0.206-0.165-0.289L53.135,69.854z M53.135,70.143l0.134,0.195l-0.031,0.123H53.3l0.205-0.195
	c0-0.031-0.123-0.083-0.37-0.176V70.143z M53.319,62.146v0.072l0.031,0.031l-0.031,0.021v0.052h0.052v0.021l0.083-0.021l0.082,0.021
	v-0.021l-0.186-0.176H53.319z M53.454,63.279c-0.042,0.042-0.072,0.165-0.083,0.372h-0.021l0.021,0.093
	c0.062,0,0.113-0.135,0.165-0.412L53.454,63.279z M53.567,63.507l0.021,0.021v0.021l-0.186,0.587
	c0.144-0.041,0.216-0.144,0.216-0.319c0.01-0.083,0.021-0.123,0.052-0.123l-0.03-0.021v-0.021l0.03-0.145l-0.052-0.052
	L53.567,63.507z M53.434,69.441v0.03l0.103,0.093h0.031v-0.052l-0.062-0.071l0.031-0.072h-0.031L53.434,69.441z M53.536,62.363
	v0.072c0,0.052-0.031,0.113-0.082,0.175l0.03,0.021c0.093-0.062,0.165-0.094,0.217-0.094v-0.051l-0.134-0.124H53.536z M53.701,62.58
	v0.03l0.021,0.124c-0.154,0.071-0.227,0.134-0.237,0.186h0.021l-0.051,0.144v0.052l0.051,0.052l0.031-0.031l0.031,0.031
	c0.01-0.176,0.041-0.268,0.072-0.268c0,0.03,0.03,0.051,0.082,0.051l0.082,0.186l-0.021,0.031v0.112l0.072,0.031
	c0-0.082,0.041-0.123,0.134-0.123v-0.021c0-0.155-0.031-0.237-0.103-0.247l0.031-0.021l-0.165-0.319H53.701z M54.072,69.276
	l-0.134-0.031v0.341l0.03,0.03l-0.082,0.093h-0.052l-0.082-0.052h-0.031l0.031,0.248l-0.113,0.112v0.104h0.03
	c0.392-0.423,0.629-0.752,0.701-0.989l0.021-0.03V69.06c-0.093,0-0.196,0.072-0.289,0.217H54.072z M53.783,68.627L53.67,69.06
	c0.041,0.207,0.083,0.31,0.113,0.31h0.021v-0.195l0.031-0.021l-0.031-0.021l0.031-0.411v-0.094H53.783z M53.722,66.886l-0.021,0.093
	l0.021,0.021l0.082-0.021v-0.093H53.722z M53.753,67.123l-0.031,0.031v0.02c0.051,0.207,0.103,0.311,0.134,0.311l0.062-0.311
	L53.753,67.123z M53.804,67.896h0.052l0.062-0.165L53.887,67.7h-0.052c-0.031,0-0.052,0.021-0.052,0.072L53.804,67.896z
	 M53.783,68.091v0.094h0.021l0.052-0.042v-0.052H53.783z M53.835,63.724l0.021,0.021v0.021l-0.052,0.051v0.021h0.031
	c0.052,0,0.083-0.052,0.083-0.145c0.051,0,0.103-0.083,0.154-0.237l-0.021-0.021h-0.03c-0.052,0-0.113,0.082-0.165,0.258
	L53.835,63.724z M54.051,66.979v0.093h0.052c0,0.052,0.021,0.083,0.052,0.083l-0.031,0.072l0.134,0.525h0.031l0.165-0.052v-0.041
	c0-0.062-0.042-0.124-0.113-0.196h0.031c-0.072-0.176-0.165-0.34-0.299-0.505L54.051,66.979z M54.525,68.02
	c-0.042,0.134-0.072,0.195-0.103,0.195l0.03,0.021v0.021l-0.196,0.248l0.031,0.02v0.021c0,0.031-0.031,0.052-0.082,0.052
	c0,0.071,0.041,0.104,0.134,0.104c0,0.04,0.031,0.082,0.083,0.112c0.071,0,0.103-0.052,0.103-0.145l0.062-0.041l-0.031-0.03v-0.073
	l0.031-0.144l-0.031-0.021v-0.03l0.031-0.021v-0.021l-0.031-0.175l0.031-0.072l-0.031-0.021H54.525z"/>
<path fill="#4A1617" d="M51.476,61.563h0.536l-0.035-0.011l0.082,0.052l0.045,0.028l0.036-0.037l0.052-0.052l-0.111-0.047
	c0,0.096,0.124,0.12,0.207,0.138l0.026,0.005l0.022-0.015l0.031-0.021l-0.043,0.011c0.193,0.02,0.421,0.097,0.677,0.23l0.014,0.007
	h0.017c0.03,0,0.153,0.034,0.634,0.35l-0.012-0.01c0.142,0.152,0.258,0.351,0.357,0.607l0.016,0.043h0.045
	c-0.014,0-0.022-0.007-0.024-0.008c0.011,0.01,0.05,0.073,0.096,0.246l0.063-0.082h-0.021h-0.098l0.037,0.091l0.053,0.124
	l0.023-0.08l-0.031,0.021l-0.179,0.12h0.216c-0.007,0-0.012-0.002-0.013-0.004c0.001,0,0.029,0.03,0.029,0.186
	c0,0.073-0.039,0.21-0.223,0.444c-0.198,0.235-0.39,0.355-0.567,0.355h-0.216h-0.027l-0.019,0.02l-0.031,0.03l0.101,0.011
	l-0.021-0.031l-0.02-0.029h-0.035h-0.216c-0.192,0-0.319-0.036-0.34-0.1l-0.015-0.045h-0.048c-0.006,0-0.008,0-0.008,0
	s0.001,0,0.001,0.001c0-0.001-0.006-0.008-0.011-0.038l-0.005-0.032l-0.028-0.016l-0.135-0.072l0.016,0.105l0.03-0.032l0.02-0.019
	v-0.026V63.96v-0.034l-0.027-0.02c-0.047-0.033-0.116-0.149-0.17-0.374l-0.027,0.07l0.031-0.021l0.029-0.02v-0.035v-0.021V63.5
	l-0.002-0.006l-0.03-0.154l-0.028,0.067l0.031-0.021l0.082-0.055l-0.082-0.055l-0.031-0.021l0.029,0.055v-0.03l-0.005,0.024
	l0.134-0.33l-0.035,0.036c0.104-0.045,0.244-0.113,0.319-0.189l-0.046,0.021h0.03h0.065v-0.066v-0.072v-0.066h-0.065
	c0.009,0,0.014,0.004,0.014,0.004c-0.007-0.004-0.047-0.028-0.178-0.194l-0.013-0.016l-0.018-0.006l-0.217-0.073h-0.004
	l-0.004-0.001l-0.351-0.072l-0.022-0.004l-0.02,0.009l-0.104,0.053l0.044-0.006l-0.134-0.031l-0.016-0.004L51.593,62.3
	c-0.297,0.082-0.642,0.231-1.086,0.47l-0.034,0.018v0.04c0-0.015,0.005-0.022,0.005-0.022c-0.01,0.014-0.062,0.067-0.356,0.256
	l-0.007,0.004l-0.006,0.006c-0.153,0.168-0.337,0.406-0.337,0.581v0.165c0,0.19,0.239,0.438,0.751,0.775l-0.018-0.018
	c0.144,0.211,0.438,0.354,0.896,0.439l0.648,0.124l-0.008-0.003c0.204,0.065,0.39,0.152,0.551,0.26l0.004,0.003l0.004,0.002
	c0.266,0.132,0.503,0.293,0.706,0.475l0.004,0.003l0.003,0.002c0.502,0.34,0.537,0.436,0.538,0.452V66.33v0.065h0.065h0.052
	l-0.036-0.12l-0.031,0.021l-0.029,0.019v0.036v0.031v0.029l0.022,0.02c0.166,0.146,0.304,0.352,0.437,0.647l0.018,0.039h0.043
	c-0.003,0-0.005-0.001-0.005-0.001s0.033,0.022,0.054,0.16l0.007,0.057h0.058c-0.013,0-0.022-0.006-0.024-0.007
	c0.009,0.007,0.057,0.061,0.178,0.426l-0.003-0.013l0.072,0.597l0.004-0.029l-0.052,0.145l-0.014,0.039l0.029,0.029l0.03,0.03
	l-0.018-0.057c-0.051,0.319-0.129,0.56-0.237,0.716l-0.007,0.01l-0.003,0.014c-0.021,0.109-0.056,0.174-0.091,0.174h-0.065v0.065
	v0.042c0,0.074-0.073,0.313-0.761,0.919c-0.045,0.041-0.232,0.197-0.741,0.497l0.032-0.008c-0.072,0-0.177,0.039-0.35,0.131
	c-0.228,0.095-0.355,0.115-0.422,0.115h-0.007l-0.006,0.002c-0.327,0.058-0.467,0.085-0.526,0.121l0.033-0.009h-0.412
	c-0.004,0-0.406,0.03-0.406,0.03l0.07,0.065v-0.052v-0.065h-0.065h-0.021c-0.111,0-0.2-0.015-0.273-0.046l-0.05-0.021l-0.03,0.045
	l-0.021,0.032l0.055-0.03h-0.031l0.015,0.002c-0.332-0.078-0.632-0.203-0.917-0.383l0.008,0.006
	c-0.085-0.072-0.172-0.109-0.259-0.109l0.041,0.016c-0.162-0.132-0.311-0.291-0.441-0.473l-0.02-0.027h-0.034
	c0.006,0,0.01,0.002,0.01,0.002c-0.005-0.002-0.056-0.029-0.201-0.26l-0.288-0.463l-0.011-0.018l-0.02-0.009
	c-0.052-0.021-0.073-0.052-0.073-0.104l-0.023,0.052l0.062-0.052l0.063-0.053l-0.066-0.051c0,0-0.035-0.034-0.035-0.235v-0.012
	l-0.004-0.011l-0.104-0.289l-0.062,0.088h0.03h0.027l0.02-0.02l0.021-0.021l0.017-0.017l0.003-0.023l0.051-0.535
	c0.001-0.007,0.001-0.079,0.001-0.079l-0.009,0.033l0.164-0.288l-0.016,0.019c0.108-0.084,0.228-0.257,0.338-0.487l-0.06,0.037
	c0.089,0,0.2-0.07,0.396-0.254l-0.032,0.016l0.104-0.02l-0.05-0.011l0.031,0.021l0.103,0.067v-0.123
	c0,0.013-0.005,0.021-0.007,0.023c0.011-0.013,0.067-0.054,0.364-0.156l-0.059-0.008l0.031,0.021l0.021,0.014l0.024-0.004
	l0.134-0.021h-0.009h0.103l-0.016-0.002c0.267,0.063,0.27,0.11,0.27,0.112v0.065h0.065l0,0c0,0,0.078,0.015,0.239,0.364
	l-0.006-0.027c0,0.266-0.05,0.457-0.15,0.587l0.01-0.01c-0.146,0.12-0.211,0.13-0.227,0.13H49.93l-0.011,0.003l-0.422,0.145
	l-0.033,0.012l-0.01,0.033l-0.051,0.196l-0.002,0.008v0.008v0.464v0.009l0.002,0.008c0.095,0.369,0.213,0.608,0.361,0.734
	l-0.011-0.011c0.232,0.31,0.495,0.459,0.805,0.459l-0.012-0.001l0.113,0.021c0.002,0,0.476,0.072,0.476,0.072l-0.056-0.065v0.03
	v0.158l0.112-0.111l0.031-0.031l-0.062,0.018l0.134,0.031l0.008,0.002h0.007h0.103c0.08,0,0.128-0.052,0.128-0.138l-0.065,0.065
	h0.082c-0.006,0-0.014-0.007-0.016-0.012c0,0,0.002,0.005,0.002,0.018v0.075l0.074-0.01c0.597-0.08,0.867-0.197,0.881-0.38
	l-0.065,0.061h0.083l-0.037-0.011l0.031,0.021l0.017,0.012h0.02h0.021h0.026l0.019-0.018l0.196-0.186l0.119-0.114h-0.164h-0.031
	l0.065,0.066c0-0.013,0-0.048,0.137-0.081l0.021-0.006L52.97,69.8l0.402-0.536l0.006-0.007l0.003-0.009l0.268-0.7l0.016-0.04
	l-0.03-0.029l-0.021-0.021l0.02,0.047v-0.031l-0.009,0.032l0.052-0.093l0.008-0.016V68.38c0-0.361-0.092-0.607-0.275-0.734
	l0.028,0.056c0-0.089-0.055-0.17-0.163-0.241l0.029,0.055c0-0.114-0.118-0.264-0.424-0.533c-0.31-0.246-0.655-0.444-1.029-0.59
	c0.003,0.002-0.996-0.441-0.996-0.441c0.003,0.001-0.286-0.143-0.286-0.143c-0.003-0.001-0.6-0.269-0.6-0.269
	c0.004,0.001-0.131-0.071-0.131-0.071l-0.014-0.008h-0.017c-0.013,0-0.046-0.008-0.102-0.085l-0.004-0.007l-0.007-0.005
	l-0.246-0.217l0.006,0.008c-0.099-0.114-0.242-0.266-0.368-0.334l0.014,0.009c-0.345-0.331-0.382-0.479-0.382-0.529v-0.026
	l-0.019-0.02l-0.052-0.052l0.02,0.047v-0.094c-0.001-0.005-0.021-0.222-0.021-0.222v0.016l0.021-0.145l0.003-0.024l-0.014-0.021
	l-0.021-0.031L48.58,63.83h0.021h0.158l-0.111-0.112l-0.021-0.021l0.02,0.047V63.62c0-0.391,0.179-0.749,0.534-1.063l-0.008,0.005
	l0.464-0.309l-0.014,0.007c0.187-0.069,0.3-0.136,0.367-0.214l-0.022,0.017l0.432-0.196l-0.01,0.004l0.269-0.072l-0.063-0.017
	l0.031,0.03l0.019,0.02h0.027h0.021h0.051l0.013-0.05c-0.003,0.015-0.012,0.022-0.012,0.022c0.02-0.017,0.131-0.071,0.747-0.222
	l0.05-0.013v-0.051v-0.021L51.476,61.563z M51.46,61.455c-0.807,0.197-0.818,0.242-0.831,0.294l0.063-0.049h-0.021l0.046,0.02
	l-0.03-0.031l-0.026-0.027l-0.037,0.011l-0.268,0.071l-0.005,0.001l-0.005,0.003l-0.434,0.195L49.9,61.949l-0.01,0.011
	c-0.051,0.059-0.153,0.117-0.313,0.178L49.57,62.14l-0.006,0.004l-0.464,0.309l-0.004,0.003l-0.003,0.004
	c-0.384,0.341-0.579,0.731-0.579,1.161v0.124v0.026l0.02,0.02l0.02,0.021l0.047-0.111H48.58h-0.123l0.069,0.102l0.02,0.031
	l-0.01-0.046l-0.021,0.144l-0.001,0.008v0.008l0.021,0.217c0-0.007,0,0.087,0,0.087v0.026l0.019,0.02l0.053,0.052l-0.02-0.047
	c0,0.147,0.139,0.352,0.422,0.625l0.006,0.005l0.008,0.004c0.085,0.048,0.203,0.156,0.333,0.306l0.003,0.003l0.003,0.004
	l0.247,0.216l-0.01-0.011c0.068,0.095,0.136,0.141,0.208,0.141l-0.031-0.008l0.134,0.072c0.004,0.002,0.602,0.27,0.602,0.27
	c-0.002,0,0.286,0.144,0.286,0.144C50.8,66.07,51.8,66.514,51.8,66.514c0.364,0.142,0.698,0.332,0.995,0.568
	c0.312,0.275,0.377,0.388,0.377,0.433v0.035l0.029,0.02c0.048,0.031,0.104,0.08,0.104,0.132v0.033l0.028,0.02
	c0.146,0.1,0.219,0.311,0.219,0.626l0.009-0.032L53.51,68.44l-0.009,0.015v0.018v0.031v0.027l0.02,0.019l0.021,0.021l-0.015-0.069
	l-0.268,0.7l0.008-0.016l-0.4,0.535l0.036-0.023c-0.064,0.016-0.235,0.059-0.235,0.208v0.064h0.065h0.031l-0.045-0.112l-0.196,0.185
	l0.045-0.017h-0.021l0.036,0.011l-0.031-0.021l-0.016-0.012h-0.02h-0.083h-0.061l-0.005,0.062c-0.003,0.047-0.085,0.167-0.768,0.259
	l0.074,0.064c0-0.102-0.062-0.138-0.117-0.138h-0.082H51.41v0.066c0,0.011-0.002,0.016-0.002,0.016
	c0.001-0.004,0.007-0.009,0.011-0.011c0,0-0.001,0.001-0.006,0.001h-0.103l0.015,0.002l-0.134-0.03l-0.035-0.008l-0.025,0.024
	L51.1,70.343l0.112,0.046v-0.03v-0.056l-0.057-0.009l-0.474-0.072c0.002,0-0.111-0.021-0.111-0.021L50.564,70.2h-0.006
	c-0.266,0-0.494-0.134-0.7-0.407l-0.004-0.006l-0.006-0.004c-0.125-0.106-0.232-0.331-0.318-0.667l0.002,0.016v-0.464l-0.003,0.017
	l0.052-0.195l-0.042,0.046l0.423-0.145l-0.021,0.004c0.077,0,0.179-0.052,0.31-0.16l0.005-0.004l0.005-0.006
	c0.12-0.153,0.179-0.371,0.179-0.668v-0.016l-0.006-0.014c-0.18-0.389-0.286-0.438-0.358-0.438l0.065,0.065
	c0-0.126-0.147-0.187-0.369-0.239l-0.008-0.001h-0.008h-0.103h-0.006h-0.005l-0.134,0.021l0.046,0.011l-0.03-0.021l-0.026-0.019
	l-0.031,0.011c-0.384,0.134-0.446,0.185-0.446,0.257l0.102-0.054l-0.03-0.021l-0.022-0.015l-0.027,0.005l-0.103,0.02l-0.019,0.005
	l-0.014,0.013c-0.192,0.181-0.272,0.219-0.306,0.219H48.56l-0.018,0.037c-0.1,0.209-0.21,0.369-0.301,0.44l-0.01,0.008l-0.007,0.012
	l-0.165,0.288l-0.009,0.016v0.017v0.072c0.001-0.006-0.051,0.53-0.051,0.53l0.019-0.041l-0.021,0.021l0.046-0.02h-0.03h-0.093
	l0.031,0.088l0.103,0.288l-0.004-0.021c0,0.245,0.051,0.312,0.089,0.341l-0.003-0.104l-0.062,0.052l-0.024,0.02v0.03
	c0,0.104,0.054,0.184,0.153,0.226l-0.029-0.025l0.288,0.464c0.187,0.295,0.254,0.319,0.303,0.319l-0.053-0.027
	c0.138,0.191,0.294,0.358,0.465,0.497l0.019,0.015h0.023c0.055,0,0.113,0.026,0.173,0.077l0.004,0.003L49.4,70.97
	c0.298,0.188,0.611,0.318,0.958,0.4l0.007,0.001h0.008h0.031h0.035l0.019-0.028l0.021-0.031l-0.08,0.023
	c0.09,0.039,0.196,0.057,0.325,0.057h0.021l-0.065-0.065v0.052v0.071l0.07-0.006l0.401-0.031c-0.005,0.001,0.407,0.001,0.407,0.001
	h0.019l0.016-0.01c0.045-0.026,0.268-0.066,0.482-0.104h-0.011c0.114,0,0.275-0.043,0.478-0.128c0.15-0.08,0.247-0.118,0.294-0.118
	h0.019l0.016-0.01c0.351-0.206,0.636-0.398,0.762-0.513c0.534-0.471,0.806-0.813,0.806-1.017v-0.042l-0.066,0.065
	c0.163,0,0.206-0.21,0.219-0.278l-0.01,0.024c0.118-0.173,0.205-0.432,0.258-0.77l0.005-0.033l-0.022-0.022l-0.031-0.031
	l0.016,0.068l0.051-0.145l0.006-0.015l-0.002-0.016l-0.072-0.597l-0.001-0.007l-0.002-0.007c-0.157-0.472-0.215-0.508-0.278-0.508
	l0.064,0.056c-0.025-0.181-0.086-0.271-0.178-0.271l0.06,0.038c-0.141-0.313-0.29-0.533-0.47-0.692l0.021,0.05v-0.031l-0.029,0.054
	l0.031-0.021l0.181-0.119h-0.217h-0.052l0.065,0.065c0-0.082-0.071-0.206-0.595-0.56l0.007,0.006
	c-0.212-0.19-0.46-0.356-0.735-0.494l0.007,0.004c-0.172-0.114-0.368-0.208-0.583-0.276h-0.004l-0.004-0.001l-0.648-0.124
	c-0.425-0.079-0.69-0.205-0.814-0.385l-0.007-0.011l-0.011-0.007c-0.572-0.377-0.691-0.571-0.691-0.666v-0.165
	c0-0.038,0.021-0.185,0.302-0.492l-0.013,0.011c0.391-0.25,0.411-0.293,0.411-0.343l-0.034,0.058
	c0.429-0.23,0.775-0.381,1.058-0.458l-0.032,0.001l0.134,0.03l0.022,0.005l0.021-0.011l0.104-0.051l-0.043,0.006l0.351,0.072
	l-0.008-0.003l0.216,0.072l-0.03-0.021c0.159,0.203,0.218,0.241,0.268,0.241l-0.064-0.065v0.072l0.064-0.065h-0.03h-0.027
	l-0.02,0.019c-0.047,0.048-0.148,0.105-0.278,0.161l-0.024,0.012l-0.01,0.024l-0.135,0.329l-0.004,0.013v0.013v0.03v0.036
	l0.029,0.02l0.03,0.021v-0.109l-0.03,0.021l-0.037,0.024l0.009,0.043l0.031,0.154l-0.002-0.013v0.021l0.029-0.055l-0.03,0.021
	l-0.039,0.025l0.012,0.045c0.054,0.227,0.132,0.387,0.221,0.45l-0.027-0.054v0.021l0.02-0.048l-0.031,0.031l-0.062,0.062
	l0.078,0.042l0.134,0.072l-0.034-0.048c0.017,0.099,0.066,0.148,0.147,0.148l-0.062-0.045c0.042,0.125,0.198,0.189,0.465,0.189
	h0.216l-0.055-0.03l0.021,0.031l0.044,0.067l0.057-0.057l0.031-0.031l-0.046,0.02h0.216c0.219,0,0.443-0.137,0.669-0.404
	c0.167-0.213,0.252-0.391,0.252-0.527c0-0.208-0.05-0.312-0.147-0.312l0.036,0.12l0.031-0.021l0.044-0.03l-0.021-0.05l-0.052-0.124
	l-0.061,0.092h0.021h0.085l-0.022-0.083c-0.088-0.337-0.161-0.337-0.197-0.337l0.062,0.042c-0.104-0.272-0.23-0.485-0.384-0.65
	l-0.006-0.005l-0.006-0.005c-0.501-0.329-0.641-0.371-0.706-0.371l0.03,0.008c-0.271-0.141-0.515-0.224-0.725-0.244l-0.023-0.003
	l-0.02,0.014l-0.03,0.021l0.049-0.01c-0.087-0.018-0.107-0.029-0.111-0.033c0.003,0.003,0.01,0.012,0.01,0.024V61.34l-0.112,0.111
	l-0.051,0.052l0.08-0.01l-0.082-0.051l-0.016-0.011h-0.019h-0.536H51.41v0.065v0.021L51.46,61.455z"/>
<path fill="#5BB1BF" d="M62.54,58.771c0.061,0.319,0.095,0.855,0.121,1.625c0,0.96-0.096,2.136-0.277,3.527l-1.988-0.207
	c0.554-2.179,0.83-3.709,0.83-4.582c0-0.233-0.052-0.458-0.155-0.657h-0.034c-0.32,0.19-0.614,1.219-0.883,3.096l-0.095,0.769
	l-1.651,0.069c0.078-0.527,0.121-1.003,0.121-1.427v-0.225c0-1.115-0.277-1.789-0.83-2.031l-0.121-0.018
	c-0.242,0-0.406,0.424-0.484,1.263l-0.034,0.588v0.268c0,0.882,0.078,1.929,0.242,3.138l-2.109,0.226v-0.026l-0.796-6.026
	l1.41-0.354l0.492,2.188h0.025c0.226-1.583,0.796-2.369,1.713-2.369h0.189c0.562,0,0.969,0.467,1.22,1.4h0.034
	c0.112-0.656,0.362-1.185,0.761-1.582c0.319-0.242,0.683-0.363,1.072-0.363C61.943,57.059,62.35,57.629,62.54,58.771"/>
<path fill="#4A1617" d="M62.485,58.781c0.057,0.295,0.092,0.779,0.12,1.616c0,0.942-0.09,2.094-0.275,3.519l0.06-0.048l-1.988-0.208
	l0.048,0.068c0.552-2.172,0.832-3.719,0.832-4.595c0-0.244-0.057-0.479-0.163-0.683l-0.015-0.03H61.07h-0.035h-0.015l-0.013,0.009
	c-0.339,0.201-0.636,1.227-0.909,3.135l-0.095,0.771l0.052-0.049l-1.65,0.069l0.057,0.062c0.082-0.554,0.121-1.023,0.121-1.435
	v-0.225c0-1.131-0.29-1.832-0.862-2.083l-0.007-0.002l-0.008-0.002l-0.121-0.017h-0.004h-0.004c-0.28,0-0.457,0.429-0.539,1.312
	c0,0.003-0.034,0.59-0.034,0.59c0,0.004,0,0.271,0,0.271c0,0.901,0.081,1.96,0.242,3.146l0.049-0.062l-2.11,0.225l0.062,0.055
	v-0.026v-0.003v-0.004l-0.796-6.026l-0.041,0.061l1.409-0.354l-0.067-0.041l0.493,2.188l0.01,0.042h0.044h0.025h0.049l0.006-0.047
	c0.22-1.54,0.777-2.321,1.657-2.321h0.19c0.531,0,0.924,0.457,1.166,1.359l0.011,0.041h0.042h0.035h0.046l0.009-0.045
	c0.109-0.646,0.36-1.168,0.745-1.554l-0.006,0.006c0.309-0.234,0.658-0.352,1.039-0.352C61.915,57.114,62.299,57.658,62.485,58.781
	 M61.312,57.004c-0.405,0-0.777,0.126-1.105,0.374l-0.003,0.002l-0.003,0.003c-0.4,0.4-0.662,0.943-0.776,1.611l0.055-0.045h-0.035
	l0.054,0.041c-0.257-0.957-0.685-1.441-1.272-1.441h-0.19c-0.944,0-1.538,0.812-1.766,2.415l0.054-0.047h-0.025l0.054,0.043
	l-0.493-2.187l-0.012-0.056l-0.055,0.014l-1.41,0.354l-0.047,0.012l0.006,0.049l0.796,6.025l-0.001-0.007v0.026v0.061l0.061-0.006
	l2.11-0.225l0.056-0.007l-0.007-0.056c-0.161-1.182-0.242-2.234-0.242-3.131v-0.268c0,0.003,0.035-0.585,0.035-0.585
	c0.098-1.054,0.311-1.21,0.429-1.21l-0.008-0.001l0.121,0.017l-0.014-0.004c0.528,0.231,0.796,0.898,0.796,1.981v0.225
	c0,0.405-0.038,0.87-0.12,1.419l-0.01,0.065l0.066-0.003l1.651-0.069l0.047-0.002l0.006-0.046l0.095-0.77
	c0.329-2.299,0.647-2.93,0.855-3.055l-0.028,0.008h0.035l-0.049-0.029c0.098,0.188,0.149,0.405,0.149,0.632
	c0,0.867-0.279,2.404-0.828,4.568l-0.016,0.062l0.062,0.006l1.989,0.209l0.054,0.005l0.006-0.054
	c0.187-1.43,0.277-2.585,0.277-3.534c-0.028-0.845-0.064-1.333-0.122-1.636C62.399,57.595,61.968,57.004,61.312,57.004"/>
<path fill="#4A1617" d="M68.773,61.104c0,0.152,0.119,0.294,0.348,0.435v0.087l-0.044,0.043v0.044c0.186,0,0.337,0.642,0.479,1.912
	c0,0.228-0.055,0.423-0.174,0.607c-0.38,0-0.814,0.099-1.303,0.304h-0.392l-2.216,0.261l-0.13,0.132l-0.218-0.044H64.56v0.044
	c0,0.313,0.26,0.629,0.782,0.955c0.521,0.261,0.966,0.392,1.347,0.392h0.086c0.587,0,1.021-0.175,1.305-0.522l0.304-0.217
	c0,0.185,0.271,0.467,0.825,0.869v0.217l-0.043,0.043c-0.163,0.186-0.315,0.283-0.435,0.305c-0.229,0.381-0.565,0.565-0.999,0.565
	c0,0.054-0.229,0.119-0.695,0.174l-0.869-0.088l-0.261,0.044l-0.999-0.348l-0.869-0.521c0-0.064-0.142-0.196-0.435-0.391
	c-0.401-0.717-0.608-1.38-0.608-1.999c0-1.26,0.348-2.291,1.043-3.084c0.793-0.674,1.586-1.076,2.39-1.217
	C67.34,60.105,68.122,60.442,68.773,61.104 M63.43,64.797h0.174c0.142,0,0.25-0.086,0.304-0.261v-0.13l-0.174-0.043
	c-0.185,0-0.304,0.131-0.347,0.391L63.43,64.797z M63.907,64.016c0.174-0.065,0.261-0.119,0.261-0.174v-0.261l-0.304-0.087h-0.131
	c-0.054,0-0.119,0.119-0.174,0.348C63.701,63.961,63.81,64.016,63.907,64.016 M63.733,62.495c-0.086,0.119-0.13,0.239-0.13,0.348
	l0.218-0.174v-0.088L63.733,62.495z M63.69,65.536h0.174c0.142-0.076,0.217-0.185,0.217-0.348v-0.043h-0.174
	c-0.206,0-0.304,0.097-0.304,0.304L63.69,65.536z M63.821,62.799v0.087l0.043,0.218h0.13c0.055,0,0.12-0.087,0.174-0.261
	l-0.043-0.044H63.821z M64.386,65.971v-0.218h-0.087c-0.174,0-0.261,0.076-0.261,0.218H64.386z M64.081,62.278
	c0,0.076,0.119,0.13,0.348,0.173c0-0.26-0.119-0.391-0.348-0.391V62.278z M64.255,61.452v0.044l0.087,0.087h0.087v-0.131H64.255z
	 M64.516,66.361c0.055,0.119,0.131,0.174,0.218,0.174v0.087h0.043c0.087,0,0.163-0.13,0.218-0.392l-0.087-0.086h-0.044
	c-0.206,0-0.325,0.043-0.348,0.131V66.361z M64.646,63.581h1.042l1.434-0.173c0-0.055,0.294-0.099,0.869-0.131l0.044-0.044
	l0.217,0.044l0.044-0.044c-0.206-0.293-0.424-0.706-0.651-1.216c-0.076-0.229-0.337-0.402-0.782-0.521h-0.044
	c-0.391,0-0.771,0.087-1.13,0.261c-0.184,0-0.357,0.119-0.521,0.347c-0.163,0-0.337,0.348-0.521,1.043V63.581z M64.733,61.365v0.087
	l0.13,0.131h0.131v-0.087h0.043l-0.043-0.131H64.733z M64.733,64.319c0,0.087,0.13,0.163,0.391,0.217h0.044
	c0.206,0,0.304-0.173,0.304-0.521l-0.217-0.044h-0.043c-0.229,0-0.381,0.087-0.479,0.261V64.319z M65.124,66.927l0.174,0.043h0.261
	l0.174-0.391l-0.217-0.044c-0.294,0.064-0.435,0.196-0.435,0.392H65.124z M65.688,61.365c0.207-0.076,0.305-0.131,0.305-0.174
	c-0.087-0.206-0.218-0.304-0.391-0.304c-0.142,0.054-0.218,0.119-0.218,0.217C65.461,61.279,65.559,61.365,65.688,61.365
	 M65.906,64.45c0.348,0,0.521-0.098,0.521-0.304v-0.088l-0.044-0.043H66.21c-0.293,0.055-0.435,0.185-0.435,0.391L65.906,64.45z
	 M65.906,67.274h0.304c0.065,0,0.109-0.099,0.131-0.305c-0.033-0.174-0.076-0.261-0.131-0.261h-0.087
	c-0.087,0-0.173,0.174-0.26,0.521L65.906,67.274z M66.297,60.975l0.435,0.13v-0.043l0.087-0.305c-0.108-0.087-0.206-0.13-0.304-0.13
	h-0.044c-0.119,0.043-0.174,0.142-0.174,0.304V60.975z M66.818,66.709l-0.13,0.392v0.043l0.174,0.174h0.087
	c0.108,0,0.195-0.163,0.261-0.478l-0.348-0.131H66.818z M66.731,64.319l0.521-0.043h0.044l0.086-0.305l-0.347-0.087
	c-0.174,0-0.272,0.12-0.305,0.348V64.319z M67.21,61.191l0.13,0.088h0.131l0.087-0.392l-0.087-0.131
	c-0.142,0-0.25,0.142-0.305,0.435H67.21z M67.558,66.665l-0.044,0.218v0.218l0.174,0.086h0.087l0.131-0.173l-0.131-0.349H67.558z
	 M67.817,64.146l0.348-0.045v-0.086l-0.13-0.131c-0.174,0-0.293,0.076-0.348,0.217L67.817,64.146z M67.817,61.626l0.218,0.131
	c0.142-0.044,0.217-0.142,0.217-0.305c-0.075-0.142-0.185-0.218-0.347-0.218L67.817,61.626z M68.079,66.448
	c0.086,0.261,0.162,0.392,0.217,0.392h0.087c0.098-0.12,0.185-0.175,0.261-0.175v-0.043c-0.076-0.142-0.185-0.217-0.348-0.217
	h-0.131l-0.043,0.043H68.079z M68.556,62.539c0.142,0,0.24-0.077,0.305-0.218l-0.13-0.261H68.47
	c-0.142,0.076-0.218,0.185-0.218,0.348C68.252,62.474,68.35,62.517,68.556,62.539 M68.513,63.972l0.174,0.044
	c0.229-0.055,0.348-0.108,0.348-0.174v-0.044l-0.304-0.13c-0.142,0.021-0.218,0.098-0.218,0.217l-0.043,0.044L68.513,63.972z
	 M68.556,62.886v0.088c0.088,0.075,0.131,0.141,0.131,0.217h0.087l0.217-0.044v-0.13c-0.032-0.087-0.119-0.131-0.26-0.131H68.556z
	 M68.73,61.452v0.261l0.217,0.044v-0.044L68.73,61.452z"/>
<path fill="#4A1617" d="M68.704,61.105c0,0.173,0.125,0.334,0.381,0.492l-0.033-0.059v0.087l0.021-0.049l-0.044,0.044l-0.02,0.02
	v0.028v0.044v0.069h0.069c0.048,0,0.218,0.134,0.408,1.851v-0.008c0,0.218-0.052,0.399-0.163,0.57l0.059-0.032
	c-0.396,0-0.844,0.104-1.33,0.311l0.027-0.006h-0.392h-0.004h-0.005l-2.215,0.261l-0.023,0.004l-0.018,0.016l-0.13,0.131
	l0.062-0.019l-0.218-0.044l-0.007-0.001h-0.007H64.56H64.49v0.069v0.044c0,0.339,0.267,0.671,0.815,1.014
	c0.541,0.271,0.992,0.401,1.383,0.401h0.086c0.606,0,1.062-0.185,1.357-0.547l-0.013,0.013l0.304-0.218l-0.109-0.056
	c0,0.212,0.264,0.497,0.854,0.925l-0.028-0.056v0.217l0.021-0.049l-0.043,0.043c-0.195,0.222-0.333,0.273-0.398,0.285l-0.031,0.006
	l-0.016,0.026c-0.215,0.358-0.521,0.532-0.94,0.532h-0.068v0.069c0-0.016,0.007-0.026,0.01-0.028
	c-0.003,0.002-0.079,0.067-0.645,0.134h0.015l-0.868-0.088l-0.009-0.001l-0.01,0.001l-0.26,0.044l0.033,0.003l-0.999-0.348
	l0.013,0.007l-0.869-0.522l0.033,0.06c0-0.071-0.056-0.175-0.465-0.448l0.022,0.023c-0.403-0.719-0.6-1.361-0.6-1.964
	c0-1.241,0.345-2.264,1.025-3.04l-0.007,0.008c0.786-0.668,1.558-1.061,2.356-1.201h-0.012c0.885,0,1.658,0.33,2.297,0.979
	L68.704,61.105z M66.415,60.038c-0.812,0.142-1.627,0.557-2.422,1.231l-0.004,0.003l-0.004,0.004
	c-0.702,0.802-1.059,1.855-1.059,3.131c0,0.626,0.201,1.291,0.617,2.032l0.008,0.014l0.014,0.01
	c0.374,0.249,0.401,0.328,0.403,0.336c0,0,0-0.001,0-0.003v0.04l0.034,0.02l0.869,0.521l0.006,0.003l0.007,0.003l0.999,0.348
	l0.017,0.006l0.017-0.004l0.262-0.043L66.16,67.69l0.869,0.087l0.007,0.001l0.008-0.001c0.756-0.089,0.756-0.182,0.756-0.242
	l-0.069,0.068c0.465,0,0.82-0.201,1.06-0.598l-0.047,0.032c0.145-0.026,0.308-0.14,0.474-0.326c-0.003,0.003,0.04-0.04,0.04-0.04
	l0.021-0.021v-0.028v-0.217V66.37l-0.028-0.021c-0.659-0.478-0.797-0.705-0.797-0.812v-0.134l-0.109,0.078l-0.305,0.217
	l-0.008,0.005l-0.006,0.007c-0.267,0.33-0.688,0.497-1.25,0.497h-0.086c-0.369,0-0.8-0.126-1.316-0.385
	c-0.491-0.307-0.744-0.608-0.744-0.893v-0.044l-0.068,0.068h0.564l-0.014-0.001l0.218,0.044l0.036,0.007l0.026-0.025l0.13-0.131
	l-0.041,0.02l2.216-0.261h-0.008h0.392h0.014l0.013-0.006c0.47-0.197,0.899-0.298,1.276-0.298h0.037l0.021-0.031
	c0.126-0.195,0.185-0.4,0.185-0.646v-0.004v-0.005c-0.182-1.637-0.35-1.972-0.546-1.972l0.069,0.068v-0.044l-0.021,0.05l0.044-0.043
	l0.021-0.021v-0.028v-0.087V61.5l-0.033-0.02c-0.211-0.131-0.314-0.254-0.314-0.375v-0.028l-0.02-0.021
	c-0.666-0.678-1.472-1.021-2.396-1.021h-0.007L66.415,60.038z"/>
<path fill="#4A1617" d="M64.646,63.65h1.042h0.005l0.004-0.001l1.434-0.173l0.061-0.009v-0.06c0,0.019-0.011,0.032-0.016,0.035
	c0.02-0.013,0.134-0.059,0.819-0.097l0.026-0.002l0.019-0.019l0.044-0.043l-0.062,0.018l0.218,0.044l0.035,0.007l0.027-0.025
	l0.043-0.043l0.041-0.042l-0.033-0.047c-0.197-0.28-0.408-0.674-0.646-1.205c-0.082-0.248-0.354-0.433-0.827-0.561l-0.009-0.002
	h-0.009h-0.044c-0.403,0-0.793,0.09-1.159,0.268l0.029-0.007c-0.204,0-0.398,0.126-0.577,0.376l0.057-0.028
	c-0.139,0-0.331,0.124-0.588,1.094l-0.003,0.009v0.009v0.435v0.069H64.646z M64.714,63.164c0.243-0.92,0.409-0.991,0.454-0.991
	h0.035l0.021-0.029c0.151-0.21,0.308-0.318,0.465-0.318h0.017l0.015-0.007c0.347-0.168,0.717-0.254,1.099-0.254h0.044l-0.019-0.002
	c0.42,0.112,0.667,0.272,0.734,0.477c0.244,0.546,0.459,0.947,0.661,1.234l0.008-0.089l-0.044,0.044l0.062-0.019l-0.217-0.044
	l-0.036-0.008l-0.026,0.026l-0.044,0.044l0.045-0.021c-0.871,0.05-0.934,0.107-0.934,0.2l0.061-0.069l-1.434,0.174l0.008-0.001
	h-1.042l0.069,0.069v-0.435L64.714,63.164z"/>
<path fill="#4A1617" d="M74.65,61.208c0.14,0,0.318,0.039,0.538,0.112l-0.332,4.959c-0.259,0.106-0.438,0.16-0.545,0.16l-0.02-1.395
	c0.073-1.321,0.119-2.51,0.133-3.564l0.026-0.206c0.026,0,0.04-0.021,0.04-0.066H74.65z M74.962,59.773
	c0.332,0.054,0.498,0.252,0.498,0.604v0.026c0,0.325-0.152,0.512-0.451,0.558h-0.086c-0.346-0.053-0.519-0.272-0.519-0.65
	c0.04-0.346,0.173-0.519,0.405-0.519L74.962,59.773z M74.451,65.608l0.133,0.021v-0.021l0.047-0.112l-0.026-0.066
	c-0.08,0-0.134,0.026-0.153,0.086V65.608z M74.471,65.901l0.047,0.292c0.113,0,0.179-0.073,0.199-0.226
	c0-0.046-0.066-0.094-0.199-0.133L74.471,65.901z M74.518,64.016c0.073,0.086,0.152,0.133,0.226,0.133l0.066-0.152
	c-0.02-0.127-0.04-0.187-0.066-0.187h-0.047c-0.086,0-0.146,0.04-0.179,0.113V64.016z M74.518,64.6l0.226,0.066L74.81,64.6
	c-0.02-0.139-0.066-0.205-0.14-0.205c-0.1,0.02-0.152,0.053-0.152,0.093V64.6z M74.743,65.204c0.026-0.033,0.04-0.086,0.04-0.159
	h0.026c-0.02-0.087-0.053-0.133-0.093-0.133c-0.1,0-0.159,0.073-0.18,0.226C74.598,65.185,74.664,65.204,74.743,65.204
	 M74.717,62.018c0.166-0.02,0.245-0.105,0.245-0.245c0-0.093-0.06-0.146-0.179-0.16c-0.146,0.021-0.22,0.087-0.22,0.206
	C74.563,61.951,74.617,62.018,74.717,62.018 M74.764,63.073l0.066-0.113v-0.066l-0.047-0.046h-0.087
	c-0.039,0-0.06,0.033-0.065,0.093C74.631,62.986,74.677,63.026,74.764,63.073 M74.631,63.412c0,0.119,0.06,0.179,0.179,0.179h0.066
	v-0.252h-0.18L74.631,63.412z M74.896,60.604l0.179-0.02l0.047-0.245c-0.073-0.061-0.133-0.094-0.18-0.094
	c-0.159,0-0.259,0.073-0.292,0.227C74.65,60.523,74.73,60.57,74.896,60.604 M74.65,62.509c0,0.033,0.046,0.06,0.133,0.093
	l0.093-0.02v-0.113c0-0.086-0.033-0.14-0.093-0.159c-0.087,0.033-0.133,0.094-0.133,0.18V62.509z"/>
<path fill="#4A1617" d="M74.65,61.25c0.13,0,0.301,0.036,0.524,0.11l-0.029-0.042l-0.331,4.958l0.025-0.036
	c-0.256,0.105-0.429,0.156-0.528,0.156l0.042,0.042l-0.02-1.395c0.077-1.383,0.12-2.55,0.133-3.563v0.005l0.026-0.206l-0.042,0.037
	c0.028,0,0.052-0.014,0.066-0.036c0.011-0.018,0.016-0.041,0.016-0.073l-0.042,0.043H74.65z M74.449,61.207
	c0,0.022-0.004,0.029-0.004,0.029c0.001-0.002,0.005-0.004,0.007-0.005c0,0,0,0-0.001,0h-0.037l-0.005,0.037l-0.026,0.206v0.002
	v0.003c-0.013,1.013-0.057,2.178-0.133,3.562c0,0.004,0.02,1.397,0.02,1.397l0.001,0.042h0.041c0.112,0,0.29-0.052,0.561-0.163
	l0.024-0.01l0.002-0.026l0.332-4.959l0.002-0.032l-0.031-0.011c-0.231-0.077-0.412-0.114-0.551-0.114h-0.159h-0.042V61.207z"/>
<path fill="#4A1617" d="M74.956,59.815c0.311,0.05,0.462,0.234,0.462,0.562v0.026c0,0.304-0.136,0.473-0.416,0.517l0.007-0.001
	h-0.086l0.007,0.001c-0.325-0.051-0.482-0.249-0.482-0.61v0.006c0.036-0.323,0.155-0.48,0.362-0.48h0.003h0.003l0.152-0.02
	L74.956,59.815z M74.81,59.752c-0.254,0-0.404,0.186-0.446,0.555l-0.001,0.002v0.002c0,0.403,0.187,0.637,0.554,0.693l0.003,0.001
	h0.004h0.086h0.004l0.003-0.001c0.318-0.05,0.487-0.257,0.487-0.6v-0.026c0-0.372-0.18-0.589-0.534-0.646l-0.006-0.001l-0.006,0.001
	l-0.153,0.02H74.81z"/>
<path fill="#5BB1BF" d="M83.826,59.939l-0.737,0.941h-0.043c-0.747-0.671-1.3-1.104-1.646-1.289l-0.478-0.086
	c-1.116,0-2.005,1.04-2.644,3.131l-0.13,1.116c0,1.257,0.553,2.06,1.646,2.405l0.607,0.087c1.354-0.194,2.037-0.812,2.037-1.842
	V64.23h0.043c0.162,0,0.553,0.26,1.171,0.769l0.173,0.087c-0.845,2.059-1.853,3.088-3.034,3.088h-0.303
	c-0.791,0-1.528-0.238-2.211-0.727c-0.986-1.18-1.474-2.676-1.474-4.464c0-1.917,0.64-3.38,1.907-4.377
	c0.672-0.423,1.268-0.64,1.777-0.64C82.146,58.455,83.252,59.104,83.826,59.939 M77.325,62.594l-0.044,0.043v0.521l0.044-0.043
	h0.043l0.521,0.129L77.845,63.2v-0.043l0.044-0.391L77.325,62.594z M77.498,61.531c-0.119,0.163-0.173,0.369-0.173,0.597h0.043
	l0.606,0.087l0.13-0.563L77.498,61.531z M77.368,63.84c0,0.314,0.043,0.477,0.13,0.477h0.434l-0.043-0.043V63.84
	c0-0.087-0.163-0.13-0.478-0.13L77.368,63.84z M77.498,64.912c0.032,0.347,0.076,0.521,0.13,0.521l0.521-0.26
	c0-0.151-0.054-0.25-0.174-0.304h-0.26L77.498,64.912z M77.759,60.708l0.693,0.173c0.086-0.141,0.13-0.281,0.13-0.422
	c-0.099-0.173-0.228-0.26-0.391-0.26h-0.173c-0.174,0.119-0.26,0.26-0.26,0.422V60.708z M77.802,66.028
	c0.119,0.314,0.206,0.487,0.26,0.521h0.043c0.25-0.185,0.391-0.391,0.434-0.607c-0.021-0.086-0.075-0.141-0.173-0.173L77.802,66.028
	z M78.408,59.636l0.563,0.347h0.044l0.39-0.434v-0.043l-0.434-0.553c-0.401,0.336-0.606,0.562-0.606,0.683H78.408z M79.102,66.245
	l-0.563,0.899h0.044l0.39,0.303c0-0.172,0.13-0.52,0.391-1.028L79.102,66.245z M79.795,66.549l-0.304,1.148h0.65l0.131-1.029
	l-0.044-0.119H79.795z M79.622,58.477c0.141,0.52,0.249,0.779,0.347,0.779c0.075,0,0.119-0.118,0.13-0.346
	c-0.055-0.369-0.141-0.554-0.26-0.554h-0.044L79.622,58.477z M80.705,58.443v0.336l-0.043,0.304l0.521,0.13
	c0.064-0.098,0.119-0.292,0.173-0.606L80.705,58.443z M81.009,66.505l0.26,1.116c0.38-0.076,0.563-0.205,0.563-0.39
	c-0.228-0.39-0.347-0.629-0.347-0.727v-0.13h-0.043L81.009,66.505z M81.962,58.953l-0.13,0.477l0.391,0.162l0.13-0.509l-0.347-0.13
	H81.962z M81.962,66.028c0.228,0.314,0.348,0.585,0.348,0.813c0.097,0,0.292-0.186,0.563-0.554
	c-0.357-0.313-0.597-0.476-0.737-0.476L81.962,66.028z M82.525,65.042v0.087l-0.043,0.044l0.043,0.043
	c0.391,0.337,0.64,0.509,0.737,0.509l0.13-0.205v-0.043c-0.194,0-0.466-0.141-0.823-0.435H82.525z M82.786,59.473
	c0,0.25-0.055,0.38-0.174,0.38v0.043l0.174,0.174l0.173-0.521L82.786,59.473z"/>
<path fill="#4A1617" d="M83.772,59.896l-0.737,0.942l0.055-0.026h-0.044l0.047,0.018c-0.754-0.676-1.312-1.113-1.662-1.299
	l-0.009-0.005l-0.011-0.002l-0.477-0.087l-0.006-0.001h-0.007c-1.152,0-2.064,1.07-2.71,3.181l-0.001,0.006l-0.001,0.006
	l-0.13,1.116l-0.001,0.004v0.004c0,1.284,0.57,2.115,1.695,2.471l0.005,0.003h0.006l0.607,0.087l0.009,0.001l0.011-0.001
	c1.391-0.2,2.097-0.843,2.097-1.91v-0.174l-0.069,0.069h0.043c0.097,0,0.371,0.131,1.126,0.754l0.006,0.005l0.008,0.003l0.174,0.087
	l-0.033-0.088c-0.83,2.021-1.829,3.046-2.971,3.046h-0.303c-0.778,0-1.508-0.24-2.171-0.714l0.013,0.012
	c-0.967-1.158-1.457-2.646-1.457-4.42c0-1.888,0.633-3.342,1.88-4.323l-0.005,0.004c0.662-0.417,1.248-0.628,1.74-0.628l-0.02-0.003
	c1.654,0.486,2.734,1.123,3.299,1.945L83.772,59.896z M80.489,57.897c-0.519,0-1.129,0.22-1.814,0.65l-0.003,0.002l-0.003,0.003
	c-1.283,1.008-1.933,2.499-1.933,4.431c0,1.808,0.501,3.324,1.489,4.509l0.006,0.007l0.007,0.005
	c0.687,0.49,1.443,0.738,2.251,0.738h0.303c1.203,0,2.245-1.053,3.098-3.13l0.024-0.059l-0.057-0.029l-0.174-0.087l0.013,0.008
	c-0.844-0.695-1.092-0.784-1.214-0.784h-0.043H82.37v0.068v0.174c0,0.987-0.666,1.585-1.978,1.774h0.019l-0.605-0.088l0.011,0.003
	c-1.062-0.336-1.6-1.123-1.6-2.34v0.009l0.13-1.117l-0.002,0.013c0.625-2.045,1.492-3.083,2.577-3.083l-0.012-0.001l0.477,0.087
	l-0.021-0.008c0.34,0.182,0.89,0.611,1.634,1.281l0.02,0.017h0.026h0.044h0.033l0.021-0.026l0.737-0.942l0.03-0.04l-0.028-0.042
	c-0.584-0.849-1.688-1.503-3.374-1.998l-0.01-0.004H80.489z"/>
<path fill="#E091AC" d="M90.6,52.477h0.886l0.136,0.086l0.085-0.086c0,0.051,0.085,0.086,0.256,0.12l0.051-0.034
	c0.34,0.034,0.732,0.17,1.158,0.391c0.136,0,0.51,0.205,1.106,0.597c0.238,0.255,0.442,0.597,0.612,1.038
	c0.051,0,0.137,0.153,0.222,0.478h-0.034l0.086,0.204l-0.052,0.033c0.085,0,0.137,0.137,0.137,0.409c0,0.204-0.137,0.477-0.393,0.8
	c-0.357,0.426-0.697,0.631-1.021,0.631h-0.357l-0.052,0.051l-0.034-0.051h-0.357c-0.392,0-0.613-0.086-0.664-0.239
	c-0.085,0-0.119-0.05-0.136-0.153l-0.222-0.119l0.051-0.051v-0.034c-0.118-0.085-0.238-0.323-0.323-0.681l0.051-0.034v-0.034
	l-0.051-0.256l0.051-0.033l-0.051-0.034v-0.051l0.222-0.546c0.238-0.101,0.408-0.204,0.494-0.289h0.051v-0.119
	c-0.051,0-0.171-0.119-0.357-0.357l-0.358-0.119l-0.578-0.119l-0.17,0.085l-0.222-0.051c-0.494,0.137-1.073,0.392-1.771,0.766
	c0,0.052-0.204,0.204-0.63,0.478c-0.357,0.391-0.527,0.698-0.527,0.885v0.272c0,0.272,0.391,0.664,1.191,1.192
	c0.221,0.322,0.681,0.545,1.412,0.681l1.073,0.204c0.375,0.119,0.681,0.272,0.937,0.442c0.477,0.239,0.868,0.512,1.191,0.801
	c0.63,0.426,0.937,0.698,0.937,0.834h0.085l-0.051,0.034v0.051c0.289,0.255,0.527,0.612,0.749,1.106c0.085,0,0.153,0.12,0.187,0.357
	c0.068,0,0.188,0.256,0.357,0.767l0.119,0.987l-0.085,0.237l0.052,0.053c-0.086,0.544-0.222,0.952-0.409,1.225
	c-0.051,0.256-0.136,0.375-0.255,0.375v0.068c0,0.289-0.426,0.834-1.294,1.6c-0.171,0.153-0.579,0.443-1.243,0.835
	c-0.102,0-0.272,0.067-0.527,0.203c-0.323,0.137-0.579,0.205-0.749,0.205c-0.477,0.085-0.749,0.136-0.834,0.187h-0.682l-0.664,0.052
	v-0.085h-0.034c-0.221,0-0.374-0.034-0.493-0.085l-0.034,0.051h-0.051c-0.579-0.137-1.09-0.357-1.549-0.647
	c-0.12-0.102-0.239-0.152-0.357-0.152c-0.272-0.222-0.528-0.494-0.75-0.801c-0.068,0-0.204-0.153-0.408-0.477l-0.477-0.766
	c-0.119-0.052-0.188-0.137-0.188-0.272l0.103-0.085c-0.068-0.052-0.103-0.222-0.103-0.478l-0.17-0.476h0.051l0.034-0.035
	l0.085-0.885v-0.119l0.272-0.477c0.153-0.119,0.341-0.375,0.527-0.766c0.12,0,0.307-0.137,0.579-0.393l0.171-0.034l0.051,0.034
	c0-0.068,0.222-0.17,0.664-0.323l0.05,0.034l0.223-0.034h0.17c0.357,0.086,0.527,0.171,0.527,0.289c0.119,0,0.289,0.222,0.494,0.665
	c0,0.459-0.086,0.8-0.273,1.038c-0.187,0.153-0.34,0.238-0.441,0.238l-0.699,0.237l-0.084,0.324v0.767
	c0.152,0.596,0.34,0.97,0.562,1.157c0.357,0.477,0.766,0.715,1.243,0.715l0.187,0.034l0.783,0.119v0.052l0.052-0.052l0.221,0.052
	h0.17c0.068,0,0.103-0.035,0.103-0.119h0.137c0.051,0,0.085,0.033,0.085,0.119c0.885-0.119,1.345-0.29,1.362-0.528h0.136
	l0.051,0.034h0.034l0.323-0.307h-0.051c0-0.119,0.102-0.188,0.307-0.238l0.663-0.886l0.443-1.157l-0.034-0.033v-0.053l0.085-0.152
	c0-0.562-0.136-0.936-0.408-1.124c0-0.102-0.068-0.204-0.222-0.306c0-0.153-0.221-0.409-0.664-0.8
	c-0.494-0.393-1.056-0.716-1.668-0.954l-1.651-0.732l-0.477-0.237l-0.987-0.443l-0.222-0.118c-0.085,0-0.17-0.068-0.255-0.188
	l-0.409-0.357c-0.222-0.255-0.425-0.442-0.578-0.527c-0.443-0.426-0.665-0.75-0.665-0.953l-0.085-0.086v-0.153l-0.034-0.357
	l0.034-0.238l-0.034-0.051h0.034l-0.034-0.034v-0.204c0-0.682,0.307-1.294,0.92-1.838l0.766-0.511
	c0.272-0.104,0.46-0.205,0.562-0.325l0.715-0.322l0.442-0.119l0.051,0.051h0.034c0.018-0.067,0.46-0.204,1.294-0.408V52.477z
	 M85.271,64.685l0.052,0.118l-0.052,0.119c0.068,0,0.137,0.188,0.188,0.562c0.118,0.188,0.204,0.289,0.255,0.289h0.051v-0.051
	l-0.221-0.562l0.051-0.033c0-0.273-0.103-0.426-0.324-0.478V64.685z M85.322,64.378h0.085v-0.171h-0.085V64.378z M85.407,64.122
	l0.222,0.051v-0.085l-0.034-0.033c0-0.12,0.068-0.171,0.221-0.171l0.034-0.119l-0.136-0.511c-0.137,0-0.255,0.29-0.341,0.868H85.407
	z M86.071,62.896l-0.034,0.204v0.068h0.034l0.188-0.153l-0.052-0.119H86.071z M86.259,56.104l0.085-0.068v-0.408
	c0-0.239,0.085-0.357,0.256-0.357c0.153-0.256,0.237-0.46,0.237-0.63v-0.052c-0.119,0-0.187,0.085-0.187,0.239
	c-0.153,0.067-0.272,0.221-0.358,0.476c-0.085,0.188-0.152,0.442-0.17,0.732L86.259,56.104z M86.156,56.427v0.323
	c0.085,0.375,0.153,0.562,0.222,0.562l0.187-0.05l0.137,0.203c0,0.188,0.052,0.272,0.136,0.272l0.035-0.187h-0.035l0.035-0.051
	v-0.035c-0.188-0.118-0.272-0.289-0.272-0.51h-0.035c0.052-0.12,0.086-0.171,0.137-0.171l-0.051-0.119l-0.272,0.085v-0.051
	l0.051-0.034v-0.034c0-0.152-0.103-0.238-0.307-0.238L86.156,56.427z M86.514,62.846l0.086-0.068l0.237,0.119h0.035v-0.051
	l-0.171-0.273l0.034-0.237h0.137c0.289,0.255,0.442,0.493,0.442,0.715h0.136v-0.034c0-0.222-0.086-0.459-0.272-0.681
	c-0.085-0.085-0.119-0.171-0.119-0.239c-0.153,0-0.426,0.154-0.852,0.477L86.514,62.846z M86.429,63.169h0.136v-0.034h-0.136V63.169
	z M86.479,66.283l-0.051,0.205h0.085l0.086-0.17l-0.035-0.035H86.479z M86.564,63.85l0.137,0.119h0.085v-0.034
	c-0.051-0.119-0.085-0.17-0.136-0.17L86.564,63.85z M86.6,63.526c0.051,0.136,0.085,0.204,0.136,0.204h0.051v-0.119l-0.085-0.085
	H86.6z M86.701,67.237v0.085l0.136,0.119v-0.119l-0.102-0.085H86.701z M86.837,63.935l-0.051,0.153h0.051l0.086-0.086L86.837,63.935
	z M86.837,63.526v0.051l0.035,0.188h0.084V63.73l-0.033-0.204H86.837z M87.059,65.808c0,0.119-0.068,0.238-0.187,0.357l0.221-0.034
	l0.357,0.306v-0.067l-0.307-0.562H87.059z M87.45,55.797l-0.527,0.426l0.221,0.17h0.307c0-0.136,0.034-0.204,0.085-0.204V56.07
	l-0.034-0.035l0.034-0.051v-0.119L87.45,55.797z M86.923,56.955v0.119h0.085l0.222-0.119v-0.12h-0.052L86.923,56.955z
	 M86.956,57.465L86.923,57.5v0.119l0.085,0.085h0.051l0.256-0.153V57.5l-0.034-0.035L87.229,57.5h-0.052L86.956,57.465z
	 M86.923,63.016l0.085,0.085v-0.085H86.923z M87.093,54.673v0.086h-0.034l0.034,0.118h0.085v-0.204H87.093z M87.093,63.646h0.085
	v-0.034h-0.085V63.646z M87.28,61.978v0.118l0.17,0.085c0.068,0,0.119-0.067,0.137-0.203H87.28z M87.672,57.908
	c0,0.051-0.052,0.068-0.171,0.068l-0.051,0.051v0.085l0.272,0.034l0.034-0.034h0.051l0.17,0.034h0.052v-0.085l-0.188-0.153H87.672z
	 M87.672,54.708l-0.171,0.289l0.034,0.034c0.272-0.068,0.409-0.154,0.409-0.238c0-0.052-0.086-0.103-0.272-0.12V54.708z
	 M87.501,66.522v0.034l0.171,0.731h0.136v-0.477l-0.272-0.289H87.501z M88.029,67.561l0.034,0.239l-0.119,0.153
	c-0.222-0.153-0.324-0.307-0.324-0.426l-0.085,0.068v0.051l0.052,0.033l-0.052,0.034v0.119c0,0.052,0.222,0.188,0.664,0.409h0.085
	c0.068,0,0.103-0.034,0.103-0.119c0-0.222-0.052-0.323-0.137-0.323v-0.272c0-0.375-0.067-0.562-0.221-0.562V67.561z M87.62,56.835
	l0.103,0.239v0.068H87.62v0.119l0.052-0.035c0.289,0.035,0.442,0.12,0.442,0.238c0.085,0,0.136,0.035,0.136,0.119l0.034,0.035h0.137
	v-0.068c0-0.051-0.205-0.239-0.613-0.562c0-0.103-0.068-0.171-0.188-0.205V56.835z M87.62,62.368
	c0.018,0.153,0.068,0.239,0.137,0.239h0.051c0-0.137-0.068-0.222-0.188-0.272V62.368z M88.114,62.215l0.085,0.631l-0.085,0.084
	c0,0.086-0.085,0.153-0.272,0.239v0.05l-0.034-0.05h-0.085v0.119l-0.051,0.204c0.289,0,0.527-0.188,0.749-0.562l0.051-0.152
	c-0.068-0.238-0.153-0.426-0.272-0.562v-0.084L88.114,62.215z M87.723,53.873v0.153l0.119,0.12v-0.273H87.723z M87.723,54.35h0.119
	V54.23h-0.119V54.35z M87.808,62.93l0.034,0.12l0.103-0.086V62.93H87.808z M87.842,58.538v0.17c0.153,0,0.256,0.017,0.323,0.068
	l0.034-0.034v-0.034L87.842,58.538z M87.944,53.907v0.239l-0.051,0.203l0.136,0.051c0.153-0.221,0.221-0.391,0.221-0.493
	l-0.187-0.034L87.944,53.907z M88.472,57.977v0.051h-0.085v0.085l0.255,0.034c0.119-0.034,0.222-0.102,0.272-0.205v-0.119h-0.085
	l-0.324,0.154v-0.068l0.052-0.119l0.051,0.033h0.085v-0.085l-0.085-0.068c-0.237,0-0.408,0.068-0.493,0.188L88.472,57.977z
	 M89.051,53.243v0.067l0.034,0.052v0.034h-0.137v-0.086h-0.085c0,0.086-0.068,0.12-0.222,0.12c0,0.136-0.034,0.205-0.085,0.205
	l-0.052-0.12l-0.221,0.085v0.12h0.272l0.051-0.052h0.034l0.222,0.204h0.051v-0.084h-0.085v-0.035c0.085,0,0.119-0.033,0.119-0.085
	v-0.033l-0.034-0.035V53.55l0.034-0.034h0.103v0.085h0.034c0.051,0,0.085-0.034,0.085-0.119h0.102v0.068h0.085v-0.119
	c-0.152,0-0.221-0.068-0.221-0.188H89.051z M88.421,68.157v0.085l0.084,0.085h0.137l0.051-0.119l-0.051-0.051H88.421z
	 M88.505,54.078l0.137,0.152v0.289h0.051c0.086-0.084,0.171-0.119,0.256-0.119v-0.136c-0.119,0-0.17-0.051-0.17-0.153
	c-0.086,0-0.137-0.033-0.137-0.119h-0.034L88.505,54.078z M88.505,58.181v0.17h0.052l0.085-0.085l-0.085-0.085H88.505z
	 M88.728,67.237l-0.035,0.051v0.12c0.12,0.016,0.171,0.051,0.171,0.119c0.188-0.068,0.272-0.119,0.272-0.171v-0.034L88.728,67.237z
	 M88.778,59.1v0.086l0.612,0.238v-0.085c0-0.052-0.085-0.086-0.255-0.086c-0.051-0.103-0.153-0.153-0.307-0.153H88.778z
	 M88.948,68.123c0.051,0.188,0.188,0.271,0.408,0.271v-0.067c0-0.052-0.102-0.119-0.306-0.204H88.948z M88.999,58.112V58.3
	c0.137-0.051,0.205-0.103,0.222-0.153l-0.136-0.119L88.999,58.112z M89.136,67.8l0.17,0.153h0.085v-0.307
	c-0.17,0.017-0.255,0.051-0.255,0.119V67.8z M89.17,58.776h0.136v-0.067H89.17V58.776z M89.493,53.431l0.392-0.392H89.8
	c-0.392,0.103-0.579,0.188-0.579,0.238S89.306,53.379,89.493,53.431 M89.442,58.266V58.3l0.051,0.17h0.085l0.136-0.119
	L89.442,58.266z M89.493,53.992v0.034h0.119l0.136-0.188v-0.118h-0.034L89.493,53.992z M89.8,58.538v0.085l0.085,0.085h0.085
	l-0.034-0.17H89.8z M89.833,59.576L89.8,59.628v0.068l0.17,0.05l0.052-0.05v-0.068L89.833,59.576z M89.833,53.721h0.103v-0.052
	h-0.103V53.721z M89.833,68.208h0.103v-0.051h-0.103V68.208z M90.055,67.527l-0.085,0.562h0.085c0.068,0,0.137-0.119,0.188-0.375
	h0.034l0.051,0.052h0.052l0.033-0.29l-0.136,0.052h-0.085l-0.137-0.052V67.527z M90.242,53.362h0.085
	c0.034-0.272,0.085-0.409,0.17-0.409h0.052l0.051,0.035l0.034-0.035h0.051c0.068,0,0.119,0.103,0.137,0.324l0.307,0.085h0.051
	c0-0.067,0.068-0.17,0.222-0.289l0.119-0.204v-0.034h-0.528l-0.033-0.034c-0.597,0.052-0.903,0.137-0.903,0.238
	C90.174,53.039,90.242,53.142,90.242,53.362 M90.242,68.089c0,0.085-0.051,0.17-0.136,0.271l0.085,0.086h0.272
	c0.221,0,0.34-0.034,0.357-0.119v-0.085h-0.324c-0.068,0-0.102-0.052-0.118-0.153H90.242z M90.276,59.696l-0.034,0.05v0.119
	l1.328,0.546l0.051,0.051h0.034l0.221-0.051l0.052,0.051v-0.171c0-0.033-0.103-0.084-0.307-0.152c0-0.103-0.068-0.153-0.221-0.153
	l-0.188,0.153h-0.085c-0.103-0.103-0.272-0.188-0.528-0.273L90.276,59.696z M90.634,67.953h0.051l0.307-0.393v-0.085h-0.136
	c-0.153,0.068-0.222,0.171-0.222,0.324V67.953z M90.77,59.253v0.086l0.086-0.086H90.77z M91.043,58.827l0.221,0.188
	c0.119-0.034,0.204-0.102,0.256-0.188c0-0.085-0.153-0.119-0.477-0.119V58.827z M91.076,68.327c0.222-0.238,0.409-0.527,0.545-0.886
	h-0.136c-0.29,0.29-0.442,0.579-0.442,0.886H91.076z M91.213,59.339l-0.085,0.169l0.085,0.068l0.085-0.152L91.213,59.339z
	 M91.485,53.311v0.052l0.085,0.068h0.051v-0.034l-0.102-0.086H91.485z M91.655,58.896v0.085c0.051,0,0.085,0.034,0.085,0.119
	l0.136-0.033V58.98l-0.085-0.085H91.655z M91.962,67.953l-0.034,0.17h0.085l0.086-0.086v-0.084H91.962z M91.962,53.481h0.222
	l0.136-0.442h-0.17c-0.086,0-0.137,0.103-0.188,0.323V53.481z M91.962,60.462v0.119l0.102-0.085v-0.034H91.962z M92.234,55.185
	l-0.136,0.493h0.085v-0.255l0.136-0.153v-0.085H92.234z M92.184,59.135l-0.034,0.204h0.034l0.187-0.153v-0.051H92.184z
	 M92.677,59.424c-0.221,0.357-0.392,0.544-0.527,0.562v0.033l0.477,0.324h0.102v-0.085l-0.051-0.153
	c0.051-0.222,0.137-0.408,0.273-0.528v-0.068L92.677,59.424z M92.37,55.678v0.034h0.034l0.103-0.085v-0.035h-0.051L92.37,55.678z
	 M92.404,56.393v0.119l0.188,0.153l0.085-0.085l-0.085-0.238l0.085-0.068v-0.085h-0.051L92.404,56.393z M92.404,67.17v0.152h0.103
	l0.033-0.204v-0.034h-0.033L92.404,67.17z M92.456,60.819v0.034l0.306,0.204v-0.153l-0.222-0.085H92.456z M92.626,53.277
	l-0.119,0.204v0.068l0.085,0.086c0.085-0.104,0.136-0.223,0.136-0.358H92.626z M92.507,67.8l0.085,0.085h0.034l0.63-0.443
	c-0.085,0-0.256-0.085-0.494-0.271C92.762,67.424,92.677,67.629,92.507,67.8 M92.983,53.873l0.085-0.237h-0.085
	c-0.086,0.017-0.137,0.101-0.137,0.237H92.983z M93.034,55.541l-0.137,0.443l0.053,0.051h0.033c0.067,0,0.136-0.17,0.188-0.494
	H93.034z M92.983,59.985l-0.033,0.272l0.033,0.033v0.052l-0.033,0.033h0.033l0.136-0.118v-0.204l-0.085-0.068H92.983z
	 M93.171,56.427l-0.188,0.323l0.136,0.085h0.272l0.086-0.085v-0.357l-0.188,0.034l-0.119-0.034V56.427z M92.983,66.761v0.051
	l0.051,0.034v0.034h-0.051l0.085,0.204h0.188v-0.033l-0.222-0.29H92.983z M93.034,54.708c0.052,0.119,0.085,0.169,0.137,0.169
	c0.255-0.289,0.391-0.477,0.391-0.562l-0.442,0.357h-0.085V54.708z M93.171,55.15l-0.103,0.237v0.12h0.051
	c0.085,0,0.137-0.12,0.171-0.357H93.171z M93.341,60.854l0.137-0.034c-0.086-0.068-0.137-0.171-0.137-0.323H93.29
	c-0.153,0.068-0.222,0.152-0.222,0.238L93.341,60.854z M93.341,53.362v0.068l0.085,0.085h0.052v-0.153H93.341z M93.341,59.814v0.051
	c0,0.137,0.119,0.239,0.357,0.308c0,0.085,0.153,0.34,0.442,0.765v0.086l0.085-0.086l-0.051-0.203l0.103-0.068v-0.051
	c-0.119-0.239-0.272-0.392-0.494-0.477l-0.357-0.324H93.341z M93.341,66.283c0,0.053,0.119,0.12,0.357,0.239h0.085
	c0-0.187-0.085-0.341-0.272-0.477L93.341,66.283z M93.341,66.761l0.221,0.323l-0.051,0.204h0.103l0.341-0.323
	c0-0.051-0.205-0.136-0.613-0.289V66.761z M93.646,53.55v0.119l0.052,0.052l-0.052,0.033v0.085h0.086v0.034l0.136-0.034l0.137,0.034
	v-0.034l-0.307-0.289H93.646z M93.868,55.423c-0.067,0.067-0.119,0.272-0.136,0.612h-0.034l0.034,0.153
	c0.103,0,0.187-0.221,0.272-0.681L93.868,55.423z M94.056,55.797l0.034,0.034v0.034l-0.307,0.97
	c0.238-0.067,0.357-0.238,0.357-0.527c0.018-0.137,0.034-0.204,0.085-0.204l-0.051-0.033v-0.035l0.051-0.238l-0.085-0.085
	L94.056,55.797z M93.835,65.604v0.051l0.17,0.153h0.051v-0.085l-0.102-0.119l0.051-0.119h-0.051L93.835,65.604z M94.005,53.907
	v0.119c0,0.085-0.051,0.188-0.137,0.289l0.051,0.034c0.154-0.103,0.273-0.153,0.358-0.153v-0.085l-0.222-0.204H94.005z
	 M94.277,54.265v0.051l0.034,0.204c-0.256,0.12-0.375,0.222-0.393,0.308h0.035l-0.086,0.238v0.085l0.086,0.084l0.051-0.05
	l0.051,0.05c0.018-0.289,0.068-0.441,0.119-0.441c0,0.051,0.051,0.084,0.137,0.084l0.136,0.308l-0.034,0.05v0.188l0.119,0.051
	c0-0.137,0.068-0.204,0.222-0.204v-0.035c0-0.255-0.052-0.391-0.171-0.407l0.052-0.034l-0.272-0.528H94.277z M94.89,65.331
	l-0.221-0.052v0.562l0.051,0.051l-0.137,0.153h-0.085l-0.136-0.085h-0.051l0.051,0.408l-0.188,0.188v0.17h0.051
	c0.647-0.697,1.039-1.242,1.158-1.634l0.034-0.051v-0.068c-0.153,0-0.323,0.119-0.478,0.357H94.89z M94.413,64.258l-0.188,0.716
	c0.068,0.34,0.137,0.511,0.188,0.511h0.034V65.16l0.051-0.033l-0.051-0.034l0.051-0.681v-0.154H94.413z M94.312,61.381l-0.034,0.153
	l0.034,0.034l0.136-0.034v-0.153H94.312z M94.362,61.773l-0.051,0.05v0.034c0.085,0.342,0.17,0.511,0.221,0.511l0.103-0.511
	L94.362,61.773z M94.447,63.05h0.085l0.103-0.272l-0.052-0.052h-0.085c-0.051,0-0.085,0.035-0.085,0.12L94.447,63.05z
	 M94.413,63.373v0.153h0.034l0.085-0.068v-0.085H94.413z M94.498,56.154l0.034,0.034v0.034l-0.085,0.085v0.034h0.051
	c0.085,0,0.137-0.085,0.137-0.238c0.085,0,0.17-0.136,0.255-0.392l-0.034-0.034h-0.051c-0.085,0-0.187,0.137-0.272,0.426
	L94.498,56.154z M94.855,61.534v0.153h0.085c0,0.086,0.034,0.136,0.086,0.136l-0.052,0.119l0.222,0.868h0.052l0.272-0.085v-0.067
	c0-0.102-0.068-0.205-0.188-0.323h0.051c-0.119-0.29-0.272-0.562-0.494-0.835L94.855,61.534z M95.639,63.254
	c-0.067,0.222-0.118,0.323-0.17,0.323l0.052,0.034v0.034l-0.324,0.409l0.052,0.033v0.034c0,0.051-0.052,0.085-0.137,0.085
	c0,0.119,0.067,0.171,0.222,0.171c0,0.067,0.051,0.136,0.136,0.187c0.119,0,0.17-0.084,0.17-0.238l0.103-0.068l-0.051-0.051v-0.119
	l0.051-0.238l-0.051-0.034v-0.051l0.051-0.034v-0.033l-0.051-0.29l0.051-0.119l-0.051-0.034H95.639z"/>
<path fill="#4A1617" d="M90.6,52.585h0.886l-0.059-0.017l0.137,0.086l0.073,0.046l0.062-0.062l0.085-0.085l-0.186-0.077
	c0,0.158,0.207,0.199,0.343,0.227l0.044,0.009l0.038-0.025l0.051-0.034l-0.071,0.018c0.319,0.032,0.695,0.16,1.118,0.381
	l0.023,0.012h0.027c0.05,0,0.252,0.057,1.047,0.578l-0.02-0.017c0.234,0.251,0.428,0.579,0.59,1.004l0.027,0.069h0.074
	c-0.022,0-0.037-0.01-0.041-0.013c0.019,0.017,0.082,0.122,0.158,0.408l0.104-0.136h-0.034h-0.163l0.063,0.149l0.084,0.204
	l0.041-0.132l-0.051,0.035l-0.298,0.198h0.357c-0.01,0-0.018-0.005-0.021-0.008c0.001,0.001,0.049,0.051,0.049,0.308
	c0,0.122-0.064,0.347-0.369,0.732c-0.327,0.391-0.644,0.59-0.936,0.59h-0.357h-0.045L93.4,57.065l-0.051,0.051l0.167,0.017
	l-0.034-0.051l-0.032-0.048h-0.059h-0.357c-0.317,0-0.527-0.062-0.561-0.165l-0.025-0.074H92.37c-0.01,0-0.014-0.001-0.014-0.001
	s0.003,0.001,0.004,0.002c-0.001,0-0.011-0.012-0.02-0.063l-0.009-0.052l-0.047-0.025l-0.222-0.119l0.026,0.172l0.051-0.052
	l0.032-0.031V56.58v-0.034V56.49l-0.046-0.032c-0.078-0.056-0.192-0.247-0.281-0.618l-0.045,0.115l0.051-0.033l0.048-0.033v-0.058
	v-0.034v-0.011l-0.002-0.01l-0.051-0.256l-0.046,0.111l0.051-0.034l0.136-0.09l-0.136-0.091l-0.051-0.034l0.048,0.091v-0.051
	l-0.008,0.041l0.221-0.546l-0.058,0.06c0.172-0.074,0.403-0.188,0.528-0.312l-0.076,0.032h0.051h0.107v-0.109v-0.119V54.36h-0.107
	c0.014,0,0.021,0.004,0.021,0.004c-0.011-0.005-0.077-0.045-0.293-0.319l-0.021-0.026l-0.031-0.009l-0.357-0.12l-0.006-0.002
	l-0.006-0.002l-0.579-0.119l-0.036-0.007l-0.033,0.017l-0.172,0.085l0.073-0.008l-0.221-0.053l-0.026-0.005l-0.027,0.007
	c-0.489,0.135-1.059,0.381-1.793,0.775l-0.057,0.03v0.064c0-0.022,0.009-0.036,0.009-0.036c-0.016,0.023-0.104,0.111-0.589,0.422
	l-0.012,0.008l-0.01,0.011c-0.254,0.278-0.557,0.669-0.557,0.958v0.272c0,0.317,0.395,0.724,1.241,1.282l-0.03-0.029
	c0.238,0.348,0.723,0.586,1.482,0.727l1.072,0.204l-0.013-0.003c0.337,0.106,0.643,0.252,0.909,0.43l0.006,0.004l0.006,0.002
	c0.439,0.22,0.832,0.484,1.168,0.785l0.006,0.004l0.006,0.004c0.828,0.561,0.886,0.72,0.889,0.746v-0.001v0.108h0.108h0.085
	l-0.061-0.199l-0.051,0.034l-0.049,0.032v0.059v0.051v0.049l0.037,0.033c0.273,0.24,0.503,0.58,0.723,1.069l0.027,0.063h0.071
	c-0.005,0-0.007-0.001-0.007-0.001s0.054,0.037,0.086,0.265l0.014,0.094h0.094c-0.021,0-0.035-0.009-0.039-0.012
	c0.014,0.012,0.094,0.102,0.294,0.704l-0.005-0.021l0.12,0.987l0.005-0.049l-0.085,0.237l-0.023,0.064l0.048,0.049l0.052,0.052
	l-0.03-0.094c-0.082,0.526-0.214,0.924-0.391,1.182l-0.013,0.018l-0.005,0.022c-0.035,0.18-0.092,0.287-0.148,0.287h-0.108v0.108
	v0.068c0,0.123-0.123,0.518-1.257,1.519c-0.076,0.067-0.385,0.326-1.227,0.822l0.055-0.015c-0.12,0-0.293,0.064-0.579,0.217
	c-0.374,0.158-0.587,0.191-0.697,0.191h-0.01l-0.01,0.002c-0.542,0.097-0.772,0.142-0.87,0.201l0.056-0.016h-0.682
	c-0.008,0-0.672,0.051-0.672,0.051l0.116,0.108v-0.085V68.61h-0.107h-0.035c-0.183,0-0.33-0.025-0.451-0.076l-0.082-0.036
	l-0.05,0.075l-0.034,0.052l0.09-0.049h-0.051l0.025,0.003c-0.549-0.129-1.046-0.337-1.518-0.634l0.014,0.01
	c-0.139-0.118-0.283-0.179-0.429-0.179l0.069,0.024c-0.268-0.218-0.514-0.48-0.73-0.78l-0.032-0.044h-0.056
	c0.01,0,0.016,0.002,0.017,0.002c-0.009-0.004-0.093-0.048-0.333-0.429l-0.477-0.766l-0.018-0.028l-0.032-0.015
	c-0.086-0.036-0.121-0.086-0.121-0.172l-0.039,0.083l0.102-0.085l0.105-0.087l-0.109-0.083c0,0-0.059-0.058-0.059-0.391v-0.018
	l-0.006-0.019l-0.171-0.477l-0.102,0.145h0.051h0.045l0.031-0.031l0.034-0.034l0.027-0.027l0.004-0.039l0.086-0.886
	c0-0.01,0-0.129,0-0.129l-0.015,0.054l0.272-0.477l-0.027,0.031c0.179-0.14,0.377-0.425,0.559-0.805l-0.098,0.062
	c0.147,0,0.33-0.118,0.653-0.421l-0.053,0.027l0.17-0.034l-0.081-0.016l0.052,0.034l0.168,0.112v-0.203
	c0,0.02-0.008,0.033-0.011,0.037c0.018-0.021,0.111-0.089,0.602-0.258l-0.096-0.012l0.051,0.033l0.035,0.023l0.042-0.006
	l0.221-0.035l-0.016,0.002h0.17l-0.025-0.003c0.439,0.104,0.444,0.181,0.444,0.184v0.109h0.108h-0.001c0.001,0,0.13,0.022,0.396,0.6
	l-0.01-0.044c0,0.439-0.081,0.758-0.249,0.971l0.016-0.017c-0.242,0.198-0.347,0.214-0.373,0.214h-0.019l-0.017,0.006L87.33,63.9
	l-0.055,0.019l-0.015,0.057l-0.085,0.323l-0.004,0.014v0.014v0.767v0.013l0.003,0.014c0.156,0.609,0.353,1.007,0.597,1.213
	l-0.017-0.018c0.383,0.511,0.817,0.759,1.33,0.759l-0.02-0.002l0.188,0.034c0.003,0,0.785,0.12,0.785,0.12l-0.092-0.107v0.052v0.261
	l0.185-0.185l0.052-0.051l-0.101,0.028l0.222,0.052l0.012,0.003h0.012h0.17c0.133,0,0.211-0.086,0.211-0.228L90.6,67.158h0.137
	c-0.009,0-0.023-0.01-0.027-0.019c0,0,0.004,0.009,0.004,0.03v0.124l0.122-0.017c0.986-0.133,1.435-0.327,1.456-0.628l-0.108,0.101
	h0.137l-0.061-0.018l0.052,0.033l0.027,0.019h0.032h0.034h0.043l0.031-0.03l0.324-0.307l0.196-0.187h-0.271h-0.051l0.108,0.108
	c0-0.021,0-0.077,0.224-0.134l0.038-0.009l0.022-0.031l0.664-0.885l0.01-0.012l0.005-0.015l0.442-1.157l0.025-0.065l-0.049-0.05
	l-0.035-0.034l0.032,0.077v-0.053l-0.014,0.053l0.085-0.153l0.014-0.024V63.85c0-0.598-0.152-1.005-0.456-1.213l0.048,0.089
	c0-0.144-0.091-0.277-0.27-0.396l0.048,0.091c0-0.189-0.196-0.436-0.7-0.882c-0.513-0.406-1.084-0.733-1.701-0.974
	c0.004,0.003-1.646-0.729-1.646-0.729c0.004,0.003-0.473-0.236-0.473-0.236c-0.004-0.002-0.991-0.444-0.991-0.444
	c0.007,0.004-0.214-0.116-0.214-0.116l-0.024-0.013h-0.027c-0.02,0-0.075-0.014-0.167-0.142l-0.008-0.011l-0.01-0.008l-0.408-0.357
	l0.011,0.011c-0.163-0.188-0.401-0.437-0.608-0.552l0.023,0.017c-0.57-0.548-0.631-0.794-0.631-0.875v-0.046l-0.032-0.031
	l-0.085-0.086l0.031,0.077v-0.153c0-0.01-0.034-0.367-0.034-0.367l-0.001,0.025l0.034-0.238l0.006-0.042l-0.022-0.033l-0.034-0.052
	l-0.09,0.169h0.033h0.262l-0.185-0.185l-0.034-0.035l0.031,0.077v-0.204c0-0.646,0.298-1.236,0.884-1.758l-0.013,0.009l0.767-0.511
	l-0.022,0.012c0.308-0.115,0.495-0.225,0.606-0.354l-0.038,0.028l0.716-0.324l-0.017,0.007l0.442-0.119l-0.105-0.028l0.052,0.051
	l0.032,0.032h0.045h0.033h0.085l0.021-0.083c-0.006,0.025-0.02,0.037-0.02,0.037c0.032-0.027,0.217-0.117,1.233-0.365l0.083-0.021
	v-0.084v-0.035L90.6,52.585z M90.574,52.406c-1.333,0.326-1.353,0.401-1.373,0.487l0.104-0.082h-0.033l0.076,0.031l-0.051-0.051
	l-0.045-0.044l-0.061,0.017l-0.442,0.119l-0.009,0.002l-0.008,0.004l-0.715,0.323l-0.022,0.01l-0.016,0.019
	c-0.083,0.098-0.253,0.193-0.517,0.292l-0.012,0.005l-0.011,0.007l-0.767,0.511l-0.006,0.004l-0.006,0.005
	c-0.634,0.564-0.956,1.21-0.956,1.92v0.204v0.045l0.032,0.031l0.034,0.034l0.076-0.185h-0.033h-0.203l0.112,0.169l0.034,0.051
	l-0.017-0.075l-0.035,0.237l-0.001,0.014l0.001,0.013l0.034,0.357c-0.001-0.011-0.001,0.143-0.001,0.143v0.045l0.032,0.031
	l0.085,0.086l-0.031-0.076c0,0.243,0.228,0.58,0.697,1.03l0.01,0.011l0.012,0.007c0.141,0.078,0.336,0.257,0.55,0.504l0.005,0.006
	l0.006,0.005l0.409,0.357l-0.018-0.019c0.112,0.156,0.225,0.232,0.344,0.232l-0.052-0.013l0.222,0.118
	c0.007,0.004,0.994,0.446,0.994,0.446c-0.004-0.001,0.473,0.236,0.473,0.236c0.005,0.003,1.656,0.735,1.656,0.735
	c0.603,0.233,1.153,0.549,1.645,0.939c0.515,0.454,0.623,0.64,0.623,0.715v0.058l0.049,0.032c0.079,0.053,0.173,0.133,0.173,0.216
	v0.058l0.047,0.032c0.24,0.165,0.361,0.513,0.361,1.034l0.014-0.053l-0.085,0.152l-0.014,0.024v0.028v0.053v0.044l0.032,0.032
	l0.034,0.034l-0.025-0.115l-0.442,1.157l0.015-0.026l-0.664,0.886l0.061-0.041c-0.106,0.026-0.389,0.098-0.389,0.344v0.108h0.108
	h0.051l-0.074-0.187l-0.323,0.306l0.074-0.029H92.37l0.061,0.018l-0.051-0.033l-0.028-0.019h-0.032h-0.137h-0.101l-0.007,0.101
	c-0.006,0.078-0.141,0.276-1.269,0.429l0.123,0.107c0-0.168-0.104-0.229-0.193-0.229H90.6h-0.108v0.109
	c0,0.019-0.002,0.025-0.002,0.025c0.002-0.006,0.012-0.014,0.018-0.016c0,0-0.003,0.001-0.01,0.001h-0.17l0.024,0.002l-0.222-0.051
	l-0.058-0.014l-0.042,0.043l-0.052,0.051l0.185,0.077v-0.052v-0.093l-0.092-0.014l-0.783-0.119c0.003,0-0.184-0.034-0.184-0.034
	l-0.01-0.001h-0.01c-0.439,0-0.817-0.221-1.156-0.673l-0.008-0.01l-0.009-0.008c-0.207-0.174-0.384-0.545-0.527-1.101l0.003,0.026
	v-0.767l-0.003,0.027l0.085-0.323l-0.07,0.075l0.699-0.238l-0.035,0.006c0.127,0,0.295-0.086,0.511-0.263l0.01-0.008l0.007-0.01
	c0.199-0.253,0.296-0.614,0.296-1.104v-0.025l-0.01-0.021c-0.298-0.645-0.473-0.727-0.593-0.727l0.108,0.107
	c0-0.206-0.244-0.308-0.611-0.395l-0.012-0.003h-0.013h-0.17h-0.009l-0.009,0.002l-0.221,0.034l0.076,0.017l-0.051-0.034
	l-0.045-0.029l-0.051,0.017c-0.635,0.221-0.736,0.306-0.736,0.426l0.168-0.09l-0.051-0.034l-0.037-0.024l-0.044,0.008l-0.171,0.035
	l-0.03,0.005l-0.022,0.021c-0.318,0.3-0.45,0.362-0.505,0.362h-0.068l-0.029,0.062c-0.164,0.345-0.346,0.609-0.496,0.727
	l-0.017,0.014l-0.012,0.018l-0.271,0.478l-0.015,0.024v0.029v0.119c0.001-0.011-0.085,0.875-0.085,0.875l0.031-0.066l-0.034,0.034
	l0.077-0.031H84.88h-0.154l0.052,0.145l0.171,0.477l-0.007-0.037c0,0.407,0.083,0.517,0.146,0.564l-0.004-0.17l-0.103,0.085
	l-0.039,0.032v0.051c0,0.172,0.088,0.301,0.253,0.372l-0.049-0.043l0.477,0.766c0.307,0.487,0.419,0.528,0.5,0.528l-0.087-0.045
	c0.228,0.315,0.486,0.592,0.768,0.821l0.03,0.024h0.038c0.093,0,0.188,0.042,0.288,0.127l0.006,0.005l0.006,0.004
	c0.492,0.311,1.01,0.526,1.583,0.661l0.012,0.003h0.013h0.051h0.059l0.031-0.049l0.035-0.051l-0.133,0.039
	c0.146,0.064,0.322,0.095,0.535,0.095h0.035l-0.109-0.108v0.085v0.117l0.117-0.01l0.664-0.05c-0.009,0,0.673,0,0.673,0h0.03
	l0.024-0.016c0.075-0.045,0.442-0.109,0.798-0.174l-0.019,0.002c0.189,0,0.456-0.071,0.791-0.213
	c0.247-0.132,0.407-0.195,0.485-0.195h0.03l0.024-0.016c0.58-0.342,1.052-0.658,1.262-0.847c0.881-0.778,1.329-1.344,1.329-1.681
	v-0.068l-0.108,0.108c0.269,0,0.338-0.348,0.361-0.462l-0.017,0.04c0.195-0.284,0.339-0.712,0.426-1.271l0.009-0.054l-0.039-0.039
	l-0.051-0.052l0.025,0.113l0.085-0.238l0.009-0.023l-0.003-0.025l-0.12-0.988l-0.001-0.011l-0.003-0.01
	c-0.26-0.781-0.355-0.841-0.461-0.841l0.107,0.093c-0.043-0.298-0.142-0.45-0.294-0.45l0.099,0.063
	c-0.232-0.518-0.479-0.88-0.776-1.143l0.036,0.081v-0.051l-0.048,0.09l0.051-0.033l0.299-0.199H94.72h-0.085l0.108,0.108
	c0-0.135-0.119-0.339-0.984-0.924l0.012,0.009c-0.351-0.313-0.76-0.589-1.215-0.816l0.011,0.006
	c-0.284-0.188-0.607-0.341-0.964-0.455l-0.006-0.002l-0.006-0.001l-1.072-0.204c-0.701-0.131-1.141-0.339-1.344-0.636l-0.013-0.019
	l-0.019-0.011c-0.944-0.623-1.143-0.943-1.143-1.102v-0.272c0-0.062,0.036-0.305,0.5-0.812l-0.022,0.019
	c0.647-0.414,0.681-0.485,0.681-0.568l-0.057,0.097c0.709-0.382,1.281-0.629,1.747-0.758l-0.053,0.001l0.222,0.051l0.037,0.01
	l0.035-0.018l0.171-0.085l-0.071,0.009l0.579,0.118l-0.013-0.003l0.357,0.12l-0.051-0.036c0.264,0.335,0.359,0.398,0.443,0.398
	l-0.108-0.108v0.119l0.108-0.107h-0.051H92.41l-0.031,0.031c-0.077,0.077-0.245,0.174-0.46,0.267l-0.041,0.018l-0.017,0.041
	l-0.222,0.545l-0.008,0.02v0.021v0.051v0.058l0.049,0.033l0.051,0.033v-0.18l-0.051,0.033l-0.061,0.041l0.014,0.071l0.052,0.255
	l-0.002-0.021v0.034l0.048-0.091l-0.051,0.035l-0.062,0.041l0.017,0.073c0.089,0.375,0.22,0.64,0.366,0.744l-0.045-0.088v0.034
	l0.031-0.076l-0.051,0.051l-0.104,0.103l0.128,0.069l0.222,0.119l-0.056-0.077c0.027,0.161,0.109,0.243,0.243,0.243l-0.103-0.074
	c0.069,0.208,0.327,0.313,0.767,0.313h0.357l-0.09-0.049l0.033,0.051l0.074,0.11l0.093-0.094l0.052-0.051l-0.076,0.032h0.357
	c0.359,0,0.73-0.226,1.104-0.669c0.277-0.352,0.417-0.644,0.417-0.87c0-0.343-0.082-0.517-0.244-0.517l0.061,0.198l0.05-0.034
	l0.074-0.05l-0.033-0.082l-0.086-0.204l-0.1,0.149h0.034h0.14l-0.035-0.136c-0.146-0.557-0.268-0.557-0.326-0.557l0.102,0.068
	c-0.174-0.45-0.381-0.801-0.635-1.072l-0.01-0.011l-0.01-0.007c-0.829-0.544-1.059-0.613-1.166-0.613l0.049,0.012
	c-0.447-0.232-0.85-0.368-1.196-0.402l-0.038-0.004l-0.032,0.021l-0.052,0.034l0.081-0.017c-0.144-0.029-0.177-0.049-0.184-0.055
	c0.005,0.004,0.016,0.02,0.016,0.041v-0.262L91.63,52.4l-0.085,0.086l0.134-0.016l-0.137-0.085l-0.025-0.017h-0.031H90.6h-0.108
	v0.107v0.035L90.574,52.406z"/>
<path fill="#7FC4E2" d="M71.349,51.708c-0.221,0.052-0.352,0.156-0.485,0.335c-0.062,0.081-0.06,0.162-0.023,0.227l-0.616,0.769
	c-0.186,0.23,0.051,0.503,0.287,0.396c-0.196,0.257-0.394,0.513-0.59,0.769c-0.188,0.244,0.192,0.469,0.395,0.305
	c0.201-0.162,0.402-0.324,0.603-0.487c-0.298,0.428-0.595,0.855-0.893,1.283c-0.141,0.202,0.142,0.49,0.344,0.345
	c0.137-0.1,0.27-0.201,0.402-0.305c-0.21,0.27-0.424,0.537-0.644,0.801c-0.209,0.251,0.104,0.557,0.355,0.355
	c0.173-0.14,0.344-0.281,0.514-0.422c-0.316,0.436-0.634,0.871-0.951,1.308c-0.179,0.245,0.19,0.475,0.394,0.304
	c0.204-0.172,0.406-0.345,0.607-0.52c-0.153,0.2-0.309,0.398-0.466,0.596c-0.2,0.251,0.104,0.568,0.354,0.354
	c0.051-0.043,0.102-0.087,0.152-0.13c-0.089,0.103-0.177,0.206-0.267,0.309c-0.208,0.235,0.111,0.559,0.345,0.346
	c0.38-0.35,0.762-0.697,1.16-1.023c-0.205,0.368-0.426,0.727-0.664,1.076c-0.127,0.186,0.126,0.439,0.312,0.312
	c0.202-0.139,0.397-0.285,0.585-0.441c-0.013,0.104-0.007,0.202,0.036,0.289c0.029,0.062,0.109,0.086,0.172,0.07
	c0.099-0.023,0.133-0.066,0.163-0.162c0.017-0.054-0.007-0.124-0.052-0.158c0.052-0.209,0.26-0.535,0.316-0.658
	c0.093-0.199-0.138-0.396-0.311-0.239c-0.048,0.044-0.097,0.087-0.146,0.129c0.164-0.291,0.317-0.589,0.46-0.894
	c0.092-0.196-0.108-0.467-0.323-0.324c-0.034,0.023-0.066,0.047-0.101,0.069c0.118-0.152,0.235-0.305,0.351-0.46
	c0.177-0.235-0.187-0.463-0.384-0.296c-0.142,0.121-0.284,0.241-0.426,0.361c0.198-0.278,0.396-0.557,0.588-0.84
	c0.164-0.24-0.194-0.495-0.395-0.303c-0.231,0.222-0.466,0.442-0.701,0.66c0.313-0.431,0.628-0.862,0.941-1.294
	c0.174-0.237-0.193-0.49-0.395-0.304c-0.13,0.122-0.262,0.241-0.395,0.361c0.273-0.386,0.537-0.779,0.791-1.179
	c0.15-0.236-0.211-0.527-0.395-0.305c-0.252,0.31-0.52,0.604-0.799,0.886c0.263-0.378,0.525-0.756,0.789-1.134
	c0.175-0.252-0.19-0.471-0.395-0.305c-0.112,0.091-0.224,0.181-0.336,0.271c0.174-0.226,0.347-0.452,0.52-0.678
	c0.188-0.245-0.191-0.467-0.395-0.305c-0.029,0.023-0.059,0.047-0.088,0.07C71.629,51.771,71.514,51.669,71.349,51.708"/>
<path fill="#040000" d="M71.715,51.672c-1.209,0.112-1.636,1.386-1.658,2.418c-0.017,0.773,0.054,1.554,0.091,2.326
	c0.039,0.848,0.062,1.697,0.123,2.543c0.006,0.082,0.069,0.123,0.133,0.126c0.015,0.042,0.051,0.074,0.107,0.075
	c0.331,0.002,0.677,0.021,1.024,0.03c-0.004,1.294-0.011,2.587-0.012,3.881c-0.001,1.312-0.054,2.638,0.037,3.945
	c0,0.002,0.001,0.004,0.001,0.006c-0.2,0.061-0.378,0.188-0.478,0.385c-0.024,0.046-0.018,0.089,0.005,0.121
	c-0.033,0.188,0.053,0.355,0.214,0.446c-0.062,0.083-0.199,0.148-0.206,0.266c-0.009,0.139,0.144,0.185,0.139,0.299
	c-0.006,0.11-0.169,0.154-0.139,0.312c0.028,0.143,0.21,0.188,0.171,0.31c-0.042,0.138-0.2,0.163-0.17,0.345
	c0.036,0.217,0.222,0.203,0.179,0.447c-0.024,0.143-0.146,0.158-0.09,0.337c0.046,0.146,0.198,0.222,0.275,0.348
	c-0.162,0.118-0.227,0.333-0.1,0.524c0.068,0.104,0.137,0.077,0.112,0.186c-0.009,0.035-0.084,0.068-0.101,0.109
	c-0.037,0.092-0.027,0.165,0.019,0.252c0.038,0.072,0.126,0.099,0.165,0.161c0.021,0.016,0.04,0.031,0.061,0.048
	c0.049,0.058,0.04,0.1-0.027,0.124c-0.018,0.098-0.079,0.113-0.031,0.224c0.133,0.303,0.68,0.213,0.907,0.114
	c0.046-0.02,0.048-0.068,0.027-0.104c0.003-0.003,0.007-0.004,0.011-0.007c0.046-0.029,0.076-0.09,0.059-0.145
	c-0.064-0.198-0.065-0.327,0.182-0.402c0.102-0.029,0.135-0.184,0.031-0.236c-0.016-0.107-0.031-0.216-0.047-0.323
	c0.053-0.051,0.044-0.132,0-0.184c-0.05-0.057-0.1-0.105-0.152-0.149c0.064-0.053,0.134-0.101,0.211-0.143
	c0.076-0.041,0.08-0.143,0.026-0.2c-0.065-0.071-0.128-0.125-0.199-0.174c0.081-0.143,0.071-0.317-0.041-0.441
	c0.057-0.062,0.113-0.123,0.17-0.186c0.044-0.049,0.052-0.129,0-0.177c-0.126-0.117,0.161-0.707-0.084-0.801
	c0.045-0.174,0.055-0.352,0.008-0.53c-0.034-0.133-0.11-0.221-0.097-0.358c0.016-0.148,0.065-0.079,0.106-0.213
	c0.071-0.232-0.05-0.382-0.252-0.397c-0.096-0.091-0.211-0.154-0.336-0.19c0.145-1.265,0.119-2.563,0.109-3.832
	c-0.009-1.252,0.035-2.569-0.147-3.812c0.021-0.059,0.031-0.12,0.028-0.182c0.335-0.006,0.666-0.031,0.98-0.099
	c0.005-0.001,0.01-0.003,0.014-0.005c0.034,0.007,0.073-0.008,0.082-0.048c0.33-1.544,0.14-3.225,0.102-4.79
	C73.234,53.263,73.139,51.541,71.715,51.672 M71.975,67.207c0.013,0.033,0.055,0.037,0.079,0.016
	c0.105,0.024,0.205,0.075,0.293,0.154c0.051,0.047,0.113,0.021,0.138-0.023c0.103,0.078-0.177,0.306-0.18,0.317
	c-0.013,0.065-0.035,0.097-0.025,0.18c0.009,0.071,0.05,0.111,0.078,0.183c0.111,0.273,0.13,0.485,0.02,0.764
	c-0.036,0.089,0.067,0.168,0.148,0.148c-0.05,0.012-0.126,0.404-0.117,0.477c0.01,0.07,0.039,0.126,0.078,0.175
	c-0.062,0.067-0.124,0.134-0.187,0.2c-0.053,0.057-0.049,0.159,0.025,0.197c0.011,0.081,0.022,0.162,0.034,0.242
	c-0.072,0.053-0.093,0.172,0,0.22c0.059,0.023,0.112,0.056,0.161,0.095c-0.084,0.057-0.161,0.121-0.237,0.198
	c-0.06,0.062-0.044,0.157,0.026,0.202c0.06,0.033,0.111,0.074,0.158,0.121c-0.096,0.15-0.093,0.336,0,0.479
	c-0.101,0.049-0.188,0.117-0.233,0.228c-0.06,0.144-0.007,0.221,0.044,0.323c-0.025,0.045-0.027,0.103,0.016,0.141
	c0.005,0.004,0.01,0.009,0.015,0.014c-0.187,0.035-0.493,0.053-0.496-0.093c0-0.001,0.1-0.123,0.104-0.153
	c0.022-0.121-0.065-0.179-0.125-0.266c-0.089-0.127-0.136-0.068-0.093-0.248c0.011-0.043,0.067-0.073,0.081-0.121
	c0.033-0.129-0.283-0.496-0.115-0.551c0.071-0.022,0.107-0.089,0.093-0.162c-0.035-0.168-0.223-0.246-0.258-0.383
	c-0.043-0.166,0.146-0.285,0.124-0.451c-0.02-0.156-0.198-0.219-0.199-0.366c-0.001-0.154,0.187-0.203,0.173-0.38
	c-0.009-0.11-0.134-0.148-0.155-0.227c-0.05-0.171,0.125-0.226,0.096-0.396c-0.015-0.09-0.143-0.148-0.132-0.235
	c0.015-0.11,0.188-0.165,0.192-0.326c0.002-0.056-0.042-0.114-0.098-0.128c-0.043-0.09-0.087-0.178-0.13-0.268
	c0.012-0.03,0.012-0.057,0.005-0.079C71.534,67.26,71.758,67.182,71.975,67.207 M71.886,59.195c0.003,0.05-0.003,0.099-0.01,0.146
	c-0.001,0.004-0.016,0.007-0.016,0.011v0.006c0,0.024,0.001,0.049-0.011,0.073c-0.018,0.038,0.003,0.072,0.028,0.091
	c-0.002,0.608,0.066,1.223,0.087,1.829c0.022,0.639,0.038,1.278,0.042,1.918c0.01,1.239-0.067,2.483-0.041,3.723
	c-0.101-0.014-0.203-0.012-0.303,0.007c0.097-1.302,0.053-2.623,0.061-3.928c0.008-1.292,0.009-2.585,0.013-3.877
	C71.786,59.195,71.836,59.195,71.886,59.195 M73.033,55.074c0.033,1.31,0.02,2.606-0.015,3.916
	c-0.792-0.162-1.684-0.072-2.487-0.068c-0.029-1.3-0.118-2.603-0.179-3.9c-0.05-1.092-0.125-2.729,1.23-3.071
	C73.214,51.538,73.01,54.153,73.033,55.074"/>
<path fill="#E77478" d="M78.259,51.992c0.104-0.019,0.19-0.09,0.185-0.218c-0.012-0.242-0.123-0.381-0.343-0.478
	c-0.151-0.066-0.325,0.04-0.371,0.188c-0.088-0.112-0.171-0.226-0.249-0.346c-0.084-0.129-0.229-0.129-0.341-0.064
	c-0.027-0.058-0.057-0.112-0.088-0.167c-0.047-0.079-0.127-0.104-0.197-0.089c-0.003-0.01-0.008-0.019-0.012-0.028
	c0.013-0.026,0.02-0.058,0.018-0.093c-0.012-0.174-0.04-0.348-0.077-0.522c0.057,0.082,0.113,0.164,0.17,0.245
	c0.197,0.288,0.565-0.021,0.474-0.3c-0.014-0.04-0.027-0.08-0.041-0.12c0.188,0.149,0.553,0.01,0.471-0.269
	c-0.039-0.133-0.078-0.266-0.117-0.398c0.082,0.131,0.165,0.262,0.248,0.392c0.154,0.244,0.582,0.033,0.508-0.237
	c-0.03-0.111-0.061-0.223-0.092-0.334c0.035,0.048,0.071,0.095,0.106,0.143c0.165,0.227,0.595,0.043,0.51-0.237
	c-0.017-0.057-0.031-0.112-0.047-0.168c0.042,0.008,0.084,0.01,0.129,0.002c0.08-0.014,0.147-0.044,0.201-0.088
	c0.184,0.013,0.386-0.174,0.302-0.404c-0.088-0.243-0.261-0.346-0.513-0.313c-0.038,0.005-0.071,0.02-0.102,0.039
	c-0.013-0.019-0.024-0.037-0.036-0.056l-0.253-0.385c-0.171-0.26-0.523-0.03-0.511,0.223c-0.08-0.105-0.16-0.211-0.242-0.316
	c-0.161-0.204-0.534-0.068-0.519,0.183c-0.107-0.169-0.216-0.338-0.322-0.507c-0.153-0.241-0.587-0.033-0.507,0.236
	c0.024,0.084,0.049,0.167,0.073,0.25c-0.034-0.045-0.067-0.09-0.103-0.133c-0.217-0.273-0.58,0.015-0.481,0.306
	c0.087,0.261,0.177,0.52,0.264,0.779c-0.007-0.008-0.014-0.016-0.021-0.024c-0.211-0.23-0.529,0.004-0.439,0.279
	c0.103,0.308,0.191,0.64,0.297,0.965c-0.117,0.045-0.211,0.164-0.2,0.317c0.003,0.039,0.008,0.076,0.012,0.112
	c-0.112,0.02-0.21,0.104-0.229,0.253c-0.009,0.074-0.015,0.148-0.018,0.222c-0.106,0.036-0.186,0.132-0.147,0.278
	c0.049,0.181,0.114,0.313,0.23,0.459c0.133,0.165,0.341,0.117,0.443-0.021c0.061,0.059,0.145,0.087,0.229,0.087
	c0.044,0.158,0.084,0.316,0.119,0.478c-0.098-0.019-0.205,0.009-0.258,0.104c-0.06,0.104-0.266,0.49-0.06,0.578
	c-0.148-0.064-0.353,0.06-0.353,0.227c0,0.115-0.006,0.229-0.018,0.34c-0.137,0.017-0.259,0.124-0.22,0.286
	c0.077,0.162,0.036,0.308-0.122,0.436c-0.115-0.035-0.216,0.126-0.104,0.196c0.358,0.223,0.593-0.011,0.684-0.32
	c0.096-0.008,0.186-0.059,0.211-0.162c0.04-0.172,0.068-0.338,0.083-0.509c0.047-0.022,0.091-0.054,0.133-0.095
	c0.08-0.076,0.109-0.162,0.122-0.252c0.036,0.042,0.072,0.083,0.108,0.125c0.188,0.219,0.495,0.038,0.475-0.222
	c-0.007-0.096-0.019-0.19-0.03-0.286c0.154,0.142,0.438,0.039,0.42-0.228c-0.001-0.001-0.001-0.002-0.001-0.004
	c0.013,0.014,0.025,0.027,0.038,0.041c0.167,0.17,0.484,0.103,0.504-0.16C78.249,52.135,78.254,52.063,78.259,51.992"/>
<path fill="#040000" d="M78.75,51.432c-0.463-0.227-0.926-0.453-1.388-0.68c0.876-0.742,1.72-1.52,2.525-2.337
	c0.09-0.091,0.082-0.248-0.051-0.296c-1.004-0.369-2.002-0.769-3.024-1.08c-0.053-0.017-0.098-0.005-0.13,0.02
	c-0.036-0.013-0.078-0.008-0.101,0.034c-0.392,0.733-0.547,1.649-0.774,2.445c-0.12,0.424-0.239,0.847-0.358,1.27
	c-0.052,0.185-0.143,0.358-0.028,0.524c-0.015,0.031-0.018,0.074,0,0.103c0.163,0.266,0.492,0.265,0.759,0.391
	c0.28,0.132,0.155,0.157,0.019,0.437c-0.094,0.195-0.191,0.39-0.29,0.584c-0.232,0.456-0.478,0.905-0.736,1.347
	c-0.116,0.199-0.4,0.485-0.326,0.736c0.007,0.026,0.021,0.053,0.038,0.074c0.038,0.067,0.142,0.103,0.221,0.052
	c0.678-0.432,1.265-1.108,1.859-1.649c0.612-0.559,1.225-1.117,1.838-1.676C78.906,51.634,78.869,51.49,78.75,51.432 M76.671,53.202
	c-0.338,0.307-0.715,0.606-1.066,0.925c0.102-0.182,0.204-0.363,0.303-0.547c0.227-0.424,0.443-0.852,0.646-1.288
	c0.087-0.189,0.242-0.419,0.083-0.607c-0.066-0.079-0.163-0.099-0.256-0.132c-0.163-0.06-0.476-0.216-0.677-0.229
	c0.052-0.063,0.043-0.144-0.011-0.202c0.015-0.194,0.213-0.66,0.261-0.83c0.102-0.362,0.202-0.727,0.303-1.09
	c0.168-0.607,0.412-1.252,0.479-1.886c0.891,0.386,1.813,0.703,2.727,1.035c-0.809,0.806-1.649,1.575-2.526,2.306
	c-0.109,0.093-0.062,0.242,0.052,0.299c0.466,0.229,0.932,0.456,1.397,0.684L76.671,53.202z"/>
<path fill="#A7D8EC" d="M40.476,69.811L40.476,69.811c0.088,0,0.273,0.074,0.373,0.139c0.028-0.043,0.074-0.016,0.105-0.056
	c0.063-0.08,0.158-0.084,0.244-0.085c-0.001-0.026,0.002-0.036,0.002-0.063c-0.168,0.001-0.339-0.134-0.343-0.34
	c-0.004-0.159-0.007-0.313-0.01-0.473c-0.022,0.055-0.045,0.111-0.066,0.167c-0.109,0.279-0.595,0.269-0.614-0.064
	c-0.004-0.052-0.005-0.104-0.008-0.155c-0.143,0.171-0.471,0.204-0.551-0.054c-0.006-0.02-0.011-0.038-0.017-0.059
	c-0.218,0.13-0.57-0.075-0.469-0.388c0.101-0.31,0.259-0.537,0.483-0.771c0.128-0.133,0.308-0.086,0.419,0.028
	c0.054-0.121,0.108-0.242,0.162-0.364c0.147-0.331,0.643-0.223,0.618,0.147c-0.001,0.023-0.002,0.048-0.004,0.072
	c0.012-0.024,0.023-0.048,0.036-0.071c0.168-0.333,0.607-0.22,0.614,0.146c0.005,0.211,0.009,0.422,0.014,0.633
	c0.186-0.036,0.402,0.098,0.385,0.335c-0.015,0.201-0.022,0.402-0.028,0.604c0.046-0.052,0.094-0.104,0.144-0.153
	c0.138-0.138,0.405-0.022,0.421,0.162c0.02,0.239-0.005,0.447-0.107,0.665c-0.062,0.13-0.22,0.125-0.284,0.028
	c-0.081,0.155-0.146,0.319-0.191,0.499c-0.011,0.043-0.032,0.078-0.059,0.106c0.094,0.165,0.041,0.371-0.074,0.535
	c-0.088,0.124-0.281,0.13-0.375,0.011c-0.035-0.044-0.066-0.09-0.096-0.136c-0.067,0.229-0.394,0.26-0.532,0.085
	c-0.036-0.045-0.067-0.092-0.099-0.141c-0.021-0.004-0.075-0.146-0.095-0.153C40.137,70.52,40.264,70.213,40.476,69.811"/>
<path fill="#040000" d="M39.971,70.641c0.948,0.363,1.916,0.654,2.906,0.88c0.211,0.049,0.252-0.234,0.132-0.346
	c-0.358-0.329-0.729-0.647-1.109-0.952c0.234-0.164,0.524-0.356,0.613-0.574c0.082-0.199-0.019-0.338-0.114-0.521
	c-0.433-0.817-0.98-1.571-1.589-2.264c-0.103-0.117-0.26-0.063-0.32,0.037c-0.03-0.014-0.065-0.017-0.102,0.005
	c-0.662,0.396-1.266,0.867-1.816,1.407c-0.094,0.091-0.097,0.274,0.052,0.321c0.755,0.234,1.477,0.539,2.167,0.922
	c-0.285,0.258-0.574,0.511-0.871,0.756C39.807,70.405,39.834,70.588,39.971,70.641 M41.466,70.068
	c-0.098,0.082-0.089,0.227,0.01,0.305c0.243,0.19,0.481,0.387,0.717,0.588c-0.602-0.161-1.193-0.353-1.779-0.566
	c0.279-0.236,0.555-0.477,0.822-0.726c0.083-0.076,0.107-0.237-0.008-0.304c-0.697-0.404-1.42-0.734-2.181-0.988
	c0.469-0.443,0.961-0.854,1.479-1.242c0.002-0.002,0.003-0.004,0.006-0.007c0.406,0.466,0.783,0.954,1.116,1.476
	c0.131,0.204,0.53,0.715,0.431,0.936C41.988,69.742,41.639,69.926,41.466,70.068"/>
</svg>
