<?xml version="1.0" encoding="utf-8"?>
<!-- Generator: Adobe Illustrator 16.0.0, SVG Export Plug-In . SVG Version: 6.00 Build 0)  -->
<!DOCTYPE svg PUBLIC "-//W3C//DTD SVG 1.1//EN" "http://www.w3.org/Graphics/SVG/1.1/DTD/svg11.dtd">
<svg version="1.1" id="Layer_1" xmlns="http://www.w3.org/2000/svg" xmlns:xlink="http://www.w3.org/1999/xlink" x="0px" y="0px"
	 width="126.876px" height="112.438px" viewBox="0 0 126.876 112.438" enable-background="new 0 0 126.876 112.438"
	 xml:space="preserve">
<path fill="#ED82B1" d="M32.377,75.422c7.505,9.226,61.322,23.185,53.472-0.986c-0.874-2.697-2.441-5.107-3.989-7.481
	c-3.25-4.982-6.665-10.13-11.738-13.235c-9.033-5.529-21.064-3.057-30.042,2.56c-3.352,2.095-6.539,4.695-8.369,8.199
	C29.334,69.025,30.074,72.591,32.377,75.422"/>
<path fill="#EF92BB" d="M75.516,73.364c-0.524-2.802-0.646-5.37-1.532-7.765c-1.605-4.33-4.045-8.771-8.724-11.245
	c-7.377-3.899-16.948-2.05-24.054,2.45c-3.3,2.091-6.517,4.961-8.217,8.497c-1.972,4.104-1.205,7.343,1.171,9.831
	C40.755,82.041,79.097,92.493,75.516,73.364"/>
<path fill="#F2A2C5" d="M65.183,72.296c0.437-2.989,0.523-5.449,0.924-8.051c-1.041-3.193-1.379-7.428-5.708-9.255
	c-5.631-2.378-12.823-1.027-18.063,2.34c-3.25,2.09-6.507,5.219-8.064,8.796c-1.588,3.649-0.819,6.577,1.673,8.718
	C41.427,79.558,68.573,85.385,65.183,72.296"/>
<path fill="#F4B4D0" d="M54.85,71.226c1.092-3.136,2.007-5.619,3.38-8.336c0.063-2.299,1.354-6.157-2.692-7.264
	c-3.775-1.032-8.687,0.013-12.073,2.231c-3.196,2.092-6.518,5.466-7.912,9.093c-1.226,3.185-0.505,5.865,2.176,7.606
	C41.894,77.264,56.011,78.773,54.85,71.226"/>
<path fill="#F6C4DA" d="M44.517,70.156c1.748-3.282,3.489-5.791,5.837-8.619c1.167-1.406,4.135-5.323,0.322-5.275
	c-1.88,0.024-4.539,1.07-6.084,2.12c-3.123,2.124-6.559,5.705-7.76,9.393c-0.882,2.714-0.309,5.42,2.679,6.494
	C42.245,75.251,43.446,72.164,44.517,70.156"/>
<path fill="#F6C7DC" d="M55.426,50.598c0.59,0.173,1.136,0.405,1.614,0.714c-1.1-0.095-2.195,0.019-3.279,0.278
	c-2.207,0.526-4.112,1.555-6.084,2.597c-3.14,1.658-6.343,2.985-9.076,5.319c-2.361,2.017-4.669,4.646-5.925,7.521
	c-1.14,2.608,0.202,6.294,1.617,8.577c0.672,1.083,1.301,2.044,2.278,2.909c0.022,0.02,0.05,0.043,0.075,0.065
	c1.868,1.614,4.899,2.578,6.538,4.339c-1.169-0.475-2.322-0.986-3.456-1.543c-2.757-1.344-5.898-2.979-7.764-5.505
	c-0.06-0.085-0.069-0.173-0.04-0.253c-5.265-6.357,0.367-14.222,6.021-18.139C42.895,54.049,49.167,51.314,55.426,50.598
	 M81.425,65.232c-2.484-3.77-5.149-7.455-8.66-10.339c-0.92-0.759-1.897-1.419-2.922-1.985c-0.232-0.009-0.461,0.021-0.678,0.1
	c0.014-0.141,0.062-0.27,0.138-0.39c0.017-0.024,0.035-0.048,0.053-0.073l-0.097,0.048L68.2,53.13
	c1.076,0.1,1.928,1.029,2.695,1.762c0.066,0.065,0.134,0.13,0.201,0.189c1.265,1.156,2.516,2.173,3.587,3.542
	c3,3.84,5.508,7.972,7.511,12.417c1.342,2.978,3.421,6.79,2.827,10.14c-0.459,2.594-2.59,3.641-4.54,5.096
	c1.016-0.758,2.897-0.77,4.07-1.6c1.236-0.877,1.999-2.086,2.4-3.601C88.456,75.398,84.328,69.645,81.425,65.232"/>
<path fill="#8C1C2B" d="M81.426,65.231c-2.485-3.769-5.151-7.454-8.662-10.338c-0.919-0.759-1.896-1.419-2.92-1.985
	c-0.178-0.102-0.358-0.199-0.541-0.29c-0.014-0.009-0.03-0.02-0.044-0.025c-2.377-1.22-4.975-1.964-7.661-2.287
	c-1.975-0.236-3.996-0.218-6.02,0.014c-6.259,0.717-12.533,3.452-17.48,6.882c-5.654,3.916-11.286,11.781-6.021,18.138
	c-0.029,0.08-0.02,0.169,0.04,0.254c1.865,2.524,5.005,4.158,7.764,5.505c1.133,0.555,2.287,1.068,3.454,1.543
	c3.22,1.322,6.549,2.373,9.909,3.272c4.863,1.3,9.864,2.139,14.896,2.404c3.866,0.21,7.811,0.266,11.559-0.81
	c0.307-0.088,0.612-0.182,0.916-0.286c2.973-1.011,5.506-3.022,6.338-6.146C88.456,75.398,84.328,69.645,81.426,65.231
	 M82.49,85.082c-0.526,0.325-1.078,0.604-1.651,0.842c-3.073,1.282-6.712,1.422-9.933,1.394c-5.053-0.045-10.06-1.066-14.963-2.213
	c-4.797-1.118-9.52-2.624-14.073-4.496c-1.698-0.698-3.48-1.453-5.147-2.373c-1.401-0.775-2.728-1.672-3.854-2.755
	c-0.099-0.095-0.189-0.191-0.282-0.292c-0.063-0.065-0.139-0.091-0.212-0.085c-5.939-8.827,4.339-16.994,11.531-20.631
	c3.119-1.579,6.535-2.68,10.006-3.162c1.099-0.152,2.2-0.24,3.302-0.262c0.032-0.004,0.063-0.006,0.097-0.003
	c0.24-0.009,0.482-0.011,0.725-0.005c0.173-0.002,0.345,0.003,0.521,0.011c4.117,0.116,8.173,1.188,11.776,3.466
	c0.191,0.122,0.379,0.244,0.563,0.373c3.871,2.644,6.688,6.659,9.252,10.507c2.292,3.44,4.727,6.927,5.635,11.022
	C86.55,79.893,85.583,83.174,82.49,85.082"/>
<path fill="#8C1C2B" d="M58.988,66.011c0.353-3.629-2.8-7.214-6.446-7.327c-3.645-0.113-7.014,3.271-6.887,6.915
	c0.083,2.345,1.377,4.464,2.771,6.352c2.936,3.977,6.496,7.489,10.515,10.368c5.586-2.156,10.62-5.727,14.5-10.286
	c1.88-2.211,3.557-5.277,2.283-7.886c-1.005-2.059-3.507-2.943-5.796-3.025c-4.041-0.144-8.106,1.695-10.667,4.825"/>
<path fill="#C35F70" d="M55.427,60.962c-0.043-0.044-0.088-0.085-0.134-0.126c-1.43-1.263-3.359-1.206-5.007-0.438
	c-2.15,1.008-2.768,3.626-2.426,5.818c0.643,4.125,3.047,6.833,6.169,9.354c-3.245-2.376-5.58-6.78-4.315-10.796
	c0.471-1.495,1.71-2.472,3.257-2.647c1.789-0.2,3.104,1.118,4.26,2.284c-0.394-0.396-0.553-1.5-0.82-2.023
	C56.144,61.869,55.844,61.369,55.427,60.962"/>
<path fill="#D58A96" d="M48.314,63.763c0.622-1.393,2.431-2.862,4.029-2.914c0.604-0.021,1.148,0.42,1.709,0.57
	c-1.08-0.91-2.329-1.32-3.681-0.771c-0.637,0.257-1.217,0.788-1.578,1.363C48.433,62.588,48.56,63.215,48.314,63.763"/>
<path fill="#C35F70" d="M68.32,63.311c1.641-0.186,3.688,0.59,4.403,2.154c1.005,2.195-0.317,4.377-2.072,5.689
	c3.529-1.048,6.881-5.82,2.549-8.117c-1.088-0.577-2.114-0.869-3.311-0.561C69.344,62.619,68.646,62.833,68.32,63.311"/>
<path fill="#D58A96" d="M71.127,63.095c1.032-0.11,2.188,0.125,2.834,0.982c0.918,1.217,0.606,3.394-0.741,4.204
	c1.334-1.765,0.156-5.668-2.519-5.121C70.84,63.132,70.982,63.109,71.127,63.095"/>
<path fill="#F8CD77" d="M68.628,36.214c-0.347,1.156-0.198,2.327-0.359,3.489c3.17-3.015,6.76,1.534,9.18,3.202
	C77.975,38.559,72.356,34.834,68.628,36.214"/>
<path fill="#8C1C2B" d="M68.494,36.81c-0.075,0.007-0.107-0.1-0.046-0.137c2.701-1.665,6.613,0.526,8.455,2.555
	c0.223,0.244-0.036,0.729-0.357,0.517c-1.241-0.824-2.388-1.949-3.758-2.548C71.332,36.561,70.028,36.641,68.494,36.81
	 M67.907,39.943c2.757-1.586,5.842,0.47,7.885,2.235c0.286,0.247,0.698-0.104,0.499-0.425c-0.952-1.534-2.625-2.416-4.321-2.896
	c-1.353-0.384-3.435-0.418-4.207,0.955C67.711,39.904,67.824,39.99,67.907,39.943"/>
<path fill="#F8CD77" d="M58.997,43.078c-0.221,0.329-0.301,0.729-0.377,1.115c-0.357,1.82-0.716,3.64-1.072,5.459
	c-0.172,0.865-0.336,1.79,0.001,2.604c0.303,0.731,0.963,1.249,1.643,1.654c2.668,1.594,6.067,1.906,8.981,0.822
	c-0.061-1.689,0.647-3.295,1.182-4.898c0.534-1.604,0.888-3.416,0.159-4.94c-0.649-1.358-2.061-2.224-3.522-2.579
	c-1.461-0.355-2.989-0.273-4.491-0.187C60.573,42.18,59.512,42.307,58.997,43.078"/>
<path fill="#F8D484" d="M59.528,44.351c-0.185,0.275-0.264,0.608-0.338,0.937c-0.346,1.538-0.65,3.151-0.873,4.711
	c-0.104,0.742-0.187,1.517,0.131,2.184c0.285,0.598,0.849,1.028,1.432,1.367c2.292,1.326,5.213,1.543,7.548,0.439
	c0.005-1.363,0.587-2.726,1.012-4.086c0.425-1.361,0.688-2.877,0.083-4.116c-0.553-1.13-1.76-1.86-3.025-2.168
	c-1.264-0.309-2.599-0.246-3.874-0.132C60.836,43.556,59.962,43.701,59.528,44.351"/>
<path fill="#F9DE94" d="M60.059,45.623c-0.148,0.223-0.227,0.488-0.298,0.757c-0.333,1.256-0.586,2.662-0.672,3.965
	c-0.039,0.618-0.039,1.244,0.259,1.763c0.269,0.467,0.735,0.811,1.223,1.079c1.915,1.059,4.356,1.182,6.112,0.056
	c0.069-1.037,0.525-2.155,0.842-3.272s0.492-2.338,0.01-3.29c-0.458-0.902-1.463-1.497-2.529-1.758
	c-1.068-0.261-2.209-0.221-3.26-0.077C61.099,44.933,60.413,45.095,60.059,45.623"/>
<path fill="#F9E5A2" d="M60.589,46.896c-0.113,0.169-0.188,0.37-0.257,0.577c-0.321,0.975-0.522,2.174-0.471,3.219
	c0.024,0.494,0.106,0.97,0.387,1.342c0.25,0.333,0.621,0.591,1.012,0.792c1.537,0.79,3.501,0.818,4.679-0.328
	c0.134-0.71,0.464-1.586,0.672-2.459c0.206-0.873,0.292-1.8-0.067-2.466c-0.362-0.675-1.162-1.134-2.031-1.347
	c-0.871-0.212-1.82-0.194-2.644-0.022C61.359,46.308,60.863,46.488,60.589,46.896"/>
<path fill="#FAEEB2" d="M65.554,48.467c-0.711-1.17-3.611-1.509-4.433-0.3c-0.623,0.916-0.898,2.995,0.026,3.792
	c1.148,0.989,3.296,1.258,4.047-0.206C65.587,50.982,66.017,49.228,65.554,48.467"/>
<g>
	<g>
		<defs>
			
				<rect id="SVGID_55_" x="58.805" y="42.177" transform="matrix(-0.9786 -0.2059 0.2059 -0.9786 118.2086 100.8293)" width="11.09" height="4.175"/>
		</defs>
		<clipPath id="SVGID_2_">
			<use xlink:href="#SVGID_55_"  overflow="visible"/>
		</clipPath>
		<g clip-path="url(#SVGID_2_)">
			<defs>
				
					<rect id="SVGID_57_" x="58.805" y="42.177" transform="matrix(-0.9786 -0.2059 0.2059 -0.9786 118.2086 100.8293)" width="11.09" height="4.175"/>
			</defs>
			<clipPath id="SVGID_4_">
				<use xlink:href="#SVGID_57_"  overflow="visible"/>
			</clipPath>
			<path clip-path="url(#SVGID_4_)" fill="#D8B77E" d="M61.023,42.111c-0.273,0.035-0.541,0.086-0.792,0.193
				c-0.375,0.161-1.189,0.64-1.341,1.026c-0.389,0.987,1.832,1.565,2.385,1.813c1.958,0.881,6.007,2.628,8.023,1.024
				c1.457-1.159-0.741-2.922-1.884-3.213c-0.919-0.233-1.773-0.33-2.684-0.652c-0.871-0.308-1.743-0.549-2.666-0.334
				C61.729,42.047,61.373,42.066,61.023,42.111"/>
		</g>
	</g>
</g>
<path fill="#8C1C2B" d="M58.864,43.01c-1.019,1.923-1.205,4.458-1.635,6.576c-0.322,1.595-0.278,2.863,0.945,4.034
	c2.543,2.431,7.001,2.53,10.114,1.459c0.165-0.056,0.246-0.202,0.25-0.369c0.062-3.834,3.772-8.462-0.012-11.631
	c-1.29-1.081-3.176-1.291-4.788-1.357c-1.628-0.068-3.82-0.196-5.008,1.117c-0.31,0.342,0.224,0.824,0.531,0.479
	c1.014-1.142,3.129-0.924,4.519-0.93c2.024-0.009,3.894,0.65,5.152,2.289c1.997,2.597-0.697,6.662-1.106,9.351
	c-0.163,1.075-2.369,0.946-3.225,0.972c-1.666,0.048-3.317-0.426-4.798-1.15c-2.41-1.179-2.138-3.089-1.71-5.346
	c0.326-1.729,0.411-3.712,1.034-5.357C59.195,42.972,58.956,42.837,58.864,43.01"/>
<path fill="#F8CD77" d="M65.646,30.684c0.471-0.701,1.207-1.34,2.049-1.281c0.861,0.061,1.525,0.861,1.717,1.703
	c0.192,0.843,0.02,1.72-0.151,2.566c-0.757,3.713-1.513,7.426-2.268,11.14c-1.646,0.088-3.311-0.243-4.797-0.952
	c0.645-3.219,1.289-6.439,2.085-9.624C64.591,32.998,64.934,31.741,65.646,30.684"/>
<path fill="#F8D484" d="M65.96,30.887c0.371-0.628,0.953-1.239,1.629-1.247c0.654-0.009,1.291,0.414,1.458,1.068
	c0.193,0.765,0.028,1.538-0.138,2.298c-0.023,0.107-0.047,0.216-0.07,0.324c-0.174,0.804-0.332,1.617-0.501,2.423
	c-0.622,2.999-1.236,6.002-1.886,8.995c-1.285,0.059-2.591-0.256-3.76-0.799c0.393-2.433,1.259-6.568,1.995-9.551
	c0.067-0.27,0.13-0.519,0.188-0.738C65.136,32.695,65.453,31.736,65.96,30.887"/>
<path fill="#F9DE94" d="M66.272,31.089c0.279-0.549,0.688-1.134,1.209-1.214c0.442-0.067,1.068-0.031,1.2,0.438
	c0.22,0.791-0.003,1.571-0.188,2.345c-0.024,0.109-0.051,0.22-0.076,0.33c-0.189,0.823-0.346,1.657-0.521,2.481
	c-0.648,3.075-1.281,6.153-1.986,9.217c-0.928,0.027-1.871-0.268-2.721-0.645c0.14-1.647,1.229-6.698,1.904-9.479
	c0.07-0.29,0.132-0.535,0.183-0.725C65.526,32.893,65.833,31.951,66.272,31.089"/>
<path fill="#F9E5A2" d="M66.585,31.292c0.194-0.468,0.452-0.921,0.791-1.182c0.239-0.034,0.85-0.48,0.939-0.194
	c0.254,0.817-0.032,1.605-0.235,2.391c-0.028,0.112-0.057,0.226-0.084,0.337c-0.203,0.841-0.357,1.7-0.539,2.544
	c-0.677,3.149-1.328,6.305-2.086,9.435c-0.569-0.001-1.154-0.279-1.686-0.489c-0.11-0.861,1.198-6.829,1.816-9.409
	c0.074-0.308,0.134-0.553,0.175-0.71C65.917,33.09,66.224,32.17,66.585,31.292"/>
<path fill="#FAEEB2" d="M64.184,44.223c-0.413-0.086,1.623-8.977,1.894-10.032c0.231-0.902,0.554-1.795,0.822-2.695
	c0.114-0.384,0.2-0.781,0.37-1.147c0.031-0.067,0.64-0.933,0.68-0.828c0.323,0.83-0.062,1.641-0.283,2.438
	c-0.269,0.965-0.437,1.97-0.649,2.948c-0.704,3.224-1.374,6.454-2.188,9.651C64.618,44.527,64.395,44.268,64.184,44.223"/>
<path fill="#FFFFFF" d="M69.64,30.834l-0.263-0.242c-0.263-0.182-0.51-0.317-0.747-0.416c-4.45-1.867-4.497,9.793-4.436,14.108
	c0.006,0.216,0.008,0.411,0.011,0.586c-0.729-0.163-1.443-0.402-2.157-0.72c-0.134-0.061-0.198-0.222-0.17-0.358
	c0.522-2.572,1.009-5.154,1.613-7.712c0.277-1.173,0.57-2.342,0.938-3.49c0.23-0.71,0.737-1.313,1.044-1.996
	c0.04-0.092,0.114-0.118,0.188-0.103l0.003,0.001C66.968,28.765,69.054,29.09,69.64,30.834"/>
<path fill="#8C1C2B" d="M68.666,38.064c0.089-0.435,0.187-0.866,0.286-1.302c0.03-0.129,0.058-0.257,0.088-0.388
	c0.328-1.408,0.657-2.828,0.748-4.264c0.031-0.482-0.025-0.909-0.146-1.273l-0.002-0.004c-0.586-1.744-2.672-2.069-3.974-0.343
	l-0.004-0.001c-0.073-0.016-0.148,0.012-0.188,0.104c-0.307,0.683-0.813,1.286-1.044,1.996c-0.368,1.148-0.661,2.317-0.938,3.49
	c-0.604,2.557-1.091,5.14-1.613,7.712c-0.028,0.136,0.036,0.298,0.17,0.358c0.713,0.316,1.429,0.557,2.157,0.72
	c0.908,0.206,1.838,0.3,2.809,0.281c0.149-0.002,0.281-0.128,0.312-0.27C67.792,42.614,68.204,40.333,68.666,38.064 M66.784,44.124
	c-0.096,0.484-1.453,0.449-2.59,0.16c-0.882-0.223-1.632-0.597-1.554-1.001c0.257-1.288,0.524-2.575,0.799-3.86
	c0.271-1.285,0.56-2.563,0.86-3.843c0.331-1.428,0.553-3.599,1.488-4.766c0.055-0.065,0.06-0.137,0.039-0.192
	c0.659-0.782,1.7-1.674,2.803-0.446c0.072,0.083,0.146,0.175,0.218,0.275c0.562,0.775,0.348,1.797,0.201,2.643
	c-0.208,1.21-0.481,2.408-0.717,3.61C67.852,39.182,67.28,41.645,66.784,44.124"/>
<path fill="#E676AA" d="M75.72,40.686c2.346-2.748,6.146-3.949,9.759-3.81c3.61,0.14,7.073,1.47,10.31,3.079
	c2.359,1.175,4.695,2.55,6.363,4.59c1.67,2.04,2.575,4.87,1.75,7.374c-0.855,2.597-3.43,4.364-6.115,4.875
	c-2.688,0.511-5.469-0.052-8.065-0.913c-3.521-1.167-6.908-2.928-9.506-5.575c-2.597-2.646-4.339-6.255-4.25-9.962"/>
<path fill="#E989B5" d="M76.946,40.708c2.21-2.277,5.51-3.271,8.665-3.171c3.158,0.102,6.2,1.185,9.065,2.533
	c2.091,0.984,4.177,2.135,5.723,3.83c1.475,1.616,2.528,3.907,1.691,6.101c-0.231,0.608-0.621,1.112-1.063,1.521
	c-0.44,0.408-0.942,0.729-1.487,1.003c-1.021,0.512-2.203,0.859-3.41,1.006c-2.492,0.305-5.068-0.115-7.491-0.675
	c-0.565-0.131-1.127-0.269-1.683-0.419c-1.34-0.359-2.655-0.777-3.902-1.433c-1.239-0.649-2.341-1.649-3.143-2.688
	c-1.771-2.284-3.023-5.001-2.781-7.866"/>
<path fill="#ED9DC2" d="M78.173,40.73c2.07-1.807,4.872-2.593,7.573-2.531c2.702,0.062,5.325,0.898,7.821,1.986
	c1.821,0.795,3.648,1.723,5.082,3.072c1.27,1.195,2.475,2.942,1.632,4.825c-0.244,0.546-0.688,0.938-1.149,1.203
	c-0.46,0.265-0.951,0.415-1.473,0.543c-0.976,0.238-2.07,0.393-3.184,0.439c-2.297,0.098-4.668-0.178-6.917-0.437
	c-0.525-0.061-1.046-0.12-1.562-0.18c-1.245-0.146-2.479-0.293-3.669-0.788c-1.186-0.489-2.178-1.518-2.721-2.533
	c-0.984-1.843-1.708-3.749-1.311-5.771"/>
<path fill="#F3B1CE" d="M79.399,40.754c1.933-1.336,4.234-1.916,6.482-1.893c2.246,0.022,4.449,0.611,6.576,1.44
	c1.551,0.604,3.107,1.319,4.439,2.312c1.055,0.786,2.416,1.977,1.574,3.552c-0.259,0.482-0.752,0.765-1.232,0.886
	c-0.481,0.119-0.964,0.102-1.46,0.082c-0.935-0.035-1.938-0.073-2.958-0.127c-2.103-0.11-4.27-0.241-6.345-0.197
	c-0.485,0.01-0.966,0.029-1.441,0.058c-1.149,0.068-2.302,0.189-3.436-0.143c-1.132-0.329-2.048-1.338-2.297-2.38
	c-0.313-1.301-0.394-2.495,0.158-3.676"/>
<path fill="#F6C4DA" d="M96.662,44.247c0.835-1.273-0.691-1.878-1.518-2.277c-4.669-2.258-9.613-3.552-14.519-1.193
	c-0.706,0.338-1.449,0.817-1.627,1.58c-0.25,1.061,0.795,2.057,1.872,2.228c1.077,0.169,2.15-0.222,3.204-0.505
	c3.212-0.86,6.683-0.734,9.824,0.359c0.471,0.164,0.946,0.352,1.445,0.376C95.846,44.839,96.388,44.666,96.662,44.247"/>
<path fill="#F6C7DC" d="M104.394,51.474c-0.146-0.36-0.316-0.716-0.504-1.068c-2.097-3.985-6.312-7.29-9.922-9.181
	c-3.213-1.682-7.519-2.538-11.13-2.42c-1.362,0.045-2.646,0.379-3.908,0.892c-0.705,0.286-1.723,1.083-2.575,1.169
	c-0.206,0.025-0.404,0.006-0.582-0.075c-0.049-0.02-0.094-0.044-0.138-0.072c0.025-0.071,0.048-0.144,0.077-0.216
	c0.066-0.178,0.143-0.352,0.23-0.52c0.063-0.009,0.127,0,0.188,0.018h0.003c4.382-4.893,12.204-3.924,17.699-1.523
	c3.259,1.424,6.94,3.162,8.997,6.218C104.136,46.631,104.987,49.154,104.394,51.474"/>
<path fill="#8C1C2B" d="M102.829,44.694c-2.057-3.056-5.738-4.795-8.997-6.219C88.339,36.077,80.515,35.107,76.133,40h-0.001
	c-0.062-0.018-0.126-0.026-0.189-0.018c-0.182,0.021-0.353,0.153-0.354,0.385c-0.043,7.072,5.281,12.155,11.356,14.85
	c5.412,2.397,13.969,3.919,17.078-2.701c0.159-0.342,0.282-0.689,0.372-1.043C104.987,49.154,104.136,46.632,102.829,44.694
	 M103.242,52.65c-1.353,2.901-4.861,3.971-7.797,3.989c-3.146,0.021-6.376-1.218-9.176-2.544c-5.223-2.479-9.646-7.264-9.915-13.23
	c-0.008-0.181-0.011-0.361-0.012-0.543c-0.002-0.011,0-0.02-0.004-0.029c4.715-4.003,11.028-3.48,16.469-1.148
	c4.419,1.895,11.697,5.677,11.082,11.261C103.813,51.124,103.604,51.871,103.242,52.65"/>
<path fill="#EF8AA8" d="M61.68,33.704c-2.534-0.101-2.94,0.164-3.87,2.524c0.101-2.534-0.164-2.94-2.524-3.87
	c2.534,0.102,2.94-0.163,3.87-2.522C59.055,32.369,59.32,32.775,61.68,33.704"/>
<path fill="#EF8AA8" d="M45.35,34.969c-1.596-0.063-1.851,0.103-2.437,1.589c0.063-1.596-0.104-1.852-1.589-2.437
	c1.596,0.063,1.852-0.104,2.437-1.59C43.697,34.127,43.864,34.383,45.35,34.969"/>
<path fill="#FFFFFF" d="M52.856,32.106c-1.297-0.051-1.506,0.085-1.98,1.292c0.053-1.296-0.084-1.504-1.291-1.979
	c1.297,0.052,1.505-0.084,1.979-1.292C51.513,31.424,51.649,31.632,52.856,32.106"/>
<path fill="#8C1C2B" d="M42.03,41.924c-0.048-0.001-0.087,0.008-0.116,0.008l-0.006,0.214c0.161,0.091,0.417,0.217,0.78,0.378
	c0.438,0.218,0.979,0.503,1.607,0.865c0.627,0.352,0.997,0.557,1.111,0.624c0.086,0.035,0.172,0.07,0.248,0.115
	c0.105,0.024,0.162,0.059,0.161,0.091c-0.003,0.129-0.026,0.246-0.06,0.342c-0.04,0.084-0.101,0.157-0.16,0.199
	c-0.068,0.04-0.138,0.049-0.213,0.046c-0.106-0.002-0.231-0.061-0.372-0.172c-0.132-0.111-0.416-0.324-0.869-0.659
	c-0.494-0.316-1.054-0.655-1.689-1.018c-0.2-0.104-0.39-0.195-0.561-0.275c-0.017,0.493-0.009,0.88,0.021,1.148
	c-0.004,0.118-0.036,0.235-0.088,0.363c-0.102,0.157-0.19,0.23-0.277,0.227c-0.078-0.001-0.145-0.036-0.2-0.103
	c-0.073-0.13-0.108-0.261-0.113-0.411c-0.016-0.108-0.012-0.227-0.009-0.354c0.011-0.364,0.029-0.642,0.036-0.847
	c-0.06,0.03-0.118,0.062-0.167,0.081c-0.363,0.172-0.787,0.427-1.28,0.755c-0.493,0.35-0.859,0.607-1.076,0.782
	c-0.237,0.186-0.416,0.32-0.535,0.423c-0.139,0.104-0.218,0.146-0.256,0.143c-0.059-0.001-0.116-0.002-0.163-0.025
	c-0.058-0.023-0.114-0.068-0.162-0.134c-0.045-0.065-0.062-0.132-0.061-0.185c0.003-0.097,0.015-0.182,0.046-0.245
	s0.071-0.128,0.112-0.19c0.086,0.004,0.253-0.057,0.489-0.178c0.226-0.121,0.6-0.346,1.122-0.674
	c0.532-0.326,1.004-0.603,1.417-0.826c0.226-0.1,0.402-0.181,0.529-0.229l0.008-0.247c-0.9,0.036-1.667,0.109-2.288,0.197
	c-0.185,0.038-0.33,0.066-0.446,0.084c-0.137,0.027-0.252,0.034-0.35,0.032c-0.096-0.004-0.172-0.069-0.235-0.201
	c-0.073-0.132-0.099-0.25-0.096-0.335c0.001-0.044,0.021-0.075,0.07-0.094c0.872-0.081,1.677-0.153,2.412-0.196
	c0.321-0.011,0.639-0.033,0.95-0.045l0.008-0.3c0.007-0.183,0.002-0.365-0.003-0.538c0.003-0.063-0.006-0.118-0.023-0.183
	c-0.476,0.071-0.98,0.153-1.514,0.243l-0.652,0.13c-0.069,0.042-0.147,0.051-0.233,0.047c-0.174-0.048-0.256-0.168-0.251-0.34
	c0.005-0.14,0.037-0.257,0.106-0.351c0.215-0.015,0.408-0.031,0.583-0.046c0.562-0.049,1.211-0.125,1.959-0.23
	c0.747-0.105,1.522-0.189,2.328-0.272c0.291-0.034,0.503-0.049,0.619-0.046c0.143,0.091,0.228,0.18,0.243,0.266
	c-0.004,0.15-0.025,0.225-0.046,0.246c-0.155,0.017-0.378,0.041-0.669,0.054c-0.504,0.049-1.075,0.107-1.735,0.192
	c0.018,0.045,0.036,0.089,0.034,0.12c-0.001,0.065-0.023,0.172-0.057,0.299c-0.045,0.213-0.061,0.396-0.065,0.535l-0.003,0.149
	l0.502-0.017c1.073-0.03,1.751-0.053,2.032-0.077l0.408-0.051c0.067,0.001,0.181,0.069,0.352,0.183
	c0.169,0.134,0.263,0.233,0.261,0.308c-0.006,0.182-0.086,0.276-0.241,0.271c-0.096-0.003-0.192-0.017-0.298-0.041
	c-0.105-0.025-0.201-0.038-0.289-0.041C44.138,41.893,43.259,41.897,42.03,41.924 M44.087,48.641
	c-0.006,0.15-0.075,0.223-0.211,0.23c-0.087-0.003-0.174-0.016-0.25-0.041c-0.097-0.024-0.183-0.037-0.26-0.039
	c-0.309-0.01-0.82-0.004-1.548,0.027c-0.715,0.021-1.316,0.067-1.782,0.16c-0.106,0.006-0.194,0.025-0.263,0.046
	c-0.021,0.02-0.031,0.053-0.052,0.073c-0.059,0.052-0.137,0.081-0.214,0.078c-0.116-0.003-0.202-0.037-0.249-0.093
	c-0.055-0.065-0.083-0.12-0.081-0.175c-0.088-0.903-0.099-2.148-0.048-3.768c0.001-0.043-0.008-0.096-0.015-0.161
	c-0.019-0.033-0.018-0.065-0.017-0.108s0.022-0.085,0.071-0.116c0.03-0.021,0.098-0.039,0.194-0.037
	c0.098,0.003,0.201,0.039,0.297,0.095c0.02,0.023,0.038,0.035,0.056,0.046c1.282-0.176,2.454-0.258,3.517-0.226
	c0.163,0.006,0.317,0.053,0.469,0.133c0.133,0.079,0.256,0.18,0.367,0.311c0.092,0.144,0.146,0.307,0.141,0.478
	c-0.02,0.665-0.068,1.286-0.135,1.864l-0.146,1.004C44.033,48.511,44.088,48.577,44.087,48.641 M43.553,45.566
	c-0.032-0.238-0.191-0.371-0.463-0.38c-0.676-0.021-1.324,0.014-1.945,0.091c-0.621,0.089-1.028,0.15-1.223,0.188
	c-0.078,0.02-0.137,0.039-0.166,0.038c-0.014,0.45-0.026,0.826-0.025,1.137c0.059,0.002,0.126,0.004,0.185-0.005
	c0.058,0.003,0.415-0.02,1.064-0.075c0.63-0.044,1.405-0.097,2.334-0.132c0.078-0.008,0.136-0.018,0.155-0.017l0.039-0.02
	C43.525,46.112,43.544,45.833,43.553,45.566 M41.761,46.96c-0.601,0.046-1.153,0.094-1.677,0.163l-0.36,0.054
	c-0.006,0.182,0,0.311,0.007,0.419c0.007,0.397,0.018,0.688,0.041,0.859c0.359-0.042,0.688-0.075,0.998-0.087
	c0.426-0.031,0.833-0.05,1.229-0.059c0.64-0.035,1.036-0.055,1.199-0.061c0.021,0.001,0.049-0.009,0.087-0.009
	c0.015-0.117,0.038-0.245,0.061-0.373c0.04-0.321,0.077-0.621,0.116-0.92c-0.136-0.004-0.242-0.018-0.3-0.02
	C42.814,46.917,42.351,46.936,41.761,46.96"/>
<path fill="#8C1C2B" d="M50.943,33.981c-0.04-0.002-0.072,0.005-0.096,0.004l-0.01,0.178c0.133,0.078,0.345,0.187,0.643,0.327
	c0.36,0.187,0.807,0.433,1.32,0.742c0.516,0.303,0.82,0.478,0.914,0.536c0.07,0.029,0.141,0.061,0.202,0.1
	c0.088,0.021,0.135,0.051,0.133,0.077c-0.004,0.107-0.025,0.203-0.054,0.283c-0.035,0.07-0.087,0.13-0.136,0.163
	c-0.059,0.032-0.114,0.039-0.179,0.035c-0.089-0.005-0.19-0.054-0.306-0.149c-0.107-0.094-0.34-0.274-0.711-0.561
	c-0.404-0.271-0.864-0.56-1.387-0.871c-0.165-0.089-0.321-0.169-0.462-0.237c-0.021,0.41-0.021,0.729,0.001,0.954
	c-0.005,0.098-0.033,0.195-0.079,0.3c-0.086,0.129-0.162,0.188-0.234,0.185c-0.063-0.004-0.118-0.033-0.164-0.089
	c-0.058-0.109-0.085-0.218-0.087-0.343c-0.012-0.09-0.007-0.188-0.002-0.295c0.016-0.303,0.035-0.533,0.043-0.703
	c-0.05,0.025-0.1,0.049-0.141,0.065c-0.304,0.137-0.658,0.342-1.073,0.607c-0.415,0.281-0.723,0.489-0.906,0.633
	c-0.2,0.149-0.351,0.259-0.451,0.342c-0.117,0.084-0.183,0.116-0.214,0.115c-0.049-0.003-0.098-0.005-0.136-0.024
	c-0.047-0.021-0.094-0.059-0.131-0.115c-0.037-0.055-0.051-0.108-0.049-0.152c0.003-0.08,0.015-0.15,0.042-0.204
	c0.027-0.052,0.061-0.104,0.096-0.155c0.073,0.003,0.211-0.044,0.408-0.14c0.19-0.098,0.504-0.279,0.943-0.542
	c0.446-0.264,0.843-0.484,1.189-0.664c0.188-0.079,0.336-0.143,0.443-0.184l0.01-0.204c-0.748,0.017-1.386,0.065-1.902,0.129
	c-0.153,0.027-0.275,0.049-0.373,0.062c-0.112,0.021-0.21,0.024-0.29,0.021s-0.141-0.061-0.191-0.17
	c-0.06-0.11-0.078-0.209-0.075-0.28c0.003-0.035,0.02-0.062,0.061-0.076c0.725-0.056,1.396-0.101,2.005-0.125
	c0.266-0.005,0.532-0.018,0.789-0.022l0.012-0.249c0.008-0.152,0.007-0.304,0.006-0.446c0.003-0.053-0.002-0.098-0.016-0.152
	c-0.396,0.052-0.816,0.111-1.262,0.178l-0.543,0.099c-0.058,0.033-0.123,0.038-0.194,0.035c-0.144-0.043-0.21-0.144-0.203-0.287
	c0.007-0.115,0.035-0.212,0.095-0.288c0.178-0.01,0.339-0.02,0.483-0.03c0.468-0.03,1.008-0.085,1.631-0.16
	c0.622-0.077,1.268-0.134,1.936-0.19c0.242-0.022,0.42-0.032,0.516-0.027c0.117,0.076,0.186,0.152,0.198,0.224
	c-0.007,0.125-0.025,0.187-0.042,0.203c-0.129,0.011-0.314,0.03-0.557,0.035c-0.419,0.032-0.894,0.071-1.443,0.134
	c0.014,0.036,0.028,0.072,0.027,0.099c-0.003,0.054-0.023,0.142-0.053,0.248c-0.041,0.176-0.057,0.327-0.062,0.442l-0.005,0.125
	l0.416-0.006c0.893-0.011,1.455-0.018,1.689-0.032l0.339-0.037c0.056,0.002,0.149,0.061,0.289,0.157
	c0.139,0.113,0.215,0.198,0.212,0.26c-0.007,0.15-0.075,0.229-0.203,0.222c-0.08-0.003-0.16-0.017-0.247-0.038
	c-0.087-0.022-0.168-0.036-0.239-0.04C52.694,33.988,51.964,33.978,50.943,33.981 M52.545,39.59
	c-0.007,0.124-0.065,0.184-0.178,0.188c-0.072-0.004-0.144-0.016-0.208-0.037c-0.078-0.021-0.15-0.035-0.214-0.037
	c-0.257-0.013-0.682-0.017-1.285-0.001c-0.595,0.006-1.094,0.034-1.482,0.104c-0.089,0.005-0.162,0.019-0.219,0.033
	c-0.017,0.018-0.027,0.044-0.044,0.061c-0.05,0.043-0.114,0.066-0.179,0.062c-0.097-0.004-0.167-0.035-0.205-0.081
	c-0.046-0.057-0.067-0.102-0.065-0.146c-0.059-0.753-0.049-1.785,0.02-3.128c0.001-0.037-0.005-0.082-0.01-0.135
	c-0.016-0.027-0.013-0.055-0.013-0.091c0.003-0.035,0.021-0.07,0.062-0.094c0.025-0.018,0.082-0.033,0.162-0.029
	s0.167,0.035,0.246,0.084c0.014,0.019,0.029,0.028,0.046,0.038c1.065-0.125,2.04-0.175,2.921-0.131
	c0.136,0.006,0.263,0.048,0.388,0.117c0.108,0.066,0.21,0.152,0.301,0.264c0.074,0.121,0.115,0.256,0.108,0.398
	c-0.027,0.551-0.077,1.066-0.141,1.544l-0.139,0.832C52.502,39.48,52.548,39.536,52.545,39.59 M52.149,37.028
	c-0.022-0.197-0.152-0.311-0.378-0.321c-0.56-0.028-1.1-0.01-1.616,0.045c-0.516,0.062-0.855,0.108-1.019,0.137
	c-0.064,0.015-0.113,0.03-0.138,0.028c-0.019,0.374-0.033,0.686-0.039,0.943c0.049,0.003,0.105,0.005,0.153-0.001
	c0.048,0.003,0.347-0.01,0.886-0.046c0.523-0.027,1.168-0.058,1.939-0.073c0.064-0.005,0.113-0.012,0.128-0.012l0.033-0.015
	C52.119,37.482,52.138,37.251,52.149,37.028 M50.64,38.158c-0.498,0.028-0.958,0.059-1.394,0.109l-0.3,0.038
	c-0.008,0.152-0.004,0.259-0.001,0.348c-0.001,0.329,0.003,0.571,0.021,0.716c0.299-0.031,0.573-0.053,0.83-0.058
	c0.355-0.019,0.692-0.028,1.021-0.03c0.531-0.018,0.861-0.028,0.997-0.031c0.017,0.002,0.04-0.006,0.073-0.004
	c0.012-0.099,0.033-0.205,0.056-0.31c0.037-0.267,0.073-0.514,0.11-0.763c-0.112-0.006-0.2-0.018-0.249-0.021
	C51.517,38.139,51.132,38.146,50.64,38.158"/>
<path fill="#8C1C2B" d="M42.596,26.88c-0.076,0.131-0.196,0.154-0.337,0.071c-0.031-0.018-0.079-0.046-0.143-0.095
	c-0.071-0.042-0.121-0.085-0.152-0.103c-0.062-0.037-0.213-0.103-0.447-0.205c-0.197-0.094-0.42-0.166-0.654-0.234
	c-0.01,0.019-0.027,0.031-0.032,0.039c-0.09,0.064-0.174,0.062-0.268,0.007c-0.102-0.06-0.134-0.185-0.094-0.36
	c0.168-0.393,0.719-1.378,1.656-2.967c0.226-0.383,0.56-0.911,1.009-1.584c0.02-0.035,0.043-0.091,0.08-0.152
	c0.026-0.065,0.045-0.113,0.061-0.14c0.07-0.121,0.178-0.141,0.326-0.053c0.058,0.046,0.115,0.126,0.178,0.233l0.006,0.027
	c0.088,0.029,0.186,0.062,0.281,0.095c0.252,0.091,0.494,0.198,0.729,0.337c0.11,0.064,0.209,0.182,0.283,0.342
	c0.056,0.174,0.047,0.334-0.035,0.472c-0.134,0.226-0.951,1.594-2.435,4.09C42.624,26.78,42.616,26.846,42.596,26.88 M41.665,24.903
	c-0.211,0.356-0.336,0.587-0.39,0.695c-0.051,0.087-0.103,0.173-0.138,0.27l1.016,0.423c0.174-0.295,0.539-0.898,1.104-1.818
	c0.693-1.158,1.096-1.823,1.199-1.996c0.046-0.079,0.053-0.146,0.042-0.197c-0.022-0.05-0.068-0.099-0.146-0.146
	c-0.164-0.097-0.336-0.164-0.513-0.22c-0.13-0.031-0.236-0.047-0.307-0.054c-0.042,0.035-0.066,0.077-0.092,0.121
	c-0.388,0.568-0.671,1.011-0.854,1.323C42.229,23.913,41.915,24.442,41.665,24.903 M48.163,25.752
	c-0.038,0.048-0.072,0.087-0.082,0.104c-0.046,0.044-0.066,0.078-0.076,0.095c-0.053,0.087-0.116,0.144-0.176,0.155
	c-0.067,0.007-0.132-0.008-0.195-0.045c-0.077-0.048-0.13-0.101-0.149-0.158c-0.014-0.067-0.011-0.124,0.02-0.177l0.173-0.237
	c-0.177-0.093-0.362-0.189-0.556-0.292c-0.346-0.181-0.653-0.341-0.93-0.479c-0.011,0.018-0.013,0.04-0.022,0.057
	c-0.087,0.184-0.128,0.288-0.148,0.322c-0.056,0.097-0.139,0.13-0.235,0.097c-0.125-0.074-0.204-0.156-0.209-0.253
	c-0.021-0.093-0.007-0.168,0.023-0.221l0.104-0.23c-0.15-0.065-0.285-0.122-0.413-0.174c-0.104-0.037-0.2-0.07-0.275-0.104
	c-0.089-0.028-0.157-0.057-0.212-0.089c-0.069-0.041-0.094-0.126-0.079-0.258c-0.013-0.123,0.011-0.217,0.052-0.285
	c0.021-0.035,0.051-0.052,0.088-0.043c0.372,0.174,0.717,0.342,1.036,0.496l0.271-0.637c0.016-0.027,0.023-0.058,0.039-0.083
	c0.002-0.022,0.012-0.04,0.017-0.048c0.062-0.105,0.146-0.138,0.254-0.074c0.078,0.048,0.152,0.102,0.212,0.161
	c0.062,0.071,0.098,0.139,0.082,0.2c-0.01,0.018-0.049,0.064-0.098,0.131c-0.062,0.104-0.151,0.272-0.251,0.494
	c-0.021,0.035-0.027,0.065-0.043,0.092c0.414,0.209,0.805,0.404,1.175,0.6l0.398,0.2c0.104-0.173,0.223-0.36,0.352-0.577
	c0.021-0.034,0.032-0.074,0.059-0.117c0.004-0.044,0.02-0.07,0.035-0.097c0.021-0.034,0.052-0.051,0.099-0.059
	c0.033-0.004,0.09,0.007,0.161,0.048c0.069,0.042,0.133,0.114,0.19,0.195c0.04,0.093,0.048,0.168,0.012,0.229
	c-0.01,0.018-0.044,0.056-0.087,0.112c-0.056,0.059-0.092,0.121-0.113,0.154l-0.215,0.366c0.141,0.083,0.248,0.134,0.323,0.168
	l0.335,0.126c0.048,0.028,0.108,0.122,0.187,0.275c0.068,0.168,0.086,0.283,0.056,0.336c-0.084,0.139-0.179,0.176-0.287,0.112
	c-0.079-0.047-0.145-0.097-0.204-0.156c-0.067-0.063-0.134-0.113-0.204-0.155C48.529,25.956,48.359,25.867,48.163,25.752
	 M46.14,22.087c0.012,0.019,0.042,0.037,0.074,0.055c0.026,0.028,0.057,0.047,0.097,0.07c0.039,0.022,0.508,0.264,1.425,0.711
	l0.023,0.015l0.24-0.409c0.021-0.033,0.038-0.082,0.061-0.139c0-0.036,0.017-0.062,0.036-0.097c0.021-0.034,0.053-0.052,0.106-0.055
	c0.033-0.004,0.099,0.012,0.177,0.059c0.078,0.046,0.141,0.117,0.194,0.207c0.047,0.099,0.055,0.173,0.02,0.234
	c-0.011,0.018-0.049,0.065-0.098,0.129c-0.062,0.07-0.098,0.13-0.118,0.166l-0.098,0.164c0.584,0.297,0.951,0.479,1.101,0.545
	c0.189,0.075,0.308,0.123,0.355,0.15c0.055,0.032,0.091,0.077,0.129,0.122c0.025,0.062,0.051,0.124,0.078,0.188
	c0.015,0.065,0.001,0.141-0.045,0.219c-0.03,0.053-0.084,0.09-0.142,0.115c-0.064,0.02-0.122,0.01-0.185-0.027
	c-0.023-0.013-0.056-0.031-0.089-0.063c-0.047-0.028-0.081-0.06-0.112-0.078l-0.141-0.083c-0.25-0.147-0.659-0.365-1.212-0.646
	l-0.373,0.636c-0.057,0.095-0.122,0.15-0.188,0.157c-0.072,0.017-0.139,0.001-0.2-0.036c-0.095-0.056-0.154-0.114-0.167-0.181
	c-0.021-0.071-0.015-0.137,0.016-0.189c0.108-0.183,0.243-0.395,0.397-0.654c-0.422-0.215-0.749-0.374-0.984-0.476
	c-0.326-0.146-0.516-0.234-0.577-0.271c-0.048-0.027-0.084-0.072-0.096-0.127c-0.011-0.052-0.016-0.114-0.006-0.167
	c0.006-0.044,0.028-0.101,0.064-0.162c0.03-0.05,0.105-0.089,0.209-0.121C46.106,22.057,46.116,22.073,46.14,22.087 M45.981,27.379
	c-0.067,0.078-0.14,0.164-0.227,0.276c-0.096,0.108-0.319,0.327-0.686,0.662c-0.354,0.329-0.728,0.589-1.115,0.781
	c-0.396,0.189-0.737,0.304-1.038,0.349c-0.304,0.031-0.498,0.022-0.584-0.029c-0.125-0.073-0.157-0.303-0.104-0.682
	c0.05,0.006,0.102,0.025,0.162,0.049c0.049,0.005,0.128,0.016,0.252,0.02c0.364-0.029,0.752-0.13,1.163-0.309
	c0.411-0.18,0.799-0.443,1.163-0.812c0.364-0.348,0.62-0.641,0.76-0.876c0.061-0.103,0.139-0.128,0.248-0.062
	c0.079,0.046,0.134,0.113,0.184,0.188c0.037,0.116,0.048,0.204,0.017,0.257C46.147,27.222,46.079,27.285,45.981,27.379
	 M47.526,26.312c0.142,0.083,0.254,0.197,0.348,0.322c0.086,0.122,0.143,0.26,0.172,0.406c0.025,0.155,0,0.304-0.077,0.435
	c-0.292,0.495-0.585,0.954-0.862,1.389c-0.286,0.415-0.481,0.71-0.6,0.876c-0.111,0.027-0.196,0.012-0.26-0.025
	c-0.125-0.074-0.195-0.151-0.203-0.227c-0.004-0.083,0.021-0.162,0.062-0.231c0.046-0.078,0.123-0.209,0.246-0.381
	c0.382-0.595,0.736-1.159,1.055-1.698c0.071-0.191,0.002-0.36-0.226-0.494c-0.431-0.254-0.865-0.464-1.3-0.638
	c-0.432-0.161-0.721-0.262-0.857-0.296l-0.117-0.035c-0.41,0.696-0.68,1.168-0.803,1.413c-0.171,0.309-0.272,0.518-0.319,0.63
	c-0.057,0.131-0.094,0.214-0.114,0.249c-0.051,0.087-0.116,0.143-0.184,0.148c-0.077,0.024-0.142,0.011-0.205-0.026
	c-0.094-0.057-0.154-0.113-0.162-0.189c-0.021-0.071-0.02-0.128,0.012-0.18c0.307-0.627,0.78-1.484,1.421-2.569
	c0.021-0.035,0.038-0.083,0.061-0.14c0.005-0.043,0.021-0.069,0.042-0.104c0.02-0.035,0.052-0.051,0.105-0.055
	c0.033-0.004,0.091,0.007,0.169,0.053c0.077,0.046,0.14,0.117,0.193,0.207c0.003,0.014,0.005,0.028,0.013,0.032
	C46.048,25.533,46.846,25.911,47.526,26.312 M45.937,31.206c-0.064,0.055-0.134,0.084-0.201,0.091
	c-0.063-0.001-0.136-0.021-0.198-0.058c-0.038-0.024-0.062-0.073-0.083-0.144c-0.018-0.079-0.064-0.249-0.143-0.492
	c-0.092-0.254-0.208-0.521-0.343-0.812c-0.047-0.098-0.098-0.174-0.139-0.245c-0.037-0.081-0.057-0.139-0.064-0.179
	c-0.017-0.08-0.006-0.133,0.015-0.167c0.03-0.053,0.096-0.108,0.188-0.158c0.099-0.06,0.179-0.07,0.233-0.038
	c0.031,0.018,0.056,0.068,0.076,0.139c0.026,0.062,0.088,0.191,0.19,0.393c0.105,0.179,0.21,0.429,0.335,0.736l0.237,0.525
	c0.021,0.037,0.034,0.068,0.056,0.104c0.026,0.028,0.038,0.059,0.028,0.076C46.068,31.072,46.001,31.15,45.937,31.206"/>
</svg>
