<?xml version="1.0" encoding="utf-8"?>
<!-- Generator: Adobe Illustrator 16.0.0, SVG Export Plug-In . SVG Version: 6.00 Build 0)  -->
<!DOCTYPE svg PUBLIC "-//W3C//DTD SVG 1.1//EN" "http://www.w3.org/Graphics/SVG/1.1/DTD/svg11.dtd">
<svg version="1.1" id="Layer_1" xmlns="http://www.w3.org/2000/svg" xmlns:xlink="http://www.w3.org/1999/xlink" x="0px" y="0px"
	 width="126.876px" height="112.438px" viewBox="0 0 126.876 112.438" enable-background="new 0 0 126.876 112.438"
	 xml:space="preserve">
<path fill="#E676AA" d="M75.598,40.573c-0.088,5.205-1.681,10.398-4.563,14.72c-1.046,1.57-2.261,3.026-3.636,4.324
	c-5.16,4.872-12.55,7.391-19.572,6.348c-7.018-1.042-13.469-5.735-16.321-12.233c-0.062-0.141-0.122-0.279-0.179-0.422
	c-1.914-4.657-2.026-9.951-0.865-14.852c0.99-4.195,2.92-8.216,5.886-11.34c6.641-6.985,17.828-8.402,26.81-4.906
	c3.722,1.449,7.231,3.722,9.473,7.028C74.85,32.524,75.665,36.606,75.598,40.573"/>
<path fill="#D35392" d="M71.034,55.293c-1.046,1.57-2.261,3.026-3.636,4.324c-5.16,4.872-12.549,7.391-19.572,6.347
	c-7.018-1.041-13.469-5.734-16.321-12.233c-0.062-0.141-0.122-0.278-0.179-0.422c1.119,1.393,3.205,2.915,4.074,3.581
	c1.567,1.202,3.184,2.452,4.936,3.346c3.98,2.021,8.973,2.301,13.35,1.752C59.849,61.217,65.734,58.722,71.034,55.293"/>
<path fill="#F3BAD4" d="M70.188,26.435c-1.578-1.104-3.319-1.992-5.109-2.688c-8.981-3.497-20.169-2.079-26.81,4.907
	c-2.967,3.121-4.896,7.143-5.887,11.338c-1.195,5.054-1.039,10.516,1.045,15.273c1.159,2.639,2.908,4.979,5.05,6.898
	c-3.02-2.145-5.483-5.044-6.973-8.433c-2.084-4.757-2.24-10.222-1.044-15.272c0.99-4.195,2.92-8.216,5.886-11.34
	c6.641-6.984,17.828-8.402,26.81-4.905C65.715,23.207,68.172,24.591,70.188,26.435"/>
<path fill="#8C1C2B" stroke="#FFFFFF" stroke-miterlimit="10" d="M36.474,27.244c6.649-5.315,15.488-7.49,23.78-5.405
	c4.217,1.062,8.16,3.388,10.974,6.711c3.204,3.786,3.888,9.171,3.51,13.945c-0.692,8.729-5.818,16.703-13.635,20.663
	c-8.009,4.059-17.676,2.841-24.342-3.173c-4.547-4.101-6.55-9.973-6.437-16c0.056-3.048,0.615-6.003,1.66-8.863
	c1.077-2.94,3.061-5.218,4.427-7.966c0.031-0.064-0.033-0.141-0.1-0.101c-3.226,1.918-4.877,6.325-5.925,9.768
	c-1.279,4.201-1.614,8.514-0.795,12.835c1.439,7.603,7.295,13.545,14.472,16.043c7.686,2.675,16.441,0.421,22.646-4.574
	c6.137-4.943,9.442-12.78,9.648-20.544c0.13-4.874-1.211-9.701-4.449-13.41c-2.986-3.419-7.529-5.376-11.826-6.516
	c-8.314-2.204-18.429-0.834-23.888,6.371C36.063,27.203,36.329,27.359,36.474,27.244"/>
<path fill="#F0ADCC" d="M72.358,38.474c2.264,8.688-3.45,17.765-12.868,20.802c-0.287,0.094-0.575,0.183-0.868,0.262l-0.034,0.009
	c-0.091,0.027-0.187,0.052-0.281,0.076c-0.185,0.048-0.365,0.092-0.548,0.133c-2.885,0.674-5.753,0.716-8.435,0.216
	c-1.052-0.193-2.078-0.474-3.063-0.833c-0.874-0.312-1.717-0.692-2.521-1.132c-0.701-0.376-1.372-0.802-2.001-1.267
	c-2.913-2.127-5.081-5.119-6.02-8.721c-2.205-8.464,3.163-17.303,12.157-20.562c0.617-0.223,1.251-0.421,1.897-0.589
	c0.175-0.046,0.348-0.088,0.521-0.127l0.003-0.001c0.969-0.229,1.94-0.383,2.9-0.474c1.094-0.098,2.178-0.111,3.239-0.037
	c2.963,0.197,5.767,1.039,8.191,2.412c0.199,0.111,0.394,0.228,0.585,0.349c0.047,0.027,0.089,0.052,0.133,0.079
	c0.24,0.154,0.476,0.309,0.709,0.474C69.109,31.683,71.389,34.754,72.358,38.474"/>
<path fill="#FFFFFF" d="M65.6,29.919c-4.197-2.385-9.533-3.177-14.871-1.786c-10.118,2.636-16.41,12.106-14.054,21.152
	c0.887,3.405,2.872,6.259,5.539,8.361c-3.761-2.136-6.608-5.55-7.722-9.826c-2.356-9.045,3.935-18.517,14.054-21.152
	C54.861,25.023,61.173,26.431,65.6,29.919"/>
<path fill="#FADAE1" d="M70.988,37.74c2.263,8.687-3.449,17.764-12.867,20.8c-0.288,0.096-0.576,0.184-0.869,0.264l-0.033,0.008
	c-0.093,0.027-0.188,0.053-0.282,0.078c-0.185,0.047-0.366,0.092-0.549,0.133c-2.884,0.672-5.751,0.715-8.433,0.215
	c-1.054-0.194-2.08-0.474-3.064-0.833c-0.875-0.313-1.717-0.692-2.521-1.132c-0.702-0.377-1.372-0.803-2.001-1.268
	c-2.913-2.126-5.081-5.119-6.02-8.72c-2.205-8.466,3.163-17.303,12.157-20.563c0.617-0.223,1.249-0.42,1.897-0.589
	c0.175-0.046,0.347-0.087,0.521-0.126h0.004c0.968-0.23,1.939-0.385,2.899-0.475c1.094-0.099,2.178-0.111,3.238-0.037
	c2.964,0.196,5.768,1.039,8.192,2.411c0.199,0.112,0.393,0.229,0.586,0.349c0.045,0.028,0.088,0.053,0.132,0.08
	c0.239,0.153,0.476,0.309,0.709,0.474C67.738,30.948,70.02,34.021,70.988,37.74"/>
<path fill="#FBE0E7" d="M47.01,28.935c0.539-0.186,1.09-0.351,1.652-0.489c0.15-0.036,0.3-0.07,0.451-0.103l0.002-0.001
	c0.84-0.187,1.68-0.309,2.511-0.373c0.941-0.072,1.874-0.07,2.787,0.008c2.532,0.205,4.924,0.963,6.995,2.164
	c0.169,0.098,0.334,0.199,0.497,0.305c0.04,0.023,0.075,0.046,0.112,0.069c0.204,0.135,0.404,0.27,0.603,0.413
	c2.587,1.866,4.529,4.504,5.36,7.696C69.943,46.16,65.046,54,56.96,56.677c-0.25,0.082-0.502,0.16-0.758,0.231
	c-0.001,0-0.027,0.008-0.029,0.008c-0.08,0.023-0.162,0.046-0.245,0.067c-0.161,0.043-0.32,0.082-0.479,0.119
	c-2.521,0.588-5.027,0.634-7.37,0.188c-0.914-0.173-1.803-0.421-2.658-0.734c-0.756-0.277-1.485-0.61-2.183-0.992
	c-0.604-0.331-1.183-0.703-1.727-1.107c-2.508-1.859-4.386-4.454-5.2-7.581C34.372,39.437,39.107,31.682,47.01,28.935"/>
<path fill="#FCE6EC" d="M47.514,31.147c0.461-0.15,0.93-0.28,1.406-0.389c0.128-0.029,0.255-0.056,0.382-0.08l0.003-0.001
	c0.709-0.144,1.419-0.232,2.119-0.273c0.79-0.043,1.571-0.026,2.336,0.054c2.104,0.214,4.087,0.879,5.799,1.917
	c0.14,0.083,0.274,0.171,0.409,0.259c0.032,0.021,0.062,0.04,0.092,0.062c0.168,0.113,0.333,0.229,0.496,0.35
	c2.128,1.584,3.724,3.797,4.417,6.464c1.664,6.385-2.41,13.015-9.174,15.303c-0.214,0.072-0.427,0.141-0.646,0.202
	c-0.003,0.001-0.021,0.007-0.025,0.008c-0.068,0.02-0.139,0.039-0.21,0.059c-0.136,0.036-0.272,0.07-0.408,0.103
	c-2.155,0.518-4.304,0.552-6.308,0.16c-0.775-0.149-1.528-0.365-2.253-0.637c-0.639-0.239-1.254-0.523-1.843-0.853
	c-0.508-0.283-0.996-0.601-1.455-0.944c-2.108-1.587-3.688-3.792-4.38-6.445C36.602,40.054,40.702,33.381,47.514,31.147"/>
<path fill="#FCECF1" d="M48.018,33.361c0.383-0.115,0.77-0.212,1.159-0.289c0.106-0.021,0.21-0.041,0.315-0.058h0.003
	c0.577-0.102,1.157-0.158,1.728-0.173c0.638-0.018,1.269,0.016,1.885,0.099c1.674,0.221,3.247,0.798,4.602,1.669
	c0.108,0.07,0.216,0.142,0.321,0.216c0.024,0.016,0.048,0.032,0.072,0.049c0.132,0.094,0.261,0.19,0.39,0.29
	c1.668,1.298,2.917,3.09,3.474,5.229c1.363,5.233-1.883,10.666-7.328,12.554c-0.176,0.062-0.353,0.119-0.533,0.173
	c-0.005,0.001-0.017,0.005-0.021,0.006c-0.057,0.018-0.116,0.034-0.174,0.05c-0.113,0.032-0.227,0.062-0.34,0.09
	c-1.789,0.446-3.578,0.469-5.244,0.132c-0.636-0.13-1.254-0.31-1.848-0.539c-0.521-0.2-1.023-0.438-1.502-0.714
	c-0.413-0.235-0.809-0.497-1.182-0.783c-1.713-1.308-2.994-3.128-3.562-5.306C38.831,40.671,42.297,35.082,48.018,33.361"/>
<path fill="#FDF2F5" d="M58.958,41.277c1.134,4.354-1.698,8.862-6.328,10.068c-4.628,1.206-9.301-1.347-10.436-5.702
	c-1.135-4.354,1.698-8.862,6.327-10.068C53.15,34.368,57.824,36.921,58.958,41.277"/>
<path fill="#FFFFFF" d="M49.062,26.544l-6.555,31.265c-0.701-0.378-1.372-0.802-2.001-1.267l6.138-29.283
	c0.617-0.224,1.249-0.421,1.897-0.59C48.716,26.623,48.889,26.582,49.062,26.544 M51.965,26.069
	c-1.413,6.921-4.439,21.192-6.936,32.871c0.984,0.359,2.01,0.639,3.062,0.833c0.852-3.989,2.195-10.287,3.52-16.541
	c1.274-6.025,2.284-10.834,2.999-14.289c0.229-1.108,0.428-2.081,0.593-2.913L51.965,26.069z M63.982,28.791l-6.625,30.558
	l0.033-0.01c1.544-6.861,5.024-22.38,6.725-30.468C64.071,28.843,64.029,28.817,63.982,28.791 M64.115,28.871
	c-0.044-0.028-0.086-0.054-0.133-0.08c-0.192-0.12-0.386-0.236-0.585-0.35c-1.467,6.983-4.451,20.4-6.87,31.116
	c0.184-0.041,0.364-0.086,0.549-0.134c0.095-0.024,0.19-0.05,0.281-0.075l0.033-0.01c0.295-0.079,0.582-0.168,0.869-0.262
	c0.842-3.734,2.179-9.691,3.487-15.606c1.256-5.652,2.238-10.164,2.927-13.409c0.05-0.245,0.104-0.484,0.15-0.717
	C64.592,29.18,64.354,29.024,64.115,28.871"/>
<path fill="#8C1C2B" d="M48.642,27.044c-9.894,2.578-16.072,11.854-13.774,20.677c2.3,8.824,12.219,13.905,22.112,11.328
	c9.894-2.578,16.073-11.854,13.774-20.677C68.456,29.548,58.536,24.467,48.642,27.044 M57.177,59.802
	c-10.31,2.687-20.656-2.646-23.062-11.886c-2.407-9.238,4.021-18.939,14.331-21.626c10.31-2.686,20.656,2.646,23.062,11.886
	C73.915,47.414,67.485,57.116,57.177,59.802"/>
<path fill="#EABAC7" d="M93.131,87.821c-0.119,0.083-0.238,0.163-0.36,0.244c-3.969,2.616-8.338,4.684-12.93,5.932
	c-2.336,0.635-4.734,1.057-7.151,1.192c-1.908,0.105-4.02-0.411-5.866-0.053c-0.181-0.615,0.209-1.209,0.76-1.636
	c2.408-1.865,6.665-1.053,9.541-1.415c3.927-0.496,7.976-2.128,11.49-3.813c1.315-0.633,2.359-1.59,3.871-0.869
	C92.739,87.522,92.953,87.664,93.131,87.821"/>
<path fill="#FFFFFF" d="M65.251,90.931c-3.121-0.55-6.29-1.591-8.551-3.811c-4.14-4.063-3.988-11.118-1.035-16.112
	c2.953-4.993,8.062-8.299,13.212-10.966c3.679-1.905,7.522-3.591,11.549-4.514c-0.273,0.03-0.547,0.062-0.818,0.103
	c-4.933,0.711-9.596,2.69-14.021,4.981c-5.151,2.667-10.26,5.974-13.213,10.967s-3.104,12.048,1.036,16.112
	c2.261,2.22,5.43,3.261,8.55,3.81c4.721,0.832,9.562,0.662,14.242-0.35C72.564,91.62,68.872,91.569,65.251,90.931"/>
<path fill="#E795B1" d="M71.693,66.756c0.619-0.243,1.239-0.458,1.857-0.65c7.346-2.305,14.21-1.125,15.842,2.982
	c1.766,4.451-3.291,10.625-11.298,13.789c-3.051,1.205-6.087,1.801-8.775,1.83c-4.374,0.046-7.826-1.405-8.921-4.162
	C58.63,76.093,63.689,69.92,71.693,66.756"/>
<path fill="#ED9DB9" d="M70.765,68.775c0.516-0.189,1.033-0.353,1.546-0.5c5.835-1.689,11.208-0.713,12.416,2.493
	c1.312,3.484-2.809,8.244-9.207,10.629c-2.435,0.908-4.847,1.342-6.973,1.34c-3.467-0.007-6.175-1.171-6.988-3.33
	C60.244,75.921,64.359,71.14,70.765,68.775"/>
<path fill="#F1A4C0" d="M69.834,70.796c0.415-0.136,0.828-0.25,1.236-0.352c4.321-1.085,8.205-0.3,8.991,2.005
	c0.858,2.518-2.327,5.863-7.117,7.47c-1.817,0.61-3.604,0.884-5.17,0.849c-2.559-0.058-4.523-0.937-5.057-2.499
	C61.858,75.749,65.039,72.384,69.834,70.796"/>
<path fill="#F3ACC8" d="M75.397,74.129c0.404,1.552-1.847,3.482-5.028,4.312c-3.18,0.828-6.087,0.242-6.492-1.311
	c-0.404-1.554,1.848-3.483,5.028-4.312C72.087,71.988,74.993,72.576,75.397,74.129"/>
<path fill="#F3AAC7" d="M61.165,81.336c-2.221-5.418,3.772-13.005,13.388-16.948c1.829-0.749,3.658-1.313,5.437-1.697
	c-2.368,0.347-4.865,1.021-7.364,2.046c-9.615,3.942-15.609,11.53-13.387,16.948c1.799,4.387,8.432,6.004,15.993,4.369
	C68.493,87.039,62.81,85.346,61.165,81.336"/>
<g>
	<path fill="#C68FA0" stroke="#FFFFFF" stroke-miterlimit="10" d="M100.824,66.255c-0.359,0.582,0.495,3.975,0.478,4.861
		c-0.031,1.63-0.252,3.259-0.639,4.844c-1.104,4.517-3.682,9.151-7.531,11.861c-0.12,0.083-0.239,0.163-0.359,0.243
		c-7.845,5.172-17.902,8.506-27.07,6.655c-3.471-0.696-6.814-2.141-9.865-4.507c-0.869-0.675-1.388-1.368-2.03-2.249
		c0.689,0.944,5.938,0.159,6.967-0.013c2.729-0.463,5.396-1.279,7.935-2.386c4.6-2.008,8.714-4.949,12.819-7.836
		c4.106-2.886,8.284-5.76,12.954-7.596C96.835,69.21,99.494,68.402,100.824,66.255"/>
	<path fill="#8C1C2B" stroke="#FFFFFF" stroke-miterlimit="10" d="M100.761,66.217c-0.62,1.299,0.225,3.369,0.334,4.713
		c0.253,3.126-1.02,6.714-2.354,9.483c-2.656,5.511-7.674,8.559-13.062,10.978c-4.942,2.222-10.322,3.412-15.749,3.268
		c-5.643-0.149-12.289-2.147-15.614-6.988c-0.309,0.235-0.617,0.473-0.926,0.709c0.682,0.758,2.189,0.485,3.069,0.406
		c1.361-0.122,2.728-0.309,4.081-0.501c5.365-0.766,10.212-2.811,14.785-5.67c4.674-2.924,8.982-6.393,13.724-9.219
		c2.351-1.401,4.817-2.467,7.359-3.466c1.921-0.757,3.581-1.736,4.754-3.478c0.285-0.421-0.39-0.81-0.675-0.396
		c-1.297,1.882-3.642,2.637-5.688,3.416c-2.178,0.828-4.252,1.864-6.272,3.021c-4.262,2.44-8.152,5.472-12.235,8.188
		c-4.287,2.854-8.854,5.283-13.858,6.598c-1.371,0.361-2.803,0.611-4.217,0.723c-1.062,0.084-3.143,0.348-3.994-0.453
		c-0.565-0.53-1.292,0.248-0.833,0.831c3.424,4.349,9.461,6.679,14.826,7.271c5.663,0.624,11.395-0.724,16.621-2.84
		c5.425-2.197,10.479-5.171,13.529-10.308c1.551-2.608,2.586-5.666,2.95-8.676c0.152-1.25,0.27-2.486,0.068-3.733
		c-0.177-1.09-0.825-2.743-0.489-3.819C100.919,66.196,100.797,66.141,100.761,66.217"/>
	<path fill="#FADAE1" stroke="#FFFFFF" stroke-miterlimit="10" d="M100.91,70.681c-0.344,5.42-4.314,9.936-8.672,13.17
		c-4.636,3.441-10.01,5.936-15.636,7.212c-4.805,1.095-9.787,1.295-14.642,0.438c-3.125-0.549-6.291-1.588-8.553-3.809
		c-4.138-4.064-3.987-11.12-1.033-16.111c2.951-4.994,8.061-8.301,13.212-10.97c3.537-1.829,7.224-3.46,11.083-4.406
		c0.967-0.236,1.947-0.43,2.939-0.573c4.93-0.711,10.189-0.063,14.41,2.587C98.242,60.868,101.223,65.71,100.91,70.681"/>
	<path fill="#F5B8C7" stroke="#FFFFFF" stroke-miterlimit="10" d="M100.91,70.681c-0.344,5.42-4.314,9.936-8.672,13.17
		c-4.636,3.441-10.01,5.936-15.636,7.212c0.475-0.179,0.944-0.371,1.415-0.579c4.5-1.978,8.933-5.153,12.662-8.325
		c6.26-5.33,8.146-12.444,3.832-19.45c-3.771-6.129-11.007-7.238-17.842-6.504c0.967-0.236,1.947-0.43,2.939-0.573
		c4.93-0.711,10.189-0.063,14.41,2.587C98.242,60.868,101.223,65.71,100.91,70.681"/>
	<path fill="#8C1C2B" stroke="#FFFFFF" stroke-miterlimit="10" d="M61.929,91.613c8.534,1.828,17.329-0.001,25.097-3.733
		c6.523-3.135,13.518-9.16,14.445-16.729c0.973-7.938-6.15-14.301-13.246-15.898c-8.771-1.975-17.697,1.849-25.193,6.08
		c-6.486,3.66-12.504,8.988-13.301,16.806c-0.338,3.319,0.582,6.673,2.682,9.266c2.306,2.851,6.013,4.098,9.546,4.214
		c0.137,0.004,0.153-0.188,0.032-0.229c-4.293-1.48-8.654-3.018-10.462-7.574c-1.535-3.87-0.688-8.439,1.321-11.959
		c2.247-3.934,6.041-6.746,9.867-9.01c4.229-2.501,8.793-4.624,13.541-5.907c8.573-2.317,19.659-0.459,23.288,8.734
		c3.533,8.948-4.843,16.307-11.737,20.299c-7.932,4.593-16.727,6.532-25.848,5.412C61.829,91.369,61.8,91.586,61.929,91.613"/>
	<path fill="#E28DAA" stroke="#FFFFFF" stroke-miterlimit="10" d="M80.669,84.355c-3.666,1.502-7.328,2.261-10.578,2.321
		c-5.28,0.097-9.477-1.639-10.851-4.992c-2.225-5.419,3.771-13.007,13.383-16.949c0.722-0.296,1.445-0.563,2.165-0.8
		c8.854-2.936,17.217-1.538,19.269,3.473C96.276,72.825,90.285,80.413,80.669,84.355"/>
	<path fill="#D17996" stroke="#FFFFFF" stroke-miterlimit="10" d="M80.669,84.355c-3.666,1.502-7.328,2.261-10.578,2.321
		c2.654-0.816,5.188-2.04,7.122-3.266c3.996-2.527,9.084-7.75,8.435-12.924c-0.519-4.156-4.125-5.941-7.812-6.311
		c-1.025-0.103-2.036-0.209-3.048-0.241c8.854-2.936,17.217-1.538,19.269,3.473C96.276,72.825,90.285,80.413,80.669,84.355"/>
	<path fill="#8C1C2B" stroke="#FFFFFF" stroke-miterlimit="10" d="M76.632,86.321c-8.577,2.234-15.952,0.418-17.934-4.416
		c-2.341-5.707,3.808-13.652,13.705-17.709c1.4-0.574,2.833-1.054,4.258-1.426c8.578-2.233,15.952-0.418,17.935,4.416
		c2.34,5.707-3.808,13.652-13.705,17.709C79.49,85.471,78.058,85.949,76.632,86.321 M76.955,63.901
		c-1.375,0.358-2.757,0.82-4.109,1.375c-9.301,3.813-15.162,11.074-13.068,16.187c1.727,4.21,8.691,5.778,16.561,3.728
		c1.375-0.357,2.758-0.82,4.11-1.375c9.301-3.812,15.163-11.074,13.067-16.186C91.789,63.419,84.824,61.852,76.955,63.901"/>
</g>
<path fill="#D0638D" d="M62.987,79.616c0.382-3.265,3.028-5.329,5.617-6.989c2.931-1.879,6.034-3.612,9.333-4.747
	c2.942-1.012,7.378-1.982,9.899,0.449c2.549,2.459-3.2,6.503-4.715,7.787c-2.839,2.405-6.142,4.502-9.941,4.766
	c-1.938,0.136-5.055-0.973-3.683-3.445c0.771-1.387,2.796-2.202,4.113-2.922c1.522-0.832,3.074-1.611,4.639-2.364
	c0.782-0.376,1.571-0.733,2.362-1.091c0.396-0.174,0.794-0.35,1.188-0.527c0.646-0.289,2.775-0.412,1.655,0.666
	c-2.715,2.613-6.253,4.232-9.925,4.938c0.188,0.189,0.374,0.381,0.562,0.572c0.271-1.118,1.153-1.694,2.286-1.556
	c0.552,0.068,0.547-0.778,0.012-0.854c-1.52-0.215-2.801,0.688-3.188,2.16c-0.094,0.357,0.222,0.632,0.562,0.572
	c2.14-0.384,4.152-1.079,6.089-2.062c1.026-0.52,1.981-1.17,2.902-1.856c0.725-0.541,1.884-1.3,2.345-2.088
	c0.553-0.94-0.955-2.054-1.747-2.069c-2.158-0.042-4.484,1.388-6.399,2.247c-2.247,1.01-4.501,2.08-6.633,3.317
	c-1.312,0.763-2.759,2.007-2.922,3.619c-0.47,4.614,5.15,5.102,8.385,4.429c4.652-0.969,8.529-4.599,11.88-7.741
	c2.279-2.139,4.321-5.997,1.032-8.323c-3.458-2.448-8.287-1.228-11.838,0.344c-3.936,1.741-8.052,4.349-11.217,7.285
	c-1.575,1.462-2.694,3.316-2.853,5.482C62.779,79.743,62.973,79.74,62.987,79.616"/>
<path fill="#EF8AA8" d="M88.009,44.908c-2.656,1.194-2.938,1.675-2.685,4.577c-1.194-2.657-1.675-2.939-4.576-2.685
	c2.656-1.195,2.938-1.676,2.685-4.577C84.626,44.881,85.107,45.162,88.009,44.908"/>
<path fill="#EF8AA8" d="M84.842,36.757c-1.604,0.721-1.774,1.011-1.622,2.763c-0.721-1.604-1.011-1.773-2.763-1.622
	c1.604-0.72,1.773-1.01,1.621-2.762C82.799,36.739,83.089,36.91,84.842,36.757"/>
<path fill="#EF8AA8" d="M48.58,72.652c-2.655,1.194-2.938,1.675-2.685,4.577c-1.194-2.656-1.674-2.938-4.575-2.684
	c2.655-1.195,2.938-1.676,2.684-4.577C45.198,72.625,45.679,72.907,48.58,72.652"/>
<path fill="#77161B" d="M54.903,56.085c-1.159,0.192-2.348,0.386-3.536,0.516c0.145,1.641,0.29,3.25,0.406,4.859
	c0.927-0.161,1.854-0.29,2.812-0.418c0.231,0.707,0.377,1.352,0.377,1.962c-1.044,0.355-2.029,0.644-3.016,0.87
	c0.116,1.995,0.232,3.927,0.349,5.857c-0.521,0.193-1.189,0.322-2.001,0.322c-0.231-1.899-0.406-3.798-0.581-5.697
	c-1.217,0.258-2.405,0.451-3.625,0.547c-0.23-0.644-0.347-1.286-0.347-1.963c1.188-0.387,2.437-0.74,3.74-1.03
	c-0.145-1.674-0.26-3.38-0.376-5.053c-1.276,0.16-2.582,0.258-3.915,0.321c-0.175-0.644-0.29-1.416-0.378-2.317
	c1.335-0.16,2.698-0.321,4.118-0.515c-0.115-1.319-0.175-2.639-0.231-3.959c0.638-0.129,1.305-0.193,2.001-0.257
	c0.145,1.352,0.289,2.67,0.435,3.959c1.102-0.098,2.262-0.194,3.45-0.322C54.729,54.476,54.846,55.249,54.903,56.085 M60.818,57.115
	c2.204,0.226,4.321,0.515,6.38,0.901c0,0.578-0.087,1.223-0.261,1.995c-1.942,0-3.915-0.193-5.944-0.645
	c0.231,3.412,0.406,6.824,0.551,10.236c-0.492,0.193-1.102,0.321-1.855,0.321c-0.638-6.631-1.103-13.324-1.363-20.02
	c0.581-0.129,1.218-0.193,1.885-0.258C60.442,52.157,60.646,54.669,60.818,57.115"/>
<path fill="none" stroke="#EF8B8B" stroke-width="0.5" stroke-miterlimit="10" d="M54.903,56.085
	c-1.159,0.192-2.348,0.386-3.536,0.516c0.145,1.641,0.29,3.25,0.406,4.859c0.927-0.161,1.854-0.29,2.812-0.418
	c0.231,0.707,0.377,1.352,0.377,1.962c-1.044,0.355-2.029,0.644-3.016,0.87c0.116,1.995,0.232,3.927,0.349,5.857
	c-0.521,0.193-1.189,0.322-2.001,0.322c-0.231-1.899-0.406-3.798-0.581-5.697c-1.217,0.258-2.405,0.451-3.625,0.547
	c-0.23-0.644-0.347-1.286-0.347-1.963c1.188-0.387,2.437-0.74,3.74-1.03c-0.145-1.674-0.26-3.38-0.376-5.053
	c-1.276,0.16-2.582,0.258-3.915,0.321c-0.175-0.644-0.29-1.416-0.378-2.317c1.335-0.16,2.698-0.321,4.118-0.515
	c-0.115-1.319-0.175-2.639-0.231-3.959c0.638-0.129,1.305-0.193,2.001-0.257c0.145,1.352,0.289,2.67,0.435,3.959
	c1.102-0.098,2.262-0.194,3.45-0.322C54.729,54.476,54.846,55.249,54.903,56.085z M60.818,57.115
	c2.204,0.226,4.321,0.515,6.38,0.901c0,0.578-0.087,1.223-0.261,1.995c-1.942,0-3.915-0.193-5.944-0.645
	c0.231,3.412,0.406,6.824,0.551,10.236c-0.492,0.193-1.102,0.321-1.855,0.321c-0.638-6.631-1.103-13.324-1.363-20.02
	c0.581-0.129,1.218-0.193,1.885-0.258C60.442,52.157,60.646,54.669,60.818,57.115z"/>
<path fill="#77161B" d="M78.102,56.085c-1.16,0.192-2.349,0.386-3.537,0.516c0.145,1.641,0.289,3.25,0.406,4.859
	c0.928-0.161,1.854-0.29,2.812-0.418c0.232,0.707,0.378,1.352,0.378,1.962c-1.045,0.355-2.029,0.644-3.016,0.87
	c0.115,1.995,0.231,3.927,0.348,5.857c-0.521,0.193-1.188,0.322-2.001,0.322c-0.231-1.899-0.406-3.798-0.579-5.697
	c-1.219,0.258-2.407,0.451-3.625,0.547c-0.232-0.644-0.349-1.286-0.349-1.963c1.19-0.387,2.437-0.74,3.741-1.03
	c-0.146-1.674-0.261-3.38-0.377-5.053c-1.276,0.16-2.58,0.258-3.915,0.321c-0.173-0.644-0.29-1.416-0.376-2.317
	c1.333-0.16,2.696-0.321,4.117-0.515c-0.116-1.319-0.175-2.639-0.232-3.959c0.638-0.129,1.305-0.193,2.001-0.257
	c0.145,1.352,0.29,2.67,0.435,3.959c1.102-0.098,2.262-0.194,3.45-0.322C77.928,54.476,78.044,55.249,78.102,56.085 M84.018,57.115
	c2.203,0.226,4.319,0.515,6.379,0.901c0,0.578-0.087,1.223-0.262,1.995c-1.942,0-3.914-0.193-5.944-0.645
	c0.233,3.412,0.406,6.824,0.552,10.236c-0.492,0.193-1.103,0.321-1.856,0.321c-0.638-6.631-1.102-13.324-1.363-20.02
	c0.581-0.129,1.219-0.193,1.885-0.258C83.64,52.157,83.843,54.669,84.018,57.115"/>
<path fill="none" stroke="#EF8B8B" stroke-width="0.5" stroke-miterlimit="10" d="M78.102,56.085
	c-1.16,0.192-2.349,0.386-3.537,0.516c0.145,1.641,0.289,3.25,0.406,4.859c0.928-0.161,1.854-0.29,2.812-0.418
	c0.232,0.707,0.378,1.352,0.378,1.962c-1.045,0.355-2.029,0.644-3.016,0.87c0.115,1.995,0.231,3.927,0.348,5.857
	c-0.521,0.193-1.188,0.322-2.001,0.322c-0.231-1.899-0.406-3.798-0.579-5.697c-1.219,0.258-2.407,0.451-3.625,0.547
	c-0.232-0.644-0.349-1.286-0.349-1.963c1.19-0.387,2.437-0.74,3.741-1.03c-0.146-1.674-0.261-3.38-0.377-5.053
	c-1.276,0.16-2.58,0.258-3.915,0.321c-0.173-0.644-0.29-1.416-0.376-2.317c1.333-0.16,2.696-0.321,4.117-0.515
	c-0.116-1.319-0.175-2.639-0.232-3.959c0.638-0.129,1.305-0.193,2.001-0.257c0.145,1.352,0.29,2.67,0.435,3.959
	c1.102-0.098,2.262-0.194,3.45-0.322C77.928,54.476,78.044,55.249,78.102,56.085z M84.018,57.115
	c2.203,0.226,4.319,0.515,6.379,0.901c0,0.578-0.087,1.223-0.262,1.995c-1.942,0-3.914-0.193-5.944-0.645
	c0.233,3.412,0.406,6.824,0.552,10.236c-0.492,0.193-1.103,0.321-1.856,0.321c-0.638-6.631-1.102-13.324-1.363-20.02
	c0.581-0.129,1.219-0.193,1.885-0.258C83.64,52.157,83.843,54.669,84.018,57.115z"/>
</svg>
