<?xml version="1.0" encoding="utf-8"?>
<!-- Generator: Adobe Illustrator 16.0.0, SVG Export Plug-In . SVG Version: 6.00 Build 0)  -->
<!DOCTYPE svg PUBLIC "-//W3C//DTD SVG 1.1//EN" "http://www.w3.org/Graphics/SVG/1.1/DTD/svg11.dtd">
<svg version="1.1" id="Layer_1" xmlns="http://www.w3.org/2000/svg" xmlns:xlink="http://www.w3.org/1999/xlink" x="0px" y="0px"
	 width="126.876px" height="112.438px" viewBox="0 0 126.876 112.438" enable-background="new 0 0 126.876 112.438"
	 xml:space="preserve">
<path fill="#424042" d="M44.737,42.823c0.08,0.08,0.133,0.164,0.156,0.257c0.039,0.149,0.019,0.284-0.06,0.403
	c-0.079,0.119-0.191,0.198-0.341,0.237c-0.167,0.042-0.332,0.002-0.494-0.126c-0.162-0.126-0.311-0.301-0.448-0.524
	c-0.137-0.222-0.26-0.468-0.37-0.737c-0.108-0.269-0.195-0.525-0.258-0.768c-0.227-0.874-0.317-1.878-0.272-3.011
	c0.044-1.134,0.224-2.222,0.539-3.267s0.748-1.961,1.299-2.749c0.551-0.787,1.217-1.282,1.998-1.484
	c0.149-0.039,0.313-0.071,0.496-0.099c0.182-0.026,0.357-0.018,0.528,0.027c0.17,0.045,0.327,0.134,0.47,0.266
	c0.145,0.131,0.251,0.337,0.323,0.615c0.102,0.391,0.154,0.879,0.156,1.465c0.003,0.584-0.026,1.223-0.086,1.913
	c-0.059,0.689-0.123,1.406-0.188,2.147c-0.065,0.742-0.129,1.458-0.188,2.148s-0.086,1.333-0.081,1.928
	c0.004,0.594,0.057,1.087,0.157,1.478c0.083,0.316,0.203,0.553,0.363,0.709c0.16,0.158,0.38,0.2,0.658,0.128
	c0.149-0.038,0.304-0.112,0.463-0.224c0.16-0.11,0.355-0.256,0.588-0.435c0.671-0.552,1.218-1.204,1.638-1.958
	s0.772-1.56,1.058-2.417c0.284-0.859,0.527-1.739,0.729-2.646c0.201-0.905,0.401-1.782,0.601-2.627
	c0.077-0.238,0.186-0.431,0.328-0.577c0.14-0.145,0.285-0.237,0.434-0.275c0.204-0.054,0.396-0.022,0.574,0.089
	c0.178,0.113,0.301,0.3,0.368,0.56l0.051,0.197c0.023,0.707,0.04,1.418,0.045,2.131c0.006,0.713,0.045,1.438,0.116,2.174
	c0.021,0.233,0.049,0.5,0.087,0.797c0.037,0.299,0.083,0.604,0.134,0.918c0.052,0.315,0.104,0.619,0.161,0.912
	c0.056,0.293,0.104,0.554,0.143,0.781c0.44-0.292,0.896-0.583,1.367-0.875c0.471-0.289,0.934-0.593,1.388-0.909
	c0.167-0.043,0.304-0.034,0.409,0.028c0.105,0.061,0.172,0.148,0.201,0.26c0.039,0.149-0.062,0.334-0.303,0.556
	s-0.533,0.455-0.876,0.702c-0.343,0.248-0.702,0.49-1.077,0.726c-0.376,0.236-0.682,0.435-0.919,0.596
	c0.063,0.857,0.13,1.63,0.197,2.317c0.069,0.686,0.076,1.349,0.024,1.988c-0.054,0.639-0.189,1.284-0.407,1.937
	s-0.564,1.367-1.038,2.146c-0.294,0.473-0.7,0.885-1.214,1.236c-0.515,0.352-1.062,0.603-1.638,0.752
	c-0.837,0.216-1.555,0.145-2.154-0.217c-0.601-0.361-1.03-1.044-1.29-2.05c-0.212-0.818-0.175-1.597,0.109-2.336
	c0.285-0.738,0.718-1.446,1.297-2.122c0.581-0.676,1.258-1.317,2.033-1.926c0.776-0.607,1.548-1.19,2.318-1.746l-0.528-2.961
	c-0.187,0.585-0.44,1.212-0.765,1.88c-0.323,0.67-0.718,1.309-1.186,1.916c-0.469,0.607-0.989,1.146-1.564,1.611
	c-0.573,0.466-1.196,0.785-1.866,0.958c-0.539,0.141-1.04,0.106-1.5-0.103c-0.462-0.208-0.795-0.712-1.002-1.513
	c-0.193-0.743-0.268-1.628-0.226-2.651c0.044-1.023,0.123-2.042,0.238-3.054c0.114-1.013,0.215-1.948,0.301-2.804
	c0.087-0.856,0.077-1.488-0.028-1.897c-0.088-0.336-0.262-0.47-0.521-0.401c-0.173,0.024-0.443,0.204-0.813,0.537
	c-0.509,0.489-0.896,1.081-1.164,1.775c-0.267,0.694-0.444,1.41-0.531,2.147s-0.11,1.453-0.068,2.147
	c0.039,0.695,0.125,1.293,0.255,1.795c0.063,0.242,0.146,0.469,0.25,0.681C44.425,42.517,44.563,42.69,44.737,42.823 M55.438,45.742
	c-0.017-0.372-0.041-0.739-0.075-1.097c-0.033-0.359-0.077-0.76-0.132-1.202L55.01,43.62c-0.45,0.335-0.949,0.727-1.498,1.177
	c-0.549,0.449-1.05,0.911-1.502,1.386c-0.453,0.475-0.829,0.939-1.128,1.395c-0.3,0.455-0.437,0.846-0.411,1.178
	c0.013,0.275,0.045,0.515,0.098,0.72c0.159,0.614,0.438,1.027,0.843,1.241c0.402,0.213,0.835,0.26,1.302,0.14
	c0.428-0.11,0.815-0.336,1.166-0.675c0.348-0.339,0.645-0.748,0.889-1.227c0.243-0.48,0.426-0.999,0.55-1.558
	C55.44,46.838,55.481,46.287,55.438,45.742"/>
<path fill="#424042" d="M60.624,38.504c0.005,0.019,0.02,0.035,0.043,0.049c0.723-0.584,1.501-1.123,2.336-1.617
	s1.654-0.954,2.457-1.381c0.354-0.091,0.569,0.012,0.646,0.311c0.043,0.166-0.015,0.33-0.171,0.49
	c-0.533,0.396-1.056,0.794-1.567,1.195c-0.513,0.399-1.021,0.814-1.524,1.242c0.24,0.236,0.405,0.531,0.496,0.884
	c0.073,0.279,0.101,0.654,0.083,1.126c-0.017,0.471-0.086,0.949-0.208,1.438c-0.123,0.488-0.312,0.961-0.572,1.414
	c-0.26,0.455-0.591,0.823-0.994,1.106c-0.167,0.123-0.358,0.211-0.571,0.267c-0.215,0.056-0.429,0.132-0.642,0.227
	c-0.326,0.045-0.671-0.08-1.034-0.373c-0.364-0.294-0.61-0.691-0.74-1.193c-0.102-0.391-0.137-0.893-0.107-1.506
	c0.03-0.612,0.106-1.219,0.229-1.816s0.28-1.124,0.471-1.581c0.188-0.456,0.404-0.716,0.646-0.777
	c0.167-0.044,0.329,0.003,0.483,0.143l0.233,0.326L60.624,38.504z M60.842,40.264c-0.359-0.085-0.601-0.251-0.725-0.497
	c-0.121,0.607-0.149,1.226-0.086,1.854c0.063,0.63,0.17,1.232,0.319,1.809c0.287-0.114,0.518-0.337,0.69-0.67
	c0.172-0.332,0.301-0.679,0.387-1.039c0.085-0.358,0.144-0.691,0.173-0.997c0.03-0.306,0.041-0.477,0.031-0.514l-0.015-0.056
	c-0.121-0.009-0.255,0.012-0.401,0.06C61.068,40.26,60.944,40.277,60.842,40.264"/>
<path fill="#424042" d="M65.452,35.408c0.063-0.215,0.179-0.344,0.346-0.387c0.112-0.029,0.226-0.014,0.341,0.046
	c0.114,0.059,0.19,0.163,0.229,0.312c0.009,0.038,0.01,0.116,0.002,0.238c-0.045,0.747-0.038,1.622,0.024,2.629
	s0.209,1.957,0.44,2.85c0.168,0.651,0.378,1.193,0.628,1.624c0.144-0.136,0.269-0.268,0.375-0.395l-0.008-0.028
	c0.101-0.303,0.249-0.61,0.448-0.919c0.197-0.31,0.346-0.616,0.446-0.92c0.113-0.327,0.219-0.727,0.315-1.198
	c0.096-0.473,0.192-0.923,0.289-1.355c0.097-0.432,0.213-0.81,0.347-1.132c0.135-0.323,0.314-0.514,0.537-0.571
	c0.205-0.054,0.402-0.019,0.593,0.1c0.189,0.12,0.318,0.311,0.385,0.57c0.082,0.317,0.145,0.728,0.186,1.232
	c0.041,0.507,0.133,1.028,0.271,1.568c0.033,0.13,0.082,0.296,0.145,0.499c0.062,0.202,0.139,0.4,0.229,0.596
	s0.183,0.359,0.276,0.494c0.095,0.134,0.188,0.189,0.281,0.165c0.13-0.033,0.271-0.145,0.42-0.332
	c0.15-0.188,0.309-0.303,0.476-0.347c0.094-0.023,0.177,0.01,0.25,0.099c0.073,0.092,0.114,0.155,0.124,0.192
	c0.044,0.167,0.017,0.334-0.08,0.497c-0.097,0.164-0.216,0.319-0.355,0.464c-0.142,0.146-0.29,0.264-0.445,0.354
	s-0.279,0.146-0.373,0.172c-0.261,0.066-0.502,0.034-0.724-0.097c-0.223-0.131-0.422-0.303-0.595-0.516
	c-0.175-0.213-0.322-0.438-0.443-0.675c-0.12-0.236-0.218-0.415-0.287-0.535c-0.081,0.378-0.212,0.774-0.394,1.188
	c-0.18,0.415-0.388,0.802-0.623,1.159c-0.234,0.358-0.502,0.67-0.8,0.937c-0.299,0.266-0.606,0.44-0.922,0.521
	c-0.186,0.049-0.388,0.056-0.604,0.022c-0.218-0.033-0.432-0.126-0.639-0.281c-0.21-0.154-0.406-0.376-0.59-0.667
	c-0.185-0.289-0.336-0.667-0.456-1.132c-0.12-0.466-0.212-1.027-0.273-1.687c-0.062-0.658-0.091-1.331-0.09-2.017
	c0.001-0.685,0.028-1.332,0.079-1.941C65.283,36.196,65.356,35.73,65.452,35.408"/>
<path fill="#424042" d="M71.765,28.503c-0.002-0.237,0.081-0.378,0.248-0.422c0.094-0.023,0.177,0.015,0.253,0.114
	c0.075,0.1,0.146,0.221,0.213,0.362c0.067,0.142,0.119,0.291,0.161,0.449c0.04,0.157,0.076,0.293,0.104,0.404
	c0.053,0.205,0.101,0.525,0.145,0.96c0.043,0.437,0.067,0.877,0.074,1.322c0.005,0.444-0.021,0.844-0.077,1.195
	c-0.059,0.354-0.162,0.549-0.312,0.587c-0.148,0.038-0.25-0.009-0.305-0.145c-0.055-0.135-0.108-0.304-0.161-0.509
	c-0.197-0.763-0.312-1.468-0.34-2.116S71.739,29.324,71.765,28.503"/>
<path fill="#424042" d="M76.875,39.391c-0.019,0.005-0.031,0.014-0.037,0.024c-0.008,0.013-0.03,0.023-0.067,0.032
	c-0.148,0.039-0.277,0.018-0.389-0.062c-0.109-0.081-0.183-0.187-0.216-0.317c-0.043-0.167-0.014-0.323,0.088-0.469
	c0.091-0.341,0.198-0.825,0.323-1.453c0.125-0.629,0.251-1.275,0.376-1.944c0.125-0.667,0.249-1.3,0.372-1.898
	c0.123-0.597,0.229-1.036,0.315-1.316c0.108-0.188,0.267-0.309,0.472-0.36c0.168-0.043,0.367-0.036,0.601,0.023
	c0.503,0.406,0.931,0.757,1.285,1.052s0.655,0.574,0.902,0.838c0.247,0.265,0.445,0.53,0.594,0.8
	c0.149,0.271,0.267,0.572,0.354,0.906c0.105,0.409,0.173,0.878,0.201,1.407c0.027,0.529,0.067,1.203,0.121,2.023
	c0.423-0.208,0.825-0.452,1.211-0.73c0.384-0.278,0.769-0.557,1.154-0.834c0.063-0.057,0.134-0.094,0.208-0.114
	c0.149-0.038,0.272-0.021,0.371,0.053s0.162,0.167,0.191,0.278c0.039,0.149-0.057,0.357-0.285,0.625
	c-0.229,0.269-0.508,0.554-0.836,0.855c-0.328,0.305-0.675,0.598-1.037,0.88c-0.365,0.282-0.655,0.502-0.873,0.658l-0.279,0.071
	c-0.335,0.088-0.643-0.007-0.922-0.282c-0.28-0.275-0.455-0.553-0.527-0.832c-0.082-0.315-0.117-0.644-0.106-0.984
	c0.011-0.34-0.005-0.674-0.05-0.999c-0.05-0.424-0.119-0.804-0.206-1.138c-0.129-0.503-0.314-0.951-0.556-1.346
	c-0.241-0.394-0.585-0.802-1.031-1.222c-0.045,0.131-0.107,0.351-0.187,0.658c-0.08,0.309-0.161,0.662-0.247,1.062
	c-0.085,0.399-0.181,0.817-0.286,1.251c-0.106,0.434-0.214,0.845-0.323,1.229c-0.107,0.386-0.22,0.723-0.334,1.01
	S76.99,39.302,76.875,39.391"/>
<path fill="#424042" d="M88.559,31.721c-0.085,0.439-0.184,0.883-0.296,1.328c-0.113,0.446-0.262,0.872-0.444,1.276
	c-0.183,0.405-0.405,0.774-0.665,1.11c-0.261,0.335-0.581,0.611-0.962,0.829c0.102,0.392,0.257,0.763,0.467,1.115
	c0.211,0.353,0.492,0.483,0.847,0.392c0.093-0.023,0.188-0.058,0.285-0.104c0.098-0.045,0.2-0.131,0.306-0.258
	c0.098-0.084,0.233-0.229,0.409-0.433c0.175-0.205,0.363-0.437,0.564-0.698c0.2-0.26,0.387-0.536,0.559-0.829
	c0.173-0.293,0.283-0.573,0.333-0.846c0.021-0.145,0.089-0.231,0.2-0.26c0.13-0.034,0.266-0.01,0.406,0.073
	c0.141,0.082,0.229,0.199,0.269,0.348c0.033,0.13-0.024,0.364-0.176,0.7c-0.15,0.337-0.332,0.692-0.544,1.064
	c-0.212,0.373-0.437,0.729-0.676,1.068s-0.435,0.568-0.582,0.687c-0.051,0.032-0.193,0.158-0.424,0.377
	c-0.231,0.219-0.44,0.354-0.626,0.4c-0.409,0.106-0.785,0.114-1.125,0.023c-0.341-0.09-0.646-0.25-0.913-0.479
	c-0.268-0.228-0.495-0.512-0.682-0.852c-0.188-0.338-0.332-0.703-0.433-1.094c-0.126-0.026-0.208-0.114-0.247-0.264
	c-0.033-0.13-0.017-0.253,0.053-0.371c-0.058-0.224-0.107-0.453-0.149-0.69c-0.041-0.237-0.056-0.486-0.044-0.748
	c0.011-0.42,0.044-0.925,0.1-1.515s0.168-1.171,0.339-1.74c0.17-0.57,0.415-1.08,0.735-1.531c0.319-0.449,0.74-0.742,1.263-0.877
	c0.52-0.136,0.918-0.055,1.192,0.242c0.275,0.297,0.471,0.667,0.587,1.114c0.068,0.26,0.11,0.522,0.129,0.785
	C88.632,31.331,88.613,31.549,88.559,31.721 M86.916,30.896c-0.147,0.196-0.277,0.463-0.389,0.8s-0.197,0.691-0.26,1.064
	c-0.062,0.374-0.113,0.755-0.151,1.142c-0.039,0.388-0.058,0.739-0.055,1.057c0.171-0.263,0.349-0.726,0.534-1.39
	c0.041-0.148,0.092-0.336,0.153-0.561c0.061-0.224,0.107-0.464,0.14-0.722c0.033-0.256,0.058-0.506,0.075-0.748
	C86.979,31.297,86.964,31.082,86.916,30.896"/>
<path fill="#424042" d="M39.048,66.152c-0.289,0.948-0.675,1.857-1.155,2.727c-0.48,0.868-0.989,1.72-1.528,2.554l0.084,0.783
	c0.219-0.454,0.492-0.861,0.815-1.224c0.323-0.361,0.671-0.591,1.043-0.687c0.167-0.043,0.37-0.047,0.608-0.009
	c0.237,0.037,0.473,0.141,0.705,0.308c0.231,0.169,0.456,0.399,0.67,0.69c0.215,0.293,0.381,0.672,0.502,1.136
	c0.164,0.633,0.228,1.341,0.192,2.125c-0.035,0.783-0.178,1.466-0.424,2.045c0.283-0.133,0.56-0.258,0.826-0.377
	s0.541-0.245,0.825-0.377c0.354-0.092,0.568,0.011,0.646,0.309c0.039,0.149-0.062,0.314-0.303,0.496
	c-0.242,0.181-0.538,0.361-0.887,0.542c-0.352,0.18-0.715,0.349-1.092,0.504c-0.375,0.158-0.671,0.284-0.884,0.379
	c-0.417,0.466-0.875,0.763-1.378,0.893c-0.13,0.034-0.261,0.063-0.395,0.088c-0.133,0.023-0.267,0.044-0.4,0.059
	c-0.053,0.41-0.146,0.703-0.28,0.877c-0.133,0.174-0.303,0.286-0.507,0.34c-0.205,0.053-0.438,0.019-0.696-0.104
	c-0.261-0.121-0.453-0.424-0.577-0.907c-0.149-0.576-0.305-1.44-0.463-2.591c-0.159-1.15-0.289-2.416-0.388-3.8
	c-0.101-1.384-0.152-2.811-0.154-4.278c-0.003-1.469,0.078-2.825,0.242-4.069c0.164-1.243,0.429-2.295,0.791-3.152
	c0.365-0.858,0.872-1.372,1.523-1.542c0.447-0.115,0.881-0.048,1.303,0.201c0.421,0.247,0.695,0.613,0.82,1.098
	c0.217,0.836,0.322,1.669,0.317,2.492C39.445,64.506,39.312,65.329,39.048,66.152 M37.366,61.495
	c-0.337,0.465-0.598,1.009-0.784,1.632c-0.185,0.625-0.311,1.292-0.374,2.003c-0.064,0.713-0.092,1.449-0.084,2.211
	c0.01,0.763,0.04,1.514,0.092,2.254c0.321-0.6,0.623-1.203,0.901-1.812c0.28-0.608,0.505-1.232,0.678-1.872
	c0.112-0.406,0.186-0.778,0.218-1.114s0.038-0.655,0.02-0.957c-0.02-0.303-0.059-0.615-0.122-0.938
	c-0.064-0.32-0.134-0.669-0.212-1.047c-0.032-0.05-0.066-0.141-0.1-0.272c-0.016-0.056-0.039-0.107-0.072-0.159
	C37.452,61.443,37.399,61.468,37.366,61.495 M37.446,77.109c-0.005-0.019-0.005-0.034,0.003-0.045
	c0.007-0.014,0.009-0.027,0.003-0.047l-0.013,0.063c0.005,0.019-0.002,0.031-0.021,0.035L37.446,77.109z M38.578,71.932
	c-0.11,0.029-0.238,0.306-0.38,0.829c-0.144,0.522-0.278,1.114-0.406,1.772c-0.127,0.658-0.222,1.292-0.281,1.904
	c-0.06,0.611-0.063,1.019-0.01,1.224c0.014,0.056,0.032,0.091,0.055,0.104l1.054-0.421c0.144-0.137,0.291-0.334,0.442-0.592
	c0.152-0.258,0.274-0.571,0.365-0.943c0.094-0.371,0.143-0.792,0.151-1.259c0.009-0.469-0.062-0.983-0.204-1.541
	c-0.072-0.279-0.169-0.518-0.29-0.715c-0.12-0.197-0.276-0.32-0.468-0.37L38.578,71.932z"/>
<path fill="#424042" d="M46.509,70.356c-0.085,0.439-0.185,0.881-0.296,1.327c-0.113,0.446-0.262,0.872-0.444,1.276
	c-0.183,0.405-0.404,0.775-0.665,1.11c-0.261,0.336-0.581,0.612-0.962,0.83c0.101,0.391,0.256,0.762,0.467,1.114
	c0.21,0.354,0.492,0.483,0.847,0.392c0.093-0.023,0.188-0.059,0.285-0.104s0.2-0.131,0.307-0.258
	c0.097-0.085,0.233-0.229,0.408-0.434c0.175-0.204,0.363-0.436,0.564-0.697c0.2-0.26,0.387-0.536,0.56-0.829
	c0.172-0.293,0.283-0.575,0.332-0.846c0.021-0.144,0.089-0.231,0.2-0.26c0.13-0.034,0.267-0.01,0.407,0.073
	c0.14,0.083,0.229,0.198,0.267,0.347c0.034,0.131-0.023,0.365-0.175,0.701c-0.151,0.337-0.332,0.692-0.544,1.064
	c-0.212,0.373-0.437,0.729-0.677,1.068c-0.238,0.34-0.434,0.568-0.582,0.687c-0.05,0.032-0.191,0.158-0.423,0.378
	c-0.231,0.219-0.439,0.352-0.626,0.399c-0.409,0.106-0.785,0.114-1.125,0.023c-0.342-0.09-0.646-0.25-0.913-0.478
	c-0.269-0.229-0.496-0.513-0.683-0.853c-0.187-0.338-0.33-0.703-0.431-1.094c-0.127-0.026-0.209-0.114-0.248-0.264
	c-0.033-0.13-0.017-0.253,0.053-0.37c-0.058-0.224-0.106-0.454-0.149-0.691c-0.041-0.238-0.057-0.486-0.044-0.749
	c0.011-0.419,0.043-0.923,0.1-1.514c0.056-0.59,0.169-1.171,0.339-1.74c0.17-0.57,0.415-1.08,0.734-1.531
	c0.32-0.45,0.741-0.742,1.264-0.878c0.521-0.135,0.918-0.053,1.192,0.243c0.275,0.297,0.472,0.667,0.587,1.113
	c0.067,0.261,0.109,0.523,0.129,0.787C46.583,69.966,46.564,70.184,46.509,70.356 M44.867,69.53
	c-0.147,0.197-0.278,0.464-0.389,0.801c-0.112,0.337-0.198,0.692-0.261,1.064c-0.062,0.374-0.113,0.755-0.151,1.142
	c-0.039,0.388-0.058,0.74-0.055,1.056c0.171-0.262,0.349-0.725,0.534-1.389c0.041-0.149,0.092-0.337,0.153-0.561
	c0.06-0.225,0.107-0.464,0.14-0.722c0.033-0.257,0.058-0.505,0.075-0.748C44.93,69.931,44.914,69.717,44.867,69.53"/>
<path fill="#424042" d="M52.339,68.371c0.015,0.056,0.022,0.104,0.022,0.144c0,0.039-0.004,0.08-0.014,0.123
	c0.038-0.011,0.069-0.022,0.095-0.04c0.025-0.017,0.057-0.03,0.094-0.04c0.262-0.067,0.479-0.029,0.656,0.114
	c0.176,0.144,0.302,0.364,0.379,0.661c0.006,0.257,0.006,0.584,0,0.982c-0.006,0.399-0.012,0.812-0.021,1.241
	c-0.008,0.43-0.003,0.85,0.015,1.263c0.017,0.412,0.065,0.768,0.142,1.064c0.043,0.168,0.103,0.321,0.178,0.46
	c0.275-0.09,0.506-0.27,0.695-0.537c0.189-0.267,0.365-0.546,0.528-0.837c0.163-0.29,0.312-0.556,0.448-0.801
	c0.135-0.243,0.277-0.384,0.426-0.423c0.298-0.077,0.485,0.034,0.562,0.331c0.029,0.112,0.023,0.243-0.018,0.393
	c-0.069,0.116-0.177,0.334-0.323,0.649c-0.147,0.316-0.323,0.649-0.529,1c-0.208,0.352-0.455,0.685-0.741,0.996
	c-0.285,0.312-0.597,0.512-0.932,0.599c-0.261,0.067-0.495,0.043-0.703-0.071c-0.209-0.114-0.387-0.282-0.532-0.503
	c-0.146-0.22-0.267-0.457-0.363-0.71c-0.095-0.253-0.171-0.491-0.229-0.715c-0.082,0.141-0.193,0.309-0.331,0.503
	c-0.138,0.195-0.29,0.394-0.456,0.595c-0.168,0.201-0.34,0.381-0.516,0.535c-0.18,0.155-0.344,0.252-0.491,0.291
	c-0.485,0.125-0.916,0.068-1.295-0.171c-0.381-0.239-0.643-0.638-0.787-1.196c-0.202-0.781-0.282-1.565-0.235-2.351
	c0.045-0.786,0.18-1.511,0.404-2.175c0.226-0.664,0.522-1.223,0.893-1.675c0.368-0.454,0.766-0.735,1.194-0.846
	c0.411-0.106,0.781-0.054,1.114,0.157c0.332,0.212,0.548,0.505,0.644,0.877L52.339,68.371z M49.908,73.705
	c0.332-0.323,0.576-0.685,0.731-1.082s0.286-0.81,0.396-1.234s0.219-0.84,0.332-1.247s0.286-0.778,0.515-1.115
	c-0.222-0.021-0.363-0.146-0.422-0.369l-0.078-0.188l-0.699-0.057c-0.278,0.31-0.498,0.664-0.663,1.064
	c-0.165,0.399-0.278,0.822-0.343,1.265c-0.064,0.443-0.082,0.891-0.055,1.34c0.025,0.45,0.093,0.879,0.199,1.289L49.908,73.705z"/>
<path fill="#424042" d="M56.001,65.607c0.063-0.215,0.179-0.345,0.346-0.388c0.112-0.029,0.226-0.013,0.34,0.046
	c0.115,0.06,0.191,0.164,0.23,0.313c0.01,0.037,0.01,0.116,0.002,0.237c-0.045,0.746-0.037,1.623,0.024,2.629
	c0.062,1.006,0.209,1.955,0.439,2.85c0.169,0.651,0.378,1.192,0.63,1.624c0.143-0.136,0.268-0.268,0.373-0.395l-0.006-0.028
	c0.1-0.304,0.248-0.61,0.446-0.92c0.197-0.309,0.347-0.615,0.447-0.92c0.113-0.327,0.218-0.727,0.315-1.198
	c0.096-0.472,0.191-0.923,0.289-1.355c0.096-0.432,0.212-0.81,0.347-1.132c0.136-0.323,0.314-0.514,0.539-0.571
	c0.203-0.053,0.401-0.019,0.59,0.101c0.19,0.119,0.318,0.31,0.387,0.569c0.082,0.317,0.144,0.729,0.186,1.233
	c0.041,0.506,0.132,1.027,0.271,1.567c0.034,0.13,0.082,0.297,0.144,0.499c0.063,0.202,0.14,0.401,0.229,0.597
	c0.09,0.194,0.183,0.358,0.276,0.494c0.095,0.134,0.188,0.189,0.281,0.165c0.13-0.034,0.271-0.145,0.421-0.332
	c0.149-0.188,0.308-0.304,0.477-0.348c0.092-0.023,0.175,0.01,0.248,0.1c0.073,0.091,0.114,0.155,0.124,0.191
	c0.043,0.168,0.018,0.334-0.08,0.498c-0.097,0.164-0.214,0.318-0.356,0.464c-0.141,0.146-0.288,0.264-0.445,0.354
	c-0.154,0.089-0.278,0.146-0.372,0.171c-0.26,0.066-0.502,0.035-0.725-0.096c-0.222-0.131-0.42-0.304-0.595-0.516
	c-0.175-0.213-0.322-0.438-0.442-0.675c-0.121-0.236-0.218-0.416-0.288-0.536c-0.08,0.379-0.212,0.774-0.393,1.188
	c-0.179,0.414-0.388,0.8-0.623,1.159c-0.234,0.358-0.502,0.671-0.799,0.937c-0.299,0.265-0.606,0.438-0.923,0.521
	c-0.186,0.049-0.387,0.057-0.604,0.023c-0.218-0.034-0.431-0.128-0.639-0.281c-0.209-0.154-0.406-0.377-0.59-0.667
	c-0.184-0.289-0.336-0.668-0.456-1.132c-0.121-0.465-0.212-1.028-0.272-1.688c-0.062-0.658-0.092-1.33-0.091-2.016
	s0.026-1.333,0.079-1.941C55.833,66.396,55.906,65.93,56.001,65.607"/>
<path fill="#424042" d="M64.396,67.781c-0.104-0.627-0.189-1.246-0.257-1.854c-0.067-0.606-0.114-1.225-0.138-1.854
	c-0.632,0.321-1.076,0.576-1.336,0.762c-0.261,0.187-0.464,0.299-0.612,0.338c-0.225,0.057-0.374-0.062-0.451-0.36
	c-0.072-0.279,0.04-0.592,0.338-0.936c0.298-0.346,0.662-0.683,1.094-1.014c0.229-0.337,0.401-0.634,0.514-0.892
	c0.112-0.257,0.193-0.517,0.245-0.778s0.078-0.541,0.079-0.84c0.003-0.298,0.01-0.657,0.021-1.076
	c0.011-0.183,0.011-0.476-0.005-0.879c-0.015-0.402-0.003-0.817,0.035-1.245c0.038-0.426,0.121-0.814,0.249-1.165
	c0.128-0.352,0.34-0.565,0.638-0.643c0.297-0.076,0.483,0.024,0.555,0.304c0.039,0.149,0.065,0.366,0.08,0.649
	c0.014,0.284,0.024,0.654,0.034,1.107c0.008,0.455,0.021,1.012,0.045,1.672c0.021,0.659,0.058,1.438,0.113,2.338
	c0.185-0.048,0.361-0.099,0.526-0.151c0.164-0.053,0.331-0.101,0.499-0.145c0.204-0.053,0.45-0.116,0.739-0.19
	c0.288-0.075,0.57-0.133,0.848-0.176c0.276-0.041,0.519-0.049,0.724-0.022c0.206,0.026,0.33,0.122,0.373,0.29
	c0.044,0.167-0.084,0.349-0.38,0.546c-0.297,0.195-0.652,0.396-1.065,0.603c-0.412,0.206-0.831,0.408-1.257,0.608
	c-0.424,0.199-0.747,0.377-0.964,0.532c0.025,0.946,0.096,1.945,0.21,2.998c0.113,1.053,0.286,2.025,0.517,2.919
	c0.03,0.112,0.072,0.259,0.13,0.442s0.117,0.373,0.177,0.565c0.059,0.192,0.121,0.355,0.186,0.488
	c0.063,0.132,0.123,0.19,0.18,0.177c0.204-0.054,0.55-0.466,1.036-1.236c0.485-0.77,0.942-1.817,1.375-3.141
	c0.069-0.116,0.168-0.192,0.299-0.226c0.129-0.034,0.253-0.021,0.368,0.038c0.114,0.061,0.188,0.155,0.222,0.285
	c0.024,0.094,0.008,0.217-0.053,0.371c-0.131,0.57-0.307,1.171-0.53,1.805s-0.476,1.215-0.755,1.744
	c-0.28,0.529-0.579,0.984-0.897,1.363c-0.318,0.381-0.646,0.615-0.98,0.701c-0.317,0.081-0.602,0.036-0.854-0.136
	c-0.253-0.174-0.481-0.402-0.684-0.687c-0.204-0.285-0.373-0.598-0.512-0.94c-0.138-0.341-0.243-0.651-0.314-0.932
	c-0.098-0.372-0.177-0.738-0.24-1.099C64.496,68.451,64.44,68.108,64.396,67.781"/>
<path fill="#424042" d="M71.036,58.113c0.132,0.125,0.215,0.252,0.248,0.382c0.043,0.168,0.029,0.326-0.041,0.473
	c-0.071,0.147-0.182,0.24-0.33,0.279c-0.149,0.038-0.302,0.003-0.459-0.105c-0.157-0.106-0.252-0.228-0.285-0.358
	c-0.039-0.148-0.018-0.292,0.065-0.433c0.083-0.142,0.198-0.231,0.347-0.27C70.749,58.038,70.9,58.048,71.036,58.113 M70.537,63.662
	c0.151-0.338,0.31-0.526,0.478-0.57c0.205-0.054,0.352,0.098,0.444,0.451c0.087,0.95,0.161,1.834,0.224,2.651
	c0.062,0.818,0.157,1.469,0.281,1.952c0.136,0.521,0.309,0.765,0.518,0.729c0.145,0.022,0.302,0.012,0.469-0.031
	c0.446-0.116,0.914-0.376,1.405-0.781c0.491-0.404,0.879-0.862,1.164-1.373c0.103-0.066,0.182-0.106,0.236-0.121
	c0.13-0.033,0.254-0.017,0.372,0.054c0.116,0.068,0.191,0.169,0.226,0.299c0.024,0.092,0.006,0.217-0.052,0.371
	c-0.747,1.026-1.427,1.783-2.035,2.268c-0.609,0.485-1.154,0.791-1.64,0.916c-0.557,0.144-1.009,0.067-1.354-0.23
	s-0.59-0.725-0.734-1.284c-0.266-1.022-0.359-1.966-0.285-2.829S70.422,64.446,70.537,63.662"/>
<path fill="#424042" d="M78.464,62.652c-0.164,0.281-0.383,0.591-0.652,0.929c-0.271,0.338-0.501,0.67-0.693,0.999l0.11,0.774
	l-0.087-0.335c0.048,0.267,0.099,0.517,0.149,0.751c0.051,0.236,0.101,0.484,0.149,0.75c0.223-0.216,0.457-0.4,0.705-0.555
	c0.248-0.153,0.484-0.259,0.708-0.316c0.13-0.034,0.226-0.048,0.286-0.044l0.152-0.218c0.276-0.311,0.539-0.637,0.789-0.979
	c0.248-0.342,0.51-0.673,0.785-0.992c0.274-0.318,0.566-0.613,0.874-0.882c0.306-0.268,0.658-0.483,1.054-0.645
	c0.147-0.039,0.287-0.024,0.413,0.042s0.206,0.166,0.24,0.295c0.062,0.243-0.05,0.421-0.338,0.534
	c-0.632,0.322-1.167,0.809-1.604,1.458c-0.438,0.648-0.851,1.253-1.243,1.811l0.119,0.117c0.156,0.219,0.269,0.458,0.335,0.719
	c0.076,0.297,0.117,0.625,0.12,0.981c0.003,0.355-0.014,0.713-0.05,1.069c-0.037,0.357-0.085,0.696-0.139,1.019
	c-0.057,0.323-0.106,0.588-0.151,0.799c-0.062,0.293-0.139,0.632-0.229,1.013c-0.09,0.38-0.204,0.747-0.34,1.101
	c-0.138,0.353-0.305,0.668-0.499,0.947c-0.196,0.279-0.434,0.455-0.713,0.526c-0.242,0.063-0.466,0.021-0.673-0.123
	c-0.205-0.145-0.39-0.355-0.55-0.632c-0.161-0.277-0.307-0.585-0.434-0.93c-0.131-0.344-0.235-0.675-0.317-0.99
	c-0.053-0.205-0.1-0.406-0.141-0.604c-0.041-0.198-0.079-0.401-0.113-0.611c-0.224,0.058-0.416,0.043-0.577-0.044
	c-0.162-0.088-0.269-0.233-0.322-0.438c-0.048-0.187-0.028-0.416,0.061-0.686c0.089-0.271,0.219-0.578,0.389-0.92
	c-0.544-2.022-0.922-4.06-1.135-6.108c-0.213-2.05-0.242-4.116-0.087-6.203c0.029-0.424,0.066-0.91,0.114-1.458
	c0.047-0.549,0.133-1.082,0.257-1.6c0.122-0.52,0.309-0.974,0.555-1.365s0.602-0.647,1.066-0.768
	c0.652-0.169,1.188-0.01,1.613,0.476c0.423,0.486,0.751,1.176,0.981,2.069c0.275,1.061,0.377,2.131,0.309,3.211
	c-0.066,1.08-0.197,2.17-0.388,3.271c-0.1,0.463-0.201,0.936-0.304,1.419S78.731,62.226,78.464,62.652 M77.114,52.49
	c-0.165,0.202-0.282,0.534-0.352,0.999c-0.067,0.464-0.122,0.891-0.16,1.277l-0.011,0.3c-0.115,1.399-0.145,2.768-0.086,4.103
	c0.059,1.336,0.186,2.691,0.383,4.07c0.309-0.498,0.582-1.112,0.817-1.85c0.236-0.736,0.415-1.522,0.537-2.357
	c0.121-0.836,0.175-1.683,0.16-2.544c-0.015-0.858-0.116-1.661-0.31-2.405c-0.097-0.373-0.201-0.682-0.315-0.932
	C77.664,52.902,77.443,52.684,77.114,52.49 M76.566,55.431c-0.006-0.098,0-0.188,0.019-0.272c0.018-0.083,0.023-0.155,0.019-0.214
	s-0.003-0.107,0.006-0.15l-0.05,0.609L76.566,55.431z M78.677,67.958c-0.12,0.15-0.234,0.305-0.343,0.461
	c-0.108,0.157-0.223,0.311-0.342,0.46l0.613,2.373c0.167-0.658,0.305-1.296,0.414-1.908c0.109-0.614,0.131-1.24,0.065-1.879
	c-0.079,0.08-0.151,0.164-0.219,0.251C78.8,67.803,78.735,67.883,78.677,67.958"/>
<path fill="#424042" d="M82.907,58.645c0.064-0.215,0.179-0.345,0.346-0.389c0.112-0.028,0.225-0.012,0.34,0.048
	c0.115,0.059,0.191,0.163,0.229,0.312c0.01,0.038,0.011,0.117,0.003,0.238c-0.047,0.747-0.037,1.623,0.024,2.629
	s0.21,1.956,0.44,2.85c0.169,0.651,0.378,1.193,0.628,1.623c0.145-0.135,0.269-0.266,0.375-0.394l-0.008-0.028
	c0.102-0.305,0.249-0.61,0.447-0.92c0.198-0.309,0.347-0.615,0.446-0.92c0.114-0.326,0.219-0.727,0.315-1.198
	s0.193-0.923,0.29-1.355c0.098-0.432,0.213-0.809,0.348-1.132c0.133-0.322,0.313-0.513,0.536-0.571
	c0.205-0.053,0.401-0.019,0.593,0.101c0.189,0.119,0.317,0.311,0.385,0.568c0.082,0.318,0.145,0.729,0.186,1.234
	s0.132,1.028,0.271,1.567c0.035,0.131,0.083,0.297,0.146,0.499c0.062,0.203,0.138,0.4,0.228,0.597
	c0.091,0.194,0.184,0.358,0.278,0.493c0.094,0.136,0.187,0.189,0.28,0.167c0.13-0.034,0.271-0.145,0.42-0.334
	c0.15-0.188,0.309-0.303,0.477-0.346c0.093-0.023,0.177,0.01,0.249,0.1c0.072,0.091,0.113,0.153,0.123,0.191
	c0.045,0.168,0.017,0.333-0.079,0.497c-0.097,0.164-0.216,0.318-0.355,0.464c-0.142,0.146-0.29,0.264-0.445,0.354
	c-0.154,0.09-0.28,0.146-0.372,0.171c-0.262,0.067-0.503,0.035-0.725-0.096c-0.224-0.131-0.421-0.304-0.596-0.517
	c-0.175-0.212-0.322-0.437-0.442-0.674c-0.122-0.237-0.218-0.415-0.287-0.536c-0.081,0.379-0.213,0.775-0.394,1.188
	c-0.181,0.414-0.388,0.8-0.622,1.158c-0.235,0.36-0.503,0.672-0.801,0.938s-0.605,0.438-0.922,0.521
	c-0.187,0.049-0.388,0.056-0.604,0.022s-0.431-0.127-0.639-0.281c-0.21-0.154-0.405-0.376-0.59-0.667
	c-0.185-0.289-0.336-0.667-0.457-1.133c-0.12-0.464-0.211-1.027-0.272-1.687c-0.062-0.658-0.091-1.331-0.089-2.016
	c0-0.686,0.027-1.333,0.077-1.942C82.739,59.432,82.812,58.967,82.907,58.645"/>
<path fill="#424042" d="M94.431,50.123c0.037,0.685,0.025,1.518-0.04,2.497c-0.064,0.979-0.179,1.977-0.343,2.992
	c-0.164,1.015-0.392,1.992-0.685,2.932c-0.294,0.939-0.644,1.7-1.047,2.281c0.143,0.479,0.322,0.944,0.538,1.395
	c0.215,0.45,0.573,0.76,1.074,0.928c0.794-0.384,1.467-0.891,2.02-1.521c0.552-0.629,1.01-1.348,1.376-2.158
	c0.106-0.126,0.206-0.202,0.299-0.226c0.131-0.033,0.254-0.021,0.368,0.039c0.115,0.06,0.19,0.164,0.229,0.313
	c0.02,0.074,0.021,0.153,0.002,0.236c-0.15,0.417-0.359,0.873-0.628,1.368c-0.271,0.498-0.578,0.97-0.93,1.418
	c-0.351,0.447-0.73,0.84-1.14,1.174c-0.41,0.334-0.829,0.557-1.257,0.668c-0.782,0.201-1.516-0.065-2.203-0.801
	s-1.246-1.941-1.68-3.615c-0.178-0.688-0.338-1.614-0.481-2.779c-0.142-1.163-0.19-2.372-0.147-3.625
	c0.042-1.251,0.214-2.451,0.512-3.602c0.299-1.149,0.797-2.062,1.495-2.739c0.202-0.211,0.406-0.343,0.612-0.396
	c0.521-0.136,0.932-0.023,1.232,0.334c0.302,0.36,0.51,0.763,0.625,1.209c0.083,0.317,0.137,0.62,0.162,0.911
	S94.433,49.904,94.431,50.123 M91.704,52.824c-0.355,2.236-0.28,4.439,0.223,6.612c0.164-0.439,0.285-0.888,0.366-1.346
	c0.08-0.456,0.148-0.921,0.205-1.393c0.071-0.495,0.14-1.072,0.206-1.736c0.067-0.661,0.119-1.34,0.157-2.036
	c0.039-0.694,0.046-1.381,0.019-2.06c-0.026-0.677-0.104-1.269-0.234-1.771c-0.309,0.577-0.519,1.182-0.632,1.816
	C91.899,51.548,91.797,52.185,91.704,52.824"/>
<path fill="#DE7879" d="M96.698,76.18c-1.926-2.002-3.411-0.091-4.392,1.826c-0.628-0.739-1.401-1.344-2.336-1.645
	c-1.512-0.488-2.991,0.79-3.057,2.262c-0.067,1.502,1.548,2.864,2.493,3.82c1.07,1.085,2.077,2.303,3.682,1.414
	c1.267-0.703,2.418-2.295,3.236-3.475C97.111,79.245,97.827,77.353,96.698,76.18"/>
<path fill="#292728" d="M92.194,85.598c-0.415-0.516-1.23-1.194-2.094-1.913c-2.051-1.707-4.376-3.643-4.1-5.349
	c0.159-0.98,0.715-1.633,1.607-1.889c1.847-0.527,4.722,0.777,5.685,1.88l-0.271,0.237c-0.907-1.039-3.648-2.245-5.314-1.771
	c-0.759,0.217-1.214,0.755-1.35,1.6c-0.245,1.504,2.095,3.449,3.974,5.014c0.915,0.763,1.706,1.421,2.144,1.965L92.194,85.598z"/>
<path fill="#292728" d="M91.772,86.364l-0.296-0.207c0.554-0.791,1.459-1.675,2.419-2.609c2.125-2.07,4.532-4.417,4.129-6.686
	c-0.22-1.236-0.746-1.891-1.521-1.893h-0.003c-1.199,0-2.706,1.564-2.987,3.104l-0.354-0.064c0.314-1.718,1.969-3.399,3.342-3.399
	h0.004c0.555,0.002,1.536,0.287,1.874,2.189c0.438,2.457-2.044,4.874-4.232,7.008C93.2,84.729,92.306,85.6,91.772,86.364"/>
<path fill="#F7D4BB" d="M35.865,24.746c-1.336,1.132-2.17,2.887-2.733,4.649c-1.263-2.603-3.214-5.621-5.048-3.234
	c-1.779,2.315-0.942,5.2,0.514,7.427c0.628,0.962,1.394,1.833,2.218,2.629c0.885,0.854,1.73,1.903,2.92,2.338
	c2.245,0.817,3.332-3.352,3.931-4.651c0.994-2.162,2.499-4.814,2.157-7.288C39.559,24.705,37.54,23.329,35.865,24.746
	 M29.535,32.084c0.031,0.066,0.062,0.134,0.093,0.201c-0.009,0.011-0.018,0.023-0.026,0.034c-0.067-0.109-0.131-0.222-0.192-0.334
	C29.45,32.019,29.491,32.052,29.535,32.084 M30.267,27.491c-0.261-0.144-0.542-0.261-0.852-0.338
	c-0.047-0.011-0.093-0.017-0.138-0.021C29.535,26.798,29.906,27.05,30.267,27.491 M33.732,36.827
	c-0.321-0.208-0.638-0.456-0.947-0.73c0.571,0.274,1.167,0.46,1.785,0.483c0.054,0.002,0.104-0.007,0.154-0.015
	c0.015,0.005,0.03,0.009,0.046,0.014C34.511,36.931,34.178,37.118,33.732,36.827"/>
<path fill="#292728" d="M34.554,39.509l-0.337-0.126c0.362-0.969,1.072-2.259,1.895-3.752c1.709-3.106,3.837-6.972,3.351-9.172
	c-0.256-1.154-0.758-1.771-1.493-1.833c-1.782-0.143-4.475,2.806-5.292,4.813l-0.334-0.136c0.854-2.097,3.666-5.207,5.657-5.036
	c0.625,0.053,1.447,0.463,1.813,2.113c0.516,2.333-1.648,6.265-3.387,9.424C35.646,37.224,34.907,38.564,34.554,39.509"/>
<path fill="#292728" d="M35.078,40.412c-0.657-0.915-1.7-1.841-2.805-2.821c-2.544-2.257-5.427-4.816-5.342-8.565
	c0.073-3.281,1.254-3.895,1.95-3.968c1.381-0.145,3.051,1.604,3.56,3.746l-0.351,0.083c-0.461-1.942-1.977-3.6-3.171-3.471
	c-0.984,0.104-1.578,1.423-1.629,3.617c-0.081,3.582,2.736,6.083,5.222,8.288c1.119,0.994,2.177,1.933,2.858,2.88L35.078,40.412z"/>
<path fill="#FDF0D4" d="M56.033,87.562c-0.702,0.084-1.341,0.357-1.941,0.703c-0.097-0.794-0.353-1.563-0.895-2.13
	c-0.942-0.985-2.843-1.054-3.642,0.149c-0.8,1.202-0.505,2.711-0.3,4.025c0.192,1.238,0.113,2.775,1.672,3.248
	c1.188,0.36,3.017-0.39,4.118-0.794c1.373-0.504,2.869-1.333,3.157-2.764C58.46,88.733,57.568,87.377,56.033,87.562"/>
<path fill="#292728" d="M50.676,93.971c-0.027-0.556-0.229-1.41-0.443-2.315c-0.509-2.154-1.087-4.595-0.161-5.691
	c0.672-0.795,1.37-0.786,1.841-0.638c1.401,0.447,2.624,2.716,2.732,3.972l-0.359,0.03c-0.101-1.165-1.253-3.267-2.482-3.658
	c-0.53-0.169-1.019,0.01-1.456,0.526c-0.809,0.958-0.229,3.407,0.236,5.376c0.227,0.962,0.424,1.792,0.453,2.381L50.676,93.971z"/>
<path fill="#292728" d="M50.152,94.357l-0.149-0.327c0.694-0.317,1.643-0.535,2.647-0.767c2.21-0.509,4.715-1.086,5.463-2.879
	c0.42-1.005,0.366-1.736-0.148-2.058c-0.746-0.464-2.269-0.022-3.075,0.896l-0.271-0.237c0.923-1.054,2.642-1.521,3.536-0.965
	c0.396,0.246,0.959,0.899,0.291,2.502c-0.818,1.964-3.42,2.562-5.715,3.092C51.744,93.843,50.813,94.058,50.152,94.357"/>
</svg>
