<?xml version="1.0" encoding="utf-8"?>
<!-- Generator: Adobe Illustrator 16.0.0, SVG Export Plug-In . SVG Version: 6.00 Build 0)  -->
<!DOCTYPE svg PUBLIC "-//W3C//DTD SVG 1.1//EN" "http://www.w3.org/Graphics/SVG/1.1/DTD/svg11.dtd">
<svg version="1.1" id="Layer_1" xmlns="http://www.w3.org/2000/svg" xmlns:xlink="http://www.w3.org/1999/xlink" x="0px" y="0px"
	 width="126.876px" height="112.438px" viewBox="0 0 126.876 112.438" enable-background="new 0 0 126.876 112.438"
	 xml:space="preserve">
<rect fill="#FFFFFF" width="126.876" height="112.438"/>
<g>
	<g>
		<path fill="#040000" d="M74.516,56.273c-0.133,0-0.265-0.016-0.395-0.048c-0.889-0.219-1.434-1.118-1.216-2.005l3.318-13.527
			L73.812,41.3c-0.108,0.027-0.222,0.042-0.334,0.042c-0.595,0-1.13-0.398-1.303-0.969c-0.245-0.821-0.47-2.062-0.158-3.328
			c0.312-1.271,1.086-2.267,1.68-2.877c0.258-0.265,0.604-0.41,0.975-0.41c0.335,0,0.656,0.121,0.906,0.343l3.304,2.945l4.176-1.095
			c0.113-0.03,0.229-0.045,0.347-0.045c0.597,0,1.134,0.399,1.305,0.973c0.241,0.811,0.465,2.045,0.152,3.317
			c-0.312,1.274-1.08,2.264-1.67,2.868c-0.258,0.266-0.604,0.413-0.977,0.413c-0.34,0-0.665-0.127-0.917-0.356l-1.844-1.675
			l-3.327,13.564C75.944,55.754,75.281,56.273,74.516,56.273z"/>
		<path fill="#FFFFFF" d="M74.672,34.258c0.204,0,0.409,0.071,0.573,0.217l3.503,3.123l4.436-1.163
			c0.073-0.02,0.146-0.028,0.22-0.028c0.372,0,0.714,0.242,0.825,0.615c0.219,0.733,0.434,1.885,0.146,3.056
			c-0.286,1.17-1.01,2.092-1.543,2.639c-0.169,0.174-0.393,0.261-0.617,0.261c-0.208,0-0.416-0.074-0.581-0.225l-2.466-2.24
			l-3.527,14.38c-0.13,0.528-0.604,0.882-1.125,0.882c-0.091,0-0.184-0.011-0.275-0.033c-0.621-0.153-1.002-0.779-0.85-1.4
			l3.517-14.334l-3.218,0.809c-0.071,0.019-0.143,0.027-0.213,0.027c-0.37,0-0.711-0.243-0.823-0.614
			c-0.219-0.733-0.44-1.89-0.151-3.063c0.288-1.175,1.02-2.1,1.553-2.647C74.223,34.345,74.446,34.258,74.672,34.258 M74.672,33.258
			c-0.5,0-0.986,0.204-1.334,0.562c-0.638,0.655-1.469,1.726-1.807,3.106c-0.339,1.375-0.098,2.71,0.164,3.588
			c0.237,0.783,0.97,1.328,1.781,1.328c0.155,0,0.311-0.02,0.461-0.059l1.603-0.402l-3.12,12.721
			c-0.283,1.154,0.426,2.324,1.58,2.609c0.171,0.042,0.344,0.062,0.516,0.062c0.997,0,1.859-0.676,2.096-1.644l3.128-12.748
			l1.222,1.11c0.343,0.312,0.788,0.484,1.254,0.484c0.507,0,0.981-0.2,1.335-0.564c0.632-0.648,1.458-1.713,1.797-3.098
			c0.338-1.381,0.1-2.708-0.16-3.579c-0.233-0.782-0.967-1.329-1.783-1.329c-0.159,0-0.319,0.021-0.474,0.062l-3.916,1.026
			l-3.104-2.766C75.567,33.424,75.128,33.258,74.672,33.258L74.672,33.258z"/>
	</g>
	<g>
		<path fill="#040000" d="M84.771,71.406c-0.168,0-0.336-0.021-0.501-0.061l-26.146-6.414c-1.123-0.276-1.812-1.414-1.537-2.537
			l5.921-24.136c0.212-0.873,0.958-1.513,1.856-1.591l4.918-0.429l0.108-0.004c0.354,0,0.696,0.127,0.963,0.358
			c0.304,0.263,0.485,0.628,0.511,1.029l1.557,25.143c0.006,0.102,0.079,0.188,0.177,0.212c0.011,0,0.021,0,0.03,0
			c0.119,0,0.187-0.041,0.225-0.104l13.01-21.561c0.204-0.339,0.544-0.586,0.933-0.677c0.112-0.025,0.221-0.037,0.33-0.037
			c0.291,0,0.573,0.084,0.814,0.242l3.906,2.562c0.742,0.486,1.098,1.393,0.885,2.255l-5.924,24.149
			C86.577,70.749,85.739,71.406,84.771,71.406z M77.746,62.641c-0.047,0-0.103,0.031-0.117,0.093l-0.306,1.24
			c-0.016,0.066,0.023,0.134,0.089,0.15c0,0,5.758,1.41,5.762,1.41c0.07,0,0.123-0.032,0.138-0.092l0.305-1.239l-0.09-0.148
			l-5.751-1.411L77.746,62.641z"/>
		<path fill="#FFFFFF" d="M69.392,36.735c0.233,0,0.46,0.083,0.636,0.236c0.2,0.173,0.322,0.418,0.339,0.683l1.557,25.143
			c0.019,0.319,0.245,0.59,0.558,0.666c0.059,0.015,0.117,0.021,0.176,0.021c0.252,0,0.492-0.13,0.626-0.354l13.009-21.559
			c0.137-0.227,0.362-0.389,0.619-0.449c0.071-0.016,0.144-0.023,0.216-0.023c0.19,0,0.379,0.055,0.54,0.16l3.906,2.562
			c0.566,0.371,0.836,1.06,0.674,1.717l-5.924,24.15c-0.179,0.729-0.831,1.217-1.551,1.217c-0.126,0-0.254-0.015-0.382-0.046
			l-26.146-6.414c-0.857-0.211-1.381-1.077-1.171-1.933l5.921-24.136c0.162-0.666,0.73-1.152,1.414-1.212l4.896-0.427
			C69.334,36.736,69.363,36.735,69.392,36.735 M83.191,66.037c0.28,0,0.535-0.19,0.605-0.476l0.305-1.239
			c0.082-0.334-0.123-0.672-0.456-0.753l-5.751-1.411c-0.05-0.012-0.1-0.018-0.148-0.018c-0.279,0-0.534,0.19-0.604,0.475
			l-0.305,1.239c-0.082,0.335,0.122,0.673,0.455,0.755l5.751,1.41C83.094,66.031,83.143,66.037,83.191,66.037 M69.392,35.735
			c-0.059,0-0.116,0.003-0.175,0.008l-4.896,0.427c-1.111,0.097-2.035,0.889-2.299,1.972l-5.921,24.134
			c-0.341,1.391,0.513,2.8,1.904,3.142l26.146,6.415c0.204,0.049,0.412,0.074,0.62,0.074c1.199,0,2.236-0.813,2.521-1.979
			l5.924-24.15c0.264-1.066-0.177-2.189-1.097-2.791l-3.905-2.562c-0.323-0.212-0.7-0.324-1.089-0.324
			c-0.146,0-0.291,0.016-0.433,0.047c-0.531,0.125-0.984,0.455-1.259,0.909L72.868,61.882l-1.504-24.289
			c-0.033-0.53-0.282-1.031-0.684-1.378C70.325,35.906,69.866,35.735,69.392,35.735L69.392,35.735z M77.898,63.729l0.125-0.509
			l5.017,1.23l-0.125,0.508L77.898,63.729L77.898,63.729z"/>
	</g>
</g>
<g>
	<path d="M46.955,67.58l0.033-0.531c0.102-1.617,0.214-3.889,0.244-5.119c-1.687,0.089-3.559,0.275-5.575,0.555l-0.568,0.079v-0.574
		c0-4.166,0.145-7.674,0.452-10.911c-1.843,2.04-3.917,4.424-5.751,6.997c1.441-0.199,3.042-0.383,4.668-0.45l0.521-0.021v2.748
		l-0.476,0.022c-3.312,0.161-5.93,0.518-8.24,1.124l-0.586,0.154l-0.04-0.604c-0.03-0.456-0.064-0.974,0.032-1.511
		c0.065-0.529,0.274-1.048,0.619-1.516c0.975-1.361,1.962-2.739,3.002-4.091c-1.017,0.105-2.003,0.268-2.901,0.479l-0.527,0.123
		l-0.081-0.535c-0.103-0.68-0.113-1.267-0.029-1.746c0.086-0.54,0.275-1.013,0.631-1.572c1.64-2.661,3.573-5.254,5.418-7.66
		l0.251-0.327l2.639,1.316l-0.896,1.167c-1.504,1.958-3.053,3.974-4.378,6.053c0.795-0.057,1.66-0.104,2.188-0.132
		c0.425-0.469,1.012-1.136,1.439-1.622l0.678-0.769l0.974,0.76c0.014-0.365,0.091-0.698,0.229-0.971
		c0.267-0.494,0.678-0.827,1.195-0.978c1.296-0.324,3.363-0.626,5.021-0.742c-0.038-1.104-0.107-2.441-0.177-3.357l-0.04-0.537
		h2.899l0.028,0.471c0.047,0.784,0.115,2.258,0.153,3.301c0.148-0.003,0.297-0.005,0.447-0.005c0.576,0,1.098,0.024,1.595,0.074
		c1.083,0.084,2.038,0.506,2.677,1.186c0.604,0.635,0.929,1.501,1.023,2.723c0.299,3.791,0.414,7.464,0.334,10.622l-0.013,0.496
		l-0.496-0.009c-0.663-0.012-1.384-0.019-2.13-0.019c-1.206,0-2.329,0.019-3.345,0.055c-0.014,1.676-0.093,3.92-0.191,5.34
		l-0.032,0.465H46.955z M44.121,55.919c-0.071,1.176-0.081,2.279-0.082,3.49c1.062-0.097,2.115-0.163,3.209-0.229
		c0.015-1.033,0.015-2.54,0.001-3.565C46.224,55.672,45.175,55.773,44.121,55.919z M50.178,55.535
		c0.029,1.001,0.033,2.424,0.018,3.487c0.965-0.03,2.145-0.035,3.005-0.036c0.015-1.119,0.012-2.297-0.059-3.486
		c-0.342-0.006-0.683-0.01-1.021-0.01C51.422,55.49,50.781,55.505,50.178,55.535z M44.284,53.194
		c0.939-0.102,1.925-0.194,2.928-0.248c0-0.992-0.003-2.418-0.019-3.42c-0.992,0.059-1.837,0.156-2.604,0.304
		C44.542,50.38,44.324,52.737,44.284,53.194z M50.121,49.419c0.039,1.066,0.057,2.423,0.062,3.384
		c0.473-0.008,0.981-0.012,1.474-0.012c0.455,0,0.896,0.004,1.282,0.01c-0.009-0.768-0.042-1.899-0.156-2.516
		c-0.053-0.333-0.369-0.64-0.72-0.71C51.403,49.466,50.747,49.43,50.121,49.419z M31.612,66.851
		c-0.042-0.271-0.103-0.806-0.031-1.337c0.056-0.282,0.21-1.039,0.979-1.347c1.681-0.72,5.505-1.624,7.794-1.949l0.57-0.081v2.804
		l-0.41,0.075c-3.136,0.573-5.827,1.301-8.228,2.225l-0.578,0.223L31.612,66.851z"/>
	<path fill="#FFFFFF" d="M38.196,43.324l1.728,0.861c-1.92,2.505-3.866,4.98-5.454,7.622c0.863-0.083,2.281-0.167,3.366-0.222
		c0.558-0.61,1.532-1.725,1.949-2.196l1.529,1.193c-2.394,2.645-4.674,5.315-6.592,8.152c1.862-0.279,3.781-0.529,5.756-0.61v1.751
		c-2.863,0.139-5.701,0.446-8.343,1.14c-0.029-0.443-0.06-0.916,0.025-1.39c0.056-0.446,0.223-0.891,0.529-1.308
		c1.196-1.67,2.392-3.34,3.699-4.979c-1.362,0.084-2.808,0.278-4.115,0.584c-0.084-0.556-0.113-1.112-0.031-1.585
		c0.085-0.53,0.279-0.947,0.561-1.391C34.416,48.332,36.276,45.828,38.196,43.324 M49.353,43.381
		c0.055,0.918,0.139,2.781,0.169,3.786c0.307-0.012,0.617-0.02,0.931-0.02c0.511,0,1.028,0.02,1.545,0.071
		c1.109,0.087,1.889,0.527,2.362,1.031c0.526,0.554,0.806,1.335,0.89,2.419c0.278,3.532,0.418,7.204,0.332,10.57
		c-0.666-0.012-1.39-0.019-2.139-0.019c-1.257,0-2.587,0.02-3.843,0.073c0,1.615-0.078,4.144-0.192,5.786h-1.92
		c0.114-1.811,0.253-4.646,0.253-5.675c-2.033,0.084-4.146,0.306-6.151,0.584c0-4.089,0.14-8.177,0.586-12.184
		c-0.279,0.084-0.695,0.198-0.943,0.253c-0.083-0.531-0.029-1.005,0.139-1.339c0.194-0.359,0.5-0.609,0.888-0.722
		c1.336-0.334,3.673-0.668,5.397-0.753c-0.03-1.11-0.109-2.754-0.192-3.864H49.353 M49.685,53.312
		c0.599-0.014,1.301-0.021,1.973-0.021s1.312,0.008,1.785,0.021c0-0.92-0.028-2.365-0.167-3.118
		c-0.085-0.528-0.558-0.998-1.114-1.109c-0.834-0.139-1.639-0.17-2.562-0.17C49.659,50.143,49.685,52.143,49.685,53.312
		 M43.733,53.759c1.253-0.142,2.617-0.281,3.979-0.336c0-1.112,0-3.31-0.029-4.422c-1.225,0.053-2.418,0.165-3.559,0.414
		C44.015,50.697,43.818,52.728,43.733,53.759 M49.685,59.542c1.197-0.056,3.033-0.056,4.008-0.056
		c0.026-1.529,0.026-3.005-0.082-4.478c-0.501-0.012-0.997-0.019-1.49-0.019c-0.825,0-1.643,0.02-2.461,0.073
		C49.714,56.203,49.714,58.372,49.685,59.542 M43.539,59.96c1.39-0.142,2.78-0.224,4.201-0.308c0.025-1.167,0.025-3.449,0-4.561
		c-1.39,0.056-2.782,0.195-4.092,0.39C43.539,57.008,43.539,58.401,43.539,59.96 M40.424,62.713v1.811
		c-2.866,0.524-5.646,1.223-8.317,2.25c-0.057-0.363-0.082-0.806-0.03-1.193c0.085-0.418,0.252-0.782,0.669-0.949
		C34.304,63.964,38.058,63.049,40.424,62.713 M37.904,42.062l-0.501,0.654c-1.854,2.416-3.796,5.021-5.451,7.707
		c-0.255,0.401-0.571,0.976-0.696,1.757c-0.091,0.52-0.081,1.16,0.03,1.893l0.161,1.07l1.055-0.246
		c0.529-0.124,1.091-0.23,1.671-0.318c-0.782,1.045-1.533,2.095-2.27,3.121c-0.408,0.557-0.647,1.145-0.73,1.776
		c-0.102,0.589-0.064,1.152-0.035,1.606l0.08,1.208l1.172-0.308c2.275-0.597,4.861-0.949,8.137-1.107l0.066-0.004
		c-0.002,0.267-0.003,0.536-0.004,0.809l-0.306,0.043c-2.32,0.33-6.205,1.25-7.932,1.989c-0.654,0.262-1.084,0.826-1.255,1.669
		l-0.008,0.033l-0.004,0.033c-0.079,0.594-0.013,1.182,0.033,1.48l0.191,1.224l1.156-0.444c2.371-0.912,5.033-1.632,8.138-2.2
		l0.82-0.149v-0.834v-1.502l0.303-0.042c1.788-0.248,3.461-0.422,4.99-0.519c-0.044,1.272-0.14,3.159-0.228,4.557l-0.067,1.062
		h1.065h1.92h0.933l0.065-0.931c0.092-1.32,0.164-3.27,0.188-4.89c0.881-0.026,1.835-0.039,2.85-0.039
		c0.743,0,1.461,0.007,2.121,0.019l0.992,0.017l0.025-0.991c0.081-3.175-0.035-6.866-0.335-10.674
		c-0.103-1.324-0.482-2.315-1.162-3.03c-0.721-0.767-1.79-1.243-3.009-1.339c-0.483-0.048-1.01-0.073-1.59-0.074
		c-0.039-0.968-0.094-2.142-0.135-2.826l-0.056-0.94h-0.942h-1.89h-1.077l0.08,1.074c0.059,0.781,0.117,1.873,0.157,2.859
		c-1.589,0.138-3.425,0.418-4.607,0.714c-0.676,0.194-1.204,0.623-1.525,1.216c-0.052,0.104-0.097,0.211-0.136,0.321l-0.695-0.543
		l-0.623,0.705l-0.367,0.416c-0.383,0.435-0.892,1.013-1.297,1.465c-0.281,0.016-0.625,0.034-0.99,0.057
		c1.186-1.771,2.514-3.499,3.809-5.185l0.527-0.687l0.737-0.962l-1.085-0.541l-1.728-0.861L37.904,42.062L37.904,42.062z
		 M50.68,52.296c-0.007-0.728-0.02-1.585-0.042-2.361c0.444,0.021,0.9,0.061,1.359,0.137c0.14,0.028,0.276,0.19,0.291,0.282
		c0.071,0.39,0.121,1.08,0.143,1.941c-0.248-0.003-0.508-0.004-0.773-0.004C51.333,52.291,51.003,52.293,50.68,52.296L50.68,52.296z
		 M45.054,50.255c0.505-0.083,1.047-0.147,1.646-0.194c0.008,0.766,0.011,1.665,0.012,2.414c-0.638,0.042-1.265,0.098-1.875,0.159
		c0.027-0.301,0.057-0.62,0.086-0.944C44.968,51.204,45.013,50.709,45.054,50.255L45.054,50.255z M36.881,57.429
		c1.309-1.75,2.706-3.401,4.033-4.9c-0.113,1.456-0.196,2.976-0.249,4.588l-0.228,0.01C39.218,57.176,38.015,57.291,36.881,57.429
		L36.881,57.429z M50.689,56.014c0.451-0.016,0.926-0.023,1.431-0.023c0.182,0,0.364,0.001,0.547,0.003
		c0.037,0.846,0.044,1.683,0.038,2.494c-0.622,0.002-1.338,0.008-2.005,0.021C50.708,57.706,50.704,56.788,50.689,56.014
		L50.689,56.014z M44.597,56.36c0.726-0.093,1.447-0.164,2.158-0.213c0.006,0.802,0.006,1.764-0.002,2.562
		c-0.749,0.046-1.48,0.095-2.213,0.155C44.544,58.009,44.556,57.197,44.597,56.36L44.597,56.36z"/>
</g>
<g>
	<path d="M50.914,83.053c-0.017-0.237-0.021-0.7,0.143-1.131c0.208-0.488,0.522-0.767,0.941-0.848
		c1.412-0.239,3.316-0.392,4.783-0.464c0.109-1.959,0.149-4.823,0.142-6.981c-2.605,0.155-4.714,0.419-6.6,0.823l-0.604,0.129
		v-0.618c0-0.343,0.019-0.786,0.159-1.166c0.203-0.471,0.566-0.758,1.033-0.833c1.593-0.293,3.773-0.472,5.943-0.617
		c-0.02-0.935-0.065-2.181-0.136-3.716l-0.024-0.523h0.523c0.36,0,0.882-0.018,1.28-0.036l0.5-0.024l0.023,0.5
		c0.045,0.946,0.106,2.608,0.134,3.703c1.15-0.018,2.716-0.029,4.073-0.029c0.94,0,1.782,0.006,2.32,0.02l0.487,0.013l-0.003,0.872
		c-0.004,0.326-0.01,0.718,0.002,0.928l0.031,0.549l-0.549-0.021c-1.225-0.046-2.991-0.073-4.727-0.073
		c-0.565,0-1.103,0.003-1.576,0.01c0.032,1.947-0.007,4.802-0.097,6.988c0.879-0.015,1.813-0.025,2.706-0.025
		c0.896,0,1.749,0.011,2.462,0.035l0.445,0.016l0.035,0.444c0.024,0.3,0.001,1.029-0.017,1.335l-0.027,0.481l-0.481-0.01
		c-1.083-0.021-2.335-0.047-3.654-0.047c-4.026,0-6.987,0.251-9.053,0.768l-0.578,0.145L50.914,83.053z"/>
	<path fill="#FFFFFF" d="M58.522,67.57c0.052,1.103,0.127,3.179,0.144,4.188c1.162-0.022,2.999-0.038,4.562-0.038
		c0.936,0,1.772,0.006,2.308,0.02c0,0.331-0.018,1.028,0,1.341c-1.31-0.049-3.144-0.073-4.745-0.073
		c-0.779,0-1.504,0.006-2.087,0.018c0.056,2.149,0,5.693-0.109,7.99c1.023-0.021,2.157-0.035,3.229-0.035
		c0.89,0,1.736,0.011,2.444,0.035c0.021,0.258,0,0.954-0.018,1.267c-1.086-0.021-2.341-0.047-3.664-0.047
		c-3.109,0-6.599,0.139-9.174,0.782c-0.02-0.275,0-0.625,0.111-0.918c0.109-0.257,0.273-0.478,0.568-0.534
		c1.616-0.274,3.82-0.422,5.16-0.476c0.146-2.204,0.184-5.806,0.167-7.989c-2.443,0.129-4.887,0.366-7.201,0.862
		c0-0.33,0.019-0.697,0.128-0.992c0.111-0.257,0.313-0.46,0.645-0.514c1.799-0.33,4.389-0.514,6.371-0.643
		c-0.016-1.286-0.092-3.067-0.145-4.207C57.585,67.607,58.116,67.59,58.522,67.57 M59.475,66.523l-1,0.048
		c-0.392,0.019-0.903,0.036-1.257,0.036H56.17l0.049,1.046c0.06,1.283,0.102,2.363,0.124,3.228
		c-2.024,0.141-4.024,0.316-5.532,0.593c-0.611,0.099-1.122,0.501-1.381,1.1l-0.012,0.024l-0.009,0.025
		c-0.169,0.455-0.19,0.955-0.19,1.34V75.2l1.209-0.26c1.732-0.371,3.657-0.622,5.996-0.778c0,1.904-0.035,4.22-0.119,5.973
		c-1.406,0.08-3.097,0.227-4.379,0.445c-0.43,0.082-0.986,0.34-1.321,1.128c-0.212,0.556-0.209,1.102-0.188,1.38l0.084,1.188
		l1.155-0.289c2.025-0.506,4.947-0.752,8.932-0.752c1.322,0,2.609,0.026,3.644,0.047l0.965,0.02l0.055-0.964
		c0.014-0.25,0.043-1.049,0.016-1.401l-0.071-0.889l-0.891-0.031c-0.669-0.023-1.504-0.036-2.479-0.036
		c-0.719,0-1.464,0.007-2.187,0.018c0.069-1.922,0.101-4.228,0.083-5.986c0.338-0.002,0.698-0.004,1.07-0.004
		c1.729,0,3.489,0.027,4.708,0.072l1.097,0.041l-0.061-1.096c-0.012-0.203-0.006-0.58-0.002-0.895l0.003-0.391v-0.975l-0.974-0.025
		c-0.542-0.014-1.389-0.02-2.334-0.02c-1.15,0-2.481,0.009-3.587,0.022c-0.03-1.047-0.081-2.388-0.12-3.22L59.475,66.523
		L59.475,66.523z"/>
</g>
</svg>
