<?xml version="1.0" encoding="utf-8"?>
<!-- Generator: Adobe Illustrator 16.0.0, SVG Export Plug-In . SVG Version: 6.00 Build 0)  -->
<!DOCTYPE svg PUBLIC "-//W3C//DTD SVG 1.1//EN" "http://www.w3.org/Graphics/SVG/1.1/DTD/svg11.dtd">
<svg version="1.1" id="Layer_1" xmlns="http://www.w3.org/2000/svg" xmlns:xlink="http://www.w3.org/1999/xlink" x="0px" y="0px"
	 width="126.877px" height="112.438px" viewBox="0 0 126.877 112.438" enable-background="new 0 0 126.877 112.438"
	 xml:space="preserve">
<rect fill="#FFFFFF" width="126.877" height="112.438"/>
<path fill="#FFFFFF" d="M64.674,82.441c-0.127,0.211-0.719,0.381-0.719,0.381v0.275l0.762,0.316
	c3.675-0.506,1.547-0.402,9.794-0.402v-0.189C66.286,82.822,68.431,82.92,64.674,82.441z"/>
<path fill="#FFFFFF" d="M61.258,82.441c-3.755,0.479-1.611,0.381-9.835,0.381v0.189c8.232,0,6.116-0.104,9.793,0.402l0.762-0.316
	v-0.275C61.978,82.822,61.386,82.652,61.258,82.441z"/>
<circle fill="#FFFFFF" cx="62.967" cy="83.055" r="0.613"/>
<g>
	<path fill="#FFFFFF" d="M70.44,36.948c13.019,11.437,5.198,24.964,3.402,27.167c8.482-9.27,7.008-25.303-5.548-32.16
		C68.295,31.955,67.861,34.683,70.44,36.948z"/>
</g>
<g>
	<path fill="#FFFFFF" d="M51.551,64.115c-1.797-2.203-9.616-15.73,3.402-27.167c2.579-2.266,2.146-4.993,2.146-4.993
		C44.544,38.812,43.068,54.846,51.551,64.115z"/>
</g>
<g>
	<path fill="#FFFFFF" d="M82.04,54.057c-3.166,12.24-13.398,15.684-19.344,16.646c-5.943-0.962-16.178-4.405-19.342-16.646
		c0,0-0.193-2.319-2.224-3.817c0,0,0,18.04,21.565,20.549c21.566-2.509,21.566-20.549,21.566-20.549
		C82.232,51.737,82.04,54.057,82.04,54.057z"/>
</g>
<g>
	<path fill="#FFFFFF" d="M62.696,70.592c16.663-3.522,15.63-22.679,10.689-27.356c2.305,2.903,2.534,7.833,2.305,9.906
		c-0.405-0.443-1.317-1.112-2.719-0.646c2.129,3.816,0.911,13.995-10.275,17.915c-11.186-3.92-12.404-14.099-10.274-17.915
		c-1.401-0.467-2.313,0.202-2.719,0.646c-0.229-2.073,0-7.003,2.305-9.906C47.067,47.913,46.034,67.069,62.696,70.592z"/>
</g>
<g>
	<path fill="#FFFFFF" d="M73.432,47.613c-0.8-0.134-1.921,1.611,1.639,4.363c0.145-9.789-7.121-12.428-7.121-12.428
		c0.185,0.462,0.318,3.18,2.165,3.687C73.095,44.054,74.123,47.728,73.432,47.613z"/>
</g>
<g>
	<path fill="#FFFFFF" d="M50.323,51.977c3.559-2.752,2.438-4.497,1.638-4.363c-0.691,0.114,0.337-3.56,3.317-4.378
		c1.848-0.507,1.981-3.225,2.166-3.687C57.444,39.549,50.178,42.188,50.323,51.977z"/>
</g>
<g>
	<path fill="#FFFFFF" d="M49.335,46.599c1.62-6.269,9.277-7.988,13.361-13.046c4.084,5.058,11.742,6.777,13.362,13.046
		c-0.601-7.054-13.209-10.597-11.413-16.208c0,0-0.862-0.284-1.949-0.528c-1.086,0.244-1.948,0.528-1.948,0.528
		C62.544,36.002,49.935,39.545,49.335,46.599z"/>
</g>
<g>
	<path fill="#FFFFFF" d="M68.594,68.853c14.975-5.252,15.389-29.718,15.389-29.718c-3.916,2.995-3.316,8.9-3.316,8.9
		C81.265,63.754,68.594,68.853,68.594,68.853z"/>
</g>
<g>
	<path fill="#FFFFFF" d="M56.8,68.853c0,0-12.672-5.099-12.072-20.817c0,0,0.6-5.905-3.317-8.9
		C41.41,39.135,41.825,63.601,56.8,68.853z"/>
</g>
<g>
	<path fill="#FFFFFF" d="M79.929,50.607c0,0,1.143-9.324-1.475-16.357c-1.886-5.067-2.396-5.353-2.903-6.312
		c0,0-1.997,3.568,0.508,8.34C77.776,39.549,79.859,43.416,79.929,50.607z"/>
</g>
<g>
	<path fill="#FFFFFF" d="M49.335,36.278c2.506-4.771,0.507-8.34,0.507-8.34c-0.507,0.959-1.018,1.244-2.903,6.312
		c-2.616,7.033-1.474,16.357-1.474,16.357C45.534,43.416,47.617,39.549,49.335,36.278z"/>
</g>
<g>
	<path fill="#FFFFFF" d="M72.418,53.022c-3.373-0.799-6.469-4.084-9.686-4.043c-3.241,0-6.314,3.249-9.688,4.048
		c-0.102,6.637,1.439,13.259,9.688,16.776C70.98,66.286,72.52,59.661,72.418,53.022z M62.732,68.868
		c-6.741-2.88-8.8-7.926-8.692-15.083c3.184-0.753,5.687-3.576,8.745-3.596c2.888,0,5.504,2.85,8.637,3.593
		C71.531,61.05,69.396,66.024,62.732,68.868z"/>
</g>
<g>
	<path fill="#F8B62D" d="M66.873,46.675c-1.77-0.306-6.491-0.315-8.325,0l0.1,0.197c1.334-0.2,3.823-0.194,4.055-0.192l0,0
		c1.691,0-1.675,0,0.017,0l0,0c0.231-0.002,2.721-0.008,4.055,0.192L66.873,46.675z"/>
</g>
<g>
	<path fill="#F8B62D" d="M66.053,48.732l0.454-1.063c-2.592-0.264-4.955-0.268-7.593,0l0.358,1.063
		C61.364,48.004,63.581,47.918,66.053,48.732z"/>
</g>
<g>
	<path fill="#F8B62D" d="M65.482,46.872c0,0-0.938,0.278-0.949,0.27l0.893,0.329l0.88-0.225L65.482,46.872z"/>
</g>
<g>
	<path fill="#F8B62D" d="M64.325,47.081c0-0.369-0.559-0.37-0.559,0C63.767,47.449,64.325,47.449,64.325,47.081z"/>
</g>
<g>
	<path fill="#F8B62D" d="M66.576,47.077c-0.261,0-0.261,0.394,0,0.394C66.836,47.471,66.837,47.077,66.576,47.077z"/>
</g>
<g>
	<path fill="#F8B62D" d="M63.817,45.363c0,0.186,0.281,0.186,0.281,0C64.099,45.176,63.817,45.178,63.817,45.363z"/>
</g>
<g>
	<path fill="#F8B62D" d="M66.226,45.703c0,0.187,0.281,0.186,0.281,0C66.507,45.517,66.226,45.517,66.226,45.703z"/>
</g>
<g>
	<polygon fill="#F8B62D" points="62.711,46.805 62.702,46.801 62.702,46.808 61.793,47.133 62.702,47.382 62.702,47.387 
		62.711,47.384 62.719,47.387 62.719,47.382 63.627,47.133 62.719,46.808 62.719,46.801 	"/>
</g>
<g>
	<path fill="#F8B62D" d="M59.938,46.872l-0.822,0.374l0.88,0.225l0.893-0.329C60.877,47.15,59.938,46.872,59.938,46.872z"/>
</g>
<g>
	<path fill="#F8B62D" d="M61.374,46.801c-0.368,0-0.369,0.559,0,0.559S61.744,46.801,61.374,46.801z"/>
</g>
<g>
	<path fill="#F8B62D" d="M58.647,47.273c0,0.261,0.395,0.262,0.395,0C59.042,47.014,58.647,47.013,58.647,47.273z"/>
</g>
<g>
	<path fill="#F8B62D" d="M61.604,45.363c0-0.187-0.281-0.188-0.281,0C61.322,45.549,61.604,45.549,61.604,45.363z"/>
</g>
<g>
	<path fill="#F8B62D" d="M59.195,45.703c0-0.187-0.281-0.187-0.281,0C58.914,45.889,59.195,45.889,59.195,45.703z"/>
</g>
<g>
	<path fill="#F8B62D" d="M61.143,40.729c0,0-1.7,0.019-2.311,1.196c0,0-0.996-0.192-1.755,0.654
		c-0.759,0.846-0.549,2.146,0.55,3.062c0,0-0.088,0.041-0.131,0.14c0,0,0.375-0.096,0.437,0.196c0,0,0.044,0.219,0.227,0.136
		c0.13-0.06,0.066-0.313,0.375-0.313c0,0-0.375-0.245-0.428,0.121c0,0-0.055-0.041-0.104,0.019c0,0,0.01-0.385-0.278-0.323
		c0,0,0.033-0.567,0.383-0.742c0,0-1.063-0.462-0.776-1.404c0.288-0.942,1.161-1.169,1.405-1.16c0,0-0.07,1.029,0.366,1.858
		c0,0,0.14,0.365,0.069,0.515c0,0,0.725,0.262,0.939,0.406c0,0-0.007,0.113-0.079,0.179l0.112,0.19c0,0-0.248-0.098-0.426,0.06
		l-0.11,0.104c0,0,0.106,0.057,0.55-0.006c0,0,0.158,0.148,0.245-0.053c0,0,0.375,0.141,0.554-0.175c0,0-0.345-0.212-0.603,0.058
		c0.005-0.075-0.003-0.04,0.039-0.295c0,0-0.249-0.02-0.184-0.111c0.066-0.092,0.438-0.707,0.438-0.707s-1.125-1.184-0.766-2.211
		c0.36-1.027,1.368-1.093,1.368-1.093s1.399,0.844,0.646,3.095l0.675,0.628l-0.145,0.203l0.12,0.238l-0.077,0.052
		c0,0-0.211-0.109-0.352-0.046c-0.137,0.06-0.168,0.135-0.168,0.135s0.306,0.332,0.529,0.055c0,0,0.096,0.07,0.171,0.07
		c-0.484,0.572-1.15,0.086-1.15,0.086c-0.549,0.752-1.194,0.123-1.194,0.123c-0.48,0.732-1.204,0.21-1.204,0.21
		c-0.235,0.55-0.942,0.235-0.942,0.235l0.323,0.453c1.766-0.414,3.989-0.316,4.205-0.306v0.001c0.009-0.001,0.009-0.001,0.018,0
		V46.26c0.217-0.011,2.44-0.108,4.206,0.306l0.323-0.453c0,0-0.706,0.314-0.941-0.235c0,0-0.726,0.522-1.205-0.21
		c0,0-0.646,0.629-1.194-0.123c0,0-0.666,0.486-1.15-0.086c0.076,0,0.17-0.07,0.17-0.07c0.225,0.277,0.53-0.055,0.53-0.055
		s-0.032-0.075-0.168-0.135c-0.141-0.063-0.352,0.046-0.352,0.046l-0.077-0.052l0.12-0.238l-0.145-0.203l0.675-0.628
		c-0.752-2.251,0.647-3.095,0.647-3.095s1.007,0.065,1.367,1.093c0.359,1.027-0.767,2.211-0.767,2.211s0.373,0.615,0.438,0.707
		s-0.183,0.111-0.183,0.111c0.039,0.244,0.031,0.179,0.039,0.295c-0.258-0.27-0.602-0.058-0.602-0.058
		c0.178,0.315,0.553,0.175,0.553,0.175c0.087,0.201,0.245,0.053,0.245,0.053c0.443,0.062,0.549,0.006,0.549,0.006l-0.109-0.104
		c-0.178-0.157-0.427-0.06-0.427-0.06l0.113-0.19c-0.072-0.065-0.079-0.179-0.079-0.179c0.215-0.145,0.939-0.406,0.939-0.406
		c-0.07-0.149,0.07-0.515,0.07-0.515c0.436-0.829,0.365-1.858,0.365-1.858c0.245-0.009,1.117,0.218,1.405,1.16
		c0.287,0.942-0.777,1.404-0.777,1.404c0.35,0.175,0.384,0.742,0.384,0.742c-0.287-0.062-0.278,0.323-0.278,0.323
		c-0.051-0.06-0.105-0.019-0.105-0.019c-0.052-0.366-0.427-0.121-0.427-0.121c0.309,0,0.244,0.254,0.375,0.313
		c0.183,0.083,0.228-0.136,0.228-0.136c0.061-0.292,0.436-0.196,0.436-0.196c-0.043-0.099-0.131-0.14-0.131-0.14
		c1.1-0.916,1.309-2.216,0.55-3.062c-0.76-0.847-1.755-0.654-1.755-0.654c-0.61-1.178-2.311-1.196-2.311-1.196
		c-0.254-0.371-1.413-0.166-1.291-0.496l0.196-0.297l-0.451-1.252v-0.048l-0.009,0.024l-0.009-0.024v0.048l-0.449,1.252l0.195,0.297
		C62.554,40.558,61.393,40.362,61.143,40.729z M62.414,43.987c0-0.392,0.593-0.393,0.593,0
		C63.007,44.379,62.414,44.379,62.414,43.987z M62.916,43.109c0,0.3-0.455,0.301-0.455,0S62.916,42.809,62.916,43.109z
		 M62.688,41.914c0.301,0,0.301,0.455,0,0.455S62.388,41.914,62.688,41.914z M63.037,41.148c0,0.461-0.697,0.461-0.697,0
		C62.34,40.688,63.037,40.688,63.037,41.148z"/>
</g>
<g>
	<path fill="#F8B62D" d="M53.757,80.164h-1.745l-2.214-3.057c-0.163,0.006-0.297,0.01-0.399,0.01c-0.042,0-0.087-0.001-0.136-0.003
		c-0.048-0.001-0.098-0.004-0.149-0.007v1.899c0,0.412,0.045,0.667,0.136,0.767c0.122,0.142,0.305,0.213,0.549,0.213h0.256v0.178
		h-2.801v-0.178h0.245c0.276,0,0.475-0.091,0.594-0.271c0.067-0.1,0.101-0.336,0.101-0.709v-4.224c0-0.411-0.045-0.667-0.135-0.767
		c-0.125-0.142-0.312-0.212-0.56-0.212h-0.245v-0.179h2.382c0.694,0,1.206,0.051,1.535,0.152c0.329,0.101,0.609,0.287,0.839,0.559
		c0.23,0.272,0.345,0.596,0.345,0.972c0,0.402-0.131,0.751-0.393,1.047c-0.262,0.295-0.668,0.504-1.218,0.627l1.351,1.875
		c0.309,0.431,0.573,0.717,0.795,0.858s0.512,0.231,0.868,0.271V80.164z M49.113,76.804c0.062,0,0.114,0.001,0.159,0.002
		c0.045,0.002,0.082,0.003,0.111,0.003c0.623,0,1.094-0.135,1.41-0.405s0.475-0.614,0.475-1.032c0-0.408-0.127-0.74-0.383-0.995
		c-0.256-0.256-0.594-0.384-1.016-0.384c-0.186,0-0.438,0.031-0.757,0.092V76.804z"/>
	<path fill="#F8B62D" d="M57.281,73.477c0.849,0,1.584,0.322,2.206,0.967s0.934,1.449,0.934,2.413c0,0.993-0.313,1.818-0.94,2.474
		c-0.627,0.656-1.386,0.983-2.276,0.983c-0.899,0-1.656-0.319-2.269-0.959s-0.918-1.468-0.918-2.483
		c0-1.038,0.354-1.886,1.061-2.541C55.692,73.761,56.427,73.477,57.281,73.477z M57.19,73.828c-0.586,0-1.055,0.218-1.408,0.651
		c-0.44,0.54-0.661,1.331-0.661,2.372c0,1.067,0.229,1.889,0.685,2.464c0.351,0.438,0.813,0.656,1.389,0.656
		c0.614,0,1.121-0.239,1.521-0.719c0.4-0.479,0.601-1.234,0.601-2.267c0-1.118-0.22-1.952-0.661-2.502
		C58.302,74.047,57.813,73.828,57.19,73.828z"/>
	<path fill="#F8B62D" d="M65.508,73.626h2.28v0.179h-0.125c-0.084,0-0.206,0.037-0.367,0.11c-0.16,0.074-0.307,0.181-0.438,0.318
		c-0.132,0.139-0.294,0.363-0.487,0.675l-1.576,2.483v1.64c0,0.401,0.045,0.652,0.135,0.752c0.122,0.135,0.315,0.203,0.579,0.203
		h0.212v0.178h-2.777v-0.178h0.231c0.276,0,0.473-0.084,0.588-0.251c0.071-0.103,0.106-0.338,0.106-0.704v-1.548l-1.794-2.739
		c-0.212-0.321-0.355-0.521-0.432-0.603c-0.075-0.08-0.231-0.177-0.47-0.289c-0.064-0.032-0.157-0.048-0.279-0.048v-0.179h2.796
		v0.179h-0.145c-0.151,0-0.29,0.035-0.417,0.105c-0.127,0.071-0.19,0.177-0.19,0.318c0,0.116,0.098,0.325,0.294,0.627l1.365,2.107
		l1.282-2.016c0.192-0.303,0.289-0.527,0.289-0.675c0-0.091-0.023-0.171-0.069-0.241c-0.047-0.071-0.113-0.126-0.2-0.166
		c-0.087-0.041-0.218-0.061-0.391-0.061V73.626z"/>
	<path fill="#F8B62D" d="M71.356,77.976h-2.531l-0.444,1.031c-0.108,0.254-0.163,0.444-0.163,0.569c0,0.1,0.047,0.188,0.142,0.263
		s0.3,0.124,0.615,0.147v0.178h-2.06v-0.178c0.273-0.049,0.45-0.111,0.531-0.188c0.163-0.154,0.345-0.468,0.544-0.94l2.301-5.381
		h0.168l2.276,5.439c0.184,0.437,0.35,0.721,0.499,0.851s0.357,0.203,0.624,0.22v0.178h-2.579v-0.178
		c0.26-0.014,0.437-0.057,0.527-0.131c0.092-0.074,0.138-0.164,0.138-0.27c0-0.142-0.064-0.365-0.192-0.67L71.356,77.976z
		 M71.222,77.618l-1.109-2.642l-1.138,2.642H71.222z"/>
	<path fill="#F8B62D" d="M79.63,78.356l0.159,0.033l-0.559,1.774h-5.063v-0.178h0.246c0.276,0,0.475-0.091,0.593-0.271
		c0.067-0.103,0.102-0.341,0.102-0.714v-4.219c0-0.408-0.045-0.664-0.135-0.767c-0.126-0.142-0.312-0.212-0.56-0.212h-0.246v-0.179
		h2.961v0.179c-0.348-0.004-0.591,0.028-0.73,0.096c-0.14,0.068-0.235,0.153-0.287,0.256c-0.052,0.104-0.077,0.349-0.077,0.738
		v4.107c0,0.268,0.025,0.45,0.077,0.55c0.039,0.067,0.098,0.117,0.179,0.149c0.08,0.032,0.331,0.049,0.752,0.049h0.478
		c0.501,0,0.854-0.037,1.056-0.111s0.388-0.205,0.555-0.393C79.296,79.058,79.463,78.762,79.63,78.356z"/>
</g>
<g>
	<g>
		<path fill="#FFFFFF" d="M62.735,50.528c-2.759,0-5.408,2.764-8.361,3.524c-0.061,5.056,0.872,11.22,8.358,14.447
			c7.486-3.229,8.417-9.394,8.354-14.45C68.131,53.286,65.501,50.51,62.735,50.528z M66.975,62.446h-1.969l-2.497-3.449
			c-0.185,0.007-0.335,0.011-0.451,0.011c-0.048,0-0.098,0-0.152-0.002s-0.11-0.005-0.168-0.009v2.144
			c0,0.464,0.05,0.753,0.151,0.865c0.139,0.159,0.345,0.239,0.62,0.239h0.289v0.201h-3.161v-0.201h0.277
			c0.312,0,0.535-0.103,0.67-0.306c0.076-0.111,0.114-0.378,0.114-0.799v-4.766c0-0.464-0.051-0.752-0.153-0.865
			c-0.142-0.159-0.351-0.238-0.631-0.238h-0.277v-0.202h2.688c0.784,0,1.36,0.058,1.732,0.172s0.688,0.324,0.947,0.631
			c0.259,0.307,0.389,0.672,0.389,1.097c0,0.453-0.147,0.846-0.443,1.18s-0.754,0.569-1.374,0.707l1.523,2.117
			c0.348,0.485,0.647,0.808,0.897,0.967c0.25,0.16,0.577,0.262,0.979,0.306V62.446z"/>
	</g>
	<g>
		<path fill="#FFFFFF" d="M64.169,57.039c0-0.461-0.145-0.836-0.434-1.123c-0.287-0.289-0.669-0.433-1.145-0.433
			c-0.21,0-0.495,0.034-0.854,0.103v3.068c0.068,0,0.128,0.001,0.179,0.003s0.093,0.003,0.126,0.003
			c0.703,0,1.233-0.152,1.591-0.457C63.989,57.898,64.169,57.51,64.169,57.039z"/>
	</g>
</g>
<g>
	<path fill="#FFFFFF" d="M53.973,86.455l0.763,0.759c0.126,0.125,0.231,0.21,0.32,0.255c0.088,0.045,0.177,0.071,0.266,0.078v0.056
		h-0.984v-0.056c0.06,0,0.102-0.012,0.127-0.031c0.026-0.02,0.039-0.042,0.039-0.065c0-0.024-0.005-0.047-0.015-0.066
		c-0.01-0.019-0.04-0.055-0.095-0.107l-0.714-0.707v0.667c0,0.104,0.007,0.174,0.02,0.207c0.011,0.025,0.032,0.047,0.064,0.066
		c0.043,0.023,0.09,0.037,0.138,0.037h0.071v0.056h-0.881v-0.056h0.072c0.085,0,0.147-0.026,0.187-0.076
		c0.023-0.032,0.037-0.111,0.037-0.234V85.9c0-0.105-0.007-0.175-0.021-0.211c-0.01-0.023-0.03-0.045-0.062-0.062
		c-0.043-0.025-0.092-0.037-0.14-0.037h-0.072v-0.056h0.881v0.056h-0.071c-0.047,0-0.093,0.012-0.138,0.036
		c-0.032,0.016-0.054,0.04-0.066,0.072c-0.011,0.032-0.018,0.1-0.018,0.202v0.632c0.021-0.02,0.09-0.084,0.209-0.192
		c0.302-0.277,0.483-0.462,0.548-0.555c0.027-0.041,0.04-0.076,0.04-0.106c0-0.024-0.009-0.043-0.032-0.062
		c-0.021-0.018-0.056-0.026-0.107-0.026H54.29v-0.056h0.759v0.056c-0.045,0-0.085,0.007-0.122,0.019
		c-0.035,0.011-0.08,0.033-0.133,0.065c-0.054,0.03-0.119,0.084-0.196,0.154c-0.022,0.021-0.126,0.124-0.309,0.312L53.973,86.455z"
		/>
	<path fill="#FFFFFF" d="M55.947,85.646v0.818h0.455c0.119,0,0.198-0.018,0.236-0.055c0.053-0.047,0.084-0.129,0.089-0.246h0.058
		v0.72h-0.058c-0.014-0.101-0.027-0.165-0.042-0.194c-0.018-0.035-0.049-0.062-0.09-0.083c-0.042-0.021-0.106-0.031-0.193-0.031
		h-0.455v0.682c0,0.092,0.005,0.148,0.013,0.167c0.009,0.021,0.023,0.036,0.044,0.049c0.02,0.011,0.058,0.018,0.116,0.018h0.35
		c0.117,0,0.203-0.01,0.256-0.025c0.052-0.017,0.103-0.049,0.152-0.096c0.062-0.063,0.127-0.158,0.193-0.285h0.061l-0.178,0.519
		h-1.595v-0.056h0.074c0.048,0,0.095-0.014,0.138-0.036c0.032-0.016,0.055-0.04,0.066-0.073c0.013-0.032,0.018-0.099,0.018-0.199
		v-1.344c0-0.132-0.013-0.213-0.039-0.243c-0.037-0.042-0.098-0.062-0.183-0.062h-0.074v-0.056h1.595l0.022,0.453h-0.06
		c-0.021-0.109-0.045-0.185-0.071-0.225c-0.025-0.04-0.063-0.073-0.115-0.094c-0.04-0.015-0.112-0.022-0.214-0.022H55.947z"/>
	<path fill="#FFFFFF" d="M57.855,85.646v0.818h0.455c0.118,0,0.197-0.018,0.236-0.055c0.053-0.047,0.083-0.129,0.088-0.246h0.058
		v0.72h-0.058c-0.013-0.101-0.027-0.165-0.042-0.194c-0.018-0.035-0.048-0.062-0.09-0.083c-0.042-0.021-0.105-0.031-0.192-0.031
		h-0.455v0.682c0,0.092,0.005,0.148,0.013,0.167c0.008,0.021,0.022,0.036,0.043,0.049c0.02,0.011,0.059,0.018,0.116,0.018h0.351
		c0.117,0,0.202-0.01,0.256-0.025c0.051-0.017,0.103-0.049,0.152-0.096c0.062-0.063,0.127-0.158,0.192-0.285h0.062l-0.179,0.519
		h-1.595v-0.056h0.074c0.049,0,0.095-0.014,0.139-0.036c0.032-0.016,0.055-0.04,0.065-0.073c0.013-0.032,0.018-0.099,0.018-0.199
		v-1.344c0-0.132-0.013-0.213-0.038-0.243c-0.037-0.042-0.098-0.062-0.184-0.062h-0.074v-0.056h1.595l0.022,0.453h-0.06
		c-0.021-0.109-0.045-0.185-0.07-0.225s-0.064-0.073-0.116-0.094c-0.04-0.015-0.112-0.022-0.213-0.022H57.855z"/>
	<path fill="#FFFFFF" d="M59.752,86.634v0.603c0,0.13,0.015,0.21,0.043,0.242c0.039,0.045,0.097,0.068,0.176,0.068h0.079v0.056
		h-0.886v-0.056h0.077c0.088,0,0.15-0.029,0.188-0.087c0.021-0.031,0.031-0.106,0.031-0.224V85.9c0-0.13-0.014-0.212-0.041-0.242
		c-0.04-0.045-0.1-0.068-0.178-0.068h-0.077v-0.056h0.759c0.185,0,0.33,0.02,0.437,0.056c0.107,0.039,0.198,0.104,0.271,0.193
		c0.073,0.092,0.109,0.197,0.109,0.323c0,0.169-0.055,0.306-0.166,0.411c-0.112,0.106-0.27,0.159-0.473,0.159
		c-0.05,0-0.104-0.005-0.162-0.011C59.881,86.659,59.819,86.648,59.752,86.634z M59.752,86.547c0.055,0.01,0.103,0.018,0.145,0.022
		s0.077,0.008,0.106,0.008c0.105,0,0.197-0.042,0.273-0.122c0.076-0.082,0.115-0.188,0.115-0.318c0-0.09-0.018-0.174-0.055-0.251
		c-0.037-0.075-0.088-0.133-0.156-0.172c-0.067-0.038-0.143-0.056-0.228-0.056c-0.054,0-0.119,0.01-0.201,0.028V86.547z"/>
	<path fill="#FFFFFF" d="M63.396,85.486l0.047,0.703h-0.047c-0.062-0.21-0.152-0.361-0.27-0.454
		c-0.118-0.094-0.258-0.139-0.422-0.139c-0.137,0-0.262,0.034-0.373,0.104c-0.108,0.069-0.197,0.18-0.26,0.333
		c-0.064,0.152-0.097,0.342-0.097,0.568c0,0.187,0.03,0.349,0.09,0.487c0.062,0.137,0.151,0.243,0.272,0.315
		c0.12,0.073,0.257,0.11,0.412,0.11c0.134,0,0.253-0.028,0.355-0.087c0.104-0.058,0.216-0.172,0.338-0.342l0.048,0.03
		c-0.104,0.184-0.225,0.318-0.363,0.403c-0.138,0.087-0.302,0.129-0.493,0.129c-0.343,0-0.607-0.127-0.796-0.381
		c-0.14-0.19-0.21-0.412-0.21-0.669c0-0.206,0.046-0.396,0.138-0.568c0.094-0.173,0.221-0.308,0.383-0.402s0.339-0.143,0.532-0.143
		c0.149,0,0.297,0.036,0.441,0.11c0.044,0.022,0.074,0.034,0.092,0.034c0.027,0,0.052-0.01,0.072-0.031
		c0.025-0.027,0.045-0.064,0.057-0.113H63.396z"/>
	<path fill="#FFFFFF" d="M65.39,87.03l0.051,0.01l-0.178,0.562h-1.602v-0.056h0.078c0.087,0,0.149-0.029,0.187-0.087
		c0.022-0.032,0.032-0.108,0.032-0.226V85.9c0-0.13-0.015-0.211-0.042-0.242c-0.04-0.045-0.1-0.068-0.177-0.068h-0.078v-0.056h0.937
		v0.056c-0.109-0.001-0.187,0.01-0.231,0.031c-0.043,0.021-0.074,0.048-0.09,0.08s-0.025,0.111-0.025,0.233v1.3
		c0,0.085,0.01,0.144,0.025,0.174c0.012,0.021,0.03,0.037,0.057,0.048c0.025,0.01,0.104,0.015,0.237,0.015h0.151
		c0.159,0,0.27-0.011,0.334-0.035c0.064-0.022,0.122-0.064,0.176-0.124C65.284,87.252,65.337,87.159,65.39,87.03z"/>
	<path fill="#FFFFFF" d="M66.937,86.91h-0.801l-0.142,0.326c-0.033,0.08-0.051,0.14-0.051,0.18c0,0.032,0.016,0.06,0.045,0.084
		c0.03,0.023,0.095,0.038,0.194,0.047v0.056h-0.651v-0.056c0.087-0.017,0.144-0.036,0.167-0.06c0.054-0.05,0.109-0.148,0.174-0.298
		l0.727-1.703h0.055l0.72,1.721c0.059,0.139,0.109,0.229,0.158,0.269c0.046,0.042,0.112,0.064,0.197,0.071v0.056h-0.816v-0.056
		c0.082-0.006,0.139-0.019,0.167-0.042c0.029-0.024,0.044-0.052,0.044-0.085c0-0.046-0.021-0.116-0.062-0.213L66.937,86.91z
		 M66.895,86.797l-0.353-0.837l-0.359,0.837H66.895z"/>
	<path fill="#FFFFFF" d="M69.194,85.486v0.715h-0.057c-0.018-0.137-0.049-0.246-0.098-0.328c-0.047-0.08-0.114-0.145-0.202-0.192
		c-0.087-0.049-0.177-0.072-0.271-0.072c-0.104,0-0.193,0.032-0.263,0.096c-0.068,0.066-0.103,0.139-0.103,0.222
		c0,0.063,0.021,0.121,0.064,0.173c0.064,0.075,0.214,0.178,0.45,0.305c0.194,0.104,0.326,0.184,0.396,0.238
		c0.071,0.056,0.126,0.12,0.162,0.196c0.039,0.075,0.059,0.154,0.059,0.236c0,0.157-0.062,0.292-0.184,0.404
		c-0.12,0.114-0.276,0.171-0.468,0.171c-0.061,0-0.117-0.005-0.17-0.013c-0.031-0.007-0.097-0.024-0.196-0.057
		c-0.098-0.032-0.161-0.048-0.188-0.048c-0.025,0-0.045,0.008-0.06,0.022c-0.016,0.016-0.025,0.046-0.033,0.095h-0.057V86.94h0.057
		c0.027,0.147,0.062,0.259,0.107,0.333c0.044,0.073,0.112,0.135,0.204,0.185c0.094,0.048,0.193,0.072,0.304,0.072
		c0.127,0,0.227-0.034,0.301-0.102c0.074-0.065,0.111-0.146,0.111-0.237c0-0.05-0.015-0.102-0.042-0.153
		c-0.029-0.053-0.072-0.101-0.131-0.146c-0.04-0.031-0.147-0.096-0.324-0.195c-0.179-0.098-0.304-0.178-0.378-0.236
		c-0.075-0.059-0.132-0.123-0.17-0.195c-0.039-0.071-0.059-0.149-0.059-0.234c0-0.148,0.057-0.277,0.171-0.385
		c0.114-0.105,0.259-0.16,0.436-0.16c0.109,0,0.225,0.027,0.349,0.082c0.057,0.023,0.097,0.036,0.121,0.036
		c0.025,0,0.048-0.008,0.063-0.022c0.019-0.016,0.031-0.048,0.04-0.096H69.194z"/>
	<path fill="#FFFFFF" d="M70.932,85.486v0.715h-0.056c-0.018-0.137-0.05-0.246-0.099-0.328c-0.046-0.08-0.114-0.145-0.202-0.192
		c-0.087-0.049-0.177-0.072-0.271-0.072c-0.104,0-0.193,0.032-0.262,0.096c-0.069,0.066-0.104,0.139-0.104,0.222
		c0,0.063,0.021,0.121,0.064,0.173c0.064,0.075,0.214,0.178,0.45,0.305c0.194,0.104,0.326,0.184,0.396,0.238
		c0.071,0.056,0.126,0.12,0.163,0.196c0.038,0.075,0.058,0.154,0.058,0.236c0,0.157-0.062,0.292-0.184,0.404
		c-0.12,0.114-0.276,0.171-0.468,0.171c-0.061,0-0.117-0.005-0.17-0.013c-0.031-0.007-0.097-0.024-0.196-0.057
		c-0.098-0.032-0.161-0.048-0.188-0.048c-0.025,0-0.045,0.008-0.059,0.022c-0.017,0.016-0.026,0.046-0.034,0.095h-0.057V86.94h0.057
		c0.027,0.147,0.062,0.259,0.107,0.333c0.044,0.073,0.112,0.135,0.204,0.185c0.094,0.048,0.193,0.072,0.304,0.072
		c0.127,0,0.227-0.034,0.301-0.102c0.074-0.065,0.111-0.146,0.111-0.237c0-0.05-0.015-0.102-0.042-0.153
		c-0.029-0.053-0.072-0.101-0.131-0.146c-0.04-0.031-0.147-0.096-0.324-0.195c-0.179-0.098-0.304-0.178-0.378-0.236
		c-0.075-0.059-0.132-0.123-0.17-0.195c-0.039-0.071-0.058-0.149-0.058-0.234c0-0.148,0.056-0.277,0.17-0.385
		c0.114-0.105,0.259-0.16,0.436-0.16c0.109,0,0.225,0.027,0.349,0.082c0.057,0.023,0.097,0.036,0.121,0.036
		c0.025,0,0.048-0.008,0.063-0.022c0.019-0.016,0.031-0.048,0.041-0.096H70.932z"/>
	<path fill="#FFFFFF" d="M72.728,85.534h0.722v0.056h-0.04c-0.027,0-0.066,0.012-0.116,0.036c-0.052,0.022-0.098,0.056-0.14,0.1
		c-0.042,0.045-0.094,0.115-0.153,0.214l-0.499,0.785v0.52c0,0.127,0.014,0.206,0.043,0.238c0.039,0.041,0.1,0.064,0.184,0.064
		h0.065v0.056h-0.878v-0.056h0.073c0.088,0,0.149-0.027,0.187-0.081c0.021-0.032,0.033-0.106,0.033-0.222v-0.49l-0.567-0.866
		c-0.067-0.102-0.112-0.165-0.137-0.191c-0.024-0.025-0.073-0.056-0.149-0.092c-0.02-0.009-0.05-0.015-0.088-0.015v-0.056h0.885
		v0.056h-0.046c-0.047,0-0.092,0.012-0.132,0.034s-0.06,0.057-0.06,0.1c0,0.037,0.03,0.103,0.093,0.199l0.431,0.667l0.407-0.638
		c0.061-0.097,0.092-0.167,0.092-0.214c0-0.029-0.009-0.055-0.023-0.077c-0.014-0.021-0.035-0.039-0.063-0.052
		c-0.027-0.013-0.067-0.02-0.122-0.02V85.534z"/>
</g>
</svg>
