<?xml version="1.0" encoding="utf-8"?>
<!-- Generator: Adobe Illustrator 16.0.0, SVG Export Plug-In . SVG Version: 6.00 Build 0)  -->
<!DOCTYPE svg PUBLIC "-//W3C//DTD SVG 1.1//EN" "http://www.w3.org/Graphics/SVG/1.1/DTD/svg11.dtd">
<svg version="1.1" id="Layer_1" xmlns="http://www.w3.org/2000/svg" xmlns:xlink="http://www.w3.org/1999/xlink" x="0px" y="0px"
	 width="126.876px" height="112.438px" viewBox="0 0 126.876 112.438" enable-background="new 0 0 126.876 112.438"
	 xml:space="preserve">
<rect fill="#FFFFFF" width="126.876" height="112.438"/>
<ellipse transform="matrix(0.9922 -0.1248 0.1248 0.9922 -6.2511 8.5895)" cx="65.438" cy="54.192" rx="24.017" ry="21.288"/>
<ellipse transform="matrix(0.9922 -0.1248 0.1248 0.9922 -6.4219 8.0429)" fill="#E4007F" cx="60.991" cy="55.284" rx="24.018" ry="21.287"/>
<ellipse transform="matrix(0.9922 -0.1248 0.1248 0.9922 -6.1896 8.7311)" cx="66.599" cy="53.772" rx="24.017" ry="21.288"/>
<text transform="matrix(0.999 -0.0452 0.0452 0.999 49.1494 54.5127)" fill="#FFFFFF" font-family="'CloudHeiCuGBK'" font-size="11.1843">男友力</text>
<text transform="matrix(0.999 -0.0452 0.0452 0.999 52.8496 65.5732)" fill="#FFFFFF" font-family="'CloudHeiCuGBK'" font-size="11.1843">MAX</text>
<ellipse transform="matrix(0.9812 -0.1929 0.1929 0.9812 -6.5814 10.0044)" fill="#E4007F" cx="48.097" cy="38.808" rx="8.846" ry="1.193"/>
<ellipse transform="matrix(0.9812 -0.1929 0.1929 0.9812 -5.8389 16.7574)" cx="83.147" cy="38.367" rx="7.797" ry="0.637"/>
<ellipse transform="matrix(0.9812 -0.1928 0.1928 0.9812 -7.961 18.3036)" cx="90.042" cy="50.046" rx="5.168" ry="1.315"/>
<path d="M101.03,38.385c-0.104-0.538-5.392,0.048-11.807,1.31c-6.414,1.26-11.525,2.719-11.42,3.256
	c0.107,0.536,5.391-0.051,11.805-1.312C96.021,40.38,101.135,38.92,101.03,38.385z"/>
<ellipse transform="matrix(0.9812 -0.1929 0.1929 0.9812 -13.4212 12.3627)" fill="#E4007F" cx="56.78" cy="75.108" rx="7.797" ry="0.636"/>
<ellipse transform="matrix(0.9812 -0.1928 0.1928 0.9812 -13.1523 9.5755)" fill="#E4007F" cx="42.62" cy="72.36" rx="7.797" ry="0.636"/>
<ellipse transform="matrix(0.9812 -0.1929 0.1929 0.9812 -11.267 17.2862)" cx="83.146" cy="66.509" rx="14.516" ry="1.128"/>
<ellipse transform="matrix(0.9812 -0.1929 0.1929 0.9812 -11.318 7.5225)" fill="#E4007F" cx="32.976" cy="61.889" rx="16.402" ry="1.196"/>
</svg>
