<?xml version="1.0" encoding="utf-8"?>
<!-- Generator: Adobe Illustrator 16.0.0, SVG Export Plug-In . SVG Version: 6.00 Build 0)  -->
<!DOCTYPE svg PUBLIC "-//W3C//DTD SVG 1.1//EN" "http://www.w3.org/Graphics/SVG/1.1/DTD/svg11.dtd">
<svg version="1.1" id="Layer_1" xmlns="http://www.w3.org/2000/svg" xmlns:xlink="http://www.w3.org/1999/xlink" x="0px" y="0px"
	 width="126.876px" height="112.438px" viewBox="0 0 126.876 112.438" enable-background="new 0 0 126.876 112.438"
	 xml:space="preserve">
<rect fill="#FFFFFF" width="126.876" height="112.438"/>
<g>
	<line fill="none" stroke="#FFFFFF" stroke-width="0.5" stroke-miterlimit="10" x1="61.556" y1="17.731" x2="32.674" y2="46.614"/>
	<line fill="none" stroke="#FFFFFF" stroke-width="0.5" stroke-miterlimit="10" x1="63.353" y1="19.528" x2="34.47" y2="48.411"/>
	<line fill="none" stroke="#FFFFFF" stroke-width="0.5" stroke-miterlimit="10" x1="65.148" y1="21.325" x2="36.267" y2="50.207"/>
	<line fill="none" stroke="#FFFFFF" stroke-width="0.5" stroke-miterlimit="10" x1="66.945" y1="23.121" x2="38.063" y2="52.004"/>
	<line fill="none" stroke="#FFFFFF" stroke-width="0.5" stroke-miterlimit="10" x1="68.741" y1="24.918" x2="39.86" y2="53.801"/>
	<line fill="none" stroke="#FFFFFF" stroke-width="0.5" stroke-miterlimit="10" x1="70.539" y1="26.715" x2="41.656" y2="55.597"/>
	<line fill="none" stroke="#FFFFFF" stroke-width="0.5" stroke-miterlimit="10" x1="72.335" y1="28.512" x2="43.453" y2="57.394"/>
	<line fill="none" stroke="#FFFFFF" stroke-width="0.5" stroke-miterlimit="10" x1="74.132" y1="30.308" x2="45.249" y2="59.19"/>
	<line fill="none" stroke="#FFFFFF" stroke-width="0.5" stroke-miterlimit="10" x1="75.928" y1="32.104" x2="47.046" y2="60.987"/>
	<line fill="none" stroke="#FFFFFF" stroke-width="0.5" stroke-miterlimit="10" x1="77.725" y1="33.9" x2="48.842" y2="62.783"/>
	<line fill="none" stroke="#FFFFFF" stroke-width="0.5" stroke-miterlimit="10" x1="79.521" y1="35.697" x2="50.639" y2="64.58"/>
	<line fill="none" stroke="#FFFFFF" stroke-width="0.5" stroke-miterlimit="10" x1="81.318" y1="37.494" x2="52.436" y2="66.377"/>
	<line fill="none" stroke="#FFFFFF" stroke-width="0.5" stroke-miterlimit="10" x1="83.114" y1="39.291" x2="54.232" y2="68.174"/>
	<line fill="none" stroke="#FFFFFF" stroke-width="0.5" stroke-miterlimit="10" x1="84.91" y1="41.087" x2="56.028" y2="69.97"/>
	<line fill="none" stroke="#FFFFFF" stroke-width="0.5" stroke-miterlimit="10" x1="86.707" y1="42.884" x2="57.824" y2="71.767"/>
	<line fill="none" stroke="#FFFFFF" stroke-width="0.5" stroke-miterlimit="10" x1="88.504" y1="44.68" x2="59.621" y2="73.563"/>
	<line fill="none" stroke="#FFFFFF" stroke-width="0.5" stroke-miterlimit="10" x1="90.301" y1="46.477" x2="61.418" y2="75.36"/>
	<line fill="none" stroke="#FFFFFF" stroke-width="0.5" stroke-miterlimit="10" x1="92.097" y1="48.273" x2="63.215" y2="77.156"/>
	<line fill="none" stroke="#FFFFFF" stroke-width="0.5" stroke-miterlimit="10" x1="93.895" y1="50.07" x2="65.012" y2="78.953"/>
	<line fill="none" stroke="#FFFFFF" stroke-width="0.5" stroke-miterlimit="10" x1="95.69" y1="51.867" x2="66.807" y2="80.749"/>
	<line fill="none" stroke="#FFFFFF" stroke-width="0.5" stroke-miterlimit="10" x1="97.486" y1="53.663" x2="68.604" y2="82.547"/>
	<line fill="none" stroke="#FFFFFF" stroke-width="0.5" stroke-miterlimit="10" x1="99.283" y1="55.46" x2="70.4" y2="84.343"/>
</g>
<text transform="matrix(1 0 0 1 27.9785 60.1436)" font-family="'Impact'" font-size="28.5412">MAN</text>
<rect x="81.312" y="37.834" width="8.641" height="39"/>
<rect x="29.312" y="62.167" width="48.667" height="14.667"/>
<text transform="matrix(1 0 0 1 32.3525 71.8262)" fill="#FFFFFF" font-family="'HYQiHeiY4-EEW-GBpc-EUC-H'" font-size="9.3902">FASHION</text>
</svg>
