<?xml version="1.0" encoding="utf-8"?>
<!-- Generator: Adobe Illustrator 16.0.0, SVG Export Plug-In . SVG Version: 6.00 Build 0)  -->
<!DOCTYPE svg PUBLIC "-//W3C//DTD SVG 1.1//EN" "http://www.w3.org/Graphics/SVG/1.1/DTD/svg11.dtd">
<svg version="1.1" id="Layer_1" xmlns="http://www.w3.org/2000/svg" xmlns:xlink="http://www.w3.org/1999/xlink" x="0px" y="0px"
	 width="126.876px" height="112.438px" viewBox="0 0 126.876 112.438" enable-background="new 0 0 126.876 112.438"
	 xml:space="preserve">
<rect fill="#FFFFFF" width="126.876" height="112.438"/>
<rect x="43.257" y="35.822" transform="matrix(0.7071 0.7071 -0.7071 0.7071 54.0447 -26.7411)" width="32.09" height="32.09"/>
<polygon fill="#E4007F" points="67.331,42.271 73.729,35.873 80.126,42.271 "/>
<polygon fill="#FFFFFF" points="53.185,73.436 43.831,64.083 62.537,64.083 "/>
<polygon fill="#F39800" points="45.651,48.017 42.098,44.463 49.206,44.463 "/>
<polygon fill="#036EB8" points="40.418,45.295 43.971,48.849 36.863,48.849 "/>
<text transform="matrix(1 0 0 1 48.2715 55.3398)" fill="#FFFFFF" font-family="'STSongti-SC-Bold'" font-size="10.7917">本季新款</text>
<g>
	<path fill="#2EA7E0" d="M87.217,65.583c-0.406,0-0.619-0.182-0.789-0.327c-0.142-0.12-0.236-0.2-0.447-0.2
		c-0.212,0-0.305,0.08-0.447,0.2c-0.17,0.146-0.383,0.327-0.789,0.327c-0.405,0-0.618-0.182-0.789-0.327
		c-0.141-0.12-0.234-0.2-0.446-0.2c-0.211,0-0.304,0.08-0.445,0.2c-0.171,0.146-0.383,0.327-0.788,0.327
		c-0.406,0-0.618-0.182-0.788-0.327c-0.142-0.12-0.234-0.2-0.446-0.2c-0.211,0-0.305,0.08-0.445,0.2
		c-0.171,0.146-0.383,0.327-0.789,0.327c-0.405,0-0.617-0.182-0.788-0.327c-0.142-0.12-0.234-0.2-0.446-0.2
		c-0.211,0-0.305,0.08-0.445,0.2c-0.171,0.146-0.383,0.327-0.789,0.327c-0.405,0-0.617-0.182-0.787-0.327
		c-0.142-0.12-0.234-0.2-0.446-0.2s-0.304,0.08-0.445,0.2c-0.171,0.146-0.383,0.327-0.788,0.327s-0.617-0.182-0.788-0.327
		c-0.142-0.12-0.234-0.2-0.445-0.2s-0.305,0.08-0.445,0.2c-0.171,0.146-0.382,0.327-0.788,0.327s-0.617-0.182-0.788-0.327
		c-0.142-0.12-0.234-0.2-0.445-0.2v-0.527c0.405,0,0.618,0.181,0.788,0.327c0.141,0.12,0.234,0.2,0.445,0.2s0.305-0.08,0.445-0.2
		c0.171-0.146,0.383-0.327,0.788-0.327s0.618,0.181,0.788,0.327c0.142,0.12,0.234,0.2,0.445,0.2c0.212,0,0.305-0.08,0.446-0.2
		c0.169-0.146,0.382-0.327,0.787-0.327c0.406,0,0.618,0.181,0.788,0.327c0.142,0.12,0.234,0.2,0.445,0.2s0.305-0.08,0.446-0.2
		c0.171-0.146,0.382-0.327,0.788-0.327s0.618,0.181,0.789,0.327c0.141,0.12,0.234,0.2,0.445,0.2c0.212,0,0.305-0.08,0.446-0.2
		c0.171-0.146,0.383-0.327,0.788-0.327c0.406,0,0.617,0.181,0.789,0.327c0.141,0.12,0.234,0.2,0.445,0.2s0.305-0.08,0.445-0.2
		c0.171-0.146,0.383-0.327,0.788-0.327c0.407,0,0.619,0.181,0.789,0.327c0.142,0.12,0.235,0.2,0.446,0.2
		c0.213,0,0.306-0.08,0.447-0.2c0.171-0.146,0.383-0.327,0.789-0.327s0.618,0.181,0.789,0.327c0.142,0.12,0.235,0.2,0.447,0.2
		V65.583z"/>
</g>
<g>
	<path fill="#2EA7E0" d="M89.08,69.047c-0.406,0-0.619-0.182-0.789-0.327c-0.143-0.12-0.236-0.2-0.447-0.2
		c-0.212,0-0.305,0.08-0.447,0.2c-0.171,0.146-0.383,0.327-0.789,0.327c-0.405,0-0.618-0.182-0.789-0.327
		c-0.141-0.12-0.234-0.2-0.446-0.2c-0.211,0-0.305,0.08-0.445,0.2c-0.171,0.146-0.383,0.327-0.788,0.327
		c-0.406,0-0.619-0.182-0.789-0.327c-0.141-0.12-0.234-0.2-0.445-0.2c-0.212,0-0.305,0.08-0.446,0.2
		c-0.171,0.146-0.382,0.327-0.788,0.327c-0.405,0-0.617-0.182-0.788-0.327c-0.142-0.12-0.234-0.2-0.446-0.2
		c-0.211,0-0.305,0.08-0.445,0.2c-0.171,0.146-0.383,0.327-0.789,0.327c-0.405,0-0.617-0.182-0.788-0.327
		c-0.142-0.12-0.234-0.2-0.445-0.2c-0.212,0-0.304,0.08-0.445,0.2c-0.171,0.146-0.383,0.327-0.788,0.327
		c-0.406,0-0.618-0.182-0.789-0.327c-0.141-0.12-0.234-0.2-0.445-0.2s-0.304,0.08-0.445,0.2c-0.17,0.146-0.382,0.327-0.787,0.327
		c-0.406,0-0.617-0.182-0.788-0.327c-0.142-0.12-0.234-0.2-0.445-0.2v-0.527c0.405,0,0.617,0.182,0.788,0.327
		c0.141,0.12,0.234,0.2,0.445,0.2s0.305-0.08,0.445-0.2c0.17-0.146,0.383-0.327,0.787-0.327c0.406,0,0.618,0.182,0.789,0.327
		c0.142,0.12,0.234,0.2,0.445,0.2s0.305-0.08,0.445-0.2c0.17-0.146,0.382-0.327,0.788-0.327s0.618,0.182,0.788,0.327
		c0.141,0.12,0.234,0.2,0.445,0.2s0.305-0.08,0.446-0.2c0.171-0.146,0.382-0.327,0.788-0.327s0.617,0.182,0.788,0.327
		c0.142,0.12,0.234,0.2,0.446,0.2c0.211,0,0.305-0.08,0.445-0.2c0.171-0.146,0.383-0.327,0.789-0.327s0.617,0.182,0.789,0.327
		c0.141,0.12,0.234,0.2,0.445,0.2s0.305-0.08,0.445-0.2c0.171-0.146,0.383-0.327,0.788-0.327c0.406,0,0.618,0.182,0.788,0.327
		c0.143,0.12,0.235,0.2,0.447,0.2s0.306-0.08,0.446-0.2c0.171-0.146,0.384-0.327,0.79-0.327s0.618,0.182,0.789,0.327
		c0.141,0.12,0.235,0.2,0.447,0.2V69.047z"/>
</g>
<g>
	<path fill="#FFFFFF" d="M88.137,67.275c-0.405,0-0.617-0.181-0.788-0.326c-0.142-0.12-0.235-0.201-0.446-0.201
		c-0.213,0-0.307,0.081-0.447,0.201c-0.172,0.146-0.384,0.326-0.79,0.326c-0.405,0-0.618-0.181-0.789-0.326
		c-0.141-0.12-0.233-0.201-0.446-0.201c-0.211,0-0.305,0.081-0.445,0.201c-0.17,0.146-0.383,0.326-0.788,0.326
		c-0.406,0-0.618-0.181-0.788-0.326c-0.142-0.12-0.234-0.201-0.445-0.201c-0.213,0-0.305,0.081-0.447,0.201
		c-0.17,0.146-0.382,0.326-0.788,0.326c-0.405,0-0.618-0.181-0.788-0.326c-0.141-0.12-0.234-0.201-0.446-0.201
		c-0.211,0-0.305,0.081-0.446,0.201c-0.17,0.146-0.383,0.326-0.787,0.326c-0.406,0-0.618-0.181-0.789-0.326
		c-0.141-0.12-0.234-0.201-0.445-0.201s-0.305,0.081-0.445,0.201c-0.17,0.146-0.383,0.326-0.787,0.326
		c-0.406,0-0.619-0.181-0.789-0.326c-0.142-0.12-0.234-0.201-0.445-0.201s-0.305,0.081-0.445,0.201
		c-0.171,0.146-0.383,0.326-0.788,0.326c-0.406,0-0.618-0.181-0.788-0.326c-0.141-0.12-0.234-0.201-0.445-0.201v-0.526
		c0.405,0,0.617,0.181,0.788,0.327c0.142,0.12,0.234,0.199,0.445,0.199s0.304-0.079,0.445-0.199
		c0.171-0.146,0.382-0.327,0.788-0.327s0.617,0.181,0.788,0.327c0.142,0.12,0.234,0.199,0.446,0.199
		c0.211,0,0.303-0.079,0.445-0.199c0.169-0.146,0.381-0.327,0.787-0.327s0.618,0.181,0.789,0.327
		c0.141,0.12,0.233,0.199,0.445,0.199c0.211,0,0.304-0.079,0.445-0.199c0.17-0.146,0.383-0.327,0.788-0.327
		c0.406,0,0.618,0.181,0.788,0.327c0.143,0.12,0.234,0.199,0.446,0.199s0.305-0.079,0.446-0.199c0.17-0.146,0.383-0.327,0.789-0.327
		c0.405,0,0.617,0.181,0.788,0.327c0.14,0.12,0.233,0.199,0.445,0.199s0.305-0.079,0.446-0.199c0.17-0.146,0.382-0.327,0.787-0.327
		c0.406,0,0.619,0.181,0.789,0.327c0.143,0.12,0.234,0.199,0.446,0.199s0.306-0.079,0.446-0.199
		c0.172-0.146,0.384-0.327,0.791-0.327c0.404,0,0.617,0.181,0.787,0.327c0.143,0.12,0.236,0.199,0.447,0.199V67.275z"/>
</g>
<g>
	<path fill="#2EA7E0" d="M47.022,58.974c-0.527,0-0.804-0.236-1.024-0.425c-0.184-0.156-0.307-0.26-0.58-0.26
		c-0.275,0-0.396,0.104-0.581,0.26c-0.22,0.188-0.496,0.425-1.023,0.425c-0.526,0-0.803-0.236-1.024-0.425
		c-0.183-0.156-0.304-0.26-0.579-0.26c-0.273,0-0.394,0.104-0.578,0.26c-0.222,0.188-0.496,0.425-1.022,0.425
		c-0.527,0-0.802-0.236-1.022-0.425c-0.184-0.156-0.305-0.26-0.579-0.26s-0.396,0.104-0.578,0.26
		c-0.222,0.188-0.497,0.425-1.024,0.425c-0.525,0-0.801-0.236-1.022-0.425c-0.184-0.156-0.304-0.26-0.579-0.26
		c-0.273,0-0.396,0.104-0.578,0.26c-0.222,0.188-0.496,0.425-1.023,0.425c-0.526,0-0.801-0.236-1.021-0.425
		c-0.184-0.156-0.305-0.26-0.58-0.26c-0.274,0-0.394,0.104-0.577,0.26c-0.222,0.188-0.497,0.425-1.022,0.425
		c-0.526,0-0.802-0.236-1.023-0.425c-0.184-0.156-0.305-0.26-0.578-0.26s-0.396,0.104-0.578,0.26
		c-0.221,0.188-0.495,0.425-1.022,0.425s-0.801-0.236-1.022-0.425c-0.184-0.156-0.305-0.26-0.578-0.26v-0.685
		c0.526,0,0.803,0.234,1.023,0.425c0.182,0.156,0.304,0.26,0.577,0.26c0.274,0,0.396-0.104,0.578-0.26
		c0.222-0.19,0.497-0.425,1.022-0.425c0.526,0,0.803,0.234,1.023,0.425c0.184,0.156,0.304,0.26,0.578,0.26s0.395-0.104,0.578-0.26
		c0.22-0.19,0.496-0.425,1.021-0.425c0.527,0,0.803,0.234,1.023,0.425c0.184,0.156,0.304,0.26,0.578,0.26
		c0.273,0,0.395-0.104,0.579-0.26c0.222-0.19,0.495-0.425,1.022-0.425s0.803,0.234,1.023,0.425c0.184,0.156,0.305,0.26,0.578,0.26
		c0.275,0,0.396-0.104,0.58-0.26c0.221-0.19,0.496-0.425,1.022-0.425c0.527,0,0.801,0.234,1.023,0.425
		c0.183,0.156,0.305,0.26,0.578,0.26c0.274,0,0.396-0.104,0.578-0.26c0.222-0.19,0.497-0.425,1.022-0.425
		c0.529,0,0.804,0.234,1.024,0.425c0.184,0.156,0.306,0.26,0.579,0.26c0.276,0,0.396-0.104,0.58-0.26
		c0.223-0.19,0.497-0.425,1.024-0.425s0.802,0.234,1.024,0.425c0.184,0.156,0.305,0.26,0.58,0.26V58.974z"/>
</g>
<g>
	<path fill="#2EA7E0" d="M49.44,63.469c-0.527,0-0.804-0.236-1.023-0.425c-0.186-0.155-0.307-0.26-0.581-0.26
		s-0.396,0.104-0.58,0.26c-0.222,0.188-0.497,0.425-1.024,0.425c-0.525,0-0.803-0.236-1.023-0.425
		c-0.184-0.155-0.305-0.26-0.58-0.26c-0.273,0-0.395,0.104-0.577,0.26c-0.222,0.188-0.497,0.425-1.023,0.425
		s-0.804-0.236-1.023-0.425c-0.183-0.155-0.305-0.26-0.578-0.26c-0.275,0-0.396,0.104-0.579,0.26
		c-0.222,0.188-0.496,0.425-1.023,0.425c-0.525,0-0.801-0.236-1.022-0.425c-0.184-0.155-0.304-0.26-0.579-0.26
		c-0.273,0-0.396,0.104-0.578,0.26c-0.222,0.188-0.496,0.425-1.023,0.425c-0.526,0-0.801-0.236-1.023-0.425
		c-0.184-0.155-0.304-0.26-0.577-0.26c-0.275,0-0.395,0.104-0.578,0.26c-0.222,0.188-0.497,0.425-1.022,0.425
		c-0.527,0-0.803-0.236-1.024-0.425c-0.183-0.155-0.304-0.26-0.578-0.26c-0.273,0-0.394,0.104-0.578,0.26
		c-0.22,0.188-0.495,0.425-1.021,0.425s-0.801-0.236-1.022-0.425c-0.184-0.155-0.305-0.26-0.578-0.26V62.1
		c0.526,0,0.801,0.236,1.023,0.425c0.182,0.156,0.304,0.26,0.577,0.26c0.274,0,0.396-0.104,0.578-0.26
		c0.221-0.188,0.497-0.425,1.021-0.425c0.527,0,0.803,0.236,1.024,0.425c0.184,0.156,0.304,0.26,0.578,0.26
		c0.273,0,0.395-0.104,0.577-0.26c0.221-0.188,0.496-0.425,1.023-0.425c0.526,0,0.802,0.236,1.022,0.425
		c0.183,0.156,0.305,0.26,0.578,0.26s0.396-0.104,0.579-0.26c0.222-0.188,0.495-0.425,1.022-0.425s0.801,0.236,1.023,0.425
		c0.184,0.156,0.304,0.26,0.578,0.26s0.396-0.104,0.578-0.26c0.223-0.188,0.497-0.425,1.024-0.425s0.801,0.236,1.024,0.425
		c0.182,0.156,0.304,0.26,0.577,0.26c0.274,0,0.396-0.104,0.578-0.26c0.222-0.188,0.497-0.425,1.022-0.425
		c0.527,0,0.803,0.236,1.023,0.425c0.185,0.156,0.305,0.26,0.58,0.26s0.396-0.104,0.579-0.26c0.222-0.188,0.498-0.425,1.025-0.425
		s0.802,0.236,1.024,0.425c0.182,0.156,0.305,0.26,0.58,0.26V63.469z"/>
</g>
<g>
	<path fill="#FFFFFF" d="M48.216,61.17c-0.525,0-0.801-0.234-1.022-0.424c-0.184-0.155-0.306-0.261-0.579-0.261
		c-0.276,0-0.398,0.105-0.58,0.261c-0.224,0.189-0.498,0.424-1.025,0.424c-0.526,0-0.803-0.234-1.024-0.424
		c-0.183-0.155-0.303-0.261-0.579-0.261c-0.273,0-0.396,0.105-0.578,0.261c-0.221,0.189-0.496,0.424-1.022,0.424
		c-0.527,0-0.802-0.234-1.022-0.424c-0.184-0.155-0.305-0.261-0.578-0.261c-0.276,0-0.396,0.105-0.58,0.261
		c-0.221,0.189-0.496,0.424-1.023,0.424c-0.525,0-0.802-0.234-1.022-0.424c-0.183-0.155-0.304-0.261-0.579-0.261
		c-0.273,0-0.396,0.105-0.579,0.261c-0.221,0.189-0.497,0.424-1.021,0.424c-0.527,0-0.803-0.234-1.024-0.424
		c-0.183-0.155-0.305-0.261-0.578-0.261s-0.395,0.105-0.578,0.261c-0.22,0.189-0.496,0.424-1.021,0.424
		c-0.527,0-0.803-0.234-1.023-0.424c-0.184-0.155-0.305-0.261-0.578-0.261s-0.396,0.105-0.578,0.261
		c-0.222,0.189-0.496,0.424-1.022,0.424c-0.527,0-0.802-0.234-1.022-0.424c-0.183-0.155-0.305-0.261-0.578-0.261v-0.683
		c0.525,0,0.801,0.234,1.022,0.424c0.185,0.156,0.305,0.259,0.578,0.259s0.394-0.103,0.578-0.259
		c0.222-0.189,0.495-0.424,1.022-0.424s0.801,0.234,1.023,0.424c0.184,0.156,0.304,0.259,0.578,0.259s0.394-0.103,0.578-0.259
		c0.22-0.189,0.494-0.424,1.021-0.424s0.803,0.234,1.024,0.424c0.183,0.156,0.303,0.259,0.578,0.259
		c0.273,0,0.394-0.103,0.577-0.259c0.221-0.189,0.497-0.424,1.023-0.424c0.527,0,0.802,0.234,1.022,0.424
		c0.185,0.156,0.304,0.259,0.579,0.259s0.396-0.103,0.579-0.259c0.221-0.189,0.497-0.424,1.024-0.424
		c0.525,0,0.801,0.234,1.022,0.424c0.182,0.156,0.303,0.259,0.578,0.259c0.274,0,0.396-0.103,0.579-0.259
		c0.221-0.189,0.496-0.424,1.021-0.424c0.527,0,0.804,0.234,1.024,0.424c0.185,0.156,0.304,0.259,0.579,0.259
		c0.274,0,0.396-0.103,0.579-0.259c0.223-0.189,0.498-0.424,1.026-0.424c0.524,0,0.801,0.234,1.021,0.424
		c0.186,0.156,0.307,0.259,0.58,0.259V61.17z"/>
</g>
<g>
	<path fill="#2EA7E0" d="M47.451,37.867c-0.406,0-0.619-0.182-0.789-0.327c-0.142-0.12-0.236-0.2-0.447-0.2
		c-0.212,0-0.305,0.08-0.447,0.2c-0.17,0.146-0.383,0.327-0.789,0.327c-0.405,0-0.618-0.182-0.789-0.327
		c-0.141-0.12-0.234-0.2-0.446-0.2c-0.211,0-0.304,0.08-0.445,0.2c-0.171,0.146-0.383,0.327-0.788,0.327
		c-0.406,0-0.618-0.182-0.788-0.327c-0.142-0.12-0.234-0.2-0.446-0.2c-0.211,0-0.305,0.08-0.445,0.2
		c-0.171,0.146-0.383,0.327-0.789,0.327c-0.405,0-0.617-0.182-0.788-0.327c-0.142-0.12-0.234-0.2-0.446-0.2
		c-0.211,0-0.305,0.08-0.445,0.2c-0.171,0.146-0.383,0.327-0.789,0.327c-0.405,0-0.617-0.182-0.787-0.327
		c-0.142-0.12-0.234-0.2-0.446-0.2s-0.304,0.08-0.445,0.2c-0.171,0.146-0.383,0.327-0.788,0.327s-0.617-0.182-0.788-0.327
		c-0.142-0.12-0.234-0.2-0.445-0.2s-0.305,0.08-0.445,0.2c-0.171,0.146-0.382,0.327-0.788,0.327s-0.617-0.182-0.788-0.327
		c-0.142-0.12-0.234-0.2-0.445-0.2v-0.527c0.405,0,0.618,0.181,0.788,0.327c0.141,0.12,0.234,0.2,0.445,0.2s0.305-0.08,0.445-0.2
		c0.171-0.146,0.383-0.327,0.788-0.327s0.618,0.181,0.788,0.327c0.142,0.12,0.234,0.2,0.445,0.2c0.212,0,0.305-0.08,0.446-0.2
		c0.169-0.146,0.382-0.327,0.787-0.327c0.406,0,0.618,0.181,0.788,0.327c0.142,0.12,0.234,0.2,0.445,0.2s0.305-0.08,0.446-0.2
		c0.171-0.146,0.382-0.327,0.788-0.327s0.618,0.181,0.789,0.327c0.141,0.12,0.234,0.2,0.445,0.2c0.212,0,0.305-0.08,0.446-0.2
		c0.171-0.146,0.383-0.327,0.788-0.327c0.406,0,0.617,0.181,0.789,0.327c0.141,0.12,0.234,0.2,0.445,0.2s0.305-0.08,0.445-0.2
		c0.171-0.146,0.383-0.327,0.788-0.327c0.407,0,0.619,0.181,0.789,0.327c0.142,0.12,0.235,0.2,0.446,0.2
		c0.213,0,0.306-0.08,0.447-0.2c0.171-0.146,0.383-0.327,0.789-0.327s0.618,0.181,0.789,0.327c0.142,0.12,0.235,0.2,0.447,0.2
		V37.867z"/>
</g>
<g>
	<path fill="#2EA7E0" d="M45.451,41.331c-0.406,0-0.619-0.182-0.789-0.327c-0.143-0.12-0.236-0.2-0.447-0.2
		c-0.212,0-0.305,0.08-0.447,0.2c-0.171,0.146-0.383,0.327-0.789,0.327c-0.405,0-0.618-0.182-0.789-0.327
		c-0.141-0.12-0.234-0.2-0.446-0.2c-0.211,0-0.305,0.08-0.445,0.2c-0.171,0.146-0.383,0.327-0.788,0.327
		c-0.406,0-0.619-0.182-0.789-0.327c-0.141-0.12-0.234-0.2-0.445-0.2c-0.212,0-0.305,0.08-0.446,0.2
		c-0.171,0.146-0.382,0.327-0.788,0.327c-0.405,0-0.617-0.182-0.788-0.327c-0.142-0.12-0.234-0.2-0.446-0.2
		c-0.211,0-0.305,0.08-0.445,0.2c-0.171,0.146-0.383,0.327-0.789,0.327c-0.405,0-0.617-0.182-0.788-0.327
		c-0.142-0.12-0.234-0.2-0.445-0.2c-0.212,0-0.304,0.08-0.445,0.2c-0.171,0.146-0.383,0.327-0.788,0.327
		c-0.406,0-0.618-0.182-0.789-0.327c-0.141-0.12-0.234-0.2-0.445-0.2s-0.304,0.08-0.445,0.2c-0.17,0.146-0.382,0.327-0.787,0.327
		c-0.406,0-0.617-0.182-0.788-0.327c-0.142-0.12-0.234-0.2-0.445-0.2v-0.527c0.405,0,0.617,0.182,0.788,0.327
		c0.141,0.12,0.234,0.2,0.445,0.2s0.305-0.08,0.445-0.2c0.17-0.146,0.383-0.327,0.787-0.327c0.406,0,0.618,0.182,0.789,0.327
		c0.142,0.12,0.234,0.2,0.445,0.2s0.305-0.08,0.445-0.2c0.17-0.146,0.382-0.327,0.788-0.327s0.618,0.182,0.788,0.327
		c0.141,0.12,0.234,0.2,0.445,0.2s0.305-0.08,0.446-0.2c0.171-0.146,0.382-0.327,0.788-0.327s0.617,0.182,0.788,0.327
		c0.142,0.12,0.234,0.2,0.446,0.2c0.211,0,0.305-0.08,0.445-0.2c0.171-0.146,0.383-0.327,0.789-0.327s0.617,0.182,0.789,0.327
		c0.141,0.12,0.234,0.2,0.445,0.2s0.305-0.08,0.445-0.2c0.171-0.146,0.383-0.327,0.788-0.327c0.406,0,0.618,0.182,0.788,0.327
		c0.143,0.12,0.235,0.2,0.447,0.2s0.306-0.08,0.446-0.2c0.171-0.146,0.384-0.327,0.79-0.327s0.618,0.182,0.789,0.327
		c0.141,0.12,0.235,0.2,0.447,0.2V41.331z"/>
</g>
<g>
	<path fill="#FFFFFF" d="M46.45,39.56c-0.405,0-0.617-0.181-0.788-0.326c-0.142-0.12-0.235-0.201-0.446-0.201
		c-0.213,0-0.307,0.081-0.447,0.201c-0.172,0.146-0.384,0.326-0.79,0.326c-0.405,0-0.618-0.181-0.789-0.326
		c-0.141-0.12-0.233-0.201-0.446-0.201c-0.211,0-0.305,0.081-0.445,0.201c-0.17,0.146-0.383,0.326-0.788,0.326
		c-0.406,0-0.618-0.181-0.788-0.326c-0.142-0.12-0.234-0.201-0.445-0.201c-0.213,0-0.305,0.081-0.447,0.201
		c-0.17,0.146-0.382,0.326-0.788,0.326c-0.405,0-0.618-0.181-0.788-0.326c-0.141-0.12-0.234-0.201-0.446-0.201
		c-0.211,0-0.305,0.081-0.446,0.201c-0.17,0.146-0.383,0.326-0.787,0.326c-0.406,0-0.618-0.181-0.789-0.326
		c-0.141-0.12-0.234-0.201-0.445-0.201s-0.305,0.081-0.445,0.201c-0.17,0.146-0.383,0.326-0.787,0.326
		c-0.406,0-0.619-0.181-0.789-0.326c-0.142-0.12-0.234-0.201-0.445-0.201s-0.305,0.081-0.445,0.201
		c-0.171,0.146-0.383,0.326-0.788,0.326c-0.406,0-0.618-0.181-0.788-0.326c-0.141-0.12-0.234-0.201-0.445-0.201v-0.526
		c0.405,0,0.617,0.181,0.788,0.327c0.142,0.12,0.234,0.199,0.445,0.199s0.304-0.079,0.445-0.199
		c0.171-0.146,0.382-0.327,0.788-0.327s0.617,0.181,0.788,0.327c0.142,0.12,0.234,0.199,0.446,0.199
		c0.211,0,0.303-0.079,0.445-0.199c0.169-0.146,0.381-0.327,0.787-0.327s0.618,0.181,0.789,0.327
		c0.141,0.12,0.233,0.199,0.445,0.199c0.211,0,0.304-0.079,0.445-0.199c0.17-0.146,0.383-0.327,0.788-0.327
		c0.406,0,0.618,0.181,0.788,0.327c0.143,0.12,0.234,0.199,0.446,0.199s0.305-0.079,0.446-0.199c0.17-0.146,0.383-0.327,0.789-0.327
		c0.405,0,0.617,0.181,0.788,0.327c0.14,0.12,0.233,0.199,0.445,0.199s0.305-0.079,0.446-0.199c0.17-0.146,0.382-0.327,0.787-0.327
		c0.406,0,0.619,0.181,0.789,0.327c0.143,0.12,0.234,0.199,0.446,0.199s0.306-0.079,0.446-0.199
		c0.172-0.146,0.384-0.327,0.791-0.327c0.404,0,0.617,0.181,0.787,0.327c0.143,0.12,0.236,0.199,0.447,0.199V39.56z"/>
</g>
</svg>
