<?xml version="1.0" encoding="utf-8"?>
<!-- Generator: Adobe Illustrator 16.0.0, SVG Export Plug-In . SVG Version: 6.00 Build 0)  -->
<!DOCTYPE svg PUBLIC "-//W3C//DTD SVG 1.1//EN" "http://www.w3.org/Graphics/SVG/1.1/DTD/svg11.dtd">
<svg version="1.1" id="Layer_1" xmlns="http://www.w3.org/2000/svg" xmlns:xlink="http://www.w3.org/1999/xlink" x="0px" y="0px"
	 width="126.876px" height="112.438px" viewBox="0 0 126.876 112.438" enable-background="new 0 0 126.876 112.438"
	 xml:space="preserve">
<rect fill="#FFFFFF" width="126.876" height="112.438"/>
<g>
	<g>
		<g>
			<g>
				<path fill="#1B4166" d="M54.099,87.836c-2.464,0-4.686-1.462-5.659-3.724l-2.226-5.166c-1.251-2.648-3.448-4.727-6.182-5.836
					l-4.423-1.756c-3.152-1.262-4.692-4.847-3.436-7.991l1.996-5.027c0.894-2.725,0.772-5.569-0.359-8.197l-1.672-3.881
					c-0.857-1.992-0.593-4.318,0.689-6.069c0.642-0.88,1.516-1.576,2.528-2.014l3.808-1.64c2.75-1.183,4.92-3.346,6.11-6.091
					c0.104-0.228,0.186-0.45,0.267-0.676l1.871-4.704c0.488-1.206,1.317-2.21,2.399-2.903c0.994-0.636,2.14-0.972,3.312-0.972
					c0.781,0,1.549,0.148,2.281,0.441l5.436,2.16c1.261,0.45,2.592,0.682,3.939,0.681c1.52,0,3.008-0.293,4.424-0.872l4.007-1.726
					c0.776-0.334,1.594-0.503,2.431-0.503c2.461,0,4.681,1.461,5.654,3.721l1.912,4.439c1.254,2.526,3.434,4.523,6.127,5.601
					l4.364,1.736c1.528,0.609,2.727,1.774,3.375,3.282c0.649,1.509,0.672,3.181,0.063,4.708l-1.881,4.728
					c-0.979,2.724-0.909,5.712,0.2,8.4l2.136,4.962c0.652,1.51,0.677,3.184,0.068,4.711c-0.608,1.526-1.776,2.724-3.287,3.371
					l-5.2,2.244c-2.615,1.243-4.674,3.42-5.78,6.12l-1.498,3.757c-0.937,2.356-3.182,3.88-5.72,3.88l0,0
					c-0.778,0-1.543-0.146-2.271-0.437l-4.256-1.693c-1.177-0.395-2.427-0.599-3.69-0.599c-1.593,0-3.148,0.322-4.624,0.959
					l-4.807,2.073C55.751,87.667,54.935,87.836,54.099,87.836z"/>
				<path fill="#FFFFFF" d="M53.124,21.689c0.697,0,1.407,0.13,2.096,0.405l5.437,2.161c1.313,0.469,2.709,0.717,4.124,0.717
					c1.54,0,3.104-0.293,4.613-0.91l4.016-1.729c0.729-0.313,1.486-0.462,2.232-0.462c2.19,0,4.273,1.28,5.195,3.419l1.912,4.439
					c1.286,2.594,3.502,4.708,6.4,5.866l4.365,1.737c2.901,1.156,4.314,4.438,3.158,7.34l-1.881,4.729
					c-0.99,2.756-0.998,5.866,0.203,8.775l2.139,4.969c1.239,2.869-0.086,6.195-2.957,7.425l-5.201,2.245
					c-2.65,1.26-4.849,3.47-6.045,6.39l-1.5,3.761c-0.88,2.217-3.007,3.565-5.255,3.565c-0.695,0-1.401-0.129-2.087-0.401
					l-4.256-1.693c-1.24-0.416-2.549-0.634-3.875-0.634c-1.611,0-3.25,0.321-4.822,1l-4.807,2.073
					c-0.729,0.312-1.485,0.46-2.23,0.46c-2.193,0-4.278-1.281-5.2-3.422l-2.226-5.166c-1.262-2.673-3.497-4.901-6.453-6.101
					l-4.426-1.758c-2.898-1.16-4.313-4.445-3.156-7.341l1.997-5.028c0.896-2.731,0.86-5.734-0.365-8.58l-1.672-3.881
					c-0.819-1.904-0.508-4.017,0.634-5.575c0.575-0.789,1.367-1.438,2.323-1.851l3.808-1.64c2.973-1.278,5.178-3.6,6.371-6.351
					c0.105-0.233,0.193-0.469,0.278-0.707l1.865-4.688c0.46-1.138,1.243-2.051,2.204-2.667
					C50.983,22.005,52.039,21.689,53.124,21.689 M53.124,20.689c-1.269,0-2.508,0.363-3.582,1.05
					c-1.17,0.751-2.066,1.835-2.592,3.135l-1.867,4.692c-0.089,0.247-0.167,0.457-0.261,0.665c-1.146,2.642-3.224,4.712-5.854,5.844
					l-3.809,1.64c-1.096,0.474-2.041,1.228-2.736,2.181c-1.385,1.892-1.671,4.405-0.744,6.56l1.672,3.881
					c1.08,2.506,1.198,5.218,0.344,7.845l-1.986,4.999c-1.358,3.398,0.308,7.274,3.715,8.639l4.428,1.759
					c2.61,1.059,4.714,3.048,5.918,5.598l2.211,5.135c1.054,2.446,3.455,4.026,6.119,4.026c0.904,0,1.787-0.182,2.624-0.541
					l4.81-2.074c1.412-0.609,2.901-0.918,4.426-0.918c1.2,0,2.389,0.193,3.531,0.573l4.23,1.683
					c0.787,0.314,1.614,0.473,2.456,0.473c2.745,0,5.172-1.646,6.185-4.196l1.499-3.76c1.056-2.576,3.026-4.659,5.546-5.856
					l5.168-2.23c1.632-0.698,2.895-1.993,3.552-3.645c0.658-1.651,0.633-3.461-0.073-5.095l-2.139-4.968
					c-1.056-2.559-1.122-5.42-0.18-8.042l1.869-4.696c0.657-1.651,0.633-3.459-0.068-5.09c-0.702-1.631-1.998-2.891-3.649-3.549
					l-4.365-1.737c-2.569-1.027-4.651-2.93-5.863-5.358l-1.901-4.414c-1.053-2.444-3.452-4.023-6.113-4.023
					c-0.905,0-1.789,0.183-2.628,0.543l-4.016,1.73c-1.339,0.547-2.764,0.828-4.218,0.828c-1.291,0-2.564-0.222-3.788-0.658
					l-5.403-2.149C54.799,20.85,53.969,20.689,53.124,20.689L53.124,20.689z"/>
			</g>
		</g>
	</g>
</g>
<g>
	<g>
		<g>
			<g>
				<path fill="#FFFFFF" d="M39.146,54.009c-0.33,14.205,10.92,25.992,25.129,26.321c14.202,0.329,25.985-10.924,26.313-25.128
					c0.329-14.206-10.92-25.99-25.121-26.32C51.259,28.553,39.476,39.804,39.146,54.009z"/>
			</g>
		</g>
	</g>
</g>
<g>
	<g>
		<g>
			<g>
				<path fill="#4AB2BC" d="M40.859,54.049C40.552,67.308,51.052,78.31,64.315,78.617c13.256,0.308,24.254-10.197,24.561-23.456
					c0.308-13.259-10.192-24.259-23.448-24.566C52.165,30.288,41.165,40.788,40.859,54.049z"/>
			</g>
		</g>
	</g>
</g>
<path fill="none" stroke="#1B4166" stroke-miterlimit="10" d="M47.936,48.832c0.021,1.196,0,3.036-0.073,3.76
	c-0.02,0.144-0.072,0.3-0.153,0.424c-0.095,0.123-0.218,0.228-0.372,0.269c-0.176,0.051-0.549,0.102-0.797,0.083
	c-0.186-0.021-0.299-0.103-0.381-0.229c-0.07-0.135-0.113-0.3-0.126-0.464c0.197,0.031,0.651,0.041,0.88,0.02
	c0.155-0.009,0.227-0.091,0.248-0.247c0.104-0.815,0.092-1.994,0.092-2.935c-0.413,0.354-0.814,0.806-1.176,1.211
	c-0.104-0.104-0.21-0.259-0.25-0.412c-0.029-0.137-0.01-0.271,0.085-0.375c0.421-0.463,0.845-0.877,1.321-1.322
	c0-0.65-0.032-1.446-0.083-2.076c-0.394,0.041-0.92,0.146-1.301,0.248c-0.022-0.145-0.022-0.351,0.042-0.516
	c0.039-0.104,0.123-0.187,0.247-0.209c0.308-0.081,0.681-0.143,0.961-0.175c-0.012-0.423-0.054-0.93-0.094-1.384l0.703-0.02
	c0.04,0.383,0.081,1.001,0.093,1.302c0.309-0.032,0.721-0.063,1.042-0.063v0.619c-0.33,0.033-0.743,0.064-0.991,0.095
	c0.029,0.475,0.052,1.093,0.062,1.538c0.165-0.144,0.455-0.4,0.672-0.577l0.393,0.515C48.679,48.161,48.183,48.594,47.936,48.832z
	 M54.545,53.398c-0.866-0.932-1.804-1.706-2.767-2.439c-0.961,0.744-1.901,1.582-2.8,2.458c-0.113-0.124-0.228-0.289-0.271-0.464
	c-0.029-0.133,0-0.268,0.126-0.373c0.755-0.68,1.528-1.352,2.312-1.961c-0.763,0.021-1.642,0.124-2.407,0.237
	c-0.008-0.155,0.012-0.342,0.075-0.476c0.051-0.113,0.134-0.196,0.268-0.226c0.071-0.013,0.156-0.021,0.239-0.033
	c0.009-0.681,0.05-1.498,0.123-2.158c-0.064,0-0.178,0.032-0.261,0.061c-0.02-0.175,0-0.371,0.083-0.526
	c0.055-0.102,0.146-0.194,0.302-0.226c0.661-0.135,1.331-0.239,2.022-0.3c0.238-0.289,0.412-0.608,0.559-0.939
	c0.039-0.085-0.04-0.188-0.134-0.188c-0.704-0.01-1.364,0.155-2.006,0.353c-0.258,0.372-0.495,0.763-0.712,1.147
	c-0.152-0.095-0.319-0.229-0.391-0.385c-0.063-0.112-0.063-0.245,0.021-0.391c0.369-0.59,1.146-1.634,1.62-2.16l0.629,0.271
	c-0.185,0.215-0.4,0.484-0.558,0.701c0.393-0.114,1.075-0.206,1.52-0.206c0.258,0,0.485,0.112,0.63,0.288
	c0.134,0.176,0.174,0.413,0.092,0.671c-0.083,0.239-0.269,0.581-0.422,0.784c0.269-0.009,0.691,0.012,0.979,0.054
	c0.321,0.052,0.57,0.188,0.732,0.383c0.158,0.185,0.259,0.434,0.282,0.722c0.03,0.424,0.051,1.272,0.03,1.789
	c0.081-0.013,0.218-0.013,0.277,0v0.607c-0.66,0-1.798,0.031-2.407,0.062c0.766,0.601,1.655,1.301,2.368,2.014
	c0.103,0.104,0.112,0.271,0.071,0.424C54.731,53.139,54.64,53.293,54.545,53.398z M53.69,48.057
	c-0.023-0.227-0.136-0.362-0.362-0.392c-0.981-0.146-2.19,0.011-3.163,0.165c-0.07,0.722-0.111,1.456-0.111,2.198
	c0.422-0.028,1.001-0.08,1.414-0.092c0-0.515-0.031-1.156-0.07-1.651l0.712-0.052c0.051,0.534,0.071,1.135,0.071,1.662
	c0.412-0.021,1.168-0.042,1.56-0.042C53.75,49.276,53.731,48.605,53.69,48.057z"/>
<path fill="none" stroke="#1B4166" stroke-miterlimit="10" d="M64.862,48.812c-1.364-1.219-2.82-2.314-4.296-3.266
	c-1.387,1.128-2.769,2.377-4,3.74c-0.134-0.111-0.236-0.258-0.287-0.403c-0.075-0.186-0.052-0.372,0.072-0.495
	c1.485-1.498,2.914-2.727,4.502-3.987l0.622,0.412c-0.094,0.074-0.26,0.207-0.342,0.28c1.427,0.898,2.984,2.035,3.832,2.778
	c0.123,0.114,0.155,0.299,0.123,0.478C65.058,48.522,64.966,48.707,64.862,48.812z M60.266,53.398
	c0.093-2.088,0.032-4.019-0.165-6.063l0.753-0.054c0.165,2.016,0.247,3.947,0.197,6.086L60.266,53.398z"/>
<path fill="none" stroke="#1B4166" stroke-miterlimit="10" d="M66.832,49.646c-0.095-0.123-0.206-0.278-0.247-0.434
	c-0.045-0.144-0.012-0.276,0.166-0.424c0.711-0.578,1.423-1.073,2.189-1.579c0.143,0.195,0.3,0.393,0.434,0.567
	C68.496,48.316,67.647,48.945,66.832,49.646z M73.659,50.122c-0.516,0.519-1.074,1.044-1.661,1.425
	c0.97,0.302,2.137,0.673,3.067,1.045c0.174,0.072,0.238,0.238,0.227,0.382c0,0.146-0.053,0.291-0.082,0.381
	c-1.333-0.463-2.676-0.938-4.03-1.332c-1.415,0.642-2.964,1.085-4.533,1.354c-0.021-0.218-0.052-0.403,0.01-0.547
	c0.051-0.136,0.176-0.25,0.443-0.289c1.034-0.178,2.141-0.412,3.11-0.817c-0.609-0.187-1.229-0.361-1.85-0.537
	c0.186-0.215,0.568-0.65,0.754-0.875c-0.795,0.037-1.59,0.142-2.377,0.256c0.014-0.103,0.023-0.236,0.062-0.362
	c0.044-0.145,0.115-0.269,0.259-0.3c0.867-0.153,1.747-0.207,2.646-0.259c0.185-0.218,0.506-0.577,0.764-0.835
	c0.197,0.061,0.518,0.166,0.691,0.217c-0.165,0.197-0.331,0.361-0.483,0.547c1.238-0.031,3.157-0.083,4.668-0.093
	c0,0.146,0.011,0.444,0.021,0.609C74.879,50.101,74.092,50.111,73.659,50.122z M69.002,46.445c-0.745-0.412-1.53-0.766-2.367-1.022
	c0.095-0.166,0.229-0.413,0.343-0.619c0.648,0.216,1.301,0.445,1.878,0.724c0.219,0.103,0.271,0.258,0.271,0.421
	C69.114,46.116,69.051,46.28,69.002,46.445z M75.106,49.143c-1.044-0.857-2.045-1.664-3.026-2.356
	c-0.847,0.795-1.673,1.672-2.428,2.5c-0.126-0.111-0.237-0.249-0.278-0.403c-0.031-0.134-0.021-0.289,0.121-0.433
	c0.829-0.889,1.842-1.85,2.78-2.729c-0.6,0.052-1.219,0.155-1.786,0.321c-0.301,0.342-0.59,0.681-0.857,1.032
	c-0.094-0.103-0.217-0.227-0.279-0.359c-0.062-0.127-0.081-0.26,0.021-0.394c0.473-0.62,1.072-1.239,1.672-1.829
	c0.176,0.062,0.475,0.196,0.641,0.267c-0.134,0.146-0.32,0.333-0.423,0.444c1.052-0.152,2.168-0.309,3.295-0.247
	c0.206,0.011,0.392,0.095,0.525,0.259c0.126,0.134,0.165,0.29,0.178,0.476c0.009,0.31-0.114,0.662-0.28,0.92
	c-0.103,0.165-0.299,0.186-0.476,0.165c-0.122-0.011-0.247-0.053-0.33-0.072c0.188-0.29,0.341-0.569,0.403-0.868
	c0.041-0.165-0.093-0.29-0.248-0.29c-0.215,0-0.691,0.021-0.972,0.042c-0.226,0.197-0.607,0.547-0.805,0.744
	c0.949,0.682,1.974,1.416,2.666,1.972c0.134,0.104,0.134,0.27,0.092,0.426C75.271,48.883,75.178,49.028,75.106,49.143z
	 M70.085,50.236c-0.175,0.207-0.381,0.455-0.514,0.63c0.514,0.145,1.041,0.3,1.568,0.444c0.547-0.289,1.073-0.713,1.528-1.168
	C71.945,50.155,70.819,50.205,70.085,50.236z"/>
<path fill="none" stroke="#1B4166" stroke-miterlimit="10" d="M79.316,45.91c0.022,0.235,0.022,0.525,0.012,0.773
	c0.433-0.083,0.921-0.177,1.321-0.238l0.052,0.588c-0.434,0.083-0.991,0.187-1.362,0.259c0.01,0.384,0,0.848-0.032,1.322
	c-0.011,0.135-0.061,0.248-0.134,0.354c-0.104,0.13-0.237,0.225-0.412,0.267c-0.238,0.062-0.538,0.094-0.775,0.032
	c-0.123-0.032-0.226-0.114-0.289-0.229c-0.064-0.123-0.114-0.298-0.123-0.432c0.256,0.031,0.578,0.05,0.847,0.019
	c0.121-0.019,0.197-0.113,0.204-0.258c0.032-0.277,0.032-0.631,0.022-0.919c-0.569,0.093-1.157,0.239-1.714,0.395
	c-0.033-0.135-0.043-0.28-0.011-0.405c0.04-0.123,0.123-0.217,0.258-0.257c0.383-0.104,1.157-0.29,1.456-0.343
	c0-0.29,0-0.619-0.012-0.889c-0.526,0.021-1.084,0.085-1.579,0.155c-0.021-0.144-0.01-0.33,0.053-0.464
	c0.052-0.094,0.133-0.165,0.257-0.186c0.405-0.053,0.817-0.094,1.23-0.104c0-0.279-0.021-0.578-0.044-0.866l0.694,0.02
	c0.021,0.209,0.041,0.59,0.041,0.806c0.361-0.01,1.084-0.01,1.467,0v0.602C80.401,45.897,79.792,45.897,79.316,45.91z
	 M84.842,52.633c-0.05,0.188-0.143,0.32-0.255,0.423c-0.146,0.135-0.322,0.209-0.526,0.249c-0.28,0.062-0.87,0.03-1.128-0.021
	c-0.091-0.02-0.174-0.073-0.228-0.156c-0.093-0.165-0.144-0.393-0.155-0.548c0.33,0.074,0.806,0.136,1.199,0.114
	c0.228-0.009,0.433-0.153,0.477-0.382c0.07-0.444,0.144-0.929,0.081-1.403c-0.03-0.28-0.259-0.444-0.526-0.466
	c-1.116-0.104-2.294-0.072-3.41-0.012c-0.774,0.973-1.518,1.973-2.21,2.977c-0.144-0.092-0.319-0.249-0.381-0.423
	c-0.02-0.105-0.02-0.22,0.05-0.321c0.496-0.724,1.042-1.436,1.594-2.149c-0.735,0.042-1.467,0.147-2.17,0.257
	c-0.022-0.143-0.011-0.307,0.049-0.453c0.064-0.134,0.157-0.227,0.321-0.247c0.753-0.083,1.55-0.166,2.334-0.228
	c0.229-0.289,0.508-0.631,0.651-0.807l0.682,0.26c-0.122,0.153-0.26,0.331-0.38,0.475c1.104-0.031,2.249-0.051,3.24,0.082
	c0.248,0.032,0.444,0.156,0.591,0.321c0.145,0.174,0.238,0.393,0.248,0.629C85.03,51.413,85.008,52.087,84.842,52.633z
	 M85.236,49.152c-0.165,0.145-0.382,0.216-0.568,0.176c-0.176-0.031-0.321-0.145-0.392-0.36c-0.26-0.746-0.229-1.86-0.209-2.562
	c0-0.165-0.122-0.331-0.287-0.362c-0.26-0.052-0.621-0.052-0.837-0.042c-0.196,0.423-0.382,0.877-0.547,1.345
	c0.341,0.113,0.774,0.299,1.053,0.432c0.166,0.082,0.229,0.208,0.248,0.353c0.011,0.143-0.029,0.299-0.075,0.455
	c-0.482-0.219-0.958-0.434-1.453-0.621c-0.165,0.444-0.318,0.877-0.465,1.333c-0.166-0.011-0.382-0.166-0.488-0.342
	c-0.059-0.093-0.08-0.194-0.048-0.288c0.102-0.318,0.216-0.643,0.341-0.941c-0.219-0.093-0.591-0.206-0.797-0.258l0.248-0.59
	c0.256,0.053,0.538,0.146,0.786,0.238c0.092-0.279,0.308-0.784,0.413-1.023c-0.445,0.042-0.919,0.125-1.344,0.229
	c0-0.146,0.011-0.321,0.073-0.454c0.04-0.125,0.124-0.219,0.269-0.25c0.414-0.083,0.835-0.144,1.271-0.195
	c0.112-0.258,0.331-0.733,0.421-0.939l0.662,0.197c-0.104,0.226-0.206,0.453-0.301,0.692c0.25,0,0.602,0.028,0.88,0.091
	c0.187,0.042,0.339,0.134,0.454,0.258c0.124,0.146,0.206,0.34,0.197,0.568c-0.021,0.765-0.012,1.621,0.092,2.147
	c0.009,0.054,0.062,0.063,0.093,0.013c0.167-0.28,0.27-0.579,0.323-0.899c0.144,0.052,0.329,0.175,0.443,0.329
	c0.062,0.084,0.09,0.187,0.07,0.281C85.692,48.532,85.525,48.895,85.236,49.152z"/>
<path fill="none" stroke="#1B4166" stroke-miterlimit="10" d="M63.471,61.188c-0.507,0.569-1.085,1.084-1.684,1.508
	c1.063,0.289,2.085,0.619,3.119,0.992c0.146,0.052,0.196,0.205,0.196,0.361c0,0.152-0.031,0.307-0.07,0.423
	c-1.293-0.506-2.623-0.94-3.979-1.302c-1.415,0.816-3.037,1.158-4.698,1.396c0-0.154,0.01-0.331,0.051-0.497
	c0.041-0.143,0.115-0.268,0.29-0.287c1.229-0.125,2.354-0.393,3.448-0.859c-0.807-0.206-1.786-0.454-2.529-0.599
	c0.287-0.342,0.535-0.641,0.868-0.972c-0.695,0.031-1.581,0.166-2.159,0.289c0.031-0.145,0.053-0.34,0.103-0.485
	c0.039-0.112,0.103-0.216,0.228-0.236c0.826-0.166,1.661-0.218,2.54-0.259c0.312-0.279,0.671-0.61,1.023-0.889
	c0.187,0.085,0.414,0.197,0.639,0.301c-0.194,0.154-0.433,0.36-0.617,0.535c1.474-0.029,3.035-0.051,4.864-0.029
	c0,0.135,0.011,0.453,0.011,0.641C64.586,61.208,63.925,61.197,63.471,61.188z M61.097,56.405c-0.096,0.217-0.166,0.444-0.23,0.673
	c0.754-0.031,1.602-0.031,2.335,0.01c0.207,0.009,0.456,0.071,0.663,0.217c0.205,0.144,0.35,0.33,0.412,0.691
	c0.094,0.568,0.104,0.836,0.071,1.456c-0.01,0.363-0.247,0.559-0.546,0.65c-0.219,0.064-0.465,0.095-0.693,0.073
	c-0.237-0.02-0.33-0.165-0.392-0.34c-0.033-0.114-0.052-0.229-0.062-0.341c0.258,0.02,0.536,0.039,0.815,0.01
	c0.094-0.021,0.204-0.114,0.216-0.174c0.021-0.405,0.021-0.776-0.029-1.18c-0.033-0.258-0.32-0.443-0.568-0.467
	c-0.332-0.018-0.764-0.018-1.105-0.009c0.06,0.684,0.122,1.406,0.072,2.097c-0.217,0.021-0.446,0.03-0.661,0.072
	c0.05-0.724,0.05-1.454-0.062-2.147c-0.455-0.013-0.929,0.011-1.342,0.041c-0.104,0.661-0.134,1.437-0.114,2.139l-0.661,0.082
	c0-0.734,0.021-1.489,0.122-2.169c-0.516,0.02-1.061,0.082-1.568,0.195c-0.104,0.735-0.135,1.561-0.144,2.315l-0.663,0.081
	c-0.01-0.774,0.054-1.519,0.125-2.262c-0.114,0.019-0.237,0.052-0.362,0.083c0.012-0.165,0.021-0.341,0.071-0.485
	c0.045-0.125,0.126-0.216,0.26-0.248c0.742-0.197,2.273-0.299,3.132-0.342c0.062-0.237,0.133-0.452,0.216-0.682
	c-1.293,0.063-2.594,0.155-3.824,0.403c0.013-0.114,0.013-0.279,0.064-0.413c0.052-0.136,0.133-0.247,0.318-0.289
	c1.438-0.31,5.651-0.454,7.789-0.412v0.649C63.707,56.363,62.353,56.363,61.097,56.405z M59.474,61.302
	c-0.188,0.165-0.519,0.495-0.674,0.661c0.633,0.144,1.509,0.352,2.17,0.518c0.548-0.341,1.096-0.766,1.561-1.283
	C61.518,61.229,60.485,61.262,59.474,61.302z"/>
<path fill="none" stroke="#1B4166" stroke-miterlimit="10" d="M67.62,62.789l-0.692,0.031c-0.071-1.952,0.042-3.895,0.28-5.825
	l0.699-0.03C67.659,59.103,67.56,60.714,67.62,62.789z M69.016,64.504c-0.175-0.041-0.354-0.092-0.487-0.186
	c-0.133-0.094-0.215-0.236-0.215-0.444c0.031-2.015,0.4-5.992,0.733-8.191l0.701,0.071C69.387,58.151,69.057,61.592,69.016,64.504z
	 M74.996,62.696c-0.146,0.145-0.342,0.227-0.598,0.268c-0.179,0.021-0.374,0.012-0.56,0c-0.165-0.011-0.268-0.093-0.342-0.215
	c-0.07-0.126-0.112-0.291-0.134-0.477c0.3,0.021,0.63,0.031,0.92,0.011c0.153-0.011,0.249-0.177,0.249-0.32
	c0.018-1.198-0.022-2.397-0.156-3.554c-0.031-0.227-0.238-0.477-0.475-0.516c-0.29-0.053-0.652-0.04-0.941,0
	c0.062,2.189,0.062,4.379-0.031,6.61h-0.732c0.125-2.293,0.125-4.328,0.062-6.527c-0.414,0.05-0.836,0.144-1.23,0.257
	c-0.194,1.631-0.301,3.119-0.33,4.752l-0.721,0.023c0.007-1.551,0.143-3.05,0.299-4.539c-0.156,0.023-0.299,0.073-0.467,0.137
	c-0.02-0.165-0.02-0.33,0.021-0.477c0.052-0.134,0.146-0.248,0.331-0.309c0.659-0.237,1.341-0.394,2.055-0.507
	c-0.01-0.496-0.052-1.125-0.104-1.611h0.702c0.042,0.402,0.084,1.094,0.104,1.519c0.29-0.021,0.62-0.021,0.919,0
	c0.476,0.041,0.794,0.206,1.003,0.486c0.164,0.237,0.246,0.537,0.287,0.908c0.114,1.115,0.146,2.324,0.127,3.419
	C75.243,62.314,75.151,62.531,74.996,62.696z"/>
<path fill="#FFFFFF" d="M47.49,48.739c0.021,1.196,0,3.036-0.073,3.76c-0.02,0.144-0.072,0.3-0.153,0.425
	c-0.095,0.122-0.218,0.227-0.373,0.267c-0.175,0.052-0.548,0.103-0.796,0.084c-0.186-0.021-0.299-0.103-0.381-0.229
	c-0.071-0.135-0.113-0.3-0.126-0.464c0.197,0.031,0.651,0.041,0.88,0.02c0.155-0.009,0.227-0.091,0.248-0.247
	c0.104-0.815,0.092-1.994,0.092-2.934c-0.413,0.352-0.814,0.805-1.177,1.209c-0.104-0.104-0.209-0.258-0.249-0.412
	c-0.029-0.136-0.01-0.271,0.085-0.374c0.421-0.463,0.845-0.876,1.321-1.321c0-0.651-0.033-1.447-0.083-2.078
	c-0.394,0.042-0.92,0.146-1.301,0.249c-0.022-0.145-0.022-0.351,0.042-0.516c0.039-0.104,0.123-0.187,0.246-0.208
	c0.309-0.082,0.682-0.144,0.962-0.176c-0.012-0.422-0.054-0.93-0.094-1.384l0.703-0.02c0.04,0.383,0.081,1.001,0.093,1.302
	c0.309-0.032,0.721-0.063,1.042-0.063v0.618c-0.331,0.033-0.743,0.064-0.992,0.096c0.03,0.475,0.052,1.093,0.062,1.539
	c0.166-0.145,0.456-0.401,0.673-0.578l0.393,0.515C48.233,48.068,47.737,48.501,47.49,48.739z M54.1,53.306
	c-0.866-0.931-1.804-1.706-2.767-2.439c-0.961,0.744-1.901,1.582-2.8,2.458c-0.114-0.124-0.228-0.289-0.271-0.464
	c-0.029-0.133,0-0.268,0.125-0.373c0.756-0.68,1.529-1.352,2.313-1.961c-0.763,0.021-1.642,0.125-2.407,0.237
	c-0.008-0.155,0.012-0.342,0.075-0.476c0.05-0.113,0.134-0.197,0.268-0.226c0.071-0.013,0.156-0.021,0.238-0.033
	c0.01-0.681,0.051-1.497,0.122-2.158c-0.062,0-0.176,0.032-0.259,0.062c-0.02-0.176,0-0.373,0.083-0.527
	c0.054-0.102,0.146-0.195,0.301-0.227c0.662-0.133,1.332-0.238,2.023-0.299c0.238-0.289,0.412-0.608,0.559-0.939
	c0.039-0.085-0.04-0.188-0.134-0.188c-0.704-0.01-1.364,0.155-2.006,0.353c-0.258,0.372-0.496,0.763-0.712,1.147
	c-0.152-0.095-0.319-0.229-0.391-0.385c-0.063-0.111-0.063-0.245,0.021-0.391c0.369-0.59,1.146-1.634,1.62-2.16l0.629,0.27
	c-0.185,0.216-0.4,0.485-0.558,0.703c0.393-0.115,1.075-0.207,1.52-0.207c0.258,0,0.485,0.111,0.629,0.289
	c0.135,0.174,0.175,0.412,0.093,0.67c-0.083,0.238-0.269,0.581-0.422,0.784c0.269-0.009,0.691,0.012,0.979,0.054
	c0.321,0.052,0.57,0.188,0.732,0.383c0.158,0.186,0.259,0.434,0.281,0.723c0.03,0.423,0.052,1.271,0.03,1.787
	c0.082-0.011,0.219-0.011,0.278,0v0.607c-0.66,0-1.798,0.032-2.407,0.062c0.766,0.603,1.655,1.302,2.368,2.016
	c0.103,0.104,0.112,0.27,0.071,0.423C54.286,53.046,54.194,53.2,54.1,53.306z M53.245,47.964c-0.023-0.227-0.136-0.362-0.363-0.392
	c-0.98-0.146-2.189,0.011-3.162,0.165c-0.07,0.722-0.111,1.455-0.111,2.198c0.422-0.028,1.001-0.079,1.414-0.092
	c0-0.515-0.031-1.156-0.07-1.651l0.712-0.052c0.05,0.535,0.071,1.135,0.071,1.661c0.412-0.021,1.168-0.04,1.56-0.04
	C53.305,49.184,53.286,48.513,53.245,47.964z"/>
<path fill="#FFFFFF" d="M64.417,48.719c-1.364-1.219-2.82-2.313-4.296-3.266c-1.387,1.128-2.769,2.377-4,3.739
	c-0.134-0.11-0.236-0.258-0.287-0.402c-0.075-0.186-0.052-0.372,0.071-0.496c1.486-1.497,2.914-2.725,4.503-3.986l0.622,0.412
	c-0.094,0.074-0.26,0.207-0.343,0.279c1.427,0.899,2.985,2.036,3.833,2.779c0.123,0.115,0.154,0.299,0.123,0.478
	C64.612,48.429,64.521,48.614,64.417,48.719z M59.82,53.306c0.093-2.088,0.032-4.02-0.165-6.063l0.753-0.054
	c0.165,2.016,0.247,3.947,0.197,6.086L59.82,53.306z"/>
<path fill="#FFFFFF" d="M66.387,49.554c-0.095-0.123-0.206-0.278-0.247-0.433c-0.045-0.145-0.012-0.278,0.166-0.425
	c0.711-0.578,1.423-1.074,2.189-1.579c0.143,0.195,0.3,0.393,0.434,0.567C68.051,48.224,67.202,48.853,66.387,49.554z
	 M73.214,50.029c-0.516,0.519-1.074,1.044-1.661,1.425c0.969,0.301,2.137,0.673,3.067,1.045c0.174,0.073,0.238,0.238,0.226,0.382
	c0,0.146-0.052,0.291-0.081,0.381c-1.333-0.463-2.676-0.938-4.03-1.332c-1.415,0.643-2.964,1.086-4.534,1.354
	c-0.02-0.217-0.051-0.403,0.01-0.547c0.052-0.136,0.177-0.25,0.444-0.289c1.034-0.178,2.141-0.412,3.11-0.816
	c-0.609-0.187-1.229-0.362-1.85-0.537c0.186-0.216,0.568-0.652,0.754-0.877c-0.795,0.039-1.59,0.143-2.377,0.257
	c0.014-0.103,0.023-0.236,0.062-0.361c0.043-0.146,0.115-0.27,0.259-0.3c0.867-0.154,1.747-0.208,2.645-0.26
	c0.185-0.218,0.507-0.577,0.765-0.835c0.196,0.061,0.517,0.166,0.691,0.216c-0.165,0.197-0.331,0.362-0.483,0.548
	c1.238-0.032,3.157-0.083,4.668-0.093c0,0.146,0.011,0.444,0.021,0.609C74.433,50.008,73.646,50.019,73.214,50.029z M68.557,46.354
	c-0.745-0.413-1.53-0.767-2.367-1.023c0.094-0.166,0.229-0.413,0.343-0.62c0.648,0.217,1.301,0.446,1.878,0.725
	c0.219,0.103,0.271,0.258,0.271,0.421C68.669,46.022,68.605,46.188,68.557,46.354z M74.661,49.05
	c-1.044-0.857-2.045-1.664-3.026-2.356c-0.847,0.796-1.674,1.672-2.428,2.499c-0.126-0.11-0.237-0.248-0.278-0.402
	c-0.031-0.134-0.022-0.289,0.121-0.433c0.829-0.89,1.842-1.85,2.78-2.729c-0.6,0.052-1.219,0.155-1.786,0.321
	c-0.301,0.342-0.59,0.68-0.857,1.032c-0.094-0.103-0.217-0.226-0.28-0.359c-0.062-0.127-0.08-0.26,0.022-0.394
	c0.473-0.619,1.072-1.239,1.672-1.829c0.176,0.062,0.475,0.196,0.641,0.267c-0.135,0.146-0.32,0.332-0.424,0.444
	c1.053-0.152,2.169-0.309,3.295-0.247c0.207,0.011,0.393,0.095,0.526,0.26c0.126,0.133,0.165,0.289,0.178,0.475
	c0.009,0.31-0.114,0.662-0.28,0.92c-0.104,0.165-0.299,0.187-0.476,0.165c-0.122-0.011-0.247-0.054-0.331-0.072
	c0.188-0.29,0.342-0.569,0.404-0.868c0.041-0.165-0.093-0.29-0.248-0.29c-0.215,0-0.691,0.021-0.972,0.042
	c-0.226,0.197-0.607,0.547-0.805,0.744c0.948,0.682,1.974,1.416,2.666,1.972c0.134,0.104,0.134,0.271,0.092,0.426
	C74.825,48.79,74.732,48.935,74.661,49.05z M69.64,50.144c-0.175,0.207-0.382,0.455-0.514,0.63c0.514,0.145,1.041,0.3,1.568,0.444
	c0.547-0.289,1.073-0.713,1.528-1.168C71.5,50.062,70.374,50.113,69.64,50.144z"/>
<path fill="#FFFFFF" d="M78.871,45.817c0.022,0.235,0.022,0.525,0.011,0.773c0.434-0.083,0.922-0.177,1.322-0.237l0.052,0.587
	c-0.434,0.083-0.991,0.187-1.362,0.259c0.01,0.384,0,0.848-0.032,1.323c-0.011,0.134-0.061,0.248-0.134,0.352
	c-0.104,0.131-0.237,0.226-0.412,0.268c-0.238,0.062-0.538,0.094-0.775,0.032c-0.124-0.032-0.227-0.114-0.289-0.229
	c-0.064-0.123-0.114-0.299-0.123-0.432c0.256,0.031,0.577,0.05,0.847,0.02c0.121-0.02,0.197-0.114,0.204-0.259
	c0.031-0.277,0.031-0.63,0.021-0.919c-0.568,0.094-1.156,0.238-1.713,0.395c-0.033-0.135-0.043-0.281-0.011-0.404
	c0.04-0.124,0.123-0.218,0.258-0.258c0.383-0.104,1.157-0.29,1.456-0.343c0-0.29,0-0.62-0.012-0.889
	c-0.526,0.021-1.084,0.085-1.579,0.155c-0.021-0.144-0.01-0.33,0.053-0.465c0.052-0.093,0.133-0.164,0.257-0.185
	c0.404-0.053,0.817-0.094,1.23-0.104c0-0.278-0.021-0.578-0.044-0.866l0.694,0.02c0.021,0.208,0.041,0.589,0.041,0.806
	c0.361-0.01,1.084-0.01,1.466,0v0.602C79.956,45.805,79.347,45.805,78.871,45.817z M84.396,52.54
	c-0.05,0.188-0.143,0.32-0.255,0.423c-0.146,0.135-0.322,0.209-0.527,0.25c-0.279,0.062-0.869,0.029-1.127-0.022
	c-0.091-0.019-0.175-0.072-0.228-0.155c-0.093-0.165-0.144-0.393-0.155-0.548c0.33,0.074,0.806,0.136,1.199,0.114
	c0.228-0.009,0.433-0.153,0.477-0.382c0.069-0.444,0.144-0.928,0.081-1.403c-0.03-0.28-0.259-0.444-0.526-0.466
	c-1.116-0.104-2.294-0.072-3.41-0.012c-0.774,0.973-1.518,1.973-2.21,2.977c-0.144-0.092-0.319-0.248-0.381-0.423
	c-0.021-0.105-0.021-0.219,0.05-0.32c0.496-0.726,1.042-1.437,1.593-2.15c-0.735,0.042-1.466,0.147-2.171,0.257
	c-0.021-0.143-0.009-0.307,0.051-0.453c0.064-0.135,0.157-0.227,0.321-0.247c0.753-0.083,1.55-0.165,2.334-0.228
	c0.229-0.289,0.508-0.63,0.651-0.807l0.682,0.26c-0.122,0.152-0.26,0.331-0.38,0.475c1.104-0.031,2.249-0.051,3.24,0.083
	c0.248,0.031,0.444,0.155,0.591,0.32c0.145,0.175,0.238,0.393,0.248,0.629C84.584,51.32,84.562,51.994,84.396,52.54z M84.791,49.06
	c-0.165,0.145-0.382,0.216-0.568,0.176c-0.176-0.031-0.321-0.145-0.392-0.361c-0.26-0.744-0.229-1.859-0.209-2.562
	c0-0.164-0.122-0.33-0.287-0.361c-0.26-0.052-0.621-0.052-0.838-0.042c-0.195,0.423-0.381,0.877-0.546,1.345
	c0.341,0.113,0.774,0.299,1.053,0.432c0.165,0.082,0.228,0.209,0.248,0.353c0.011,0.144-0.029,0.299-0.075,0.454
	c-0.482-0.218-0.958-0.433-1.453-0.62c-0.165,0.444-0.318,0.877-0.465,1.333c-0.166-0.012-0.382-0.166-0.488-0.342
	c-0.059-0.092-0.08-0.194-0.048-0.287c0.102-0.319,0.215-0.643,0.341-0.942c-0.219-0.093-0.591-0.206-0.798-0.258l0.249-0.59
	c0.256,0.053,0.538,0.146,0.786,0.238c0.092-0.279,0.308-0.784,0.413-1.023c-0.445,0.042-0.919,0.124-1.344,0.229
	c0-0.146,0.011-0.321,0.073-0.454c0.04-0.125,0.124-0.219,0.269-0.25c0.414-0.083,0.835-0.144,1.271-0.195
	c0.112-0.258,0.33-0.733,0.421-0.939l0.662,0.196c-0.104,0.227-0.206,0.454-0.301,0.693c0.25,0,0.602,0.028,0.88,0.092
	c0.187,0.041,0.339,0.133,0.454,0.257c0.124,0.146,0.206,0.341,0.197,0.568c-0.021,0.765-0.012,1.621,0.092,2.147
	c0.009,0.054,0.062,0.063,0.092,0.013c0.168-0.28,0.271-0.579,0.324-0.899c0.144,0.052,0.329,0.175,0.443,0.33
	c0.062,0.083,0.09,0.186,0.07,0.28C85.247,48.439,85.08,48.802,84.791,49.06z"/>
<path fill="#FFFFFF" d="M63.025,61.095c-0.507,0.57-1.085,1.085-1.684,1.509c1.063,0.289,2.085,0.62,3.119,0.991
	c0.146,0.053,0.196,0.206,0.196,0.362c0,0.152-0.031,0.308-0.071,0.423c-1.292-0.505-2.623-0.94-3.979-1.303
	c-1.415,0.817-3.038,1.159-4.698,1.396c0-0.153,0.01-0.331,0.051-0.497c0.041-0.143,0.114-0.268,0.289-0.288
	c1.23-0.125,2.354-0.392,3.449-0.857c-0.807-0.207-1.786-0.455-2.529-0.6c0.287-0.342,0.535-0.641,0.868-0.971
	c-0.695,0.03-1.581,0.165-2.159,0.289c0.031-0.145,0.053-0.34,0.103-0.486c0.039-0.112,0.103-0.216,0.228-0.236
	c0.826-0.166,1.661-0.217,2.54-0.259c0.312-0.279,0.671-0.61,1.023-0.888c0.187,0.084,0.414,0.196,0.639,0.3
	c-0.194,0.153-0.433,0.36-0.617,0.536c1.474-0.031,3.035-0.051,4.864-0.031c0,0.136,0.011,0.454,0.011,0.641
	C64.141,61.115,63.479,61.104,63.025,61.095z M60.65,56.312c-0.095,0.217-0.165,0.444-0.229,0.673
	c0.754-0.031,1.602-0.031,2.334,0.01c0.208,0.009,0.456,0.071,0.664,0.217c0.205,0.144,0.35,0.33,0.412,0.692
	c0.094,0.567,0.104,0.836,0.071,1.455c-0.01,0.363-0.247,0.559-0.546,0.65c-0.219,0.063-0.465,0.095-0.693,0.073
	c-0.237-0.02-0.33-0.165-0.392-0.34c-0.033-0.115-0.052-0.229-0.062-0.341c0.258,0.02,0.536,0.039,0.815,0.01
	c0.094-0.021,0.204-0.114,0.216-0.175c0.021-0.403,0.021-0.775-0.03-1.179c-0.032-0.257-0.319-0.443-0.567-0.467
	c-0.332-0.019-0.764-0.019-1.105-0.009c0.06,0.684,0.122,1.406,0.071,2.098c-0.216,0.021-0.445,0.029-0.66,0.072
	c0.05-0.725,0.05-1.455-0.062-2.148c-0.455-0.013-0.929,0.011-1.342,0.041c-0.104,0.661-0.134,1.437-0.114,2.139l-0.661,0.082
	c0-0.734,0.021-1.49,0.122-2.169c-0.516,0.02-1.061,0.082-1.568,0.195c-0.104,0.735-0.135,1.561-0.144,2.315l-0.663,0.081
	c-0.01-0.774,0.054-1.519,0.125-2.262c-0.114,0.019-0.237,0.052-0.362,0.083c0.011-0.165,0.021-0.341,0.071-0.485
	c0.044-0.125,0.126-0.216,0.26-0.248c0.742-0.197,2.273-0.299,3.132-0.343c0.062-0.236,0.132-0.451,0.216-0.681
	c-1.293,0.064-2.594,0.155-3.824,0.403c0.013-0.114,0.013-0.279,0.064-0.413c0.051-0.136,0.133-0.247,0.318-0.289
	c1.438-0.31,5.651-0.454,7.789-0.412v0.649C63.262,56.271,61.907,56.271,60.65,56.312z M59.028,61.21
	c-0.188,0.164-0.519,0.494-0.674,0.66c0.632,0.144,1.509,0.352,2.169,0.518c0.549-0.341,1.097-0.766,1.562-1.283
	C61.072,61.137,60.04,61.169,59.028,61.21z"/>
<path fill="#FFFFFF" d="M67.175,62.696l-0.692,0.031c-0.071-1.953,0.042-3.894,0.28-5.826l0.699-0.029
	C67.214,59.01,67.113,60.621,67.175,62.696z M68.57,64.412c-0.176-0.042-0.354-0.092-0.487-0.187
	c-0.133-0.094-0.215-0.236-0.215-0.444c0.031-2.015,0.4-5.992,0.733-8.191l0.701,0.071C68.941,58.059,68.61,61.499,68.57,64.412z
	 M74.55,62.604c-0.145,0.145-0.342,0.228-0.598,0.268c-0.178,0.021-0.373,0.012-0.559,0c-0.165-0.011-0.268-0.093-0.342-0.215
	c-0.07-0.126-0.112-0.291-0.134-0.477c0.3,0.021,0.629,0.031,0.92,0.011c0.153-0.011,0.249-0.177,0.249-0.32
	c0.018-1.198-0.022-2.397-0.156-3.554c-0.031-0.227-0.238-0.477-0.475-0.515c-0.29-0.054-0.652-0.041-0.941,0
	c0.062,2.188,0.062,4.378-0.031,6.61h-0.732c0.125-2.294,0.125-4.329,0.062-6.528c-0.414,0.05-0.836,0.144-1.23,0.257
	c-0.194,1.632-0.301,3.12-0.33,4.752l-0.721,0.023c0.006-1.551,0.143-3.05,0.299-4.54c-0.156,0.024-0.299,0.074-0.467,0.138
	c-0.02-0.165-0.02-0.331,0.021-0.477c0.052-0.133,0.146-0.248,0.331-0.309c0.659-0.237,1.341-0.394,2.055-0.507
	c-0.01-0.496-0.052-1.125-0.104-1.611h0.702c0.042,0.402,0.084,1.094,0.104,1.518c0.29-0.019,0.62-0.019,0.919,0
	c0.476,0.042,0.794,0.207,1.003,0.487c0.164,0.237,0.246,0.536,0.287,0.908c0.114,1.115,0.146,2.324,0.127,3.419
	C74.798,62.222,74.706,62.438,74.55,62.604z"/>
<g>
	<circle fill="#4AB2BC" cx="50.305" cy="64.501" r="1.288"/>
	<circle fill="#4AB2BC" cx="79.923" cy="63.87" r="1.288"/>
	<path fill="none" stroke="#4AB2BC" stroke-miterlimit="10" d="M50.724,64.501c0,0,13.398,19.214,29.199-0.631"/>
</g>
<g>
	<circle fill="#1B4166" cx="50.305" cy="65.144" r="1.288"/>
	<circle fill="#1B4166" cx="79.923" cy="64.513" r="1.288"/>
	<path fill="none" stroke="#1B4166" stroke-miterlimit="10" d="M50.724,65.144c0,0,13.398,19.214,29.199-0.631"/>
</g>
<circle fill="#F8B62D" cx="36.779" cy="43.084" r="1.417"/>
<circle fill="#F8B62D" cx="53.009" cy="26.335" r="1.417"/>
<circle fill="#F8B62D" cx="76.457" cy="24.918" r="1.417"/>
<circle fill="#F8B62D" cx="93.778" cy="41.668" r="1.417"/>
<circle fill="#F8B62D" cx="93.778" cy="66.431" r="1.417"/>
<circle fill="#F8B62D" cx="76.902" cy="83.001" r="1.417"/>
<circle fill="#F8B62D" cx="54.351" cy="83.668" r="1.417"/>
<circle fill="#F8B62D" cx="36.779" cy="67.217" r="1.417"/>
</svg>
