<?xml version="1.0" encoding="utf-8"?>
<!-- Generator: Adobe Illustrator 16.0.0, SVG Export Plug-In . SVG Version: 6.00 Build 0)  -->
<!DOCTYPE svg PUBLIC "-//W3C//DTD SVG 1.1//EN" "http://www.w3.org/Graphics/SVG/1.1/DTD/svg11.dtd">
<svg version="1.1" id="Layer_1" xmlns="http://www.w3.org/2000/svg" xmlns:xlink="http://www.w3.org/1999/xlink" x="0px" y="0px"
	 width="126.876px" height="112.438px" viewBox="0 0 126.876 112.438" enable-background="new 0 0 126.876 112.438"
	 xml:space="preserve">
<rect fill="#FFFFFF" width="126.876" height="112.438"/>
<g>
	<g>
		<polygon points="32.525,43.431 34.588,41.816 37,43.931 35.743,40.914 37.689,39.387 40.32,41.329 38.847,38.481 40.9,36.873 
			44.293,43.943 42.278,45.521 39.082,43.167 40.604,46.833 38.589,48.41 		"/>
		<path fill="#FFFFFF" d="M40.81,37.262l3.171,6.608l-1.707,1.337l-3.768-2.774l1.795,4.32l-1.708,1.337l-5.668-4.654l1.654-1.295
			l3.066,2.688l-1.599-3.836l1.647-1.292l3.342,2.467l-1.872-3.617L40.81,37.262 M40.991,36.484l-0.49,0.384l-1.646,1.289
			l-0.326,0.256l0.19,0.367l0.885,1.71l-1.613-1.191l-0.307-0.226l-0.299,0.234L35.738,40.6l-0.3,0.234l0.146,0.352l0.771,1.848
			l-1.446-1.269l-0.312-0.273l-0.326,0.256l-1.654,1.295l-0.49,0.384l0.481,0.396l5.668,4.654l0.31,0.254l0.316-0.247l1.707-1.337
			l0.3-0.234l-0.146-0.351l-1.105-2.66l2.32,1.708l0.305,0.226l0.3-0.234l1.707-1.337l0.315-0.248l-0.174-0.361l-3.17-6.609
			L40.991,36.484L40.991,36.484z"/>
	</g>
	<g>
		<polygon points="41.998,36.322 44.404,35.072 45.56,37.295 47.261,36.412 46.105,34.188 48.521,32.934 52.051,39.729 
			49.637,40.984 48.302,38.414 46.6,39.298 47.935,41.868 45.528,43.117 		"/>
		<path fill="#FFFFFF" d="M48.414,33.271l3.3,6.353l-1.971,1.024l-1.335-2.57l-2.146,1.114l1.335,2.57l-1.963,1.019l-3.3-6.352
			l1.963-1.02l1.155,2.223l2.145-1.113l-1.155-2.224L48.414,33.271 M48.627,32.597l-0.443,0.23l-1.972,1.024l-0.443,0.23l0.23,0.443
			l0.924,1.779l-1.257,0.653l-0.925-1.779l-0.23-0.443l-0.443,0.23l-1.963,1.02l-0.443,0.23l0.23,0.443l3.3,6.352l0.229,0.443
			l0.444-0.229l1.963-1.02l0.444-0.23l-0.231-0.443l-1.104-2.127l1.258-0.653l1.105,2.127l0.23,0.444l0.443-0.231l1.971-1.024
			l0.443-0.23l-0.23-0.443l-3.3-6.353L48.627,32.597L48.627,32.597z"/>
	</g>
	<g>
		<path d="M52.371,31.592l2.643-0.792l4.954,6.511l-2.743,0.821l-0.682-1.029l-2.049,0.613l0.005,1.231l-2.689,0.808L52.371,31.592z
			 M54.512,35.574l0.858-0.257l-0.853-1.276L54.512,35.574z"/>
		<path fill="#FFFFFF" d="M54.92,31.089l4.63,6.086l-2.219,0.664l-0.682-1.029l-2.406,0.721l0.005,1.231l-2.164,0.649l0.524-7.63
			L54.92,31.089 M54.261,35.91l1.505-0.45l-1.495-2.239L54.261,35.91 M55.108,30.511l-0.332,0.099l-2.312,0.693l-0.331,0.099
			l-0.024,0.346l-0.524,7.63l-0.049,0.721l0.691-0.208l2.164-0.649l0.357-0.107l-0.001-0.373l-0.003-0.857l1.692-0.508l0.477,0.721
			l0.205,0.309l0.355-0.105l2.219-0.664l0.691-0.207l-0.437-0.575l-4.631-6.086L55.108,30.511L55.108,30.511z"/>
	</g>
	<g>
		<polygon points="60.211,32.033 57.97,32.293 57.709,30.04 64.884,29.207 65.146,31.46 62.905,31.721 63.526,37.075 60.832,37.387 
					"/>
		<path fill="#FFFFFF" d="M64.664,29.484l0.204,1.756l-2.24,0.261l0.621,5.354l-2.197,0.254l-0.621-5.354l-2.241,0.26l-0.203-1.756
			L64.664,29.484 M65.103,28.93l-0.496,0.058l-6.678,0.775l-0.496,0.058l0.057,0.497l0.203,1.756l0.058,0.497l0.497-0.058
			l1.744-0.202l0.564,4.856l0.057,0.496l0.497-0.057l2.197-0.254l0.497-0.058l-0.059-0.497l-0.562-4.858l1.743-0.202l0.497-0.059
			l-0.059-0.496l-0.203-1.756L65.103,28.93L65.103,28.93z"/>
	</g>
	<g>
		<path d="M65.589,32.441l0.24-0.108c0.429-0.191,0.617-0.348,0.7-0.445c0.053-0.063,0.094-0.133,0.125-0.208l-0.958-0.014
			l0.038-2.473l2.624,0.041l-0.029,1.886c-0.011,0.653-0.161,1.181-0.446,1.566c-0.285,0.384-0.758,0.714-1.405,0.981l-0.213,0.089
			L65.589,32.441z"/>
		<path fill="#FFFFFF" d="M65.98,29.447l2.124,0.033l-0.025,1.636c-0.01,0.602-0.142,1.076-0.397,1.422
			c-0.257,0.346-0.689,0.646-1.3,0.899l-0.45-0.876c0.38-0.17,0.643-0.341,0.788-0.513c0.144-0.172,0.226-0.376,0.246-0.614
			L65.95,31.42L65.98,29.447 M65.488,28.939l-0.008,0.5l-0.03,1.973l-0.008,0.5l0.5,0.008l0.143,0.002
			c-0.089,0.054-0.205,0.115-0.357,0.184l-0.482,0.215l0.242,0.47l0.449,0.876l0.211,0.41l0.426-0.177
			c0.69-0.286,1.198-0.644,1.51-1.063c0.318-0.429,0.484-1.005,0.496-1.712l0.025-1.636l0.008-0.5l-0.5-0.008l-2.124-0.033
			L65.488,28.939L65.488,28.939z"/>
	</g>
	<g>
		<path d="M72.557,37.57c-0.269,0-0.558-0.021-0.866-0.067c-1.284-0.185-2.123-0.563-2.565-1.156
			c-0.432-0.579-0.627-1.269-0.581-2.048l0.016-0.256l2.59,0.213l-0.003,0.233c-0.003,0.299,0.04,0.53,0.13,0.687
			c0.144,0.251,0.38,0.397,0.723,0.447c0.071,0.01,0.14,0.016,0.203,0.016c0.155,0,0.283-0.032,0.379-0.094
			c0.131-0.083,0.199-0.178,0.218-0.3c0.01-0.068,0.008-0.182-0.116-0.333c-0.049-0.058-0.245-0.229-0.958-0.499
			c-0.979-0.373-1.642-0.775-2.029-1.229c-0.407-0.473-0.568-1.03-0.478-1.656c0.061-0.41,0.237-0.785,0.526-1.114
			c0.29-0.33,0.688-0.565,1.186-0.701c0.26-0.071,0.567-0.108,0.911-0.108c0.291,0,0.618,0.026,0.973,0.078
			c0.955,0.139,1.674,0.433,2.134,0.873c0.476,0.452,0.708,1.096,0.691,1.913l-0.006,0.267l-2.157-0.184
			c0.411,0.186,0.73,0.359,0.965,0.525c0.419,0.296,0.714,0.64,0.876,1.022c0.16,0.381,0.209,0.792,0.146,1.223
			c-0.071,0.501-0.28,0.949-0.618,1.332c-0.339,0.382-0.776,0.649-1.302,0.795C73.248,37.53,72.917,37.57,72.557,37.57z
			 M72.157,31.45c-0.108,0-0.194,0.02-0.254,0.057c-0.084,0.051-0.126,0.109-0.138,0.189c-0.002,0.016-0.008,0.056,0.055,0.126
			c0.021,0.024,0.124,0.127,0.596,0.298c0.232,0.087,0.447,0.171,0.645,0.253l-0.002-0.08c-0.007-0.265-0.067-0.462-0.18-0.584
			c-0.114-0.127-0.299-0.209-0.547-0.245C72.27,31.455,72.211,31.45,72.157,31.45z"/>
		<path fill="#FFFFFF" d="M71.841,29.854c0.281,0,0.593,0.025,0.937,0.075c0.904,0.132,1.571,0.399,1.997,0.807
			c0.426,0.404,0.63,0.981,0.614,1.728l-2.08-0.178c-0.009-0.327-0.09-0.576-0.245-0.746c-0.155-0.171-0.387-0.278-0.695-0.323
			c-0.075-0.011-0.146-0.017-0.211-0.017c-0.156,0-0.285,0.031-0.387,0.095c-0.146,0.089-0.229,0.212-0.252,0.365
			c-0.017,0.113,0.021,0.223,0.115,0.328c0.091,0.108,0.322,0.231,0.697,0.367c0.927,0.346,1.581,0.654,1.965,0.926
			c0.384,0.271,0.646,0.576,0.79,0.916c0.143,0.339,0.186,0.703,0.129,1.089c-0.065,0.455-0.252,0.855-0.559,1.202
			c-0.308,0.348-0.7,0.587-1.181,0.72c-0.273,0.075-0.579,0.112-0.919,0.112c-0.257,0-0.534-0.021-0.83-0.064
			c-1.204-0.174-2.005-0.527-2.401-1.059c-0.396-0.532-0.574-1.159-0.531-1.884l2.103,0.173c-0.004,0.345,0.05,0.616,0.163,0.813
			c0.183,0.319,0.484,0.51,0.903,0.57c0.084,0.012,0.164,0.019,0.239,0.019c0.204,0,0.377-0.045,0.515-0.134
			c0.191-0.121,0.3-0.279,0.329-0.473c0.025-0.184-0.031-0.359-0.17-0.528c-0.141-0.167-0.495-0.359-1.062-0.574
			c-0.928-0.354-1.571-0.74-1.928-1.157c-0.36-0.418-0.501-0.904-0.421-1.458c0.054-0.364,0.209-0.691,0.467-0.985
			c0.258-0.293,0.612-0.502,1.063-0.625C71.235,29.888,71.518,29.854,71.841,29.854 M71.841,29.354c-0.367,0-0.695,0.04-0.979,0.117
			c-0.543,0.148-0.982,0.41-1.306,0.777c-0.321,0.366-0.519,0.784-0.587,1.242c-0.102,0.702,0.08,1.327,0.537,1.857
			c0.173,0.202,0.395,0.394,0.668,0.577l-1.34-0.11l-0.51-0.042l-0.03,0.511c-0.05,0.84,0.162,1.584,0.63,2.212
			c0.484,0.648,1.377,1.06,2.73,1.255c0.317,0.046,0.621,0.069,0.901,0.069c0.382,0,0.736-0.043,1.052-0.13
			c0.573-0.159,1.051-0.451,1.422-0.871c0.372-0.42,0.601-0.911,0.68-1.462c0.069-0.475,0.015-0.932-0.163-1.354
			c-0.176-0.415-0.486-0.786-0.924-1.103l0.724,0.062l0.531,0.046l0.011-0.533c0.019-0.892-0.24-1.598-0.771-2.101
			c-0.504-0.482-1.246-0.79-2.269-0.939C72.483,29.382,72.145,29.354,71.841,29.354L71.841,29.354z M72.084,31.706
			c0.021-0.004,0.044-0.006,0.073-0.006c0.043,0,0.09,0.004,0.139,0.012c0.189,0.027,0.323,0.083,0.397,0.164
			c0.024,0.027,0.046,0.062,0.062,0.105c-0.081-0.031-0.164-0.062-0.25-0.095C72.283,31.807,72.155,31.745,72.084,31.706
			L72.084,31.706z M72.202,35.389c-0.053,0-0.109-0.005-0.168-0.014c-0.348-0.05-0.475-0.209-0.541-0.323
			c-0.043-0.076-0.094-0.223-0.097-0.499c0.077,0.031,0.157,0.062,0.238,0.094c0.718,0.272,0.854,0.423,0.858,0.43
			c0.065,0.079,0.06,0.12,0.058,0.138c-0.003,0.019-0.009,0.061-0.102,0.118C72.391,35.37,72.309,35.389,72.202,35.389
			L72.202,35.389z"/>
	</g>
	<g>
		<path d="M83.528,40.82c-0.487-0.02-1.027-0.153-1.605-0.396c-0.323-0.135-0.677-0.31-1.05-0.52c-0.385-0.217-0.69-0.46-0.91-0.724
			c-0.22-0.267-0.391-0.585-0.508-0.946c-0.119-0.365-0.161-0.718-0.127-1.047c0.053-0.498,0.152-0.924,0.297-1.266l1.743-4.163
			l2.497,1.044l-1.783,4.259c-0.126,0.299-0.143,0.555-0.053,0.779c0.09,0.224,0.275,0.392,0.57,0.515
			c0.164,0.069,0.318,0.104,0.459,0.104l0,0c0.105,0,0.204-0.019,0.299-0.059c0.223-0.09,0.393-0.282,0.521-0.587l1.782-4.259
			l2.497,1.045l-1.745,4.164c-0.172,0.413-0.403,0.784-0.688,1.101c-0.292,0.322-0.643,0.569-1.045,0.734
			c-0.366,0.148-0.721,0.224-1.054,0.224L83.528,40.82z"/>
		<path fill="#FFFFFF" d="M81.502,32.086l2.036,0.851l-1.687,4.028c-0.151,0.359-0.169,0.684-0.054,0.97
			c0.114,0.286,0.35,0.503,0.705,0.651c0.195,0.082,0.381,0.123,0.555,0.123c0.139,0,0.271-0.025,0.396-0.077
			c0.283-0.115,0.502-0.355,0.656-0.722l1.686-4.028l2.036,0.852l-1.648,3.934c-0.163,0.392-0.378,0.734-0.644,1.03
			c-0.268,0.296-0.585,0.519-0.953,0.67c-0.336,0.137-0.655,0.205-0.959,0.205c-0.029,0-0.059-0.001-0.088-0.002
			c-0.458-0.019-0.965-0.144-1.52-0.377c-0.321-0.134-0.663-0.304-1.024-0.507c-0.361-0.204-0.641-0.427-0.84-0.666
			c-0.199-0.241-0.354-0.528-0.462-0.863c-0.109-0.335-0.147-0.648-0.116-0.943c0.05-0.473,0.142-0.871,0.278-1.194L81.502,32.086
			 M81.233,31.432l-0.192,0.461l-1.646,3.934c-0.155,0.367-0.259,0.805-0.314,1.335c-0.039,0.365,0.008,0.752,0.138,1.151
			c0.127,0.391,0.312,0.736,0.552,1.026c0.24,0.288,0.569,0.552,0.979,0.783c0.384,0.215,0.746,0.395,1.078,0.533
			c0.604,0.254,1.174,0.394,1.691,0.415l0.108,0.002c0.366,0,0.752-0.081,1.147-0.242c0.438-0.18,0.819-0.448,1.136-0.798
			c0.304-0.339,0.551-0.733,0.734-1.173l1.647-3.933l0.193-0.462l-0.461-0.192l-2.037-0.852l-0.461-0.193l-0.192,0.461l-1.686,4.028
			c-0.102,0.24-0.227,0.388-0.384,0.452c-0.067,0.027-0.134,0.04-0.207,0.04c-0.105,0-0.228-0.028-0.361-0.084
			c-0.229-0.096-0.371-0.219-0.434-0.376c-0.066-0.162-0.049-0.354,0.05-0.59l1.687-4.029l0.193-0.462l-0.462-0.192l-2.036-0.851
			L81.233,31.432L81.233,31.432z"/>
	</g>
	<g>
		<path d="M85.775,42.019l3.924-6.576l3.372,2.012c0.74,0.441,1.2,0.967,1.365,1.562c0.165,0.597,0.049,1.234-0.346,1.896
			c-0.404,0.679-0.939,1.096-1.589,1.238c-0.144,0.031-0.292,0.046-0.443,0.046c-0.532,0-1.125-0.192-1.76-0.572l-0.825-0.491
			l-1.361,2.28L85.775,42.019z M90.725,39.607c0.336,0.2,0.538,0.242,0.649,0.242c0.217-0.032,0.325-0.107,0.405-0.242
			c0.083-0.137,0.105-0.274,0.072-0.421c-0.019-0.079-0.106-0.246-0.491-0.478l-0.325-0.193l-0.562,0.942L90.725,39.607z"/>
		<path fill="#FFFFFF" d="M89.786,35.785l3.157,1.884c0.688,0.41,1.104,0.882,1.252,1.413c0.147,0.532,0.041,1.098-0.319,1.702
			c-0.37,0.621-0.846,0.994-1.428,1.122c-0.125,0.027-0.256,0.041-0.39,0.041c-0.487,0-1.031-0.179-1.632-0.538l-1.04-0.619
			l-1.361,2.28l-1.907-1.139L89.786,35.785 M91.374,40.1c0.037,0,0.072-0.003,0.106-0.009c0.224-0.039,0.396-0.156,0.514-0.355
			c0.116-0.192,0.149-0.395,0.101-0.605s-0.251-0.422-0.605-0.635l-0.541-0.322l-0.817,1.371l0.465,0.278
			C90.906,40.007,91.165,40.1,91.374,40.1 M89.613,35.1l-0.257,0.43l-3.668,6.146l-0.256,0.429l0.43,0.257l1.906,1.139l0.43,0.256
			l0.256-0.43l1.105-1.852l0.611,0.364c0.674,0.403,1.31,0.608,1.888,0.608c0.169,0,0.335-0.018,0.495-0.052
			c0.722-0.159,1.311-0.615,1.752-1.355c0.431-0.723,0.556-1.427,0.371-2.092c-0.183-0.658-0.68-1.233-1.478-1.709l-3.157-1.884
			L89.613,35.1L89.613,35.1z M90.815,39.371l0.307-0.513l0.111,0.066c0.335,0.201,0.374,0.317,0.374,0.317
			c0.02,0.084,0.007,0.154-0.041,0.234c-0.045,0.075-0.091,0.107-0.172,0.122L91.374,39.6c-0.053,0-0.208-0.021-0.522-0.207
			L90.815,39.371L90.815,39.371z"/>
	</g>
</g>
<ellipse fill="#FFFFFF" cx="65.026" cy="59.699" rx="11.753" ry="11.249"/>
<g id="_x30_101-sun-smile-glasses-icon">
	<g>
		<path fill="#040000" stroke="#FFFFFF" stroke-width="0.5" stroke-miterlimit="10" d="M65.362,44.224
			c0.999-0.127,0.919-1.331,1.125-2.251c0.246-0.338,0.338-0.829,0.375-1.375c0.205-0.427,0.147-1.076-0.125-1.375h-0.375
			c-0.489,0.303-0.736,0.848-1.125,1.25c-0.111,0.722-0.402,1.265-0.5,2C64.731,43.271,64.599,44.194,65.362,44.224z M54.986,47.473
			c0.353-1.311-0.862-2.023-1.374-2.875c-0.686-0.814-0.984-2.015-2.124-2.375c-0.51,0.074-0.802,0.365-0.875,0.875
			C50.401,44.564,53.494,47.953,54.986,47.473z M82.67,43.127c-0.112-0.243-0.377-0.385-0.863-0.33
			c-0.862,0.098-1.936,0.977-2.595,1.514c-0.825,0.673-1.673,1.36-2.225,2.287c-0.369,0.404-0.738,1.34-0.251,1.875
			c0.971,0.419,1.771-0.677,2.432-1.211c0.876-0.709,1.834-1.311,2.694-2.038C82.373,44.79,82.933,43.688,82.67,43.127z
			 M62.86,47.938c-1.249,0.088-2.477,0.415-3.633,1.065c-0.77,0.434-2.32,1.039-2.865,1.595c-2.014,2.055-3.818,4.679-4.407,7.54
			c-0.63,3.055,0.69,6.012,2.004,8.695c2.526,5.158,7.612,5.538,12.778,5.39c1.761-0.28,3.457-0.626,4.749-1.375
			c1.507-0.578,2.578-1.59,3.751-2.5c0.955-1.504,1.913-3.003,2.375-5c0.589-2.551-0.09-5.426-1.125-7.749
			C74.304,50.7,68.099,47.566,62.86,47.938z M72.987,67.348c-1.785,1.49-4.939,2.875-8.25,2.875c-1.611,0-3.586-0.557-5.037-1.231
			c-2.815-1.31-4.685-4.127-5.225-7.142c-0.502-2.798,0.539-6.737,2.799-8.655c1.431-1.214,3.117-2.584,5.039-2.833
			c0.098-0.013,0.197-0.024,0.295-0.034c1.654-0.168,3.72,0.199,5.314,0.638c1.395,0.385,2.877,1.15,3.992,2.07
			c1.93,1.594,3.159,4.077,3.504,6.535C75.766,62.053,75.034,65.641,72.987,67.348z M49.203,57.479
			c0.119-0.285-2.632-2.266-2.948-2.433c-0.576-0.304-2.163-0.935-2.663-0.229c-0.7,0.993,1.821,2.223,2.396,2.53
			C46.728,57.746,48.688,58.679,49.203,57.479z M69.015,55.477c-1.59-0.026-3.179-0.107-4.768-0.099
			c-1.127,0.006-2.254,0.017-3.38,0.016c-0.567,0-1.136-0.003-1.704-0.011c-0.434-0.006-1.28-0.197-1.676-0.035
			c-0.147,0.061-0.283,0.133-0.375,0.25c-0.51,0.411-0.229,0.91-0.374,1.75c0.104,0.895,0.427,1.572,0.749,2.249
			c0.314,0.66,1.912,1.02,2.532,1.031c1.158,0.022,1.967-0.669,2.645-1.551c0.197-0.256,0.933-2.104,1.073-2.104h2.125
			c-0.464,0,0.744,2.193,0.914,2.357c0.666,0.647,1.594,1.046,2.517,1.124c2.478,0.213,4.188-2.451,3.444-4.731
			C72.556,55.166,69.482,55.485,69.015,55.477z M61.789,58.59c-0.345,0.048-0.55-0.186-0.616-0.504
			c-0.146-0.681,0.339-1.742,1.439-1.238C63.333,57.179,62.286,58.521,61.789,58.59z M71.085,58.534
			c-0.578-0.057-0.723-0.891-0.592-1.342c0.139-0.489,1.404-1.267,1.494-0.345C72.04,57.391,71.928,58.616,71.085,58.534z
			 M82.862,59.223c0.604-0.116,1.209-0.245,1.75-0.5c0.484-0.228,1.179-0.477,1.125-1.25c-0.414-0.545-1.209-0.708-2.126-0.75
			c-1.468,0.448-3.911-0.079-4.124,1.625C79.622,59.667,81.62,59.376,82.862,59.223z M72.487,60.974
			c-0.16,0.007-0.174,0.16-0.375,0.124c-1.234,0.517-2.19,1.312-3.625,1.626c-1.402,0.75-3.396,0.742-4.952,0.704
			c-1.71-0.042-3.415-0.412-4.873-1.338c-0.44-0.278-1.755-1.094-1.707,0.008c0.057,1.3,1.962,2.255,3.035,2.524
			c1.683,0.424,3.629,0.778,5.372,0.601c1.777-0.182,3.361-0.556,4.749-1.125c0.608-0.35,1.368-0.55,1.75-1.125
			c0.519-0.34,1.223-1.076,0.876-1.875C72.61,61.099,72.589,60.996,72.487,60.974z M50.071,67.849
			c-1.168,0.02-6.48,2.843-4.48,4.312c0.941,0.69,1.67-0.323,2.301-0.912c0.764-0.713,1.826-0.699,2.479-1.533
			c0.229-0.294,0.428-0.849,0.379-1.278C50.71,68.1,50.52,67.841,50.071,67.849z M85.323,71.304
			c-0.605-0.483-1.362-1.038-2.078-1.34c-0.829-0.349-3.566-0.866-2.068,0.735c0.566,0.604,1.289,1.091,1.954,1.579
			c0.824,0.604,2.12,1.646,3.2,1.046C86.915,73,85.534,71.473,85.323,71.304z M60.763,73.93c-0.209-0.101-0.502-0.1-0.901,0.044
			c-0.536,0.191-1.046,3.117-1.128,3.665c-0.113,0.751-0.26,2.061,0.24,2.7c0.967,1.237,1.844-2.501,1.93-2.931
			C61.081,76.511,61.636,74.347,60.763,73.93z M71.92,73.606c-0.042-0.01-0.081-0.016-0.118-0.02
			c-1.84-0.144,0.767,8.298,2.387,6.232C75.088,78.672,73.273,73.912,71.92,73.606z"/>
	</g>
</g>
</svg>
