<?xml version="1.0" encoding="utf-8"?>
<!-- Generator: Adobe Illustrator 16.0.0, SVG Export Plug-In . SVG Version: 6.00 Build 0)  -->
<!DOCTYPE svg PUBLIC "-//W3C//DTD SVG 1.1//EN" "http://www.w3.org/Graphics/SVG/1.1/DTD/svg11.dtd">
<svg version="1.1" id="Layer_1" xmlns="http://www.w3.org/2000/svg" xmlns:xlink="http://www.w3.org/1999/xlink" x="0px" y="0px"
	 width="126.877px" height="112.438px" viewBox="0 0 126.877 112.438" enable-background="new 0 0 126.877 112.438"
	 xml:space="preserve">
<rect fill="#FFFFFF" width="126.877" height="112.438"/>
<g>
	<g>
		
			<line fill="none" stroke="#000000" stroke-width="2" stroke-linecap="round" stroke-miterlimit="10" x1="28.093" y1="25.134" x2="32.455" y2="25.134"/>
		
			<line fill="none" stroke="#000000" stroke-width="2" stroke-linecap="round" stroke-miterlimit="10" x1="28.093" y1="25.134" x2="28.093" y2="28.982"/>
	</g>
	<g>
		
			<line fill="none" stroke="#000000" stroke-width="2" stroke-linecap="round" stroke-miterlimit="10" x1="92.44" y1="81.497" x2="88.077" y2="81.497"/>
		
			<line fill="none" stroke="#000000" stroke-width="2" stroke-linecap="round" stroke-miterlimit="10" x1="92.44" y1="81.497" x2="92.44" y2="77.648"/>
	</g>
	<g>
		
			<line fill="none" stroke="#000000" stroke-width="2" stroke-linecap="round" stroke-miterlimit="10" x1="92.439" y1="25.134" x2="88.077" y2="25.134"/>
		
			<line fill="none" stroke="#000000" stroke-width="2" stroke-linecap="round" stroke-miterlimit="10" x1="92.439" y1="25.134" x2="92.439" y2="28.982"/>
	</g>
	<g>
		
			<line fill="none" stroke="#000000" stroke-width="2" stroke-linecap="round" stroke-miterlimit="10" x1="28.093" y1="81.497" x2="32.456" y2="81.497"/>
		
			<line fill="none" stroke="#000000" stroke-width="2" stroke-linecap="round" stroke-miterlimit="10" x1="28.093" y1="81.497" x2="28.093" y2="77.648"/>
	</g>
</g>
<line fill="none" stroke="#000000" stroke-miterlimit="10" x1="40.025" y1="52.895" x2="81.091" y2="52.895"/>
<line fill="none" stroke="#000000" stroke-miterlimit="10" x1="60.556" y1="72.631" x2="60.556" y2="33.162"/>
<circle fill="#C30D23" stroke="#000000" stroke-linecap="round" stroke-miterlimit="10" cx="60.558" cy="52.895" r="4.035"/>
<g>
	
		<path fill="none" stroke="#000000" stroke-width="0.5" stroke-linecap="round" stroke-miterlimit="10" stroke-dasharray="1.9993,1.9993" d="
		M80.291,52.896c0,10.895-8.836,19.73-19.73,19.73c-10.9,0-19.736-8.836-19.736-19.73c0-10.9,8.836-19.736,19.736-19.736
		C71.455,33.16,80.291,41.996,80.291,52.896z"/>
</g>
<g>
	<path d="M61.513,39.643c-0.148,0-0.292-0.016-0.426-0.048c-0.263-0.062-0.504-0.181-0.716-0.35
		c-0.317-0.258-0.559-0.595-0.72-1.005c-0.153-0.387-0.231-0.787-0.231-1.188v-5.482c-0.191,0.118-0.391,0.215-0.596,0.288v1.772
		c0,0.261-0.086,0.638-0.496,0.951c-0.229,0.177-0.503,0.337-0.816,0.477c-0.202,0.076-0.374,0.109-0.54,0.109
		c-0.195,0-0.382-0.045-0.554-0.135c-0.17-0.088-0.332-0.205-0.489-0.354l-1.122,0.318c-0.212,0.217-0.45,0.38-0.712,0.484
		c-0.168,0.066-0.34,0.1-0.512,0.1c-0.198,0-0.398-0.044-0.594-0.131c-0.292-0.144-0.533-0.334-0.735-0.573
		c-0.23-0.28-0.347-0.582-0.347-0.9v-8.554c0-0.079-0.007-0.146-0.021-0.202c-0.005-0.018-0.018-0.059-0.062-0.122
		c-0.059-0.085-0.143-0.181-0.255-0.291l-0.461-0.454l0.608-0.363c0.433-0.466,0.857-0.692,1.297-0.692l0.168,0.012
		c0.394,0.055,0.787,0.296,1.196,0.735l3.202-0.919l0.183,0.104c0.643,0.365,1.127,0.81,1.439,1.319
		c0.06,0.097,0.112,0.192,0.157,0.284c0.548-0.916,1.004-1.756,1.357-2.494l0.061-0.126l0.117-0.077
		c0.361-0.236,0.724-0.441,1.074-0.61c0.322-0.152,0.61-0.227,0.882-0.227c0.093,0,0.182,0.01,0.268,0.026
		c0.142,0.013,0.413,0.102,1.103,0.622c0.452,0.343,0.754,0.577,0.911,0.701c0.239,0.217,0.408,0.437,0.528,0.676
		c0.157,0.313,0.171,0.653,0.042,0.984c-0.08,0.169-0.166,0.293-0.27,0.399l0.863-0.15l0.259-0.257l0.323,0.169
		c0.358,0.187,0.713,0.378,1.063,0.572c0.411,0.228,0.714,0.471,0.927,0.743c0.395,0.544,0.329,1.004,0.206,1.297
		c-0.146,0.343-0.396,0.644-0.747,0.896l-0.092,0.065L67.32,28.21l0.107,0.062c0.731,0.419,1.25,0.93,1.541,1.518
		c0.209,0.425,0.153,0.764,0.071,0.975c-0.148,0.377-0.494,0.665-1.058,0.881l-4.373,0.763v0.322l3.868-0.706l0.545-0.353
		l0.282,0.23c0.249,0.203,0.529,0.435,0.84,0.7c0.393,0.332,0.627,0.667,0.716,1.021c0.058,0.272,0.053,0.663-0.281,1.073
		c-0.234,0.286-0.512,0.478-0.826,0.569l-5.112,0.908l0.016,1.03c0,0.536-0.147,1.029-0.439,1.473
		c-0.308,0.466-0.718,0.771-1.22,0.912C61.798,39.629,61.65,39.643,61.513,39.643z M55.264,31.356l0.271-0.073l-0.018-4.059
		l-0.253,0.074V31.356z M63.564,29.008l3.192-0.578l0.123-0.14l-3.315,0.602V29.008z"/>
	<path fill="#FFFFFF" d="M62.851,21.8c0.059,0,0.114,0.006,0.168,0.017c0.153,0.016,0.453,0.193,0.9,0.531
		c0.447,0.339,0.747,0.57,0.902,0.693c0.169,0.154,0.3,0.324,0.393,0.509c0.093,0.186,0.101,0.378,0.022,0.578
		c-0.045,0.093-0.104,0.174-0.172,0.242c-0.07,0.07-0.15,0.127-0.243,0.175c-0.093,0.03-0.18,0.045-0.261,0.045
		c-0.08,0-0.155-0.015-0.225-0.045c-0.139-0.062-0.278-0.171-0.417-0.324l-0.925,1.41l3.537-0.602l0.116-0.115
		c0.354,0.185,0.705,0.374,1.052,0.566c0.348,0.192,0.605,0.396,0.774,0.613c0.2,0.276,0.246,0.542,0.14,0.797
		c-0.108,0.255-0.301,0.482-0.578,0.682l-4.971,0.902v1.132l3.953-0.716l0.162-0.185c0.646,0.37,1.094,0.806,1.341,1.306
		c0.246,0.501,0.007,0.89-0.717,1.167l-4.694,0.81v1.342l4.556-0.832l0.323-0.209c0.246,0.201,0.524,0.431,0.832,0.693
		c0.309,0.262,0.493,0.517,0.555,0.763c0.046,0.216-0.015,0.429-0.184,0.636c-0.17,0.208-0.363,0.343-0.578,0.405l-5.479,0.971
		l0.022,1.456c0,0.432-0.119,0.828-0.357,1.19c-0.239,0.362-0.552,0.598-0.937,0.705c-0.124,0.022-0.24,0.034-0.351,0.034
		c-0.109,0-0.213-0.012-0.309-0.034c-0.192-0.046-0.366-0.131-0.521-0.254c-0.246-0.2-0.436-0.466-0.566-0.798
		c-0.131-0.33-0.196-0.666-0.196-1.005v-6.52c-0.247,0.246-0.502,0.45-0.764,0.612s-0.538,0.274-0.832,0.335v2.15
		c0,0.216-0.1,0.401-0.3,0.555c-0.2,0.154-0.439,0.293-0.716,0.416c-0.118,0.045-0.23,0.066-0.337,0.066
		c-0.115,0-0.223-0.025-0.323-0.078c-0.193-0.101-0.381-0.258-0.566-0.474l-1.549,0.439c-0.185,0.216-0.393,0.37-0.624,0.463
		c-0.106,0.042-0.216,0.063-0.326,0.063c-0.128,0-0.259-0.029-0.391-0.088c-0.216-0.106-0.4-0.254-0.556-0.438
		c-0.153-0.186-0.229-0.377-0.229-0.578v-7.838c0-0.354,0-0.593,0-0.716c0-0.124-0.013-0.231-0.036-0.324
		c-0.022-0.092-0.068-0.188-0.139-0.288c-0.069-0.101-0.172-0.221-0.312-0.359l0.116-0.069c0.347-0.389,0.673-0.584,0.978-0.584
		c0.032,0,0.065,0.002,0.098,0.007c0.331,0.046,0.697,0.315,1.099,0.809l3.306-0.948c0.57,0.324,0.99,0.705,1.26,1.146
		c0.27,0.439,0.358,0.798,0.266,1.074c-0.061,0.171-0.153,0.344-0.277,0.52c-0.123,0.179-0.269,0.367-0.439,0.567v0.417
		c0.402-0.571,0.882-1.326,1.445-2.266c0.562-0.94,1.029-1.796,1.398-2.567c0.354-0.231,0.694-0.423,1.018-0.578
		C62.434,21.859,62.656,21.8,62.851,21.8 M54.764,32.011l1.272-0.346l-0.022-5.109l-1.25,0.37V32.011 M62.851,20.8
		c-0.348,0-0.705,0.09-1.094,0.274c-0.375,0.18-0.756,0.396-1.136,0.645l-0.234,0.152l-0.121,0.253
		c-0.255,0.534-0.566,1.122-0.928,1.757c-0.339-0.412-0.783-0.775-1.328-1.085l-0.365-0.208l-0.404,0.116l-2.717,0.779
		c-0.418-0.389-0.839-0.608-1.274-0.669c-0.076-0.011-0.155-0.017-0.235-0.017c-0.559,0-1.101,0.269-1.612,0.798l-1.104,0.659
		l0.921,0.908c0.114,0.112,0.167,0.181,0.188,0.21c0.001,0.013,0.002,0.029,0.002,0.05v0.716v7.838c0,0.432,0.158,0.852,0.459,1.215
		c0.252,0.3,0.547,0.532,0.884,0.698c0.296,0.133,0.564,0.191,0.833,0.191c0.235,0,0.468-0.045,0.691-0.133
		c0.291-0.116,0.555-0.285,0.79-0.505l0.743-0.211c0.122,0.095,0.249,0.176,0.38,0.244c0.243,0.127,0.508,0.19,0.784,0.19
		c0.226,0,0.458-0.044,0.688-0.13l0.028-0.011l0.026-0.013c0.35-0.155,0.659-0.336,0.92-0.537c0.106-0.082,0.202-0.172,0.285-0.268
		v2.343c0,0.465,0.09,0.927,0.267,1.373c0.192,0.489,0.484,0.896,0.865,1.205c0.277,0.222,0.584,0.371,0.919,0.451
		c0.172,0.041,0.354,0.062,0.541,0.062c0.171,0,0.351-0.017,0.533-0.051l0.044-0.008l0.042-0.013
		c0.613-0.171,1.133-0.558,1.502-1.117c0.348-0.528,0.523-1.113,0.523-1.741l-0.01-0.62l4.642-0.822l0.053-0.009l0.052-0.016
		c0.413-0.12,0.774-0.366,1.073-0.732c0.358-0.439,0.496-0.964,0.388-1.477c-0.122-0.487-0.417-0.919-0.887-1.317
		c-0.207-0.177-0.402-0.341-0.584-0.49c0.295-0.218,0.504-0.479,0.623-0.782c0.119-0.304,0.2-0.789-0.088-1.377
		c-0.204-0.412-0.499-0.789-0.883-1.126l0.083-0.06c0.427-0.307,0.734-0.678,0.915-1.103c0.245-0.587,0.156-1.216-0.25-1.775
		c-0.275-0.354-0.629-0.641-1.1-0.901c-0.354-0.196-0.712-0.39-1.074-0.578l-0.647-0.338l-0.173,0.172
		c0-0.26-0.061-0.519-0.181-0.759c-0.148-0.296-0.354-0.564-0.612-0.8l-0.026-0.023l-0.027-0.021
		c-0.158-0.126-0.464-0.361-0.92-0.707c-0.62-0.469-0.994-0.671-1.347-0.723C63.07,20.81,62.961,20.8,62.851,20.8L62.851,20.8z"/>
</g>
<g>
	<path d="M37.755,60.157c-0.086,0-0.173-0.006-0.259-0.017c-0.392-0.057-0.692-0.254-0.876-0.571l-0.331-0.612
		c-0.15-0.264-0.374-0.529-0.68-0.804c-0.322-0.284-0.699-0.568-1.119-0.844l-0.313-0.204c-0.319,0.199-0.646,0.401-0.979,0.605
		c-0.71,0.404-1.406,0.774-2.087,1.108c-0.733,0.364-1.329,0.59-1.819,0.689c-0.137,0.018-0.229,0.022-0.318,0.022
		c-0.234,0-0.458-0.037-0.664-0.109c-0.452-0.166-0.672-0.567-0.58-1.051l0.088-0.838c0.007-0.08-0.009-0.169-0.049-0.271
		c-0.067-0.164-0.442-1.043-0.442-1.043l0.482-0.188c1.03-0.401,2.038-0.832,2.997-1.281c0.121-0.057,0.241-0.113,0.361-0.172
		l-0.12,0.015l-0.079,0.002c-0.304,0-0.688-0.11-1.176-0.335c-0.521-0.244-0.873-0.48-1.076-0.724
		c-0.396-0.448-0.415-0.866-0.36-1.137c0.061-0.31,0.231-0.633,0.521-0.983l0.255-0.309l0.454,0.23l1.357-0.155l0.144-0.448
		c-0.191-0.05-0.369-0.111-0.535-0.184c-0.342-0.146-0.606-0.375-0.787-0.679c-0.054,0.055-0.109,0.109-0.166,0.165
		c-0.358,0.35-0.696,0.52-1.031,0.52h-0.053l-0.142-0.021c-0.24-0.059-0.429-0.174-0.577-0.346c-0.16-0.196-0.236-0.404-0.236-0.629
		l-0.086-1.288l-0.311-0.899l0.22-0.221c0.231-0.232,0.431-0.455,0.598-0.666c0.149-0.188,0.27-0.393,0.356-0.604
		c0.045-0.098,0.082-0.204,0.059-0.276c-0.037-0.111-0.122-0.233-0.247-0.356l-0.409-0.403l0.455-0.35
		c0.326-0.25,0.776-0.43,1.376-0.547c0.19-0.037,0.367-0.054,0.533-0.054c0.338,0,0.641,0.071,0.902,0.215l2.287-0.425
		c0.048-0.138,0.058-0.211,0.06-0.241c0-0.019-0.002-0.14-0.131-0.431L33.036,42.6l1.552-0.871c0.146-0.107,0.394-0.177,0.69-0.177
		c0.147,0,0.315,0.017,0.504,0.053c0.408,0.078,0.746,0.15,1.015,0.213c0.25,0.047,0.476,0.104,0.653,0.161
		c0.22,0.073,0.403,0.166,0.562,0.284c0.187,0.138,0.333,0.331,0.43,0.572c0.031,0.078,0.055,0.16,0.07,0.248l2.85-0.215
		c0.103-0.013,0.225-0.021,0.344-0.021c0.31,0,0.602,0.053,0.869,0.157c0.356,0.143,0.706,0.375,1.041,0.692
		c0.284,0.254,0.591,0.561,0.927,0.929c0.327,0.358,0.612,0.744,0.848,1.146c0.221,0.386,0.354,0.763,0.4,1.127
		c0.054,0.422-0.038,0.818-0.273,1.18c-0.147,0.199-0.321,0.354-0.536,0.487c-0.194,0.119-0.394,0.216-0.594,0.287
		c-0.192,0.056-0.349,0.078-0.497,0.078c-0.159,0-0.313-0.026-0.459-0.076c-0.08-0.026-0.159-0.06-0.237-0.102
		c0,0.208-0.067,0.517-0.386,0.801c-0.216,0.192-0.457,0.315-0.717,0.363l-0.981,0.13c0.014,0.067,0.021,0.138,0.025,0.211
		l1.986-0.194l0.384-0.128l1.018,0.661c0.283,0.184,0.52,0.389,0.704,0.609c0.234,0.303,0.328,0.594,0.289,0.879
		c-0.025,0.187-0.122,0.458-0.441,0.697c-0.373,0.279-0.798,0.46-1.262,0.534l-2.677,0.318V57.7c0,0.467-0.351,0.921-1.138,1.474
		c-0.667,0.468-1.19,0.755-1.601,0.877C38.199,60.119,37.978,60.157,37.755,60.157z M35.817,56.562l0.534,0.065h0.075
		c0.172,0,0.313-0.022,0.423-0.065c-0.002-0.008,0.004-0.036,0.004-0.087v-1.098c-0.446,0.305-0.899,0.604-1.357,0.896
		c-0.097,0.062-0.193,0.123-0.291,0.186L35.817,56.562z M35.136,50.83l1.647-0.15v-0.185l-1.613,0.153
		C35.159,50.71,35.147,50.771,35.136,50.83z M35.632,46.221c0.022,0.257-0.031,0.526-0.161,0.804
		c-0.138,0.226-0.283,0.424-0.444,0.608l1.659-0.182c-0.298-0.328-0.397-0.777-0.298-1.342l-0.761,0.074
		C35.629,46.196,35.63,46.208,35.632,46.221z"/>
	<path fill="#FFFFFF" d="M35.279,42.052c0.119,0,0.256,0.015,0.41,0.044c0.399,0.076,0.73,0.147,0.993,0.209
		c0.247,0.046,0.451,0.097,0.612,0.149c0.162,0.054,0.301,0.122,0.417,0.209c0.114,0.084,0.203,0.203,0.266,0.358
		c0.061,0.152,0.076,0.353,0.046,0.6l3.375-0.254c0.105-0.013,0.207-0.02,0.307-0.02c0.249,0,0.478,0.041,0.688,0.123
		c0.293,0.117,0.586,0.312,0.879,0.59c0.293,0.262,0.593,0.564,0.901,0.902c0.308,0.338,0.569,0.693,0.786,1.062
		c0.186,0.325,0.297,0.638,0.335,0.938s-0.026,0.582-0.196,0.844c-0.092,0.122-0.219,0.233-0.382,0.335
		c-0.161,0.1-0.327,0.181-0.497,0.241c-0.115,0.032-0.226,0.049-0.329,0.049c-0.104,0-0.202-0.017-0.295-0.049
		c-0.186-0.061-0.369-0.183-0.555-0.368l-0.67-0.671c-0.155-0.154-0.32-0.27-0.498-0.348c-0.177-0.076-0.382-0.138-0.612-0.184
		c0,0.168-0.031,0.3-0.092,0.392c-0.062,0.094-0.17,0.193-0.324,0.303l0.509-0.095l0.115-0.068c0.231,0.186,0.493,0.409,0.786,0.671
		s0.439,0.509,0.439,0.739c0,0.155-0.073,0.298-0.219,0.428c-0.147,0.132-0.305,0.213-0.475,0.244l-1.734,0.23
		c0.123,0.092,0.217,0.188,0.277,0.287c0.062,0.102,0.093,0.229,0.093,0.382v0.485l2.59-0.254l0.208-0.069
		c0.308,0.201,0.581,0.379,0.819,0.531c0.239,0.155,0.437,0.325,0.59,0.509c0.263,0.34,0.239,0.625-0.068,0.855
		c-0.31,0.232-0.656,0.379-1.041,0.44l-3.098,0.368V57.7c0,0.279-0.309,0.632-0.925,1.064c-0.617,0.433-1.102,0.701-1.457,0.808
		c-0.166,0.057-0.332,0.085-0.499,0.085c-0.064,0-0.13-0.004-0.194-0.013c-0.231-0.033-0.4-0.141-0.508-0.326l-0.324-0.6
		c-0.185-0.325-0.447-0.635-0.785-0.938c-0.34-0.3-0.733-0.598-1.18-0.89l0.971,0.163l0.556,0.068
		c0.047,0.002,0.092,0.004,0.137,0.004c0.247,0,0.455-0.037,0.626-0.108c0.199-0.084,0.301-0.267,0.301-0.544v-2.056
		c-0.693,0.493-1.402,0.971-2.127,1.434c-0.726,0.462-1.488,0.94-2.29,1.433c-0.677,0.385-1.359,0.748-2.046,1.086
		c-0.686,0.34-1.251,0.557-1.698,0.647c-0.075,0.009-0.147,0.013-0.22,0.013c-0.177,0-0.343-0.026-0.497-0.081
		c-0.216-0.079-0.302-0.239-0.255-0.485l0.094-0.879c0.015-0.171-0.014-0.338-0.082-0.509c-0.069-0.17-0.149-0.363-0.242-0.579
		c1.063-0.414,2.072-0.847,3.027-1.294c0.956-0.447,1.865-0.925,2.729-1.433l-2.729,0.322c-0.016,0.001-0.032,0.002-0.05,0.002
		c-0.229,0-0.552-0.098-0.966-0.289c-0.447-0.209-0.749-0.406-0.902-0.59c-0.217-0.246-0.301-0.485-0.254-0.717
		c0.045-0.23,0.186-0.485,0.416-0.765l0.23,0.117l1.827-0.209l0.415-1.293c-0.369-0.049-0.697-0.132-0.982-0.257
		c-0.285-0.122-0.488-0.315-0.612-0.577c-0.107-0.2-0.043-0.401,0.197-0.6c0.237-0.2,0.442-0.371,0.612-0.511l0.139,0.162
		l0.948-0.113c-0.062-0.064-0.175-0.184-0.336-0.359c-0.161-0.178-0.312-0.281-0.451-0.312c0.493-0.386,0.868-0.709,1.122-0.971
		s0.404-0.508,0.45-0.739l-1.524,0.3c-0.171,0.432-0.368,0.854-0.59,1.271c-0.224,0.417-0.475,0.834-0.753,1.248
		c-0.169,0.231-0.403,0.495-0.705,0.788c-0.259,0.252-0.486,0.378-0.683,0.378c-0.031,0-0.062-0.004-0.091-0.01
		c-0.124-0.03-0.224-0.092-0.302-0.183c-0.076-0.094-0.115-0.193-0.115-0.303l-0.092-1.388l-0.23-0.668
		c0.246-0.247,0.457-0.483,0.635-0.707c0.177-0.224,0.32-0.465,0.428-0.727c0.107-0.231,0.132-0.439,0.069-0.625
		c-0.062-0.186-0.185-0.371-0.37-0.554c0.262-0.201,0.65-0.352,1.168-0.453c0.154-0.029,0.3-0.045,0.437-0.045
		c0.317,0,0.585,0.081,0.8,0.243l2.751-0.511c0.123-0.276,0.189-0.495,0.197-0.658c0.007-0.162-0.05-0.381-0.173-0.658l1.154-0.647
		C34.938,42.09,35.086,42.052,35.279,42.052 M39.6,46.07c0.078,0,0.157-0.012,0.238-0.032c0.147-0.038,0.32-0.104,0.521-0.196
		c0.185,0.092,0.336,0.193,0.451,0.3c0.116,0.107,0.227,0.262,0.334,0.463c0.247-0.262,0.401-0.478,0.463-0.648
		c0.062-0.17,0.055-0.401-0.022-0.693l-2.382,0.117c-0.093,0.183-0.127,0.33-0.104,0.439c0.023,0.106,0.127,0.183,0.312,0.229
		C39.473,46.062,39.535,46.07,39.6,46.07 M37.075,45.539l-2.127,0.209c0.108,0.186,0.17,0.358,0.186,0.521
		c0.015,0.163-0.022,0.344-0.116,0.544c-0.153,0.247-0.343,0.48-0.566,0.704S33.947,48,33.607,48.292l5.271-0.579
		c-0.863-0.062-1.457-0.244-1.781-0.555C36.775,46.851,36.767,46.312,37.075,45.539 M34.51,51.39l2.773-0.254v-0.717
		c0-0.094-0.011-0.17-0.034-0.231c-0.024-0.061-0.051-0.14-0.081-0.231l-2.427,0.231c-0.032,0.201-0.066,0.396-0.104,0.59
		C34.598,50.971,34.556,51.174,34.51,51.39 M35.279,41.052c-0.377,0-0.703,0.088-0.971,0.261l-1.12,0.628l-0.794,0.445l0.369,0.832
		c0.009,0.02,0.017,0.038,0.023,0.055l-1.711,0.317c-0.293-0.128-0.619-0.193-0.974-0.193c-0.198,0-0.408,0.021-0.624,0.062
		c-0.683,0.134-1.201,0.344-1.59,0.643l-0.91,0.7l0.818,0.806c0.034,0.033,0.059,0.062,0.077,0.085v0.001
		c-0.071,0.172-0.165,0.331-0.287,0.486c-0.157,0.198-0.346,0.407-0.56,0.621l-0.439,0.442l0.203,0.59l0.187,0.541l0.082,1.23
		c0.009,0.322,0.126,0.63,0.338,0.892c0.232,0.271,0.518,0.444,0.841,0.523c0.109,0.023,0.199,0.034,0.287,0.037l-0.035,0.042
		c-0.344,0.417-0.549,0.812-0.626,1.21c-0.076,0.374-0.055,0.957,0.485,1.569c0.237,0.284,0.633,0.557,1.229,0.835
		c0.018,0.008,0.035,0.016,0.052,0.023c-0.652,0.287-1.322,0.565-2.003,0.83l-0.965,0.375l0.409,0.951
		c0.09,0.21,0.168,0.397,0.235,0.562c0.007,0.018,0.012,0.037,0.012,0.045l-0.089,0.826c-0.114,0.709,0.235,1.318,0.902,1.562
		c0.271,0.097,0.551,0.143,0.841,0.143c0.109,0,0.221-0.006,0.335-0.02l0.042-0.005l0.042-0.009c0.533-0.107,1.169-0.347,1.943-0.73
		c0.687-0.338,1.393-0.713,2.096-1.113c0.253-0.154,0.499-0.307,0.739-0.456l0.046,0.03c0.4,0.262,0.759,0.531,1.066,0.803
		c0.255,0.229,0.451,0.459,0.577,0.682l0.313,0.581c0.274,0.475,0.712,0.764,1.246,0.841c0.12,0.016,0.229,0.022,0.336,0.022
		c0.277,0,0.555-0.047,0.823-0.14c0.432-0.128,0.985-0.429,1.707-0.934c0.629-0.442,1.351-1.055,1.351-1.884v-3.62l2.216-0.264
		c0.585-0.093,1.084-0.305,1.523-0.634c0.456-0.342,0.598-0.749,0.636-1.029c0.04-0.291,0.007-0.742-0.377-1.237
		c-0.24-0.289-0.514-0.526-0.837-0.736c-0.241-0.154-0.512-0.33-0.816-0.529l-0.363-0.238c0.088,0.013,0.18,0.02,0.272,0.02
		c0.194,0,0.395-0.029,0.598-0.086l0.034-0.009l0.033-0.012c0.233-0.084,0.465-0.195,0.688-0.333
		c0.27-0.168,0.489-0.364,0.654-0.584l0.021-0.028l0.019-0.028c0.296-0.457,0.417-0.98,0.35-1.515
		c-0.055-0.43-0.209-0.87-0.459-1.308c-0.26-0.442-0.565-0.855-0.915-1.239c-0.348-0.382-0.666-0.7-0.975-0.976
		c-0.359-0.341-0.762-0.607-1.174-0.772c-0.333-0.13-0.688-0.194-1.059-0.194c-0.139,0-0.281,0.009-0.43,0.027l-2.41,0.181
		c-0.133-0.288-0.321-0.521-0.561-0.698c-0.195-0.146-0.426-0.264-0.695-0.353c-0.213-0.069-0.462-0.131-0.744-0.184
		c-0.229-0.055-0.572-0.129-0.988-0.208C35.658,41.072,35.463,41.052,35.279,41.052L35.279,41.052z"/>
</g>
<g>
	<path d="M55.158,85.673c-0.062,0-0.125-0.004-0.19-0.011c-0.436-0.068-0.784-0.269-1.028-0.583
		c-0.239-0.301-0.361-0.601-0.361-0.885V82.74l-0.182,0.186c-0.18,0.16-0.354,0.298-0.555,0.44c-0.203,0.143-0.411,0.215-0.62,0.215
		c-0.14,0-0.275-0.032-0.402-0.097c-0.23-0.132-0.567-0.429-0.518-1.085c0.023-0.293,0.042-0.56,0.059-0.804
		c0.013-0.22,0.012-0.402-0.008-0.547c-0.017-0.12-0.062-0.259-0.133-0.414l-0.154-0.334l0.273-0.247
		c0.605-0.544,1.192-1.131,1.744-1.743c0.34-0.377,0.713-0.798,1.119-1.263c-0.281,0.045-0.656,0.11-0.656,0.11l-0.131,0.004
		c-0.399,0-0.824-0.173-1.262-0.516c-0.485-0.376-0.767-0.781-0.835-1.204c-0.071-0.332-0.027-0.628,0.134-0.854
		c0.106-0.151,0.272-0.312,0.521-0.5l0.545-0.409l0.733-0.186l0.05,0.149l0.401-0.091c-0.266-0.08-0.558-0.254-0.897-0.528
		c-0.541-0.435-0.824-0.776-0.918-1.106c-0.146-0.438-0.049-0.87,0.277-1.196c0.235-0.234,0.534-0.437,0.913-0.618l0.222-0.105
		l0.286,0.144l0.983-0.234l-0.019-1.703c0-0.581,0.609-0.863,0.811-0.957c0.316-0.149,0.599-0.223,0.86-0.223
		c0.114,0,0.225,0.015,0.328,0.044l1.765,0.436c0.152,0.033,0.332,0.094,0.525,0.175c0.366,0.157,0.561,0.473,0.522,0.847
		c-0.03,0.131-0.072,0.241-0.125,0.336l0.767,0.618c0.267-0.18,0.503-0.265,0.726-0.265h0.062l0.138,0.024
		c0.182,0.045,0.358,0.152,0.537,0.328l0.165-0.191l5.992-1.04l0.176,0.141c0.544,0.433,1.06,0.929,1.533,1.474
		c0.542,0.624,0.805,1.192,0.805,1.738c0,0.372-0.17,0.684-0.478,0.875c-0.16,0.1-0.336,0.166-0.525,0.199l-1.571,2.758
		c0.375,0.352,0.711,0.696,1.004,1.027c0.382,0.43,0.71,0.891,0.978,1.37c0.257,0.464,0.431,0.949,0.516,1.441
		c0.09,0.506,0.071,1.021-0.052,1.532c-0.21,0.709-0.579,1.344-1.102,1.909c-0.528,0.572-1.144,0.969-1.828,1.179
		c-0.303,0.077-0.569,0.12-0.819,0.137l-0.106,0.004c-0.306,0-0.576-0.092-0.803-0.273c-0.164-0.127-0.354-0.383-0.715-1.165v1.074
		c0,0.294-0.052,0.568-0.152,0.814c-0.109,0.262-0.282,0.49-0.514,0.682c-0.298,0.207-0.589,0.324-0.9,0.374
		c-0.089,0.014-0.176,0.021-0.261,0.021c-0.256,0-0.494-0.063-0.706-0.188c-0.256-0.136-0.484-0.348-0.662-0.619
		c-0.126-0.193-0.24-0.411-0.341-0.648c-0.078,0.28-0.224,0.527-0.435,0.739c-0.315,0.314-0.714,0.513-1.187,0.591l-0.041,0.007
		l-0.13,0.006c-0.333,0-0.645-0.138-0.928-0.41c-0.166-0.16-0.299-0.337-0.396-0.529l-1.511,0.243
		c-0.138,0.216-0.294,0.397-0.466,0.54C55.767,85.573,55.481,85.673,55.158,85.673z M64.658,80.391
		c0.15,0.058,0.307,0.092,0.471,0.103c0.066,0.005,0.134,0.007,0.204,0.007c0.24,0,0.517-0.027,0.818-0.081
		c0.149-0.032,0.187-0.095,0.206-0.222c0.04-0.26,0.008-0.519-0.099-0.791c-0.193-0.438-0.482-0.84-0.854-1.176
		c-0.216-0.196-0.465-0.398-0.747-0.605V80.391z M59.439,76.179c0.344,0.155,0.667,0.352,0.961,0.585
		c0.212,0.169,0.413,0.359,0.6,0.57V75.33c-0.249,0.218-0.525,0.362-0.825,0.429l-0.988,0.197l-0.174,0.218l0.271-0.065
		L59.439,76.179z M64.69,73.828l0.658-1.152l-0.665,0.136L64.69,73.828z"/>
	<path fill="#FFFFFF" d="M56.221,67.523c0.069,0,0.134,0.009,0.193,0.025l1.779,0.439c0.139,0.03,0.289,0.082,0.451,0.15
		c0.162,0.069,0.235,0.182,0.22,0.335c-0.031,0.123-0.097,0.22-0.196,0.288c-0.101,0.07-0.228,0.129-0.382,0.175v0.716
		c0.154-0.029,0.289-0.069,0.404-0.115c0.116-0.045,0.235-0.107,0.358-0.186l0.948,0.764c0.308-0.268,0.552-0.402,0.731-0.402
		c0.027,0,0.054,0.004,0.078,0.01c0.184,0.046,0.399,0.254,0.646,0.624l0.439-0.51l5.595-0.971c0.523,0.417,1.013,0.888,1.468,1.411
		c0.455,0.524,0.682,0.994,0.682,1.41c0,0.2-0.081,0.351-0.242,0.451c-0.161,0.1-0.351,0.149-0.566,0.149l-1.896,3.329
		c0.479,0.433,0.898,0.852,1.261,1.261c0.362,0.408,0.666,0.836,0.914,1.282c0.231,0.417,0.385,0.844,0.461,1.283
		c0.077,0.439,0.062,0.883-0.046,1.329c-0.184,0.618-0.512,1.179-0.982,1.688c-0.47,0.509-1.006,0.855-1.607,1.04
		c-0.246,0.062-0.481,0.101-0.705,0.115c-0.025,0.002-0.05,0.003-0.074,0.003c-0.191,0-0.354-0.055-0.491-0.164
		c-0.14-0.108-0.362-0.509-0.671-1.202c-0.309-0.694-0.594-1.118-0.855-1.272v2.774c0,0.231-0.039,0.439-0.115,0.625
		c-0.077,0.185-0.201,0.347-0.369,0.485c-0.201,0.139-0.421,0.228-0.66,0.266c-0.062,0.01-0.123,0.015-0.183,0.015
		c-0.165,0-0.316-0.039-0.452-0.119c-0.201-0.107-0.366-0.262-0.497-0.462c-0.131-0.201-0.252-0.439-0.358-0.717v-12.16
		l-1.063,1.757l0.438,0.647c0.186,0.23,0.166,0.47-0.058,0.717c-0.224,0.246-0.474,0.4-0.751,0.462l-1.156,0.231l-1.202,1.503
		l1.526-0.37c0.308,0.139,0.592,0.312,0.855,0.521c0.262,0.208,0.5,0.45,0.717,0.728c0.199,0.247,0.314,0.455,0.347,0.624
		c0.03,0.171,0.015,0.294-0.048,0.37c-0.061,0.077-0.146,0.166-0.254,0.267c-0.107,0.101-0.161,0.188-0.161,0.266l-0.022,4.254
		c0,0.37-0.12,0.674-0.358,0.913c-0.239,0.238-0.544,0.389-0.914,0.45c-0.03,0.004-0.06,0.006-0.089,0.006
		c-0.2,0-0.394-0.089-0.582-0.271c-0.216-0.209-0.354-0.451-0.415-0.729l-2.15,0.347c-0.139,0.262-0.297,0.465-0.474,0.612
		c-0.146,0.121-0.323,0.181-0.527,0.181c-0.043,0-0.088-0.003-0.133-0.008c-0.292-0.046-0.523-0.177-0.691-0.393
		c-0.171-0.216-0.256-0.409-0.256-0.578v-2.681l-1.039,1.062c-0.141,0.124-0.302,0.251-0.486,0.382
		c-0.116,0.082-0.227,0.123-0.331,0.123c-0.062,0-0.121-0.015-0.178-0.043c-0.185-0.106-0.266-0.308-0.243-0.601
		c0.023-0.293,0.042-0.562,0.059-0.809c0.016-0.263,0.012-0.478-0.012-0.648c-0.023-0.168-0.081-0.354-0.174-0.555
		c0.616-0.555,1.21-1.147,1.78-1.78c0.57-0.632,1.232-1.387,1.988-2.266c-0.246,0.017-0.589,0.059-1.029,0.128
		c-0.439,0.069-0.743,0.12-0.912,0.15c-0.028,0.003-0.057,0.004-0.086,0.004c-0.286,0-0.604-0.136-0.954-0.409
		c-0.387-0.3-0.602-0.598-0.648-0.89c-0.046-0.216-0.03-0.377,0.047-0.485c0.076-0.108,0.215-0.239,0.416-0.393l0.462-0.347
		l0.186-0.047l0.046,0.139l2.15-0.486v-0.878l-0.994,0.231c-0.026,0.005-0.055,0.008-0.084,0.008c-0.226,0-0.533-0.156-0.922-0.471
		c-0.439-0.354-0.69-0.639-0.752-0.854c-0.092-0.278-0.043-0.513,0.15-0.706c0.193-0.192,0.451-0.365,0.775-0.521l0.23,0.116
		l1.55-0.37l-0.023-2.103c0-0.171,0.173-0.336,0.521-0.497C55.821,67.582,56.037,67.523,56.221,67.523 M58.795,71.918l-0.556,0.186
		l0.024,0.625L58.795,71.918 M66.331,71.965l-2.15,0.439l0.023,3.283L66.331,71.965 M65.332,81c0.273,0,0.575-0.029,0.907-0.089
		c0.354-0.076,0.558-0.288,0.612-0.636c0.054-0.347,0.012-0.697-0.127-1.052c-0.23-0.523-0.559-0.979-0.983-1.363
		c-0.423-0.386-0.952-0.778-1.583-1.18v4.023c0.292,0.169,0.604,0.266,0.937,0.288C65.171,80.998,65.251,81,65.332,81
		 M56.205,80.103l2.059-0.394v-0.67l-2.059,0.485V80.103 M56.182,82.529l2.104-0.415v-0.764l-2.104,0.417V82.529 M56.221,66.523
		c-0.337,0-0.689,0.09-1.077,0.272c-0.903,0.418-1.094,0.993-1.094,1.401l0.015,1.315l-0.418,0.1l-0.342-0.173l-0.443,0.213
		c-0.431,0.205-0.773,0.439-1.049,0.713c-0.462,0.462-0.605,1.091-0.395,1.729c0.098,0.348,0.369,0.714,0.859,1.141l-0.141,0.104
		l-0.462,0.347c-0.296,0.226-0.495,0.42-0.634,0.617c-0.163,0.229-0.335,0.636-0.212,1.245c0.096,0.542,0.438,1.045,1.02,1.495
		c0.394,0.308,0.789,0.502,1.179,0.58c-0.108,0.122-0.214,0.24-0.315,0.353c-0.541,0.6-1.114,1.174-1.707,1.707l-0.548,0.493
		l0.309,0.669c0.066,0.144,0.086,0.233,0.092,0.274c0.01,0.069,0.019,0.207,0.004,0.45c-0.016,0.234-0.034,0.5-0.058,0.788
		c-0.074,0.969,0.493,1.404,0.74,1.547l0.025,0.015l0.025,0.013c0.197,0.1,0.408,0.149,0.627,0.149c0.296,0,0.584-0.091,0.856-0.271
		v0.385c0,0.4,0.159,0.804,0.472,1.199c0.318,0.409,0.777,0.674,1.32,0.76c0.125,0.015,0.208,0.02,0.288,0.02
		c0.437,0,0.839-0.142,1.163-0.409c0.16-0.133,0.307-0.289,0.44-0.468l0.971-0.157c0.087,0.12,0.186,0.234,0.297,0.342
		c0.476,0.457,0.957,0.552,1.277,0.552c0.072,0,0.146-0.005,0.219-0.015c0.611-0.101,1.102-0.346,1.49-0.732
		c0.024-0.025,0.049-0.051,0.072-0.077c0.215,0.298,0.481,0.532,0.797,0.7c0.253,0.15,0.576,0.237,0.923,0.237
		c0.11,0,0.224-0.009,0.341-0.027c0.385-0.062,0.745-0.206,1.069-0.43l0.036-0.024l0.033-0.027c0.295-0.244,0.516-0.537,0.655-0.871
		c0.064-0.157,0.112-0.321,0.145-0.49c0.297,0.223,0.667,0.344,1.065,0.344c0.047,0,0.095-0.002,0.144-0.006
		c0.275-0.018,0.572-0.065,0.878-0.143l0.025-0.006l0.025-0.008c0.771-0.236,1.46-0.68,2.049-1.317
		c0.575-0.623,0.981-1.323,1.207-2.083l0.007-0.023l0.006-0.024c0.141-0.578,0.16-1.163,0.06-1.738
		c-0.095-0.545-0.287-1.083-0.572-1.596c-0.284-0.512-0.635-1.003-1.04-1.461c-0.226-0.255-0.478-0.518-0.75-0.786l1.271-2.23
		c0.162-0.05,0.315-0.119,0.459-0.208c0.457-0.285,0.717-0.759,0.717-1.302c0-0.672-0.303-1.348-0.927-2.065
		c-0.494-0.568-1.032-1.086-1.6-1.538l-0.352-0.28l-0.442,0.077l-5.595,0.971l-0.302,0.053c-0.114-0.066-0.238-0.118-0.371-0.151
		c-0.102-0.026-0.21-0.04-0.32-0.04c-0.243,0-0.471,0.066-0.677,0.162l-0.214-0.172l0.014-0.055l0.008-0.073
		c0.061-0.594-0.255-1.113-0.821-1.356c-0.234-0.098-0.438-0.165-0.632-0.207l-1.752-0.434
		C56.536,66.545,56.381,66.523,56.221,66.523L56.221,66.523z M65.158,79.994v-1.31c0.279,0.273,0.493,0.582,0.651,0.942
		c0.039,0.102,0.062,0.215,0.064,0.331C65.684,79.985,65.498,80,65.332,80c-0.057,0-0.113-0.002-0.167-0.006
		C65.163,79.994,65.16,79.994,65.158,79.994L65.158,79.994z"/>
</g>
<g>
	<path d="M78.88,60.229c-0.205,0-0.407-0.066-0.603-0.196c-0.287-0.197-0.562-0.446-0.824-0.744
		c-0.342-0.383-0.487-0.758-0.432-1.112c0.032-0.479,0.179-0.926,0.432-1.285c0.231-0.33,0.505-0.608,0.814-0.826l0.116-0.082
		l1.981-0.119c-0.162-0.05-0.321-0.114-0.477-0.193c-0.512-0.261-0.855-0.646-1.021-1.144c-0.074-0.248-0.075-0.485-0.008-0.719
		c-0.206-0.039-0.383-0.154-0.507-0.334c-0.17-0.253-0.283-0.604-0.35-1.081c-0.04-0.296-0.148-0.538-0.33-0.743l-0.275-0.311
		l0.254-0.328c0.24-0.31,0.455-0.637,0.638-0.974c0.054-0.099,0.105-0.197,0.153-0.297c-0.06-0.006-0.118-0.013-0.175-0.022
		c-0.328-0.051-0.64-0.189-0.923-0.412c-0.492-0.368-0.746-0.783-0.746-1.225c0-0.363,0.132-0.794,0.402-1.317l0.178-0.343
		l0.48,0.107l1.277-0.261c-0.003-0.024-0.006-0.049-0.009-0.071c-0.008-0.055-0.019-0.111-0.032-0.169
		c-0.138-0.037-0.258-0.078-0.363-0.123c-0.201-0.084-0.398-0.221-0.584-0.406c-0.256-0.275-0.43-0.544-0.531-0.812
		c-0.152-0.413-0.039-0.815,0.311-1.105l0.805-0.701l5.664-1.217l0.5-0.234l0.206,0.089c0.244,0.104,0.466,0.223,0.666,0.354
		c0.217,0.141,0.415,0.319,0.587,0.528c0.109,0.136,0.206,0.281,0.287,0.436c0.136-0.071,0.273-0.19,0.409-0.355
		c0.398-0.484,0.825-0.586,1.113-0.586c0.169,0,0.345,0.026,0.521,0.077c0.178,0.054,0.347,0.131,0.507,0.23
		c0.445,0.249,0.771,0.537,0.972,0.87c0.204,0.336,0.304,0.765,0.304,1.31v4.958c0.006,0.001,0.011,0.001,0.017,0.002v-6.346
		c0-0.487,0.48-0.772,0.951-0.988c0.356-0.161,0.671-0.239,0.962-0.239c0.179,0,0.349,0.03,0.503,0.091l0.947,0.314
		c0.271,0.092,0.529,0.214,0.768,0.364c0.234,0.148,0.375,0.336,0.417,0.56c0.027,0.146,0.023,0.369-0.153,0.609
		c-0.181,0.188-0.368,0.316-0.622,0.449c-0.042,0.021-0.08,0.041-0.113,0.059v5.462c0,0.419-0.163,0.844-0.483,1.264
		c-0.278,0.359-0.594,0.691-0.94,0.988c-0.227,0.155-0.438,0.253-0.653,0.309c0.134,0.103,0.265,0.21,0.393,0.323
		c0.443,0.392,0.667,0.798,0.667,1.208c0,0.273-0.112,0.672-0.648,1.011c-0.327,0.211-0.69,0.355-1.075,0.429l-3.316,0.25v0.007
		c0.757-0.033,1.484-0.058,2.186-0.069c0.857-0.016,1.712-0.022,2.562-0.022h0.105l0.098,0.043c0.327,0.146,0.648,0.369,0.954,0.664
		c0.295,0.286,0.541,0.599,0.732,0.93c0.22,0.404,0.354,0.764,0.417,1.11c0.074,0.395,0.017,0.789-0.172,1.166
		c-0.165,0.287-0.374,0.495-0.635,0.647c-0.221,0.129-0.451,0.194-0.683,0.194c-0.069,0-0.139-0.006-0.207-0.018
		c-0.293-0.083-0.573-0.273-0.968-0.63c-0.207-0.187-0.365-0.329-0.475-0.426c-2.045,0.002-4.061,0.037-5.994,0.104
		c-1.9,0.066-3.79,0.166-5.618,0.298c-0.056,0.057-0.107,0.112-0.158,0.166c-0.108,0.116-0.214,0.217-0.317,0.306
		c-0.274,0.173-0.475,0.252-0.667,0.286l-0.044,0.008L78.88,60.229z M82.249,49.25c-0.19,0.76-0.426,1.477-0.701,2.135
		c-0.19,0.454-0.415,0.858-0.672,1.208l2.172-0.183c-0.093-0.064-0.173-0.129-0.242-0.193c-0.204-0.188-0.312-0.427-0.312-0.691
		v-2.324L82.249,49.25z M88.525,51.554c0.019,0.16-0.026,0.319-0.125,0.454l2.081-0.16l0.061-0.047
		c-0.213-0.232-0.423-0.513-0.63-0.84c-0.021-0.034-0.042-0.066-0.062-0.098c-0.014,0.017-0.028,0.032-0.043,0.048
		c-0.194,0.205-0.439,0.378-0.729,0.514c-0.189,0.078-0.37,0.118-0.554,0.125C88.524,51.551,88.524,51.552,88.525,51.554z
		 M85.645,50.234c0.359,0.057,0.704,0.125,1.03,0.205c0.005,0.001,0.01,0.002,0.015,0.004c-0.06-0.158-0.079-0.311-0.079-0.442
		l0.008-2.051c-0.03,0.021-0.062,0.042-0.094,0.062c-0.256,0.156-0.551,0.295-0.88,0.411V50.234z M86.011,45.079
		c0.248,0.197,0.455,0.409,0.616,0.63l0.006-1.416c-0.074,0.165-0.19,0.312-0.346,0.435c-0.156,0.102-0.292,0.173-0.43,0.229
		L86.011,45.079z"/>
	<path fill="#FFFFFF" d="M84.705,41.978c0.216,0.093,0.412,0.197,0.59,0.313c0.178,0.115,0.335,0.258,0.474,0.427
		c0.2,0.247,0.343,0.532,0.428,0.856c0.084,0.322,0.012,0.578-0.22,0.762c-0.123,0.078-0.25,0.139-0.381,0.186
		c-0.131,0.046-0.298,0.092-0.497,0.139l-0.024,0.948l0.625-0.139c0.231,0.185,0.416,0.377,0.555,0.577
		c0.14,0.2,0.255,0.447,0.347,0.74c0.093,0.34-0.019,0.605-0.335,0.797c-0.315,0.193-0.69,0.351-1.121,0.475v2.611
		c0.508,0.062,0.979,0.148,1.41,0.255c0.431,0.108,0.832,0.255,1.202,0.439c0.277,0.139,0.343,0.27,0.197,0.393
		c-0.147,0.125-0.343,0.208-0.59,0.256v0.576l3.305-0.254l0.209-0.161c0.369,0.216,0.72,0.47,1.052,0.762
		c0.332,0.294,0.497,0.571,0.497,0.833c0,0.216-0.139,0.413-0.416,0.589c-0.278,0.179-0.578,0.298-0.901,0.359l-3.723,0.277v0.994
		c0.94-0.046,1.838-0.078,2.694-0.093c0.854-0.016,1.706-0.022,2.554-0.022c0.277,0.123,0.547,0.312,0.81,0.566
		c0.262,0.254,0.478,0.527,0.646,0.82c0.186,0.34,0.306,0.654,0.358,0.948c0.055,0.292,0.012,0.577-0.127,0.855
		c-0.107,0.185-0.254,0.33-0.439,0.438c-0.144,0.084-0.287,0.126-0.432,0.126c-0.041,0-0.082-0.004-0.123-0.011
		c-0.154-0.046-0.393-0.216-0.716-0.508c-0.324-0.293-0.532-0.479-0.624-0.555c-2.144,0-4.209,0.035-6.197,0.104
		c-1.987,0.069-3.93,0.174-5.824,0.312c-0.108,0.107-0.209,0.212-0.302,0.312c-0.093,0.099-0.186,0.188-0.276,0.266
		c-0.155,0.093-0.298,0.149-0.429,0.173c-0.026,0.005-0.054,0.008-0.08,0.008c-0.105,0-0.214-0.038-0.324-0.112
		c-0.246-0.169-0.49-0.389-0.728-0.658c-0.24-0.27-0.344-0.506-0.312-0.705c0.03-0.431,0.146-0.789,0.347-1.075
		c0.199-0.284,0.431-0.52,0.693-0.705l4.994-0.3v-0.832l-2.197,0.139c-0.057,0.004-0.113,0.006-0.169,0.006
		c-0.371,0-0.727-0.087-1.067-0.261c-0.393-0.2-0.651-0.486-0.774-0.856c-0.046-0.153-0.043-0.307,0.011-0.462
		c0.055-0.154,0.151-0.277,0.29-0.37l0.347-0.277l0.323-0.3l0.255,0.161l3.005-0.254V52.15c-0.186-0.107-0.327-0.208-0.428-0.301
		s-0.15-0.199-0.15-0.324v-2.935l-1.156,0.231c-0.199,0.862-0.451,1.652-0.751,2.369c-0.301,0.717-0.683,1.282-1.145,1.699
		c-0.169,0.123-0.382,0.242-0.636,0.358c-0.108,0.05-0.204,0.074-0.286,0.074c-0.11,0-0.195-0.044-0.257-0.133
		c-0.124-0.185-0.211-0.474-0.266-0.866c-0.054-0.394-0.205-0.729-0.451-1.006c0.263-0.339,0.488-0.686,0.682-1.041
		c0.193-0.354,0.352-0.709,0.475-1.062c-0.178,0.024-0.344,0.037-0.498,0.037c-0.127,0-0.246-0.008-0.357-0.026
		c-0.246-0.038-0.478-0.142-0.693-0.312c-0.37-0.277-0.556-0.555-0.556-0.832c0-0.278,0.115-0.641,0.347-1.088l0.209,0.047
		l1.803-0.369c0-0.201-0.012-0.383-0.034-0.544c-0.023-0.161-0.066-0.335-0.127-0.52c-0.231-0.047-0.421-0.101-0.567-0.163
		c-0.146-0.061-0.288-0.161-0.427-0.3c-0.2-0.216-0.339-0.428-0.417-0.635c-0.077-0.209-0.022-0.391,0.162-0.544l0.717-0.624
		l5.594-1.202L84.705,41.978 M81.885,46.232l1.04-0.209v-0.854l-1.248,0.254c0.046,0.139,0.089,0.271,0.127,0.394
		S81.869,46.078,81.885,46.232 M92.198,42.269c0.117,0,0.224,0.019,0.321,0.057l0.971,0.323c0.231,0.078,0.451,0.182,0.659,0.312
		c0.207,0.131,0.251,0.281,0.127,0.45c-0.093,0.093-0.242,0.193-0.45,0.302c-0.209,0.107-0.336,0.184-0.382,0.23v5.733
		c0,0.309-0.127,0.628-0.381,0.96c-0.256,0.331-0.544,0.635-0.868,0.913c-0.185,0.123-0.381,0.199-0.59,0.231
		c-0.041,0.006-0.081,0.009-0.119,0.009c-0.155,0-0.289-0.049-0.4-0.148c-0.246-0.23-0.497-0.547-0.751-0.948
		c-0.254-0.4-0.451-0.639-0.59-0.717c-0.047,0.231-0.147,0.429-0.301,0.59c-0.153,0.162-0.347,0.297-0.578,0.405
		c-0.13,0.053-0.266,0.08-0.407,0.08c-0.227,0-0.469-0.069-0.725-0.207c-0.417-0.224-0.624-0.505-0.624-0.844l0.022-5.826
		c-0.077-0.216-0.158-0.381-0.242-0.497c-0.086-0.115-0.205-0.227-0.358-0.335c0.246-0.093,0.481-0.273,0.705-0.544
		c0.222-0.27,0.465-0.404,0.728-0.404c0.124,0,0.251,0.02,0.382,0.058c0.131,0.039,0.258,0.097,0.381,0.174
		c0.386,0.216,0.655,0.45,0.81,0.705c0.154,0.254,0.231,0.604,0.231,1.051v5.388c0.199,0.046,0.419,0.072,0.658,0.08
		c0.015,0,0.028,0.001,0.041,0.001c0.212,0,0.317-0.065,0.317-0.196v-6.658c0-0.154,0.22-0.332,0.659-0.533
		C91.729,42.334,91.981,42.269,92.198,42.269 M84.688,40.881l-0.407,0.191l-0.244,0.114l-5.482,1.179l-0.252,0.054l-0.194,0.17
		l-0.717,0.624c-0.489,0.406-0.666,1.042-0.444,1.645c0.127,0.335,0.335,0.659,0.622,0.968c0.062,0.063,0.125,0.121,0.188,0.175
		l-0.092,0.019l-0.752-0.169l-0.355,0.685c-0.308,0.597-0.458,1.103-0.458,1.548c0,0.607,0.321,1.157,0.956,1.633
		c0.193,0.152,0.407,0.275,0.635,0.363c-0.132,0.216-0.276,0.426-0.433,0.628l-0.509,0.655l0.551,0.621
		c0.115,0.13,0.182,0.281,0.208,0.477c0.079,0.564,0.214,0.973,0.427,1.289c0.104,0.151,0.232,0.275,0.377,0.369
		c-0.004,0.182,0.021,0.362,0.073,0.539c0.1,0.3,0.247,0.567,0.439,0.8l-0.327,0.02l-0.285,0.017l-0.232,0.165
		c-0.355,0.251-0.67,0.57-0.936,0.947c-0.299,0.427-0.475,0.946-0.522,1.545c-0.061,0.493,0.128,0.989,0.562,1.475
		c0.284,0.324,0.592,0.601,0.908,0.817c0.288,0.193,0.584,0.288,0.89,0.288c0.089,0,0.177-0.009,0.264-0.024
		c0.244-0.044,0.502-0.145,0.758-0.298l0.074-0.044l0.065-0.057c0.115-0.1,0.234-0.213,0.353-0.338
		c0.009-0.01,0.017-0.019,0.025-0.028c1.763-0.124,3.579-0.219,5.407-0.283c1.867-0.063,3.812-0.099,5.787-0.103
		c0.09,0.081,0.199,0.18,0.328,0.297c0.46,0.414,0.789,0.631,1.102,0.725l0.059,0.017l0.06,0.011
		c0.097,0.016,0.193,0.024,0.29,0.024c0.322,0,0.637-0.088,0.935-0.262c0.338-0.197,0.606-0.466,0.801-0.8l0.017-0.028l0.014-0.028
		c0.238-0.478,0.311-0.978,0.215-1.486c-0.07-0.393-0.222-0.801-0.463-1.243c-0.226-0.392-0.5-0.74-0.828-1.059
		c-0.349-0.337-0.719-0.594-1.101-0.763l-0.116-0.052c0.429-0.42,0.503-0.875,0.503-1.139c0-0.493-0.218-0.965-0.648-1.405
		l0.022-0.016l0.046-0.039c0.372-0.319,0.711-0.676,1.008-1.061c0.393-0.513,0.59-1.04,0.59-1.571v-5.162
		c0.226-0.13,0.402-0.26,0.539-0.396l0.054-0.054l0.045-0.062c0.221-0.301,0.307-0.655,0.242-0.998
		c-0.048-0.251-0.197-0.609-0.641-0.89c-0.273-0.172-0.566-0.311-0.873-0.414l-0.956-0.318c-0.205-0.076-0.426-0.114-0.656-0.114
		c-0.364,0-0.745,0.093-1.167,0.283c-0.238,0.109-0.747,0.343-1.035,0.768c-0.211-0.205-0.47-0.393-0.78-0.566
		c-0.155-0.099-0.365-0.194-0.583-0.259c-0.229-0.066-0.451-0.1-0.668-0.1c-0.377,0-0.924,0.121-1.427,0.685
		c-0.207-0.251-0.441-0.46-0.699-0.627c-0.223-0.146-0.472-0.278-0.739-0.394L84.688,40.881L84.688,40.881z"/>
</g>
<circle fill="#7B7B7C" stroke="#FFFFFF" stroke-miterlimit="10" cx="60.559" cy="52.895" r="1.499"/>
</svg>
