<?xml version="1.0" encoding="utf-8"?>
<!-- Generator: Adobe Illustrator 16.0.0, SVG Export Plug-In . SVG Version: 6.00 Build 0)  -->
<!DOCTYPE svg PUBLIC "-//W3C//DTD SVG 1.1//EN" "http://www.w3.org/Graphics/SVG/1.1/DTD/svg11.dtd">
<svg version="1.1" id="Layer_1" xmlns="http://www.w3.org/2000/svg" xmlns:xlink="http://www.w3.org/1999/xlink" x="0px" y="0px"
	 width="126.876px" height="112.438px" viewBox="0 0 126.876 112.438" enable-background="new 0 0 126.876 112.438"
	 xml:space="preserve">
<rect fill="#FFFFFF" width="126.876" height="112.438"/>
<g>
	<path fill="#172A88" d="M23.812,40.64v-9.764h4.948c2.207,0,3.578,1.205,3.578,3.145v0.342c0,1.932-1.371,3.132-3.578,3.132h-1.619
		v3.146H23.812z M28.378,35.021c0.646,0,0.646-0.23,0.646-0.474v-0.46c0-0.233,0-0.475-0.658-0.475h-1.224v1.408H28.378z"/>
	<path fill="#FFFFFF" d="M28.761,31.376c2,0,3.078,1.025,3.078,2.645v0.342c0,1.606-1.078,2.632-3.078,2.632h-2.119v3.146h-2.329
		v-8.764H28.761 M26.642,35.521h1.736c0.803,0,1.146-0.342,1.146-0.974v-0.46c0-0.619-0.343-0.975-1.158-0.975h-1.724V35.521
		 M28.761,30.376h-4.448h-1v1v8.764v1h1h2.329h1v-1v-2.146h1.119c2.478,0,4.078-1.426,4.078-3.632v-0.342
		C32.839,31.807,31.238,30.376,28.761,30.376L28.761,30.376z M27.642,34.112h0.724c0.067,0,0.119,0.004,0.158,0.009v0.393
		c-0.037,0.004-0.085,0.007-0.146,0.007h-0.736V34.112L27.642,34.112z"/>
</g>
<g>
	<path fill="#E4007F" d="M37.97,38.396l-0.619-1.789h-2.382l-0.632,1.789h-3.245l3.664-9.764h3.033l3.71,9.764H37.97z
		 M36.525,34.107l-0.34-1.011l-0.353,1.011H36.525z"/>
	<path fill="#FFFFFF" d="M37.444,29.133l3.33,8.764h-2.448l-0.619-1.789h-3.092l-0.632,1.789h-2.17l3.289-8.764H37.444
		 M35.129,34.607h2.093l-1.027-3.053L35.129,34.607 M38.134,28.133h-0.689h-2.342h-0.693l-0.243,0.648l-3.289,8.764l-0.507,1.352
		h1.443h2.17h0.707l0.236-0.667l0.396-1.122h1.673l0.386,1.116l0.233,0.673h0.712h2.448h1.449l-0.515-1.355l-3.33-8.764
		L38.134,28.133L38.134,28.133z"/>
</g>
<g>
	<path fill="#8FC31F" d="M48.195,40.984c-0.326,0-1.392-0.134-1.421-1.859l-0.014-1.174c-0.006-0.279-0.01-0.466-0.631-0.466h-1.276
		v3.474h-3.329v-9.763h5.014c2.143,0,3.526,1.105,3.526,2.816v0.302c0,0.78-0.311,1.427-0.866,1.866
		c0.557,0.401,0.866,1.036,0.866,1.832v0.999c0,0.376,0.087,0.617,0.302,0.832l0.146,0.146v0.995H48.195z M46.064,35.196
		c0.671,0,0.671-0.281,0.671-0.487v-0.368c0-0.204,0-0.435-0.671-0.435h-1.211v1.29H46.064z"/>
	<path fill="#FFFFFF" d="M46.538,31.696c1.973,0,3.026,0.973,3.026,2.316v0.302c0,0.907-0.499,1.658-1.645,1.908
		c1.198,0.157,1.645,0.934,1.645,1.79v0.999c0,0.501,0.132,0.868,0.447,1.185v0.288h-1.816c-0.631,0-0.907-0.564-0.921-1.368
		l-0.014-1.171c-0.012-0.578-0.262-0.96-1.131-0.96h-1.776v3.474h-2.329v-8.763H46.538 M44.354,35.696h1.711
		c0.803,0,1.171-0.369,1.171-0.987v-0.368c0-0.565-0.315-0.935-1.171-0.935h-1.711V35.696 M46.538,30.696h-4.514h-1v1v8.763v1h1
		h2.329h1v-1v-2.474h0.776c0.053,0,0.097,0.002,0.131,0.005l0.014,1.138c0.029,1.738,1.012,2.356,1.921,2.356h1.816h1v-1v-0.288
		v-0.413L50.72,39.49c-0.088-0.088-0.155-0.18-0.155-0.479v-0.999c0-0.733-0.227-1.361-0.637-1.837
		c0.413-0.494,0.637-1.129,0.637-1.861v-0.302C50.564,32.362,49.319,30.696,46.538,30.696L46.538,30.696z M45.354,34.406h0.711
		c0.071,0,0.126,0.004,0.169,0.009l0.002,0.27c-0.04,0.007-0.096,0.012-0.171,0.012h-0.711V34.406L45.354,34.406z"/>
</g>
<g>
	<polygon fill="#00A0E9" points="52.658,38.396 52.658,31.475 49.868,31.475 49.868,28.633 58.776,28.633 58.776,31.475 
		55.988,31.475 55.988,38.396 	"/>
	<path fill="#FFFFFF" d="M58.276,29.133v1.842h-2.788v6.922h-2.33v-6.922h-2.79v-1.842H58.276 M59.276,28.133h-1h-7.908h-1v1v1.842
		v1h1h1.79v5.922v1h1h2.33h1v-1v-5.922h1.788h1v-1v-1.842V28.133L59.276,28.133z"/>
</g>
<g>
	<polygon fill="#D70051" points="61.527,40.984 61.527,37.104 57.773,31.222 61.524,31.222 63.295,34.241 64.984,31.222 
		68.626,31.222 64.856,37.105 64.856,40.984 	"/>
	<path fill="#FFFFFF" d="M67.712,31.722l-3.355,5.237v3.525h-2.329v-3.525l-3.342-5.237h2.553l2.066,3.525l1.973-3.525H67.712
		 M69.54,30.722h-1.828h-2.435H64.69l-0.285,0.512l-1.121,2.002l-1.184-2.02l-0.289-0.494h-0.573h-2.553h-1.824l0.981,1.538
		l3.185,4.991v3.233v1h1h2.329h1v-1v-3.232l3.197-4.991L69.54,30.722L69.54,30.722z"/>
</g>
<g>
	<polygon fill="#F39800" points="73.582,38.396 73.582,31.475 70.793,31.475 70.793,28.633 79.7,28.633 79.7,31.475 76.912,31.475 
		76.912,38.396 	"/>
	<path fill="#FFFFFF" d="M79.2,29.133v1.842h-2.788v6.922h-2.33v-6.922h-2.789v-1.842H79.2 M80.2,28.133h-1h-7.907h-1v1v1.842v1h1
		h1.789v5.922v1h1h2.33h1v-1v-5.922H79.2h1v-1v-1.842V28.133L80.2,28.133z"/>
</g>
<g>
	<rect x="79.991" y="31.222" fill="#D70051" width="3.329" height="9.763"/>
	<path fill="#FFFFFF" d="M82.82,31.722v8.763h-2.329v-8.763H82.82 M83.82,30.722h-1h-2.329h-1v1v8.763v1h1h2.329h1v-1v-8.763V30.722
		L83.82,30.722z"/>
</g>
<g>
	<polygon fill="#8FC31F" points="92.388,38.396 92.388,34.637 90.885,38.396 88.705,38.396 87.229,34.66 87.229,38.396 
		84.111,38.396 84.111,28.633 88.087,28.633 89.89,33.355 91.66,28.633 95.665,28.633 95.665,38.396 	"/>
	<path fill="#FFFFFF" d="M95.165,29.133v8.764h-2.277v-5.947l-0.474,1.275l-1.868,4.672h-1.501l-1.854-4.697l-0.461-1.264v5.961
		h-2.118v-8.764h3.131l1.804,4.724l0.342,0.948l0.343-0.935l1.776-4.737H95.165 M96.165,28.133h-1h-3.158h-0.693l-0.243,0.649
		l-1.185,3.16l-1.209-3.166l-0.246-0.644h-0.688h-3.131h-1v1v8.764v1h1h2.118h1v-1v-0.608l0.385,0.976l0.25,0.633h0.681h1.501h0.677
		l0.252-0.629l0.413-1.033v0.662v1h1h2.277h1v-1v-8.764V28.133L96.165,28.133z"/>
</g>
<g>
	<polygon fill="#172A88" points="96.454,40.984 96.454,31.222 104.376,31.222 104.376,34.012 99.784,34.012 99.784,34.813 
		103.034,34.813 103.034,37.143 99.784,37.143 99.784,38.103 104.376,38.103 104.376,40.984 	"/>
	<path fill="#FFFFFF" d="M103.876,31.722v1.79h-4.592v1.802h3.25v1.329h-3.25v1.96h4.592v1.882h-6.922v-8.763H103.876
		 M104.876,30.722h-1h-6.922h-1v1v8.763v1h1h6.922h1v-1v-1.882v-1h-1h-0.342v-0.96v-1.329v-0.802h0.342h1v-1v-1.79V30.722
		L104.876,30.722z"/>
</g>
<g>
	<g>
		<path d="M69.122,46.976c-0.935,0-1.438-0.757-1.438-1.47c0-0.374,0.126-0.727,0.355-0.993c0.265-0.308,0.649-0.477,1.083-0.477
			c0.935,0,1.438,0.757,1.438,1.47c0,0.374-0.127,0.727-0.355,0.993C69.94,46.807,69.556,46.976,69.122,46.976z"/>
		<path fill="#FFFFFF" d="M69.122,44.536c1.251,0,1.251,1.939,0,1.939C67.87,46.476,67.87,44.536,69.122,44.536 M69.122,43.536
			c-1.105,0-1.939,0.847-1.939,1.97c0,0.493,0.17,0.962,0.478,1.319c0.36,0.419,0.88,0.65,1.462,0.65
			c1.105,0,1.938-0.847,1.938-1.97c0-0.493-0.169-0.962-0.477-1.318C70.223,43.768,69.704,43.536,69.122,43.536L69.122,43.536z"/>
	</g>
	<g>
		<path d="M48.146,52.413c-0.483,0-0.942-0.272-1.143-0.676c-0.18-0.364-0.131-0.772,0.134-1.119
			c0.387-0.508,0.033-1.007-0.805-1.949c-0.449-0.505-0.914-1.027-1.084-1.596c-0.387-1.295-0.103-2.443,0.778-3.149
			c0.224-0.18,0.488-0.274,0.765-0.274c0.527,0,1.034,0.354,1.206,0.844c0.151,0.433,0.012,0.889-0.365,1.191
			c-0.151,0.121-0.179,0.22-0.185,0.293c-0.041,0.458,0.623,1.219,1.108,1.774c0.309,0.354,0.574,0.658,0.736,0.94
			c0.59,1.032,0.523,2.33-0.163,3.23C48.889,52.239,48.539,52.413,48.146,52.413L48.146,52.413z"/>
		<path fill="#FFFFFF" d="M46.792,44.149c0.575,0,1.079,0.702,0.527,1.145c-1.258,1.006,1.018,2.738,1.539,3.647
			c0.48,0.841,0.455,1.915-0.127,2.679c-0.157,0.207-0.373,0.293-0.586,0.293c-0.507,0-0.993-0.491-0.611-0.992
			c1.065-1.398-1.428-2.72-1.807-3.99c-0.285-0.955-0.207-1.961,0.611-2.617C46.482,44.198,46.64,44.149,46.792,44.149
			 M46.792,43.149c-0.393,0-0.766,0.133-1.078,0.384c-1.049,0.841-1.393,2.183-0.944,3.684c0.201,0.674,0.703,1.238,1.188,1.784
			c0.744,0.837,0.92,1.132,0.781,1.313c-0.379,0.497-0.447,1.111-0.184,1.645c0.286,0.579,0.911,0.954,1.59,0.954
			c0.546,0,1.049-0.251,1.381-0.688c0.808-1.058,0.888-2.577,0.2-3.78c-0.187-0.326-0.482-0.664-0.794-1.022
			c-0.299-0.342-0.901-1.031-0.979-1.354c0.547-0.463,0.734-1.117,0.514-1.742C48.225,43.634,47.535,43.149,46.792,43.149
			L46.792,43.149z"/>
	</g>
	<g>
		<path d="M82.353,52.32c-0.604,0-1.14-0.458-1.246-1.065c-0.093-0.533,0.186-1,0.71-1.189c0.601-0.216,0.576-0.826,0.385-2.073
			c-0.103-0.668-0.209-1.358-0.042-1.928c0.379-1.297,1.241-2.106,2.366-2.22l0.132-0.007c0.738,0,1.211,0.618,1.241,1.216
			c0.031,0.609-0.374,1.078-0.985,1.14c-0.191,0.02-0.269,0.089-0.313,0.146c-0.283,0.363-0.14,1.362-0.034,2.093
			c0.066,0.464,0.124,0.865,0.106,1.19c-0.064,1.186-0.825,2.239-1.894,2.622C82.639,52.295,82.496,52.32,82.353,52.32L82.353,52.32
			z"/>
		<path fill="#FFFFFF" d="M84.657,44.338c0.814,0,1.067,1.271,0.206,1.358c-1.602,0.163-0.634,2.853-0.69,3.899
			c-0.053,0.966-0.659,1.854-1.563,2.179c-0.089,0.031-0.175,0.046-0.257,0.046c-0.691,0-1.118-1.013-0.366-1.284
			c1.654-0.595,0.28-3.059,0.652-4.331c0.279-0.956,0.892-1.758,1.937-1.863C84.603,44.339,84.63,44.338,84.657,44.338
			 M84.657,43.338c-0.06,0-0.12,0.003-0.183,0.009c-1.338,0.135-2.356,1.075-2.796,2.578c-0.197,0.675-0.082,1.421,0.028,2.144
			c0.17,1.106,0.157,1.449-0.06,1.526c-0.753,0.272-1.168,0.974-1.033,1.746c0.147,0.844,0.895,1.479,1.738,1.479
			c0.201,0,0.401-0.035,0.595-0.104c1.255-0.45,2.148-1.682,2.224-3.065c0.021-0.375-0.043-0.819-0.111-1.289
			c-0.064-0.45-0.195-1.357-0.084-1.669c0.884-0.113,1.466-0.804,1.423-1.664C86.351,44.08,85.586,43.338,84.657,43.338
			L84.657,43.338z"/>
	</g>
	<g>
		<path d="M59.677,54.005c-0.103,0-0.207-0.013-0.31-0.038c-1.102-0.276-1.964-1.249-2.146-2.423
			c-0.05-0.32-0.033-0.727-0.013-1.196c0.032-0.735,0.075-1.743-0.243-2.076c-0.051-0.053-0.134-0.114-0.327-0.114
			c-0.634-0.001-1.094-0.463-1.094-1.099c0.001-0.629,0.468-1.278,1.249-1.278c1.13,0.001,2.068,0.721,2.575,1.975
			c0.222,0.55,0.185,1.247,0.149,1.921c-0.066,1.262-0.03,1.872,0.59,2.027c0.558,0.14,0.887,0.609,0.817,1.169
			C60.857,53.43,60.371,54.005,59.677,54.005L59.677,54.005z"/>
		<path fill="#FFFFFF" d="M56.794,46.28L56.794,46.28c1.049,0.001,1.738,0.738,2.111,1.662c0.496,1.229-0.625,3.818,1.081,4.246
			c0.8,0.2,0.425,1.316-0.31,1.316c-0.061,0-0.123-0.007-0.188-0.023c-0.933-0.233-1.624-1.057-1.772-2.014
			c-0.162-1.034,0.534-3.808-1.076-3.811C55.747,47.656,55.909,46.28,56.794,46.28 M56.796,45.28L56.796,45.28
			c-1.096,0-1.75,0.904-1.751,1.778c0,0.906,0.679,1.592,1.582,1.599c0.142,0.297,0.103,1.215,0.083,1.669
			c-0.021,0.476-0.04,0.925,0.018,1.297c0.213,1.367,1.225,2.505,2.518,2.828c0.143,0.036,0.288,0.054,0.432,0.054
			c0.87,0,1.637-0.69,1.745-1.571c0.1-0.81-0.391-1.515-1.192-1.715c-0.224-0.057-0.271-0.396-0.212-1.517
			c0.038-0.729,0.078-1.482-0.185-2.134C59.246,46.115,58.14,45.281,56.796,45.28L56.796,45.28z"/>
	</g>
	<g>
		<path d="M71.71,51.629c-0.454,0-0.858-0.233-1.083-0.626c-0.562-0.984-0.458-2.279,0.262-3.222
			c0.197-0.259,0.502-0.526,0.854-0.837c0.554-0.487,1.312-1.154,1.332-1.614c0.003-0.073-0.01-0.176-0.145-0.315
			c-0.317-0.331-0.405-0.766-0.236-1.163c0.19-0.444,0.674-0.755,1.176-0.755c0.334,0,0.647,0.136,0.884,0.383
			c0.78,0.816,0.91,1.991,0.357,3.226c-0.242,0.541-0.771,0.997-1.283,1.438c-0.955,0.824-1.371,1.273-1.054,1.828
			c0.203,0.354,0.21,0.743,0.021,1.068C72.588,51.398,72.162,51.629,71.71,51.629L71.71,51.629z"/>
		<path fill="#FFFFFF" d="M73.87,43.597c0.183,0,0.368,0.067,0.522,0.229c0.726,0.759,0.67,1.767,0.263,2.676
			c-0.543,1.209-3.188,2.192-2.314,3.719c0.291,0.509-0.161,0.909-0.631,0.909c-0.246,0-0.498-0.11-0.648-0.374
			c-0.477-0.833-0.361-1.902,0.225-2.671c0.637-0.833,3.12-2.252,2.006-3.415C72.83,44.187,73.332,43.597,73.87,43.597
			 M73.87,42.597c-0.707,0-1.365,0.426-1.635,1.059c-0.246,0.575-0.121,1.225,0.326,1.697c-0.116,0.309-0.807,0.916-1.148,1.217
			c-0.357,0.313-0.694,0.609-0.922,0.907c-0.84,1.103-0.959,2.618-0.298,3.774c0.314,0.55,0.882,0.878,1.517,0.878
			c0.637,0,1.219-0.321,1.519-0.838c0.28-0.483,0.273-1.055-0.02-1.567c-0.114-0.2,0.098-0.47,0.946-1.201
			c0.553-0.478,1.124-0.971,1.412-1.611c0.641-1.431,0.476-2.807-0.452-3.777C74.783,42.787,74.342,42.597,73.87,42.597
			L73.87,42.597z"/>
	</g>
	<g>
		<path d="M64.338,49.989c-1.134-0.007-2.202-0.748-2.658-1.845c-0.125-0.302-0.203-0.699-0.295-1.159
			c-0.159-0.803-0.399-2.015-0.919-2.015c-0.046,0-0.098,0.007-0.154,0.021c-0.098,0.023-0.196,0.036-0.291,0.036H60.02
			c-0.552,0-0.987-0.409-1.058-0.995c-0.067-0.56,0.233-1.216,0.938-1.388c0.202-0.049,0.405-0.074,0.604-0.074
			c0.885,0,1.725,0.491,2.364,1.384c0.346,0.48,0.476,1.168,0.602,1.832c0.233,1.239,0.414,1.824,1.052,1.828
			c0.629,0.004,1.083,0.463,1.081,1.09c-0.002,0.632-0.473,1.285-1.257,1.285H64.338z"/>
		<path fill="#FFFFFF" d="M60.503,43.07c0.803,0,1.474,0.498,1.959,1.175c0.775,1.077,0.298,3.857,2.057,3.869
			c0.893,0.006,0.704,1.375-0.173,1.375h-0.005c-0.961-0.006-1.827-0.643-2.199-1.537c-0.377-0.908-0.383-3.482-1.676-3.481
			c-0.085,0-0.176,0.011-0.271,0.034c-0.062,0.015-0.12,0.022-0.174,0.022c-0.713,0-0.801-1.202-0.002-1.397
			C60.185,43.09,60.347,43.07,60.503,43.07 M60.503,42.07L60.503,42.07c-0.238,0-0.48,0.029-0.721,0.088
			c-0.873,0.213-1.426,1.026-1.316,1.934c0.1,0.831,0.754,1.436,1.555,1.436c0.131,0,0.266-0.017,0.398-0.048
			c0.209,0.255,0.387,1.157,0.476,1.604c0.093,0.466,0.18,0.906,0.323,1.252c0.533,1.281,1.785,2.146,3.117,2.154
			c0.977,0,1.765-0.8,1.768-1.783c0.003-0.901-0.675-1.586-1.577-1.592c-0.23-0.002-0.356-0.32-0.564-1.421
			c-0.136-0.718-0.276-1.461-0.688-2.032C62.538,42.636,61.554,42.07,60.503,42.07L60.503,42.07L60.503,42.07z"/>
	</g>
	<g>
		<path d="M52.351,52.244c-0.935,0-1.438-0.758-1.438-1.47c0-0.374,0.126-0.727,0.355-0.993c0.265-0.308,0.649-0.478,1.083-0.478
			c0.935,0,1.438,0.758,1.438,1.47c0,0.374-0.126,0.727-0.355,0.993C53.169,52.074,52.784,52.244,52.351,52.244z"/>
		<path fill="#FFFFFF" d="M52.351,49.804c1.251,0,1.251,1.94,0,1.94C51.099,51.744,51.099,49.804,52.351,49.804 M52.351,48.804
			c-1.105,0-1.939,0.847-1.939,1.971c0,0.493,0.17,0.961,0.477,1.318c0.361,0.42,0.881,0.651,1.463,0.651
			c1.105,0,1.938-0.847,1.938-1.97c0-0.494-0.169-0.962-0.477-1.319C53.452,49.035,52.933,48.804,52.351,48.804L52.351,48.804z"/>
	</g>
	<g>
		<path d="M43.064,49.472c-0.935,0-1.439-0.758-1.439-1.47c0-0.374,0.127-0.727,0.356-0.993c0.265-0.308,0.649-0.478,1.083-0.478
			c0.935,0,1.438,0.758,1.438,1.47c0,0.374-0.126,0.727-0.355,0.993C43.883,49.302,43.498,49.472,43.064,49.472z"/>
		<path fill="#FFFFFF" d="M43.064,47.031c1.251,0,1.251,1.94,0,1.94C41.812,48.972,41.812,47.031,43.064,47.031 M43.064,46.031
			c-1.105,0-1.938,0.847-1.938,1.97c0,0.494,0.169,0.963,0.477,1.319c0.361,0.42,0.88,0.651,1.462,0.651
			c1.104,0,1.938-0.847,1.938-1.971c0-0.493-0.17-0.961-0.477-1.318C44.165,46.263,43.646,46.031,43.064,46.031L43.064,46.031z"/>
	</g>
	<g>
		<path d="M67.32,51.966c-0.935,0-1.439-0.758-1.439-1.47c0-0.374,0.127-0.727,0.356-0.993c0.265-0.308,0.649-0.478,1.083-0.478
			c0.935,0,1.438,0.758,1.438,1.47c0,0.374-0.126,0.727-0.355,0.993C68.139,51.796,67.754,51.966,67.32,51.966z"/>
		<path fill="#FFFFFF" d="M67.32,49.525c1.251,0,1.251,1.94,0,1.94C66.068,51.466,66.068,49.525,67.32,49.525 M67.32,48.525
			c-1.105,0-1.938,0.847-1.938,1.97c0,0.494,0.169,0.963,0.477,1.319c0.361,0.42,0.88,0.651,1.462,0.651
			c1.104,0,1.938-0.847,1.938-1.971c0-0.493-0.17-0.961-0.477-1.318C68.421,48.757,67.902,48.525,67.32,48.525L67.32,48.525z"/>
	</g>
	<g>
		<path d="M77.993,49.056c-0.935,0-1.438-0.758-1.438-1.47c0-0.374,0.126-0.727,0.355-0.993c0.265-0.308,0.649-0.478,1.083-0.478
			c0.935,0,1.438,0.758,1.438,1.47c0,0.374-0.126,0.727-0.355,0.993C78.812,48.886,78.427,49.056,77.993,49.056z"/>
		<path fill="#FFFFFF" d="M77.993,46.615c1.252,0,1.252,1.94,0,1.94S76.741,46.615,77.993,46.615 M77.993,45.615
			c-1.105,0-1.939,0.847-1.939,1.97c0,0.494,0.17,0.963,0.477,1.319c0.361,0.42,0.881,0.651,1.463,0.651
			c1.105,0,1.939-0.847,1.939-1.971c0-0.493-0.17-0.961-0.477-1.318C79.095,45.847,78.575,45.615,77.993,45.615L77.993,45.615z"/>
	</g>
	<g>
		<path d="M89.081,51.135c-0.935,0-1.438-0.758-1.438-1.47c0-0.374,0.126-0.727,0.355-0.993c0.265-0.308,0.649-0.478,1.083-0.478
			c0.935,0,1.438,0.758,1.438,1.47c0,0.374-0.126,0.727-0.355,0.993C89.899,50.965,89.515,51.135,89.081,51.135z"/>
		<path fill="#FFFFFF" d="M89.081,48.694c1.251,0,1.251,1.94,0,1.94C87.829,50.635,87.829,48.694,89.081,48.694 M89.081,47.694
			c-1.105,0-1.939,0.847-1.939,1.971c0,0.493,0.17,0.961,0.477,1.318c0.361,0.42,0.881,0.651,1.463,0.651
			c1.105,0,1.938-0.847,1.938-1.97c0-0.494-0.169-0.962-0.477-1.319C90.183,47.926,89.663,47.694,89.081,47.694L89.081,47.694z"/>
	</g>
	<g>
		<polygon fill="#040000" points="58.079,58.005 59.842,59.867 59.842,64.336 58.079,66.491 		"/>
		<path fill="#FFFFFF" d="M58.579,59.261l0.763,0.806v4.091l-0.763,0.933V59.261 M57.579,56.75v2.511v5.829v2.803l1.774-2.17
			l0.763-0.933l0.226-0.276v-0.356v-4.091v-0.398l-0.273-0.289l-0.763-0.806L57.579,56.75L57.579,56.75z"/>
	</g>
	<g>
		<path d="M58.864,79.355c-0.742,0-1.357-0.55-1.461-1.264c-0.103,0.714-0.718,1.264-1.46,1.264c-0.581,0-1.085-0.337-1.325-0.826
			c-0.241,0.489-0.744,0.826-1.325,0.826c-0.742,0-1.357-0.55-1.461-1.264c-0.103,0.714-0.719,1.264-1.461,1.264
			c-0.813,0-1.475-0.662-1.475-1.476v-8.129c0-0.081,0.006-0.16,0.019-0.238v-4.07l-0.083-0.126v2.533
			c0.013,0.078,0.019,0.157,0.019,0.238v8.129c0,0.813-0.662,1.476-1.476,1.476c-0.743,0-1.359-0.552-1.461-1.268
			c-0.102,0.716-0.718,1.268-1.46,1.268c-0.814,0-1.477-0.662-1.477-1.476v-8.129c0-0.081,0.007-0.161,0.02-0.238v-4.071
			l-2.55-3.868c-0.16-0.243-0.244-0.523-0.244-0.812v-5.591c0-0.813,0.662-1.476,1.476-1.476c0.814,0,1.477,0.662,1.477,1.476v5.147
			l0.522,0.793c-0.184-0.35-0.288-0.748-0.288-1.171c0-1.393,1.133-2.525,2.524-2.525c0.069,0,0.139,0.003,0.208,0.009v-0.59
			c0-0.814,0.662-1.477,1.476-1.477c0.424,0,0.806,0.179,1.075,0.466v-0.652c0-0.813,0.662-1.476,1.476-1.476
			s1.476,0.662,1.476,1.476v3.916c0.023-0.002,0.046-0.004,0.069-0.005v-2.248c0-0.814,0.662-1.477,1.476-1.477
			c0.717,0,1.316,0.514,1.449,1.192c0.133-0.679,0.731-1.192,1.447-1.192c0.814,0,1.477,0.662,1.477,1.477v0.738
			c0.268-0.371,0.704-0.613,1.196-0.613c0.814,0,1.477,0.662,1.477,1.476v3.688l-0.495,0.005c-0.082,0.001-0.163,0.007-0.242,0.015
			c-0.521,0.055-0.996,0.271-1.373,0.623c-0.287,0.269-0.506,0.607-0.632,0.981l-0.062,0.187h0.004l-0.892,3.717
			c-0.189,0.79,0.031,1.613,0.59,2.203l3.229,3.408v6.281C60.341,78.693,59.679,79.355,58.864,79.355z M50.867,62.271
			c-0.27-0.112-0.519-0.27-0.734-0.467l-0.041,0.062l0.267,0.405H50.867z M44.938,60.605c-0.387-0.163-0.725-0.419-0.985-0.74
			l0.488,0.74H44.938z"/>
		<path fill="#FFFFFF" d="M50.148,52.532c0.539,0,0.976,0.437,0.976,0.976v4.537c0.221-0.082,0.459-0.13,0.709-0.13
			c0.123,0,0.243,0.013,0.36,0.034v-2.778c0-0.54,0.438-0.977,0.976-0.977c0.539,0,0.977,0.437,0.977,0.977v5.298l0.474,0.719
			l0.472-0.719v-5.298c0-0.54,0.437-0.977,0.975-0.977c0.541,0,0.977,0.437,0.977,0.977v2.778c0.117-0.021,0.237-0.034,0.362-0.034
			c0.122,0,0.242,0.013,0.359,0.034v-1.178c0-0.538,0.437-0.976,0.975-0.976c0.54,0,0.977,0.437,0.977,0.976v3.193
			c-0.098,0.001-0.194,0.008-0.289,0.018c-0.635,0.066-1.215,0.336-1.663,0.755c-0.342,0.319-0.607,0.724-0.764,1.188
			c-0.153-0.031-0.299-0.081-0.436-0.144l-0.652,0.989h0.869l-0.744,3.101c-0.229,0.955,0.037,1.949,0.713,2.663l3.092,3.264v6.082
			c0,0.539-0.437,0.976-0.977,0.976c-0.539,0-0.976-0.437-0.976-0.976v-6.693h-0.484h-0.485v6.693c0,0.539-0.437,0.976-0.976,0.976
			s-0.977-0.437-0.977-0.976v-8.129c0-0.066,0.008-0.131,0.02-0.193v-4.266l-0.367-0.56l-0.369,0.56v4.266
			c0.013,0.062,0.019,0.127,0.019,0.193v8.129c0,0.539-0.438,0.976-0.976,0.976c-0.539,0-0.976-0.437-0.976-0.976v-6.693h-0.484
			h-0.485v6.693c0,0.539-0.438,0.976-0.977,0.976c-0.538,0-0.975-0.437-0.975-0.976v-8.129c0-0.066,0.006-0.131,0.019-0.193v-4.266
			l-1.083-1.644v4.246c0.013,0.062,0.019,0.127,0.019,0.193v8.129c0,0.538-0.437,0.976-0.976,0.976s-0.976-0.438-0.976-0.976v-6.693
			h-0.485h-0.485v6.693c0,0.538-0.437,0.976-0.975,0.976c-0.541,0-0.977-0.438-0.977-0.976v-8.129c0-0.066,0.007-0.131,0.02-0.193
			v-4.267l-2.633-3.993c-0.104-0.159-0.161-0.346-0.161-0.536v-5.591c0-0.539,0.438-0.976,0.976-0.976
			c0.54,0,0.977,0.437,0.977,0.976v5.298l1.517,2.3h1.742h0.774c-0.042-0.108-0.066-0.226-0.066-0.345v-0.589
			c-0.221,0.083-0.458,0.13-0.708,0.13c-1.118,0-2.024-0.907-2.024-2.024c0-1.12,0.906-2.025,2.024-2.025
			c0.25,0,0.487,0.047,0.708,0.13v-1.211c0-0.54,0.438-0.977,0.976-0.977c0.54,0,0.977,0.437,0.977,0.977v4.545l0.599-0.91v-5.298
			C49.173,52.969,49.609,52.532,50.148,52.532 M50.089,62.771h1.742h1.492l-0.651-0.989c-0.256,0.116-0.54,0.183-0.841,0.183
			c-0.743,0-1.393-0.401-1.744-1l-0.594,0.901L50.089,62.771 M50.148,51.532c-1.014,0-1.852,0.768-1.963,1.751
			c-0.186-0.058-0.384-0.089-0.588-0.089c-1.089,0-1.976,0.887-1.976,1.977v0.095c-0.779,0.075-1.474,0.447-1.967,1.002v-2.76
			c0-1.089-0.887-1.976-1.977-1.976s-1.976,0.887-1.976,1.976v5.591c0,0.386,0.112,0.761,0.325,1.085l2.469,3.744v3.884
			c-0.013,0.092-0.02,0.185-0.02,0.276v8.129c0,1.089,0.887,1.976,1.977,1.976c0.578,0,1.099-0.25,1.46-0.646
			c0.362,0.396,0.883,0.646,1.461,0.646c0.374,0,0.724-0.104,1.021-0.285c0.015,1.077,0.896,1.948,1.975,1.948
			c0.578,0,1.1-0.249,1.461-0.646c0.362,0.397,0.883,0.646,1.461,0.646c0.509,0,0.974-0.193,1.325-0.512
			c0.351,0.318,0.815,0.512,1.325,0.512c0.578,0,1.099-0.249,1.46-0.646c0.362,0.397,0.883,0.646,1.461,0.646
			c1.09,0,1.977-0.886,1.977-1.976v-6.082v-0.398l-0.273-0.289l-3.092-3.264c-0.441-0.467-0.616-1.118-0.467-1.743l0.744-3.1
			l0.153-0.64l0.04-0.12c0.1-0.296,0.272-0.564,0.499-0.776c0.298-0.278,0.673-0.447,1.085-0.491
			c0.062-0.006,0.128-0.011,0.194-0.012l0.99-0.01v-0.99v-3.193c0-1.089-0.887-1.976-1.977-1.976c-0.251,0-0.49,0.047-0.711,0.133
			c-0.12-0.977-0.954-1.734-1.962-1.734c-0.571,0-1.087,0.244-1.447,0.634c-0.361-0.39-0.877-0.634-1.449-0.634
			c-0.384,0-0.742,0.109-1.045,0.3C52.116,52.411,51.233,51.532,50.148,51.532L50.148,51.532z"/>
	</g>
	<g>
		<path d="M61.557,61.314c-0.153-0.183-0.335-0.342-0.54-0.473c-0.163-0.104-0.336-0.188-0.514-0.248l-0.341-0.114v-5.309
			c0-0.814,0.662-1.477,1.476-1.477s1.476,0.662,1.476,1.477v0.861c0.043-0.004,0.086-0.006,0.129-0.006
			c0.813,0,1.476,0.662,1.476,1.477v1.899l-0.311,0.128c-0.28,0.115-0.551,0.261-0.804,0.432c-0.227,0.155-0.441,0.334-0.637,0.529
			c-0.109,0.11-0.213,0.229-0.311,0.353c-0.108,0.134-0.203,0.272-0.293,0.415l-0.365,0.581L61.557,61.314z"/>
		<path fill="#FFFFFF" d="M61.638,54.194c0.539,0,0.976,0.437,0.976,0.977v1.591c0.171-0.144,0.388-0.235,0.629-0.235
			c0.538,0,0.976,0.438,0.976,0.977v1.564c-0.316,0.13-0.615,0.291-0.895,0.48c-0.256,0.176-0.492,0.372-0.71,0.59
			c-0.123,0.124-0.238,0.257-0.348,0.394c-0.119,0.147-0.226,0.302-0.326,0.462c-0.186-0.221-0.404-0.413-0.652-0.572
			c-0.192-0.123-0.401-0.226-0.625-0.301v-4.949C60.662,54.631,61.099,54.194,61.638,54.194 M61.638,53.194
			c-1.09,0-1.976,0.887-1.976,1.977v4.949v0.719l0.682,0.229c0.139,0.046,0.275,0.112,0.404,0.195
			c0.161,0.103,0.305,0.229,0.426,0.373l0.883,1.05l0.729-1.161c0.09-0.143,0.174-0.262,0.258-0.366
			c0.09-0.112,0.182-0.219,0.279-0.317c0.17-0.17,0.361-0.329,0.566-0.47c0.219-0.148,0.459-0.277,0.708-0.38l0.62-0.255v-0.67
			v-1.564c0-0.963-0.691-1.768-1.604-1.941v-0.391C63.613,54.081,62.728,53.194,61.638,53.194L61.638,53.194z"/>
	</g>
	<g>
		<path d="M80.078,80.088c-0.742,0-1.358-0.55-1.461-1.264c-0.104,0.714-0.72,1.264-1.462,1.264c-0.813,0-1.476-0.662-1.476-1.476
			v-8.129c0-0.1,0.01-0.197,0.029-0.292L75.7,66.568l-0.443,0.671v-7.097l0.547,0.827v-5.068c0-0.813,0.662-1.476,1.477-1.476
			c0.813,0,1.475,0.662,1.475,1.476v2.249c0.023,0.001,0.047,0.003,0.07,0.005v-3.916c0-0.814,0.662-1.477,1.477-1.477
			c0.813,0,1.475,0.662,1.475,1.477v0.652c0.27-0.286,0.651-0.466,1.074-0.466c0.814,0,1.477,0.662,1.477,1.476v0.59
			c0.069-0.006,0.138-0.009,0.207-0.009c1.393,0,2.525,1.133,2.525,2.525c0,0.423-0.104,0.821-0.289,1.172l0.522-0.793v-5.147
			c0-0.814,0.662-1.477,1.477-1.477c0.813,0,1.476,0.662,1.476,1.477v5.591c0,0.289-0.084,0.57-0.243,0.812l-2.55,3.868v4.069
			c0.013,0.078,0.021,0.157,0.021,0.239v8.129c0,0.813-0.662,1.476-1.477,1.476c-0.742,0-1.358-0.55-1.462-1.264
			c-0.103,0.714-0.719,1.264-1.461,1.264c-0.813,0-1.475-0.662-1.475-1.476v-8.129c0-0.101,0.01-0.198,0.028-0.293l-0.006-2.485
			l-0.087,0.133v4.115c0.01,0,0.02,0.096,0.02,0.194v8.129C81.554,79.426,80.892,80.088,80.078,80.088z M80.09,63.001l0.268-0.404
			l-0.04-0.061c-0.216,0.195-0.463,0.353-0.73,0.465H80.09z M86.007,61.338l0.491-0.744c-0.263,0.323-0.603,0.581-0.992,0.744
			H86.007z"/>
		<path fill="#FFFFFF" d="M88.77,53.263c0.538,0,0.976,0.438,0.976,0.977v5.591c0,0.191-0.056,0.377-0.161,0.537l-2.632,3.993v4.266
			c0.013,0.062,0.021,0.127,0.021,0.193v8.129c0,0.539-0.438,0.976-0.977,0.976c-0.538,0-0.977-0.437-0.977-0.976v-6.693h-0.485
			H84.05v6.693c0,0.539-0.437,0.976-0.977,0.976c-0.539,0-0.975-0.437-0.975-0.976v-8.129c0-0.066,0.006-0.131,0.019-0.193V64.38
			l-1.083,1.644v4.266c0.013,0.063,0.02,0.128,0.02,0.194v8.129c0,0.539-0.438,0.976-0.976,0.976c-0.54,0-0.977-0.437-0.977-0.976
			v-6.695h-0.484h-0.485v6.695c0,0.539-0.437,0.976-0.977,0.976c-0.539,0-0.976-0.437-0.976-0.976v-8.129
			c0-0.066,0.007-0.131,0.02-0.194v-4.266l-0.368-0.56l-0.074,0.112v-0.225V62.03v-0.225l0.074,0.112l0.473-0.718v-5.299
			c0-0.539,0.436-0.976,0.977-0.976c0.538,0,0.975,0.437,0.975,0.976v2.779c0.119-0.021,0.237-0.034,0.362-0.034
			c0.249,0,0.486,0.048,0.708,0.13v-4.537c0-0.54,0.436-0.977,0.977-0.977c0.538,0,0.975,0.437,0.975,0.977v5.298l0.6,0.909v-4.545
			c0-0.538,0.437-0.976,0.975-0.976c0.54,0,0.977,0.438,0.977,0.976v1.211c0.22-0.081,0.459-0.13,0.707-0.13
			c1.119,0,2.025,0.907,2.025,2.025c0,1.119-0.906,2.024-2.025,2.024c-0.248,0-0.486-0.047-0.707-0.129v0.59
			c0,0.119-0.023,0.235-0.066,0.345h0.773h1.742l1.517-2.301v-5.298C87.793,53.699,88.23,53.263,88.77,53.263 M78.618,62.696
			c-0.301,0-0.584-0.067-0.841-0.185l-0.652,0.989h1.492h1.742l0.597-0.904l-0.594-0.9C80.011,62.294,79.362,62.696,78.618,62.696
			 M88.77,52.263c-1.09,0-1.977,0.887-1.977,1.977v2.758c-0.493-0.554-1.187-0.926-1.966-1.001v-0.095
			c0-1.09-0.887-1.976-1.977-1.976c-0.204,0-0.401,0.031-0.587,0.089c-0.111-0.984-0.949-1.752-1.962-1.752
			c-1.086,0-1.969,0.879-1.977,1.963c-0.303-0.189-0.661-0.3-1.045-0.3c-1.09,0-1.977,0.886-1.977,1.976v3.404l-0.547-0.827v3.327
			v0.225v3.321v0.225v3.327l0.442-0.67v1.974c-0.013,0.092-0.02,0.185-0.02,0.276v8.129c0,1.09,0.886,1.976,1.976,1.976
			c0.578,0,1.1-0.25,1.461-0.646c0.362,0.396,0.884,0.646,1.462,0.646c1.08,0,1.961-0.871,1.976-1.948
			c0.298,0.181,0.646,0.284,1.02,0.284c0.578,0,1.1-0.25,1.461-0.646c0.362,0.396,0.884,0.646,1.462,0.646
			c1.09,0,1.977-0.886,1.977-1.976v-8.129c0-0.091-0.007-0.184-0.021-0.277V64.66l2.467-3.743c0.213-0.323,0.326-0.699,0.326-1.087
			v-5.591C90.745,53.149,89.858,52.263,88.77,52.263L88.77,52.263z"/>
	</g>
	<g>
		<path d="M74.506,80.088c-0.744,0-1.36-0.554-1.46-1.271c-0.101,0.717-0.717,1.271-1.461,1.271l-0.145-0.012l-0.427-0.063
			l-0.036-0.437c0-0.16-0.008-0.274-0.024-0.388l-0.006-6.273l3.916-5.939c0.058-0.087,0.105-0.178,0.15-0.27l0.949-1.95v5.533
			c0.01,0,0.02,0.096,0.02,0.194v8.129C75.982,79.426,75.32,80.088,74.506,80.088z"/>
		<path fill="#FFFFFF" d="M75.463,66.925v3.364c0.013,0.063,0.02,0.128,0.02,0.194v8.129c0,0.539-0.437,0.976-0.977,0.976
			c-0.538,0-0.975-0.437-0.975-0.976v-6.695h-0.485H72.56v6.695c0,0.539-0.437,0.976-0.975,0.976c-0.037,0-0.071-0.008-0.107-0.012
			v-0.047c0-0.138-0.01-0.276-0.03-0.414v-6.05l3.833-5.814C75.35,67.146,75.408,67.037,75.463,66.925 M76.463,62.588l-1.899,3.899
			c-0.035,0.072-0.072,0.144-0.116,0.211l-3.835,5.816l-0.165,0.251v0.3v6.05v0.074l0.011,0.073c0.014,0.089,0.02,0.178,0.02,0.267
			v0.897l0.893,0.144c0.069,0.011,0.141,0.018,0.215,0.018c0.578,0,1.1-0.25,1.461-0.647c0.361,0.397,0.882,0.647,1.46,0.647
			c1.09,0,1.977-0.886,1.977-1.976v-8.129c0-0.092-0.007-0.185-0.02-0.276v-3.282V62.588L76.463,62.588z"/>
	</g>
	<g>
		<path d="M69.403,60.775c-0.394-0.472-0.878-0.851-1.44-1.125c-0.103-0.051-0.206-0.098-0.312-0.14
			c-0.453-0.18-0.937-0.28-1.438-0.298l-0.481-0.018v-2.425c0-0.813,0.662-1.475,1.477-1.475c0.083,0,0.166,0.007,0.247,0.021
			c0.228-0.524,0.75-0.892,1.356-0.892c0.813,0,1.476,0.662,1.476,1.476v5.934L69.403,60.775z"/>
		<path fill="#FFFFFF" d="M68.812,54.926c0.538,0,0.976,0.437,0.976,0.976v4.554c-0.438-0.524-0.985-0.951-1.604-1.254
			c-0.113-0.056-0.229-0.108-0.348-0.155c-0.5-0.198-1.039-0.312-1.604-0.333v-1.942c0-0.538,0.437-0.975,0.977-0.975
			c0.239,0,0.457,0.09,0.627,0.234v-0.129C67.835,55.362,68.272,54.926,68.812,54.926 M68.812,53.926
			c-0.681,0-1.282,0.346-1.638,0.87c-1.074,0.019-1.942,0.897-1.942,1.975v1.942v0.964l0.964,0.035
			c0.443,0.017,0.871,0.105,1.271,0.264c0.094,0.037,0.186,0.079,0.275,0.123c0.501,0.244,0.93,0.58,1.278,0.997l1.768,2.119v-2.76
			v-4.554C70.787,54.812,69.901,53.926,68.812,53.926L68.812,53.926z"/>
	</g>
	<g>
		<path d="M66.057,67.535c-0.251,0-0.507-0.025-0.762-0.074c-0.402-0.077-0.789-0.217-1.147-0.414
			c-0.98-0.539-1.692-1.472-1.952-2.56c-0.042-0.179-0.074-0.357-0.093-0.542c-0.012-0.13-0.019-0.256-0.019-0.383
			c0.003-0.151,0.009-0.256,0.018-0.36c0.137-1.284,0.81-2.354,1.851-3.006c0.154-0.097,0.315-0.183,0.483-0.259
			c0.514-0.23,1.059-0.348,1.621-0.348l0.149,0.006c0.421,0.022,0.78,0.09,1.118,0.204c0.27,0.093,0.526,0.211,0.767,0.354
			c0.139,0.083,0.271,0.175,0.398,0.272c0.719,0.559,1.228,1.352,1.434,2.234c0.07,0.303,0.105,0.606,0.105,0.901
			c0,0.26-0.026,0.523-0.078,0.785c-0.066,0.33-0.18,0.658-0.337,0.977C68.936,66.688,67.573,67.535,66.057,67.535z"/>
		<path fill="#FFFFFF" d="M66.057,60.09c0.06,0,0.116,0.006,0.176,0.009c0.324,0.017,0.637,0.075,0.933,0.175
			c0.235,0.081,0.46,0.186,0.67,0.311c0.12,0.072,0.237,0.152,0.349,0.238c0.618,0.48,1.068,1.165,1.252,1.952
			c0.059,0.253,0.093,0.517,0.093,0.788c0,0.235-0.024,0.466-0.068,0.688c-0.061,0.3-0.163,0.585-0.295,0.853
			c-0.568,1.144-1.745,1.932-3.108,1.932c-0.228,0-0.45-0.023-0.666-0.065c-0.356-0.068-0.693-0.191-1.002-0.361
			c-0.847-0.465-1.477-1.272-1.707-2.237c-0.036-0.155-0.065-0.313-0.082-0.477c-0.01-0.109-0.016-0.22-0.016-0.332
			c0-0.013,0.001-0.023,0.001-0.034c0.002-0.097,0.007-0.19,0.015-0.284c0.003-0.02,0.004-0.04,0.005-0.06
			c0.117-1.083,0.733-2.014,1.613-2.564c0.135-0.084,0.275-0.16,0.423-0.227C65.073,60.199,65.552,60.09,66.057,60.09 M66.057,59.09
			c-0.633,0-1.247,0.132-1.825,0.392c-0.184,0.082-0.366,0.18-0.543,0.29c-1.174,0.734-1.931,1.939-2.078,3.306l-0.003,0.028
			l-0.002,0.029c-0.012,0.141-0.018,0.255-0.021,0.373v0.011l-0.001,0.044c0,0.143,0.007,0.282,0.02,0.421
			c0.021,0.203,0.055,0.4,0.104,0.614c0.293,1.23,1.095,2.281,2.199,2.888c0.404,0.222,0.84,0.379,1.295,0.467
			c0.283,0.055,0.572,0.083,0.854,0.083c1.707,0,3.241-0.953,4.004-2.486c0.178-0.36,0.305-0.729,0.38-1.1
			c0.059-0.298,0.088-0.595,0.088-0.887c0-0.333-0.04-0.674-0.119-1.014c-0.231-0.995-0.805-1.889-1.611-2.517
			c-0.145-0.111-0.295-0.213-0.447-0.305c-0.273-0.163-0.562-0.297-0.859-0.399c-0.389-0.131-0.793-0.207-1.208-0.229
			C66.179,59.093,66.118,59.09,66.057,59.09L66.057,59.09z"/>
	</g>
	<g>
		<path d="M68.587,94.077c-1.106,0-2.006-0.899-2.006-2.005v-9.828h-2.895l-2.353,2.873l-2.394,4.851
			c-0.026,0.06-0.046,0.1-0.071,0.14l-0.44-0.242l0.381,0.324l-0.036,0.074l-0.255,0.449l-0.12-0.074
			c-0.389,0.323-0.878,0.503-1.394,0.503c-0.4,0-0.792-0.111-1.134-0.322c-0.804-0.493-1.181-1.441-0.978-2.334l-0.064-0.039
			l0.206-0.428l1.951-3.643l-0.142-0.035l0.452-0.622l4.888-5.976v-4.758l-4.793-5.062c-0.47-0.496-0.653-1.188-0.491-1.85
			l0.883-3.686c0.215-0.895,1.006-1.526,1.925-1.537h0.015c0.159,0,0.301,0.017,0.443,0.048c0.562,0.134,1.005,0.459,1.285,0.924
			c0.108,0.177,0.188,0.374,0.235,0.582c0.052,0.222,0.065,0.448,0.04,0.674l-0.028,0.163v0.025l-0.646,2.688l2.182,2.304h5.517
			l2.109-3.2V55.037c0-1.105,0.899-2.005,2.005-2.005c1.047,0,1.925,0.817,1.999,1.86c0.003,0.044,0.007,0.094,0.007,0.145v10.624
			c0,0.392-0.114,0.772-0.33,1.102L70.562,72.8v6.431c0.016,0.029,0.031,0.163,0.031,0.3v12.542
			C70.593,93.178,69.693,94.077,68.587,94.077z"/>
		<path fill="#FFFFFF" d="M72.865,53.532c0.794,0,1.444,0.615,1.5,1.396c0.003,0.036,0.006,0.072,0.006,0.109v4.106V62.2v1.049
			v0.253v2.159c0,0.294-0.087,0.582-0.248,0.828l-3.515,5.331l-0.547,0.83v6.58c0.02,0.097,0.031,0.197,0.031,0.3v12.542
			c0,0.83-0.674,1.505-1.506,1.505s-1.506-0.675-1.506-1.505V81.744h-3.632l-2.538,3.101l-2.419,4.901
			c-0.017,0.032-0.027,0.065-0.047,0.097c-0.009,0.016-0.022,0.027-0.032,0.043l-0.074,0.131l-0.018-0.011
			c-0.327,0.41-0.816,0.636-1.316,0.636c-0.298,0-0.6-0.08-0.872-0.248c-0.731-0.449-0.988-1.367-0.64-2.128l-0.018-0.011
			l2.255-4.208l-0.047-0.012l3.151-3.854l1.652-2.018l0.197-0.242v-5.135v-0.002l-2.129-2.248l-0.715-0.755l-2.086-2.201
			c-0.35-0.369-0.49-0.892-0.369-1.387l0.723-3.015l0.098-0.409l0.063-0.265c0.164-0.684,0.772-1.146,1.444-1.153
			c0.006,0,0.012-0.001,0.018-0.001c0.106,0,0.216,0.013,0.325,0.037c0.01,0.002,0.02,0.003,0.028,0.005
			c0.409,0.099,0.736,0.354,0.938,0.688c0.082,0.134,0.142,0.281,0.177,0.436c0.038,0.163,0.05,0.334,0.03,0.506
			c-0.002,0.021-0.006,0.039-0.007,0.059c-0.007,0.039-0.014,0.079-0.023,0.119c-0.001,0.002-0.001,0.006-0.001,0.008l-0.196,0.815
			l-0.499,2.079l2.517,2.656h2.039h0.332h3.63l1.607-2.439l0.732-1.11v-1.707v-1.709v-2.242v-2.956v-1.558
			C71.36,54.206,72.034,53.532,72.865,53.532 M72.865,52.532c-1.381,0-2.505,1.124-2.505,2.505v1.558v2.956v2.242v1.709v1.407
			l-0.567,0.859l-1.312,1.99h-3.091h-0.332H63.45l-1.849-1.95l0.373-1.552l0.196-0.814l0.027-0.115v-0.021
			c0.003-0.017,0.006-0.032,0.009-0.048l0.011-0.061l0.002-0.035l0.006-0.046c0.029-0.264,0.013-0.549-0.053-0.828
			c-0.059-0.257-0.159-0.504-0.298-0.73c-0.345-0.573-0.899-0.979-1.556-1.138l-0.041-0.011l-0.035-0.005
			c-0.171-0.036-0.344-0.055-0.512-0.055H59.69l-0.026,0.002c-1.138,0.035-2.103,0.818-2.367,1.919l-0.063,0.265l-0.098,0.41
			l-0.723,3.014c-0.201,0.823,0.028,1.688,0.615,2.308l2.087,2.201l0.714,0.755l1.855,1.959v4.383l-1.623,1.981l-3.152,3.855
			l-0.998,1.221l0.332,0.083l-1.648,3.076l-0.447,0.833l0.202,0.123c-0.085,0.984,0.38,1.967,1.26,2.508
			c0.42,0.258,0.903,0.396,1.396,0.396c0.509,0,0.996-0.143,1.416-0.403l0.261,0.159l0.527-0.888l0.04-0.071
			c0.025-0.034,0.047-0.068,0.068-0.105c0.014-0.021,0.045-0.083,0.073-0.147l2.366-4.796l2.166-2.646h2.158v9.328
			c0,1.381,1.124,2.505,2.506,2.505s2.506-1.124,2.506-2.505V79.53c0-0.127-0.011-0.257-0.031-0.388V72.95l0.382-0.58l3.515-5.33
			c0.271-0.414,0.413-0.89,0.413-1.379v-2.159v-0.253V62.2v-3.057v-4.106c0-0.064-0.004-0.128-0.009-0.19
			C75.27,53.554,74.173,52.532,72.865,52.532L72.865,52.532z"/>
	</g>
</g>
</svg>
