<?xml version="1.0" encoding="utf-8"?>
<!-- Generator: Adobe Illustrator 16.0.0, SVG Export Plug-In . SVG Version: 6.00 Build 0)  -->
<!DOCTYPE svg PUBLIC "-//W3C//DTD SVG 1.1//EN" "http://www.w3.org/Graphics/SVG/1.1/DTD/svg11.dtd">
<svg version="1.1" id="Layer_1" xmlns="http://www.w3.org/2000/svg" xmlns:xlink="http://www.w3.org/1999/xlink" x="0px" y="0px"
	 width="126.876px" height="112.438px" viewBox="0 0 126.876 112.438" enable-background="new 0 0 126.876 112.438"
	 xml:space="preserve">
<rect fill="#FFFFFF" width="126.876" height="112.438"/>
<path d="M52.342,26.044h0.139h0.279c0.185,0.187,0.419,0.28,0.697,0.28v0.139c0.277,0.094,0.417,0.233,0.417,0.417v0.56
	l-0.836,1.114l-0.977,0.421l-0.696,0.278c-0.094,0-0.141,0.047-0.141,0.141c-0.372,0.187-0.652,0.326-0.836,0.417v0.141
	c0.464,0.186,0.696,0.466,0.696,0.836l-0.14,0.28c0.65,0,1.207-0.091,1.676-0.28l1.812-0.417c0.371,0,0.698-0.047,0.977-0.141h0.418
	c0-0.187,0.65-0.37,1.953-0.56c0.279-0.183,0.56-0.276,0.836-0.276c0.371,0.276,0.651,0.417,0.841,0.417
	c0.37,0.372,0.74,0.56,1.112,0.56c0.652,0.372,1.164,0.836,1.537,1.394v0.56c0,0.187-0.094,0.373-0.28,0.557h-0.279H60.99
	l-1.115,0.14l-0.558-0.279h-0.279h-0.28c-0.65,0-1.303,0.233-1.953,0.697c-0.558,0-0.836,0.049-0.836,0.14v0.14l-0.141,0.279H55.41
	l-0.139-0.14v-0.14c0.184-0.091,0.604-0.416,1.257-0.977c0-0.184,0.183-0.464,0.556-0.837l0.28-0.697
	c0-0.279-0.189-0.419-0.56-0.419l-0.836,0.28h-0.697l-0.838,0.417c-0.188,0.096-0.466,0.139-0.836,0.139h-0.279l-0.42,0.141h-0.696
	c-0.188,0.188-0.606,0.373-1.257,0.56c-0.277,0.093-0.417,0.467-0.417,1.114l-0.14,0.14l0.14,1.117l-0.28,0.139l0.141,0.28
	l-0.281,0.14v0.137l0.141,0.28l-0.141,0.977v0.279l-0.139,0.28v0.138v0.56v0.14c0,0.373-0.327,0.837-0.976,1.395h-0.279
	l-0.419-0.418l0.141-0.28c-0.189-0.091-0.28-0.185-0.28-0.278V38.32l-0.14-0.558v-0.14c0.186-0.184,0.279-0.37,0.279-0.557
	c-0.094-0.188-0.187-0.279-0.279-0.279c-0.373,0.466-0.79,0.885-1.254,1.256l-0.56,0.696h0.14v0.141l0.141-0.141
	c0.928,0.466,1.44,0.793,1.533,0.977c0.559,0,0.931-0.09,1.115-0.278c0.188,0,0.561,0.188,1.117,0.559v0.277
	c0,0.096-0.466,0.235-1.396,0.419l-0.558,0.28l-0.14-0.14l-0.696,1.394l0.557,0.559v0.141c0,0.373-0.327,0.557-0.977,0.557
	l-1.254,0.42h-0.14l-0.141-0.141v0.28l-0.696,0.138c0,0.279,0.137,0.42,0.417,0.42c0.187,0.278,0.371,0.466,0.56,0.557l0.697-0.278
	c0.091,0,0.51-0.186,1.255-0.559c0.371-0.277,0.649-0.417,0.837-0.417c0.372,0.187,0.881,0.557,1.533,1.116
	c0,0.373-0.372,0.791-1.114,1.254l-0.698,0.56l-0.419,0.417v0.141l0.279,0.279c0,0.187-0.14,0.372-0.418,0.557
	c0,0.373-0.049,0.56-0.138,0.56h-0.141c-0.094,0-0.141-0.094-0.141-0.279v-0.28h-0.279h-0.277c0,0.28-0.096,0.42-0.279,0.42
	l-0.561-0.14c0,0.093-0.094,0.232-0.276,0.42v0.977l0.14,0.137c0.09-0.091,0.324-0.137,0.697-0.137c0-0.188,0.23-0.281,0.696-0.281
	l1.116-0.278l0.836,0.56v0.695h-0.138l-1.675,0.141h-0.14h-0.14c0,0.187-0.277,0.277-0.837,0.277c0,0.096-0.14,0.14-0.417,0.14
	l-0.14,1.257v0.28l0.14,0.14v0.277v0.278l-0.14,0.281l0.276,0.836c-0.094,0-0.137,0.091-0.137,0.28v0.137v0.42v0.279v0.417v0.141
	c-0.28,0.836-0.605,1.257-0.977,1.257h-0.14c-0.096,0-0.234-0.514-0.419-1.537v-0.137l-0.281-0.28v-0.419
	c0-0.094,0.094-0.234,0.281-0.418v-0.14l-0.141-0.419l0.141-0.558l-0.141-0.419l0.141-0.417l-0.141-0.421l0.141-0.139v-0.278
	l-0.281-0.279l-0.417,0.279l-0.278-0.139l-1.117,0.556c-0.277,0.094-0.558,0.141-0.837,0.141c-0.279,0.28-0.558,0.42-0.837,0.42
	c-0.28,0.369-0.605,0.556-0.976,0.556c-0.558,0.558-0.931,0.838-1.117,0.838s-0.558-0.37-1.117-1.116
	c-0.186,0-0.276-0.045-0.276-0.141v-0.137c0-0.093,0.276-0.14,0.836-0.14c0-0.094,0.511-0.28,1.534-0.56
	c0-0.185,0.37-0.278,1.116-0.278c0-0.186,0.047-0.279,0.139-0.279l0.558,0.141h0.141c0.464-0.37,1.163-0.7,2.093-0.978
	c0-0.094,0.185-0.141,0.557-0.141c0.188-0.369,0.281-0.789,0.281-1.255h-0.141l-1.254,0.56c-0.189,0.37-0.33,0.557-0.42,0.557
	h-0.279c-0.277-0.187-0.514-0.511-0.697-0.977v-0.697l-0.557-1.257c0-0.186-0.189-0.462-0.56-0.836v-0.42
	c0-0.184,0.091-0.323,0.278-0.417h0.141c0.648,0.373,0.977,0.65,0.977,0.837h0.141c0.464-0.371,1.16-0.697,2.09-0.977l0.141-0.14
	v-0.558v-0.279h-0.277c-0.096,0.094-0.235,0.139-0.42,0.139h-0.139c-0.094,0.094-0.141,0.278-0.141,0.558l-0.277,0.141
	c-0.189-0.185-0.28-0.371-0.28-0.558c-0.093,0-0.188-0.279-0.278-0.839c-0.094,0-0.141-0.091-0.141-0.277v-0.42L41.04,44.18h-0.278
	h-0.279c-0.093,0-0.187-0.138-0.28-0.418c-0.372-0.09-0.556-0.186-0.556-0.279v-0.279c0-0.091,0.509-0.23,1.532-0.418
	c0.37-0.37,0.56-0.603,0.56-0.696l-0.14-1.535l0.28-0.141c0.091,0.096,0.418,0.232,0.977,0.42c0.463,0.187,0.741,0.466,0.837,0.837
	c0.836-0.371,1.487-0.65,1.953-0.837c0.276-0.188,0.417-0.371,0.417-0.56v-0.417c-0.188-0.28-0.277-0.464-0.277-0.56
	c-0.096,0-0.188,0.141-0.28,0.419l-0.56,0.141c0-0.092-0.186-0.23-0.558-0.419c0-0.092-0.138-0.186-0.419-0.278
	c0-0.093-0.093-0.232-0.276-0.42c0.184-0.185,0.928-0.604,2.229-1.256c0.371-0.371,0.977-0.743,1.815-1.117
	c0.278-0.184,0.418-0.37,0.418-0.556l-0.14-0.28l0.279-1.813c-0.187,0-0.279-0.185-0.279-0.557l-0.14-0.141h-0.139
	c-0.278,0.281-0.976,0.606-2.092,0.977c0,0.094-0.233,0.188-0.7,0.279l-0.276,0.278l-0.141-0.141
	c-0.372,0.281-0.885,0.47-1.536,0.56c-0.373,0.094-0.557,0.188-0.557,0.28c-0.279,0.094-0.42,0.232-0.42,0.417v0.279
	c0,0.374-0.137,0.838-0.417,1.395c0,0.839-0.466,1.723-1.396,2.652l-0.556,0.139c-0.189-0.186-0.28-0.509-0.28-0.976
	c-0.188,0-0.327-0.371-0.417-1.116l-0.141-0.14v-0.141l0.698-1.673l-0.141-0.56l0.141-0.697v-0.42l0.278-0.557l-0.278-0.279
	l0.14-0.978l-0.14-0.416v-0.14c0-0.092,0.09-0.141,0.278-0.141c0.464,0.28,1.021,0.837,1.674,1.674c0,0.279,0.09,0.419,0.279,0.419
	c0.185,0,0.512-0.14,0.978-0.419l0.696-0.276l2.233-0.561l0.557-0.279V32.6c0.187-0.184,0.696-0.323,1.535-0.416l0.418-0.28
	c-0.094-0.557-0.187-0.836-0.279-0.836c-0.188,0.186-0.373,0.279-0.558,0.279c-0.187-0.188-0.605-0.511-1.256-0.977
	c0-0.188-0.234-0.419-0.697-0.7c-0.467-0.276-0.696-0.604-0.696-0.976c0.37-0.277,0.881-0.418,1.533-0.418
	c0.56-0.279,1.163-0.51,1.813-0.698c0.649-0.277,1.486-0.558,2.513-0.837C51.456,26.277,52.062,26.044,52.342,26.044z M42.575,47.39
	c0,0.93,0.091,1.396,0.28,1.396l0.696-0.279h0.558l0.141-0.14v-0.141v-0.417v-0.56v-0.696h-0.418
	c-0.096,0.187-0.28,0.279-0.559,0.279L42.575,47.39z M43.552,42.785v0.697v0.279l0.141,0.28c0.742-0.466,1.206-0.699,1.394-0.699
	c0.464-0.184,0.699-0.37,0.699-0.558c0-0.279,0.09-0.51,0.277-0.696l-0.141-0.279l-1.672,0.557v0.14
	C43.782,42.6,43.552,42.695,43.552,42.785z M45.226,34.833l0.14,0.14l0.977-0.14l0.42,0.42v0.137c0,0.56-0.279,1.026-0.84,1.397
	h-0.137c-0.56-0.464-1.072-0.744-1.535-0.838V35.53c0.278-0.277,0.602-0.417,0.976-0.417V34.833z M45.922,45.716h-0.276v0.696
	l-0.141,0.28l0.141,0.28v0.836h0.14c0.557-0.187,0.837-0.466,0.837-0.836l0.276-0.28v-0.14v-0.28c0-0.091,0.094-0.37,0.28-0.837
	l-0.14-0.139h-0.141C46.526,45.576,46.202,45.716,45.922,45.716z M56.388,38.6h0.141c0.276,0.188,0.646,0.28,1.112,0.28
	c0.094,0.187,0.511,0.372,1.258,0.558l0.419,0.419v0.697l-0.836,2.929l0.136,0.697l-0.136,0.698l0.136,0.419v0.279l0.141,0.836
	v0.697l0.141,0.56c-0.094,0.187-0.141,0.417-0.141,0.697v0.279v0.28v0.137v1.257v0.419v0.417v0.699v0.138v0.279v0.561v0.277v0.56
	v0.14v0.277v0.419c0,0.464-0.094,0.977-0.276,1.533c0,0.468-0.56,1.208-1.677,2.233h-0.14c-0.277-0.094-0.418-0.326-0.418-0.697
	l0.141-0.837l-0.141-0.14l0.141-0.279c-0.189-0.187-0.279-0.373-0.279-0.557c-0.187,0-0.467-0.28-0.837-0.84l-0.697-0.558
	c-0.189,0-0.372-0.139-0.56-0.419v-0.137l0.141-0.14l0.278,0.14l0.278-0.14c0.279,0.093,0.42,0.187,0.42,0.276h0.278l0.418,0.28
	c0-0.091,0-0.325,0-0.697l0.28-0.696l-0.14-0.42l0.14-0.279l-0.14-0.697l0.14-1.533l-0.14-0.56l0.14-0.141
	c-0.093-0.742-0.187-1.161-0.28-1.253l0.141-0.7l-0.141-0.417c0.188-0.187,0.28-0.511,0.28-0.977l-0.28-0.42v-0.139
	c0.094-0.185,0.141-0.325,0.141-0.419v-0.419l-0.141-0.557c0-0.93,0-1.627,0-2.093v-0.14v-0.978v-0.279h-0.14l-0.417,0.141h-0.42
	c0,0.188-0.418,0.372-1.254,0.559v0.138c-0.189,0-0.419,0.096-0.699,0.279c-0.467,0.094-0.696,0.189-0.696,0.28
	c0.184,0.279,0.278,0.466,0.278,0.557c0,0.466-0.049,0.837-0.139,1.116v0.56l-0.14,0.138v0.14h0.14
	c0.649-0.184,1.207-0.417,1.673-0.696h0.56c0.185,0.094,0.417,0.186,0.697,0.279h0.139v0.417c0,0.188-0.559,0.42-1.676,0.699
	c-0.373,0.373-0.79,0.558-1.254,0.558c-0.188,0.093-0.278,0.233-0.278,0.419v0.138c0,0.84-0.094,1.306-0.28,1.396
	c0.093,0.187,0.14,0.327,0.14,0.421l0.977-0.56c0.743-0.28,1.3-0.417,1.674-0.417c0.466,0.186,0.698,0.417,0.698,0.696
	c-0.096,0.372-0.512,0.557-1.255,0.557c-0.188,0.28-0.466,0.42-0.837,0.42l-0.559,0.28l-0.139,0.137
	c-0.279-0.184-0.469-0.277-0.56-0.277c-0.094,0.094-0.232,0.606-0.417,1.534c-0.096,0-0.279,0.466-0.56,1.396
	c-0.093,0-0.187,0.232-0.279,0.696c-0.558,1.116-1.164,1.999-1.812,2.65c-1.211,1.58-2.048,2.373-2.511,2.373v-0.141
	c0-0.187,0.23-0.466,0.696-0.836c0.559-0.561,1.067-1.21,1.535-1.954l0.558-1.396c0-0.092,0.092-0.324,0.28-0.697
	c0-0.186,0.09-0.371,0.277-0.558l-0.138-0.419c0-0.28,0.091-0.558,0.277-0.838v-0.278c0.279-1.117,0.42-2.417,0.42-3.907v-0.977
	l0.14-0.558l-0.14-1.255l0.14-0.141c0-0.37-0.233-0.977-0.699-1.812v-0.42c0.187-0.277,0.419-0.417,0.699-0.417
	c0.277,0.187,0.464,0.279,0.557,0.279C53.226,40.369,54.991,39.532,56.388,38.6z M53.598,32.74c0.37,0,0.74,0.326,1.114,0.977
	c-0.187,0.652-0.557,0.978-1.114,0.978c0,0.093-0.096,0.139-0.279,0.139c-0.189,0-0.374-0.184-0.559-0.558
	c0,0.094-0.047,0.138-0.139,0.138l-1.256-0.557v-0.14c0.279-0.371,0.557-0.557,0.837-0.557C52.48,33.16,52.944,33.02,53.598,32.74z
	 M53.598,35.39c1.207,0.374,1.812,0.84,1.812,1.397c0,0.372-0.278,0.746-0.836,1.116c-0.372-0.187-0.793-0.464-1.256-0.837
	c-0.559-0.279-1.026-0.464-1.396-0.56c0-0.184-0.186-0.277-0.557-0.277v-0.14C51.365,35.811,52.108,35.579,53.598,35.39z"/>
<path d="M69.376,49.401h0.057l0.745,0.286c0.229,0,0.344,0.096,0.344,0.286c0,0.153-0.153,0.383-0.459,0.688
	c-0.191,0.306-0.325,0.706-0.4,1.203v0.286l-0.058,0.973l0.058,0.115h-0.058v0.057c0,0.307,0.133,0.917,0.401,1.832
	c0.037,0,0.075,0.096,0.114,0.287c0.037,0,0.171,0.191,0.401,0.572c0.305,0.383,0.477,0.573,0.515,0.573
	c0.151,0.115,0.305,0.191,0.458,0.229c0.076,0,0.134-0.113,0.172-0.343c0.076,0,0.115-0.058,0.115-0.172l0.286-0.802h0.058h0.057
	v0.114c-0.039,0.077-0.057,0.191-0.057,0.343v0.345l-0.058,0.172c0.037,0.306,0.19,0.592,0.458,0.858l0.058,0.229
	c0,0.229-0.249,0.42-0.745,0.573h-0.114c-0.077-0.076-0.191-0.114-0.343-0.114c-0.269-0.114-0.611-0.382-1.032-0.802
	c-0.382-0.459-0.669-0.936-0.858-1.432c-0.191-0.458-0.344-1.031-0.459-1.719l-0.057-0.057l-0.057-1.203l0.057-0.229l-0.057-0.229
	l0.057-0.171v-0.058v-0.744v-0.058l0.057-0.573v-0.057l0.058-0.458v-0.058h-0.058c-0.038,0.077-0.229,0.153-0.572,0.229
	l-0.057,0.115h-0.229c-0.115,0.038-0.173,0.076-0.173,0.114l-0.114-0.057c-0.077,0-0.229,0.096-0.459,0.286h-0.057v-0.058
	c-0.152,0.077-0.324,0.135-0.516,0.172c-0.152,0.153-0.285,0.229-0.4,0.229c0,0.04-0.115,0.096-0.344,0.173v0.058
	c0,0.076,0.095,0.134,0.286,0.171c0,0.039,0.075,0.058,0.229,0.058l0.114,0.229v0.056l-0.114,0.573l0.057,0.173l-0.057,0.4
	l0.057,0.172l-0.057,0.172c0.344-0.152,0.572-0.229,0.688-0.229h0.229l0.115-0.114h0.114c0-0.076,0.133-0.134,0.401-0.172
	l0.113-0.115c0.268,0,0.439,0.078,0.516,0.23c0,0.267-0.115,0.4-0.344,0.4h-0.114l-0.171-0.058l-1.261,0.286
	c-0.039,0.038-0.135,0.058-0.286,0.058v0.058l0.057,0.171v0.114c0.038,0.269,0.058,0.422,0.058,0.459v0.058v0.458v0.171
	c0.037,0.078,0.058,0.307,0.058,0.688v0.113v0.287h-0.058l0.058,0.172c-0.039,0.306-0.135,0.611-0.286,0.916
	c-0.153,0.267-0.383,0.534-0.688,0.802l-0.113-0.115v-0.171c0-0.229-0.153-0.573-0.459-1.031l-0.4-0.344v-0.057
	c0-0.038,0.037-0.058,0.115-0.058l0.457,0.172c0.152-0.037,0.229-0.114,0.229-0.229v-0.114c0-0.458,0.019-0.688,0.058-0.688v-0.171
	l0.058-0.401l-0.058-0.458l0.058-0.459v-0.057l-0.058-0.058c0,0.039-0.078,0.058-0.229,0.058l-0.171,0.172l-0.173-0.058
	c-0.038,0.115-0.171,0.211-0.401,0.286c-0.076,0-0.134,0.021-0.171,0.058l-0.172-0.058c-0.038,0.115-0.153,0.191-0.344,0.229
	c-0.153,0.114-0.306,0.172-0.458,0.172c0,0.114-0.134,0.191-0.401,0.229l-0.229,0.113c0,0.078-0.058,0.115-0.172,0.115h-0.058
	c-0.115-0.152-0.211-0.229-0.286-0.229c0-0.038-0.153-0.134-0.458-0.287c0-0.075,0.133-0.114,0.4-0.114
	c0-0.038,0.095-0.057,0.286-0.057l0.058-0.058h0.058c0-0.037,0.343-0.133,1.03-0.286l0.229-0.115l0.058,0.058
	c0.305-0.076,0.458-0.134,0.458-0.172c-0.192-0.114-0.306-0.286-0.345-0.515c-0.038-0.038-0.056-0.134-0.056-0.287
	c-0.078,0-0.115-0.076-0.115-0.229c-0.038,0-0.153-0.095-0.343-0.286l0.057-0.058h0.229c0.037,0.076,0.21,0.153,0.516,0.229
	c0.306,0.229,0.459,0.363,0.459,0.401l0.057,0.229h-0.057v0.113l0.057,0.058c-0.077,0.078-0.114,0.153-0.114,0.229h0.058
	l0.171-0.058v0.058l0.458-0.172c0.076,0,0.115-0.267,0.115-0.802l-0.058-0.516v-0.114v-0.229V51.92
	c-0.038,0-0.134-0.075-0.286-0.229c-0.077,0-0.287,0.135-0.631,0.401c-0.114,0.038-0.248,0.096-0.4,0.172
	c-0.038,0-0.249-0.191-0.629-0.573c0-0.037,0.113-0.057,0.343-0.057h0.058c0.229,0,0.458-0.095,0.687-0.286l0.115-0.115h0.114
	c0.191,0,0.438-0.095,0.745-0.286l0.056-0.057h0.173h0.114c0.114-0.038,0.553-0.191,1.316-0.459c0-0.075,0.077-0.114,0.23-0.114
	c0.189-0.076,0.533-0.19,1.029-0.344C68.955,49.859,69.184,49.668,69.376,49.401z M68.975,46.365c0.42,0.078,0.63,0.23,0.63,0.459
	c-0.076,0.383-0.229,0.573-0.458,0.573c-0.153,0.113-0.307,0.171-0.459,0.171c0,0.115-0.152,0.229-0.458,0.344
	c-0.076,0.039-0.286,0.192-0.629,0.458c-0.038,0-0.096,0.039-0.173,0.114l-0.113,0.058c-0.191-0.076-0.325-0.172-0.401-0.286
	l-0.343-0.287c-0.115,0-0.211-0.075-0.287-0.229c-0.039,0-0.114,0.077-0.229,0.229c-0.269,0.078-0.422,0.173-0.459,0.287
	c-0.038,0.039-0.191,0.172-0.458,0.401c-0.038,0-0.153,0.076-0.344,0.229c-0.038,0-0.134,0.096-0.286,0.286
	c-0.114,0-0.343,0.172-0.688,0.516l-0.171-0.058l-0.173,0.115h-0.113l-0.058-0.058c0.037-0.075,0.171-0.209,0.401-0.4
	c0.571-0.649,0.973-1.24,1.202-1.776l0.171-0.113c-0.076-0.152-0.21-0.306-0.4-0.459v-0.114c0.038-0.076,0.114-0.152,0.229-0.229
	h0.229l0.173,0.171l0.285,0.172c0.076,0,0.21,0.039,0.401,0.115c0.267,0.076,0.4,0.21,0.4,0.401v0.229h0.115
	c0.266-0.152,0.648-0.344,1.146-0.573c0.189-0.114,0.418-0.229,0.687-0.344l0.516-0.286L68.975,46.365z M64.107,54.842h0.058
	c0.266,0.343,0.4,0.534,0.4,0.572l-0.058,0.229l0.058,0.173l-0.058,0.058v0.113c0,0.344-0.096,0.593-0.287,0.744
	c-0.267,0.192-0.42,0.287-0.457,0.287h-0.114l-0.058-0.057v-0.459c0.152-0.114,0.248-0.362,0.286-0.744
	c0.038,0,0.076-0.134,0.114-0.4c0.037-0.077,0.058-0.173,0.058-0.286v-0.115L64.107,54.842z M68.059,48.771l0.229,0.057h0.115
	l0.172,0.229v0.114c0,0.077-0.268,0.191-0.802,0.344c-0.039,0.039-0.172,0.097-0.401,0.172c-0.458,0.191-0.744,0.344-0.858,0.458
	h-0.115c-0.229-0.114-0.421-0.267-0.573-0.458V49.63c0.039-0.037,0.287-0.133,0.746-0.286c0-0.037,0.113-0.076,0.343-0.114
	c0.152-0.115,0.323-0.172,0.515-0.172C67.619,48.906,67.829,48.811,68.059,48.771z M67.601,51.176
	c0.38,0.115,0.667,0.269,0.858,0.459h-0.057v0.057l0.057,0.115c-0.114,0.153-0.285,0.344-0.516,0.572c0,0.039-0.191,0.172-0.572,0.4
	c0,0.078-0.096,0.173-0.286,0.287c0,0.077-0.058,0.114-0.172,0.114l-0.058-0.058c0.306-0.381,0.496-0.763,0.572-1.146
	c0.039,0,0.077-0.113,0.115-0.343h0.058c-0.115-0.115-0.173-0.229-0.173-0.344C67.467,51.216,67.523,51.176,67.601,51.176z
	 M67.199,54.727l1.03,0.229c0.229,0.229,0.382,0.439,0.458,0.63v0.172c-0.152,0.229-0.324,0.344-0.514,0.344h-0.058
	c-0.078,0-0.115-0.037-0.115-0.115c-0.191-0.152-0.343-0.4-0.458-0.744c-0.153-0.115-0.229-0.229-0.229-0.344
	c-0.039,0-0.096-0.057-0.172-0.172H67.199z"/>
<path d="M52.594,58.85h0.135h0.199c0.225,0.091,0.581,0.336,1.072,0.737c0.223,0,0.379,0.179,0.469,0.536
	c-0.18,0.401-0.401,0.602-0.669,0.602c-0.134,0.179-0.291,0.269-0.469,0.269c0,0.09-0.113,0.179-0.336,0.268
	c0,0.091-0.224,0.246-0.669,0.469c-0.091,0-0.158,0.067-0.201,0.201c-0.045,0-0.291,0.2-0.736,0.602l0.2,0.269
	c0,0.045,0.178,0.09,0.536,0.135c0,0.09,0.09,0.133,0.269,0.133c0,0.046,0.155,0.135,0.469,0.269v0.067
	c0,0.09-0.046,0.156-0.134,0.2v0.269v0.133v0.135c0,0.492-0.067,0.981-0.202,1.473l0.067,0.2l-0.067,0.269l0.067,0.067l-0.067,0.133
	v0.604l-0.067,0.334v0.202l-0.065,0.67v0.065l0.065,0.269c-0.045,0.225-0.065,0.358-0.065,0.402l0.065,0.201l-0.065,0.268
	l0.065,0.201c0,0.58-0.133,0.982-0.401,1.205c0,0.089-0.089,0.134-0.268,0.134h-0.067c-0.312-0.178-0.469-0.335-0.469-0.469
	l-0.066-0.134l0.066-0.268l-0.066-0.135l0.201-0.803v-0.469l0.067-0.067h-0.067v-0.067l0.133-0.469h-0.065l0.065-0.269v-0.401
	l0.135-0.536l-0.067-0.133l0.067-0.067l-0.067-0.269l0.067-0.267l-0.067-0.135l0.067-0.334l-0.067-0.135l0.067-0.401v-0.135
	l-0.067-0.065l0.067-0.469h-0.067v-0.336c0-0.178-0.022-0.356-0.067-0.536v-0.334l-0.268-0.401l0.067-0.135l-0.134-0.067
	c0,0.135-0.156,0.269-0.469,0.403c-0.18,0.179-0.446,0.379-0.804,0.602l-0.334,0.269c-0.226,0.268-0.469,0.401-0.737,0.401
	l-0.067-0.066v-0.067c0.312-0.223,0.536-0.424,0.67-0.604c0.089,0,0.155-0.088,0.2-0.267c0.09,0,0.312-0.223,0.67-0.671
	c0-0.088,0.402-0.512,1.205-1.271c0.045,0,0.178-0.2,0.403-0.604c0-0.043,0.065-0.11,0.2-0.2c0-0.043,0.09-0.11,0.269-0.201
	c0-0.044,0.021-0.067,0.065-0.067l-0.065-0.334l0.133-0.067h0.067V59.72l-0.067-0.133V59.52l-0.133-0.201v-0.067
	C52.438,59.028,52.504,58.896,52.594,58.85z M53.666,61.662H53.8c0.044,0.046,0.155,0.067,0.335,0.067
	c0,0.091,0.134,0.156,0.401,0.201c0,0.09,0.043,0.156,0.134,0.2c0,0.091,0.044,0.224,0.133,0.401v0.135v0.269h0.067
	c0-0.312,0.312-0.581,0.938-0.805l0.202-0.133c0.223,0.133,0.334,0.245,0.334,0.334c-0.09,0.18-0.246,0.268-0.469,0.268
	c0,0.091-0.09,0.135-0.268,0.135c-0.046,0.089-0.291,0.201-0.737,0.334l-0.067-0.133l-0.065,0.2l0.065,0.067v0.134l-0.065,0.067
	l0.065,0.065v0.403c0.045,0,0.067,0.045,0.067,0.133c0.178-0.133,0.469-0.29,0.87-0.469V63.47c0.225,0.135,0.38,0.226,0.469,0.269
	v0.067c-0.224,0.224-0.424,0.335-0.602,0.335c0,0.089-0.091,0.134-0.269,0.134c0,0.09-0.089,0.133-0.267,0.133
	c-0.092,0.135-0.18,0.226-0.27,0.269h-0.065v0.067l0.065,0.2l-0.065,0.067v0.134c-0.046,0.09-0.067,0.2-0.067,0.335v0.401
	c0,0.046,0.044,0.067,0.133,0.067l0.202-0.067l0.134,0.067c0-0.135,0.133-0.223,0.402-0.268l0.535-0.201l0.402,0.269v0.133
	c-0.18,0.224-0.426,0.336-0.738,0.336c0,0.09-0.312,0.224-0.938,0.401v0.067c0.09,0.045,0.135,0.111,0.135,0.2
	c0.09,0.045,0.135,0.091,0.135,0.134v0.067c0,0.045-0.067,0.09-0.202,0.133c0,0.091-0.112,0.247-0.334,0.469
	c-0.045,0.18-0.09,0.269-0.135,0.269c-0.536,0.536-1.026,0.916-1.474,1.139l-0.199,0.134h-0.067l-0.067-0.067l0.067-0.066h0.067
	c0-0.089,0.043-0.134,0.134-0.134c0.534-0.491,0.804-0.78,0.804-0.87s0.11-0.224,0.334-0.403l0.135-0.334h0.134v-0.2l0.065-0.269
	h-0.065h-0.067c-0.046,0-0.134,0.067-0.269,0.201L53.8,67.154c-0.179,0-0.336-0.112-0.469-0.336c-0.134-0.043-0.246-0.11-0.336-0.2
	v-0.067c0-0.043,0.29-0.11,0.87-0.201l0.067-0.067v-0.2v-0.201v-0.067l0.135-0.669L54,64.943v-0.268l0.067-0.134L54,64.407v-0.534
	v-0.269V63.47v-0.2v-0.201l-0.067-0.2v-0.067V62.6c0-0.044-0.022-0.178-0.067-0.401c-0.179-0.178-0.267-0.312-0.267-0.401v-0.067
	L53.666,61.662z M57.214,59.587c0.135,0,0.245,0.067,0.336,0.2l0.602,0.336c0.269,0,0.401,0.089,0.401,0.268
	c-0.044,0.224-0.179,0.492-0.401,0.803l-0.133,0.67l0.065,0.135l-0.133,0.401l0.067,0.067l-0.067,0.534v0.269v0.469v0.268v0.135
	v0.134v0.2v0.201v0.402v0.201v0.133c0,0.135-0.023,0.201-0.066,0.201v0.135v0.065v0.135l-0.067,0.067l0.067,0.201v0.065
	l-0.067,0.135v0.134c0,0.402-0.112,0.693-0.335,0.871c0,0.134-0.111,0.312-0.336,0.535v0.067c0.178,0.045,0.447,0.268,0.805,0.669
	l0.067,0.269c0,0.179-0.158,0.38-0.469,0.603c-0.358-0.134-0.627-0.424-0.805-0.871c-0.044-0.088-0.224-0.356-0.536-0.803v-0.067
	l-0.534-0.536V67.22c0-0.043,0.021-0.065,0.065-0.065l0.403,0.334c0.133,0,0.29,0.067,0.469,0.2l0.2,0.067v-0.067l-0.067-0.2h0.067
	v-0.066l-0.135-0.135v-0.469v-0.067v-0.267c0-0.223,0.045-0.357,0.135-0.402l-0.135-0.334l0.067-0.201l-0.067-0.135
	c0-0.178,0.045-0.268,0.135-0.268l-0.067-0.134l0.067-0.536l-0.067-0.669l0.067-0.067l-0.067-0.401l0.067-0.336l-0.067-0.065
	l0.067-0.269v-0.401l-0.067-0.268v-0.135l-0.067-0.269l0.067-0.065l-0.067-0.201l0.067-0.202l-0.067-0.267v-0.067l-0.267-0.067
	c0,0.046-0.313,0.135-0.938,0.269c-0.045,0.045-0.112,0.067-0.202,0.067h-0.133c0,0.133-0.066,0.2-0.201,0.2
	c-0.268-0.178-0.401-0.335-0.401-0.469c0.043-0.044,0.245-0.089,0.603-0.135l0.133-0.133v0.067h0.067l0.202-0.067h0.199l0.135-0.067
	h0.269c0.178-0.043,0.401-0.178,0.669-0.401C56.812,60.011,56.947,59.854,57.214,59.587z M58.889,62.198
	c0.133,0.134,0.29,0.246,0.469,0.334l0.335,0.336v1.606c0,0.135-0.023,0.269-0.067,0.401v0.202c-0.09,0.312-0.224,0.513-0.401,0.603
	l-0.202,0.133c-0.133,0-0.224-0.267-0.267-0.803c0.043-0.089,0.067-0.223,0.067-0.401l-0.067-0.202l0.134-0.469l-0.066-0.267h0.066
	l-0.066-0.202v-0.267l0.066-0.067h-0.066v-0.268l0.066-0.067c-0.046-0.043-0.091-0.201-0.134-0.469
	C58.798,62.243,58.843,62.198,58.889,62.198z M60.964,58.649h0.067c0.09,0,0.223,0.09,0.401,0.268l0.536,0.134
	c0.178,0,0.312,0.135,0.401,0.402l0.067,0.066v0.469c-0.179,0.358-0.268,0.669-0.268,0.938c-0.046,0-0.066,0.045-0.066,0.135v0.2
	v0.134v0.067v0.335v0.134v0.067v0.133v0.269l-0.067,0.2l0.067,0.269v0.133l-0.067,0.269l0.067,0.2l-0.067,0.269l0.067,0.335
	l-0.067,0.134l0.067,0.871l-0.067,0.134l0.067,0.2l-0.067,0.135c0.088,0,0.134,0.044,0.134,0.134l-0.066,0.067v0.065v0.336
	l0.066,0.268l-0.066,0.067l0.066,0.334l-0.066,0.269c0.088,0.09,0.155,0.626,0.199,1.606l0.067,0.201
	c-0.133,1.027-0.267,1.541-0.401,1.541l-0.334,0.334c0,0.135-0.067,0.201-0.202,0.201H61.3c-0.225,0-0.336-0.201-0.336-0.603
	l-0.334-0.603c-0.09,0-0.224-0.111-0.401-0.335c-0.091,0-0.202-0.089-0.335-0.269l0.065-0.066h0.135
	c0.044,0.09,0.223,0.157,0.536,0.201l0.134-0.067l0.2,0.067v-0.268l-0.067-0.201l0.135-0.202c-0.045,0-0.09-0.133-0.135-0.401
	l0.135-0.2l-0.135-0.067l0.067-0.334l-0.067-0.336l0.067-0.334l-0.067-0.067l0.067-0.604v-0.133c0.045,0,0.067-0.089,0.067-0.269
	h0.067h-0.067v-0.067l0.067-0.2l-0.067-0.269l0.067-0.065v-0.135v-0.134l-0.067-0.401l0.067-0.402l-0.067-0.334l0.067-0.269h-0.067
	l0.067-0.2V63.27c0-0.624-0.045-1.139-0.135-1.54l0.067-0.268l-0.135-1.206l0.067-0.334c0-0.044-0.133-0.179-0.401-0.402
	l-0.135-0.269C60.428,59.118,60.606,58.917,60.964,58.649z"/>
<path d="M64.77,68.514c0.546,0.273,1.162,0.445,1.846,0.511c0.545,0.41,0.819,0.718,0.819,0.923c0,0.549-0.171,0.819-0.511,0.819
	l-0.207,0.103c-0.205,0-0.409-0.065-0.615-0.203c-0.343,0-0.716-0.138-1.127-0.411c-0.07-0.066-0.205-0.136-0.411-0.206
	l-0.205-0.102h-0.203c-0.206-0.136-0.346-0.205-0.411-0.205c0-0.206-0.307-0.411-0.924-0.614l-0.102-0.104v-0.103
	c0-0.135,0.307-0.205,0.922-0.205l0.104-0.104l0.205,0.104C64.084,68.649,64.358,68.58,64.77,68.514z M68.463,71.793h0.1
	l0.104,0.104c-0.275,0.274-0.479,0.58-0.615,0.922c-0.068,0-0.24,0.275-0.513,0.82c-0.274,0.345-0.411,0.651-0.411,0.923v0.31
	c0,0.067-0.033,0.171-0.101,0.307v0.103v0.205c0.134,0.89,0.341,1.333,0.614,1.333l0.104,0.103v0.104l-0.104,0.102
	c0.273,0,0.477,0.138,0.615,0.41l0.104,0.206v0.203c0,0.205-0.104,0.41-0.309,0.617c0,0.137-0.137,0.24-0.41,0.307l-0.82-0.104
	h-0.104L66,77.945c-0.273-0.271-0.581-0.751-0.924-1.437c-0.068-0.065-0.239-0.442-0.513-1.127l0.206-0.102h0.512l0.207,0.102
	l1.023-1.026c0-0.065,0.309-0.443,0.923-1.127L68.463,71.793z M67.845,63.896c0.479,0,1.026,0.445,1.642,1.333l0.103,0.31v0.203
	c-0.206,0.548-0.409,0.82-0.615,0.82H68.77c0,0.071-0.036,0.104-0.104,0.104h-0.104c-0.615-0.547-0.958-0.924-1.024-1.127
	c-0.067,0-0.104-0.069-0.104-0.206c-0.204,0-0.341-0.17-0.408-0.513l-0.719-0.718V64c0-0.066,0.272-0.104,0.819-0.104L67.435,64
	C67.571,63.934,67.707,63.896,67.845,63.896z M78.203,60.514c0.135,0,0.272,0.137,0.409,0.41l0.103-0.104h0.104
	c0.065,0.205,0.477,0.411,1.23,0.614l0.206,0.719c-0.138,0.273-0.513,0.616-1.129,1.026c-0.069,0.137-0.308,0.409-0.718,0.82
	c0,0.206-0.205,0.549-0.615,1.025l0.101,0.102H78.1c0.207,0.139,0.342,0.343,0.412,0.615c-0.07,0.345-0.412,0.515-1.026,0.515
	c0,0.067-0.309,0.171-0.925,0.306c-0.067,0.071-0.408,0.205-1.023,0.412l-0.205-0.104c0,0.137-0.275,0.274-0.821,0.41
	c-0.068,0.139-0.171,0.205-0.307,0.205l-0.821-0.309l-0.205,0.104v0.308c-0.273,0.614-0.479,1.128-0.614,1.539
	c-0.14,0-0.206,0.203-0.206,0.614c-0.137,0-0.24,0.137-0.306,0.41l-0.104,0.309v0.205l-0.308,0.614c0,0.069-0.069,0.173-0.207,0.307
	c0,0.14-0.101,0.378-0.307,0.719c0,0.069-0.171,0.205-0.512,0.411l0.101,0.204l-0.307,0.616c-0.068,0-0.206,0.272-0.411,0.818
	c-0.547,0.346-0.855,0.687-0.921,1.026c-0.139,0-0.344,0.172-0.614,0.513l-0.516,0.411v-0.104l0.516-0.614
	c0.408-0.615,0.646-1.026,0.717-1.232c0.066-0.136,0.17-0.203,0.307-0.203v-0.309v-0.102c0.341-0.617,0.512-0.957,0.512-1.025
	l0.411-0.82l0.616-1.23c0.066-0.205,0.135-0.478,0.204-0.82c0.067,0,0.17-0.31,0.308-0.924h0.104v-0.309v-0.1
	c0.065-0.07,0.137-0.311,0.205-0.719c0.065,0,0.135-0.309,0.206-0.924c0.065,0,0.101-0.205,0.101-0.614
	c-0.068-0.479-0.172-0.718-0.307-0.718v-0.206c0-0.206,0.238-0.341,0.718-0.411c0.204,0,0.307,0.07,0.307,0.205h0.308
	c0.479,0.343,0.719,0.549,0.719,0.615c0,0.205,0.033,0.309,0.103,0.309h0.512l0.821-0.206h0.205
	c0.342-0.272,0.682-0.409,1.023-0.409c0.07,0,0.207-0.341,0.413-1.026V64l0.104-0.104l-0.104-0.205l0.104-0.307V63.18l-0.31-0.104
	c0,0.069-0.069,0.104-0.207,0.104l-0.306,0.205l-0.103-0.103l-0.205,0.206l-0.307-0.104l-0.104,0.307h-0.103h-0.103l-1.026,0.718
	h-0.102c-0.139-0.135-0.376-0.271-0.718-0.409c0-0.066-0.139-0.17-0.412-0.309l-0.408-0.409l-0.103-0.206l1.436-0.206l1.642-0.512
	l0.307,0.104c0.478-0.067,0.854-0.238,1.13-0.512c0-0.069,0.306-0.412,0.92-1.026C77.997,60.787,78.066,60.65,78.203,60.514z
	 M78.408,67.998l0.922,0.205l0.412,0.311v0.1l-0.412,0.309h-0.101l-1.13,0.614c-0.409,0.14-0.787,0.343-1.126,0.616
	c-0.139,0-0.343,0.103-0.616,0.309l-0.309,0.102c0,0.069,0.104,0.104,0.309,0.104c0.067,0.138,0.171,0.273,0.307,0.41v0.204
	c-0.069,0.069-0.104,0.173-0.104,0.307v0.104h0.31c0.135,0,0.239-0.068,0.307-0.207h0.104c0.067,0,0.103,0.037,0.103,0.103h0.103
	c0.067-0.134,0.135-0.203,0.205-0.203h0.203c0-0.068,0.104-0.104,0.31-0.104l0.205-0.204h0.104l0.101,0.102
	c0.479-0.066,0.89-0.205,1.231-0.411h0.411c0-0.204,0.102-0.306,0.308-0.306h0.204c0.067,0.137,0.444,0.408,1.128,0.819
	c0.206,0,0.41,0.173,0.615,0.513c-0.067,0.137-0.138,0.41-0.205,0.821c-0.068,0-0.138,0.342-0.204,1.024
	c-0.206,0.548-0.377,1.949-0.515,4.205c-0.136,0.752-0.375,1.333-0.718,1.743c-0.548,0.684-0.992,1.093-1.332,1.23
	c-0.206,0-0.307-0.241-0.307-0.718c-0.07,0-0.173-0.307-0.308-0.923c-0.138,0-0.275-0.169-0.41-0.514
	c-0.139,0-0.275-0.135-0.412-0.409c-0.137,0-0.206-0.034-0.206-0.104v-0.103l0.104-0.103c0.411,0.205,0.887,0.344,1.436,0.41
	c0.205-0.545,0.31-0.988,0.31-1.331c0.066,0,0.102-0.344,0.102-1.026h0.104l-0.104-0.41l0.104-0.41l-0.104-0.41l0.104-0.104
	l-0.104-0.205c0.067-0.204,0.136-0.547,0.205-1.023l0.103-0.104l-0.204-0.207l0.102-0.204l-0.102-0.204l0.102-0.206l-0.102-0.205
	l0.102-0.513h-0.513H79.33h-0.307h-0.102l-0.514,0.206l-0.102-0.103c-0.07,0-0.172,0.068-0.31,0.206l-0.41-0.104
	c-0.138,0.138-0.274,0.204-0.41,0.204H76.87l-0.513,0.103l0.102,0.205l-0.307,0.821l0.103,0.307c0,0.411-0.069,0.754-0.206,1.025
	l0.104,0.104v0.307l0.103,0.411l-0.103,0.717v0.207v0.1v0.31l-0.104,0.512v0.103c0,0.89-0.239,1.473-0.717,1.744
	c-0.138,0-0.205-0.103-0.205-0.308l0.103-0.206v-0.308v-0.102v-0.41v-0.616v-0.102v-0.205v-0.103v-0.513v-0.104v-1.641v-0.409V74.05
	v-0.308v-0.307l-0.103-0.207v-0.41v-0.102l-1.23,0.307c0,0.139-0.378,0.343-1.129,0.615c-0.069,0.139-0.204,0.205-0.41,0.205h-0.306
	c0.203,0.206,0.306,0.376,0.306,0.512l-0.103,0.309c0.068,0,0.136,0.344,0.205,1.027v0.101l0.104,0.41l-0.104,0.307
	c0.067,0.755,0.137,1.165,0.206,1.233l-0.103,0.102l0.103,0.204v0.103l-0.103,0.104l0.204,0.409
	c-0.069,0.479-0.24,0.718-0.513,0.718h-0.409l-0.309-0.615l0.104-0.307l-0.104-0.514v-0.102V77.33v-0.103l0.104-0.307l-0.104-0.204
	l0.104-0.104L71.537,76.1v-0.308l-0.104-0.204l0.104-0.103v-0.104l-0.104-0.204v-0.205c-0.137,0-0.238-0.342-0.307-1.025
	c-0.068,0-0.14-0.205-0.205-0.615l0.104-0.207l-0.104-0.307l0.205-0.102c0.068,0,0.206,0.137,0.41,0.408l0.205,0.104h0.104
	c0-0.066,0.206-0.135,0.614-0.205l0.614-0.205h0.207c0-0.066,0.305-0.17,0.923-0.308l0.102-0.104h0.205h0.102
	c0-0.135,0.036-0.204,0.104-0.204l0.206,0.103l0.205-0.103h0.205l-0.103-0.41l0.103-0.206l-0.103-0.203v-0.308
	c-0.138,0-0.308,0.066-0.514,0.204l-0.104-0.308l-0.307,0.104c-0.069-0.137-0.203-0.207-0.409-0.207
	c-0.274-0.341-0.549-0.614-0.822-0.82v-0.102l1.538-0.411l1.335-0.512v-0.103l0.102,0.103c0.342-0.138,0.615-0.272,0.821-0.411
	l1.437-0.615H78.408z M74.922,75.895l0.102,0.104l-1.024,1.229c-0.139,0.345-0.274,0.548-0.413,0.616
	c-0.135-0.068-0.203-0.17-0.203-0.308v0.103h-0.102l-0.615-0.513c0-0.136,0.17-0.205,0.512-0.205l0.104-0.103v0.103h0.102
	l0.514-0.512h0.103h0.104L74.922,75.895z M74.82,74.459v0.103c-0.071,0.206-0.31,0.411-0.718,0.616l-0.31,0.308
	c-0.207-0.137-0.445-0.205-0.719-0.205l-0.307-0.206c0.273-0.34,0.444-0.513,0.514-0.513h0.102c0-0.134,0.136-0.237,0.41-0.307
	c0-0.068,0.169-0.137,0.513-0.205L74.82,74.459z M78.612,72.717c0.206,0,0.444,0.137,0.718,0.408v0.311
	c0,0.273-0.204,0.408-0.615,0.408h-0.307l-0.205,0.206H78.1c-0.752-0.206-1.163-0.376-1.229-0.513v-0.102
	c0-0.069,0.104-0.138,0.307-0.207l0.309,0.104C77.485,73.265,77.861,73.06,78.612,72.717z M78.408,74.664
	c0.547,0,0.821,0.172,0.821,0.514l0.101,0.204c0,0.206-0.343,0.41-1.023,0.616c-0.275,0-0.616-0.17-1.026-0.513
	c-0.138,0-0.203-0.104-0.203-0.308C77.28,75.178,77.724,75.008,78.408,74.664z"/>
<ellipse fill="#C30D23" cx="77.341" cy="47.601" rx="4.758" ry="8"/>
<path fill="#FFFFFF" d="M77.431,43.098c-0.383,1.707-2.021,2.989-1.275,4.608c0.47-0.037,1.083,0.15,1.559,0.109
	c0.044,1.656-0.556,3.343-0.95,4.949"/>
</svg>
