<?xml version="1.0" encoding="utf-8"?>
<!-- Generator: Adobe Illustrator 16.0.0, SVG Export Plug-In . SVG Version: 6.00 Build 0)  -->
<!DOCTYPE svg PUBLIC "-//W3C//DTD SVG 1.1//EN" "http://www.w3.org/Graphics/SVG/1.1/DTD/svg11.dtd">
<svg version="1.1" id="Layer_1" xmlns="http://www.w3.org/2000/svg" xmlns:xlink="http://www.w3.org/1999/xlink" x="0px" y="0px"
	 width="126.877px" height="112.438px" viewBox="0 0 126.877 112.438" enable-background="new 0 0 126.877 112.438"
	 xml:space="preserve">
<rect fill="#FFFFFF" width="126.877" height="112.438"/>
<g>
	<g>
		<path fill="#1B4166" d="M48.777,62.057c-2.336,0-3.206-2.088-3.215-2.109c-0.086-0.263-1.797-4.212-2.69-6.217l-2.275-4.629h-0.06
			l-0.049-0.054c-0.06-0.18-1.305-2.311-2.273-3.498c-1.184-1.452-1.253-3.13-1.256-3.202c0.183-6.646,5.33-8.068,5.382-8.082
			c0.393-0.113,0.78-0.165,1.151-0.165c3.33,0,4.523,4.634,4.535,4.681c0.854,2.893,0.729,4.402,0.724,4.467l0.135,1.85
			c0.093,1.423,1.898,6.174,1.917,6.223l2.406,4.937c1.628,3.237-1.538,4.933-1.57,4.95C50.606,61.771,49.643,62.057,48.777,62.057
			L48.777,62.057z"/>
		<path fill="#FFFFFF" d="M43.492,34.231c3.271,0,4.414,4.583,4.414,4.583c0.858,2.908,0.721,4.423,0.721,4.423l0.134,1.87
			c0.096,1.457,1.925,6.258,1.925,6.258l2.411,4.946c1.592,3.166-1.516,4.784-1.516,4.784c-1.114,0.608-2.041,0.836-2.804,0.836
			c-2.278,0-3.099-2.031-3.099-2.031c-0.107-0.328-2.692-6.129-2.692-6.129l-2.45-4.887l0.091,0.275c0,0-0.006-0.018-0.021-0.061
			c-0.07-0.215-1.348-2.422-2.295-3.583c-1.17-1.437-1.228-3.149-1.228-3.149c0.182-6.623,5.289-7.969,5.289-7.969
			C42.771,34.283,43.144,34.231,43.492,34.231 M43.492,33.981c-0.383,0-0.782,0.06-1.188,0.177c-0.047,0.013-5.285,1.47-5.47,8.202
			c0.003,0.089,0.074,1.829,1.283,3.314c0.936,1.146,2.179,3.306,2.252,3.505c0.02,0.058,0.052,0.152,0.136,0.2l2.258,4.504
			c1.032,2.316,2.603,5.862,2.679,6.095c0.015,0.037,0.917,2.203,3.336,2.203c0.887,0,1.87-0.292,2.924-0.866
			c0.028-0.016,3.302-1.769,1.619-5.116l-2.41-4.943c-0.009-0.027-1.808-4.762-1.9-6.165l-0.134-1.871
			c0.006-0.023,0.132-1.556-0.729-4.476C48.101,38.559,46.92,33.981,43.492,33.981L43.492,33.981z"/>
	</g>
	<g>
		<path fill="#4AB2BC" d="M44.801,55.128c-1.929,0-3.562-3.985-3.631-4.155c-0.598-1.195-0.86-2.585-0.871-2.644
			c-0.316-3.334,2.37-7.86,2.726-8.442c-0.21-0.498-0.255-1.115-0.134-1.342c0.086-0.162,0.224,0.557,0.239-0.443
			c0.017,0,0.032,0,0.048,0c0.204,0,0.316,0.301,0.404,0.394c0.226,0.237,0.253,0.816,0.253,1.022
			c4.579,1.357,5.96,4.867,5.973,4.902l0.673,2.558c0.601,2.227,0.354,3.95,0.343,4.021c0.072,1.133-0.09,1.94-0.482,2.358
			c-0.249,0.265-0.514,0.289-0.59,0.289c-0.332-0.032-0.567-0.16-0.729-0.386c-0.41-0.566-0.201-1.537-0.192-1.579l0.923-2.484
			c0.318-0.453,0.118-1.548,0.016-1.935c-0.777-3.154-5.054-4.892-5.739-5.151c-3.12,4.938-2.444,7.726-2.437,7.753
			c1.042,2.285,3.099,3.278,3.119,3.288c0.433,0.098,0.754,0.311,0.931,0.624c0.261,0.462,0.102,0.966,0.095,0.987
			C45.406,55.026,45.107,55.128,44.801,55.128L44.801,55.128z"/>
		<path fill="#FFFFFF" d="M43.229,38.715c0.535,0,0.479,1.02,0.479,1.02c4.647,1.337,5.983,4.792,5.983,4.792l0.668,2.515
			c0.601,2.228,0.34,3.743,0.34,3.743c0.15,2.438-0.805,2.317-0.948,2.317c-0.011,0-0.018,0-0.018,0
			c-1.156,0-0.782-1.604-0.782-1.604l0.918-2.361c0.404-0.566,0.02-1.959,0.02-1.959c-0.867-3.52-5.912-5.245-5.912-5.245
			c-3.257,5.109-2.506,7.95-2.506,7.95c1.082,2.377,3.187,3.376,3.187,3.376c1.333,0.311,0.96,1.462,0.96,1.462
			c-0.274,0.195-0.548,0.28-0.816,0.28c-1.867,0-3.515-4.076-3.515-4.076c-0.602-1.202-0.864-2.618-0.864-2.618
			c-0.33-3.48,2.743-8.409,2.743-8.409c-0.479-1.091-0.013-1.176-0.013-1.176C43.179,38.717,43.204,38.715,43.229,38.715
			 M43.229,38.465c-0.037,0-0.076,0.004-0.116,0.01c-0.106,0.02-0.246,0.098-0.332,0.26c-0.137,0.256-0.103,0.631,0.104,1.143
			c-0.466,0.771-3.022,5.18-2.712,8.453c0.015,0.081,0.279,1.488,0.89,2.707c0.062,0.155,1.727,4.216,3.738,4.216
			c0.333,0,0.656-0.108,0.961-0.324l0.067-0.048l0.026-0.079c0.007-0.023,0.182-0.578-0.105-1.087
			c-0.19-0.338-0.529-0.568-1.007-0.686c-0.22-0.111-2.073-1.102-3.045-3.236l0,0c0.004,0-0.633-2.714,2.381-7.528
			c0.903,0.354,4.835,2.054,5.566,5.025c0.139,0.521,0.265,1.465,0.021,1.807l-0.02,0.027l-0.012,0.031l-0.918,2.468
			c-0.02,0.076-0.239,1.266,0.203,1.877c0.182,0.252,0.454,0.602,0.788,0.602c0.004,0,0.008,0,0.013,0
			c0.158,0,0.442-0.201,0.711-0.486c0.414-0.441,0.589-1.346,0.519-2.527c0.032-0.239,0.224-1.943-0.35-4.071l-0.668-2.534
			c-0.063-0.169-1.408-3.533-5.975-4.924c-0.01-0.248-0.062-0.661-0.285-0.896C43.554,38.536,43.4,38.465,43.229,38.465
			L43.229,38.465z"/>
	</g>
	<g>
		<path fill="#1B4166" d="M82.088,62.057c-0.865,0-1.829-0.286-2.863-0.852c-0.03-0.016-3.196-1.711-1.566-4.95l2.409-4.944
			c0.014-0.038,1.819-4.79,1.912-6.211l0.135-1.871c-0.005-0.043-0.13-1.552,0.726-4.449c0.011-0.042,1.203-4.673,4.533-4.673
			c0.371,0,0.759,0.058,1.154,0.172c0.049,0.013,5.197,1.445,5.38,8.085c-0.003,0.08-0.072,1.78-1.257,3.232
			c-0.964,1.182-2.213,3.362-2.273,3.543l-0.037,0.006l-2.349,4.683c-0.891,2-2.602,5.857-2.686,6.112
			C85.294,59.969,84.423,62.057,82.088,62.057z"/>
		<path fill="#FFFFFF" d="M87.373,34.231c0.349,0,0.721,0.052,1.119,0.167c0,0,5.108,1.346,5.29,7.969c0,0-0.058,1.713-1.229,3.149
			c-0.947,1.161-2.224,3.368-2.295,3.583c-0.015,0.043-0.02,0.061-0.02,0.061c-0.001,0,0.091-0.275,0.091-0.275l-2.45,4.887
			c0,0-2.585,5.801-2.693,6.129c0,0-0.821,2.031-3.099,2.031c-0.764,0-1.689-0.228-2.804-0.836c0,0-3.107-1.618-1.515-4.784
			l2.41-4.946c0,0,1.829-4.801,1.925-6.258l0.135-1.87c0,0-0.138-1.515,0.721-4.423C82.96,38.814,84.102,34.232,87.373,34.231
			 M87.374,33.981L87.374,33.981c-3.428,0.001-4.608,4.577-4.656,4.772c-0.859,2.91-0.733,4.442-0.728,4.506l-0.135,1.83
			c-0.093,1.404-1.892,6.139-1.909,6.187l-2.401,4.926c-1.683,3.345,1.591,5.098,1.624,5.115c1.049,0.572,2.032,0.864,2.919,0.864
			c2.418,0,3.321-2.166,3.33-2.188c0.083-0.247,1.653-3.794,2.69-6.121l2.142-4.271l0.072,0.1l0.154-0.464l0.02-0.061
			c0.073-0.197,1.319-2.361,2.251-3.503c1.211-1.485,1.282-3.226,1.285-3.3c-0.185-6.747-5.424-8.204-5.477-8.219
			C88.155,34.041,87.756,33.981,87.374,33.981L87.374,33.981z"/>
	</g>
	<g>
		<path fill="#4AB2BC" d="M86.065,55.128c-0.308,0-0.606-0.102-0.89-0.302c-0.054-0.084-0.212-0.588,0.049-1.05
			c0.177-0.313,0.498-0.525,0.956-0.633c-0.005-0.001,2.052-0.994,3.101-3.299c0,0,0.677-2.795-2.443-7.733
			c-0.686,0.26-4.962,1.997-5.738,5.149c-0.104,0.389-0.305,1.484-0.002,1.909l0.934,2.496c0.014,0.059,0.223,1.258-0.187,1.823
			c-0.163,0.226-0.398,0.612-0.699,0.612c-0.003,0-0.006,0-0.009,0c-0.11,0-0.369-0.252-0.611-0.51
			c-0.393-0.418-0.556-1.331-0.483-2.49c-0.01-0.045-0.258-1.81,0.342-4.036l0.67-2.543c0.018-0.048,1.399-3.509,5.978-4.866
			c0-0.207,0.027-0.669,0.253-0.906c0.095-0.101,0.217-0.156,0.354-0.156c0.114,0.012,0.252,0.039,0.338,0.201
			c0.121,0.228,0.076,0.595-0.134,1.093c0.355,0.582,3.041,5.108,2.727,8.431c-0.012,0.07-0.274,1.459-0.878,2.663
			C89.626,51.143,87.994,55.128,86.065,55.128z"/>
		<path fill="#FFFFFF" d="M87.638,38.715c0.024,0,0.05,0.002,0.076,0.007c0,0,0.466,0.085-0.013,1.176c0,0,3.072,4.929,2.743,8.409
			c0,0-0.263,1.417-0.865,2.619c0,0-1.647,4.077-3.515,4.077c-0.269,0-0.542-0.084-0.816-0.278c0,0-0.372-1.148,0.961-1.459
			c0,0,2.104-0.992,3.187-3.369c0,0,0.751-2.828-2.506-7.938c0,0-5.045,1.752-5.911,5.271c0,0-0.387,1.445,0.018,2.012l0.918,2.256
			c0,0,0.374,1.604-0.781,1.604c0,0-0.006,0-0.018,0c-0.145,0-1.1,0.12-0.948-2.317c0,0-0.262-1.622,0.338-3.849l0.67-2.462
			c0,0,1.337-3.429,5.983-4.766C87.158,39.708,87.103,38.715,87.638,38.715 M87.638,38.465L87.638,38.465
			c-0.172,0-0.325,0.066-0.444,0.192c-0.223,0.235-0.275,0.644-0.285,0.891c-4.565,1.391-5.911,4.744-5.967,4.888l-0.678,2.541
			c-0.572,2.126-0.38,3.789-0.348,4.029c-0.07,1.182,0.104,2.004,0.518,2.444c0.275,0.293,0.568,0.325,0.682,0.325
			c0.376-0.036,0.648-0.188,0.83-0.439c0.442-0.61,0.223-1.637,0.213-1.68l-0.928-2.501l-0.012-0.031l-0.02-0.027
			c-0.243-0.342-0.116-1.286,0.021-1.802c0.732-2.976,4.664-4.676,5.567-5.03c3.021,4.825,2.373,7.542,2.366,7.568
			c-0.958,2.097-2.811,3.085-3.03,3.196c-0.478,0.117-0.816,0.348-1.008,0.686c-0.287,0.509-0.112,1.063-0.105,1.087l0.026,0.079
			l0.067,0.048c0.305,0.216,0.628,0.324,0.961,0.324c2.013,0,3.677-4.061,3.746-4.233c0.604-1.201,0.869-2.608,0.88-2.667
			c0.312-3.295-2.243-7.704-2.709-8.476c0.207-0.512,0.241-0.887,0.104-1.143c-0.086-0.162-0.226-0.24-0.327-0.259
			C87.713,38.469,87.675,38.465,87.638,38.465L87.638,38.465z"/>
	</g>
</g>
<g>
	<g>
		<g>
			<g>
				<path fill="#BAC1C3" d="M86.946,64.622c-0.379-0.732-0.49-1.647-0.521-2.025l3.43,1.025l-2.597,1.045l-0.249,0.071
					C86.987,64.7,86.966,64.662,86.946,64.622z"/>
				<path fill="#FFFFFF" d="M86.567,62.77l2.909,0.87l-2.24,0.903L87.07,64.59c-0.005-0.008-0.009-0.017-0.014-0.025
					C86.739,63.951,86.615,63.201,86.567,62.77 M86.289,62.426c0,0,0.039,1.273,0.546,2.254c0.036,0.07,0.075,0.138,0.114,0.205
					l0.355-0.102l2.928-1.179L86.289,62.426L86.289,62.426z"/>
			</g>
		</g>
		<g>
			<g>
				<path fill="#BAC1C3" d="M91.836,69.464c0.049-0.625,0.148-2.89-0.644-6.012l-0.018-0.069l-4.026-1.218
					c3.392-0.671,5.998-2.664,6.612-3.165c0.214,0.591,0.894,2.698,0.507,4.631c0.594,1.607,2.721,2.398,3.39,2.61
					C97.114,66.793,94.993,68.768,91.836,69.464z"/>
				<path fill="#FFFFFF" d="M93.702,59.21c0.252,0.745,0.793,2.646,0.443,4.396l-0.015,0.07l0.026,0.067
					c0.558,1.468,2.435,2.264,3.267,2.552c-0.691,0.668-2.644,2.342-5.45,3.008c0.052-0.807,0.085-2.945-0.66-5.883l-0.034-0.137
					l-0.136-0.041l-3.497-1.058C90.656,61.476,92.933,59.824,93.702,59.21 M93.815,58.791c0,0-3.061,2.708-7.206,3.342l4.462,1.35
					c0.937,3.694,0.624,6.139,0.624,6.139c3.852-0.785,6.192-3.441,6.192-3.441s-2.826-0.758-3.497-2.524
					C94.856,61.326,93.815,58.791,93.815,58.791L93.815,58.791z"/>
			</g>
		</g>
		<g>
			<g>
				<path fill="#BAC1C3" d="M65.592,77.482c-14.026-0.029-24.063-4.121-24.894-4.47c-1.086-4.062-0.21-8.157-0.019-8.954
					c1.265,0.522,11.188,4.428,24.912,4.456c13.724-0.028,23.646-3.934,24.911-4.456c0.191,0.797,1.068,4.893-0.019,8.954
					C89.654,73.361,79.618,77.453,65.592,77.482L65.592,77.482z"/>
				<path fill="#FFFFFF" d="M90.414,64.229c0.237,1.045,0.969,4.878-0.035,8.691c-1.142,0.474-11.04,4.407-24.787,4.437
					c-13.74-0.029-23.646-3.963-24.788-4.437c-1.002-3.813-0.272-7.646-0.035-8.691c1.733,0.7,11.491,4.383,24.823,4.41
					C78.924,68.612,88.682,64.93,90.414,64.229 M90.589,63.887c0,0-10.222,4.473-24.997,4.503
					c-14.775-0.03-24.998-4.503-24.998-4.503s-1.255,4.607,0,9.217c0,0,10.223,4.473,24.998,4.504
					c14.775-0.031,24.997-4.504,24.997-4.504C91.845,68.494,90.589,63.887,90.589,63.887L90.589,63.887z"/>
			</g>
		</g>
		<g>
			<g>
				<path fill="#BAC1C3" d="M43.913,64.663l-2.581-1.041l3.426-1.025c-0.031,0.378-0.143,1.293-0.521,2.025
					c-0.02,0.04-0.041,0.078-0.062,0.116L43.913,64.663z"/>
				<path fill="#FFFFFF" d="M44.615,62.77c-0.048,0.432-0.173,1.183-0.49,1.799c-0.004,0.008-0.008,0.016-0.012,0.022l-0.141-0.04
					L41.71,63.64L44.615,62.77 M44.894,62.426h0.005H44.894z M44.894,62.426l-3.939,1.179l2.925,1.179l0.354,0.102
					c0.04-0.067,0.08-0.135,0.115-0.205C44.854,63.699,44.894,62.426,44.894,62.426L44.894,62.426z"/>
			</g>
		</g>
		<g>
			<g>
				<path fill="#BAC1C3" d="M39.348,69.464c-3.159-0.697-5.278-2.671-5.821-3.223c0.668-0.211,2.794-0.993,3.384-2.541
					c-0.383-1.992,0.298-4.108,0.512-4.7c0.614,0.501,3.222,2.494,6.612,3.165l-4.026,1.218l-0.018,0.069
					C39.198,66.574,39.298,68.839,39.348,69.464z"/>
				<path fill="#FFFFFF" d="M37.48,59.21c0.771,0.614,3.047,2.266,6.056,2.976l-3.497,1.058l-0.136,0.041l-0.034,0.137
					c-0.745,2.938-0.711,5.076-0.659,5.883c-2.807-0.666-4.759-2.34-5.45-3.008c0.831-0.288,2.708-1.084,3.267-2.552l0.026-0.067
					l-0.015-0.07C36.688,61.856,37.229,59.955,37.48,59.21 M37.367,58.791c0,0-1.041,2.535-0.574,4.864
					c-0.673,1.767-3.497,2.524-3.497,2.524s2.342,2.656,6.192,3.441c0,0-0.313-2.444,0.623-6.139l4.462-1.35
					C40.43,61.499,37.367,58.791,37.367,58.791L37.367,58.791z"/>
			</g>
		</g>
	</g>
</g>
<g>
	<polygon fill="#F7D49B" points="55.998,53.652 57.787,50.484 55.998,47.318 75.185,47.318 73.395,50.484 75.185,53.652 	"/>
	<path fill="#FFFFFF" d="M74.971,47.443l-1.72,3.041l1.72,3.043H56.212l1.719-3.043l-1.719-3.041H74.971 M75.399,47.193h-0.429
		H56.212h-0.429l0.211,0.373l1.649,2.918l-1.649,2.92l-0.211,0.373h0.429h18.759h0.429l-0.211-0.373l-1.65-2.92l1.65-2.918
		L75.399,47.193L75.399,47.193z"/>
</g>
<g>
	<circle fill="#FFFFFF" cx="45.364" cy="70.95" r="1.261"/>
	<circle fill="#FFFFFF" cx="85.819" cy="70.95" r="1.261"/>
</g>
<g>
	<path fill="#1B4166" d="M65.592,66.812c-2.165,0-3.927-1.761-3.927-3.926c0-2.166,1.762-3.928,3.927-3.928s3.926,1.762,3.926,3.928
		C69.518,65.052,67.757,66.812,65.592,66.812z"/>
	<path fill="#FFFFFF" d="M65.592,59.084c2.1,0,3.801,1.703,3.801,3.803s-1.701,3.801-3.801,3.801s-3.802-1.701-3.802-3.801
		S63.492,59.084,65.592,59.084 M65.592,58.834c-2.234,0-4.052,1.818-4.052,4.053c0,2.233,1.817,4.051,4.052,4.051
		c2.233,0,4.051-1.817,4.051-4.051C69.643,60.652,67.825,58.834,65.592,58.834L65.592,58.834z"/>
</g>
<g>
	<rect x="59.092" y="50.18" fill="#1B4166" width="3.401" height="0.609"/>
	<rect x="68.814" y="50.18" fill="#1B4166" width="3.402" height="0.609"/>
</g>
<g>
	<path fill="#4AB2BC" d="M54.779,45.4c-0.232-0.377-0.514-0.748-0.837-1.102l-0.11-0.121l0.146-0.074
		c2.811-1.434,4.34-3.659,4.544-6.614c0.06-0.716,0.09-1.616,0.09-2.678v-0.125h1.644l-0.057,0.165
		c-0.012,0.034-0.038,0.176-0.038,0.766c-0.03,0.365-0.045,0.629-0.045,0.807c0.264,3.803,1.865,6.344,4.76,7.542l0.166,0.068
		l-0.122,0.132c-0.38,0.407-0.677,0.778-0.883,1.102l-0.062,0.097l-0.103-0.054c-2.365-1.252-3.85-3.045-4.42-5.334
		c-0.575,2.27-2.088,4.106-4.506,5.468l-0.104,0.059L54.779,45.4z"/>
	<path fill="#FFFFFF" d="M60.081,34.812c-0.03,0.089-0.045,0.358-0.045,0.806c-0.03,0.359-0.045,0.627-0.045,0.807
		c0.269,3.881,1.881,6.434,4.837,7.657c-0.389,0.417-0.688,0.791-0.896,1.119c-2.537-1.343-4.029-3.284-4.478-5.821
		c-0.448,2.508-1.971,4.494-4.568,5.956c-0.239-0.389-0.522-0.761-0.851-1.12c2.866-1.462,4.403-3.701,4.612-6.717
		c0.06-0.717,0.09-1.611,0.09-2.687H60.081 M60.081,34.562h-1.344h-0.25v0.25c0,1.059-0.03,1.955-0.089,2.666
		c-0.202,2.911-1.708,5.103-4.477,6.515l-0.293,0.148l0.222,0.242c0.317,0.349,0.594,0.713,0.822,1.083l0.126,0.205l0.21-0.118
		c2.294-1.291,3.784-3.008,4.443-5.113c0.651,2.119,2.114,3.792,4.362,4.981l0.204,0.108l0.124-0.195
		c0.201-0.316,0.494-0.681,0.868-1.082l0.246-0.264l-0.333-0.139c-2.848-1.178-4.423-3.683-4.684-7.443
		c0.001-0.156,0.016-0.421,0.045-0.768c0.001-0.608,0.027-0.729,0.033-0.748l0.094-0.32L60.081,34.562L60.081,34.562z"/>
</g>
<g>
	<path fill="#4AB2BC" d="M66.458,45.012v-1.279h4.881v-2.168h-3.851v-1.415h3.851v-1.944h-2.571
		c-0.267,0.578-0.636,1.192-1.098,1.829l-0.072,0.1l-0.101-0.07c-0.293-0.203-0.665-0.427-1.107-0.664l-0.132-0.07l0.093-0.117
		c0.881-1.115,1.582-2.474,2.084-4.036l0.033-0.104l1.503,0.27l-0.046,0.137c-0.154,0.468-0.324,0.908-0.506,1.313h1.92v-2.238
		h1.504v2.238h3.896v1.414h-3.896v1.944h3.537v1.415h-3.537v2.168h4.478v1.279H66.458z"/>
	<path fill="#FFFFFF" d="M72.718,34.678v2.238h3.896v1.164h-3.896v2.194h3.537v1.165h-3.537v2.418h4.478v1.029H66.583v-1.029h4.881
		v-2.418h-3.851v-1.165h3.851V38.08h-2.776c-0.269,0.598-0.643,1.225-1.119,1.881c-0.299-0.208-0.672-0.432-1.12-0.672
		c0.896-1.134,1.597-2.492,2.105-4.075l1.253,0.225c-0.179,0.538-0.373,1.03-0.582,1.478h2.239v-2.238H72.718 M72.968,34.428h-0.25
		h-1.254h-0.25v0.25v1.988H69.61c0.154-0.359,0.299-0.744,0.434-1.148l0.091-0.274l-0.284-0.051l-1.253-0.225l-0.215-0.038
		l-0.067,0.208c-0.497,1.548-1.191,2.893-2.063,3.996l-0.185,0.234l0.263,0.142c0.407,0.218,0.755,0.424,1.033,0.613v0.151v1.165
		v0.25h0.25h3.601v1.918h-4.631h-0.25v0.25v1.029v0.25h0.25h10.612h0.25v-0.25v-1.029v-0.25h-0.25h-4.228v-1.918h3.287h0.25v-0.25
		v-1.165v-0.25h-0.25h-3.287V38.33h3.646h0.25v-0.25v-1.164v-0.25h-0.25h-3.646v-1.988V34.428L72.968,34.428z M68.848,38.33h2.366
		v1.694h-3.383C68.251,39.438,68.592,38.869,68.848,38.33L68.848,38.33z"/>
</g>
<g>
	<g>
		<path fill="#1B4166" d="M59.9,56.777c-0.405-0.105-0.714-0.225-0.925-0.357c-0.221,0.133-0.551,0.265-0.991,0.396
			c-0.035-0.105-0.079-0.211-0.132-0.316c0.334-0.07,0.617-0.167,0.846-0.291c-0.132-0.123-0.251-0.268-0.356-0.436
			c-0.071,0.098-0.159,0.198-0.265,0.304l-0.119-0.238c-0.22,0.345-0.44,0.661-0.661,0.951l0.556-0.052c0,0,0,0.018,0,0.026
			c-0.018,0.079-0.026,0.171-0.026,0.277c-0.396,0.035-0.688,0.065-0.872,0.093l-0.105-0.291l0.013-0.014
			c0.089-0.07,0.154-0.137,0.199-0.198c0.043-0.062,0.105-0.154,0.185-0.277c0.044-0.07,0.079-0.124,0.105-0.158
			c-0.177,0.009-0.335,0.022-0.476,0.039l-0.092-0.29c0.07-0.062,0.123-0.133,0.158-0.212c0.167-0.281,0.316-0.572,0.448-0.872
			l0.345,0.119c-0.062,0.098-0.146,0.238-0.252,0.423c-0.141,0.237-0.247,0.409-0.316,0.515l0.369-0.012
			c0.019-0.027,0.04-0.067,0.066-0.119c0.053-0.088,0.092-0.15,0.119-0.186l0.264,0.132c0.256-0.272,0.437-0.559,0.542-0.858
			l0.356,0.053c-0.053,0.088-0.101,0.181-0.145,0.277h1.083v0.305c-0.185,0.325-0.37,0.559-0.555,0.699
			c0.202,0.115,0.449,0.198,0.739,0.252c-0.009,0.008-0.018,0.026-0.026,0.052C59.944,56.619,59.918,56.707,59.9,56.777z
			 M56.849,57.86l-0.053-0.304c0.211-0.025,0.572-0.074,1.083-0.145c-0.009,0.105-0.013,0.207-0.013,0.304
			C57.505,57.76,57.166,57.809,56.849,57.86z M59.637,58.02c-0.714-0.186-1.247-0.304-1.599-0.357l0.105-0.316
			c0.22,0.044,0.572,0.123,1.057,0.237c0.237,0.053,0.414,0.088,0.528,0.106L59.637,58.02z M59.504,57.332
			c-0.309-0.097-0.687-0.193-1.137-0.29l0.093-0.304c0.212,0.043,0.494,0.105,0.846,0.185c0.132,0.035,0.233,0.062,0.304,0.079
			L59.504,57.332z M59.438,55.51h-0.885h-0.014c0.124,0.211,0.27,0.387,0.437,0.527C59.169,55.888,59.323,55.711,59.438,55.51z"/>
	</g>
	<g>
		<path fill="#1B4166" d="M61.824,55.826V55.51h0.383v-0.608h0.317v0.608h0.343v0.316h-0.343v0.304
			c0.158,0.105,0.308,0.225,0.449,0.357l-0.158,0.29c-0.036-0.026-0.084-0.07-0.146-0.132c-0.062-0.062-0.11-0.106-0.146-0.133
			v1.533h-0.317v-1.52c-0.114,0.3-0.233,0.551-0.356,0.753c-0.035-0.193-0.07-0.344-0.105-0.449
			c0.193-0.299,0.339-0.634,0.436-1.004H61.824z M63.37,58.046c-0.08-0.142-0.15-0.243-0.212-0.304c0.3-0.142,0.547-0.3,0.74-0.477
			c-0.193-0.246-0.344-0.52-0.449-0.818c-0.044,0.581-0.247,1.096-0.607,1.546c-0.018-0.026-0.053-0.075-0.106-0.146
			c-0.053-0.062-0.093-0.11-0.119-0.146c0.388-0.396,0.573-1.044,0.556-1.942l0.013-0.383H62.92v-0.316h1.679v0.343l-0.29,0.542
			h0.527v0.355c-0.141,0.406-0.304,0.728-0.488,0.965c0.176,0.15,0.387,0.287,0.635,0.41c-0.062,0.105-0.129,0.215-0.199,0.33
			c-0.265-0.176-0.48-0.339-0.647-0.488C63.925,57.693,63.669,57.869,63.37,58.046z M64.255,55.377h-0.753v0.369
			c0.141,0.538,0.343,0.961,0.607,1.27c0.158-0.212,0.282-0.459,0.37-0.74h-0.516v-0.33L64.255,55.377z"/>
	</g>
	<g>
		<path fill="#1B4166" d="M67.116,58.032v-2.985h2.511v2.985h-0.37v-0.224h-1.783v0.224H67.116z M67.474,55.363v0.516h1.783v-0.516
			H67.474z M67.474,56.184v0.501h1.783v-0.501H67.474z M67.474,56.988v0.516h1.783v-0.516H67.474z"/>
	</g>
	<g>
		<path fill="#1B4166" d="M71.801,55.826v-0.304h0.384v-0.635h0.331v0.635h0.343v0.304h-0.343v0.502l0.104-0.119
			c0.132,0.124,0.26,0.252,0.384,0.383l-0.211,0.252c-0.089-0.114-0.182-0.225-0.277-0.331v1.533h-0.331v-1.493
			c-0.098,0.256-0.216,0.498-0.356,0.727c-0.009-0.026-0.019-0.066-0.027-0.119c-0.026-0.176-0.048-0.295-0.065-0.356
			c0.193-0.272,0.343-0.599,0.449-0.978H71.801z M73.03,57.702c-0.044-0.026-0.133-0.066-0.265-0.119
			c-0.018-0.009-0.03-0.013-0.039-0.013c0.193-0.344,0.356-0.683,0.488-1.018l0.317,0.105c-0.079,0.176-0.198,0.428-0.356,0.754
			C73.113,57.543,73.064,57.641,73.03,57.702z M72.911,56.301v-0.316h2.034v0.316h-0.858v1.322c0.009,0.246-0.128,0.374-0.409,0.383
			c-0.053,0-0.119,0.004-0.198,0.014c-0.079,0-0.141,0-0.186,0c-0.018-0.106-0.039-0.221-0.065-0.344c0.097,0,0.203,0,0.316,0
			c0.142,0.009,0.207-0.049,0.199-0.172v-1.203H72.911z M73.043,55.403v-0.317H74.8v0.317H73.043z M74.668,57.676
			c-0.132-0.317-0.277-0.652-0.436-1.004l0.304-0.119c0.035,0.079,0.088,0.198,0.159,0.356c0.123,0.282,0.22,0.503,0.29,0.661
			L74.668,57.676z"/>
	</g>
</g>
<text transform="matrix(1 0 0 1 63.1641 51.332)" fill="#1B4166" font-family="'Helvetica'" font-size="2.7831">Der</text>
<path fill="#FFFFFF" d="M55.551,71.67c-0.835,0.068-1.645,0.128-2.429,0.162c-0.009,0.29-0.009,0.588-0.009,0.878
	c0.461,0.017,0.963,0.051,1.509,0.103c0,0.178-0.034,0.34-0.085,0.477c-0.589,0-1.065-0.018-1.432-0.068
	c-0.009,0.316-0.017,0.631-0.017,0.955c-0.068,0.025-0.18,0.033-0.316,0.033c-0.136,0-0.238-0.025-0.289-0.076
	c0-0.938,0.008-1.696,0.025-2.275c-0.912,0.043-1.799,0.06-2.658,0.06c-0.035-0.153-0.052-0.315-0.052-0.485
	c0.818-0.051,1.653-0.103,2.506-0.146v-1.201c-0.623-0.017-1.236-0.051-1.841-0.085v-0.281c0-0.068,0-0.145,0.017-0.23
	c0.562,0,1.177,0.009,1.824,0.026v-0.853c0.085-0.008,0.195-0.018,0.314-0.018c0.103,0,0.196,0.018,0.298,0.051v0.836
	c0.546,0.017,1.117,0.043,1.714,0.059c0,0.171-0.018,0.342-0.052,0.529c-0.562,0-1.116,0-1.662-0.018v1.16
	c0.853-0.035,1.714-0.068,2.6-0.095C55.534,71.329,55.551,71.499,55.551,71.67z M51.299,72.99c-0.085,0.384-0.18,0.818-0.265,1.296
	c1.006,0.128,2.079,0.272,3.205,0.427c-0.026,0.17-0.061,0.341-0.094,0.52c-1.313-0.104-2.565-0.272-3.759-0.503
	c0.103-0.674,0.222-1.278,0.341-1.823C50.923,72.932,51.111,72.957,51.299,72.99z"/>
<path fill="#FFFFFF" d="M59.106,73.598c-0.052,0.434-0.145,0.886-0.289,1.363c0.997,0.238,2.001,0.459,3.016,0.682
	c0,0.153-0.033,0.289-0.085,0.417c-1.091-0.103-2.13-0.298-3.102-0.587c-0.06,0.152-0.119,0.314-0.188,0.477
	c-0.137,0-0.281-0.051-0.451-0.137c0.153-0.579,0.297-1.158,0.451-1.737c-0.29-0.019-0.571-0.052-0.844-0.104
	c0-0.187,0.017-0.356,0.051-0.502C58.356,73.495,58.834,73.537,59.106,73.598z M59.089,71.927c-0.042,0.171-0.11,0.333-0.195,0.486
	c-0.357-0.018-0.664-0.111-0.938-0.281c0.034-0.179,0.094-0.341,0.171-0.494C58.416,71.672,58.74,71.774,59.089,71.927z
	 M60.24,71.101c-0.017-0.085-0.017-0.162-0.017-0.238c0-0.086,0.008-0.163,0.025-0.23c0.579,0,1.158,0.009,1.729,0.017h0.042
	c-0.136-0.187-0.213-0.399-0.238-0.656c0.128-0.059,0.281-0.102,0.46-0.135c0.188,0.187,0.324,0.45,0.4,0.801
	c0.546,0.017,1.04,0.033,1.475,0.051c0.06,0.17,0.094,0.554,0.094,1.142c0,0.196-0.026,0.308-0.068,0.332
	c-0.307,0.052-1.219,0.069-2.752,0.069c-0.043-0.043-0.06-0.12-0.06-0.223s0.008-0.179,0.024-0.23c0.358,0,1.134-0.008,2.336-0.017
	c0-0.12-0.009-0.324-0.026-0.613c-0.64,0-1.525-0.018-2.667-0.052c-0.153,0.563-0.417,1.586-0.81,3.067
	c-0.17-0.024-0.315-0.075-0.451-0.161c0.144-0.835,0.383-1.807,0.725-2.914C60.385,71.109,60.309,71.101,60.24,71.101z
	 M61.254,73.111c0.025,0.324,0.042,0.588,0.042,0.811c0,0.478-0.017,0.843-0.042,1.099c-0.051,0.034-0.119,0.042-0.223,0.042
	c-0.109,0-0.187-0.008-0.221-0.042c-0.051-0.299-0.076-0.665-0.076-1.099c0-0.282,0.025-0.555,0.076-0.811
	c0.067-0.017,0.146-0.034,0.221-0.034C61.109,73.077,61.186,73.095,61.254,73.111z M62.933,72.779
	c0.656,0.102,1.142,0.196,1.466,0.281c-0.034,0.52-0.129,1.209-0.298,2.079c-0.163-0.018-0.324-0.051-0.486-0.119
	c0.018-0.187,0.042-0.375,0.068-0.562c-0.188,0-0.374-0.009-0.563-0.025c0,0.255,0.01,0.521,0.01,0.784
	c-0.061,0.017-0.137,0.025-0.238,0.025c-0.111,0-0.188-0.018-0.231-0.061v-0.782c-0.135-0.019-0.272-0.035-0.392-0.052
	c-0.008,0.255-0.017,0.511-0.025,0.767c-0.051,0.018-0.136,0.025-0.238,0.025c-0.11,0-0.188-0.018-0.222-0.06
	c0-0.289,0-0.562,0.008-0.811c-0.118-0.016-0.238-0.033-0.341-0.059c0-0.17,0.009-0.324,0.043-0.469
	c0.103,0.008,0.205,0.017,0.308,0.026c0-0.231,0-0.437,0.017-0.614c-0.103-0.017-0.204-0.034-0.299-0.051
	c0.018-0.171,0.043-0.333,0.086-0.486C62.028,72.651,62.473,72.711,62.933,72.779z M62.276,73.818
	c0.128,0.018,0.256,0.025,0.383,0.043c0-0.213-0.008-0.4-0.008-0.57c-0.137-0.018-0.256-0.034-0.366-0.061
	C62.285,73.427,62.276,73.623,62.276,73.818z M63.119,73.912c0.205,0.035,0.41,0.06,0.615,0.086
	c0.016-0.188,0.042-0.367,0.059-0.537c-0.238-0.025-0.461-0.06-0.674-0.094V73.912z"/>
<path fill="#FFFFFF" d="M70.361,69.967c-0.094,0.085-0.188,0.153-0.272,0.223c1.03,0.587,2.062,1.209,3.102,1.873
	c-0.068,0.17-0.188,0.324-0.358,0.451c-1.185-0.578-2.258-1.219-3.221-1.925c-0.92,0.749-1.942,1.534-3.085,2.343
	c-0.153-0.119-0.264-0.255-0.349-0.4c1.244-1.176,2.514-2.155,3.826-2.939C70.141,69.711,70.259,69.839,70.361,69.967z M69.5,73.64
	c-0.016-0.204-0.024-0.409-0.033-0.614c0.188-0.034,0.383-0.051,0.596-0.051c0.018,0.238,0.043,0.461,0.068,0.674
	c0.469,0.016,0.964,0.025,1.475,0.042c0,0.171-0.018,0.357-0.052,0.554c-0.459,0-0.919,0-1.363-0.018
	c0.034,0.393,0.068,0.776,0.094,1.143c0.393-0.017,0.802-0.025,1.21-0.025c0.01,0.068,0.018,0.153,0.018,0.238v0.273
	c-1.005,0.118-2.002,0.178-2.982,0.178c-0.034-0.17-0.051-0.349-0.051-0.536c0.392-0.043,0.801-0.077,1.219-0.103
	c-0.068-0.392-0.111-0.784-0.146-1.176c-0.528-0.009-1.048-0.025-1.559-0.051v-0.299c0-0.076,0-0.153,0.017-0.238
	C68.469,73.631,68.973,73.64,69.5,73.64z M71.333,72.062c0.017,0.052,0.034,0.145,0.034,0.265c0,0.137-0.018,0.222-0.034,0.256
	c-0.077,0.034-0.503,0.042-1.271,0.042c-1.158,0-1.789-0.008-1.891-0.042c-0.025-0.069-0.035-0.162-0.035-0.272
	c0-0.104,0.01-0.188,0.043-0.273c0.562-0.018,1.193-0.034,1.883-0.034C70.592,72.003,71.009,72.029,71.333,72.062z"/>
<path fill="#FFFFFF" d="M76.229,71.576c0.29,0.008,0.529,0.025,0.716,0.051c0.018,0.051,0.026,0.128,0.026,0.238
	c0,0.12-0.009,0.196-0.026,0.23c-0.052,0.026-0.272,0.043-0.656,0.043c0.034,0.375,0.052,0.725,0.06,1.049
	c0.223-0.01,0.436-0.019,0.64-0.019c0.017,0.068,0.033,0.146,0.033,0.213c0,0.095-0.017,0.171-0.033,0.239
	c-0.298,0.077-0.903,0.145-1.815,0.213c-0.076-0.119-0.11-0.289-0.11-0.52c0.255-0.034,0.502-0.061,0.75-0.086
	c-0.069-0.34-0.111-0.707-0.145-1.09c-0.529,0-0.819-0.009-0.87-0.043c-0.016-0.068-0.025-0.145-0.025-0.247
	c0-0.085,0.01-0.171,0.043-0.247c0.247-0.018,0.52-0.025,0.81-0.034c-0.018-0.247-0.018-0.494-0.018-0.749
	c0.171-0.018,0.35-0.035,0.521-0.035C76.16,71.064,76.194,71.328,76.229,71.576z M77.039,69.855c0,0.17-0.019,0.349-0.052,0.535
	c-0.784,0-1.509-0.059-2.183-0.187c0-0.179,0-0.358,0.019-0.528C75.539,69.701,76.271,69.761,77.039,69.855z M78.836,73.51
	c-0.357,0.153-0.741,0.256-1.142,0.309c-0.06-0.155-0.093-0.324-0.103-0.512c0.342-0.138,0.716-0.239,1.143-0.308
	C78.802,73.188,78.836,73.357,78.836,73.51z M78.871,71.738c-0.052,0.188-0.119,0.366-0.197,0.527
	c-0.366-0.084-0.716-0.204-1.039-0.349c0.051-0.213,0.11-0.392,0.188-0.537C78.181,71.491,78.529,71.61,78.871,71.738z
	 M79.73,70.076c0.528,0.043,1.049,0.102,1.568,0.171c0,0.17-0.017,0.333-0.043,0.485c-0.494,0-0.971-0.009-1.448-0.043
	c0.145,1.279,0.229,2.582,0.265,3.895c-0.273,0.086-0.708,0.137-1.287,0.137c-0.051-0.137-0.076-0.281-0.076-0.418
	c0.238-0.025,0.493-0.059,0.758-0.102c-0.068-1.177-0.162-2.361-0.265-3.555c-0.52-0.033-1.031-0.093-1.524-0.17
	c0-0.179,0.017-0.341,0.059-0.485c0.478,0,0.946,0.017,1.406,0.043c-0.034-0.358-0.059-0.708-0.094-1.058
	c0.145-0.033,0.315-0.051,0.521-0.051C79.629,69.318,79.68,69.701,79.73,70.076z M81.58,69.012c-0.042,0.162-0.102,0.314-0.18,0.451
	c-0.374-0.025-0.697-0.145-0.971-0.35c0.034-0.17,0.085-0.324,0.153-0.469C80.89,68.679,81.223,68.807,81.58,69.012z M81.699,71.688
	c-0.28,0.256-0.579,0.477-0.903,0.655c-0.161-0.102-0.281-0.229-0.366-0.384c0.247-0.255,0.562-0.484,0.938-0.673
	C81.529,71.405,81.641,71.533,81.699,71.688z M81.632,73.357c-0.034,0.085-0.077,0.17-0.12,0.247
	c-0.051,0.085-0.103,0.161-0.162,0.229c-0.323-0.119-0.63-0.299-0.92-0.554c0.068-0.187,0.162-0.35,0.299-0.485
	C81.018,72.965,81.325,73.152,81.632,73.357z"/>
<text transform="matrix(1 0 0 1 64.4824 63.8848)" fill="#FFFFFF" font-family="'Helvetica'" font-size="2.7831">is</text>
</svg>
