<?xml version="1.0" encoding="utf-8"?>
<!-- Generator: Adobe Illustrator 16.0.0, SVG Export Plug-In . SVG Version: 6.00 Build 0)  -->
<!DOCTYPE svg PUBLIC "-//W3C//DTD SVG 1.1//EN" "http://www.w3.org/Graphics/SVG/1.1/DTD/svg11.dtd">
<svg version="1.1" id="Layer_1" xmlns="http://www.w3.org/2000/svg" xmlns:xlink="http://www.w3.org/1999/xlink" x="0px" y="0px"
	 width="126.876px" height="112.438px" viewBox="0 0 126.876 112.438" enable-background="new 0 0 126.876 112.438"
	 xml:space="preserve">
<rect fill="#FFFFFF" width="126.876" height="112.438"/>
<polyline fill="none" stroke="#FFFFFF" stroke-miterlimit="10" points="48.09,24.781 97.108,24.781 97.108,88.299 33.591,88.299 
	33.591,34.538 "/>
<text transform="matrix(0.8971 -0.4418 0.4418 0.8971 30.9473 33.1475)" fill="#FFFFFF" font-family="'Times-Roman'" font-size="8.2362">NEW</text>
<path fill="#FFFFFF" d="M40.324,84.056v-1.838h-1.175v2.727h3.687v0.264h-3.974v-2.99h-0.849V81.96h0.849v-1.293h0.287v1.293h1.175
	v-1.422h0.264v1.422h1.254v-1.355h0.27v1.355h0.898v0.258h-0.898v1.838H40.324z M40.588,82.218v1.579h1.254v-1.579H40.588z"/>
<path fill="#FFFFFF" d="M50.98,82.864c0.439,0.489,1.181,0.91,1.889,1.096c-0.062,0.062-0.141,0.158-0.186,0.23
	c-0.759-0.236-1.568-0.73-2.012-1.326H50.02c-0.455,0.59-1.287,1.096-2.023,1.354c-0.039-0.079-0.117-0.169-0.185-0.226
	c0.69-0.201,1.438-0.64,1.888-1.129H48.44V80.7h3.76v2.164H50.98z M49.323,83.674h0.275v0.319c0,0.54-0.118,1.197-1.191,1.653
	c-0.04-0.073-0.124-0.163-0.187-0.208c1.013-0.416,1.103-1,1.103-1.45V83.674z M48.711,81.661h1.467v-0.719h-1.467V81.661z
	 M48.711,82.628h1.467v-0.736h-1.467V82.628z M51.925,80.942h-1.478v0.719h1.478V80.942z M51.925,81.892h-1.478v0.736h1.478V81.892z
	 M51.149,83.668h0.271v1.938h-0.271V83.668z"/>
<path fill="#FFFFFF" d="M60.32,81.565c-0.057,0.209-0.124,0.439-0.186,0.625h1.838v3.422h-0.275v-0.354h-3.053v0.354h-0.27V82.19
	h1.479c0.062-0.191,0.118-0.428,0.163-0.625h-2.333v-0.258h3.147c0.191-0.225,0.428-0.557,0.557-0.793l0.281,0.096
	c-0.157,0.242-0.354,0.495-0.528,0.697h1.512v0.258H60.32z M61.697,82.438h-3.053v0.685h3.053V82.438z M61.697,83.358h-3.053v0.697
	h3.053V83.358z M61.697,85.011v-0.719h-3.053v0.719H61.697z M58.948,80.51c0.203,0.202,0.422,0.483,0.522,0.669l-0.241,0.129
	c-0.102-0.191-0.314-0.483-0.511-0.691L58.948,80.51z"/>
<path fill="#FFFFFF" d="M71.815,82.864c-0.23,0.72-0.63,1.281-1.113,1.714c0.512,0.394,1.141,0.675,1.866,0.821
	c-0.057,0.056-0.13,0.162-0.163,0.236c-0.742-0.175-1.377-0.473-1.9-0.883c-0.527,0.41-1.151,0.691-1.786,0.876
	c-0.028-0.067-0.091-0.174-0.141-0.229c0.606-0.158,1.208-0.428,1.72-0.821c-0.399-0.359-0.73-0.798-0.973-1.298
	c-0.394,0.758-0.938,1.394-1.697,1.883c-0.039-0.057-0.135-0.146-0.202-0.191c1.045-0.68,1.681-1.641,2.046-2.86h-0.81
	c-0.382,0-0.545,0.028-0.596,0.079c-0.017-0.062-0.062-0.209-0.096-0.271c0.073-0.017,0.124-0.101,0.18-0.214
	c0.068-0.117,0.281-0.578,0.371-1.006l0.292,0.068c-0.111,0.387-0.264,0.78-0.421,1.078h1.151c0.113-0.416,0.191-0.865,0.254-1.337
	l0.303,0.05c-0.067,0.456-0.141,0.883-0.247,1.287h2.529v0.265h-2.608c-0.062,0.236-0.14,0.466-0.23,0.68h2.046l0.046-0.017
	L71.815,82.864z M69.482,83.056c0.242,0.528,0.579,0.982,1.018,1.36c0.404-0.36,0.747-0.81,0.961-1.36H69.482z M71.753,81.616
	c-0.157-0.213-0.488-0.584-0.747-0.848l0.208-0.129c0.259,0.258,0.584,0.611,0.753,0.819L71.753,81.616z"/>
<path fill="#FFFFFF" d="M79.993,83.679c0.383,0.922,1.191,1.479,2.36,1.691c-0.062,0.057-0.123,0.158-0.162,0.242
	c-1.181-0.258-1.996-0.837-2.423-1.809c-0.286,0.848-0.894,1.482-2.327,1.803c-0.027-0.067-0.096-0.174-0.146-0.229
	c1.41-0.293,1.967-0.899,2.22-1.698h-2.209v-0.252h2.276c0.045-0.191,0.079-0.399,0.106-0.613h0.287
	c-0.028,0.214-0.062,0.422-0.107,0.613h2.406v0.252H79.993z M78.83,81.116c-0.281,0.619-0.72,1.231-1.152,1.636
	c-0.045-0.045-0.146-0.135-0.208-0.186c0.427-0.376,0.849-0.944,1.102-1.518L78.83,81.116z M79.92,82.634h-0.275v-2.107h0.275
	V82.634z M81.927,82.696c-0.22-0.428-0.742-1.068-1.22-1.535l0.219-0.123c0.489,0.455,1.012,1.084,1.237,1.512L81.927,82.696z"/>
<path fill="#FFFFFF" d="M88.237,81.524c-0.287,0.219-0.585,0.416-0.871,0.567c-0.045-0.045-0.141-0.141-0.208-0.187
	c0.624-0.303,1.275-0.77,1.681-1.286l0.246,0.09c-0.162,0.202-0.364,0.41-0.578,0.596v1.438h-0.27V81.524z M89.563,83.514h0.281
	v0.517c0,0.557-0.214,1.254-2.378,1.697c-0.033-0.067-0.106-0.168-0.162-0.23c2.096-0.393,2.259-1.006,2.259-1.473V83.514z
	 M91.159,84.755v-1.5h-2.804v1.512h-0.271v-1.764h3.35v1.752H91.159z M89.9,81.731c-0.27,0.068-0.539,0.124-0.798,0.174
	c-0.018-0.061-0.051-0.145-0.084-0.207c0.286-0.051,0.584-0.118,0.882-0.191v-0.849h0.265v0.787
	c0.663-0.169,1.281-0.371,1.657-0.591l0.203,0.191c-0.467,0.248-1.147,0.455-1.86,0.63v0.517c0,0.146,0.056,0.181,0.349,0.181h1.09
	c0.23,0,0.27-0.079,0.298-0.607c0.062,0.045,0.169,0.09,0.247,0.106c-0.039,0.602-0.123,0.742-0.528,0.742h-1.112
	c-0.478,0-0.607-0.073-0.607-0.422V81.731z M90.002,84.688c0.72,0.207,1.641,0.556,2.136,0.82l-0.157,0.219
	c-0.473-0.264-1.399-0.635-2.13-0.854L90.002,84.688z"/>
</svg>
