<?xml version="1.0" encoding="utf-8"?>
<!-- Generator: Adobe Illustrator 16.0.0, SVG Export Plug-In . SVG Version: 6.00 Build 0)  -->
<!DOCTYPE svg PUBLIC "-//W3C//DTD SVG 1.1//EN" "http://www.w3.org/Graphics/SVG/1.1/DTD/svg11.dtd">
<svg version="1.1" id="Layer_1" xmlns="http://www.w3.org/2000/svg" xmlns:xlink="http://www.w3.org/1999/xlink" x="0px" y="0px"
	 width="126.876px" height="112.438px" viewBox="0 0 126.876 112.438" enable-background="new 0 0 126.876 112.438"
	 xml:space="preserve">
<rect fill="#FFFFFF" width="126.876" height="112.438"/>
<path fill="#E83828" stroke="#FFFFFF" stroke-miterlimit="10" d="M72.189,52.396L72.189,52.396c-5.41-4.224-12.92-3.042-16.771,2.64
	l0,0c-3.47,5.121-2.617,13.596,1.72,18.089l11.793,13.16l7.181-16.146C78.856,64.531,77.065,56.201,72.189,52.396z M65.97,66.729
	c-2.162,0.34-4.208-1.259-4.571-3.571c-0.365-2.312,1.092-4.462,3.254-4.803c2.161-0.34,4.209,1.259,4.573,3.571
	C69.59,64.237,68.132,66.388,65.97,66.729z"/>
<g>
	<g>
		<path d="M40.241,50.113c-0.314,0-0.605-0.034-0.866-0.101l-0.198-0.051c0,0,0.081-1.496,0.1-1.916
			c-1.329,0.172-2.44,0.31-3.324,0.396l-0.184,0.018l-0.071-0.17c-0.057-0.136-0.089-0.277-0.122-0.433
			c-0.018-0.147-0.031-0.276-0.032-0.404l-0.002-0.207l0.203-0.04c2.379-0.473,3.918-0.702,4.703-0.702h0.219l0.039,0.217
			c0.108,0.807,0.035,1.88-0.219,3.19l-0.039,0.202H40.241z M33.569,47.022c-0.302-0.14-0.533-0.313-0.707-0.532l-0.109-0.137
			l0.092-0.15c1.294-2.093,2.71-3.91,4.207-5.4l0.13-0.129l0.162,0.084c0.262,0.135,0.486,0.283,0.668,0.441l0.163,0.142
			c0,0-0.21,0.321-0.256,0.387c1.441,0.551,2.916,1.161,4.389,1.816l0.177,0.079l-0.032,0.19c-0.047,0.285-0.181,0.558-0.406,0.833
			l-0.105,0.129l-0.159-0.048c-1.671-0.5-3.24-1.136-4.668-1.891c-1.027,1.39-2.119,2.774-3.248,4.119l-0.122,0.146L33.569,47.022z
			 M38.602,46.266c-0.709-0.13-1.385-0.343-2.064-0.651l-0.2-0.091l0.064-0.21c0.075-0.243,0.155-0.462,0.25-0.672l0.079-0.175
			l0.189,0.031c0.734,0.122,1.429,0.331,2.121,0.639l0.177,0.078l-0.031,0.19c-0.048,0.289-0.16,0.541-0.345,0.771l-0.094,0.116
			L38.602,46.266z"/>
		<path fill="#FFFFFF" d="M37.229,40.979c0.23,0.119,0.441,0.254,0.619,0.408c-0.108,0.169-0.222,0.315-0.324,0.457
			c1.55,0.585,3.109,1.228,4.683,1.928c-0.042,0.251-0.161,0.481-0.354,0.716c-1.738-0.521-3.341-1.178-4.812-1.974
			c-0.99,1.347-2.106,2.779-3.366,4.28c-0.268-0.123-0.468-0.273-0.616-0.46C34.329,44.278,35.717,42.484,37.229,40.979
			 M36.879,44.745c0.699,0.116,1.383,0.319,2.061,0.62c-0.041,0.251-0.141,0.465-0.293,0.654c-0.728-0.133-1.391-0.354-2.006-0.633
			C36.712,45.154,36.788,44.945,36.879,44.745 M40.447,46.754c0.004,0,0.007,0,0.01,0c0.103,0.762,0.037,1.802-0.216,3.109
			c-0.276,0-0.549-0.027-0.804-0.093c0.036-0.683,0.074-1.344,0.102-2.011c-1.457,0.189-2.665,0.341-3.611,0.434
			c-0.051-0.121-0.078-0.248-0.107-0.388c-0.014-0.116-0.026-0.235-0.027-0.354C38.109,46.991,39.66,46.754,40.447,46.754
			 M37.134,40.368l-0.258,0.257c-1.512,1.505-2.939,3.338-4.243,5.447l-0.186,0.299l0.219,0.275c0.199,0.25,0.461,0.447,0.799,0.603
			l0.347,0.159l0.245-0.292c1.085-1.293,2.137-2.623,3.13-3.958c1.392,0.719,2.91,1.326,4.522,1.809l0.318,0.096l0.212-0.257
			c0.254-0.311,0.405-0.621,0.46-0.95l0.063-0.383l-0.354-0.157c-1.377-0.612-2.756-1.187-4.108-1.709l0.201-0.312l-0.326-0.284
			c-0.197-0.17-0.438-0.33-0.718-0.475L37.134,40.368L37.134,40.368z M36.582,44.189l-0.158,0.35
			c-0.097,0.212-0.18,0.436-0.262,0.701l-0.129,0.42l0.4,0.182c0.638,0.289,1.271,0.497,1.932,0.633
			c-0.728,0.115-1.611,0.275-2.67,0.486l-0.406,0.08l0.004,0.414c0.001,0.138,0.015,0.275,0.031,0.409
			c0.037,0.189,0.072,0.354,0.143,0.522l0.143,0.34l0.367-0.035c0.812-0.08,1.812-0.202,3.036-0.359
			c-0.016,0.32-0.033,0.641-0.051,0.966l-0.023,0.446l-0.022,0.409l0.397,0.102c0.28,0.071,0.593,0.108,0.928,0.108h0.413
			l0.078-0.405c0.258-1.337,0.332-2.437,0.22-3.271l-0.058-0.432l-0.436-0.002h-0.001h-0.011c-0.349,0-0.826,0.041-1.449,0.127
			l0.038-0.048c0.21-0.261,0.343-0.56,0.396-0.888l0.062-0.381l-0.353-0.156c-0.713-0.316-1.426-0.531-2.182-0.656L36.582,44.189
			L36.582,44.189z"/>
	</g>
	<g>
		<path d="M47.715,48.269c-0.259,0-0.509-0.06-0.766-0.182l-0.175-0.083l0.037-0.19c0.171-0.879,0.371-1.797,0.608-2.796
			c-0.677,0.13-1.295,0.238-1.852,0.317l-0.128,0.019l-0.089-0.095c-0.08-0.084-0.132-0.218-0.196-0.511
			c-0.034-0.167-0.041-0.325-0.021-0.5l0.02-0.18l0.176-0.037c0.825-0.178,1.643-0.342,2.462-0.505
			c0.169-0.678,0.34-1.355,0.533-2.039l0.048-0.171l0.327-0.015c0.288,0,0.535,0.055,0.755,0.167l0.163,0.084l-0.031,0.181
			c-0.092,0.539-0.177,1.03-0.272,1.503c1.233-0.229,2.46-0.446,3.679-0.652l0.236-0.04l0.126,0.591
			c0.049,0.223,0.053,0.389,0.048,0.489l-0.01,0.191l-0.188,0.04c-1.56,0.334-2.964,0.624-4.204,0.857
			c-0.247,1.084-0.538,2.214-0.866,3.362l-0.045,0.159l-0.163,0.021C47.856,48.264,47.785,48.269,47.715,48.269z M52.909,46.956
			c-0.724-0.193-1.38-0.455-2.007-0.798l-0.167-0.092l0.044-0.185c0.062-0.263,0.152-0.505,0.271-0.72l0.092-0.166l0.185,0.044
			c0.69,0.162,1.386,0.437,2.065,0.813l0.166,0.092l-0.044,0.185c-0.065,0.275-0.181,0.522-0.342,0.735L53.071,47L52.909,46.956z
			 M44.746,41.202c-0.07-0.329-0.1-0.611-0.092-0.861l0.007-0.195l0.19-0.041c2.314-0.496,4.643-0.896,7.117-1.223l0.229-0.03
			l0.048,0.227c0.062,0.286,0.094,0.556,0.099,0.823l0.004,0.206l-0.201,0.043c-2.537,0.544-4.867,0.952-7.125,1.248l-0.229,0.03
			L44.746,41.202z"/>
		<path fill="#FFFFFF" d="M52.002,39.13c0.057,0.267,0.088,0.523,0.093,0.776c-2.41,0.517-4.779,0.939-7.104,1.244
			c-0.061-0.287-0.094-0.559-0.086-0.802C47.28,39.84,49.643,39.441,52.002,39.13 M48.7,41.552c0.249,0,0.456,0.045,0.641,0.14
			c-0.107,0.625-0.214,1.252-0.349,1.859c1.356-0.254,2.704-0.494,4.043-0.721l0.076,0.356c0.04,0.186,0.047,0.328,0.042,0.425
			c-1.625,0.348-3.081,0.648-4.358,0.886c-0.266,1.18-0.569,2.354-0.899,3.51c-0.061,0.008-0.121,0.012-0.181,0.012
			c-0.22,0-0.438-0.052-0.658-0.157c0.206-1.058,0.441-2.108,0.697-3.164c-0.822,0.163-1.565,0.297-2.221,0.391
			c-0.047-0.05-0.088-0.187-0.134-0.394c-0.028-0.139-0.033-0.271-0.017-0.419c0.876-0.188,1.743-0.361,2.613-0.535
			c0.181-0.727,0.362-1.452,0.569-2.185C48.611,41.553,48.656,41.552,48.7,41.552 M51.27,45.283
			c0.672,0.158,1.344,0.424,2.002,0.789c-0.058,0.241-0.156,0.455-0.298,0.643c-0.703-0.188-1.349-0.446-1.951-0.776
			C51.079,45.696,51.164,45.474,51.27,45.283 M52.395,38.574l-0.458,0.061c-2.447,0.322-4.848,0.734-7.137,1.225l-0.383,0.082
			l-0.013,0.391c-0.009,0.271,0.023,0.572,0.097,0.922l0.096,0.452l0.458-0.06c1.015-0.133,2.043-0.289,3.098-0.469l-0.068,0.242
			c-0.176,0.621-0.332,1.232-0.496,1.893c-0.769,0.153-1.536,0.308-2.311,0.475l-0.352,0.075l-0.04,0.357
			c-0.022,0.202-0.015,0.385,0.023,0.575c0.068,0.309,0.13,0.497,0.26,0.636l0.178,0.188l0.257-0.036
			c0.432-0.062,0.922-0.144,1.484-0.249c-0.199,0.859-0.372,1.66-0.521,2.432l-0.074,0.381l0.35,0.166
			c0.287,0.137,0.58,0.206,0.873,0.206c0.081,0,0.162-0.005,0.244-0.016l0.327-0.042l0.09-0.316
			c0.313-1.097,0.593-2.177,0.833-3.217c1.081-0.205,2.35-0.464,4.049-0.827l0.375-0.081l0.02-0.383
			c0.009-0.168-0.009-0.354-0.053-0.556l-0.075-0.355l-0.101-0.469l-0.472,0.08c-1.096,0.186-2.21,0.382-3.322,0.587
			c0.068-0.359,0.13-0.719,0.19-1.072l0.014-0.075l0.062-0.362l-0.326-0.168c-0.217-0.11-0.453-0.174-0.72-0.189
			c1.082-0.194,2.195-0.414,3.35-0.661l0.403-0.087l-0.008-0.412c-0.006-0.283-0.039-0.568-0.104-0.871L52.395,38.574L52.395,38.574
			z M51.016,44.71l-0.184,0.331c-0.13,0.234-0.229,0.498-0.297,0.783l-0.086,0.37l0.333,0.183c0.645,0.354,1.319,0.622,2.062,0.82
			l0.326,0.088l0.203-0.27c0.182-0.24,0.312-0.519,0.385-0.827l0.088-0.369l-0.332-0.185c-0.699-0.389-1.416-0.67-2.13-0.838
			L51.016,44.71L51.016,44.71z"/>
	</g>
	<g>
		<path d="M60.169,45.735c-0.265,0-0.516-0.035-0.744-0.105l-0.187-0.058l0.01-0.194c0.032-0.624,0.107-1.306,0.226-2.03
			c-0.493,0.121-0.98,0.233-1.462,0.337l-0.202,0.044l-0.081-0.19c-0.104-0.244-0.183-0.495-0.24-0.768l-0.049-0.227l0.222-0.065
			c0.678-0.203,1.378-0.41,2.082-0.607c0.175-0.884,0.401-1.838,0.676-2.84l0.046-0.167l0.173-0.016
			c0.074-0.007,0.146-0.01,0.218-0.01c0.236,0,0.461,0.037,0.667,0.11l0.206,0.072l-0.044,0.214c-0.062,0.292-0.14,0.702-0.24,1.228
			l-0.196,1.015c0.924-0.227,1.868-0.447,2.833-0.653l0.212-0.046l0.075,0.203c0.037,0.1,0.075,0.224,0.104,0.351l0.123,0.579
			l-0.214,0.069c-1.083,0.354-2.232,0.687-3.417,0.992c-0.146,0.766-0.304,1.616-0.475,2.557l-0.036,0.2L60.169,45.735z
			 M64.406,44.676c-0.623-0.161-1.216-0.39-1.763-0.68l-0.183-0.097l0.061-0.197c0.075-0.247,0.155-0.467,0.264-0.685l0.088-0.179
			l0.194,0.047c0.626,0.151,1.235,0.378,1.811,0.672l0.163,0.084l-0.031,0.181c-0.05,0.29-0.163,0.542-0.347,0.769l-0.102,0.125
			L64.406,44.676z M58.89,41.713c-0.506-0.041-1.081-0.202-1.759-0.493l-0.157-0.067l0.006-0.171
			c0.01-0.267,0.058-0.538,0.143-0.806l0.064-0.203l0.211,0.031c0.595,0.088,1.185,0.273,1.803,0.565l0.155,0.072l-0.013,0.171
			c-0.016,0.234-0.083,0.48-0.204,0.753l-0.072,0.162L58.89,41.713z M59.514,39.928c-0.429,0-0.848-0.064-1.244-0.191l-0.169-0.055
			l-0.005-0.176c-0.009-0.315,0.019-0.579,0.084-0.806l0.016-0.053c-0.601,0.087-1.188,0.165-1.766,0.235l-0.228,0.027l-0.047-0.224
			c-0.06-0.277-0.109-0.519-0.126-0.717l-0.019-0.219l0.215-0.046c2.176-0.467,4.569-0.9,7.317-1.326l0.232-0.036l0.05,0.23
			c0.12,0.559,0.179,1.317,0.179,2.32v0.213l-0.21,0.034c-0.138,0.022-0.274,0.034-0.409,0.034c-0.134,0-0.268-0.012-0.4-0.036
			l-0.191-0.035l-0.013-0.194c-0.026-0.38-0.058-0.717-0.091-1.021c-1.376,0.263-2.672,0.486-3.911,0.674
			c0.316,0.041,0.649,0.094,1,0.165l0.189,0.038l0.011,0.193c0.013,0.248-0.016,0.511-0.086,0.781l-0.047,0.18L59.514,39.928z"/>
		<path fill="#FFFFFF" d="M63.581,36.626c0.119,0.554,0.173,1.315,0.173,2.268c-0.125,0.021-0.247,0.031-0.369,0.031
			c-0.119,0-0.237-0.011-0.355-0.032c-0.034-0.5-0.077-0.925-0.122-1.301c-2.248,0.434-4.415,0.788-6.508,1.043
			c-0.057-0.266-0.105-0.496-0.121-0.686C58.538,37.465,60.966,37.031,63.581,36.626 M58.42,38.77
			c0.406,0.046,0.842,0.107,1.309,0.202c0.012,0.216-0.012,0.449-0.078,0.704c-0.046,0.002-0.092,0.002-0.137,0.002
			c-0.415,0-0.807-0.063-1.168-0.18C58.338,39.233,58.356,38.988,58.42,38.77 M60.855,39.089c0.209,0,0.404,0.032,0.584,0.096
			c-0.107,0.516-0.27,1.396-0.511,2.63c1.042-0.26,2.11-0.512,3.205-0.746c0.033,0.09,0.068,0.202,0.094,0.317l0.076,0.357
			c-1.195,0.39-2.39,0.729-3.556,1.026c-0.153,0.807-0.322,1.71-0.505,2.715c-0.024,0.001-0.05,0.001-0.074,0.001
			c-0.236,0-0.46-0.03-0.671-0.095c0.037-0.732,0.134-1.525,0.287-2.379c-0.617,0.157-1.227,0.3-1.826,0.429
			c-0.094-0.221-0.17-0.458-0.227-0.723c0.725-0.217,1.474-0.438,2.227-0.647c0.177-0.919,0.41-1.91,0.701-2.973
			C60.727,39.092,60.791,39.089,60.855,39.089 M57.36,40.251c0.599,0.089,1.171,0.278,1.733,0.544
			c-0.015,0.209-0.076,0.428-0.184,0.669c-0.49-0.04-1.043-0.2-1.681-0.474C57.238,40.747,57.282,40.498,57.36,40.251
			 M63.009,43.129c0.585,0.142,1.173,0.354,1.755,0.651c-0.043,0.25-0.142,0.464-0.295,0.653c-0.612-0.158-1.19-0.384-1.708-0.658
			C62.832,43.542,62.907,43.334,63.009,43.129 M63.971,36.06l-0.466,0.072c-2.753,0.427-5.151,0.861-7.331,1.328l-0.43,0.093
			l0.036,0.438c0.019,0.224,0.072,0.479,0.13,0.749l0.096,0.447l0.454-0.056c0.464-0.057,0.935-0.118,1.413-0.186
			c-0.024,0.173-0.033,0.36-0.027,0.567l0.01,0.322c-0.141-0.032-0.281-0.058-0.422-0.079l-0.422-0.062l-0.128,0.407
			c-0.092,0.289-0.144,0.583-0.154,0.872l-0.012,0.342l0.314,0.135c0.595,0.256,1.117,0.415,1.587,0.484
			c-0.348,0.102-0.691,0.204-1.03,0.305l-0.442,0.133l0.097,0.451c0.062,0.288,0.146,0.555,0.256,0.813l0.161,0.38l0.404-0.086
			c0.367-0.08,0.737-0.163,1.105-0.251c-0.087,0.597-0.145,1.161-0.171,1.687l-0.021,0.389l0.373,0.115
			c0.252,0.077,0.527,0.116,0.817,0.116l0.087-0.001l0.406-0.011l0.073-0.399c0.159-0.877,0.308-1.675,0.444-2.399
			c0.488-0.127,0.971-0.259,1.444-0.395l-0.063,0.127c-0.104,0.21-0.189,0.433-0.278,0.722l-0.12,0.395l0.364,0.193
			c0.564,0.299,1.176,0.535,1.817,0.701l0.312,0.08l0.202-0.25c0.208-0.258,0.343-0.555,0.399-0.883l0.062-0.362l-0.327-0.168
			c-0.592-0.303-1.22-0.536-1.864-0.692l-0.019-0.004c0.459-0.137,0.91-0.276,1.351-0.42l0.428-0.14l-0.094-0.44l-0.076-0.357
			c-0.031-0.143-0.074-0.277-0.114-0.387l-0.149-0.406l-0.424,0.091c-0.789,0.169-1.6,0.354-2.461,0.563
			c0.044-0.227,0.084-0.438,0.121-0.634c0.101-0.522,0.179-0.931,0.239-1.222l0.089-0.428l-0.411-0.146
			c-0.233-0.082-0.486-0.124-0.751-0.124c-0.078,0-0.158,0.003-0.239,0.011l-0.347,0.031l-0.049,0.18l-0.013-0.224
			c0.731-0.122,1.483-0.256,2.261-0.402c0.022,0.228,0.043,0.474,0.062,0.742l0.026,0.388l0.383,0.07
			c0.145,0.026,0.295,0.04,0.445,0.04c0.146,0,0.297-0.013,0.449-0.038l0.42-0.068v-0.425c0-1.021-0.061-1.797-0.184-2.373
			L63.971,36.06L63.971,36.06z M59.342,41.725l0.025-0.058c0.133-0.299,0.207-0.573,0.226-0.837l0.023-0.342l-0.309-0.146
			c-0.177-0.083-0.352-0.158-0.524-0.226c0.238,0.041,0.483,0.061,0.73,0.061c0.051,0,0.102,0,0.153-0.002l0.198-0.007
			c-0.127,0.519-0.239,1.021-0.337,1.503C59.466,41.689,59.403,41.707,59.342,41.725L59.342,41.725z"/>
	</g>
	<g>
		<path d="M69.521,43.64c-0.178,0-0.369-0.034-0.569-0.102l-0.182-0.062l0.013-0.191c0.046-0.729,0.098-1.464,0.15-2.202
			l0.028-0.395c-0.361,0.032-0.715,0.048-1.074,0.048h-0.202l-0.067-0.198c-0.063-0.298-0.095-0.569-0.094-0.807l0.001-0.211
			l0.208-0.034c0.952-0.16,1.643-0.237,2.108-0.237c0.073,0,0.141,0.002,0.203,0.005l0.214,0.014l0.02,0.214
			c0.055,0.604,0.053,1.24-0.008,1.938c1.443,0.063,2.886,0.106,4.346,0.133l0.198,0.004l0.041,0.194
			c0.052,0.242,0.055,0.494,0.008,0.747l-0.034,0.183l-0.185,0.021c-0.92,0.104-1.823,0.155-2.684,0.155
			c-0.634,0-1.263-0.028-1.87-0.084l-0.151,0.807l-0.164,0.035C69.694,43.631,69.609,43.64,69.521,43.64z M72.579,41.021
			c-0.265-0.117-0.504-0.283-0.713-0.494l-0.161-0.163l0.8-0.944c-0.298-0.109-0.584-0.225-0.858-0.343l-0.213-0.092l0.076-0.22
			c0.078-0.224,0.18-0.43,0.321-0.647l0.102-0.156c0,0,1.031,0.3,1.465,0.424c0.414-0.468,0.83-0.924,1.249-1.371l0.13-0.139
			l0.168,0.088c0.239,0.124,0.469,0.251,0.675,0.396l0.208,0.146l-0.149,0.206c-0.267,0.367-0.552,0.733-0.865,1.112
			c0.391,0.13,1.374,0.448,1.374,0.448l-0.022,0.203c-0.028,0.26-0.145,0.504-0.366,0.769L75.7,40.36l-0.148-0.033
			c-0.539-0.12-1.085-0.266-1.662-0.443c-0.338,0.366-0.679,0.724-1.03,1.084l-0.121,0.124L72.579,41.021z M70.611,37.16
			c-0.067-0.313-0.097-0.589-0.089-0.84l0.007-0.195l0.19-0.041c1.646-0.353,3.416-0.666,5.258-0.932l0.231-0.034l0.049,0.229
			c0.058,0.268,0.089,0.525,0.105,0.786l0.015,0.216l-0.211,0.045c-1.926,0.412-3.651,0.727-5.275,0.961l-0.231,0.034L70.611,37.16z
			 M68.811,37.381c-0.388,0-0.766-0.062-1.121-0.185l-0.17-0.059l0.002-0.181c0.003-0.302,0.037-0.577,0.1-0.815l0.045-0.17
			l0.175-0.016c0.118-0.011,0.24-0.016,0.366-0.016c0.404,0,0.86,0.054,1.354,0.161l0.211,0.045l-0.015,0.216
			c-0.019,0.301-0.069,0.565-0.154,0.809l-0.05,0.144l-0.149,0.021C69.201,37.366,69.004,37.381,68.811,37.381z M73.59,35.335
			c-0.369,0-0.813-0.038-1.322-0.113l-0.188-0.027l-0.024-0.188c-0.042-0.323-0.036-0.616,0.017-0.87l0.041-0.194l0.574-0.01
			c0.515,0,1.045,0.025,1.621,0.078l0.201,0.019l0.024,0.2c0.035,0.285,0.029,0.56-0.019,0.837l-0.028,0.167l-0.165,0.035
			C74.118,35.312,73.871,35.335,73.59,35.335z"/>
		<path fill="#FFFFFF" d="M72.688,34.183c0.527,0,1.06,0.028,1.599,0.077c0.032,0.262,0.026,0.514-0.017,0.765
			c-0.188,0.04-0.414,0.061-0.68,0.061c-0.357,0-0.785-0.036-1.286-0.11c-0.038-0.293-0.034-0.559,0.014-0.787
			C72.44,34.185,72.563,34.183,72.688,34.183 M76.014,35.399c0.055,0.255,0.084,0.501,0.101,0.75
			c-1.775,0.38-3.528,0.708-5.259,0.958c-0.06-0.276-0.091-0.535-0.083-0.779C72.525,35.953,74.282,35.649,76.014,35.399
			 M68.207,36.19c0.391,0,0.827,0.053,1.302,0.155c-0.017,0.257-0.06,0.508-0.142,0.743c-0.19,0.028-0.376,0.042-0.557,0.042
			c-0.363,0-0.708-0.057-1.039-0.171c0.003-0.266,0.031-0.525,0.092-0.755C67.974,36.195,68.088,36.19,68.207,36.19 M74.829,37.186
			c0.229,0.119,0.449,0.24,0.646,0.379c-0.354,0.486-0.715,0.938-1.091,1.381c0.508,0.169,1.014,0.337,1.531,0.503
			c-0.024,0.224-0.137,0.429-0.31,0.635c-0.635-0.142-1.224-0.306-1.794-0.484c-0.371,0.405-0.745,0.798-1.132,1.194
			c-0.238-0.105-0.45-0.253-0.637-0.441c0.3-0.354,0.597-0.706,0.886-1.047c-0.415-0.141-0.812-0.296-1.184-0.457
			c0.082-0.236,0.187-0.427,0.295-0.594c0.477,0.139,0.953,0.277,1.439,0.415C73.928,38.162,74.376,37.669,74.829,37.186
			 M69.842,39.498c0.067,0,0.13,0.002,0.188,0.006c0.062,0.687,0.046,1.402-0.033,2.154c1.534,0.069,3.064,0.116,4.615,0.145
			c0.047,0.221,0.045,0.438,0.006,0.65c-0.904,0.101-1.789,0.153-2.656,0.153c-0.703,0-1.395-0.034-2.074-0.105
			c-0.05,0.278-0.107,0.567-0.163,0.868c-0.063,0.014-0.131,0.02-0.202,0.02c-0.148,0-0.313-0.028-0.489-0.088
			c0.061-0.956,0.132-1.922,0.2-2.891c-0.461,0.052-0.906,0.076-1.345,0.076c-0.008,0-0.017,0-0.025,0
			c-0.059-0.277-0.089-0.535-0.088-0.754C68.697,39.578,69.388,39.498,69.842,39.498 M72.688,33.683
			c-0.128,0-0.256,0.002-0.383,0.005l-0.396,0.01l-0.081,0.388c-0.06,0.282-0.066,0.603-0.021,0.954l0.049,0.375l0.374,0.055
			c0.056,0.009,0.11,0.017,0.164,0.023c-0.589,0.111-1.165,0.227-1.727,0.347l-0.383,0.082l-0.013,0.392
			c-0.009,0.271,0.022,0.566,0.095,0.9l0.098,0.456l0.462-0.066c1.068-0.154,2.18-0.343,3.362-0.571
			c-0.326,0.352-0.65,0.707-0.975,1.07c-0.381-0.108-0.757-0.218-1.133-0.327l-0.356-0.104l-0.204,0.312
			c-0.152,0.235-0.263,0.459-0.348,0.702l-0.152,0.438l0.426,0.185c0.18,0.077,0.359,0.151,0.539,0.222l-0.424,0.5l-0.296,0.35
			l0.322,0.325c0.23,0.233,0.496,0.417,0.79,0.547l0.002,0.001c-0.654-0.02-1.299-0.043-1.941-0.069
			c0.042-0.612,0.037-1.18-0.012-1.723l-0.039-0.428l-0.428-0.026c-0.067-0.004-0.14-0.007-0.219-0.007l0,0
			c-0.48,0-1.184,0.079-2.15,0.241l-0.415,0.069l-0.002,0.422c-0.001,0.255,0.032,0.544,0.099,0.859l0.084,0.396l0.404,0.001
			c0.285,0,0.559-0.009,0.831-0.026l-0.008,0.105c-0.053,0.738-0.105,1.474-0.151,2.204l-0.024,0.383l0.364,0.122
			c0.225,0.076,0.443,0.114,0.648,0.114c0.105,0,0.208-0.01,0.305-0.03l0.328-0.069l0.061-0.329l0.07-0.37
			c0.003-0.017,0.006-0.033,0.01-0.049c0.544,0.043,1.103,0.065,1.666,0.065c0.87,0,1.782-0.053,2.712-0.156l0.369-0.041
			l0.067-0.365c0.053-0.286,0.05-0.57-0.009-0.845l-0.083-0.389l-0.397-0.008c-0.577-0.011-1.143-0.023-1.7-0.039l0.119-0.121
			c0.315-0.324,0.623-0.646,0.928-0.974c0.528,0.159,1.032,0.291,1.531,0.402l0.296,0.065l0.195-0.232
			c0.252-0.3,0.391-0.595,0.424-0.902l0.044-0.405l-0.389-0.124c-0.28-0.091-0.557-0.181-0.833-0.271
			c0.229-0.284,0.441-0.563,0.645-0.843l0.299-0.411l-0.415-0.292c-0.168-0.118-0.348-0.222-0.517-0.313
			c0.318-0.065,0.643-0.133,0.972-0.203l0.423-0.091l-0.028-0.432c-0.021-0.303-0.056-0.564-0.11-0.821l-0.099-0.457l-0.462,0.066
			c-0.396,0.058-0.787,0.117-1.176,0.178c0.048-0.293,0.053-0.582,0.016-0.883l-0.049-0.4l-0.402-0.037
			C73.748,33.709,73.21,33.683,72.688,33.683L72.688,33.683z M68.207,35.69c-0.134,0-0.264,0.006-0.388,0.017l-0.35,0.031
			l-0.09,0.34c-0.068,0.258-0.104,0.553-0.108,0.876l-0.004,0.36l0.341,0.118c0.382,0.132,0.786,0.198,1.202,0.198
			c0.204,0,0.416-0.016,0.63-0.047l0.3-0.045l0.1-0.285c0.092-0.266,0.146-0.552,0.168-0.876l0.027-0.43l-0.421-0.091
			C69.104,35.746,68.63,35.69,68.207,35.69L68.207,35.69z"/>
	</g>
	<g>
		<path d="M81.885,40.809c-0.095-0.234-0.168-0.485-0.237-0.813l-0.049-0.23l0.227-0.062c0.717-0.196,1.444-0.396,2.174-0.587
			c-0.044-0.164-0.086-0.33-0.124-0.498c-0.83,0.222-1.65,0.438-2.486,0.641l-0.209,0.051l-0.081-0.2
			c-0.106-0.262-0.193-0.547-0.258-0.847l-0.05-0.23l0.227-0.063c0.835-0.233,1.687-0.47,2.544-0.699
			c-0.038-0.154-0.076-0.305-0.11-0.455l-0.414,0.089c-0.895,0.191-1.534,0.281-2.013,0.281l-0.271-0.007l-0.063-0.146
			c-0.362-0.834-0.753-2.192-1.159-4.036l-0.054-0.245l1.188-0.257l0.064,0.225c0.306,1.057,0.591,2.109,0.858,3.152
			c0.319-0.037,0.708-0.105,1.159-0.202l0.425-0.091l-0.178-0.825c-0.5,0.082-0.956,0.138-1.358,0.167l-0.217,0.017l-0.046-0.213
			c-0.055-0.256-0.069-0.488-0.042-0.713l0.021-0.178l0.175-0.037c0.387-0.084,0.8-0.163,1.225-0.245
			c-0.043-0.212-0.081-0.427-0.116-0.641c-0.415,0.069-0.816,0.13-1.214,0.175l-0.226,0.026l-0.251-1.171l0.244-0.052
			c1.487-0.318,3.143-0.611,4.922-0.871l0.225-0.033l0.161,0.656c0.147,0.601,0.277,1.13,0.373,1.578
			c0.266,1.237,0.443,2.163,0.453,2.358l0.009,0.185l-0.175,0.062c-0.633,0.227-1.431,0.457-2.376,0.687
			c0.028,0.143,0.057,0.281,0.085,0.416c0.772-0.207,1.55-0.406,2.336-0.595l0.209-0.05l0.081,0.198
			c0.061,0.147,0.112,0.277,0.141,0.415l0.135,0.627l-0.222,0.065c-0.812,0.241-1.617,0.469-2.423,0.688l0.093,0.523l0.829-0.205
			c0.499-0.125,1.004-0.251,1.514-0.373l0.206-0.049l0.083,0.194c0.058,0.138,0.1,0.278,0.127,0.408l0.135,0.62l-0.227,0.063
			c-1.969,0.55-3.889,1.054-5.707,1.5l-0.21,0.051L81.885,40.809z M84.535,35.272c0.525-0.116,0.979-0.229,1.363-0.335
			c-0.214-0.873-0.404-1.714-0.578-2.518c-0.471,0.098-0.931,0.188-1.377,0.268l0.154,0.632l1.303-0.198l0.051,0.23
			c0.053,0.241,0.062,0.5,0.024,0.749l-0.025,0.172l-0.169,0.036c-0.321,0.069-0.628,0.136-0.912,0.19L84.535,35.272z"/>
		<path fill="#FFFFFF" d="M86.147,31.264c0.19,0.779,0.36,1.454,0.479,2.007c0.3,1.396,0.44,2.175,0.447,2.317
			c-0.671,0.24-1.537,0.487-2.581,0.734c0.059,0.325,0.123,0.625,0.185,0.913c0.854-0.23,1.713-0.452,2.584-0.661
			c0.05,0.122,0.101,0.243,0.128,0.372l0.086,0.401c-0.884,0.262-1.76,0.509-2.638,0.746c0.062,0.349,0.122,0.686,0.18,1.012
			c0.849-0.207,1.717-0.43,2.601-0.642c0.052,0.122,0.089,0.247,0.113,0.362l0.085,0.391c-1.867,0.521-3.774,1.026-5.699,1.498
			c-0.104-0.256-0.171-0.518-0.225-0.771c0.796-0.219,1.605-0.44,2.417-0.65c-0.092-0.318-0.176-0.65-0.246-0.984
			c-0.914,0.244-1.814,0.484-2.732,0.706c-0.104-0.257-0.186-0.528-0.245-0.806c0.911-0.255,1.843-0.514,2.78-0.763
			c-0.079-0.31-0.158-0.618-0.225-0.929l-0.656,0.141c-0.836,0.179-1.483,0.275-1.96,0.275c-0.036,0-0.07-0.001-0.104-0.002
			c-0.355-0.817-0.738-2.147-1.145-3.99l0.715-0.154c0.325,1.125,0.627,2.244,0.91,3.354c0.357-0.029,0.824-0.104,1.4-0.229
			l0.669-0.143l-0.28-1.304c-0.616,0.107-1.144,0.173-1.571,0.204c-0.042-0.195-0.064-0.409-0.038-0.631
			c0.46-0.1,0.959-0.193,1.468-0.291c-0.079-0.369-0.148-0.752-0.204-1.127c-0.501,0.085-0.978,0.161-1.45,0.215l-0.151-0.704
			C82.73,31.813,84.37,31.523,86.147,31.264 M83.909,33.6c0.422-0.064,0.855-0.123,1.298-0.194c0.051,0.231,0.051,0.46,0.021,0.659
			c-0.416,0.09-0.808,0.174-1.157,0.236l0.272,1.27c0.75-0.161,1.367-0.317,1.855-0.458c-0.259-1.043-0.484-2.043-0.688-2.988
			c-0.646,0.138-1.272,0.259-1.875,0.364C83.73,32.879,83.824,33.258,83.909,33.6 M86.525,30.703l-0.45,0.066
			c-1.784,0.26-3.446,0.555-4.938,0.873l-0.489,0.105l0.102,0.472l-0.365,0.079l-0.715,0.154l-0.491,0.105l0.108,0.49
			c0.41,1.859,0.805,3.233,1.174,4.082l0.127,0.29l0.316,0.011l0.12,0.002c0.466,0,1.07-0.08,1.895-0.25
			c-0.663,0.18-1.321,0.363-1.969,0.544l-0.453,0.127l0.099,0.46c0.068,0.313,0.159,0.612,0.271,0.889l0.162,0.398l0.418-0.101
			c0.76-0.184,1.512-0.381,2.244-0.576c0.001,0.004,0.002,0.008,0.003,0.012c-0.649,0.172-1.297,0.349-1.936,0.524l-0.454,0.125
			l0.098,0.461c0.045,0.213,0.12,0.533,0.25,0.855l0.162,0.401l0.421-0.104c1.82-0.446,3.743-0.951,5.715-1.502l0.454-0.127
			l-0.101-0.461l-0.085-0.391c-0.032-0.155-0.08-0.308-0.142-0.451l-0.165-0.39l-0.411,0.099c-0.512,0.122-1.017,0.249-1.517,0.373
			c-0.19,0.048-0.38,0.095-0.568,0.142l-0.007-0.036c0.734-0.201,1.468-0.41,2.207-0.629l0.444-0.132l-0.097-0.452l-0.086-0.401
			c-0.035-0.166-0.095-0.311-0.147-0.438l-0.162-0.397l-0.392,0.076c0.022-0.008,0.044-0.016,0.065-0.023l0.348-0.125l-0.018-0.369
			c-0.012-0.253-0.244-1.404-0.457-2.398c-0.097-0.451-0.228-0.982-0.375-1.586l-0.107-0.436L86.525,30.703L86.525,30.703z
			 M84.248,32.886c0.292-0.054,0.586-0.111,0.88-0.171c0.015,0.063,0.028,0.127,0.042,0.189l-0.043,0.008
			c-0.263,0.042-0.523,0.08-0.78,0.117l-0.062,0.01C84.273,32.988,84.261,32.938,84.248,32.886L84.248,32.886z M81.175,33.364
			l0.275-0.031c0.328-0.038,0.659-0.086,0.98-0.137c0.009,0.052,0.019,0.104,0.028,0.155c-0.34,0.066-0.672,0.131-0.984,0.199
			l-0.233,0.05C81.219,33.521,81.197,33.443,81.175,33.364L81.175,33.364z M84.667,34.694c0.213-0.044,0.437-0.091,0.667-0.142
			l0.204-0.043c0.02,0.083,0.04,0.167,0.06,0.25c-0.272,0.071-0.563,0.143-0.871,0.213L84.667,34.694L84.667,34.694z M81.665,35.168
			c0.343-0.025,0.724-0.07,1.136-0.132l0.075,0.349l-0.18,0.038c-0.347,0.075-0.654,0.132-0.92,0.171
			C81.739,35.45,81.702,35.309,81.665,35.168L81.665,35.168z"/>
	</g>
</g>
<circle cx="65.335" cy="62.602" r="2.556"/>
</svg>
