<?xml version="1.0" encoding="utf-8"?>
<!-- Generator: Adobe Illustrator 16.0.0, SVG Export Plug-In . SVG Version: 6.00 Build 0)  -->
<!DOCTYPE svg PUBLIC "-//W3C//DTD SVG 1.1//EN" "http://www.w3.org/Graphics/SVG/1.1/DTD/svg11.dtd">
<svg version="1.1" id="Layer_1" xmlns="http://www.w3.org/2000/svg" xmlns:xlink="http://www.w3.org/1999/xlink" x="0px" y="0px"
	 width="126.876px" height="112.438px" viewBox="0 0 126.876 112.438" enable-background="new 0 0 126.876 112.438"
	 xml:space="preserve">
<rect fill="#FFFFFF" width="126.876" height="112.438"/>
<path d="M48.821,38.292c0.052,0,0.259-0.139,0.31-0.139c0.172,0.035,0.361-0.017,0.569-0.274c0.603,0,0.705-0.413,1.102-0.654
	c0.361-0.259,0.603-0.568,0.93-0.896c0.033-0.103,0.723-0.671,0.757-0.773c0.068-0.052,0.173-0.208,0.173-0.31
	c0-0.258-0.414-0.362-0.517-0.62c-0.068-0.155-0.087-0.466-0.207-0.466c0.019-0.052,0.035-0.085,0.035-0.154l-0.104-0.155
	c0-0.052,0.104-0.224,0.104-0.413c-0.189-0.121-0.138-0.258-0.138-0.465c0-0.24-0.207-0.379-0.207-0.586
	c0.086-0.205-0.103-0.345-0.103-0.447h0.033c0.069,0,0.276,0.103,0.276,0.103c0.154,0.208,0.567,0.225,0.826,0.345
	c0.017,0.086,0.43,0.173,0.551,0.586c0,0.138-0.018,0.327,0.068,0.362c0.019,0.274-0.068,0.516-0.068,0.722
	c0.068,0,0.104,0.052,0.104,0.052c0.31-0.241,0.396-0.654,0.792-1.033c-0.12-0.137,0.241-0.274,0.241-0.481
	c0-0.292,0.585-0.602,0.585-1.136c0-0.104,0-0.208-0.154-0.208c-0.414,0-0.861,0.035-0.948,0.173h-0.825l-0.104-0.069
	c-0.137,0.173-0.258,0.173-0.413,0.173c-0.034,0-0.034-0.068-0.103-0.068c-0.225,0-0.638,0.206-0.965,0.206
	c-0.275,0-0.155-0.533-0.275-0.551c-0.086-0.311,0.31-0.311,0.31-0.311l0.173,0.035l0.104-0.035c0.033,0,0.361,0.035,0.413,0.035
	c0.086-0.035,0.344-0.035,0.653-0.035c0.087,0,0.173,0.018,0.276,0.104c0-0.258,0.946-0.155,1.033-0.205c0.189,0,0.223,0,0.31,0.033
	c1.119,0,1.016-0.033,1.498-0.654c0.104-0.069,0.137-0.154,0.155-0.275c0.413-0.189,1.136,0.792,1.136,1.136
	c0,0.173-0.412,0.276-0.465,0.518c-0.052,0.068-0.361,0.378-0.413,0.413c-0.035,0.292-0.345,0.327-0.413,0.48
	c-0.103,0.14-0.412,0.672-0.517,0.724l-0.155-0.052c0,0.26,0.052,0.431-0.258,0.672c-0.052,0.052-0.035,0.43-0.241,0.43
	c-0.069,0-0.293,0.346-0.431,0.449c-0.154,0-0.086,0.206-0.104,0.31c0,0.173-0.431,0.293-0.379,0.414
	c0.069-0.121-0.258,0.567-0.516,0.567l-0.207,0.052c0.018,0-0.447,0.533-0.758,0.517c-0.172,0.104-0.104,0.31-0.206,0.378
	c-0.38,0-0.465,0.414-0.689,0.551c-0.36-0.017-0.241,0.276-0.447,0.414c-0.173,0.104-0.31,0.173-0.482,0.206
	c-0.033,0.07-0.567,0.207-0.619,0.276c-0.034-0.156-0.225,0.31-0.724,0.31c-0.31,0.104-0.62,0.31-0.93,0.31
	c-0.104,0-0.206-0.068-0.206-0.172C48.047,38.516,48.562,38.446,48.821,38.292z M52.247,44.37c0-0.068-0.688-0.62-0.688-0.827
	c0-0.327,0.827-0.274,1.516-0.274c0.138-0.053,0.189-0.482,0.447-0.759c0.068,0.12,0.155-0.653,0.724-1.257
	c-0.086-0.465,0.155-0.31,0.206-0.465c-0.034-0.154-0.103-0.361-0.31-0.361c-0.241,0-0.412,0.259-0.654,0.259
	c-0.275,0-0.481-0.052-0.723-0.052c-0.104,0-0.208,0.052-0.208,0.154c0,0.052,0.035,0.207,0.035,0.26c0,0.05-0.035,0.31-0.035,0.359
	c0,0.104-0.688,0.466-0.792,0.466c-0.31,0-0.31-0.31-0.31-0.516c0-0.414,0.276-0.879,0.276-1.188c0.017,0-0.052-0.154-0.069-0.259
	c0.362-0.534,0.259-2.066,0.724-2.341c0.431,0,0.672,0.379,1.032,0.379c0.172,0,0.312-0.104,0.517-0.104l0.173,0.035
	c0.189,0,0.62,0.017,0.724-0.241c0.051-0.207,0.154-0.482,0.154-0.723c0.104-0.517-0.965-0.189-0.981-0.379l-0.206,0.068
	c-0.362,0.052-0.311-0.499-0.311-0.586c0.103,0,0.81-0.051,1.292-0.051c0.361,0,0.31-0.517,0.567-0.517s0.361,0.206,0.516,0.361
	c0.104,0.104,0.311,0.155,0.414,0.258c0.017,0.052,0.052,0.121,0.104,0.121h0.121c0.033,0,0.085,0.018,0.085,0.207
	c0,0.517-0.361,0.637-0.361,0.757c-0.052,0.311-0.052,0.724-0.052,1.033l-0.051,0.069c-0.276,0-0.672,0.034-0.775,0.034
	l-0.206-0.104c-0.052,0-0.259,0.104-0.31,0.104c-0.38,0-1.12,0.069-1.653,0.069c-0.069,0.033-0.087,0.12-0.172,0.12
	c-0.019,0-0.019-0.018-0.035-0.018l-0.173,0.31c0.104,0.139,0.208,0.241,0.208,0.413c0,0.208-0.035,0.362-0.035,0.568
	c0,0.155,0.138,0.26,0.31,0.26c0.138,0,0.31-0.053,0.518-0.053c0.206,0,0.31,0.103,0.447,0.103l0.637-0.31
	c0.052,0,0.259-0.206,0.31-0.206h0.312c0.239,0.31,0.825,0.447,0.825,0.878c0.068,0.086-0.104,0.086-0.155,0.104
	c0.12,0.293-0.379,0.518-0.517,0.775c0,0.085-0.274,0.603-0.516,0.773c0.017,0.035-0.104,0.414-0.586,1.052
	c-0.241,0.171-0.225,0.326-0.31,0.447l-0.724,0.724c-0.104,0.102-0.31,0-0.413,0.102c-0.121,0.362-0.292,0.276-0.517,0.414
	c-0.155,0-0.413-0.018-0.413-0.241C52.179,44.473,52.247,44.473,52.247,44.37z M52.746,38.31c0.07,0,0.155-0.018,0.225-0.018v-0.034
	c-0.069-0.069-0.293-0.104-0.482-0.104C52.488,38.274,52.608,38.31,52.746,38.31z M56.689,43.269
	c0.018,0.102,0.552-0.482,0.93-0.724c0.156-0.104,0.31-0.206,0.31-0.414c0-0.206-0.31-0.671-0.413-0.825
	c-0.12-0.241-0.361-0.639-0.361-0.981c0-0.208,0.311-0.31,0.465-0.31c0.156,0,0.31,0.05,0.466,0.05c0.31,0,0.516-0.05,0.792-0.05
	c0.31,0,0.551,0.05,0.86,0.05c0.069,0,0.517-0.103,0.585-0.103c0.241,0.103,0.208-0.361,0.759-0.361
	c0.05-0.068,0.137,0.104,0.206,0.154c0.31-0.033,0.465,0.414,0.619,0.569c0.104,0.154,0.31,0.258,0.31,0.464
	c0,0.104-0.033,0.207-0.137,0.26c-0.396-0.104-0.965,0.636-1.309,0.567c-0.035,0.551-0.931,0.274-0.931,0.825
	c0.208,0.466,0.724,0.311,1.103,0.518c0.087,0.138,0.172,0.241,0.31,0.173c0.139,0,0.586,0.103,0.621,0.292
	c0.017-0.053,0.103-0.053,0.103-0.053c0.448,0,0.328,0.208,1.205,0.208c0.104,0,0.414,0.188,0.414,0.188
	c0.052,0,0.12-0.017,0.171-0.017c0.155,0,0.241,0.241,0.276,0.31l-0.104,0.103l-0.446,0.104c-0.207,0.206-0.896,0.378-0.896,0.619
	c-0.103,0.139-0.206,0.139-0.48,0.139c-0.035,0-0.241-0.139-0.312-0.139c-0.447-0.017-0.447-0.206-0.722-0.31
	c-0.346-0.12-0.655-0.086-0.827-0.585c-0.275,0-0.344-0.052-0.344-0.345h-0.07c0,0.035-0.033,0.138-0.103,0.206
	c-0.12,0.035-0.12-0.12-0.24-0.12c-0.019,0-0.035,0.018-0.069,0.018l-0.31-0.31h-0.035c-0.225,0,0.035-0.276-0.586-0.276
	c-0.138,0.155-0.31,0.189-0.36,0.276c-0.413-0.087-0.534,0.326-1.033,0.344c0.033,0.31-1.12,0.706-1.499,0.792
	c-0.12-0.086-0.258,0.104-1.601,0.551c-0.086,0.087-0.052-0.12-0.173-0.206c0.069,0.361-0.31,0.275-0.447,0.482
	c-0.085,0.103-0.396,0.171-0.619,0.171c0-0.292-0.068-0.239,1.066-0.688c0.414-0.172,0.913-0.326,1.258-0.619
	C56.604,43.354,56.518,43.578,56.689,43.269z M56.948,38.705c-0.069-0.121,0.206-0.413,0.206-0.653c0-0.586,0.311-0.639,0.311-1.653
	c0-0.104-0.018-0.224-0.018-0.361c0-0.14,0.018-0.276,0.12-0.431c0.241,0.017,0.449,0.154,0.672,0.258h1.395
	c0.173,0,0.173-0.155,0.173-0.258c0-0.139-0.035-0.139-0.087-0.139c0.018-0.017-0.292-0.206-0.292-0.379
	c-0.518-0.12-0.775-1.48-0.775-1.755c-0.188-0.052-0.104-0.362-0.206-0.534c-0.207-0.189-0.413-1.258-0.413-1.757
	c0-0.104,0.104-0.138,0.154-0.138c0.481,0,0.413,0.93,0.723,0.93c0.069,0,0.104-0.068,0.208-0.068c0.068,0,0.171,0.104,0.206,0.104
	c0-0.345,0.516-0.413,0.516-0.723c0.38-0.277,0.724-0.639,0.724-1.171l0.068-0.069c0.38,0,0.449-0.018,0.62,0.069
	c0.087,0,0.155-0.035,0.207-0.035c0.017,0.035,0.861,0.345,0.861,0.86l-0.035,0.138c-0.688,0.31-1.343,0.518-1.928,0.999
	c-0.208,0.154-1.239,0.327-1.239,0.758c0,0.326,0.206,0.482,0.412,0.74c0.155,0.189,0.068,0.518,0.518,0.518
	c0.102,0,0.584-0.466,0.723-0.57c0.912-0.912,0.93-1.033,1.136-0.998c0.069,0,0.069-0.345,0.208-0.447
	c0.068-0.051,0.171-0.068,0.171-0.207c0.518,0,0.999,0.74,0.999,1.068c0,0.326,0,0.104-0.172,0.274
	c0.068,0.156-0.396,0.241-0.62,0.31c-0.328,0.121-0.172,0.173-0.827,0.362c-0.068,0-0.378,0.259-0.413,0.259
	c-0.189,0-0.533,0.327-0.792,0.465c-0.018,0.225,0.035,0.31,0.172,0.465c0,0.311,0.414,0.482,0.62,0.62
	c0.035,0.173,0.396,0.258,0.621,0.413c0.103,0.103,0.412,0.481,0.705,0.431c0.068,0.051,0.724,0.396,0.947,0.62
	c0.499,0.223,0.552,0.189,0.723,0.343c0.276,0.104,1.102,0.104,1.102,0.482c-0.068,0-0.206,0.035-0.206,0.035
	c-0.345,0.293-0.654,0.293-0.998,0.413c-0.241,0.172-0.449,0.517-0.759,0.517c-0.033,0.085-0.258-0.189-0.378-0.31
	c-0.241,0.085-0.379-0.293-0.688-0.414c-0.052,0-0.104,0.017-0.138,0.017c-0.12,0-0.276-0.431-0.586-0.431
	c-0.138,0-0.138,0.173-0.138,0.277c0,0.24,0.034,0.361,0.206,0.654c0,0.379-0.534,0.379-0.93,0.379
	c-0.085,0.017-0.104,0-0.205-0.069l-0.07,0.069c-0.103,0.017-0.275-0.069-0.412-0.069c-0.104,0-0.156,0.103-0.449,0.103
	c-0.017,0.018-0.378,0-0.378-0.241c0-0.171,0.068-0.31,0.068-0.516c0-0.069-0.068-0.104-0.068-0.206c0-0.173,0-0.208,0.068-0.311
	v-0.999c-0.138-0.154-0.688-0.086-0.843-0.138c-0.328-0.052-0.259,0.534-0.259,0.654c0,0.069-0.154,0.275-0.154,0.311
	c-0.087,0.412-0.379,0.619-0.518,0.998c-0.103,0.138-0.206,0.516-0.361,0.619c-0.224,0.225-0.413,0.431-0.758,0.431
	c-0.033,0-0.068-0.017-0.068-0.068C56.432,39.239,56.794,39.015,56.948,38.705z M58.601,41.563c0.345,0,0.568-0.482,0.792-0.466
	l0.035,0.052c0.069-0.154,0.206-0.258,0.206-0.464c0-0.155-0.206-0.155-0.31-0.155h-1.291c-0.208,0-0.31,0.052-0.414,0.206
	c0,0.104,0.327,0.431,0.672,0.775C58.343,41.563,58.497,41.563,58.601,41.563z M60.701,38.188c0.569,0,0.345-0.413,0.481-0.654
	c0-0.104-0.033-0.414-0.033-0.482c-0.087-0.033-0.345-0.412-0.586-0.412c-0.138,0-0.516,0.516-0.516,0.722l0.068,0.173
	c0,0.035-0.068,0.104-0.104,0.104C60.013,38.378,60.46,38.188,60.701,38.188z"/>
<path d="M54.705,53.332c0.035,0,0.468-0.12,0.516-0.12c0.216,0,0.432-0.048,0.432-0.288l0.072-0.863
	c0.023-0.072,0.023-0.145,0.023-0.216c0-0.216,0-0.336-0.023-0.552c-0.036-0.036-0.133-0.084-0.145-0.108
	c-0.216,0-0.407,0.036-0.623,0.036c-0.276,0-0.324-0.107-0.324-0.288c0,0,0-0.107,0.036-0.107h0.72c0-0.012,0.228-0.084,0.264-0.145
	c0-0.359,0.023-1.007,0.023-1.079c0.013-0.107-0.071-0.348-0.071-0.479c-0.024-0.288-0.072-0.312-0.36-0.312
	c-0.6,0-0.707,0.096-0.972,0.096c-0.216,0-0.396-0.096-0.539-0.288c0-0.096,0.156-0.096,0.216-0.096
	c0.072-0.012,0.504,0.012,0.54,0.023c0.396-0.071,0.827,0,1.235-0.071c0.107,0,0.287-0.097,0.575-0.097
	c0.168-0.107,0.384,0.024,0.504-0.119c0.144-0.024,0.42-0.456,0.647-0.456c0.108-0.072,0.312,0.491,0.312,0.527
	c0,0.048,0,0.192-0.071,0.192h-0.576c-0.144,0.216-0.875,0.096-0.888,0.288c-0.035,0.312,0.72,0.275,0.72,0.468
	c0,0.144-0.336,0.287-0.407,0.468c0,0.155-0.024,0.312-0.024,0.503c0,0.145,0,0.504,0.216,0.504c0.492,0,0.852-0.504,0.863-0.504
	c0.168,0.108,0.216,0.252,0.216,0.468c0,0.252-0.371,0.216-0.575,0.216c-0.084,0.097-0.588-0.012-0.72,0.216
	c0,0.108-0.048,0.72-0.048,0.84c-0.012,0.024,0,0.084,0.048,0.168v0.624c0.024,0.084,0.168,0.096,0.24,0.096
	c0.12,0,0.947-0.072,0.936-0.168c0.071,0,0.119,0.024,0.119,0.072s-0.419,0.312-0.575,0.312c-0.048,0-0.288,0.12-0.336,0.12
	c-0.252,0.155-0.324,0.06-0.456,0.144c-0.048,0-0.287,0.192-0.335,0.192c-0.168,0.071-0.288,0.096-0.456,0.168
	c-0.048,0-0.264,0.144-0.288,0.144c-0.048,0-0.288,0.12-0.336,0.12c-0.204,0-0.563,0.359-0.863,0.359
	c-0.06,0.036-0.096-0.168-0.144-0.264c0-0.228-0.324-0.336-0.324-0.575C53.697,53.296,54.429,53.355,54.705,53.332z M56.228,57.109
	c0.229-0.072,0.348-0.168,0.576-0.396c0.827-0.479,0.899-0.792,1.655-1.919c0.036-0.144,0.155-0.3,0.18-0.384
	c0-0.048,0.144-0.144,0.144-0.192c0.312-0.443,0.432-1.02,0.72-1.486c0.036-0.084,0.096-0.072,0.18-0.072l0.576,0.575
	c0.036,0.048,0.036,0.097,0.036,0.12c0,0.264-0.288,0.408-0.396,0.552c0.061,0.072-0.119,0.096-0.323,0.6
	c-0.072,0.048-0.18,0.12-0.216,0.192c-0.432,0.755,0.264-0.468-0.792,1.115c-0.252,0.288-0.611,0.468-0.804,0.827l-0.384,0.108
	c0,0.048-0.275,0.252-0.623,0.359c-0.216,0.072-0.468,0.216-0.647,0.216c-0.072,0-0.072-0.036-0.072-0.071
	C56.036,57.146,56.156,57.146,56.228,57.109z M60.617,55.49c0-0.096,0-0.096-0.036-0.144c0.024-0.048,0.024-0.18,0.072-0.216
	l-0.036-0.048c0-0.924,0.072-1.176,0.072-1.392c0-0.048-0.036-0.191-0.036-0.216c0-0.408,0.024-0.54,0.12-0.815
	c-0.192-0.072,0.024-0.528-0.264-0.528c-0.145,0-0.324,0.072-0.468,0.072h-0.684c-0.216,0.145-0.18,0.36-0.252,0.576
	c-0.036,0.096-0.216,0.359-0.36,0.384c-0.251-0.168-0.323-0.456-0.359-0.744c0-0.863,0.036-1.175,0.036-1.415
	c0.023-0.144-0.072-0.3-0.072-0.432c0.024-0.156,0.108-0.384,0.108-0.576c0-0.012-0.036-0.791-0.036-1.307
	c-0.145-0.24-0.072-0.576-0.18-0.815c0-0.108-0.145-0.204-0.145-0.288c0-0.048,0.036-0.072,0.036-0.072
	c0.12,0.024,0.216-0.144,0.36-0.144c0.359-0.036,0.719,0.6,0.971,0.6h0.576c0.071-0.024,0.107-0.024,0.18-0.024
	s0.108,0.024,0.18,0.024c0.012,0.06,0.132-0.072,0.216-0.072c0.181,0,0.145-0.072,0.899-0.072c0.049,0,0.192-0.071,0.216-0.071
	c0.456,0.048,0.396-0.588,0.864-0.504c0.048,0,0.407,0.264,0.479,0.288c0.096,0,0.216,0.228,0.216,0.287
	c0,0.108-0.144,0.301-0.191,0.408c-0.072,0.156-0.145,0.576-0.145,1.008c-0.048,0.036,0.061,0.107,0.048,0.252
	c0,0.035-0.048,0.216-0.048,0.252c0,0.035,0.048,0.18,0.048,0.216V51.7c0.024,0.013,0.048,0.048,0.048,0.084
	c0,0.204-0.119,0.636-0.119,0.804c-0.097,0.061-0.336,0.432-0.576,0.432c-0.479,0-0.144-0.959-0.575-0.959l-0.624,0.071
	c0,0-0.072,0.024-0.072,0.072c0,0.072,0.192,0.288,0.216,0.36c0.072,0.012,0.408,0.491,0.647,0.719c0,0.192-0.359,0.145-0.432,0.265
	c-0.035,0.252-0.071,0.479-0.071,0.671v0.768c0,0.024,0.048,0.097,0.048,0.145c0,0.144-0.048,0.288-0.048,0.432
	c0,0.288,0.203,0.324,0.479,0.324c0.695,0,0.888-0.108,1.655-0.108c0,0,0.336-0.144,0.432-0.18c0.456-0.145,0.348-1.115,0.624-1.115
	c0.071,0,0.096,0.743,0.167,0.899c0.168,0.18,0.145,0.252,0.145,0.647c-0.647,0.575-1.464,0.432-2.207,0.504
	c-0.144,0-0.264,0.036-0.432,0.036h-1.247c-0.12,0-0.48-0.36-0.48-0.504C60.581,55.887,60.617,55.67,60.617,55.49z M59.466,51.868
	c0.504,0,1.14,0.061,1.596-0.144c0.132,0,0.287,0.023,0.455,0.023c0.612,0,0.456-0.144,0.576-0.407c0-0.12-0.024-0.204-0.024-0.3
	c-0.048-0.792,0-1.547-0.048-2.351c0-0.36-0.012-0.576-0.359-0.576c-0.384,0-1.224,0.061-1.296,0.12
	c-0.252,0.024-1.115,0.036-1.115,0.24c0,0.071,0,0.623,0.108,0.647c0.036,0,0.287,0.048,0.323,0.048c0.648,0,0.948-0.12,1.26-0.12
	c0.288,0,0.275-0.216,0.479-0.216c0.096,0,0.096,0.048,0.096,0.12c0,0.144-0.023,0.288-0.144,0.359
	c-0.096,0-0.684,0.072-0.792,0.072h-0.168c-0.083,0-0.167,0-0.228,0.036h-0.647c-0.359,0-0.324,0.359-0.324,0.575
	c0,0.108,0.036,0.6,0.072,0.648l0.072,0.107c0.623,0.036,1.175-0.144,1.847-0.144c0.12-0.013,0.288,0.012,0.288,0.144
	c0,0.072-0.048,0.144-0.12,0.144l-0.144-0.035c-0.024,0-0.216,0.071-0.24,0.071h-0.372c-0.036,0-0.359,0.072-0.468,0.072
	c-0.887,0.06-0.936,0.036-0.936,0.408C59.214,51.581,59.25,51.868,59.466,51.868z M62.297,51.461c0,0.023,0.012,0.048,0.012,0.048
	c0.048-0.012,0.191,0.06,0.191-0.084v-0.061C62.452,51.389,62.297,51.329,62.297,51.461z"/>
<path d="M67.161,68.327l0.072-0.036l-0.036-0.036c-0.024-0.288,0.072-0.563,0.072-1.235c0-0.695-0.108-1.56-0.108-2.207
	c-0.036-0.071,0.036-0.396,0.036-0.672c0.036-0.023-0.036-0.216-0.036-0.335v-0.648c0-0.023-0.071-0.503-0.071-0.527
	c0-0.312-0.072-0.672-0.072-0.876c-0.072-0.359-0.612-0.611-0.612-0.719c0-0.181,0.324-0.216,0.468-0.216
	c0.072,0,0.072,0.071,0.108,0.071c0.048,0,0.06-0.012,0.06-0.06c0-0.192,0.229-0.192,0.372-0.192
	c0.336,0.145,0.624,0.348,0.972,0.468c0.252,0.013,0.6-0.144,0.899-0.144c0.563,0,1.487-0.048,1.535-0.048
	c0.108,0,0.24,0.012,0.384,0.012c0.096,0,0.624-0.036,0.72-0.036c0.048-0.036,0.216-0.216,0.264-0.252
	c0.072-0.107,0.359-0.539,0.432-0.539h0.024c0.3,0.18,0.443,0.348,0.72,0.575c0.023,0.036,0.623,0.396,0.623,0.468
	c0,0.061-0.312,0.216-0.407,0.216c-0.216,0.108-0.312,0.324-0.312,0.576c0,0.323,0.084,0.575,0.072,0.911
	c0,0.096-0.048,0.888-0.048,1.008c0.06,0.371,0.072,0.743,0.072,1.139c0,0.216-0.013,0.444-0.013,0.66c0,0.204,0,0.456,0.061,0.624
	c0,0.167-0.048,0.312-0.048,0.455c0,0.264,0.048,0.504,0.048,0.731c0,0.468-0.048,0.864-0.048,1.296
	c-0.072,0.252-0.433,0.899-0.72,0.899c-0.516,0-0.36-0.852-0.6-0.936c-0.552,0-0.983,0.072-1.487,0.072
	c-0.048,0-0.288-0.036-0.336-0.036c-0.024,0.036-0.048,0.048-0.084,0.048c-0.024,0-0.036-0.012-0.084-0.012
	c-0.264,0-1.344,0.107-1.595,0.107c-0.084,0-0.204,0.036-0.252,0.072c-0.048,0.336-0.229,0.72-0.54,0.936
	c-0.3,0-0.647-0.42-0.647-0.72C67.006,68.579,67.125,68.482,67.161,68.327z M71.275,64.285c0.144,0.096,0.503,0.456,0.695,0.456
	c0.072,0,0.144-0.024,0.144-0.097c0-0.42-0.048-0.432-0.048-0.623c0-0.024-0.023-0.888-0.071-1.248
	c-0.013-0.096,0.048-0.132,0.048-0.264c0-0.071,0-0.107-0.048-0.18v-0.72l-0.072-0.036c-0.96-0.012-1.967,0.072-2.998,0.108h-0.229
	c-0.204,0-0.396,0.012-0.563,0.107c-0.072,0.072-0.072,0.324-0.072,0.468c0,0.072,0,0.108,0.036,0.216v0.732l0.036,0.096
	c-0.012,0.048-0.012,0.132-0.012,0.239c0,0.576-0.036,0.948,0.336,1.056c0.803,0.024,1.295,0.036,1.811-0.144
	c0.228-0.072,0.432-0.384,0.672-0.384C71.083,64.069,71.155,64.165,71.275,64.285z M68.24,68.039
	c0.097,0.432,1.08,0.072,1.235,0.288c0.013-0.024,0.349-0.072,0.576-0.072c-0.024,0,0.443-0.108,1.511-0.108
	c0.433,0,0.576-0.035,0.576-0.323c0-0.108-0.024-0.216-0.024-0.324c0-0.132,0.024-0.312,0.024-0.432
	c0.023-0.252-0.024-0.936-0.024-1.127c0-0.229,0.024-0.384,0.024-0.72c-0.096-0.097-0.96-0.072-0.983-0.145
	c-0.024,0-0.216,0.048-0.24,0.048c-0.048,0.036-0.204-0.048-0.288-0.048c-0.191,0-0.359,0.12-0.551,0.12
	c-0.36,0.024-0.72,0.024-1.08,0.072c-0.096,0-0.575,0.072-0.684,0.072c-0.12,0-0.144,0.155-0.144,0.287
	C68.169,66.24,68.24,67.812,68.24,68.039z"/>
<path d="M69.812,80.888c0-0.107-0.048-0.659-0.048-0.756c0-0.144-0.168-0.191-0.288-0.191c-0.156,0-0.3,0.06-0.456,0.048
	c-0.071,0-0.336-0.048-0.384-0.048c-0.023,0.048-0.6,0.12-0.671,0.12c-0.156,0.048-0.552-0.324-0.552-0.624l0.071-0.023h0.792
	c0.12,0.023,0.144,0.023,0.264,0.023c0.144,0,0.216-0.072,0.36-0.072c0.191-0.023,0.503-0.023,0.647-0.023
	c0.023-0.024,0.084,0.012,0.144,0.023c0.048,0,0.072-0.071,0.072-0.071l0.048-0.36c0-1.871-0.048-2.639-0.048-3.142l-0.024-0.145
	c-0.096,0-0.06-0.012-0.12,0.036c-0.275,0.576-0.491,1.151-0.815,1.667c-0.096,0.072-0.623,0.815-0.695,0.888
	c-0.563,0.756-1.367,1.319-2.087,1.967c-0.372,0.288-0.768,0.456-1.163,0.684c-0.18,0.108-0.252,0.18-0.432,0.18
	c-0.072,0-0.145,0-0.145-0.071c0-0.108,0.324-0.288,0.432-0.336c0.108-0.096,0.576-0.576,0.684-0.672
	c0.396-0.552,1.008-0.924,1.487-1.439c0.024-0.191,0.288-0.336,0.384-0.552c0.168-0.155,0.168-0.455,0.288-0.503
	c0-0.24,0.24-0.372,0.336-0.576c0-0.084,0.228-0.575,0.456-1.02c0.144-0.288,0.552-0.827,0.552-1.115c0-0.144-0.024-0.18-0.145-0.18
	c-0.479,0-0.888,0.107-1.151,0.107c-0.407,0-0.863,0.145-1.271,0.145c-0.443,0-0.323-0.12-0.432-0.288
	c-0.18-0.252-0.396-0.54-0.611-0.756c0-0.012-0.036-0.144,0.072-0.144c0.287,0,0.491,0.012,0.659,0.107
	c0.072,0,0.132-0.012,0.204-0.012c0.359,0,0.684,0.084,1.091,0.084c0.072,0,0.168-0.036,0.288-0.036
	c0.145,0,0.288,0.072,0.432,0.072c1.655,0,1.728,0.06,1.728-0.636c0-0.659,0.096-1.199-0.24-1.308c-0.191,0-0.348-0.06-0.432-0.191
	c0.096-0.168,0.359-0.144,0.527-0.168c0.216-0.048,0.288-0.144,0.552-0.12c0.156,0.156,0.384,0.132,0.576,0.216
	c0.216,0.192,0.384,0.229,0.384,0.479c0,0.252-0.36,0.156-0.36,0.672c0.049,0.048-0.071,0.204-0.071,0.288
	c-0.048,0.731,0.12,0.695,0.623,0.695c0.12,0,0.468,0.013,0.684-0.036h0.936c0.252,0,0.396-0.539,0.684-0.539
	c0.145,0,0.216,0.071,0.288,0.168c0.108,0.119,0.396,0.611,0.396,0.647c0,0.06-0.012,0.204,0,0.228l-0.071,0.036
	c-0.636,0,0.396,0.072-2.267,0.072c-0.288,0-0.408,0.18-0.552,0.18c-0.097,0-0.24-0.072-0.36-0.072
	c-0.168,0-0.384,0.072-0.384,0.288v0.792c0.036,0.119,0.048,0.239,0.048,0.348c0,0.204,0.097,0.359,0.097,0.804l-0.049,0.119
	c-0.012,0.288,0.049,0.3,0.049,0.433c0,0.371,0.023,0.707,0.023,1.031c0.012,0.06-0.012,0.107-0.023,0.168
	c0,0.023,0.023,0.168,0.023,0.216c0.048,0.336-0.12,0.504,0.479,0.575c0.229-0.096,0.444-0.071,0.684-0.12
	c0.036,0,0.288-0.071,0.324-0.071c0.144-0.061,0.359,0.312,0.359,0.432c0,0.191-0.455,0.42-0.684,0.504
	c-0.491,0.023-0.468-0.24-0.731-0.24c-0.084,0-0.432-0.036-0.432,0.144v0.828c-0.023,0.12-0.023,0.264-0.023,0.359
	c0,0.145,0.071,0.828,0.071,0.972c0,0.072-0.216,0.324-0.216,0.504c-0.107,0.155-0.312,0.396-0.552,0.396
	c-0.144,0-0.288-0.323-0.312-0.432V80.888z M71.467,74.676l0.071,0.071c-0.023,0.468,0.049,0.563,0.181,0.828
	c0.287,0.647,0.755,1.223,1.331,1.654c0.144,0.168,0.288,0.276,0.468,0.36c0.036,0,0.18,0.191,0.216,0.191s0.18,0.097,0.216,0.097
	c0.348,0.323,0.756,0.552,1.199,0.743c0.024,0,0.168,0.072,0.216,0.072c-0.036,0,0.744,0.252,0.744,0.384s-0.492,0.228-0.528,0.216
	c-0.504,0.204-0.827,0.348-1.343,0.863h-0.072c-0.144-0.168-0.324-0.24-0.468-0.432c-0.252-0.312-0.504-0.624-0.827-0.863
	c-0.229-0.156-0.444-0.528-0.612-0.792c-0.071-0.12-0.071-0.264-0.144-0.359c-0.108-0.145-0.144-0.336-0.216-0.48
	c0-0.023-0.108-0.144-0.108-0.168c-0.071-0.144-0.107-0.287-0.144-0.432c-0.036-0.144-0.156-0.407-0.18-0.552
	c0.048-0.107-0.072-0.239-0.072-0.359c0-0.324-0.048-0.576-0.048-0.899v-0.036C71.347,74.747,71.395,74.676,71.467,74.676z"/>
<path fill="#CD5849" d="M76.05,42.519c0.789-1.87,2.591-3.177,4.688-3.177c2.823,0,4.857,2.416,5.113,5.295
	c0,0,0.139,0.715-0.166,2.002c-0.414,1.752-1.386,3.309-2.697,4.496l-6.938,6.19l-6.821-6.19c-1.311-1.188-2.283-2.745-2.696-4.497
	c-0.305-1.286-0.166-2.001-0.166-2.001c0.256-2.879,2.29-5.295,5.112-5.295C73.576,39.342,75.261,40.648,76.05,42.519z"/>
<line fill="none" stroke="#000000" stroke-width="0.5" stroke-miterlimit="10" x1="58.51" y1="65.823" x2="73.985" y2="49.484"/>
<polygon points="83.874,36.56 87.499,36.56 87.499,40.185 "/>
<line fill="none" stroke="#000000" stroke-width="0.5" stroke-miterlimit="10" x1="83.679" y1="40.38" x2="85.687" y2="38.372"/>
</svg>
