<?xml version="1.0" encoding="utf-8"?>
<!-- Generator: Adobe Illustrator 16.0.0, SVG Export Plug-In . SVG Version: 6.00 Build 0)  -->
<!DOCTYPE svg PUBLIC "-//W3C//DTD SVG 1.1//EN" "http://www.w3.org/Graphics/SVG/1.1/DTD/svg11.dtd">
<svg version="1.1" id="Layer_1" xmlns="http://www.w3.org/2000/svg" xmlns:xlink="http://www.w3.org/1999/xlink" x="0px" y="0px"
	 width="126.876px" height="112.438px" viewBox="0 0 126.876 112.438" enable-background="new 0 0 126.876 112.438"
	 xml:space="preserve">
<rect fill="#FFFFFF" width="126.876" height="112.438"/>
<circle fill="#C9BC9C" cx="63.718" cy="55.157" r="26.73"/>
<g>
	<path fill="#FFFFFF" d="M46.852,75.891c0.145,0.115,0.29,0.227,0.436,0.341c4.519-2.183,10.226-3.493,16.431-3.493
		c6.206,0,11.913,1.311,16.433,3.493c0.146-0.114,0.29-0.226,0.435-0.341c-4.624-2.288-10.488-3.661-16.867-3.661
		C57.34,72.229,51.476,73.603,46.852,75.891z"/>
	<path fill="#FFFFFF" d="M63.718,58.854c-10.833,0-20.19,2.888-24.481,7.033c0.068,0.156,0.139,0.309,0.209,0.462
		c4.085-4.105,13.426-6.983,24.272-6.983c10.848,0,20.188,2.878,24.274,6.983c0.07-0.153,0.14-0.306,0.207-0.462
		C83.909,61.741,74.552,58.854,63.718,58.854z"/>
	<path fill="#FFFFFF" d="M87.992,43.966c-4.086,4.105-13.427,6.983-24.274,6.983c-10.847,0-20.188-2.878-24.272-6.983
		c-0.072,0.153-0.141,0.305-0.209,0.46c4.291,4.148,13.648,7.033,24.481,7.033c10.834,0,20.191-2.885,24.481-7.033
		C88.132,44.271,88.062,44.119,87.992,43.966z"/>
	<path fill="#FFFFFF" d="M80.585,34.424c-0.142-0.115-0.289-0.227-0.435-0.341c-4.52,2.184-10.227,3.492-16.433,3.492
		c-6.205,0-11.912-1.309-16.433-3.492c-0.146,0.114-0.291,0.226-0.434,0.341c4.624,2.288,10.488,3.661,16.866,3.661
		C70.097,38.085,75.961,36.712,80.585,34.424z"/>
</g>
<ellipse fill="none" cx="63.718" cy="55.157" rx="20.898" ry="26.729"/>
<ellipse fill="none" cx="63.719" cy="55.157" rx="9.182" ry="26.729"/>
<g>
	<path fill="#FFFFFF" d="M63.718,82.141c-11.664,0-21.152-12.104-21.152-26.983c0-14.88,9.488-26.985,21.152-26.985
		c11.665,0,21.154,12.105,21.154,26.985C84.872,70.036,75.383,82.141,63.718,82.141z M63.718,28.681
		c-11.384,0-20.645,11.876-20.645,26.477c0,14.597,9.261,26.475,20.645,26.475s20.646-11.878,20.646-26.475
		C84.363,40.557,75.102,28.681,63.718,28.681z"/>
</g>
<g>
	<path fill="#FFFFFF" d="M63.718,82.141c-5.29,0-9.437-11.852-9.437-26.983s4.146-26.985,9.437-26.985
		c5.293,0,9.438,11.854,9.438,26.985S69.011,82.141,63.718,82.141z M63.718,28.681c-4.923,0-8.927,11.876-8.927,26.477
		c0,14.597,4.004,26.475,8.927,26.475s8.928-11.878,8.928-26.475C72.646,40.557,68.641,28.681,63.718,28.681z"/>
</g>
<linearGradient id="SVGID_2_" gradientUnits="userSpaceOnUse" x1="23.4277" y1="55.1562" x2="95.915" y2="55.1562">
	<stop  offset="0" style="stop-color:#FFFFFF"/>
	<stop  offset="1" style="stop-color:#EFEFEF"/>
</linearGradient>
<polygon fill="url(#SVGID_2_)" points="90.555,33.196 25.806,66.782 23.428,74.23 31.166,77.116 95.915,43.53 "/>
<text transform="matrix(0.8877 -0.4605 0.4605 0.8877 39.2715 70.2295)" font-family="'DFWaWaSC-W5-GBpc-EUC-H'" font-size="11.1017">买遍东西</text>
<g>
	<path fill="#C30D23" d="M96.396,56.506c-0.244,0-0.458-0.125-0.571-0.334c-0.089-0.164-0.201-0.641-0.856-3.641
		c-0.523-2.393-1.174-5.37-1.443-6.184c-0.402-1.229-1.616-3.592-2.073-4.287c-1.134,0.406-6.507,2.828-7.499,3.348
		c-0.014,0.277,0.051,0.906,0.101,1.383c0.109,1.053,0.223,2.142,0.021,2.744c-0.332,0.999-1.173,1.67-1.751,1.67
		c-0.148,0-0.286-0.043-0.397-0.125c-0.209-0.157-0.268-0.327-0.702-2.032c-0.199-0.78-0.512-2.009-0.711-2.519
		c-0.722,0.146-1.431,0.275-1.819,0.275c-0.116,0-0.47,0-0.635-0.306c-0.219-0.394-0.035-0.689,1.312-2.071
		c-0.32-0.443-1.18-1.37-1.726-1.96c-1.199-1.294-1.311-1.437-1.326-1.695c-0.008-0.131,0.022-0.329,0.21-0.528
		c0.303-0.322,0.905-0.53,1.533-0.53c0.243,0,0.485,0.031,0.72,0.092c0.615,0.16,1.468,0.846,2.293,1.51
		c0.374,0.301,0.867,0.697,1.107,0.836c0.933-0.526,5.818-3.678,6.878-4.486c-0.344-0.772-1.657-3.058-2.467-4.06
		c-0.535-0.665-2.666-2.813-4.378-4.541c-2.166-2.185-2.533-2.567-2.622-2.73c-0.107-0.199-0.102-0.437,0.018-0.635
		c0.3-0.504,1.22-0.637,1.664-0.637c0.155,0,0.311,0.013,0.458,0.039c0.475,0.087,1.846,1.086,6.382,4.648
		c0.896,0.703,1.815,1.427,2.246,1.745c0.624-0.425,1.946-1.243,2.437-1.243h0.101l0.13,0.045c0.429,0.177,1.486,2.045,1.32,2.528
		c-0.104,0.302-0.66,0.634-1.141,0.872c0.598,0.419,1.55,0.991,1.93,1.142c0.102-0.06,0.244-0.146,0.421-0.251
		c0.945-0.566,2.707-1.621,4.034-2.322c0.578-0.306,1.291-0.467,2.061-0.467c0.517,0,1.92,0.119,2.217,0.663
		c0.323,0.607-0.573,2.815-2.156,3.702c-1.303,0.729-3.141,1.631-4.128,2.115c-0.191,0.093-0.346,0.169-0.453,0.222
		c-0.081,0.402-0.118,1.521-0.092,2.25c0.416-0.248,0.922-0.509,1.204-0.509h0.062l0.084,0.018c0.495,0.126,1.492,2.026,1.411,2.484
		c-0.109,0.548-1.723,1.276-2.46,1.582c0.033,0.537,0.142,1.722,0.247,2.875c0.524,5.716,0.617,7.403,0.433,7.848
		C97.734,55.736,96.979,56.506,96.396,56.506L96.396,56.506z"/>
	<path fill="#FFFFFF" d="M81.275,25.562c0.125,0,0.25,0.01,0.368,0.031c0.762,0.139,8.492,6.477,8.728,6.508
		c0.341-0.291,2.076-1.35,2.427-1.35c0.015,0,0.027,0.002,0.037,0.006c0.234,0.097,1.107,1.712,1.041,1.905
		c-0.067,0.195-1.233,0.771-1.575,0.891c-0.041,0.206,2.479,1.815,2.895,1.815c0.017,0,0.029-0.002,0.039-0.008
		c0.255-0.139,2.836-1.727,4.592-2.653c0.576-0.305,1.233-0.409,1.828-0.409c0.924,0,1.696,0.253,1.777,0.402
		c0.132,0.248-0.51,2.213-1.962,3.026c-1.732,0.971-4.471,2.271-4.723,2.409c-0.253,0.141-0.282,3.365-0.077,3.446
		c0.275-0.213,1.322-0.841,1.575-0.841c0.009,0,0.018,0.001,0.024,0.003c0.2,0.051,1.085,1.658,1.04,1.911
		c-0.05,0.25-2.022,1.204-2.471,1.335c-0.104,0.215,1.019,10.149,0.721,10.865c-0.248,0.594-0.869,1.149-1.163,1.149
		c-0.06,0-0.105-0.022-0.133-0.072c-0.158-0.293-1.777-8.272-2.265-9.743c-0.481-1.471-2.112-4.58-2.358-4.683
		c-0.004-0.002-0.009-0.002-0.016-0.002c-0.455,0-7.752,3.32-8.081,3.56c-0.335,0.241,0.377,3.35,0.056,4.312
		c-0.28,0.844-0.972,1.328-1.276,1.328c-0.041,0-0.075-0.009-0.101-0.027c-0.207-0.155-1.12-4.703-1.481-4.703
		c-0.003,0-0.005,0-0.008,0.001c-0.224,0.04-1.534,0.329-2.04,0.329c-0.107,0-0.179-0.013-0.195-0.044
		c-0.095-0.171,1.268-1.514,1.457-1.718c0.248-0.264-3.121-3.543-3.137-3.801c-0.013-0.207,0.532-0.527,1.244-0.527
		c0.188,0,0.39,0.021,0.595,0.075c0.95,0.247,3.067,2.396,3.548,2.396c0.016,0,0.029-0.002,0.041-0.007
		c0.385-0.148,7.335-4.598,7.387-4.862c0.046-0.267-1.679-3.323-2.65-4.526c-0.971-1.206-6.79-6.902-6.949-7.195
		C79.9,25.85,80.597,25.562,81.275,25.562 M81.275,24.562L81.275,24.562c-0.16,0-1.584,0.024-2.094,0.88
		c-0.209,0.352-0.22,0.773-0.028,1.129c0.116,0.214,0.217,0.333,2.707,2.846c1.614,1.628,3.825,3.857,4.343,4.501
		c0.707,0.875,1.755,2.674,2.225,3.59c-1.339,0.947-4.98,3.303-6.229,4.052c-0.239-0.175-0.567-0.438-0.811-0.634
		c-1.064-0.855-1.812-1.43-2.48-1.604c-0.275-0.072-0.561-0.107-0.846-0.107c-0.771,0-1.498,0.263-1.897,0.687
		c-0.241,0.257-0.364,0.576-0.345,0.9c0.027,0.462,0.219,0.667,1.458,2.006c0.396,0.427,1.032,1.114,1.428,1.586
		c-1.039,1.074-1.479,1.636-1.083,2.353c0.136,0.25,0.437,0.559,1.07,0.559c0.359,0,0.92-0.092,1.486-0.2
		c0.183,0.589,0.415,1.501,0.56,2.067c0.448,1.761,0.518,2.031,0.883,2.306c0.205,0.15,0.444,0.228,0.701,0.228
		c0.858,0,1.856-0.903,2.226-2.013c0.219-0.654,0.143-1.595,0.001-2.953c-0.032-0.311-0.075-0.729-0.092-1.024
		c1.292-0.633,5.243-2.421,6.785-3.03c0.514,0.891,1.456,2.751,1.806,3.817c0.263,0.792,0.938,3.881,1.431,6.136
		c0.746,3.413,0.791,3.561,0.904,3.771c0.203,0.375,0.581,0.598,1.013,0.598c0.921,0,1.789-1.053,2.086-1.765
		c0.217-0.52,0.189-1.702-0.396-8.086c-0.082-0.897-0.172-1.876-0.22-2.493c0.891-0.375,2.275-1.07,2.423-1.811
		c0.12-0.674-0.956-2.868-1.774-3.076l-0.121-0.03l-0.149-0.003c-0.2,0-0.45,0.076-0.709,0.187c0.006-0.406,0.025-0.816,0.055-1.096
		c0.065-0.032,0.137-0.067,0.215-0.105c0.991-0.485,2.838-1.391,4.153-2.128c1.705-0.955,2.86-3.419,2.355-4.367
		c-0.484-0.889-2.302-0.934-2.66-0.934c-0.852,0-1.646,0.182-2.295,0.525c-1.34,0.706-3.107,1.766-4.058,2.335
		c-0.07,0.042-0.134,0.08-0.192,0.115c-0.249-0.127-0.601-0.332-0.943-0.546c0.306-0.217,0.562-0.469,0.655-0.739
		c0.276-0.807-0.987-2.901-1.604-3.155l-0.184-0.076l-0.234-0.006c-0.574,0-1.697,0.66-2.418,1.132
		c-0.485-0.371-1.253-0.975-1.957-1.527c-5.064-3.978-6.047-4.646-6.602-4.747C81.649,24.578,81.465,24.562,81.275,24.562
		L81.275,24.562z"/>
</g>
</svg>
