<?xml version="1.0" encoding="utf-8"?>
<!-- Generator: Adobe Illustrator 16.0.0, SVG Export Plug-In . SVG Version: 6.00 Build 0)  -->
<!DOCTYPE svg PUBLIC "-//W3C//DTD SVG 1.1//EN" "http://www.w3.org/Graphics/SVG/1.1/DTD/svg11.dtd">
<svg version="1.1" id="Layer_1" xmlns="http://www.w3.org/2000/svg" xmlns:xlink="http://www.w3.org/1999/xlink" x="0px" y="0px"
	 width="126.876px" height="112.438px" viewBox="0 0 126.876 112.438" enable-background="new 0 0 126.876 112.438"
	 xml:space="preserve">
<rect fill="#FFFFFF" width="126.876" height="112.438"/>
<g>
	<path d="M79.476,48.783c-0.769-0.487-1.535-1.062-2.278-1.707l-0.207-0.18l0.198-0.189c0.226-0.216,0.439-0.386,0.629-0.521
		l0.15-0.107l0.667,0.503c0.216-0.205,0.452-0.41,0.703-0.614l0.028-0.023c-1.201-0.002-2.407-0.033-3.601-0.091
		c0.1,0.137,0.178,0.273,0.237,0.417l0.068,0.164c0,0-0.206,0.185-0.243,0.218c0.128-0.009,0.246-0.014,0.364-0.014h0.216
		l0.031,0.213c0.046,0.309,0.077,0.61,0.1,0.915c0.232-0.003,0.458-0.012,0.678-0.02l0.189-0.007l0.058,0.182
		c0.053,0.165,0.079,0.362,0.079,0.586v0.22l-0.218,0.028c-0.58,0.074-1.137,0.11-1.7,0.11h-0.163l-0.065-0.149
		c-0.116-0.266-0.172-0.737-0.18-1.56c-0.406,0.315-0.849,0.624-1.321,0.922l-0.155,0.098l-0.14-0.119
		c-0.231-0.197-0.401-0.412-0.507-0.64l-0.078-0.168l0.138-0.123c0.506-0.457,1.074-0.901,1.692-1.324
		c-0.117-0.007-0.584-0.037-0.584-0.037v-0.582c0-0.094,0-0.211,0.029-0.347l0.01-0.047c-0.159,0.017-0.323,0.024-0.492,0.024
		h-0.206l-0.039-0.202c-0.121-0.612-0.207-1.241-0.257-1.873c-0.206,0.033-0.406,0.06-0.602,0.075l-0.178,0.015l-0.071-0.163
		c-0.101-0.229-0.156-0.472-0.169-0.741l-0.008-0.181l0.169-0.064c0.893-0.34,1.91-0.597,3.025-0.764l0.199-0.03l0.071,0.188
		c0.11,0.29,0.164,0.54,0.164,0.763v0.167l-0.154,0.064c-0.324,0.134-0.677,0.254-1.071,0.366c0.065,0.579,0.119,1.145,0.171,1.692
		l0.049,0.514c0.5,0.003,1.024,0.012,1.576,0.025c0.008-0.271,0.025-0.488,0.044-0.661l0.022-0.2l0.201-0.021
		c0.12-0.012,0.266-0.023,0.423-0.023c0.164,0,0.319,0.027,0.463,0.082l0.161,0.061v0.173c0,0.207-0.006,0.42-0.014,0.639
		c0.455,0.017,1.729,0.075,1.729,0.075c-0.422-0.554-0.821-1.126-1.194-1.71c-0.633,0.155-1.215,0.278-1.773,0.373l-0.179,0.031
		l-0.084-0.161c-0.138-0.261-0.22-0.529-0.244-0.8l-0.019-0.207l0.2-0.057c0.445-0.124,0.906-0.249,1.376-0.373
		c-0.209-0.362-0.403-0.728-0.58-1.091l-0.101-0.205l0.196-0.118c0.225-0.136,0.462-0.271,0.723-0.385l0.206-0.089l0.111,0.195
		c0.264,0.466,0.527,0.933,0.791,1.383c0.341-0.074,0.684-0.148,1.034-0.213l0.185-0.034l0.084,0.168
		c0.133,0.265,0.197,0.539,0.197,0.84v0.185l-0.177,0.055c-0.208,0.063-0.415,0.123-0.617,0.175
		c0.263,0.441,0.526,0.872,0.801,1.297c0.037-0.03,0.064-0.059,0.086-0.087l0.174-0.24l0.207,0.212
		c0.176,0.18,0.321,0.367,0.434,0.559l0.102,0.171l-0.144,0.137c-0.247,0.236-0.574,0.456-1.002,0.673l-0.181,0.092
		c0,0-0.242-0.3-0.3-0.372c-0.008,0.179-0.031,0.363-0.069,0.552l-0.04,0.201h-0.091c0.263,0.145,0.47,0.298,0.634,0.467
		l0.146,0.151l-0.125,0.171c-0.166,0.227-0.373,0.439-0.612,0.633c-0.001,0.001-0.002,0.002-0.003,0.003l0.775,0.614l-0.113,0.188
		c-0.122,0.201-0.316,0.409-0.56,0.6l-0.14,0.108L79.476,48.783z M80.448,41.75c-0.284-0.413-0.529-0.853-0.749-1.343l-0.08-0.181
		l0.156-0.12c0.269-0.206,0.505-0.34,0.723-0.41l0.186-0.06l0.103,0.166c0.211,0.339,0.486,0.794,0.738,1.303l0.079,0.158
		l-0.123,0.127c-0.174,0.179-0.414,0.326-0.736,0.451l-0.184,0.071L80.448,41.75z"/>
	<path fill="#FFFFFF" d="M80.574,39.935c0.25,0.402,0.5,0.826,0.727,1.282c-0.147,0.152-0.363,0.282-0.646,0.392
		c-0.284-0.413-0.522-0.848-0.727-1.304C80.154,40.131,80.37,40,80.574,39.935 M77.93,40.315c0.295,0.521,0.59,1.043,0.885,1.542
		c0.397-0.086,0.795-0.174,1.203-0.249c0.114,0.228,0.171,0.467,0.171,0.728c-0.318,0.098-0.636,0.185-0.931,0.25
		c0.363,0.619,0.727,1.217,1.112,1.804c0.159-0.087,0.284-0.174,0.363-0.283c0.159,0.163,0.295,0.337,0.397,0.511
		c-0.228,0.218-0.534,0.424-0.942,0.631c-0.636-0.783-1.227-1.608-1.76-2.456c-0.647,0.163-1.294,0.305-1.93,0.413
		c-0.114-0.217-0.193-0.456-0.216-0.706c0.545-0.152,1.112-0.305,1.691-0.456c-0.261-0.435-0.511-0.892-0.738-1.358
		C77.452,40.555,77.68,40.424,77.93,40.315 M75.511,41.162c0.091,0.239,0.147,0.468,0.147,0.674c-0.42,0.174-0.84,0.305-1.248,0.413
		c0.091,0.771,0.158,1.521,0.227,2.238c-0.272,0.054-0.556,0.076-0.828,0.076c-0.137-0.695-0.228-1.401-0.272-2.119
		c-0.296,0.055-0.579,0.098-0.852,0.12c-0.091-0.207-0.137-0.424-0.147-0.652C73.422,41.575,74.421,41.325,75.511,41.162
		 M77.169,44.009c0.136,0,0.261,0.022,0.374,0.065c0,0.282-0.011,0.576-0.022,0.88c0.658,0.021,1.34,0.055,2.055,0.087
		c0,0.207-0.022,0.424-0.068,0.652c-1.68,0-3.349-0.055-4.995-0.163v-0.348c0-0.087,0-0.185,0.023-0.294
		c0.681,0,1.407,0.012,2.19,0.033c0-0.381,0.022-0.674,0.046-0.891C76.885,44.02,77.021,44.009,77.169,44.009 M75.363,45.758
		c0.182,0.196,0.318,0.392,0.409,0.608c-0.579,0.521-1.249,1.021-2.01,1.5c-0.204-0.174-0.352-0.358-0.442-0.555
		C73.91,46.779,74.592,46.258,75.363,45.758 M79.496,46.16c0.238,0.131,0.432,0.271,0.579,0.424
		c-0.159,0.217-0.353,0.413-0.568,0.587c-0.079,0.075-0.158,0.141-0.238,0.206c0.272,0.217,0.557,0.435,0.841,0.663
		c-0.092,0.151-0.25,0.337-0.5,0.532c-0.771-0.489-1.521-1.054-2.248-1.685c0.216-0.206,0.42-0.369,0.602-0.499
		c0.228,0.174,0.466,0.348,0.693,0.521C78.905,46.66,79.189,46.41,79.496,46.16 M76.192,46.888c0.057,0.381,0.091,0.75,0.113,1.13
		c0.318,0,0.624-0.011,0.92-0.021c0.045,0.142,0.067,0.315,0.067,0.511c-0.511,0.065-1.066,0.108-1.668,0.108
		c-0.114-0.261-0.159-0.814-0.159-1.684C75.716,46.91,75.954,46.888,76.192,46.888 M80.793,39.339l-0.371,0.119
		c-0.246,0.079-0.507,0.227-0.799,0.45l-0.312,0.24l0.161,0.36c0.099,0.221,0.202,0.432,0.312,0.635
		c-0.243,0.047-0.482,0.098-0.722,0.148c-0.232-0.4-0.465-0.812-0.697-1.223l-0.222-0.392l-0.413,0.179
		c-0.278,0.121-0.525,0.264-0.752,0.399l-0.393,0.236l0.201,0.411c0.133,0.273,0.276,0.549,0.428,0.823
		c-0.359,0.096-0.713,0.192-1.057,0.288v-0.179c0-0.254-0.059-0.532-0.18-0.852l-0.144-0.376l-0.398,0.06
		c-1.133,0.169-2.168,0.431-3.077,0.776l-0.339,0.129l0.017,0.362c0.015,0.301,0.076,0.572,0.189,0.83l0.144,0.326l0.355-0.029
		c0.113-0.009,0.23-0.021,0.354-0.038c0.053,0.551,0.133,1.1,0.238,1.636l0.079,0.403h0.411c0.069,0,0.137-0.001,0.205-0.004
		c-0.002,0.045-0.002,0.087-0.002,0.123v0.348v0.469l0.117,0.007c-0.408,0.304-0.79,0.616-1.144,0.935l-0.273,0.246l0.154,0.335
		c0.121,0.261,0.313,0.505,0.572,0.726l0.279,0.238l0.312-0.195c0.332-0.209,0.648-0.424,0.949-0.643
		c0.024,0.572,0.084,0.93,0.188,1.168l0.131,0.3h0.327c0.574,0,1.141-0.037,1.731-0.112l0.437-0.057v-0.439
		c0-0.249-0.03-0.472-0.091-0.662l-0.01-0.03c0.544,0.434,1.096,0.829,1.649,1.181l0.298,0.188l0.277-0.218
		c0.271-0.212,0.48-0.436,0.62-0.666l0.227-0.375l-0.341-0.274c-0.124-0.099-0.247-0.196-0.369-0.292
		c0.153-0.145,0.299-0.308,0.425-0.479l0.25-0.34l-0.294-0.304c-0.127-0.132-0.276-0.253-0.453-0.368l0.014-0.065l0.06,0.073
		l0.36-0.182c0.449-0.229,0.797-0.463,1.062-0.716l0.286-0.274l-0.201-0.341c-0.123-0.208-0.281-0.412-0.471-0.606l-0.415-0.425
		l-0.207,0.287c-0.142-0.224-0.287-0.46-0.439-0.715c0.099-0.028,0.201-0.059,0.306-0.091l0.354-0.107v-0.37
		c0-0.067-0.003-0.135-0.009-0.201l0.154-0.06c0.357-0.138,0.627-0.305,0.826-0.511l0.246-0.254l-0.158-0.316
		c-0.257-0.518-0.535-0.979-0.749-1.323L80.793,39.339L80.793,39.339z M74.955,42.614c0.29-0.088,0.559-0.182,0.812-0.282
		l0.019,0.212c0.027,0.303,0.119,0.604,0.271,0.895l0.169,0.32l0.073-0.013l-0.024,0.231c-0.016,0.143-0.027,0.285-0.035,0.432
		c-0.383-0.008-0.753-0.015-1.109-0.018l-0.027-0.289C75.057,43.619,75.01,43.122,74.955,42.614L74.955,42.614z M77.449,43.532
		c0.243-0.051,0.493-0.107,0.751-0.169c0.253,0.39,0.518,0.774,0.793,1.15c-0.325-0.015-0.644-0.028-0.956-0.041
		c0.004-0.136,0.006-0.269,0.006-0.398v-0.345l-0.322-0.123C77.633,43.573,77.543,43.549,77.449,43.532L77.449,43.532z
		 M76.323,46.388l-0.09-0.215c-0.007-0.017-0.014-0.033-0.021-0.05c0.405,0.018,0.811,0.031,1.218,0.042
		c-0.143,0.113-0.281,0.234-0.414,0.361l-0.325,0.311c-0.001-0.008-0.002-0.016-0.004-0.022l-0.063-0.427H76.323L76.323,46.388z
		 M76.77,47.511c-0.017-0.182-0.035-0.354-0.059-0.525l0.322,0.279c0.089,0.078,0.178,0.153,0.268,0.229l-0.094,0.003
		C77.064,47.502,76.918,47.507,76.77,47.511L76.77,47.511z"/>
</g>
<g>
	<path d="M83.263,60.834c-0.127,0-0.29-0.007-0.487-0.015l-0.382-0.016l-0.026-0.21c-0.07-0.562-0.124-1.134-0.161-1.709
		c-0.039,0.147-0.094,0.317-0.161,0.503l-0.068,0.187l-0.196-0.023c-0.387-0.045-0.719-0.132-1.011-0.264
		c-0.003,0.101-0.006,0.198-0.008,0.293c0.172,0.007,0.39,0.021,0.654,0.049l0.158,0.017l0.052,0.151
		c0.039,0.114,0.059,0.227,0.059,0.342c0,0.074-0.009,0.147-0.02,0.229l-0.016,0.125l-0.115,0.104
		c-0.183,0.102-0.438,0.15-0.78,0.15c-0.373,0-0.733-0.025-1.103-0.079l-0.189-0.026l-0.023-0.189
		c-0.047-0.381-0.07-0.97-0.07-1.802c0-0.552,0.047-1.114,0.14-1.671l0.03-0.178l0.178-0.028c0.17-0.027,0.297-0.046,0.413-0.046
		c0.173,0,0.336,0.025,0.497,0.077l0.173,0.057v0.11c0.024-0.044,0.051-0.086,0.079-0.126l0.102-0.146l0.172,0.049
		c0.304,0.086,0.64,0.203,0.998,0.332c0-0.002,0-0.231,0-0.231s0.408-0.04,0.508-0.049c-0.87-0.055-1.765-0.131-2.68-0.226
		l-0.224-0.023v-0.226c0-0.841,0.058-1.757,0.173-2.724l0.013-0.106c-0.146,0.015-0.611,0.05-0.611,0.05l-0.072-0.156
		c-0.103-0.22-0.158-0.464-0.171-0.746l-0.009-0.205l0.199-0.049c1.048-0.256,2.21-0.44,3.455-0.549l0.193-0.017l0.064,0.184
		c0.091,0.263,0.138,0.506,0.138,0.723v0.193l-0.187,0.049c-0.662,0.173-1.351,0.311-2.058,0.412
		c0.047,0.007,0.362,0.068,0.362,0.068l-0.026,0.229c-0.013,0.112-0.021,0.221-0.026,0.326c0.498,0.039,0.979,0.079,1.454,0.136
		l0.27,0.032l-0.055,0.267c-0.021,0.1-0.031,0.191-0.042,0.281c-0.028,0.173-0.055,0.297-0.08,0.369l-0.059,0.168h-0.178
		c-0.373,0-0.735-0.022-1.108-0.066c-0.092-0.005-0.185-0.014-0.275-0.023c-0.008,0.105-0.016,0.209-0.021,0.312
		c1.278,0.077,2.609,0.154,3.979,0.223l0.019-0.24c-0.096-0.009-0.188-0.021-0.275-0.032c-0.331-0.021-0.679-0.064-1.028-0.12
		l-0.21-0.034v-0.213c0-0.214,0.024-0.439,0.074-0.671l0.044-0.211l0.216,0.013c0.431,0.027,0.846,0.054,1.245,0.087
		c0.005-0.086,0.009-0.169,0.015-0.249c-0.5-0.04-1.03-0.09-1.577-0.155l-0.221-0.026v-0.222c0-0.235,0.024-0.472,0.074-0.703
		l0.043-0.207l0.212,0.009c0.98,0.043,1.859,0.121,2.613,0.231l0.214,0.031v0.216c0,1.334-0.081,2.51-0.241,3.494l-0.034,0.21
		c0,0-0.241,0-0.255,0c0.273,0.793,0.547,1.577,0.828,2.337l0.862-0.146l0.088,0.146c0.099,0.166,0.169,0.359,0.25,0.618
		l0.065,0.207L87.9,60.169c-0.379,0.181-0.91,0.299-1.674,0.371l-0.17,0.016l-0.077-0.152c-0.279-0.554-0.536-1.147-0.769-1.775
		l-0.035,0.162c-0.02,0.091-0.029,0.175-0.039,0.257c-0.029,0.205-0.058,0.343-0.084,0.416l-0.061,0.165h-0.175
		c-0.187,0-0.374-0.013-0.549-0.048c-0.167-0.021-0.352-0.067-0.536-0.126l-0.175-0.055v-0.184c0-0.224,0.024-0.46,0.073-0.701
		l0.046-0.228l0.229,0.028c0.371,0.045,0.731,0.1,1.08,0.178l0.191,0.043c-0.09-0.246-0.176-0.498-0.259-0.755
		c-0.023,0.146-0.047,0.256-0.069,0.32l-0.058,0.169h-0.179c-0.194,0-0.346-0.016-0.49-0.051c-0.148-0.019-0.311-0.055-0.46-0.103
		l-0.174-0.056v-0.183c0-0.266,0.02-0.487,0.062-0.7l0.046-0.23l0.232,0.031c0.308,0.042,0.604,0.085,0.892,0.146l-0.036-0.123
		c0,0,0.245-0.096,0.262-0.103c-0.512-0.012-1.034-0.031-1.566-0.059l0.13,2.807c0.183-0.021,0.409-0.03,0.695-0.03h0.193
		l0.049,0.188c0.028,0.109,0.042,0.229,0.042,0.367v0.282C84.414,60.767,84.152,60.834,83.263,60.834z M81.089,58.147
		c0.298,0.077,0.631,0.165,0.986,0.274l0.107,0.033c-0.009-0.179-0.016-0.357-0.021-0.537c-0.014,0.033-0.119,0.279-0.119,0.279
		l-0.189-0.027c-0.375-0.053-0.723-0.164-1.059-0.338c-0.001,0.161-0.003,0.317-0.006,0.468c0.008-0.013,0.117-0.199,0.117-0.199
		L81.089,58.147z"/>
	<path fill="#FFFFFF" d="M82.752,52.089c0.079,0.228,0.124,0.445,0.124,0.641c-1.078,0.282-2.213,0.467-3.394,0.554
		c-0.091-0.195-0.137-0.412-0.147-0.651C80.356,52.382,81.503,52.197,82.752,52.089 M83.694,52.979
		c0.976,0.043,1.839,0.119,2.588,0.229c0,1.325-0.079,2.477-0.238,3.454c-1.839,0-3.849-0.108-6.04-0.337
		c0-0.836,0.058-1.738,0.171-2.694c0.136-0.011,0.283-0.021,0.42-0.021c0.136,0,0.261,0.021,0.375,0.044
		c-0.023,0.206-0.034,0.401-0.034,0.586c0.579,0.044,1.135,0.087,1.68,0.152c-0.022,0.108-0.034,0.207-0.045,0.305
		c-0.023,0.141-0.046,0.25-0.068,0.314c-0.363,0-0.716-0.021-1.079-0.064c-0.192-0.012-0.374-0.033-0.533-0.055
		c-0.022,0.282-0.045,0.564-0.057,0.825c1.431,0.087,2.929,0.174,4.473,0.25c0.023-0.25,0.034-0.499,0.057-0.738
		c-0.182,0-0.352-0.022-0.511-0.044c-0.341-0.021-0.681-0.064-1.021-0.119c0-0.195,0.022-0.402,0.068-0.619
		c0.522,0.032,1.021,0.064,1.498,0.108c0.012-0.25,0.022-0.5,0.046-0.75c-0.568-0.043-1.181-0.098-1.816-0.174
		C83.626,53.414,83.648,53.196,83.694,52.979 M85.737,56.912c0.307,0.891,0.613,1.771,0.931,2.618
		c0.272-0.043,0.567-0.098,0.897-0.152c0.091,0.152,0.158,0.348,0.227,0.565c-0.363,0.174-0.896,0.282-1.589,0.348
		c-0.466-0.924-0.874-1.967-1.215-3.14C85.237,57.054,85.487,56.978,85.737,56.912 M80.129,56.978c0.147,0,0.284,0.021,0.42,0.065
		c0,1.13-0.022,2.053-0.045,2.781c0.182,0,0.477,0.011,0.886,0.054c0.022,0.065,0.045,0.152,0.045,0.261
		c0,0.076-0.012,0.152-0.022,0.239c-0.137,0.076-0.353,0.119-0.658,0.119c-0.409,0-0.761-0.032-1.067-0.076
		c-0.046-0.369-0.068-0.944-0.068-1.771c0-0.543,0.046-1.086,0.137-1.63C79.891,56.999,80.016,56.978,80.129,56.978 M81.083,56.988
		c0.307,0.087,0.646,0.206,1.01,0.337c-0.033,0.163-0.102,0.358-0.204,0.598c-0.386-0.055-0.727-0.174-1.044-0.348
		C80.89,57.347,80.97,57.151,81.083,56.988 M83.138,57.01c0.045,0.978,0.091,1.956,0.136,2.934c0.205-0.055,0.511-0.076,0.932-0.076
		c0.022,0.087,0.034,0.185,0.034,0.305v0.282c-0.023,0.087-0.341,0.13-0.977,0.13c-0.159,0-0.375-0.011-0.647-0.021
		c-0.147-1.173-0.216-2.336-0.216-3.487C82.615,57.054,82.865,57.032,83.138,57.01 M83.796,57.228
		c0.318,0.043,0.625,0.087,0.92,0.152c-0.012,0.108-0.023,0.206-0.034,0.304c-0.022,0.152-0.046,0.271-0.068,0.337
		c-0.159,0-0.295-0.011-0.432-0.044c-0.158-0.021-0.306-0.054-0.442-0.098C83.739,57.673,83.751,57.455,83.796,57.228 M81.026,58.39
		c0.295,0.076,0.624,0.163,0.976,0.271c-0.034,0.174-0.102,0.392-0.192,0.642c-0.375-0.044-0.716-0.131-1.021-0.283
		C80.845,58.781,80.924,58.563,81.026,58.39 M83.876,58.563c0.363,0.044,0.715,0.098,1.056,0.174
		c-0.023,0.108-0.034,0.207-0.046,0.305c-0.022,0.151-0.045,0.271-0.068,0.336c-0.17,0-0.34-0.011-0.499-0.043
		c-0.171-0.021-0.341-0.065-0.511-0.119C83.808,59.009,83.83,58.792,83.876,58.563 M83.097,51.557l-0.388,0.034
		c-1.258,0.109-2.433,0.296-3.493,0.556l-0.398,0.098l0.018,0.41c0.015,0.315,0.078,0.59,0.194,0.84l0.146,0.312l0.345-0.025
		c0.045-0.003,0.091-0.006,0.136-0.01c-0.101,0.903-0.151,1.762-0.151,2.554v0.229l-0.15,0.023l-0.092,0.36
		c-0.095,0.57-0.144,1.146-0.144,1.712c0,0.842,0.023,1.441,0.072,1.832l0.047,0.379l0.378,0.055
		c0.382,0.055,0.754,0.081,1.139,0.081c0.387,0,0.682-0.06,0.901-0.183l0.222-0.123l0.031-0.252
		c0.017-0.133,0.026-0.217,0.026-0.301c0-0.109-0.014-0.216-0.042-0.322l0.139,0.016c0.025,0.266,0.055,0.53,0.088,0.793l0.053,0.42
		l0.424,0.018l0.168,0.006c0.203,0.009,0.369,0.016,0.499,0.016c0.8,0,1.334-0.035,1.459-0.5l0.018-0.063v-0.066v-0.282
		c0-0.105-0.007-0.203-0.021-0.295c0.032,0,0.065,0.001,0.1,0.001h0.351l0.119-0.329c0.003-0.009,0.007-0.018,0.01-0.027
		c0.146,0.344,0.299,0.676,0.46,0.994l0.153,0.305l0.34-0.031c0.794-0.075,1.353-0.201,1.758-0.395l0.392-0.188l-0.131-0.413
		c-0.086-0.276-0.162-0.485-0.273-0.672l-0.175-0.293l-0.337,0.056l-0.419,0.071c-0.024,0.005-0.048,0.009-0.071,0.013
		c-0.207-0.564-0.414-1.15-0.641-1.807h0.116l0.068-0.42c0.163-0.997,0.245-2.187,0.245-3.534v-0.433l-0.428-0.062
		c-0.762-0.111-1.649-0.189-2.639-0.232l-0.358-0.017c-0.023-0.17-0.067-0.351-0.133-0.539L83.097,51.557L83.097,51.557z
		 M81.485,53.541c0.519-0.09,1.025-0.199,1.518-0.328l0.152-0.039c-0.02,0.151-0.029,0.305-0.029,0.457v0.318l-0.451-0.054
		c-0.404-0.049-0.82-0.086-1.216-0.117c0.003-0.022,0.005-0.046,0.008-0.068L81.485,53.541L81.485,53.541z M82.917,55.339
		l0.057-0.163c0.031-0.09,0.059-0.209,0.09-0.397c0.013-0.11,0.022-0.193,0.041-0.285l0.086-0.411l0.268,0.032l-0.049,0.229
		c-0.053,0.248-0.079,0.491-0.079,0.723v0.297C83.192,55.354,83.055,55.347,82.917,55.339L82.917,55.339z"/>
</g>
<g>
	<path d="M81.113,74.173c-1.917,0-3.255-0.022-3.978-0.065l-0.22-0.014l-0.015-0.219c-0.136-1.923-0.216-4.114-0.239-6.512
		l-0.002-0.206l0.201-0.042c0.106-0.022,0.251-0.048,0.414-0.048c0.202,0,0.359,0.027,0.455,0.05l0.185,0.044l0.008,0.189
		c0.076,1.895,0.152,3.77,0.219,5.605c2.189,0,4.331-0.001,6.422-0.021v-5.971l-2.785-0.061c-1.263,0.032-2.435,0.044-3.504,0.044
		h-0.184l-0.055-0.176c-0.039-0.124-0.057-0.244-0.057-0.39c0-0.157,0-0.282,0.03-0.399l0.045-0.173l0.178-0.014
		c0.835-0.065,2.081-0.109,3.706-0.131c1.336,0,2.58,0.044,3.701,0.131l0.221,0.017l0.01,0.222c0.062,1.465,0.091,2.622,0.091,3.64
		c0,1.86-0.054,3.263-0.161,4.168l-0.024,0.208l-0.209,0.013C84.314,74.136,82.816,74.173,81.113,74.173z M79.13,72.607
		c-0.037-0.209-0.05-0.441-0.05-0.673v-0.238c0,0,1.181-0.065,1.365-0.075c-0.002-0.091-0.002-0.657,0.002-0.853
		c-0.695-0.013-1.308-0.034-1.839-0.073l-0.137-0.01l-0.065-0.122c-0.039-0.073-0.063-0.177-0.063-0.465
		c0-0.152,0.018-0.288,0.055-0.417l0.052-0.181h0.188c0.622,0,1.234,0.009,1.846,0.018c0.011-0.304,0.025-0.608,0.045-0.917
		c-0.604-0.021-1.144-0.052-1.604-0.09l-0.109-0.009l-0.067-0.087c-0.082-0.105-0.098-0.257-0.098-0.501
		c0-0.12,0.009-0.279,0.073-0.448l0.062-0.161h0.172c1.656,0,3.324,0.066,4.958,0.197l0.23,0.019v0.534
		c0,0.225-0.037,0.366-0.06,0.43l-0.059,0.168h-0.178c-0.719,0-1.376,0-1.98-0.015c-0.007,0.312-0.014,0.615-0.016,0.913
		c0.646,0.021,1.283,0.052,1.92,0.09l0.235,0.015v0.54c0,0.2-0.03,0.344-0.055,0.429l-0.013,0.042l0.054,0.062
		c0.23,0.271,0.398,0.68,0.498,1.214l0.035,0.188l-0.174,0.083c-0.261,0.125-0.488,0.194-0.717,0.219l-0.134,0.014l-0.086-0.104
		c-0.275-0.335-0.435-0.745-0.487-1.252l-0.019-0.18c0,0,0.217-0.096,0.243-0.106c-0.464-0.001-0.903-0.002-1.318-0.007
		c0,0-0.011,0.668-0.016,0.76c0.306-0.01,0.618-0.02,0.938-0.036l0.204-0.01l0.051,0.197c0.035,0.138,0.053,0.258,0.053,0.366
		c0,0.195-0.014,0.33-0.026,0.403l-0.034,0.192l-0.195,0.013c-1.104,0.076-2.26,0.12-3.432,0.131l-0.212,0.002L79.13,72.607z"/>
	<path fill="#FFFFFF" d="M81.941,65.916c1.328,0,2.555,0.043,3.679,0.13c0.057,1.336,0.091,2.542,0.091,3.629
		c0,1.891-0.057,3.27-0.159,4.139c-1.124,0.065-2.6,0.109-4.438,0.109c-1.907,0-3.236-0.021-3.963-0.065
		c-0.136-1.934-0.215-4.106-0.238-6.497c0.103-0.021,0.228-0.043,0.363-0.043c0.171,0,0.307,0.021,0.397,0.043
		c0.08,1.978,0.159,3.934,0.228,5.846c2.361,0,4.666,0,6.913-0.022V66.72c-0.953-0.021-1.964-0.044-3.03-0.065
		c-1.271,0.032-2.441,0.044-3.509,0.044c-0.034-0.109-0.045-0.207-0.045-0.315c0-0.142,0-0.25,0.022-0.337
		C79.092,65.98,80.33,65.938,81.941,65.916 M78.956,67.556c1.657,0,3.304,0.065,4.938,0.196v0.304c0,0.163-0.023,0.283-0.046,0.348
		c-0.817,0-1.555,0-2.225-0.021c-0.012,0.489-0.022,0.956-0.022,1.412c0.727,0.021,1.441,0.055,2.156,0.098v0.305
		c0,0.163-0.022,0.282-0.045,0.358c-0.772,0-1.477,0-2.123-0.011c0,0.261-0.012,0.5-0.012,0.728c0,0.196-0.011,0.381-0.034,0.544
		c0.397-0.012,0.807-0.022,1.227-0.044c0.022,0.087,0.045,0.195,0.045,0.304c0,0.174-0.011,0.294-0.022,0.359
		c-1.112,0.076-2.259,0.119-3.417,0.13c-0.034-0.195-0.046-0.413-0.046-0.63c0.432-0.021,0.897-0.055,1.374-0.076
		c-0.011-0.174-0.011-0.337-0.011-0.511c0-0.271,0-0.543,0.011-0.825c-0.795-0.012-1.487-0.033-2.077-0.076
		c-0.023-0.044-0.034-0.163-0.034-0.348c0-0.109,0.011-0.229,0.045-0.348c0.704,0,1.396,0.011,2.089,0.021
		c0.012-0.467,0.034-0.935,0.068-1.412c-0.704-0.021-1.328-0.055-1.851-0.098c-0.034-0.044-0.045-0.163-0.045-0.348
		C78.899,67.795,78.91,67.676,78.956,67.556 M83.804,70.892c0.204,0.239,0.352,0.608,0.442,1.098
		c-0.227,0.108-0.432,0.174-0.636,0.195c-0.25-0.305-0.386-0.674-0.432-1.119C83.35,70.989,83.554,70.935,83.804,70.892
		 M81.941,65.416h-0.003h-0.004c-1.63,0.021-2.882,0.066-3.722,0.131l-0.355,0.028l-0.09,0.346
		c-0.038,0.148-0.038,0.294-0.038,0.462c0,0.172,0.021,0.314,0.067,0.465l0.01,0.03l-0.019-0.004
		c-0.108-0.026-0.286-0.057-0.513-0.057c-0.188,0-0.356,0.03-0.466,0.054l-0.401,0.084l0.004,0.41
		c0.023,2.403,0.104,4.6,0.239,6.527l0.031,0.438l0.438,0.026c0.728,0.044,2.071,0.066,3.993,0.066c1.708,0,3.211-0.037,4.468-0.11
		l0.418-0.024l0.05-0.416c0.107-0.915,0.162-2.327,0.162-4.197c0-1.021-0.029-2.182-0.092-3.65l-0.019-0.442l-0.442-0.035
		C84.531,65.46,83.28,65.416,81.941,65.416L81.941,65.416z M84.313,67.284l-0.379-0.03c-0.36-0.029-0.723-0.055-1.087-0.078
		c0.5,0.012,0.989,0.022,1.466,0.033V67.284L84.313,67.284z M78.167,67.198h0.107c0.095,0,0.188,0,0.283,0l-0.068,0.179
		c-0.081,0.211-0.09,0.408-0.09,0.538c0,0.243,0.012,0.477,0.15,0.654l0.135,0.174l0.219,0.018c0.402,0.033,0.858,0.061,1.36,0.081
		c-0.008,0.142-0.015,0.282-0.021,0.424c-0.532-0.008-1.065-0.015-1.605-0.015h-0.377l-0.01,0.035
		c-0.026-0.646-0.052-1.295-0.078-1.946L78.167,67.198L78.167,67.198z M83.849,68.903h0.355l0.109-0.314v2.149
		c-0.031-0.046-0.063-0.091-0.098-0.133c0.027-0.124,0.042-0.264,0.042-0.409v-0.305v-0.471l-0.47-0.028
		c-0.56-0.033-1.118-0.062-1.683-0.082c0.002-0.138,0.004-0.276,0.007-0.417C82.655,68.903,83.239,68.903,83.849,68.903
		L83.849,68.903z M78.383,72.706c-0.021-0.59-0.044-1.185-0.067-1.781l0,0l0.275,0.021c0.438,0.031,0.955,0.054,1.604,0.068
		c-0.001,0.111-0.001,0.223-0.001,0.334c0,0.012,0,0.024,0,0.037c-0.104,0.006-0.205,0.012-0.307,0.018
		c-0.199,0.012-0.394,0.023-0.582,0.033l-0.475,0.023v0.476c0,0.276,0.018,0.511,0.054,0.716l0.01,0.056
		C78.724,72.706,78.554,72.706,78.383,72.706L78.383,72.706z M82.078,71.299c0,0,0-0.018,0-0.027c0-0.072,0.001-0.146,0.003-0.222
		c0.193,0.002,0.391,0.003,0.594,0.004l0.007,0.063c0.005,0.053,0.012,0.105,0.02,0.157C82.49,71.285,82.283,71.293,82.078,71.299
		L82.078,71.299z M83.547,72.694l0.116-0.013c0.209-0.021,0.423-0.079,0.65-0.175v0.182C84.059,72.69,83.803,72.692,83.547,72.694
		L83.547,72.694z"/>
</g>
<g>
	<g>
		<path fill="#1D2088" d="M65.073,36.917h0.049c0.427,0,0.789,0.312,0.849,0.733l0.498,3.479c0.048,0.331,0.284,0.604,0.605,0.699
			l0.997,0.295c0.318,0.093,0.553,0.36,0.604,0.686l0.867,5.525c0.022,0.135,0.075,0.264,0.158,0.374l5.501,7.435
			c0.084,0.112,0.194,0.203,0.321,0.265l0.908,0.431c0.298,0.142,0.488,0.441,0.488,0.77v6.246c0,0.154-0.042,0.306-0.121,0.438
			L70.88,74.22c-0.108,0.184-0.282,0.317-0.487,0.381l-3.698,1.119c-0.146,0.044-0.302,0.048-0.45,0.013l-4.423-1.069
			c-0.222-0.053-0.414-0.192-0.531-0.388l-3.476-5.734c-0.333-0.549-1.131-0.551-1.466-0.001l0,0
			c-0.282,0.466-0.924,0.552-1.32,0.177c-1.526-1.447-4.812-4.535-4.985-4.479c-0.198,0.066-5.854,2.538-7.309,3.175
			c-0.217,0.095-0.384,0.274-0.462,0.497l-0.125,0.352c-0.121,0.348-0.455,0.576-0.825,0.569l-2.853-0.056
			c-0.248-0.004-0.484,0.097-0.65,0.279l-1.641,1.795c-0.262,0.284-0.685,0.36-1.029,0.182l-2.476-1.286
			c-0.34-0.177-0.521-0.556-0.444-0.93l0.406-1.972c0.044-0.219,0.002-0.443-0.117-0.632L28.662,60.2
			c-0.08-0.123-0.124-0.264-0.134-0.411l-0.26-4.467c-0.018-0.317,0.143-0.62,0.417-0.782l8.04-4.769
			c0.189-0.111,0.329-0.293,0.387-0.506l0.83-2.988c0.041-0.148,0.121-0.284,0.233-0.391l4.685-4.464
			c0.185-0.177,0.439-0.261,0.694-0.23l1.084,0.13c0.257,0.029,0.486,0.176,0.625,0.395l0.493,0.789
			c0.238,0.379,0.732,0.512,1.13,0.301l0.235-0.124c0.129-0.069,0.236-0.168,0.315-0.291l2.972-4.572
			c0.226-0.347,0.669-0.483,1.052-0.323l1.993,0.837c0.146,0.062,0.305,0.081,0.46,0.057l2.8-0.423
			c0.278-0.044,0.561,0.055,0.754,0.26l0.416,0.442c0.246,0.262,0.302,0.651,0.138,0.972l-1.401,2.74
			c-0.206,0.406-0.059,0.903,0.338,1.13l4.444,2.54c0.315,0.181,0.711,0.143,0.986-0.096l0.899-0.773
			c0.194-0.167,0.303-0.412,0.296-0.668l-0.135-5.395c-0.004-0.156,0.035-0.312,0.113-0.447l0.769-1.328
			C64.483,37.08,64.768,36.917,65.073,36.917z"/>
	</g>
	<g>
		<path fill="#1D2088" d="M65.276,78.344l0.667,0.29c0.146,0.063,0.309,0.085,0.467,0.062l1.388-0.203
			c0.505-0.074,0.961,0.305,0.981,0.812l0.028,0.727c0.007,0.185-0.047,0.366-0.153,0.52l-0.967,1.393
			c-0.146,0.211-0.383,0.346-0.641,0.364l-1.137,0.085c-0.309,0.022-0.604-0.122-0.776-0.379l-1.152-1.723
			c-0.148-0.223-0.185-0.5-0.098-0.753l0.24-0.69C64.288,78.378,64.817,78.146,65.276,78.344z"/>
	</g>
</g>
<g>
	<g>
		<path fill="#B28247" d="M55.267,48.722c0.06-0.398-0.141-0.743-0.374-1.001c0.447-1.062,0.149-1.715,0.149-1.715l-0.635,0.828
			l-0.232-1.316c0,0-0.772,0.066-0.542,1.6c-0.149,0.058-0.288,0.179-0.429,0.378c-0.188,0.269-0.458,0.591-0.425,0.902
			c-0.292,0.188-1.326,0.798-1.942,0.498c-0.723-0.351-5.357-3.67-8.807,0.508c0,0-2.061,2.075-2.727,3.97
			c-0.247,0.699-0.609,1.364-1.164,1.876c-0.428,0.396-0.985,0.758-1.65,0.868c0,0-0.389,0.404,0.035,0.539
			c0.426,0.136,2.545-0.371,4.064-2.503c0.382-0.535,1.012-1.245,1.648-1.914c0.106,0.074,0.212,0.136,0.31,0.187
			c1.4,0.715-0.048,2.715-0.727,3.235c-0.463,0.358-0.241,0.759-0.136,1.231c0.104,0.475-0.283,2.199-0.283,2.199
			c0.388-0.068,0.848-0.778,0.848-0.778l0.213-1.994c0.954-0.71,2.663-2.438,2.663-2.438c0.346-0.564,0.466-1.078,0.438-1.536
			c1.947,0.337,3.459,0.302,4.646,0.067c0.285,0.537,0.811,1.084,1.085,1.325c0.371,0.324-0.067,0.557-0.148,0.929
			c-0.079,0.371,0.221,0.437,0.221,0.437c0.162-0.079,0.332-0.226,0.47-0.397c0.031,0.018,0.06,0.024,0.06,0.024
			c0.417-0.196,0.874-0.851,0.75-1.194c-0.089-0.253-0.626-0.98-0.917-1.366c-0.044-0.058-0.07-0.124-0.089-0.191
			c1.211-0.524,1.893-1.274,2.252-1.853c0.166-0.268,0.503-0.4,0.811-0.306c0.076,0.022,0.147,0.042,0.219,0.058
			c0.232,0.104,0.467,0.197,0.562,0.197c0.079,0,0.131-0.047,0.161-0.105c0.265-0.008,0.468-0.081,0.566-0.224
			C56.381,49.504,55.267,48.722,55.267,48.722z M51.967,53.627c-0.063-0.101-0.14-0.216-0.223-0.335
			c0.027,0.024,0.058,0.052,0.079,0.073C51.931,53.457,51.965,53.543,51.967,53.627z"/>
	</g>
	<circle cx="54.525" cy="48.426" r="0.19"/>
</g>
<g>
	<g>
		<path fill="#C9A063" d="M48.155,57.115c0.135,0.193,0.406,0.294,0.771,0.303c0.041,0.08,0.111,0.146,0.216,0.146
			c0.132,0,0.45-0.129,0.765-0.269c0.095-0.021,0.189-0.046,0.294-0.08c0.42-0.125,0.874,0.054,1.1,0.416
			c0.487,0.779,1.411,1.799,3.052,2.512c-0.026,0.089-0.061,0.181-0.121,0.259c-0.392,0.521-1.122,1.508-1.243,1.85
			c-0.168,0.468,0.452,1.352,1.019,1.619c0,0,0.037-0.01,0.081-0.035c0.186,0.235,0.417,0.436,0.637,0.54
			c0,0,0.404-0.086,0.298-0.591c-0.109-0.505-0.705-0.818-0.202-1.259c0.374-0.323,1.086-1.067,1.471-1.798
			c1.608,0.32,3.659,0.367,6.297-0.091c-0.036,0.621,0.127,1.319,0.593,2.083c0,0,2.317,2.343,3.608,3.306l0.289,2.701
			c0,0,0.623,0.963,1.15,1.055c0,0-0.527-2.336-0.385-2.978c0.146-0.643,0.442-1.187-0.184-1.67
			c-0.919-0.707-2.883-3.418-0.986-4.386c0.137-0.068,0.277-0.151,0.424-0.253c0.86,0.908,1.713,1.871,2.231,2.596
			c2.062,2.887,4.932,3.575,5.51,3.391c0.573-0.184,0.048-0.73,0.048-0.73c-0.902-0.149-1.656-0.64-2.24-1.178
			c-0.75-0.693-1.242-1.594-1.574-2.543c-0.902-2.564-3.695-5.376-3.695-5.376c-4.678-5.663-10.958-1.168-11.935-0.688
			c-0.838,0.402-2.238-0.42-2.635-0.678c0.047-0.422-0.323-0.857-0.574-1.223c-0.191-0.268-0.382-0.436-0.583-0.512
			c0.314-2.08-0.734-2.168-0.734-2.168l-0.314,1.783l-0.857-1.121c0,0-0.404,0.886,0.199,2.324
			c-0.314,0.348-0.585,0.817-0.508,1.357C49.435,55.73,47.925,56.789,48.155,57.115z M54.104,62.024
			c0.028-0.031,0.07-0.067,0.105-0.101c-0.111,0.162-0.216,0.316-0.299,0.453C53.91,62.262,53.958,62.148,54.104,62.024z"/>
	</g>
	<path d="M50.184,55.327c0,0.143,0.115,0.259,0.258,0.259c0.138,0,0.258-0.116,0.258-0.259s-0.12-0.259-0.258-0.259
		C50.299,55.068,50.184,55.185,50.184,55.327z"/>
</g>
</svg>
