<?xml version="1.0" encoding="utf-8"?>
<!-- Generator: Adobe Illustrator 16.0.0, SVG Export Plug-In . SVG Version: 6.00 Build 0)  -->
<!DOCTYPE svg PUBLIC "-//W3C//DTD SVG 1.1//EN" "http://www.w3.org/Graphics/SVG/1.1/DTD/svg11.dtd">
<svg version="1.1" id="Layer_1" xmlns="http://www.w3.org/2000/svg" xmlns:xlink="http://www.w3.org/1999/xlink" x="0px" y="0px"
	 width="126.877px" height="112.438px" viewBox="0 0 126.877 112.438" enable-background="new 0 0 126.877 112.438"
	 xml:space="preserve">
<rect fill="#FFFFFF" width="126.877" height="112.438"/>
<polygon fill="#594A42" points="16.798,39.082 16.798,39.082 16.548,39.082 16.548,39.082 16.548,39.082 16.548,39.082 
	16.798,39.082 16.798,39.082 "/>
<polygon fill="#594A42" points="16.923,39.082 16.923,39.082 16.673,39.082 16.673,39.082 16.673,39.082 16.673,39.082 
	16.923,39.082 16.923,39.082 "/>
<polygon fill="#594A42" points="14.132,36.085 14.132,36.085 14.465,36.085 14.465,36.085 14.465,36.085 14.465,36.085 
	14.132,36.085 14.132,36.085 "/>
<polygon fill="#594A42" points="14.798,36.085 14.798,36.085 14.465,36.085 14.465,36.085 14.465,36.085 14.465,36.085 
	14.798,36.085 14.798,36.085 "/>
<g>
	<path fill="#FFFFFF" d="M79.203,80.293c-0.557,0.116-1.004,0.571-1.121,1.067c-0.138,0.548,0.125,1.072,0.512,1.322
		c0.389,0.274,0.903,0.234,1.207-0.006c0.308-0.231,0.435-0.594,0.384-0.88c-0.018-0.104-0.063-0.179-0.104-0.254
		c-0.051-0.223-0.232-0.402-0.474-0.426c-0.301-0.031-0.57,0.19-0.6,0.49c-0.03,0.303,0.189,0.569,0.491,0.6
		c0.077,0.008,0.151-0.002,0.222-0.025c-0.039,0.064-0.08,0.13-0.146,0.18c-0.19,0.14-0.502,0.152-0.742-0.029
		c-0.247-0.166-0.396-0.528-0.305-0.839c0.1-0.354,0.396-0.648,0.779-0.728c0.373-0.088,0.802,0.086,1.086,0.398
		c0.285,0.308,0.402,0.78,0.309,1.174c-0.201,0.886-1.18,1.483-1.949,1.273c-0.387-0.104-0.787-0.35-1.035-0.612
		c-0.263-0.268-0.383-0.61-0.442-0.95c-0.105-0.688-0.022-1.326,0.011-1.76c0.004-0.075,0.013-0.134,0.019-0.198h0.005l0.355-3.559
		c0.164,0.019,0.378,0.037,0.47,0.05c0.281,0.034,0.699,0.064,1.126,0.221c0.209,0.08,0.413,0.2,0.551,0.403
		c0.136,0.192,0.241,0.479,0.257,0.74c0.035,0.518-0.472,1.065-1.064,1.079c-0.263,0.012-0.55-0.124-0.709-0.348
		c-0.163-0.222-0.22-0.517-0.116-0.744c0.101-0.234,0.327-0.385,0.564-0.403c0.212-0.019,0.426,0.122,0.497,0.302
		c0.087,0.179,0.038,0.374-0.076,0.477c-0.041,0.038-0.087,0.054-0.133,0.072c0.023-0.042,0.04-0.089,0.044-0.139
		c0.02-0.195-0.122-0.371-0.318-0.391s-0.373,0.124-0.393,0.319c-0.016,0.157,0.076,0.296,0.213,0.358
		c0.043,0.035,0.084,0.074,0.148,0.098c0.176,0.07,0.424,0.037,0.611-0.132c0.193-0.163,0.283-0.485,0.158-0.769
		c-0.111-0.279-0.411-0.516-0.779-0.496c-0.33,0.011-0.68,0.235-0.825,0.578c-0.156,0.345-0.077,0.762,0.142,1.062
		c0.225,0.31,0.594,0.502,0.996,0.49c0.748-0.019,1.43-0.682,1.396-1.437c-0.025-0.354-0.131-0.652-0.314-0.931
		c-0.182-0.276-0.463-0.444-0.713-0.543c-0.507-0.188-0.93-0.216-1.219-0.256c-0.094-0.01-0.311-0.035-0.475-0.049l0.031-0.326
		c0.164,0.019,0.382,0.036,0.477,0.046c0.291,0.017,0.71,0.073,1.245-0.012c0.265-0.047,0.573-0.157,0.806-0.391
		c0.235-0.236,0.397-0.507,0.492-0.851c0.182-0.732-0.357-1.517-1.085-1.684c-0.393-0.093-0.793,0.025-1.073,0.281
		c-0.275,0.254-0.435,0.646-0.349,1.017c0.075,0.364,0.372,0.653,0.695,0.729c0.356,0.09,0.696-0.08,0.861-0.332
		c0.179-0.254,0.153-0.589-0.004-0.785c-0.15-0.201-0.386-0.284-0.572-0.252c-0.069,0.012-0.116,0.041-0.166,0.067
		c-0.146,0.035-0.263,0.153-0.278,0.311c-0.02,0.194,0.124,0.37,0.32,0.389c0.196,0.021,0.371-0.122,0.39-0.317
		c0.005-0.051,0-0.101-0.015-0.146c0.041,0.026,0.082,0.052,0.115,0.097c0.091,0.122,0.102,0.325-0.019,0.481
		c-0.106,0.162-0.344,0.26-0.548,0.2c-0.229-0.064-0.421-0.257-0.473-0.507c-0.057-0.244,0.056-0.522,0.26-0.709
		c0.2-0.186,0.509-0.262,0.765-0.2c0.577,0.132,0.966,0.769,0.83,1.27c-0.067,0.252-0.228,0.513-0.398,0.675
		c-0.175,0.17-0.398,0.249-0.62,0.287c-0.448,0.069-0.864,0.016-1.146-0.006c-0.093-0.006-0.307-0.031-0.471-0.044l0.624-6.261
		c0.164,0.018,0.378,0.037,0.47,0.048c0.281,0.036,0.699,0.065,1.127,0.221c0.208,0.081,0.412,0.202,0.55,0.403
		c0.136,0.193,0.24,0.48,0.258,0.742c0.034,0.518-0.473,1.063-1.065,1.08c-0.262,0.009-0.55-0.126-0.709-0.348
		c-0.163-0.223-0.219-0.518-0.115-0.745c0.1-0.234,0.326-0.386,0.563-0.403c0.212-0.02,0.426,0.123,0.497,0.303
		c0.088,0.176,0.038,0.375-0.076,0.476c-0.041,0.038-0.087,0.054-0.133,0.073c0.024-0.043,0.04-0.09,0.044-0.14
		c0.02-0.196-0.123-0.371-0.319-0.391c-0.196-0.021-0.371,0.124-0.391,0.32c-0.016,0.156,0.075,0.295,0.211,0.356
		c0.044,0.036,0.084,0.074,0.149,0.1c0.178,0.069,0.425,0.034,0.611-0.133c0.193-0.163,0.284-0.485,0.159-0.77
		c-0.111-0.28-0.412-0.515-0.78-0.496c-0.33,0.011-0.679,0.236-0.824,0.578c-0.157,0.346-0.078,0.762,0.141,1.064
		c0.224,0.308,0.594,0.501,0.996,0.489c0.747-0.021,1.43-0.684,1.397-1.437c-0.025-0.356-0.131-0.654-0.314-0.932
		c-0.183-0.275-0.464-0.443-0.714-0.541c-0.508-0.189-0.929-0.218-1.219-0.259c-0.094-0.009-0.312-0.034-0.475-0.048l0.031-0.327
		c0.164,0.021,0.382,0.038,0.477,0.047c0.292,0.017,0.71,0.073,1.246-0.011c0.264-0.047,0.573-0.157,0.806-0.393
		c0.233-0.234,0.397-0.507,0.492-0.85c0.18-0.732-0.357-1.518-1.086-1.684c-0.393-0.092-0.793,0.026-1.073,0.283
		c-0.274,0.253-0.435,0.645-0.349,1.016c0.076,0.363,0.373,0.653,0.694,0.729c0.356,0.091,0.698-0.08,0.862-0.332
		c0.179-0.254,0.153-0.589-0.004-0.785c-0.149-0.202-0.386-0.284-0.572-0.251c-0.069,0.011-0.115,0.041-0.166,0.068
		c-0.145,0.033-0.263,0.151-0.278,0.309c-0.019,0.195,0.124,0.37,0.32,0.39s0.37-0.124,0.39-0.318c0.006-0.051,0-0.1-0.016-0.146
		c0.042,0.028,0.084,0.051,0.116,0.098c0.092,0.123,0.101,0.324-0.019,0.481c-0.105,0.162-0.344,0.259-0.549,0.199
		c-0.229-0.065-0.42-0.258-0.472-0.507c-0.058-0.244,0.057-0.522,0.261-0.708c0.2-0.187,0.508-0.263,0.764-0.201
		c0.577,0.132,0.967,0.769,0.83,1.269c-0.067,0.255-0.228,0.516-0.398,0.675c-0.176,0.173-0.398,0.251-0.619,0.288
		c-0.449,0.069-0.865,0.016-1.147-0.006c-0.093-0.007-0.306-0.03-0.471-0.044l0.624-6.261c0.164,0.019,0.379,0.037,0.47,0.049
		c0.281,0.034,0.7,0.064,1.127,0.222c0.208,0.081,0.413,0.2,0.55,0.403c0.135,0.191,0.241,0.479,0.258,0.74
		c0.034,0.518-0.473,1.065-1.064,1.079c-0.263,0.012-0.55-0.124-0.709-0.347c-0.164-0.221-0.22-0.519-0.116-0.745
		c0.101-0.234,0.326-0.386,0.563-0.404c0.212-0.019,0.426,0.126,0.498,0.304c0.087,0.177,0.037,0.374-0.077,0.477
		c-0.04,0.037-0.087,0.053-0.133,0.072c0.024-0.043,0.039-0.09,0.044-0.139c0.02-0.196-0.123-0.371-0.319-0.392
		c-0.196-0.02-0.371,0.124-0.391,0.321c-0.016,0.155,0.075,0.294,0.212,0.355c0.043,0.037,0.084,0.074,0.149,0.099
		c0.176,0.07,0.424,0.036,0.61-0.13c0.193-0.166,0.284-0.488,0.159-0.771c-0.111-0.279-0.411-0.516-0.78-0.495
		c-0.33,0.011-0.679,0.235-0.824,0.577c-0.158,0.346-0.078,0.763,0.142,1.065c0.224,0.307,0.593,0.502,0.996,0.489
		c0.746-0.021,1.429-0.684,1.396-1.436c-0.024-0.357-0.13-0.654-0.314-0.933c-0.182-0.276-0.463-0.444-0.712-0.542
		c-0.509-0.189-0.93-0.218-1.219-0.258c-0.096-0.008-0.312-0.035-0.477-0.049l0.032-0.324c0.164,0.018,0.382,0.035,0.477,0.045
		c0.292,0.016,0.711,0.074,1.246-0.012c0.264-0.046,0.573-0.156,0.805-0.392c0.235-0.236,0.398-0.506,0.492-0.851
		c0.182-0.731-0.356-1.517-1.085-1.684c-0.392-0.091-0.792,0.027-1.073,0.283c-0.274,0.252-0.435,0.646-0.349,1.016
		c0.076,0.363,0.373,0.654,0.694,0.73c0.357,0.09,0.698-0.082,0.863-0.334c0.178-0.253,0.152-0.587-0.005-0.785
		c-0.149-0.201-0.386-0.284-0.572-0.25c-0.069,0.012-0.116,0.041-0.166,0.068c-0.146,0.032-0.263,0.15-0.278,0.309
		c-0.02,0.195,0.124,0.371,0.32,0.391s0.371-0.124,0.391-0.32c0.005-0.051-0.002-0.101-0.017-0.145
		c0.042,0.025,0.083,0.05,0.116,0.095c0.092,0.124,0.101,0.328-0.019,0.483c-0.106,0.162-0.343,0.258-0.548,0.199
		c-0.229-0.065-0.42-0.258-0.473-0.508c-0.058-0.243,0.056-0.521,0.26-0.708c0.2-0.186,0.51-0.262,0.764-0.201
		c0.578,0.133,0.968,0.769,0.831,1.27c-0.067,0.254-0.228,0.515-0.397,0.675c-0.176,0.172-0.399,0.249-0.62,0.288
		c-0.449,0.069-0.864,0.015-1.148-0.005c-0.091-0.007-0.305-0.032-0.47-0.045l0.625-6.262c0.162,0.02,0.377,0.037,0.47,0.05
		c0.28,0.035,0.698,0.063,1.126,0.22c0.209,0.082,0.412,0.201,0.551,0.404c0.135,0.191,0.24,0.479,0.258,0.74
		c0.033,0.519-0.474,1.066-1.065,1.081c-0.263,0.01-0.55-0.126-0.709-0.347c-0.163-0.223-0.22-0.52-0.116-0.747
		c0.1-0.234,0.326-0.386,0.564-0.403c0.211-0.019,0.426,0.124,0.497,0.304c0.086,0.177,0.038,0.374-0.077,0.476
		c-0.04,0.038-0.087,0.054-0.133,0.072c0.025-0.043,0.039-0.088,0.045-0.139c0.02-0.196-0.123-0.371-0.319-0.392
		c-0.196-0.019-0.372,0.125-0.392,0.32c-0.015,0.157,0.076,0.297,0.212,0.357c0.044,0.036,0.084,0.075,0.149,0.1
		c0.176,0.068,0.424,0.036,0.61-0.132c0.193-0.164,0.284-0.487,0.159-0.771c-0.111-0.28-0.411-0.516-0.779-0.496
		c-0.332,0.011-0.68,0.238-0.825,0.577c-0.157,0.347-0.079,0.764,0.141,1.064c0.225,0.308,0.595,0.504,0.997,0.49
		c0.746-0.02,1.429-0.684,1.396-1.435c-0.024-0.358-0.131-0.656-0.313-0.934c-0.182-0.273-0.463-0.444-0.713-0.541
		c-0.508-0.19-0.93-0.218-1.219-0.259c-0.096-0.008-0.312-0.035-0.477-0.048l0.033-0.325c0.164,0.018,0.381,0.035,0.477,0.045
		c0.291,0.018,0.71,0.074,1.246-0.011c0.263-0.046,0.572-0.157,0.805-0.392c0.234-0.236,0.396-0.508,0.492-0.852
		c0.181-0.732-0.357-1.516-1.086-1.684c-0.392-0.091-0.793,0.028-1.074,0.285c-0.272,0.251-0.433,0.643-0.347,1.014
		c0.074,0.364,0.371,0.654,0.694,0.73c0.356,0.09,0.697-0.08,0.862-0.334c0.179-0.251,0.153-0.588-0.005-0.785
		c-0.148-0.201-0.385-0.283-0.572-0.25c-0.068,0.012-0.116,0.041-0.166,0.068c-0.146,0.033-0.262,0.151-0.277,0.309
		c-0.02,0.196,0.124,0.371,0.32,0.391c0.196,0.021,0.37-0.124,0.39-0.32c0.005-0.051-0.001-0.099-0.017-0.144
		c0.043,0.025,0.084,0.052,0.117,0.096c0.091,0.123,0.101,0.326-0.019,0.481c-0.107,0.161-0.344,0.258-0.549,0.199
		c-0.229-0.062-0.421-0.258-0.472-0.507c-0.058-0.243,0.055-0.522,0.26-0.709c0.199-0.185,0.509-0.262,0.764-0.2
		c0.577,0.131,0.966,0.769,0.83,1.27c-0.067,0.253-0.227,0.514-0.397,0.674c-0.176,0.173-0.399,0.252-0.62,0.289
		c-0.449,0.068-0.864,0.014-1.146-0.006c-0.094-0.006-0.308-0.032-0.471-0.045l0.623-6.26c0.164,0.019,0.379,0.035,0.471,0.047
		c0.281,0.035,0.699,0.065,1.127,0.222c0.208,0.081,0.412,0.2,0.55,0.404c0.135,0.191,0.24,0.479,0.257,0.739
		c0.035,0.518-0.473,1.066-1.064,1.08c-0.262,0.013-0.551-0.125-0.71-0.346c-0.163-0.223-0.218-0.52-0.114-0.746
		c0.1-0.234,0.326-0.386,0.563-0.404c0.212-0.018,0.425,0.125,0.497,0.305c0.086,0.176,0.037,0.373-0.076,0.476
		c-0.042,0.037-0.087,0.054-0.133,0.071c0.023-0.042,0.039-0.088,0.044-0.139c0.02-0.195-0.123-0.37-0.319-0.391
		c-0.196-0.02-0.372,0.123-0.391,0.32c-0.016,0.156,0.074,0.295,0.211,0.355c0.043,0.037,0.084,0.076,0.149,0.102
		c0.177,0.068,0.425,0.035,0.61-0.132c0.193-0.165,0.285-0.487,0.16-0.771c-0.112-0.28-0.412-0.515-0.78-0.496
		c-0.331,0.01-0.679,0.236-0.825,0.577c-0.157,0.346-0.078,0.763,0.141,1.064c0.225,0.308,0.595,0.502,0.996,0.489
		c0.748-0.02,1.43-0.683,1.397-1.435c-0.025-0.358-0.132-0.655-0.314-0.933c-0.182-0.275-0.463-0.445-0.712-0.543
		c-0.509-0.189-0.93-0.215-1.22-0.257c-0.095-0.009-0.312-0.035-0.476-0.048l0.032-0.325c0.164,0.017,0.382,0.034,0.477,0.045
		c0.292,0.016,0.71,0.074,1.245-0.012c0.265-0.047,0.574-0.156,0.806-0.392c0.234-0.236,0.397-0.506,0.492-0.85
		c0.181-0.733-0.356-1.519-1.085-1.685c-0.393-0.091-0.793,0.026-1.074,0.282c-0.273,0.254-0.435,0.646-0.349,1.018
		c0.076,0.363,0.372,0.652,0.695,0.729c0.357,0.089,0.698-0.08,0.862-0.332c0.179-0.255,0.152-0.59-0.004-0.787
		c-0.149-0.202-0.387-0.283-0.572-0.25c-0.069,0.012-0.117,0.041-0.166,0.068c-0.146,0.032-0.263,0.149-0.278,0.308
		c-0.02,0.196,0.124,0.372,0.32,0.392c0.196,0.019,0.37-0.124,0.39-0.32c0.005-0.051-0.001-0.102-0.016-0.146
		c0.042,0.026,0.083,0.052,0.116,0.098c0.092,0.122,0.101,0.325-0.02,0.48c-0.106,0.162-0.344,0.26-0.547,0.199
		c-0.229-0.062-0.421-0.256-0.473-0.508c-0.058-0.242,0.056-0.52,0.26-0.707c0.2-0.186,0.51-0.263,0.764-0.199
		c0.578,0.13,0.967,0.767,0.831,1.268c-0.068,0.254-0.229,0.514-0.398,0.677c-0.176,0.171-0.398,0.249-0.619,0.287
		c-0.45,0.067-0.866,0.016-1.148-0.006c-0.093-0.007-0.306-0.032-0.471-0.046l0.625-6.262c0.163,0.021,0.377,0.038,0.47,0.05
		c0.281,0.036,0.699,0.063,1.127,0.222c0.208,0.08,0.412,0.2,0.55,0.403c0.135,0.19,0.24,0.479,0.257,0.74
		c0.035,0.518-0.473,1.067-1.064,1.081c-0.262,0.01-0.55-0.126-0.71-0.348c-0.163-0.222-0.219-0.518-0.114-0.746
		c0.1-0.234,0.326-0.386,0.563-0.404c0.212-0.018,0.425,0.125,0.497,0.305c0.087,0.177,0.037,0.374-0.076,0.475
		c-0.042,0.039-0.087,0.054-0.134,0.072c0.024-0.04,0.04-0.088,0.045-0.139c0.02-0.195-0.123-0.371-0.319-0.391
		s-0.371,0.124-0.392,0.32c-0.016,0.156,0.076,0.296,0.213,0.356c0.043,0.038,0.083,0.076,0.148,0.101
		c0.177,0.068,0.425,0.036,0.611-0.133c0.192-0.162,0.284-0.486,0.159-0.77c-0.112-0.279-0.413-0.516-0.78-0.496
		c-0.331,0.01-0.68,0.237-0.825,0.576c-0.157,0.348-0.078,0.766,0.142,1.066c0.225,0.307,0.594,0.502,0.997,0.488
		c0.746-0.019,1.429-0.682,1.396-1.435c-0.025-0.356-0.131-0.655-0.314-0.933c-0.182-0.274-0.463-0.444-0.712-0.542
		c-0.509-0.188-0.93-0.215-1.219-0.257c-0.096-0.008-0.312-0.035-0.477-0.049l0.032-0.324c0.164,0.019,0.382,0.034,0.477,0.045
		c0.292,0.017,0.709,0.074,1.245-0.013c0.264-0.046,0.573-0.156,0.806-0.391c0.234-0.235,0.397-0.505,0.492-0.853
		c0.182-0.729-0.357-1.515-1.085-1.682c-0.394-0.091-0.793,0.027-1.074,0.283c-0.274,0.252-0.433,0.645-0.349,1.016
		c0.076,0.363,0.373,0.652,0.695,0.729c0.357,0.091,0.698-0.078,0.862-0.332c0.178-0.253,0.153-0.589-0.004-0.787
		c-0.149-0.2-0.386-0.281-0.572-0.25c-0.069,0.014-0.116,0.041-0.167,0.069c-0.145,0.033-0.262,0.151-0.277,0.308
		c-0.02,0.197,0.123,0.371,0.32,0.392c0.195,0.02,0.371-0.122,0.391-0.321c0.004-0.05-0.002-0.099-0.017-0.143
		c0.041,0.026,0.083,0.051,0.115,0.096c0.093,0.123,0.102,0.326-0.019,0.48c-0.105,0.162-0.344,0.261-0.547,0.2
		c-0.23-0.063-0.421-0.257-0.473-0.506c-0.058-0.245,0.056-0.524,0.26-0.71c0.2-0.186,0.51-0.262,0.764-0.2
		c0.578,0.132,0.967,0.769,0.831,1.269c-0.067,0.254-0.229,0.515-0.398,0.678c-0.175,0.17-0.399,0.248-0.619,0.287
		c-0.45,0.068-0.866,0.016-1.148-0.007c-0.093-0.006-0.306-0.032-0.47-0.046l0.3-3.006h-0.005c0.007-0.072,0.012-0.146,0.022-0.234
		c0.054-0.432,0.099-1.072,0.339-1.729c0.125-0.319,0.311-0.633,0.621-0.844c0.294-0.207,0.735-0.371,1.136-0.396
		c0.794-0.054,1.636,0.724,1.657,1.634c0.018,0.402-0.192,0.844-0.533,1.09c-0.34,0.25-0.795,0.337-1.143,0.177
		c-0.36-0.154-0.592-0.502-0.62-0.865c-0.028-0.324,0.188-0.65,0.464-0.765c0.271-0.131,0.574-0.057,0.732,0.12
		c0.057,0.061,0.084,0.132,0.109,0.202c-0.064-0.036-0.136-0.061-0.213-0.068c-0.302-0.03-0.569,0.19-0.599,0.49
		c-0.031,0.303,0.188,0.57,0.489,0.601c0.241,0.023,0.456-0.115,0.549-0.326c0.056-0.063,0.115-0.129,0.152-0.227
		c0.106-0.271,0.055-0.65-0.201-0.938c-0.251-0.296-0.747-0.438-1.183-0.244c-0.429,0.169-0.789,0.63-0.763,1.194
		c0.018,0.509,0.365,1.045,0.887,1.269c0.532,0.241,1.172,0.119,1.635-0.217c0.471-0.346,0.771-0.911,0.752-1.53
		c-0.031-1.147-1.049-2.192-2.205-2.144c-0.546,0.038-1.004,0.203-1.429,0.482c-0.422,0.28-0.683,0.712-0.833,1.094
		c-0.291,0.779-0.33,1.428-0.395,1.872c-0.009,0.091-0.019,0.168-0.027,0.241l-4.24-0.423c0.028-0.146,0.051-0.469,0.067-0.587
		c0.034-0.282,0.063-0.7,0.22-1.127c0.081-0.208,0.202-0.412,0.405-0.55c0.19-0.134,0.479-0.241,0.74-0.256
		c0.518-0.035,1.065,0.471,1.079,1.063c0.012,0.263-0.125,0.551-0.346,0.711c-0.223,0.161-0.52,0.218-0.747,0.114
		c-0.233-0.101-0.387-0.328-0.403-0.565c-0.019-0.21,0.124-0.423,0.305-0.497c0.175-0.085,0.372-0.035,0.475,0.077
		c0.037,0.04,0.054,0.087,0.071,0.134c-0.042-0.024-0.087-0.04-0.138-0.045c-0.196-0.02-0.372,0.123-0.391,0.32
		c-0.02,0.195,0.123,0.37,0.319,0.389c0.157,0.016,0.297-0.074,0.357-0.211c0.037-0.042,0.073-0.084,0.1-0.148
		c0.069-0.176,0.036-0.424-0.132-0.609c-0.165-0.193-0.487-0.286-0.771-0.159c-0.28,0.109-0.515,0.409-0.495,0.776
		c0.01,0.332,0.236,0.682,0.576,0.827c0.346,0.157,0.765,0.077,1.065-0.142c0.308-0.225,0.502-0.593,0.489-0.996
		c-0.02-0.747-0.684-1.43-1.435-1.396c-0.358,0.023-0.656,0.133-0.934,0.314c-0.274,0.182-0.443,0.463-0.541,0.713
		c-0.19,0.508-0.217,0.929-0.259,1.219c-0.011,0.123-0.05,0.443-0.055,0.594l-0.336-0.034c0.025-0.147,0.049-0.469,0.062-0.591
		c0.018-0.294,0.075-0.711-0.01-1.247c-0.046-0.264-0.158-0.573-0.39-0.806c-0.236-0.234-0.51-0.399-0.854-0.492
		c-0.73-0.182-1.516,0.356-1.684,1.085c-0.091,0.394,0.027,0.793,0.284,1.074c0.252,0.273,0.646,0.434,1.016,0.349
		c0.362-0.076,0.652-0.374,0.729-0.697c0.089-0.356-0.08-0.697-0.332-0.859c-0.254-0.179-0.589-0.152-0.787,0.004
		c-0.201,0.15-0.283,0.387-0.25,0.571c0.012,0.069,0.041,0.117,0.068,0.167c0.033,0.145,0.152,0.261,0.309,0.276
		c0.196,0.02,0.371-0.122,0.391-0.319c0.021-0.195-0.123-0.371-0.32-0.391c-0.05-0.005-0.1,0.002-0.145,0.018
		c0.025-0.042,0.052-0.086,0.097-0.116c0.122-0.092,0.325-0.101,0.481,0.018c0.162,0.107,0.258,0.345,0.199,0.547
		c-0.063,0.229-0.258,0.422-0.506,0.476c-0.245,0.056-0.523-0.059-0.71-0.261c-0.185-0.2-0.263-0.51-0.2-0.765
		c0.133-0.578,0.769-0.966,1.27-0.83c0.253,0.066,0.513,0.229,0.675,0.396c0.173,0.176,0.251,0.4,0.289,0.621
		c0.068,0.447,0.015,0.863-0.007,1.147c-0.01,0.118-0.048,0.438-0.052,0.589l-6.271-0.626c0.025-0.147,0.049-0.469,0.065-0.587
		c0.034-0.282,0.064-0.7,0.22-1.126c0.081-0.209,0.201-0.413,0.404-0.551c0.192-0.135,0.48-0.241,0.74-0.256
		c0.518-0.035,1.066,0.472,1.082,1.063c0.011,0.264-0.127,0.551-0.348,0.71c-0.223,0.161-0.518,0.219-0.746,0.115
		c-0.234-0.101-0.386-0.328-0.404-0.565c-0.018-0.21,0.125-0.423,0.305-0.497c0.176-0.085,0.373-0.036,0.476,0.078
		c0.038,0.038,0.054,0.085,0.071,0.134c-0.042-0.025-0.088-0.041-0.139-0.046c-0.196-0.02-0.371,0.123-0.391,0.319
		c-0.02,0.195,0.124,0.371,0.32,0.391c0.156,0.016,0.297-0.075,0.357-0.212c0.035-0.042,0.074-0.083,0.1-0.149
		c0.068-0.176,0.035-0.422-0.133-0.609c-0.163-0.191-0.486-0.284-0.77-0.158c-0.28,0.109-0.514,0.41-0.496,0.775
		c0.01,0.332,0.236,0.682,0.577,0.828c0.347,0.156,0.764,0.076,1.065-0.142c0.307-0.225,0.501-0.593,0.488-0.996
		c-0.02-0.749-0.683-1.43-1.436-1.396c-0.356,0.022-0.654,0.132-0.932,0.313c-0.274,0.183-0.445,0.465-0.541,0.713
		c-0.191,0.509-0.217,0.931-0.259,1.22c-0.011,0.122-0.052,0.443-0.056,0.594l-0.335-0.034c0.025-0.146,0.05-0.47,0.062-0.593
		c0.017-0.292,0.074-0.709-0.011-1.245c-0.048-0.264-0.157-0.573-0.393-0.807s-0.505-0.398-0.851-0.492
		c-0.731-0.18-1.516,0.357-1.683,1.086c-0.093,0.394,0.026,0.793,0.283,1.074c0.252,0.273,0.646,0.434,1.016,0.348
		c0.363-0.076,0.652-0.373,0.729-0.696c0.092-0.356-0.079-0.696-0.333-0.859c-0.252-0.179-0.587-0.153-0.785,0.003
		c-0.201,0.151-0.284,0.386-0.251,0.572c0.012,0.069,0.042,0.117,0.069,0.166c0.032,0.146,0.151,0.262,0.309,0.277
		c0.196,0.02,0.371-0.124,0.391-0.318c0.019-0.196-0.124-0.372-0.32-0.392c-0.051-0.005-0.099,0.001-0.146,0.017
		c0.028-0.041,0.052-0.086,0.097-0.115c0.123-0.091,0.326-0.102,0.481,0.017c0.162,0.108,0.261,0.346,0.199,0.548
		c-0.063,0.229-0.257,0.422-0.506,0.474c-0.243,0.057-0.522-0.057-0.709-0.259c-0.186-0.2-0.263-0.51-0.201-0.766
		c0.132-0.578,0.769-0.965,1.271-0.829c0.252,0.066,0.513,0.229,0.674,0.397c0.172,0.175,0.25,0.398,0.286,0.619
		c0.069,0.448,0.018,0.864-0.005,1.147c-0.007,0.119-0.048,0.439-0.052,0.589l-6.27-0.625c0.025-0.147,0.049-0.469,0.064-0.588
		c0.035-0.281,0.066-0.699,0.22-1.125c0.082-0.209,0.202-0.414,0.405-0.551c0.191-0.135,0.479-0.241,0.74-0.257
		c0.519-0.034,1.066,0.472,1.081,1.064c0.01,0.263-0.126,0.55-0.348,0.71c-0.222,0.161-0.519,0.219-0.746,0.114
		c-0.233-0.101-0.386-0.327-0.403-0.564c-0.02-0.21,0.124-0.424,0.305-0.497c0.175-0.086,0.373-0.036,0.475,0.077
		c0.038,0.039,0.053,0.086,0.072,0.134c-0.043-0.025-0.089-0.04-0.139-0.045c-0.196-0.02-0.372,0.124-0.392,0.32
		c-0.02,0.194,0.124,0.369,0.32,0.389c0.157,0.016,0.296-0.074,0.356-0.211c0.037-0.043,0.076-0.084,0.102-0.148
		c0.068-0.177,0.035-0.424-0.134-0.61c-0.163-0.193-0.486-0.284-0.77-0.159c-0.28,0.109-0.515,0.41-0.495,0.777
		c0.011,0.331,0.235,0.681,0.577,0.826c0.345,0.157,0.763,0.077,1.064-0.141c0.308-0.225,0.502-0.593,0.489-0.996
		c-0.02-0.748-0.683-1.43-1.436-1.396c-0.357,0.022-0.654,0.132-0.932,0.314c-0.276,0.182-0.445,0.463-0.543,0.713
		c-0.189,0.509-0.215,0.929-0.257,1.219c-0.012,0.122-0.052,0.444-0.056,0.593l-0.335-0.032c0.025-0.148,0.05-0.471,0.062-0.593
		c0.016-0.293,0.074-0.71-0.013-1.247c-0.046-0.264-0.157-0.572-0.39-0.806c-0.235-0.232-0.508-0.399-0.853-0.492
		c-0.731-0.181-1.517,0.356-1.683,1.087c-0.092,0.393,0.026,0.791,0.283,1.072c0.253,0.273,0.645,0.435,1.016,0.349
		c0.363-0.076,0.654-0.373,0.729-0.697c0.089-0.354-0.08-0.696-0.332-0.858c-0.254-0.18-0.59-0.153-0.787,0.004
		c-0.201,0.149-0.282,0.386-0.25,0.57c0.012,0.07,0.041,0.117,0.068,0.167c0.033,0.146,0.151,0.261,0.308,0.277
		c0.197,0.019,0.372-0.123,0.392-0.318c0.02-0.196-0.123-0.372-0.319-0.391c-0.051-0.006-0.102,0-0.146,0.017
		c0.026-0.043,0.052-0.086,0.098-0.117c0.121-0.092,0.326-0.1,0.481,0.018c0.161,0.107,0.258,0.346,0.2,0.548
		c-0.065,0.229-0.258,0.421-0.509,0.475c-0.243,0.056-0.522-0.059-0.708-0.261c-0.185-0.199-0.263-0.508-0.198-0.765
		c0.13-0.578,0.768-0.966,1.266-0.829c0.255,0.066,0.516,0.228,0.676,0.397c0.173,0.175,0.251,0.398,0.289,0.619
		c0.069,0.448,0.017,0.864-0.007,1.147c-0.008,0.119-0.047,0.438-0.05,0.589l-6.271-0.625c0.025-0.147,0.05-0.47,0.064-0.588
		c0.036-0.28,0.063-0.7,0.221-1.126c0.083-0.209,0.203-0.412,0.405-0.551c0.19-0.133,0.478-0.24,0.741-0.255
		c0.516-0.035,1.062,0.472,1.077,1.062c0.012,0.264-0.125,0.551-0.346,0.71c-0.222,0.162-0.519,0.219-0.745,0.116
		c-0.235-0.102-0.386-0.328-0.405-0.565c-0.017-0.209,0.124-0.424,0.305-0.498c0.175-0.085,0.374-0.035,0.476,0.078
		c0.038,0.039,0.055,0.087,0.071,0.134c-0.04-0.025-0.088-0.041-0.139-0.046c-0.196-0.02-0.371,0.125-0.391,0.321
		c-0.02,0.194,0.124,0.369,0.32,0.389c0.157,0.016,0.296-0.075,0.356-0.211c0.037-0.042,0.074-0.083,0.1-0.149
		c0.069-0.175,0.036-0.423-0.132-0.609c-0.162-0.192-0.487-0.285-0.771-0.159c-0.278,0.109-0.513,0.41-0.496,0.777
		c0.011,0.331,0.237,0.681,0.578,0.826c0.347,0.157,0.764,0.077,1.065-0.142c0.306-0.224,0.501-0.592,0.489-0.996
		c-0.021-0.747-0.684-1.43-1.436-1.396c-0.356,0.024-0.656,0.132-0.933,0.315c-0.275,0.181-0.444,0.463-0.542,0.712
		c-0.189,0.508-0.216,0.93-0.259,1.22c-0.011,0.123-0.05,0.442-0.055,0.594l-0.335-0.034c0.025-0.147,0.049-0.47,0.062-0.592
		c0.02-0.293,0.075-0.711-0.011-1.247c-0.047-0.264-0.156-0.573-0.391-0.806c-0.235-0.232-0.507-0.398-0.851-0.492
		c-0.732-0.181-1.518,0.356-1.685,1.086c-0.091,0.393,0.026,0.793,0.283,1.073c0.253,0.273,0.646,0.435,1.017,0.349
		c0.363-0.075,0.652-0.374,0.729-0.697c0.091-0.356-0.08-0.696-0.333-0.859c-0.253-0.179-0.588-0.152-0.787,0.005
		c-0.201,0.149-0.283,0.386-0.248,0.571c0.011,0.069,0.039,0.117,0.067,0.166c0.033,0.145,0.151,0.261,0.308,0.277
		c0.196,0.02,0.371-0.123,0.391-0.318c0.02-0.197-0.124-0.372-0.32-0.392c-0.05-0.005-0.098,0.001-0.145,0.018
		c0.028-0.043,0.052-0.087,0.098-0.117c0.122-0.091,0.326-0.1,0.48,0.018c0.162,0.107,0.26,0.345,0.199,0.547
		c-0.063,0.229-0.257,0.423-0.506,0.476c-0.243,0.057-0.523-0.059-0.708-0.261c-0.188-0.199-0.263-0.509-0.202-0.765
		c0.133-0.577,0.769-0.966,1.271-0.829c0.252,0.067,0.514,0.229,0.675,0.397c0.172,0.175,0.25,0.398,0.289,0.619
		c0.067,0.447,0.014,0.863-0.009,1.147c-0.006,0.118-0.047,0.438-0.051,0.589l-4.008-0.4c0.005-0.072,0.01-0.15,0.02-0.242
		c0.025-0.447,0.113-1.091-0.018-1.912c-0.071-0.404-0.242-0.879-0.601-1.236c-0.361-0.358-0.777-0.611-1.306-0.756
		c-1.123-0.276-2.328,0.548-2.584,1.667c-0.141,0.603,0.041,1.217,0.436,1.648c0.387,0.42,0.989,0.666,1.559,0.535
		c0.558-0.117,1.003-0.573,1.12-1.069c0.138-0.547-0.124-1.07-0.512-1.321c-0.387-0.276-0.903-0.235-1.205,0.006
		c-0.31,0.231-0.437,0.593-0.386,0.88c0.019,0.104,0.064,0.179,0.105,0.252c0.05,0.226,0.231,0.404,0.474,0.428
		c0.3,0.029,0.569-0.189,0.599-0.491c0.03-0.3-0.189-0.569-0.49-0.6c-0.079-0.008-0.152,0.003-0.223,0.025
		c0.041-0.063,0.08-0.129,0.146-0.177c0.19-0.142,0.502-0.155,0.741,0.027c0.248,0.165,0.397,0.528,0.307,0.84
		c-0.1,0.352-0.396,0.646-0.779,0.727c-0.373,0.088-0.801-0.087-1.087-0.398c-0.285-0.309-0.403-0.782-0.309-1.174
		c0.201-0.888,1.181-1.484,1.949-1.274c0.387,0.103,0.787,0.352,1.037,0.612c0.263,0.268,0.382,0.611,0.44,0.949
		c0.105,0.689,0.023,1.328-0.009,1.762c-0.012,0.17-0.029,0.302-0.029,0.411l-0.282,2.83c-0.163-0.02-0.392-0.037-0.487-0.05
		c-0.281-0.035-0.699-0.065-1.127-0.221c-0.209-0.081-0.412-0.202-0.549-0.404c-0.135-0.192-0.241-0.48-0.258-0.741
		c-0.034-0.518,0.473-1.065,1.064-1.081c0.263-0.01,0.55,0.127,0.711,0.348c0.162,0.223,0.218,0.519,0.113,0.748
		c-0.101,0.232-0.325,0.386-0.563,0.401c-0.211,0.02-0.423-0.123-0.497-0.304c-0.085-0.176-0.037-0.372,0.077-0.476
		c0.04-0.036,0.086-0.053,0.133-0.071c-0.024,0.041-0.04,0.088-0.045,0.139c-0.021,0.196,0.124,0.371,0.32,0.391
		c0.194,0.021,0.37-0.123,0.39-0.32c0.017-0.156-0.075-0.296-0.213-0.357c-0.041-0.036-0.083-0.073-0.146-0.1
		c-0.177-0.068-0.426-0.035-0.611,0.133c-0.192,0.162-0.286,0.486-0.159,0.771c0.109,0.279,0.41,0.514,0.776,0.495
		c0.334-0.011,0.682-0.236,0.827-0.577c0.158-0.347,0.079-0.764-0.14-1.064c-0.226-0.307-0.595-0.501-0.999-0.489
		c-0.746,0.02-1.428,0.684-1.396,1.436c0.025,0.357,0.133,0.654,0.314,0.931s0.464,0.445,0.712,0.543
		c0.509,0.19,0.93,0.216,1.22,0.257c0.099,0.011,0.328,0.039,0.493,0.052l-0.033,0.325c-0.164-0.02-0.395-0.036-0.492-0.049
		c-0.293-0.015-0.712-0.072-1.247,0.013c-0.263,0.047-0.573,0.157-0.805,0.391c-0.233,0.236-0.397,0.507-0.492,0.852
		c-0.181,0.731,0.356,1.516,1.085,1.683c0.394,0.093,0.793-0.026,1.076-0.282c0.272-0.251,0.433-0.646,0.347-1.017
		c-0.076-0.361-0.373-0.654-0.697-0.729c-0.355-0.091-0.696,0.08-0.858,0.332c-0.181,0.254-0.152,0.588,0.003,0.787
		c0.149,0.2,0.387,0.282,0.573,0.25c0.065-0.012,0.115-0.041,0.163-0.069c0.146-0.032,0.264-0.151,0.279-0.308
		c0.02-0.197-0.125-0.372-0.319-0.392c-0.196-0.02-0.372,0.124-0.392,0.32c-0.005,0.051,0.002,0.101,0.018,0.145
		c-0.043-0.026-0.084-0.051-0.116-0.096c-0.092-0.123-0.1-0.325,0.019-0.48c0.107-0.163,0.344-0.26,0.547-0.202
		c0.229,0.066,0.421,0.259,0.473,0.509c0.059,0.244-0.056,0.522-0.259,0.709c-0.201,0.185-0.51,0.262-0.765,0.2
		c-0.578-0.132-0.966-0.77-0.831-1.271c0.068-0.251,0.229-0.514,0.4-0.675c0.173-0.172,0.396-0.25,0.617-0.288
		c0.45-0.068,0.865-0.015,1.148,0.007c0.096,0.007,0.323,0.033,0.488,0.046l-0.625,6.262c-0.164-0.021-0.392-0.039-0.487-0.05
		c-0.281-0.036-0.699-0.065-1.127-0.221c-0.209-0.082-0.412-0.202-0.549-0.404c-0.136-0.192-0.241-0.479-0.258-0.742
		c-0.034-0.519,0.472-1.064,1.064-1.079c0.263-0.011,0.55,0.126,0.71,0.346c0.162,0.224,0.22,0.519,0.114,0.746
		c-0.1,0.235-0.325,0.387-0.563,0.404c-0.211,0.018-0.423-0.124-0.497-0.304c-0.085-0.175-0.037-0.373,0.077-0.476
		c0.04-0.038,0.086-0.055,0.134-0.072c-0.025,0.041-0.041,0.089-0.047,0.14c-0.019,0.196,0.124,0.371,0.32,0.391
		c0.194,0.02,0.372-0.124,0.391-0.32c0.017-0.157-0.075-0.297-0.213-0.357c-0.041-0.036-0.084-0.074-0.146-0.099
		c-0.176-0.07-0.425-0.036-0.611,0.132c-0.192,0.163-0.285,0.486-0.158,0.771c0.11,0.28,0.41,0.513,0.775,0.496
		c0.335-0.013,0.682-0.237,0.828-0.579c0.158-0.346,0.079-0.763-0.14-1.064c-0.226-0.307-0.596-0.5-0.998-0.489
		c-0.747,0.019-1.429,0.683-1.396,1.437c0.025,0.356,0.133,0.653,0.314,0.93c0.181,0.276,0.463,0.446,0.712,0.544
		c0.508,0.189,0.93,0.215,1.22,0.257c0.099,0.01,0.328,0.037,0.493,0.05l-0.033,0.326c-0.164-0.019-0.395-0.036-0.493-0.048
		c-0.292-0.016-0.711-0.074-1.245,0.012c-0.263,0.047-0.573,0.157-0.806,0.391c-0.233,0.236-0.397,0.508-0.492,0.853
		c-0.181,0.731,0.357,1.517,1.085,1.683c0.393,0.092,0.794-0.025,1.075-0.283c0.273-0.252,0.434-0.646,0.347-1.016
		c-0.075-0.362-0.371-0.653-0.697-0.729c-0.354-0.09-0.695,0.08-0.858,0.333c-0.18,0.253-0.152,0.586,0.004,0.787
		c0.149,0.199,0.387,0.281,0.573,0.25c0.066-0.012,0.115-0.042,0.163-0.069c0.146-0.032,0.264-0.151,0.278-0.309
		c0.021-0.195-0.125-0.369-0.319-0.39c-0.195-0.02-0.371,0.123-0.391,0.319c-0.004,0.051,0.001,0.099,0.017,0.146
		c-0.042-0.027-0.083-0.053-0.115-0.098c-0.092-0.122-0.101-0.326,0.018-0.48c0.108-0.162,0.345-0.261,0.548-0.201
		c0.229,0.066,0.421,0.259,0.472,0.508c0.059,0.243-0.055,0.522-0.258,0.709c-0.201,0.186-0.51,0.263-0.765,0.198
		c-0.578-0.13-0.966-0.768-0.831-1.268c0.068-0.253,0.229-0.515,0.399-0.675c0.174-0.172,0.396-0.249,0.618-0.288
		c0.449-0.069,0.865-0.017,1.147,0.006c0.097,0.008,0.324,0.034,0.488,0.047l-0.624,6.261c-0.164-0.02-0.392-0.038-0.487-0.051
		c-0.281-0.035-0.699-0.064-1.126-0.221c-0.21-0.08-0.413-0.201-0.549-0.404c-0.137-0.191-0.242-0.479-0.26-0.74
		c-0.034-0.518,0.473-1.065,1.065-1.08c0.262-0.011,0.55,0.126,0.71,0.348c0.162,0.222,0.219,0.518,0.113,0.744
		c-0.099,0.234-0.325,0.389-0.562,0.405c-0.211,0.017-0.424-0.124-0.497-0.305c-0.085-0.175-0.037-0.372,0.076-0.475
		c0.041-0.038,0.086-0.054,0.134-0.071c-0.025,0.041-0.041,0.087-0.045,0.138c-0.02,0.196,0.123,0.371,0.319,0.392
		c0.194,0.02,0.371-0.125,0.391-0.321c0.016-0.157-0.075-0.295-0.213-0.356c-0.041-0.036-0.084-0.074-0.146-0.1
		c-0.178-0.07-0.426-0.036-0.612,0.133c-0.192,0.161-0.286,0.486-0.158,0.77c0.109,0.28,0.41,0.514,0.776,0.496
		c0.333-0.012,0.681-0.236,0.826-0.578c0.158-0.348,0.079-0.763-0.139-1.063c-0.226-0.307-0.596-0.503-0.998-0.491
		c-0.748,0.02-1.429,0.683-1.397,1.436c0.025,0.356,0.134,0.654,0.314,0.932c0.182,0.276,0.464,0.446,0.713,0.543
		c0.508,0.189,0.929,0.216,1.22,0.257c0.098,0.011,0.328,0.038,0.492,0.051l-0.032,0.326c-0.163-0.02-0.396-0.036-0.492-0.049
		c-0.294-0.017-0.711-0.073-1.247,0.013c-0.263,0.047-0.573,0.157-0.806,0.391c-0.232,0.234-0.396,0.507-0.492,0.853
		c-0.18,0.73,0.357,1.516,1.086,1.682c0.393,0.093,0.794-0.025,1.075-0.282c0.273-0.252,0.434-0.646,0.347-1.017
		c-0.076-0.361-0.371-0.653-0.697-0.729c-0.354-0.091-0.696,0.079-0.857,0.332c-0.181,0.253-0.153,0.589,0.002,0.786
		c0.15,0.202,0.388,0.283,0.574,0.251c0.066-0.012,0.115-0.041,0.163-0.069c0.146-0.032,0.263-0.15,0.278-0.308
		c0.02-0.196-0.124-0.371-0.318-0.391c-0.196-0.02-0.372,0.124-0.391,0.319c-0.006,0.051,0,0.098,0.016,0.146
		c-0.042-0.028-0.084-0.051-0.115-0.097c-0.093-0.122-0.101-0.324,0.019-0.481c0.107-0.162,0.344-0.261,0.546-0.2
		c0.231,0.065,0.422,0.258,0.474,0.508c0.058,0.242-0.057,0.523-0.26,0.709c-0.201,0.185-0.508,0.261-0.765,0.199
		c-0.578-0.131-0.966-0.769-0.83-1.269c0.068-0.253,0.229-0.515,0.399-0.675c0.174-0.172,0.397-0.25,0.618-0.288
		c0.449-0.068,0.865-0.016,1.147,0.007c0.097,0.006,0.323,0.032,0.488,0.045l-0.624,6.262c-0.164-0.02-0.393-0.038-0.488-0.05
		c-0.281-0.037-0.699-0.065-1.126-0.222c-0.208-0.083-0.413-0.203-0.548-0.405c-0.137-0.19-0.243-0.478-0.26-0.74
		c-0.034-0.518,0.473-1.065,1.064-1.08c0.264-0.01,0.55,0.126,0.711,0.348c0.162,0.224,0.219,0.519,0.113,0.745
		c-0.1,0.234-0.325,0.386-0.562,0.404c-0.212,0.019-0.424-0.123-0.497-0.303c-0.086-0.176-0.037-0.375,0.077-0.477
		c0.04-0.039,0.086-0.055,0.133-0.071c-0.025,0.04-0.041,0.088-0.045,0.138c-0.021,0.197,0.124,0.372,0.319,0.392
		c0.194,0.02,0.371-0.124,0.391-0.32c0.016-0.157-0.075-0.296-0.214-0.356c-0.041-0.037-0.083-0.075-0.146-0.1
		c-0.176-0.07-0.425-0.036-0.611,0.132c-0.192,0.164-0.285,0.486-0.158,0.77c0.109,0.28,0.41,0.515,0.776,0.497
		c0.333-0.012,0.681-0.237,0.826-0.579c0.158-0.345,0.079-0.763-0.14-1.064c-0.226-0.306-0.594-0.5-0.998-0.489
		c-0.746,0.02-1.429,0.684-1.396,1.436c0.025,0.357,0.133,0.654,0.314,0.932c0.183,0.276,0.465,0.445,0.713,0.543
		c0.509,0.189,0.93,0.216,1.219,0.257c0.099,0.01,0.328,0.037,0.493,0.05l-0.032,0.327c-0.164-0.019-0.395-0.038-0.492-0.048
		c-0.293-0.019-0.712-0.074-1.247,0.012c-0.263,0.046-0.573,0.156-0.806,0.391c-0.232,0.236-0.397,0.506-0.492,0.852
		c-0.181,0.73,0.357,1.516,1.085,1.684c0.395,0.091,0.794-0.027,1.076-0.283c0.273-0.254,0.434-0.646,0.347-1.016
		c-0.076-0.365-0.372-0.654-0.696-0.73c-0.355-0.091-0.696,0.081-0.859,0.334c-0.18,0.252-0.152,0.586,0.003,0.785
		c0.15,0.201,0.388,0.283,0.574,0.249c0.066-0.012,0.114-0.04,0.163-0.067c0.146-0.034,0.263-0.151,0.279-0.308
		c0.019-0.196-0.125-0.372-0.319-0.392c-0.196-0.02-0.372,0.125-0.392,0.321c-0.005,0.05,0.001,0.098,0.018,0.144
		c-0.043-0.027-0.085-0.051-0.116-0.097c-0.092-0.122-0.101-0.325,0.019-0.482c0.106-0.159,0.344-0.258,0.546-0.198
		c0.23,0.064,0.421,0.258,0.474,0.507c0.058,0.243-0.057,0.523-0.26,0.708c-0.201,0.187-0.509,0.262-0.765,0.2
		c-0.578-0.131-0.966-0.769-0.831-1.269c0.068-0.252,0.229-0.514,0.4-0.675c0.173-0.172,0.397-0.249,0.618-0.288
		c0.449-0.068,0.864-0.016,1.147,0.007c0.096,0.007,0.323,0.034,0.487,0.046l-0.624,6.261c-0.164-0.021-0.392-0.038-0.487-0.052
		c-0.281-0.035-0.699-0.064-1.126-0.22c-0.209-0.079-0.413-0.202-0.549-0.403c-0.136-0.192-0.241-0.479-0.259-0.742
		c-0.033-0.518,0.472-1.064,1.064-1.08c0.264-0.01,0.55,0.127,0.71,0.348c0.162,0.223,0.22,0.519,0.115,0.746
		c-0.101,0.234-0.325,0.386-0.564,0.402c-0.211,0.019-0.423-0.122-0.496-0.302c-0.086-0.178-0.038-0.374,0.077-0.477
		c0.039-0.038,0.086-0.054,0.133-0.071c-0.025,0.042-0.04,0.088-0.046,0.139c-0.02,0.196,0.124,0.371,0.32,0.39
		c0.194,0.021,0.371-0.123,0.391-0.318c0.015-0.157-0.076-0.296-0.213-0.358c-0.042-0.035-0.084-0.074-0.146-0.099
		c-0.176-0.069-0.425-0.035-0.612,0.132c-0.191,0.163-0.284,0.485-0.157,0.77c0.109,0.279,0.409,0.515,0.775,0.496
		c0.334-0.01,0.681-0.235,0.827-0.577c0.158-0.347,0.079-0.763-0.14-1.064c-0.225-0.307-0.594-0.502-0.998-0.489
		c-0.746,0.02-1.429,0.683-1.396,1.436c0.024,0.356,0.132,0.653,0.314,0.932c0.181,0.275,0.463,0.445,0.712,0.542
		c0.508,0.188,0.929,0.217,1.22,0.258c0.099,0.009,0.327,0.038,0.493,0.05l-0.033,0.325c-0.164-0.02-0.395-0.037-0.493-0.047
		c-0.292-0.017-0.711-0.073-1.246,0.013c-0.263,0.046-0.573,0.155-0.806,0.39c-0.232,0.235-0.396,0.507-0.492,0.852
		c-0.18,0.731,0.357,1.517,1.086,1.684c0.393,0.091,0.793-0.025,1.074-0.282c0.273-0.254,0.434-0.647,0.347-1.017
		c-0.075-0.364-0.371-0.653-0.696-0.729c-0.354-0.092-0.695,0.08-0.858,0.333c-0.181,0.253-0.153,0.587,0.004,0.785
		c0.149,0.2,0.386,0.284,0.573,0.251c0.065-0.012,0.114-0.042,0.162-0.068c0.147-0.033,0.264-0.152,0.279-0.309
		c0.02-0.196-0.125-0.371-0.319-0.391c-0.196-0.019-0.371,0.124-0.391,0.32c-0.005,0.05,0,0.098,0.017,0.146
		c-0.042-0.028-0.084-0.052-0.116-0.098c-0.091-0.122-0.1-0.325,0.019-0.481c0.107-0.162,0.344-0.26,0.548-0.2
		c0.229,0.065,0.42,0.258,0.472,0.507c0.058,0.244-0.056,0.521-0.259,0.709c-0.201,0.187-0.509,0.261-0.766,0.201
		c-0.576-0.133-0.965-0.77-0.829-1.27c0.067-0.253,0.229-0.515,0.399-0.676c0.174-0.172,0.396-0.249,0.618-0.289
		c0.448-0.066,0.864-0.013,1.146,0.008c0.097,0.007,0.324,0.034,0.488,0.046l-0.624,6.261c-0.164-0.02-0.392-0.037-0.487-0.051
		c-0.281-0.035-0.699-0.064-1.126-0.221c-0.209-0.081-0.412-0.201-0.549-0.403c-0.136-0.191-0.241-0.479-0.26-0.74
		c-0.033-0.518,0.473-1.065,1.065-1.081c0.263-0.01,0.55,0.126,0.71,0.348c0.162,0.223,0.22,0.519,0.114,0.746
		c-0.1,0.234-0.325,0.386-0.563,0.403c-0.21,0.02-0.424-0.124-0.496-0.304c-0.086-0.178-0.038-0.374,0.076-0.477
		c0.04-0.037,0.087-0.054,0.133-0.071c-0.025,0.042-0.04,0.089-0.045,0.14c-0.02,0.195,0.124,0.369,0.32,0.39
		c0.194,0.02,0.37-0.124,0.39-0.319c0.016-0.157-0.075-0.295-0.212-0.357c-0.042-0.036-0.084-0.075-0.146-0.099
		c-0.177-0.07-0.426-0.036-0.612,0.132c-0.191,0.162-0.284,0.486-0.158,0.771c0.109,0.279,0.41,0.513,0.776,0.494
		c0.334-0.01,0.681-0.234,0.826-0.577c0.159-0.346,0.079-0.762-0.138-1.064c-0.226-0.308-0.596-0.502-0.999-0.489
		c-0.747,0.02-1.429,0.683-1.396,1.437c0.025,0.357,0.134,0.653,0.314,0.932c0.182,0.275,0.464,0.444,0.713,0.541
		c0.508,0.19,0.929,0.217,1.22,0.258c0.098,0.011,0.328,0.037,0.492,0.051l-0.033,0.326c-0.163-0.021-0.395-0.038-0.492-0.049
		c-0.293-0.017-0.711-0.073-1.247,0.011c-0.263,0.049-0.572,0.157-0.806,0.393c-0.231,0.236-0.396,0.507-0.491,0.851
		c-0.18,0.732,0.356,1.517,1.085,1.684c0.394,0.091,0.794-0.025,1.075-0.284c0.273-0.251,0.434-0.644,0.347-1.015
		c-0.075-0.363-0.371-0.652-0.696-0.729c-0.354-0.091-0.696,0.08-0.858,0.332c-0.181,0.254-0.153,0.588,0.003,0.785
		c0.149,0.201,0.387,0.285,0.574,0.25c0.065-0.011,0.115-0.041,0.162-0.067c0.147-0.033,0.264-0.151,0.279-0.31
		c0.02-0.193-0.125-0.369-0.319-0.39c-0.196-0.019-0.371,0.124-0.391,0.319c-0.006,0.051,0.001,0.1,0.017,0.146
		c-0.043-0.026-0.084-0.052-0.116-0.096c-0.092-0.124-0.1-0.326,0.019-0.482c0.108-0.163,0.344-0.259,0.548-0.199
		c0.229,0.065,0.421,0.258,0.472,0.507c0.059,0.244-0.057,0.522-0.259,0.708c-0.201,0.187-0.509,0.263-0.765,0.2
		c-0.578-0.132-0.967-0.768-0.83-1.269c0.067-0.253,0.228-0.514,0.399-0.674c0.174-0.173,0.396-0.25,0.617-0.288
		c0.45-0.069,0.865-0.017,1.147,0.006c0.097,0.006,0.323,0.033,0.488,0.045l-0.333,3.347c-0.022,0.11-0.031,0.242-0.053,0.411
		c-0.054,0.432-0.1,1.073-0.34,1.727c-0.123,0.321-0.309,0.634-0.618,0.845c-0.297,0.208-0.738,0.37-1.139,0.396
		c-0.794,0.054-1.636-0.725-1.657-1.633c-0.018-0.404,0.192-0.846,0.533-1.09c0.342-0.25,0.796-0.336,1.144-0.177
		c0.359,0.153,0.593,0.501,0.62,0.866c0.028,0.323-0.189,0.65-0.466,0.764c-0.271,0.131-0.573,0.057-0.731-0.118
		c-0.058-0.062-0.081-0.134-0.109-0.205c0.064,0.036,0.135,0.061,0.215,0.068c0.3,0.03,0.567-0.188,0.598-0.491
		c0.03-0.3-0.189-0.568-0.49-0.6c-0.241-0.023-0.456,0.116-0.549,0.326c-0.055,0.064-0.114,0.127-0.152,0.227
		c-0.106,0.271-0.055,0.651,0.203,0.939c0.249,0.295,0.747,0.436,1.181,0.244c0.43-0.17,0.79-0.632,0.763-1.195
		c-0.017-0.51-0.363-1.044-0.887-1.269c-0.532-0.241-1.171-0.119-1.634,0.217c-0.472,0.345-0.771,0.91-0.752,1.528
		c0.03,1.148,1.048,2.195,2.204,2.146c0.546-0.038,1.004-0.203,1.429-0.483c0.423-0.278,0.683-0.71,0.833-1.092
		c0.291-0.781,0.331-1.429,0.395-1.873c0.008-0.077,0.018-0.141,0.024-0.206l4.007,0.399c-0.024,0.156-0.046,0.456-0.062,0.57
		c-0.033,0.281-0.063,0.698-0.22,1.126c-0.081,0.208-0.201,0.413-0.404,0.548c-0.19,0.137-0.479,0.243-0.74,0.259
		c-0.519,0.034-1.064-0.472-1.081-1.063c-0.01-0.264,0.126-0.55,0.349-0.711c0.222-0.162,0.519-0.219,0.746-0.114
		c0.233,0.101,0.385,0.326,0.402,0.563c0.02,0.211-0.124,0.424-0.305,0.498c-0.175,0.086-0.372,0.037-0.475-0.078
		c-0.038-0.039-0.053-0.086-0.071-0.132c0.042,0.022,0.088,0.039,0.138,0.044c0.196,0.021,0.372-0.123,0.392-0.32
		c0.02-0.196-0.123-0.37-0.32-0.39c-0.157-0.016-0.296,0.075-0.356,0.211c-0.037,0.044-0.074,0.085-0.099,0.149
		c-0.07,0.175-0.037,0.424,0.131,0.611c0.164,0.191,0.487,0.284,0.771,0.158c0.279-0.11,0.514-0.41,0.495-0.779
		c-0.012-0.331-0.235-0.679-0.577-0.824c-0.345-0.158-0.764-0.079-1.065,0.141c-0.307,0.225-0.502,0.593-0.489,0.996
		c0.021,0.747,0.684,1.43,1.438,1.396c0.355-0.025,0.654-0.133,0.932-0.313c0.275-0.185,0.443-0.465,0.541-0.713
		c0.19-0.509,0.218-0.93,0.257-1.22c0.012-0.118,0.05-0.418,0.057-0.576l0.332,0.033c-0.025,0.157-0.048,0.458-0.061,0.576
		c-0.015,0.292-0.074,0.711,0.013,1.246c0.046,0.263,0.157,0.571,0.391,0.806c0.235,0.231,0.508,0.396,0.852,0.491
		c0.731,0.182,1.517-0.356,1.684-1.086c0.092-0.392-0.027-0.791-0.283-1.073c-0.253-0.274-0.646-0.433-1.016-0.347
		c-0.364,0.074-0.655,0.372-0.729,0.693c-0.09,0.357,0.082,0.698,0.332,0.861c0.252,0.18,0.589,0.154,0.787-0.004
		c0.2-0.149,0.282-0.387,0.249-0.571c-0.012-0.069-0.041-0.116-0.067-0.167c-0.033-0.145-0.151-0.262-0.309-0.277
		c-0.196-0.02-0.372,0.123-0.392,0.32s0.124,0.371,0.32,0.391c0.051,0.005,0.101-0.002,0.145-0.017
		c-0.024,0.042-0.051,0.084-0.096,0.115c-0.123,0.092-0.326,0.101-0.481-0.018c-0.163-0.107-0.258-0.344-0.2-0.548
		c0.065-0.229,0.257-0.421,0.508-0.473c0.243-0.059,0.522,0.057,0.708,0.259s0.262,0.51,0.199,0.767
		c-0.131,0.576-0.768,0.965-1.267,0.828c-0.254-0.066-0.515-0.228-0.676-0.398c-0.171-0.174-0.249-0.397-0.289-0.618
		c-0.068-0.45-0.014-0.864,0.007-1.147c0.009-0.114,0.043-0.412,0.051-0.57l6.268,0.625c-0.023,0.156-0.048,0.456-0.062,0.568
		c-0.034,0.281-0.063,0.7-0.22,1.127c-0.081,0.209-0.202,0.413-0.406,0.549c-0.19,0.135-0.478,0.242-0.74,0.258
		c-0.517,0.035-1.064-0.471-1.078-1.064c-0.012-0.263,0.125-0.55,0.346-0.709c0.223-0.164,0.519-0.221,0.746-0.115
		c0.235,0.101,0.387,0.326,0.404,0.564c0.017,0.21-0.124,0.422-0.303,0.497c-0.177,0.085-0.375,0.036-0.477-0.077
		c-0.038-0.041-0.056-0.087-0.072-0.132c0.041,0.022,0.088,0.038,0.139,0.044c0.196,0.02,0.372-0.123,0.392-0.32
		c0.02-0.196-0.124-0.37-0.32-0.391c-0.156-0.015-0.297,0.076-0.357,0.211c-0.036,0.044-0.074,0.085-0.1,0.15
		c-0.069,0.174-0.035,0.424,0.132,0.609c0.163,0.193,0.487,0.285,0.771,0.16c0.28-0.111,0.514-0.412,0.496-0.779
		c-0.01-0.331-0.237-0.679-0.577-0.826c-0.348-0.156-0.763-0.078-1.065,0.142c-0.307,0.225-0.502,0.593-0.489,0.996
		c0.02,0.747,0.683,1.43,1.435,1.397c0.356-0.026,0.656-0.134,0.933-0.314c0.275-0.184,0.444-0.465,0.542-0.713
		c0.19-0.508,0.216-0.93,0.259-1.22c0.011-0.117,0.048-0.417,0.054-0.575l0.331,0.033c-0.023,0.156-0.045,0.457-0.057,0.575
		c-0.017,0.292-0.074,0.711,0.011,1.247c0.046,0.262,0.157,0.57,0.393,0.805c0.235,0.232,0.505,0.396,0.851,0.492
		c0.731,0.181,1.515-0.357,1.683-1.087c0.092-0.392-0.026-0.791-0.283-1.071c-0.252-0.277-0.646-0.436-1.016-0.35
		c-0.363,0.075-0.652,0.373-0.729,0.695c-0.091,0.356,0.08,0.697,0.334,0.861c0.252,0.18,0.585,0.152,0.785-0.004
		c0.201-0.15,0.284-0.387,0.251-0.572c-0.012-0.068-0.042-0.116-0.069-0.166c-0.033-0.146-0.152-0.262-0.309-0.277
		c-0.196-0.02-0.371,0.123-0.391,0.319c-0.021,0.197,0.124,0.371,0.32,0.391c0.05,0.005,0.098-0.003,0.145-0.016
		c-0.027,0.042-0.052,0.083-0.097,0.115c-0.122,0.091-0.326,0.101-0.481-0.018c-0.161-0.109-0.26-0.345-0.199-0.549
		c0.063-0.229,0.258-0.421,0.506-0.472c0.243-0.059,0.523,0.055,0.71,0.258c0.185,0.201,0.263,0.51,0.2,0.766
		c-0.133,0.577-0.769,0.965-1.271,0.829c-0.252-0.065-0.514-0.228-0.674-0.398c-0.173-0.174-0.251-0.397-0.289-0.618
		c-0.067-0.449-0.015-0.865,0.007-1.147c0.007-0.114,0.045-0.412,0.051-0.57l6.269,0.624c-0.025,0.156-0.047,0.457-0.063,0.57
		c-0.033,0.281-0.064,0.698-0.221,1.127c-0.079,0.208-0.199,0.412-0.402,0.548c-0.192,0.136-0.48,0.243-0.74,0.258
		c-0.519,0.035-1.066-0.472-1.082-1.063c-0.011-0.263,0.127-0.551,0.349-0.711c0.222-0.162,0.519-0.218,0.745-0.113
		c0.233,0.1,0.386,0.326,0.402,0.562c0.02,0.211-0.123,0.424-0.303,0.498c-0.176,0.086-0.373,0.036-0.476-0.078
		c-0.038-0.04-0.053-0.085-0.072-0.132c0.044,0.023,0.089,0.04,0.14,0.045c0.196,0.019,0.371-0.123,0.391-0.32
		c0.021-0.196-0.124-0.37-0.32-0.39c-0.156-0.017-0.295,0.075-0.355,0.211c-0.038,0.045-0.076,0.084-0.102,0.148
		c-0.068,0.176-0.035,0.425,0.133,0.611c0.164,0.192,0.486,0.285,0.769,0.159c0.281-0.11,0.517-0.412,0.497-0.779
		c-0.011-0.331-0.235-0.68-0.577-0.825c-0.346-0.157-0.764-0.079-1.064,0.141c-0.308,0.225-0.502,0.594-0.489,0.996
		c0.02,0.748,0.683,1.43,1.436,1.397c0.357-0.025,0.654-0.134,0.93-0.314c0.276-0.184,0.447-0.464,0.544-0.712
		c0.19-0.509,0.215-0.93,0.257-1.221c0.012-0.117,0.049-0.417,0.058-0.575l0.332,0.033c-0.026,0.157-0.048,0.458-0.062,0.574
		c-0.015,0.294-0.073,0.711,0.013,1.248c0.047,0.263,0.156,0.57,0.39,0.805c0.235,0.232,0.507,0.396,0.853,0.492
		c0.731,0.181,1.517-0.357,1.683-1.086c0.092-0.393-0.025-0.793-0.282-1.073c-0.252-0.275-0.646-0.434-1.017-0.349
		c-0.363,0.075-0.653,0.372-0.729,0.695c-0.09,0.356,0.079,0.698,0.332,0.861c0.253,0.179,0.589,0.152,0.786-0.004
		c0.201-0.149,0.283-0.387,0.251-0.571c-0.012-0.07-0.042-0.117-0.069-0.167c-0.032-0.146-0.15-0.262-0.308-0.277
		c-0.196-0.02-0.372,0.123-0.391,0.319c-0.02,0.196,0.123,0.371,0.319,0.391c0.051,0.006,0.099-0.002,0.146-0.016
		c-0.028,0.041-0.051,0.083-0.097,0.115c-0.122,0.092-0.326,0.101-0.481-0.018c-0.162-0.109-0.26-0.346-0.2-0.549
		c0.065-0.229,0.258-0.42,0.508-0.472c0.244-0.059,0.522,0.056,0.709,0.259c0.185,0.201,0.262,0.51,0.2,0.765
		c-0.132,0.578-0.77,0.966-1.27,0.83c-0.253-0.067-0.515-0.229-0.677-0.399c-0.171-0.174-0.248-0.396-0.287-0.617
		c-0.068-0.45-0.016-0.866,0.006-1.148c0.008-0.114,0.044-0.413,0.053-0.57l6.268,0.625c-0.025,0.156-0.049,0.456-0.062,0.569
		c-0.035,0.281-0.064,0.699-0.221,1.126c-0.081,0.209-0.201,0.413-0.405,0.549c-0.192,0.136-0.479,0.243-0.74,0.258
		c-0.518,0.035-1.065-0.472-1.08-1.063c-0.01-0.264,0.126-0.55,0.348-0.71c0.222-0.163,0.519-0.22,0.746-0.114
		c0.233,0.1,0.386,0.326,0.403,0.563c0.018,0.211-0.124,0.423-0.305,0.498c-0.176,0.085-0.373,0.035-0.475-0.078
		c-0.038-0.041-0.055-0.086-0.072-0.132c0.041,0.022,0.089,0.039,0.139,0.044c0.197,0.02,0.371-0.123,0.392-0.32
		c0.02-0.196-0.124-0.371-0.32-0.39c-0.157-0.017-0.296,0.075-0.356,0.211c-0.037,0.044-0.075,0.085-0.1,0.15
		c-0.069,0.174-0.037,0.422,0.132,0.608c0.162,0.193,0.487,0.286,0.771,0.16c0.279-0.111,0.512-0.412,0.496-0.779
		c-0.012-0.331-0.238-0.68-0.578-0.825c-0.348-0.157-0.764-0.079-1.065,0.142c-0.308,0.225-0.501,0.593-0.489,0.994
		c0.019,0.749,0.682,1.432,1.436,1.398c0.355-0.025,0.656-0.133,0.934-0.314c0.273-0.184,0.443-0.464,0.541-0.712
		c0.189-0.509,0.215-0.931,0.256-1.22c0.012-0.118,0.051-0.418,0.057-0.576l0.333,0.033c-0.025,0.157-0.048,0.457-0.061,0.576
		c-0.017,0.292-0.074,0.711,0.013,1.245c0.046,0.263,0.157,0.572,0.39,0.806c0.235,0.232,0.507,0.397,0.853,0.492
		c0.73,0.18,1.516-0.356,1.682-1.086c0.093-0.393-0.025-0.792-0.282-1.072c-0.252-0.276-0.646-0.436-1.017-0.35
		c-0.361,0.076-0.652,0.373-0.729,0.695c-0.091,0.357,0.08,0.698,0.332,0.861c0.254,0.18,0.588,0.152,0.787-0.004
		c0.201-0.149,0.283-0.387,0.25-0.571c-0.012-0.069-0.041-0.116-0.068-0.168c-0.033-0.144-0.151-0.261-0.308-0.276
		c-0.196-0.02-0.371,0.122-0.392,0.318c-0.02,0.199,0.123,0.373,0.32,0.393c0.05,0.004,0.099-0.003,0.145-0.016
		c-0.027,0.04-0.052,0.082-0.097,0.113c-0.122,0.093-0.326,0.102-0.48-0.018c-0.162-0.107-0.261-0.345-0.201-0.547
		c0.064-0.229,0.259-0.421,0.508-0.473c0.243-0.059,0.523,0.056,0.709,0.259c0.185,0.201,0.263,0.51,0.198,0.765
		c-0.13,0.578-0.768,0.966-1.268,0.83c-0.253-0.066-0.515-0.229-0.676-0.398c-0.171-0.174-0.249-0.397-0.287-0.618
		c-0.068-0.45-0.016-0.865,0.007-1.147c0.006-0.114,0.043-0.413,0.051-0.571l4.236,0.423c-0.005,0.065-0.008,0.129-0.017,0.207
		c-0.024,0.447-0.113,1.09,0.018,1.913c0.071,0.403,0.242,0.878,0.601,1.235c0.361,0.357,0.777,0.609,1.306,0.756
		c1.123,0.276,2.328-0.549,2.584-1.669c0.141-0.602-0.041-1.216-0.435-1.646C80.374,80.407,79.771,80.16,79.203,80.293z
		 M76.691,79.339l-31.23-3.114l4.295-43.09l31.231,3.114L76.691,79.339z"/>
	<circle fill="#FFFFFF" cx="84.275" cy="39.477" r="0.461"/>
	<circle fill="#FFFFFF" cx="83.542" cy="46.835" r="0.462"/>
	<circle fill="#FFFFFF" cx="82.809" cy="54.194" r="0.462"/>
	<circle fill="#FFFFFF" cx="82.075" cy="61.553" r="0.462"/>
	<circle fill="#FFFFFF" cx="81.341" cy="68.913" r="0.462"/>
	<circle fill="#FFFFFF" cx="54.578" cy="29.888" r="0.461"/>
	<circle fill="#FFFFFF" cx="61.936" cy="30.621" r="0.461"/>
	<circle fill="#FFFFFF" cx="69.296" cy="31.355" r="0.461"/>
	<circle fill="#FFFFFF" cx="76.654" cy="32.089" r="0.461"/>
	<circle fill="#FFFFFF" cx="71.625" cy="82.543" r="0.462"/>
	<circle fill="#FFFFFF" cx="64.267" cy="81.81" r="0.462"/>
	<circle fill="#FFFFFF" cx="56.907" cy="81.076" r="0.462"/>
	<circle fill="#FFFFFF" cx="49.549" cy="80.342" r="0.462"/>
	<circle fill="#FFFFFF" cx="80.608" cy="76.271" r="0.462"/>
	<circle fill="#FFFFFF" cx="45.878" cy="35.649" r="0.461"/>
	<circle fill="#FFFFFF" cx="45.145" cy="43.008" r="0.461"/>
	<circle fill="#FFFFFF" cx="44.412" cy="50.367" r="0.462"/>
	<circle fill="#FFFFFF" cx="43.678" cy="57.726" r="0.462"/>
	<circle fill="#FFFFFF" cx="42.944" cy="65.084" r="0.462"/>
	<circle fill="#FFFFFF" cx="42.211" cy="72.443" r="0.462"/>
</g>
<rect x="48.588" y="35.679" transform="matrix(0.9951 0.0992 -0.0992 0.9951 5.8887 -5.9938)" fill="#7B7B7C" stroke="#FFFFFF" stroke-miterlimit="10" width="29.258" height="41.08"/>
<g>
	<g>
		<path fill="#604C3F" d="M58.423,52.933c-0.354-0.093-0.661-0.228-0.891-0.391l-0.351-0.248c0,0,0.23-0.457,0.249-0.492
			c-0.488-0.177-0.968-0.353-1.426-0.526l-0.419-0.159c-0.067,0.072-0.45,0.478-0.45,0.478l-0.33-0.159
			c-0.331-0.161-0.603-0.369-0.804-0.617l-0.229-0.281l0.197-0.306c0.432-0.668,0.922-1.304,1.462-1.897
			c-0.008-0.003-0.266-0.079-0.266-0.079l-0.085-0.238c-0.121-0.339-0.141-0.837-0.064-1.613c0.037-0.354,0.11-0.978,0.225-1.88
			c-0.229,0.214-0.475,0.43-0.733,0.647l-0.21,0.177l-0.263-0.083c-0.404-0.129-0.72-0.366-0.913-0.688l-0.16-0.267l0.169-0.262
			c0.587-0.907,1.427-1.841,2.496-2.775l0.219-0.192l0.275,0.097c0.389,0.136,0.709,0.365,0.952,0.683l0.227,0.296l-0.078,0.107
			c0.817,0.028,1.66,0.086,2.515,0.172l0.434,0.043l0.017,0.435c0.004,0.123,0.005,0.272-0.011,0.424l-0.08,0.826
			c0.726,0.108,1.413,0.225,2.074,0.351l0.346,0.065l0.055,0.348c0.034,0.217,0.062,0.674-0.083,2.133
			c-0.067,0.673-0.143,1.196-0.222,1.556l-0.083,0.375l-0.384,0.018c-0.126,0.005-0.265,0.008-0.415,0.008
			c-0.422,0-0.944-0.021-1.576-0.064c0.213,0.059,1.196,0.348,1.196,0.348l-0.253,0.529c-0.156,0.326-0.322,0.647-0.504,0.973
			c0.374,0.13,0.746,0.268,1.112,0.405l0.42,0.157l-0.111,0.435c-0.075,0.294-0.207,0.586-0.392,0.866l-0.206,0.313l-0.357-0.109
			c-0.496-0.151-0.983-0.302-1.455-0.452c-0.149,0.191-0.277,0.329-0.396,0.424l-0.196,0.157L58.423,52.933z M60.543,47.183
			c0.012-0.094,0.023-0.198,0.034-0.314c0,0,0.061-0.683,0.067-0.766c-0.344-0.05-0.659-0.096-0.946-0.138l-0.016,0.155
			c-0.028,0.281-0.084,0.543-0.169,0.801l-0.05,0.149C59.808,47.107,60.166,47.145,60.543,47.183z M57.271,45.2
			c-0.035-0.141-0.041-0.311-0.019-0.525c0.015-0.146,0.033-0.302,0.08-0.456l0.01-0.032c-0.145-0.006-0.289-0.012-0.433-0.019
			l0.189,0.074l-0.039,0.378c-0.013,0.125-0.03,0.304-0.047,0.539C57.1,45.172,57.186,45.186,57.271,45.2z"/>
		<path fill="#FFFFFF" d="M55.956,41.647c0.305,0.106,0.541,0.281,0.72,0.515c-0.146,0.201-0.291,0.389-0.437,0.578
			c1.101,0.008,2.246,0.07,3.447,0.19c0.004,0.103,0.005,0.228-0.008,0.354l-0.039,0.4c-0.396,0.013-0.787,0.02-1.176,0.02
			c-1.01,0-1.995-0.045-2.964-0.142c-0.396,0.417-0.843,0.828-1.313,1.224c-0.295-0.094-0.507-0.254-0.636-0.469
			C54.12,43.438,54.931,42.544,55.956,41.647 M57.812,44.363c1.45,0.17,2.873,0.375,4.265,0.64c0.047,0.298,0.018,0.964-0.086,2.005
			c-0.068,0.676-0.142,1.175-0.213,1.498c-0.119,0.005-0.251,0.008-0.394,0.008c-0.803,0-1.984-0.081-3.557-0.238
			c-0.302-0.029-0.578-0.057-0.837-0.107c0.068,0.057,0.15,0.128,0.22,0.186c-0.102,0.143-0.204,0.283-0.292,0.4
			c1.227,0.262,2.35,0.552,3.382,0.856c-0.255,0.532-0.519,1.012-0.791,1.467c0.563,0.183,1.126,0.389,1.675,0.595
			c-0.063,0.248-0.177,0.49-0.325,0.716c-0.614-0.188-1.216-0.374-1.792-0.56c-0.206,0.297-0.379,0.509-0.518,0.62
			c-0.319-0.083-0.562-0.196-0.728-0.313c0.109-0.217,0.23-0.407,0.351-0.598c-0.685-0.245-1.356-0.489-1.989-0.729
			c0.099-0.242,0.226-0.483,0.36-0.71c0.688,0.22,1.388,0.44,2.085,0.676c0.123-0.216,0.257-0.417,0.404-0.63
			c-1.043-0.206-1.945-0.423-2.721-0.639c-0.419,0.515-0.848,1.016-1.287,1.479c-0.266-0.129-0.478-0.289-0.635-0.482
			c0.599-0.927,1.273-1.733,2.002-2.444c-0.297-0.056-0.58-0.134-0.84-0.211c-0.099-0.275-0.102-0.745-0.037-1.396
			c0.037-0.363,0.114-1.014,0.234-1.963c0.079-0.02,0.169-0.03,0.27-0.03c0.048,0,0.098,0.003,0.15,0.008
			c0.125,0.012,0.26,0.051,0.395,0.104c-0.021,0.2-0.054,0.538-0.076,1.017c0.897,0.128,1.806,0.293,2.698,0.483
			c-0.025,0.251-0.073,0.474-0.146,0.694c-0.876-0.088-1.75-0.212-2.605-0.386c-0.026,0.263-0.04,0.54-0.058,0.829
			c1.523,0.203,3.052,0.368,4.58,0.52c0.043-0.174,0.082-0.435,0.119-0.81c0.036-0.364,0.064-0.778,0.111-1.242
			c-1.821-0.259-2.956-0.435-3.402-0.528c-0.044-0.069-0.056-0.209-0.034-0.422C57.762,44.611,57.774,44.486,57.812,44.363
			 M55.736,40.512l-0.438,0.383c-1.104,0.966-1.975,1.935-2.587,2.881l-0.338,0.523l0.32,0.534c0.257,0.428,0.668,0.741,1.19,0.907
			l0.524,0.167l0.178-0.149c-0.029,0.246-0.051,0.442-0.066,0.592c-0.086,0.869-0.059,1.417,0.091,1.834l0.083,0.232
			c-0.415,0.491-0.797,1.007-1.144,1.543l-0.395,0.61l0.459,0.563c0.248,0.305,0.575,0.559,0.974,0.751l0.659,0.32l0.475-0.502
			l0.106,0.04c0.293,0.111,0.595,0.224,0.901,0.336l-0.188,0.374l0.701,0.498c0.283,0.2,0.638,0.357,1.055,0.466l0.486,0.127
			l0.392-0.314c0.082-0.066,0.164-0.144,0.25-0.237c0.374,0.117,0.755,0.235,1.142,0.353l0.716,0.219l0.411-0.625
			c0.216-0.327,0.37-0.67,0.459-1.018l0.223-0.869l-0.84-0.315c-0.181-0.067-0.373-0.14-0.572-0.212
			c0.082-0.16,0.162-0.32,0.239-0.481l0.253-0.528c0.132-0.001,0.253-0.004,0.365-0.009l0.769-0.033l0.165-0.751
			c0.083-0.378,0.161-0.921,0.231-1.612c0.148-1.491,0.123-1.979,0.078-2.261l-0.109-0.695l-0.691-0.132
			c-0.522-0.1-1.062-0.193-1.623-0.281l0.034-0.356c0.015-0.148,0.019-0.31,0.012-0.49l-0.033-0.87l-0.866-0.087
			c-0.727-0.072-1.443-0.125-2.145-0.158l-0.172-0.223c-0.303-0.396-0.701-0.683-1.184-0.852L55.736,40.512L55.736,40.512z"/>
	</g>
	<g>
		<path fill="#604C3F" d="M72.359,53.206c-0.647,0-1.805-0.083-3.438-0.246c-0.945-0.095-1.66-0.219-2.187-0.38l-0.328-0.101
			l-0.024-0.343c-0.062-0.881-0.03-1.92,0.095-3.176l0.049-0.497l1.807,0.18l-0.007,0.459c-0.011,0.787-0.032,1.393-0.067,1.892
			c0.45,0.076,1.016,0.148,1.712,0.217c0.696,0.07,1.257,0.132,1.688,0.183c0.026-0.34,0.048-0.697,0.064-1.069
			c-0.91-0.15-1.808-0.318-2.73-0.512l-0.439-0.092l0.044-0.446c0.029-0.296,0.058-0.562,0.11-0.814l0.095-0.458l0.031,0.004
			l0.038-0.155c0.086-0.356,0.184-0.706,0.293-1.059c-1.078-0.21-2.012-0.419-2.903-0.647l-0.417-0.107l0.044-0.428
			c0.032-0.321,0.095-0.602,0.191-0.856l0.139-0.367l0.39,0.048c1.021,0.124,2.107,0.283,3.235,0.474
			c0.19-0.479,0.396-0.95,0.612-1.403l0.166-0.346l0.376,0.07c0.324,0.06,0.604,0.116,0.845,0.194l0.457,0.148l-0.13,0.462
			c-0.112,0.399-0.23,0.81-0.36,1.223c0.971,0.186,2.009,0.406,3.156,0.673l0.427,0.1l-0.042,0.437
			c-0.025,0.258-0.075,0.521-0.148,0.781l-0.113,0.404l-0.418-0.042c-1.287-0.128-2.45-0.279-3.541-0.462
			c-0.146,0.372-0.3,0.75-0.466,1.133c0.814,0.136,1.664,0.293,2.54,0.473l0.331,0.068l0.061,0.333
			c0.079,0.436,0.069,1.148-0.028,2.121c-0.054,0.538-0.128,1.021-0.196,1.453L73.341,52.9l-0.13,0.118
			C73.055,53.16,72.848,53.206,72.359,53.206z"/>
		<path fill="#FFFFFF" d="M70.905,43.72c0.3,0.056,0.559,0.106,0.781,0.179c-0.159,0.567-0.332,1.157-0.529,1.745
			c1.229,0.223,2.457,0.485,3.693,0.772c-0.024,0.251-0.073,0.486-0.132,0.695c-1.315-0.131-2.616-0.298-3.909-0.527
			c-0.204,0.535-0.424,1.083-0.669,1.642c-0.312-0.044-0.569-0.134-0.785-0.257c0.129-0.529,0.282-1.047,0.46-1.561
			c-1.156-0.217-2.298-0.457-3.432-0.748c0.025-0.25,0.074-0.498,0.162-0.73c1.199,0.146,2.409,0.33,3.615,0.539
			C70.386,44.871,70.634,44.287,70.905,43.72 M69.195,48.562c1.272,0.177,2.579,0.408,3.906,0.681
			c0.065,0.36,0.063,1.018-0.033,1.982c-0.053,0.527-0.126,1.001-0.193,1.424c-0.042,0.038-0.214,0.057-0.516,0.057
			c-0.605,0-1.733-0.077-3.389-0.242c-0.902-0.091-1.599-0.211-2.09-0.361c-0.062-0.893-0.024-1.913,0.093-3.091l0.852,0.085
			c-0.013,0.896-0.039,1.665-0.104,2.306c0.546,0.117,1.283,0.217,2.198,0.308c1.014,0.102,1.739,0.187,2.189,0.243
			c0.062-0.627,0.105-1.317,0.129-2.051c-1.06-0.168-2.103-0.36-3.145-0.578C69.121,49.047,69.146,48.797,69.195,48.562
			 M70.334,42.597l-0.331,0.691c-0.165,0.345-0.323,0.699-0.474,1.061c-0.994-0.163-1.954-0.301-2.862-0.411l-0.779-0.096
			l-0.277,0.734c-0.111,0.296-0.185,0.617-0.222,0.982l-0.087,0.856l0.833,0.214c0.75,0.192,1.528,0.37,2.394,0.547
			c-0.024,0.091-0.049,0.182-0.073,0.273l-0.049-0.007l-0.144,0.692l-0.338-0.034l-0.852-0.085l-0.996-0.1l-0.099,0.996
			c-0.128,1.283-0.159,2.35-0.095,3.26l0.048,0.685l0.656,0.201c0.558,0.171,1.305,0.302,2.282,0.4
			c1.651,0.164,2.825,0.247,3.489,0.247c0.459,0,0.864-0.023,1.188-0.315l0.261-0.236l0.055-0.348
			c0.072-0.449,0.146-0.934,0.201-1.481c0.104-1.033,0.11-1.772,0.021-2.261l-0.12-0.665l-0.662-0.136
			c-0.661-0.136-1.308-0.259-1.935-0.37c0.025-0.062,0.051-0.125,0.076-0.188c0.985,0.156,2.032,0.288,3.176,0.402l0.835,0.083
			l0.227-0.809c0.081-0.289,0.137-0.581,0.164-0.868l0.085-0.872l-0.854-0.199c-0.941-0.218-1.811-0.406-2.63-0.57
			c0.076-0.256,0.144-0.493,0.202-0.703l0.26-0.924l-0.914-0.297c-0.281-0.092-0.577-0.149-0.907-0.211L70.334,42.597L70.334,42.597
			z M68.783,50.569c0.005-0.092,0.009-0.188,0.013-0.286l0.094,0.019c0.78,0.163,1.543,0.31,2.311,0.441
			c-0.002,0.032-0.004,0.063-0.006,0.095c-0.337-0.037-0.729-0.079-1.175-0.124C69.547,50.667,69.136,50.619,68.783,50.569
			L68.783,50.569z"/>
	</g>
	<g>
		<path fill="#604C3F" d="M58.205,67.2c-2.275-0.226-4.294-0.509-5.999-0.84l-0.431-0.084l0.027-0.438
			c0.116-1.854,0.284-3.872,0.514-6.168l0.041-0.419l0.421-0.03c0.106-0.007,0.213-0.014,0.319-0.014
			c0.074,0,0.148,0.003,0.223,0.011c0.183,0.018,0.339,0.047,0.467,0.075l0.427,0.094l-0.036,0.436
			c-0.051,0.613-0.097,1.172-0.135,1.706l1.356,0.099c0.071-0.67,0.137-1.205,0.197-1.604l0.064-0.429l0.434,0.003
			c0.141,0.001,0.307,0.004,0.487,0.022c0.185,0.019,0.379,0.074,0.56,0.16l0.316,0.151l-0.035,0.35
			c-0.047,0.47-0.104,0.966-0.171,1.496c0.421,0.035,0.867,0.07,1.346,0.106c0.048-0.517,0.108-1.21,0.181-2.085
			c-1.353-0.159-3.251-0.429-5.904-0.837l-0.383-0.059l-0.038-0.386c-0.017-0.157-0.003-0.326,0.014-0.498
			c0.021-0.225,0.065-0.405,0.133-0.556l0.147-0.328l0.358,0.036c0.895,0.088,1.787,0.188,2.671,0.287l0.327,0.036
			c1.81,0.239,3.094,0.435,4.174,0.635l0.324,0.06l0.072,0.321c0.053,0.232,0.106,0.709-0.036,2.154
			c-0.202,2.02-0.319,2.501-0.408,2.706l-0.117,0.271l-0.294,0.028c-0.132,0.013-0.307,0.02-0.524,0.02
			c-0.961,0-2.776-0.13-5.398-0.387c-0.027,0.29-0.143,1.524-0.143,1.524c1.249,0.185,2.415,0.337,3.542,0.463
			c0.005-0.013,0.156-0.383,0.156-0.383l0.37,0.036c0.27,0.026,0.537,0.081,0.818,0.167l0.393,0.12L58.99,65.64
			c-0.041,0.404-0.129,0.813-0.26,1.218l-0.124,0.383L58.205,67.2z"/>
		<path fill="#FFFFFF" d="M53.056,57.668c1.003,0.1,2.003,0.213,2.992,0.323c1.574,0.208,2.946,0.408,4.139,0.629
			c0.07,0.311,0.054,0.979-0.047,1.995c-0.147,1.479-0.27,2.326-0.369,2.557c-0.12,0.012-0.278,0.018-0.477,0.018
			c-0.984,0-2.937-0.143-5.848-0.434c-0.09,0.902-0.159,1.731-0.235,2.496c1.471,0.223,2.956,0.422,4.472,0.584
			c0.014-0.137,0.04-0.273,0.09-0.395c0.239,0.023,0.475,0.072,0.721,0.147c-0.041,0.4-0.127,0.771-0.238,1.114
			c-2.356-0.234-4.341-0.521-5.953-0.834c0.129-2.062,0.308-4.106,0.512-6.149c0.095-0.007,0.189-0.013,0.284-0.013
			c0.058,0,0.114,0.002,0.171,0.008c0.163,0.016,0.3,0.042,0.411,0.066c-0.064,0.778-0.125,1.506-0.169,2.21
			c0.552,0.043,1.331,0.095,2.337,0.17c0.089-0.891,0.17-1.578,0.243-2.064c0.127,0.001,0.277,0.003,0.44,0.02
			c0.126,0.013,0.262,0.051,0.395,0.114c-0.062,0.615-0.141,1.276-0.237,2.001c0.703,0.059,1.48,0.123,2.36,0.186
			c0.061-0.602,0.149-1.617,0.268-3.062c-1.44-0.156-3.561-0.457-6.366-0.889c-0.013-0.127,0.001-0.264,0.015-0.402
			C52.979,57.913,53.007,57.776,53.056,57.668 M52.439,56.602l-0.296,0.656c-0.09,0.2-0.147,0.433-0.174,0.71
			c-0.017,0.167-0.037,0.374-0.015,0.599l0.021,0.21l-0.074,0.005l-0.084,0.839c-0.229,2.303-0.398,4.326-0.515,6.187l-0.055,0.877
			l0.862,0.167c1.72,0.335,3.754,0.62,6.045,0.848l0.801,0.079l0.249-0.766c0.142-0.438,0.237-0.882,0.282-1.321l0.083-0.817
			l-0.786-0.24c-0.313-0.096-0.612-0.157-0.915-0.187l-0.74-0.072l-0.154,0.377c-0.861-0.101-1.748-0.216-2.68-0.35
			c0.006-0.068,0.013-0.136,0.019-0.205c0.011-0.114,0.021-0.23,0.032-0.348c2.371,0.226,4.033,0.341,4.947,0.341
			c0.237,0,0.428-0.008,0.571-0.022l0.589-0.056l0.234-0.543c0.106-0.246,0.229-0.669,0.446-2.854
			c0.148-1.502,0.093-2.026,0.027-2.315l-0.146-0.643l-0.648-0.12c-1.089-0.201-2.381-0.398-4.189-0.637l-0.347-0.039
			c-0.887-0.1-1.78-0.199-2.678-0.288L52.439,56.602L52.439,56.602z M54.579,61.066c0.028-0.374,0.061-0.758,0.094-1.155l0.014-0.17
			c0.148,0.022,0.294,0.044,0.437,0.064l-0.021,0.142c-0.046,0.307-0.095,0.689-0.146,1.146l-0.369-0.026
			C54.583,61.066,54.581,61.066,54.579,61.066L54.579,61.066z M57.812,61.32c0.042-0.349,0.078-0.677,0.109-0.99l0.014-0.133
			c0.104,0.014,0.206,0.026,0.306,0.039c-0.035,0.419-0.067,0.789-0.096,1.11C58.032,61.338,57.921,61.329,57.812,61.32
			L57.812,61.32z"/>
	</g>
	<g>
		<path fill="#604C3F" d="M70.914,68.971c-0.484-0.231-0.92-0.542-1.331-0.95l-0.101-0.1c-0.002,0.164-0.013,0.845-0.013,0.845
			l-0.317,0.12c-0.156,0.059-0.34,0.089-0.545,0.089c-0.074,0-0.151-0.004-0.232-0.013c-0.372-0.037-0.689-0.095-0.927-0.146
			l-0.321-0.069l-0.063-0.322c-0.015-0.074-0.025-0.15-0.032-0.23c-0.421,0.244-0.862,0.402-1.343,0.482l-0.326,0.055l-0.178-0.279
			c-0.17-0.267-0.288-0.551-0.361-0.869l-0.084-0.364l0.325-0.184c0.223-0.126,0.446-0.233,0.673-0.326
			c-0.231-0.118-0.445-0.27-0.646-0.453l-0.233-0.214c0,0,0.127-0.407,0.146-0.459c-0.36,0.071-0.719,0.137-1.075,0.197
			l-0.396,0.067l-0.151-0.373c-0.124-0.307-0.187-0.631-0.187-0.963v-0.365l0.348-0.111c0.646-0.206,1.316-0.399,2.018-0.58
			l-0.02-0.172c-0.02-0.176-0.032-0.351-0.038-0.526c-0.33,0.099-0.698,0.202-1.108,0.31l-0.347,0.091l-0.197-0.298
			c-0.175-0.265-0.292-0.546-0.358-0.859l-0.09-0.428c0,0,0.832-0.296,1.041-0.369c-0.103-0.014-0.63-0.086-0.63-0.086l-0.09-0.313
			c-0.044-0.153-0.053-0.333-0.027-0.583c0.021-0.209,0.088-0.404,0.197-0.581l0.169-0.27l0.217,0.025l-0.043-0.109
			c-0.102-0.264-0.136-0.576-0.102-0.93l0.041-0.416l0.416-0.033c0.869-0.071,1.726-0.106,2.546-0.106
			c0.568,0,1.135,0.017,1.696,0.052l0.336,0.021l0.106,0.318c0.108,0.322,0.146,0.638,0.112,0.965l-0.021,0.219
			c0.256-0.384,0.521-0.766,0.797-1.151l0.195-0.271l0.326,0.077c0.306,0.072,0.594,0.188,0.88,0.356l0.433,0.254
			c0,0-0.391,0.658-0.46,0.771c0.784,0.191,1.59,0.396,2.417,0.615l0.411,0.109l-0.043,0.424c-0.094,0.946-0.425,2.072-1.01,3.44
			l-0.083,0.193l-0.195,0.076c-0.099,0.039-0.212,0.057-0.356,0.057c-0.091,0-0.204-0.007-0.344-0.021
			c-0.065-0.007-0.132-0.015-0.198-0.023c0.378,0.177,0.736,0.349,1.083,0.519l0.388,0.19l-0.131,0.411
			c-0.082,0.255-0.2,0.502-0.372,0.776l-0.215,0.342l-0.38-0.138c-0.274-0.1-0.552-0.204-0.831-0.314l0.025,0.091l-0.223,0.207
			c-0.168,0.156-0.337,0.298-0.509,0.426c0.314,0.222,0.632,0.459,0.949,0.712l0.346,0.276l-0.233,0.377
			c-0.068,0.111-0.156,0.237-0.256,0.359c-0.065,0.097-0.167,0.219-0.28,0.342l-0.25,0.27L70.914,68.971z M69.485,67.448
			c0.07-0.146,0.151-0.28,0.245-0.408c-0.092-0.084-0.175-0.172-0.248-0.264C69.484,66.989,69.486,67.214,69.485,67.448z
			 M67.591,67.259c-0.007-0.469-0.007-0.888,0.001-1.268L67.57,66.05c-0.106,0.289-0.235,0.532-0.396,0.745
			c0.079,0.142,0.144,0.29,0.194,0.442C67.369,67.237,67.589,67.259,67.591,67.259z M69.408,65.088
			c0.015,0.16,0.028,0.34,0.039,0.538c0.124-0.117,0.261-0.229,0.411-0.335c-0.149-0.068-0.3-0.139-0.451-0.21L69.408,65.088z
			 M66.896,65.168c0.155,0.086,0.315,0.184,0.48,0.293l0.226,0.149c0.007-0.193,0.034-0.628,0.034-0.628
			C67.39,65.047,67.144,65.108,66.896,65.168z M67.314,63.041c0.194-0.042,0.391-0.083,0.59-0.124
			c-0.184-0.05-0.365-0.106-0.544-0.168C67.345,62.85,67.329,62.946,67.314,63.041z M69.059,62.034
			c-0.029,0.188-0.086,0.396-0.176,0.656l-0.014,0.039c0.129-0.023,0.517-0.093,0.517-0.093c0.057-0.135,0.116-0.268,0.18-0.399
			l-0.298-0.114C69.197,62.097,69.128,62.066,69.059,62.034z M71.834,62.519c0.146-0.323,0.261-0.652,0.348-0.984l-0.129-0.032
			L71.9,61.804c-0.107,0.212-0.224,0.435-0.348,0.665C71.651,62.487,71.745,62.504,71.834,62.519z M68.977,59.974
			c0.081-0.126,0.162-0.252,0.245-0.378l-0.312,0.012c-0.432,0.016-0.857,0.027-1.277,0.034c-0.005,0.056-0.01,0.11-0.014,0.164
			L68.977,59.974z"/>
		<path fill="#FFFFFF" d="M67.137,58.301c0.558,0,1.113,0.016,1.665,0.051c0.079,0.235,0.116,0.481,0.089,0.756
			c-0.733,0.027-1.45,0.041-2.146,0.041c-0.702,0-1.384-0.014-2.042-0.042c-0.081-0.21-0.095-0.452-0.07-0.701
			C65.472,58.337,66.308,58.301,67.137,58.301 M70.569,58.517c0.26,0.062,0.504,0.162,0.742,0.302
			c-0.183,0.31-0.379,0.619-0.56,0.918c0.987,0.237,2.014,0.492,3.073,0.774c-0.089,0.89-0.412,1.983-0.973,3.294
			c-0.04,0.016-0.098,0.022-0.175,0.022c-0.078,0-0.175-0.007-0.295-0.019c-0.351-0.034-0.76-0.112-1.203-0.246
			c0.013-0.125,0.034-0.338,0.088-0.638c0.3,0.056,0.587,0.11,0.86,0.138c0.314-0.614,0.531-1.251,0.645-1.896
			c-0.863-0.215-1.716-0.426-2.544-0.635c-0.267,0.392-0.52,0.771-0.782,1.125c-0.269-0.103-0.494-0.239-0.683-0.385
			C69.311,60.352,69.908,59.438,70.569,58.517 M66.614,59.432c0.043,0,0.085,0.002,0.129,0.006c0.151,0.016,0.287,0.054,0.397,0.09
			c-0.026,0.263-0.039,0.503-0.047,0.717c0.526,0.065,1.051,0.13,1.575,0.195l-0.032,0.326c-0.019,0.176-0.056,0.311-0.091,0.407
			c-0.502-0.05-1.001-0.11-1.504-0.161l-0.024,0.25c0.512,0.203,1.035,0.407,1.562,0.587c-0.02,0.2-0.08,0.422-0.169,0.679
			c-0.521-0.115-1.01-0.278-1.458-0.475c-0.061,0.475-0.126,0.886-0.188,1.247c-0.044,0.016-0.104,0.023-0.184,0.023
			c-0.066,0-0.146-0.005-0.236-0.015c-0.149-0.015-0.262-0.039-0.308-0.081c-0.04-0.358-0.052-0.74-0.023-1.154
			c-0.471,0.154-1.046,0.326-1.747,0.51c-0.144-0.217-0.234-0.441-0.286-0.687c0.723-0.258,1.43-0.504,2.136-0.725l0.025-0.263
			c-0.65-0.076-1.3-0.155-1.938-0.243c-0.026-0.092-0.028-0.219-0.011-0.396c0.013-0.124,0.051-0.247,0.125-0.366
			c0.639,0.077,1.276,0.152,1.927,0.243c0.023-0.239,0.059-0.476,0.106-0.699C66.438,59.439,66.524,59.432,66.614,59.432
			 M70.729,61.228c0.258,0.087,0.498,0.201,0.725,0.351c-0.268,0.53-0.592,1.118-0.961,1.764c-0.3-0.042-0.543-0.143-0.728-0.312
			C70.019,62.384,70.344,61.783,70.729,61.228 M69.347,63.151c0.05,0.157,0.084,0.312,0.094,0.466
			c1.201,0.524,2.389,1.061,3.559,1.634c-0.074,0.232-0.185,0.448-0.319,0.663c-1.345-0.488-2.664-1.075-3.99-1.738
			c-1.628,0.469-3.248,0.841-4.845,1.111c-0.102-0.251-0.15-0.51-0.15-0.775C65.446,63.952,67.338,63.51,69.347,63.151
			 M68.13,65.094c0.252,0,0.517,0.014,0.78,0.041c0.062,0.65,0.093,1.742,0.065,3.283c-0.095,0.036-0.222,0.057-0.368,0.057
			c-0.058,0-0.118-0.003-0.181-0.01c-0.352-0.035-0.65-0.09-0.873-0.138c-0.033-0.167-0.039-0.358-0.019-0.571
			c0.188,0.019,0.377,0.025,0.566,0.03C68.076,66.772,68.077,65.874,68.13,65.094 M65.724,65.221
			c0.421,0.104,0.88,0.328,1.377,0.657c-0.085,0.231-0.194,0.447-0.34,0.636c-0.525-0.078-0.96-0.285-1.331-0.626
			C65.506,65.642,65.604,65.424,65.724,65.221 M70.708,65.363c0.223,0.199,0.366,0.403,0.432,0.638
			c-0.32,0.298-0.649,0.542-0.997,0.736c-0.222-0.187-0.379-0.391-0.482-0.617C69.942,65.818,70.297,65.574,70.708,65.363
			 M66.679,66.937c0.143,0.229,0.234,0.466,0.284,0.712c-0.433,0.285-0.88,0.456-1.356,0.535c-0.154-0.242-0.242-0.479-0.296-0.713
			C65.767,67.213,66.214,67.042,66.679,66.937 M70.418,67.018c0.392,0.267,0.792,0.56,1.19,0.878
			c-0.059,0.095-0.134,0.202-0.219,0.307c-0.075,0.107-0.162,0.212-0.26,0.317c-0.436-0.208-0.826-0.488-1.194-0.854
			C70.064,67.399,70.224,67.201,70.418,67.018 M67.137,57.301c-0.834,0-1.704,0.036-2.586,0.107l-0.833,0.068l-0.081,0.831
			c-0.026,0.271-0.019,0.526,0.022,0.762l-0.19,0.306c-0.151,0.242-0.242,0.51-0.271,0.794c-0.031,0.318-0.018,0.556,0.045,0.773
			l0.04,0.142l-0.461,0.164l0.181,0.855c0.08,0.377,0.221,0.714,0.431,1.031l0.225,0.34c-0.089,0.028-0.179,0.057-0.268,0.084
			l-0.695,0.223v0.73c0,0.396,0.075,0.784,0.224,1.15l0.302,0.745l0.792-0.134c0.101-0.018,0.201-0.035,0.302-0.053l0.439,0.403
			c0.003,0.003,0.006,0.005,0.009,0.008l-0.593,0.336l0.167,0.728c0.086,0.374,0.226,0.71,0.427,1.025l0.355,0.558l0.652-0.108
			c0.308-0.051,0.601-0.131,0.884-0.24l0.047,0.237l0.643,0.138c0.327,0.07,0.658,0.123,0.983,0.155
			c0.095,0.01,0.189,0.015,0.28,0.015c0.266,0,0.509-0.041,0.722-0.121l0.635-0.24l0.002-0.119c0.233,0.163,0.477,0.306,0.733,0.428
			l0.664,0.317l0.5-0.54c0.126-0.136,0.232-0.265,0.324-0.394c0.105-0.132,0.198-0.266,0.271-0.384l0.466-0.754l-0.692-0.554
			c-0.146-0.117-0.296-0.233-0.448-0.348c0.013-0.011,0.024-0.022,0.036-0.033l0.056-0.052c0.154,0.06,0.309,0.117,0.463,0.172
			l0.759,0.276l0.429-0.685c0.193-0.307,0.332-0.598,0.426-0.891l0.262-0.822l-0.555-0.271l0.113-0.263
			c0.605-1.416,0.948-2.59,1.048-3.588l0.085-0.847l-0.822-0.219c-0.566-0.151-1.146-0.301-1.77-0.456l0.369-0.626l-0.865-0.508
			c-0.33-0.192-0.663-0.327-1.018-0.412l-0.652-0.154l-0.391,0.545c-0.009,0.013-0.019,0.025-0.027,0.039l-0.194-0.577l-0.671-0.042
			C68.303,57.318,67.721,57.301,67.137,57.301L67.137,57.301z"/>
	</g>
</g>
</svg>
