<?xml version="1.0" encoding="utf-8"?>
<!-- Generator: Adobe Illustrator 16.0.0, SVG Export Plug-In . SVG Version: 6.00 Build 0)  -->
<!DOCTYPE svg PUBLIC "-//W3C//DTD SVG 1.1//EN" "http://www.w3.org/Graphics/SVG/1.1/DTD/svg11.dtd">
<svg version="1.1" id="Layer_1" xmlns="http://www.w3.org/2000/svg" xmlns:xlink="http://www.w3.org/1999/xlink" x="0px" y="0px"
	 width="126.876px" height="112.438px" viewBox="0 0 126.876 112.438" enable-background="new 0 0 126.876 112.438"
	 xml:space="preserve">
<rect fill="#FFFFFF" width="126.876" height="112.438"/>
<text transform="matrix(0.9821 -0.1882 0.1882 0.9821 52.4082 59.2812)" fill="#FFFFFF" font-family="'TpldKhangXiDictTrial-B5pc-H'" font-size="14.5198">浪起来</text>
<path fill="#FFFFFF" d="M97.739,54.081L36.704,66.397l-4.162,6.271l6.317,4.413l61.036-12.318l4.114-6.517L97.739,54.081z
	 M99.371,64.003L39.048,76.177l-5.339-3.731l3.509-5.284l60.346-12.178l5.284,3.512L99.371,64.003z"/>
<rect x="39.513" y="62.931" transform="matrix(0.9802 -0.1978 0.1978 0.9802 -11.622 14.8047)" fill="none" width="57.575" height="5.3"/>
<text transform="matrix(0.9802 -0.1978 0.1978 0.9802 47.9092 72.124)" fill="#FFFFFF" font-family="'Raleway-Bold'" font-size="7.0848">SEA &amp; BEACH</text>
<g>
	<path fill="#FFFFFF" d="M42.494,70.515l-3.87,0.783c-0.168-0.276-0.491-0.434-0.827-0.365c-0.426,0.086-0.703,0.502-0.617,0.928
		c0.088,0.426,0.502,0.701,0.929,0.616c0.334-0.067,0.574-0.339,0.62-0.658l3.871-0.78L42.494,70.515z"/>
	<path fill="#FFFFFF" d="M94.001,60.122l3.871-0.781c0.046-0.319,0.286-0.59,0.621-0.656c0.425-0.088,0.84,0.189,0.928,0.617
		c0.085,0.425-0.191,0.84-0.617,0.926c-0.335,0.068-0.659-0.089-0.827-0.364l-3.87,0.781L94.001,60.122z"/>
</g>
<path fill="#8FC31F" d="M47.285,45.538c-1.094-0.143-2.256,0.175-3.1,0.802c-0.705,0.523-1.23,1.211-1.523,1.987
	c-0.012,0.004-0.022,0.008-0.03,0.009c0.007,0.005,0.011,0.011,0.024,0.013c-0.006,0.016-0.009,0.03-0.018,0.044
	c-0.007-0.001-0.013-0.005-0.018-0.003c0.009-0.069,0.021-0.137,0.027-0.207c0.4-0.845,0.818-1.586,1.314-2.197
	c0.504-0.631,1.089-1.08,1.766-1.389c0.68-0.301,1.469-0.464,2.316-0.556c0.855-0.095,1.76-0.1,2.747-0.189
	c-0.787-0.604-1.698-0.987-2.683-1.169c-0.982-0.174-2.082-0.12-3.088,0.335c-1.014,0.448-1.838,1.321-2.237,2.29
	c-0.129,0.307-0.219,0.629-0.278,0.945c-0.042-0.161-0.08-0.325-0.141-0.48c-0.366-0.985-1.161-1.882-2.156-2.362
	c-0.994-0.485-2.089-0.58-3.072-0.439c-0.994,0.146-1.921,0.502-2.725,1.079c0.985,0.122,1.885,0.159,2.738,0.283
	c0.851,0.114,1.63,0.305,2.301,0.633c0.662,0.322,1.23,0.791,1.717,1.445c0.393,0.516,0.727,1.122,1.043,1.809
	c-0.407-0.662-1.01-1.22-1.74-1.601c-0.925-0.501-2.118-0.641-3.177-0.336c-1.071,0.289-1.948,0.944-2.594,1.707
	s-1.103,1.646-1.32,2.608c0.814-0.561,1.517-1.133,2.233-1.606c0.712-0.472,1.424-0.849,2.14-1.046
	c0.715-0.197,1.451-0.222,2.245-0.061c0.413,0.085,0.838,0.214,1.266,0.375c-0.36,0.092-0.707,0.287-0.962,0.569
	c-0.345,0.367-0.528,0.831-0.601,1.279c-0.066,0.448-0.029,0.896,0.111,1.319c0.182-0.408,0.318-0.792,0.487-1.149
	c0.158-0.354,0.347-0.669,0.575-0.915c0.225-0.244,0.506-0.434,0.854-0.561c0.14-0.051,0.293-0.089,0.447-0.124
	c-0.147,0.526-0.273,1.062-0.359,1.594c-0.201,1.257-0.261,2.538-0.239,3.815c0.034,1.277,0.139,2.553,0.312,3.82
	c0.185,1.274,0.965,3.515,1.3,4.818l2.707-0.986c-0.493-1.029-1.508-3.197-1.896-4.327c-0.396-1.14-0.731-2.306-0.988-3.49
	c-0.259-1.18-0.436-2.386-0.477-3.604c-0.016-0.523,0.001-1.053,0.052-1.583c0.082-0.061,0.161-0.113,0.251-0.17
	c0.02-0.002,0.043-0.003,0.064-0.005c-0.006-0.011-0.013-0.015-0.022-0.021c0.052-0.032,0.111-0.07,0.164-0.101
	c0.265,0.068,0.515,0.143,0.742,0.247c0.328,0.155,0.594,0.366,0.803,0.63c0.207,0.268,0.362,0.594,0.498,0.963
	c0.132,0.364,0.236,0.762,0.379,1.186c0.18-0.413,0.255-0.852,0.224-1.307c-0.028-0.453-0.176-0.933-0.482-1.324
	c-0.307-0.402-0.781-0.67-1.254-0.738c-0.096-0.01-0.194-0.018-0.297-0.022c0.397-0.222,0.794-0.406,1.185-0.545
	c0.765-0.278,1.495-0.36,2.233-0.274c0.74,0.091,1.492,0.358,2.266,0.726c0.78,0.36,1.562,0.819,2.449,1.252
	c-0.359-0.919-0.939-1.716-1.689-2.385C49.351,46.191,48.38,45.669,47.285,45.538L47.285,45.538z M47.285,45.538"/>
<path fill="#8FC31F" d="M30.133,58.218c-0.237,0.719-0.194,1.471-0.002,2.128c0.194,0.663,0.521,1.252,0.988,1.743
	c-0.012-0.677-0.069-1.295-0.066-1.884c-0.003-0.589,0.05-1.134,0.209-1.618c0.16-0.484,0.424-0.913,0.819-1.307
	c0.198-0.203,0.43-0.395,0.681-0.577c-0.025,0.065-0.049,0.126-0.071,0.19c-0.094,0.316-0.067,0.688,0.094,0.993
	c0.154,0.305,0.409,0.536,0.683,0.686c0.273,0.151,0.568,0.231,0.877,0.24c-0.225-0.213-0.44-0.393-0.627-0.579
	c-0.19-0.191-0.348-0.382-0.452-0.59c-0.104-0.206-0.157-0.432-0.158-0.681c-0.002-0.172,0.025-0.35,0.062-0.534
	c0.036-0.024,0.075-0.049,0.11-0.071c0.002,0.008,0.002,0.014,0.006,0.021c0.008-0.015,0.017-0.027,0.023-0.041
	c0.061-0.037,0.114-0.072,0.175-0.106c0.346,0.124,0.681,0.267,1.001,0.43c0.74,0.38,1.44,0.838,2.097,1.343
	c0.661,0.504,1.288,1.053,1.881,1.629c0.589,0.569,1.64,1.828,2.136,2.434l1.4-1.395c-0.713-0.586-1.877-1.721-2.616-2.208
	c-0.736-0.478-1.497-0.911-2.28-1.304c-0.785-0.385-1.601-0.721-2.438-0.96c-0.356-0.101-0.723-0.18-1.093-0.239
	c0.065-0.088,0.135-0.171,0.205-0.243c0.182-0.181,0.38-0.298,0.596-0.367c0.222-0.067,0.472-0.095,0.737-0.091
	c0.269-0.003,0.551,0.024,0.855,0.03c-0.224-0.211-0.491-0.361-0.786-0.451c-0.302-0.087-0.642-0.106-0.971,0.001
	c-0.248,0.078-0.471,0.234-0.633,0.433c0.024-0.314,0.068-0.615,0.134-0.896c0.134-0.54,0.362-0.99,0.692-1.378
	c0.328-0.386,0.772-0.718,1.271-1.024c0.503-0.307,1.063-0.575,1.646-0.919c-0.662-0.144-1.342-0.116-2.004,0.062
	c-0.659,0.179-1.323,0.535-1.812,1.113c-0.498,0.568-0.757,1.352-0.715,2.07c0.025,0.565,0.194,1.1,0.489,1.546
	c-0.336-0.394-0.615-0.779-0.822-1.172c-0.264-0.492-0.391-0.98-0.398-1.489s0.101-1.051,0.275-1.608
	c0.171-0.565,0.411-1.137,0.619-1.783c-0.589,0.332-1.08,0.803-1.46,1.377c-0.373,0.568-0.632,1.277-0.619,2.035
	c0.007,0.758,0.334,1.514,0.839,2.024c0.079,0.084,0.17,0.155,0.258,0.227c-0.214-0.053-0.439-0.093-0.668-0.101
	c-0.719-0.034-1.499,0.225-2.071,0.725c-0.575,0.492-0.929,1.16-1.107,1.817c-0.172,0.666-0.198,1.343-0.052,2.006
	c0.341-0.586,0.609-1.147,0.916-1.648c0.303-0.499,0.635-0.944,1.018-1.278c0.389-0.33,0.837-0.562,1.378-0.692
	c0.521-0.13,1.103-0.174,1.744-0.177c0.044,0.016,0.09,0.03,0.138,0.043c-0.003,0.002-0.003,0.008-0.006,0.012
	c-0.009,0.002-0.018,0-0.033,0c0.004-0.011,0.003-0.015,0-0.021c-0.003,0.004-0.008,0.01-0.013,0.016
	c-0.569-0.042-1.147,0.084-1.676,0.371C30.9,56.868,30.363,57.497,30.133,58.218L30.133,58.218z M30.133,58.218"/>
</svg>
