<?xml version="1.0" encoding="utf-8"?>
<!-- Generator: Adobe Illustrator 16.0.0, SVG Export Plug-In . SVG Version: 6.00 Build 0)  -->
<!DOCTYPE svg PUBLIC "-//W3C//DTD SVG 1.1//EN" "http://www.w3.org/Graphics/SVG/1.1/DTD/svg11.dtd">
<svg version="1.1" id="Layer_1" xmlns="http://www.w3.org/2000/svg" xmlns:xlink="http://www.w3.org/1999/xlink" x="0px" y="0px"
	 width="126.876px" height="112.438px" viewBox="0 0 126.876 112.438" enable-background="new 0 0 126.876 112.438"
	 xml:space="preserve">
<rect fill="#FFFFFF" width="126.876" height="112.438"/>
<g>
	<path fill="#F8B62D" d="M59.216,54.346c-0.168-0.024-0.339-0.087-0.505-0.186c-0.462-0.25-0.873-0.74-1.145-1.064l-7.093-8.446
		c-1.027-1.231-1.652-2.722-1.808-4.312c-0.014-0.143-0.021-0.289-0.028-0.435l-0.005-0.109c-0.006-0.123-0.009-0.238-0.008-0.358
		c0.004-1.123,0.256-2.258,0.729-3.278c0.071-0.154,0.148-0.31,0.233-0.463c0.389-0.718,0.893-1.376,1.497-1.952
		c0.071-0.067,0.145-0.133,0.221-0.198c0.615-0.545,1.323-0.992,2.1-1.325l0.26-0.104l1.911-0.73c0,0,0.154-0.036,0.228-0.053
		c0.496-0.115,1.033-0.21,1.589-0.278l0.172-0.022c0.505-0.058,1.004-0.086,1.483-0.086l0.33,0.004l2.138,0.286
		c0.077,0.009,0.169,0.026,0.254,0.044c0.819,0.15,1.61,0.433,2.338,0.834c0.077,0.039,0.164,0.089,0.249,0.139
		c0.719,0.428,1.361,0.964,1.912,1.598c0.117,0.135,0.229,0.271,0.331,0.412c0.701,0.917,1.187,1.969,1.432,3.113
		c0.032,0.16,0.062,0.32,0.086,0.479c0.016,0.096,0.03,0.194,0.041,0.296l0.016,0.165c0.14,1.466-0.148,2.958-0.833,4.301
		l-5.087,9.951c-0.132,0.258-0.331,0.648-0.585,0.974c-0.169,0.224-0.343,0.39-0.528,0.502c-0.081,0.056-0.184,0.104-0.292,0.135
		c-0.022,0.014-0.115,0.039-0.213,0.051l-1.167,0.129l-0.087,0.003L59.216,54.346z"/>
	<path fill="#FFFFFF" d="M59.047,31.444c0.058,0,0.115,0,0.172,0.001c0.031,0,0.065,0,0.096-0.001l0.101,0.013l1.879,0.251
		c0.052,0.008,0.104,0.016,0.155,0.022c0.072,0.008,0.146,0.022,0.216,0.037c0.784,0.145,1.525,0.41,2.2,0.782
		c0.081,0.042,0.161,0.088,0.238,0.133c0.675,0.401,1.276,0.907,1.787,1.494c0.105,0.122,0.208,0.245,0.301,0.375
		c0.649,0.849,1.117,1.841,1.35,2.927c0.03,0.148,0.058,0.301,0.081,0.451c0.015,0.09,0.028,0.18,0.038,0.271
		c0.005,0.048,0.011,0.094,0.014,0.143c0.132,1.391-0.142,2.793-0.779,4.043l-5.087,9.951c-0.132,0.258-0.312,0.609-0.534,0.895
		c-0.118,0.156-0.249,0.294-0.393,0.381c-0.055,0.037-0.109,0.064-0.166,0.08c-0.046,0.02-0.095,0.031-0.142,0.037l-1.108,0.125
		c-0.006,0-0.011,0.001-0.016,0.001c-0.004,0-0.008,0-0.012-0.001c-0.019,0.002-0.037,0.004-0.057,0.004
		c-0.028,0-0.058-0.003-0.088-0.008c-0.107-0.016-0.218-0.057-0.326-0.121c-0.394-0.213-0.766-0.655-1.018-0.956l-7.093-8.446
		c-0.959-1.149-1.548-2.557-1.692-4.039c-0.014-0.135-0.021-0.271-0.026-0.407l-0.006-0.113c-0.005-0.11-0.008-0.218-0.007-0.328
		c0.004-1.08,0.244-2.127,0.683-3.073c0.066-0.145,0.138-0.288,0.217-0.431c0.367-0.679,0.844-1.298,1.404-1.832
		c0.065-0.062,0.133-0.122,0.202-0.182c0.576-0.51,1.239-0.931,1.971-1.245c0.065-0.027,0.132-0.053,0.198-0.08
		c0.026-0.011,0.051-0.02,0.075-0.029l1.835-0.701l0.011-0.002c0.063-0.018,0.124-0.031,0.188-0.045
		c0.518-0.121,1.037-0.209,1.545-0.271c0.057-0.009,0.115-0.016,0.167-0.021C58.108,31.472,58.587,31.444,59.047,31.444
		 M59.361,30.442l-0.079,0.003h-0.063l-0.172-0.001c-0.498,0-1.016,0.03-1.54,0.089c-0.063,0.008-0.137,0.017-0.207,0.027
		c-0.543,0.066-1.098,0.164-1.619,0.286c-0.053,0.011-0.114,0.025-0.179,0.042l-0.052,0.01l-0.097,0.035l-1.836,0.701l-0.095,0.037
		l-0.084,0.033l-0.123,0.05c-0.834,0.358-1.587,0.835-2.247,1.419c-0.072,0.062-0.152,0.133-0.23,0.207
		c-0.642,0.611-1.178,1.312-1.594,2.08c-0.086,0.155-0.169,0.321-0.246,0.488c-0.501,1.083-0.77,2.289-0.773,3.487
		c-0.001,0.123,0.002,0.248,0.008,0.376l0.006,0.121c0.007,0.146,0.015,0.303,0.03,0.456c0.165,1.687,0.828,3.271,1.92,4.579
		l7.095,8.449c0.295,0.353,0.743,0.887,1.308,1.192c0.187,0.111,0.42,0.196,0.658,0.23c0.071,0.012,0.152,0.019,0.231,0.019
		c0.027,0,0.055-0.001,0.082-0.003h0.033l0.061-0.005l1.129-0.127c0.131-0.017,0.249-0.045,0.359-0.087
		c0.129-0.042,0.255-0.103,0.375-0.183c0.232-0.145,0.445-0.348,0.651-0.619c0.273-0.353,0.486-0.768,0.627-1.043l5.087-9.951
		c0.729-1.428,1.033-3.016,0.884-4.593c0-0.018-0.005-0.067-0.011-0.118c-0.016-0.146-0.031-0.254-0.049-0.362
		c-0.025-0.158-0.055-0.326-0.089-0.49c-0.263-1.227-0.778-2.345-1.535-3.334c-0.091-0.129-0.212-0.276-0.338-0.421
		c-0.589-0.677-1.271-1.248-2.032-1.7c-0.1-0.058-0.194-0.112-0.29-0.161c-0.752-0.416-1.594-0.715-2.479-0.878
		c-0.076-0.017-0.185-0.036-0.29-0.048l-0.113-0.018l-1.896-0.253l-0.108-0.014L59.361,30.442L59.361,30.442z"/>
</g>
<g>
	<path fill="#964025" d="M57.653,51.942c-4.406-5.144-8.017-9.56-8.528-12.502c-0.001,0.11,0.002,0.218,0.007,0.328l0.006,0.113
		c0.006,0.136,0.013,0.272,0.026,0.407c0.928,2.912,4.153,6.855,8.283,11.678L57.653,51.942z"/>
	<path fill="#964025" d="M58.667,51.828c-0.999-2.002-2.173-4.937-3.137-7.943c-1.709-5.318-2.333-9.41-1.73-11.287
		c-0.066,0.027-0.133,0.053-0.198,0.08c-1.077,3.831,2.474,14.263,4.897,19.169L58.667,51.828z"/>
	<path fill="#964025" d="M59.182,51.77c-1.561-5.038-4.09-16.776-3.273-19.949c-0.063,0.014-0.124,0.027-0.188,0.045
		c-0.744,3.305,1.742,14.854,3.303,19.923L59.182,51.77z"/>
	<path fill="#964025" d="M58.072,51.896c-4.115-5.31-8.644-12.878-8.048-15.959c-0.079,0.143-0.15,0.286-0.217,0.431
		c-0.104,2.158,1.585,5.589,3.082,8.174c1.39,2.396,3.19,5.056,4.986,7.377L58.072,51.896z"/>
	<path fill="#964025" d="M58.318,51.867c-1.39-2.122-2.94-4.994-4.174-7.789c-2.646-6.008-2.753-8.888-2.514-10.155
		c-0.069,0.06-0.137,0.119-0.202,0.182c-0.563,4.006,3.469,12.857,6.692,17.785L58.318,51.867z"/>
	<path fill="#964025" d="M59.903,51.688l-2.283-20.16c-0.052,0.006-0.11,0.013-0.167,0.021l2.283,20.158L59.903,51.688z"/>
	<path fill="#964025" d="M61.007,51.562l0.166-0.018c1.267-5.322,2.395-16.279,0.492-19.777c-0.069-0.015-0.144-0.029-0.216-0.037
		c1.008,1.695,1.312,5.824,0.84,11.39C62.021,46.266,61.534,49.389,61.007,51.562z"/>
	<path fill="#964025" d="M61.354,51.523l0.198-0.022c2.037-5.517,3.983-15.028,2.551-18.818c-0.077-0.045-0.157-0.091-0.238-0.133
		c0.515,1.19,1.045,4.022-0.188,10.448C63.104,45.998,62.235,49.145,61.354,51.523z"/>
	<path fill="#964025" d="M60.489,51.621l0.159-0.018c0.387-5.281,0.231-17.077-1.233-20.146l-0.101-0.013
		c-0.03,0.001-0.064,0.001-0.096,0.001C60.727,34.354,60.884,46.362,60.489,51.621z"/>
	<path fill="#964025" d="M66.191,34.552c-0.093-0.13-0.195-0.253-0.301-0.375c1.231,2.901-1.479,11.251-4.289,17.319l0.195-0.022
		c1.23-2.664,2.392-5.658,3.208-8.306C65.878,40.331,66.752,36.639,66.191,34.552z"/>
	<path fill="#964025" d="M67.622,37.93c-0.023-0.15-0.051-0.303-0.081-0.451c0.083,3-2.419,8.053-5.521,13.97l0.203-0.023
		c2.901-5.532,5.136-10.037,5.45-13.081c-0.003-0.049-0.009-0.095-0.014-0.143C67.65,38.109,67.637,38.02,67.622,37.93z"/>
</g>
<path fill="#964025" stroke="#FFFFFF" stroke-miterlimit="10" d="M57.768,51.946c0,0,2.225-0.252,3.855-0.438
	c0,0-0.661,1.678-0.903,1.755c-0.24,0.076-1.384,0.156-1.384,0.156s-0.258-0.072-0.483-0.296
	C58.627,52.898,57.768,51.946,57.768,51.946z"/>
<g>
	<path fill="#B56242" d="M58.91,55.843l-0.142-0.059c-0.297-0.151-0.413-0.501-0.273-0.786l0.273-0.526l-0.355-3.132l1.164-0.127
		l0.309,2.725l0.299-0.034l-0.31-2.726l1.161-0.135l0.354,3.134l0.373,0.442c0.207,0.246,0.18,0.604-0.06,0.817l-0.142,0.126
		l-0.244,0.018c-0.176,0-0.34-0.076-0.45-0.209l-0.283-0.336l-0.842,0.095l-0.326,0.634l-0.333,0.075l-0.062,0.004H58.91z"/>
	<path fill="#FFFFFF" d="M60.596,51.598l0.315,2.786l0.471,0.558c0.03,0.036,0.025,0.09-0.01,0.121
		c-0.016,0.012-0.034,0.018-0.054,0.018c-0.025,0-0.05-0.01-0.066-0.029l-0.457-0.543l-1.373,0.155l-0.326,0.632
		c-0.014,0.027-0.038,0.044-0.065,0.047c-0.003,0-0.006,0-0.009,0c-0.014,0-0.026-0.004-0.04-0.01
		c-0.042-0.021-0.058-0.072-0.037-0.114l0.338-0.651l-0.315-2.784l0.17-0.019l0.309,2.727l1.292-0.146l-0.31-2.727L60.596,51.598
		 M61.477,50.488l-0.996,0.116l-0.168,0.02l-0.778,0.091l-0.506,0.055l-0.17,0.019l-0.998,0.108l0.112,0.998l0.281,2.481
		l-0.197,0.382c-0.269,0.55-0.054,1.197,0.47,1.465l0.214,0.109l0.281,0.01h0.06l0.067-0.007c0.356-0.038,0.676-0.261,0.842-0.593
		l0.075-0.146l0.31-0.035l0.112,0.134c0.203,0.243,0.507,0.385,0.831,0.385c0.241,0,0.479-0.081,0.668-0.229l0.025-0.02l0.024-0.021
		c0.443-0.395,0.492-1.058,0.112-1.512l-0.277-0.328l-0.281-2.485L61.477,50.488L61.477,50.488z"/>
</g>
<g>
	<path fill="#734B29" d="M59.166,57.286c-0.379,0-0.695-0.284-0.736-0.659l-0.126-1.112c-0.045-0.409,0.249-0.776,0.655-0.821
		c0,0,2.315-0.262,2.319-0.262c0.456,0,0.768,0.283,0.809,0.656l0.127,1.111c0.042,0.41-0.252,0.775-0.655,0.82l-2.309,0.262
		L59.166,57.286z"/>
	<path fill="#FFFFFF" d="M61.351,54.928c0.121,0,0.226,0.09,0.239,0.215l0.127,1.113c0.014,0.134-0.08,0.252-0.213,0.267
		l-2.311,0.262c-0.01,0.001-0.019,0.001-0.027,0.001c-0.121,0-0.226-0.088-0.239-0.213l-0.126-1.114
		c-0.015-0.134,0.079-0.253,0.213-0.268l2.31-0.262C61.332,54.928,61.342,54.928,61.351,54.928 M61.351,53.928h-0.055l-0.082,0.007
		l-2.312,0.263c-0.677,0.073-1.169,0.688-1.095,1.369l0.127,1.118c0.068,0.626,0.598,1.101,1.232,1.101h0.055l0.082-0.007
		l2.313-0.263c0.672-0.073,1.165-0.685,1.096-1.361l-0.129-1.125C62.515,54.402,61.984,53.928,61.351,53.928L61.351,53.928z"/>
</g>
<g>
	<g>
		<path fill="#F8B62D" d="M73.795,65.41l-0.786-0.104l-0.017-0.006c-0.061-0.012-0.12-0.031-0.178-0.057
			c-0.101-0.038-0.223-0.119-0.335-0.228c-0.278-0.255-0.475-0.654-0.604-0.919l-3.251-6.641c-0.484-0.997-0.654-2.1-0.494-3.19
			c0.016-0.101,0.034-0.199,0.055-0.298c0.03-0.154,0.048-0.233,0.068-0.313c0.194-0.766,0.543-1.464,1.034-2.074
			c0.074-0.093,0.153-0.187,0.237-0.275c0.373-0.41,0.821-0.769,1.324-1.055c0.056-0.033,0.119-0.066,0.184-0.099
			c0.498-0.26,1.046-0.441,1.623-0.538l1.589-0.196l0.065,0.009c0.446,0.001,0.816,0.029,1.176,0.073l0.118,0.014
			c0.381,0.049,0.756,0.122,1.111,0.217l0.107,0.03l1.255,0.493c0.152,0.062,0.214,0.088,0.272,0.117
			c0.51,0.231,0.993,0.551,1.418,0.941l0.096,0.09c0.461,0.454,0.802,0.922,1.064,1.437c0.056,0.107,0.11,0.22,0.155,0.334
			c0.315,0.729,0.466,1.515,0.44,2.319c-0.006,0.118-0.014,0.229-0.023,0.34c-0.004,0.058-0.039,0.32-0.039,0.32
			c-0.149,1-0.59,1.953-1.272,2.74l-4.912,5.646c-0.142,0.162-0.333,0.382-0.559,0.56c-0.169,0.136-0.323,0.222-0.483,0.27
			c-0.053,0.024-0.151,0.045-0.251,0.048l-0.065,0.005L73.795,65.41z"/>
		<path fill="#FFFFFF" d="M74.239,49.922l0.007,0.001c0.014-0.001,0.027-0.001,0.041-0.001c0.029,0,0.058,0.001,0.088,0.002
			c0.356,0.004,0.708,0.03,1.049,0.072c0.037,0.003,0.076,0.008,0.111,0.013c0.368,0.048,0.721,0.117,1.052,0.205
			c0.021,0.005,0.044,0.011,0.062,0.016l0.063,0.023l1.181,0.466c0.032,0.014,0.064,0.027,0.097,0.041
			c0.047,0.018,0.093,0.037,0.136,0.059c0.486,0.221,0.924,0.514,1.303,0.862c0.047,0.041,0.091,0.085,0.134,0.125
			c0.373,0.37,0.683,0.796,0.92,1.261c0.05,0.096,0.097,0.192,0.136,0.291c0.284,0.657,0.429,1.377,0.405,2.119
			c-0.005,0.103-0.012,0.205-0.021,0.308c-0.004,0.061-0.011,0.121-0.02,0.183c-0.003,0.032-0.008,0.063-0.014,0.096
			c-0.138,0.924-0.542,1.792-1.158,2.502l-4.911,5.646c-0.128,0.146-0.302,0.346-0.491,0.495c-0.104,0.083-0.21,0.151-0.317,0.184
			c-0.041,0.017-0.082,0.025-0.12,0.026c-0.018,0.003-0.035,0.005-0.053,0.005c-0.016,0-0.031-0.002-0.046-0.004l-0.741-0.098
			c-0.006,0-0.01-0.001-0.018-0.004c-0.032-0.004-0.062-0.013-0.093-0.026c-0.068-0.026-0.133-0.072-0.193-0.131
			c-0.221-0.202-0.391-0.55-0.507-0.786l-3.247-6.634c-0.438-0.901-0.594-1.911-0.448-2.897c0.014-0.09,0.03-0.18,0.049-0.27
			l0.015-0.075c0.015-0.071,0.03-0.143,0.049-0.214c0.178-0.701,0.501-1.343,0.939-1.887c0.066-0.083,0.136-0.166,0.21-0.244
			c0.348-0.383,0.758-0.708,1.209-0.965c0.052-0.03,0.105-0.059,0.16-0.086c0.457-0.238,0.955-0.404,1.481-0.492
			c0.047-0.006,0.094-0.012,0.142-0.02c0.02-0.002,0.036-0.004,0.055-0.006L74.239,49.922 M74.256,48.914l-0.139,0.016l-1.306,0.16
			l-0.02,0.002l-0.074,0.009l-0.104,0.015c-0.669,0.111-1.268,0.31-1.819,0.598c-0.06,0.029-0.133,0.068-0.203,0.109
			c-0.539,0.307-1.028,0.697-1.444,1.156c-0.078,0.082-0.167,0.187-0.251,0.291c-0.534,0.664-0.915,1.428-1.128,2.266
			c-0.021,0.082-0.041,0.17-0.059,0.259l-0.017,0.085c-0.021,0.096-0.04,0.203-0.056,0.311c-0.177,1.194,0.01,2.397,0.537,3.484
			l3.248,6.637c0.15,0.306,0.372,0.756,0.729,1.084c0.135,0.131,0.304,0.242,0.483,0.316c0.065,0.027,0.132,0.05,0.2,0.066
			l0.097,0.037l0.122,0.002l0.688,0.091l0.065,0.009l0.111,0.004c0.051,0,0.102-0.003,0.152-0.01
			c0.118-0.01,0.235-0.035,0.351-0.077c0.205-0.068,0.406-0.183,0.613-0.348c0.255-0.202,0.474-0.451,0.617-0.616l4.914-5.648
			c0.745-0.859,1.227-1.9,1.393-3.011c0.005-0.026,0.012-0.072,0.018-0.124c0.011-0.08,0.02-0.158,0.024-0.237
			c0.009-0.088,0.017-0.206,0.022-0.324c0.028-0.896-0.136-1.753-0.486-2.563c-0.04-0.102-0.101-0.229-0.167-0.356
			c-0.283-0.556-0.655-1.065-1.103-1.509l-0.058-0.055c-0.039-0.038-0.08-0.076-0.122-0.113c-0.445-0.41-0.973-0.759-1.548-1.02
			c-0.039-0.021-0.117-0.055-0.197-0.085l-0.01-0.005l-0.048-0.021l-1.204-0.476l-0.084-0.031l-0.046-0.017l-0.046-0.012
			l-0.086-0.021c-0.352-0.094-0.748-0.171-1.154-0.224c-0.045-0.007-0.105-0.014-0.162-0.019c-0.352-0.044-0.742-0.071-1.116-0.075
			l-0.071-0.001L74.256,48.914L74.256,48.914z"/>
	</g>
	<g>
		<path fill="#964025" d="M72.263,63.283c-2.034-4.054-3.667-7.506-3.525-9.502c-0.019,0.071-0.034,0.143-0.049,0.214l-0.015,0.075
			c-0.019,0.09-0.035,0.18-0.049,0.27c0.133,2.041,1.594,5.125,3.5,8.926L72.263,63.283z"/>
		<path fill="#964025" d="M72.939,63.372c-0.325-1.462-0.614-3.56-0.758-5.668c-0.252-3.732,0.003-6.493,0.697-7.616
			c-0.048,0.008-0.095,0.014-0.142,0.02c-1.317,2.316-0.693,9.67,0.091,13.25L72.939,63.372z"/>
		<path fill="#964025" d="M73.284,63.418c-0.201-3.527,0.049-11.564,1.091-13.494c-0.044-0.001-0.084-0.003-0.129-0.001
			c-1.017,2.027-1.265,9.935-1.068,13.48L73.284,63.418z"/>
		<path fill="#964025" d="M72.543,63.32c-1.818-4.115-3.54-9.765-2.656-11.67c-0.074,0.078-0.144,0.161-0.21,0.244
			c-0.417,1.386,0.128,3.889,0.685,5.809c0.516,1.783,1.258,3.801,2.05,5.6L72.543,63.32z"/>
		<path fill="#964025" d="M72.707,63.342c-0.562-1.604-1.104-3.72-1.456-5.736c-0.75-4.332-0.356-6.22,0.005-7.006
			c-0.055,0.027-0.108,0.056-0.16,0.086c-1.014,2.514,0.181,8.916,1.479,12.639L72.707,63.342z"/>
		<path fill="#964025" d="M73.766,63.48l1.77-13.472c-0.035-0.005-0.074-0.01-0.111-0.013l-1.77,13.471L73.766,63.48z"/>
		<path fill="#964025" d="M74.504,63.577l0.11,0.015c1.683-3.254,4.183-10.193,3.512-12.773c-0.043-0.021-0.089-0.041-0.136-0.059
			c0.382,1.264-0.086,3.996-1.291,7.537C76.018,60.299,75.197,62.25,74.504,63.577z"/>
		<path fill="#964025" d="M74.735,63.608l0.134,0.017c2.214-3.256,5.014-9.125,4.693-11.819c-0.043-0.04-0.087-0.084-0.134-0.125
			c0.143,0.858,0.03,2.783-1.808,6.761C76.765,60.3,75.692,62.204,74.735,63.608z"/>
		<path fill="#964025" d="M74.158,63.533l0.106,0.014c1.104-3.371,2.905-11.062,2.448-13.294l-0.063-0.023
			c-0.019-0.005-0.042-0.011-0.062-0.016C77.097,52.348,75.263,60.178,74.158,63.533z"/>
		<path fill="#964025" d="M80.618,53.357c-0.039-0.099-0.086-0.195-0.136-0.291c0.332,2.084-2.775,7.072-5.581,10.563l0.13,0.017
			c1.229-1.532,2.468-3.291,3.426-4.88C79.482,57.064,80.646,54.805,80.618,53.357z"/>
		<path fill="#964025" d="M81.002,55.784c0.01-0.103,0.017-0.205,0.021-0.308c-0.431,1.965-2.872,4.844-5.843,8.19l0.136,0.018
			c2.779-3.128,4.959-5.694,5.652-7.622c0.006-0.032,0.011-0.063,0.014-0.096C80.991,55.905,80.998,55.845,81.002,55.784z"/>
	</g>
	<path fill="#964025" stroke="#FFFFFF" stroke-miterlimit="10" d="M72.336,63.305c0,0,1.487,0.195,2.577,0.338
		c0,0-0.7,0.982-0.871,0.994c-0.169,0.011-0.925-0.121-0.925-0.121s-0.155-0.088-0.266-0.271
		C72.741,64.062,72.336,63.305,72.336,63.305z"/>
	<g>
		<path fill="#B56242" d="M73.854,66.416l-0.194-0.295l-0.1-0.203l-0.386-0.051l-0.288,0.328l-0.271,0.02h-0.189l-0.179-0.14
			c-0.227-0.208-0.249-0.547-0.056-0.776l0.231-0.264l0.289-2.209l0.977,0.135l0.001-0.008l1.102,0.154l-0.289,2.203l0.362,0.736
			l-0.451,0.305l-0.11,0.06l-0.15,0.005H73.854z"/>
		<path fill="#FFFFFF" d="M73.143,63.391l0.113,0.016l-0.239,1.821l0.863,0.112l0.239-1.821l0.111,0.016l-0.244,1.861l0.216,0.438
			c0.014,0.028,0.002,0.062-0.025,0.077c-0.008,0.003-0.016,0.005-0.024,0.005c-0.021,0-0.042-0.012-0.053-0.031l-0.209-0.428
			l-0.917-0.12l-0.314,0.358c-0.012,0.014-0.027,0.02-0.044,0.02c-0.002,0-0.004,0-0.007,0c-0.011-0.002-0.021-0.006-0.029-0.014
			c-0.023-0.021-0.025-0.057-0.005-0.081l0.324-0.369L73.143,63.391 M72.282,62.263l-0.131,0.998l-0.205,1.559l-0.123,0.141
			c-0.381,0.452-0.339,1.095,0.08,1.479l0.213,0.194l0.312,0.065l0.04,0.008l0.04,0.004l0.05,0.005h0.057
			c0.249,0,0.488-0.088,0.678-0.245c0.209,0.287,0.521,0.446,0.859,0.446h0.215l0.219-0.092l0.032-0.015l0.031-0.017
			c0.501-0.27,0.7-0.881,0.453-1.394l-0.085-0.174l0.204-1.562l0.129-0.982l-0.981-0.138l-0.111-0.016l-0.999-0.14l-0.001,0.008
			L72.282,62.263L72.282,62.263z"/>
	</g>
	<g>
		<path fill="#734B29" d="M73.956,67.376l-1.538-0.2c-0.369-0.053-0.617-0.379-0.57-0.743l0.098-0.744
			c0.043-0.328,0.325-0.576,0.655-0.576l1.631,0.208c0.361,0.049,0.616,0.382,0.569,0.743l-0.098,0.743
			c-0.043,0.328-0.323,0.576-0.653,0.576L73.956,67.376z"/>
		<path fill="#FFFFFF" d="M72.601,65.611c0.007,0,0.015,0.001,0.021,0.002l1.544,0.203c0.088,0.012,0.15,0.093,0.139,0.183
			l-0.098,0.742c-0.011,0.083-0.078,0.142-0.157,0.142c-0.008,0-0.016-0.001-0.023-0.002l-1.544-0.201
			c-0.089-0.013-0.15-0.092-0.139-0.183l0.098-0.743C72.452,65.672,72.521,65.611,72.601,65.611 M72.601,64.611
			c-0.581,0-1.075,0.436-1.15,1.014l-0.098,0.742c-0.081,0.629,0.362,1.213,0.988,1.303l1.557,0.203l0.064,0.008l0.088,0.002
			c0.58,0,1.074-0.436,1.149-1.014l0.097-0.74c0.083-0.635-0.364-1.219-0.998-1.304l-1.545-0.203l-0.065-0.009L72.601,64.611
			L72.601,64.611z"/>
	</g>
</g>
<g>
	<path d="M48.93,73.448c-0.083,0-0.166-0.012-0.245-0.033c-0.404-0.105-0.676-0.402-0.74-0.814
		c-0.062-0.385-0.063-0.889-0.018-1.479c-0.084,0.021-0.167,0.035-0.245,0.05l-0.577,0.108c0,0-0.017-0.686-0.019-0.735
		c-0.006,0.014-0.223,0.511-0.223,0.511l-0.501-0.138c-0.119-0.056-0.226-0.117-0.318-0.185c-0.124,0.562-0.239,1.126-0.346,1.691
		l-0.104,0.558l-0.539-0.173c-0.235-0.075-0.503-0.178-0.712-0.368c-0.176-0.151-0.285-0.353-0.319-0.583
		c-0.09,0.022-0.185,0.04-0.287,0.054l-0.519,0.07l-0.046-0.521c-0.024-0.278-0.067-0.561-0.129-0.846
		c-0.022,0.089-0.047,0.178-0.074,0.265c-0.079,0.252-0.15,0.459-0.298,0.653c-0.2,0.247-0.449,0.396-0.797,0.485
		c-0.096,0.025-0.215,0.039-0.349,0.039c-0.226,0-0.489-0.038-0.673-0.098c-0.309-0.118-0.516-0.312-0.623-0.574
		c-0.013,0.017-0.287,0.393-0.287,0.393l-0.379-0.19c-0.324-0.162-0.587-0.495-0.669-0.848c-0.069-0.287-0.01-0.586,0.163-0.815
		c0.287-0.372,0.586-0.728,0.886-1.053c-0.042,0.002-0.726,0.039-0.726,0.039l0.077-0.597c0.035-0.268,0.099-0.575,0.31-0.818
		c0.079-0.096,0.203-0.205,0.385-0.275l0.091-0.485c0.048-0.255,0.101-0.542,0.302-0.763l-0.339,0.017l0.103-0.612
		c0.067-0.407,0.141-0.775,0.221-1.111l-0.301,0.063l0.138-0.736c0.043-0.232,0.103-0.551,0.29-0.8
		c0.116-0.141,0.241-0.225,0.363-0.276l-0.531,0.011l0.158-0.634c0.07-0.29,0.121-0.5,0.243-0.686
		c0.097-0.176,0.34-0.427,0.844-0.444c0.002,0,0.004,0,0.004,0c1.192,0,3.99,0.394,4.833,0.53l0.505,0.081l-0.113,0.609
		c0.61-0.127,1.133-0.188,1.632-0.188c0.557,0,1.062,0.076,1.546,0.231c0.558,0.188,0.919,0.469,1.113,0.859
		c0.154,0.339,0.174,0.712,0.067,1.191c-0.499,2.082-1.022,4.395-1.303,6.379l0.059,0.047c0.178,0.144,0.428,0.371,0.537,0.686
		c0.091,0.267,0.081,0.521-0.027,0.76c-0.146,0.344-0.369,0.8-0.75,1.172C49.403,73.391,49.12,73.448,48.93,73.448z M48.234,64.717
		c0.034-0.053,0.355-0.525,0.355-0.525l0.595,0.337c0.075-0.31,0.151-0.618,0.228-0.925c-0.259-0.045-0.63-0.086-0.989-0.086
		c-0.166,0-0.323,0.009-0.468,0.024c-0.069,0.237-0.139,0.475-0.208,0.712l0.349-0.128C48.096,64.126,48.231,64.702,48.234,64.717z
		 M45.184,62.855c0.139,0.068,0.275,0.156,0.397,0.271c0.053,0.047,0.102,0.098,0.146,0.15c0.008-0.097,0.021-0.208,0.047-0.322
		C45.59,62.92,45.387,62.887,45.184,62.855z"/>
	<path fill="#FFFFFF" d="M41.664,61.262c1.025,0,3.748,0.377,4.663,0.524l-0.138,0.74c-0.436-0.095-1.133-0.199-1.635-0.268
		c-0.032,0.308-0.078,0.625-0.112,0.87c0.313,0.071,0.597,0.176,0.799,0.363c0.193,0.175,0.303,0.396,0.331,0.715
		c0.042,0.586-0.079,1.23-0.21,1.797c-1.364-0.322-2.795-0.56-4.164-0.56c-0.188,0-0.374,0.005-0.56,0.014
		c0.1-0.598,0.232-1.237,0.414-1.808c-0.102,0.006-0.267,0.014-0.358,0.033c0.036-0.193,0.082-0.437,0.198-0.591
		c0.081-0.098,0.178-0.143,0.357-0.159c0.267-0.02,0.535-0.024,0.801-0.024c0.167,0,0.333,0.002,0.497,0.004
		c0.061-0.19,0.165-0.548,0.244-0.835c-0.513-0.041-1.027-0.067-1.54-0.067c-0.095,0-0.189,0.001-0.283,0.003
		c0.051-0.203,0.088-0.398,0.176-0.532c0.076-0.137,0.216-0.211,0.443-0.219C41.612,61.262,41.638,61.262,41.664,61.262
		 M43.279,62.962c0.02-0.001,0.041-0.002,0.062-0.002c0.146,0,0.325,0.024,0.42,0.042c0.041-0.281,0.069-0.564,0.081-0.827
		c-0.087-0.004-0.248-0.021-0.336-0.024C43.454,62.367,43.341,62.772,43.279,62.962 M42.128,64.82
		c0.065-0.353,0.154-0.826,0.237-1.199c-0.069-0.008-0.141-0.012-0.214-0.012c-0.097,0-0.195,0.006-0.29,0.018
		c-0.121,0.379-0.256,0.831-0.305,1.161C41.719,64.793,41.905,64.803,42.128,64.82 M43.423,64.949
		c0.058-0.303,0.153-0.813,0.222-1.253c-0.175-0.021-0.352-0.054-0.531-0.054c-0.008,0-0.016,0-0.023,0
		c-0.097,0.447-0.154,0.825-0.242,1.225C43.044,64.891,43.292,64.912,43.423,64.949 M44.727,65.168
		c0.062-0.264,0.105-0.559,0.109-0.784c0.001-0.138-0.027-0.256-0.099-0.345c-0.069-0.101-0.196-0.162-0.391-0.199
		c-0.045,0.307-0.14,0.815-0.227,1.215L44.727,65.168 M48.431,62.296c0.464,0,0.932,0.059,1.394,0.207
		c0.414,0.141,0.68,0.329,0.817,0.606c0.106,0.232,0.105,0.51,0.027,0.859c-0.631,2.633-1.271,5.504-1.462,7.743
		c0.169-0.232,0.283-0.513,0.392-0.819c0.142,0.114,0.313,0.272,0.379,0.461c0.041,0.12,0.054,0.249-0.01,0.388
		c-0.158,0.372-0.353,0.737-0.645,1.022c-0.13,0.13-0.267,0.184-0.394,0.184c-0.039,0-0.078-0.005-0.114-0.015
		c-0.169-0.044-0.337-0.151-0.377-0.409c-0.275-1.686,0.803-6.159,1.459-8.8c0.067-0.289-0.117-0.513-0.356-0.582
		c-0.308-0.079-0.715-0.124-1.118-0.124c-0.304,0-0.604,0.025-0.858,0.081c-0.9,3.061-1.769,6.09-2.357,9.233
		c-0.177-0.057-0.389-0.135-0.528-0.262c-0.13-0.112-0.199-0.277-0.154-0.52c0.599-2.79,1.284-5.514,2.132-8.296
		c-0.129,0.013-0.298,0.045-0.434,0.095c0.013-0.199,0.056-0.43,0.148-0.588c0.073-0.125,0.19-0.217,0.375-0.256
		C47.289,62.386,47.857,62.296,48.431,62.296 M47.738,64.789c0.105,0.447,0.186,0.89,0.234,1.301
		c0.163-0.271,0.545-0.903,0.771-1.236l0.624,0.354c-0.327,0.543-0.943,1.621-1.241,2.131c0.091,0.796,0.198,2.299,0.206,2.728
		c0.005,0.177-0.042,0.294-0.134,0.377c-0.14,0.149-0.374,0.193-0.609,0.237c-0.018-0.707-0.051-1.404-0.108-2.106
		c-0.331,0.566-0.622,1.241-0.906,1.892c-0.22-0.104-0.407-0.24-0.487-0.418c-0.056-0.11-0.059-0.225,0.007-0.375
		c0.397-0.844,0.817-1.682,1.272-2.502c-0.055-0.714-0.196-1.432-0.289-2.14L47.738,64.789 M41.275,66.146
		c1.186,0,2.414,0.148,3.633,0.4l-0.127,0.679c-1.426-0.305-2.829-0.39-4.21-0.397c0.043-0.23,0.079-0.426,0.201-0.541
		c0.079-0.086,0.202-0.138,0.391-0.141C41.2,66.146,41.238,66.146,41.275,66.146 M40.788,67.643c1.384,0,2.822,0.208,4.226,0.494
		l-0.128,0.68c-0.702-0.144-1.387-0.247-2.077-0.313c-0.045,0.708-0.096,1.516-0.317,2.228c-0.063,0.203-0.118,0.367-0.219,0.5
		c-0.114,0.141-0.271,0.238-0.522,0.303c-0.062,0.017-0.141,0.023-0.225,0.023c-0.185,0-0.396-0.033-0.52-0.073
		c-0.188-0.072-0.291-0.193-0.336-0.353c-0.056-0.174-0.041-0.385-0.018-0.58c0.188,0.072,0.434,0.168,0.657,0.185
		c0.037,0.004,0.071,0.006,0.102,0.006c0.204,0,0.279-0.087,0.338-0.338c0.157-0.712,0.255-1.298,0.231-1.979
		c-0.485-0.041-0.975-0.065-1.461-0.065c-0.244,0-0.487,0.006-0.729,0.02c0.03-0.233,0.079-0.426,0.191-0.556
		c0.081-0.098,0.209-0.174,0.41-0.174C40.523,67.645,40.656,67.643,40.788,67.643 M40.844,68.662l0.612,0.48
		c-0.57,0.635-1.16,1.303-1.668,1.998c-0.194-0.098-0.357-0.305-0.406-0.515c-0.035-0.146-0.009-0.29,0.075-0.401
		C39.872,69.688,40.352,69.137,40.844,68.662 M43.868,69.016c0.244,0.574,0.438,1.15,0.543,1.735
		c0.04,0.184-0.011,0.323-0.104,0.419c-0.153,0.148-0.404,0.215-0.637,0.246c-0.064-0.729-0.243-1.453-0.503-2.143L43.868,69.016
		 M41.664,60.262l-0.098,0.001c-0.756,0.026-1.119,0.435-1.276,0.698c-0.156,0.25-0.22,0.514-0.271,0.727l-0.021,0.084l-0.317,1.268
		l0.141-0.003c-0.057,0.175-0.087,0.335-0.111,0.464l-0.275,1.474l0.283-0.06c-0.022,0.123-0.045,0.249-0.066,0.38l-0.204,1.226
		l0.166-0.009c-0.01,0.046-0.018,0.09-0.025,0.132l-0.046,0.247c-0.123,0.079-0.233,0.178-0.33,0.294
		c-0.285,0.33-0.372,0.744-0.414,1.065l-0.154,1.194l0.161-0.01c-0.047,0.06-0.094,0.119-0.14,0.18
		c-0.271,0.359-0.361,0.811-0.256,1.248c0.113,0.49,0.471,0.942,0.929,1.173l0.757,0.38l0.156-0.213
		c0.117,0.086,0.249,0.159,0.395,0.215l0.025,0.011l0.027,0.009c0.232,0.074,0.549,0.121,0.826,0.121
		c0.18,0,0.338-0.019,0.481-0.057c0.28-0.072,0.521-0.183,0.726-0.335l0.033,0.382l0.93-0.125c0.083,0.151,0.193,0.287,0.329,0.404
		c0.263,0.24,0.608,0.372,0.878,0.458l1.079,0.346l0.208-1.114c0.065-0.346,0.133-0.689,0.204-1.031l0.219,0.104l0.007,0.29
		l0.437-0.081l0.024,0.011l0.007-0.017l0.31-0.058c-0.006,0.36,0.011,0.681,0.055,0.951c0.094,0.602,0.51,1.06,1.112,1.216
		c0.112,0.03,0.239,0.048,0.366,0.048c0.402,0,0.793-0.17,1.101-0.478c0.441-0.431,0.701-0.971,0.857-1.338
		c0.103-0.222,0.202-0.617,0.036-1.103c-0.118-0.342-0.337-0.595-0.534-0.776c0.284-1.9,0.78-4.082,1.252-6.053
		c0.086-0.386,0.167-0.945-0.091-1.508c-0.27-0.543-0.725-0.906-1.405-1.137c-0.542-0.175-1.113-0.261-1.715-0.261
		c-0.323,0-0.654,0.023-1.009,0.071l0.076-0.405l-1.012-0.163C45.633,60.661,42.79,60.262,41.664,60.262L41.664,60.262z"/>
</g>
<g>
	<path d="M55.665,70.747c-0.201-0.106-0.451-0.238-0.631-0.461c-0.168-0.184-0.353-0.541-0.168-1.067
		c0.407-1.225,0.981-2.533,1.749-3.989c-0.778-0.684-1.589-1.219-2.212-1.61l-0.406-0.255l0.368-0.641
		c0.097-0.165,0.204-0.345,0.25-0.444l0.23-0.492l0.472,0.271c0.822,0.472,1.449,0.893,2.018,1.354l0.042-0.585l0.004-0.132
		c0.002-0.085,0.003-0.184,0.016-0.288l-0.278,0.563l-0.529-0.323c-0.844-0.698-1.584-1.214-2.201-1.532l-0.503-0.26l1.065-1.553
		l0.392,0.198c0.456,0.231,1.623,0.99,2.015,1.31c0.179,0.172,0.399,0.485,0.282,0.998c0.144-0.18,0.337-0.294,0.581-0.351
		c0.267-0.055,0.617-0.127,0.951-0.192c-0.25-0.285-0.525-0.556-0.796-0.815l-0.439-0.422l0.501-0.349
		c0.237-0.166,0.49-0.334,0.757-0.475l0.314-0.167l0.26,0.242c0.512,0.474,0.927,0.94,1.234,1.385
		c0.062,0.071,0.107,0.168,0.132,0.276c0.076-0.011,0.151-0.021,0.228-0.032c0.018-0.189,0.09-0.349,0.148-0.479l0.065-0.119
		c0.229-0.401,0.475-0.832,0.706-1.195l0.206-0.323l0.366,0.115c0.211,0.066,0.618,0.188,0.828,0.244l0.646,0.171
		c0,0-0.716,1.167-0.817,1.339l1.662-0.14l0.147,1.779l-0.506,0.035c-0.596,0.041-1.732,0.142-2.506,0.228
		c0.03,0.237,0.058,0.484,0.084,0.725c0.674-0.065,1.36-0.131,1.984-0.185l0.499-0.043l0.042,0.499
		c0.017,0.192,0.049,0.578,0.053,0.784l0.009,0.469l-0.467,0.039c-0.617,0.053-1.305,0.111-1.938,0.183
		c0.018,0.214,0.036,0.443,0.053,0.666c0.927-0.108,2.017-0.228,2.78-0.304l0.505-0.05l0.042,0.506
		c0.012,0.134,0.076,0.762,0.076,0.762l0.043,0.504l-0.505,0.037c-0.854,0.062-1.84,0.16-2.82,0.28
		c0.036,0.752,0.07,1.664,0.09,2.502l0.01,0.442l-0.438,0.064c-0.217,0.031-0.639,0.068-0.857,0.085l-0.53,0.042l-0.009-0.532
		c-0.012-0.729-0.04-1.566-0.077-2.323c-0.923,0.148-1.902,0.362-2.918,0.638l-0.575,0.156c0,0-0.058-0.637-0.06-0.658
		c-0.385,0.854-0.724,1.727-1.011,2.608l-0.185,0.563L55.665,70.747z M58.02,66.542c0.013-0.004,0.024-0.008,0.036-0.011
		c0.845-0.259,1.812-0.418,2.665-0.558l0.103-0.017c-0.014-0.215-0.032-0.442-0.052-0.663c-0.649,0.099-1.328,0.234-2.06,0.411
		l-0.278,0.066C58.434,65.771,58.104,66.379,58.02,66.542z M58.084,65.38l0.016-0.335c0.001-0.146,0.003-0.33,0.052-0.514
		c0.074-0.354,0.349-0.613,0.745-0.691c0.362-0.078,1.1-0.204,1.684-0.302c-0.025-0.249-0.058-0.499-0.089-0.721
		c-0.797,0.136-2.048,0.393-2.466,0.523l-0.566,0.177c0.273,0.264,0.363,0.645,0.243,1.035c-0.04,0.167-0.117,0.338-0.19,0.476
		C57.573,65.066,57.976,65.316,58.084,65.38z"/>
	<path fill="#FFFFFF" d="M62.703,59.384c0.217,0.068,0.636,0.194,0.851,0.251c-0.261,0.43-0.679,1.061-0.906,1.601l2.068-0.174
		l0.064,0.775c-0.776,0.054-2.363,0.198-3.037,0.292c0.08,0.514,0.147,1.166,0.205,1.706c0.824-0.082,1.696-0.167,2.472-0.233
		c0.016,0.185,0.047,0.555,0.051,0.752c-0.712,0.061-1.648,0.139-2.434,0.242c0.035,0.418,0.096,1.133,0.128,1.663
		c1.007-0.122,2.382-0.274,3.292-0.364c0.021,0.246,0.062,0.59,0.076,0.762c-1.048,0.076-2.215,0.199-3.307,0.341
		c0.044,0.813,0.089,1.938,0.112,2.952c-0.208,0.03-0.614,0.065-0.824,0.082c-0.015-0.916-0.056-2.004-0.106-2.891
		c-1.176,0.16-2.381,0.422-3.52,0.73c-0.016-0.174-0.03-0.358-0.007-0.521c0.036-0.151,0.112-0.283,0.306-0.336
		c1.004-0.308,2.155-0.466,3.157-0.637c-0.017-0.482-0.071-1.135-0.127-1.65c-0.883,0.111-1.761,0.284-2.623,0.492
		c0.011-0.174-0.007-0.382,0.04-0.56c0.035-0.165,0.137-0.285,0.357-0.328c0.474-0.103,1.551-0.279,2.124-0.376
		c-0.034-0.556-0.129-1.23-0.206-1.707c-0.649,0.08-2.49,0.445-3.034,0.615c0.012-0.162-0.006-0.358,0.042-0.536
		c0.059-0.179,0.159-0.323,0.414-0.382c0.5-0.104,1.328-0.273,1.731-0.332c-0.355-0.553-0.844-1.045-1.342-1.523
		c0.222-0.154,0.457-0.312,0.706-0.443c0.417,0.387,0.839,0.834,1.163,1.303c0.069,0.081,0.08,0.217,0.04,0.318
		c-0.029,0.103-0.109,0.184-0.176,0.276c0.403-0.059,1.053-0.151,1.531-0.216c-0.097-0.116-0.132-0.237-0.129-0.35
		c0.004-0.111,0.056-0.227,0.108-0.344C62.203,60.219,62.461,59.764,62.703,59.384 M55.115,59.947
		c0.44,0.224,1.567,0.959,1.926,1.251c0.15,0.147,0.154,0.347,0.097,0.55s-0.166,0.386-0.229,0.515
		c-0.692-0.573-1.526-1.197-2.291-1.592C54.762,60.46,54.972,60.157,55.115,59.947 M55.068,62.491
		c0.717,0.411,1.384,0.839,2.023,1.368c0.173,0.146,0.191,0.355,0.133,0.546c-0.046,0.189-0.143,0.372-0.218,0.503
		c-0.751-0.669-1.539-1.211-2.338-1.713C54.788,62.986,54.995,62.647,55.068,62.491 M57.107,65.369
		c0.169,0.098,0.511,0.317,0.732,0.447c-0.795,1.455-1.438,2.946-1.941,4.488c-0.182-0.096-0.362-0.192-0.475-0.332
		c-0.136-0.149-0.176-0.332-0.086-0.588C55.783,68.047,56.391,66.719,57.107,65.369 M62.272,58.199l-0.413,0.646
		c-0.234,0.369-0.473,0.785-0.702,1.188c-0.289-0.366-0.641-0.742-1.05-1.121l-0.521-0.482l-0.627,0.332
		c-0.302,0.159-0.578,0.346-0.81,0.507l-1.001,0.696l0.291,0.28c-0.526-0.385-1.448-0.975-1.872-1.19l-0.783-0.397l-0.495,0.725
		l-0.264,0.383l-0.234,0.34l-0.64,0.935l1.006,0.52c0.063,0.032,0.127,0.067,0.193,0.104l-0.188,0.402
		c-0.043,0.091-0.142,0.254-0.229,0.404L53.8,62.7l-0.474,0.832l0.811,0.51c0.528,0.332,1.193,0.769,1.852,1.31
		c-0.689,1.34-1.214,2.561-1.6,3.717c-0.267,0.762,0.047,1.293,0.274,1.554c0.241,0.289,0.546,0.449,0.77,0.567l1.049,0.553
		l0.368-1.127c0.173-0.532,0.365-1.06,0.575-1.582l0.726-0.197c0.798-0.216,1.572-0.394,2.313-0.53
		c0.024,0.596,0.042,1.202,0.051,1.741l0.018,1.065l1.062-0.084c0.227-0.019,0.665-0.057,0.889-0.09l0.877-0.127l-0.021-0.886
		c-0.015-0.641-0.04-1.369-0.069-2.049c0.818-0.094,1.624-0.172,2.336-0.224l1.01-0.073l-0.086-1.009
		c-0.007-0.081-0.02-0.199-0.033-0.328c-0.015-0.144-0.031-0.302-0.043-0.432L66.369,64.8l-0.888,0.087l-0.011-0.553
		c-0.004-0.215-0.037-0.616-0.055-0.816L65.355,62.8l0.506-0.035l-0.084-1.011l-0.064-0.775l-0.083-0.997l-0.998,0.083l-0.179,0.016
		l0.65-1.071l-1.295-0.341c-0.203-0.054-0.6-0.173-0.805-0.238L62.272,58.199L62.272,58.199z"/>
</g>
<g>
	<path d="M77.965,80.5c-2.759-0.752-5.529-1.153-8.12-1.471c-0.66,0.441-1.214,0.85-1.73,1.275l-0.351,0.289l-0.321-0.321
		c-0.181-0.181-0.337-0.434-0.418-0.677c-0.144-0.406-0.027-0.805,0.313-1.056c0.515-0.383,1.05-0.758,1.579-1.122
		c0.009-0.835,0.008-1.959-0.002-2.896c-0.415,0.005-0.824,0.143-1.22,0.275l-0.567,0.191l-0.087-0.593
		c-0.016-0.108-0.059-0.49,0.057-0.836c0.112-0.334,0.36-0.563,0.699-0.649c0.414-0.121,0.891-0.188,1.359-0.188l0.135,0.002
		c0.092,0.004,0.182,0.015,0.269,0.033l-0.244-0.417c-0.406-0.694-0.958-1.413-1.688-2.197l-0.385-0.414l1.522-1.104l0.302,0.309
		c0.59,0.603,1.103,1.207,1.566,1.846c0.163,0.225,0.223,0.476,0.176,0.729c0.101-0.064,0.213-0.107,0.333-0.126
		c1.53-0.195,3.118-0.321,4.451-0.355c-0.019-0.475-0.054-1.003-0.106-1.602l-0.048-0.544h1.891l0.031,0.467
		c0.027,0.417,0.062,1.11,0.088,1.646c0.211,0.002,0.44,0.005,0.642,0.012l0.482,0.017v1.77l-0.521-0.021
		c-0.149-0.007-0.346-0.01-0.534-0.01h-0.001c0.021,1.388,0.026,2.793-0.096,4.197c-0.033,0.402-0.181,0.739-0.438,1
		c-0.132,0.13-0.28,0.233-0.449,0.312c0.426,0.085,0.854,0.175,1.285,0.269c0.268,0.062,0.604,0.246,0.738,0.772
		c0.065,0.246,0.055,0.511,0.039,0.738l-0.041,0.608L77.965,80.5z M70.758,77.349c1.022,0.122,2.041,0.266,3.067,0.433
		c-0.093-0.238-0.145-0.488-0.145-0.691v-0.22l-0.016,0.013l-0.309-0.425c-0.476-0.654-1.128-1.32-2.054-2.098l-0.444-0.373
		l1.025-0.906c-0.342,0.043-0.688,0.091-1.038,0.144l-0.421,0.063c0.216,0.287,0.329,0.616,0.329,0.948
		C70.764,75.258,70.766,76.328,70.758,77.349z M74.245,76.594c0.244,0.032,0.521,0.05,0.795,0.05c0.187,0,0.373-0.009,0.548-0.026
		c0.112-1.172,0.107-2.605,0.081-3.836c-0.977,0.022-2.019,0.097-3.114,0.219l0.015,0.011c0.846,0.644,1.469,1.218,1.96,1.809
		c0.191,0.238,0.254,0.564,0.176,0.901l-0.012,0.052L74.67,75.82c-0.123,0.263-0.335,0.523-0.596,0.733l-0.02,0.016L74.245,76.594z
		 M69.576,72.761c0.251,0.055,0.478,0.166,0.663,0.327l0.034-0.4c0.01-0.121,0.021-0.264,0.056-0.412
		c-0.117,0.106-0.234,0.19-0.334,0.247L69.576,72.761z"/>
	<path fill="#FFFFFF" d="M68.709,69.284c0.568,0.581,1.062,1.161,1.52,1.79c0.136,0.187,0.111,0.359,0.025,0.52
		c-0.125,0.21-0.334,0.396-0.507,0.494c-0.47-0.803-1.087-1.568-1.754-2.285L68.709,69.284 M76.861,69.383
		c0.037,0.557,0.086,1.605,0.11,2.112c0.26,0,0.729,0,1.101,0.013v0.766c-0.154-0.006-0.358-0.01-0.555-0.01
		s-0.385,0.004-0.509,0.01c0.024,1.544,0.05,3.088-0.086,4.645c-0.024,0.295-0.124,0.518-0.296,0.691
		c-0.174,0.172-0.396,0.271-0.668,0.32C75.697,77.978,75.426,78,75.152,78c-0.151,0-0.303-0.008-0.453-0.021
		c-0.16,0-0.271-0.111-0.357-0.259c-0.099-0.198-0.161-0.458-0.161-0.631c0.265,0.034,0.562,0.053,0.859,0.053
		c0.244,0,0.487-0.012,0.71-0.04c0.147-0.024,0.309-0.124,0.32-0.284c0.148-1.383,0.123-3.174,0.087-4.545
		c-1.815,0.012-3.656,0.197-5.386,0.457c0.013-0.148,0.024-0.358,0.111-0.543c0.062-0.148,0.174-0.285,0.334-0.31
		c1.457-0.186,3.298-0.346,4.891-0.358c-0.012-0.691-0.062-1.433-0.123-2.137H76.861 M69.156,73.223c0.04,0,0.081,0.001,0.121,0.002
		c0.284,0.012,0.531,0.123,0.704,0.309c0.16,0.186,0.272,0.432,0.272,0.703c0.012,1.174,0.012,2.408,0,3.558
		c2.519,0.284,4.952,0.692,7.459,1.235c0.21,0.05,0.309,0.21,0.359,0.408c0.049,0.185,0.036,0.407,0.024,0.58
		c-2.768-0.754-5.533-1.162-8.375-1.507c-0.654,0.432-1.297,0.89-1.926,1.408c-0.112-0.112-0.235-0.297-0.297-0.481
		c-0.062-0.174-0.05-0.358,0.136-0.495c0.58-0.432,1.186-0.853,1.779-1.259c0.012-0.865,0.012-2.162,0-3.212
		c0-0.198-0.075-0.433-0.322-0.444c-0.052-0.004-0.104-0.005-0.154-0.005c-0.498,0-0.965,0.155-1.401,0.302
		c-0.025-0.174-0.025-0.421,0.036-0.605c0.05-0.148,0.148-0.272,0.347-0.322C68.303,73.284,68.729,73.223,69.156,73.223
		 M72.267,73.409c0.667,0.507,1.334,1.075,1.878,1.729c0.099,0.123,0.11,0.309,0.073,0.469c-0.099,0.21-0.272,0.408-0.457,0.557
		c-0.593-0.815-1.371-1.544-2.137-2.187L72.267,73.409 M68.82,67.969l-0.698,0.506l-0.716,0.519l-0.915,0.663l0.77,0.828
		c0.583,0.625,1.046,1.205,1.408,1.76c-0.354,0.032-0.704,0.097-1.031,0.192c-0.465,0.116-0.849,0.472-1.014,0.964
		c-0.146,0.44-0.103,0.894-0.077,1.068l0.173,1.186l1.136-0.383c0.187-0.062,0.377-0.127,0.564-0.174
		c0.004,0.698,0.004,1.436,0,2.057c-0.439,0.303-0.916,0.64-1.382,0.986c-0.517,0.38-0.703,1.006-0.481,1.631
		c0.1,0.301,0.296,0.618,0.532,0.854l0.643,0.643l0.7-0.578c0.464-0.382,0.958-0.749,1.537-1.142
		c2.52,0.311,5.201,0.708,7.865,1.434l1.178,0.32l0.083-1.218c0.018-0.267,0.03-0.579-0.056-0.903
		c-0.149-0.583-0.549-0.996-1.096-1.125c-0.114-0.025-0.229-0.05-0.343-0.074c0.183-0.285,0.288-0.613,0.319-0.982
		c0.109-1.254,0.117-2.504,0.104-3.728c0.002,0,0.005,0,0.008,0l1.041,0.043v-1.042v-0.766v-0.967l-0.966-0.033
		c-0.059-0.002-0.119-0.003-0.182-0.005c-0.021-0.431-0.046-0.882-0.065-1.187l-0.062-0.934h-0.936h-0.877h-1.091l0.095,1.087
		c0.033,0.388,0.061,0.744,0.08,1.076c-1.188,0.048-2.528,0.16-3.828,0.321c-0.047-0.133-0.115-0.26-0.203-0.381
		c-0.479-0.659-1.006-1.281-1.613-1.901L68.82,67.969L68.82,67.969z M73.814,73.381c0.467-0.038,0.922-0.066,1.364-0.084
		c0.008,0.555,0.01,1.135-0.003,1.701c-0.052-0.178-0.137-0.342-0.251-0.484C74.606,74.131,74.244,73.761,73.814,73.381
		L73.814,73.381z M71.261,76.906c0.003-0.635,0.003-1.284-0.001-1.925c0.747,0.648,1.289,1.217,1.692,1.771l0.229,0.314v0.023
		c0,0.027,0.001,0.056,0.002,0.084C72.541,77.076,71.901,76.987,71.261,76.906L71.261,76.906z"/>
</g>
<g>
	<path d="M89.213,75.15c-0.293,0-0.595-0.037-0.873-0.106c-0.326-0.068-0.58-0.309-0.697-0.672
		c-0.082-0.246-0.079-0.491-0.076-0.687l0.001-0.073C87.25,73.604,86.941,73.6,86.64,73.6c-0.837,0-1.633,0.035-2.367,0.104
		l-0.604,0.056l0.06-0.603c0.086-0.864,0.177-1.584,0.284-2.251c-0.077,0.013-0.149,0.026-0.211,0.041l-0.407,0.091
		c-0.546,1.062-1.005,2.053-1.363,3.106l-0.209,0.613l-0.541-0.357c-0.108-0.072-0.382-0.267-0.58-0.524
		c-0.388-0.49-0.304-0.896-0.165-1.15c0.385-1.053,1.733-3.465,2-3.937l0.1-0.177c-0.537-0.646-1.046-1.172-1.546-1.602
		l-0.404-0.347l1.271-1.311l0.356,0.303c0.464,0.396,1.148,1,1.729,1.688c0.127,0.151,0.204,0.319,0.229,0.495l0.003-0.03
		c0.009-0.129,0.02-0.264,0.044-0.402c-0.127-0.109-0.267-0.233-0.376-0.397c-0.065-0.083-0.116-0.171-0.152-0.263l-0.233-0.297
		c-0.518-0.66-1.185-1.332-1.98-1.996l-0.435-0.362l0.413-0.387c0.092-0.085,0.248-0.241,0.388-0.381l0.476-0.471l0.344,0.256
		c0.603,0.447,1.215,0.999,1.871,1.686c0.022,0.025,0.048,0.056,0.074,0.093c0.468-0.53,0.991-1.073,1.412-1.456l0.234-0.213
		l0.605,0.252c0.184,0.078,0.38,0.161,0.504,0.209l0.723,0.281l-0.462,0.451c0.227-0.004,0.455-0.006,0.686-0.006
		c1.212,0,2.485,0.05,3.682,0.144l0.503,0.039l-0.044,0.503c-0.024,0.281-0.054,0.609-0.085,0.836l-0.064,0.47l-0.474-0.04
		c-0.891-0.076-1.906-0.153-2.945-0.184c0.339,0.02,0.646,0.049,0.901,0.085c0.434,0.067,0.742,0.19,1.035,0.414
		c0.295,0.234,0.638,0.668,0.652,1.443c0.004,0.284-0.017,0.673-0.037,0.984l0.769,0.066l-0.043,0.497
		c-0.015,0.179-0.06,0.562-0.094,0.802l-0.071,0.498c0,0-0.607-0.089-0.67-0.096c-0.037,0.397-0.079,0.826-0.116,1.196l0.788,0.072
		l-0.081,0.528c-0.027,0.176-0.069,0.526-0.088,0.751l-0.041,0.5l-0.838-0.072c-0.079,0.316-0.207,0.573-0.388,0.779
		c-0.248,0.283-0.605,0.458-1.033,0.504C89.489,75.143,89.349,75.15,89.213,75.15z M89.489,71.894
		c0.045-0.377,0.083-0.806,0.112-1.154c-0.37-0.021-0.783-0.037-1.219-0.046c0.178,0.158,0.357,0.335,0.554,0.551
		c0.188,0.186,0.302,0.404,0.327,0.636C89.339,71.884,89.415,71.889,89.489,71.894z M85.861,70.955
		c-0.044,0.288-0.084,0.582-0.12,0.873c0.34-0.006,0.733-0.01,1.12-0.01c0.021,0,0.042,0,0.062,0
		c-0.227-0.196-0.46-0.383-0.69-0.566L85.861,70.955z M84.179,69.076l0.158-0.024c0.047-0.213,0.093-0.427,0.137-0.628l-0.255,0.055
		l0.018-0.221c-0.028,0.098-0.072,0.194-0.131,0.29c-0.078,0.136-0.18,0.253-0.277,0.352C83.838,68.904,84.179,69.076,84.179,69.076
		z M89.718,68.961c0.015-0.288,0.02-0.571,0.018-0.816l-0.011-0.01l-0.023-0.085c-0.366-0.047-0.716-0.079-1.056-0.099
		c0.13,0.114,0.262,0.236,0.399,0.373c0.164,0.176,0.25,0.389,0.254,0.614L89.718,68.961z M86.332,68.363
		c-0.04,0.181-0.076,0.364-0.109,0.543c0.25-0.006,0.781-0.008,0.781-0.008c-0.172-0.144-0.349-0.283-0.528-0.423L86.332,68.363z"/>
	<path fill="#FFFFFF" d="M82.462,63.51c0.642,0.477,1.239,1.035,1.808,1.63c0.17,0.188,0.114,0.406-0.002,0.606
		c-0.087,0.142-0.211,0.279-0.319,0.395c-0.593-0.756-1.325-1.464-2.054-2.071C82.028,63.944,82.3,63.67,82.462,63.51
		 M86.454,63.801c0.228,0.094,0.622,0.265,0.825,0.344c-0.256,0.25-0.579,0.557-0.824,0.811c0.622-0.034,1.283-0.05,1.952-0.05
		c1.245,0,2.521,0.054,3.643,0.142c-0.021,0.234-0.05,0.578-0.082,0.812c-1.31-0.112-2.612-0.2-3.889-0.2
		c-0.81,0-1.607,0.036-2.39,0.123c-0.328,0.356-0.665,0.824-0.979,1.305c-0.127-0.109-0.266-0.221-0.354-0.354
		c-0.146-0.185-0.19-0.387-0.036-0.598C84.838,65.448,85.781,64.413,86.454,63.801 M81.987,66.036
		c0.565,0.481,1.163,1.028,1.67,1.63c0.18,0.214,0.137,0.433,0.021,0.621c-0.088,0.153-0.222,0.279-0.344,0.393
		c-0.581-0.731-1.215-1.443-1.92-2.049C81.537,66.506,81.81,66.219,81.987,66.036 M87.851,66.641c0.753,0,1.472,0.042,1.959,0.112
		c0.354,0.055,0.583,0.148,0.804,0.316c0.278,0.222,0.446,0.571,0.455,1.055c0.005,0.385-0.039,1.038-0.072,1.432l0.763,0.065
		c-0.015,0.172-0.058,0.541-0.091,0.773c-0.196-0.029-0.528-0.058-0.701-0.061c-0.058,0.678-0.151,1.624-0.211,2.177
		c0.185,0.016,0.627,0.065,0.763,0.077c-0.028,0.184-0.072,0.551-0.092,0.786l-0.8-0.069c-0.029,0.346-0.112,0.723-0.345,0.987
		c-0.151,0.173-0.386,0.302-0.711,0.337c-0.122,0.015-0.242,0.021-0.358,0.021c-0.279,0-0.537-0.038-0.751-0.092
		c-0.195-0.041-0.294-0.186-0.344-0.34c-0.059-0.178-0.054-0.375-0.052-0.549c0.475,0.103,0.929,0.166,1.324,0.175
		c0.003,0,0.006,0,0.009,0c0.167,0,0.259-0.079,0.315-0.171c0.061-0.131,0.075-0.303,0.087-0.439
		c-1.058-0.083-2.117-0.135-3.162-0.135c-0.817,0-1.624,0.031-2.414,0.105c0.095-0.958,0.213-1.915,0.396-2.879
		c-0.312,0.023-0.689,0.078-0.93,0.132c0.014-0.161,0.032-0.383,0.083-0.539c0.065-0.167,0.176-0.308,0.401-0.337l0.577-0.088
		c0.124-0.572,0.287-1.326,0.386-1.752c-0.102,0.029-0.242,0.078-0.368,0.105c0.015-0.186,0.024-0.432,0.129-0.646
		c0.09-0.179,0.238-0.315,0.49-0.368C86.054,66.697,86.976,66.641,87.851,66.641 M85.614,69.432
		c0.435-0.026,0.903-0.034,1.366-0.034c0.438,0,0.871,0.007,1.264,0.01c-0.439-0.52-0.961-0.937-1.461-1.326
		c0.159-0.136,0.466-0.369,0.611-0.481c0.477,0.363,0.862,0.645,1.297,1.078c0.113,0.121,0.125,0.271,0.089,0.404
		c-0.035,0.121-0.107,0.251-0.163,0.32c0.419,0.023,1.159,0.062,1.566,0.084c0.039-0.455,0.056-0.949,0.052-1.347
		c-0.008-0.187-0.069-0.34-0.173-0.436c-0.091-0.095-0.211-0.142-0.346-0.153c-0.598-0.08-1.183-0.118-1.756-0.118
		c-0.662,0-1.309,0.051-1.941,0.149C85.833,68.174,85.723,68.883,85.614,69.432 M85.18,72.344c0.398-0.016,1.048-0.025,1.682-0.025
		c0.474,0,0.938,0.006,1.281,0.02c-0.471-0.574-1.039-1.031-1.597-1.477c0.173-0.146,0.469-0.405,0.589-0.507
		c0.571,0.421,0.944,0.688,1.432,1.226c0.149,0.148,0.2,0.277,0.202,0.389c-0.001,0.162-0.11,0.289-0.168,0.383
		c0.407,0.01,0.938,0.043,1.319,0.076c0.104-0.637,0.183-1.695,0.222-2.151c-0.7-0.06-1.604-0.09-2.509-0.09
		c-0.763,0-1.524,0.021-2.163,0.063C85.351,70.934,85.251,71.656,85.18,72.344 M82.971,69.033c0.191,0.09,0.547,0.27,0.726,0.359
		c-0.796,1.481-1.594,2.988-2.14,4.59c-0.13-0.086-0.327-0.239-0.46-0.412c-0.146-0.186-0.24-0.392-0.123-0.605
		C81.312,72.052,82.357,70.121,82.971,69.033 M82.369,62.195l-0.61,0.604l-0.171,0.17c-0.136,0.136-0.288,0.287-0.376,0.37
		l-0.828,0.773l0.87,0.726c0.094,0.078,0.186,0.156,0.276,0.234l-0.26,0.267l-0.327,0.34l-0.244,0.253l-0.744,0.764l0.809,0.694
		c0.41,0.352,0.827,0.774,1.265,1.279c-0.378,0.674-1.558,2.809-1.974,3.899c-0.139,0.3-0.297,0.92,0.257,1.621
		c0.228,0.296,0.532,0.521,0.693,0.627l1.08,0.715l0.418-1.227c0.229-0.67,0.5-1.316,0.811-1.977
		c-0.028,0.248-0.056,0.506-0.083,0.778l-0.119,1.207l1.207-0.112c0.72-0.067,1.5-0.102,2.321-0.102c0.146,0,0.292,0.001,0.44,0.003
		c0.014,0.136,0.039,0.281,0.088,0.429c0.171,0.528,0.568,0.896,1.088,1.006c0.279,0.071,0.624,0.113,0.957,0.113
		c0.156,0,0.316-0.009,0.48-0.029c0.54-0.058,1.009-0.29,1.341-0.67c0.147-0.168,0.268-0.359,0.36-0.576l0.945,0.082l0.084-1
		c0.018-0.215,0.058-0.549,0.083-0.717l0.163-1.057l-0.817-0.07c0.006-0.059,0.012-0.118,0.018-0.178l0.646,0.097l0.143-0.996
		c0.035-0.249,0.081-0.646,0.097-0.83l0.085-0.996l-0.782-0.067c0.008-0.188,0.013-0.374,0.011-0.531
		c-0.01-0.546-0.153-0.959-0.343-1.27c0.053,0.004,0.105,0.009,0.157,0.013l0.945,0.081l0.13-0.94
		c0.032-0.234,0.062-0.572,0.084-0.819l0.088-1.006l-1.002-0.12c-1.031-0.081-2.118-0.129-3.177-0.142l0.137-0.133l-1.445-0.562
		c-0.121-0.047-0.312-0.128-0.49-0.204l-0.317-0.133l-0.585-0.241l-0.469,0.427c-0.324,0.295-0.708,0.683-1.082,1.087
		c-0.574-0.577-1.11-1.047-1.641-1.441L82.369,62.195L82.369,62.195z"/>
</g>
</svg>
