<?xml version="1.0" encoding="utf-8"?>
<!-- Generator: Adobe Illustrator 16.0.0, SVG Export Plug-In . SVG Version: 6.00 Build 0)  -->
<!DOCTYPE svg PUBLIC "-//W3C//DTD SVG 1.1//EN" "http://www.w3.org/Graphics/SVG/1.1/DTD/svg11.dtd">
<svg version="1.1" id="Layer_1" xmlns="http://www.w3.org/2000/svg" xmlns:xlink="http://www.w3.org/1999/xlink" x="0px" y="0px"
	 width="126.876px" height="112.438px" viewBox="0 0 126.876 112.438" enable-background="new 0 0 126.876 112.438"
	 xml:space="preserve">
<rect fill="#FFFFFF" width="126.876" height="112.438"/>
<g>
	<g>
		<g>
			<path d="M69.069,85.964c-2.685,0-6.244-0.367-10.58-1.093c-6.337-1.059-10.252-2.056-11.967-3.048l-0.274-0.158l0.026-0.315
				c0.148-1.794,0.49-4.295,1.015-7.433c0.293-1.758,0.796-4.097,1.536-7.151l0.11-0.452l3.451,0.578l-0.097,0.503
				c-0.753,3.918-1.465,7.878-2.173,12.092c1.81,0.581,4.675,1.195,8.732,1.874c5.037,0.751,8.588,1.149,10.26,1.149
				c0.134,0,0.256-0.003,0.364-0.008l0.787-4.706c0.123-0.74,0.261-2.358,0.465-4.796c-0.755-0.132-1.775-0.318-3.05-0.551
				l-1.692-0.309c-0.319,1.021-0.623,2.041-0.919,3.035l-0.162,0.545c1.087,0.451,2.165,0.885,3.297,1.268l0.402,0.136l-0.069,0.42
				c-0.109,0.658-0.363,1.366-0.754,2.104l-0.175,0.33l-0.365-0.074c-2.195-0.443-4.211-1.222-6.162-2.381l-0.322-0.191l0.094-0.364
				c0.428-1.646,0.922-3.349,1.584-5.456c-1.168-0.134-2.297-0.288-3.344-0.456c-0.826,1.874-1.741,3.773-2.861,5.941l-0.182,0.351
				l-0.384-0.095c0,0-0.482-0.12-1.398-0.428c-0.389-0.157-0.707-0.342-0.978-0.559l-0.27-0.217l0.108-0.329
				c0.504-1.53,1.158-3.159,2.096-5.215c-0.761-0.109-1.453-0.226-2.08-0.33l-0.493-0.083l0.066-0.495l0.45-2.696l0.468,0.049
				c0.586,0.061,1.161,0.129,1.737,0.197c0.475,0.057,0.95,0.113,1.432,0.165c0.675-1.289,1.266-2.346,1.848-3.305l0.21-0.345
				l0.381,0.132c0.671,0.231,1.336,0.542,1.976,0.922l0.361,0.214l-0.148,0.393c-0.321,0.848-0.639,1.671-0.949,2.453
				c1.006,0.141,2.009,0.284,2.99,0.443c0.284-0.866,0.591-1.729,0.898-2.593l0.159-0.447l0.454,0.136
				c0.801,0.239,1.642,0.496,2.358,0.777l0.44,0.174l-0.148,0.448c-0.24,0.73-0.451,1.418-0.654,2.097
				c2.957,0.529,5.33,0.962,7.117,1.296l0.258,0.048l0.106,0.239c0.219,0.488,0.343,1.89-0.65,8.439
				c-0.6,3.589-1.036,5.746-1.336,6.602l-0.099,0.282l-0.295,0.047C71.23,85.896,70.218,85.964,69.069,85.964z M73.971,64.481
				c-9.019-1.508-16.266-2.872-21.54-4.054l-0.229-0.052l-0.106-0.208c-0.143-0.275-0.141-0.665,0.007-1.543
				c0.068-0.415,0.228-0.859,0.473-1.322l0.168-0.318l0.355,0.06c6.869,1.148,13.93,2.526,21.587,4.212l0.464,0.103l-0.255,1.528
				c-0.105,0.63-0.271,1.063-0.39,1.315l-0.162,0.342L73.971,64.481z"/>
			<path fill="#FFFFFF" d="M53.017,57.537c7.244,1.211,14.452,2.642,21.562,4.207l-0.177,1.061
				c-0.092,0.549-0.232,0.938-0.349,1.184c-9.036-1.511-16.22-2.862-21.513-4.049c-0.085-0.165-0.055-0.573,0.056-1.231
				C52.656,58.342,52.797,57.952,53.017,57.537 M59.075,64.267c0.64,0.221,1.269,0.514,1.884,0.879
				c-0.402,1.062-0.799,2.086-1.184,3.037c1.359,0.188,2.719,0.379,4.036,0.6c0.318-1,0.672-1.994,1.025-2.988
				c0.86,0.257,1.647,0.5,2.318,0.764c-0.306,0.928-0.563,1.787-0.819,2.646c3.214,0.574,5.77,1.04,7.665,1.394
				c0.273,0.61,0.046,3.317-0.688,8.16c-0.587,3.512-1.027,5.694-1.313,6.512c-0.825,0.13-1.803,0.195-2.93,0.195
				c-2.668,0-6.176-0.364-10.498-1.087c-6.22-1.039-10.152-2.035-11.799-2.987c0.147-1.78,0.483-4.244,1.01-7.392
				c0.293-1.756,0.802-4.115,1.529-7.115l2.487,0.416c-0.868,4.519-1.608,8.72-2.245,12.525c1.848,0.646,4.934,1.312,9.214,2.028
				c5.199,0.775,8.661,1.156,10.342,1.156c0.336,0,0.601-0.016,0.794-0.046l0.851-5.086c0.134-0.806,0.281-2.586,0.508-5.294
				c-1.098-0.184-2.993-0.537-5.622-1.015c-0.477,1.5-0.916,3.007-1.345,4.439c1.196,0.5,2.427,1.008,3.744,1.453
				c-0.109,0.658-0.372,1.328-0.702,1.951c-2.183-0.44-4.157-1.223-6.005-2.32c0.524-2.02,1.117-3.988,1.752-5.988
				c-0.183-0.03-0.329-0.055-0.402-0.067c-1.401-0.159-2.725-0.343-3.896-0.538c-0.977,2.243-2.001,4.329-3.003,6.268
				c0,0-0.47-0.117-1.36-0.416c-0.315-0.129-0.59-0.287-0.823-0.475c0.611-1.854,1.418-3.751,2.357-5.775
				c-1.029-0.134-1.944-0.287-2.75-0.422l0.373-2.232c1.184,0.123,2.323,0.276,3.507,0.398
				C57.696,66.669,58.35,65.462,59.075,64.267 M52.47,56.432l-0.337,0.638c-0.27,0.51-0.446,1.006-0.523,1.476
				c-0.146,0.865-0.182,1.418,0.042,1.853l0.214,0.415l0.456,0.103c5.283,1.185,12.539,2.55,21.566,4.06l0.745,0.125l0.323-0.683
				c0.134-0.282,0.316-0.761,0.432-1.447l0.177-1.062l0.156-0.937l-0.928-0.204c-7.665-1.688-14.734-3.067-21.611-4.217
				L52.47,56.432L52.47,56.432z M58.639,63.059l-0.418,0.689c-0.542,0.892-1.09,1.865-1.704,3.029
				c-0.365-0.041-0.728-0.084-1.09-0.127c-0.578-0.068-1.155-0.138-1.744-0.199l-0.935-0.097l-0.015,0.088l-0.77-0.129l-2.487-0.416
				l-0.918-0.153l-0.219,0.904c-0.744,3.066-1.249,5.417-1.544,7.186c-0.527,3.152-0.87,5.667-1.02,7.475l-0.053,0.631l0.548,0.316
				c1.769,1.023,5.738,2.04,12.135,3.108c4.364,0.729,7.951,1.101,10.663,1.101c1.175,0,2.213-0.07,3.085-0.207l0.591-0.094
				l0.197-0.564c0.31-0.883,0.753-3.066,1.356-6.677c1.057-6.968,0.871-8.161,0.614-8.734l-0.214-0.478l-0.515-0.097
				c-1.675-0.312-3.865-0.712-6.568-1.196c0.155-0.51,0.312-1.014,0.489-1.547l0.296-0.898l-0.88-0.346
				c-0.735-0.289-1.588-0.549-2.398-0.791l-0.91-0.271l-0.318,0.895c-0.256,0.721-0.519,1.458-0.768,2.199
				c-0.635-0.1-1.28-0.194-1.952-0.289c0.223-0.567,0.461-1.187,0.719-1.869l0.298-0.785l-0.722-0.43
				c-0.67-0.396-1.365-0.721-2.068-0.964L58.639,63.059L58.639,63.059z M50.684,79.139c0.501-2.97,1.004-5.816,1.523-8.613
				l0.834,0.14c0.454,0.076,0.937,0.156,1.451,0.236c-0.802,1.794-1.384,3.267-1.843,4.661l-0.218,0.659l0.541,0.434
				c0.308,0.247,0.668,0.456,1.071,0.621l0.029,0.012l0.03,0.011c0.918,0.308,1.416,0.433,1.437,0.438l0.768,0.191l0.363-0.702
				c1.056-2.042,1.929-3.847,2.718-5.617c0.759,0.117,1.556,0.227,2.386,0.329c-0.576,1.854-1.021,3.401-1.41,4.904l-0.189,0.727
				l0.646,0.384c2,1.188,4.066,1.987,6.318,2.441l0.731,0.147l0.35-0.66c0.416-0.785,0.687-1.543,0.805-2.255l0.14-0.839
				l-0.806-0.272c-0.974-0.329-1.911-0.698-2.849-1.084l0.033-0.112c0.254-0.854,0.515-1.73,0.786-2.606l1.255,0.229
				c1.038,0.19,1.908,0.349,2.604,0.473c-0.182,2.173-0.309,3.626-0.421,4.301l-0.719,4.295c-1.182-0.007-3.898-0.214-10.134-1.145
				C55.191,80.242,52.479,79.674,50.684,79.139L50.684,79.139z"/>
		</g>
	</g>
</g>
<g>
	<g>
		<path d="M40.641,54.287c-0.293-0.753-0.44-1.431-0.479-2.197l-0.021-0.402l0.389-0.105c2.612-0.708,5.559-1.237,8.759-1.572
			l0.376-0.04l0.14,0.352c0.324,0.81,0.481,1.537,0.481,2.226v0.378l-0.363,0.104c-2.763,0.784-5.715,1.314-8.773,1.575
			l-0.373,0.032L40.641,54.287z M59.505,54.346c-0.844,0-1.574-0.077-2.177-0.152l-0.391-0.049l-0.044-0.392
			c-0.077-0.696-0.077-1.321-0.077-1.873V51.4l0.699-0.029c0.621-0.026,1.206-0.051,1.754-0.061
			c0.037-3.637,0.106-7.633,0.207-11.894c-1.503-0.169-3.188-0.369-4.79-0.606c-0.971,1.695-1.774,3.049-2.584,4.355l-0.196,0.317
			l-0.36-0.099c-0.91-0.249-1.699-0.716-2.41-1.427l-0.259-0.259l0.169-0.325c1.773-3.412,3.832-6.943,6.291-10.797l0.221-0.346
			l0.383,0.149c0.653,0.255,1.301,0.615,2.035,1.134l0.344,0.242l-0.18,0.38c-0.529,1.116-1.102,2.304-1.738,3.519
			c1.877,0.197,3.73,0.437,5.68,0.688l0.854,0.11v0.439c0,5.941-0.15,11.579-0.446,16.758l-0.021,0.382l-0.375,0.079
			C61.348,54.27,60.501,54.346,59.505,54.346z M49.192,48.893c-4.156,0-6.715-0.259-7.821-0.792l-0.432-0.207l0.188-0.44
			c0.582-1.356,1.484-3.196,2.752-5.609c-1.675-0.086-2.977-0.204-4.145-0.375l-0.489-0.072c0.04,1.461,0.061,2.919,0.061,4.362
			v0.448l-0.445,0.049c-2.269,0.248-4.608,0.374-6.954,0.374h-0.436l-0.06-0.432c-0.424-3.078-0.675-5.954-0.747-8.549l-0.013-0.476
			l0.474-0.036c2.533-0.198,5.043-0.299,7.458-0.299h0.475l0.024,0.474c0.067,1.268,0.119,2.54,0.156,3.811l0.09-0.296
			c1.115-3.641,2.394-7.249,3.799-10.724l0.169-0.417l0.433,0.124c0.849,0.242,1.546,0.467,2.189,0.77l0.403,0.189l-0.143,0.423
			c-0.734,2.171-1.613,4.729-2.626,7.438c0.305,0.019,1.645,0.093,2.011,0.116c0.64-1.199,1.327-2.431,2.047-3.663l0.204-0.351
			l0.385,0.128c0.665,0.221,1.354,0.552,2.106,1.012l0.389,0.237l-0.2,0.409c-1.596,3.26-3.128,6.297-4.56,9.039
			c0.458,0.045,0.916,0.087,1.374,0.129c0.707,0.065,1.414,0.131,2.121,0.205l0.447,0.047v0.45c0,0.627-0.062,1.309-0.192,2.085
			l-0.069,0.418H49.192z M34.451,43.285l1.465-0.133l-0.112-3.06l-1.549,0.09L34.451,43.285z M56.408,48.53
			c-1.471-0.518-2.813-1.228-3.991-2.112l-0.361-0.271l0.232-0.386c0.43-0.717,0.836-1.35,1.277-1.992l0.24-0.349l0.384,0.179
			c0.996,0.465,2.144,1.103,3.722,2.066l0.364,0.223l-0.163,0.395c-0.264,0.641-0.641,1.331-1.122,2.053l-0.216,0.323L56.408,48.53z
			"/>
		<path fill="#FFFFFF" d="M43.592,30.291c0.778,0.223,1.483,0.444,2.114,0.741c-0.891,2.634-1.817,5.305-2.856,8.05
			c0.928,0.074,1.929,0.111,3.005,0.186c0.667-1.262,1.409-2.597,2.188-3.932c0.667,0.222,1.335,0.556,2.003,0.964
			c-1.743,3.562-3.376,6.788-4.896,9.682c1.409,0.148,2.819,0.26,4.229,0.408c0,0.668-0.074,1.335-0.186,2.003
			c-4.08,0-6.603-0.26-7.604-0.742c0.668-1.558,1.707-3.635,3.042-6.157c0-0.037,0.037-0.074,0.074-0.111
			c-1.743-0.074-3.375-0.186-4.896-0.408C40.921,37.339,42.182,33.777,43.592,30.291 M55.759,30.847
			c0.667,0.26,1.298,0.631,1.929,1.076c-0.668,1.409-1.336,2.782-2.077,4.154c2.263,0.223,4.525,0.52,6.825,0.816
			c0,5.935-0.148,11.536-0.445,16.729c-0.705,0.148-1.521,0.223-2.485,0.223c-0.816,0-1.521-0.074-2.114-0.148
			c-0.074-0.668-0.074-1.262-0.074-1.817c0.89-0.037,1.706-0.074,2.448-0.074c0.037-3.933,0.111-8.198,0.223-12.835
			c-2.003-0.223-3.858-0.445-5.564-0.705c-0.891,1.559-1.78,3.079-2.745,4.637c-0.815-0.223-1.521-0.63-2.188-1.298
			C51.418,37.895,53.532,34.334,55.759,30.847 M38.584,37.339c0.148,2.819,0.223,5.638,0.223,8.42
			c-2.374,0.26-4.674,0.371-6.899,0.371c-0.408-2.968-0.668-5.824-0.742-8.494C33.539,37.45,36.024,37.339,38.584,37.339
			 M33.984,43.83l2.448-0.223l-0.148-4.043l-2.56,0.148L33.984,43.83 M53.978,44.053c1.113,0.52,2.337,1.224,3.673,2.04
			c-0.26,0.631-0.631,1.298-1.076,1.966c-1.372-0.482-2.671-1.149-3.857-2.04C53.162,45.276,53.569,44.646,53.978,44.053
			 M49.341,50.507c0.297,0.742,0.445,1.41,0.445,2.04c-2.745,0.779-5.639,1.299-8.68,1.559c-0.26-0.668-0.408-1.299-0.445-2.041
			C43.258,51.36,46.151,50.841,49.341,50.507 M43.002,29.082l-0.337,0.834c-1.095,2.705-2.112,5.491-3.035,8.311
			c-0.016-0.313-0.031-0.627-0.047-0.94l-0.051-0.947h-0.948c-2.429,0-4.95,0.101-7.497,0.3l-0.948,0.074l0.026,0.951
			c0.073,2.612,0.326,5.506,0.752,8.602l0.118,0.864h0.872c2.364,0,4.722-0.127,7.008-0.377l0.892-0.098v-0.896
			c0-1.253-0.015-2.515-0.045-3.781c0.97,0.139,2.031,0.242,3.315,0.321c-1.096,2.106-1.87,3.701-2.408,4.957l-0.377,0.88
			l0.862,0.416c1.176,0.565,3.805,0.841,8.038,0.841h0.848l0.139-0.836c0.134-0.804,0.199-1.513,0.199-2.167v-0.9l-0.896-0.094
			c-0.709-0.075-1.418-0.141-2.127-0.206c-0.211-0.02-0.423-0.039-0.634-0.059c0.538-1.037,1.09-2.113,1.653-3.227l0.407,0.407
			c0.774,0.774,1.636,1.283,2.632,1.556l0.721,0.196l0.394-0.635c0.765-1.234,1.523-2.511,2.423-4.074
			c1.345,0.193,2.734,0.361,4.015,0.508c-0.046,1.992-0.085,3.926-0.117,5.79l-0.677-0.413c-1.594-0.974-2.757-1.619-3.771-2.093
			l-0.768-0.357l-0.479,0.697c-0.447,0.65-0.858,1.292-1.294,2.018l-0.464,0.773l0.721,0.541c1.219,0.915,2.607,1.649,4.126,2.184
			l0.733,0.258l0.431-0.646c0.499-0.749,0.893-1.469,1.169-2.14l0.271-0.656c-0.03,1.731-0.054,3.401-0.071,5.005
			c-0.411,0.013-0.839,0.031-1.28,0.049l-0.22,0.01l-0.958,0.04v0.959c0,0.564,0,1.205,0.08,1.928l0.087,0.784l0.783,0.098
			c0.618,0.077,1.367,0.156,2.238,0.156c1.031,0,1.911-0.08,2.691-0.244l0.749-0.157l0.043-0.765
			c0.297-5.188,0.447-10.835,0.447-16.786v-0.879l-0.872-0.112l-0.419-0.055c-1.7-0.22-3.328-0.43-4.964-0.611
			c0.508-0.994,0.975-1.965,1.41-2.885l0.36-0.761l-0.687-0.485c-0.77-0.542-1.45-0.921-2.143-1.19l-0.765-0.298l-0.441,0.691
			c-1.629,2.551-3.082,4.962-4.395,7.291c0.141-0.285,0.281-0.571,0.423-0.86l0.4-0.817l-0.777-0.476
			c-0.785-0.479-1.508-0.826-2.209-1.06l-0.77-0.256l-0.409,0.701c-0.667,1.141-1.306,2.281-1.904,3.396
			c-0.257-0.016-0.509-0.029-0.757-0.043c-0.087-0.005-0.174-0.01-0.261-0.015c0.917-2.479,1.718-4.813,2.396-6.818l0.286-0.845
			l-0.808-0.381c-0.674-0.316-1.393-0.548-2.265-0.797L43.002,29.082L43.002,29.082z M34.786,40.653l0.536-0.031l0.076,2.075
			l-0.48,0.044L34.786,40.653L34.786,40.653z M49.988,49.434l-0.752,0.078c-3.226,0.338-6.199,0.872-8.837,1.588l-0.777,0.211
			l0.04,0.804c0.041,0.823,0.199,1.549,0.513,2.354l0.271,0.698l0.746-0.064c3.091-0.264,6.074-0.8,8.868-1.593l0.727-0.206v-0.756
			c0-0.753-0.169-1.542-0.517-2.411L49.988,49.434L49.988,49.434z"/>
	</g>
</g>
<path id="path-1_3_" fill="#F08C79" d="M68.885,46.628h2.502c0.116,0,0.683-0.172,1.97-1.459c2.528-2.529,5.233-2.429,8.51,0.191
	l0.151,0.151l0.048,0.203c0.158,0.621,0.443,1.388,0.671,1.72c0.624,0.002,1.266-0.055,1.468-0.146
	c0.161-0.357,0.156-1.823,0.152-2.902c-0.006-1.742-0.014-3.715,0.349-5.235c0.102-0.425,0.207-0.825,0.305-1.199
	c0.213-0.806,0.534-2.024,0.36-2.222c-0.003,0-0.179-0.131-1.014,0.078c-2.678,0.67-5.318,1.109-6.511-0.192
	c-0.634-0.692-0.714-1.743-0.237-3.12c1.511-4.367,4.099-3.62,5.487-3.218c0.332,0.097,0.647,0.187,0.843,0.187
	c1.541,0,4.347,0.773,5.766,2.901c0.246,0.368,0.498,0.698,0.741,1.017c1.081,1.41,2.101,2.744,2.653,7.159
	c0.145,1.151,0.289,2.18,0.419,3.108c0.464,3.311,0.771,5.498,0.228,7.671c-0.496,1.985-0.35,2.68-0.317,2.795l0.35,0.511
	l-0.601,0.295c-0.042,0.021-4.26,2.096-8.213,3.414c-1.648,0.55-3.688,0.86-5.838,0.86c-3.575,0-7.456-0.86-10.351-2.92
	l-0.109-0.101l-1.269-1.516l0,0"/>
<path id="path-2_3_" fill="#040000" d="M77.11,58.439c-4.184,0-8.016-1.087-10.789-3.06c-0.027-0.019-0.053-0.039-0.076-0.062
	l-0.109-0.101c-0.03-0.028-0.059-0.058-0.084-0.091l-1.268-1.642c-0.256-0.33-0.194-0.805,0.136-1.061
	c0.331-0.255,0.805-0.194,1.061,0.136l1.256,1.616c2.483,1.749,6.078,2.753,9.874,2.753c2.021,0,4.01-0.293,5.599-0.822
	c3.491-1.165,7.21-2.935,7.975-3.305c-0.096-0.344-0.179-1.211,0.313-3.176c0.508-2.031,0.209-4.161-0.244-7.384
	c-0.13-0.932-0.275-1.963-0.42-3.119c-0.526-4.212-1.442-5.408-2.502-6.794c-0.225-0.291-0.502-0.654-0.77-1.055
	c-1.247-1.869-3.813-2.566-5.139-2.566c-0.305,0-0.668-0.105-1.053-0.217c-1.388-0.402-3.286-0.951-4.563,2.74
	c-0.378,1.094-0.352,1.889,0.081,2.361c0.935,1.02,3.574,0.52,5.77-0.03c0.763-0.191,1.269-0.188,1.592,0.011
	c0.064,0.04,0.124,0.09,0.174,0.146c0.38,0.434,0.295,1.041-0.195,2.906c-0.099,0.374-0.203,0.77-0.303,1.187
	c-0.341,1.433-0.334,3.354-0.328,5.051c0.007,1.913-0.021,2.781-0.219,3.22c-0.074,0.167-0.208,0.301-0.376,0.377
	c-0.412,0.189-1.292,0.212-1.784,0.211c-0.249-0.001-0.48-0.123-0.621-0.328c-0.305-0.445-0.617-1.332-0.779-1.969l-0.012-0.056
	c-3.006-2.377-5.232-2.451-7.432-0.252c-1.03,1.03-1.873,1.554-2.503,1.554h-2.502c-0.417,0-0.756-0.338-0.756-0.756
	c0-0.417,0.339-0.756,0.756-0.756h2.501c-0.017,0,0.429-0.104,1.436-1.111c2.771-2.771,5.885-2.706,9.517,0.199
	c0.039,0.031,0.075,0.066,0.108,0.105l0.151,0.183c0.078,0.093,0.132,0.204,0.157,0.322l0.049,0.219
	c0.104,0.406,0.253,0.829,0.383,1.126c0.143-0.006,0.27-0.016,0.375-0.024c0.045-0.58,0.041-1.667,0.039-2.253
	c-0.007-1.786-0.014-3.805,0.369-5.412c0.104-0.43,0.21-0.836,0.311-1.216c0.075-0.286,0.211-0.807,0.3-1.228
	c-0.013,0.003-0.026,0.007-0.04,0.01c-2.903,0.727-5.791,1.18-7.251-0.414c-0.836-0.914-0.969-2.219-0.396-3.877
	c1.746-5.049,5.017-4.102,6.412-3.697c0.198,0.057,0.531,0.152,0.636,0.156c1.463,0,4.685,0.677,6.392,3.238
	c0.241,0.359,0.503,0.701,0.713,0.976c1.095,1.429,2.225,2.907,2.803,7.525c0.144,1.148,0.287,2.171,0.417,3.097
	c0.478,3.398,0.792,5.644,0.213,7.959c-0.354,1.421-0.352,2.096-0.333,2.323l0.256,0.372c0.123,0.182,0.163,0.407,0.107,0.619
	s-0.201,0.39-0.397,0.486l-0.602,0.296c-0.036,0.019-4.274,2.108-8.307,3.452C81.424,58.128,79.322,58.439,77.11,58.439z"/>
</svg>
