<?xml version="1.0" encoding="UTF-8" standalone="no"?>
<svg width="120px" height="120px" viewBox="0 0 120 120" version="1.1" xmlns="http://www.w3.org/2000/svg" xmlns:xlink="http://www.w3.org/1999/xlink" xmlns:sketch="http://www.bohemiancoding.com/sketch/ns">
    <!-- Generator: Sketch 3.3.2 (12043) - http://www.bohemiancoding.com/sketch -->
    <title>Mobile Portrait Copy</title>
    <desc>Created with Sketch.</desc>
    <defs></defs>
    <g id="baby" stroke="none" stroke-width="1" fill="none" fill-rule="evenodd" sketch:type="MSPage">
        <g id="Mobile-Portrait-Copy" sketch:type="MSArtboardGroup">
            <g id="Imported-Layers" sketch:type="MSLayerGroup" transform="translate(17.000000, 33.000000)">
                <path d="M45.446,34.257 L45.349,33.884 C45.255,33.527 45.242,33.183 45.242,32.892 L45.242,32.46 L45.671,32.397 C45.919,32.361 46.176,32.334 46.435,32.309 C46.434,31.861 46.43,31.411 46.423,30.96 L46.257,31.061 C46.078,31.169 45.775,31.275 44.349,31.295 L44.3,32.588 L43.982,32.702 C43.783,32.774 43.545,32.806 43.187,32.806 C42.767,32.806 42.478,32.727 42.278,32.56 L42.1,32.41 L42.1,31.285 C41.373,31.263 40.878,31.224 40.529,31.163 L40.246,31.114 L40.146,30.845 C40.076,30.654 40.043,30.441 40.043,30.173 C40.043,29.96 40.043,29.759 40.096,29.564 L40.195,29.195 L40.578,29.195 C41.024,29.195 41.538,29.185 42.12,29.171 C42.124,28.823 42.131,28.487 42.14,28.168 C41.759,28.125 41.394,28.061 41.035,27.978 L40.648,27.888 L40.648,27.491 C40.648,27.143 40.649,26.775 40.688,26.425 L40.74,25.963 L41.205,25.98 C41.541,25.994 41.885,26.015 42.231,26.038 C42.245,25.765 42.262,25.508 42.286,25.273 L42.327,24.87 L42.73,24.827 C42.93,24.806 43.147,24.786 43.408,24.786 C43.672,24.786 43.939,24.836 44.18,24.932 L44.496,25.056 L44.496,26.225 C44.827,26.257 45.157,26.295 45.488,26.335 L45.93,26.387 L45.93,26.831 C45.93,27.169 45.889,27.548 45.809,27.956 L45.729,28.359 L45.318,28.359 C45.02,28.359 44.736,28.359 44.462,28.351 L44.438,29.17 C45.182,29.186 45.674,29.204 46.01,29.235 L46.39,29.271 C46.345,27.515 46.266,25.735 46.154,23.949 C44.372,23.942 42.821,23.894 41.426,23.802 L41.086,23.779 L40.982,23.455 C40.917,23.25 40.887,23.021 40.887,22.732 C40.887,22.468 40.921,22.238 40.988,22.051 L41.108,21.715 L41.464,21.719 C45.005,21.755 47.201,21.811 47.992,21.886 L48.43,21.928 L48.445,22.366 C48.592,26.485 48.666,30.274 48.666,33.627 L48.666,34.092 L48.203,34.126 C47.21,34.199 46.425,34.257 45.832,34.257 L45.446,34.257 L45.446,34.257 Z M50.09,34.146 L49.963,33.836 C49.378,32.404 49.082,30.709 49.082,28.796 L49.082,28.369 L49.503,28.302 C49.915,28.236 50.283,28.204 50.627,28.204 L51.011,28.204 L51.109,28.574 C51.307,29.306 51.467,30.01 51.591,30.685 L51.876,30.571 C52.219,30.434 52.635,30.277 53.128,30.106 C52.815,29.539 52.47,28.998 52.081,28.466 L51.937,28.269 L52.629,25.776 C51.462,25.678 50.352,25.523 49.318,25.317 L48.916,25.237 L48.916,24.827 C48.916,24.321 48.957,23.883 49.037,23.524 L49.129,23.117 L49.546,23.134 C51.411,23.21 53.182,23.435 54.96,23.825 L55.368,23.914 L55.354,24.332 C55.318,25.289 55.039,26.442 54.524,27.763 C55.064,28.518 55.506,29.563 55.87,30.947 L55.961,31.292 L55.664,31.49 C54.75,32.1 53.646,32.467 52.382,32.583 L52.103,32.608 L51.935,32.383 L51.812,32.186 C51.859,32.63 51.89,33.058 51.9,33.468 L51.908,33.775 L51.638,33.922 C51.356,34.073 50.96,34.146 50.426,34.146 L50.09,34.146 L50.09,34.146 Z" id="Fill-1" fill="#1A1918" sketch:type="MSShapeGroup"></path>
                <path d="M41.459,22.219 C45.025,22.255 47.174,22.31 47.945,22.384 C48.094,26.554 48.166,30.302 48.166,33.627 C47.174,33.7 46.402,33.757 45.832,33.757 C45.76,33.481 45.742,33.205 45.742,32.892 C46.127,32.837 46.531,32.802 46.936,32.764 C46.936,29.642 46.826,26.536 46.623,23.45 C44.859,23.45 43.133,23.413 41.459,23.303 C41.406,23.138 41.387,22.953 41.387,22.732 C41.387,22.549 41.406,22.366 41.459,22.219 L41.459,22.219 Z M49.525,23.634 C51.326,23.707 53.09,23.928 54.853,24.313 C54.818,25.269 54.523,26.444 53.955,27.841 C54.523,28.54 55,29.604 55.387,31.074 C54.559,31.626 53.549,31.974 52.336,32.085 C52.172,31.864 52.08,31.516 52.061,31.036 C52.52,30.853 53.109,30.633 53.844,30.393 C53.475,29.659 53.035,28.924 52.484,28.171 C52.758,27.196 53.018,26.241 53.273,25.324 C51.894,25.231 50.609,25.065 49.416,24.827 C49.416,24.368 49.451,23.964 49.525,23.634 L49.525,23.634 Z M43.408,25.286 C43.611,25.286 43.813,25.324 43.996,25.396 L43.996,26.684 C44.475,26.72 44.951,26.774 45.43,26.831 C45.43,27.143 45.391,27.491 45.318,27.859 C44.84,27.859 44.4,27.859 43.977,27.821 C43.959,28.446 43.941,29.053 43.924,29.659 C44.877,29.678 45.557,29.695 45.963,29.733 C45.981,29.86 45.998,30.008 45.998,30.173 L45.998,30.633 C45.814,30.744 45.1,30.798 43.867,30.798 C43.85,31.275 43.83,31.755 43.813,32.232 C43.664,32.286 43.463,32.306 43.187,32.306 C42.912,32.306 42.709,32.268 42.6,32.177 L42.6,30.798 C41.699,30.78 41.037,30.744 40.615,30.671 C40.561,30.523 40.543,30.358 40.543,30.173 C40.543,29.99 40.543,29.825 40.578,29.695 C41.148,29.695 41.828,29.678 42.617,29.659 C42.617,28.962 42.635,28.299 42.654,27.712 C42.123,27.676 41.625,27.603 41.148,27.491 C41.148,27.161 41.148,26.812 41.186,26.48 C41.682,26.5 42.195,26.536 42.709,26.572 C42.727,26.114 42.746,25.69 42.783,25.324 C42.967,25.305 43.168,25.286 43.408,25.286 L43.408,25.286 Z M50.627,28.704 C51.105,30.485 51.363,32.085 51.4,33.481 C51.197,33.591 50.867,33.646 50.426,33.646 C49.855,32.25 49.582,30.633 49.582,28.796 C49.93,28.74 50.279,28.704 50.627,28.704 L50.627,28.704 Z M40.757,21.212 L40.518,21.882 C40.431,22.125 40.387,22.41 40.387,22.732 C40.387,23.073 40.425,23.352 40.507,23.607 L40.714,24.256 L41.394,24.301 C41.723,24.322 42.061,24.342 42.408,24.358 L41.87,24.416 L41.788,25.224 C41.779,25.315 41.771,25.41 41.764,25.508 C41.582,25.497 41.402,25.488 41.225,25.481 L40.295,25.444 L40.191,26.369 C40.148,26.757 40.148,27.146 40.148,27.491 L40.148,28.284 L40.921,28.465 C41.154,28.52 41.389,28.565 41.629,28.603 L41.627,28.682 C41.244,28.689 40.894,28.695 40.578,28.695 L39.812,28.695 L39.613,29.434 C39.543,29.692 39.543,29.947 39.543,30.173 C39.543,30.502 39.586,30.77 39.678,31.019 L39.878,31.558 L40.444,31.656 C40.729,31.706 41.102,31.741 41.6,31.766 L41.6,32.643 L41.957,32.942 C42.345,33.267 42.845,33.306 43.187,33.306 C43.606,33.306 43.896,33.266 44.152,33.173 L44.742,32.959 C44.744,33.267 44.764,33.627 44.865,34.011 L45.061,34.757 L45.832,34.757 C46.443,34.757 47.236,34.698 48.239,34.624 L49.166,34.556 L49.166,33.627 C49.166,33.446 49.166,33.264 49.165,33.081 C49.265,33.406 49.376,33.721 49.5,34.024 L49.754,34.646 L50.426,34.646 C51.045,34.646 51.519,34.554 51.875,34.362 L52.416,34.07 L52.4,33.455 C52.397,33.333 52.392,33.209 52.386,33.085 L52.428,33.081 C53.775,32.957 54.957,32.562 55.941,31.906 L56.535,31.511 L56.353,30.819 C56.009,29.508 55.591,28.479 55.084,27.698 C55.56,26.427 55.817,25.303 55.853,24.351 L55.884,23.516 L55.067,23.337 C53.26,22.941 51.461,22.712 49.566,22.635 L48.954,22.609 L48.944,22.349 L48.913,21.471 L48.04,21.389 C47.224,21.311 45.074,21.256 41.469,21.219 L40.757,21.212 L40.757,21.212 Z M44.996,25.774 L44.996,24.716 L44.362,24.466 L44.247,24.424 C44.709,24.434 45.187,24.442 45.684,24.446 C45.712,24.92 45.737,25.392 45.761,25.863 L45.547,25.838 C45.363,25.816 45.18,25.795 44.996,25.774 L44.996,25.774 Z M49.102,27.86 C49.088,27.177 49.071,26.481 49.052,25.774 L49.221,25.808 C50.093,25.982 51.02,26.119 51.988,26.219 L51.966,26.299 C51.821,26.824 51.674,27.359 51.521,27.9 L51.483,28.037 L51.394,27.704 L50.627,27.704 C50.256,27.704 49.862,27.738 49.424,27.809 L49.102,27.86 L49.102,27.86 Z M51.966,29.999 C51.881,29.595 51.784,29.182 51.676,28.759 L51.678,28.762 C51.936,29.114 52.174,29.471 52.395,29.837 C52.251,29.891 52.107,29.944 51.966,29.999 L51.966,29.999 Z M44.83,31.784 C45.331,31.769 45.677,31.737 45.932,31.69 L45.933,31.859 C45.82,31.873 45.709,31.887 45.599,31.902 L44.821,32.016 L44.83,31.784 L44.83,31.784 Z" id="Fill-2" fill="#FFFFFF" sketch:type="MSShapeGroup"></path>
                <path d="M70.077,35.027 C67.029,34.807 64.08,34.434 61.312,33.917 L60.855,33.832 L60.907,33.368 C61.045,32.178 61.227,31.009 61.447,29.894 L61.537,29.435 L62,29.494 C62.509,29.559 62.926,29.611 63.311,29.681 L63.792,29.768 L63.717,30.25 C63.629,30.809 63.542,31.416 63.453,32.088 C64.258,32.185 65.08,32.284 65.919,32.388 L65.905,32.244 C65.804,31.223 65.739,30.247 65.711,29.278 C64.191,29.334 62.561,29.37 60.749,29.388 L60.323,29.392 L60.251,28.973 C60.196,28.653 60.17,28.276 60.17,27.821 L60.17,27.348 L60.644,27.322 C61.693,27.266 62.766,27.213 63.857,27.162 C63.139,27.11 62.503,27.009 61.935,26.853 L61.6,26.762 L61.568,26.416 C61.438,24.986 61.363,23.285 61.346,21.36 L61.342,20.9 L61.799,20.857 C62.219,20.818 62.639,20.782 63.057,20.782 L63.523,20.782 L63.556,21.248 C63.584,21.656 63.601,22.065 63.614,22.476 L63.811,22.473 C64.594,22.473 65.281,22.518 65.854,22.606 L66.186,22.658 L66.264,22.984 C66.301,23.139 66.352,23.351 66.352,23.596 C66.352,23.806 66.33,23.974 66.309,24.141 L66.251,24.575 L63.689,24.575 L63.704,24.941 C65.517,25.036 67.291,25.089 68.992,25.098 C69.003,24.311 69.039,23.451 69.1,22.531 C67.405,22.455 65.844,22.331 64.45,22.164 L64.01,22.111 L64.01,21.668 C64.01,21.281 64.011,20.915 64.048,20.568 L64.097,20.107 L64.56,20.121 C66.689,20.186 68.783,20.3 70.961,20.472 L71.422,20.508 L71.422,20.97 C71.422,23.487 71.295,25.399 71.045,26.651 L70.999,26.883 C71.414,26.87 72.655,26.832 72.655,26.832 L72.75,27.228 C72.79,27.395 72.836,27.621 72.836,27.877 C72.836,28.19 72.812,28.418 72.793,28.544 L72.73,28.937 L72.333,28.965 C71.015,29.056 69.624,29.129 68.097,29.186 C68.101,29.293 68.104,29.396 68.106,29.498 C69.034,29.556 70.028,29.65 71.13,29.788 L71.568,29.843 L71.568,30.284 C71.568,30.645 71.527,31.031 71.447,31.43 L71.366,31.831 L70.957,31.831 C69.951,31.831 69.007,31.777 68.144,31.67 C68.147,31.822 68.15,32.43 68.15,32.43 L67.874,32.568 L67.763,32.617 C68.624,32.725 70.906,33.013 70.906,33.013 L70.828,33.521 C70.77,33.902 70.692,34.265 70.599,34.646 L70.499,35.058 L70.077,35.027" id="Fill-3" fill="#1A1918" sketch:type="MSShapeGroup"></path>
                <path d="M64.545,20.621 C66.916,20.692 69.049,20.822 70.922,20.97 C70.922,23.504 70.793,25.36 70.555,26.554 C69.855,26.665 68.019,26.701 65.023,26.701 C63.848,26.701 62.875,26.592 62.066,26.371 C61.937,24.956 61.863,23.283 61.846,21.355 C62.25,21.317 62.654,21.282 63.057,21.282 C63.096,21.851 63.113,22.42 63.131,22.991 C63.316,22.991 63.555,22.973 63.811,22.973 C64.656,22.973 65.299,23.026 65.777,23.101 C65.812,23.247 65.852,23.413 65.852,23.596 C65.852,23.78 65.832,23.928 65.812,24.075 L63.756,24.075 C63.518,24.075 63.316,24.075 63.168,24.056 C63.187,24.515 63.205,24.975 63.223,25.416 C65.5,25.544 67.578,25.599 69.488,25.599 C69.488,24.7 69.525,23.524 69.635,22.054 C67.742,21.979 66.033,21.851 64.51,21.668 C64.51,21.3 64.51,20.951 64.545,20.621 L64.545,20.621 Z M72.264,27.344 C72.299,27.491 72.336,27.676 72.336,27.877 C72.336,28.153 72.316,28.354 72.299,28.466 C70.719,28.575 69.158,28.649 67.578,28.704 C67.596,29.144 67.613,29.568 67.613,29.972 C68.754,30.027 69.893,30.138 71.068,30.284 C71.068,30.614 71.031,30.963 70.957,31.331 C69.781,31.331 68.662,31.257 67.633,31.093 C67.633,31.442 67.65,31.79 67.65,32.121 C67.504,32.194 67.301,32.232 67.008,32.232 C66.77,32.232 66.566,32.232 66.402,32.194 C66.291,31.074 66.219,29.935 66.199,28.759 C64.398,28.832 62.58,28.87 60.744,28.888 C60.688,28.558 60.67,28.189 60.67,27.821 C64.086,27.639 67.963,27.474 72.264,27.344 L72.264,27.344 Z M61.937,29.99 C62.379,30.046 62.818,30.1 63.223,30.173 C63.113,30.871 63.004,31.644 62.893,32.524 C65.227,32.802 67.707,33.113 70.334,33.444 C70.277,33.811 70.203,34.16 70.113,34.528 C67.063,34.308 64.16,33.939 61.404,33.426 C61.551,32.158 61.734,31.019 61.937,29.99 L61.937,29.99 Z M63.648,19.594 L63.575,20.282 L63.057,20.282 C62.613,20.282 62.186,20.319 61.752,20.359 L60.838,20.446 L60.846,21.364 C60.863,23.304 60.939,25.019 61.07,26.462 L61.102,26.797 C60.939,26.806 60.777,26.814 60.616,26.822 L59.67,26.873 L59.67,27.821 C59.67,28.305 59.699,28.709 59.759,29.057 L59.902,29.895 L60.754,29.888 L60.939,29.886 C60.724,30.987 60.546,32.139 60.411,33.311 L60.304,34.238 L61.221,34.409 C64.007,34.928 66.975,35.304 70.041,35.525 L70.885,35.587 L71.085,34.766 C71.191,34.33 71.267,33.959 71.322,33.597 L71.479,32.581 L70.459,32.452 C69.883,32.38 69.313,32.308 68.751,32.237 C69.445,32.3 70.184,32.331 70.957,32.331 L71.775,32.331 L71.938,31.528 C72.024,31.098 72.068,30.679 72.068,30.284 L72.068,29.483 C72.169,29.476 72.269,29.471 72.368,29.463 L73.162,29.408 L73.287,28.622 C73.305,28.505 73.336,28.253 73.336,27.877 C73.336,27.568 73.283,27.307 73.236,27.111 L73.048,26.319 L72.233,26.344 C72.023,26.351 71.814,26.357 71.605,26.363 C71.815,25.088 71.922,23.277 71.922,20.97 L71.922,20.045 L71,19.973 C68.814,19.801 66.713,19.685 64.575,19.621 L63.648,19.594 L63.648,19.594 Z M66.757,24.562 L66.804,24.207 C66.825,24.046 66.852,23.846 66.852,23.596 C66.852,23.305 66.796,23.06 66.756,22.891 C67.34,22.936 67.945,22.975 68.569,23.007 C68.537,23.56 68.515,24.09 68.502,24.594 C67.928,24.588 67.346,24.577 66.757,24.562 L66.757,24.562 Z M64.289,29.824 C64.607,29.815 64.921,29.806 65.229,29.795 C65.257,30.459 65.301,31.128 65.362,31.815 C64.908,31.76 64.46,31.705 64.017,31.652 C64.08,31.191 64.145,30.753 64.211,30.328 L64.289,29.824 L64.289,29.824 Z" id="Fill-4" fill="#FFFFFF" sketch:type="MSShapeGroup"></path>
                <path d="M54.398,48.702 C54.127,48.702 53.89,48.663 53.713,48.59 L53.449,48.48 L53.409,48.197 C53.222,46.869 53.127,45.387 53.127,43.793 C53.127,42.638 53.164,41.433 53.239,40.109 L53.261,39.724 L53.64,39.647 C53.853,39.604 54.086,39.564 54.346,39.564 C54.641,39.564 54.883,39.61 55.061,39.649 L55.429,39.732 L55.45,40.109 C55.509,41.152 55.545,42.12 55.558,42.997 C55.667,42.741 55.776,42.535 55.895,42.358 L56.108,42.036 L56.474,42.162 C57.615,42.557 58.69,42.97 59.668,43.389 L60.09,43.57 L59.945,44.006 C59.814,44.401 59.645,44.749 59.41,45.1 L59.217,45.387 L58.88,45.308 C57.604,45.009 56.497,44.604 55.592,44.103 L55.562,44.086 C55.56,45.612 55.54,46.956 55.506,48.143 L55.496,48.466 L55.197,48.59 C54.974,48.683 54.64,48.702 54.398,48.702 L54.398,48.702 Z M45.199,47.876 L45.111,47.485 C45.031,47.127 44.99,46.738 44.99,46.329 L44.99,45.915 L45.396,45.838 C45.845,45.753 46.304,45.679 46.767,45.616 C46.752,45.288 46.742,44.955 46.737,44.616 C45.893,44.593 45.227,44.508 44.753,44.361 L44.502,44.284 L44.424,44.034 C44.286,43.597 44.219,43.114 44.219,42.562 C44.219,41.643 44.275,40.666 44.386,39.659 L44.423,39.321 L44.751,39.231 C44.906,39.189 45.118,39.141 45.379,39.141 C45.634,39.141 45.86,39.187 46.028,39.228 L46.163,39.26 L46.262,38.993 L46.741,38.995 C46.753,38.53 46.777,38.062 46.804,37.575 L46.83,37.078 L47.21,37.001 C47.386,36.966 47.653,36.918 47.934,36.918 C48.204,36.918 48.439,36.961 48.638,37.001 L49.019,37.078 L49.038,37.466 C49.067,38.033 49.095,38.579 49.114,39.094 C49.811,39.14 50.495,39.208 51.091,39.272 L51.42,39.308 L51.516,39.625 C51.596,39.891 51.703,40.464 51.703,42.36 C51.703,43.269 51.638,43.786 51.483,44.092 L51.395,44.268 L51.208,44.336 C51.128,44.365 51.035,44.393 50.932,44.417 L50.951,44.488 C51.174,45.304 51.345,46.154 51.459,47.016 L51.51,47.399 L51.15,47.545 C50.728,47.715 50.301,47.802 49.881,47.802 L49.522,47.802 L49.431,47.532 C48.153,47.761 46.867,47.876 45.6,47.876 L45.199,47.876 L45.199,47.876 Z M49.394,42.393 C49.402,42.033 49.409,41.689 49.413,41.35 L49.149,41.327 C49.147,41.575 49.137,42.28 49.135,42.393 L49.394,42.393 L49.394,42.393 Z M46.723,42.393 C46.717,41.992 46.717,41.579 46.717,41.167 L46.717,41.024 C46.625,41.01 46.536,40.994 46.451,40.978 C46.459,41.403 46.464,41.875 46.466,42.393 L46.723,42.393 L46.723,42.393 Z M58.643,39.442 C56.188,39.442 53.723,39.311 51.315,39.054 L50.869,39.006 L50.869,38.557 C50.869,38.168 50.909,37.78 50.989,37.405 L51.076,37 L51.49,37.01 C53.864,37.064 56.252,37.222 58.789,37.49 L59.236,37.537 L59.236,37.987 C59.236,38.326 59.201,38.689 59.134,39.037 L59.055,39.442 L58.643,39.442 L58.643,39.442 Z" id="Fill-5" fill="#1A1918" sketch:type="MSShapeGroup"></path>
                <path d="M47.934,37.418 C48.154,37.418 48.355,37.454 48.539,37.491 C48.576,38.226 48.611,38.925 48.631,39.567 C49.404,39.604 50.193,39.679 51.037,39.77 C51.148,40.138 51.203,41.001 51.203,42.36 C51.203,43.15 51.148,43.646 51.037,43.866 C50.633,44.014 49.826,44.087 48.594,44.105 C48.559,44.748 48.519,45.354 48.484,45.924 C48.852,45.888 49.219,45.87 49.586,45.832 C49.531,45.502 49.494,45.171 49.477,44.841 C49.807,44.729 50.139,44.656 50.469,44.62 C50.689,45.429 50.854,46.256 50.963,47.081 C50.598,47.229 50.229,47.302 49.881,47.302 C49.844,47.192 49.826,47.063 49.807,46.952 C48.338,47.247 46.922,47.376 45.6,47.376 C45.525,47.046 45.49,46.695 45.49,46.329 C46.076,46.218 46.684,46.126 47.291,46.053 C47.252,45.429 47.234,44.785 47.234,44.123 C46.15,44.123 45.379,44.031 44.9,43.884 C44.773,43.48 44.719,43.04 44.719,42.562 C44.719,41.662 44.773,40.707 44.883,39.714 C45.012,39.679 45.178,39.641 45.379,39.641 C45.582,39.641 45.766,39.679 45.912,39.714 C45.947,40.448 45.967,41.515 45.967,42.894 L47.234,42.894 C47.217,42.343 47.217,41.753 47.217,41.167 L47.217,40.596 C46.959,40.559 46.74,40.522 46.537,40.486 L46.537,39.953 C46.537,39.806 46.555,39.641 46.609,39.493 C46.813,39.493 47.014,39.513 47.234,39.513 C47.234,38.851 47.271,38.19 47.309,37.491 C47.492,37.454 47.713,37.418 47.934,37.418 M48.631,42.894 L49.881,42.894 C49.898,42.213 49.916,41.553 49.916,40.89 C49.477,40.854 49.053,40.816 48.65,40.78 L48.65,41.056 C48.65,41.718 48.631,42.322 48.631,42.894 M51.478,37.51 C53.904,37.565 56.311,37.73 58.736,37.987 C58.736,38.317 58.699,38.649 58.643,38.942 C56.199,38.942 53.775,38.814 51.369,38.557 C51.369,38.208 51.404,37.858 51.478,37.51 M54.346,40.064 C54.584,40.064 54.785,40.101 54.951,40.138 C55.023,41.423 55.063,42.617 55.063,43.684 C55.063,45.372 55.043,46.843 55.006,48.128 C54.914,48.166 54.711,48.202 54.398,48.202 C54.16,48.202 53.996,48.166 53.904,48.128 C53.721,46.825 53.627,45.372 53.627,43.793 C53.627,42.617 53.666,41.405 53.738,40.138 C53.922,40.101 54.125,40.064 54.346,40.064 M56.311,42.635 C57.375,43.003 58.441,43.407 59.471,43.849 C59.361,44.179 59.215,44.491 58.994,44.821 C57.744,44.528 56.697,44.142 55.834,43.665 C55.978,43.26 56.127,42.911 56.311,42.635 M47.934,36.418 C47.608,36.418 47.309,36.471 47.11,36.511 L46.352,36.664 L46.311,37.438 L46.304,37.549 C46.287,37.87 46.271,38.183 46.258,38.493 L45.914,38.493 L45.845,38.68 C45.705,38.657 45.549,38.641 45.379,38.641 C45.055,38.641 44.79,38.702 44.619,38.749 L43.963,38.928 L43.889,39.604 C43.776,40.629 43.719,41.624 43.719,42.562 C43.719,43.166 43.793,43.697 43.946,44.184 L44.104,44.684 L44.605,44.84 C45.026,44.969 45.576,45.055 46.248,45.096 L46.25,45.185 C45.926,45.234 45.609,45.289 45.304,45.347 L44.49,45.501 L44.49,46.329 C44.49,46.774 44.535,47.201 44.624,47.596 L44.8,48.376 L45.6,48.376 C46.756,48.376 47.928,48.282 49.095,48.096 L49.164,48.302 L49.881,48.302 C50.365,48.302 50.856,48.203 51.337,48.008 L52.056,47.718 L51.954,46.949 C51.855,46.203 51.715,45.465 51.536,44.749 L51.752,44.67 L51.93,44.316 C52.124,43.932 52.203,43.365 52.203,42.36 C52.203,40.682 52.119,39.992 52.034,39.629 C52.276,39.652 52.519,39.674 52.762,39.694 L52.74,40.081 C52.664,41.414 52.627,42.628 52.627,43.793 C52.627,45.41 52.724,46.916 52.914,48.267 L52.994,48.833 L53.522,49.052 C53.759,49.15 54.062,49.202 54.398,49.202 C54.815,49.202 55.148,49.151 55.389,49.052 L55.986,48.804 L56.006,48.156 C56.034,47.173 56.052,46.08 56.059,44.896 C56.852,45.258 57.759,45.559 58.766,45.795 L59.44,45.953 L59.825,45.377 C60.086,44.988 60.274,44.602 60.42,44.163 L60.709,43.291 L59.865,42.93 C58.876,42.506 57.79,42.089 56.638,41.689 L56.017,41.475 C55.999,41.027 55.977,40.562 55.949,40.082 L55.939,39.891 C56.839,39.925 57.741,39.942 58.643,39.942 L59.468,39.942 L59.624,39.132 C59.697,38.754 59.736,38.357 59.736,37.987 L59.736,37.088 L58.842,36.993 C56.291,36.723 53.89,36.564 51.502,36.51 L50.673,36.491 L50.5,37.302 C50.413,37.711 50.369,38.133 50.369,38.557 L50.369,38.695 C50.118,38.672 49.859,38.648 49.596,38.627 C49.578,38.245 49.559,37.848 49.538,37.44 L49.498,36.665 L48.737,36.511 C48.498,36.463 48.235,36.418 47.934,36.418" id="Fill-6" fill="#FFFFFF" sketch:type="MSShapeGroup"></path>
                <path d="M70.303,48.574 C69.978,48.574 69.741,48.544 69.536,48.475 L69.215,48.367 L69.196,48.028 C69.108,46.442 69.059,44.897 69.05,43.428 C67.197,43.35 65.56,43.26 64.057,43.153 L63.592,43.12 L63.592,42.654 C63.592,42.144 63.639,41.708 63.735,41.32 L63.83,40.941 L64.221,40.941 C65.691,40.941 67.239,40.966 69.056,41.018 C69.082,39.487 69.154,37.915 69.27,36.333 L69.302,35.915 L69.72,35.873 C69.917,35.853 70.155,35.834 70.412,35.834 C70.68,35.834 70.927,35.872 71.175,35.914 L71.592,35.984 L71.592,36.407 C71.592,38.063 71.577,39.631 71.548,41.109 C73.292,41.184 75.011,41.288 76.661,41.421 L77.121,41.457 L77.121,41.919 C77.121,42.322 77.089,42.726 77.023,43.152 L76.958,43.576 L76.529,43.576 C75.132,43.576 73.334,43.567 71.519,43.505 C71.516,45.085 71.498,46.604 71.463,48.049 L71.453,48.425 L71.089,48.521 C70.88,48.574 70.638,48.574 70.303,48.574 L70.303,48.574 Z M66.073,48.2 C65.511,48.021 65.061,47.777 64.697,47.455 L64.392,47.184 L64.597,46.83 C65.037,46.071 65.532,45.288 66.067,44.503 L66.243,44.246 L66.552,44.29 C67.173,44.38 67.644,44.537 68.033,44.785 L68.427,45.034 L68.206,45.444 C67.964,45.893 67.723,46.32 67.481,46.728 C67.36,46.911 67.275,47.049 67.202,47.167 L67.125,47.292 C67.033,47.458 66.969,47.569 66.89,47.669 L66.732,47.883 L66.412,48.308 L66.073,48.2 L66.073,48.2 Z M75.595,47.746 C74.477,47.664 73.524,47.341 72.683,46.759 L72.411,46.571 L72.477,46.249 C72.552,45.874 72.684,45.47 72.857,45.078 L73.009,44.736 L73.38,44.785 C74.317,44.909 75.301,45.235 76.301,45.757 L76.65,45.938 L76.556,46.321 C76.452,46.734 76.285,47.133 76.059,47.507 L75.899,47.769 L75.595,47.746 L75.595,47.746 Z M73.385,40.377 C73.059,39.97 72.827,39.553 72.676,39.101 L72.552,38.728 L72.884,38.519 C73.638,38.044 74.419,37.68 75.205,37.436 L75.555,37.327 L75.764,37.627 C76.057,38.046 76.276,38.473 76.418,38.895 L76.531,39.236 L76.245,39.452 C75.51,40.008 74.737,40.368 73.881,40.553 L73.579,40.618 L73.385,40.377 L73.385,40.377 Z M67.431,40.542 C66.46,40.46 65.601,40.143 64.876,39.601 L64.619,39.408 L64.687,39.094 C64.791,38.616 64.937,38.193 65.133,37.801 L65.296,37.475 L65.656,37.53 C66.439,37.65 67.288,37.968 68.178,38.471 L68.502,38.654 L68.419,39.017 C68.31,39.501 68.133,39.937 67.895,40.312 L67.732,40.567 L67.431,40.542 L67.431,40.542 Z" id="Fill-7" fill="#1A1918" sketch:type="MSShapeGroup"></path>
                <path d="M70.412,36.334 C70.65,36.334 70.871,36.37 71.092,36.407 C71.092,38.244 71.074,39.971 71.037,41.589 C72.91,41.662 74.785,41.771 76.621,41.919 C76.621,42.322 76.586,42.708 76.529,43.076 C74.656,43.076 72.82,43.059 71.019,42.985 C71.019,44.748 71.002,46.438 70.963,48.036 C70.816,48.074 70.596,48.074 70.303,48.074 C70.064,48.074 69.861,48.057 69.695,48.001 C69.604,46.348 69.549,44.656 69.549,42.947 C67.713,42.874 65.893,42.782 64.092,42.654 C64.092,42.213 64.129,41.81 64.221,41.441 C66.021,41.441 67.785,41.478 69.549,41.532 C69.566,39.844 69.641,38.116 69.77,36.37 C69.953,36.352 70.174,36.334 70.412,36.334 L70.412,36.334 Z M75.354,37.913 C75.611,38.282 75.814,38.668 75.943,39.054 C75.264,39.567 74.547,39.897 73.775,40.064 C73.48,39.696 73.279,39.328 73.15,38.942 C73.848,38.503 74.582,38.152 75.354,37.913 L75.354,37.913 Z M65.58,38.024 C66.297,38.135 67.088,38.429 67.932,38.906 C67.84,39.311 67.693,39.696 67.473,40.044 C66.609,39.971 65.838,39.696 65.176,39.2 C65.268,38.777 65.396,38.392 65.58,38.024 L65.58,38.024 Z M66.48,44.785 C66.994,44.859 67.418,44.986 67.766,45.207 C67.527,45.649 67.289,46.071 67.051,46.475 C66.902,46.695 66.793,46.88 66.701,47.026 C66.629,47.155 66.572,47.265 66.498,47.358 C66.426,47.468 66.334,47.577 66.225,47.724 C65.764,47.577 65.361,47.376 65.029,47.081 C65.508,46.256 66.004,45.483 66.48,44.785 L66.48,44.785 Z M73.314,45.281 C74.16,45.393 75.08,45.685 76.07,46.2 C75.979,46.568 75.832,46.916 75.631,47.247 C74.619,47.173 73.736,46.88 72.967,46.348 C73.041,45.979 73.168,45.611 73.314,45.281 L73.314,45.281 Z M70.412,35.334 C70.111,35.334 69.844,35.357 69.669,35.375 L68.834,35.46 L68.772,36.297 C68.727,36.922 68.687,37.546 68.654,38.166 L68.424,38.036 C67.481,37.502 66.575,37.166 65.732,37.036 L65.012,36.925 L64.686,37.577 C64.471,38.008 64.312,38.469 64.198,38.988 L64.063,39.615 L64.576,40 C64.801,40.169 65.036,40.316 65.283,40.445 C64.923,40.442 64.569,40.441 64.221,40.441 L63.439,40.441 L63.25,41.199 C63.144,41.628 63.092,42.103 63.092,42.654 L63.092,43.586 L64.022,43.651 C64.643,43.696 65.286,43.737 65.959,43.775 L65.654,44.222 C65.112,45.017 64.61,45.809 64.164,46.579 L63.754,47.286 L64.365,47.829 C64.782,48.199 65.291,48.477 65.922,48.677 L66.6,48.893 L67.025,48.322 L67.127,48.189 L67.31,47.943 C67.408,47.812 67.479,47.684 67.543,47.57 L67.573,47.516 L67.628,47.43 C67.697,47.316 67.779,47.184 67.881,47.033 L67.896,47.009 L67.912,46.983 C68.14,46.598 68.368,46.194 68.596,45.773 C68.62,46.522 68.654,47.285 68.697,48.057 L68.734,48.733 L69.377,48.949 C69.636,49.035 69.921,49.074 70.303,49.074 C70.661,49.074 70.944,49.074 71.215,49.004 L71.944,48.814 L71.963,48.061 C71.972,47.679 71.98,47.287 71.987,46.886 L72.398,47.17 C73.302,47.796 74.365,48.157 75.558,48.244 L76.168,48.289 L76.485,47.767 C76.738,47.35 76.926,46.904 77.041,46.442 L77.231,45.678 L76.532,45.313 C75.48,44.766 74.441,44.421 73.445,44.29 L72.704,44.192 L72.4,44.876 C72.219,45.284 72.084,45.691 72,46.087 C72.009,45.42 72.015,44.73 72.018,44.021 C73.662,44.069 75.261,44.076 76.529,44.076 L77.387,44.076 L77.518,43.228 C77.587,42.775 77.621,42.348 77.621,41.919 L77.621,40.996 L76.701,40.922 C76.096,40.873 75.48,40.828 74.859,40.787 C75.451,40.567 76.009,40.258 76.546,39.852 L77.119,39.418 L76.892,38.736 C76.735,38.27 76.494,37.799 76.174,37.341 L75.755,36.741 L75.058,36.958 C74.229,37.215 73.408,37.598 72.617,38.097 L72.084,38.433 C72.089,37.774 72.092,37.099 72.092,36.407 L72.092,35.561 L71.258,35.421 C71.026,35.382 70.739,35.334 70.412,35.334 L70.412,35.334 Z M72.057,40.631 C72.066,40.069 72.074,39.49 72.08,38.894 L72.202,39.26 C72.37,39.763 72.626,40.227 72.984,40.677 C72.677,40.66 72.367,40.646 72.057,40.631 L72.057,40.631 Z M68.367,40.499 C68.443,40.373 68.513,40.241 68.576,40.104 C68.572,40.238 68.569,40.371 68.566,40.504 L68.367,40.499 L68.367,40.499 Z M68.564,44.529 L68.302,44.363 C67.887,44.1 67.403,43.926 66.791,43.821 C67.357,43.852 67.944,43.88 68.555,43.906 C68.557,44.113 68.561,44.32 68.564,44.529 L68.564,44.529 Z" id="Fill-8" fill="#FFFFFF" sketch:type="MSShapeGroup"></path>
                <path d="M83.631,48.445 C82.821,48.232 82.151,47.92 81.584,47.489 L81.346,47.308 L81.393,47.012 C81.476,46.495 81.765,45.836 82.276,44.997 L82.435,44.738 L82.736,44.759 C83.366,44.802 84.079,45.093 84.855,45.624 L85.072,45.772 L85.072,46.036 C85.072,46.315 84.972,46.673 84.736,47.229 C84.602,47.557 84.386,48.01 84.131,48.295 L83.927,48.523 L83.631,48.445 L83.631,48.445 Z M83.545,43.864 C82.861,43.574 82.475,43.15 82.394,42.606 L82.354,42.331 L82.565,42.151 C85.196,39.922 85.48,38.995 85.48,38.7 C85.48,38.013 85.269,37.31 83.703,37.31 C82.719,37.31 81.699,37.991 80.673,39.337 L80.43,39.655 L80.065,39.487 C79.458,39.205 79.094,38.875 78.952,38.478 L78.883,38.282 L78.973,38.095 C79.403,37.192 80.032,36.447 80.842,35.881 C81.696,35.27 82.642,34.958 83.646,34.958 C87.152,34.958 87.889,36.993 87.889,38.7 C87.889,40.138 86.668,41.758 84.048,43.799 L83.815,43.979 L83.545,43.864 L83.545,43.864 Z" id="Fill-9" fill="#1A1918" sketch:type="MSShapeGroup"></path>
                <path d="M83.646,35.458 C86.129,35.458 87.389,36.552 87.389,38.7 C87.389,39.96 86.166,41.515 83.74,43.404 C83.221,43.184 82.943,42.904 82.889,42.533 C84.943,40.792 85.98,39.515 85.98,38.7 C85.98,37.44 85.221,36.809 83.703,36.809 C82.555,36.809 81.406,37.551 80.275,39.033 C79.795,38.81 79.516,38.569 79.424,38.311 C79.813,37.496 80.387,36.809 81.129,36.29 C81.904,35.735 82.758,35.458 83.646,35.458 M82.703,45.258 C83.238,45.294 83.869,45.555 84.572,46.036 C84.572,46.257 84.463,46.592 84.275,47.035 C84.092,47.48 83.906,47.796 83.758,47.962 C83.055,47.777 82.424,47.499 81.887,47.091 C81.961,46.628 82.24,46.017 82.703,45.258 M83.646,34.458 C82.535,34.458 81.492,34.801 80.547,35.476 C79.674,36.088 78.99,36.898 78.521,37.88 L78.343,38.254 L78.481,38.645 C78.67,39.176 79.119,39.6 79.855,39.94 L80.584,40.278 L81.07,39.64 C81.997,38.426 82.883,37.81 83.703,37.81 C84.981,37.81 84.981,38.283 84.981,38.7 C84.979,38.73 84.927,39.495 82.242,41.771 L81.818,42.129 L81.899,42.679 C82.007,43.408 82.494,43.962 83.35,44.324 L83.545,44.408 C83.278,44.326 83.019,44.277 82.77,44.26 L82.165,44.219 L81.85,44.737 C81.296,45.644 80.994,46.342 80.899,46.933 L80.805,47.524 L81.281,47.887 C81.902,48.358 82.629,48.699 83.504,48.93 L84.096,49.084 L84.503,48.629 C84.805,48.291 85.049,47.783 85.2,47.416 C85.463,46.793 85.572,46.391 85.572,46.036 L85.572,45.509 L85.137,45.211 C84.715,44.922 84.305,44.697 83.912,44.538 L84.354,44.193 C87.106,42.049 88.389,40.304 88.389,38.7 C88.389,36.004 86.66,34.458 83.646,34.458" id="Fill-10" fill="#FFFFFF" sketch:type="MSShapeGroup"></path>
                <path d="M11.5,8 C11.5,8 5.832,21.27 6.166,22.219 C6.5,23.167 2.5,26.901 2.5,26.901 C2.5,26.901 4.762,33.572 5.221,33.757 C5.68,33.941 10.166,32.5 10.166,32.5 L20.394,38.167 L34,36.334 L37.445,31.688 C37.445,31.688 36.576,21.837 41.861,19.597 L45.037,15.471 L45.834,9.833 L38.834,9.333 L32.5,4.5 L22.564,2.667 L11.5,8" id="Fill-11" fill="#ECCFBF" sketch:type="MSShapeGroup"></path>
                <path d="M39.164,7.403 C34.375,2.315 27.039,0.27 20.227,1.948 C20.104,1.955 19.977,1.975 19.846,2.022 L19.598,2.121 C18.766,2.354 17.943,2.633 17.135,2.98 C9.543,6.258 4.76,14 5.238,22.044 C2.037,23.471 0.564,27.226 1.959,30.453 C3.352,33.682 7.094,35.186 10.328,33.835 C15.852,39.701 24.768,41.532 32.359,38.256 C35.314,36.98 37.836,35.021 39.795,32.639 C38.998,32.383 38.199,32.07 37.445,31.688 C35.801,33.521 33.762,35.035 31.406,36.051 C24.475,39.043 16.297,37.197 11.518,31.562 L10.85,30.773 L9.971,31.318 C9.773,31.441 9.604,31.53 9.445,31.599 C7.41,32.478 5.041,31.536 4.162,29.501 C3.285,27.467 4.225,25.096 6.26,24.218 C6.42,24.149 6.6,24.09 6.824,24.027 L7.824,23.761 L7.709,22.734 C7.15,17.757 8.938,12.841 12.303,9.258 C12.262,11.703 14.607,13.685 17.125,13.767 C20.264,13.869 24.551,12.208 25.178,8.771 C25.461,7.223 24.092,6.009 22.768,5.604 C20.91,5.039 18.867,5.727 17.531,7.062 C16.449,8.144 17.938,10.032 19.035,8.936 C19.83,8.142 20.691,7.738 21.83,7.845 C23.391,7.994 22.57,9.289 21.797,9.924 C20.357,11.106 17.764,11.768 15.981,11.168 C13.729,10.412 15.103,7.855 16.201,6.846 C17.394,5.748 18.889,4.974 20.394,4.387 C26.764,2.652 33.719,4.653 37.975,9.672 L38.645,10.461 L39.521,9.917 C39.721,9.795 39.889,9.706 40.047,9.637 C42.082,8.759 44.451,9.699 45.33,11.736 C46.209,13.769 45.268,16.14 43.232,17.019 C43.074,17.087 42.893,17.148 42.67,17.207 L41.67,17.473 L41.785,18.502 C41.826,18.867 41.846,19.232 41.861,19.597 C42.162,19.374 42.488,19.18 42.848,19.024 C43.633,18.686 44.455,18.564 45.252,18.634 C47.744,16.937 48.775,13.654 47.537,10.784 C46.143,7.556 42.4,6.05 39.164,7.403" id="Fill-12" fill="#010604" sketch:type="MSShapeGroup"></path>
                <path d="M39.164,7.403 L39.528,7.061 C35.741,3.038 30.413,0.873 24.977,0.873 C23.351,0.873 21.715,1.066 20.106,1.463 L20.227,1.948 L20.199,1.449 C20.043,1.457 19.861,1.484 19.674,1.553 L19.666,1.556 L19.413,1.656 L19.598,2.121 L19.463,1.64 C18.613,1.878 17.769,2.163 16.937,2.521 C9.51,5.729 4.707,13.092 4.705,20.936 C4.705,21.314 4.716,21.693 4.739,22.074 L5.238,22.044 L5.035,21.587 C2.468,22.732 0.932,25.263 0.933,27.916 C0.933,28.831 1.115,29.761 1.5,30.651 C2.628,33.266 5.184,34.831 7.863,34.83 C8.751,34.831 9.653,34.658 10.521,34.296 L10.328,33.835 L9.964,34.178 C13.752,38.2 19.084,40.369 24.524,40.369 C27.232,40.369 29.97,39.831 32.558,38.715 C35.589,37.406 38.174,35.397 40.181,32.956 L40.648,32.388 L39.947,32.162 C39.171,31.913 38.396,31.609 37.671,31.242 L37.329,31.069 L37.073,31.354 C35.475,33.137 33.494,34.605 31.208,35.592 C29.052,36.522 26.771,36.971 24.513,36.971 C19.723,36.972 15.045,34.949 11.898,31.239 L10.952,30.121 L9.707,30.894 C9.526,31.006 9.38,31.082 9.247,31.14 C8.793,31.336 8.322,31.428 7.857,31.428 C6.494,31.428 5.193,30.631 4.621,29.303 C4.426,28.85 4.334,28.379 4.334,27.914 C4.334,26.551 5.129,25.249 6.458,24.677 C6.588,24.621 6.746,24.568 6.958,24.509 L6.824,24.027 L6.953,24.511 L7.953,24.244 L8.369,24.133 L8.206,22.679 C8.14,22.093 8.107,21.507 8.107,20.925 C8.107,16.716 9.794,12.658 12.667,9.6 L12.303,9.258 L11.803,9.249 L11.802,9.32 C11.803,10.694 12.464,11.917 13.444,12.792 C14.426,13.669 15.735,14.221 17.108,14.268 C17.205,14.27 17.302,14.271 17.398,14.271 C19.041,14.27 20.901,13.84 22.471,12.959 C24.034,12.082 25.33,10.719 25.67,8.861 C25.7,8.692 25.715,8.526 25.715,8.362 C25.715,7.528 25.329,6.807 24.802,6.266 C24.272,5.723 23.595,5.335 22.913,5.126 C22.419,4.976 21.914,4.905 21.413,4.905 C19.822,4.907 18.284,5.604 17.178,6.709 C16.819,7.063 16.652,7.521 16.655,7.947 C16.656,8.421 16.838,8.855 17.125,9.188 C17.411,9.519 17.824,9.764 18.311,9.767 C18.69,9.77 19.081,9.6 19.388,9.29 C20.048,8.641 20.654,8.334 21.478,8.328 C21.577,8.328 21.678,8.332 21.782,8.343 C22.049,8.366 22.175,8.434 22.201,8.459 L22.213,8.47 L22.216,8.496 C22.223,8.557 22.158,8.757 22.014,8.961 C21.873,9.167 21.67,9.382 21.48,9.537 C20.528,10.328 18.894,10.898 17.483,10.893 C16.995,10.893 16.535,10.827 16.14,10.693 C15.77,10.568 15.567,10.407 15.445,10.242 C15.326,10.076 15.27,9.886 15.269,9.641 C15.266,9.267 15.424,8.785 15.673,8.338 C15.92,7.891 16.253,7.477 16.539,7.214 C17.665,6.178 19.104,5.426 20.576,4.852 L20.394,4.387 L20.525,4.869 C21.995,4.469 23.497,4.273 24.989,4.273 C29.776,4.273 34.45,6.288 37.594,9.995 L38.542,11.113 L39.785,10.342 L39.783,10.344 C39.968,10.23 40.114,10.153 40.248,10.095 L40.245,10.096 C40.699,9.9 41.17,9.808 41.634,9.808 C42.997,9.809 44.298,10.603 44.871,11.935 C45.067,12.389 45.159,12.858 45.159,13.322 C45.158,14.684 44.362,15.986 43.034,16.559 C42.903,16.616 42.747,16.67 42.543,16.724 L41.541,16.989 L41.125,17.1 L41.288,18.558 C41.327,18.903 41.347,19.258 41.361,19.618 L41.402,20.559 L42.159,19.998 C42.433,19.796 42.725,19.622 43.046,19.483 C43.627,19.232 44.227,19.115 44.82,19.115 C44.95,19.115 45.079,19.12 45.208,19.132 L45.386,19.147 L45.533,19.047 C47.448,17.742 48.561,15.575 48.562,13.314 C48.562,12.402 48.379,11.475 47.996,10.586 C46.866,7.973 44.312,6.406 41.632,6.406 C40.742,6.406 39.839,6.579 38.971,6.942 L39.164,7.403 L39.528,7.061 L39.164,7.403 L39.357,7.864 C40.101,7.553 40.871,7.406 41.632,7.406 C43.925,7.407 46.113,8.747 47.078,10.982 C47.406,11.744 47.561,12.535 47.561,13.314 C47.561,15.247 46.606,17.107 44.971,18.221 L45.252,18.634 L45.296,18.136 C45.138,18.122 44.979,18.115 44.82,18.115 C44.094,18.115 43.356,18.26 42.649,18.565 C42.252,18.737 41.892,18.952 41.563,19.194 L41.861,19.597 L42.361,19.575 C42.345,19.207 42.325,18.83 42.282,18.446 L42.215,17.845 L42.798,17.69 C43.038,17.627 43.244,17.558 43.431,17.478 C45.137,16.739 46.159,15.072 46.159,13.322 C46.159,12.726 46.04,12.118 45.789,11.538 C45.051,9.83 43.383,8.807 41.634,8.808 C41.037,8.808 40.43,8.927 39.849,9.178 L39.846,9.179 C39.663,9.259 39.474,9.359 39.26,9.49 L39.258,9.492 L38.747,9.809 L38.355,9.349 C35.009,5.403 30.055,3.273 24.989,3.273 C23.41,3.273 21.819,3.48 20.263,3.904 L20.238,3.911 L20.213,3.921 C18.674,4.521 17.124,5.318 15.862,6.477 C15.484,6.827 15.102,7.308 14.798,7.854 C14.498,8.401 14.271,9.011 14.269,9.641 C14.268,10.048 14.374,10.472 14.638,10.832 C14.9,11.193 15.305,11.47 15.821,11.642 C16.343,11.816 16.906,11.892 17.483,11.892 C19.148,11.887 20.927,11.276 22.114,10.31 C22.375,10.095 22.632,9.826 22.838,9.526 C23.04,9.225 23.21,8.896 23.216,8.496 C23.224,8.213 23.09,7.882 22.831,7.682 C22.577,7.479 22.26,7.385 21.878,7.347 C21.741,7.334 21.608,7.328 21.478,7.328 C20.366,7.321 19.444,7.811 18.682,8.582 C18.522,8.736 18.412,8.764 18.311,8.767 C18.184,8.769 18.02,8.693 17.881,8.533 C17.743,8.376 17.653,8.151 17.655,7.947 C17.658,7.761 17.713,7.592 17.885,7.416 C18.81,6.488 20.121,5.902 21.413,5.905 C21.82,5.905 22.227,5.962 22.622,6.083 C23.145,6.241 23.692,6.558 24.085,6.963 C24.48,7.371 24.715,7.845 24.715,8.362 C24.715,8.466 24.706,8.572 24.686,8.682 C24.416,10.162 23.377,11.299 21.981,12.087 C20.59,12.872 18.865,13.273 17.398,13.271 L17.141,13.268 C16.019,13.232 14.916,12.768 14.11,12.047 C13.304,11.323 12.802,10.363 12.802,9.32 L12.825,7.972 L11.938,8.915 C8.898,12.152 7.108,16.447 7.107,20.925 C7.107,21.544 7.143,22.167 7.212,22.79 L7.279,23.389 L6.695,23.544 L6.685,23.547 L6.69,23.546 C6.453,23.611 6.252,23.678 6.064,23.758 C4.354,24.496 3.333,26.164 3.334,27.914 C3.333,28.511 3.452,29.118 3.703,29.699 C4.44,31.405 6.107,32.428 7.857,32.428 C8.454,32.428 9.062,32.309 9.644,32.058 C9.827,31.978 10.02,31.877 10.235,31.742 L10.746,31.426 L11.136,31.886 C14.485,35.834 19.443,37.971 24.513,37.971 C26.903,37.971 29.319,37.496 31.605,36.51 C34.029,35.464 36.127,33.906 37.817,32.022 L37.445,31.688 L37.22,32.135 C38.002,32.531 38.825,32.853 39.642,33.114 L39.795,32.639 L39.408,32.321 C37.498,34.646 35.04,36.555 32.161,37.797 C29.702,38.857 27.101,39.369 24.524,39.369 C19.348,39.369 14.279,37.303 10.692,33.492 L10.455,33.24 L10.136,33.373 C9.392,33.684 8.622,33.83 7.863,33.83 C5.569,33.83 3.382,32.491 2.418,30.255 C2.088,29.491 1.933,28.698 1.933,27.916 C1.933,25.646 3.247,23.478 5.441,22.501 L5.758,22.359 L5.737,22.014 C5.716,21.654 5.705,21.295 5.705,20.936 C5.703,13.503 10.274,6.484 17.333,3.439 C18.117,3.102 18.918,2.831 19.732,2.602 L19.759,2.595 L20.03,2.487 L19.846,2.022 L20.018,2.492 L20.254,2.447 L20.301,2.445 L20.346,2.434 C21.874,2.057 23.43,1.873 24.977,1.873 C30.149,1.873 35.214,3.935 38.8,7.746 L39.037,7.998 L39.357,7.864 L39.164,7.403" id="Fill-13" fill="#FFFFFF" sketch:type="MSShapeGroup"></path>
                <path d="M19.76,21.862 C17.863,22.681 19.133,25.621 21.027,24.803 C22.924,23.984 21.656,21.044 19.76,21.862" id="Fill-14" fill="#010604" sketch:type="MSShapeGroup"></path>
                <path d="M28.992,17.66 C27.096,18.478 28.365,21.418 30.262,20.6 C32.156,19.782 30.889,16.842 28.992,17.66" id="Fill-15" fill="#010604" sketch:type="MSShapeGroup"></path>
                <path d="M28.871,30.176 C31.262,29.144 32.369,26.357 31.336,23.967 C31.072,23.356 30.365,23.078 29.758,23.34 C29.148,23.602 28.867,24.309 29.131,24.919 C29.639,26.094 29.094,27.463 27.92,27.97 C26.744,28.477 25.375,27.934 24.869,26.759 C24.606,26.147 23.898,25.868 23.289,26.132 C22.682,26.394 22.4,27.101 22.662,27.71 C23.693,30.101 26.481,31.207 28.871,30.176" id="Fill-16" fill="#DE7882" sketch:type="MSShapeGroup"></path>
                <path d="M21.377,25.685 C20.648,25.685 19.625,25.986 18.592,26.551 C16.887,27.482 15.801,28.781 16.168,29.454 C16.313,29.719 16.662,29.847 17.137,29.847 C17.865,29.847 18.888,29.547 19.92,28.982 C21.627,28.051 22.713,26.751 22.346,26.078 C22.201,25.813 21.852,25.685 21.377,25.685" id="Fill-17" fill="#E4A29F" sketch:type="MSShapeGroup"></path>
                <path d="M35.942,19.135 C35.266,19.135 34.354,19.395 33.441,19.895 C31.871,20.753 30.893,21.993 31.26,22.666 C31.414,22.948 31.781,23.085 32.271,23.085 C32.948,23.085 33.859,22.825 34.772,22.327 C36.344,21.467 37.322,20.227 36.955,19.555 C36.801,19.272 36.434,19.135 35.942,19.135" id="Fill-18" fill="#E4A29F" sketch:type="MSShapeGroup"></path>
            </g>
        </g>
    </g>
</svg>