<?xml version="1.0" encoding="UTF-8" standalone="no"?>
<svg width="120px" height="120px" viewBox="0 0 120 120" version="1.1" xmlns="http://www.w3.org/2000/svg" xmlns:xlink="http://www.w3.org/1999/xlink" xmlns:sketch="http://www.bohemiancoding.com/sketch/ns">
    <!-- Generator: Sketch 3.3.2 (12043) - http://www.bohemiancoding.com/sketch -->
    <title>Mobile Portrait Copy 5</title>
    <desc>Created with Sketch.</desc>
    <defs></defs>
    <g id="baby" stroke="none" stroke-width="1" fill="none" fill-rule="evenodd" sketch:type="MSPage">
        <g id="Mobile-Portrait-Copy-5" sketch:type="MSArtboardGroup">
            <g id="Imported-Layers" sketch:type="MSLayerGroup" transform="translate(23.000000, 24.000000)">
                <path d="M10.152,22.601 L10.009,22.348 C9.759,21.907 9.629,21.344 9.6,20.573 L9.584,20.142 L10.009,20.063 C10.88,19.902 11.719,19.783 12.559,19.702 L10.971,5.281 L11.399,5.138 C12.134,4.968 12.789,4.886 13.404,4.886 L13.829,4.886 L13.897,5.305 C14.75,10.52 15.316,15.938 15.583,21.41 L15.601,21.771 L15.265,21.901 C14.047,22.372 12.471,22.601 10.443,22.601 L10.152,22.601 L10.152,22.601 Z M3.519,18.842 C2.764,18.812 2.083,18.595 1.497,18.195 L1.211,18 L1.294,17.663 C1.842,15.425 2.523,13.337 3.319,11.456 L3.478,11.078 L3.881,11.162 C4.531,11.297 5.165,11.518 5.764,11.817 L6.14,12.007 L6.018,12.41 C5.467,14.224 4.792,16.274 4.011,18.507 L3.889,18.855 L3.519,18.842 L3.519,18.842 Z M20.811,16.941 C19.929,15.434 19.269,13.952 18.792,12.412 L18.657,11.979 L19.076,11.804 C19.726,11.531 20.322,11.288 20.864,11.099 L21.291,10.949 L21.845,12.124 C22.095,12.648 22.337,13.157 22.555,13.665 C22.887,14.439 23.18,15.133 23.396,15.784 L23.507,16.117 L23.232,16.334 C22.677,16.773 22.036,17.06 21.328,17.182 L20.985,17.241 L20.811,16.941 L20.811,16.941 Z" id="Fill-1" fill="#D2DB2F" sketch:type="MSShapeGroup"></path>
                <path d="M13.404,5.386 C14.258,10.61 14.816,15.942 15.084,21.435 C13.91,21.889 12.365,22.101 10.443,22.101 C10.232,21.729 10.125,21.222 10.1,20.555 C11.111,20.368 12.098,20.235 13.111,20.155 C12.578,15.33 12.045,10.477 11.512,5.625 C12.205,5.465 12.818,5.386 13.404,5.386 L13.404,5.386 Z M21.029,11.57 C21.402,12.37 21.775,13.116 22.096,13.862 C22.416,14.609 22.709,15.303 22.922,15.942 C22.416,16.343 21.856,16.583 21.242,16.689 C20.416,15.276 19.748,13.811 19.269,12.265 C19.908,11.997 20.496,11.757 21.029,11.57 L21.029,11.57 Z M3.779,11.651 C4.42,11.784 5.006,11.997 5.539,12.265 C4.981,14.104 4.312,16.13 3.539,18.342 C2.873,18.316 2.287,18.129 1.779,17.782 C2.315,15.596 2.979,13.543 3.779,11.651 L3.779,11.651 Z M14.254,4.386 L13.404,4.386 C12.751,4.386 12.059,4.473 11.287,4.65 L10.421,4.851 L10.518,5.734 L10.523,5.788 C11.018,10.285 11.512,14.782 12.006,19.258 C11.319,19.336 10.629,19.44 9.918,19.571 L9.067,19.729 L9.101,20.593 C9.133,21.445 9.283,22.082 9.573,22.594 L9.86,23.101 L10.443,23.101 C12.533,23.101 14.169,22.86 15.444,22.367 L16.118,22.106 L16.083,21.386 C15.815,15.896 15.246,10.458 14.392,5.225 L14.254,4.386 L14.254,4.386 Z M21.553,10.328 L20.699,10.627 C20.16,10.814 19.583,11.049 18.883,11.342 L18.046,11.693 L18.315,12.561 C18.803,14.137 19.477,15.652 20.379,17.194 L20.73,17.793 L21.413,17.675 C22.205,17.537 22.921,17.219 23.543,16.727 L24.092,16.291 L23.871,15.627 C23.647,14.957 23.352,14.253 23.015,13.469 C22.791,12.947 22.551,12.443 22.296,11.909 C22.177,11.659 22.057,11.406 21.936,11.147 L21.553,10.328 L21.553,10.328 Z M3.179,10.506 L2.858,11.262 C2.052,13.166 1.362,15.28 0.808,17.545 L0.644,18.218 L1.216,18.608 C1.88,19.063 2.649,19.309 3.501,19.341 L4.239,19.369 L4.483,18.672 C5.266,16.434 5.943,14.375 6.496,12.556 L6.741,11.749 L5.987,11.371 C5.35,11.051 4.676,10.816 3.982,10.672 L3.179,10.506 L3.179,10.506 Z" id="Fill-2" fill="#FFFFFF" sketch:type="MSShapeGroup"></path>
                <path d="M39.466,20.485 C34.232,20.43 31.19,20.145 29.89,19.592 L29.423,19.393 L29.629,18.929 C30.19,17.667 30.975,16.078 31.962,14.207 C32.744,12.75 33.635,11.157 34.61,9.471 L34.823,9.102 L35.222,9.254 C35.845,9.491 36.449,9.771 37.069,10.108 L37.488,10.337 L37.28,10.766 C36.277,12.833 35.134,15.182 34.048,17.303 C35.911,17.443 37.821,17.593 39.706,17.782 L40.156,17.827 L40.156,18.279 C40.156,18.959 40.053,19.598 39.962,20.078 L39.885,20.49 L39.466,20.485 L39.466,20.485 Z M42.412,19.463 C41.671,18.351 41.086,17.162 40.623,15.831 L40.469,15.387 L40.903,15.206 C41.554,14.934 42.148,14.69 42.69,14.501 L43.099,14.358 L43.621,15.352 C43.833,15.752 44.041,16.144 44.236,16.537 C44.541,17.175 44.789,17.754 44.978,18.267 L45.106,18.618 L44.805,18.841 C44.261,19.241 43.632,19.521 42.935,19.674 L42.602,19.747 L42.412,19.463 L42.412,19.463 Z M26.607,10.675 C25.898,10.318 25.372,9.771 25.045,9.047 L24.907,8.745 L25.133,8.501 C27.413,6.039 29.899,3.751 32.523,1.702 L32.803,1.482 L33.102,1.676 C33.697,2.062 34.213,2.529 34.637,3.066 L34.88,3.375 L34.638,3.685 C33.097,5.649 30.644,7.919 27.138,10.623 L26.889,10.815 L26.607,10.675 L26.607,10.675 Z M44.618,8.742 C42.222,7.037 40.085,5.127 38.268,3.066 L38.049,2.818 L38.191,2.52 C38.539,1.792 39.077,1.284 39.837,0.968 L40.119,0.85 L40.354,1.048 C42.48,2.856 44.636,4.742 46.762,6.655 L47.095,6.954 L46.835,7.318 C46.394,7.936 45.84,8.413 45.14,8.778 L44.868,8.92 L44.618,8.742 L44.618,8.742 Z" id="Fill-3" fill="#D2DB2F" sketch:type="MSShapeGroup"></path>
                <path d="M40.029,1.429 C42.162,3.242 44.295,5.108 46.428,7.027 C46.027,7.588 45.521,8.015 44.908,8.335 C42.51,6.628 40.43,4.762 38.643,2.735 C38.936,2.122 39.389,1.696 40.029,1.429 L40.029,1.429 Z M32.83,2.096 C33.365,2.442 33.844,2.868 34.244,3.376 C32.697,5.349 30.219,7.615 26.832,10.228 C26.193,9.907 25.766,9.428 25.5,8.841 C27.82,6.335 30.272,4.095 32.83,2.096 L32.83,2.096 Z M35.043,9.721 C35.604,9.935 36.191,10.2 36.83,10.548 C35.551,13.187 34.377,15.586 33.258,17.745 C35.391,17.905 37.523,18.065 39.656,18.279 C39.656,18.865 39.576,19.425 39.471,19.985 C34.457,19.932 31.338,19.665 30.086,19.132 C30.619,17.933 31.393,16.358 32.404,14.44 C33.178,13 34.057,11.427 35.043,9.721 L35.043,9.721 Z M42.855,14.973 C43.176,15.586 43.496,16.172 43.789,16.76 C44.082,17.373 44.322,17.933 44.508,18.439 C44.002,18.812 43.441,19.052 42.828,19.186 C42.082,18.065 41.522,16.893 41.096,15.667 C41.736,15.399 42.322,15.159 42.855,14.973 L42.855,14.973 Z M40.21,0.27 L39.644,0.506 C38.778,0.867 38.138,1.473 37.74,2.305 L37.455,2.9 L37.893,3.396 C39.735,5.486 41.9,7.422 44.328,9.149 L44.828,9.505 L45.371,9.222 C46.132,8.824 46.761,8.281 47.241,7.608 L47.761,6.882 L47.097,6.284 C44.967,4.367 42.807,2.478 40.677,0.667 L40.21,0.27 L40.21,0.27 Z M32.775,0.869 L32.215,1.308 C29.57,3.373 27.065,5.68 24.767,8.161 L24.315,8.648 L24.589,9.253 C24.965,10.084 25.569,10.713 26.384,11.121 L26.945,11.403 L27.442,11.019 C30.982,8.289 33.465,5.991 35.031,3.993 L35.517,3.374 L35.029,2.757 C34.572,2.177 34.015,1.672 33.374,1.257 L32.775,0.869 L32.775,0.869 Z M34.603,8.482 L34.178,9.221 C33.199,10.911 32.307,12.509 31.523,13.968 C30.527,15.855 29.738,17.453 29.172,18.726 L28.76,19.654 L29.694,20.052 C31.074,20.64 34.087,20.928 39.46,20.985 L40.299,20.994 L40.453,20.17 C40.548,19.668 40.656,19 40.656,18.279 L40.656,17.375 L39.756,17.284 C38.117,17.12 36.462,16.986 34.834,16.861 C35.817,14.92 36.831,12.839 37.729,10.984 L38.147,10.126 L37.309,9.67 C36.668,9.321 36.044,9.032 35.399,8.786 L34.603,8.482 L34.603,8.482 Z M43.342,13.743 L42.525,14.028 C41.946,14.231 41.311,14.493 40.71,14.744 L39.843,15.106 L40.151,15.995 C40.628,17.367 41.23,18.592 41.996,19.74 L42.374,20.309 L43.041,20.162 C43.808,19.995 44.501,19.686 45.102,19.243 L45.705,18.798 L45.446,18.094 C45.254,17.567 44.999,16.974 44.691,16.329 C44.486,15.917 44.277,15.521 44.062,15.118 L43.742,14.51 L43.342,13.743 L43.342,13.743 Z" id="Fill-4" fill="#FFFFFF" sketch:type="MSShapeGroup"></path>
                <path d="M61.624,27.533 L61.545,27.129 C61.327,26.018 61.157,24.919 61.029,23.785 C59.432,23.904 57.762,23.96 55.822,23.96 L55.421,23.96 L55.334,23.567 C55.223,23.063 55.164,22.491 55.164,21.914 L55.164,21.482 L55.591,21.419 C57.237,21.177 58.963,20.976 60.726,20.819 C60.699,20.468 60.674,20.12 60.654,19.769 C59.357,19.88 57.981,19.935 56.463,19.935 L56.063,19.935 L55.975,19.544 C55.847,18.971 55.83,18.387 55.83,17.942 L55.83,17.522 L56.245,17.449 C57.647,17.208 59.089,17.007 60.536,16.852 C60.521,16.228 60.521,15.601 60.521,14.956 L60.521,14.539 L60.932,14.464 C61.547,14.353 62.16,14.296 62.756,14.296 L63.194,14.296 L63.252,14.73 C63.336,15.368 63.403,16.006 63.469,16.617 C64.829,16.544 66.038,16.509 67.152,16.509 L67.652,16.509 L67.652,17.009 C67.652,17.103 67.658,17.195 67.664,17.292 C67.672,17.415 67.68,17.541 67.68,17.676 L67.68,18.806 L67.277,18.886 C66.011,19.139 64.765,19.315 63.744,19.445 C63.767,19.706 63.839,20.481 63.851,20.613 C65.411,20.526 67.004,20.481 68.594,20.481 L69.033,20.481 L69.09,20.918 C69.119,21.149 69.146,21.412 69.146,21.702 L69.146,22.845 L68.728,22.914 C67.208,23.167 65.672,23.372 64.047,23.539 L64.05,23.612 C64.095,24.7 64.139,25.748 64.162,26.755 L64.169,27.072 L63.886,27.214 C63.468,27.423 62.828,27.533 62.035,27.533 L61.624,27.533 L61.624,27.533 Z M52.817,21.065 C52.173,20.897 51.584,20.583 51.067,20.131 L50.762,19.863 L50.961,19.51 C52.295,17.141 53.536,15.049 54.739,13.143 C53.654,13.114 52.583,13.072 51.512,13.03 L51.137,13.015 L51.046,12.651 C50.964,12.322 50.924,11.995 50.924,11.651 C50.924,11.364 50.924,11.066 50.988,10.75 L51.07,10.351 L51.478,10.351 C52.738,10.351 54.005,10.356 55.281,10.367 C54.547,9.377 53.9,8.158 53.355,6.736 L53.225,6.395 L53.511,6.166 C53.964,5.806 54.508,5.534 55.127,5.357 L55.478,5.259 L55.68,5.561 C56.685,7.069 57.382,8.349 57.811,9.472 L57.938,9.806 L57.664,10.034 C57.517,10.157 57.352,10.275 57.169,10.388 C58.086,10.399 59.009,10.414 59.938,10.432 L59.847,10.23 C59.353,9.133 59.06,7.717 58.978,6.022 L58.961,5.697 L59.252,5.551 C59.669,5.342 60.187,5.188 60.932,5.053 L61.306,4.985 L61.472,5.327 C61.932,6.277 62.234,7.625 62.398,9.445 L62.429,9.777 L62.133,9.933 C61.66,10.182 61.218,10.352 60.794,10.448 C62.041,10.474 63.3,10.505 64.573,10.54 C64.463,10.485 64.357,10.425 64.259,10.356 L63.964,10.155 L64.06,9.811 C64.536,8.092 65.21,6.515 66.062,5.124 L66.223,4.863 L66.528,4.888 C67.233,4.943 67.87,5.136 68.422,5.461 L68.784,5.674 L68.636,6.067 C67.778,8.352 67.161,9.754 66.64,10.603 C68.214,10.653 69.814,10.712 71.44,10.777 L71.92,10.797 L71.92,12.023 C71.92,12.393 71.857,12.744 71.73,13.099 L71.611,13.43 C71.611,13.43 70.037,13.429 69.439,13.427 C70.485,14.264 71.498,15.22 72.456,16.274 L72.753,16.602 L72.465,16.937 C72.117,17.341 71.68,17.721 71.165,18.064 L70.901,18.241 L70.629,18.078 C69.202,17.222 67.98,16.117 66.891,14.701 L66.614,14.341 L66.945,14.031 C67.187,13.807 67.423,13.603 67.659,13.418 C64.121,13.393 60.903,13.33 57.906,13.228 C57.253,14.472 56.598,15.641 55.958,16.707 C55.534,17.396 55.19,18.002 54.901,18.529 L54.753,18.791 C54.591,19.079 54.437,19.352 54.265,19.607 C54.094,19.956 53.783,20.389 53.317,20.914 L53.114,21.144 L52.817,21.065 L52.817,21.065 Z" id="Fill-5" fill="#D2DB2F" sketch:type="MSShapeGroup"></path>
                <path d="M66.488,5.386 C67.152,5.438 67.715,5.625 68.168,5.892 C67.367,8.024 66.727,9.517 66.195,10.371 C65.527,10.371 64.969,10.237 64.541,9.944 C65.021,8.212 65.687,6.692 66.488,5.386 L66.488,5.386 Z M61.022,5.545 C61.447,6.425 61.742,7.731 61.9,9.49 C61.342,9.784 60.809,9.97 60.303,10.024 C59.822,8.958 59.555,7.599 59.477,5.998 C59.902,5.784 60.436,5.651 61.022,5.545 L61.022,5.545 Z M55.264,5.839 C56.223,7.278 56.916,8.531 57.344,9.65 C57.023,9.918 56.57,10.185 55.957,10.423 C55.156,9.437 54.436,8.157 53.822,6.558 C54.225,6.237 54.703,5.998 55.264,5.839 L55.264,5.839 Z M51.478,10.851 C58.195,10.851 64.861,11.011 71.42,11.277 L71.42,12.023 C71.42,12.344 71.365,12.637 71.26,12.93 C66.699,12.93 62.143,12.877 57.609,12.718 C56.943,13.996 56.25,15.249 55.529,16.45 C55.104,17.143 54.756,17.755 54.463,18.289 C54.25,18.661 54.064,19.009 53.85,19.329 C53.662,19.702 53.369,20.102 52.943,20.582 C52.33,20.422 51.824,20.129 51.396,19.755 C52.838,17.196 54.25,14.823 55.637,12.663 C54.25,12.637 52.891,12.584 51.531,12.53 C51.451,12.21 51.424,11.917 51.424,11.651 C51.424,11.384 51.424,11.117 51.478,10.851 L51.478,10.851 Z M68.566,13.383 C69.846,14.343 71.019,15.437 72.086,16.61 C71.766,16.982 71.365,17.329 70.887,17.649 C69.553,16.849 68.353,15.783 67.287,14.396 C67.687,14.022 68.113,13.677 68.566,13.383 L68.566,13.383 Z M62.756,14.796 C62.861,15.596 62.941,16.395 63.021,17.143 C64.381,17.063 65.768,17.009 67.152,17.009 C67.152,17.223 67.18,17.436 67.18,17.676 L67.18,18.396 C65.848,18.661 64.514,18.849 63.209,19.009 C63.262,19.755 63.342,20.476 63.395,21.142 C65.102,21.035 66.834,20.981 68.594,20.981 C68.621,21.194 68.646,21.436 68.646,21.702 L68.646,22.421 C66.887,22.714 65.182,22.928 63.527,23.088 C63.58,24.368 63.635,25.595 63.662,26.767 C63.342,26.927 62.781,27.033 62.035,27.033 C61.795,25.807 61.607,24.554 61.475,23.248 C59.555,23.408 57.689,23.46 55.822,23.46 C55.717,22.981 55.664,22.448 55.664,21.914 C57.477,21.647 59.342,21.436 61.262,21.275 C61.209,20.582 61.154,19.915 61.129,19.223 C59.529,19.382 57.982,19.435 56.463,19.435 C56.355,18.955 56.33,18.449 56.33,17.942 C57.875,17.676 59.449,17.462 61.049,17.302 C61.022,16.529 61.022,15.756 61.022,14.956 C61.607,14.85 62.195,14.796 62.756,14.796 L62.756,14.796 Z M65.956,4.34 L65.636,4.863 C64.759,6.293 64.066,7.913 63.577,9.677 L63.484,10.011 C63.307,10.006 63.128,10.002 62.95,9.997 L62.897,9.4 C62.727,7.519 62.408,6.115 61.922,5.109 L61.591,4.425 L60.843,4.561 C60.049,4.705 59.488,4.873 59.027,5.104 L58.446,5.396 L58.478,6.047 C58.551,7.552 58.787,8.851 59.18,9.918 C58.957,9.914 58.734,9.91 58.512,9.906 L58.277,9.293 C57.835,8.135 57.121,6.824 56.096,5.284 L55.691,4.678 L54.99,4.877 C54.307,5.071 53.704,5.373 53.199,5.775 L52.626,6.231 L52.889,6.916 C53.311,8.018 53.794,9.002 54.331,9.859 C53.376,9.853 52.426,9.851 51.478,9.851 L50.663,9.851 L50.499,10.649 C50.424,11.016 50.424,11.353 50.424,11.651 C50.424,12.036 50.469,12.403 50.561,12.772 L50.743,13.5 L51.492,13.529 C52.23,13.559 53.027,13.59 53.853,13.617 C52.79,15.329 51.693,17.191 50.525,19.264 L50.126,19.973 L50.738,20.508 C51.313,21.011 51.971,21.361 52.69,21.55 L53.285,21.705 L53.691,21.245 C54.165,20.711 54.491,20.261 54.714,19.836 C54.886,19.574 55.033,19.312 55.189,19.036 L55.331,18.785 C55.34,18.771 55.348,18.755 55.356,18.739 C55.378,19.031 55.417,19.342 55.487,19.653 L55.662,20.435 L56.463,20.435 C57.798,20.435 59.025,20.393 60.187,20.308 C60.188,20.327 60.189,20.347 60.19,20.366 C58.589,20.517 57.021,20.703 55.519,20.925 L54.664,21.051 L54.664,21.914 C54.664,22.527 54.727,23.136 54.846,23.675 L55.019,24.46 L55.822,24.46 C57.582,24.46 59.122,24.414 60.589,24.317 C60.711,25.298 60.864,26.257 61.054,27.226 L61.212,28.033 L62.035,28.033 C62.642,28.033 63.494,27.969 64.109,27.661 L64.677,27.377 L64.662,26.743 C64.641,25.855 64.605,24.937 64.565,23.986 C66.029,23.828 67.427,23.638 68.811,23.407 L69.647,23.269 L69.647,21.702 C69.647,21.371 69.614,21.074 69.586,20.854 L69.474,19.981 L68.594,19.981 C67.158,19.981 65.719,20.018 64.305,20.089 C64.298,20.019 64.292,19.949 64.285,19.879 C65.214,19.755 66.286,19.594 67.375,19.376 L68.18,19.216 L68.18,17.676 C68.18,17.53 68.172,17.394 68.163,17.261 C68.158,17.175 68.152,17.092 68.152,17.009 L68.152,16.837 C68.838,17.475 69.574,18.027 70.372,18.507 L70.916,18.833 L71.443,18.48 C71.995,18.111 72.467,17.701 72.844,17.263 L73.421,16.593 L72.826,15.938 C72.176,15.222 71.5,14.551 70.806,13.93 L71.26,13.93 L71.963,13.93 L72.201,13.269 C72.348,12.858 72.42,12.451 72.42,12.023 L72.42,10.317 L71.461,10.278 C70.112,10.224 68.784,10.174 67.474,10.13 C67.922,9.247 68.444,8 69.105,6.243 L69.399,5.456 L68.675,5.029 C68.058,4.666 67.349,4.451 66.567,4.389 L65.956,4.34 L65.956,4.34 Z M56.418,16.913 C57.008,15.927 57.606,14.863 58.202,13.738 C59.38,13.777 60.591,13.811 61.842,13.837 C61.511,13.866 61.177,13.911 60.843,13.973 L60.021,14.121 L60.021,14.956 C60.021,15.451 60.021,15.93 60.027,16.405 C58.811,16.543 57.602,16.714 56.418,16.913 L56.418,16.913 Z M63.915,16.094 C63.865,15.625 63.811,15.144 63.747,14.665 L63.643,13.871 C64.523,13.886 65.424,13.897 66.347,13.906 L65.94,14.286 L66.494,15.006 C66.766,15.358 67.045,15.692 67.333,16.009 L67.152,16.009 C66.16,16.009 65.095,16.037 63.915,16.094 L63.915,16.094 Z" id="Fill-6" fill="#FFFFFF" sketch:type="MSShapeGroup"></path>
                <path d="M36.641,57.59 C28.919,57.59 22.637,51.309 22.637,43.587 C22.637,35.865 28.919,29.584 36.641,29.584 C44.361,29.584 50.643,35.865 50.643,43.587 C50.643,51.309 44.361,57.59 36.641,57.59" id="Fill-7" fill="#7D563A" sketch:type="MSShapeGroup"></path>
                <path d="M36.641,30.084 C44.098,30.084 50.143,36.13 50.143,43.587 C50.143,51.044 44.098,57.09 36.641,57.09 C29.184,57.09 23.137,51.044 23.137,43.587 C23.137,36.13 29.184,30.084 36.641,30.084 M36.641,29.084 C28.644,29.084 22.137,35.59 22.137,43.587 C22.137,51.584 28.644,58.09 36.641,58.09 C44.637,58.09 51.143,51.584 51.143,43.587 C51.143,35.59 44.637,29.084 36.641,29.084" id="Fill-8" fill="#FFFFFF" sketch:type="MSShapeGroup"></path>
                <path d="M29.82,30 L29.848,29.921 C30.047,29.344 31.874,24.28 34.608,24.084 C34.72,24.076 34.832,24.072 34.944,24.072 C37.485,24.072 40.048,26.057 40.156,26.142 L40.216,26.188 L40.26,26.252 C42.549,29.581 42.03,30.201 41.86,30.405 L41.286,31.094 L29.82,32.233 L29.82,30" id="Fill-9" fill="#F1AA48" sketch:type="MSShapeGroup"></path>
                <path d="M34.944,24.572 C37.343,24.572 39.848,26.535 39.848,26.535 C39.848,26.535 41.922,29.552 41.477,30.084 L41.033,30.616 L30.32,31.682 L30.32,30.084 C30.32,30.084 32.16,24.761 34.644,24.583 C34.744,24.576 34.844,24.572 34.944,24.572 M34.944,23.572 L34.944,23.572 C34.82,23.572 34.696,23.577 34.573,23.586 C33.189,23.685 31.88,24.802 30.682,26.905 C29.875,28.322 29.396,29.699 29.375,29.758 L29.32,29.916 L29.32,32.786 L30.419,32.677 L41.132,31.611 L41.539,31.57 L41.802,31.256 L42.245,30.724 C42.569,30.336 43.176,29.611 40.672,25.969 L40.585,25.843 L40.465,25.748 C40.351,25.659 37.656,23.572 34.944,23.572" id="Fill-10" fill="#FFFFFF" sketch:type="MSShapeGroup"></path>
                <path d="M39.757,31.472 L41.175,29.744 L41.246,29.7 C41.377,29.619 44.496,27.717 46.883,27.717 C47.583,27.717 48.17,27.88 48.627,28.203 C50.794,29.733 51.581,33.165 51.613,33.311 L51.63,33.385 L51.623,33.461 C51.285,37.489 50.49,37.64 50.229,37.688 L49.346,37.856 L39.757,31.472" id="Fill-11" fill="#F1AA48" sketch:type="MSShapeGroup"></path>
                <path d="M46.883,28.217 C47.436,28.217 47.939,28.33 48.338,28.611 C50.373,30.048 51.125,33.419 51.125,33.419 C51.125,33.419 50.818,37.068 50.137,37.197 L49.453,37.327 L40.494,31.361 L41.508,30.126 C41.508,30.126 44.61,28.217 46.883,28.217 M46.883,27.217 L46.883,27.217 C44.356,27.217 41.12,29.19 40.983,29.274 L40.841,29.362 L40.734,29.492 L39.721,30.727 L39.021,31.581 L39.939,32.193 L48.898,38.159 L49.238,38.386 L49.64,38.31 L50.323,38.18 C50.822,38.086 51.751,37.91 52.121,33.503 L52.135,33.351 L52.101,33.201 C52.066,33.048 51.238,29.435 48.914,27.794 C48.373,27.411 47.689,27.217 46.883,27.217" id="Fill-12" fill="#FFFFFF" sketch:type="MSShapeGroup"></path>
                <path d="M50.18,49.863 C49.992,49.863 49.83,49.813 49.697,49.716 L48.917,49.142 L49.546,39.661 L48.286,37.381 L49.433,37.698 C50.021,37.86 55.189,39.367 55.554,42.086 C55.908,44.713 53.932,47.626 53.848,47.749 L53.805,47.812 L53.744,47.859 C53.145,48.329 51.114,49.863 50.18,49.863" id="Fill-13" fill="#F1AA48" sketch:type="MSShapeGroup"></path>
                <path d="M49.299,38.18 C49.299,38.18 54.727,39.683 55.059,42.152 C55.391,44.619 53.436,47.466 53.436,47.466 C53.436,47.466 51.015,49.363 50.18,49.363 C50.104,49.363 50.041,49.348 49.994,49.313 L49.434,48.901 L50.055,39.548 L49.299,38.18 M47.273,36.581 L48.424,38.663 L49.037,39.774 L48.399,49.382 L49.402,50.119 C49.553,50.23 49.811,50.363 50.18,50.363 C51.155,50.363 52.824,49.216 54.053,48.253 L54.173,48.158 L54.26,48.032 C54.349,47.902 56.429,44.835 56.05,42.019 C55.865,40.644 54.668,39.406 52.494,38.342 C51.029,37.625 49.625,37.232 49.565,37.216 L47.273,36.581" id="Fill-14" fill="#FFFFFF" sketch:type="MSShapeGroup"></path>
                <path d="M45.499,60.079 C41.563,59.169 41.526,58.362 41.515,58.097 L41.474,57.199 L49.16,48.618 L50.668,50.267 L50.701,50.344 C50.943,50.903 53.016,55.871 51.131,57.863 C49.309,59.789 45.798,60.079 45.649,60.09 L45.573,60.096 L45.499,60.079" id="Fill-15" fill="#F1AA48" sketch:type="MSShapeGroup"></path>
                <path d="M49.164,49.363 L50.242,50.542 C50.242,50.542 52.48,55.71 50.768,57.519 C49.057,59.327 45.611,59.592 45.611,59.592 C45.611,59.592 42.045,58.768 42.014,58.074 L41.982,57.381 L49.164,49.363 M49.156,47.873 L41.237,56.714 L40.965,57.018 L41.015,58.119 C41.037,58.627 41.08,59.571 45.386,60.566 L45.535,60.601 L45.688,60.589 C45.844,60.577 49.54,60.272 51.494,58.207 C52.448,57.199 52.659,55.491 52.122,53.13 C51.761,51.54 51.185,50.201 51.16,50.145 L51.094,49.99 L50.98,49.867 L49.156,47.873" id="Fill-16" fill="#FFFFFF" sketch:type="MSShapeGroup"></path>
                <path d="M36.233,64.612 C33.581,64.597 30.972,62.234 30.861,62.134 L30.805,62.082 L30.767,62.016 C28.74,58.519 29.305,57.941 29.49,57.751 L30.117,57.109 L41.635,56.857 L41.463,59.083 L41.43,59.16 C41.186,59.718 38.981,64.612 36.247,64.612 L36.233,64.612" id="Fill-17" fill="#F1AA48" sketch:type="MSShapeGroup"></path>
                <path d="M41.094,57.369 L40.971,58.961 C40.971,58.961 38.732,64.112 36.247,64.112 L36.236,64.112 C33.746,64.098 31.199,61.765 31.199,61.765 C31.199,61.764 29.363,58.597 29.848,58.101 L30.332,57.604 L41.094,57.369 M42.176,56.346 L41.072,56.369 L30.31,56.604 L29.902,56.613 L29.132,57.402 C28.777,57.766 28.117,58.441 30.334,62.266 L30.411,62.398 L30.523,62.502 C30.64,62.607 33.388,65.096 36.231,65.112 C36.771,65.112 39.509,64.835 41.888,59.359 L41.955,59.205 L41.968,59.038 L42.176,56.346" id="Fill-18" fill="#FFFFFF" sketch:type="MSShapeGroup"></path>
                <path d="M24.437,60.387 C23.559,60.387 22.856,60.174 22.349,59.753 C20.306,58.061 19.788,54.577 19.767,54.43 L19.756,54.354 L19.769,54.279 C20.415,50.29 21.218,50.201 21.482,50.172 L22.376,50.073 L31.442,57.179 L29.897,58.791 L29.822,58.829 C29.698,58.893 26.766,60.387 24.437,60.387" id="Fill-19" fill="#F1AA48" sketch:type="MSShapeGroup"></path>
                <path d="M22.228,50.593 L30.699,57.231 L29.594,58.385 C29.594,58.385 26.671,59.887 24.437,59.887 C23.745,59.887 23.121,59.744 22.668,59.368 C20.75,57.779 20.262,54.359 20.262,54.359 C20.262,54.359 20.848,50.745 21.537,50.669 L22.228,50.593 M22.524,49.554 L22.119,49.599 L21.428,49.675 C20.922,49.731 19.982,49.835 19.274,54.199 L19.25,54.35 L19.271,54.501 C19.294,54.656 19.84,58.324 22.03,60.139 C22.629,60.635 23.438,60.887 24.437,60.887 C26.885,60.887 29.923,59.34 30.051,59.274 L30.2,59.197 L30.315,59.077 L32.185,57.126 L31.316,56.444 L22.846,49.806 L22.524,49.554" id="Fill-20" fill="#FFFFFF" sketch:type="MSShapeGroup"></path>
                <path d="M21.387,50.255 L21.308,50.226 C20.734,50.018 15.698,48.114 15.544,45.377 C15.394,42.73 17.59,39.979 17.684,39.862 L17.731,39.803 L17.795,39.761 C18.227,39.473 20.437,38.034 21.416,38.034 C21.64,38.034 21.827,38.098 21.971,38.222 L22.653,38.81 L23.621,50.287 L21.387,50.255" id="Fill-21" fill="#F1AA48" sketch:type="MSShapeGroup"></path>
                <path d="M21.416,38.535 C21.514,38.534 21.592,38.555 21.644,38.601 L22.172,39.055 L23.076,49.779 L21.478,49.756 C21.478,49.756 16.184,47.836 16.043,45.349 C15.902,42.864 18.072,40.177 18.072,40.177 C18.072,40.177 20.538,38.535 21.416,38.535 M21.416,37.535 L21.416,37.535 C20.351,37.535 18.335,38.801 17.518,39.345 L17.391,39.43 L17.294,39.549 C17.195,39.671 14.884,42.568 15.045,45.405 C15.123,46.791 16.22,48.117 18.306,49.347 C19.711,50.175 21.08,50.675 21.138,50.696 L21.296,50.753 L21.464,50.756 L23.062,50.779 L24.165,50.795 L23.134,38.563 L22.297,37.843 C22.135,37.702 21.849,37.535 21.416,37.535" id="Fill-22" fill="#FFFFFF" sketch:type="MSShapeGroup"></path>
                <path d="M21.047,37.6 L21.019,37.521 C20.821,36.943 19.139,31.829 21.172,29.987 C23.136,28.211 26.657,28.19 26.807,28.19 C27.052,28.19 29.786,29.125 30.495,29.858 C30.69,30.06 30.784,30.274 30.777,30.497 L30.749,31.395 L22.423,39.357 L21.047,37.6" id="Fill-23" fill="#F1AA48" sketch:type="MSShapeGroup"></path>
                <path d="M26.807,28.69 C26.807,28.69 30.301,29.788 30.277,30.48 L30.256,31.176 L22.477,38.614 L21.492,37.357 C21.492,37.357 19.66,32.031 21.508,30.358 C23.353,28.688 26.807,28.69 26.807,28.69 M26.807,27.69 C26.636,27.69 22.94,27.714 20.837,29.617 C19.808,30.549 19.465,32.235 19.817,34.631 C20.056,36.245 20.526,37.625 20.547,37.683 L20.602,37.842 L20.705,37.974 L22.37,40.1 L30.947,31.898 L31.243,31.615 L31.277,30.512 C31.294,30.007 31.326,29.062 27.106,27.736 L26.96,27.69 L26.807,27.69" id="Fill-24" fill="#FFFFFF" sketch:type="MSShapeGroup"></path>
                <path d="M35.785,64.823 C32.655,64.823 29.975,62.674 29.274,59.66 C28.22,60.318 27.009,60.664 25.748,60.664 C23.961,60.664 22.282,59.969 21.021,58.706 C19.758,57.442 19.063,55.764 19.063,53.979 C19.063,52.718 19.408,51.506 20.065,50.45 C17.053,49.751 14.904,47.071 14.904,43.941 C14.904,40.813 17.053,38.133 20.065,37.431 C19.408,36.376 19.063,35.165 19.063,33.904 C19.063,32.119 19.758,30.44 21.021,29.178 C22.284,27.915 23.963,27.22 25.748,27.22 C27.009,27.22 28.22,27.565 29.274,28.223 C29.975,25.21 32.655,23.062 35.785,23.062 C38.915,23.062 41.596,25.21 42.296,28.224 C43.351,27.565 44.561,27.22 45.822,27.22 C47.606,27.22 49.285,27.915 50.55,29.178 C51.812,30.441 52.508,32.12 52.508,33.904 C52.508,35.166 52.162,36.378 51.504,37.432 C54.517,38.132 56.666,40.813 56.666,43.943 C56.666,47.072 54.518,49.752 51.505,50.453 C52.162,51.508 52.508,52.719 52.508,53.979 C52.508,55.767 51.812,57.445 50.55,58.707 C49.286,59.97 47.607,60.665 45.822,60.665 C44.561,60.665 43.349,60.319 42.296,59.662 C41.595,62.675 38.915,64.823 35.785,64.823 L35.785,64.823 Z M31.663,58.57 C31.883,60.649 33.662,62.286 35.785,62.286 C37.871,62.286 39.61,60.74 39.889,58.706 C38.613,59.045 37.309,59.216 36.006,59.216 C34.544,59.216 33.084,58.999 31.663,58.57 L31.663,58.57 Z M43.351,57.307 C44.065,57.838 44.93,58.128 45.822,58.128 C46.933,58.128 47.975,57.696 48.757,56.913 C49.54,56.13 49.971,55.088 49.971,53.979 C49.971,53.085 49.681,52.22 49.147,51.506 C48.475,52.711 47.637,53.819 46.651,54.807 C45.668,55.789 44.56,56.629 43.351,57.307 L43.351,57.307 Z M22.698,51.177 C21.97,51.986 21.6,52.955 21.6,53.979 C21.6,55.088 22.031,56.13 22.815,56.913 C23.598,57.696 24.64,58.128 25.748,58.128 C26.732,58.128 27.667,57.785 28.414,57.157 C27.288,56.497 26.263,55.707 25.362,54.807 C24.305,53.75 23.409,52.53 22.698,51.177 L22.698,51.177 Z M36.006,31.646 C32.661,31.646 29.519,32.947 27.155,35.312 C24.795,37.672 23.494,40.815 23.494,44.163 C23.494,47.51 24.795,50.653 27.155,53.014 C29.519,55.378 32.661,56.68 36.006,56.68 C39.349,56.68 42.491,55.378 44.856,53.014 C47.217,50.653 48.517,47.51 48.517,44.163 C48.517,40.815 47.217,37.672 44.856,35.312 C42.491,32.947 39.349,31.646 36.006,31.646 L36.006,31.646 Z M21.59,39.793 C19.303,39.793 17.441,41.654 17.441,43.941 C17.441,46.192 19.243,48.029 21.48,48.089 C20.747,45.366 20.795,42.512 21.616,39.793 L21.59,39.793 L21.59,39.793 Z M50.401,39.818 C51.214,42.517 51.262,45.346 50.543,48.047 C52.58,47.771 54.129,46.031 54.129,43.941 C54.129,41.812 52.486,40.031 50.401,39.818 L50.401,39.818 Z M25.748,29.757 C24.638,29.757 23.597,30.188 22.815,30.971 C22.031,31.756 21.6,32.798 21.6,33.904 C21.6,35.014 22.031,36.055 22.815,36.837 C22.823,36.845 22.832,36.853 22.841,36.862 C23.518,35.639 24.365,34.515 25.362,33.518 C26.357,32.522 27.481,31.675 28.705,30.994 C28.697,30.985 28.689,30.978 28.682,30.97 C27.899,30.188 26.857,29.757 25.748,29.757 L25.748,29.757 Z M43.017,30.85 C44.369,31.562 45.59,32.458 46.649,33.518 C47.549,34.417 48.337,35.444 48.995,36.575 C49.627,35.828 49.971,34.892 49.971,33.904 C49.971,32.796 49.54,31.755 48.757,30.972 C47.974,30.188 46.931,29.758 45.822,29.758 C44.771,29.758 43.78,30.144 43.017,30.85 L43.017,30.85 Z M35.785,25.599 C33.498,25.599 31.637,27.46 31.637,29.748 L31.637,29.763 C33.07,29.329 34.539,29.109 36.006,29.109 C37.33,29.109 38.649,29.285 39.932,29.631 C39.87,27.396 38.034,25.599 35.785,25.599 L35.785,25.599 Z" id="Fill-25" fill="#010604" sketch:type="MSShapeGroup"></path>
                <path d="M35.785,23.312 C38.955,23.312 41.598,25.615 42.125,28.637 C43.199,27.879 44.481,27.47 45.822,27.47 C47.543,27.47 49.156,28.14 50.373,29.355 C51.588,30.57 52.258,32.186 52.258,33.904 C52.258,35.247 51.85,36.527 51.09,37.603 C54.113,38.13 56.416,40.772 56.416,43.943 C56.416,47.112 54.111,49.755 51.092,50.282 C51.85,51.357 52.258,52.638 52.258,53.979 C52.258,55.7 51.59,57.314 50.373,58.53 C49.156,59.746 47.543,60.415 45.822,60.415 C44.481,60.415 43.199,60.007 42.125,59.248 C41.598,62.269 38.955,64.573 35.785,64.573 C32.617,64.573 29.973,62.269 29.445,59.247 C28.371,60.005 27.09,60.414 25.748,60.414 C24.027,60.414 22.412,59.745 21.197,58.529 C19.982,57.313 19.313,55.697 19.313,53.979 C19.313,52.637 19.721,51.356 20.479,50.279 C17.459,49.753 15.154,47.112 15.154,43.941 C15.154,40.772 17.459,38.13 20.479,37.602 C19.721,36.526 19.313,35.247 19.313,33.904 C19.313,32.186 19.982,30.569 21.197,29.355 C22.414,28.139 24.029,27.47 25.748,27.47 C27.092,27.47 28.371,27.879 29.445,28.636 C29.973,25.615 32.615,23.312 35.785,23.312 L35.785,23.312 Z M31.404,30.098 C32.873,29.62 34.42,29.359 36.006,29.359 C37.438,29.359 38.838,29.567 40.172,29.958 C40.176,29.888 40.184,29.816 40.184,29.747 C40.184,27.322 38.211,25.349 35.785,25.349 C33.361,25.349 31.387,27.322 31.387,29.748 C31.387,29.862 31.394,29.979 31.404,30.098 L31.404,30.098 Z M22.91,37.26 C23.586,35.975 24.461,34.772 25.539,33.694 C26.606,32.628 27.807,31.748 29.102,31.063 C29.023,30.969 28.941,30.877 28.859,30.794 C28.027,29.962 26.922,29.507 25.748,29.507 C24.572,29.507 23.469,29.962 22.639,30.794 C21.809,31.625 21.35,32.73 21.35,33.904 C21.35,35.079 21.807,36.184 22.639,37.014 C22.723,37.099 22.815,37.18 22.91,37.26 L22.91,37.26 Z M48.947,36.998 C49.768,36.169 50.221,35.071 50.221,33.904 C50.221,32.73 49.764,31.625 48.934,30.795 C48.102,29.964 46.998,29.508 45.822,29.508 C44.648,29.508 43.543,29.962 42.713,30.795 C42.674,30.832 42.639,30.877 42.6,30.917 C44.014,31.622 45.324,32.546 46.473,33.694 C47.477,34.698 48.293,35.814 48.947,36.998 L48.947,36.998 Z M36.006,56.93 C39.416,56.93 42.621,55.602 45.033,53.19 C50.012,48.213 50.012,40.112 45.033,35.135 C42.621,32.724 39.416,31.395 36.006,31.395 C32.596,31.395 29.389,32.724 26.979,35.135 C22,40.112 22,48.213 26.979,53.19 C29.389,55.602 32.596,56.93 36.006,56.93 L36.006,56.93 Z M21.59,48.34 C21.66,48.34 21.734,48.333 21.807,48.329 C20.971,45.466 21.027,42.402 21.951,39.562 C21.828,39.551 21.709,39.543 21.59,39.543 C19.164,39.543 17.191,41.516 17.191,43.941 C17.191,46.367 19.164,48.34 21.59,48.34 L21.59,48.34 Z M50.205,48.329 C52.525,48.211 54.379,46.291 54.379,43.941 C54.379,41.542 52.447,39.587 50.055,39.548 C50.984,42.394 51.043,45.461 50.205,48.329 L50.205,48.329 Z M25.748,58.378 C26.912,58.378 28.008,57.927 28.836,57.11 C27.643,56.445 26.531,55.622 25.539,54.63 C24.375,53.467 23.459,52.153 22.764,50.755 C22.723,50.793 22.676,50.83 22.639,50.869 C21.809,51.7 21.35,52.804 21.35,53.979 C21.35,55.154 21.807,56.259 22.639,57.09 C23.469,57.921 24.572,58.378 25.748,58.378 L25.748,58.378 Z M45.822,58.378 C46.998,58.378 48.103,57.921 48.934,57.09 C49.764,56.259 50.221,55.154 50.221,53.979 C50.221,52.891 49.824,51.865 49.105,51.06 C48.43,52.345 47.553,53.55 46.475,54.63 C45.406,55.697 44.203,56.578 42.904,57.265 C43.711,57.981 44.734,58.378 45.822,58.378 L45.822,58.378 Z M35.785,62.536 C38.133,62.536 40.051,60.686 40.172,58.368 C38.834,58.757 37.438,58.966 36.006,58.966 C34.414,58.966 32.861,58.704 31.391,58.223 C31.438,60.608 33.389,62.536 35.785,62.536 L35.785,62.536 Z M35.785,22.811 C32.652,22.811 29.954,24.887 29.115,27.839 C28.092,27.269 26.941,26.97 25.748,26.97 C23.897,26.97 22.154,27.691 20.844,29.001 C19.534,30.311 18.812,32.052 18.812,33.904 C18.812,35.098 19.111,36.248 19.682,37.271 C16.729,38.111 14.654,40.811 14.654,43.941 C14.654,47.073 16.729,49.772 19.682,50.609 C19.111,51.635 18.812,52.785 18.812,53.979 C18.812,55.83 19.534,57.572 20.844,58.883 C22.152,60.192 23.894,60.914 25.748,60.914 C26.941,60.914 28.092,60.615 29.115,60.045 C29.954,62.998 32.652,65.073 35.785,65.073 C38.917,65.073 41.615,62.998 42.455,60.046 C43.478,60.616 44.628,60.915 45.822,60.915 C47.674,60.915 49.416,60.193 50.727,58.884 C52.036,57.575 52.758,55.833 52.758,53.979 C52.758,52.786 52.459,51.636 51.889,50.612 C54.842,49.773 56.916,47.075 56.916,43.943 C56.916,40.811 54.841,38.111 51.888,37.272 C52.459,36.25 52.758,35.099 52.758,33.904 C52.758,32.053 52.036,30.311 50.727,29.001 C49.414,27.691 47.673,26.97 45.822,26.97 C44.629,26.97 43.479,27.269 42.455,27.839 C41.616,24.887 38.918,22.811 35.785,22.811 L35.785,22.811 Z M31.9,29.426 C32.064,27.426 33.744,25.849 35.785,25.849 C37.784,25.849 39.437,27.361 39.658,29.302 C38.462,29.008 37.236,28.859 36.006,28.859 C34.629,28.859 33.25,29.05 31.9,29.426 L31.9,29.426 Z M22.791,36.443 C22.182,35.736 21.85,34.847 21.85,33.904 C21.85,32.864 22.256,31.885 22.992,31.147 C23.727,30.412 24.705,30.007 25.748,30.007 C26.69,30.007 27.581,30.338 28.287,30.944 C27.157,31.606 26.116,32.41 25.185,33.341 C24.253,34.273 23.449,35.314 22.791,36.443 L22.791,36.443 Z M43.459,30.805 C44.137,30.286 44.957,30.008 45.822,30.008 C46.864,30.008 47.844,30.413 48.58,31.148 C49.315,31.884 49.721,32.863 49.721,33.904 C49.721,34.711 49.476,35.482 49.022,36.132 C48.393,35.107 47.656,34.17 46.826,33.341 C45.834,32.349 44.704,31.498 43.459,30.805 L43.459,30.805 Z M36.006,56.43 C32.728,56.43 29.648,55.154 27.332,52.837 C25.019,50.523 23.744,47.443 23.744,44.162 C23.744,40.882 25.019,37.801 27.332,35.488 C29.648,33.172 32.728,31.896 36.006,31.896 C39.281,31.896 42.361,33.172 44.68,35.488 C46.993,37.801 48.268,40.882 48.268,44.162 C48.268,47.443 46.993,50.523 44.68,52.837 C42.362,55.153 39.281,56.43 36.006,56.43 L36.006,56.43 Z M21.151,47.815 C19.207,47.597 17.691,45.942 17.691,43.941 C17.691,41.897 19.274,40.213 21.28,40.055 C20.57,42.606 20.526,45.263 21.151,47.815 L21.151,47.815 Z M50.881,47.73 C51.48,45.227 51.435,42.625 50.749,40.124 C52.528,40.483 53.879,42.068 53.879,43.941 C53.879,45.775 52.609,47.323 50.881,47.73 L50.881,47.73 Z M25.748,57.878 C24.706,57.878 23.727,57.473 22.992,56.736 C22.255,56 21.85,55.022 21.85,53.979 C21.85,53.113 22.131,52.29 22.65,51.613 C23.343,52.861 24.193,53.992 25.185,54.983 C26.017,55.814 26.951,56.552 27.971,57.182 C27.322,57.635 26.553,57.878 25.748,57.878 L25.748,57.878 Z M43.822,57.322 C44.916,56.671 45.924,55.887 46.828,54.983 C47.733,54.076 48.517,53.068 49.164,51.979 C49.526,52.579 49.721,53.27 49.721,53.979 C49.721,55.02 49.315,56 48.58,56.736 C47.845,57.473 46.865,57.878 45.822,57.878 C45.114,57.878 44.425,57.684 43.822,57.322 L43.822,57.322 Z M35.785,62.036 C33.92,62.036 32.336,60.69 31.97,58.919 C33.295,59.282 34.648,59.466 36.006,59.466 C37.201,59.466 38.396,59.324 39.572,59.044 C39.163,60.769 37.616,62.036 35.785,62.036 L35.785,62.036 Z" id="Fill-26" fill="#FFFFFF" sketch:type="MSShapeGroup"></path>
                <path d="M29.336,42.976 C30.65,42.976 30.65,40.939 29.336,40.939 C28.022,40.939 28.022,42.976 29.336,42.976" id="Fill-27" fill="#010604" sketch:type="MSShapeGroup"></path>
                <path d="M42.461,42.976 C43.775,42.976 43.775,40.939 42.461,40.939 C41.148,40.939 41.148,42.976 42.461,42.976" id="Fill-28" fill="#010604" sketch:type="MSShapeGroup"></path>
                <path d="M35.842,47.05 C38.051,47.05 39.848,45.253 39.848,43.046 C39.848,42.483 39.391,42.026 38.828,42.026 C38.266,42.026 37.811,42.483 37.811,43.046 C37.811,44.131 36.928,45.013 35.842,45.013 C34.756,45.013 33.873,44.13 33.873,43.046 C33.873,42.483 33.418,42.026 32.856,42.026 C32.293,42.026 31.838,42.483 31.838,43.046 C31.838,45.253 33.635,47.05 35.842,47.05" id="Fill-29" fill="#010604" sketch:type="MSShapeGroup"></path>
            </g>
        </g>
    </g>
</svg>