<?xml version="1.0" encoding="UTF-8" standalone="no"?>
<svg width="120px" height="120px" viewBox="0 0 120 120" version="1.1" xmlns="http://www.w3.org/2000/svg" xmlns:xlink="http://www.w3.org/1999/xlink" xmlns:sketch="http://www.bohemiancoding.com/sketch/ns">
    <!-- Generator: Sketch 3.3.2 (12043) - http://www.bohemiancoding.com/sketch -->
    <title>Mobile Portrait Copy 8</title>
    <desc>Created with Sketch.</desc>
    <defs></defs>
    <g id="baby" stroke="none" stroke-width="1" fill="none" fill-rule="evenodd" sketch:type="MSPage">
        <g id="Mobile-Portrait-Copy-8" sketch:type="MSArtboardGroup">
            <g id="Imported-Layers" sketch:type="MSLayerGroup" transform="translate(28.000000, 21.000000)">
                <path d="M17.5,49.833 L22.666,49.833 C22.834,49.833 20.396,45.508 20.396,45.508 L18.666,45.5" id="Fill-1" fill="#E7BBAB" sketch:type="MSShapeGroup"></path>
                <path d="M15.5,1.833 C15.5,1.833 7.227,4.396 4.447,12.614 C1.666,20.833 0.506,24.981 2.5,27.439 C4.496,29.897 7.752,45.132 20.396,45.508 C33.039,45.884 35.125,33.289 37.166,30 C39.209,26.711 38.332,17.167 37.166,13.5 C36,9.833 28.65,1.527 21.666,1.833 C14.682,2.139 15.5,1.833 15.5,1.833" id="Fill-2" fill="#E7BBAB" sketch:type="MSShapeGroup"></path>
                <path d="M38.518,15.61 C38.518,15.61 39.131,30.568 34.953,35.756 C30.777,40.943 25.145,45.11 25.145,45.11 C25.145,45.11 32.602,57.943 38.518,58.943 C44.432,59.943 41.018,59.777 41.018,59.777 C41.018,59.777 39.994,61.944 39.994,63.277 C39.994,64.61 41.998,65.11 41.998,65.11 L44.773,64.11 L44.773,60.11 C44.773,60.11 50.947,57.622 54.25,52.247 C57.553,46.872 61.58,42.333 60.152,32.175 C58.725,22.017 52.481,17.61 48.883,16.61 C45.287,15.61 38.518,15.61 38.518,15.61" id="Fill-3" fill="#A1D6D5" sketch:type="MSShapeGroup"></path>
                <path d="M24.791,8.313 C25.588,8.576 26.342,8.912 27.031,9.313 C27.213,9.419 27.412,9.469 27.609,9.469 C28.006,9.469 28.393,9.263 28.607,8.894 C28.926,8.344 28.738,7.639 28.188,7.319 C27.361,6.839 26.459,6.436 25.512,6.124 C24.908,5.925 24.256,6.253 24.057,6.857 C23.858,7.462 24.186,8.114 24.791,8.313 L24.791,8.313 Z" id="Fill-4" fill="#010604" sketch:type="MSShapeGroup"></path>
                <path d="M24.791,8.313 C25.588,8.576 26.342,8.912 27.031,9.313 C27.213,9.419 27.412,9.469 27.609,9.469 C28.006,9.469 28.393,9.263 28.607,8.894 C28.926,8.344 28.738,7.639 28.188,7.319 C27.361,6.839 26.459,6.436 25.512,6.124 C24.908,5.925 24.256,6.253 24.057,6.857 C23.858,7.462 24.186,8.114 24.791,8.313 L24.791,8.313 Z" id="Stroke-5" stroke="#FFFFFF" sketch:type="MSShapeGroup"></path>
                <path d="M32.606,20.653 C32.606,22.373 32.406,24.131 32.012,25.877 C31.873,26.498 32.262,27.115 32.883,27.256 C32.969,27.274 33.055,27.284 33.139,27.284 C33.666,27.284 34.141,26.92 34.262,26.385 C34.693,24.472 34.912,22.544 34.912,20.653 C34.912,16.628 33.93,13.275 31.992,10.687 C31.609,10.179 30.887,10.074 30.377,10.456 C29.869,10.838 29.766,11.56 30.146,12.07 C31.779,14.249 32.606,17.137 32.606,20.653 L32.606,20.653 Z" id="Fill-6" fill="#010604" sketch:type="MSShapeGroup"></path>
                <path d="M32.606,20.653 C32.606,22.373 32.406,24.131 32.012,25.877 C31.873,26.498 32.262,27.115 32.883,27.256 C32.969,27.274 33.055,27.284 33.139,27.284 C33.666,27.284 34.141,26.92 34.262,26.385 C34.693,24.472 34.912,22.544 34.912,20.653 C34.912,16.628 33.93,13.275 31.992,10.687 C31.609,10.179 30.887,10.074 30.377,10.456 C29.869,10.838 29.766,11.56 30.146,12.07 C31.779,14.249 32.606,17.137 32.606,20.653 L32.606,20.653 Z" id="Stroke-7" stroke="#FFFFFF" sketch:type="MSShapeGroup"></path>
                <path d="M15.959,38.256 C13.094,36.301 10.533,32.554 9.107,28.232 C8.908,27.627 8.256,27.299 7.65,27.498 C7.047,27.698 6.719,28.35 6.918,28.954 C8.522,33.812 11.342,37.897 14.66,40.16 C14.859,40.296 15.084,40.36 15.309,40.36 C15.678,40.36 16.039,40.185 16.262,39.857 C16.621,39.331 16.484,38.614 15.959,38.256 L15.959,38.256 Z" id="Fill-8" fill="#010604" sketch:type="MSShapeGroup"></path>
                <path d="M15.959,38.256 C13.094,36.301 10.533,32.554 9.107,28.232 C8.908,27.627 8.256,27.299 7.65,27.498 C7.047,27.698 6.719,28.35 6.918,28.954 C8.522,33.812 11.342,37.897 14.66,40.16 C14.859,40.296 15.084,40.36 15.309,40.36 C15.678,40.36 16.039,40.185 16.262,39.857 C16.621,39.331 16.484,38.614 15.959,38.256 L15.959,38.256 Z" id="Stroke-9" stroke="#FFFFFF" sketch:type="MSShapeGroup"></path>
                <path d="M56.211,19.212 C52.703,15.794 47.785,13.912 42.365,13.912 C41.223,13.912 40.092,13.997 38.994,14.162 C38.078,10.84 36.424,7.97 34.08,5.687 C30.57,2.269 25.652,0.387 20.234,0.387 C14.814,0.387 9.896,2.269 6.389,5.687 C2.625,9.351 0.637,14.526 0.637,20.653 C0.637,26.894 2.682,33.389 6.248,38.475 C9.289,42.81 13.039,45.599 17.045,46.57 C16.775,47.075 16.621,47.651 16.621,48.263 L16.621,50.722 C16.621,51.358 17.137,51.875 17.773,51.875 L19.012,51.875 C18.918,52.584 18.738,53.064 18.539,53.595 C18.217,54.454 17.852,55.429 17.852,57.276 C17.852,59.125 18.217,60.101 18.539,60.961 C18.83,61.736 19.08,62.405 19.08,63.836 C19.08,65.267 18.83,65.935 18.539,66.711 C18.217,67.571 17.852,68.546 17.852,70.394 C17.852,71.031 18.367,71.548 19.004,71.548 C19.641,71.548 20.156,71.031 20.156,70.394 C20.156,68.965 20.408,68.295 20.697,67.52 C21.022,66.66 21.387,65.685 21.387,63.836 C21.387,61.987 21.022,61.012 20.697,60.152 C20.408,59.377 20.156,58.707 20.156,57.277 C20.156,55.848 20.408,55.179 20.697,54.404 C20.945,53.744 21.219,53.015 21.332,51.875 L22.693,51.875 C23.33,51.875 23.846,51.359 23.846,50.723 L23.846,48.264 C23.846,47.652 23.691,47.076 23.422,46.571 C24.004,46.43 24.58,46.25 25.15,46.034 C28.178,53.481 33.43,58.666 39.18,60.088 C38.908,60.595 38.754,61.174 38.754,61.789 L38.754,64.248 C38.754,64.885 39.27,65.4 39.906,65.4 L41.145,65.4 C41.051,66.109 40.871,66.59 40.672,67.12 C40.35,67.979 39.983,68.955 39.983,70.803 C39.983,71.438 40.5,71.955 41.137,71.955 C41.773,71.955 42.289,71.438 42.289,70.803 C42.289,69.373 42.539,68.704 42.83,67.93 C43.078,67.27 43.352,66.54 43.463,65.4 L44.824,65.4 C45.461,65.4 45.979,64.885 45.979,64.248 L45.979,61.789 C45.979,61.178 45.824,60.602 45.555,60.096 C49.561,59.124 53.311,56.335 56.352,52 C59.916,46.915 61.963,40.42 61.963,34.18 C61.963,28.051 59.973,22.876 56.211,19.212 L56.211,19.212 Z M8.137,37.15 C4.836,32.444 2.943,26.431 2.943,20.653 C2.943,15.162 4.689,10.558 7.996,7.338 C11.072,4.342 15.418,2.691 20.234,2.691 C25.049,2.691 29.395,4.342 32.471,7.338 C35.777,10.558 37.523,15.162 37.523,20.653 C37.523,26.431 35.633,32.444 32.332,37.15 C28.939,41.987 24.643,44.651 20.234,44.651 C15.824,44.651 11.527,41.987 8.137,37.15 L8.137,37.15 Z M21.541,48.263 L21.541,49.569 L18.928,49.569 L18.928,48.263 C18.928,47.543 19.514,46.956 20.234,46.956 C20.953,46.956 21.541,47.543 21.541,48.263 L21.541,48.263 Z M43.672,61.788 L43.672,63.095 L41.061,63.095 L41.061,61.788 C41.061,61.067 41.645,60.481 42.365,60.481 C43.086,60.481 43.672,61.067 43.672,61.788 L43.672,61.788 Z M54.463,50.676 C51.072,55.513 46.775,58.177 42.365,58.177 C39.258,58.177 36.146,56.822 33.371,54.259 C30.877,51.957 28.715,48.705 27.24,45.052 C27.992,44.631 28.727,44.142 29.441,43.587 C31.092,47.955 33.731,51.597 36.793,53.686 C36.992,53.82 37.217,53.885 37.441,53.885 C37.809,53.885 38.172,53.709 38.395,53.383 C38.754,52.856 38.617,52.139 38.092,51.78 C35.27,49.855 32.742,46.189 31.305,41.948 C32.332,40.934 33.309,39.773 34.219,38.475 C37.785,33.389 39.83,26.894 39.83,20.653 C39.83,19.184 39.715,17.77 39.488,16.418 C40.426,16.284 41.391,16.217 42.365,16.217 C47.18,16.217 51.527,17.867 54.604,20.863 C57.91,24.083 59.656,28.687 59.656,34.179 C59.656,39.957 57.764,45.97 54.463,50.676 L54.463,50.676 Z" id="Fill-10" fill="#010604" sketch:type="MSShapeGroup"></path>
                <path d="M56.211,19.212 C52.703,15.794 47.785,13.912 42.365,13.912 C41.223,13.912 40.092,13.997 38.994,14.162 C38.078,10.84 36.424,7.97 34.08,5.687 C30.57,2.269 25.652,0.387 20.234,0.387 C14.814,0.387 9.896,2.269 6.389,5.687 C2.625,9.351 0.637,14.526 0.637,20.653 C0.637,26.894 2.682,33.389 6.248,38.475 C9.289,42.81 13.039,45.599 17.045,46.57 C16.775,47.075 16.621,47.651 16.621,48.263 L16.621,50.722 C16.621,51.358 17.137,51.875 17.773,51.875 L19.012,51.875 C18.918,52.584 18.738,53.064 18.539,53.595 C18.217,54.454 17.852,55.429 17.852,57.276 C17.852,59.125 18.217,60.101 18.539,60.961 C18.83,61.736 19.08,62.405 19.08,63.836 C19.08,65.267 18.83,65.935 18.539,66.711 C18.217,67.571 17.852,68.546 17.852,70.394 C17.852,71.031 18.367,71.548 19.004,71.548 C19.641,71.548 20.156,71.031 20.156,70.394 C20.156,68.965 20.408,68.295 20.697,67.52 C21.022,66.66 21.387,65.685 21.387,63.836 C21.387,61.987 21.022,61.012 20.697,60.152 C20.408,59.377 20.156,58.707 20.156,57.277 C20.156,55.848 20.408,55.179 20.697,54.404 C20.945,53.744 21.219,53.015 21.332,51.875 L22.693,51.875 C23.33,51.875 23.846,51.359 23.846,50.723 L23.846,48.264 C23.846,47.652 23.691,47.076 23.422,46.571 C24.004,46.43 24.58,46.25 25.15,46.034 C28.178,53.481 33.43,58.666 39.18,60.088 C38.908,60.595 38.754,61.174 38.754,61.789 L38.754,64.248 C38.754,64.885 39.27,65.4 39.906,65.4 L41.145,65.4 C41.051,66.109 40.871,66.59 40.672,67.12 C40.35,67.979 39.983,68.955 39.983,70.803 C39.983,71.438 40.5,71.955 41.137,71.955 C41.773,71.955 42.289,71.438 42.289,70.803 C42.289,69.373 42.539,68.704 42.83,67.93 C43.078,67.27 43.352,66.54 43.463,65.4 L44.824,65.4 C45.461,65.4 45.979,64.885 45.979,64.248 L45.979,61.789 C45.979,61.178 45.824,60.602 45.555,60.096 C49.561,59.124 53.311,56.335 56.352,52 C59.916,46.915 61.963,40.42 61.963,34.18 C61.963,28.051 59.973,22.876 56.211,19.212 L56.211,19.212 Z M8.137,37.15 C4.836,32.444 2.943,26.431 2.943,20.653 C2.943,15.162 4.689,10.558 7.996,7.338 C11.072,4.342 15.418,2.691 20.234,2.691 C25.049,2.691 29.395,4.342 32.471,7.338 C35.777,10.558 37.523,15.162 37.523,20.653 C37.523,26.431 35.633,32.444 32.332,37.15 C28.939,41.987 24.643,44.651 20.234,44.651 C15.824,44.651 11.527,41.987 8.137,37.15 L8.137,37.15 Z M21.541,48.263 L21.541,49.569 L18.928,49.569 L18.928,48.263 C18.928,47.543 19.514,46.956 20.234,46.956 C20.953,46.956 21.541,47.543 21.541,48.263 L21.541,48.263 Z M43.672,61.788 L43.672,63.095 L41.061,63.095 L41.061,61.788 C41.061,61.067 41.645,60.481 42.365,60.481 C43.086,60.481 43.672,61.067 43.672,61.788 L43.672,61.788 Z M54.463,50.676 C51.072,55.513 46.775,58.177 42.365,58.177 C39.258,58.177 36.146,56.822 33.371,54.259 C30.877,51.957 28.715,48.705 27.24,45.052 C27.992,44.631 28.727,44.142 29.441,43.587 C31.092,47.955 33.731,51.597 36.793,53.686 C36.992,53.82 37.217,53.885 37.441,53.885 C37.809,53.885 38.172,53.709 38.395,53.383 C38.754,52.856 38.617,52.139 38.092,51.78 C35.27,49.855 32.742,46.189 31.305,41.948 C32.332,40.934 33.309,39.773 34.219,38.475 C37.785,33.389 39.83,26.894 39.83,20.653 C39.83,19.184 39.715,17.77 39.488,16.418 C40.426,16.284 41.391,16.217 42.365,16.217 C47.18,16.217 51.527,17.867 54.604,20.863 C57.91,24.083 59.656,28.687 59.656,34.179 C59.656,39.957 57.764,45.97 54.463,50.676 L54.463,50.676 Z" id="Stroke-11" stroke="#FFFFFF" sketch:type="MSShapeGroup"></path>
                <path d="M54.125,24.213 C53.742,23.703 53.02,23.6 52.51,23.981 C52,24.363 51.896,25.086 52.279,25.595 C53.91,27.774 54.738,30.662 54.738,34.179 C54.738,35.898 54.539,37.656 54.145,39.402 C54.006,40.023 54.395,40.641 55.016,40.78 C55.102,40.8 55.186,40.809 55.27,40.809 C55.797,40.809 56.273,40.445 56.395,39.909 C56.826,37.997 57.045,36.068 57.045,34.179 C57.045,30.153 56.063,26.8 54.125,24.213 L54.125,24.213 Z" id="Fill-12" fill="#010604" sketch:type="MSShapeGroup"></path>
                <path d="M54.125,24.213 C53.742,23.703 53.02,23.6 52.51,23.981 C52,24.363 51.896,25.086 52.279,25.595 C53.91,27.774 54.738,30.662 54.738,34.179 C54.738,35.898 54.539,37.656 54.145,39.402 C54.006,40.023 54.395,40.641 55.016,40.78 C55.102,40.8 55.186,40.809 55.27,40.809 C55.797,40.809 56.273,40.445 56.395,39.909 C56.826,37.997 57.045,36.068 57.045,34.179 C57.045,30.153 56.063,26.8 54.125,24.213 L54.125,24.213 Z" id="Stroke-13" stroke="#FFFFFF" sketch:type="MSShapeGroup"></path>
                <path d="M50.32,20.844 C49.492,20.364 48.592,19.962 47.645,19.649 C47.039,19.45 46.389,19.778 46.189,20.383 C45.99,20.988 46.318,21.64 46.922,21.839 C47.719,22.101 48.473,22.437 49.164,22.839 C49.346,22.943 49.545,22.994 49.74,22.994 C50.139,22.994 50.525,22.788 50.74,22.42 C51.059,21.869 50.871,21.163 50.32,20.844 L50.32,20.844 Z" id="Fill-14" fill="#010604" sketch:type="MSShapeGroup"></path>
                <path d="M50.32,20.844 C49.492,20.364 48.592,19.962 47.645,19.649 C47.039,19.45 46.389,19.778 46.189,20.383 C45.99,20.988 46.318,21.64 46.922,21.839 C47.719,22.101 48.473,22.437 49.164,22.839 C49.346,22.943 49.545,22.994 49.74,22.994 C50.139,22.994 50.525,22.788 50.74,22.42 C51.059,21.869 50.871,21.163 50.32,20.844 L50.32,20.844 Z" id="Stroke-15" stroke="#FFFFFF" sketch:type="MSShapeGroup"></path>
                <path d="M18.994,17.673 L19.508,17.673 L19.613,18.192 L19.613,19.132 C20.139,18.786 20.594,18.612 20.982,18.612 L21.182,18.612 L21.289,19.132 L21.289,19.347 C21.248,19.561 20.588,19.871 19.309,20.279 C19.232,20.973 19.193,21.494 19.193,21.847 L19.193,22.268 C20.961,21.646 21.938,21.334 22.121,21.334 L22.121,21.435 C22.121,21.506 22.154,21.607 22.221,21.74 C22.221,22.301 22.08,22.581 21.801,22.581 L21.395,22.474 C18.908,23.452 16.99,23.942 15.647,23.942 L15.647,28.108 C15.855,28.379 15.959,28.591 15.959,28.743 C15.75,28.81 15.647,29.016 15.647,29.363 L15.76,30.097 C15.551,30.097 15.447,30.236 15.447,30.518 L14.606,30.518 L14.606,30.303 C14.606,29.905 14.469,29.525 14.193,29.164 L14.193,29.049 C14.469,28.732 14.606,28.246 14.606,27.589 L14.606,26.442 C14.606,26.141 14.674,25.863 14.813,25.608 C14.674,25.048 14.606,24.454 14.606,23.827 L14.606,23.314 C14.606,22.301 14.535,20.56 14.393,18.093 L14.606,17.985 L15.027,17.985 C15.307,17.985 15.447,18.404 15.447,19.24 L15.447,20.081 C16.299,20.081 17.272,19.94 18.367,19.66 L18.367,19.446 C18.367,18.544 18.576,17.953 18.994,17.673 L18.994,17.673 Z M16.066,21.021 L15.647,21.021 C15.512,21.036 15.447,21.104 15.447,21.221 C15.447,21.465 15.512,22.057 15.647,22.993 C15.844,22.993 16.752,22.856 18.367,22.581 C18.367,21.816 18.295,21.156 18.154,20.601 C17.465,20.882 16.77,21.021 16.066,21.021 L16.066,21.021 Z M18.475,23.628 L18.789,23.628 C18.926,23.644 18.994,23.71 18.994,23.827 L18.994,24.668 C20.416,24.454 21.389,24.347 21.914,24.347 C22.022,24.627 22.125,24.767 22.221,24.767 C22.154,25.251 22.088,25.567 22.022,25.716 C22.088,25.812 22.154,26.194 22.221,26.862 L22.022,26.862 L22.022,26.549 L21.914,26.549 C21.914,26.941 21.775,27.217 21.494,27.375 C21.566,27.517 21.602,27.622 21.602,27.687 C21.602,27.993 20.348,28.274 17.84,28.529 C17.565,28.183 17.428,27.937 17.428,27.795 C17.565,27.611 17.701,27.092 17.84,26.235 C17.84,26.174 17.807,25.894 17.74,25.394 C17.904,24.218 18.148,23.628 18.475,23.628 L18.475,23.628 Z M24.729,14.331 L24.943,14.331 C25.289,14.331 25.463,14.853 25.463,15.898 L25.463,17.779 C25.463,21.531 25.635,26.055 25.982,31.351 C25.57,31.487 25.363,31.59 25.363,31.656 C22.719,31.141 21.395,30.69 21.395,30.303 L21.395,29.998 L21.494,29.998 C22.84,30.409 23.852,30.616 24.529,30.616 L24.842,30.616 C24.842,30.475 24.877,30.402 24.943,30.402 C24.596,24.75 24.387,20.993 24.316,19.132 L24.424,19.132 L24.316,18.926 L24.316,15.685 C24.316,15.552 24.246,15.485 24.109,15.485 C21.057,16.663 19.246,17.252 18.682,17.252 C18.543,17.028 18.475,16.821 18.475,16.632 C18.76,16.362 20.08,15.906 22.436,15.264 C23.494,14.642 24.26,14.331 24.729,14.331 L24.729,14.331 Z M18.887,25.608 L18.887,26.755 C20.283,26.516 20.982,26.062 20.982,25.394 C20.574,25.394 19.875,25.465 18.887,25.608 L18.887,25.608 Z" id="Fill-16" fill="#1A1918" sketch:type="MSShapeGroup"></path>
                <path d="M43.74,31.742 L43.939,31.797 C44.076,31.834 44.119,31.951 44.064,32.149 C43.059,33.966 42.527,34.975 42.473,35.177 L42.568,35.203 C45.238,35.433 47.762,35.439 50.145,35.22 C50.219,35.478 50.242,35.67 50.209,35.792 C50.158,35.975 49.522,36.193 48.299,36.449 C48.217,36.755 47.557,37.44 46.322,38.508 L46.297,38.604 C46.922,38.564 48.01,38.537 49.561,38.524 C49.877,38.706 50.018,38.854 49.984,38.973 C49.832,39.533 47.549,42.189 43.137,46.941 L42.781,47.058 L42.479,46.975 L42.52,46.447 C42.631,46.044 44.147,44.333 47.07,41.311 C47.729,40.489 48.187,39.859 48.451,39.425 L48.354,39.399 C45.85,39.298 44.5,39.609 44.303,40.331 C44.166,40.32 44.084,40.373 44.053,40.484 L44,40.677 C44.08,40.941 44.695,41.331 45.846,41.842 L45.68,42.447 L43.969,41.976 L43.488,41.733 C42.826,42.351 42.291,42.602 41.877,42.49 C41.74,42.452 41.691,42.363 41.727,42.227 L41.756,42.123 C42.258,41.161 43.746,39.548 46.225,37.283 C46.705,36.829 46.977,36.51 47.027,36.322 L46.932,36.296 C43.539,36.233 41.75,36.176 41.57,36.127 L41.355,36.067 C41.258,36.041 41.195,35.877 41.166,35.579 C42.289,33.309 43.147,32.028 43.74,31.742 L43.74,31.742 Z M47.451,32.434 L47.547,32.462 C47.742,32.516 47.848,33.192 47.861,34.49 C47.961,34.517 48.029,34.645 48.072,34.875 L48.018,35.073 C47.982,35.21 47.897,35.262 47.764,35.226 L47.359,35.114 C46.838,34.405 46.646,33.809 46.779,33.322 L46.943,32.724 C46.971,32.621 47.141,32.525 47.451,32.434 L47.451,32.434 Z M51.023,33.193 L51.127,33.222 C51.732,33.388 51.852,34.142 51.482,35.483 C51.551,35.503 51.539,35.678 51.447,36.014 L51.205,36.493 L50.703,36.355 C50.586,34.955 50.609,33.951 50.775,33.347 C50.828,33.214 50.91,33.162 51.023,33.193 L51.023,33.193 Z" id="Fill-17" fill="#1A1918" sketch:type="MSShapeGroup"></path>
            </g>
        </g>
    </g>
</svg>