<?xml version="1.0" encoding="UTF-8" standalone="no"?>
<svg width="120px" height="120px" viewBox="0 0 120 120" version="1.1" xmlns="http://www.w3.org/2000/svg" xmlns:xlink="http://www.w3.org/1999/xlink" xmlns:sketch="http://www.bohemiancoding.com/sketch/ns">
    <!-- Generator: Sketch 3.3.2 (12043) - http://www.bohemiancoding.com/sketch -->
    <title>Mobile Portrait Copy 3</title>
    <desc>Created with Sketch.</desc>
    <defs></defs>
    <g id="baby" stroke="none" stroke-width="1" fill="none" fill-rule="evenodd" sketch:type="MSPage">
        <g id="Mobile-Portrait-Copy-3" sketch:type="MSArtboardGroup">
            <g id="Imported-Layers" sketch:type="MSLayerGroup" transform="translate(35.000000, 37.000000)">
                <path d="M26.691,7.939 C25.293,5.27 25.17,2.455 25.162,1.717 L25.477,1.717 C25.771,1.717 26.012,1.477 26.012,1.182 L26.012,0.686 C26.012,0.39 25.771,0.149 25.477,0.149 L20.389,0.149 C20.094,0.149 19.853,0.39 19.853,0.686 L19.853,1.182 C19.853,1.477 20.094,1.717 20.389,1.717 L20.627,1.717 C20.621,2.455 20.496,5.27 19.098,7.939 C18.408,9.616 18.062,10.602 17.965,13.166 C17.965,15.525 17.949,29.701 17.949,29.701 C17.949,30.245 18.391,30.687 18.934,30.687 L26.834,30.687 C27.377,30.687 27.818,30.245 27.818,29.701 L27.818,13.166 C27.721,10.602 27.383,9.616 26.691,7.939" id="Fill-1" fill="#36A0CE" sketch:type="MSShapeGroup"></path>
                <path d="M26.691,7.939 C25.293,5.27 25.17,2.455 25.162,1.717 L25.477,1.717 C25.771,1.717 26.012,1.477 26.012,1.182 L26.012,0.686 C26.012,0.39 25.771,0.149 25.477,0.149 L20.389,0.149 C20.094,0.149 19.853,0.39 19.853,0.686 L19.853,1.182 C19.853,1.477 20.094,1.717 20.389,1.717 L20.627,1.717 C20.621,2.455 20.496,5.27 19.098,7.939 C18.408,9.616 18.062,10.602 17.965,13.166 C17.965,15.525 17.949,29.701 17.949,29.701 C17.949,30.245 18.391,30.687 18.934,30.687 L26.834,30.687 C27.377,30.687 27.818,30.245 27.818,29.701 L27.818,13.166 C27.721,10.602 27.383,9.616 26.691,7.939 L26.691,7.939 Z" id="Stroke-2" stroke="#FFFFFF" sketch:type="MSShapeGroup"></path>
                <path d="M20.51,8.954 L26.154,8.954 C26.027,8.614 25.875,8.259 25.691,7.891 C24.478,5.576 24.309,2.14 24.309,2.14 L21.418,2.14 C21.418,2.14 21.246,5.576 20.035,7.891 C19.949,8.049 19.873,8.204 19.801,8.36 L19.789,8.359 C19.789,8.359 18.857,10.052 18.797,12.309 C18.695,15.195 18.736,29.506 18.736,29.506 L19.713,29.506 C19.713,29.506 19.6,20.44 19.713,12.593 C19.734,11.036 20.145,9.69 20.51,8.954 L20.51,8.954 Z" id="Fill-3" fill="#FFFFFF" sketch:type="MSShapeGroup"></path>
                <path d="M20.51,8.954 L26.154,8.954 C26.027,8.614 25.875,8.259 25.691,7.891 C24.478,5.576 24.309,2.14 24.309,2.14 L21.418,2.14 C21.418,2.14 21.246,5.576 20.035,7.891 C19.949,8.049 19.873,8.204 19.801,8.36 L19.789,8.359 C19.789,8.359 18.857,10.052 18.797,12.309 C18.695,15.195 18.736,29.506 18.736,29.506 L19.713,29.506 C19.713,29.506 19.6,20.44 19.713,12.593 C19.734,11.036 20.145,9.69 20.51,8.954 L20.51,8.954 Z" id="Stroke-4" stroke="#FFFFFF" sketch:type="MSShapeGroup"></path>
                <path d="M10.416,31.188 C10.024,31.188 9.728,30.905 9.728,30.531 C9.728,30.252 9.892,30.066 9.99,29.955 L10.709,29.037 C10.793,28.924 10.822,28.776 10.822,28.437 L10.822,20.106 L9.38,30.506 C9.254,31.141 8.778,31.188 8.635,31.188 L7.947,31.188 C7.609,31.188 7.392,30.958 7.301,30.504 L5.697,19.679 L5.697,28.437 C5.697,28.776 5.726,28.924 5.816,29.044 L6.467,29.881 C6.627,30.066 6.791,30.252 6.791,30.531 C6.791,30.894 6.482,31.188 6.103,31.188 L2.26,31.188 C1.881,31.188 1.572,30.894 1.572,30.531 C1.572,30.241 1.755,30.059 1.853,29.96 L2.693,28.986 C2.787,28.859 2.854,28.716 2.854,28.437 L2.854,9.5 C2.854,9.222 2.787,9.078 2.672,8.925 L1.912,8.045 C1.755,7.879 1.572,7.696 1.572,7.406 C1.572,7.044 1.881,6.75 2.26,6.75 L6.072,6.75 C6.476,6.75 6.935,7.008 7.007,7.731 L8.585,18.08 L10.046,7.712 C10.132,6.846 10.661,6.75 10.885,6.75 L14.791,6.75 C15.17,6.75 15.478,7.044 15.478,7.406 C15.478,7.726 15.267,7.927 15.152,8.035 L14.357,8.951 C14.281,9.055 14.228,9.185 14.228,9.5 L14.228,28.437 C14.228,28.753 14.281,28.883 14.379,29.013 L15.139,29.893 C15.267,30.011 15.478,30.212 15.478,30.531 C15.478,30.894 15.17,31.188 14.791,31.188 L10.416,31.188" id="Fill-5" fill="#36A0CE" sketch:type="MSShapeGroup"></path>
                <path d="M14.791,7.25 C14.916,7.25 14.978,7.344 14.978,7.406 C14.978,7.531 14.854,7.625 14.76,7.719 L13.978,8.625 C13.791,8.875 13.729,9.125 13.729,9.5 L13.729,28.437 C13.729,28.812 13.791,29.062 13.978,29.313 L14.76,30.219 C14.854,30.312 14.978,30.406 14.978,30.531 C14.978,30.594 14.916,30.687 14.791,30.687 L10.416,30.687 C10.26,30.687 10.228,30.594 10.228,30.531 C10.228,30.406 10.354,30.312 10.447,30.187 L11.104,29.344 C11.291,29.094 11.322,28.812 11.322,28.437 L11.322,13.312 L11.26,13.312 L8.885,30.438 C8.854,30.594 8.791,30.687 8.635,30.687 L7.947,30.687 C7.853,30.687 7.822,30.562 7.791,30.406 L5.26,13.312 L5.197,13.312 L5.197,28.437 C5.197,28.812 5.228,29.094 5.416,29.344 L6.072,30.187 C6.166,30.312 6.291,30.406 6.291,30.531 C6.291,30.594 6.229,30.687 6.103,30.687 L2.26,30.687 C2.135,30.687 2.072,30.594 2.072,30.531 C2.072,30.406 2.228,30.312 2.291,30.219 L3.072,29.313 C3.26,29.062 3.353,28.812 3.353,28.437 L3.353,9.5 C3.353,9.125 3.26,8.875 3.072,8.625 L2.291,7.719 C2.228,7.625 2.072,7.531 2.072,7.406 C2.072,7.344 2.135,7.25 2.26,7.25 L6.072,7.25 C6.353,7.25 6.478,7.469 6.51,7.781 L8.572,21.312 L8.635,21.312 L10.541,7.781 C10.572,7.469 10.666,7.25 10.885,7.25 L14.791,7.25 L14.791,7.25 Z M14.791,6.25 L10.885,6.25 C10.686,6.25 9.683,6.319 9.546,7.682 L8.566,14.635 L7.502,7.652 C7.386,6.618 6.662,6.25 6.072,6.25 L2.26,6.25 C1.605,6.25 1.072,6.769 1.072,7.406 C1.072,7.895 1.372,8.203 1.493,8.324 L1.493,8.325 L1.533,8.372 L2.29,9.249 C2.334,9.311 2.353,9.358 2.353,9.5 L2.353,28.437 C2.353,28.579 2.334,28.627 2.29,28.689 L1.533,29.565 L1.493,29.612 L1.493,29.613 C1.348,29.76 1.072,30.063 1.072,30.531 C1.072,31.169 1.605,31.687 2.26,31.687 L6.103,31.687 C6.493,31.687 6.839,31.504 7.056,31.222 C7.338,31.631 7.746,31.687 7.947,31.687 L8.635,31.687 C8.929,31.687 9.274,31.58 9.531,31.31 C9.747,31.543 10.061,31.687 10.416,31.687 L14.791,31.687 C15.445,31.687 15.979,31.169 15.979,30.531 C15.979,29.997 15.641,29.677 15.496,29.539 L14.765,28.692 C14.744,28.66 14.728,28.608 14.728,28.437 L14.728,9.5 C14.728,9.328 14.744,9.277 14.765,9.244 L15.486,8.407 C15.665,8.237 15.979,7.921 15.979,7.406 C15.979,6.769 15.445,6.25 14.791,6.25 L14.791,6.25 Z M6.206,28.73 C6.213,28.73 6.197,28.662 6.197,28.437 L6.197,26.471 L6.608,29.248 L6.205,28.73 L6.206,28.73 L6.206,28.73 Z M10.091,29.019 L10.322,27.352 L10.322,28.437 C10.322,28.668 10.307,28.733 10.3,28.751 L10.091,29.019 L10.091,29.019 Z" id="Fill-6" fill="#FFFFFF" sketch:type="MSShapeGroup"></path>
                <path d="M30.207,31.188 C29.821,31.188 29.52,30.886 29.52,30.5 C29.52,30.228 29.695,30.068 29.78,29.991 L29.818,29.915 L29.891,29.859 L30.828,28.953 C30.903,28.878 30.957,28.759 30.957,28.437 L30.957,9.5 C30.957,9.179 30.903,9.06 30.822,8.979 L29.852,8.041 L29.822,7.996 C29.699,7.882 29.52,7.709 29.52,7.437 C29.52,7.052 29.821,6.75 30.207,6.75 L35.113,6.75 C35.499,6.75 35.801,7.052 35.801,7.437 C35.801,7.709 35.621,7.882 35.525,7.974 L35.495,8.019 L34.492,8.984 C34.417,9.06 34.363,9.179 34.363,9.5 L34.363,28.625 L35.113,28.625 C35.409,28.625 35.431,28.561 35.451,28.498 L37.393,22.423 L37.436,22.323 C37.558,22.026 37.764,21.875 38.051,21.875 C38.425,21.875 38.707,22.184 38.707,22.594 L38.707,30.25 C38.707,30.941 38.271,31.188 37.863,31.188 L30.207,31.188" id="Fill-7" fill="#36A0CE" sketch:type="MSShapeGroup"></path>
                <path d="M35.113,7.25 C35.238,7.25 35.301,7.344 35.301,7.437 C35.301,7.531 35.145,7.625 35.082,7.719 L34.144,8.625 C33.926,8.844 33.863,9.125 33.863,9.5 L33.863,29.125 L35.113,29.125 C35.488,29.125 35.801,29.031 35.926,28.656 L37.863,22.594 C37.926,22.469 37.926,22.375 38.051,22.375 C38.145,22.375 38.207,22.469 38.207,22.594 L38.207,30.25 C38.207,30.531 38.113,30.687 37.863,30.687 L30.207,30.687 C30.082,30.687 30.019,30.594 30.019,30.5 C30.019,30.406 30.176,30.344 30.238,30.219 L31.176,29.313 C31.395,29.094 31.457,28.812 31.457,28.437 L31.457,9.5 C31.457,9.125 31.395,8.844 31.176,8.625 L30.238,7.719 C30.176,7.625 30.019,7.531 30.019,7.437 C30.019,7.344 30.082,7.25 30.207,7.25 L35.113,7.25 M35.113,6.25 L30.207,6.25 C29.541,6.25 29.019,6.772 29.019,7.437 C29.019,7.915 29.322,8.213 29.443,8.329 L29.466,8.363 L29.543,8.437 L30.444,9.309 C30.449,9.337 30.457,9.395 30.457,9.5 L30.457,28.437 C30.457,28.543 30.449,28.601 30.444,28.629 L29.543,29.5 L29.42,29.619 L29.397,29.665 C29.254,29.805 29.019,30.078 29.019,30.5 C29.019,31.166 29.541,31.687 30.207,31.687 L37.863,31.687 C38.511,31.687 39.207,31.237 39.207,30.25 L39.207,22.594 C39.207,21.91 38.699,21.375 38.051,21.375 C37.819,21.375 37.252,21.449 36.973,22.135 L36.938,22.204 L36.911,22.289 L35.046,28.125 L34.863,28.125 L34.863,9.5 C34.863,9.395 34.871,9.337 34.876,9.309 L35.777,8.437 L35.854,8.363 L35.877,8.329 C36.025,8.185 36.301,7.893 36.301,7.437 C36.301,6.772 35.779,6.25 35.113,6.25" id="Fill-8" fill="#FFFFFF" sketch:type="MSShapeGroup"></path>
                <path d="M45.113,31.188 C44.975,31.188 44.857,31.159 44.762,31.111 C44.674,31.159 44.57,31.188 44.457,31.188 L39.488,31.188 C39.096,31.188 38.832,30.849 38.832,30.531 C38.832,30.29 38.944,30.056 39.166,29.834 L40.153,28.941 C40.216,28.878 40.269,28.759 40.269,28.437 L40.269,9.5 C40.269,9.156 40.235,9.068 40.159,9.001 L39.21,8.115 C38.98,7.947 38.832,7.684 38.832,7.406 C38.832,7.089 39.096,6.75 39.488,6.75 L44.457,6.75 C44.578,6.75 44.687,6.782 44.778,6.836 C44.885,6.781 45.009,6.75 45.144,6.75 L49.707,6.75 C50.117,6.75 50.426,7.032 50.426,7.406 C50.426,7.738 50.196,7.968 50.029,8.135 L48.967,9.197 C48.744,9.421 48.564,9.763 48.402,10.275 L46.04,17.396 L48.724,28.255 C48.827,28.597 48.927,28.709 48.965,28.741 L50.056,29.798 C50.218,29.959 50.426,30.205 50.426,30.531 C50.426,30.93 50.168,31.188 49.77,31.188 L45.113,31.188 L45.113,31.188 Z M43.676,28.437 C43.676,28.759 43.729,28.878 43.811,28.959 L44.761,29.816 C44.774,29.83 44.787,29.843 44.8,29.856 L45.587,28.796 C45.652,28.696 45.669,28.614 45.604,28.394 L44.236,22.805 L43.676,24.518 L43.676,28.437 L43.676,28.437 Z M43.792,8.996 C43.729,9.06 43.676,9.179 43.676,9.5 L43.676,15.7 L45.826,9.248 C45.901,9.041 45.845,8.991 45.784,8.938 L44.823,8.133 C44.811,8.121 44.799,8.108 44.786,8.097 C44.784,8.099 43.792,8.996 43.792,8.996 L43.792,8.996 Z" id="Fill-9" fill="#36A0CE" sketch:type="MSShapeGroup"></path>
                <path d="M49.707,7.25 C49.832,7.25 49.926,7.312 49.926,7.406 C49.926,7.531 49.801,7.656 49.676,7.781 L48.613,8.844 C48.332,9.125 48.113,9.531 47.926,10.125 L45.519,17.375 L48.238,28.375 C48.332,28.687 48.457,28.969 48.645,29.125 L49.707,30.156 C49.832,30.281 49.926,30.406 49.926,30.531 C49.926,30.656 49.894,30.687 49.77,30.687 L45.113,30.687 C44.988,30.687 44.926,30.656 44.926,30.531 C44.926,30.438 45.051,30.344 45.176,30.187 L45.988,29.094 C46.176,28.812 46.176,28.563 46.082,28.25 L44.332,21.094 L44.269,21.094 L43.176,24.438 L43.176,28.437 C43.176,28.812 43.238,29.094 43.457,29.313 L44.426,30.187 C44.52,30.281 44.613,30.406 44.613,30.531 C44.613,30.594 44.551,30.687 44.457,30.687 L39.488,30.687 C39.394,30.687 39.332,30.594 39.332,30.531 C39.332,30.406 39.426,30.281 39.519,30.187 L40.488,29.313 C40.707,29.094 40.77,28.812 40.77,28.437 L40.77,9.5 C40.77,9.125 40.738,8.844 40.488,8.625 L39.551,7.75 C39.426,7.656 39.332,7.531 39.332,7.406 C39.332,7.344 39.394,7.25 39.488,7.25 L44.457,7.25 C44.551,7.25 44.613,7.344 44.613,7.406 C44.613,7.531 44.52,7.656 44.426,7.75 L43.457,8.625 C43.238,8.844 43.176,9.125 43.176,9.5 L43.176,18.594 L43.238,18.594 L46.301,9.406 C46.426,9.063 46.363,8.781 46.113,8.563 L45.144,7.75 C45.019,7.625 44.926,7.531 44.926,7.406 C44.926,7.312 45.019,7.25 45.144,7.25 L49.707,7.25 L49.707,7.25 Z M49.707,6.25 L45.144,6.25 C45.019,6.25 44.898,6.268 44.785,6.299 C44.681,6.268 44.57,6.25 44.457,6.25 L39.488,6.25 C38.861,6.25 38.332,6.779 38.332,7.406 C38.332,7.819 38.538,8.219 38.9,8.511 L39.764,9.317 C39.768,9.353 39.769,9.41 39.769,9.5 L39.769,28.437 C39.769,28.538 39.763,28.596 39.758,28.625 L38.83,29.463 L38.812,29.48 C38.415,29.877 38.332,30.271 38.332,30.531 C38.332,31.158 38.861,31.687 39.488,31.687 L44.457,31.687 C44.562,31.687 44.666,31.672 44.764,31.645 C44.871,31.672 44.987,31.687 45.113,31.687 L49.77,31.687 C50.45,31.687 50.926,31.212 50.926,30.531 C50.926,29.961 50.541,29.576 50.414,29.449 L49.341,28.407 L49.313,28.381 L49.292,28.363 L49.293,28.363 C49.301,28.363 49.255,28.284 49.196,28.088 L46.56,17.416 L48.875,10.439 C49.015,9.999 49.158,9.713 49.32,9.551 L50.383,8.488 C50.572,8.299 50.926,7.945 50.926,7.406 C50.926,6.758 50.391,6.25 49.707,6.25 L49.707,6.25 Z M44.187,9.312 L44.796,8.763 L45.316,9.199 L44.176,12.619 L44.176,9.5 C44.176,9.399 44.183,9.342 44.187,9.312 L44.187,9.312 Z M44.187,28.625 C44.183,28.596 44.176,28.538 44.176,28.437 L44.176,24.664 L45.11,28.487 L45.117,28.513 L45.124,28.537 C45.128,28.549 45.131,28.56 45.133,28.568 L44.728,29.113 L44.187,28.625 L44.187,28.625 Z" id="Fill-10" fill="#FFFFFF" sketch:type="MSShapeGroup"></path>
                <path d="M1.732,38.96 C1.666,39.023 1.593,39.056 1.512,39.058 C1.436,39.059 1.365,39.032 1.3,38.976 C1.234,38.92 1.192,38.834 1.174,38.715 L1.137,36.699 C0.995,36.637 0.923,36.538 0.921,36.403 C0.92,36.344 0.936,36.286 0.97,36.228 C1.004,36.171 1.057,36.128 1.126,36.1 L1.125,36.043 C1.124,35.979 1.123,35.901 1.125,35.812 C1.125,35.724 1.125,35.628 1.123,35.525 C1.12,35.368 1.109,35.218 1.091,35.071 C1.071,34.927 1.032,34.811 0.971,34.727 C0.938,34.652 0.919,34.585 0.918,34.526 C0.915,34.369 0.997,34.263 1.163,34.205 C1.363,34.169 1.563,34.145 1.766,34.133 C1.968,34.122 2.17,34.112 2.373,34.106 C2.574,34.1 2.777,34.092 2.983,34.082 C3.188,34.074 3.39,34.054 3.589,34.022 C3.719,34.019 3.817,34.049 3.886,34.106 C3.955,34.164 3.99,34.239 3.992,34.331 C3.993,34.406 3.968,34.477 3.919,34.539 C3.868,34.602 3.79,34.647 3.682,34.676 C3.353,34.726 3.024,34.752 2.695,34.755 C2.367,34.758 2.037,34.773 1.709,34.802 C1.738,34.914 1.758,35.031 1.768,35.153 C1.779,35.274 1.785,35.394 1.787,35.513 C1.789,35.604 1.789,35.691 1.788,35.772 C1.787,35.853 1.786,35.932 1.788,36.007 L1.789,36.088 C2.081,36.082 2.381,36.069 2.687,36.051 C2.994,36.032 3.261,35.985 3.485,35.911 C3.609,35.908 3.708,35.936 3.779,35.994 C3.851,36.053 3.888,36.127 3.889,36.219 C3.892,36.354 3.817,36.456 3.667,36.526 C3.517,36.597 3.335,36.648 3.12,36.679 C2.904,36.71 2.675,36.728 2.433,36.732 C2.189,36.736 1.979,36.74 1.801,36.744 L1.837,38.679 C1.834,38.803 1.799,38.896 1.732,38.96 L1.732,38.96 Z" id="Fill-11" fill="#36A0CE" sketch:type="MSShapeGroup"></path>
                <path d="M1.732,38.96 C1.666,39.023 1.593,39.056 1.512,39.058 C1.436,39.059 1.365,39.032 1.3,38.976 C1.234,38.92 1.192,38.834 1.174,38.715 L1.137,36.699 C0.995,36.637 0.923,36.538 0.921,36.403 C0.92,36.344 0.936,36.286 0.97,36.228 C1.004,36.171 1.057,36.128 1.126,36.1 L1.125,36.043 C1.124,35.979 1.123,35.901 1.125,35.812 C1.125,35.724 1.125,35.628 1.123,35.525 C1.12,35.368 1.109,35.218 1.091,35.071 C1.071,34.927 1.032,34.811 0.971,34.727 C0.938,34.652 0.919,34.585 0.918,34.526 C0.915,34.369 0.997,34.263 1.163,34.205 C1.363,34.169 1.563,34.145 1.766,34.133 C1.968,34.122 2.17,34.112 2.373,34.106 C2.574,34.1 2.777,34.092 2.983,34.082 C3.188,34.074 3.39,34.054 3.589,34.022 C3.719,34.019 3.817,34.049 3.886,34.106 C3.955,34.164 3.99,34.239 3.992,34.331 C3.993,34.406 3.968,34.477 3.919,34.539 C3.868,34.602 3.79,34.647 3.682,34.676 C3.353,34.726 3.024,34.752 2.695,34.755 C2.367,34.758 2.037,34.773 1.709,34.802 C1.738,34.914 1.758,35.031 1.768,35.153 C1.779,35.274 1.785,35.394 1.787,35.513 C1.789,35.604 1.789,35.691 1.788,35.772 C1.787,35.853 1.786,35.932 1.788,36.007 L1.789,36.088 C2.081,36.082 2.381,36.069 2.687,36.051 C2.994,36.032 3.261,35.985 3.485,35.911 C3.609,35.908 3.708,35.936 3.779,35.994 C3.851,36.053 3.888,36.127 3.889,36.219 C3.892,36.354 3.817,36.456 3.667,36.526 C3.517,36.597 3.335,36.648 3.12,36.679 C2.904,36.71 2.675,36.728 2.433,36.732 C2.189,36.736 1.979,36.74 1.801,36.744 L1.837,38.679 C1.834,38.803 1.799,38.896 1.732,38.96 L1.732,38.96 Z" id="Stroke-12" stroke="#FFFFFF" stroke-width="0.25" sketch:type="MSShapeGroup"></path>
                <path d="M4.768,36.024 C4.686,35.983 4.626,35.933 4.587,35.874 C4.549,35.815 4.528,35.757 4.527,35.697 C4.525,35.616 4.555,35.544 4.613,35.48 C4.67,35.418 4.751,35.385 4.853,35.384 C4.93,35.382 5.023,35.407 5.138,35.459 C5.253,35.511 5.344,35.568 5.409,35.632 C5.573,35.489 5.744,35.37 5.921,35.274 C6.097,35.18 6.277,35.131 6.461,35.127 C6.515,35.126 6.593,35.139 6.695,35.163 C6.799,35.188 6.901,35.227 7.002,35.279 C7.103,35.331 7.191,35.399 7.269,35.484 C7.346,35.57 7.386,35.669 7.388,35.782 C7.39,35.874 7.36,35.948 7.303,36.007 C7.245,36.064 7.172,36.094 7.086,36.096 C7.026,36.097 6.974,36.08 6.927,36.046 C6.88,36.012 6.834,35.974 6.787,35.935 C6.74,35.896 6.691,35.859 6.64,35.828 C6.587,35.797 6.529,35.781 6.465,35.782 C6.389,35.784 6.307,35.809 6.219,35.856 C6.131,35.904 6.043,35.96 5.954,36.027 C5.867,36.094 5.783,36.165 5.703,36.242 C5.624,36.319 5.555,36.389 5.497,36.449 L5.537,38.603 C5.533,38.727 5.499,38.82 5.433,38.884 C5.366,38.946 5.293,38.979 5.212,38.981 C5.136,38.982 5.064,38.955 4.999,38.899 C4.934,38.844 4.892,38.757 4.873,38.639 L4.833,36.428 C4.832,36.417 4.83,36.405 4.828,36.392 C4.825,36.378 4.823,36.366 4.823,36.356 C4.823,36.345 4.824,36.332 4.827,36.319 C4.828,36.306 4.83,36.293 4.83,36.282 L4.825,36.048 C4.804,36.038 4.784,36.029 4.768,36.024 L4.768,36.024 Z" id="Fill-13" fill="#36A0CE" sketch:type="MSShapeGroup"></path>
                <path d="M4.768,36.024 C4.686,35.983 4.626,35.933 4.587,35.874 C4.549,35.815 4.528,35.757 4.527,35.697 C4.525,35.616 4.555,35.544 4.613,35.48 C4.67,35.418 4.751,35.385 4.853,35.384 C4.93,35.382 5.023,35.407 5.138,35.459 C5.253,35.511 5.344,35.568 5.409,35.632 C5.573,35.489 5.744,35.37 5.921,35.274 C6.097,35.18 6.277,35.131 6.461,35.127 C6.515,35.126 6.593,35.139 6.695,35.163 C6.799,35.188 6.901,35.227 7.002,35.279 C7.103,35.331 7.191,35.399 7.269,35.484 C7.346,35.57 7.386,35.669 7.388,35.782 C7.39,35.874 7.36,35.948 7.303,36.007 C7.245,36.064 7.172,36.094 7.086,36.096 C7.026,36.097 6.974,36.08 6.927,36.046 C6.88,36.012 6.834,35.974 6.787,35.935 C6.74,35.896 6.691,35.859 6.64,35.828 C6.587,35.797 6.529,35.781 6.465,35.782 C6.389,35.784 6.307,35.809 6.219,35.856 C6.131,35.904 6.043,35.96 5.954,36.027 C5.867,36.094 5.783,36.165 5.703,36.242 C5.624,36.319 5.555,36.389 5.497,36.449 L5.537,38.603 C5.533,38.727 5.499,38.82 5.433,38.884 C5.366,38.946 5.293,38.979 5.212,38.981 C5.136,38.982 5.064,38.955 4.999,38.899 C4.934,38.844 4.892,38.757 4.873,38.639 L4.833,36.428 C4.832,36.417 4.83,36.405 4.828,36.392 C4.825,36.378 4.823,36.366 4.823,36.356 C4.823,36.345 4.824,36.332 4.827,36.319 C4.828,36.306 4.83,36.293 4.83,36.282 L4.825,36.048 C4.804,36.038 4.784,36.029 4.768,36.024 L4.768,36.024 Z" id="Stroke-14" stroke="#FFFFFF" stroke-width="0.25" sketch:type="MSShapeGroup"></path>
                <path d="M10.42,37.791 C10.532,37.746 10.63,37.738 10.712,37.769 C10.794,37.801 10.853,37.851 10.889,37.921 C10.925,37.99 10.932,38.068 10.908,38.154 C10.887,38.242 10.824,38.315 10.723,38.377 C10.546,38.482 10.356,38.581 10.153,38.671 C9.949,38.762 9.743,38.824 9.533,38.86 C9.323,38.896 9.115,38.899 8.909,38.868 C8.703,38.837 8.505,38.758 8.313,38.632 C8.085,38.48 7.908,38.272 7.784,38.006 C7.661,37.74 7.594,37.465 7.584,37.176 C7.572,36.887 7.62,36.608 7.726,36.339 C7.832,36.07 8.002,35.852 8.236,35.686 C8.48,35.514 8.748,35.383 9.038,35.295 C9.328,35.205 9.622,35.19 9.92,35.25 C10.066,35.279 10.199,35.346 10.32,35.448 C10.441,35.552 10.539,35.671 10.614,35.808 C10.689,35.944 10.731,36.089 10.74,36.243 C10.748,36.397 10.713,36.541 10.635,36.678 C10.546,36.831 10.416,36.961 10.245,37.069 C10.074,37.179 9.888,37.271 9.687,37.348 C9.486,37.424 9.285,37.488 9.083,37.541 C8.882,37.593 8.706,37.643 8.556,37.689 C8.491,37.706 8.429,37.71 8.37,37.699 C8.454,37.87 8.576,38.01 8.738,38.118 C8.899,38.226 9.099,38.269 9.336,38.249 C9.523,38.234 9.713,38.179 9.903,38.08 C10.094,37.982 10.266,37.886 10.42,37.791 L10.42,37.791 Z M8.811,36.096 C8.612,36.202 8.466,36.35 8.373,36.538 C8.278,36.725 8.234,36.922 8.238,37.127 C8.274,37.1 8.314,37.077 8.358,37.06 C8.454,37.031 8.553,37.001 8.651,36.969 C8.751,36.939 8.852,36.908 8.954,36.879 C9.018,36.861 9.105,36.836 9.216,36.802 C9.326,36.768 9.439,36.727 9.558,36.682 C9.675,36.636 9.782,36.584 9.879,36.525 C9.975,36.467 10.038,36.402 10.07,36.331 C10.077,36.153 10.031,36.033 9.934,35.97 C9.834,35.907 9.718,35.877 9.583,35.879 C9.448,35.882 9.309,35.907 9.163,35.955 C9.019,36.004 8.9,36.051 8.811,36.096 L8.811,36.096 Z" id="Fill-15" fill="#36A0CE" sketch:type="MSShapeGroup"></path>
                <path d="M10.42,37.791 C10.532,37.746 10.63,37.738 10.712,37.769 C10.794,37.801 10.853,37.851 10.889,37.921 C10.925,37.99 10.932,38.068 10.908,38.154 C10.887,38.242 10.824,38.315 10.723,38.377 C10.546,38.482 10.356,38.581 10.153,38.671 C9.949,38.762 9.743,38.824 9.533,38.86 C9.323,38.896 9.115,38.899 8.909,38.868 C8.703,38.837 8.505,38.758 8.313,38.632 C8.085,38.48 7.908,38.272 7.784,38.006 C7.661,37.74 7.594,37.465 7.584,37.176 C7.572,36.887 7.62,36.608 7.726,36.339 C7.832,36.07 8.002,35.852 8.236,35.686 C8.48,35.514 8.748,35.383 9.038,35.295 C9.328,35.205 9.622,35.19 9.92,35.25 C10.066,35.279 10.199,35.346 10.32,35.448 C10.441,35.552 10.539,35.671 10.614,35.808 C10.689,35.944 10.731,36.089 10.74,36.243 C10.748,36.397 10.713,36.541 10.635,36.678 C10.546,36.831 10.416,36.961 10.245,37.069 C10.074,37.179 9.888,37.271 9.687,37.348 C9.486,37.424 9.285,37.488 9.083,37.541 C8.882,37.593 8.706,37.643 8.556,37.689 C8.491,37.706 8.429,37.71 8.37,37.699 C8.454,37.87 8.576,38.01 8.738,38.118 C8.899,38.226 9.099,38.269 9.336,38.249 C9.523,38.234 9.713,38.179 9.903,38.08 C10.094,37.982 10.266,37.886 10.42,37.791 L10.42,37.791 Z M8.811,36.096 C8.612,36.202 8.466,36.35 8.373,36.538 C8.278,36.725 8.234,36.922 8.238,37.127 C8.274,37.1 8.314,37.077 8.358,37.06 C8.454,37.031 8.553,37.001 8.651,36.969 C8.751,36.939 8.852,36.908 8.954,36.879 C9.018,36.861 9.105,36.836 9.216,36.802 C9.326,36.768 9.439,36.727 9.558,36.682 C9.675,36.636 9.782,36.584 9.879,36.525 C9.975,36.467 10.038,36.402 10.07,36.331 C10.077,36.153 10.031,36.033 9.934,35.97 C9.834,35.907 9.718,35.877 9.583,35.879 C9.448,35.882 9.309,35.907 9.163,35.955 C9.019,36.004 8.9,36.051 8.811,36.096 L8.811,36.096 Z" id="Stroke-16" stroke="#FFFFFF" stroke-width="0.25" sketch:type="MSShapeGroup"></path>
                <path d="M11.512,38.128 C11.461,38.031 11.442,37.944 11.458,37.865 C11.474,37.787 11.505,37.725 11.557,37.678 C11.606,37.631 11.672,37.606 11.753,37.604 C11.834,37.604 11.918,37.632 12.006,37.689 C12.133,37.844 12.281,37.962 12.454,38.045 C12.625,38.129 12.808,38.176 13.003,38.189 L13.172,38.138 C13.214,38.105 13.244,38.082 13.26,38.071 C13.275,38.061 13.287,38.05 13.296,38.042 C13.304,38.034 13.314,38.021 13.327,38.006 C13.341,37.988 13.362,37.959 13.395,37.914 C13.404,37.893 13.413,37.871 13.417,37.85 C13.423,37.828 13.431,37.804 13.44,37.775 C13.439,37.749 13.44,37.725 13.443,37.703 C13.445,37.682 13.446,37.657 13.445,37.63 L13.395,37.485 C13.378,37.464 13.36,37.443 13.341,37.422 C13.321,37.4 13.303,37.38 13.287,37.357 C13.15,37.274 13.014,37.214 12.879,37.18 C12.743,37.144 12.611,37.107 12.483,37.068 C12.356,37.031 12.231,36.98 12.108,36.918 C11.986,36.854 11.869,36.753 11.759,36.608 C11.654,36.481 11.596,36.332 11.585,36.162 C11.573,35.992 11.598,35.828 11.657,35.671 C11.716,35.514 11.805,35.372 11.924,35.249 C12.043,35.125 12.181,35.046 12.336,35.011 C12.563,34.952 12.793,34.943 13.028,34.981 C13.265,35.021 13.485,35.093 13.692,35.196 C13.791,35.265 13.849,35.343 13.867,35.433 C13.886,35.521 13.874,35.598 13.835,35.663 C13.795,35.729 13.734,35.775 13.651,35.805 C13.567,35.833 13.472,35.821 13.363,35.769 C13.232,35.702 13.095,35.658 12.952,35.639 C12.809,35.62 12.664,35.622 12.519,35.647 C12.503,35.658 12.485,35.667 12.467,35.672 C12.447,35.678 12.43,35.686 12.414,35.697 C12.356,35.764 12.314,35.828 12.288,35.89 C12.262,35.953 12.253,36.029 12.26,36.121 C12.266,36.143 12.279,36.176 12.302,36.218 C12.319,36.239 12.336,36.258 12.352,36.273 C12.369,36.289 12.385,36.309 12.401,36.329 C12.532,36.397 12.676,36.449 12.83,36.487 C12.984,36.525 13.135,36.568 13.281,36.617 C13.428,36.665 13.564,36.731 13.69,36.811 C13.815,36.894 13.915,37.014 13.988,37.175 C14.123,37.479 14.148,37.763 14.063,38.024 C13.98,38.284 13.805,38.507 13.538,38.689 C13.469,38.733 13.392,38.772 13.306,38.803 C13.22,38.835 13.139,38.851 13.063,38.853 C12.771,38.857 12.484,38.797 12.201,38.67 C11.919,38.542 11.688,38.362 11.512,38.128 L11.512,38.128 Z" id="Fill-17" fill="#36A0CE" sketch:type="MSShapeGroup"></path>
                <path d="M11.512,38.128 C11.461,38.031 11.442,37.944 11.458,37.865 C11.474,37.787 11.505,37.725 11.557,37.678 C11.606,37.631 11.672,37.606 11.753,37.604 C11.834,37.604 11.918,37.632 12.006,37.689 C12.133,37.844 12.281,37.962 12.454,38.045 C12.625,38.129 12.808,38.176 13.003,38.189 L13.172,38.138 C13.214,38.105 13.244,38.082 13.26,38.071 C13.275,38.061 13.287,38.05 13.296,38.042 C13.304,38.034 13.314,38.021 13.327,38.006 C13.341,37.988 13.362,37.959 13.395,37.914 C13.404,37.893 13.413,37.871 13.417,37.85 C13.423,37.828 13.431,37.804 13.44,37.775 C13.439,37.749 13.44,37.725 13.443,37.703 C13.445,37.682 13.446,37.657 13.445,37.63 L13.395,37.485 C13.378,37.464 13.36,37.443 13.341,37.422 C13.321,37.4 13.303,37.38 13.287,37.357 C13.15,37.274 13.014,37.214 12.879,37.18 C12.743,37.144 12.611,37.107 12.483,37.068 C12.356,37.031 12.231,36.98 12.108,36.918 C11.986,36.854 11.869,36.753 11.759,36.608 C11.654,36.481 11.596,36.332 11.585,36.162 C11.573,35.992 11.598,35.828 11.657,35.671 C11.716,35.514 11.805,35.372 11.924,35.249 C12.043,35.125 12.181,35.046 12.336,35.011 C12.563,34.952 12.793,34.943 13.028,34.981 C13.265,35.021 13.485,35.093 13.692,35.196 C13.791,35.265 13.849,35.343 13.867,35.433 C13.886,35.521 13.874,35.598 13.835,35.663 C13.795,35.729 13.734,35.775 13.651,35.805 C13.567,35.833 13.472,35.821 13.363,35.769 C13.232,35.702 13.095,35.658 12.952,35.639 C12.809,35.62 12.664,35.622 12.519,35.647 C12.503,35.658 12.485,35.667 12.467,35.672 C12.447,35.678 12.43,35.686 12.414,35.697 C12.356,35.764 12.314,35.828 12.288,35.89 C12.262,35.953 12.253,36.029 12.26,36.121 C12.266,36.143 12.279,36.176 12.302,36.218 C12.319,36.239 12.336,36.258 12.352,36.273 C12.369,36.289 12.385,36.309 12.401,36.329 C12.532,36.397 12.676,36.449 12.83,36.487 C12.984,36.525 13.135,36.568 13.281,36.617 C13.428,36.665 13.564,36.731 13.69,36.811 C13.815,36.894 13.915,37.014 13.988,37.175 C14.123,37.479 14.148,37.763 14.063,38.024 C13.98,38.284 13.805,38.507 13.538,38.689 C13.469,38.733 13.392,38.772 13.306,38.803 C13.22,38.835 13.139,38.851 13.063,38.853 C12.771,38.857 12.484,38.797 12.201,38.67 C11.919,38.542 11.688,38.362 11.512,38.128 L11.512,38.128 Z" id="Stroke-18" stroke="#FFFFFF" stroke-width="0.25" sketch:type="MSShapeGroup"></path>
                <path d="M15.514,38.666 C15.449,38.729 15.378,38.762 15.3,38.767 C15.222,38.771 15.148,38.744 15.08,38.689 C15.012,38.634 14.968,38.548 14.95,38.429 L14.867,33.928 C14.887,33.825 14.926,33.746 14.987,33.691 C15.049,33.637 15.113,33.606 15.181,33.603 C15.248,33.599 15.314,33.621 15.38,33.667 C15.446,33.715 15.496,33.79 15.529,33.893 L15.564,35.794 C15.645,35.711 15.72,35.645 15.789,35.595 C15.894,35.517 15.995,35.454 16.088,35.407 C16.182,35.359 16.291,35.321 16.414,35.291 C16.512,35.264 16.609,35.256 16.71,35.27 C16.809,35.284 16.909,35.304 17.006,35.329 C17.169,35.375 17.309,35.451 17.428,35.556 C17.546,35.662 17.646,35.786 17.726,35.928 C17.807,36.069 17.867,36.221 17.908,36.382 C17.949,36.543 17.974,36.699 17.981,36.85 C17.992,37.109 17.998,37.364 18.001,37.615 C18.002,37.866 18.008,38.121 18.019,38.38 C18.015,38.499 17.981,38.59 17.918,38.653 C17.854,38.716 17.783,38.751 17.705,38.754 C17.627,38.759 17.553,38.733 17.484,38.677 C17.416,38.622 17.373,38.535 17.354,38.417 C17.351,38.158 17.346,37.903 17.341,37.652 C17.336,37.401 17.328,37.145 17.319,36.887 C17.31,36.692 17.271,36.519 17.2,36.362 C17.129,36.207 17.009,36.077 16.84,35.973 C16.698,35.937 16.571,35.939 16.459,35.979 C16.347,36.02 16.244,36.079 16.15,36.159 C16.058,36.238 15.973,36.331 15.894,36.436 C15.814,36.539 15.737,36.641 15.663,36.739 C15.653,36.755 15.64,36.772 15.624,36.784 C15.607,36.798 15.595,36.811 15.584,36.822 L15.612,38.393 C15.61,38.512 15.576,38.602 15.514,38.666 L15.514,38.666 Z" id="Fill-19" fill="#36A0CE" sketch:type="MSShapeGroup"></path>
                <path d="M15.514,38.666 C15.449,38.729 15.378,38.762 15.3,38.767 C15.222,38.771 15.148,38.744 15.08,38.689 C15.012,38.634 14.968,38.548 14.95,38.429 L14.867,33.928 C14.887,33.825 14.926,33.746 14.987,33.691 C15.049,33.637 15.113,33.606 15.181,33.603 C15.248,33.599 15.314,33.621 15.38,33.667 C15.446,33.715 15.496,33.79 15.529,33.893 L15.564,35.794 C15.645,35.711 15.72,35.645 15.789,35.595 C15.894,35.517 15.995,35.454 16.088,35.407 C16.182,35.359 16.291,35.321 16.414,35.291 C16.512,35.264 16.609,35.256 16.71,35.27 C16.809,35.284 16.909,35.304 17.006,35.329 C17.169,35.375 17.309,35.451 17.428,35.556 C17.546,35.662 17.646,35.786 17.726,35.928 C17.807,36.069 17.867,36.221 17.908,36.382 C17.949,36.543 17.974,36.699 17.981,36.85 C17.992,37.109 17.998,37.364 18.001,37.615 C18.002,37.866 18.008,38.121 18.019,38.38 C18.015,38.499 17.981,38.59 17.918,38.653 C17.854,38.716 17.783,38.751 17.705,38.754 C17.627,38.759 17.553,38.733 17.484,38.677 C17.416,38.622 17.373,38.535 17.354,38.417 C17.351,38.158 17.346,37.903 17.341,37.652 C17.336,37.401 17.328,37.145 17.319,36.887 C17.31,36.692 17.271,36.519 17.2,36.362 C17.129,36.207 17.009,36.077 16.84,35.973 C16.698,35.937 16.571,35.939 16.459,35.979 C16.347,36.02 16.244,36.079 16.15,36.159 C16.058,36.238 15.973,36.331 15.894,36.436 C15.814,36.539 15.737,36.641 15.663,36.739 C15.653,36.755 15.64,36.772 15.624,36.784 C15.607,36.798 15.595,36.811 15.584,36.822 L15.612,38.393 C15.61,38.512 15.576,38.602 15.514,38.666 L15.514,38.666 Z" id="Stroke-20" stroke="#FFFFFF" stroke-width="0.25" sketch:type="MSShapeGroup"></path>
                <path d="M24.383,37.534 C24.495,37.489 24.593,37.481 24.675,37.512 C24.757,37.544 24.815,37.594 24.851,37.663 C24.888,37.732 24.894,37.811 24.871,37.897 C24.85,37.984 24.787,38.058 24.686,38.119 C24.509,38.226 24.319,38.323 24.116,38.413 C23.912,38.504 23.706,38.567 23.496,38.604 C23.286,38.64 23.078,38.643 22.872,38.611 C22.666,38.58 22.468,38.5 22.276,38.375 C22.047,38.223 21.87,38.014 21.746,37.749 C21.623,37.483 21.556,37.207 21.546,36.918 C21.534,36.629 21.582,36.351 21.687,36.081 C21.794,35.812 21.964,35.595 22.198,35.428 C22.443,35.257 22.711,35.126 23.001,35.037 C23.291,34.948 23.585,34.933 23.883,34.992 C24.029,35.022 24.162,35.088 24.283,35.191 C24.404,35.295 24.502,35.414 24.577,35.55 C24.652,35.686 24.694,35.831 24.703,35.985 C24.711,36.139 24.676,36.284 24.598,36.42 C24.509,36.573 24.379,36.704 24.208,36.813 C24.037,36.921 23.851,37.014 23.65,37.09 C23.449,37.166 23.248,37.23 23.046,37.283 C22.845,37.336 22.669,37.385 22.519,37.431 C22.454,37.448 22.392,37.452 22.333,37.441 C22.417,37.613 22.539,37.753 22.701,37.861 C22.862,37.969 23.061,38.012 23.299,37.991 C23.486,37.977 23.676,37.921 23.866,37.823 C24.057,37.725 24.229,37.629 24.383,37.534 L24.383,37.534 Z M22.773,35.839 C22.575,35.944 22.429,36.092 22.336,36.28 C22.241,36.468 22.196,36.665 22.2,36.87 C22.237,36.842 22.277,36.819 22.321,36.802 C22.417,36.774 22.516,36.744 22.614,36.712 C22.714,36.681 22.814,36.65 22.917,36.621 C22.98,36.605 23.068,36.578 23.179,36.544 C23.289,36.51 23.402,36.47 23.52,36.425 C23.638,36.378 23.745,36.326 23.842,36.269 C23.937,36.21 24.001,36.146 24.033,36.074 C24.04,35.896 23.994,35.776 23.896,35.712 C23.797,35.649 23.681,35.619 23.546,35.622 C23.411,35.624 23.271,35.649 23.126,35.698 C22.981,35.747 22.863,35.794 22.773,35.839 L22.773,35.839 Z" id="Fill-21" fill="#36A0CE" sketch:type="MSShapeGroup"></path>
                <path d="M24.383,37.534 C24.495,37.489 24.593,37.481 24.675,37.512 C24.757,37.544 24.815,37.594 24.851,37.663 C24.888,37.732 24.894,37.811 24.871,37.897 C24.85,37.984 24.787,38.058 24.686,38.119 C24.509,38.226 24.319,38.323 24.116,38.413 C23.912,38.504 23.706,38.567 23.496,38.604 C23.286,38.64 23.078,38.643 22.872,38.611 C22.666,38.58 22.468,38.5 22.276,38.375 C22.047,38.223 21.87,38.014 21.746,37.749 C21.623,37.483 21.556,37.207 21.546,36.918 C21.534,36.629 21.582,36.351 21.687,36.081 C21.794,35.812 21.964,35.595 22.198,35.428 C22.443,35.257 22.711,35.126 23.001,35.037 C23.291,34.948 23.585,34.933 23.883,34.992 C24.029,35.022 24.162,35.088 24.283,35.191 C24.404,35.295 24.502,35.414 24.577,35.55 C24.652,35.686 24.694,35.831 24.703,35.985 C24.711,36.139 24.676,36.284 24.598,36.42 C24.509,36.573 24.379,36.704 24.208,36.813 C24.037,36.921 23.851,37.014 23.65,37.09 C23.449,37.166 23.248,37.23 23.046,37.283 C22.845,37.336 22.669,37.385 22.519,37.431 C22.454,37.448 22.392,37.452 22.333,37.441 C22.417,37.613 22.539,37.753 22.701,37.861 C22.862,37.969 23.061,38.012 23.299,37.991 C23.486,37.977 23.676,37.921 23.866,37.823 C24.057,37.725 24.229,37.629 24.383,37.534 L24.383,37.534 Z M22.773,35.839 C22.575,35.944 22.429,36.092 22.336,36.28 C22.241,36.468 22.196,36.665 22.2,36.87 C22.237,36.842 22.277,36.819 22.321,36.802 C22.417,36.774 22.516,36.744 22.614,36.712 C22.714,36.681 22.814,36.65 22.917,36.621 C22.98,36.605 23.068,36.578 23.179,36.544 C23.289,36.51 23.402,36.47 23.52,36.425 C23.638,36.378 23.745,36.326 23.842,36.269 C23.937,36.21 24.001,36.146 24.033,36.074 C24.04,35.896 23.994,35.776 23.896,35.712 C23.797,35.649 23.681,35.619 23.546,35.622 C23.411,35.624 23.271,35.649 23.126,35.698 C22.981,35.747 22.863,35.794 22.773,35.839 L22.773,35.839 Z" id="Stroke-22" stroke="#FFFFFF" stroke-width="0.25" sketch:type="MSShapeGroup"></path>
                <path d="M27.511,35.03 C27.563,34.938 27.625,34.876 27.698,34.845 C27.771,34.813 27.84,34.808 27.908,34.824 C27.977,34.843 28.034,34.885 28.081,34.951 C28.128,35.018 28.149,35.103 28.146,35.205 C28.075,35.497 27.994,35.784 27.898,36.064 C27.804,36.344 27.71,36.625 27.619,36.908 C27.531,37.168 27.445,37.425 27.361,37.678 C27.277,37.93 27.183,38.182 27.079,38.432 C26.984,38.553 26.877,38.606 26.759,38.592 C26.64,38.578 26.546,38.503 26.479,38.37 C26.275,37.86 26.068,37.357 25.856,36.859 C25.644,36.361 25.411,35.871 25.153,35.391 C25.098,35.283 25.082,35.187 25.108,35.103 C25.134,35.02 25.179,34.956 25.242,34.915 C25.306,34.872 25.383,34.859 25.471,34.873 C25.56,34.889 25.642,34.943 25.714,35.039 C25.909,35.413 26.095,35.794 26.269,36.18 C26.443,36.565 26.612,36.956 26.776,37.353 C26.813,37.249 26.847,37.145 26.88,37.043 C26.913,36.939 26.947,36.836 26.983,36.732 C27.076,36.451 27.167,36.17 27.26,35.89 C27.352,35.609 27.435,35.323 27.511,35.03 L27.511,35.03 Z" id="Fill-23" fill="#36A0CE" sketch:type="MSShapeGroup"></path>
                <path d="M27.511,35.03 C27.563,34.938 27.625,34.876 27.698,34.845 C27.771,34.813 27.84,34.808 27.908,34.824 C27.977,34.843 28.034,34.885 28.081,34.951 C28.128,35.018 28.149,35.103 28.146,35.205 C28.075,35.497 27.994,35.784 27.898,36.064 C27.804,36.344 27.71,36.625 27.619,36.908 C27.531,37.168 27.445,37.425 27.361,37.678 C27.277,37.93 27.183,38.182 27.079,38.432 C26.984,38.553 26.877,38.606 26.759,38.592 C26.64,38.578 26.546,38.503 26.479,38.37 C26.275,37.86 26.068,37.357 25.856,36.859 C25.644,36.361 25.411,35.871 25.153,35.391 C25.098,35.283 25.082,35.187 25.108,35.103 C25.134,35.02 25.179,34.956 25.242,34.915 C25.306,34.872 25.383,34.859 25.471,34.873 C25.56,34.889 25.642,34.943 25.714,35.039 C25.909,35.413 26.095,35.794 26.269,36.18 C26.443,36.565 26.612,36.956 26.776,37.353 C26.813,37.249 26.847,37.145 26.88,37.043 C26.913,36.939 26.947,36.836 26.983,36.732 C27.076,36.451 27.167,36.17 27.26,35.89 C27.352,35.609 27.435,35.323 27.511,35.03 L27.511,35.03 Z" id="Stroke-24" stroke="#FFFFFF" stroke-width="0.25" sketch:type="MSShapeGroup"></path>
                <path d="M31.546,37.402 C31.658,37.356 31.756,37.35 31.838,37.38 C31.92,37.412 31.978,37.461 32.015,37.531 C32.051,37.601 32.058,37.679 32.034,37.766 C32.013,37.853 31.95,37.926 31.849,37.987 C31.672,38.093 31.482,38.191 31.279,38.281 C31.076,38.372 30.87,38.436 30.66,38.472 C30.45,38.508 30.242,38.511 30.036,38.478 C29.83,38.447 29.632,38.368 29.44,38.243 C29.211,38.091 29.034,37.882 28.91,37.616 C28.787,37.352 28.72,37.075 28.71,36.786 C28.698,36.497 28.746,36.219 28.852,35.949 C28.958,35.681 29.128,35.463 29.362,35.296 C29.607,35.124 29.875,34.993 30.165,34.905 C30.455,34.815 30.749,34.801 31.047,34.86 C31.193,34.89 31.325,34.956 31.446,35.06 C31.567,35.162 31.665,35.282 31.74,35.418 C31.815,35.555 31.857,35.699 31.866,35.853 C31.874,36.007 31.839,36.152 31.761,36.288 C31.672,36.441 31.542,36.571 31.371,36.681 C31.201,36.789 31.015,36.881 30.814,36.958 C30.613,37.034 30.412,37.099 30.21,37.151 C30.009,37.204 29.833,37.253 29.683,37.299 C29.618,37.316 29.556,37.32 29.497,37.31 C29.581,37.481 29.703,37.62 29.865,37.728 C30.026,37.836 30.226,37.88 30.463,37.859 C30.65,37.846 30.84,37.789 31.03,37.69 C31.221,37.593 31.392,37.497 31.546,37.402 L31.546,37.402 Z M29.937,35.706 C29.739,35.812 29.593,35.96 29.5,36.148 C29.405,36.336 29.36,36.533 29.364,36.738 C29.401,36.71 29.441,36.688 29.485,36.67 C29.581,36.642 29.68,36.612 29.778,36.58 C29.878,36.549 29.978,36.519 30.081,36.489 C30.144,36.473 30.232,36.446 30.343,36.412 C30.453,36.378 30.566,36.338 30.684,36.292 C30.802,36.246 30.909,36.194 31.006,36.136 C31.102,36.078 31.165,36.013 31.197,35.942 C31.204,35.764 31.158,35.644 31.061,35.58 C30.961,35.518 30.845,35.487 30.71,35.49 C30.575,35.492 30.435,35.518 30.29,35.566 C30.145,35.614 30.027,35.662 29.937,35.706 L29.937,35.706 Z" id="Fill-25" fill="#36A0CE" sketch:type="MSShapeGroup"></path>
                <path d="M31.546,37.402 C31.658,37.356 31.756,37.35 31.838,37.38 C31.92,37.412 31.978,37.461 32.015,37.531 C32.051,37.601 32.058,37.679 32.034,37.766 C32.013,37.853 31.95,37.926 31.849,37.987 C31.672,38.093 31.482,38.191 31.279,38.281 C31.076,38.372 30.87,38.436 30.66,38.472 C30.45,38.508 30.242,38.511 30.036,38.478 C29.83,38.447 29.632,38.368 29.44,38.243 C29.211,38.091 29.034,37.882 28.91,37.616 C28.787,37.352 28.72,37.075 28.71,36.786 C28.698,36.497 28.746,36.219 28.852,35.949 C28.958,35.681 29.128,35.463 29.362,35.296 C29.607,35.124 29.875,34.993 30.165,34.905 C30.455,34.815 30.749,34.801 31.047,34.86 C31.193,34.89 31.325,34.956 31.446,35.06 C31.567,35.162 31.665,35.282 31.74,35.418 C31.815,35.555 31.857,35.699 31.866,35.853 C31.874,36.007 31.839,36.152 31.761,36.288 C31.672,36.441 31.542,36.571 31.371,36.681 C31.201,36.789 31.015,36.881 30.814,36.958 C30.613,37.034 30.412,37.099 30.21,37.151 C30.009,37.204 29.833,37.253 29.683,37.299 C29.618,37.316 29.556,37.32 29.497,37.31 C29.581,37.481 29.703,37.62 29.865,37.728 C30.026,37.836 30.226,37.88 30.463,37.859 C30.65,37.846 30.84,37.789 31.03,37.69 C31.221,37.593 31.392,37.497 31.546,37.402 L31.546,37.402 Z M29.937,35.706 C29.739,35.812 29.593,35.96 29.5,36.148 C29.405,36.336 29.36,36.533 29.364,36.738 C29.401,36.71 29.441,36.688 29.485,36.67 C29.581,36.642 29.68,36.612 29.778,36.58 C29.878,36.549 29.978,36.519 30.081,36.489 C30.144,36.473 30.232,36.446 30.343,36.412 C30.453,36.378 30.566,36.338 30.684,36.292 C30.802,36.246 30.909,36.194 31.006,36.136 C31.102,36.078 31.165,36.013 31.197,35.942 C31.204,35.764 31.158,35.644 31.061,35.58 C30.961,35.518 30.845,35.487 30.71,35.49 C30.575,35.492 30.435,35.518 30.29,35.566 C30.145,35.614 30.027,35.662 29.937,35.706 L29.937,35.706 Z" id="Stroke-26" stroke="#FFFFFF" stroke-width="0.25" sketch:type="MSShapeGroup"></path>
                <path d="M32.953,35.505 C32.871,35.464 32.811,35.413 32.771,35.354 C32.733,35.296 32.713,35.237 32.712,35.178 C32.71,35.097 32.739,35.024 32.798,34.961 C32.854,34.898 32.936,34.865 33.038,34.864 C33.114,34.862 33.208,34.888 33.322,34.939 C33.437,34.991 33.528,35.049 33.594,35.112 C33.758,34.97 33.929,34.851 34.105,34.755 C34.281,34.66 34.462,34.611 34.645,34.607 C34.699,34.606 34.777,34.619 34.88,34.644 C34.983,34.669 35.086,34.707 35.186,34.76 C35.288,34.812 35.376,34.88 35.454,34.965 C35.53,35.051 35.57,35.149 35.572,35.263 C35.574,35.354 35.545,35.429 35.487,35.487 C35.43,35.545 35.356,35.574 35.271,35.576 C35.211,35.577 35.158,35.561 35.111,35.526 C35.064,35.492 35.019,35.454 34.972,35.415 C34.925,35.376 34.875,35.34 34.824,35.309 C34.771,35.277 34.714,35.262 34.649,35.263 C34.573,35.265 34.491,35.289 34.403,35.337 C34.315,35.385 34.228,35.44 34.139,35.508 C34.052,35.574 33.968,35.645 33.888,35.723 C33.809,35.8 33.739,35.869 33.682,35.93 L33.722,38.083 C33.718,38.207 33.684,38.301 33.617,38.364 C33.551,38.427 33.478,38.46 33.396,38.461 C33.32,38.463 33.249,38.436 33.184,38.38 C33.118,38.324 33.076,38.237 33.058,38.119 L33.018,35.908 C33.017,35.897 33.015,35.886 33.013,35.872 C33.01,35.858 33.008,35.847 33.008,35.836 C33.008,35.825 33.009,35.812 33.012,35.8 C33.013,35.786 33.015,35.773 33.015,35.763 L33.01,35.528 C32.988,35.519 32.969,35.51 32.953,35.505 L32.953,35.505 Z" id="Fill-27" fill="#36A0CE" sketch:type="MSShapeGroup"></path>
                <path d="M32.953,35.505 C32.871,35.464 32.811,35.413 32.771,35.354 C32.733,35.296 32.713,35.237 32.712,35.178 C32.71,35.097 32.739,35.024 32.798,34.961 C32.854,34.898 32.936,34.865 33.038,34.864 C33.114,34.862 33.208,34.888 33.322,34.939 C33.437,34.991 33.528,35.049 33.594,35.112 C33.758,34.97 33.929,34.851 34.105,34.755 C34.281,34.66 34.462,34.611 34.645,34.607 C34.699,34.606 34.777,34.619 34.88,34.644 C34.983,34.669 35.086,34.707 35.186,34.76 C35.288,34.812 35.376,34.88 35.454,34.965 C35.53,35.051 35.57,35.149 35.572,35.263 C35.574,35.354 35.545,35.429 35.487,35.487 C35.43,35.545 35.356,35.574 35.271,35.576 C35.211,35.577 35.158,35.561 35.111,35.526 C35.064,35.492 35.019,35.454 34.972,35.415 C34.925,35.376 34.875,35.34 34.824,35.309 C34.771,35.277 34.714,35.262 34.649,35.263 C34.573,35.265 34.491,35.289 34.403,35.337 C34.315,35.385 34.228,35.44 34.139,35.508 C34.052,35.574 33.968,35.645 33.888,35.723 C33.809,35.8 33.739,35.869 33.682,35.93 L33.722,38.083 C33.718,38.207 33.684,38.301 33.617,38.364 C33.551,38.427 33.478,38.46 33.396,38.461 C33.32,38.463 33.249,38.436 33.184,38.38 C33.118,38.324 33.076,38.237 33.058,38.119 L33.018,35.908 C33.017,35.897 33.015,35.886 33.013,35.872 C33.01,35.858 33.008,35.847 33.008,35.836 C33.008,35.825 33.009,35.812 33.012,35.8 C33.013,35.786 33.015,35.773 33.015,35.763 L33.01,35.528 C32.988,35.519 32.969,35.51 32.953,35.505 L32.953,35.505 Z" id="Stroke-28" stroke="#FFFFFF" stroke-width="0.25" sketch:type="MSShapeGroup"></path>
                <path d="M38.892,34.748 C38.933,34.671 38.98,34.616 39.034,34.583 C39.087,34.55 39.144,34.532 39.203,34.531 C39.295,34.529 39.37,34.563 39.432,34.633 C39.492,34.702 39.523,34.798 39.525,34.922 C39.42,35.361 39.285,35.788 39.12,36.201 C38.955,36.615 38.774,37.021 38.576,37.418 C38.377,37.816 38.169,38.21 37.949,38.6 C37.729,38.989 37.517,39.385 37.308,39.782 C37.265,39.842 37.217,39.884 37.164,39.909 C37.11,39.935 37.059,39.947 37.012,39.948 C36.931,39.95 36.86,39.922 36.8,39.863 C36.738,39.806 36.708,39.723 36.706,39.615 C36.705,39.599 36.705,39.581 36.705,39.562 C36.704,39.543 36.707,39.523 36.712,39.502 C36.884,39.17 37.061,38.842 37.243,38.519 C37.426,38.198 37.603,37.873 37.776,37.546 C37.558,37.377 37.36,37.205 37.184,37.026 C37.008,36.849 36.85,36.66 36.708,36.461 C36.566,36.26 36.442,36.045 36.336,35.812 C36.229,35.579 36.136,35.325 36.055,35.052 C36.053,34.911 36.079,34.804 36.134,34.73 C36.189,34.656 36.266,34.618 36.362,34.616 C36.433,34.614 36.5,34.637 36.562,34.682 C36.626,34.727 36.671,34.8 36.7,34.901 C36.764,35.127 36.839,35.335 36.927,35.524 C37.012,35.716 37.113,35.892 37.226,36.054 C37.34,36.217 37.468,36.371 37.607,36.517 C37.747,36.662 37.902,36.804 38.073,36.941 C38.244,36.588 38.401,36.231 38.543,35.872 C38.685,35.513 38.801,35.139 38.892,34.748 L38.892,34.748 Z" id="Fill-29" fill="#36A0CE" sketch:type="MSShapeGroup"></path>
                <path d="M38.892,34.748 C38.933,34.671 38.98,34.616 39.034,34.583 C39.087,34.55 39.144,34.532 39.203,34.531 C39.295,34.529 39.37,34.563 39.432,34.633 C39.492,34.702 39.523,34.798 39.525,34.922 C39.42,35.361 39.285,35.788 39.12,36.201 C38.955,36.615 38.774,37.021 38.576,37.418 C38.377,37.816 38.169,38.21 37.949,38.6 C37.729,38.989 37.517,39.385 37.308,39.782 C37.265,39.842 37.217,39.884 37.164,39.909 C37.11,39.935 37.059,39.947 37.012,39.948 C36.931,39.95 36.86,39.922 36.8,39.863 C36.738,39.806 36.708,39.723 36.706,39.615 C36.705,39.599 36.705,39.581 36.705,39.562 C36.704,39.543 36.707,39.523 36.712,39.502 C36.884,39.17 37.061,38.842 37.243,38.519 C37.426,38.198 37.603,37.873 37.776,37.546 C37.558,37.377 37.36,37.205 37.184,37.026 C37.008,36.849 36.85,36.66 36.708,36.461 C36.566,36.26 36.442,36.045 36.336,35.812 C36.229,35.579 36.136,35.325 36.055,35.052 C36.053,34.911 36.079,34.804 36.134,34.73 C36.189,34.656 36.266,34.618 36.362,34.616 C36.433,34.614 36.5,34.637 36.562,34.682 C36.626,34.727 36.671,34.8 36.7,34.901 C36.764,35.127 36.839,35.335 36.927,35.524 C37.012,35.716 37.113,35.892 37.226,36.054 C37.34,36.217 37.468,36.371 37.607,36.517 C37.747,36.662 37.902,36.804 38.073,36.941 C38.244,36.588 38.401,36.231 38.543,35.872 C38.685,35.513 38.801,35.139 38.892,34.748 L38.892,34.748 Z" id="Stroke-30" stroke="#FFFFFF" stroke-width="0.25" sketch:type="MSShapeGroup"></path>
                <path d="M43.097,37.561 C43.169,37.657 43.199,37.75 43.187,37.839 C43.175,37.929 43.142,37.999 43.086,38.052 C43.029,38.105 42.957,38.13 42.868,38.129 C42.779,38.128 42.691,38.085 42.604,38 C42.576,37.974 42.551,37.945 42.529,37.917 C42.507,37.887 42.49,37.858 42.478,37.832 C42.32,37.976 42.135,38.088 41.922,38.17 C41.711,38.252 41.496,38.296 41.277,38.3 C41.059,38.304 40.849,38.263 40.646,38.178 C40.445,38.093 40.276,37.956 40.137,37.771 C40.031,37.627 39.954,37.465 39.906,37.284 C39.856,37.104 39.83,36.921 39.827,36.735 C39.823,36.549 39.843,36.365 39.886,36.184 C39.928,36.002 39.983,35.832 40.051,35.675 C40.112,35.532 40.203,35.404 40.322,35.288 C40.441,35.173 40.568,35.079 40.702,35.006 C40.825,34.934 40.963,34.873 41.116,34.824 C41.269,34.775 41.416,34.747 41.555,34.739 C41.685,34.736 41.815,34.737 41.944,34.739 C42.074,34.743 42.201,34.763 42.326,34.798 C42.313,34.409 42.303,34.081 42.296,33.815 C42.288,33.549 42.283,33.369 42.281,33.277 C42.301,33.174 42.342,33.095 42.403,33.04 C42.464,32.985 42.528,32.956 42.596,32.952 C42.663,32.947 42.728,32.969 42.794,33.017 C42.859,33.064 42.91,33.139 42.944,33.24 L43.022,37.474 C43.033,37.49 43.046,37.505 43.059,37.518 C43.073,37.531 43.086,37.546 43.097,37.561 L43.097,37.561 Z M42.374,36.991 L42.372,36.878 C42.368,36.679 42.364,36.459 42.36,36.219 C42.355,35.979 42.349,35.75 42.34,35.534 L42.29,35.511 C42.274,35.501 42.259,35.49 42.246,35.48 C42.232,35.469 42.217,35.459 42.2,35.448 C42.037,35.402 41.867,35.384 41.689,35.394 C41.511,35.401 41.345,35.439 41.189,35.503 C41.033,35.568 40.896,35.662 40.777,35.782 C40.657,35.903 40.575,36.056 40.53,36.24 C40.49,36.408 40.477,36.555 40.49,36.679 C40.503,36.802 40.521,36.947 40.547,37.115 C40.569,37.157 40.59,37.2 40.609,37.243 C40.629,37.286 40.65,37.329 40.673,37.371 L40.838,37.53 C40.902,37.551 40.966,37.577 41.024,37.608 C41.241,37.626 41.44,37.611 41.62,37.565 C41.8,37.518 41.972,37.421 42.137,37.271 C42.142,37.261 42.153,37.245 42.173,37.227 C42.19,37.207 42.211,37.186 42.232,37.165 C42.253,37.143 42.273,37.122 42.291,37.103 C42.309,37.083 42.322,37.071 42.327,37.065 L42.374,36.991 L42.374,36.991 Z" id="Fill-31" fill="#36A0CE" sketch:type="MSShapeGroup"></path>
                <path d="M43.097,37.561 C43.169,37.657 43.199,37.75 43.187,37.839 C43.175,37.929 43.142,37.999 43.086,38.052 C43.029,38.105 42.957,38.13 42.868,38.129 C42.779,38.128 42.691,38.085 42.604,38 C42.576,37.974 42.551,37.945 42.529,37.917 C42.507,37.887 42.49,37.858 42.478,37.832 C42.32,37.976 42.135,38.088 41.922,38.17 C41.711,38.252 41.496,38.296 41.277,38.3 C41.059,38.304 40.849,38.263 40.646,38.178 C40.445,38.093 40.276,37.956 40.137,37.771 C40.031,37.627 39.954,37.465 39.906,37.284 C39.856,37.104 39.83,36.921 39.827,36.735 C39.823,36.549 39.843,36.365 39.886,36.184 C39.928,36.002 39.983,35.832 40.051,35.675 C40.112,35.532 40.203,35.404 40.322,35.288 C40.441,35.173 40.568,35.079 40.702,35.006 C40.825,34.934 40.963,34.873 41.116,34.824 C41.269,34.775 41.416,34.747 41.555,34.739 C41.685,34.736 41.815,34.737 41.944,34.739 C42.074,34.743 42.201,34.763 42.326,34.798 C42.313,34.409 42.303,34.081 42.296,33.815 C42.288,33.549 42.283,33.369 42.281,33.277 C42.301,33.174 42.342,33.095 42.403,33.04 C42.464,32.985 42.528,32.956 42.596,32.952 C42.663,32.947 42.728,32.969 42.794,33.017 C42.859,33.064 42.91,33.139 42.944,33.24 L43.022,37.474 C43.033,37.49 43.046,37.505 43.059,37.518 C43.073,37.531 43.086,37.546 43.097,37.561 L43.097,37.561 Z M42.374,36.991 L42.372,36.878 C42.368,36.679 42.364,36.459 42.36,36.219 C42.355,35.979 42.349,35.75 42.34,35.534 L42.29,35.511 C42.274,35.501 42.259,35.49 42.246,35.48 C42.232,35.469 42.217,35.459 42.2,35.448 C42.037,35.402 41.867,35.384 41.689,35.394 C41.511,35.401 41.345,35.439 41.189,35.503 C41.033,35.568 40.896,35.662 40.777,35.782 C40.657,35.903 40.575,36.056 40.53,36.24 C40.49,36.408 40.477,36.555 40.49,36.679 C40.503,36.802 40.521,36.947 40.547,37.115 C40.569,37.157 40.59,37.2 40.609,37.243 C40.629,37.286 40.65,37.329 40.673,37.371 L40.838,37.53 C40.902,37.551 40.966,37.577 41.024,37.608 C41.241,37.626 41.44,37.611 41.62,37.565 C41.8,37.518 41.972,37.421 42.137,37.271 C42.142,37.261 42.153,37.245 42.173,37.227 C42.19,37.207 42.211,37.186 42.232,37.165 C42.253,37.143 42.273,37.122 42.291,37.103 C42.309,37.083 42.322,37.071 42.327,37.065 L42.374,36.991 L42.374,36.991 Z" id="Stroke-32" stroke="#FFFFFF" stroke-width="0.25" sketch:type="MSShapeGroup"></path>
                <path d="M47.206,37.713 C47.206,37.718 47.203,37.721 47.198,37.721 C47.231,37.796 47.24,37.866 47.227,37.931 C47.211,37.996 47.181,38.05 47.136,38.091 C47.09,38.132 47.031,38.159 46.959,38.171 C46.886,38.183 46.807,38.168 46.719,38.127 C46.67,38.078 46.623,38.026 46.578,37.971 C46.534,37.915 46.495,37.858 46.462,37.799 C46.356,37.893 46.241,37.98 46.119,38.061 C45.996,38.141 45.872,38.186 45.748,38.193 C45.532,38.208 45.319,38.215 45.108,38.213 C44.898,38.211 44.697,38.146 44.506,38.014 C44.348,37.902 44.226,37.769 44.139,37.615 C44.052,37.461 43.995,37.296 43.967,37.12 C43.939,36.946 43.938,36.767 43.961,36.582 C43.985,36.398 44.027,36.222 44.089,36.053 C44.115,35.978 44.148,35.903 44.19,35.832 C44.232,35.762 44.273,35.688 44.316,35.611 C44.374,35.503 44.439,35.4 44.513,35.304 C44.586,35.209 44.672,35.124 44.768,35.052 C44.837,35.003 44.905,34.953 44.972,34.902 C45.038,34.854 45.105,34.807 45.175,34.762 C45.224,34.728 45.297,34.693 45.396,34.656 C45.495,34.619 45.602,34.587 45.719,34.561 C45.834,34.535 45.949,34.52 46.065,34.519 C46.182,34.516 46.28,34.531 46.362,34.561 C46.437,34.55 46.512,34.566 46.586,34.614 C46.659,34.661 46.716,34.738 46.756,34.846 C46.763,35.213 46.767,35.583 46.768,35.955 C46.77,36.328 46.801,36.697 46.861,37.062 C46.868,37.111 46.889,37.169 46.925,37.235 C46.962,37.303 47.001,37.368 47.042,37.432 C47.084,37.496 47.122,37.556 47.155,37.608 C47.188,37.662 47.205,37.696 47.206,37.713 L47.206,37.713 Z M46.167,37.173 C46.178,37.167 46.185,37.161 46.191,37.156 C46.196,37.15 46.205,37.145 46.215,37.14 C46.139,36.817 46.099,36.482 46.095,36.134 C46.092,35.786 46.09,35.465 46.09,35.174 C46.041,35.175 45.987,35.181 45.929,35.192 C45.869,35.205 45.812,35.222 45.755,35.241 C45.699,35.261 45.647,35.279 45.602,35.297 C45.557,35.313 45.522,35.327 45.501,35.339 C45.342,35.418 45.205,35.518 45.095,35.642 C44.983,35.765 44.893,35.901 44.822,36.052 C44.752,36.201 44.699,36.359 44.665,36.524 C44.63,36.689 44.615,36.856 44.618,37.023 C44.629,37.066 44.644,37.109 44.66,37.152 C44.678,37.195 44.691,37.238 44.704,37.28 C44.73,37.308 44.76,37.336 44.79,37.369 C44.82,37.4 44.852,37.43 44.885,37.456 C44.934,37.477 44.982,37.494 45.031,37.51 C45.08,37.524 45.13,37.54 45.178,37.556 C45.27,37.555 45.358,37.555 45.445,37.559 C45.531,37.563 45.618,37.55 45.703,37.522 C45.783,37.466 45.862,37.41 45.939,37.355 C46.017,37.301 46.093,37.239 46.167,37.173 L46.167,37.173 Z" id="Fill-33" fill="#36A0CE" sketch:type="MSShapeGroup"></path>
                <path d="M47.206,37.713 C47.206,37.718 47.203,37.721 47.198,37.721 C47.231,37.796 47.24,37.866 47.227,37.931 C47.211,37.996 47.181,38.05 47.136,38.091 C47.09,38.132 47.031,38.159 46.959,38.171 C46.886,38.183 46.807,38.168 46.719,38.127 C46.67,38.078 46.623,38.026 46.578,37.971 C46.534,37.915 46.495,37.858 46.462,37.799 C46.356,37.893 46.241,37.98 46.119,38.061 C45.996,38.141 45.872,38.186 45.748,38.193 C45.532,38.208 45.319,38.215 45.108,38.213 C44.898,38.211 44.697,38.146 44.506,38.014 C44.348,37.902 44.226,37.769 44.139,37.615 C44.052,37.461 43.995,37.296 43.967,37.12 C43.939,36.946 43.938,36.767 43.961,36.582 C43.985,36.398 44.027,36.222 44.089,36.053 C44.115,35.978 44.148,35.903 44.19,35.832 C44.232,35.762 44.273,35.688 44.316,35.611 C44.374,35.503 44.439,35.4 44.513,35.304 C44.586,35.209 44.672,35.124 44.768,35.052 C44.837,35.003 44.905,34.953 44.972,34.902 C45.038,34.854 45.105,34.807 45.175,34.762 C45.224,34.728 45.297,34.693 45.396,34.656 C45.495,34.619 45.602,34.587 45.719,34.561 C45.834,34.535 45.949,34.52 46.065,34.519 C46.182,34.516 46.28,34.531 46.362,34.561 C46.437,34.55 46.512,34.566 46.586,34.614 C46.659,34.661 46.716,34.738 46.756,34.846 C46.763,35.213 46.767,35.583 46.768,35.955 C46.77,36.328 46.801,36.697 46.861,37.062 C46.868,37.111 46.889,37.169 46.925,37.235 C46.962,37.303 47.001,37.368 47.042,37.432 C47.084,37.496 47.122,37.556 47.155,37.608 C47.188,37.662 47.205,37.696 47.206,37.713 L47.206,37.713 Z M46.167,37.173 C46.178,37.167 46.185,37.161 46.191,37.156 C46.196,37.15 46.205,37.145 46.215,37.14 C46.139,36.817 46.099,36.482 46.095,36.134 C46.092,35.786 46.09,35.465 46.09,35.174 C46.041,35.175 45.987,35.181 45.929,35.192 C45.869,35.205 45.812,35.222 45.755,35.241 C45.699,35.261 45.647,35.279 45.602,35.297 C45.557,35.313 45.522,35.327 45.501,35.339 C45.342,35.418 45.205,35.518 45.095,35.642 C44.983,35.765 44.893,35.901 44.822,36.052 C44.752,36.201 44.699,36.359 44.665,36.524 C44.63,36.689 44.615,36.856 44.618,37.023 C44.629,37.066 44.644,37.109 44.66,37.152 C44.678,37.195 44.691,37.238 44.704,37.28 C44.73,37.308 44.76,37.336 44.79,37.369 C44.82,37.4 44.852,37.43 44.885,37.456 C44.934,37.477 44.982,37.494 45.031,37.51 C45.08,37.524 45.13,37.54 45.178,37.556 C45.27,37.555 45.358,37.555 45.445,37.559 C45.531,37.563 45.618,37.55 45.703,37.522 C45.783,37.466 45.862,37.41 45.939,37.355 C46.017,37.301 46.093,37.239 46.167,37.173 L46.167,37.173 Z" id="Stroke-34" stroke="#FFFFFF" stroke-width="0.25" sketch:type="MSShapeGroup"></path>
                <path d="M50.516,34.534 C50.557,34.457 50.604,34.402 50.658,34.369 C50.711,34.336 50.768,34.318 50.827,34.317 C50.919,34.315 50.994,34.35 51.056,34.418 C51.116,34.487 51.147,34.584 51.149,34.708 C51.045,35.147 50.91,35.574 50.744,35.987 C50.579,36.4 50.398,36.807 50.2,37.204 C50.001,37.602 49.793,37.996 49.573,38.386 C49.354,38.775 49.141,39.17 48.932,39.567 C48.889,39.627 48.841,39.67 48.788,39.695 C48.734,39.721 48.684,39.733 48.635,39.734 C48.554,39.735 48.484,39.708 48.424,39.649 C48.362,39.592 48.332,39.509 48.33,39.401 C48.329,39.385 48.329,39.367 48.329,39.349 C48.328,39.329 48.331,39.31 48.336,39.287 C48.508,38.955 48.684,38.628 48.867,38.306 C49.05,37.984 49.228,37.659 49.4,37.332 C49.182,37.163 48.984,36.99 48.808,36.813 C48.632,36.635 48.474,36.446 48.332,36.246 C48.19,36.046 48.066,35.83 47.96,35.597 C47.852,35.364 47.76,35.111 47.679,34.837 C47.677,34.696 47.703,34.59 47.758,34.516 C47.813,34.442 47.89,34.403 47.986,34.401 C48.057,34.4 48.124,34.423 48.186,34.468 C48.25,34.512 48.295,34.586 48.324,34.687 C48.388,34.913 48.462,35.121 48.55,35.311 C48.636,35.501 48.737,35.678 48.851,35.84 C48.964,36.002 49.092,36.156 49.231,36.303 C49.371,36.448 49.526,36.59 49.697,36.728 C49.868,36.374 50.025,36.017 50.167,35.658 C50.309,35.299 50.425,34.925 50.516,34.534 L50.516,34.534 Z" id="Fill-35" fill="#36A0CE" sketch:type="MSShapeGroup"></path>
                <path d="M50.516,34.534 C50.557,34.457 50.604,34.402 50.658,34.369 C50.711,34.336 50.768,34.318 50.827,34.317 C50.919,34.315 50.994,34.35 51.056,34.418 C51.116,34.487 51.147,34.584 51.149,34.708 C51.045,35.147 50.91,35.574 50.744,35.987 C50.579,36.4 50.398,36.807 50.2,37.204 C50.001,37.602 49.793,37.996 49.573,38.386 C49.354,38.775 49.141,39.17 48.932,39.567 C48.889,39.627 48.841,39.67 48.788,39.695 C48.734,39.721 48.684,39.733 48.635,39.734 C48.554,39.735 48.484,39.708 48.424,39.649 C48.362,39.592 48.332,39.509 48.33,39.401 C48.329,39.385 48.329,39.367 48.329,39.349 C48.328,39.329 48.331,39.31 48.336,39.287 C48.508,38.955 48.684,38.628 48.867,38.306 C49.05,37.984 49.228,37.659 49.4,37.332 C49.182,37.163 48.984,36.99 48.808,36.813 C48.632,36.635 48.474,36.446 48.332,36.246 C48.19,36.046 48.066,35.83 47.96,35.597 C47.852,35.364 47.76,35.111 47.679,34.837 C47.677,34.696 47.703,34.59 47.758,34.516 C47.813,34.442 47.89,34.403 47.986,34.401 C48.057,34.4 48.124,34.423 48.186,34.468 C48.25,34.512 48.295,34.586 48.324,34.687 C48.388,34.913 48.462,35.121 48.55,35.311 C48.636,35.501 48.737,35.678 48.851,35.84 C48.964,36.002 49.092,36.156 49.231,36.303 C49.371,36.448 49.526,36.59 49.697,36.728 C49.868,36.374 50.025,36.017 50.167,35.658 C50.309,35.299 50.425,34.925 50.516,34.534 L50.516,34.534 Z" id="Stroke-36" stroke="#FFFFFF" stroke-width="0.25" sketch:type="MSShapeGroup"></path>
            </g>
        </g>
    </g>
</svg>