<?xml version="1.0" encoding="UTF-8" standalone="no"?>
<svg width="120px" height="120px" viewBox="0 0 120 120" version="1.1" xmlns="http://www.w3.org/2000/svg" xmlns:xlink="http://www.w3.org/1999/xlink" xmlns:sketch="http://www.bohemiancoding.com/sketch/ns">
    <!-- Generator: Sketch 3.3.2 (12043) - http://www.bohemiancoding.com/sketch -->
    <title>Mobile Portrait Copy 4</title>
    <desc>Created with Sketch.</desc>
    <defs></defs>
    <g id="baby" stroke="none" stroke-width="1" fill="none" fill-rule="evenodd" sketch:type="MSPage">
        <g id="Mobile-Portrait-Copy-4" sketch:type="MSArtboardGroup">
            <g id="Imported-Layers" sketch:type="MSLayerGroup" transform="translate(43.000000, 23.000000)">
                <path d="M11.467,15.252 C11.32,15.252 11.182,15.222 11.044,15.159 C10.898,15.093 10.775,14.979 10.688,14.83 C10.593,14.679 10.419,14.332 10.143,13.742 C10.02,13.477 9.91,13.256 9.817,13.08 C9.719,13.309 9.618,13.528 9.517,13.739 C9.321,14.127 9.083,14.413 8.807,14.594 C8.669,14.675 8.535,14.712 8.399,14.712 C8.294,14.712 8.188,14.689 8.084,14.645 C7.871,14.551 7.705,14.408 7.584,14.22 L7.211,13.589 L6.682,13.11 L6.871,12.775 L6.754,12.733 L6.714,12.626 C6.663,12.493 6.574,12.183 6.443,11.683 C6.412,11.563 6.38,11.45 6.346,11.341 L6.133,12.513 C6.1,12.708 5.933,12.911 5.608,13.148 C5.343,13.344 5.101,13.513 4.882,13.653 C4.676,13.757 4.488,13.816 4.281,13.849 C4.232,13.856 4.184,13.86 4.139,13.86 C3.873,13.86 3.729,13.728 3.654,13.617 C3.557,13.482 3.439,13.222 3.296,12.827 C3.211,12.591 3.124,12.429 3.047,12.316 C2.946,12.407 2.855,12.489 2.77,12.564 C2.601,12.711 2.424,12.811 2.241,12.861 L2.208,12.871 L2.132,12.872 C1.951,12.872 1.781,12.824 1.626,12.73 C1.433,12.613 1.322,12.432 1.308,12.203 L1.295,11.853 L1.117,11.291 L1.234,11.185 C1.536,10.912 1.832,10.613 2.114,10.295 C2.328,10.05 2.539,9.787 2.743,9.514 C2.704,9.496 2.67,9.475 2.639,9.45 C2.565,9.39 2.403,9.237 2.164,8.979 C1.945,8.741 1.867,8.488 1.931,8.226 C1.985,8.009 2.115,7.797 2.342,7.558 L2.456,7.436 L2.797,7.565 L3.042,7.566 C2.646,7.284 2.418,6.996 2.348,6.688 C2.263,6.351 2.391,5.971 2.73,5.564 L2.871,5.396 L3.157,5.579 L3.309,5.584 L4.078,4.668 L3.776,4.644 L3.71,4.571 C3.306,4.131 3.094,3.788 3.043,3.493 C2.979,3.155 3.171,2.799 3.633,2.405 L3.793,2.268 L4.028,2.465 L5.366,2.522 C5.428,2.433 5.517,2.309 5.633,2.151 C5.801,1.918 5.927,1.73 6.011,1.597 C6.032,1.542 6.041,1.466 6.022,1.381 C5.998,1.264 5.95,1.134 5.882,0.998 L5.767,0.77 L6.524,0.412 C6.692,0.32 6.882,0.271 7.075,0.271 C7.168,0.271 7.263,0.283 7.358,0.306 C7.61,0.359 7.847,0.454 8.073,0.592 L8.478,0.845 C8.742,1.019 8.86,1.367 8.844,1.916 C8.831,2.23 8.785,2.498 8.704,2.726 L9.146,2.74 L9.272,2.681 L9.43,2.628 L9.539,2.753 C9.717,2.954 9.887,3.158 10.051,3.358 C10.249,3.591 10.347,3.842 10.336,4.102 C10.335,4.104 10.335,4.108 10.334,4.111 L12.777,1.802 C12.993,1.591 13.205,1.486 13.423,1.486 C13.651,1.501 13.882,1.584 14.184,1.747 C14.607,1.971 14.986,2.235 15.307,2.532 C15.646,2.851 15.851,3.226 15.915,3.651 C15.936,3.9 15.88,4.121 15.75,4.325 C15.618,4.547 15.414,4.685 15.164,4.718 C14.956,4.703 14.823,4.659 14.697,4.582 C14.633,4.543 14.563,4.495 14.487,4.44 L11.457,6.431 L11.44,6.539 L14.923,6.558 C15.292,6.618 15.451,6.792 15.527,6.929 C15.608,7.063 15.69,7.279 15.777,7.582 C15.853,7.84 15.917,8.104 15.976,8.38 C16.038,8.705 16.009,8.986 15.889,9.221 C15.799,9.373 15.683,9.487 15.535,9.573 C15.415,9.639 15.296,9.669 15.174,9.669 L15.032,9.656 C14.833,9.601 14.686,9.497 14.574,9.343 C14.517,9.258 14.469,9.169 14.431,9.075 L14.266,9.077 C14.272,9.106 14.276,9.136 14.28,9.165 C14.304,9.298 14.309,9.451 14.309,9.619 L13.563,13.752 C13.51,14.046 13.369,14.298 13.144,14.5 C12.946,14.674 12.696,14.835 12.377,14.993 L11.937,15.154 C11.792,15.206 11.653,15.237 11.514,15.251 L11.467,15.252 L11.467,15.252 Z M10.178,12.176 C10.381,12.257 10.59,12.309 10.8,12.329 L10.809,12.329 C10.963,12.329 11.028,12.294 11.061,12.117 L11.614,9.072 L10.991,9.081 C10.896,9.575 10.782,10.079 10.648,10.596 C10.511,11.115 10.354,11.642 10.178,12.176 L10.178,12.176 Z M3.609,11.659 C3.657,11.666 3.705,11.67 3.754,11.67 C3.818,11.666 3.848,11.655 3.865,11.553 L3.931,11.206 C3.833,11.358 3.726,11.51 3.609,11.659 L3.609,11.659 Z M7.257,9.61 C7.328,9.637 7.397,9.671 7.467,9.715 C7.648,9.813 7.81,9.968 7.934,10.163 C7.941,10.174 7.946,10.186 7.953,10.197 L8.15,9.56 C8.099,9.564 7.807,9.584 7.746,9.589 L7.741,9.626 L7.257,9.61 L7.257,9.61 Z M6.456,5.604 L6.993,4.854 L6.477,4.837 L5.819,5.6 L6.456,5.604 L6.456,5.604 Z" id="Fill-1" fill="#1A1918" sketch:type="MSShapeGroup"></path>
                <path d="M7.075,0.521 C7.148,0.521 7.224,0.531 7.299,0.549 C7.537,0.6 7.748,0.686 7.943,0.806 L8.346,1.057 C8.525,1.175 8.607,1.459 8.594,1.908 C8.576,2.359 8.483,2.711 8.305,2.962 L9.137,2.99 L9.352,2.918 C9.527,3.117 9.695,3.318 9.857,3.517 C10.022,3.709 10.094,3.901 10.086,4.091 C10.066,4.253 9.99,4.38 9.855,4.47 C9.719,4.558 9.553,4.628 9.354,4.674 L8.518,4.666 C8.703,4.893 8.773,5.1 8.738,5.305 C8.701,5.505 8.568,5.702 8.348,5.905 L8.736,5.903 L8.846,5.797 L9.199,6.219 C9.199,6.004 9.191,5.831 9.162,5.693 C9.131,5.558 9.076,5.404 8.998,5.234 L9.438,4.904 C9.537,4.816 9.631,4.756 9.719,4.732 C9.776,4.714 9.844,4.705 9.921,4.705 C9.965,4.705 10.012,4.708 10.063,4.713 L12.949,1.983 C13.119,1.817 13.273,1.736 13.423,1.736 C13.43,1.736 13.437,1.737 13.443,1.737 C13.596,1.748 13.799,1.823 14.064,1.967 C14.477,2.185 14.834,2.435 15.137,2.716 C15.436,2.996 15.611,3.318 15.668,3.689 C15.682,3.858 15.643,4.028 15.539,4.191 C15.439,4.358 15.301,4.447 15.131,4.47 C15.023,4.459 14.924,4.428 14.828,4.369 C14.73,4.31 14.621,4.23 14.496,4.135 L11.227,6.283 L11.15,6.787 L14.922,6.808 C15.107,6.84 15.236,6.92 15.309,7.05 C15.381,7.172 15.457,7.373 15.537,7.651 C15.611,7.904 15.674,8.162 15.731,8.432 C15.781,8.695 15.762,8.92 15.666,9.107 C15.604,9.212 15.516,9.295 15.408,9.358 C15.332,9.399 15.254,9.419 15.174,9.419 C15.143,9.419 15.11,9.416 15.078,9.41 C14.953,9.375 14.856,9.305 14.777,9.196 C14.703,9.087 14.647,8.964 14.609,8.824 L13.932,8.829 C13.98,8.956 14.016,9.08 14.033,9.201 C14.055,9.327 14.059,9.467 14.059,9.619 L13.316,13.707 C13.273,13.949 13.158,14.151 12.977,14.314 C12.789,14.479 12.553,14.627 12.266,14.769 C12.111,14.822 11.981,14.875 11.856,14.918 C11.734,14.961 11.613,14.99 11.49,15.002 L11.467,15.002 C11.346,15.002 11.242,14.975 11.147,14.932 C11.051,14.888 10.965,14.808 10.902,14.702 C10.809,14.552 10.633,14.198 10.369,13.636 C10.109,13.078 9.912,12.708 9.773,12.527 C9.621,12.92 9.457,13.286 9.291,13.631 C9.119,13.973 8.912,14.227 8.67,14.385 C8.581,14.437 8.49,14.462 8.399,14.462 C8.327,14.462 8.255,14.446 8.182,14.415 C8.018,14.342 7.889,14.231 7.795,14.085 L7.426,13.462 L6.996,13.061 L7.234,12.641 L6.947,12.537 C6.898,12.408 6.813,12.105 6.686,11.619 C6.559,11.141 6.414,10.743 6.258,10.426 L5.887,12.468 C5.865,12.595 5.721,12.757 5.461,12.947 C5.199,13.139 4.961,13.305 4.746,13.443 C4.588,13.521 4.422,13.573 4.242,13.602 C4.206,13.607 4.171,13.61 4.139,13.61 C4.015,13.61 3.922,13.567 3.861,13.477 C3.775,13.358 3.664,13.111 3.531,12.742 C3.397,12.369 3.236,12.109 3.066,11.961 C2.893,12.121 2.738,12.258 2.604,12.377 C2.469,12.494 2.326,12.578 2.174,12.621 C2.16,12.622 2.146,12.622 2.132,12.622 C1.995,12.622 1.871,12.587 1.756,12.517 C1.633,12.442 1.566,12.334 1.557,12.187 L1.545,11.844 L1.402,11.37 C1.699,11.101 2,10.8 2.301,10.461 C2.596,10.123 2.893,9.746 3.182,9.335 C2.992,9.333 2.863,9.31 2.795,9.255 C2.727,9.199 2.574,9.054 2.348,8.809 C2.188,8.635 2.131,8.462 2.174,8.284 C2.219,8.105 2.338,7.926 2.524,7.728 L2.707,7.799 L4.815,7.822 L4.881,7.458 L3.262,7.414 C2.877,7.156 2.652,6.899 2.592,6.632 C2.525,6.37 2.635,6.068 2.922,5.725 L3.08,5.826 L3.422,5.838 L4.582,4.457 L3.895,4.402 C3.537,4.013 3.332,3.698 3.289,3.45 C3.242,3.205 3.414,2.92 3.795,2.596 L3.934,2.711 L5.496,2.778 C5.543,2.703 5.654,2.543 5.834,2.301 C6.008,2.059 6.137,1.866 6.223,1.729 C6.281,1.598 6.297,1.466 6.266,1.326 C6.238,1.19 6.184,1.041 6.105,0.886 L6.631,0.638 C6.774,0.56 6.923,0.521 7.075,0.521 L7.075,0.521 Z M6.584,5.854 L7.469,4.62 L6.365,4.583 L5.277,5.847 L6.584,5.854 L6.584,5.854 Z M8.613,7.488 L6.775,7.481 L6.693,7.912 L8.035,7.923 L8.191,7.826 L8.588,8.219 L8.76,8.339 L8.938,7.37 L8.613,7.488 L8.613,7.488 Z M11.914,8.818 L10.783,8.834 C10.682,9.387 10.557,9.952 10.406,10.533 C10.252,11.115 10.072,11.708 9.869,12.311 C10.176,12.465 10.479,12.549 10.775,12.578 C10.797,12.58 10.818,12.581 10.839,12.581 C11.1,12.581 11.256,12.442 11.307,12.161 L11.914,8.818 L11.914,8.818 Z M7.522,9.369 L6.453,9.335 L6.328,10.045 C6.514,9.922 6.691,9.852 6.852,9.82 C6.89,9.812 6.928,9.809 6.966,9.809 C7.088,9.809 7.21,9.848 7.332,9.926 C7.492,10.014 7.621,10.137 7.723,10.297 C7.815,10.457 7.908,10.666 7.992,10.918 L8.51,9.242 C8.43,9.276 8.248,9.304 7.961,9.324 C7.668,9.343 7.523,9.354 7.522,9.369 L7.522,9.369 Z M3.754,11.92 L3.76,11.92 C3.959,11.908 4.076,11.802 4.111,11.595 L4.539,9.346 L3.436,9.325 C3.598,9.402 3.723,9.487 3.807,9.573 C3.895,9.66 3.957,9.782 3.998,9.947 C4.078,10.249 4.029,10.546 3.855,10.85 C3.682,11.151 3.459,11.466 3.186,11.781 C3.369,11.875 3.561,11.92 3.754,11.92 L3.754,11.92 Z M7.075,0.021 C6.84,0.021 6.611,0.081 6.395,0.197 L5.892,0.434 L5.429,0.652 L5.659,1.11 C5.717,1.227 5.758,1.335 5.775,1.425 C5.782,1.454 5.783,1.475 5.775,1.501 C5.693,1.629 5.578,1.799 5.428,2.01 C5.355,2.107 5.292,2.193 5.24,2.267 L4.123,2.219 L4.114,2.211 L3.791,1.942 L3.471,2.215 C3.274,2.383 2.674,2.894 2.798,3.544 C2.856,3.88 3.088,4.263 3.526,4.74 L3.612,4.834 L3.209,5.314 L3.192,5.304 L2.82,5.065 L2.538,5.404 C2.145,5.875 1.999,6.33 2.108,6.755 C2.143,6.913 2.213,7.066 2.318,7.217 L2.159,7.386 C1.903,7.658 1.754,7.905 1.689,8.162 C1.63,8.406 1.634,8.771 1.98,9.147 C2.141,9.321 2.284,9.467 2.391,9.564 C2.238,9.762 2.082,9.951 1.924,10.132 C1.65,10.44 1.361,10.733 1.066,10.999 L0.832,11.211 L0.924,11.515 L1.048,11.926 L1.057,12.203 C1.078,12.528 1.234,12.786 1.498,12.944 C1.691,13.063 1.904,13.122 2.132,13.122 L2.145,13.122 L2.199,13.12 L2.256,13.117 L2.31,13.102 C2.527,13.041 2.736,12.924 2.932,12.754 C2.947,12.74 2.964,12.726 2.981,12.711 C3.007,12.77 3.033,12.836 3.061,12.912 C3.261,13.468 3.382,13.668 3.456,13.769 C3.6,13.984 3.846,14.11 4.139,14.11 C4.196,14.11 4.257,14.105 4.322,14.096 C4.552,14.059 4.764,13.992 4.968,13.892 L4.993,13.879 L5.018,13.863 C5.239,13.72 5.485,13.549 5.756,13.351 C6.142,13.068 6.334,12.821 6.38,12.551 L6.397,12.459 C6.437,12.595 6.462,12.666 6.48,12.714 L6.535,12.86 L6.367,13.158 L6.655,13.428 L7.032,13.778 L7.365,14.34 C7.521,14.584 7.725,14.759 7.978,14.871 C8.121,14.933 8.261,14.962 8.399,14.962 C8.58,14.962 8.756,14.913 8.921,14.817 C9.258,14.599 9.524,14.279 9.737,13.855 C9.77,13.79 9.8,13.726 9.829,13.663 C9.857,13.721 9.886,13.781 9.916,13.847 C10.201,14.455 10.374,14.8 10.479,14.967 C10.587,15.15 10.748,15.299 10.938,15.386 C11.111,15.465 11.284,15.502 11.467,15.502 L11.49,15.502 L11.537,15.5 C11.697,15.484 11.856,15.448 12.022,15.389 C12.08,15.369 12.144,15.346 12.21,15.321 C12.277,15.296 12.35,15.269 12.428,15.242 L12.459,15.232 L12.488,15.218 C12.827,15.049 13.095,14.877 13.307,14.689 C13.579,14.445 13.746,14.145 13.809,13.795 L14.551,9.709 L14.555,9.686 C14.668,9.783 14.798,9.851 14.942,9.892 C15.05,9.913 15.112,9.919 15.174,9.919 C15.338,9.919 15.496,9.879 15.645,9.799 C15.846,9.681 15.991,9.538 16.095,9.364 C16.257,9.05 16.294,8.714 16.222,8.337 C16.16,8.046 16.095,7.775 16.017,7.511 C15.923,7.186 15.835,6.957 15.739,6.795 C15.644,6.623 15.433,6.389 15.008,6.314 L14.967,6.308 L14.925,6.308 L12.123,6.292 L14.483,4.742 C14.512,4.762 14.54,4.779 14.567,4.796 C14.723,4.891 14.896,4.949 15.081,4.967 L15.139,4.973 L15.196,4.966 C15.525,4.922 15.792,4.743 15.969,4.447 C16.118,4.212 16.189,3.932 16.166,3.649 C16.089,3.133 15.858,2.707 15.479,2.352 C15.14,2.037 14.743,1.76 14.298,1.524 C13.968,1.346 13.706,1.255 13.479,1.238 L13.461,1.237 L13.423,1.236 C13.137,1.236 12.867,1.364 12.6,1.626 L10.497,3.614 C10.44,3.466 10.353,3.326 10.238,3.192 C10.078,2.997 9.906,2.791 9.727,2.587 L9.507,2.338 L9.192,2.444 L9.064,2.487 L9.029,2.486 C9.064,2.316 9.086,2.13 9.094,1.928 C9.101,1.687 9.123,0.969 8.62,0.639 L8.208,0.382 C7.952,0.226 7.69,0.121 7.403,0.059 C7.302,0.035 7.188,0.021 7.075,0.021 L7.075,0.021 Z M11.197,9.328 L11.314,9.326 L10.815,12.072 C10.815,12.074 10.813,12.077 10.813,12.08 C10.705,12.068 10.599,12.049 10.491,12.018 C10.64,11.557 10.774,11.101 10.89,10.661 C11.006,10.213 11.108,9.767 11.197,9.328 L11.197,9.328 Z" id="Fill-2" fill="#FFFFFF" sketch:type="MSShapeGroup"></path>
                <path d="M20.486,16.842 C20.39,16.842 20.306,16.833 20.232,16.82 C20.062,16.79 19.928,16.735 19.812,16.646 C19.679,16.531 19.604,16.394 19.577,16.227 L19.498,15.562 C19.459,15.337 19.371,15.127 19.232,14.933 C19.085,14.727 18.91,14.551 18.714,14.409 L17.294,13.388 L18.942,13.971 C19.163,14.048 19.391,14.088 19.619,14.088 C19.954,14.072 20.193,14.01 20.43,13.895 C20.678,13.772 20.868,13.615 20.993,13.428 C21.088,13.29 21.18,13.124 21.27,12.927 L17.947,12.845 C17.552,12.827 17.167,12.694 16.766,12.438 C16.381,12.187 16.078,11.904 15.864,11.595 C15.778,11.478 15.729,11.352 15.714,11.215 C15.707,11.082 15.732,10.959 15.786,10.847 C15.873,10.669 16.019,10.516 16.23,10.377 C16.402,10.263 16.827,9.965 16.827,9.965 L17.352,10.104 L21.902,10.298 L21.981,9.816 L19.291,9.799 C18.958,9.788 18.729,9.772 18.603,9.749 C18.428,9.716 18.257,9.618 18.079,9.451 C17.859,9.253 17.661,9.051 17.485,8.85 C17.27,8.591 17.182,8.341 17.223,8.103 C17.229,7.949 17.319,7.688 17.691,7.48 L18.467,7.046 L18.674,7.184 L21.964,7.131 L21.865,6.797 C21.419,6.806 20.537,6.815 20.537,6.815 C20.213,6.815 19.895,6.801 19.585,6.777 C19.227,6.741 18.899,6.594 18.605,6.341 C18.322,6.094 18.105,5.806 17.956,5.481 C17.925,5.244 17.986,5.065 18.14,4.794 C18.27,4.573 18.45,4.307 18.695,3.991 L18.837,3.809 L19.271,4.095 L26.95,4.011 L27.233,3.896 L27.356,3.852 L27.462,3.928 C27.779,4.154 28.094,4.385 28.394,4.622 C28.733,4.887 28.944,5.157 29.039,5.448 C29.065,5.578 29.069,5.661 29.059,5.74 C29.051,5.82 29.032,5.903 29.002,5.983 C28.826,6.232 28.659,6.366 28.471,6.446 C28.296,6.526 28.091,6.577 27.849,6.601 L25.078,6.7 C25.091,6.729 25.194,6.975 25.233,7.079 L27.234,7.044 L27.562,6.863 L27.69,6.96 C27.945,7.15 28.24,7.395 28.574,7.694 C28.954,8.029 29.155,8.35 29.19,8.673 C29.212,8.88 29.159,9.26 28.564,9.484 C28.193,9.618 27.855,9.686 27.525,9.693 L25.426,9.75 L25.363,10.37 L28.561,10.472 C28.853,10.552 28.953,10.702 28.997,10.815 C29.034,10.9 29.077,11.029 29.127,11.19 C29.229,11.583 29.311,11.908 29.366,12.179 C29.434,12.476 29.469,12.73 29.473,12.951 C29.475,13.179 29.456,13.359 29.414,13.505 C29.365,13.69 29.263,13.842 29.118,13.937 C28.919,14.064 28.727,14.137 28.527,14.16 C28.482,14.166 28.436,14.169 28.389,14.169 C28.232,14.169 28.072,14.136 27.914,14.071 C27.679,13.884 27.56,13.714 27.491,13.524 C27.447,13.415 27.397,13.271 27.342,13.091 L24.895,13.035 C24.699,13.617 24.508,14.113 24.324,14.51 C24.115,14.967 23.824,15.37 23.46,15.71 C23.108,16.03 22.718,16.277 22.301,16.446 C21.867,16.63 21.412,16.754 20.949,16.812 C20.808,16.828 20.681,16.836 20.565,16.84 L20.486,16.842" id="Fill-3" fill="#1A1918" sketch:type="MSShapeGroup"></path>
                <path d="M27.316,4.131 C27.631,4.355 27.941,4.583 28.238,4.818 C28.537,5.051 28.723,5.283 28.801,5.525 C28.813,5.588 28.818,5.648 28.811,5.707 C28.805,5.766 28.793,5.828 28.768,5.897 C28.656,6.043 28.525,6.151 28.373,6.216 C28.215,6.288 28.033,6.332 27.824,6.352 L24.691,6.464 C24.764,6.61 24.828,6.753 24.887,6.885 C24.945,7.019 25.002,7.171 25.059,7.332 L27.301,7.293 L27.541,7.16 C27.791,7.347 28.08,7.588 28.408,7.881 C28.738,8.173 28.914,8.444 28.941,8.699 C28.967,8.939 28.811,9.124 28.477,9.25 C28.135,9.373 27.82,9.436 27.52,9.443 L25.199,9.506 L25.088,10.611 L28.553,10.722 C28.658,10.754 28.729,10.814 28.764,10.905 C28.803,10.994 28.842,11.114 28.889,11.265 C28.986,11.641 29.066,11.962 29.121,12.228 C29.182,12.496 29.219,12.741 29.223,12.956 C29.225,13.145 29.211,13.307 29.174,13.436 C29.139,13.57 29.072,13.668 28.98,13.728 C28.813,13.836 28.656,13.893 28.498,13.912 C28.462,13.917 28.425,13.919 28.389,13.919 C28.266,13.919 28.139,13.893 28.01,13.84 C27.875,13.723 27.781,13.591 27.727,13.439 C27.668,13.294 27.602,13.098 27.529,12.845 L24.715,12.781 C24.502,13.434 24.297,13.974 24.098,14.405 C23.902,14.831 23.633,15.207 23.289,15.527 C22.973,15.814 22.613,16.05 22.207,16.215 C21.799,16.388 21.371,16.507 20.918,16.564 C20.787,16.579 20.666,16.586 20.557,16.59 C20.532,16.591 20.509,16.592 20.486,16.592 C20.406,16.592 20.336,16.585 20.275,16.574 C20.143,16.551 20.045,16.51 19.963,16.447 C19.889,16.383 19.842,16.298 19.824,16.187 L19.746,15.533 C19.699,15.26 19.598,15.014 19.436,14.787 C19.273,14.561 19.082,14.366 18.859,14.206 C19.108,14.294 19.364,14.338 19.619,14.338 C19.65,14.338 19.681,14.337 19.711,14.336 C20.002,14.32 20.275,14.248 20.539,14.12 C20.826,13.978 21.049,13.795 21.201,13.566 C21.357,13.34 21.502,13.046 21.641,12.686 L17.953,12.595 C17.607,12.579 17.262,12.458 16.9,12.228 C16.543,11.995 16.266,11.736 16.07,11.453 C15.998,11.354 15.971,11.267 15.963,11.189 C15.959,11.112 15.975,11.032 16.012,10.955 C16.076,10.823 16.191,10.701 16.367,10.586 C16.543,10.469 16.717,10.351 16.877,10.236 L17.287,10.346 L22.113,10.557 L22.275,9.568 L19.293,9.549 C18.984,9.539 18.768,9.525 18.649,9.503 C18.525,9.479 18.393,9.402 18.25,9.269 C18.035,9.074 17.844,8.879 17.674,8.684 C17.51,8.488 17.441,8.307 17.469,8.144 C17.479,7.972 17.592,7.822 17.813,7.698 C18.029,7.574 18.246,7.455 18.455,7.339 L18.6,7.436 L22.297,7.375 L22.051,6.543 C21.525,6.554 21.072,6.562 20.695,6.564 C20.643,6.565 20.59,6.565 20.537,6.565 C20.219,6.565 19.907,6.551 19.604,6.528 C19.301,6.497 19.024,6.371 18.768,6.151 C18.52,5.935 18.32,5.676 18.184,5.377 C18.178,5.28 18.238,5.128 18.357,4.916 C18.48,4.707 18.656,4.449 18.893,4.145 L19.197,4.346 L26.953,4.261 L27.316,4.131 M18.781,3.472 L18.497,3.838 C18.262,4.143 18.069,4.42 17.927,4.662 C17.741,4.992 17.672,5.205 17.685,5.407 L17.691,5.5 L17.729,5.585 C17.893,5.941 18.131,6.259 18.439,6.527 C18.65,6.709 18.876,6.843 19.114,6.927 L18.748,6.934 L18.733,6.923 L18.48,6.754 L18.212,6.902 L18.07,6.98 C17.904,7.072 17.734,7.167 17.565,7.265 C17.115,7.517 16.992,7.847 16.972,8.089 C16.929,8.393 17.036,8.701 17.29,9.005 C17.484,9.228 17.692,9.438 17.914,9.64 C18.026,9.744 18.14,9.827 18.255,9.888 L17.363,9.849 L17.006,9.753 L16.778,9.692 L16.587,9.829 C16.431,9.94 16.261,10.056 16.09,10.17 C15.843,10.332 15.669,10.518 15.563,10.735 C15.489,10.888 15.455,11.053 15.464,11.215 C15.483,11.42 15.552,11.591 15.667,11.749 C15.891,12.073 16.217,12.379 16.628,12.646 C17.07,12.929 17.495,13.074 17.931,13.094 L20.864,13.166 C20.839,13.208 20.814,13.246 20.789,13.282 C20.685,13.439 20.527,13.568 20.318,13.672 C20.114,13.77 19.906,13.824 19.684,13.837 L19.619,13.838 C19.42,13.838 19.22,13.803 19.025,13.734 L15.729,12.57 L18.567,14.612 C18.742,14.738 18.898,14.894 19.029,15.078 C19.146,15.241 19.219,15.418 19.253,15.617 L19.328,16.247 C19.366,16.489 19.472,16.683 19.635,16.825 C19.808,16.957 19.98,17.03 20.188,17.066 C20.275,17.082 20.373,17.092 20.486,17.092 L20.578,17.09 C20.695,17.085 20.829,17.077 20.974,17.062 C21.466,16.999 21.944,16.869 22.402,16.676 C22.84,16.498 23.253,16.235 23.625,15.897 C24.019,15.531 24.329,15.101 24.552,14.613 C24.723,14.244 24.895,13.809 25.072,13.289 L27.157,13.336 C27.193,13.444 27.229,13.541 27.263,13.626 C27.34,13.84 27.482,14.044 27.682,14.217 L27.743,14.27 L27.819,14.302 C28.007,14.38 28.198,14.419 28.389,14.419 C28.445,14.419 28.503,14.415 28.56,14.408 C28.794,14.381 29.021,14.296 29.25,14.149 C29.452,14.016 29.592,13.814 29.657,13.563 C29.703,13.404 29.726,13.201 29.723,12.951 C29.719,12.709 29.681,12.437 29.608,12.118 C29.555,11.854 29.473,11.524 29.373,11.139 C29.313,10.943 29.267,10.806 29.222,10.704 C29.14,10.491 28.951,10.32 28.699,10.243 L28.635,10.224 L28.568,10.222 L25.639,10.129 L25.652,9.994 L27.533,9.943 C27.887,9.935 28.252,9.862 28.646,9.721 C29.434,9.424 29.462,8.871 29.439,8.646 C29.396,8.259 29.168,7.886 28.739,7.506 C28.44,7.238 28.179,7.019 27.947,6.841 C28.198,6.809 28.399,6.754 28.581,6.671 C28.797,6.579 28.998,6.42 29.165,6.201 L29.211,6.141 L29.237,6.069 C29.273,5.969 29.297,5.867 29.309,5.757 C29.32,5.667 29.316,5.56 29.292,5.434 L29.286,5.402 L29.276,5.372 C29.167,5.031 28.928,4.721 28.545,4.424 C28.246,4.186 27.929,3.953 27.608,3.724 L27.395,3.572 L27.148,3.66 L26.863,3.762 L19.345,3.844 L19.168,3.727 L18.781,3.472" id="Fill-4" fill="#FFFFFF" sketch:type="MSShapeGroup"></path>
                <path d="M41.216,20.384 C41.152,20.384 41.091,20.379 41.03,20.368 C40.751,20.3 40.533,20.161 40.364,19.955 C40.239,19.801 40.099,19.615 39.934,19.394 C38.607,19.067 37.239,18.797 35.865,18.591 C34.518,18.398 33.191,18.257 31.924,18.169 C31.731,18.346 31.569,18.472 31.418,18.562 C31.224,18.688 31.047,18.756 30.869,18.772 C30.612,18.763 30.402,18.67 30.212,18.498 C30.039,18.344 29.873,18.12 29.719,17.833 C29.563,17.549 29.427,17.242 29.314,16.923 C29.201,16.602 29.14,16.301 29.133,16.029 C29.125,15.831 29.181,15.646 29.299,15.485 C29.401,15.347 29.543,15.211 29.732,15.071 L30.06,14.769 L30.523,14.765 C31.021,14.765 31.531,14.779 32.052,14.805 C32.631,14.834 33.246,14.887 33.902,14.957 L35.462,6.23 C35.462,6.23 36.058,5.935 36.211,5.853 C36.369,5.773 36.53,5.733 36.694,5.733 C36.776,5.733 36.86,5.744 36.943,5.764 C37.321,5.834 37.832,6.038 38.493,6.388 C39.198,6.757 39.599,7.084 39.752,7.416 C39.843,7.619 39.822,7.816 39.696,7.976 C39.598,8.096 39.474,8.183 39.304,8.252 C39.176,8.303 39.037,8.351 38.897,8.388 C38.828,8.406 38.763,8.422 38.702,8.435 L38.387,10.184 L40.58,10.123 L40.894,9.932 L41.029,10.034 C41.142,10.119 41.244,10.213 41.333,10.315 C41.412,10.408 41.521,10.54 41.657,10.722 L42.048,11.221 C42.205,11.429 42.271,11.662 42.245,11.918 C42.226,12.163 42.128,12.379 41.956,12.555 C41.842,12.651 41.732,12.72 41.599,12.782 C41.483,12.83 41.357,12.88 41.216,12.93 L37.877,13.093 L37.453,15.426 C38.016,15.503 38.586,15.596 39.163,15.703 C39.829,15.83 40.525,15.978 41.247,16.143 C41.457,16.255 41.557,16.321 41.623,16.38 C41.722,16.48 41.795,16.589 41.858,16.717 C42.111,17.165 42.315,17.619 42.456,18.051 C42.608,18.499 42.644,18.956 42.562,19.405 C42.507,19.704 42.307,19.955 41.966,20.154 C41.708,20.307 41.455,20.384 41.216,20.384" id="Fill-5" fill="#1A1918" sketch:type="MSShapeGroup"></path>
                <path d="M36.694,5.983 C36.757,5.983 36.82,5.991 36.885,6.007 C37.242,6.073 37.738,6.271 38.377,6.608 C39.012,6.941 39.397,7.243 39.525,7.521 C39.576,7.636 39.566,7.736 39.5,7.82 C39.43,7.906 39.336,7.969 39.209,8.021 C39.092,8.067 38.963,8.111 38.832,8.146 C38.699,8.182 38.582,8.207 38.486,8.227 L38.086,10.443 L40.654,10.371 L40.879,10.233 C40.982,10.312 41.07,10.394 41.145,10.479 C41.219,10.567 41.324,10.695 41.457,10.872 L41.852,11.375 C41.969,11.53 42.016,11.699 41.996,11.892 C41.981,12.088 41.906,12.248 41.777,12.38 C41.693,12.449 41.596,12.507 41.492,12.556 C41.391,12.598 41.27,12.645 41.133,12.693 L37.666,12.852 L37.16,15.64 C37.803,15.722 38.455,15.825 39.117,15.949 C39.779,16.075 40.473,16.223 41.191,16.388 C41.313,16.46 41.4,16.518 41.459,16.568 C41.512,16.623 41.574,16.706 41.633,16.826 C41.887,17.276 42.082,17.711 42.219,18.129 C42.359,18.547 42.389,18.958 42.316,19.361 C42.275,19.583 42.119,19.775 41.84,19.938 C41.617,20.07 41.408,20.134 41.216,20.134 C41.167,20.134 41.119,20.13 41.072,20.122 C40.869,20.071 40.695,19.965 40.559,19.797 C40.422,19.629 40.266,19.422 40.08,19.174 C38.668,18.821 37.273,18.549 35.902,18.344 C34.535,18.148 33.178,18.002 31.832,17.912 C31.631,18.103 31.453,18.25 31.289,18.349 C31.125,18.454 30.983,18.511 30.846,18.523 C30.682,18.516 30.525,18.444 30.379,18.312 C30.229,18.178 30.08,17.977 29.94,17.715 C29.787,17.437 29.658,17.146 29.551,16.84 C29.443,16.537 29.389,16.264 29.383,16.023 C29.377,15.879 29.416,15.748 29.5,15.634 C29.588,15.515 29.713,15.396 29.881,15.272 L30.158,15.018 C30.279,15.016 30.4,15.015 30.523,15.015 C31.017,15.015 31.523,15.029 32.039,15.055 C32.682,15.087 33.369,15.148 34.107,15.231 L35.686,6.398 C35.938,6.273 36.15,6.169 36.328,6.074 C36.445,6.015 36.567,5.983 36.694,5.983 M36.694,5.483 C36.491,5.483 36.292,5.532 36.103,5.628 C35.942,5.713 35.766,5.801 35.561,5.902 L35.463,5.95 L35.237,6.062 L35.193,6.311 L33.697,14.684 C33.093,14.622 32.555,14.58 32.064,14.556 C31.528,14.528 31.01,14.515 30.523,14.515 C30.398,14.515 30.274,14.516 30.151,14.517 L29.96,14.52 L29.82,14.649 L29.562,14.887 C29.363,15.036 29.211,15.184 29.098,15.337 C28.947,15.542 28.873,15.786 28.883,16.044 C28.891,16.333 28.956,16.66 29.08,17.007 C29.195,17.338 29.338,17.657 29.501,17.955 C29.667,18.264 29.851,18.511 30.045,18.685 C30.279,18.896 30.541,19.01 30.822,19.022 L30.857,19.024 L30.892,19.021 C31.108,19.001 31.327,18.919 31.56,18.77 C31.693,18.688 31.842,18.576 32.012,18.426 C33.242,18.514 34.525,18.652 35.832,18.839 C37.165,19.038 38.496,19.3 39.787,19.616 C39.932,19.809 40.058,19.974 40.171,20.112 C40.374,20.362 40.637,20.528 40.951,20.607 C41.062,20.628 41.138,20.634 41.216,20.634 C41.501,20.634 41.797,20.545 42.094,20.369 C42.498,20.133 42.739,19.824 42.809,19.452 C42.896,18.958 42.857,18.46 42.692,17.97 C42.547,17.525 42.337,17.057 42.068,16.58 C42.009,16.456 41.92,16.326 41.818,16.222 C41.708,16.122 41.609,16.055 41.447,15.958 L41.38,15.918 L41.304,15.9 C40.559,15.729 39.855,15.58 39.211,15.458 C38.716,15.365 38.226,15.284 37.745,15.215 L38.087,13.334 L41.156,13.193 L41.229,13.189 L41.298,13.165 C41.444,13.114 41.574,13.063 41.684,13.017 C41.858,12.937 41.984,12.857 42.096,12.766 L42.116,12.748 L42.135,12.729 C42.349,12.511 42.47,12.242 42.494,11.933 C42.525,11.623 42.444,11.33 42.251,11.074 L41.851,10.563 C41.717,10.385 41.606,10.25 41.526,10.157 C41.421,10.036 41.307,9.93 41.18,9.834 L40.908,9.629 L40.617,9.807 L40.507,9.875 L38.688,9.926 L38.92,8.641 C38.933,8.637 38.946,8.634 38.96,8.63 C39.112,8.589 39.26,8.539 39.395,8.484 C39.606,8.398 39.766,8.285 39.887,8.137 C40.076,7.898 40.108,7.602 39.983,7.318 C39.801,6.927 39.365,6.562 38.609,6.166 C37.927,5.806 37.392,5.593 36.977,5.516 C36.899,5.496 36.796,5.483 36.694,5.483" id="Fill-6" fill="#FFFFFF" sketch:type="MSShapeGroup"></path>
                <path d="M54.264,22.544 C54.1,22.544 53.946,22.485 53.821,22.375 L53.314,21.948 C53.212,21.852 53.127,21.801 53.042,21.781 C52.969,21.764 52.825,21.741 52.55,21.733 L51.162,21.747 C51.095,21.819 51.031,21.885 50.971,21.941 C50.849,22.043 50.744,22.108 50.643,22.152 C50.506,22.204 50.381,22.228 50.262,22.228 C50.113,22.228 49.976,22.191 49.852,22.117 C49.643,21.994 49.484,21.809 49.368,21.548 L49.017,18.231 C48.998,18.235 48.911,18.249 48.877,18.251 C48.858,18.402 48.816,18.557 48.747,18.714 C48.617,19.002 48.408,19.196 48.125,19.295 L45.113,20.26 C45.041,20.379 44.967,20.494 44.89,20.6 C44.786,20.747 44.675,20.864 44.561,20.946 C44.432,21.022 44.32,21.055 44.21,21.055 C44.139,21.055 44.067,21.042 43.997,21.016 C43.838,20.962 43.691,20.844 43.543,20.646 C43.418,20.501 43.299,20.32 43.188,20.104 C43.091,19.905 42.993,19.684 42.909,19.432 C42.764,19.145 42.826,18.892 42.907,18.735 C42.977,18.583 43.09,18.382 43.233,18.137 L43.29,18.039 L43.471,18.004 L43.936,15.453 C43.972,15.229 43.975,15.054 43.944,14.938 C43.915,14.823 43.842,14.714 43.727,14.611 L43.434,14.351 L43.794,14.195 C43.943,14.131 44.115,14.056 44.303,13.958 L44.718,13.757 C44.807,13.713 44.91,13.687 45.027,13.683 C45.194,13.689 45.326,13.766 45.418,13.897 C45.572,14.075 45.714,14.277 45.823,14.478 C45.945,14.715 45.983,14.953 45.937,15.192 L45.489,17.681 L45.554,17.667 L46.17,14.26 C46.057,14.24 45.958,14.21 45.871,14.168 C45.692,14.084 45.56,13.931 45.482,13.712 L45.386,13.496 L44.895,9.91 C44.86,9.732 44.816,9.585 44.76,9.472 C44.698,9.331 44.623,9.217 44.524,9.112 L44.376,8.956 L44.508,8.787 C44.862,8.33 45.191,8.087 45.514,8.043 L45.621,8.035 C45.907,8.035 46.204,8.2 46.526,8.538 L49.624,8.128 L49.711,8.253 C49.738,8.292 49.81,8.374 49.924,8.507 C50.059,8.664 50.156,8.795 50.215,8.891 C50.416,9.228 50.586,9.588 50.722,9.964 C50.818,10.232 50.834,10.447 50.806,10.619 C51.03,10.45 51.235,10.281 51.428,10.106 C51.63,9.896 51.686,9.762 51.699,9.714 C51.705,9.69 51.711,9.591 51.585,9.366 L51.472,9.165 L51.664,9.036 C51.846,8.915 52.055,8.796 52.287,8.673 C52.456,8.581 52.609,8.537 52.754,8.537 C52.873,8.537 52.982,8.567 53.078,8.628 C53.216,8.683 53.379,8.827 53.558,9.064 C53.669,9.225 53.76,9.378 53.831,9.524 L56.627,9.5 L56.871,9.387 L56.995,9.507 C57.228,9.733 57.418,9.938 57.567,10.124 C57.728,10.326 57.854,10.552 57.943,10.797 C58.103,11.273 58.111,11.636 57.974,11.913 C57.847,12.182 57.553,12.358 57.101,12.436 C56.805,12.695 56.512,12.958 56.222,13.218 C55.955,13.457 55.622,13.749 55.225,14.096 L55.267,14.137 C55.632,14.495 55.942,14.801 56.206,15.042 C56.527,15.335 56.858,15.612 57.21,15.875 L57.313,15.952 L57.285,17.223 L57.169,18.053 C57.109,18.392 57.026,18.626 56.915,18.779 C56.826,18.9 56.692,18.967 56.539,18.967 C56.407,18.967 56.263,18.919 56.098,18.821 C56.029,18.78 55.964,18.737 55.9,18.691 C55.908,18.723 55.916,18.754 55.924,18.785 C56.026,19.209 56.051,19.475 56.003,19.646 C55.898,19.971 55.71,20.217 55.438,20.388 C55.273,20.49 55.082,20.585 54.86,20.676 C54.965,20.816 55.059,20.951 55.142,21.079 C55.318,21.352 55.341,21.648 55.205,21.937 C55.085,22.172 54.89,22.346 54.62,22.462 C54.498,22.516 54.377,22.544 54.264,22.544 L54.264,22.544 Z M51.33,19.557 L52.526,19.555 L53.152,18.57 L51.222,18.608 L51.33,19.557 L51.33,19.557 Z M48.093,17.267 C48.155,17.083 48.208,16.92 48.247,16.775 C48.267,16.707 48.279,16.641 48.286,16.575 L47.947,16.628 L47.832,17.261 C47.845,17.26 47.889,17.259 47.899,17.259 C47.97,17.259 48.032,17.262 48.093,17.267 L48.093,17.267 Z M52.022,16.496 L53.865,16.463 L53.194,15.698 C53.194,15.698 52.13,16.424 52.022,16.496 L52.022,16.496 Z M48.845,14.294 C49.029,14.394 49.191,14.53 49.328,14.695 C49.4,14.787 49.463,14.886 49.517,14.991 L50.407,14.494 C50.597,14.381 50.858,14.22 51.184,13.998 C51.347,13.892 51.482,13.805 51.587,13.736 L51.293,13.396 C51.234,13.435 51.161,13.485 51.071,13.547 C50.822,13.715 50.602,13.849 50.396,13.955 C50.185,14.067 49.976,14.139 49.761,14.172 C49.705,14.18 49.653,14.184 49.605,14.184 C49.418,14.184 49.253,14.127 49.129,14.021 C49.014,13.916 48.955,13.785 48.955,13.644 L48.436,13.767 L48.318,14.467 L48.492,14.418 L48.618,14.169 L48.845,14.294 L48.845,14.294 Z M53.561,12.258 C53.778,12.081 53.994,11.9 54.211,11.717 C54.316,11.622 54.427,11.526 54.538,11.43 L53.514,11.429 L53.104,11.786 L53.561,12.258 L53.561,12.258 Z M47.16,11.655 L47.762,11.558 L48.074,10.681 L47.027,10.843 L47.16,11.655 L47.16,11.655 Z" id="Fill-7" fill="#1A1918" sketch:type="MSShapeGroup"></path>
                <path d="M45.621,8.285 C45.857,8.285 46.126,8.459 46.43,8.803 L49.506,8.396 C49.535,8.437 49.611,8.526 49.734,8.67 C49.857,8.813 49.947,8.932 50,9.02 C50.193,9.343 50.355,9.686 50.486,10.049 C50.617,10.412 50.592,10.687 50.418,10.871 C50.32,10.957 50.217,11.014 50.111,11.035 C50.044,11.05 49.967,11.057 49.881,11.057 C49.832,11.057 49.781,11.055 49.727,11.05 L49.311,11.76 L49.424,11.814 C49.877,11.553 50.277,11.301 50.625,11.059 C50.975,10.815 51.299,10.561 51.596,10.291 C51.789,10.092 51.9,9.918 51.939,9.784 C51.975,9.645 51.928,9.467 51.803,9.244 C51.979,9.127 52.18,9.013 52.404,8.894 C52.536,8.822 52.652,8.787 52.754,8.787 C52.825,8.787 52.889,8.805 52.945,8.84 C53.084,8.898 53.217,9.027 53.357,9.215 C53.492,9.408 53.598,9.597 53.67,9.776 L56.684,9.749 L56.82,9.686 C57.045,9.904 57.229,10.102 57.373,10.281 C57.518,10.464 57.629,10.665 57.709,10.883 C57.844,11.288 57.854,11.593 57.75,11.802 C57.652,12.008 57.397,12.143 56.99,12.201 C56.676,12.476 56.363,12.755 56.055,13.031 C55.744,13.31 55.344,13.66 54.857,14.085 C55.328,14.547 55.717,14.934 56.037,15.226 C56.365,15.525 56.701,15.808 57.061,16.075 L57.035,17.217 L56.922,18.018 C56.871,18.305 56.801,18.512 56.713,18.632 C56.672,18.688 56.613,18.717 56.539,18.717 C56.455,18.717 56.35,18.681 56.225,18.606 C56.084,18.521 55.957,18.426 55.832,18.319 C55.705,18.212 55.578,18.095 55.449,17.963 C55.514,18.191 55.592,18.485 55.682,18.846 C55.77,19.211 55.797,19.453 55.762,19.58 C55.68,19.836 55.529,20.035 55.305,20.176 C55.082,20.314 54.803,20.44 54.457,20.559 C54.641,20.794 54.801,21.012 54.932,21.215 C55.063,21.416 55.076,21.623 54.979,21.83 C54.889,22.006 54.736,22.14 54.521,22.232 C54.43,22.273 54.344,22.294 54.264,22.294 C54.16,22.294 54.067,22.259 53.986,22.187 L53.475,21.757 C53.352,21.641 53.229,21.568 53.1,21.538 C52.979,21.509 52.793,21.49 52.557,21.483 L51.051,21.498 C50.961,21.597 50.879,21.686 50.801,21.758 C50.723,21.822 50.637,21.883 50.545,21.922 C50.445,21.959 50.351,21.978 50.262,21.978 C50.159,21.978 50.064,21.953 49.979,21.902 C49.816,21.807 49.691,21.658 49.596,21.445 L49.234,17.912 C49.117,17.953 49.016,17.981 48.932,17.992 C48.896,17.999 48.859,18.003 48.82,18.003 C48.764,18.003 48.702,17.996 48.633,17.982 C48.652,18.18 48.615,18.39 48.518,18.614 C48.416,18.839 48.256,18.984 48.043,19.059 L44.947,20.051 C44.863,20.192 44.777,20.329 44.688,20.453 C44.598,20.58 44.506,20.678 44.414,20.744 C44.345,20.784 44.277,20.805 44.21,20.805 C44.168,20.805 44.126,20.797 44.084,20.781 C43.969,20.742 43.859,20.651 43.742,20.496 C43.613,20.345 43.506,20.176 43.41,19.99 C43.32,19.805 43.227,19.594 43.147,19.353 C43.055,19.169 43.051,19.001 43.129,18.85 C43.201,18.694 43.311,18.5 43.449,18.263 L43.686,18.217 L44.182,15.498 C44.223,15.244 44.229,15.035 44.186,14.873 C44.145,14.713 44.045,14.561 43.893,14.425 C44.047,14.358 44.225,14.28 44.418,14.18 C44.615,14.085 44.75,14.018 44.822,13.984 C44.891,13.95 44.961,13.936 45.037,13.933 C45.105,13.936 45.166,13.973 45.213,14.04 C45.381,14.236 45.51,14.426 45.604,14.598 C45.697,14.779 45.727,14.961 45.691,15.146 L45.178,18 L45.77,17.878 L46.465,14.033 C46.264,14.031 46.102,14.002 45.981,13.943 C45.857,13.886 45.772,13.78 45.717,13.628 L45.615,13.395 L45.143,9.877 C45.105,9.682 45.057,9.508 44.984,9.361 C44.918,9.209 44.826,9.068 44.705,8.94 C45.014,8.543 45.295,8.325 45.547,8.291 C45.571,8.287 45.596,8.285 45.621,8.285 L45.621,8.285 Z M48.451,10.369 L46.74,10.634 L46.953,11.941 L47.947,11.781 L48.451,10.369 L48.451,10.369 Z M53.539,12.595 C53.82,12.372 54.096,12.143 54.373,11.907 C54.643,11.665 54.928,11.427 55.209,11.18 L53.42,11.179 L52.74,11.771 L53.539,12.595 L53.539,12.595 Z M49.605,13.934 C49.477,13.934 49.371,13.899 49.293,13.831 C49.223,13.767 49.193,13.692 49.209,13.6 C49.227,13.508 49.25,13.41 49.281,13.31 L48.217,13.562 L48.006,14.814 L48.666,14.629 L48.725,14.513 C48.885,14.601 49.022,14.717 49.135,14.854 C49.246,14.994 49.332,15.159 49.391,15.348 L50.529,14.713 C50.729,14.594 50.994,14.43 51.324,14.205 C51.658,13.986 51.869,13.852 51.967,13.793 L51.344,13.072 C51.305,13.09 51.166,13.178 50.93,13.341 C50.691,13.501 50.479,13.631 50.281,13.733 C50.092,13.834 49.908,13.896 49.723,13.925 C49.682,13.931 49.643,13.934 49.605,13.934 L49.605,13.934 Z M51.162,16.762 L54.408,16.703 L53.236,15.367 C52.893,15.603 52.549,15.835 52.205,16.07 C51.859,16.306 51.51,16.538 51.162,16.762 L51.162,16.762 Z M47.52,17.587 C47.65,17.537 47.768,17.514 47.879,17.509 C47.897,17.508 47.915,17.507 47.934,17.507 C48.027,17.507 48.137,17.52 48.262,17.54 C48.357,17.27 48.436,17.037 48.488,16.84 C48.545,16.642 48.553,16.457 48.525,16.285 L47.732,16.408 L47.52,17.587 L47.52,17.587 Z M53.613,18.311 L50.941,18.364 L51.107,19.807 L52.664,19.805 L53.613,18.311 L53.613,18.311 Z M45.621,7.785 C45.568,7.785 45.518,7.789 45.467,7.798 C45.09,7.849 44.707,8.123 44.311,8.634 L44.047,8.973 L44.342,9.284 C44.421,9.367 44.481,9.458 44.526,9.562 C44.582,9.675 44.619,9.802 44.651,9.971 L45.116,13.438 C45.098,13.436 45.078,13.434 45.059,13.434 C44.864,13.438 44.727,13.473 44.599,13.537 L44.43,13.618 L44.201,13.728 C44.006,13.83 43.84,13.903 43.695,13.966 L42.974,14.275 L43.56,14.798 C43.636,14.865 43.686,14.936 43.701,14.997 C43.715,15.048 43.73,15.164 43.688,15.418 L43.255,17.791 L43.132,17.815 L43.018,18.011 C42.869,18.265 42.753,18.473 42.676,18.639 C42.538,18.904 42.538,19.229 42.683,19.541 C42.777,19.82 42.886,20.055 42.96,20.208 C43.086,20.452 43.215,20.648 43.361,20.82 C43.522,21.033 43.711,21.183 43.924,21.255 C44.009,21.286 44.109,21.305 44.21,21.305 C44.365,21.305 44.519,21.262 44.664,21.177 L44.687,21.164 L44.707,21.149 C44.844,21.051 44.975,20.914 45.096,20.742 C45.156,20.658 45.218,20.566 45.277,20.47 L48.195,19.535 C48.47,19.439 48.69,19.272 48.848,19.044 L49.099,21.496 L49.106,21.576 L49.14,21.65 C49.276,21.955 49.474,22.184 49.725,22.333 C49.888,22.43 50.068,22.479 50.262,22.479 C50.411,22.479 50.565,22.448 50.722,22.39 C50.865,22.329 50.988,22.251 51.119,22.143 C51.172,22.095 51.222,22.046 51.271,21.996 L52.562,21.983 C52.82,21.991 52.942,22.015 52.982,22.024 C53.024,22.034 53.075,22.067 53.131,22.12 L53.664,22.57 C53.828,22.714 54.038,22.794 54.264,22.794 C54.412,22.794 54.566,22.759 54.723,22.69 C55.043,22.552 55.28,22.339 55.424,22.058 C55.604,21.678 55.575,21.287 55.351,20.942 C55.316,20.89 55.281,20.836 55.242,20.779 C55.36,20.723 55.469,20.662 55.569,20.601 C55.894,20.396 56.118,20.105 56.238,19.732 C56.28,19.579 56.286,19.402 56.254,19.169 C56.353,19.201 56.447,19.217 56.539,19.217 C56.771,19.217 56.981,19.111 57.116,18.927 C57.252,18.742 57.349,18.474 57.414,18.104 L57.53,17.287 L57.534,17.258 L57.535,17.227 L57.566,15.828 L57.359,15.674 C57.035,15.433 56.712,15.165 56.374,14.857 C56.149,14.652 55.891,14.399 55.593,14.106 C55.907,13.832 56.17,13.6 56.389,13.403 C56.661,13.159 56.937,12.913 57.214,12.67 C57.711,12.57 58.043,12.351 58.202,12.016 C58.366,11.684 58.361,11.26 58.184,10.725 C58.079,10.441 57.94,10.192 57.766,9.971 C57.605,9.772 57.405,9.557 57.169,9.327 L56.922,9.087 L56.609,9.232 L56.571,9.25 L53.982,9.273 C53.92,9.16 53.849,9.045 53.768,8.929 C53.563,8.656 53.377,8.489 53.175,8.394 C53.047,8.323 52.906,8.287 52.754,8.287 C52.567,8.287 52.375,8.341 52.167,8.453 C51.902,8.594 51.697,8.713 51.525,8.828 L51.14,9.085 L51.367,9.489 C51.429,9.6 51.445,9.659 51.449,9.682 C51.438,9.694 51.387,9.789 51.237,9.942 C51.171,10.002 51.102,10.062 51.029,10.124 C51.012,10.047 50.987,9.965 50.957,9.879 C50.816,9.488 50.639,9.112 50.429,8.763 C50.36,8.648 50.258,8.513 50.114,8.345 C50.011,8.224 49.943,8.147 49.915,8.107 L49.74,7.867 L49.44,7.899 L46.616,8.273 C46.276,7.945 45.949,7.785 45.621,7.785 L45.621,7.785 Z M49.605,14.434 C49.665,14.434 49.729,14.43 49.795,14.42 C49.948,14.396 50.097,14.356 50.244,14.3 L49.607,14.654 C49.582,14.616 49.555,14.579 49.525,14.543 C49.49,14.499 49.452,14.457 49.414,14.418 C49.476,14.429 49.539,14.434 49.605,14.434 L49.605,14.434 Z M51.501,18.853 L52.691,18.83 L52.389,19.305 L51.553,19.306 L51.501,18.853 L51.501,18.853 Z" id="Fill-8" fill="#FFFFFF" sketch:type="MSShapeGroup"></path>
                <path d="M13.967,22.237 C13.193,22.237 5.08,25.203 4.66,28.139 C4.24,31.075 2.799,33.407 2.799,33.407 L14.744,33.407 L13.967,22.237" id="Fill-9" fill="#BBAE92" sketch:type="MSShapeGroup"></path>
                <path d="M2.799,37.751 C2.799,37.751 5.127,49.852 14.125,51.559 C23.123,53.266 14.744,50.846 14.744,50.846 C14.744,50.846 21.725,51.559 22.346,51.402 C22.967,51.247 29.793,44.959 29.793,44.959 L31.654,37.751 L2.799,37.751" id="Fill-10" fill="#36A0CE" sketch:type="MSShapeGroup"></path>
                <path d="M10.4,58.395 C10.4,60.089 9.029,61.461 7.336,61.461 C5.645,61.461 4.271,60.089 4.271,58.395 C4.271,56.703 5.645,55.332 7.336,55.332 C9.029,55.332 10.4,56.703 10.4,58.395" id="Fill-11" fill="#F1AA48" sketch:type="MSShapeGroup"></path>
                <path d="M30.564,59.018 C30.564,60.709 29.191,62.082 27.5,62.082 C25.807,62.082 24.434,60.709 24.434,59.018 C24.434,57.324 25.807,55.952 27.5,55.952 C29.191,55.952 30.564,57.324 30.564,59.018" id="Fill-12" fill="#F1AA48" sketch:type="MSShapeGroup"></path>
                <path d="M27.072,63.915 C24.296,63.915 22.037,61.655 22.037,58.878 C22.037,58.376 22.111,57.883 22.257,57.407 L17.617,55.329 L12.854,57.465 C12.99,57.922 13.059,58.395 13.059,58.878 C13.059,61.655 10.799,63.915 8.021,63.915 C5.245,63.915 2.986,61.655 2.986,58.878 C2.986,56.101 5.245,53.841 8.021,53.841 C9.142,53.841 10.228,54.219 11.115,54.91 L13.9,53.661 L8.202,51.106 C7.78,50.918 7.477,50.556 7.359,50.114 C3.513,47.038 1.311,42.472 1.311,37.557 L1.311,36.036 L30.647,36.036 C31.056,33.79 32.332,29.542 36.146,29.542 C36.985,29.542 37.668,30.225 37.668,31.064 C37.668,31.903 36.985,32.585 36.146,32.585 C35.962,32.585 35.783,32.628 35.582,32.719 C34.892,33.036 34.293,34.005 33.898,35.446 C33.58,36.603 33.493,37.638 33.493,37.647 C33.477,42.266 31.454,46.659 27.934,49.711 C27.936,50.302 27.589,50.857 27.033,51.105 L21.337,53.661 L24.033,54.871 C24.908,54.204 25.976,53.841 27.072,53.841 C29.85,53.841 32.109,56.101 32.109,58.878 C32.109,61.655 29.85,63.915 27.072,63.915 L27.072,63.915 Z M27.074,56.883 C26.915,56.883 26.744,56.91 26.549,56.965 C25.941,57.134 25.446,57.581 25.22,58.16 C25.127,58.4 25.08,58.643 25.08,58.878 C25.08,59.979 25.975,60.873 27.074,60.873 C28.174,60.873 29.068,59.979 29.068,58.878 C29.068,57.777 28.174,56.883 27.074,56.883 L27.074,56.883 Z M8.021,56.883 C6.922,56.883 6.027,57.777 6.027,58.878 C6.027,59.979 6.922,60.873 8.021,60.873 C9.122,60.873 10.018,59.979 10.018,58.878 C10.018,58.659 9.976,58.439 9.89,58.206 C9.678,57.62 9.215,57.176 8.619,56.986 C8.396,56.916 8.206,56.883 8.021,56.883 L8.021,56.883 Z M4.438,39.077 C5.2,45.585 10.793,50.607 17.402,50.607 C24.014,50.607 29.606,45.585 30.366,39.077 L4.438,39.077 L4.438,39.077 Z" id="Fill-13" fill="#010604" sketch:type="MSShapeGroup"></path>
                <path d="M36.146,30.042 C36.711,30.042 37.168,30.499 37.168,31.064 C37.168,31.628 36.711,32.085 36.146,32.085 C35.863,32.085 35.611,32.156 35.375,32.264 C34.356,32.732 33.754,34.08 33.416,35.314 C33.094,36.484 33,37.531 32.994,37.611 C32.977,42.378 30.809,46.649 27.41,49.5 C27.512,49.963 27.279,50.448 26.83,50.648 L20.115,53.661 L24.109,55.453 C24.906,54.762 25.939,54.341 27.072,54.341 C29.576,54.341 31.609,56.376 31.609,58.878 C31.609,61.38 29.576,63.415 27.072,63.415 C24.572,63.415 22.537,61.38 22.537,58.878 C22.537,58.263 22.662,57.675 22.885,57.141 L17.617,54.781 L12.231,57.196 C12.441,57.716 12.559,58.284 12.559,58.878 C12.559,61.38 10.522,63.415 8.021,63.415 C5.52,63.415 3.486,61.38 3.486,58.878 C3.486,56.376 5.52,54.341 8.021,54.341 C9.178,54.341 10.232,54.781 11.035,55.494 L15.123,53.661 L8.406,50.65 C8.066,50.498 7.856,50.183 7.815,49.837 C4.162,46.982 1.811,42.539 1.811,37.557 L1.811,36.536 L31.07,36.536 C31.379,34.522 32.479,30.042 36.146,30.042 L36.146,30.042 Z M17.402,51.107 C24.531,51.107 30.393,45.575 30.916,38.577 L3.889,38.577 C4.414,45.575 10.273,51.107 17.402,51.107 L17.402,51.107 Z M27.074,61.373 C28.449,61.373 29.568,60.254 29.568,58.878 C29.568,57.502 28.449,56.383 27.074,56.383 C26.844,56.383 26.621,56.425 26.412,56.484 C25.65,56.696 25.037,57.253 24.754,57.978 C24.647,58.258 24.58,58.561 24.58,58.878 C24.58,60.254 25.699,61.373 27.074,61.373 L27.074,61.373 Z M8.021,61.373 C9.398,61.373 10.518,60.254 10.518,58.878 C10.518,58.58 10.457,58.299 10.359,58.033 C10.096,57.306 9.51,56.745 8.771,56.51 C8.533,56.435 8.285,56.383 8.021,56.383 C6.647,56.383 5.527,57.502 5.527,58.878 C5.527,60.254 6.647,61.373 8.021,61.373 L8.021,61.373 Z M36.146,29.042 C33.203,29.042 31.076,31.395 30.233,35.536 L0.811,35.536 L0.811,37.557 C0.811,42.573 3.035,47.237 6.928,50.408 C7.11,50.92 7.489,51.335 7.997,51.562 L12.679,53.661 L11.177,54.335 C10.25,53.69 9.151,53.341 8.021,53.341 C4.97,53.341 2.486,55.824 2.486,58.878 C2.486,61.932 4.97,64.415 8.021,64.415 C11.074,64.415 13.559,61.932 13.559,58.878 C13.559,58.496 13.52,58.118 13.441,57.749 L17.617,55.877 L21.666,57.69 C21.58,58.078 21.537,58.476 21.537,58.878 C21.537,61.932 24.021,64.415 27.072,64.415 C30.125,64.415 32.609,61.932 32.609,58.878 C32.609,55.824 30.125,53.341 27.072,53.341 C25.967,53.341 24.888,53.677 23.976,54.297 L22.559,53.661 L27.239,51.56 C27.9,51.267 28.338,50.642 28.42,49.949 C31.941,46.818 33.965,42.368 33.994,37.657 C34.01,37.49 34.104,36.586 34.38,35.58 C34.731,34.301 35.245,33.424 35.793,33.172 C35.924,33.112 36.035,33.085 36.146,33.085 C37.261,33.085 38.168,32.179 38.168,31.064 C38.168,29.949 37.261,29.042 36.146,29.042 L36.146,29.042 Z M5.014,39.577 L29.791,39.577 C28.816,45.562 23.57,50.107 17.402,50.107 C11.236,50.107 5.991,45.562 5.014,39.577 L5.014,39.577 Z M27.074,60.373 C26.25,60.373 25.58,59.702 25.58,58.878 C25.58,58.704 25.616,58.522 25.687,58.338 C25.854,57.908 26.227,57.574 26.68,57.447 C26.836,57.403 26.963,57.383 27.074,57.383 C27.898,57.383 28.568,58.054 28.568,58.878 C28.568,59.702 27.898,60.373 27.074,60.373 L27.074,60.373 Z M8.021,60.373 C7.197,60.373 6.527,59.702 6.527,58.878 C6.527,58.054 7.197,57.383 8.021,57.383 C8.153,57.383 8.296,57.408 8.471,57.463 C8.914,57.604 9.261,57.937 9.419,58.374 C9.486,58.556 9.518,58.719 9.518,58.878 C9.518,59.702 8.847,60.373 8.021,60.373 L8.021,60.373 Z" id="Fill-14" fill="#FFFFFF" sketch:type="MSShapeGroup"></path>
                <path d="M1.311,35.437 L1.311,33.916 C1.311,26.707 7.176,20.842 14.385,20.842 L15.906,20.842 L15.906,35.437 L1.311,35.437 L1.311,35.437 Z M12.865,32.396 L12.865,23.998 C8.542,24.656 5.125,28.072 4.466,32.396 L12.865,32.396 L12.865,32.396 Z" id="Fill-15" fill="#010604" sketch:type="MSShapeGroup"></path>
                <path d="M15.406,21.342 L15.406,34.937 L1.811,34.937 L1.811,33.916 C1.811,26.982 7.451,21.342 14.385,21.342 L15.406,21.342 L15.406,21.342 Z M3.9,32.895 L13.365,32.895 L13.365,23.433 C8.367,23.914 4.383,27.9 3.9,32.895 L3.9,32.895 Z M16.406,20.342 L14.385,20.342 C6.9,20.342 0.811,26.432 0.811,33.916 L0.811,35.937 L16.406,35.937 L16.406,20.342 L16.406,20.342 Z M5.066,31.895 C5.854,28.253 8.723,25.385 12.365,24.599 L12.365,31.895 L5.066,31.895 L5.066,31.895 Z" id="Fill-16" fill="#FFFFFF" sketch:type="MSShapeGroup"></path>
                <path d="M20.391,21.418 L20.391,25.877 M24.803,26.287 L26.418,22.082 M28.834,28.617 L32.652,25.747" id="Stroke-17" stroke="#1A1918" stroke-linecap="round" sketch:type="MSShapeGroup"></path>
            </g>
        </g>
    </g>
</svg>