<?xml version="1.0" encoding="UTF-8" standalone="no"?>
<svg width="120px" height="120px" viewBox="0 0 120 120" version="1.1" xmlns="http://www.w3.org/2000/svg" xmlns:xlink="http://www.w3.org/1999/xlink" xmlns:sketch="http://www.bohemiancoding.com/sketch/ns">
    <!-- Generator: Sketch 3.3.2 (12043) - http://www.bohemiancoding.com/sketch -->
    <title>Mobile Portrait Copy 2</title>
    <desc>Created with Sketch.</desc>
    <defs></defs>
    <g id="baby" stroke="none" stroke-width="1" fill="none" fill-rule="evenodd" sketch:type="MSPage">
        <g id="Mobile-Portrait-Copy-2" sketch:type="MSArtboardGroup">
            <g id="Imported-Layers" sketch:type="MSLayerGroup" transform="translate(33.000000, 25.000000)">
                <path d="M6.881,28.721 C6.152,29.73 7.228,38.092 5.916,38.908 C4.603,39.725 8.791,53.254 8.791,53.254 C8.791,53.254 15.924,57.47 17.244,55.993 C18.563,54.517 19.615,51.408 19.615,51.408 L19.615,45.658 L16.949,42.357 L21.445,36.688 C21.445,36.688 24.617,31.757 24.24,29.852 C23.861,27.946 19.217,27.848 18.648,26.518 C18.08,25.187 12.311,26.518 12.311,26.518 L6.881,28.721" id="Fill-1" fill="#F4CCB1" sketch:type="MSShapeGroup"></path>
                <path d="M44.769,37.622 C45.498,38.631 44.422,46.993 45.734,47.81 C47.047,48.626 42.859,62.155 42.859,62.155 C42.859,62.155 35.726,66.371 34.406,64.895 C33.088,63.418 32.035,60.31 32.035,60.31 L32.035,54.56 L34.701,51.259 L30.205,45.589 C30.205,45.589 27.033,40.658 27.41,38.753 C27.789,36.848 32.434,36.749 33.002,35.419 C33.57,34.089 39.34,35.419 39.34,35.419 L44.769,37.622" id="Fill-2" fill="#F4CCB1" sketch:type="MSShapeGroup"></path>
                <path d="M14.525,24.998 C8.893,24.998 4.309,29.643 4.311,35.282 C4.289,35.693 3.793,45.415 7.885,52.218 C10.295,56.222 13.437,56.82 15.096,56.82 C18.242,56.82 21.135,54.753 21.822,52.013 C22.842,47.947 21.047,45.756 19.859,44.306 C19.203,43.504 18.834,43.028 18.883,42.579 C18.938,42.074 19.488,41.088 21.805,39.259 C22.973,38.337 24.379,36.407 24.715,34.774 C25.316,31.839 24.939,29.515 23.596,27.867 C21.523,25.323 17.658,24.998 14.525,24.998 L14.525,24.998 Z M22.279,34.274 C22.078,35.257 21.049,36.687 20.266,37.307 C17.728,39.312 16.576,40.808 16.412,42.31 C16.25,43.817 17.146,44.912 17.937,45.878 C19.062,47.255 20.129,48.555 19.412,51.408 C19,53.05 17.104,54.336 15.096,54.336 C13.139,54.336 11.334,53.129 10.014,50.937 C6.322,44.798 6.787,35.513 6.793,35.352 C6.793,31.014 10.262,27.483 14.525,27.483 C17.109,27.483 20.258,27.705 21.67,29.437 C22.519,30.477 22.725,32.104 22.279,34.274 L22.279,34.274 Z" id="Fill-3" fill="#1A1918" sketch:type="MSShapeGroup"></path>
                <path d="M14.525,24.998 C8.893,24.998 4.309,29.643 4.311,35.282 C4.289,35.693 3.793,45.415 7.885,52.218 C10.295,56.222 13.437,56.82 15.096,56.82 C18.242,56.82 21.135,54.753 21.822,52.013 C22.842,47.947 21.047,45.756 19.859,44.306 C19.203,43.504 18.834,43.028 18.883,42.579 C18.938,42.074 19.488,41.088 21.805,39.259 C22.973,38.337 24.379,36.407 24.715,34.774 C25.316,31.839 24.939,29.515 23.596,27.867 C21.523,25.323 17.658,24.998 14.525,24.998 L14.525,24.998 Z M22.279,34.274 C22.078,35.257 21.049,36.687 20.266,37.307 C17.728,39.312 16.576,40.808 16.412,42.31 C16.25,43.817 17.146,44.912 17.937,45.878 C19.062,47.255 20.129,48.555 19.412,51.408 C19,53.05 17.104,54.336 15.096,54.336 C13.139,54.336 11.334,53.129 10.014,50.937 C6.322,44.798 6.787,35.513 6.793,35.352 C6.793,31.014 10.262,27.483 14.525,27.483 C17.109,27.483 20.258,27.705 21.67,29.437 C22.519,30.477 22.725,32.104 22.279,34.274 L22.279,34.274 Z" id="Stroke-4" stroke="#FFFFFF" stroke-width="0.5" sketch:type="MSShapeGroup"></path>
                <path d="M21.24,18.425 C22.783,18.425 24.035,19.676 24.035,21.22 C24.035,22.764 22.783,24.015 21.24,24.015 C19.697,24.015 18.445,22.764 18.445,21.22 C18.445,19.676 19.697,18.425 21.24,18.425 L21.24,18.425 Z" id="Fill-5" fill="#1A1918" sketch:type="MSShapeGroup"></path>
                <path d="M21.24,18.425 C22.783,18.425 24.035,19.676 24.035,21.22 C24.035,22.764 22.783,24.015 21.24,24.015 C19.697,24.015 18.445,22.764 18.445,21.22 C18.445,19.676 19.697,18.425 21.24,18.425 L21.24,18.425 Z" id="Stroke-6" stroke="#FFFFFF" stroke-width="0.5" sketch:type="MSShapeGroup"></path>
                <path d="M14.967,18.837 C16.225,18.837 17.244,19.857 17.244,21.114 C17.244,22.372 16.225,23.392 14.967,23.392 C13.709,23.392 12.689,22.372 12.689,21.114 C12.689,19.857 13.709,18.837 14.967,18.837 L14.967,18.837 Z" id="Fill-7" fill="#1A1918" sketch:type="MSShapeGroup"></path>
                <path d="M14.967,18.837 C16.225,18.837 17.244,19.857 17.244,21.114 C17.244,22.372 16.225,23.392 14.967,23.392 C13.709,23.392 12.689,22.372 12.689,21.114 C12.689,19.857 13.709,18.837 14.967,18.837 L14.967,18.837 Z" id="Stroke-8" stroke="#FFFFFF" stroke-width="0.5" sketch:type="MSShapeGroup"></path>
                <path d="M10.348,20.741 C11.318,20.741 12.107,21.528 12.107,22.501 C12.107,23.473 11.318,24.261 10.348,24.261 C9.375,24.261 8.588,23.473 8.588,22.501 C8.588,21.528 9.375,20.741 10.348,20.741 L10.348,20.741 Z" id="Fill-9" fill="#1A1918" sketch:type="MSShapeGroup"></path>
                <path d="M10.348,20.741 C11.318,20.741 12.107,21.528 12.107,22.501 C12.107,23.473 11.318,24.261 10.348,24.261 C9.375,24.261 8.588,23.473 8.588,22.501 C8.588,21.528 9.375,20.741 10.348,20.741 L10.348,20.741 Z" id="Stroke-10" stroke="#FFFFFF" stroke-width="0.5" sketch:type="MSShapeGroup"></path>
                <path d="M6.678,23.287 C7.455,23.287 8.086,23.918 8.086,24.696 C8.086,25.474 7.455,26.104 6.678,26.104 C5.898,26.104 5.268,25.474 5.268,24.696 C5.268,23.918 5.898,23.287 6.678,23.287 L6.678,23.287 Z" id="Fill-11" fill="#1A1918" sketch:type="MSShapeGroup"></path>
                <path d="M6.678,23.287 C7.455,23.287 8.086,23.918 8.086,24.696 C8.086,25.474 7.455,26.104 6.678,26.104 C5.898,26.104 5.268,25.474 5.268,24.696 C5.268,23.918 5.898,23.287 6.678,23.287 L6.678,23.287 Z" id="Stroke-12" stroke="#FFFFFF" stroke-width="0.5" sketch:type="MSShapeGroup"></path>
                <path d="M4.652,26.518 C5.238,26.518 5.713,26.991 5.713,27.577 C5.713,28.162 5.238,28.636 4.652,28.636 C4.068,28.636 3.594,28.162 3.594,27.577 C3.594,26.991 4.068,26.518 4.652,26.518 L4.652,26.518 Z" id="Fill-13" fill="#1A1918" sketch:type="MSShapeGroup"></path>
                <path d="M4.652,26.518 C5.238,26.518 5.713,26.991 5.713,27.577 C5.713,28.162 5.238,28.636 4.652,28.636 C4.068,28.636 3.594,28.162 3.594,27.577 C3.594,26.991 4.068,26.518 4.652,26.518 L4.652,26.518 Z" id="Stroke-14" stroke="#FFFFFF" stroke-width="0.5" sketch:type="MSShapeGroup"></path>
                <path d="M29.844,48.368 C32.16,50.197 32.711,51.183 32.766,51.689 C32.814,52.138 32.445,52.612 31.789,53.415 C30.602,54.865 28.807,57.057 29.826,61.122 C30.514,63.862 33.406,65.93 36.553,65.93 C38.211,65.93 41.353,65.333 43.764,61.327 C47.855,54.524 47.361,44.803 47.34,44.461 C47.34,38.751 42.756,34.107 37.123,34.107 C33.988,34.107 30.125,34.434 28.051,36.975 C26.707,38.622 26.332,40.945 26.934,43.882 C27.27,45.516 28.678,47.446 29.844,48.368 L29.844,48.368 Z M29.978,38.547 C31.391,36.815 34.539,36.594 37.125,36.594 C41.387,36.594 44.855,40.124 44.857,44.532 C44.863,44.624 45.336,53.894 41.635,60.047 C40.314,62.24 38.512,63.446 36.553,63.446 C34.543,63.446 32.646,62.16 32.236,60.517 C31.521,57.665 32.586,56.366 33.711,54.989 C34.502,54.021 35.398,52.927 35.236,51.42 C35.072,49.918 33.92,48.421 31.385,46.418 C30.6,45.798 29.57,44.367 29.369,43.384 C28.924,41.215 29.129,39.588 29.978,38.547 L29.978,38.547 Z" id="Fill-15" fill="#1A1918" sketch:type="MSShapeGroup"></path>
                <path d="M29.844,48.368 C32.16,50.197 32.711,51.183 32.766,51.689 C32.814,52.138 32.445,52.612 31.789,53.415 C30.602,54.865 28.807,57.057 29.826,61.122 C30.514,63.862 33.406,65.93 36.553,65.93 C38.211,65.93 41.353,65.333 43.764,61.327 C47.855,54.524 47.361,44.803 47.34,44.461 C47.34,38.751 42.756,34.107 37.123,34.107 C33.988,34.107 30.125,34.434 28.051,36.975 C26.707,38.622 26.332,40.945 26.934,43.882 C27.27,45.516 28.678,47.446 29.844,48.368 L29.844,48.368 Z M29.978,38.547 C31.391,36.815 34.539,36.594 37.125,36.594 C41.387,36.594 44.855,40.124 44.857,44.532 C44.863,44.624 45.336,53.894 41.635,60.047 C40.314,62.24 38.512,63.446 36.553,63.446 C34.543,63.446 32.646,62.16 32.236,60.517 C31.521,57.665 32.586,56.366 33.711,54.989 C34.502,54.021 35.398,52.927 35.236,51.42 C35.072,49.918 33.92,48.421 31.385,46.418 C30.6,45.798 29.57,44.367 29.369,43.384 C28.924,41.215 29.129,39.588 29.978,38.547 L29.978,38.547 Z" id="Stroke-16" stroke="#FFFFFF" stroke-width="0.5" sketch:type="MSShapeGroup"></path>
                <path d="M30.41,27.535 C31.953,27.535 33.205,28.787 33.205,30.331 C33.205,31.874 31.953,33.126 30.41,33.126 C28.865,33.126 27.613,31.874 27.613,30.331 C27.613,28.787 28.865,27.535 30.41,27.535 L30.41,27.535 Z" id="Fill-17" fill="#1A1918" sketch:type="MSShapeGroup"></path>
                <path d="M30.41,27.535 C31.953,27.535 33.205,28.787 33.205,30.331 C33.205,31.874 31.953,33.126 30.41,33.126 C28.865,33.126 27.613,31.874 27.613,30.331 C27.613,28.787 28.865,27.535 30.41,27.535 L30.41,27.535 Z" id="Stroke-18" stroke="#FFFFFF" stroke-width="0.5" sketch:type="MSShapeGroup"></path>
                <path d="M36.684,27.947 C37.941,27.947 38.961,28.967 38.961,30.226 C38.961,31.483 37.941,32.503 36.684,32.503 C35.426,32.503 34.406,31.483 34.406,30.226 C34.406,28.968 35.426,27.947 36.684,27.947 L36.684,27.947 Z" id="Fill-19" fill="#1A1918" sketch:type="MSShapeGroup"></path>
                <path d="M36.684,27.947 C37.941,27.947 38.961,28.967 38.961,30.226 C38.961,31.483 37.941,32.503 36.684,32.503 C35.426,32.503 34.406,31.483 34.406,30.226 C34.406,28.968 35.426,27.947 36.684,27.947 L36.684,27.947 Z" id="Stroke-20" stroke="#FFFFFF" stroke-width="0.5" sketch:type="MSShapeGroup"></path>
                <path d="M41.303,29.852 C42.273,29.852 43.062,30.64 43.062,31.612 C43.062,32.584 42.273,33.372 41.303,33.372 C40.33,33.372 39.543,32.584 39.543,31.612 C39.543,30.64 40.33,29.852 41.303,29.852 L41.303,29.852 Z" id="Fill-21" fill="#1A1918" sketch:type="MSShapeGroup"></path>
                <path d="M41.303,29.852 C42.273,29.852 43.062,30.64 43.062,31.612 C43.062,32.584 42.273,33.372 41.303,33.372 C40.33,33.372 39.543,32.584 39.543,31.612 C39.543,30.64 40.33,29.852 41.303,29.852 L41.303,29.852 Z" id="Stroke-22" stroke="#FFFFFF" stroke-width="0.5" sketch:type="MSShapeGroup"></path>
                <path d="M44.973,32.399 C45.75,32.399 46.381,33.028 46.381,33.807 C46.381,34.585 45.75,35.216 44.973,35.216 C44.195,35.216 43.564,34.585 43.564,33.807 C43.564,33.028 44.195,32.399 44.973,32.399 L44.973,32.399 Z" id="Fill-23" fill="#1A1918" sketch:type="MSShapeGroup"></path>
                <path d="M44.973,32.399 C45.75,32.399 46.381,33.028 46.381,33.807 C46.381,34.585 45.75,35.216 44.973,35.216 C44.195,35.216 43.564,34.585 43.564,33.807 C43.564,33.028 44.195,32.399 44.973,32.399 L44.973,32.399 Z" id="Stroke-24" stroke="#FFFFFF" stroke-width="0.5" sketch:type="MSShapeGroup"></path>
                <path d="M46.996,35.628 C47.582,35.628 48.057,36.103 48.057,36.688 C48.057,37.272 47.582,37.747 46.996,37.747 C46.412,37.747 45.937,37.272 45.937,36.688 C45.937,36.103 46.412,35.628 46.996,35.628 L46.996,35.628 Z" id="Fill-25" fill="#1A1918" sketch:type="MSShapeGroup"></path>
                <path d="M46.996,35.628 C47.582,35.628 48.057,36.103 48.057,36.688 C48.057,37.272 47.582,37.747 46.996,37.747 C46.412,37.747 45.937,37.272 45.937,36.688 C45.937,36.103 46.412,35.628 46.996,35.628 L46.996,35.628 Z" id="Stroke-26" stroke="#FFFFFF" stroke-width="0.5" sketch:type="MSShapeGroup"></path>
                <path d="M7.823,2.584 L8.999,5.352 C9.655,5.267 10.226,5.265 10.717,5.344 L10.611,5.998 C10.296,6.305 9.977,6.506 9.654,6.603 L9.559,6.588 L9.39,6.469 L9.346,6.74 C9.314,6.936 9.521,8.209 9.967,10.561 L10.056,10.575 C10.127,10.193 10.813,9.508 12.113,8.524 L12.663,8.613 C12.57,9.18 11.863,10.02 10.538,11.129 L10.241,11.75 C10.191,12.059 10.381,12.66 10.807,13.552 L10.909,13.568 C11.432,12.672 11.699,12.177 11.715,12.081 L12.281,12.173 C12.221,12.545 11.786,13.649 10.981,15.486 L10.416,15.395 C10.084,15.206 9.823,14.274 9.635,12.602 L9.54,12.586 L8.553,13.374 L7.812,13.254 C7.836,13.113 8.312,12.526 9.243,11.49 C8.952,9.359 8.577,7.549 8.116,6.06 C7.334,6.067 6.242,6.146 4.84,6.295 L4.867,6.773 L4.766,6.756 C4.754,6.824 4.781,6.864 4.85,6.875 C3.166,11.743 2.105,14.142 1.671,14.07 L1.208,13.996 C1.219,13.932 1.204,13.835 1.165,13.702 C2.676,10.649 3.531,8.502 3.733,7.26 L3.9,6.232 L2.881,6.066 C2.759,6.046 2.712,5.945 2.741,5.765 C2.771,5.578 2.873,5.342 3.045,5.054 C3.675,5.277 4.066,5.4 4.221,5.426 C5.58,5.335 6.827,5.287 7.964,5.28 C7.381,3.8 7.105,2.959 7.139,2.76 L7.152,2.672 C7.173,2.544 7.396,2.516 7.823,2.584 L7.823,2.584 Z M6.769,8.513 L7.216,8.684 C6.265,12.209 5.541,13.932 5.043,13.852 C4.502,13.571 3.845,13.116 3.073,12.483 L3.163,11.934 C3.988,12.318 4.588,12.541 4.96,12.602 L5.054,12.617 C5.585,11.326 5.912,10.3 6.036,9.538 L5.751,9.492 C5.109,9.83 4.644,9.976 4.354,9.928 L4.164,9.897 L4.238,9.436 C4.533,9.144 5.375,8.835 6.769,8.513 L6.769,8.513 Z M11.981,1.642 C13.348,2.227 13.983,2.807 13.89,3.383 L13.845,3.661 C13.307,3.574 12.623,3.081 11.797,2.184 L11.738,1.986 L11.767,1.803 C11.807,1.68 11.877,1.625 11.981,1.642 L11.981,1.642 Z" id="Fill-27" fill="#1A1918" sketch:type="MSShapeGroup"></path>
                <path d="M7.823,2.584 L8.999,5.352 C9.655,5.267 10.226,5.265 10.717,5.344 L10.611,5.998 C10.296,6.305 9.977,6.506 9.654,6.603 L9.559,6.588 L9.39,6.469 L9.346,6.74 C9.314,6.936 9.521,8.209 9.967,10.561 L10.056,10.575 C10.127,10.193 10.813,9.508 12.113,8.524 L12.663,8.613 C12.57,9.18 11.863,10.02 10.538,11.129 L10.241,11.75 C10.191,12.059 10.381,12.66 10.807,13.552 L10.909,13.568 C11.432,12.672 11.699,12.177 11.715,12.081 L12.281,12.173 C12.221,12.545 11.786,13.649 10.981,15.486 L10.416,15.395 C10.084,15.206 9.823,14.274 9.635,12.602 L9.54,12.586 L8.553,13.374 L7.812,13.254 C7.836,13.113 8.312,12.526 9.243,11.49 C8.952,9.359 8.577,7.549 8.116,6.06 C7.334,6.067 6.242,6.146 4.84,6.295 L4.867,6.773 L4.766,6.756 C4.754,6.824 4.781,6.864 4.85,6.875 C3.166,11.743 2.105,14.142 1.671,14.07 L1.208,13.996 C1.219,13.932 1.204,13.835 1.165,13.702 C2.676,10.649 3.531,8.502 3.733,7.26 L3.9,6.232 L2.881,6.066 C2.759,6.046 2.712,5.945 2.741,5.765 C2.771,5.578 2.873,5.342 3.045,5.054 C3.675,5.277 4.066,5.4 4.221,5.426 C5.58,5.335 6.827,5.287 7.964,5.28 C7.381,3.8 7.105,2.959 7.139,2.76 L7.152,2.672 C7.173,2.544 7.396,2.516 7.823,2.584 L7.823,2.584 Z M6.769,8.513 L7.216,8.684 C6.265,12.209 5.541,13.932 5.043,13.852 C4.502,13.571 3.845,13.116 3.073,12.483 L3.163,11.934 C3.988,12.318 4.588,12.541 4.96,12.602 L5.054,12.617 C5.585,11.326 5.912,10.3 6.036,9.538 L5.751,9.492 C5.109,9.83 4.644,9.976 4.354,9.928 L4.164,9.897 L4.238,9.436 C4.533,9.144 5.375,8.835 6.769,8.513 L6.769,8.513 Z M11.981,1.642 C13.348,2.227 13.983,2.807 13.89,3.383 L13.845,3.661 C13.307,3.574 12.623,3.081 11.797,2.184 L11.738,1.986 L11.767,1.803 C11.807,1.68 11.877,1.625 11.981,1.642 L11.981,1.642 Z" id="Stroke-28" stroke="#1A1918" sketch:type="MSShapeGroup"></path>
                <path d="M26.156,4.519 L26.436,4.564 C26.555,4.602 26.605,4.672 26.589,4.777 L26.543,5.063 C26.494,5.361 25.408,6.773 23.287,9.293 L23.463,9.322 C24.742,9.152 25.953,8.939 27.093,8.677 C27.338,8.805 27.5,8.986 27.584,9.224 L27.568,9.319 C27.508,9.695 26.557,9.89 24.717,9.902 C24.119,10.057 23.814,10.168 23.805,10.235 C24.57,11.361 25.395,13.116 26.277,15.502 C27.103,16.283 27.504,16.76 27.476,16.933 C27.283,17.307 27.18,17.545 27.162,17.649 L26.885,17.605 C25.519,15.864 24.752,14.531 24.583,13.601 C24.668,13.08 24.014,12.02 22.622,10.42 L22.526,10.404 C21.959,10.41 21.65,10.553 21.604,10.835 C21.542,11.22 21.497,11.687 21.469,12.236 C21.309,12.848 21.203,13.307 21.152,13.615 L21.136,14.282 C22.643,13.317 23.511,12.854 23.742,12.892 L23.667,13.354 C22.056,14.935 20.951,15.676 20.353,15.579 C20.08,15.278 19.917,15.124 19.862,15.115 L20.332,13.391 L20.556,10.852 C19.177,11.01 17.929,11.061 16.812,11.004 C16.702,10.926 16.615,10.881 16.547,10.87 L16.579,10.674 L16.777,10.051 L17.424,10.155 C18.548,10.338 19.657,10.167 20.752,9.642 L20.767,9.554 C20.99,8.175 21.011,6.683 20.824,5.075 C21.082,4.866 21.32,4.778 21.537,4.814 C22.091,4.903 22.135,6.374 21.672,9.226 L21.611,9.6 L21.889,9.646 C21.96,9.643 23.078,8.233 25.243,5.416 C25.695,4.844 25.999,4.544 26.156,4.519 L26.156,4.519 Z" id="Fill-29" fill="#1A1918" sketch:type="MSShapeGroup"></path>
                <path d="M26.156,4.519 L26.436,4.564 C26.555,4.602 26.605,4.672 26.589,4.777 L26.543,5.063 C26.494,5.361 25.408,6.773 23.287,9.293 L23.463,9.322 C24.742,9.152 25.953,8.939 27.093,8.677 C27.338,8.805 27.5,8.986 27.584,9.224 L27.568,9.319 C27.508,9.695 26.557,9.89 24.717,9.902 C24.119,10.057 23.814,10.168 23.805,10.235 C24.57,11.361 25.395,13.116 26.277,15.502 C27.103,16.283 27.504,16.76 27.476,16.933 C27.283,17.307 27.18,17.545 27.162,17.649 L26.885,17.605 C25.519,15.864 24.752,14.531 24.583,13.601 C24.668,13.08 24.014,12.02 22.622,10.42 L22.526,10.404 C21.959,10.41 21.65,10.553 21.604,10.835 C21.542,11.22 21.497,11.687 21.469,12.236 C21.309,12.848 21.203,13.307 21.152,13.615 L21.136,14.282 C22.643,13.317 23.511,12.854 23.742,12.892 L23.667,13.354 C22.056,14.935 20.951,15.676 20.353,15.579 C20.08,15.278 19.917,15.124 19.862,15.115 L20.332,13.391 L20.556,10.852 C19.177,11.01 17.929,11.061 16.812,11.004 C16.702,10.926 16.615,10.881 16.547,10.87 L16.579,10.674 L16.777,10.051 L17.424,10.155 C18.548,10.338 19.657,10.167 20.752,9.642 L20.767,9.554 C20.99,8.175 21.011,6.683 20.824,5.075 C21.082,4.866 21.32,4.778 21.537,4.814 C22.091,4.903 22.135,6.374 21.672,9.226 L21.611,9.6 L21.889,9.646 C21.96,9.643 23.078,8.233 25.243,5.416 C25.695,4.844 25.999,4.544 26.156,4.519 L26.156,4.519 Z" id="Stroke-30" stroke="#1A1918" sketch:type="MSShapeGroup"></path>
                <path d="M41.688,8.663 L42.247,8.754 C42.369,8.774 42.425,9.035 42.412,9.541 C41.644,11.514 40.84,14.117 39.998,17.348 C40.039,17.462 40.044,17.621 40.01,17.825 C39.916,17.81 39.772,17.915 39.582,18.14 L38.764,17.902 C36.353,17.957 34.894,17.943 34.387,17.86 C34.232,17.323 34.207,15.924 34.309,13.661 C33.961,10.705 33.845,8.873 33.959,8.167 C34.184,8.077 34.377,8.046 34.54,8.072 C34.758,8.107 34.877,8.955 34.894,10.614 L34.983,10.629 C35.232,10.357 36.845,9.824 39.821,9.029 C40.591,8.707 41.213,8.586 41.688,8.663 L41.688,8.663 Z M34.908,11.092 L34.939,13.859 C37.311,13.674 38.752,13.59 39.266,13.607 L39.25,13.703 C39.292,13.816 39.303,13.944 39.279,14.085 L39.235,14.356 C39.214,14.487 39.111,14.538 38.931,14.508 L38.572,14.354 C38.203,14.479 37.044,14.576 35.099,14.646 C35.121,16.051 35.207,16.892 35.358,17.167 L39.295,16.948 C39.657,15.49 40.384,12.971 41.473,9.389 L41.385,9.374 C41.141,9.334 39.105,9.927 35.282,11.152 L34.908,11.092 L34.908,11.092 Z" id="Fill-31" fill="#1A1918" sketch:type="MSShapeGroup"></path>
                <path d="M41.688,8.663 L42.247,8.754 C42.369,8.774 42.425,9.035 42.412,9.541 C41.644,11.514 40.84,14.117 39.998,17.348 C40.039,17.462 40.044,17.621 40.01,17.825 C39.916,17.81 39.772,17.915 39.582,18.14 L38.764,17.902 C36.353,17.957 34.894,17.943 34.387,17.86 C34.232,17.323 34.207,15.924 34.309,13.661 C33.961,10.705 33.845,8.873 33.959,8.167 C34.184,8.077 34.377,8.046 34.54,8.072 C34.758,8.107 34.877,8.955 34.894,10.614 L34.983,10.629 C35.232,10.357 36.845,9.824 39.821,9.029 C40.591,8.707 41.213,8.586 41.688,8.663 L41.688,8.663 Z M34.908,11.092 L34.939,13.859 C37.311,13.674 38.752,13.59 39.266,13.607 L39.25,13.703 C39.292,13.816 39.303,13.944 39.279,14.085 L39.235,14.356 C39.214,14.487 39.111,14.538 38.931,14.508 L38.572,14.354 C38.203,14.479 37.044,14.576 35.099,14.646 C35.121,16.051 35.207,16.892 35.358,17.167 L39.295,16.948 C39.657,15.49 40.384,12.971 41.473,9.389 L41.385,9.374 C41.141,9.334 39.105,9.927 35.282,11.152 L34.908,11.092 L34.908,11.092 Z" id="Stroke-32" stroke="#1A1918" sketch:type="MSShapeGroup"></path>
                <path d="M49.795,12.549 C49.903,13.428 49.945,13.943 49.92,14.097 C49.811,14.772 49.57,15.878 49.2,17.414 L49.362,17.531 L49.457,17.547 C49.491,17.338 49.978,16.879 50.916,16.171 L51.201,16.218 C50.816,17.215 49.932,18.343 48.551,19.598 L48.178,19.537 C48.23,19.211 48.168,19.009 47.99,18.934 C48.484,17.065 48.843,15.441 49.066,14.063 C49.107,13.814 49.067,13.68 48.944,13.659 C48.398,13.756 47.439,13.789 46.067,13.757 L46.157,13.206 C46.334,12.947 47.145,12.855 48.588,12.932 C48.619,12.741 49.021,12.613 49.795,12.549 L49.795,12.549 Z M49.5,9.646 L49.594,9.661 C50.443,9.906 50.841,10.193 50.787,10.525 L50.631,10.975 L49.068,10.532 L49.175,9.88 C49.189,9.789 49.297,9.71 49.5,9.646 L49.5,9.646 Z M56.587,10.609 L57.239,10.716 C56.491,12.571 56.102,13.588 56.074,13.765 C56.066,13.814 56.066,14.005 56.078,14.337 C56.003,14.8 54.951,15.201 52.924,15.542 C52.715,16.456 52.574,17.132 52.503,17.566 L52.457,17.852 L53.082,18.136 C53.29,18.17 53.449,18.164 53.558,18.122 C53.603,18.129 53.782,18.19 54.095,18.301 C56.532,18.585 57.793,18.474 57.876,17.965 C58.075,17.109 58.269,16.696 58.453,16.727 L58.907,16.898 L58.787,17.64 C58.576,18.94 58.128,19.534 57.443,19.423 C57.303,19.4 57.184,19.349 57.085,19.268 C56.487,19.361 55.01,19.279 52.65,19.022 C51.945,18.841 51.498,18.644 51.309,18.426 C51.545,17.409 51.705,16.641 51.79,16.119 L51.881,15.561 L51.736,15.251 C51.912,14.451 52.1,14.067 52.299,14.1 L52.395,14.115 C52.703,14.165 52.832,14.35 52.779,14.667 C54.018,14.868 54.939,14.285 55.548,12.919 L55.729,11.804 C54.964,11.935 54.387,11.969 53.996,11.905 L53.16,11.77 C53.037,11.75 52.986,11.678 53.007,11.557 L53.038,11.365 C53.061,11.221 54.139,11.045 56.269,10.837 L56.587,10.609 L56.587,10.609 Z" id="Fill-33" fill="#1A1918" sketch:type="MSShapeGroup"></path>
                <path d="M49.795,12.549 C49.903,13.428 49.945,13.943 49.92,14.097 C49.811,14.772 49.57,15.878 49.2,17.414 L49.362,17.531 L49.457,17.547 C49.491,17.338 49.978,16.879 50.916,16.171 L51.201,16.218 C50.816,17.215 49.932,18.343 48.551,19.598 L48.178,19.537 C48.23,19.211 48.168,19.009 47.99,18.934 C48.484,17.065 48.843,15.441 49.066,14.063 C49.107,13.814 49.067,13.68 48.944,13.659 C48.398,13.756 47.439,13.789 46.067,13.757 L46.157,13.206 C46.334,12.947 47.145,12.855 48.588,12.932 C48.619,12.741 49.021,12.613 49.795,12.549 L49.795,12.549 Z M49.5,9.646 L49.594,9.661 C50.443,9.906 50.841,10.193 50.787,10.525 L50.631,10.975 L49.068,10.532 L49.175,9.88 C49.189,9.789 49.297,9.71 49.5,9.646 L49.5,9.646 Z M56.587,10.609 L57.239,10.716 C56.491,12.571 56.102,13.588 56.074,13.765 C56.066,13.814 56.066,14.005 56.078,14.337 C56.003,14.8 54.951,15.201 52.924,15.542 C52.715,16.456 52.574,17.132 52.503,17.566 L52.457,17.852 L53.082,18.136 C53.29,18.17 53.449,18.164 53.558,18.122 C53.603,18.129 53.782,18.19 54.095,18.301 C56.532,18.585 57.793,18.474 57.876,17.965 C58.075,17.109 58.269,16.696 58.453,16.727 L58.907,16.898 L58.787,17.64 C58.576,18.94 58.128,19.534 57.443,19.423 C57.303,19.4 57.184,19.349 57.085,19.268 C56.487,19.361 55.01,19.279 52.65,19.022 C51.945,18.841 51.498,18.644 51.309,18.426 C51.545,17.409 51.705,16.641 51.79,16.119 L51.881,15.561 L51.736,15.251 C51.912,14.451 52.1,14.067 52.299,14.1 L52.395,14.115 C52.703,14.165 52.832,14.35 52.779,14.667 C54.018,14.868 54.939,14.285 55.548,12.919 L55.729,11.804 C54.964,11.935 54.387,11.969 53.996,11.905 L53.16,11.77 C53.037,11.75 52.986,11.678 53.007,11.557 L53.038,11.365 C53.061,11.221 54.139,11.045 56.269,10.837 L56.587,10.609 L56.587,10.609 Z" id="Stroke-34" stroke="#1A1918" sketch:type="MSShapeGroup"></path>
                <path d="M10.231,15.946 L10.152,15.901 C9.824,15.714 9.489,15.281 9.229,13.536 L8.676,13.978 L7.221,13.741 L7.304,13.246 C7.332,13.076 7.361,12.901 8.701,11.402 C8.442,9.569 8.117,7.971 7.731,6.641 C7.117,6.661 6.341,6.718 5.413,6.81 L5.358,6.967 L5.384,7.439 L5.205,7.41 C5.054,7.845 4.909,8.254 4.771,8.638 C5.184,8.479 5.774,8.3 6.642,8.099 L6.789,8.065 L7.802,8.449 L7.684,8.886 C6.304,14.002 5.656,14.427 5.061,14.427 L5.02,14.427 L4.868,14.404 L4.798,14.368 C4.281,14.102 3.686,13.698 2.983,13.14 C2.259,14.645 1.956,14.645 1.676,14.646 L1.113,14.562 L0.624,14.482 L0.697,14.006 C0.697,14.007 0.615,13.729 0.615,13.729 L0.702,13.554 C2.182,10.563 3.03,8.442 3.226,7.252 L3.311,6.718 L2.785,6.632 C2.449,6.578 2.147,6.287 2.233,5.758 C2.272,5.509 2.394,5.217 2.603,4.868 L2.813,4.518 L3.199,4.655 C3.87,4.894 4.136,4.972 4.239,4.997 C5.296,4.927 6.296,4.882 7.223,4.863 C6.565,3.135 6.602,2.915 6.63,2.75 C6.665,2.534 6.785,2.121 7.433,2.121 C7.554,2.121 7.706,2.134 7.889,2.164 L8.161,2.208 L9.3,4.888 C9.519,4.869 9.73,4.859 9.932,4.859 C10.233,4.859 10.519,4.881 10.783,4.924 L11.278,5.003 L11.063,6.314 L10.944,6.429 C10.592,6.773 10.224,7.01 9.848,7.134 C9.889,7.441 9.991,8.106 10.249,9.501 C10.582,9.168 11.072,8.746 11.796,8.198 L11.967,8.068 L13.224,8.273 L13.142,8.769 C13.027,9.461 12.323,10.335 10.929,11.514 L10.719,11.954 C10.722,12.036 10.751,12.229 10.901,12.624 C11.153,12.174 11.207,12.051 11.219,12.019 L11.3,11.526 L11.779,11.661 L12.84,11.833 L12.759,12.326 C12.713,12.613 12.519,13.262 11.425,15.759 L11.269,16.114 L10.231,15.946 L10.231,15.946 Z M3.624,11.675 C4.143,11.908 4.495,12.039 4.733,12.11 C5.006,11.421 5.214,10.814 5.355,10.297 C4.999,10.441 4.705,10.51 4.452,10.51 C4.384,10.51 4.318,10.504 4.259,10.494 L4.098,10.468 C3.927,10.917 3.769,11.317 3.624,11.675 L3.624,11.675 Z M13.75,4.228 C13.091,4.12 12.327,3.587 11.413,2.596 L11.335,2.511 L11.21,2.091 L11.261,1.792 C11.372,1.411 11.623,1.212 11.932,1.212 L12.046,1.221 L12.106,1.231 L12.163,1.255 C12.759,1.51 14.572,2.284 14.368,3.536 L14.244,4.309 L13.75,4.228 L13.75,4.228 Z" id="Fill-35" fill="#1A1918" sketch:type="MSShapeGroup"></path>
                <path d="M11.932,1.712 C11.942,1.712 11.955,1.713 11.967,1.715 C13.334,2.299 13.969,2.881 13.875,3.456 L13.83,3.734 C13.291,3.647 12.607,3.153 11.781,2.257 L11.723,2.06 L11.754,1.875 C11.787,1.767 11.847,1.712 11.932,1.712 L11.932,1.712 Z M7.433,2.621 C7.533,2.621 7.658,2.633 7.809,2.657 L8.984,5.425 C9.322,5.381 9.638,5.359 9.932,5.359 C10.208,5.359 10.465,5.379 10.703,5.417 L10.596,6.07 C10.281,6.377 9.963,6.58 9.639,6.676 L9.545,6.66 L9.375,6.541 L9.33,6.813 C9.299,7.009 9.506,8.282 9.953,10.635 L10.041,10.649 C10.111,10.266 10.799,9.58 12.098,8.597 L12.648,8.687 C12.555,9.253 11.848,10.092 10.523,11.201 L10.226,11.824 C10.176,12.132 10.365,12.732 10.791,13.625 L10.894,13.642 C11.416,12.745 11.684,12.25 11.699,12.154 L12.266,12.246 C12.205,12.618 11.771,13.722 10.967,15.559 L10.4,15.467 C10.07,15.278 9.809,14.348 9.621,12.675 L9.525,12.659 L8.537,13.448 L7.797,13.328 C7.82,13.188 8.297,12.599 9.229,11.564 C8.937,9.433 8.562,7.621 8.102,6.133 C7.318,6.14 6.227,6.218 4.826,6.367 L4.852,6.846 L4.75,6.829 C4.738,6.897 4.768,6.938 4.836,6.948 C3.175,11.747 2.12,14.145 1.675,14.145 C1.669,14.145 1.662,14.145 1.656,14.144 L1.193,14.068 C1.203,14.005 1.189,13.907 1.15,13.775 C2.66,10.723 3.516,8.574 3.719,7.333 L3.885,6.305 L2.865,6.139 C2.744,6.119 2.697,6.02 2.726,5.838 C2.756,5.651 2.857,5.415 3.031,5.126 C3.66,5.35 4.051,5.475 4.205,5.5 C5.564,5.409 6.812,5.36 7.949,5.354 C7.365,3.873 7.09,3.031 7.123,2.832 L7.137,2.744 C7.15,2.662 7.249,2.621 7.433,2.621 L7.433,2.621 Z M6.754,8.586 L7.201,8.756 C6.271,12.203 5.559,13.927 5.061,13.927 C5.05,13.927 5.039,13.926 5.027,13.924 C4.486,13.645 3.83,13.189 3.059,12.558 L3.148,12.007 C3.973,12.392 4.572,12.614 4.945,12.675 L5.039,12.689 C5.57,11.399 5.896,10.373 6.021,9.611 L5.736,9.565 C5.172,9.862 4.745,10.01 4.452,10.01 C4.412,10.01 4.373,10.007 4.338,10.001 L4.148,9.97 L4.223,9.508 C4.518,9.217 5.361,8.908 6.754,8.586 L6.754,8.586 Z M11.932,0.712 C11.402,0.712 10.957,1.055 10.797,1.586 L10.778,1.647 L10.768,1.708 L10.736,1.893 L10.698,2.121 L10.764,2.344 L10.822,2.541 L10.889,2.764 L11.046,2.935 C12.052,4.025 12.885,4.594 13.669,4.722 L14.658,4.883 L14.817,3.894 L14.862,3.615 C15.129,1.979 13.045,1.088 12.359,0.795 L12.246,0.747 L12.125,0.728 L12.047,0.715 L11.932,0.712 L11.932,0.712 Z M7.433,1.621 C6.606,1.621 6.226,2.136 6.15,2.577 L6.135,2.679 C6.092,2.935 6.1,3.229 6.512,4.382 C5.805,4.405 5.061,4.442 4.288,4.492 C4.174,4.46 3.914,4.379 3.366,4.184 L2.596,3.91 L2.174,4.61 C1.928,5.021 1.789,5.361 1.738,5.683 C1.606,6.505 2.125,7.032 2.706,7.126 L2.738,7.131 L2.731,7.174 C2.603,7.956 2.069,9.661 0.254,13.332 L0.08,13.684 L0.186,14.04 L0.055,14.897 L1.033,15.056 L1.496,15.131 L1.575,15.144 L1.675,15.145 C2.146,15.145 2.533,15.051 3.16,13.907 C3.684,14.297 4.148,14.596 4.568,14.813 L4.71,14.885 L4.866,14.911 L4.946,14.924 L5.061,14.927 C5.682,14.927 6.191,14.603 6.799,13.231 L6.645,14.154 L7.637,14.315 L8.377,14.436 L8.814,14.506 L8.883,14.451 C9.112,15.51 9.426,16.062 9.904,16.335 L10.061,16.425 L10.24,16.454 L10.807,16.546 L11.572,16.67 L11.883,15.96 C12.992,13.426 13.198,12.742 13.253,12.406 L13.413,11.419 L12.426,11.259 L12.036,11.196 C13.022,10.262 13.524,9.518 13.635,8.85 L13.799,7.861 L12.81,7.699 L12.259,7.609 L11.836,7.541 L11.494,7.8 C11.142,8.066 10.84,8.307 10.581,8.524 C10.494,8.037 10.437,7.69 10.399,7.443 C10.708,7.285 11.007,7.066 11.294,6.786 L11.529,6.557 L11.582,6.232 L11.852,4.59 L10.862,4.43 C10.572,4.383 10.26,4.359 9.932,4.359 C9.83,4.359 9.727,4.361 9.621,4.366 L8.728,2.267 L8.514,1.759 L7.969,1.67 C7.764,1.637 7.588,1.621 7.433,1.621 L7.433,1.621 Z M5.875,7.268 C6.434,7.217 6.928,7.18 7.357,7.157 C7.414,7.368 7.471,7.586 7.524,7.809 L7.109,7.651 L6.824,7.543 L6.528,7.611 C6.303,7.664 6.095,7.715 5.901,7.766 L5.875,7.268 L5.875,7.268 Z M7.059,12.597 C7.327,11.893 7.617,10.986 7.944,9.824 C8.025,10.278 8.102,10.752 8.174,11.243 C7.569,11.924 7.241,12.326 7.059,12.597 L7.059,12.597 Z M4.452,11.01 C4.505,11.01 4.558,11.008 4.612,11.003 C4.56,11.155 4.503,11.314 4.441,11.478 C4.389,11.458 4.334,11.436 4.274,11.411 C4.325,11.281 4.377,11.148 4.431,11.01 L4.452,11.01 L4.452,11.01 Z" id="Fill-36" fill="#FFFFFF" sketch:type="MSShapeGroup"></path>
                <path d="M27.067,18.216 L26.596,18.139 L26.476,17.985 C25.045,16.159 24.26,14.778 24.076,13.762 L24.068,13.719 L24.003,13.783 C21.855,15.891 20.975,16.16 20.446,16.161 C20.381,16.161 20.318,16.155 20.258,16.146 L20.085,16.118 L19.968,15.988 C19.831,15.837 19.729,15.729 19.659,15.665 L19.22,15.594 L19.834,13.334 L19.991,11.484 C19.183,11.561 18.414,11.599 17.7,11.599 C17.382,11.599 17.072,11.592 16.772,11.576 L16.626,11.569 L16.506,11.484 C16.442,11.438 16.416,11.427 16.416,11.427 L15.915,11.348 L16.038,10.859 L16.071,10.663 L16.416,9.56 L17.488,9.735 C17.751,9.777 18.016,9.799 18.275,9.799 C18.944,9.799 19.619,9.655 20.283,9.372 C20.476,8.037 20.481,6.659 20.313,5.205 L20.282,4.933 L20.495,4.76 C20.806,4.507 21.119,4.379 21.427,4.379 L21.468,4.379 L21.602,4.394 C21.824,4.429 22.017,4.552 22.157,4.748 C22.429,5.125 22.646,5.874 22.289,8.455 C22.77,7.851 23.556,6.845 24.832,5.185 C25.504,4.332 25.792,4.141 26.063,4.097 L26.143,4.084 L26.503,4.144 C26.927,4.274 27.121,4.573 27.068,4.924 L27.021,5.217 C26.986,5.428 26.936,5.737 24.442,8.746 C25.324,8.607 26.17,8.445 26.966,8.263 L27.147,8.221 L27.311,8.308 C27.669,8.496 27.914,8.774 28.04,9.132 L28.083,9.253 L28.061,9.379 C27.933,10.181 27.041,10.456 24.767,10.476 C24.677,10.5 24.599,10.521 24.53,10.54 C25.211,11.67 25.935,13.265 26.69,15.293 C27.832,16.381 28.009,16.741 27.955,17.083 L27.942,17.163 L27.905,17.234 C27.677,17.677 27.643,17.797 27.641,17.81 L27.53,18.259 L27.067,18.216 L27.067,18.216 Z M22.375,10.989 C22.12,11.001 22.049,11.052 22.049,11.053 C22.025,11.349 21.98,11.802 21.952,12.335 L21.949,12.386 L21.936,12.436 C21.837,12.818 21.759,13.14 21.703,13.4 C22.825,12.715 23.284,12.525 23.538,12.478 C23.286,12.106 22.916,11.62 22.375,10.989 L22.375,10.989 Z" id="Fill-37" fill="#1A1918" sketch:type="MSShapeGroup"></path>
                <path d="M26.143,4.591 L26.422,4.637 C26.541,4.675 26.59,4.745 26.574,4.851 L26.527,5.136 C26.479,5.435 25.393,6.845 23.273,9.366 L23.449,9.395 C24.728,9.226 25.937,9.012 27.078,8.75 C27.322,8.879 27.484,9.06 27.568,9.298 L27.553,9.393 C27.492,9.769 26.541,9.964 24.701,9.977 C24.103,10.13 23.801,10.24 23.789,10.308 C24.555,11.434 25.379,13.189 26.262,15.575 C27.088,16.356 27.488,16.833 27.461,17.005 C27.268,17.379 27.164,17.617 27.148,17.723 L26.869,17.677 C25.506,15.938 24.736,14.604 24.568,13.673 C24.652,13.152 23.998,12.092 22.607,10.493 L22.512,10.478 C21.943,10.483 21.637,10.627 21.59,10.908 C21.527,11.294 21.482,11.76 21.453,12.309 C21.293,12.92 21.189,13.38 21.139,13.688 L21.121,14.356 C22.571,13.426 23.431,12.962 23.698,12.962 C23.709,12.962 23.718,12.963 23.726,12.964 L23.652,13.427 C22.134,14.916 21.064,15.661 20.446,15.661 C20.408,15.661 20.372,15.658 20.338,15.652 C20.064,15.351 19.902,15.197 19.848,15.188 L20.316,13.465 L20.541,10.925 C19.522,11.041 18.576,11.099 17.7,11.099 C17.39,11.099 17.089,11.092 16.797,11.077 C16.688,10.999 16.6,10.953 16.531,10.942 L16.564,10.746 L16.762,10.123 L17.408,10.229 C17.698,10.275 17.987,10.299 18.275,10.299 C19.104,10.299 19.925,10.105 20.736,9.716 L20.752,9.627 C20.975,8.248 20.996,6.756 20.811,5.147 C21.029,4.969 21.236,4.879 21.427,4.879 C21.459,4.879 21.49,4.882 21.521,4.887 C22.076,4.977 22.121,6.447 21.656,9.299 L21.596,9.673 L21.875,9.718 C21.945,9.716 23.062,8.307 25.228,5.489 C25.68,4.917 25.984,4.616 26.143,4.591 L26.143,4.591 Z M26.145,3.578 L25.984,3.604 C25.519,3.678 25.131,3.998 24.443,4.87 C23.847,5.646 23.359,6.276 22.962,6.787 C23.03,5.467 22.853,4.857 22.563,4.456 C22.346,4.154 22.032,3.956 21.682,3.899 C21.598,3.886 21.513,3.879 21.427,3.879 C21.001,3.879 20.582,4.045 20.18,4.371 L19.754,4.718 L19.817,5.262 C19.971,6.59 19.975,7.85 19.829,9.015 C19.311,9.203 18.791,9.299 18.275,9.299 C18.042,9.299 17.805,9.279 17.568,9.241 L16.923,9.136 L16.069,8.997 L15.611,10.444 L15.59,10.511 L15.578,10.579 L15.545,10.775 L15.377,11.774 L16.239,11.908 L16.424,12.041 L16.747,12.076 C17.056,12.092 17.373,12.099 17.7,12.099 C18.251,12.099 18.832,12.076 19.439,12.032 L19.328,13.288 L18.591,15.999 L19.419,16.133 C19.463,16.178 19.521,16.24 19.597,16.324 L19.832,16.584 L20.178,16.64 C20.264,16.653 20.353,16.661 20.446,16.661 C21.287,16.661 22.313,16.055 23.813,14.656 C24.182,15.631 24.92,16.811 26.082,18.294 L26.322,18.601 L26.707,18.664 L26.986,18.709 L27.988,18.874 L28.129,17.925 C28.148,17.875 28.204,17.745 28.35,17.464 L28.423,17.321 L28.448,17.162 C28.541,16.579 28.252,16.1 27.118,15.011 C26.5,13.358 25.915,12.021 25.348,10.966 C26.934,10.92 28.356,10.691 28.54,9.552 L28.555,9.461 L28.597,9.207 L28.512,8.966 C28.345,8.492 28.01,8.111 27.545,7.865 L27.217,7.692 L26.854,7.775 C26.475,7.862 26.084,7.944 25.683,8.022 C27.42,5.874 27.466,5.592 27.515,5.297 L27.561,5.013 C27.65,4.409 27.307,3.869 26.726,3.685 L26.656,3.662 L26.584,3.65 L26.305,3.604 L26.145,3.578 L26.145,3.578 Z M22.45,12.393 L22.451,12.362 C22.46,12.199 22.471,12.045 22.482,11.899 C22.58,12.021 22.669,12.134 22.75,12.24 C22.659,12.284 22.56,12.334 22.45,12.393 L22.45,12.393 Z" id="Fill-38" fill="#FFFFFF" sketch:type="MSShapeGroup"></path>
                <path d="M38.683,18.477 C37.748,18.497 36.957,18.508 36.312,18.508 C35.287,18.508 34.626,18.481 34.291,18.427 L33.979,18.377 L33.891,18.071 C33.782,17.693 33.653,16.829 33.794,13.711 C33.44,10.764 33.327,8.922 33.452,8.16 L33.497,7.881 L33.76,7.775 C33.996,7.682 34.209,7.636 34.411,7.636 C34.478,7.636 34.543,7.641 34.604,7.65 C35.062,7.728 35.298,8.098 35.362,9.928 C36.021,9.66 37.257,9.265 39.678,8.618 C40.301,8.353 40.878,8.213 41.38,8.213 C41.512,8.213 41.637,8.223 41.754,8.242 L42.312,8.333 C42.929,8.437 42.907,9.241 42.896,9.628 L42.894,9.715 L42.862,9.796 C42.116,11.713 41.32,14.279 40.498,17.425 C40.527,17.585 40.523,17.769 40.489,17.979 L40.409,18.473 L40.061,18.415 C40.033,18.441 39.997,18.48 39.95,18.535 L39.741,18.784 L38.683,18.477 L38.683,18.477 Z M35.595,15.2 C35.619,16.018 35.668,16.471 35.711,16.719 L38.885,16.543 C38.995,16.115 39.132,15.613 39.292,15.039 C39.206,15.071 39.11,15.089 39.008,15.089 L38.968,15.089 L38.775,15.064 L38.518,14.954 C38.165,15.032 37.419,15.125 35.595,15.2 L35.595,15.2 Z M35.418,13.393 C37.3,13.248 38.503,13.178 39.088,13.178 L39.819,13.201 C40.088,12.28 40.398,11.239 40.749,10.081 C40.031,10.265 38.542,10.701 35.42,11.702 L35.398,11.709 L35.418,13.393 L35.418,13.393 Z" id="Fill-39" fill="#1A1918" sketch:type="MSShapeGroup"></path>
                <path d="M34.411,8.136 C34.451,8.136 34.488,8.139 34.525,8.145 C34.742,8.181 34.861,9.028 34.879,10.688 L34.969,10.702 C35.217,10.431 36.83,9.897 39.807,9.102 C40.427,8.842 40.951,8.713 41.381,8.713 C41.483,8.713 41.582,8.721 41.674,8.735 L42.232,8.826 C42.353,8.847 42.41,9.109 42.396,9.614 C41.629,11.586 40.824,14.189 39.982,17.422 C40.023,17.535 40.029,17.694 39.996,17.898 C39.99,17.897 39.983,17.897 39.977,17.897 C39.882,17.897 39.746,18.003 39.568,18.213 L38.748,17.975 C37.784,17.996 36.972,18.008 36.312,18.008 C35.322,18.008 34.676,17.982 34.371,17.934 C34.217,17.397 34.191,15.996 34.293,13.733 C33.945,10.778 33.83,8.946 33.945,8.24 C34.118,8.171 34.273,8.136 34.411,8.136 L34.411,8.136 Z M35.268,11.226 L34.893,11.165 L34.924,13.933 C37.08,13.763 38.47,13.678 39.088,13.678 C39.149,13.678 39.204,13.679 39.25,13.681 L39.234,13.776 C39.277,13.89 39.287,14.018 39.264,14.158 L39.221,14.43 C39.203,14.536 39.131,14.589 39.008,14.589 C38.979,14.589 38.949,14.586 38.916,14.581 L38.557,14.427 C38.187,14.553 37.029,14.65 35.084,14.72 C35.105,16.124 35.193,16.964 35.344,17.24 L39.279,17.022 C39.643,15.563 40.369,13.043 41.459,9.462 L41.371,9.447 C41.363,9.446 41.353,9.445 41.343,9.445 C40.994,9.445 38.969,10.039 35.268,11.226 L35.268,11.226 Z M34.411,7.136 C34.144,7.136 33.871,7.193 33.574,7.312 L33.05,7.521 L32.958,8.079 C32.875,8.592 32.818,9.739 33.29,13.77 C33.154,16.86 33.282,17.767 33.41,18.21 L33.585,18.819 L34.212,18.921 C34.441,18.958 34.91,19.008 36.312,19.008 C36.942,19.008 37.711,18.998 38.617,18.978 L39.914,19.354 L40.252,18.953 L40.822,19.047 L40.983,18.059 C41.019,17.84 41.027,17.64 41.008,17.455 C41.815,14.372 42.597,11.857 43.328,9.977 L43.392,9.815 L43.396,9.642 C43.407,9.239 43.44,8.017 42.399,7.84 L41.834,7.748 C41.689,7.725 41.537,7.713 41.381,7.713 C40.827,7.713 40.206,7.857 39.484,8.152 C37.729,8.622 36.586,8.965 35.831,9.224 C35.742,8.018 35.484,7.291 34.689,7.158 C34.597,7.144 34.506,7.136 34.411,7.136 L34.411,7.136 Z M35.902,12.072 C37.912,11.43 39.193,11.039 40.009,10.801 C39.807,11.475 39.62,12.104 39.448,12.688 L39.286,12.682 C39.229,12.68 39.164,12.678 39.088,12.678 C38.549,12.678 37.505,12.736 35.912,12.854 L35.902,12.072 L35.902,12.072 Z M36.114,15.678 C37.39,15.617 38.066,15.546 38.463,15.475 L38.521,15.5 L38.633,15.548 C38.584,15.729 38.537,15.9 38.494,16.064 L36.148,16.194 C36.137,16.055 36.125,15.885 36.114,15.678 L36.114,15.678 Z" id="Fill-40" fill="#FFFFFF" sketch:type="MSShapeGroup"></path>
                <path d="M47.589,20.022 L47.669,19.529 C47.676,19.485 47.679,19.451 47.68,19.425 L47.38,19.298 L47.491,18.879 C47.951,17.14 48.297,15.597 48.52,14.288 C48.12,14.325 47.613,14.343 46.987,14.343 C46.697,14.343 46.382,14.339 46.041,14.331 L45.467,14.317 L45.667,13.09 L45.728,12.998 C45.979,12.63 46.547,12.479 47.688,12.479 C47.887,12.479 48.103,12.483 48.337,12.493 C48.655,12.24 49.21,12.168 49.737,12.123 L50.216,12.082 L50.275,12.56 C50.447,13.939 50.416,14.147 50.4,14.245 C50.318,14.745 50.174,15.445 49.97,16.337 C50.146,16.192 50.354,16.03 50.599,15.845 L50.769,15.717 L51.331,15.807 L51.347,15.705 L51.196,15.383 L51.232,15.217 C51.396,14.469 51.626,13.67 52.262,13.67 L52.364,13.678 C52.811,13.752 53.099,13.97 53.216,14.278 L53.228,14.278 C54.011,14.278 54.607,13.81 55.051,12.846 L55.112,12.467 C54.855,12.495 54.625,12.51 54.421,12.51 C54.225,12.51 54.052,12.496 53.901,12.472 L53.064,12.336 C52.666,12.269 52.436,11.945 52.498,11.55 L52.53,11.357 C52.603,10.91 52.785,10.749 56.073,10.426 L56.448,10.156 L57.922,10.397 L57.688,10.976 C56.721,13.375 56.57,13.841 56.55,13.929 C56.55,13.96 56.553,14.125 56.564,14.39 L56.566,14.44 L56.558,14.491 C56.441,15.201 55.497,15.66 53.322,16.051 C53.169,16.731 53.061,17.257 52.997,17.629 L53.207,17.724 C53.246,17.729 53.281,17.731 53.314,17.731 L53.439,17.682 L53.618,17.701 C53.668,17.709 53.861,17.767 54.193,17.883 C55.022,17.979 55.715,18.027 56.253,18.027 C57.035,18.027 57.308,17.925 57.386,17.884 C57.62,16.892 57.878,16.298 58.419,16.298 L58.46,16.298 L58.519,16.307 L59.069,16.504 L59.452,16.649 L59.265,17.794 C59.026,19.264 58.461,20.01 57.585,20.01 C57.508,20.01 57.429,20.004 57.348,19.99 C57.203,19.968 57.069,19.923 56.948,19.858 C56.799,19.871 56.617,19.878 56.405,19.878 C55.604,19.878 54.318,19.781 52.582,19.592 C51.686,19.368 51.18,19.129 50.917,18.828 L50.751,18.636 C50.751,18.636 50.906,17.958 50.95,17.761 C50.455,18.474 49.767,19.229 48.871,20.041 L48.692,20.203 L47.589,20.022 L47.589,20.022 Z M48.49,10.966 L48.667,9.873 C48.718,9.578 48.94,9.368 49.332,9.242 L49.447,9.206 L49.717,9.254 C50.138,9.375 51.419,9.745 51.265,10.68 L50.933,11.656 L48.49,10.966 L48.49,10.966 Z" id="Fill-41" fill="#1A1918" sketch:type="MSShapeGroup"></path>
                <path d="M49.484,9.719 L49.578,9.734 C50.428,9.979 50.826,10.267 50.771,10.599 L50.615,11.047 L49.055,10.606 L49.16,9.953 C49.176,9.862 49.283,9.783 49.484,9.719 M56.572,10.683 L57.225,10.789 C56.477,12.645 56.088,13.661 56.059,13.838 C56.051,13.888 56.051,14.079 56.064,14.41 C55.988,14.873 54.938,15.275 52.908,15.615 C52.699,16.529 52.559,17.205 52.488,17.64 L52.441,17.926 L53.066,18.209 C53.159,18.224 53.241,18.231 53.314,18.231 C53.406,18.231 53.482,18.219 53.543,18.195 C53.588,18.202 53.768,18.263 54.08,18.373 C54.957,18.476 55.681,18.527 56.253,18.527 C57.271,18.527 57.808,18.364 57.861,18.039 C58.054,17.212 58.24,16.798 58.419,16.798 C58.425,16.798 58.432,16.799 58.437,16.8 L58.893,16.972 L58.771,17.713 C58.577,18.91 58.182,19.51 57.585,19.51 C57.534,19.51 57.481,19.506 57.428,19.497 C57.287,19.475 57.168,19.422 57.07,19.341 C56.911,19.365 56.689,19.378 56.405,19.378 C55.623,19.378 54.366,19.284 52.637,19.095 C51.93,18.914 51.482,18.716 51.295,18.5 C51.529,17.482 51.689,16.713 51.775,16.191 L51.865,15.633 L51.721,15.324 C51.89,14.556 52.069,14.17 52.262,14.17 C52.269,14.17 52.277,14.171 52.285,14.172 L52.379,14.188 C52.687,14.238 52.816,14.422 52.766,14.739 C52.925,14.766 53.079,14.778 53.228,14.778 C54.234,14.778 55.004,14.184 55.533,12.991 L55.715,11.876 C55.198,11.965 54.767,12.01 54.422,12.01 C54.255,12.01 54.108,11.999 53.982,11.979 L53.145,11.843 C53.023,11.822 52.973,11.751 52.992,11.629 L53.023,11.438 C53.047,11.294 54.123,11.117 56.256,10.91 L56.572,10.683 M49.779,12.621 C49.889,13.5 49.93,14.017 49.906,14.17 C49.795,14.846 49.557,15.951 49.185,17.486 L49.348,17.605 L49.441,17.619 C49.477,17.41 49.963,16.952 50.9,16.244 L51.186,16.29 C50.801,17.288 49.918,18.416 48.535,19.671 L48.162,19.609 C48.215,19.283 48.152,19.082 47.975,19.007 C48.469,17.138 48.828,15.514 49.053,14.136 C49.092,13.887 49.053,13.752 48.93,13.732 C48.517,13.807 47.869,13.843 46.987,13.843 C46.7,13.843 46.389,13.839 46.053,13.831 L46.143,13.279 C46.278,13.079 46.794,12.979 47.688,12.979 C47.951,12.979 48.246,12.987 48.574,13.005 C48.604,12.814 49.008,12.687 49.779,12.621 M49.41,8.692 L49.18,8.767 C48.415,9.012 48.222,9.509 48.175,9.783 L48.067,10.445 L47.926,11.325 L48.782,11.567 L49.182,11.681 C48.858,11.729 48.496,11.815 48.197,11.988 C48.017,11.982 47.847,11.979 47.688,11.979 C46.565,11.979 45.731,12.105 45.315,12.718 L45.191,12.9 L45.155,13.118 L44.881,14.805 L46.03,14.831 C46.374,14.839 46.693,14.843 46.987,14.843 C47.329,14.843 47.638,14.837 47.915,14.826 C47.695,15.985 47.392,17.298 47.008,18.751 L46.786,19.59 L47.127,19.734 L47.021,20.389 L47.999,20.596 L48.372,20.657 L48.85,20.736 L49.207,20.411 C49.698,19.966 50.131,19.535 50.506,19.116 L50.54,19.156 C50.876,19.543 51.446,19.822 52.389,20.063 L52.458,20.081 L52.528,20.089 C54.307,20.283 55.575,20.378 56.405,20.378 C56.571,20.378 56.72,20.374 56.852,20.366 C56.983,20.422 57.123,20.461 57.27,20.484 C57.377,20.502 57.482,20.51 57.585,20.51 C58.382,20.51 59.405,20.053 59.759,17.873 L60.012,16.325 L59.246,16.036 L58.791,15.864 L58.697,15.829 L58.6,15.812 L58.519,15.8 L58.419,15.798 C57.5,15.798 57.156,16.741 56.967,17.483 C56.828,17.505 56.603,17.527 56.253,17.527 C55.746,17.527 55.092,17.481 54.307,17.393 C53.9,17.25 53.805,17.224 53.693,17.207 L53.589,17.191 C53.631,16.983 53.681,16.746 53.738,16.482 C55.982,16.047 56.897,15.507 57.051,14.572 L57.068,14.472 L57.063,14.369 C57.057,14.199 57.053,14.073 57.053,13.992 C57.111,13.811 57.331,13.199 58.152,11.163 L58.619,10.004 L57.386,9.802 L56.733,9.695 L56.324,9.629 L55.988,9.871 L55.891,9.941 C52.809,10.245 52.179,10.403 52.036,11.278 L52.006,11.467 C51.898,12.133 52.317,12.717 52.978,12.829 L53.822,12.966 C53.997,12.994 54.186,13.009 54.4,13.01 C54.096,13.513 53.779,13.693 53.498,13.752 C53.283,13.468 52.954,13.269 52.541,13.201 L52.449,13.186 L52.368,13.172 L52.262,13.17 C51.264,13.17 50.937,14.266 50.783,14.935 C50.827,14.709 50.864,14.509 50.893,14.332 C50.924,14.132 50.938,13.835 50.771,12.498 L50.725,12.117 L51.25,12.266 L51.56,11.376 L51.716,10.928 L51.744,10.847 L51.758,10.761 C51.908,9.85 51.268,9.182 49.855,8.774 L49.8,8.758 L49.742,8.748 L49.648,8.732 L49.41,8.692" id="Fill-42" fill="#FFFFFF" sketch:type="MSShapeGroup"></path>
            </g>
        </g>
    </g>
</svg>