<?xml version="1.0" encoding="UTF-8" standalone="no"?>
<svg width="120px" height="120px" viewBox="0 0 120 120" version="1.1" xmlns="http://www.w3.org/2000/svg" xmlns:xlink="http://www.w3.org/1999/xlink" xmlns:sketch="http://www.bohemiancoding.com/sketch/ns">
    <!-- Generator: Sketch 3.3.2 (12043) - http://www.bohemiancoding.com/sketch -->
    <title>Mobile Portrait</title>
    <desc>Created with Sketch.</desc>
    <defs></defs>
    <g id="baby" stroke="none" stroke-width="1" fill="none" fill-rule="evenodd" sketch:type="MSPage">
        <g id="Mobile-Portrait" sketch:type="MSArtboardGroup">
            <g id="Imported-Layers" sketch:type="MSLayerGroup" transform="translate(19.000000, 38.000000)">
                <path d="M29.019,11.496 L53.65,11.496 L53.65,36.127 L29.019,36.127 L29.019,11.496 Z M28.519,36.627 L54.15,36.627 L54.15,10.996 L28.519,10.996 L28.519,36.627 Z" id="Fill-1" fill="#D9222A" sketch:type="MSShapeGroup"></path>
                <path d="M57.127,11.496 L81.76,11.496 L81.76,36.127 L57.127,36.127 L57.127,11.496 Z M56.627,36.627 L82.26,36.627 L82.26,10.996 L56.627,10.996 L56.627,36.627 Z" id="Fill-2" fill="#D9222A" sketch:type="MSShapeGroup"></path>
                <path d="M0.912,11.496 L25.543,11.496 L25.543,36.127 L0.912,36.127 L0.912,11.496 Z M0.412,36.627 L26.043,36.627 L26.043,10.996 L0.412,10.996 L0.412,36.627 Z" id="Fill-3" fill="#D9222A" sketch:type="MSShapeGroup"></path>
                <path d="M0.912,23.812 L25.543,23.812 M30.65,23.812 L53.115,23.812 M57.998,23.812 L80.461,23.812 M14.31,35.043 L14.31,12.579 M41.883,35.043 L41.883,12.579 M69.229,35.043 L69.229,12.579" id="Stroke-4" stroke="#FFFFFF" stroke-width="0.25" stroke-dasharray="1" sketch:type="MSShapeGroup"></path>
                <path d="M9.445,9.212 L8.153,7.383 C8.116,7.328 8.078,7.271 8.04,7.213 C7.981,7.308 7.935,7.377 7.904,7.422 L6.615,9.212 L5.512,9.212 L7.531,6.49 L5.746,3.983 L6.838,3.983 L7.778,5.312 C7.901,5.487 8.002,5.636 8.08,5.759 C8.167,5.627 8.265,5.492 8.372,5.354 L9.41,3.983 L10.438,3.983 L8.595,6.457 L10.567,9.212 L9.445,9.212" id="Fill-5" fill="#AB2430" sketch:type="MSShapeGroup"></path>
                <path d="M10.19,4.108 L8.44,6.455 L10.324,9.087 L9.51,9.087 L8.256,7.311 C8.186,7.209 8.113,7.098 8.039,6.978 C7.928,7.159 7.848,7.283 7.801,7.352 L6.551,9.087 L5.76,9.087 L7.686,6.492 L5.988,4.108 L6.773,4.108 L7.676,5.385 C7.863,5.65 7.998,5.853 8.076,5.996 C8.188,5.815 8.318,5.626 8.471,5.43 L9.473,4.108 L10.19,4.108 M10.688,3.858 L9.349,3.858 L9.273,3.957 L8.272,5.278 C8.206,5.363 8.143,5.448 8.082,5.534 C8.024,5.447 7.958,5.351 7.88,5.24 L6.977,3.964 L6.903,3.858 L5.504,3.858 L5.784,4.254 L7.377,6.489 L5.559,8.937 L5.263,9.337 L6.679,9.337 L6.754,9.233 L8.004,7.498 C8.015,7.481 8.027,7.462 8.042,7.44 C8.045,7.445 8.048,7.449 8.051,7.453 L9.306,9.231 L9.38,9.337 L10.811,9.337 L8.749,6.458 L10.688,3.858" id="Fill-6" fill="#FFFFFF" sketch:type="MSShapeGroup"></path>
                <path d="M10.891,3.983 L11.801,3.983 L11.801,9.212 L10.891,9.212 L10.891,3.983 Z" id="Fill-7" fill="#AB2430" sketch:type="MSShapeGroup"></path>
                <path d="M11.016,4.108 L11.676,4.108 L11.676,9.086 L11.016,9.086 L11.016,4.108 Z M10.766,9.337 L11.926,9.337 L11.926,3.858 L10.766,3.858 L10.766,9.337 Z" id="Fill-8" fill="#FFFFFF" sketch:type="MSShapeGroup"></path>
                <path d="M16.113,9.212 L15.531,7.704 L13.625,7.704 L13.076,9.212 L12.107,9.212 L14.115,3.983 L14.996,3.983 L17.136,9.212 L16.113,9.212 L16.113,9.212 Z M15.233,6.917 L14.777,5.708 C14.693,5.484 14.62,5.281 14.559,5.1 C14.51,5.278 14.453,5.454 14.391,5.625 L13.907,6.917 L15.233,6.917 L15.233,6.917 Z" id="Fill-9" fill="#AB2430" sketch:type="MSShapeGroup"></path>
                <path d="M14.912,4.108 L16.949,9.087 L16.199,9.087 L15.617,7.579 L13.537,7.579 L12.988,9.087 L12.289,9.087 L14.201,4.108 L14.912,4.108 L14.912,4.108 Z M13.727,7.042 L15.414,7.042 L14.895,5.664 C14.736,5.245 14.619,4.901 14.541,4.631 C14.477,4.951 14.389,5.267 14.273,5.582 L13.727,7.042 L13.727,7.042 Z M15.08,3.858 L14.029,3.858 L12.056,8.997 L11.925,9.337 L13.163,9.337 L13.224,9.173 L13.712,7.829 L15.445,7.829 L15.966,9.177 L16.027,9.337 L17.321,9.337 L17.181,8.992 L15.08,3.858 L15.08,3.858 Z M14.087,6.792 L14.508,5.67 C14.528,5.613 14.548,5.557 14.567,5.5 C14.597,5.581 14.628,5.666 14.66,5.752 L15.053,6.792 L14.087,6.792 L14.087,6.792 Z" id="Fill-10" fill="#FFFFFF" sketch:type="MSShapeGroup"></path>
                <path d="M19.656,9.297 C19.166,9.297 18.721,9.177 18.333,8.938 C17.944,8.7 17.647,8.371 17.448,7.96 C17.251,7.555 17.15,7.118 17.15,6.662 C17.15,5.806 17.386,5.124 17.851,4.636 C18.315,4.144 18.923,3.895 19.658,3.895 C20.141,3.895 20.58,4.012 20.965,4.242 C21.352,4.474 21.652,4.8 21.856,5.212 C22.058,5.618 22.16,6.087 22.16,6.603 C22.16,7.127 22.053,7.602 21.842,8.017 C21.627,8.434 21.319,8.756 20.924,8.973 C20.532,9.187 20.106,9.297 19.656,9.297 L19.656,9.297 Z M19.662,4.712 C19.23,4.712 18.854,4.862 18.543,5.159 C18.234,5.452 18.078,5.962 18.078,6.673 C18.078,7.235 18.23,7.684 18.529,8.005 C18.825,8.321 19.203,8.482 19.652,8.482 C20.11,8.482 20.491,8.32 20.782,8 C21.081,7.675 21.233,7.204 21.233,6.602 C21.233,6.219 21.166,5.878 21.036,5.591 C20.911,5.313 20.725,5.095 20.483,4.941 C20.238,4.789 19.963,4.712 19.662,4.712 L19.662,4.712 Z" id="Fill-11" fill="#AB2430" sketch:type="MSShapeGroup"></path>
                <path d="M19.658,4.021 C20.117,4.021 20.533,4.13 20.9,4.35 C21.27,4.569 21.551,4.876 21.744,5.267 C21.94,5.661 22.035,6.105 22.035,6.603 C22.035,7.109 21.934,7.561 21.731,7.96 C21.525,8.358 21.236,8.658 20.863,8.863 C20.49,9.068 20.088,9.172 19.656,9.172 C19.188,9.172 18.768,9.059 18.398,8.832 C18.029,8.605 17.75,8.297 17.561,7.905 C17.369,7.513 17.275,7.099 17.275,6.662 C17.275,5.836 17.496,5.189 17.941,4.722 C18.383,4.255 18.957,4.021 19.658,4.021 L19.658,4.021 Z M19.652,8.607 C20.147,8.607 20.557,8.434 20.875,8.084 C21.195,7.735 21.357,7.241 21.357,6.602 C21.357,6.196 21.287,5.842 21.15,5.539 C21.014,5.237 20.812,5.003 20.549,4.836 C20.285,4.671 19.99,4.587 19.662,4.587 C19.195,4.587 18.793,4.747 18.457,5.068 C18.121,5.388 17.953,5.923 17.953,6.673 C17.953,7.272 18.115,7.744 18.438,8.09 C18.76,8.434 19.166,8.607 19.652,8.607 L19.652,8.607 Z M19.658,3.77 C18.888,3.77 18.249,4.033 17.76,4.55 C17.273,5.061 17.025,5.772 17.025,6.662 C17.025,7.137 17.13,7.592 17.336,8.015 C17.545,8.447 17.858,8.794 18.268,9.045 C18.675,9.295 19.143,9.422 19.656,9.422 C20.127,9.422 20.574,9.308 20.983,9.082 C21.4,8.853 21.727,8.514 21.953,8.074 C22.174,7.642 22.285,7.146 22.285,6.603 C22.285,6.067 22.179,5.58 21.968,5.156 C21.754,4.723 21.438,4.378 21.028,4.135 C20.625,3.893 20.163,3.77 19.658,3.77 L19.658,3.77 Z M19.652,8.357 C19.233,8.357 18.896,8.214 18.62,7.919 C18.34,7.618 18.203,7.211 18.203,6.673 C18.203,5.997 18.347,5.519 18.629,5.25 C18.92,4.972 19.258,4.837 19.662,4.837 C19.942,4.837 20.19,4.906 20.416,5.048 C20.64,5.189 20.806,5.384 20.923,5.642 C21.045,5.914 21.107,6.236 21.107,6.602 C21.107,7.172 20.967,7.614 20.691,7.915 C20.42,8.213 20.08,8.357 19.652,8.357 L19.652,8.357 Z" id="Fill-12" fill="#FFFFFF" sketch:type="MSShapeGroup"></path>
                <path d="M12.793,0.706 L14.627,2.637 M14.627,2.637 L16.461,0.706" id="Stroke-13" stroke="#FFFFFF" stroke-width="0.25" stroke-linecap="round" sketch:type="MSShapeGroup"></path>
                <path d="M34.252,9.066 L34.252,4.676 L32.611,4.676 L32.611,3.838 L36.809,3.838 L36.809,4.676 L35.162,4.676 L35.162,9.066 L34.252,9.066" id="Fill-14" fill="#AB2430" sketch:type="MSShapeGroup"></path>
                <path d="M36.684,3.963 L36.684,4.551 L35.037,4.551 L35.037,8.941 L34.377,8.941 L34.377,4.551 L32.736,4.551 L32.736,3.963 L36.684,3.963 M36.934,3.713 L32.486,3.713 L32.486,4.801 L34.127,4.801 L34.127,9.191 L35.287,9.191 L35.287,4.801 L36.934,4.801 L36.934,3.713" id="Fill-15" fill="#FFFFFF" sketch:type="MSShapeGroup"></path>
                <path d="M37.346,3.838 L38.254,3.838 L38.254,9.067 L37.346,9.067 L37.346,3.838 Z" id="Fill-16" fill="#AB2430" sketch:type="MSShapeGroup"></path>
                <path d="M37.471,3.963 L38.129,3.963 L38.129,8.941 L37.471,8.941 L37.471,3.963 Z M37.221,9.191 L38.379,9.191 L38.379,3.712 L37.221,3.712 L37.221,9.191 Z" id="Fill-17" fill="#FFFFFF" sketch:type="MSShapeGroup"></path>
                <path d="M42.566,9.066 L41.986,7.559 L40.078,7.559 L39.529,9.066 L38.561,9.066 L40.568,3.838 L41.449,3.838 L43.589,9.066 L42.566,9.066 L42.566,9.066 Z M41.687,6.771 L41.231,5.562 C41.147,5.339 41.073,5.136 41.012,4.954 C40.963,5.134 40.906,5.31 40.844,5.48 L40.36,6.771 L41.687,6.771 L41.687,6.771 Z" id="Fill-18" fill="#AB2430" sketch:type="MSShapeGroup"></path>
                <path d="M41.365,3.963 L43.402,8.941 L42.652,8.941 L42.072,7.434 L39.99,7.434 L39.441,8.941 L38.742,8.941 L40.654,3.963 L41.365,3.963 L41.365,3.963 Z M40.18,6.896 L41.867,6.896 L41.348,5.519 C41.19,5.1 41.072,4.756 40.994,4.486 C40.93,4.806 40.842,5.123 40.727,5.437 L40.18,6.896 L40.18,6.896 Z M41.533,3.713 L40.482,3.713 L38.509,8.852 L38.378,9.191 L39.616,9.191 L39.677,9.027 L40.165,7.684 L41.9,7.684 L42.481,9.191 L43.774,9.191 L43.634,8.847 L41.533,3.713 L41.533,3.713 Z M40.54,6.646 L40.961,5.525 C40.981,5.469 41.001,5.412 41.021,5.355 C41.05,5.436 41.081,5.521 41.113,5.607 L41.506,6.646 L40.54,6.646 L40.54,6.646 Z" id="Fill-19" fill="#FFFFFF" sketch:type="MSShapeGroup"></path>
                <path d="M47.102,9.066 L44.678,5.442 L44.678,9.066 L43.797,9.066 L43.797,3.838 L44.664,3.838 L47.086,7.46 L47.086,3.838 L47.969,3.838 L47.969,9.066 L47.102,9.066" id="Fill-20" fill="#AB2430" sketch:type="MSShapeGroup"></path>
                <path d="M47.844,3.963 L47.844,8.941 L47.168,8.941 L44.553,5.03 L44.553,8.941 L43.922,8.941 L43.922,3.963 L44.598,3.963 L47.211,7.872 L47.211,3.963 L47.844,3.963 M48.094,3.713 L46.961,3.713 L46.961,7.048 L44.806,3.824 L44.732,3.713 L43.672,3.713 L43.672,9.191 L44.803,9.191 L44.803,5.853 L46.96,9.08 L47.034,9.191 L48.094,9.191 L48.094,3.713" id="Fill-21" fill="#FFFFFF" sketch:type="MSShapeGroup"></path>
                <path d="M39.598,2.444 L42.438,2.444" id="Stroke-22" stroke="#FFFFFF" stroke-width="0.25" stroke-linecap="round" sketch:type="MSShapeGroup"></path>
                <path d="M65.666,9.151 C65.108,9.151 64.645,9.034 64.287,8.803 C63.932,8.572 63.658,8.234 63.475,7.799 C63.293,7.371 63.201,6.905 63.201,6.415 C63.201,5.88 63.306,5.403 63.512,5.001 C63.723,4.593 64.024,4.28 64.409,4.07 C64.792,3.86 65.218,3.754 65.676,3.754 C66.201,3.754 66.649,3.89 67.007,4.158 C67.369,4.429 67.623,4.81 67.763,5.293 L67.799,5.42 L66.91,5.629 L66.875,5.519 C66.769,5.185 66.614,4.939 66.417,4.789 C66.22,4.642 65.965,4.566 65.662,4.566 C65.307,4.566 65.009,4.651 64.776,4.818 C64.542,4.986 64.375,5.214 64.28,5.495 C64.18,5.79 64.129,6.099 64.129,6.411 C64.129,6.817 64.189,7.175 64.308,7.475 C64.42,7.763 64.596,7.98 64.83,8.121 C65.069,8.265 65.332,8.338 65.611,8.338 C65.948,8.338 66.236,8.24 66.469,8.047 C66.702,7.853 66.862,7.558 66.946,7.169 L66.974,7.042 L67.878,7.271 L67.848,7.393 C67.704,7.96 67.44,8.398 67.06,8.698 C66.68,8.999 66.21,9.151 65.666,9.151" id="Fill-23" fill="#AB2430" sketch:type="MSShapeGroup"></path>
                <path d="M65.676,3.879 C66.174,3.879 66.594,4.005 66.932,4.258 C67.271,4.512 67.51,4.868 67.643,5.328 L66.994,5.48 C66.879,5.119 66.711,4.855 66.492,4.689 C66.272,4.524 65.994,4.441 65.662,4.441 C65.279,4.441 64.959,4.533 64.703,4.717 C64.447,4.9 64.266,5.147 64.162,5.455 C64.057,5.765 64.004,6.083 64.004,6.411 C64.004,6.836 64.066,7.205 64.191,7.52 C64.314,7.836 64.506,8.072 64.766,8.228 C65.025,8.385 65.309,8.463 65.611,8.463 C65.981,8.463 66.293,8.355 66.549,8.143 C66.805,7.931 66.979,7.614 67.068,7.195 L67.727,7.362 C67.59,7.903 67.342,8.316 66.982,8.6 C66.623,8.884 66.186,9.026 65.666,9.026 C65.129,9.026 64.693,8.917 64.356,8.698 C64.02,8.48 63.764,8.163 63.59,7.75 C63.414,7.336 63.326,6.891 63.326,6.415 C63.326,5.896 63.426,5.443 63.623,5.058 C63.822,4.672 64.104,4.379 64.469,4.18 C64.836,3.978 65.238,3.879 65.676,3.879 M65.676,3.629 C65.196,3.629 64.75,3.74 64.349,3.961 C63.942,4.183 63.623,4.513 63.4,4.943 C63.186,5.364 63.076,5.859 63.076,6.415 C63.076,6.923 63.172,7.404 63.359,7.848 C63.553,8.307 63.842,8.663 64.22,8.908 C64.597,9.152 65.084,9.276 65.666,9.276 C66.239,9.276 66.734,9.114 67.138,8.796 C67.539,8.479 67.818,8.018 67.969,7.424 L68.03,7.182 L67.788,7.12 L67.13,6.953 L66.878,6.889 L66.824,7.142 C66.746,7.504 66.601,7.775 66.39,7.95 C66.177,8.127 65.922,8.213 65.611,8.213 C65.355,8.213 65.113,8.146 64.895,8.015 C64.682,7.887 64.527,7.695 64.424,7.43 C64.311,7.144 64.254,6.802 64.254,6.411 C64.254,6.112 64.303,5.817 64.399,5.535 C64.485,5.279 64.637,5.072 64.849,4.92 C65.061,4.769 65.334,4.691 65.662,4.691 C65.938,4.691 66.166,4.758 66.343,4.89 C66.518,5.022 66.657,5.247 66.756,5.557 L66.826,5.776 L67.051,5.724 L67.699,5.571 L67.956,5.512 L67.883,5.259 C67.735,4.749 67.466,4.345 67.081,4.058 C66.701,3.773 66.229,3.629 65.676,3.629" id="Fill-24" fill="#FFFFFF" sketch:type="MSShapeGroup"></path>
                <path d="M71.814,9.066 L71.234,7.559 L69.326,7.559 L68.779,9.066 L67.811,9.066 L69.816,3.838 L70.697,3.838 L72.837,9.066 L71.814,9.066 L71.814,9.066 Z M70.935,6.771 L70.479,5.562 C70.395,5.339 70.321,5.137 70.26,4.956 C70.212,5.131 70.156,5.307 70.092,5.48 L69.608,6.771 L70.935,6.771 L70.935,6.771 Z" id="Fill-25" fill="#AB2430" sketch:type="MSShapeGroup"></path>
                <path d="M70.613,3.963 L72.65,8.941 L71.9,8.941 L71.32,7.434 L69.238,7.434 L68.691,8.941 L67.992,8.941 L69.902,3.963 L70.613,3.963 L70.613,3.963 Z M69.428,6.896 L71.115,6.896 L70.596,5.519 C70.438,5.1 70.32,4.756 70.242,4.486 C70.18,4.806 70.09,5.123 69.975,5.437 L69.428,6.896 L69.428,6.896 Z M70.781,3.713 L69.731,3.713 L69.669,3.873 L67.759,8.852 L67.629,9.191 L68.867,9.191 L68.927,9.026 L69.414,7.684 L71.149,7.684 L71.667,9.031 L71.729,9.191 L73.022,9.191 L72.882,8.847 L70.781,3.713 L70.781,3.713 Z M69.788,6.646 L70.209,5.525 C70.23,5.469 70.249,5.412 70.269,5.355 C70.298,5.436 70.329,5.521 70.361,5.607 L70.754,6.646 L69.788,6.646 L69.788,6.646 Z" id="Fill-26" fill="#FFFFFF" sketch:type="MSShapeGroup"></path>
                <path d="M73.164,3.838 L74.072,3.838 L74.072,9.067 L73.164,9.067 L73.164,3.838 Z" id="Fill-27" fill="#AB2430" sketch:type="MSShapeGroup"></path>
                <path d="M73.289,3.963 L73.947,3.963 L73.947,8.941 L73.289,8.941 L73.289,3.963 Z M73.039,9.191 L74.197,9.191 L74.197,3.712 L73.039,3.712 L73.039,9.191 Z" id="Fill-28" fill="#FFFFFF" sketch:type="MSShapeGroup"></path>
                <path d="M69.289,3.09 L71.818,1.8" id="Stroke-29" stroke="#FFFFFF" stroke-width="0.25" stroke-linecap="round" sketch:type="MSShapeGroup"></path>
                <path d="M1.529,12.113 L24.925,12.113 L24.925,35.509 L1.529,35.509 L1.529,12.113 Z M1.029,36.01 L25.426,36.01 L25.426,11.613 L1.029,11.613 L1.029,36.01 Z" id="Fill-30" fill="#FFFFFF" sketch:type="MSShapeGroup"></path>
                <path d="M29.637,12.113 L53.033,12.113 L53.033,35.509 L29.637,35.509 L29.637,12.113 Z M29.137,36.01 L53.533,36.01 L53.533,11.613 L29.137,11.613 L29.137,36.01 Z" id="Fill-31" fill="#FFFFFF" sketch:type="MSShapeGroup"></path>
                <path d="M57.746,12.113 L81.142,12.113 L81.142,35.509 L57.746,35.509 L57.746,12.113 Z M57.246,36.01 L81.643,36.01 L81.643,11.613 L57.246,11.613 L57.246,36.01 Z" id="Fill-32" fill="#FFFFFF" sketch:type="MSShapeGroup"></path>
                <path d="M13.62,33.579 C13.201,33.579 12.898,33.16 12.705,32.845 C12.291,32.129 11.485,31.159 10.548,30.247 C10.258,29.956 10.16,29.735 10.237,29.55 C10.263,29.488 10.347,29.346 10.577,29.346 C10.691,29.346 10.84,29.383 11.028,29.458 C12.009,29.825 12.594,29.99 12.92,29.99 C13.135,29.99 13.198,29.949 13.238,29.656 C13.682,26.161 13.571,20.078 13.427,18.252 C13.339,17.126 13.08,16.234 12.699,15.742 C12.41,15.317 12.448,15.048 12.529,14.894 C12.598,14.766 12.752,14.612 13.1,14.612 C13.44,14.612 13.917,14.762 14.519,15.057 C15.293,15.429 15.733,15.811 15.863,16.223 C15.937,16.453 15.909,16.692 15.784,16.915 C15.258,17.783 15.139,19.559 15.414,28.975 C15.463,30.757 15.177,31.929 14.425,33.02 C14.255,33.262 13.988,33.579 13.62,33.579 L13.62,33.579 Z M6.392,28.476 C5.967,28.476 5.666,28.066 5.586,27.381 C5.481,26.479 5.662,25.95 6.394,25.022 C6.775,24.509 7.542,23.062 7.815,22.064 C7.859,21.901 7.978,21.463 8.338,21.463 C8.545,21.463 8.74,21.612 8.99,21.962 C9.445,22.647 9.354,23.677 8.689,25.41 C8.016,27.085 7.512,27.737 6.917,28.248 C6.751,28.397 6.572,28.476 6.392,28.476 L6.392,28.476 Z M22.596,27.266 C22.087,27.266 21.517,26.734 20.946,25.727 C20.15,24.322 19.399,23.195 18.511,22.075 C18.354,21.885 18.154,21.597 18.275,21.34 C18.315,21.255 18.423,21.113 18.69,21.113 C18.821,21.113 18.977,21.146 19.151,21.214 C21.62,22.15 23.307,23.726 23.446,25.227 C23.523,26.086 23.409,26.709 23.115,27.03 C22.975,27.184 22.795,27.266 22.596,27.266 L22.596,27.266 Z" id="Fill-33" fill="#AB2430" sketch:type="MSShapeGroup"></path>
                <path d="M13.1,14.861 C13.373,14.861 13.803,14.983 14.408,15.281 C15.684,15.895 15.777,16.416 15.566,16.793 C15.022,17.69 14.881,19.297 15.164,28.981 C15.211,30.683 14.951,31.815 14.219,32.879 C14.009,33.176 13.815,33.329 13.619,33.329 C13.397,33.329 13.171,33.129 12.918,32.715 C12.494,31.981 11.668,30.988 10.723,30.068 C10.45,29.795 10.375,29.596 10.577,29.596 C10.654,29.596 10.773,29.625 10.935,29.69 C11.942,30.067 12.55,30.24 12.92,30.24 C13.315,30.24 13.438,30.044 13.486,29.69 C13.935,26.148 13.819,20.03 13.676,18.232 C13.58,17.006 13.299,16.108 12.896,15.589 C12.619,15.18 12.656,14.861 13.1,14.861 L13.1,14.861 Z M18.69,21.363 C18.789,21.363 18.918,21.392 19.063,21.447 C21.613,22.415 23.076,23.949 23.197,25.25 C23.3,26.382 23.044,27.016 22.596,27.016 C22.222,27.016 21.712,26.572 21.164,25.604 C20.361,24.186 19.606,23.053 18.707,21.92 C18.389,21.534 18.451,21.363 18.69,21.363 L18.69,21.363 Z M8.338,21.713 C8.45,21.713 8.594,21.837 8.787,22.107 C9.211,22.746 9.045,23.784 8.455,25.32 C7.772,27.021 7.273,27.612 6.754,28.059 C6.629,28.171 6.506,28.226 6.392,28.226 C6.119,28.226 5.9,27.916 5.834,27.351 C5.74,26.548 5.881,26.076 6.59,25.177 C6.992,24.637 7.772,23.17 8.057,22.131 C8.129,21.861 8.215,21.713 8.338,21.713 L8.338,21.713 Z M13.1,14.361 L13.1,14.361 C12.602,14.361 12.391,14.622 12.309,14.777 C12.195,14.991 12.133,15.354 12.482,15.869 C12.854,16.35 13.093,17.193 13.178,18.271 C13.321,20.09 13.432,26.146 12.99,29.628 C12.983,29.681 12.975,29.716 12.969,29.738 C12.956,29.739 12.94,29.74 12.92,29.74 C12.538,29.74 11.705,29.444 11.111,29.223 C10.899,29.137 10.727,29.096 10.577,29.096 C10.266,29.096 10.078,29.28 10.006,29.453 C9.829,29.881 10.221,30.273 10.369,30.422 C11.296,31.324 12.085,32.272 12.486,32.965 C12.715,33.342 13.075,33.829 13.619,33.829 C14.16,33.829 14.512,33.331 14.627,33.167 C15.415,32.023 15.715,30.808 15.664,28.968 C15.393,19.686 15.508,17.852 15.994,17.053 C16.162,16.753 16.196,16.445 16.102,16.147 C15.949,15.666 15.467,15.235 14.625,14.831 C13.984,14.516 13.484,14.361 13.1,14.361 L13.1,14.361 Z M18.69,20.863 L18.69,20.863 C18.27,20.863 18.102,21.122 18.05,21.233 C17.847,21.664 18.204,22.096 18.321,22.238 C19.195,23.34 19.94,24.457 20.729,25.851 C21.354,26.956 21.983,27.516 22.596,27.516 C22.863,27.516 23.113,27.403 23.3,27.199 C23.648,26.819 23.78,26.148 23.695,25.205 C23.544,23.584 21.837,21.965 19.24,20.979 C19.037,20.902 18.852,20.863 18.69,20.863 L18.69,20.863 Z M8.338,21.213 L8.338,21.213 C7.971,21.213 7.714,21.479 7.574,22.001 C7.309,22.969 6.565,24.374 6.189,24.878 C5.425,25.847 5.225,26.44 5.337,27.409 C5.481,28.631 6.181,28.726 6.392,28.726 C6.56,28.726 6.817,28.674 7.088,28.431 C7.703,27.902 8.229,27.225 8.919,25.507 C9.62,23.682 9.704,22.585 9.204,21.831 C8.981,21.518 8.712,21.213 8.338,21.213 L8.338,21.213 Z" id="Fill-34" fill="#FFFFFF" sketch:type="MSShapeGroup"></path>
                <path d="M48.103,32.923 C46.141,32.923 45.623,32.533 44.91,31.645 C43.516,29.965 41.757,27.567 40.244,25.291 C39.123,29.252 36.612,31.335 32.175,32.018 C32.043,32.038 31.935,32.046 31.846,32.046 C31.457,32.046 31.345,31.88 31.319,31.74 C31.277,31.499 31.494,31.276 31.933,31.113 C35.908,29.669 38.158,27.163 38.801,23.461 C38.207,23.574 37.673,23.692 37.244,23.788 L36.889,23.866 C36.432,23.985 36.025,24.045 35.658,24.045 C35.145,24.045 34.674,23.93 34.176,23.682 C33.755,23.472 33.377,23.234 33.451,22.917 C33.524,22.608 33.946,22.566 34.349,22.566 C34.349,22.566 34.485,22.568 34.487,22.568 C35.18,22.568 36.971,22.333 38.965,21.991 C39.071,20.686 39.073,19.258 38.972,18.084 C38.62,18.114 38.317,18.128 38.051,18.128 C37.401,18.128 36.913,18.046 36.416,17.854 C36.023,17.717 35.569,17.511 35.618,17.16 C35.666,16.82 36.126,16.755 36.468,16.734 C37.315,16.673 39.883,16.316 42.391,15.609 C43.195,15.379 43.878,15.267 44.479,15.267 C44.85,15.267 45.204,15.309 45.564,15.394 C46.143,15.54 46.442,15.771 46.459,16.081 C46.47,16.285 46.356,16.575 45.756,16.794 C44.71,17.159 42.639,17.553 40.967,17.812 C41.005,19.334 40.98,20.645 40.896,21.641 C42.444,21.353 43.644,21.081 44.464,20.83 C44.798,20.734 45.169,20.686 45.57,20.686 C46.237,20.686 46.933,20.825 47.431,21.058 C47.987,21.31 48.022,21.617 47.991,21.777 C47.909,22.22 47.225,22.472 45.898,22.549 C44.249,22.654 42.425,22.86 40.74,23.131 C40.722,23.237 40.639,23.691 40.619,23.815 C41.87,25.473 43.537,27.389 44.445,28.209 C46.031,29.667 47.896,30.809 51.841,31.645 C52.27,31.735 52.534,31.975 52.515,32.252 C52.506,32.374 52.424,32.664 51.852,32.704 C50.053,32.857 48.93,32.923 48.103,32.923" id="Fill-35" fill="#AB2430" sketch:type="MSShapeGroup"></path>
                <path d="M44.479,15.517 C44.856,15.517 45.189,15.561 45.506,15.638 C46.451,15.876 46.381,16.3 45.67,16.56 C44.654,16.914 42.578,17.315 40.711,17.599 C40.758,19.252 40.736,20.811 40.615,21.946 C42.057,21.685 43.523,21.38 44.537,21.069 C44.858,20.978 45.213,20.935 45.57,20.935 C46.217,20.935 46.869,21.071 47.324,21.284 C48.104,21.637 47.914,22.182 45.883,22.299 C44.018,22.419 42.106,22.653 40.522,22.913 C40.473,23.244 40.404,23.553 40.356,23.882 C41.561,25.487 43.309,27.518 44.277,28.394 C46.025,30.001 48.008,31.088 51.789,31.889 C52.356,32.01 52.473,32.41 51.834,32.455 C50.168,32.597 48.979,32.673 48.103,32.673 C46.197,32.673 45.768,32.313 45.105,31.488 C43.733,29.834 41.844,27.283 40.144,24.685 C39.152,28.796 36.742,31.062 32.137,31.771 C32.021,31.788 31.925,31.796 31.846,31.796 C31.378,31.796 31.535,31.528 32.019,31.348 C36.244,29.812 38.535,27.095 39.104,23.15 C38.184,23.315 37.379,23.504 36.836,23.622 C36.389,23.738 36.006,23.795 35.658,23.795 C35.16,23.795 34.732,23.68 34.287,23.458 C33.432,23.031 33.541,22.816 34.349,22.816 C34.389,22.816 34.431,22.817 34.475,22.818 C34.5,22.819 34.528,22.82 34.56,22.82 C35.221,22.82 37.121,22.565 39.197,22.205 C39.34,20.622 39.319,18.994 39.197,17.812 C38.746,17.857 38.371,17.878 38.051,17.878 C37.365,17.878 36.925,17.783 36.506,17.621 C35.633,17.315 35.678,17.031 36.482,16.984 C37.449,16.914 40.025,16.536 42.459,15.85 C43.285,15.612 43.929,15.517 44.479,15.517 M44.479,15.017 C43.854,15.017 43.148,15.132 42.321,15.369 C39.834,16.07 37.289,16.425 36.446,16.485 C36.206,16.5 35.452,16.544 35.371,17.125 C35.287,17.724 36.053,17.992 36.341,18.093 C36.854,18.291 37.369,18.378 38.051,18.378 C38.261,18.378 38.49,18.369 38.742,18.353 C38.818,19.403 38.815,20.63 38.731,21.777 C36.821,22.101 35.139,22.32 34.56,22.32 L34.497,22.318 L34.349,22.316 C34.046,22.316 33.336,22.316 33.208,22.859 C33.078,23.413 33.719,23.733 34.063,23.905 C34.598,24.171 35.105,24.295 35.658,24.295 C36.047,24.295 36.474,24.232 36.962,24.105 L37.299,24.032 C37.644,23.955 38.044,23.866 38.486,23.777 C37.778,27.187 35.601,29.515 31.849,30.878 C31.083,31.163 31.035,31.568 31.074,31.784 C31.102,31.938 31.232,32.296 31.846,32.296 C31.944,32.296 32.065,32.287 32.209,32.267 C36.505,31.604 39.111,29.56 40.329,25.867 C41.777,28.016 43.408,30.226 44.721,31.808 C45.463,32.733 46.041,33.173 48.103,33.173 C48.937,33.173 50.066,33.107 51.876,32.953 C52.658,32.898 52.754,32.416 52.764,32.269 C52.793,31.86 52.451,31.519 51.894,31.399 C48.003,30.576 46.171,29.455 44.615,28.026 C43.746,27.239 42.102,25.353 40.883,23.751 C40.898,23.664 40.914,23.578 40.93,23.492 C40.939,23.445 40.947,23.397 40.955,23.35 C42.583,23.095 44.33,22.9 45.915,22.798 C47.391,22.713 48.13,22.403 48.237,21.823 C48.272,21.636 48.272,21.164 47.53,20.828 C47.008,20.584 46.273,20.436 45.57,20.436 C45.146,20.436 44.751,20.487 44.398,20.589 C43.638,20.822 42.555,21.072 41.169,21.335 C41.231,20.429 41.249,19.305 41.222,18.025 C42.353,17.845 44.632,17.451 45.835,17.031 C46.624,16.743 46.721,16.305 46.709,16.068 C46.687,15.636 46.322,15.328 45.628,15.152 C45.243,15.061 44.869,15.017 44.479,15.017" id="Fill-36" fill="#FFFFFF" sketch:type="MSShapeGroup"></path>
                <path d="M70.311,34.573 C69.932,34.573 69.685,34.22 69.531,33.954 C69.178,33.358 68.398,32.456 67.498,31.602 C67.342,31.457 67.141,31.234 67.233,30.998 C67.266,30.915 67.359,30.776 67.621,30.776 C67.734,30.776 67.873,30.801 68.045,30.852 C68.792,31.066 69.295,31.166 69.628,31.166 C70.018,31.166 70.122,31.064 70.161,30.644 C70.362,28.442 70.411,27.323 70.36,22.501 C67.637,27.065 63.67,29.74 60.757,30.739 C60.58,30.799 60.426,30.828 60.298,30.828 C59.978,30.828 59.892,30.642 59.869,30.561 C59.804,30.325 59.987,30.08 60.43,29.814 C63.132,28.211 66.828,24.985 69.193,21.287 C67.14,21.531 65.697,21.892 64.549,22.216 C64.134,22.323 63.74,22.376 63.373,22.376 C62.718,22.376 62.127,22.215 61.566,21.883 C61.409,21.798 60.911,21.525 61.007,21.148 C61.071,20.899 61.348,20.773 61.831,20.773 C61.889,20.773 62.118,20.784 62.182,20.784 C63.03,20.784 65.401,20.484 70.345,19.752 C70.271,16.845 70.069,15.756 69.478,14.964 C69.156,14.552 69.057,14.207 69.185,13.944 C69.258,13.795 69.434,13.617 69.859,13.617 C70.171,13.617 70.583,13.711 71.085,13.896 C72.539,14.45 72.669,14.737 72.157,16.265 C72,16.74 71.919,17.801 71.911,19.501 L72.099,19.467 C72.772,19.346 73.535,19.208 74.251,19.04 C74.836,18.907 75.338,18.843 75.785,18.843 C76.628,18.843 77.338,19.077 77.955,19.559 C78.327,19.851 78.482,20.19 78.378,20.491 C78.312,20.685 78.078,21.009 77.264,21.009 C77.16,21.009 77.049,21.003 76.928,20.992 C76.169,20.919 75.56,20.888 74.888,20.888 C74.064,20.888 73.114,20.938 71.915,21.045 C71.972,23.486 72.171,29.167 72.242,30.295 C72.333,31.674 71.864,33.182 71.047,34.135 C70.787,34.434 70.554,34.573 70.311,34.573" id="Fill-37" fill="#AB2430" sketch:type="MSShapeGroup"></path>
                <path d="M69.859,13.867 C70.127,13.867 70.507,13.949 70.998,14.131 C72.301,14.627 72.395,14.77 71.92,16.186 C71.779,16.611 71.66,17.51 71.66,19.801 C72.439,19.657 73.41,19.494 74.309,19.283 C74.848,19.161 75.336,19.093 75.785,19.093 C76.553,19.093 77.206,19.291 77.801,19.756 C78.402,20.228 78.261,20.759 77.264,20.759 C77.167,20.759 77.064,20.754 76.951,20.743 C76.276,20.678 75.639,20.638 74.888,20.638 C74.033,20.638 73.031,20.69 71.66,20.817 C71.709,23.155 71.92,29.157 71.992,30.31 C72.086,31.729 71.566,33.145 70.857,33.972 C70.649,34.212 70.472,34.323 70.311,34.323 C70.108,34.323 69.931,34.146 69.748,33.829 C69.371,33.194 68.566,32.271 67.67,31.421 C67.41,31.18 67.392,31.026 67.621,31.026 C67.705,31.026 67.823,31.047 67.975,31.092 C68.738,31.311 69.265,31.416 69.628,31.416 C70.198,31.416 70.365,31.156 70.41,30.668 C70.621,28.352 70.668,27.264 70.6,21.571 C68.047,26.32 63.984,29.368 60.676,30.503 C60.521,30.555 60.393,30.578 60.297,30.578 C60.001,30.578 60.023,30.35 60.559,30.029 C63.229,28.444 67.221,25.045 69.678,20.981 C67.197,21.24 65.568,21.668 64.481,21.976 C64.088,22.076 63.721,22.126 63.373,22.126 C62.757,22.126 62.205,21.971 61.693,21.668 C61.014,21.297 61.147,21.023 61.831,21.023 C61.884,21.023 61.941,21.025 62,21.028 C62.052,21.032 62.111,21.034 62.182,21.034 C63.006,21.034 65.177,20.771 70.6,19.967 C70.527,16.778 70.314,15.666 69.678,14.814 C69.228,14.237 69.291,13.867 69.859,13.867 M69.859,13.367 C69.275,13.367 69.046,13.66 68.96,13.834 C68.786,14.19 68.896,14.624 69.283,15.122 C69.818,15.838 70.012,16.857 70.089,19.537 C65.308,20.244 63.005,20.534 62.182,20.534 C62.125,20.534 62.076,20.532 62.034,20.529 C61.959,20.525 61.893,20.523 61.831,20.523 C61.068,20.523 60.831,20.83 60.765,21.087 C60.669,21.461 60.9,21.805 61.453,22.106 C62.039,22.453 62.672,22.626 63.373,22.626 C63.762,22.626 64.176,22.57 64.605,22.46 C65.651,22.164 66.93,21.842 68.686,21.603 C66.34,25.077 62.868,28.077 60.304,29.6 C60.099,29.723 59.48,30.093 59.628,30.629 C59.689,30.846 59.896,31.078 60.297,31.078 C60.453,31.078 60.633,31.044 60.834,30.977 C63.634,30.017 67.387,27.538 70.118,23.359 C70.154,27.457 70.1,28.566 69.912,30.623 C69.893,30.838 69.853,30.882 69.852,30.883 C69.852,30.883 69.803,30.916 69.628,30.916 C69.323,30.916 68.828,30.816 68.112,30.611 C67.92,30.555 67.758,30.526 67.621,30.526 C67.184,30.526 67.036,30.818 67.001,30.907 C66.891,31.188 67.002,31.483 67.33,31.788 C68.21,32.623 68.974,33.505 69.318,34.084 C69.432,34.282 69.743,34.823 70.311,34.823 C70.627,34.823 70.929,34.651 71.235,34.3 C72.094,33.297 72.586,31.72 72.491,30.277 C72.423,29.187 72.233,23.824 72.171,21.273 C73.254,21.182 74.125,21.138 74.888,21.138 C75.551,21.138 76.153,21.169 76.903,21.241 C77.034,21.253 77.153,21.259 77.264,21.259 C78.232,21.259 78.525,20.829 78.614,20.572 C78.681,20.38 78.765,19.876 78.109,19.362 C77.445,18.845 76.686,18.593 75.786,18.593 C75.318,18.593 74.799,18.659 74.198,18.796 C73.524,18.954 72.807,19.085 72.163,19.201 C72.179,17.704 72.255,16.767 72.395,16.342 C72.948,14.69 72.755,14.265 71.176,13.664 C70.642,13.467 70.2,13.367 69.859,13.367" id="Fill-38" fill="#FFFFFF" sketch:type="MSShapeGroup"></path>
            </g>
        </g>
    </g>
</svg>