<?xml version="1.0" encoding="UTF-8" standalone="no"?>
<svg width="120px" height="120px" viewBox="0 0 120 120" version="1.1" xmlns="http://www.w3.org/2000/svg" xmlns:xlink="http://www.w3.org/1999/xlink" xmlns:sketch="http://www.bohemiancoding.com/sketch/ns">
    <!-- Generator: Sketch 3.3.2 (12043) - http://www.bohemiancoding.com/sketch -->
    <title>Mobile Portrait Copy 9</title>
    <desc>Created with Sketch.</desc>
    <defs></defs>
    <g id="baby" stroke="none" stroke-width="1" fill="none" fill-rule="evenodd" sketch:type="MSPage">
        <g id="Mobile-Portrait-Copy-9" sketch:type="MSArtboardGroup">
            <g id="Imported-Layers" sketch:type="MSLayerGroup" transform="translate(13.000000, 28.000000)">
                <path d="M2.701,25.589 C3.273,25.894 75.676,13.33 75.676,13.33 L43.139,53.489 L2.701,25.589" id="Fill-1" fill="#1A1918" sketch:type="MSShapeGroup"></path>
                <path d="M21.975,45.955 C22.145,46.045 43.602,42.32 43.602,42.32 L33.961,54.223 L21.975,45.955" id="Fill-2" fill="#FFFFFF" sketch:type="MSShapeGroup"></path>
                <path d="M54.008,13.536 C54.062,13.588 62.695,14.183 62.695,14.183 L57.85,17.861 L54.008,13.536" id="Fill-3" fill="#FFFFFF" sketch:type="MSShapeGroup"></path>
                <path d="M58.605,10.393 C58.678,10.416 66.785,7.395 66.785,7.395 L63.889,12.746 L58.605,10.393" id="Fill-4" fill="#FFFFFF" sketch:type="MSShapeGroup"></path>
                <path d="M13.871,23.513 C13.408,23.513 12.989,23.256 12.777,22.843 L12.624,22.541 C11.983,22.422 11.518,21.973 11.385,21.368 L11.248,20.732 C11.144,20.245 11.373,19.762 11.781,19.523 C11.315,19.432 10.917,19.105 10.747,18.652 C10.411,17.783 9.805,17.022 9.041,16.514 C7.772,15.661 6.889,14.374 6.554,12.889 C6.197,11.328 6.469,9.727 7.317,8.382 C8.167,7.035 9.497,6.101 11.063,5.749 C11.493,5.652 11.935,5.603 12.373,5.603 C15.151,5.603 17.597,7.579 18.186,10.302 C18.516,11.819 18.246,13.382 17.429,14.699 C16.939,15.492 16.71,16.408 16.767,17.348 C16.797,17.837 16.562,18.296 16.179,18.57 C16.664,18.617 17.063,18.968 17.17,19.453 L17.307,20.088 C17.441,20.707 17.174,21.339 16.668,21.681 L16.649,22.008 C16.62,22.562 16.222,23.031 15.681,23.149 L14.133,23.484 C14.048,23.504 13.96,23.513 13.871,23.513 L13.871,23.513 Z M11.637,8.219 C9.783,8.621 8.603,10.457 9.004,12.312 C9.016,12.362 9.064,12.402 9.119,12.402 C9.202,12.387 9.243,12.323 9.231,12.262 C9.049,11.425 9.205,10.566 9.67,9.845 C10.135,9.123 10.851,8.627 11.687,8.446 C11.741,8.435 11.788,8.361 11.777,8.308 C11.766,8.256 11.716,8.217 11.662,8.217 C11.654,8.217 11.646,8.218 11.637,8.219 L11.637,8.219 Z M6.936,21.104 C6.721,21.104 6.513,21.043 6.334,20.928 C5.818,20.595 5.668,19.903 5.999,19.387 L7.17,17.569 C7.372,17.249 7.723,17.056 8.106,17.056 C8.322,17.056 8.532,17.119 8.714,17.239 C8.96,17.397 9.134,17.648 9.197,17.94 C9.26,18.231 9.205,18.529 9.043,18.779 L7.871,20.595 C7.724,20.835 7.467,21.015 7.173,21.078 C7.095,21.096 7.016,21.104 6.936,21.104 L6.936,21.104 Z M20.783,18.103 C20.569,18.103 20.361,18.041 20.183,17.926 L18.368,16.757 C18.116,16.596 17.942,16.347 17.879,16.056 C17.816,15.765 17.87,15.466 18.033,15.214 C18.24,14.893 18.591,14.701 18.971,14.701 C19.185,14.701 19.395,14.764 19.576,14.881 L21.389,16.052 C21.638,16.211 21.812,16.46 21.875,16.751 C21.938,17.043 21.884,17.342 21.721,17.594 C21.566,17.838 21.311,18.015 21.021,18.077 C20.944,18.094 20.863,18.103 20.783,18.103 L20.783,18.103 Z M2.568,14.797 C2.049,14.797 1.59,14.428 1.479,13.92 C1.349,13.317 1.732,12.723 2.333,12.592 L4.44,12.135 C4.519,12.117 4.599,12.109 4.678,12.109 C5.201,12.109 5.66,12.481 5.769,12.992 C5.831,13.281 5.777,13.58 5.615,13.831 C5.454,14.08 5.204,14.253 4.912,14.315 L2.805,14.772 C2.728,14.789 2.648,14.797 2.568,14.797 L2.568,14.797 Z M20.045,11.01 C19.523,11.01 19.065,10.64 18.956,10.13 C18.827,9.53 19.21,8.935 19.809,8.804 L21.918,8.348 C21.996,8.33 22.076,8.322 22.155,8.322 C22.678,8.322 23.136,8.692 23.245,9.202 C23.374,9.802 22.991,10.397 22.392,10.527 L20.281,10.984 C20.204,11.002 20.124,11.01 20.045,11.01 L20.045,11.01 Z M5.749,8.415 C5.532,8.415 5.324,8.354 5.145,8.237 L3.328,7.071 C3.076,6.909 2.902,6.66 2.84,6.369 C2.777,6.078 2.832,5.779 2.994,5.528 C3.198,5.208 3.549,5.016 3.93,5.016 C4.145,5.016 4.353,5.077 4.534,5.193 L6.353,6.363 C6.604,6.525 6.776,6.774 6.84,7.065 C6.902,7.357 6.848,7.656 6.686,7.907 C6.527,8.151 6.273,8.327 5.988,8.39 C5.907,8.407 5.827,8.415 5.749,8.415 L5.749,8.415 Z M16.613,6.064 C16.406,6.064 16.201,6.006 16.022,5.896 C15.76,5.727 15.586,5.476 15.523,5.183 C15.462,4.893 15.517,4.596 15.679,4.347 L16.847,2.53 C17.055,2.209 17.405,2.018 17.786,2.018 C18,2.018 18.208,2.078 18.389,2.194 C18.644,2.358 18.816,2.609 18.879,2.902 C18.94,3.193 18.885,3.491 18.722,3.741 L17.553,5.555 C17.397,5.8 17.142,5.978 16.852,6.039 C16.777,6.056 16.695,6.064 16.613,6.064 L16.613,6.064 Z M10.696,4.991 C10.177,4.991 9.719,4.623 9.606,4.114 L9.15,2.003 C9.087,1.711 9.141,1.413 9.301,1.163 C9.462,0.913 9.712,0.74 10.004,0.678 C10.081,0.66 10.161,0.651 10.241,0.651 C10.761,0.651 11.219,1.021 11.33,1.529 L11.787,3.64 C11.917,4.239 11.534,4.834 10.933,4.966 C10.854,4.983 10.775,4.991 10.696,4.991 L10.696,4.991 Z" id="Fill-5" fill="#FFFFFF" sketch:type="MSShapeGroup"></path>
                <path d="M10.241,1.151 C10.525,1.151 10.779,1.351 10.842,1.637 L11.299,3.745 C11.371,4.079 11.156,4.405 10.826,4.478 C10.782,4.487 10.739,4.491 10.696,4.491 C10.414,4.491 10.158,4.296 10.094,4.006 L9.639,1.897 C9.566,1.563 9.775,1.238 10.109,1.166 C10.153,1.156 10.198,1.151 10.241,1.151 M17.786,2.518 C17.9,2.518 18.016,2.549 18.119,2.615 C18.406,2.801 18.49,3.181 18.303,3.468 L17.133,5.284 C17.043,5.426 16.9,5.518 16.748,5.55 C16.703,5.56 16.658,5.564 16.613,5.564 C16.5,5.564 16.387,5.533 16.283,5.47 C15.996,5.284 15.912,4.904 16.098,4.619 L17.268,2.801 C17.387,2.617 17.584,2.518 17.786,2.518 M3.93,5.516 C4.044,5.516 4.16,5.548 4.264,5.614 L6.082,6.784 C6.369,6.969 6.451,7.349 6.266,7.636 C6.174,7.777 6.031,7.868 5.881,7.901 C5.838,7.91 5.793,7.915 5.749,7.915 C5.636,7.915 5.52,7.885 5.418,7.818 L3.598,6.65 C3.311,6.466 3.229,6.087 3.414,5.799 C3.531,5.615 3.729,5.516 3.93,5.516 M12.373,6.104 C14.885,6.104 17.144,7.853 17.697,10.407 C18.01,11.848 17.723,13.277 17.004,14.436 C16.457,15.32 16.205,16.351 16.268,17.378 C16.295,17.819 15.992,18.217 15.557,18.311 L12.244,19.028 C12.18,19.043 12.114,19.05 12.05,19.05 C11.687,19.05 11.348,18.829 11.215,18.477 C10.844,17.516 10.18,16.671 9.318,16.098 C8.205,15.35 7.359,14.189 7.041,12.778 C6.365,9.816 8.207,6.902 11.172,6.237 C11.574,6.147 11.978,6.104 12.373,6.104 M9.119,12.902 C9.161,12.902 9.205,12.898 9.248,12.889 C9.576,12.816 9.791,12.49 9.719,12.156 C9.402,10.694 10.334,9.25 11.793,8.935 C12.127,8.862 12.338,8.536 12.266,8.202 C12.203,7.915 11.947,7.717 11.662,7.717 C11.619,7.717 11.575,7.721 11.531,7.73 C9.41,8.19 8.055,10.291 8.516,12.417 C8.578,12.703 8.834,12.902 9.119,12.902 M22.155,8.822 C22.441,8.822 22.695,9.021 22.756,9.307 C22.828,9.642 22.613,9.968 22.285,10.039 L20.176,10.496 C20.132,10.506 20.088,10.51 20.045,10.51 C19.761,10.51 19.506,10.311 19.445,10.025 C19.373,9.689 19.586,9.364 19.916,9.292 L22.023,8.836 C22.067,8.826 22.111,8.822 22.155,8.822 M4.678,12.609 C4.963,12.609 5.219,12.809 5.279,13.096 C5.352,13.429 5.141,13.755 4.807,13.827 L2.699,14.283 C2.655,14.293 2.611,14.297 2.568,14.297 C2.284,14.297 2.029,14.099 1.967,13.812 C1.895,13.478 2.107,13.152 2.439,13.08 L4.547,12.623 C4.591,12.613 4.635,12.609 4.678,12.609 M18.971,15.201 C19.085,15.201 19.201,15.233 19.305,15.301 L21.117,16.472 C21.404,16.655 21.486,17.035 21.301,17.322 C21.211,17.464 21.066,17.556 20.916,17.588 C20.873,17.598 20.828,17.603 20.783,17.603 C20.67,17.603 20.555,17.571 20.453,17.506 L18.639,16.337 C18.35,16.151 18.268,15.772 18.453,15.484 C18.571,15.301 18.769,15.201 18.971,15.201 M8.106,17.557 C8.22,17.557 8.335,17.588 8.438,17.656 C8.725,17.841 8.809,18.221 8.623,18.507 L7.451,20.323 C7.363,20.466 7.219,20.557 7.066,20.59 C7.024,20.599 6.981,20.603 6.936,20.603 C6.822,20.603 6.707,20.573 6.606,20.508 C6.318,20.322 6.236,19.943 6.42,19.656 L7.59,17.84 C7.706,17.656 7.903,17.557 8.106,17.557 M16.066,19.065 C16.357,19.065 16.617,19.266 16.682,19.561 L16.818,20.193 C16.928,20.697 16.648,21.196 16.184,21.371 L16.15,21.98 C16.133,22.311 15.9,22.59 15.574,22.661 L14.027,22.996 C13.976,23.008 13.923,23.013 13.871,23.013 C13.602,23.013 13.349,22.862 13.223,22.615 L12.947,22.073 C12.927,22.074 12.906,22.075 12.886,22.075 C12.406,22.075 11.979,21.748 11.873,21.261 L11.736,20.627 C11.664,20.289 11.877,19.958 12.215,19.885 L15.938,19.078 C15.981,19.069 16.023,19.065 16.066,19.065 M10.241,0.151 C10.125,0.151 10.009,0.164 9.896,0.189 C9.475,0.28 9.113,0.53 8.881,0.893 C8.648,1.255 8.57,1.686 8.661,2.109 L9.116,4.217 C9.254,4.835 9.716,5.298 10.3,5.443 C9.139,5.831 8.125,6.53 7.356,7.473 C7.374,7.303 7.365,7.131 7.328,6.96 C7.237,6.538 6.986,6.177 6.623,5.943 L4.805,4.773 C4.543,4.604 4.24,4.516 3.93,4.516 C3.378,4.516 2.869,4.794 2.571,5.26 C2.339,5.621 2.26,6.053 2.352,6.475 C2.442,6.897 2.693,7.258 3.057,7.491 L4.878,8.66 C5.133,8.826 5.436,8.915 5.749,8.915 C5.862,8.915 5.977,8.903 6.088,8.88 C6.261,8.842 6.423,8.778 6.569,8.692 C6.027,9.783 5.809,10.996 5.936,12.212 C5.636,11.843 5.177,11.609 4.678,11.609 C4.562,11.609 4.447,11.621 4.335,11.646 L2.228,12.103 C1.356,12.292 0.802,13.154 0.989,14.023 C1.151,14.763 1.815,15.297 2.568,15.297 C2.684,15.297 2.798,15.285 2.91,15.261 L5.019,14.805 C5.44,14.713 5.802,14.464 6.035,14.102 C6.13,13.955 6.199,13.797 6.242,13.632 C6.628,14.781 7.328,15.795 8.271,16.564 C8.217,16.559 8.161,16.557 8.106,16.557 C7.55,16.557 7.041,16.836 6.745,17.305 L5.579,19.115 C5.1,19.865 5.317,20.865 6.062,21.348 C6.322,21.516 6.624,21.604 6.936,21.604 C7.051,21.604 7.165,21.592 7.275,21.567 C7.705,21.475 8.078,21.212 8.303,20.848 L9.463,19.049 C9.697,18.689 9.776,18.257 9.686,17.835 C9.681,17.813 9.676,17.789 9.67,17.767 C9.925,18.089 10.133,18.45 10.282,18.837 C10.413,19.184 10.644,19.478 10.939,19.688 C10.746,20.024 10.672,20.43 10.759,20.836 L10.896,21.472 C11.059,22.215 11.599,22.779 12.29,22.988 L12.331,23.068 C12.63,23.652 13.22,24.013 13.871,24.013 C13.996,24.013 14.12,24 14.242,23.973 L15.786,23.639 C16.548,23.472 17.107,22.812 17.148,22.033 L17.154,21.934 C17.689,21.459 17.955,20.714 17.796,19.981 L17.659,19.35 C17.569,18.939 17.336,18.597 17.018,18.368 C17.196,18.057 17.289,17.693 17.266,17.316 C17.24,16.899 17.278,16.487 17.377,16.092 C17.381,16.115 17.386,16.139 17.391,16.161 C17.482,16.583 17.733,16.944 18.099,17.179 L19.911,18.347 C20.172,18.514 20.473,18.603 20.783,18.603 C20.899,18.603 21.016,18.59 21.129,18.564 C21.545,18.476 21.917,18.218 22.146,17.858 C22.376,17.501 22.455,17.067 22.363,16.645 C22.271,16.223 22.02,15.862 21.656,15.629 L19.848,14.461 C19.585,14.291 19.281,14.201 18.971,14.201 C18.678,14.201 18.398,14.279 18.155,14.422 C18.696,13.331 18.914,12.118 18.788,10.906 C19.088,11.277 19.547,11.51 20.045,11.51 C20.16,11.51 20.274,11.498 20.387,11.474 L22.497,11.017 C23.367,10.827 23.921,9.966 23.733,9.096 C23.576,8.358 22.912,7.822 22.155,7.822 C22.041,7.822 21.926,7.834 21.814,7.858 L19.704,8.314 C19.087,8.45 18.629,8.924 18.481,9.498 C18.084,8.324 17.359,7.311 16.428,6.554 C16.489,6.561 16.551,6.564 16.613,6.564 C16.732,6.564 16.852,6.552 16.968,6.525 C17.375,6.439 17.748,6.181 17.978,5.82 L19.144,4.01 C19.377,3.652 19.457,3.221 19.367,2.799 C19.277,2.375 19.027,2.012 18.662,1.775 C18.396,1.606 18.096,1.518 17.786,1.518 C17.235,1.518 16.728,1.794 16.428,2.258 L15.257,4.078 C15.024,4.435 14.944,4.865 15.034,5.287 C15.072,5.463 15.137,5.629 15.227,5.779 C14.358,5.346 13.387,5.104 12.373,5.104 C12.15,5.104 11.926,5.115 11.703,5.139 C12.168,4.767 12.41,4.151 12.276,3.533 L11.819,1.425 C11.657,0.687 10.994,0.151 10.241,0.151" id="Fill-6" fill="#1A1918" sketch:type="MSShapeGroup"></path>
                <path d="M22.719,40.701 C22.634,40.701 22.543,40.698 22.445,40.689 L22.268,40.675 L22.225,40.501 C22.009,39.638 21.837,38.786 21.665,37.933 L21.628,37.748 C20.887,34.033 20.432,30.23 20.273,26.444 L20.269,26.313 L20.373,26.233 C20.411,26.206 20.498,26.141 21.139,26.013 C21.227,25.995 21.324,25.986 21.432,25.986 C21.591,25.986 21.773,26.006 21.978,26.041 L22.154,26.071 L22.293,26.939 C23.638,25.809 25.075,25.064 26.571,24.723 C27.229,24.597 27.834,24.533 28.377,24.533 C30.502,24.533 31.827,25.481 32.314,27.352 C32.539,28.477 32.101,29.821 30.975,31.468 C32.881,32.439 33.929,33.514 34.175,34.746 C34.651,37.36 33.265,39.033 30.055,39.721 C29.643,39.804 29.217,39.845 28.784,39.845 C27.599,39.845 26.322,39.536 24.99,38.928 L24.855,38.866 L24.845,38.718 C24.818,38.354 24.934,37.922 25.194,37.397 L25.292,37.2 L25.5,37.272 C26.621,37.662 27.651,37.859 28.562,37.859 C28.951,37.859 29.327,37.823 29.68,37.753 C31.489,37.39 32.275,36.539 32.08,35.15 C31.877,34.133 30.662,33.197 28.472,32.385 L28.154,32.268 L28.36,31.998 C29.785,30.136 30.42,28.756 30.247,27.895 C30.04,26.937 29.387,26.488 28.191,26.488 C27.834,26.488 27.426,26.531 26.979,26.616 C25.425,26.97 23.935,27.854 22.558,29.242 C22.605,30.866 23.097,34.439 24.061,40.153 L24.089,40.32 L23.945,40.408 C23.771,40.516 23.564,40.589 23.275,40.647 C23.12,40.678 22.939,40.701 22.719,40.701" id="Fill-7" fill="#EB8B2D" sketch:type="MSShapeGroup"></path>
                <path d="M28.377,24.783 C30.377,24.783 31.613,25.655 32.072,27.415 C32.289,28.499 31.799,29.882 30.604,31.563 C32.576,32.52 33.688,33.581 33.93,34.795 C34.381,37.27 33.068,38.819 30.002,39.477 C29.608,39.556 29.202,39.595 28.784,39.595 C27.637,39.595 26.401,39.297 25.094,38.7 C25.07,38.366 25.193,37.96 25.418,37.509 C26.568,37.908 27.615,38.109 28.562,38.109 C28.969,38.109 29.357,38.072 29.728,37.998 C31.678,37.607 32.543,36.648 32.328,35.115 C32.104,33.988 30.846,32.999 28.559,32.15 C30.023,30.236 30.684,28.797 30.492,27.846 C30.26,26.772 29.497,26.238 28.191,26.238 C27.816,26.238 27.396,26.282 26.932,26.37 C25.271,26.748 23.725,27.689 22.305,29.143 C22.334,30.758 22.844,34.44 23.814,40.195 C23.654,40.294 23.463,40.354 23.227,40.401 C23.085,40.43 22.92,40.451 22.719,40.451 C22.641,40.451 22.557,40.448 22.467,40.44 C22.236,39.519 22.057,38.609 21.873,37.698 C21.139,34.017 20.684,30.277 20.523,26.434 C20.563,26.404 20.775,26.34 21.188,26.258 C21.261,26.243 21.343,26.236 21.432,26.236 C21.579,26.236 21.747,26.255 21.936,26.287 L22.117,27.423 C23.531,26.15 25.033,25.33 26.627,24.967 C27.264,24.845 27.848,24.783 28.377,24.783 M28.378,24.283 L28.378,24.283 C27.818,24.283 27.197,24.348 26.532,24.476 C25.108,24.8 23.749,25.47 22.472,26.472 L22.43,26.208 L22.373,25.855 L22.02,25.794 C21.792,25.755 21.6,25.736 21.432,25.736 C21.307,25.736 21.194,25.746 21.09,25.768 C20.394,25.906 20.291,25.982 20.224,26.033 L20.013,26.191 L20.023,26.454 C20.182,30.254 20.64,34.069 21.383,37.796 L21.42,37.982 C21.589,38.822 21.764,39.691 21.981,40.562 L22.068,40.908 L22.424,40.938 C22.529,40.947 22.627,40.951 22.719,40.951 C22.923,40.951 23.121,40.932 23.324,40.892 C23.644,40.828 23.875,40.745 24.076,40.621 L24.363,40.444 L24.308,40.112 C23.366,34.531 22.875,31.001 22.811,29.343 C24.133,28.031 25.556,27.196 27.043,26.857 C27.457,26.779 27.85,26.738 28.191,26.738 C29.565,26.738 29.882,27.387 30.004,27.951 C30.111,28.485 29.88,29.602 28.161,31.847 L27.75,32.384 L28.385,32.619 C30.459,33.389 31.653,34.286 31.838,35.213 C31.943,35.971 31.834,37.066 29.63,37.508 C29.294,37.575 28.935,37.609 28.562,37.609 C27.679,37.609 26.676,37.417 25.582,37.036 L25.166,36.893 L24.971,37.286 C24.689,37.852 24.566,38.325 24.595,38.735 L24.615,39.031 L24.886,39.155 C26.251,39.778 27.563,40.095 28.784,40.095 C29.233,40.095 29.676,40.052 30.1,39.967 C34.302,39.066 34.769,36.608 34.422,34.705 C34.17,33.441 33.159,32.352 31.337,31.375 C32.387,29.774 32.788,28.443 32.563,27.317 C32.044,25.322 30.599,24.283 28.378,24.283" id="Fill-8" fill="#EB8B2D" sketch:type="MSShapeGroup"></path>
                <path d="M35.977,38.126 C35.816,38.022 35.743,37.79 35.663,37.399 C35.613,37.146 35.583,36.869 35.572,36.586 L35.564,36.374 L36.088,36.269 C36.877,36.111 37.597,35.967 38.233,35.825 C37.796,33.583 37.238,30.037 36.531,25.007 L33.614,25.39 L33.545,25.203 C33.495,25.069 33.442,24.818 33.37,24.453 C33.328,24.246 33.303,24.009 33.299,23.745 L33.296,23.537 L34.52,23.292 C35.71,23.055 37.764,22.741 41.18,22.277 L41.359,22.253 L41.438,22.417 C41.522,22.594 41.594,22.819 41.649,23.089 C41.702,23.352 41.715,23.625 41.687,23.902 L41.667,24.086 L41.486,24.122 C40.178,24.384 39.199,24.579 38.563,24.69 C38.902,26.527 39.424,29.796 40.282,35.464 C41.232,35.314 42.14,35.19 42.981,35.096 L43.159,35.075 L43.235,35.236 C43.322,35.419 43.39,35.631 43.436,35.867 C43.479,36.079 43.491,36.325 43.477,36.664 L43.468,36.854 L43.283,36.897 C42.673,37.039 42.037,37.167 41.4,37.294 L41.285,37.317 C39.418,37.69 37.688,37.975 36.144,38.164 L36.054,38.175 L35.977,38.126" id="Fill-9" fill="#EB8B2D" sketch:type="MSShapeGroup"></path>
                <path d="M41.213,22.525 C41.291,22.688 41.355,22.902 41.404,23.14 C41.457,23.4 41.461,23.647 41.438,23.877 C39.945,24.176 38.883,24.388 38.271,24.486 C38.641,26.44 39.232,30.198 40.072,35.751 C41.252,35.561 42.238,35.431 43.01,35.344 C43.088,35.509 43.148,35.7 43.191,35.916 C43.234,36.133 43.238,36.38 43.227,36.653 C42.582,36.804 41.908,36.938 41.236,37.072 C39.289,37.461 37.564,37.738 36.113,37.916 C36.035,37.865 35.975,37.675 35.908,37.35 C35.861,37.109 35.832,36.847 35.822,36.577 C36.84,36.373 37.75,36.193 38.525,36.016 C38.076,33.763 37.484,30.006 36.744,24.727 L33.779,25.116 C33.732,24.989 33.684,24.751 33.615,24.404 C33.576,24.21 33.553,23.988 33.549,23.741 C33.549,23.741 33.875,23.676 34.568,23.537 C35.846,23.282 38.057,22.954 41.213,22.525 M41.507,21.98 L41.145,22.03 C37.725,22.494 35.666,22.809 34.471,23.047 L33.45,23.251 L33.042,23.333 L33.049,23.749 C33.053,24.019 33.079,24.272 33.125,24.503 C33.2,24.883 33.25,25.126 33.311,25.289 L33.448,25.664 L33.845,25.612 L36.318,25.287 C36.985,30.018 37.518,33.415 37.941,35.634 C37.373,35.757 36.743,35.883 36.039,36.023 L35.724,36.087 L35.308,36.171 L35.322,36.596 C35.333,36.892 35.365,37.178 35.418,37.445 C35.512,37.906 35.606,38.183 35.841,38.335 L35.993,38.435 L36.174,38.412 C37.725,38.223 39.461,37.937 41.334,37.562 L41.449,37.539 C42.089,37.411 42.728,37.283 43.34,37.141 L43.71,37.054 L43.727,36.675 C43.741,36.314 43.728,36.051 43.682,35.818 C43.631,35.562 43.557,35.33 43.462,35.13 L43.309,34.807 L42.954,34.847 C42.182,34.934 41.355,35.045 40.491,35.179 C39.691,29.902 39.189,26.744 38.854,24.893 C39.466,24.781 40.334,24.607 41.535,24.367 L41.897,24.295 L41.935,23.928 C41.966,23.625 41.952,23.326 41.895,23.041 C41.834,22.749 41.757,22.504 41.664,22.31 L41.507,21.98" id="Fill-10" fill="#EB8B2D" sketch:type="MSShapeGroup"></path>
                <path d="M46.035,36.441 C45.926,36.441 45.842,36.426 45.773,36.394 L45.67,36.345 L45.639,36.236 C45.491,35.722 45.32,34.975 45.116,33.954 C44.664,31.701 44.262,29.51 43.888,27.255 C43.553,25.189 43.155,22.55 43.166,21.698 L43.168,21.526 L43.329,21.467 C43.463,21.417 43.708,21.344 44.116,21.261 C44.316,21.222 44.496,21.209 44.655,21.209 C44.724,21.209 45.041,21.227 45.041,21.227 L45.079,21.416 C45.712,24.581 46.49,29.16 47.53,35.825 L47.553,35.97 L47.438,36.061 C47.223,36.227 46.928,36.304 46.641,36.36 C46.379,36.413 46.175,36.441 46.035,36.441 L46.035,36.441 Z M58.078,33.827 C57.681,33.827 57.108,33.652 56.329,33.294 C52.834,31.533 49.404,28.521 46.127,24.339 L46.037,24.224 L46.093,24.089 C46.172,23.899 46.356,23.683 46.642,23.446 C46.729,23.33 46.92,23.165 47.145,23.019 L47.322,22.902 L47.465,23.059 C49.685,25.472 51.218,27.011 52.289,27.9 C54.222,29.49 55.525,30.406 56.347,30.926 C56.315,30.624 56.235,30.074 56.038,29.091 C55.485,26.325 54.776,23.475 53.869,20.379 L53.825,20.228 L53.941,20.123 C54.162,19.924 54.421,19.789 54.689,19.733 C55.049,19.664 55.328,19.625 55.502,19.621 L55.668,19.617 L55.736,19.77 C56.529,21.546 57.313,24.356 58.065,28.123 C58.598,30.783 58.725,32.639 58.441,33.638 L58.397,33.795 L58.235,33.817 C58.187,33.823 58.134,33.827 58.078,33.827 L58.078,33.827 Z" id="Fill-11" fill="#EB8B2D" sketch:type="MSShapeGroup"></path>
                <path d="M55.508,19.871 C56.283,21.608 57.059,24.36 57.82,28.172 C58.354,30.836 58.465,32.639 58.201,33.569 C58.163,33.574 58.122,33.577 58.078,33.577 C57.718,33.577 57.163,33.402 56.434,33.066 C52.977,31.325 49.59,28.354 46.324,24.185 C46.385,24.038 46.549,23.848 46.801,23.639 C46.908,23.505 47.082,23.357 47.281,23.228 C49.381,25.511 50.992,27.148 52.129,28.093 C54.068,29.688 55.568,30.762 56.59,31.368 C56.668,31.307 56.578,30.515 56.283,29.042 C55.703,26.139 54.963,23.224 54.109,20.309 C54.301,20.136 54.523,20.023 54.74,19.979 C55.131,19.902 55.375,19.874 55.508,19.871 M44.655,21.459 C44.719,21.459 44.778,21.462 44.834,21.465 C45.518,24.886 46.322,29.703 47.283,35.863 C47.127,35.985 46.893,36.056 46.592,36.115 C46.351,36.164 46.164,36.191 46.035,36.191 C45.966,36.191 45.914,36.184 45.879,36.167 C45.732,35.656 45.561,34.902 45.361,33.905 C44.996,32.086 44.572,29.852 44.135,27.214 C43.639,24.158 43.408,22.334 43.416,21.701 C43.543,21.654 43.777,21.585 44.166,21.506 C44.347,21.471 44.511,21.459 44.655,21.459 M55.829,19.364 L55.497,19.371 C55.307,19.375 55.02,19.415 54.645,19.488 C54.326,19.554 54.027,19.709 53.774,19.938 L53.541,20.147 L53.63,20.449 C54.534,23.538 55.242,26.381 55.793,29.14 C55.904,29.697 55.978,30.112 56.026,30.418 C55.211,29.873 54.047,29.022 52.446,27.707 C51.386,26.826 49.861,25.295 47.649,22.889 L47.363,22.577 L47.008,22.809 C46.781,22.957 46.584,23.124 46.445,23.284 C46.148,23.535 45.953,23.774 45.862,23.993 L45.836,24.058 C45.654,23.063 45.484,22.17 45.324,21.367 L45.249,20.988 L44.863,20.966 C44.799,20.962 44.73,20.959 44.655,20.959 C44.453,20.959 44.262,20.978 44.07,21.016 C43.628,21.106 43.377,21.183 43.243,21.232 L42.92,21.352 L42.916,21.695 C42.907,22.394 43.151,24.277 43.642,27.294 C44.016,29.553 44.418,31.747 44.871,34.004 C45.076,35.03 45.249,35.783 45.398,36.305 L45.461,36.522 L45.666,36.619 C45.769,36.668 45.89,36.691 46.035,36.691 C46.192,36.691 46.395,36.665 46.69,36.605 C47.006,36.543 47.335,36.457 47.591,36.258 L47.822,36.076 L47.777,35.786 C47.036,31.034 46.428,27.342 45.909,24.466 L45.931,24.493 C49.23,28.705 52.688,31.74 56.209,33.513 C57.037,33.895 57.644,34.077 58.078,34.077 C58.146,34.077 58.21,34.072 58.269,34.064 L58.593,34.021 L58.683,33.706 C58.977,32.669 58.851,30.773 58.311,28.074 C57.555,24.289 56.765,21.461 55.965,19.667 L55.829,19.364" id="Fill-12" fill="#EB8B2D" sketch:type="MSShapeGroup"></path>
                <path d="M65.854,32.404 C64.278,32.404 62.891,31.9 61.729,30.904 C60.437,29.716 59.589,28.137 59.204,26.206 C58.843,24.405 59.017,22.655 59.719,21.004 C60.701,18.947 62.45,17.623 64.923,17.059 C65.532,16.943 66.117,16.887 66.671,16.887 C68.001,16.887 69.226,17.219 70.311,17.874 L70.422,17.94 L70.431,18.069 C70.475,18.667 70.331,19.143 69.991,19.523 L69.87,19.66 L69.703,19.586 C68.65,19.116 67.601,18.878 66.583,18.878 C66.146,18.878 65.705,18.922 65.273,19.008 C63.588,19.346 62.392,20.288 61.615,21.891 C61.164,23.099 61.068,24.414 61.341,25.778 C61.63,27.224 62.265,28.427 63.227,29.356 C64.04,30.031 64.975,30.38 65.99,30.38 C66.304,30.38 66.632,30.347 66.963,30.28 C68.022,30.067 69.074,29.433 70.091,28.394 L70.24,28.241 L70.414,28.364 C70.848,28.672 71.177,29.078 71.366,29.54 L71.423,29.678 L71.328,29.793 C70.273,31.086 69.007,31.889 67.455,32.246 C66.896,32.353 66.361,32.404 65.854,32.404 L65.854,32.404 Z M72.402,31.064 C72.29,31.064 72.187,31.05 72.088,31.022 L71.939,30.981 L71.909,30.83 C71.755,30.058 71.428,28.351 70.946,25.486 C70.266,25.616 69.594,25.714 68.9,25.784 C67.896,25.943 66.987,26.024 66.211,26.024 L65.788,26.019 L65.749,25.821 C65.618,25.166 65.561,24.73 65.563,24.41 L65.563,24.193 L65.779,24.164 C68.673,23.775 70.646,23.53 72.379,23.342 L72.606,23.317 L72.651,23.542 C73.292,26.739 73.653,29.175 73.697,30.584 L73.701,30.716 L73.595,30.794 C73.471,30.885 73.272,30.924 72.839,31.011 C72.659,31.047 72.526,31.064 72.402,31.064 L72.402,31.064 Z" id="Fill-13" fill="#EB8B2D" sketch:type="MSShapeGroup"></path>
                <path d="M66.671,17.137 C67.968,17.137 69.133,17.455 70.182,18.088 C70.221,18.62 70.098,19.028 69.805,19.357 C68.727,18.876 67.652,18.628 66.583,18.628 C66.129,18.628 65.677,18.672 65.225,18.763 C63.449,19.118 62.188,20.136 61.391,21.781 C60.906,23.073 60.814,24.42 61.096,25.827 C61.395,27.32 62.049,28.566 63.053,29.536 C63.923,30.26 64.906,30.63 65.99,30.63 C66.321,30.63 66.662,30.595 67.012,30.525 C68.117,30.304 69.203,29.659 70.27,28.568 C70.664,28.849 70.963,29.217 71.135,29.635 C70.105,30.897 68.863,31.665 67.398,32.003 C66.863,32.104 66.349,32.154 65.854,32.154 C64.341,32.154 63.018,31.68 61.893,30.715 C60.623,29.548 59.82,28.02 59.449,26.157 C59.098,24.403 59.258,22.727 59.949,21.102 C60.9,19.109 62.586,17.849 64.978,17.303 C65.566,17.191 66.13,17.137 66.671,17.137 M72.406,23.591 C73.074,26.926 73.406,29.269 73.447,30.592 C73.367,30.65 73.15,30.693 72.783,30.767 C72.645,30.795 72.521,30.812 72.402,30.812 C72.316,30.812 72.234,30.804 72.154,30.781 C71.955,29.785 71.609,27.938 71.15,25.191 C70.545,25.313 69.781,25.443 68.875,25.535 C67.861,25.695 66.977,25.774 66.211,25.774 C66.138,25.774 66.065,25.773 65.994,25.772 C65.873,25.166 65.811,24.728 65.812,24.412 C68.227,24.088 70.422,23.806 72.406,23.591 M66.671,16.637 C66.102,16.637 65.501,16.695 64.886,16.812 C62.316,17.397 60.51,18.767 59.498,20.886 C58.767,22.604 58.588,24.404 58.959,26.256 C59.355,28.239 60.228,29.863 61.555,31.083 C62.774,32.13 64.217,32.654 65.854,32.654 C66.377,32.654 66.928,32.601 67.491,32.494 C69.081,32.128 70.42,31.287 71.491,29.989 C71.563,30.364 71.62,30.66 71.664,30.879 L71.725,31.182 L72.021,31.264 C72.143,31.297 72.268,31.313 72.402,31.313 C72.544,31.313 72.692,31.296 72.884,31.257 C73.359,31.162 73.574,31.119 73.742,30.995 L73.955,30.84 L73.947,30.576 C73.902,29.153 73.539,26.703 72.896,23.492 L72.807,23.045 L72.353,23.094 C70.172,23.33 67.789,23.643 65.746,23.916 L65.315,23.975 L65.312,24.409 C65.311,24.746 65.369,25.197 65.504,25.87 L65.582,26.264 L65.984,26.272 L66.211,26.274 C67,26.274 67.923,26.192 68.953,26.029 C69.547,25.97 70.141,25.887 70.742,25.778 C70.955,27.039 71.137,28.066 71.285,28.881 C71.09,28.607 70.846,28.364 70.559,28.161 L70.211,27.913 L69.912,28.219 C68.932,29.222 67.923,29.833 66.913,30.035 C66.599,30.098 66.288,30.13 65.99,30.13 C65.034,30.13 64.153,29.801 63.372,29.151 C62.476,28.283 61.865,27.123 61.586,25.729 C61.319,24.393 61.408,23.159 61.858,21.957 C62.58,20.473 63.719,19.574 65.322,19.253 C65.738,19.17 66.162,19.128 66.583,19.128 C67.565,19.128 68.581,19.358 69.601,19.814 L69.935,19.963 L70.178,19.689 C70.565,19.255 70.729,18.719 70.681,18.051 L70.661,17.793 L70.44,17.66 C69.315,16.981 68.047,16.637 66.671,16.637" id="Fill-14" fill="#EB8B2D" sketch:type="MSShapeGroup"></path>
                <path d="M81.078,29.401 C79.466,29.401 77.972,28.893 76.639,27.892 C75.285,26.797 74.374,25.105 73.925,22.859 C73.529,20.888 73.907,19.016 75.081,17.137 C76.307,15.475 77.887,14.446 79.789,14.065 C80.195,13.984 80.624,13.943 81.064,13.943 C81.828,13.943 82.66,14.068 83.536,14.314 L83.685,14.356 L83.714,14.507 C83.756,14.722 83.714,14.971 83.628,15.327 C83.542,15.682 83.448,15.954 83.349,16.138 L83.254,16.313 L83.063,16.26 C82.449,16.092 81.853,16.006 81.289,16.006 C80.926,16.006 80.566,16.041 80.22,16.111 C78.839,16.388 77.724,17.11 76.904,18.26 C76.083,19.622 75.818,21.109 76.13,22.666 C76.451,24.271 77.136,25.488 78.164,26.28 C79.125,26.962 80.174,27.31 81.274,27.31 C81.639,27.31 82.014,27.271 82.391,27.196 C82.884,27.098 83.389,26.91 83.893,26.638 L84.071,26.541 L84.202,26.695 C84.514,27.062 84.74,27.467 84.916,27.97 L84.978,28.147 L84.824,28.256 C84.079,28.783 83.415,29.1 82.796,29.225 C82.208,29.342 81.631,29.401 81.078,29.401 L81.078,29.401 Z M85.781,27.454 C85.364,27.114 85.066,26.708 84.871,26.212 L84.805,26.044 L84.943,25.929 C85.723,25.275 86.316,24.522 86.709,23.688 C87.035,22.705 87.118,21.809 86.952,20.975 C86.773,20.086 86.471,19.272 86.054,18.557 C85.615,17.935 84.977,17.344 84.113,16.769 L83.98,16.68 L84.005,16.521 C84.039,16.303 84.139,16.057 84.311,15.769 C84.496,15.542 84.823,15.135 84.823,15.135 L85.028,15.186 C87.235,16.229 88.616,18.076 89.136,20.676 C89.381,22.014 89.247,23.313 88.739,24.545 C88.104,25.852 87.206,26.834 86.062,27.479 L85.913,27.563 L85.781,27.454 L85.781,27.454 Z" id="Fill-15" fill="#EB8B2D" sketch:type="MSShapeGroup"></path>
                <path d="M81.064,14.193 C81.822,14.193 82.624,14.317 83.469,14.555 C83.502,14.727 83.459,14.961 83.385,15.269 C83.299,15.624 83.211,15.867 83.129,16.019 C82.492,15.844 81.881,15.756 81.289,15.756 C80.908,15.756 80.535,15.793 80.17,15.866 C78.719,16.156 77.563,16.905 76.701,18.114 C75.82,19.573 75.564,21.113 75.885,22.715 C76.219,24.383 76.922,25.639 78.012,26.479 C79.02,27.193 80.111,27.561 81.274,27.561 C81.655,27.561 82.044,27.52 82.439,27.441 C82.959,27.338 83.484,27.143 84.012,26.857 C84.307,27.205 84.518,27.588 84.68,28.052 C83.967,28.556 83.332,28.861 82.746,28.979 C82.174,29.094 81.618,29.15 81.078,29.15 C79.517,29.15 78.092,28.67 76.789,27.691 C75.473,26.627 74.607,24.998 74.17,22.811 C73.787,20.903 74.168,19.07 75.293,17.269 C76.463,15.684 77.975,14.684 79.838,14.311 C80.233,14.231 80.642,14.193 81.064,14.193 L81.064,14.193 Z M84.922,15.411 C87.062,16.424 88.389,18.211 88.891,20.725 C89.129,22.027 88.994,23.271 88.508,24.449 C87.902,25.696 87.055,26.633 85.939,27.261 C85.562,26.953 85.285,26.58 85.104,26.12 C85.914,25.441 86.525,24.666 86.936,23.795 C87.273,22.78 87.379,21.838 87.197,20.926 C87.006,19.974 86.682,19.137 86.27,18.431 C85.799,17.761 85.135,17.148 84.252,16.561 C84.281,16.373 84.373,16.152 84.525,15.897 C84.707,15.68 84.834,15.52 84.922,15.411 L84.922,15.411 Z M81.064,13.693 C80.607,13.693 80.162,13.736 79.74,13.82 C77.775,14.214 76.144,15.274 74.891,16.973 C73.677,18.913 73.276,20.899 73.68,22.909 C74.141,25.213 75.081,26.953 76.475,28.08 C77.866,29.126 79.41,29.65 81.078,29.65 C81.647,29.65 82.24,29.59 82.844,29.47 C83.499,29.338 84.194,29.008 84.969,28.46 L85.276,28.242 L85.151,27.887 C84.966,27.355 84.725,26.925 84.393,26.534 L84.131,26.225 L83.773,26.418 C83.292,26.678 82.811,26.857 82.342,26.951 C81.981,27.023 81.622,27.061 81.274,27.061 C80.227,27.061 79.227,26.728 78.301,26.07 C77.324,25.317 76.688,24.184 76.375,22.617 C76.076,21.124 76.33,19.696 77.129,18.373 C77.9,17.293 78.934,16.623 80.268,16.356 C80.6,16.29 80.942,16.256 81.289,16.256 C81.83,16.256 82.404,16.338 82.997,16.501 L83.379,16.606 L83.568,16.257 C83.679,16.054 83.78,15.761 83.871,15.386 C83.965,14.995 84.01,14.719 83.96,14.46 L83.901,14.156 L83.604,14.073 C82.706,13.821 81.852,13.693 81.064,13.693 L81.064,13.693 Z M84.779,14.791 L84.532,15.098 L84.505,15.132 C84.42,15.237 84.303,15.384 84.143,15.575 L84.116,15.606 L84.096,15.641 C83.908,15.957 83.797,16.232 83.758,16.483 L83.709,16.8 L83.975,16.977 C84.812,17.534 85.429,18.104 85.86,18.718 C86.241,19.374 86.533,20.162 86.707,21.024 C86.862,21.806 86.785,22.651 86.471,23.608 C86.094,24.398 85.525,25.114 84.782,25.736 L84.506,25.969 L84.639,26.304 C84.851,26.841 85.173,27.28 85.623,27.648 L85.888,27.863 L86.185,27.696 C87.374,27.027 88.307,26.008 88.958,24.668 C89.496,23.364 89.635,22.017 89.383,20.635 C88.846,17.945 87.417,16.038 85.136,14.959 L84.779,14.791 L84.779,14.791 Z" id="Fill-16" fill="#EB8B2D" sketch:type="MSShapeGroup"></path>
                <path d="M95.335,26.644 C94.323,26.607 93.474,26.416 92.737,26.06 L92.603,25.995 L92.596,25.846 C92.571,25.269 92.743,24.453 93.119,23.353 L93.169,23.205 L93.324,23.186 C93.444,23.171 93.569,23.163 93.7,23.163 C94.323,23.163 95.052,23.33 95.93,23.675 L96.057,23.725 L96.083,23.859 C96.138,24.14 96.102,24.541 95.958,25.244 C95.834,25.849 95.7,26.277 95.56,26.519 L95.484,26.648 L95.335,26.644 L95.335,26.644 Z M93.208,21.488 C93.121,21.488 93.048,21.481 92.983,21.463 L92.864,21.431 L92.817,21.316 C92.726,21.091 92.66,20.783 92.565,20.304 C91.961,17.273 91.667,14.465 91.691,11.956 L91.693,11.759 L91.886,11.715 C91.923,11.707 92,11.69 92.139,11.644 L92.494,11.57 C92.659,11.537 92.827,11.521 92.991,11.521 C93.164,11.521 93.334,11.539 93.492,11.57 L93.652,11.603 L93.776,12.198 C93.81,12.366 93.845,12.499 93.87,12.598 C93.889,12.67 93.903,12.727 93.91,12.765 C94.07,13.563 94.227,14.622 94.416,16.192 C94.692,18.629 94.755,20.223 94.607,21.069 L94.588,21.182 L94.49,21.241 C94.398,21.296 94.259,21.324 93.953,21.387 C93.578,21.461 93.367,21.488 93.208,21.488 L93.208,21.488 Z" id="Fill-17" fill="#EB8B2D" sketch:type="MSShapeGroup"></path>
                <path d="M92.991,11.772 C93.147,11.772 93.3,11.787 93.443,11.815 C93.453,11.859 93.478,11.989 93.531,12.248 C93.588,12.531 93.648,12.722 93.664,12.809 C93.838,13.676 93.998,14.814 94.168,16.223 C94.436,18.58 94.508,20.187 94.361,21.026 C94.303,21.062 94.127,21.096 93.846,21.153 C93.57,21.208 93.359,21.238 93.208,21.238 C93.145,21.238 93.092,21.233 93.049,21.222 C92.963,21.012 92.897,20.688 92.811,20.255 C92.223,17.309 91.916,14.533 91.941,11.959 C91.963,11.954 92.049,11.937 92.219,11.88 C92.371,11.85 92.479,11.829 92.545,11.815 C92.692,11.785 92.844,11.772 92.991,11.772 L92.991,11.772 Z M93.7,23.413 C94.281,23.413 94.988,23.574 95.838,23.907 C95.889,24.168 95.838,24.582 95.713,25.194 C95.588,25.804 95.461,26.191 95.344,26.394 C94.391,26.359 93.57,26.186 92.846,25.835 C92.822,25.277 93,24.474 93.355,23.434 C93.465,23.42 93.58,23.413 93.7,23.413 L93.7,23.413 Z M92.991,11.271 C92.806,11.271 92.621,11.29 92.445,11.325 L92.3,11.354 L92.121,11.39 L92.089,11.395 L92.059,11.406 C91.935,11.448 91.867,11.464 91.843,11.469 L91.453,11.554 L91.441,11.954 C91.416,14.479 91.712,17.306 92.32,20.353 C92.418,20.847 92.485,21.165 92.586,21.411 L92.68,21.64 L92.918,21.704 C93.004,21.728 93.099,21.738 93.208,21.738 C93.384,21.738 93.61,21.709 93.942,21.644 L94.004,21.631 C94.338,21.563 94.49,21.532 94.618,21.455 L94.814,21.338 L94.854,21.112 C95.008,20.23 94.947,18.658 94.665,16.166 C94.474,14.585 94.316,13.521 94.154,12.71 C94.148,12.678 94.133,12.615 94.112,12.534 C94.088,12.439 94.054,12.311 94.022,12.15 L93.965,11.872 L93.932,11.707 L93.861,11.389 L93.541,11.325 C93.362,11.289 93.178,11.271 92.991,11.271 L92.991,11.271 Z M93.701,22.913 L93.701,22.913 C93.559,22.913 93.423,22.921 93.293,22.938 L92.983,22.977 L92.883,23.271 C92.496,24.402 92.32,25.248 92.346,25.855 L92.358,26.154 L92.628,26.285 C93.396,26.656 94.278,26.855 95.326,26.894 L95.626,26.904 L95.776,26.644 C95.932,26.376 96.071,25.935 96.203,25.295 C96.355,24.546 96.391,24.131 96.328,23.811 L96.276,23.542 L96.021,23.441 C95.113,23.086 94.354,22.913 93.701,22.913 L93.701,22.913 Z" id="Fill-18" fill="#EB8B2D" sketch:type="MSShapeGroup"></path>
            </g>
        </g>
    </g>
</svg>