<?xml version="1.0" encoding="UTF-8" standalone="no"?>
<svg width="120px" height="120px" viewBox="0 0 120 120" version="1.1" xmlns="http://www.w3.org/2000/svg" xmlns:xlink="http://www.w3.org/1999/xlink" xmlns:sketch="http://www.bohemiancoding.com/sketch/ns">
    <!-- Generator: Sketch 3.3.2 (12043) - http://www.bohemiancoding.com/sketch -->
    <title>Mobile Portrait Copy 6</title>
    <desc>Created with Sketch.</desc>
    <defs></defs>
    <g id="baby" stroke="none" stroke-width="1" fill="none" fill-rule="evenodd" sketch:type="MSPage">
        <g id="Mobile-Portrait-Copy-6" sketch:type="MSArtboardGroup">
            <g id="Imported-EPS" sketch:type="MSLayerGroup" transform="translate(17.000000, 31.000000)">
                <g id="Page-1" sketch:type="MSShapeGroup">
                    <path d="M16.012,5.607 C16.012,5.607 0.889,15.173 1.432,15.307 C1.975,15.441 7.807,25.945 7.807,25.945 L12.834,25.456 L16.125,48.09 C16.125,48.09 24.568,48.502 26.746,50.195 C28.924,51.89 32.076,56.189 32.076,56.189 L40.186,54.364 L42.17,44.8 L50.342,40.907 L49.324,36.383 L42.531,17.545 L46.189,17.311 L49.176,15.741 L49.621,4.597 L32.627,2.383 L27.906,10.25 L21.342,10.186 C21.342,10.185 16.416,6.343 16.012,5.607" id="Fill-1" fill="#CE91B1"></path>
                    <path d="M6.365,26.202 C6.965,27.241 8.299,27.723 9.43,27.289 L11.564,26.465 L14.437,48.051 C14.521,48.677 14.842,49.221 15.348,49.586 C15.85,49.951 16.498,50.092 17.129,49.977 C20.158,49.412 27.453,48.834 29.74,55.649 C30.133,56.824 31.373,57.537 32.563,57.269 L39.687,55.667 C40.895,55.396 41.693,54.247 41.545,52.998 C40.693,45.856 47.529,43.255 50.512,42.467 C51.129,42.305 51.654,41.899 51.953,41.353 C52.252,40.809 52.311,40.179 52.117,39.575 L45.475,18.842 L47.752,18.671 C47.869,18.661 47.982,18.643 48.098,18.617 C49.164,18.378 49.971,17.457 50.057,16.375 L50.947,5.262 C51.047,3.995 50.105,2.854 48.84,2.716 L33.318,1.014 C33.066,0.986 32.814,0.999 32.568,1.054 C31.566,1.278 30.873,2.143 30.842,3.204 C30.727,7.139 27.953,8.595 26.309,9.112 C25.879,9.248 25.16,9.41 24.713,9.473 C23.008,9.708 19.877,9.58 18.086,6.073 C17.606,5.128 16.607,4.644 15.605,4.869 C15.361,4.925 15.131,5.02 14.91,5.153 L1.613,13.338 C0.533,14.002 0.168,15.439 0.801,16.54 L6.365,26.202 L6.365,26.202 Z M15.865,7.868 C18.588,12.59 23.195,12.519 25.096,12.255 C25.678,12.178 26.602,11.971 27.154,11.794 C28.988,11.215 33.178,9.308 33.619,3.874 L48.107,5.463 L47.273,15.886 L44.418,16.103 C43.65,16.161 43.051,16.552 42.701,17.159 C42.404,17.681 42.344,18.299 42.537,18.898 L49.264,39.897 C45.971,40.868 37.869,44.179 38.717,53.001 L32.297,54.444 C29.283,46.107 20.545,46.587 17.15,47.118 L14.238,25.263 C14.156,24.638 13.84,24.104 13.346,23.763 C12.773,23.361 12.061,23.263 11.344,23.542 L8.672,24.573 L3.451,15.508 L15.865,7.868 L15.865,7.868 Z" id="Fill-2" fill="#010604"></path>
                    <path d="M6.365,26.202 C6.965,27.241 8.299,27.723 9.43,27.289 L11.564,26.465 L14.437,48.051 C14.521,48.677 14.842,49.221 15.348,49.586 C15.85,49.951 16.498,50.092 17.129,49.977 C20.158,49.412 27.453,48.834 29.74,55.649 C30.133,56.824 31.373,57.537 32.563,57.269 L39.687,55.667 C40.895,55.396 41.693,54.247 41.545,52.998 C40.693,45.856 47.529,43.255 50.512,42.467 C51.129,42.305 51.654,41.899 51.953,41.353 C52.252,40.809 52.311,40.179 52.117,39.575 L45.475,18.842 L47.752,18.671 C47.869,18.661 47.982,18.643 48.098,18.617 C49.164,18.378 49.971,17.457 50.057,16.375 L50.947,5.262 C51.047,3.995 50.105,2.854 48.84,2.716 L33.318,1.014 C33.066,0.986 32.814,0.999 32.568,1.054 C31.566,1.278 30.873,2.143 30.842,3.204 C30.727,7.139 27.953,8.595 26.309,9.112 C25.879,9.248 25.16,9.41 24.713,9.473 C23.008,9.708 19.877,9.58 18.086,6.073 C17.606,5.128 16.607,4.644 15.605,4.869 C15.361,4.925 15.131,5.02 14.91,5.153 L1.613,13.338 C0.533,14.002 0.168,15.439 0.801,16.54 L6.365,26.202 L6.365,26.202 Z M15.865,7.868 C18.588,12.59 23.195,12.519 25.096,12.255 C25.678,12.178 26.602,11.971 27.154,11.794 C28.988,11.215 33.178,9.308 33.619,3.874 L48.107,5.463 L47.273,15.886 L44.418,16.103 C43.65,16.161 43.051,16.552 42.701,17.159 C42.404,17.681 42.344,18.299 42.537,18.898 L49.264,39.897 C45.971,40.868 37.869,44.179 38.717,53.001 L32.297,54.444 C29.283,46.107 20.545,46.587 17.15,47.118 L14.238,25.263 C14.156,24.638 13.84,24.104 13.346,23.763 C12.773,23.361 12.061,23.263 11.344,23.542 L8.672,24.573 L3.451,15.508 L15.865,7.868 L15.865,7.868 Z" id="Stroke-3" stroke="#FFFFFF"></path>
                    <path d="M21.643,28.206 C22.479,31.919 26.623,34.149 30.898,33.186 C35.176,32.226 37.965,28.437 37.129,24.724 C36.912,23.763 36.475,22.901 35.871,22.171 C36.434,21.379 36.672,20.362 36.441,19.339 C36.014,17.43 34.117,16.228 32.203,16.657 C30.758,16.983 29.721,18.151 29.486,19.526 C28.953,19.549 28.416,19.618 27.873,19.74 C27.324,19.864 26.801,20.036 26.305,20.247 C25.502,19.102 24.063,18.488 22.617,18.815 C20.705,19.245 19.504,21.143 19.934,23.052 C20.166,24.082 20.826,24.904 21.682,25.377 C21.455,26.291 21.428,27.251 21.643,28.206 L21.643,28.206 Z" id="Fill-4" fill="#FFFFFF"></path>
                    <path d="M21.643,28.206 C22.479,31.919 26.623,34.149 30.898,33.186 C35.176,32.226 37.965,28.437 37.129,24.724 C36.912,23.763 36.475,22.901 35.871,22.171 C36.434,21.379 36.672,20.362 36.441,19.339 C36.014,17.43 34.117,16.228 32.203,16.657 C30.758,16.983 29.721,18.151 29.486,19.526 C28.953,19.549 28.416,19.618 27.873,19.74 C27.324,19.864 26.801,20.036 26.305,20.247 C25.502,19.102 24.063,18.488 22.617,18.815 C20.705,19.245 19.504,21.143 19.934,23.052 C20.166,24.082 20.826,24.904 21.682,25.377 C21.455,26.291 21.428,27.251 21.643,28.206 L21.643,28.206 Z" id="Stroke-5" stroke="#1A1918"></path>
                    <path d="M64.803,18.691 C64.665,18.515 64.598,18.306 64.598,18.054 L64.598,17.87 L64.773,17.815 C64.871,17.784 64.983,17.754 65.113,17.725 C65.04,16.548 64.982,15.42 64.94,14.346 C64.096,14.309 63.741,14.289 63.58,14.24 C63.58,14.24 63.562,14.691 63.557,14.821 C63.874,14.86 64.195,14.907 64.511,14.958 L64.721,14.992 L64.721,15.205 C64.721,15.411 64.698,15.631 64.663,15.857 L64.63,16.069 L64.416,16.069 C64.084,16.069 63.777,16.049 63.503,16.008 C63.498,16.083 63.494,16.155 63.49,16.229 C63.768,16.266 64.049,16.31 64.331,16.36 L64.537,16.397 L64.537,16.606 C64.537,16.817 64.515,17.038 64.468,17.271 L64.428,17.473 L64.223,17.473 C63.942,17.473 63.672,17.454 63.413,17.418 L63.326,18.518 L63.169,18.57 C63.061,18.606 62.894,18.626 62.701,18.626 C62.515,18.626 62.354,18.598 62.226,18.542 L62.069,18.476 L62.074,18.306 C62.117,16.718 62.216,15.186 62.366,13.755 L62.391,13.531 L63.016,13.521 C63.19,13.531 63.327,13.555 63.427,13.588 L63.439,13.593 C63.452,13.487 63.472,13.394 63.495,13.307 L63.545,13.122 L63.637,13.122 C63.59,13.105 63.547,13.086 63.505,13.065 L63.347,12.984 L63.372,12.808 C63.402,12.595 63.442,12.377 63.493,12.157 C62.786,12.141 62.082,12.123 61.389,12.101 C61.415,12.404 61.437,12.666 61.451,12.916 L61.463,13.137 L61.245,13.176 C60.993,13.221 60.729,13.244 60.48,13.244 L60.269,13.244 L60.234,13.036 C60.179,12.715 60.133,12.386 60.095,12.06 C59.529,12.041 58.974,12.021 58.427,11.993 L58.24,11.983 L58.196,11.802 C58.163,11.662 58.147,11.533 58.147,11.408 C58.147,11.305 58.147,11.187 58.176,11.053 L58.219,10.856 L59.969,10.864 C59.949,10.633 59.935,10.404 59.928,10.177 L59.921,9.953 L60.142,9.922 C60.39,9.886 60.651,9.863 60.932,9.863 L61.153,9.863 C61.153,9.863 61.257,10.757 61.271,10.882 C62.126,10.901 62.97,10.92 63.806,10.947 C63.885,10.666 63.978,10.377 64.087,10.091 L64.157,9.904 L64.355,9.933 C64.602,9.967 64.832,10.028 65.06,10.119 L65.249,10.195 L65.105,10.988 L66.824,11.06 L66.824,11.592 C66.824,11.745 66.796,11.896 66.741,12.03 L66.679,12.186 L66.51,12.186 C65.942,12.186 65.384,12.186 64.84,12.179 C64.766,12.488 64.684,12.783 64.604,13.071 L64.587,13.134 C65.01,13.144 65.478,13.162 65.993,13.187 L66.219,13.199 L66.23,13.425 C66.317,15.107 66.361,16.759 66.361,18.333 L66.361,18.512 L66.192,18.569 C65.864,18.682 65.48,18.753 65.019,18.787 L64.885,18.797 L64.803,18.691 L64.803,18.691 Z M60.307,18.238 C59.716,18.238 59.22,18.194 58.788,18.104 L58.625,18.069 L58.594,17.905 C58.528,17.553 58.492,16.904 58.482,15.865 C58.482,15.201 58.511,14.601 58.567,14.027 L58.586,13.849 L58.761,13.809 C58.854,13.786 58.998,13.758 59.164,13.758 C59.318,13.758 59.454,13.783 59.569,13.807 L59.688,13.831 L59.716,13.654 L59.937,13.661 C60.611,13.683 61.244,13.716 61.809,13.77 L62.029,13.791 L62.051,14.562 C62.066,15.078 62.078,15.49 62.078,15.799 C62.078,16.516 62.045,17.223 62.002,17.918 L61.989,18.108 L61.803,18.147 C61.51,18.208 61.007,18.238 60.307,18.238 L60.307,18.238 Z M59.77,17.014 C60.133,17.023 60.469,17.025 60.783,17.026 C60.783,17.026 60.79,16.499 60.792,16.389 L60.728,16.534 L60.564,16.534 C60.263,16.534 60,16.514 59.77,16.473 L59.77,17.014 L59.77,17.014 Z M59.77,15.179 C60.105,15.21 60.431,15.268 60.758,15.352 L60.808,15.364 C60.811,15.204 60.813,15.041 60.817,14.875 C60.438,14.858 60.117,14.824 59.84,14.77 L59.77,14.758 L59.77,15.179 L59.77,15.179 Z" id="Fill-6" fill="#1A1918"></path>
                    <path d="M60.932,10.113 C60.975,10.47 61.008,10.805 61.051,11.127 C62.045,11.149 63.025,11.171 63.996,11.203 C64.082,10.87 64.189,10.523 64.32,10.18 C64.535,10.21 64.75,10.265 64.967,10.352 C64.912,10.653 64.859,10.943 64.807,11.226 C65.387,11.246 65.981,11.279 66.574,11.301 L66.574,11.592 C66.574,11.711 66.553,11.83 66.51,11.937 C65.873,11.937 65.248,11.937 64.643,11.926 C64.557,12.304 64.459,12.659 64.363,13.005 C64.363,13.005 64.211,12.983 63.92,12.94 C63.803,12.918 63.705,12.887 63.619,12.843 C63.662,12.54 63.727,12.228 63.813,11.915 C62.906,11.894 62,11.872 61.115,11.841 C61.148,12.218 61.182,12.585 61.201,12.93 C60.965,12.972 60.717,12.994 60.48,12.994 C60.414,12.606 60.361,12.207 60.318,11.817 C59.68,11.796 59.055,11.774 58.439,11.743 C58.408,11.613 58.396,11.506 58.396,11.408 C58.396,11.311 58.396,11.214 58.42,11.106 C59.023,11.106 59.639,11.116 60.242,11.116 C60.211,10.794 60.187,10.48 60.178,10.169 C60.414,10.135 60.664,10.113 60.932,10.113 L60.932,10.113 Z M63.736,13.372 C64.352,13.372 65.096,13.394 65.981,13.437 C66.066,15.099 66.111,16.726 66.111,18.333 C65.797,18.44 65.432,18.506 65,18.538 C64.891,18.397 64.848,18.237 64.848,18.054 C64.988,18.01 65.16,17.967 65.377,17.924 C65.291,16.587 65.227,15.312 65.182,14.105 C64.18,14.063 63.672,14.029 63.662,13.998 C63.662,13.781 63.684,13.565 63.736,13.372 L63.736,13.372 Z M63.016,13.771 C63.176,13.781 63.283,13.804 63.348,13.825 C63.326,14.246 63.316,14.655 63.295,15.043 C63.684,15.086 64.082,15.142 64.471,15.205 C64.471,15.399 64.449,15.605 64.416,15.819 C64.006,15.819 63.619,15.788 63.273,15.713 C63.252,15.973 63.24,16.209 63.23,16.446 C63.576,16.489 63.932,16.543 64.287,16.606 C64.287,16.802 64.266,17.007 64.223,17.223 C63.855,17.223 63.51,17.19 63.186,17.126 C63.156,17.536 63.121,17.924 63.09,18.333 C63.025,18.355 62.896,18.376 62.701,18.376 C62.551,18.376 62.422,18.355 62.324,18.312 C62.367,16.717 62.465,15.205 62.615,13.781 C62.734,13.781 62.863,13.771 63.016,13.771 L63.016,13.771 Z M59.93,13.911 C60.598,13.933 61.225,13.965 61.785,14.019 C61.807,14.796 61.828,15.389 61.828,15.799 C61.828,16.511 61.795,17.212 61.752,17.902 C61.492,17.956 61.018,17.988 60.307,17.988 C59.734,17.988 59.25,17.945 58.84,17.859 C58.775,17.515 58.742,16.855 58.732,15.862 C58.732,15.281 58.754,14.677 58.816,14.052 C58.914,14.029 59.033,14.008 59.164,14.008 C59.293,14.008 59.41,14.029 59.519,14.052 L59.519,15.41 C59.887,15.432 60.275,15.485 60.695,15.594 C60.695,15.852 60.65,16.09 60.564,16.284 C60.135,16.284 59.789,16.24 59.519,16.154 L59.519,17.256 C60.08,17.276 60.578,17.276 61.029,17.276 C61.041,16.478 61.051,15.594 61.072,14.634 C60.631,14.623 60.23,14.591 59.887,14.525 C59.887,14.32 59.898,14.116 59.93,13.911 L59.93,13.911 Z M61.375,9.613 L60.932,9.613 C60.659,9.613 60.389,9.633 60.106,9.674 L59.664,9.738 L59.678,10.185 C59.683,10.327 59.689,10.47 59.699,10.614 C59.578,10.613 59.457,10.612 59.335,10.611 C59.029,10.609 58.723,10.606 58.42,10.606 L58.018,10.606 L57.932,11 C57.896,11.16 57.896,11.298 57.896,11.408 C57.896,11.554 57.915,11.701 57.953,11.86 L58.041,12.224 L58.414,12.242 C58.894,12.267 59.379,12.285 59.872,12.303 C59.908,12.578 59.945,12.834 59.987,13.078 L60.045,13.415 C60.013,13.414 59.979,13.412 59.945,13.411 L59.502,13.397 L59.481,13.536 C59.387,13.519 59.281,13.508 59.164,13.508 C58.973,13.508 58.811,13.54 58.704,13.564 L58.355,13.645 L58.318,14.002 C58.261,14.584 58.232,15.192 58.232,15.862 C58.243,16.922 58.279,17.584 58.349,17.951 L58.41,18.28 L58.737,18.349 C59.186,18.442 59.699,18.488 60.307,18.488 C61,18.488 61.51,18.458 61.822,18.398 L61.815,18.638 L62.127,18.771 C62.287,18.841 62.48,18.876 62.701,18.876 C62.856,18.876 63.078,18.864 63.248,18.808 L63.564,18.702 L63.588,18.371 L63.629,17.861 C63.634,17.807 63.639,17.752 63.643,17.696 C63.831,17.714 64.025,17.723 64.223,17.723 L64.348,17.723 L64.348,18.054 C64.348,18.359 64.435,18.625 64.605,18.845 L64.769,19.057 L65.037,19.037 C65.521,19.001 65.925,18.926 66.273,18.807 L66.611,18.69 L66.611,18.333 C66.611,16.755 66.567,15.099 66.479,13.412 L66.456,12.961 L66.005,12.938 C65.617,12.919 65.253,12.904 64.913,12.893 C64.954,12.742 64.995,12.588 65.035,12.432 C65.517,12.437 66.01,12.437 66.51,12.437 L66.848,12.437 L66.974,12.124 C67.039,11.96 67.074,11.776 67.074,11.592 L67.074,10.818 L66.592,10.801 C66.302,10.791 66.011,10.777 65.722,10.764 C65.615,10.759 65.508,10.754 65.402,10.749 L65.459,10.44 L65.531,10.039 L65.152,9.888 C64.906,9.788 64.656,9.723 64.391,9.685 L63.995,9.629 L63.854,10.002 C63.769,10.225 63.69,10.455 63.62,10.691 C62.917,10.67 62.209,10.653 61.495,10.637 C61.488,10.582 61.482,10.527 61.477,10.472 L61.428,10.054 L61.375,9.613 L61.375,9.613 Z M61.035,13.46 C61.12,13.449 61.205,13.437 61.289,13.422 L61.726,13.345 L61.7,12.901 C61.69,12.726 61.677,12.545 61.662,12.359 C62.166,12.375 62.676,12.388 63.187,12.4 C63.162,12.524 63.142,12.648 63.124,12.772 L63.074,13.126 L63.26,13.221 L63.254,13.24 C63.249,13.258 63.245,13.274 63.24,13.291 C63.181,13.283 63.117,13.276 63.049,13.272 L63.032,13.27 L63.016,13.27 C62.928,13.27 62.847,13.273 62.771,13.276 C62.716,13.279 62.665,13.281 62.615,13.281 L62.165,13.281 L62.137,13.55 L61.833,13.521 C61.587,13.497 61.324,13.478 61.035,13.46 L61.035,13.46 Z M63.815,14.603 C63.816,14.578 63.817,14.555 63.818,14.53 C64.025,14.552 64.309,14.567 64.7,14.585 C64.702,14.636 64.704,14.687 64.706,14.737 L64.551,14.712 C64.309,14.672 64.062,14.635 63.815,14.603 L63.815,14.603 Z M64.659,17.589 L64.713,17.32 C64.762,17.073 64.787,16.833 64.787,16.606 L64.787,16.42 C64.807,16.788 64.828,17.159 64.852,17.532 C64.797,17.547 64.746,17.562 64.698,17.576 L64.659,17.589 L64.659,17.589 Z" id="Fill-7" fill="#FFFFFF"></path>
                    <path d="M59.044,30.492 C58.88,30.279 58.801,30.028 58.801,29.724 L58.801,29.538 L58.978,29.484 C59.115,29.442 59.272,29.401 59.459,29.359 C59.362,27.829 59.287,26.348 59.235,24.95 C57.851,24.89 57.497,24.864 57.379,24.772 C57.379,24.772 57.349,25.492 57.34,25.68 C57.763,25.73 58.192,25.791 58.611,25.86 L58.82,25.896 L58.82,26.107 C58.82,26.366 58.794,26.641 58.749,26.927 L58.716,27.138 L58.502,27.138 C58.054,27.138 57.644,27.107 57.279,27.049 C57.271,27.19 57.263,27.328 57.257,27.464 C57.627,27.514 58.005,27.573 58.383,27.642 L58.588,27.679 L58.588,27.888 C58.588,28.153 58.56,28.425 58.501,28.718 L58.461,28.919 L58.256,28.919 C57.878,28.919 57.514,28.893 57.169,28.84 L57.055,30.267 L56.894,30.318 C56.817,30.343 56.641,30.385 56.324,30.385 C56.096,30.385 55.9,30.35 55.744,30.28 L55.591,30.212 L55.596,30.045 C55.65,28.021 55.775,26.079 55.966,24.272 L55.99,24.049 C55.99,24.049 56.617,24.036 56.723,24.036 C56.936,24.049 57.104,24.077 57.226,24.117 L57.32,24.148 C57.335,23.983 57.361,23.841 57.397,23.711 L57.448,23.528 C57.448,23.528 58.011,23.53 58.211,23.533 L57.836,23.479 C57.654,23.444 57.508,23.397 57.377,23.33 L57.218,23.249 L57.243,23.072 C57.285,22.773 57.344,22.472 57.416,22.172 C56.464,22.149 55.517,22.126 54.584,22.094 C54.617,22.476 54.649,22.849 54.67,23.203 L54.683,23.425 L54.464,23.464 C54.152,23.52 53.82,23.549 53.504,23.549 L53.293,23.549 L53.258,23.341 C53.185,22.915 53.124,22.478 53.073,22.048 C52.337,22.023 51.614,21.997 50.901,21.961 L50.716,21.951 L50.672,21.771 C50.63,21.604 50.609,21.444 50.609,21.285 C50.609,21.147 50.61,21.006 50.642,20.853 L50.682,20.652 L52.927,20.663 C52.899,20.345 52.88,20.032 52.869,19.72 L52.861,19.494 L53.085,19.463 C53.431,19.415 53.755,19.392 54.078,19.392 L54.3,19.392 C54.3,19.392 54.429,20.512 54.449,20.684 L54.581,20.687 C55.657,20.711 56.723,20.734 57.778,20.769 C57.883,20.387 58.006,20.007 58.145,19.637 L58.216,19.448 L58.415,19.478 C58.726,19.522 59.014,19.599 59.294,19.711 L59.483,19.787 C59.483,19.787 59.347,20.546 59.296,20.814 C59.576,20.826 61.492,20.907 61.492,20.907 L61.492,21.518 C61.492,21.702 61.458,21.887 61.393,22.05 L61.329,22.207 L61.16,22.207 C60.423,22.207 59.693,22.207 58.988,22.196 C58.891,22.608 58.783,23 58.674,23.381 L58.628,23.541 C59.181,23.554 59.801,23.577 60.5,23.611 L60.726,23.623 L60.738,23.848 C60.849,25.939 60.904,28.036 60.904,30.08 L60.904,30.259 L60.735,30.316 C60.324,30.458 59.842,30.547 59.261,30.589 L59.126,30.599 L59.044,30.492 L59.044,30.492 Z M53.283,29.891 C52.53,29.891 51.904,29.836 51.368,29.722 L51.205,29.688 L51.174,29.523 C51.092,29.082 51.048,28.263 51.035,26.944 C51.035,26.085 51.07,25.324 51.144,24.616 L51.162,24.437 L51.337,24.397 C51.453,24.372 51.63,24.337 51.832,24.337 C52.019,24.337 52.184,24.365 52.334,24.396 L52.533,24.438 L52.533,24.605 C52.54,24.546 52.592,24.207 52.592,24.207 L52.812,24.214 C53.745,24.243 54.521,24.288 55.185,24.352 L55.404,24.373 L55.431,25.291 C55.449,25.946 55.465,26.47 55.465,26.861 C55.465,27.653 55.436,28.482 55.368,29.548 L55.356,29.738 L55.17,29.777 C54.809,29.852 54.173,29.891 53.283,29.891 L53.283,29.891 Z M52.533,28.469 C53.047,28.484 53.518,28.487 53.954,28.487 C53.954,28.487 53.967,27.587 53.973,27.154 C53.941,27.307 53.897,27.449 53.84,27.578 L53.773,27.727 L53.611,27.727 C53.196,27.727 52.84,27.696 52.533,27.635 L52.533,28.469 L52.533,28.469 Z M52.533,26.135 C52.976,26.174 53.405,26.247 53.839,26.357 L53.985,26.395 C53.99,26.142 53.995,25.885 54.001,25.623 C53.49,25.603 53.064,25.559 52.703,25.49 L52.533,25.457 L52.533,26.135 L52.533,26.135 Z" id="Fill-8" fill="#1A1918"></path>
                    <path d="M54.078,19.642 C54.133,20.094 54.174,20.518 54.228,20.929 C55.49,20.957 56.736,20.983 57.969,21.025 C58.078,20.601 58.215,20.162 58.379,19.725 C58.654,19.765 58.928,19.834 59.201,19.943 C59.133,20.326 59.064,20.696 58.996,21.054 C59.736,21.08 60.488,21.121 61.242,21.148 L61.242,21.518 C61.242,21.669 61.215,21.82 61.16,21.957 C60.354,21.957 59.557,21.957 58.791,21.943 C58.682,22.423 58.559,22.875 58.434,23.313 C58.434,23.313 58.242,23.286 57.873,23.231 C57.723,23.203 57.6,23.163 57.49,23.107 C57.545,22.724 57.627,22.326 57.736,21.929 C56.584,21.902 55.436,21.875 54.311,21.834 C54.352,22.313 54.395,22.778 54.42,23.218 C54.119,23.271 53.805,23.299 53.504,23.299 C53.42,22.807 53.352,22.3 53.297,21.806 C52.488,21.778 51.695,21.751 50.914,21.711 C50.873,21.546 50.859,21.409 50.859,21.285 C50.859,21.162 50.859,21.038 50.887,20.902 C51.654,20.902 52.434,20.915 53.201,20.915 C53.16,20.505 53.133,20.107 53.119,19.711 C53.42,19.669 53.736,19.642 54.078,19.642 L54.078,19.642 Z M57.639,23.778 C58.422,23.778 59.365,23.807 60.488,23.861 C60.6,25.971 60.654,28.039 60.654,30.08 C60.256,30.217 59.791,30.3 59.242,30.34 C59.105,30.162 59.051,29.957 59.051,29.724 C59.231,29.669 59.447,29.614 59.723,29.56 C59.613,27.861 59.531,26.244 59.477,24.71 C58.201,24.655 57.559,24.613 57.545,24.573 C57.545,24.299 57.57,24.024 57.639,23.778 L57.639,23.778 Z M56.723,24.286 C56.928,24.299 57.064,24.327 57.146,24.355 C57.119,24.888 57.105,25.409 57.078,25.901 C57.57,25.956 58.078,26.025 58.57,26.107 C58.57,26.354 58.545,26.615 58.502,26.888 C57.982,26.888 57.49,26.848 57.051,26.751 C57.023,27.08 57.01,27.382 56.996,27.683 C57.436,27.737 57.887,27.806 58.338,27.888 C58.338,28.136 58.311,28.395 58.256,28.669 C57.791,28.669 57.352,28.628 56.941,28.546 C56.9,29.066 56.859,29.56 56.818,30.08 C56.736,30.106 56.572,30.135 56.324,30.135 C56.133,30.135 55.969,30.106 55.846,30.052 C55.9,28.025 56.023,26.107 56.215,24.299 C56.367,24.299 56.529,24.286 56.723,24.286 L56.723,24.286 Z M52.805,24.464 C53.654,24.49 54.449,24.532 55.16,24.601 C55.188,25.587 55.215,26.341 55.215,26.861 C55.215,27.765 55.174,28.656 55.119,29.532 C54.791,29.601 54.187,29.641 53.283,29.641 C52.557,29.641 51.941,29.588 51.42,29.477 C51.338,29.039 51.297,28.203 51.285,26.942 C51.285,26.204 51.311,25.436 51.393,24.642 C51.518,24.613 51.668,24.587 51.832,24.587 C51.996,24.587 52.147,24.613 52.283,24.642 L52.283,26.367 C52.75,26.395 53.242,26.464 53.777,26.6 C53.777,26.93 53.721,27.23 53.611,27.477 C53.064,27.477 52.627,27.422 52.283,27.314 L52.283,28.711 C52.996,28.737 53.627,28.737 54.201,28.737 C54.215,27.725 54.228,26.6 54.256,25.382 C53.695,25.367 53.188,25.327 52.75,25.244 C52.75,24.984 52.764,24.724 52.805,24.464 L52.805,24.464 Z M54.521,19.142 L54.078,19.142 C53.744,19.142 53.407,19.166 53.05,19.216 L52.604,19.278 L52.619,19.729 C52.627,19.955 52.64,20.183 52.656,20.413 C52.453,20.412 52.251,20.41 52.048,20.408 C51.66,20.405 51.271,20.402 50.887,20.402 L50.478,20.402 L50.396,20.804 C50.359,20.988 50.359,21.147 50.359,21.285 C50.359,21.465 50.382,21.644 50.429,21.832 L50.519,22.191 L50.889,22.21 C51.534,22.243 52.188,22.268 52.851,22.291 C52.898,22.673 52.952,23.038 53.011,23.383 L53.082,23.799 L53.504,23.799 C53.835,23.799 54.183,23.768 54.508,23.71 L54.944,23.632 L54.919,23.189 C54.903,22.919 54.881,22.64 54.857,22.354 C55.6,22.377 56.351,22.396 57.104,22.414 C57.061,22.622 57.024,22.83 56.995,23.037 L56.945,23.391 L57.192,23.517 L57.157,23.644 C57.141,23.704 57.125,23.767 57.112,23.831 C57.007,23.81 56.887,23.795 56.754,23.787 L56.738,23.786 L56.723,23.786 C56.613,23.786 56.514,23.79 56.42,23.793 C56.348,23.796 56.28,23.799 56.215,23.799 L55.765,23.799 L55.718,24.246 C55.699,24.417 55.682,24.59 55.665,24.764 L55.66,24.587 L55.647,24.145 L55.208,24.103 C54.54,24.039 53.759,23.993 52.82,23.964 L52.38,23.95 L52.349,24.145 C52.201,24.115 52.026,24.087 51.832,24.087 C51.605,24.087 51.409,24.125 51.282,24.154 L50.932,24.233 L50.896,24.59 C50.821,25.307 50.785,26.076 50.785,26.942 C50.798,28.298 50.842,29.107 50.929,29.569 L50.99,29.897 L51.316,29.967 C51.869,30.084 52.513,30.141 53.283,30.141 C54.19,30.141 54.843,30.101 55.221,30.021 L55.347,29.995 C55.347,30.01 55.347,30.024 55.346,30.038 L55.337,30.373 L55.643,30.509 C55.831,30.592 56.061,30.635 56.324,30.635 C56.588,30.635 56.812,30.607 56.972,30.557 L57.291,30.453 L57.316,30.119 L57.379,29.352 L57.397,29.122 C57.674,29.153 57.961,29.169 58.256,29.169 L58.666,29.169 L58.746,28.767 C58.808,28.457 58.838,28.17 58.838,27.888 L58.838,27.471 L58.428,27.396 C58.411,27.393 58.394,27.39 58.379,27.387 C58.42,27.388 58.461,27.388 58.502,27.388 L58.93,27.388 L58.996,26.966 C59.021,26.809 59.039,26.66 59.052,26.52 C59.092,27.379 59.141,28.264 59.196,29.165 C59.094,29.19 58.997,29.217 58.905,29.245 L58.551,29.354 L58.551,29.724 C58.551,30.08 58.65,30.391 58.846,30.645 L59.01,30.858 L59.278,30.839 C59.882,30.795 60.385,30.701 60.816,30.553 L61.154,30.438 L61.154,30.08 C61.154,28.032 61.099,25.931 60.987,23.835 L60.964,23.384 L60.513,23.362 C59.944,23.334 59.428,23.313 58.957,23.3 C59.027,23.052 59.106,22.762 59.185,22.449 C59.828,22.457 60.49,22.457 61.16,22.457 L61.499,22.457 L61.624,22.143 C61.701,21.95 61.742,21.734 61.742,21.518 L61.742,20.666 L61.26,20.648 C60.89,20.636 60.52,20.618 60.15,20.602 C59.965,20.594 59.779,20.585 59.595,20.577 C59.627,20.398 59.66,20.216 59.693,20.031 L59.765,19.631 L59.387,19.48 C59.088,19.359 58.781,19.277 58.451,19.229 L58.053,19.172 L57.911,19.549 C57.792,19.865 57.686,20.187 57.591,20.513 C56.627,20.482 55.654,20.461 54.672,20.438 C54.66,20.337 54.649,20.234 54.638,20.131 C54.617,19.951 54.598,19.769 54.574,19.582 L54.521,19.142 L54.521,19.142 Z M57.6,25.46 C57.605,25.347 57.609,25.232 57.613,25.118 C57.614,25.111 57.614,25.105 57.614,25.1 C57.885,25.137 58.31,25.159 58.994,25.189 C59,25.351 59.007,25.512 59.014,25.675 L58.652,25.614 C58.311,25.558 57.958,25.506 57.6,25.46 L57.6,25.46 Z M52.783,25.909 L52.783,25.758 C53.065,25.806 53.384,25.84 53.746,25.861 C53.744,25.933 53.742,26.005 53.741,26.076 C53.423,26.002 53.105,25.946 52.783,25.909 L52.783,25.909 Z M52.783,28.226 L52.783,27.929 C53.032,27.961 53.307,27.977 53.611,27.977 L53.711,27.977 C53.71,28.064 53.709,28.15 53.708,28.236 C53.416,28.235 53.108,28.233 52.783,28.226 L52.783,28.226 Z" id="Fill-9" fill="#FFFFFF"></path>
                    <path d="M73.942,41.052 C73.55,40.014 73.306,38.42 73.195,36.181 L73.185,35.957 L73.405,35.921 C75.83,35.523 78.415,35.322 81.088,35.322 L81.299,35.322 L81.334,35.53 C81.608,37.128 81.742,38.711 81.742,40.368 L81.742,40.579 L81.534,40.614 C79.337,40.989 76.931,41.186 74.179,41.214 L74.004,41.216 L73.942,41.052 L73.942,41.052 Z M75.903,39.18 L79.446,38.918 L79.22,37.38 L75.635,37.594 L75.903,39.18 L75.903,39.18 Z M66.364,36.418 L66.34,36.195 C66.247,35.37 66.144,34.443 66.084,33.519 C65.498,33.584 64.856,33.633 64.193,33.68 L64.054,33.689 L63.973,33.576 C63.668,33.15 63.52,32.545 63.52,31.723 L63.52,31.504 L63.736,31.475 C64.464,31.376 65.19,31.28 65.88,31.204 C65.797,30.432 65.746,29.666 65.703,28.937 C63.542,28.933 63.106,28.881 62.928,28.761 L62.861,28.716 L62.833,28.642 C62.743,28.405 62.707,28.128 62.707,27.685 C62.707,27.413 62.726,27.091 62.859,26.753 L62.918,26.605 L63.075,26.596 C63.807,26.547 64.65,26.496 65.536,26.486 C65.492,25.81 65.468,25.115 65.445,24.44 L65.439,24.229 L65.647,24.186 C66.161,24.083 66.732,24.029 67.284,23.978 L67.655,23.942 C67.655,23.942 67.826,25.771 67.899,26.519 C68.826,26.55 69.597,26.603 70.25,26.679 L70.409,26.697 L70.458,26.85 C70.514,27.019 70.58,27.312 70.58,27.739 C70.58,28.148 70.531,28.484 70.446,28.661 L70.405,28.746 L70.319,28.782 C70.234,28.819 69.983,28.927 68.128,28.936 C68.154,29.33 68.263,30.722 68.284,31.026 C68.77,31.005 69.238,30.985 69.705,30.985 L69.898,30.985 L69.947,31.172 C70.001,31.378 70.063,31.651 70.063,31.939 C70.063,32.231 70.024,32.518 69.947,32.815 L69.911,32.953 L69.773,32.992 C69.451,33.085 69.029,33.163 68.423,33.241 L68.582,36.059 L68.418,36.127 C67.936,36.325 67.355,36.418 66.588,36.418 L66.364,36.418 L66.364,36.418 Z M79.977,34.466 C77.743,34.466 75.641,34.301 73.726,33.975 L73.518,33.939 L73.518,33.728 C73.518,33.241 73.518,32.737 73.576,32.235 L73.603,32.006 L73.834,32.015 C75.999,32.102 78.061,32.271 80.141,32.53 L80.359,32.558 L80.359,32.778 C80.359,33.198 80.314,33.682 80.224,34.255 L80.189,34.466 L79.977,34.466 L79.977,34.466 Z M82.989,33.433 C81.244,31.996 79.557,30.457 77.972,28.855 C75.982,29.796 73.894,30.73 71.592,31.709 L71.411,31.785 L71.294,31.628 C70.933,31.144 70.63,30.605 70.394,30.029 L70.307,29.816 L70.512,29.712 C73.331,28.278 76.296,26.952 79.329,25.769 C79.174,25.737 79.037,25.692 78.918,25.633 L78.779,25.563 L78.779,25.409 C78.779,24.974 78.797,24.561 78.834,24.157 C77.685,24.104 76.578,24.034 75.539,23.948 L75.539,24.811 C75.539,25.088 75.406,25.356 75.174,25.547 C74.978,25.671 74.698,25.712 74.15,25.712 C73.71,25.712 73.47,25.666 73.321,25.552 C73.133,25.4 73.031,25.197 73.031,24.975 C73.031,24.561 73.031,24.145 73.048,23.713 C72.125,23.634 71.218,23.53 70.348,23.406 L70.133,23.376 L70.133,22.319 C70.133,22.09 70.133,21.83 70.193,21.56 L70.237,21.364 L70.437,21.364 C71.285,21.364 72.177,21.387 73.115,21.411 C73.122,20.884 73.148,20.344 73.196,19.803 L73.213,19.614 L73.398,19.579 C73.72,19.517 73.985,19.466 74.285,19.466 C74.564,19.466 74.858,19.504 75.183,19.581 L75.368,19.625 L75.375,19.814 C75.397,20.407 75.422,20.978 75.463,21.509 C76.619,21.559 77.822,21.632 79.046,21.725 C79.099,21.207 79.17,20.692 79.241,20.196 L79.27,20.001 L79.466,19.983 C79.78,19.955 80.106,19.927 80.463,19.927 C80.882,19.985 81.146,20.041 81.331,20.104 L81.508,20.165 L81.5,20.351 C81.478,20.892 81.454,21.411 81.412,21.93 L84.156,22.173 L84.156,22.401 C84.156,22.936 84.101,23.498 83.989,24.074 L83.951,24.277 L83.744,24.277 C82.862,24.277 82.025,24.277 81.203,24.234 L81.051,25.612 L80.945,25.677 C80.771,25.781 80.493,25.82 79.922,25.82 L79.867,25.82 C80.206,26.205 80.478,26.695 80.675,27.279 L80.744,27.485 C80.744,27.485 80.305,27.706 80.197,27.761 C81.758,29.122 83.164,30.442 84.49,31.79 L84.616,31.918 L84.536,32.078 C84.244,32.655 83.81,33.131 83.278,33.453 L83.127,33.545 L82.989,33.433 L82.989,33.433 Z" id="Fill-10" fill="#1A1918"></path>
                    <path d="M74.285,19.716 C74.611,19.716 74.908,19.772 75.125,19.824 C75.15,20.503 75.18,21.153 75.232,21.749 C76.533,21.803 77.889,21.885 79.271,21.993 C79.324,21.397 79.406,20.802 79.488,20.232 C79.785,20.206 80.109,20.177 80.463,20.177 C80.844,20.232 81.088,20.285 81.25,20.341 C81.225,20.964 81.197,21.56 81.141,22.157 C82.063,22.236 82.984,22.319 83.906,22.401 C83.906,22.915 83.853,23.457 83.744,24.027 C82.793,24.027 81.871,24.027 80.981,23.972 C80.924,24.488 80.871,24.975 80.816,25.462 C80.68,25.544 80.383,25.57 79.922,25.57 C79.541,25.57 79.246,25.518 79.029,25.409 C79.029,24.894 79.055,24.406 79.109,23.919 C77.809,23.863 76.533,23.784 75.289,23.676 L75.289,24.811 C75.289,25.027 75.18,25.219 75.016,25.354 C74.883,25.436 74.582,25.462 74.15,25.462 C73.824,25.462 73.58,25.436 73.473,25.354 C73.338,25.245 73.281,25.11 73.281,24.975 C73.281,24.488 73.281,23.998 73.309,23.484 C72.307,23.402 71.33,23.294 70.383,23.159 L70.383,22.319 C70.383,22.102 70.383,21.857 70.437,21.614 C71.359,21.614 72.334,21.641 73.363,21.668 C73.363,21.072 73.391,20.449 73.445,19.824 C73.717,19.772 73.986,19.716 74.285,19.716 L74.285,19.716 Z M67.43,24.215 C67.51,25.084 67.592,25.949 67.672,26.762 C68.674,26.791 69.518,26.845 70.221,26.927 C70.273,27.089 70.33,27.359 70.33,27.739 C70.33,28.174 70.273,28.443 70.221,28.553 C70.029,28.635 69.244,28.686 67.861,28.686 C67.916,29.582 67.996,30.448 68.051,31.287 C68.621,31.262 69.164,31.235 69.705,31.235 C69.762,31.452 69.813,31.695 69.813,31.939 C69.813,32.265 69.762,32.535 69.705,32.752 C69.326,32.86 68.812,32.943 68.16,33.022 C68.213,33.999 68.27,34.974 68.322,35.896 C67.861,36.086 67.293,36.168 66.588,36.168 C66.479,35.19 66.371,34.216 66.318,33.239 C65.666,33.32 64.936,33.377 64.176,33.431 C63.904,33.052 63.77,32.482 63.77,31.723 C64.584,31.612 65.396,31.506 66.156,31.426 C66.049,30.505 65.992,29.609 65.939,28.686 C64.205,28.686 63.228,28.661 63.066,28.553 C62.984,28.336 62.957,28.065 62.957,27.685 C62.957,27.387 62.984,27.115 63.092,26.845 C63.904,26.791 64.828,26.735 65.805,26.735 C65.748,25.979 65.721,25.192 65.695,24.432 C66.234,24.323 66.83,24.271 67.43,24.215 L67.43,24.215 Z M79.623,25.923 C79.977,26.302 80.246,26.791 80.437,27.359 C80.166,27.495 79.949,27.605 79.76,27.712 C81.357,29.095 82.875,30.505 84.312,31.966 C84.039,32.508 83.637,32.943 83.148,33.239 C81.305,31.723 79.598,30.151 78.025,28.553 C75.855,29.582 73.662,30.557 71.494,31.478 C71.17,31.044 70.869,30.531 70.625,29.935 C73.607,28.418 76.615,27.089 79.623,25.923 L79.623,25.923 Z M73.824,32.265 C75.855,32.347 77.941,32.508 80.109,32.778 C80.109,33.214 80.059,33.701 79.977,34.216 C77.754,34.216 75.668,34.052 73.768,33.728 C73.768,33.239 73.768,32.752 73.824,32.265 L73.824,32.265 Z M81.088,35.572 C81.357,37.142 81.492,38.715 81.492,40.368 C79.271,40.747 76.834,40.937 74.176,40.964 C73.797,39.96 73.555,38.39 73.445,36.168 C75.775,35.786 78.324,35.572 81.088,35.572 L81.088,35.572 Z M75.695,39.445 L79.732,39.147 L79.434,37.116 L75.342,37.36 L75.695,39.445 L75.695,39.445 Z M74.285,19.216 C73.962,19.216 73.684,19.27 73.414,19.321 L73.352,19.333 L72.98,19.404 L72.947,19.78 C72.907,20.242 72.881,20.702 72.87,21.154 C72.022,21.133 71.213,21.114 70.437,21.114 L70.037,21.114 L69.949,21.505 C69.883,21.802 69.883,22.089 69.883,22.319 L69.883,23.593 L70.312,23.654 C71.113,23.768 71.944,23.864 72.79,23.941 C72.781,24.295 72.781,24.639 72.781,24.975 C72.781,25.274 72.916,25.547 73.159,25.743 C73.368,25.902 73.644,25.962 74.15,25.962 C74.757,25.962 75.063,25.912 75.278,25.779 L75.307,25.762 L75.333,25.74 C75.623,25.502 75.789,25.163 75.789,24.811 L75.789,24.219 C76.673,24.29 77.603,24.349 78.564,24.394 C78.541,24.723 78.529,25.059 78.529,25.409 L78.529,25.719 L78.638,25.772 C75.807,26.898 73.038,28.146 70.398,29.489 L69.988,29.697 L70.162,30.124 C70.406,30.72 70.72,31.276 71.094,31.777 L71.328,32.093 L71.689,31.938 C73.933,30.984 75.975,30.073 77.919,29.156 C79.473,30.719 81.124,32.222 82.831,33.625 L83.105,33.851 L83.407,33.667 C83.979,33.32 84.446,32.811 84.759,32.191 L84.92,31.871 L84.669,31.615 C83.418,30.344 82.095,29.096 80.641,27.816 C80.647,27.813 80.654,27.811 80.661,27.807 L81.05,27.612 L80.911,27.2 C80.768,26.772 80.584,26.39 80.364,26.06 C80.708,26.039 80.912,25.987 81.073,25.891 L81.286,25.764 L81.313,25.518 L81.426,24.495 C82.178,24.527 82.942,24.527 83.744,24.527 L84.157,24.527 L84.235,24.121 C84.349,23.529 84.406,22.951 84.406,22.401 L84.406,21.943 L83.95,21.903 L83.396,21.854 C82.824,21.803 82.252,21.752 81.68,21.702 C81.712,21.256 81.731,20.811 81.75,20.361 L81.765,19.989 L81.412,19.868 C81.213,19.8 80.934,19.74 80.535,19.682 L80.499,19.677 L80.463,19.677 C80.093,19.677 79.756,19.707 79.458,19.733 L79.063,19.769 L78.993,20.161 C78.937,20.557 78.874,21.001 78.823,21.457 C77.758,21.379 76.71,21.315 75.696,21.269 C75.664,20.792 75.643,20.289 75.625,19.806 L75.61,19.426 L75.241,19.338 C74.897,19.256 74.584,19.216 74.285,19.216 L74.285,19.216 Z M67.882,23.67 L67.383,23.717 L67.261,23.729 C66.702,23.781 66.125,23.835 65.597,23.941 L65.182,24.025 L65.195,24.448 C65.213,24.979 65.234,25.611 65.272,26.24 C64.475,26.256 63.721,26.302 63.059,26.346 L62.744,26.367 L62.627,26.66 C62.477,27.04 62.457,27.407 62.457,27.685 C62.457,28.161 62.498,28.464 62.599,28.729 L62.655,28.879 L62.788,28.969 C63.01,29.116 63.315,29.179 65.468,29.186 C65.503,29.769 65.545,30.373 65.606,30.983 C64.975,31.057 64.323,31.143 63.702,31.228 L63.269,31.286 L63.269,31.723 C63.269,32.599 63.433,33.252 63.77,33.722 L63.932,33.949 L64.211,33.93 C64.828,33.886 65.363,33.844 65.853,33.795 C65.914,34.638 66.007,35.472 66.091,36.224 L66.141,36.668 L66.588,36.668 C67.389,36.668 68.001,36.569 68.514,36.357 L68.842,36.222 L68.821,35.867 L68.793,35.362 C68.757,34.742 68.721,34.103 68.685,33.458 C69.184,33.388 69.551,33.316 69.843,33.232 L70.117,33.154 L70.188,32.878 C70.272,32.56 70.312,32.253 70.312,31.939 C70.312,31.623 70.246,31.329 70.188,31.109 L70.091,30.735 L69.705,30.735 C69.31,30.735 68.919,30.749 68.516,30.766 C68.499,30.54 68.481,30.312 68.463,30.082 C68.44,29.785 68.417,29.486 68.396,29.184 C70.061,29.165 70.307,29.06 70.418,29.013 L70.59,28.938 L70.671,28.77 C70.81,28.482 70.83,28.001 70.83,27.739 C70.83,27.28 70.758,26.96 70.696,26.772 L70.597,26.467 L70.278,26.43 C69.671,26.359 68.964,26.309 68.127,26.276 C68.061,25.595 67.993,24.883 67.928,24.169 L67.882,23.67 L67.882,23.67 Z M73.381,31.746 L73.327,32.207 C73.268,32.723 73.268,33.234 73.268,33.728 L73.268,34.15 L73.684,34.222 C75.612,34.55 77.729,34.716 79.977,34.716 L80.403,34.716 L80.471,34.295 C80.563,33.707 80.609,33.212 80.609,32.778 L80.609,32.337 L80.171,32.282 C78.086,32.022 76.016,31.853 73.845,31.765 L73.381,31.746 L73.381,31.746 Z M81.51,35.072 L81.088,35.072 C78.401,35.072 75.803,35.275 73.364,35.675 L72.924,35.747 L72.946,36.192 C73.058,38.459 73.307,40.077 73.708,41.141 L73.831,41.468 L74.181,41.464 C76.946,41.436 79.365,41.238 81.576,40.861 L81.992,40.79 L81.992,40.368 C81.992,38.696 81.857,37.1 81.581,35.487 L81.51,35.072 L81.51,35.072 Z M75.928,37.826 L79.006,37.643 L79.159,38.688 L76.112,38.913 L75.928,37.826 L75.928,37.826 Z" id="Fill-11" fill="#FFFFFF"></path>
                    <path d="M26.984,25.903 C26.984,26.248 26.705,26.528 26.359,26.528 C26.014,26.528 25.734,26.248 25.734,25.903 C25.734,25.558 26.014,25.278 26.359,25.278 C26.705,25.278 26.984,25.558 26.984,25.903" id="Fill-12" fill="#1A1918"></path>
                    <path d="M33.039,24.652 C33.039,24.997 32.76,25.277 32.414,25.277 C32.068,25.277 31.789,24.997 31.789,24.652 C31.789,24.308 32.068,24.027 32.414,24.027 C32.76,24.027 33.039,24.308 33.039,24.652" id="Fill-13" fill="#1A1918"></path>
                    <path d="M30.857,26.9 C30.918,27.197 30.584,27.517 30.109,27.613 C29.637,27.711 29.203,27.55 29.143,27.252 C29.082,26.956 29.416,26.637 29.889,26.539 C30.363,26.442 30.795,26.603 30.857,26.9" id="Fill-14" fill="#1A1918"></path>
                    <path d="M30.113,27.035 L30.762,29.203" id="Fill-15" fill="#FFFFFF"></path>
                    <path d="M30.113,27.035 L30.762,29.203" id="Stroke-16" stroke="#010604" stroke-width="0.5"></path>
                </g>
            </g>
        </g>
    </g>
</svg>