<?xml version="1.0" encoding="UTF-8" standalone="no"?>
<svg width="120px" height="120px" viewBox="0 0 120 120" version="1.1" xmlns="http://www.w3.org/2000/svg" xmlns:xlink="http://www.w3.org/1999/xlink" xmlns:sketch="http://www.bohemiancoding.com/sketch/ns">
    <!-- Generator: Sketch 3.3.2 (12043) - http://www.bohemiancoding.com/sketch -->
    <title>Mobile Portrait Copy 7</title>
    <desc>Created with Sketch.</desc>
    <defs></defs>
    <g id="baby" stroke="none" stroke-width="1" fill="none" fill-rule="evenodd" sketch:type="MSPage">
        <g id="Mobile-Portrait-Copy-7" sketch:type="MSArtboardGroup">
            <g id="Imported-EPS" sketch:type="MSLayerGroup" transform="translate(31.000000, 22.000000)">
                <g id="Page-1" sketch:type="MSShapeGroup">
                    <path d="M47.076,51.671 C47.076,49.463 39.469,47.673 30.086,47.673 C20.701,47.673 13.096,49.463 13.096,51.671 C13.096,53.879 20.701,55.668 30.086,55.668 C39.469,55.668 47.076,53.879 47.076,51.671 L47.076,51.671 Z" id="Stroke-1" stroke="#1A1918" stroke-width="2"></path>
                    <path d="M5.631,52.667 C5.631,52.667 11.727,61.146 38.244,57.948" id="Stroke-2" stroke="#1A1918" stroke-width="2" stroke-linecap="round"></path>
                    <path d="M15.76,22.354 C15.76,22.354 9.09,30.897 9.631,34.08 C10.17,37.263 11.229,45.008 15.094,47.673 C18.957,50.338 27.754,53.536 31.484,52.736 C35.217,51.936 40.998,49.405 41.305,47.673 C41.613,45.94 47.209,31.549 47.076,31.016 C46.943,30.482 47.342,24.352 47.076,23.952 C46.811,23.553 41.897,18.468 37.881,20.088 C33.865,21.708 32.951,25.622 33.217,26.854 C33.484,28.084 33.217,31.548 32.818,31.948 C32.418,32.348 24.162,32.752 24.158,31.95 C24.154,31.148 18.025,26.928 17.625,24.707 C17.227,22.486 15.76,22.354 15.76,22.354" id="Fill-3" fill="#FFF101"></path>
                    <path d="M28.817,54.485 C25.658,54.485 22.486,53.818 19.645,52.556 C19.158,52.34 18.683,52.106 18.214,51.854 C8.255,46.475 4.984,37.714 9.466,28.421 C9.508,28.336 13.54,20.57 16.881,20.57 C17.042,20.57 17.202,20.588 17.355,20.623 C19.431,21.098 19.438,23.742 19.44,24.611 C19.443,26.759 21.375,28.404 25.181,29.511 C28.012,30.336 30.934,30.533 31.587,30.568 C31.737,29.277 31.645,27.953 31.566,27.381 C31.233,25.191 31.939,23.034 33.551,21.311 C34.996,19.768 37.053,18.696 39.192,18.372 C39.596,18.311 40.01,18.279 40.423,18.279 C44.695,18.279 48.664,21.514 49.268,25.489 C49.273,25.533 49.277,25.575 49.279,25.615 C49.335,25.713 49.378,25.811 49.408,25.911 C49.761,27.092 51.594,29.608 52.666,30.919 L53.893,32.419 L52.167,33.302 C51.564,33.611 50.895,33.762 50.122,33.762 C49.283,33.762 48.482,33.584 47.774,33.428 C47.559,33.38 47.268,33.315 47.018,33.271 C46.478,36.343 43.902,44.137 43.592,45.069 L43.55,45.174 C42.532,48.55 40.193,51.205 36.8,52.813 C34.493,53.907 31.733,54.485 28.817,54.485 L28.817,54.485 Z M16.296,24.17 C15.087,25.332 13.051,28.191 12.286,29.781 C8.561,37.501 11.264,44.543 19.7,49.102 C22.37,50.545 25.613,51.34 28.833,51.34 C31.297,51.34 33.588,50.872 35.458,49.985 C38.376,48.602 40.232,46.253 40.823,43.193 C40.871,42.948 40.977,42.72 41.131,42.524 C42.421,38.528 43.838,33.818 43.98,32.477 C44.019,32.073 44.134,31.697 44.32,31.36 C44.336,31.235 44.364,31.118 44.405,31.005 C45.001,29.402 45.592,27.835 46.257,26.281 C46.217,26.178 46.189,26.07 46.172,25.959 C45.805,23.537 43.101,21.412 40.386,21.412 C40.144,21.412 39.901,21.43 39.663,21.466 C38.263,21.679 36.907,22.371 35.943,23.364 C34.928,24.411 34.474,25.678 34.664,26.931 C34.792,27.849 35.314,32.522 33.153,34.987 C32.316,35.944 31.177,36.45 29.86,36.45 C29.609,36.449 29.398,36.403 29.202,36.315 C28.636,36.063 28.271,35.498 28.273,34.877 C28.277,34.271 28.628,33.745 29.135,33.488 C24.797,32.945 16.317,31.061 16.309,24.626 C16.309,24.453 16.304,24.302 16.296,24.17 L16.296,24.17 Z" id="Fill-4" fill="#010604"></path>
                    <path d="M40.422,18.779 C44.383,18.779 48.196,21.768 48.773,25.564 C48.781,25.63 48.785,25.696 48.781,25.762 C48.844,25.852 48.896,25.947 48.93,26.057 C49.346,27.45 51.488,30.27 52.279,31.235 L53.113,32.256 L51.939,32.856 C51.354,33.157 50.734,33.262 50.122,33.262 C49.334,33.262 48.558,33.089 47.873,32.937 C47.477,32.85 46.908,32.723 46.614,32.723 L46.598,32.723 C46.598,32.731 46.596,32.739 46.596,32.749 C46.344,35.134 43.447,43.919 43.117,44.912 C43.109,44.939 43.094,44.964 43.084,44.99 C42.094,48.271 39.871,50.805 36.586,52.361 C34.291,53.449 31.596,53.985 28.816,53.985 C25.789,53.985 22.662,53.349 19.848,52.099 C19.373,51.888 18.908,51.66 18.451,51.414 C8.754,46.176 5.565,37.662 9.916,28.638 C9.955,28.559 13.93,21.069 16.881,21.07 C17.004,21.07 17.125,21.083 17.244,21.11 C18.938,21.498 18.938,23.849 18.939,24.621 C18.943,27.007 20.996,28.815 25.041,29.991 C28.324,30.947 31.676,31.074 31.711,31.074 C31.816,31.078 31.916,31.102 32.012,31.135 C32.26,29.668 32.158,28.014 32.061,27.311 C31.389,22.879 35.277,19.471 39.268,18.866 C39.652,18.808 40.038,18.779 40.422,18.779 L40.422,18.779 Z M29.86,35.95 L29.834,35.95 C29.682,35.949 29.537,35.918 29.406,35.859 C29.031,35.692 28.772,35.315 28.774,34.879 C28.777,34.291 29.254,33.819 29.84,33.819 L29.843,33.819 L29.858,33.819 C30.417,33.819 30.837,33.64 31.174,33.254 C31.193,33.231 31.209,33.205 31.227,33.183 C28.805,33.039 16.818,31.959 16.809,24.625 C16.807,23.87 16.727,23.464 16.664,23.262 C15.482,23.845 12.674,27.821 11.836,29.564 C7.979,37.558 10.76,44.839 19.463,49.541 C22.274,51.062 25.626,51.84 28.833,51.84 C31.303,51.84 33.687,51.378 35.672,50.437 C38.742,48.981 40.691,46.51 41.314,43.288 C41.354,43.087 41.447,42.912 41.576,42.773 C42.619,39.546 44.313,34.081 44.477,32.529 C44.516,32.132 44.635,31.799 44.809,31.516 C44.814,31.406 44.832,31.294 44.875,31.177 C45.488,29.527 46.107,27.884 46.807,26.269 C46.736,26.154 46.688,26.025 46.666,25.884 C46.257,23.18 43.283,20.912 40.385,20.912 C40.118,20.912 39.852,20.932 39.588,20.972 C36.598,21.426 33.707,23.959 34.17,27.006 C34.246,27.555 34.836,32.309 32.777,34.658 C32.037,35.504 31.029,35.95 29.86,35.95 L29.86,35.95 Z M40.422,17.779 C39.984,17.779 39.545,17.813 39.117,17.878 C36.868,18.219 34.706,19.346 33.186,20.97 C31.467,22.807 30.716,25.112 31.072,27.461 C31.147,28.001 31.206,29.019 31.134,30.038 C30.042,29.956 27.658,29.712 25.32,29.031 C21.753,27.994 19.942,26.51 19.939,24.619 C19.933,22.016 19.102,20.51 17.467,20.136 C17.276,20.092 17.08,20.07 16.881,20.07 C13.185,20.07 9.063,28.109 9.022,28.19 C4.404,37.767 7.754,46.772 17.976,52.294 C18.45,52.549 18.943,52.791 19.441,53.013 C22.347,54.303 25.589,54.985 28.816,54.985 C31.807,54.985 34.641,54.391 37.015,53.265 C40.518,51.604 42.94,48.865 44.023,45.342 C44.045,45.29 44.064,45.239 44.079,45.186 C44.364,44.329 46.729,37.178 47.42,33.861 C47.508,33.881 47.587,33.898 47.647,33.911 C48.398,34.078 49.229,34.262 50.122,34.262 C50.976,34.262 51.72,34.094 52.397,33.746 L53.568,33.146 L54.671,32.582 L53.888,31.623 L53.054,30.602 C51.96,29.267 50.197,26.809 49.888,25.77 C49.856,25.668 49.817,25.568 49.77,25.472 C49.769,25.463 49.768,25.454 49.767,25.446 C49.122,21.205 44.933,17.779 40.422,17.779 L40.422,17.779 Z M29.86,36.95 C31.324,36.95 32.594,36.386 33.529,35.317 C35.833,32.687 35.292,27.818 35.16,26.868 C34.945,25.452 35.662,24.372 36.302,23.713 C37.178,22.809 38.463,22.154 39.738,21.96 C39.947,21.929 40.165,21.912 40.386,21.912 C42.828,21.912 45.351,23.877 45.678,26.033 C45.688,26.109 45.704,26.184 45.724,26.257 C45.084,27.765 44.513,29.281 43.938,30.828 C43.893,30.95 43.86,31.073 43.839,31.201 C43.645,31.577 43.524,31.989 43.481,32.432 C43.345,33.72 41.9,38.507 40.681,42.291 C40.509,42.531 40.39,42.806 40.333,43.098 C39.773,45.995 38.013,48.221 35.243,49.534 C33.441,50.389 31.224,50.84 28.833,50.84 C25.695,50.84 22.536,50.066 19.939,48.661 C11.648,44.182 9.091,37.555 12.736,29.999 C13.335,28.754 14.749,26.719 15.851,25.4 C16.104,27.748 17.606,30.654 22.771,32.539 C24.59,33.204 26.481,33.604 28.057,33.846 C27.879,34.148 27.775,34.499 27.773,34.872 C27.77,35.694 28.251,36.439 28.999,36.773 C29.258,36.889 29.537,36.948 29.827,36.95 L29.86,36.95 L29.86,36.95 Z" id="Fill-5" fill="#FFFFFF"></path>
                    <path d="M25.672,49.84 C24.22,49.84 22.692,49.503 21.256,48.864 C20.972,48.738 20.689,48.601 20.409,48.449 C19.649,48.038 19.365,47.087 19.774,46.328 C20.049,45.822 20.576,45.509 21.151,45.509 C21.407,45.509 21.663,45.572 21.892,45.692 C23.126,46.359 24.429,46.711 25.665,46.711 C25.932,46.711 26.195,46.694 26.452,46.66 C27.7,46.495 28.638,45.94 29.091,45.101 C29.546,44.259 29.495,43.171 28.948,42.038 C28.32,40.733 27.146,39.567 25.644,38.755 C25.275,38.557 25.007,38.227 24.887,37.826 C24.768,37.426 24.811,37.003 25.009,36.635 C25.283,36.129 25.811,35.815 26.386,35.815 C26.641,35.815 26.897,35.879 27.125,35.998 C29.208,37.122 30.855,38.782 31.767,40.677 C32.765,42.74 32.794,44.84 31.848,46.589 C30.903,48.337 29.132,49.465 26.862,49.764 C26.475,49.814 26.074,49.84 25.673,49.84 L25.672,49.84" id="Fill-6" fill="#010604"></path>
                    <path d="M26.386,36.315 C26.557,36.315 26.732,36.356 26.895,36.441 C28.879,37.513 30.449,39.094 31.316,40.894 C32.242,42.809 32.275,44.747 31.408,46.351 C30.541,47.955 28.904,48.99 26.797,49.267 C26.428,49.316 26.053,49.34 25.672,49.34 C24.285,49.34 22.839,49.02 21.459,48.407 C21.186,48.286 20.914,48.154 20.647,48.01 C20.129,47.729 19.936,47.083 20.215,46.565 C20.407,46.21 20.773,46.008 21.151,46.008 C21.322,46.008 21.496,46.049 21.658,46.135 C22.964,46.84 24.356,47.211 25.665,47.211 C25.954,47.211 26.238,47.193 26.518,47.156 C27.93,46.969 29,46.322 29.531,45.338 C30.064,44.351 30.018,43.102 29.398,41.82 C28.725,40.421 27.475,39.177 25.881,38.315 C25.363,38.036 25.17,37.39 25.449,36.872 C25.643,36.515 26.006,36.315 26.386,36.315 M26.386,35.315 C25.627,35.315 24.932,35.729 24.57,36.396 C24.308,36.883 24.25,37.441 24.408,37.97 C24.566,38.498 24.921,38.934 25.406,39.195 C26.816,39.958 27.915,41.044 28.497,42.254 C28.974,43.24 29.028,44.166 28.651,44.862 C28.275,45.559 27.472,46.02 26.386,46.165 C26.154,46.195 25.911,46.211 25.665,46.211 C24.512,46.211 23.291,45.881 22.134,45.255 C21.825,45.092 21.488,45.008 21.151,45.008 C20.393,45.008 19.696,45.422 19.336,46.089 C18.795,47.092 19.17,48.347 20.17,48.889 C20.451,49.041 20.748,49.185 21.054,49.321 C22.553,49.987 24.15,50.34 25.672,50.34 C26.096,50.34 26.519,50.312 26.928,50.259 C29.36,49.938 31.265,48.72 32.288,46.826 C33.312,44.933 33.286,42.671 32.217,40.458 C31.26,38.472 29.538,36.732 27.369,35.561 C27.057,35.398 26.721,35.315 26.386,35.315" id="Fill-7" fill="#FFFFFF"></path>
                    <path d="M42.36,27.353 C42.145,27.353 41.928,27.306 41.715,27.211 C41.028,26.905 40.686,26.234 40.842,25.501 C41.001,24.751 41.631,24.207 42.341,24.207 C42.557,24.207 42.773,24.255 42.986,24.35 C43.673,24.654 44.017,25.326 43.86,26.06 C43.701,26.81 43.071,27.353 42.36,27.353" id="Fill-8" fill="#010604"></path>
                    <path d="M42.341,24.707 C42.48,24.707 42.629,24.738 42.783,24.807 C43.885,25.296 43.355,26.854 42.36,26.854 C42.221,26.854 42.072,26.822 41.918,26.754 C40.818,26.265 41.347,24.707 42.341,24.707 M42.341,23.707 C41.396,23.707 40.561,24.418 40.353,25.396 C40.148,26.356 40.614,27.268 41.512,27.668 C41.789,27.791 42.074,27.853 42.36,27.853 C43.306,27.853 44.143,27.142 44.35,26.163 C44.553,25.203 44.087,24.291 43.189,23.893 C42.912,23.769 42.627,23.707 42.341,23.707" id="Fill-9" fill="#FFFFFF"></path>
                    <path d="M48.01,28.35 L46.811,31.415 C46.811,31.415 48.676,32.747 51.207,31.415 L48.01,28.35" id="Fill-10" fill="#DC4336"></path>
                    <path d="M3.977,16.008 C3.935,15.742 3.914,15.441 3.914,15.091 L3.914,14.625 L4.379,14.592 C4.847,14.559 5.33,14.526 5.837,14.5 C5.834,14.289 5.834,13.53 5.834,13.53 C4.932,13.505 4.132,13.477 3.426,13.428 L3.146,13.408 L3.017,13.158 C2.943,13.018 2.918,12.838 2.918,12.474 C2.918,12.239 2.951,12.034 3.019,11.849 L3.138,11.518 L3.488,11.518 C4.281,11.518 5.074,11.528 5.874,11.548 C5.886,11.193 5.902,10.836 5.925,10.48 C5.198,10.451 4.499,10.404 3.839,10.341 L3.621,10.319 L3.488,10.144 C3.356,9.97 3.33,9.743 3.33,9.388 C3.33,9.226 3.342,8.982 3.439,8.742 L3.567,8.433 L3.902,8.433 C6.048,8.433 8.324,8.524 10.667,8.705 L11.079,8.736 C11.06,8.554 11.04,8.351 11.021,8.123 C8.66,8.116 6.48,8.051 4.369,7.925 L4.039,7.905 L3.928,7.595 C3.868,7.429 3.842,7.232 3.842,6.956 C3.842,6.812 3.842,6.635 3.882,6.442 L3.964,6.044 C3.964,6.044 5.9,6.055 6.097,6.056 C6.081,5.739 6.074,5.424 6.074,5.107 L6.074,4.651 L6.634,4.6 C6.761,4.589 6.903,4.576 7.063,4.555 L7.162,4.555 C7.39,4.555 7.54,4.567 7.678,4.582 L8.127,4.628 C8.127,4.628 8.138,6.009 8.139,6.096 C9.582,6.127 11.017,6.178 12.438,6.229 L12.869,6.244 L12.917,6.673 C13.033,7.711 13.09,8.669 13.09,9.602 L13.09,9.979 L12.727,10.082 C12.582,10.124 12.402,10.144 12.178,10.144 C12.057,10.144 11.889,10.144 11.675,10.129 L11.294,10.102 L11.219,9.728 C11.188,9.572 11.158,9.389 11.129,9.166 L11.129,9.615 C11.129,9.886 11.086,10.089 11.05,10.211 L10.944,10.57 L10.57,10.57 C9.634,10.57 8.773,10.562 7.989,10.541 C7.982,10.903 7.976,11.259 7.973,11.605 C8.807,11.633 9.63,11.671 10.443,11.719 L10.914,11.746 L10.914,12.616 C10.914,12.906 10.872,13.108 10.837,13.228 L10.815,13.307 C11.155,13.717 11.401,14.304 11.546,15.053 L11.616,15.416 L11.288,15.59 C10.943,15.771 10.615,15.882 10.313,15.915 L10.038,15.945 L9.866,15.729 C9.787,15.629 9.713,15.523 9.647,15.414 C9.642,15.577 9.629,15.708 9.616,15.799 L9.562,16.198 L9.159,16.229 C7.778,16.334 6.292,16.397 4.479,16.43 L4.045,16.437 L3.977,16.008 L3.977,16.008 Z M7.943,13.768 C7.943,13.982 7.937,14.196 7.921,14.42 C8.303,14.408 8.68,14.395 9.068,14.378 L9.236,14.369 C9.202,14.214 9.178,14.053 9.162,13.886 L9.134,13.584 C8.724,13.583 8.328,13.581 7.947,13.577 L7.943,13.768 L7.943,13.768 Z M2.096,10.471 C1.832,10.471 1.501,10.441 1.271,10.209 L1.127,10.062 L1.127,9.857 C1.127,8.292 1.186,7.077 1.302,6.247 L1.356,5.859 L1.746,5.819 C1.903,5.803 2.075,5.788 2.295,5.788 C2.527,5.788 2.747,5.828 2.948,5.908 L3.264,6.033 L3.264,6.373 C3.264,7.434 3.206,8.641 3.092,9.957 L3.064,10.272 L2.769,10.383 C2.561,10.46 2.322,10.471 2.096,10.471 L2.096,10.471 Z" id="Fill-11" fill="#1A1918"></path>
                    <path d="M7.129,5.051 C7.328,5.051 7.484,5.064 7.627,5.079 C7.627,5.591 7.643,6.089 7.643,6.586 C9.248,6.615 10.842,6.672 12.42,6.728 C12.533,7.738 12.59,8.691 12.59,9.602 C12.49,9.63 12.35,9.643 12.178,9.643 C12.064,9.643 11.908,9.643 11.709,9.63 C11.623,9.203 11.553,8.534 11.481,7.624 C9.135,7.624 6.773,7.567 4.399,7.426 C4.358,7.311 4.342,7.155 4.342,6.956 C4.342,6.828 4.342,6.686 4.371,6.544 C5.125,6.544 5.879,6.558 6.633,6.558 C6.59,6.074 6.574,5.591 6.574,5.107 C6.732,5.093 6.916,5.079 7.129,5.051 M2.295,6.288 C2.465,6.288 2.621,6.316 2.764,6.373 C2.764,7.426 2.707,8.605 2.594,9.914 C2.479,9.957 2.322,9.971 2.096,9.971 C1.867,9.971 1.711,9.942 1.627,9.857 C1.627,8.307 1.684,7.127 1.797,6.316 C1.939,6.302 2.096,6.288 2.295,6.288 M3.902,8.933 C6.162,8.933 8.41,9.032 10.629,9.203 L10.629,9.615 C10.629,9.814 10.6,9.971 10.57,10.07 C9.434,10.07 8.41,10.057 7.5,10.027 C7.484,10.739 7.471,11.436 7.471,12.09 C8.467,12.118 9.447,12.161 10.414,12.218 L10.414,12.616 C10.414,12.829 10.387,12.986 10.358,13.085 C9.305,13.085 8.338,13.085 7.457,13.071 C7.457,13.312 7.443,13.54 7.443,13.768 C7.443,14.181 7.414,14.564 7.371,14.934 C7.926,14.92 8.494,14.905 9.092,14.877 C9.121,14.977 9.148,15.104 9.148,15.275 C9.148,15.475 9.135,15.631 9.121,15.73 C7.613,15.845 6.063,15.901 4.471,15.93 C4.428,15.659 4.414,15.375 4.414,15.091 C5.025,15.048 5.664,15.005 6.348,14.977 C6.334,14.607 6.334,14.237 6.334,13.867 L6.334,13.043 C5.238,13.015 4.285,12.986 3.461,12.929 C3.432,12.872 3.418,12.716 3.418,12.474 C3.418,12.332 3.432,12.175 3.488,12.019 C4.441,12.019 5.395,12.033 6.361,12.062 C6.375,11.379 6.404,10.682 6.461,9.999 C5.481,9.971 4.627,9.914 3.887,9.843 C3.844,9.786 3.83,9.63 3.83,9.388 C3.83,9.231 3.844,9.075 3.902,8.933 M10.43,13.626 C10.713,13.967 10.926,14.479 11.055,15.147 C10.785,15.29 10.514,15.39 10.258,15.418 C9.918,14.991 9.719,14.465 9.66,13.839 C9.875,13.754 10.131,13.683 10.43,13.626 M7.129,4.051 L7.063,4.051 L6.997,4.059 C6.846,4.08 6.71,4.092 6.59,4.102 L6.482,4.111 L5.574,4.195 L5.574,5.107 C5.574,5.26 5.576,5.407 5.579,5.552 C5.557,5.551 5.533,5.551 5.511,5.551 C5.131,5.547 4.751,5.544 4.371,5.544 L3.557,5.544 L3.544,5.607 L3.133,5.443 C2.873,5.341 2.591,5.288 2.295,5.288 C2.055,5.288 1.866,5.304 1.694,5.321 L0.915,5.401 L0.807,6.178 C0.686,7.043 0.627,8.246 0.627,9.857 L0.627,10.269 L0.916,10.56 C1.321,10.971 1.884,10.971 2.096,10.971 C2.369,10.971 2.661,10.956 2.943,10.852 L3.297,10.719 L3.354,10.796 L3.791,10.838 C4.305,10.888 4.843,10.928 5.398,10.957 C5.396,10.983 5.395,11.011 5.394,11.037 C4.751,11.024 4.121,11.019 3.488,11.019 L2.787,11.019 L2.548,11.678 C2.461,11.92 2.418,12.18 2.418,12.474 C2.418,12.863 2.443,13.138 2.572,13.389 L2.831,13.887 L3.392,13.926 C3.98,13.968 4.64,13.994 5.334,14.016 L5.334,14.027 C4.995,14.048 4.666,14.07 4.344,14.094 L3.414,14.158 L3.414,15.091 C3.414,15.469 3.437,15.794 3.483,16.087 L3.619,16.945 L4.488,16.93 C6.311,16.897 7.807,16.833 9.196,16.727 L10.002,16.667 L10.032,16.449 L10.368,16.412 C10.733,16.371 11.121,16.243 11.522,16.031 L12.177,15.686 L12.037,14.958 C11.899,14.242 11.671,13.652 11.358,13.198 C11.396,13.021 11.414,12.823 11.414,12.616 L11.414,11.274 L10.473,11.22 C9.813,11.181 9.146,11.148 8.479,11.123 C8.48,11.1 8.48,11.076 8.481,11.053 C9.119,11.064 9.811,11.07 10.57,11.07 L11.318,11.07 L11.452,10.614 L11.641,10.628 C11.869,10.644 12.048,10.644 12.178,10.644 C12.449,10.644 12.674,10.617 12.863,10.563 L13.59,10.357 L13.59,9.602 C13.59,8.65 13.532,7.674 13.414,6.617 L13.317,5.76 L12.456,5.729 C11.27,5.687 9.956,5.64 8.631,5.607 C8.629,5.433 8.627,5.257 8.627,5.079 L8.627,4.177 L7.73,4.084 C7.558,4.066 7.369,4.051 7.129,4.051" id="Fill-12" fill="#FFFFFF"></path>
                    <path d="M18.189,12.569 C18.148,12.304 18.127,12.004 18.127,11.652 L18.127,11.186 L18.592,11.153 C19.059,11.121 19.543,11.088 20.05,11.061 C20.047,10.851 20.047,10.092 20.047,10.092 C19.146,10.066 18.347,10.038 17.639,9.989 L17.35,9.969 L17.224,9.708 C17.168,9.593 17.131,9.434 17.131,9.035 C17.131,8.804 17.164,8.6 17.233,8.41 L17.353,8.08 L17.703,8.08 C18.496,8.08 19.289,8.09 20.089,8.109 C20.101,7.755 20.117,7.397 20.14,7.042 C19.412,7.013 18.712,6.966 18.054,6.902 L17.836,6.881 L17.703,6.706 C17.57,6.531 17.545,6.305 17.545,5.949 C17.545,5.789 17.556,5.548 17.65,5.31 L17.775,4.994 L18.115,4.994 C20.261,4.994 22.537,5.086 24.88,5.267 L25.293,5.298 C25.273,5.112 25.254,4.909 25.234,4.685 C22.874,4.678 20.694,4.612 18.584,4.486 L18.26,4.467 L18.146,4.163 C18.083,3.998 18.057,3.805 18.057,3.517 C18.057,3.36 18.06,3.185 18.093,3.011 L18.171,2.605 C18.171,2.605 20.113,2.616 20.311,2.617 C20.295,2.301 20.289,1.985 20.289,1.669 L20.289,1.214 L20.856,1.161 C20.981,1.149 21.121,1.138 21.277,1.116 L21.377,1.116 C21.605,1.116 21.755,1.129 21.893,1.144 L22.342,1.189 C22.342,1.19 22.351,2.571 22.352,2.657 C23.797,2.688 25.23,2.739 26.652,2.79 L27.084,2.806 L27.132,3.234 C27.248,4.272 27.305,5.23 27.305,6.163 L27.305,6.541 L26.941,6.643 C26.797,6.686 26.617,6.705 26.393,6.705 C26.269,6.705 26.102,6.705 25.888,6.69 L25.505,6.664 L25.432,6.288 C25.4,6.131 25.371,5.942 25.342,5.719 L25.342,6.177 C25.342,6.453 25.3,6.653 25.265,6.772 L25.159,7.132 L24.785,7.132 C23.847,7.132 22.986,7.123 22.203,7.103 C22.196,7.472 22.191,7.825 22.188,8.167 C23.021,8.194 23.845,8.232 24.658,8.28 L25.129,8.308 L25.129,9.178 C25.129,9.452 25.088,9.657 25.054,9.78 L25.029,9.87 C25.37,10.279 25.616,10.866 25.761,11.614 L25.831,11.978 L25.502,12.151 C25.149,12.337 24.831,12.442 24.527,12.476 L24.254,12.507 L24.082,12.292 C24.002,12.191 23.929,12.087 23.861,11.977 C23.856,12.144 23.843,12.277 23.828,12.369 L23.767,12.761 L23.372,12.791 C21.991,12.895 20.504,12.959 18.692,12.991 L18.258,12.999 L18.189,12.569 L18.189,12.569 Z M22.156,10.329 C22.156,10.544 22.149,10.761 22.135,10.981 C22.518,10.97 22.894,10.957 23.283,10.939 L23.45,10.931 C23.417,10.774 23.393,10.613 23.377,10.445 L23.35,10.146 C22.939,10.144 22.542,10.143 22.16,10.139 L22.156,10.329 L22.156,10.329 Z M16.309,7.032 C16.048,7.032 15.72,7.003 15.488,6.774 L15.34,6.628 L15.34,6.419 C15.34,4.852 15.398,3.639 15.515,2.809 L15.568,2.421 L15.959,2.381 C16.116,2.364 16.288,2.35 16.508,2.35 C16.742,2.35 16.962,2.39 17.163,2.47 L17.479,2.595 L17.479,2.934 C17.479,3.981 17.42,5.186 17.305,6.519 L17.277,6.832 L16.984,6.943 C16.777,7.021 16.537,7.032 16.309,7.032 L16.309,7.032 Z" id="Fill-13" fill="#1A1918"></path>
                    <path d="M21.344,1.612 C21.543,1.612 21.699,1.626 21.842,1.641 C21.842,2.152 21.855,2.65 21.855,3.147 C23.463,3.177 25.055,3.233 26.635,3.29 C26.748,4.3 26.805,5.253 26.805,6.163 C26.705,6.191 26.563,6.205 26.393,6.205 C26.277,6.205 26.121,6.205 25.922,6.191 C25.838,5.765 25.766,5.096 25.695,4.185 C23.35,4.185 20.988,4.129 18.613,3.987 C18.57,3.873 18.557,3.717 18.557,3.517 C18.557,3.39 18.557,3.247 18.584,3.105 C19.338,3.105 20.092,3.119 20.846,3.119 C20.803,2.636 20.789,2.152 20.789,1.669 C20.945,1.654 21.131,1.641 21.344,1.612 M16.508,2.85 C16.68,2.85 16.836,2.878 16.979,2.934 C16.979,3.987 16.92,5.167 16.807,6.476 C16.693,6.519 16.537,6.532 16.309,6.532 C16.082,6.532 15.926,6.504 15.84,6.419 C15.84,4.868 15.896,3.688 16.01,2.878 C16.152,2.863 16.309,2.85 16.508,2.85 M18.115,5.494 C20.377,5.494 22.623,5.594 24.842,5.765 L24.842,6.177 C24.842,6.376 24.814,6.532 24.785,6.632 C23.647,6.632 22.623,6.618 21.713,6.589 C21.699,7.301 21.686,7.997 21.686,8.651 C22.68,8.68 23.662,8.723 24.629,8.779 L24.629,9.178 C24.629,9.391 24.6,9.548 24.572,9.646 C23.52,9.646 22.553,9.646 21.67,9.633 C21.67,9.874 21.656,10.102 21.656,10.329 C21.656,10.742 21.629,11.126 21.586,11.496 C22.141,11.481 22.709,11.467 23.307,11.438 C23.334,11.538 23.363,11.666 23.363,11.837 C23.363,12.036 23.35,12.192 23.334,12.292 C21.826,12.406 20.277,12.463 18.684,12.491 C18.641,12.221 18.627,11.936 18.627,11.652 C19.238,11.609 19.879,11.566 20.561,11.538 C20.547,11.169 20.547,10.799 20.547,10.429 L20.547,9.604 C19.451,9.576 18.5,9.548 17.674,9.49 C17.647,9.434 17.631,9.277 17.631,9.035 C17.631,8.893 17.647,8.736 17.703,8.58 C18.656,8.58 19.609,8.595 20.576,8.623 C20.59,7.94 20.619,7.243 20.676,6.561 C19.693,6.532 18.84,6.476 18.102,6.404 C18.059,6.348 18.045,6.191 18.045,5.949 C18.045,5.793 18.059,5.637 18.115,5.494 M24.643,10.187 C24.928,10.528 25.141,11.041 25.27,11.709 C24.998,11.852 24.729,11.951 24.473,11.979 C24.131,11.553 23.932,11.026 23.875,10.4 C24.088,10.315 24.344,10.244 24.643,10.187 M21.344,0.612 L21.277,0.612 L21.212,0.621 C21.064,0.641 20.93,0.652 20.812,0.663 L20.695,0.674 L19.789,0.758 L19.789,1.669 C19.789,1.823 19.79,1.971 19.793,2.113 C19.77,2.113 19.747,2.112 19.724,2.112 C19.344,2.109 18.964,2.105 18.584,2.105 L17.759,2.105 L17.747,2.164 L17.348,2.005 C17.088,1.902 16.805,1.85 16.508,1.85 C16.268,1.85 16.079,1.865 15.907,1.883 L15.128,1.963 L15.02,2.739 C14.899,3.604 14.84,4.808 14.84,6.419 L14.84,6.837 L15.137,7.13 C15.544,7.532 16.1,7.532 16.309,7.532 C16.585,7.532 16.879,7.518 17.161,7.41 L17.51,7.278 L17.569,7.357 L18.006,7.399 C18.519,7.449 19.057,7.489 19.612,7.519 C19.611,7.545 19.609,7.572 19.608,7.599 C18.966,7.586 18.336,7.58 17.703,7.58 L17.002,7.58 L16.763,8.239 C16.674,8.484 16.631,8.745 16.631,9.035 C16.631,9.463 16.671,9.713 16.774,9.925 L17.025,10.447 L17.604,10.488 C18.194,10.529 18.854,10.556 19.547,10.577 L19.547,10.589 C19.208,10.609 18.878,10.632 18.557,10.654 L17.627,10.721 L17.627,11.652 C17.627,12.03 17.649,12.355 17.696,12.648 L17.832,13.507 L18.701,13.491 C20.522,13.459 22.019,13.395 23.409,13.289 L24.199,13.229 L24.233,13.012 L24.583,12.974 C24.949,12.933 25.326,12.809 25.734,12.595 L26.393,12.249 L26.252,11.52 C26.113,10.804 25.886,10.214 25.572,9.761 C25.61,9.579 25.629,9.384 25.629,9.178 L25.629,7.836 L24.688,7.781 C24.028,7.742 23.361,7.71 22.693,7.685 C22.693,7.661 22.694,7.638 22.694,7.614 C23.334,7.626 24.025,7.632 24.785,7.632 L25.533,7.632 L25.667,7.176 L25.854,7.189 C26.082,7.205 26.261,7.205 26.393,7.205 C26.664,7.205 26.889,7.179 27.078,7.125 L27.805,6.918 L27.805,6.163 C27.805,5.211 27.747,4.235 27.629,3.179 L27.532,2.321 L26.671,2.291 C25.427,2.246 24.148,2.2 22.846,2.168 C22.844,1.994 22.842,1.818 22.842,1.641 L22.842,0.738 L21.944,0.645 C21.773,0.628 21.584,0.612 21.344,0.612" id="Fill-14" fill="#FFFFFF"></path>
                    <path d="M34.805,17.077 C33.823,17.077 33.084,17.003 32.608,16.855 L32.345,16.774 L32.273,16.508 C32.176,16.146 32.129,15.788 32.129,15.411 C32.129,14.921 32.181,14.423 32.282,13.931 L32.292,13.881 C31.976,13.87 30.979,13.835 30.979,13.835 L30.881,13.481 C30.83,13.296 30.807,13.114 30.807,12.908 C30.807,12.764 30.807,12.6 30.845,12.42 L30.93,12.024 C30.93,12.024 32.46,12.033 32.56,12.034 C32.557,11.977 32.555,11.851 32.555,11.851 C32.143,11.786 31.932,11.705 31.787,11.624 L31.572,11.504 L31.536,11.261 C31.476,10.844 31.445,10.48 31.445,10.149 C31.445,9.775 31.445,9.315 31.461,8.783 L31.473,8.385 C31.473,8.385 32.005,8.279 32.068,8.269 L32.014,8.143 C31.927,7.942 31.916,7.727 31.916,7.56 C31.916,7.395 31.916,7.237 31.961,7.072 L32.054,6.737 C31.564,6.723 31.179,6.698 30.892,6.663 L30.591,6.627 L30.483,6.345 C30.422,6.182 30.395,5.995 30.395,5.74 C30.395,5.579 30.395,5.412 30.436,5.24 L30.527,4.856 L34.104,4.843 C34.125,4.692 34.151,4.535 34.186,4.363 L34.251,4.035 L34.578,3.971 C34.761,3.935 34.932,3.903 35.117,3.903 C35.32,3.903 35.493,3.937 35.652,3.973 L36.013,4.052 C36.013,4.052 36.073,4.828 36.075,4.847 C37.501,4.859 38.585,4.872 39.308,4.885 L39.743,4.893 L39.795,5.325 C39.812,5.46 39.826,5.592 39.826,5.74 L39.826,6.563 L39.408,6.632 C39.172,6.671 38.62,6.702 37.761,6.723 C37.843,6.727 38.383,6.757 38.383,6.757 L38.453,7.144 C38.473,7.253 38.49,7.397 38.49,7.56 L38.49,8.291 C38.49,8.291 38.142,8.407 38.139,8.408 C38.211,8.422 38.689,8.524 38.689,8.524 L38.74,8.864 C38.801,9.261 38.832,9.717 38.832,10.22 C38.832,10.773 38.784,11.174 38.687,11.443 L38.599,11.687 L38.388,11.744 C38.388,11.744 38.326,12.088 38.319,12.124 C38.787,12.135 39.222,12.147 39.662,12.166 L40.141,12.188 L40.141,13.05 C40.141,13.266 40.101,13.471 40.02,13.676 L39.895,13.991 C39.895,13.991 38.897,13.99 38.571,13.989 C38.629,14.177 38.689,14.532 38.689,15.34 C38.689,16.19 38.604,16.497 38.538,16.654 L38.431,16.913 L38.153,16.957 C37.645,17.037 36.518,17.077 34.805,17.077 L34.805,17.077 Z M34.039,15.162 C34.447,15.179 34.874,15.193 35.318,15.203 C35.011,15.167 34.705,15.126 34.404,15.08 L34.039,15.025 L34.039,15.162 L34.039,15.162 Z M36.277,12.074 C36.29,12.033 36.303,11.993 36.316,11.954 C35.903,11.966 35.431,11.972 34.891,11.972 C34.774,11.972 34.663,11.971 34.556,11.971 C34.566,11.995 34.575,12.019 34.584,12.044 L36.277,12.074 L36.277,12.074 Z M33.37,10.091 C33.764,10.119 34.263,10.133 34.861,10.133 L34.946,10.133 C35.808,10.133 36.48,10.133 36.955,10.127 C36.955,10.109 36.956,10.092 36.956,10.074 C36.393,10.025 35.342,9.946 33.677,9.838 L33.354,9.816 C33.36,9.914 33.366,10.005 33.37,10.091 L33.37,10.091 Z" id="Fill-15" fill="#1A1918"></path>
                    <path d="M35.117,4.403 C35.273,4.403 35.416,4.433 35.545,4.461 C35.572,4.788 35.586,5.086 35.615,5.343 C37.266,5.356 38.502,5.371 39.299,5.385 C39.313,5.499 39.326,5.612 39.326,5.74 L39.326,6.139 C38.986,6.195 37.762,6.238 35.629,6.253 C35.615,6.622 35.602,6.935 35.586,7.177 C36.668,7.191 37.465,7.205 37.961,7.233 C37.977,7.319 37.99,7.433 37.99,7.56 L37.99,7.931 C37.734,8.016 36.639,8.044 34.691,8.044 C33.666,8.044 32.928,8.016 32.473,7.944 C32.43,7.845 32.416,7.717 32.416,7.56 C32.416,7.419 32.416,7.305 32.443,7.205 C33.027,7.191 33.752,7.177 34.619,7.177 C34.563,6.892 34.535,6.594 34.535,6.253 L33.311,6.253 C32.203,6.253 31.42,6.224 30.951,6.167 C30.908,6.054 30.895,5.911 30.895,5.74 C30.895,5.599 30.895,5.471 30.922,5.356 C31.563,5.356 32.373,5.343 33.34,5.343 L34.563,5.343 C34.576,5.029 34.619,4.745 34.676,4.461 C34.818,4.433 34.961,4.403 35.117,4.403 M33.709,8.585 C35.672,8.585 37.193,8.713 38.246,8.94 C38.303,9.309 38.332,9.736 38.332,10.22 C38.332,10.732 38.289,11.073 38.217,11.272 C37.691,11.415 36.582,11.472 34.891,11.472 C33.34,11.472 32.387,11.387 32.031,11.187 C31.975,10.804 31.945,10.462 31.945,10.149 C31.945,9.779 31.945,9.324 31.961,8.798 C32.104,8.769 32.231,8.741 32.373,8.741 C32.543,8.741 32.672,8.755 32.756,8.769 C32.842,9.58 32.885,10.178 32.885,10.547 C33.34,10.604 34.008,10.633 34.861,10.633 C36.113,10.633 36.981,10.633 37.436,10.618 C37.449,10.277 37.465,9.95 37.465,9.623 C37.137,9.58 35.885,9.48 33.709,9.339 C33.682,9.225 33.682,9.082 33.682,8.94 C33.682,8.826 33.682,8.698 33.709,8.585 M36.924,11.77 C37.209,11.799 37.522,11.842 37.848,11.927 C37.805,12.169 37.748,12.396 37.691,12.609 C38.346,12.624 38.986,12.638 39.641,12.666 L39.641,13.05 C39.641,13.207 39.611,13.349 39.555,13.491 C36.824,13.491 34.094,13.448 31.363,13.349 C31.32,13.192 31.307,13.05 31.307,12.908 C31.307,12.78 31.307,12.652 31.334,12.524 C31.945,12.524 32.559,12.538 33.154,12.538 C33.084,12.325 33.055,12.098 33.055,11.855 C33.34,11.813 33.639,11.784 33.924,11.784 C34.065,12.069 34.164,12.325 34.221,12.538 C35.047,12.553 35.858,12.566 36.654,12.581 C36.725,12.297 36.811,12.026 36.924,11.77 M34.535,13.875 C35.586,13.875 36.768,13.946 38.076,14.088 C38.147,14.259 38.19,14.685 38.19,15.34 C38.19,15.923 38.147,16.293 38.076,16.463 C37.621,16.534 36.539,16.577 34.805,16.577 C33.852,16.577 33.17,16.506 32.756,16.378 C32.672,16.065 32.629,15.752 32.629,15.411 C32.629,14.984 32.672,14.515 32.771,14.031 C32.885,14.003 33.014,13.975 33.154,13.975 C33.297,13.975 33.426,14.003 33.539,14.031 L33.539,15.639 C34.635,15.695 35.858,15.724 37.223,15.724 C37.236,15.425 37.25,15.141 37.25,14.87 C36.256,14.813 35.33,14.714 34.479,14.586 L34.479,14.216 C34.479,14.102 34.492,13.989 34.535,13.875 M35.117,3.403 C34.867,3.403 34.66,3.444 34.493,3.478 L33.838,3.607 L33.695,4.266 C33.69,4.291 33.685,4.317 33.68,4.343 L33.34,4.343 C32.804,4.343 32.316,4.347 31.877,4.351 C31.525,4.354 31.207,4.356 30.922,4.356 L30.133,4.356 L29.949,5.124 C29.895,5.353 29.895,5.559 29.895,5.74 C29.895,5.955 29.908,6.237 30.016,6.521 L30.231,7.087 L30.831,7.16 C30.999,7.18 31.198,7.197 31.429,7.211 C31.416,7.336 31.416,7.452 31.416,7.56 C31.416,7.656 31.419,7.767 31.434,7.884 L31.024,7.966 L30.961,8.769 C30.945,9.307 30.945,9.771 30.945,10.149 C30.945,10.506 30.977,10.893 31.042,11.334 L31.07,11.524 L30.525,11.524 L30.356,12.315 C30.307,12.547 30.307,12.756 30.307,12.908 C30.307,13.157 30.337,13.388 30.399,13.613 L30.594,14.321 L31.327,14.348 C31.451,14.353 31.576,14.357 31.701,14.361 C31.653,14.712 31.629,15.063 31.629,15.411 C31.629,15.833 31.682,16.233 31.79,16.638 L31.934,17.17 L32.461,17.333 C32.991,17.497 33.758,17.577 34.805,17.577 C36.543,17.577 37.696,17.535 38.231,17.451 L38.785,17.364 L39,16.846 C39.088,16.633 39.189,16.269 39.189,15.34 C39.189,14.987 39.178,14.711 39.159,14.491 L39.555,14.491 L40.233,14.491 L40.484,13.86 C40.59,13.596 40.641,13.33 40.641,13.05 L40.641,11.708 L39.684,11.667 C39.504,11.659 39.324,11.652 39.145,11.646 L39.157,11.613 C39.276,11.284 39.332,10.841 39.332,10.22 C39.332,9.691 39.299,9.211 39.234,8.789 L39.13,8.108 L38.99,8.078 L38.99,7.56 C38.99,7.432 38.981,7.304 38.964,7.177 C39.307,7.155 39.426,7.136 39.49,7.125 L40.326,6.986 L40.326,5.74 C40.326,5.57 40.311,5.42 40.292,5.269 L40.189,4.402 L39.316,4.385 C38.672,4.374 37.742,4.362 36.539,4.351 L36.48,3.643 L35.76,3.484 C35.581,3.445 35.37,3.403 35.117,3.403" id="Fill-16" fill="#FFFFFF"></path>
                    <path d="M50.269,12.286 C49.806,12.205 49.419,12.05 49.117,11.826 L48.787,11.58 L48.966,11.208 C49.138,10.849 49.312,10.495 49.486,10.146 L49.445,10.146 C48.885,10.146 48.225,10.026 47.478,9.787 C47.261,10.303 47.033,10.843 46.787,11.399 L46.631,11.753 L46.25,11.69 C45.79,11.616 45.436,11.459 45.166,11.209 L44.931,10.99 C44.931,10.99 45.437,9.446 45.57,9.042 C45.217,8.884 44.849,8.71 44.467,8.513 L44.163,8.356 L44.198,8.017 C44.231,7.694 44.312,7.386 44.437,7.101 L44.606,6.711 L45.019,6.816 C45.423,6.92 45.827,7.023 46.227,7.138 C46.399,6.63 46.578,6.117 46.757,5.604 C46.399,5.61 46.049,5.61 45.705,5.61 C44.833,5.61 44.664,5.608 44.509,5.546 L44.278,5.453 L44.213,5.215 C44.134,4.927 44.096,4.613 44.096,4.257 L44.096,3.827 L44.521,3.763 C44.969,3.694 45.515,3.647 46.237,3.616 C47.475,3.646 48.297,3.675 48.946,3.73 L49.428,3.771 L49.403,4.253 C49.374,4.847 49.011,6.016 48.295,7.819 C48.811,8.012 49.326,8.214 49.841,8.434 L50.184,8.58 L50.152,8.852 C50.444,8.299 50.738,7.765 51.03,7.252 L51.211,6.936 L51.567,7.01 C51.983,7.097 52.351,7.239 52.656,7.434 L52.743,7.488 C52.743,7.488 53.151,6.555 53.206,6.431 C52.62,6.351 52.035,6.259 51.457,6.155 C51.204,6.691 51.01,7.051 50.827,7.322 L50.679,7.544 L50.412,7.544 C49.926,7.544 49.524,7.438 49.22,7.23 L48.922,7.026 L49.022,6.68 C49.451,5.181 50.005,3.905 50.714,2.781 L50.882,2.515 L51.194,2.551 C51.644,2.603 52.012,2.711 52.318,2.881 L52.697,3.091 C52.697,3.091 52.292,4.166 52.24,4.301 C52.392,4.319 52.946,4.387 52.946,4.387 C54.005,4.545 54.809,4.691 55.351,4.824 L55.802,4.934 L55.726,5.392 C55.614,6.059 55.301,6.879 54.766,7.901 L54.611,8.195 L54.28,8.168 C53.915,8.138 53.538,8.036 53.129,7.859 L52.964,7.787 L52.847,8.056 C52.635,8.54 52.431,8.981 52.238,9.386 C52.987,9.671 53.719,9.968 54.42,10.267 L54.867,10.46 L54.688,10.912 C54.618,11.086 54.534,11.226 54.446,11.365 C54.382,11.5 54.272,11.666 54.143,11.811 L53.946,12.035 L53.657,11.969 C52.852,11.786 52.067,11.525 51.32,11.193 C51.105,11.574 50.927,11.857 50.761,12.088 L50.576,12.341 L50.269,12.286" id="Fill-17" fill="#1A1918"></path>
                    <path d="M51.137,3.048 C51.508,3.091 51.82,3.177 52.076,3.318 C51.877,3.845 51.707,4.313 51.535,4.727 C51.963,4.768 52.418,4.826 52.887,4.883 C53.926,5.039 54.707,5.182 55.232,5.31 C55.133,5.907 54.836,6.688 54.322,7.67 C53.982,7.642 53.654,7.542 53.328,7.4 C53.541,6.916 53.74,6.447 53.94,6.021 C53,5.907 52.076,5.765 51.166,5.594 C50.881,6.22 50.641,6.703 50.412,7.044 C50.043,7.044 49.731,6.974 49.502,6.817 C49.914,5.381 50.455,4.129 51.137,3.048 M46.26,4.115 C47.355,4.144 48.236,4.172 48.904,4.228 C48.877,4.783 48.465,6.077 47.639,8.111 C48.307,8.353 48.977,8.608 49.645,8.893 C49.615,9.149 49.559,9.405 49.445,9.646 C48.848,9.646 48.094,9.49 47.197,9.163 C46.928,9.804 46.645,10.486 46.33,11.197 C45.975,11.14 45.705,11.026 45.506,10.842 C45.734,10.144 45.961,9.448 46.189,8.766 C45.719,8.566 45.221,8.339 44.695,8.068 C44.725,7.784 44.795,7.528 44.895,7.301 C45.449,7.442 46.004,7.585 46.545,7.756 C46.842,6.874 47.156,5.977 47.469,5.082 C46.857,5.11 46.273,5.11 45.705,5.11 C45.107,5.11 44.766,5.11 44.695,5.082 C44.625,4.826 44.596,4.556 44.596,4.257 C45.064,4.185 45.619,4.144 46.26,4.115 M51.465,7.499 C51.807,7.57 52.119,7.685 52.389,7.855 C52.09,8.538 51.807,9.135 51.551,9.661 C52.432,9.988 53.328,10.344 54.223,10.727 C54.166,10.87 54.096,10.983 54.023,11.098 C53.953,11.239 53.867,11.368 53.768,11.481 C52.83,11.269 51.947,10.955 51.109,10.543 C50.824,11.069 50.582,11.481 50.355,11.794 C49.957,11.724 49.645,11.595 49.416,11.425 C50.086,10.031 50.768,8.723 51.465,7.499 M50.627,1.982 L50.291,2.515 C50.13,2.769 49.977,3.032 49.831,3.304 L48.988,3.232 C48.327,3.176 47.496,3.146 46.285,3.115 L46.251,3.114 L46.216,3.116 C45.475,3.149 44.912,3.197 44.445,3.268 L43.596,3.397 L43.596,4.257 C43.596,4.659 43.64,5.016 43.731,5.347 L43.862,5.824 L44.321,6.01 C44.572,6.11 44.767,6.11 45.705,6.11 L46.052,6.11 C46.003,6.25 45.954,6.391 45.906,6.53 C45.642,6.459 45.385,6.394 45.142,6.332 L44.319,6.122 L43.979,6.899 C43.833,7.232 43.739,7.592 43.7,7.966 L43.631,8.644 L44.237,8.957 C44.473,9.079 44.711,9.196 44.955,9.311 C44.868,9.576 44.781,9.843 44.693,10.109 L44.556,10.53 L44.355,11.14 L44.826,11.575 C45.171,11.895 45.61,12.094 46.17,12.185 L46.933,12.308 L47.244,11.602 C47.428,11.188 47.6,10.785 47.765,10.393 C48.097,10.483 48.411,10.549 48.709,10.592 C48.644,10.725 48.579,10.857 48.515,10.991 L48.157,11.735 L48.819,12.227 C49.184,12.498 49.642,12.684 50.182,12.778 L50.798,12.888 L51.165,12.381 C51.28,12.223 51.399,12.041 51.53,11.826 C52.181,12.089 52.856,12.3 53.546,12.457 L54.126,12.588 L54.519,12.142 C54.663,11.977 54.789,11.793 54.894,11.593 C54.968,11.475 55.068,11.307 55.152,11.097 L55.512,10.192 L54.617,9.809 C54.067,9.572 53.499,9.34 52.919,9.112 C53.017,8.901 53.119,8.675 53.226,8.436 C53.576,8.563 53.909,8.639 54.239,8.666 L54.9,8.722 L55.208,8.134 C55.769,7.063 56.099,6.193 56.219,5.474 L56.371,4.558 L55.469,4.338 C54.912,4.202 54.094,4.053 53.035,3.894 L52.933,3.881 L53.318,2.862 L52.561,2.443 C52.195,2.241 51.768,2.114 51.252,2.055 L50.627,1.982" id="Fill-18" fill="#FFFFFF"></path>
                </g>
            </g>
        </g>
    </g>
</svg>