<?xml version="1.0" encoding="utf-8"?>
<!-- Generator: Adobe Illustrator 16.0.0, SVG Export Plug-In . SVG Version: 6.00 Build 0)  -->
<!DOCTYPE svg PUBLIC "-//W3C//DTD SVG 1.1//EN" "http://www.w3.org/Graphics/SVG/1.1/DTD/svg11.dtd">
<svg version="1.1" id="Layer_1" xmlns="http://www.w3.org/2000/svg" xmlns:xlink="http://www.w3.org/1999/xlink" x="0px" y="0px"
	 width="126.875px" height="112.438px" viewBox="0 0 126.875 112.438" enable-background="new 0 0 126.875 112.438"
	 xml:space="preserve">
<rect fill="#FFFFFF" width="126.875" height="112.438"/>
<g>
	<path d="M35.509,54.738l-0.076-0.025c-0.254-0.084-0.679-0.343-0.679-1.13v-0.291l0.253-0.144c0.187-0.106,0.562-0.258,1.592-0.505
		c-0.202-0.216-0.31-0.491-0.31-0.804c0-0.181,0-0.572,0.136-0.873l-0.183-0.461c0,0,0.117-0.237,0.124-0.252l-0.099-0.213
		l0.03-0.159c0.026-0.133,0.062-0.312,0.128-0.479l-0.033-0.067v-0.118c0-0.32,0.035-0.718,0.108-1.213
		c-0.008-0.092-0.016-0.182-0.023-0.271c-0.17,0.531-0.342,1.143-0.516,1.83l-0.095,0.378h-0.668l-0.97-0.214
		c-0.049,0.925-0.115,1.721-0.198,2.383c0.137,0.38,0.195,0.628,0.195,0.817v0.095l-0.035,0.089
		c-0.247,0.625-0.55,1.002-0.928,1.152l-0.188,0.074l-0.188-0.077c-0.321-0.132-0.759-0.359-0.851-0.799l-0.014-0.066l0.004-0.066
		c0.069-1.146,0.13-1.859,0.224-2.3h-0.176l0.388-3.228c-0.059-0.517-0.094-0.982-0.104-1.39c-0.729,1.067-1.401,2.162-2.008,3.27
		l-0.143,0.26h-1.348v-0.493c0,0-0.016-0.038-0.052-0.106l-0.138-0.256l0.154-0.246c3.111-4.954,4.062-6.85,4.297-7.559v-0.864
		l0.693-0.43h1.11l0.175,1.195l0.005,0.176c0,0.344-0.122,0.78-0.375,1.333c0.468-0.167,1.176-0.319,2.236-0.475
		c0.87-2.302,1.661-3.333,2.548-3.333h0.056l0.054,0.012c0.374,0.084,0.606,0.36,0.606,0.721v0.375l-0.102,0.134
		c-0.388,0.513-0.719,1.092-0.988,1.729c0.952-0.375,1.847-0.564,2.668-0.564h0.494l0.309,1.221l-0.378,0.174
		c-1.038,0.479-2.297,0.881-3.744,1.195c-0.072,0.079-0.169,0.174-0.297,0.293c2.122-0.46,3.53-0.691,4.272-0.691h0.278l0.146,0.236
		c0.267,0.431,0.402,0.998,0.402,1.687c0,0.092-0.019,0.189-0.058,0.303l0.076,0.141l-0.023,0.163
		c-0.214,1.479-0.322,2.704-0.322,3.639l0.253,2.005c0.131-0.056,0.308-0.138,0.546-0.26l0.207-0.105l0.214,0.09
		c0.312,0.131,0.739,0.353,0.844,0.771l0.015,0.06v0.524l-0.061,0.111c-0.226,0.415-0.731,0.909-1.862,0.909l-1.283-0.1
		c-5.652,1.083-6.085,1.083-6.248,1.083H35.509z M38.507,51.892c0,0-0.121,0.294-0.156,0.372c0.717-0.145,1.588-0.31,2.649-0.499
		l-0.023-0.127c0,0,0.052-0.407,0.066-0.558c-0.749,0.253-1.59,0.381-2.511,0.381h-0.102C38.444,51.551,38.507,51.892,38.507,51.892
		z M34.339,44.853c0,1.584-0.025,2.982-0.076,4.19c0.363-1.494,0.9-3.038,1.602-4.603c-0.304,0.027-0.584,0.041-0.826,0.041h-0.699
		V44.853z M38.376,48.054c2.176-0.489,2.773-0.803,2.934-0.921v-0.004c-0.508,0.231-1.386,0.425-2.934,0.578V48.054z M41.373,45.37
		c-0.366,0.029-0.756,0.094-1.169,0.192c0.823-0.104,1.064-0.123,1.164-0.123C41.369,45.417,41.371,45.394,41.373,45.37z"/>
	<path fill="#FFFFFF" d="M39.516,39.384c0.144,0.032,0.216,0.109,0.216,0.232v0.207c-0.613,0.811-1.085,1.76-1.415,2.847h0.216
		c1.199-0.586,2.292-0.88,3.277-0.88h0.104l0.111,0.44c-1.05,0.484-2.323,0.885-3.821,1.199c0,0.042-0.219,0.261-0.655,0.655v0.336
		c0,0.213,0.146,0.319,0.439,0.319c2.255-0.506,3.747-0.759,4.478-0.759c0.218,0.352,0.327,0.826,0.327,1.423
		c0,0.069-0.037,0.179-0.111,0.328l0.111,0.207c-0.219,1.515-0.327,2.751-0.327,3.71l0.327,2.622h0.104
		c0.165,0,0.53-0.144,1.095-0.432c0.331,0.139,0.515,0.283,0.552,0.432v0.336c-0.234,0.432-0.709,0.647-1.423,0.647l-1.312-0.104
		c-3.778,0.725-5.852,1.087-6.22,1.087c-0.224-0.074-0.336-0.293-0.336-0.655c0.507-0.288,2.617-0.76,6.332-1.415l-0.104-0.544
		c0.069-0.517,0.104-0.954,0.104-1.311c-0.858,0.432-1.876,0.647-3.054,0.647l-0.112-0.216v-0.328c0-0.309,1.056-0.527,3.166-0.655
		v-1.088c-1.823,0.363-3.06,0.688-3.71,0.976v1.207c0,0.262,0.037,0.589,0.112,0.983c-0.176,0.432-0.322,0.647-0.439,0.647h-0.328
		c-0.288-0.144-0.432-0.359-0.432-0.647c0-0.512,0.072-0.768,0.216-0.768l-0.216-0.543c0.069-0.139,0.104-0.248,0.104-0.328
		l-0.104-0.224c0.069-0.357,0.141-0.536,0.216-0.536l-0.112-0.224c0-0.304,0.037-0.703,0.112-1.199
		c-0.075-0.8-0.112-1.492-0.112-2.079l-0.207-0.104c-0.395,0.772-0.797,1.975-1.208,3.605h-0.224l-0.544-0.12
		c0.416-1.77,1.074-3.589,1.976-5.46h-0.12c-0.618,0.08-1.128,0.12-1.527,0.12h-0.655v-0.44c0-0.309,0.983-0.6,2.95-0.871
		C38.132,40.479,38.859,39.384,39.516,39.384 M41.914,44.853H41.81c-1.108,0-2.42,0.328-3.934,0.983v0.544l0.225-0.112h0.543
		c1.647-0.219,2.556-0.328,2.727-0.328l0.112,0.216v0.225c-0.203,0.389-1.405,0.68-3.606,0.871v1.423
		c2.623-0.554,3.934-1.028,3.934-1.423v-0.544C41.81,46.323,41.845,45.705,41.914,44.853 M34.494,40.487l0.112,0.768v0.104
		c0,0.491-0.362,1.325-1.087,2.503c0.213,0,0.319,0.074,0.319,0.224v0.768c0,3.262-0.106,5.7-0.319,7.315
		c0.138,0.368,0.207,0.621,0.207,0.76c-0.191,0.484-0.407,0.775-0.647,0.871c-0.336-0.139-0.52-0.285-0.552-0.439
		c0.102-1.668,0.211-2.503,0.328-2.503c-0.074-0.218-0.146-0.327-0.216-0.327l0.328-2.727c-0.075-0.64-0.112-1.188-0.112-1.647
		v-1.087l0.112-0.216h-0.112c-1.098,1.481-2.079,3.012-2.942,4.589h-0.552c0-0.085-0.037-0.197-0.111-0.336
		c2.617-4.168,4.074-6.75,4.373-7.747v-0.663l0.336-0.208H34.494 M39.626,38.384h-0.11c-1.097,0-1.981,1.019-2.909,3.381
		c-0.397,0.061-0.756,0.124-1.078,0.192c0.053-0.218,0.078-0.416,0.078-0.599v-0.104v-0.072l-0.011-0.072l-0.112-0.768l-0.125-0.855
		h-0.864h-0.535h-0.284l-0.242,0.15l-0.336,0.207l-0.474,0.294v0.557v0.503c-0.261,0.729-1.229,2.612-4.22,7.375l-0.309,0.492
		l0.267,0.499v0.877h1h0.552h0.593l0.284-0.52c0.361-0.659,0.745-1.313,1.151-1.96l-0.295,2.448l-0.134,1.119h0.155
		c-0.061,0.484-0.097,1.074-0.139,1.77l-0.009,0.134l0.028,0.131c0.156,0.75,0.903,1.059,1.148,1.16l0.375,0.154l0.377-0.15
		c0.326-0.13,0.604-0.367,0.842-0.719c0.15,0.811,0.719,1.091,0.983,1.179l0.154,0.051h0.161c0.208,0,0.641,0,6.275-1.079
		l1.177,0.093l0.04,0.003h0.039c1.377,0,2.012-0.637,2.302-1.17l0.121-0.224v-0.254v-0.336v-0.123l-0.029-0.119
		c-0.178-0.71-0.899-1.013-1.137-1.112l-0.428-0.179l-0.32,0.164l-0.164-1.313c0.005-0.904,0.111-2.083,0.316-3.507l0.048-0.326
		l-0.061-0.111c0.016-0.082,0.023-0.161,0.023-0.24c0-0.782-0.16-1.438-0.478-1.949l-0.293-0.474h-0.238l0.414-0.191l-0.203-0.805
		l-0.111-0.44l-0.191-0.755h-0.778H41.81c-0.534,0-1.094,0.073-1.677,0.219c0.124-0.203,0.257-0.397,0.396-0.582l0.203-0.268v-0.336
		v-0.207c0-0.589-0.4-1.074-0.997-1.208L39.626,38.384L39.626,38.384z M34.839,44.981h0.199c0.016,0,0.031,0,0.048,0
		c-0.086,0.205-0.169,0.411-0.249,0.615C34.838,45.396,34.839,45.189,34.839,44.981L34.839,44.981z M34.542,52.056
		c0.06-0.501,0.11-1.072,0.152-1.714l0.344,0.076l0.106,0.023h0.109h0.224h0.237l0.146,0.457l0.033,0.086
		c-0.065,0.227-0.104,0.507-0.104,0.855c0,0.167,0.022,0.326,0.065,0.478c-0.619,0.169-0.913,0.293-1.095,0.396l-0.045,0.025
		C34.692,52.553,34.638,52.336,34.542,52.056L34.542,52.056z"/>
</g>
<g>
	<path d="M50.808,57.39c-0.518,0-0.832-0.441-0.936-1.312l0.09-3.165h-0.199l0.219-1.139l-0.009-0.776
		c0-0.766-0.019-1.741-0.055-2.91c-0.579,0.887-1.189,2.005-1.825,3.341l-0.116,0.245l-1.438,0.191l-0.141-0.371
		c-0.213-0.564-0.24-0.797-0.24-0.937v-0.182l0.116-0.139c0.473-0.566,1.193-1.644,2.152-3.217H47.97
		c-0.468,0-0.699-0.46-0.775-0.611l-0.053-0.106v-0.212l0.034-0.183c0.575-1.487,1.636-3.084,3.151-4.745L50.476,41h1.049v0.819
		c0,0.143,0,0.332-0.568,1.437c1.15-1.281,1.267-1.281,1.491-1.281h0.104c0.472,0.08,0.716,0.361,0.716,0.725v0.216
		c0,0.404-0.177,1.063-1.526,2.589c0.002,1.941,0.093,3.808,0.268,5.556c1.297-0.306,3.201-0.881,5.676-1.715
		c-0.043-0.277-0.087-0.478-0.126-0.621c-1.424,0.688-2.458,1.023-3.151,1.023h-0.5v-1.264l0.162-0.149
		c0.7-0.642,2.151-1.319,4.435-2.072l0.076-0.025h0.08c0.293,0,0.526,0.184,0.593,0.445c0.087,0.186,0.131,0.387,0.131,0.599v0.117
		l-0.049,0.099c0.115,0.236,0.228,0.529,0.338,0.883c0.268-0.183,0.662-0.326,1.235-0.389c0,0,0.019,0,0.027,0
		c0.148,0,0.364,0.026,1.319,0.223l0.399,0.083v1.041l-0.132,0.144c-0.193,0.211-0.662,0.546-2.626,1.417
		c-0.19,1.93-0.351,3.196-0.486,3.853c0.079,0.239,0.143,0.672,0.188,1.562l0.013,0.241l-0.18,0.159
		c-0.437,0.387-0.772,0.559-1.091,0.559h-0.114l-0.103-0.05c-1.031-0.496-1.792-1.056-2.259-1.665l-0.104-0.135v-0.17
		c0-0.468,0.46-0.699,0.611-0.775l0.241-0.121l0.233,0.136c0.202,0.116,0.422,0.193,0.665,0.231v-0.498h-0.38
		c-1.34,0-2.019-0.392-2.019-1.163c0-0.397,0.358-0.668,0.671-0.858l0.158-0.097l0.182,0.03c0.94,0.151,1.379,0.201,1.582,0.214
		c0.011-0.005,0.021-0.01,0.029-0.014v-0.995l-5.678,1.763c-0.021,0.385-0.076,0.7-0.167,0.953c0.118,0.369,0.177,0.836,0.177,1.418
		v0.76c0,0.302-0.207,0.558-0.851,1.052l-0.135,0.104H50.808z M55.054,47.124c-0.507,0-0.786,0-1.788-5.657
		c-0.008-0.136-0.033-0.447-0.526-1.757c-0.102-0.377-0.145-0.716-0.145-1.057v-0.34l1.017-0.403l0.162,0.046
		c0.393,0.11,0.841,0.395,1.035,1.098c1.812-0.992,3.535-1.547,5.13-1.65l0.32-0.021l0.334,0.62l-0.013,0.146
		c-0.142,1.745-0.358,3.456-0.646,5.087c0.064,0.392,0.096,0.679,0.096,0.878v0.5h-0.499c0.007,0.002-0.214,0.111-0.502,0.97
		l-0.114,0.341h-0.359c-0.084,0.013-0.633,0.155-3.326,1.167l-0.085,0.032H55.054z M55.938,44.835
		c0.629-0.373,1.266-0.664,1.901-0.87v-0.179l0.012-0.09c-0.377,0.139-0.979,0.389-1.942,0.838L55.938,44.835z M55.312,41.56
		c0.099,0.613,0.186,0.938,0.246,1.105c1.875-0.569,2.825-1.363,2.825-2.364c0-0.08,0.018-0.358,0.055-0.834
		c-2.952,0.978-2.988,1.566-2.988,1.593v0.5H55.312z"/>
	<path fill="#FFFFFF" d="M59.971,37.902l0.111,0.207c-0.144,1.77-0.362,3.479-0.655,5.125c0.069,0.405,0.104,0.698,0.104,0.88
		c-0.356,0-0.682,0.437-0.975,1.311c-0.208,0-1.376,0.4-3.502,1.199c-0.245,0-0.677-1.748-1.296-5.244
		c0-0.256-0.184-0.872-0.551-1.847c-0.075-0.288-0.112-0.581-0.112-0.88l0.544-0.216c0.512,0.144,0.768,0.618,0.768,1.423
		C56.399,38.667,58.254,38.014,59.971,37.902 M58.995,38.766c-2.697,0.82-4.046,1.586-4.046,2.294h-0.216
		c0.192,1.45,0.41,2.175,0.656,2.175c2.329-0.645,3.493-1.623,3.493-2.934C58.883,40.188,58.92,39.677,58.995,38.766 M58.443,43.026
		c-0.347,0-1.364,0.4-3.054,1.199v0.112l0.104,1.087h0.439c0.8-0.506,1.602-0.868,2.407-1.087v-0.552L58.443,43.026 M51.024,41.5
		v0.319c0,0.282-0.693,1.629-2.079,4.037c0,0.325-0.146,0.547-0.439,0.664H47.97c-0.106,0-0.216-0.112-0.328-0.336v-0.096
		c0.555-1.434,1.572-2.964,3.055-4.589H51.024 M52.551,42.475c0.145,0.027,0.216,0.102,0.216,0.225v0.216
		c0,0.469-0.509,1.269-1.526,2.398v0.111c0,2.191,0.108,4.265,0.327,6.221h0.112c1.369-0.288,3.555-0.94,6.556-1.959
		c-0.106-0.88-0.253-1.426-0.439-1.639c-1.578,0.799-2.708,1.199-3.39,1.199v-0.544c0.64-0.586,2.057-1.242,4.253-1.967
		c0.074,0,0.112,0.035,0.112,0.104c0.074,0.134,0.111,0.28,0.111,0.44l-0.111,0.224c0.218,0.362,0.437,0.98,0.655,1.854h0.224
		c0-0.484,0.438-0.775,1.312-0.871c0.096,0,0.493,0.072,1.191,0.216v0.439c-0.225,0.245-1.133,0.717-2.727,1.415
		c-0.219,2.25-0.399,3.667-0.544,4.254c0.096,0.096,0.168,0.604,0.216,1.526c-0.325,0.288-0.578,0.433-0.759,0.433
		c-0.965-0.464-1.658-0.971-2.079-1.52c0-0.106,0.112-0.216,0.336-0.328c0.378,0.219,0.812,0.328,1.303,0.328l0.112-0.216v-1.423
		l-0.544,0.111h-0.336c-1.013,0-1.519-0.221-1.519-0.663c0-0.112,0.144-0.256,0.432-0.432c0.922,0.148,1.506,0.224,1.751,0.224
		c0.293-0.112,0.439-0.222,0.439-0.328v-1.862l-6.668,2.07c0,0.603-0.071,1.039-0.216,1.312c0.145,0.33,0.216,0.808,0.216,1.431
		v0.76c0,0.102-0.219,0.32-0.655,0.655h-0.104c-0.224,0-0.37-0.29-0.439-0.871l0.104-3.494c0-0.074-0.035-0.111-0.104-0.111
		l0.104-0.544v-0.871c0-1.082-0.035-2.54-0.104-4.374c-0.848,1.019-1.756,2.548-2.727,4.59l-0.775,0.104
		c-0.139-0.367-0.208-0.621-0.208-0.76c0.73-0.874,2.002-2.878,3.814-6.012c1.21-1.381,1.868-2.071,1.975-2.071H52.551
		 M60.547,36.863l-0.641,0.041c-1.522,0.099-3.149,0.586-4.849,1.452c-0.324-0.556-0.807-0.786-1.148-0.882l-0.325-0.091
		l-0.314,0.124l-0.544,0.216l-0.631,0.251v0.679c0,0.384,0.049,0.765,0.145,1.133l0.014,0.051l0.019,0.049
		c0.446,1.185,0.484,1.488,0.487,1.519v0.088l0.001,0.004c-0.008-0.001-0.016-0.003-0.016-0.003l-0.1-0.019h-0.094h-0.104
		c-0.152,0-0.274,0.007-0.423,0.076V41.5v-1h-1h-0.328h-0.441l-0.297,0.326c-1.559,1.707-2.651,3.356-3.249,4.902l-0.067,0.174
		v0.187v0.096v0.237l0.106,0.211c0.244,0.487,0.547,0.719,0.826,0.819c-0.733,1.177-1.296,2.001-1.684,2.464l-0.232,0.279v0.362
		c0,0.274,0.081,0.607,0.272,1.113l0.28,0.743l0.788-0.105l0.775-0.104l0.537-0.072l0.233-0.489
		c0.312-0.657,0.618-1.261,0.917-1.808c0.007,0.43,0.011,0.817,0.011,1.162v0.775l-0.087,0.451l-0.229,1.188h0.289l-0.078,2.575
		l-0.002,0.074l0.009,0.074c0.183,1.525,0.976,1.753,1.433,1.753h0.104h0.339l0.27-0.206c0.594-0.455,1.047-0.852,1.047-1.449v-0.76
		c0-0.555-0.051-1.02-0.154-1.409c0.051-0.175,0.09-0.368,0.115-0.584l2.108-0.655c-0.015,0.074-0.023,0.152-0.023,0.234
		c0,0.426,0.153,1.048,0.954,1.398c-0.242,0.275-0.307,0.563-0.307,0.792v0.339l0.207,0.27c0.522,0.682,1.32,1.274,2.438,1.812
		l0.206,0.099h0.228c0.449,0,0.888-0.211,1.422-0.685l0.36-0.318l-0.024-0.481c-0.039-0.74-0.088-1.219-0.175-1.554
		c0.096-0.493,0.234-1.436,0.441-3.497c1.917-0.862,2.312-1.185,2.526-1.417l0.263-0.287v-0.389v-0.439v-0.815l-0.799-0.164
		c-1.066-0.22-1.25-0.236-1.393-0.236h-0.055l-0.055,0.006c-0.35,0.038-0.645,0.105-0.893,0.193
		c-0.025-0.065-0.051-0.129-0.077-0.189V47.28c0-0.272-0.054-0.531-0.161-0.772c-0.059-0.191-0.167-0.358-0.311-0.488l0.093-0.277
		c0.112-0.337,0.207-0.526,0.268-0.628h0.759v-1c0-0.214-0.028-0.495-0.089-0.874c0.282-1.622,0.497-3.32,0.638-5.05l0.023-0.294
		l-0.14-0.261l-0.111-0.207L60.547,36.863L60.547,36.863z M55.949,41.182c0.114-0.12,0.54-0.474,1.937-0.992
		c-0.003,0.063-0.003,0.091-0.003,0.111c0,0.783-0.926,1.336-1.934,1.707V41.182L55.949,41.182z M52.241,45.691
		c0.457-0.526,0.803-0.982,1.049-1.387c0.422,2.051,0.722,2.851,1.126,3.15c-0.272,0.171-0.499,0.341-0.686,0.511l-0.324,0.297v0.44
		v0.544v0.926c-0.343,0.099-0.661,0.186-0.955,0.262C52.318,48.928,52.247,47.338,52.241,45.691L52.241,45.691z"/>
</g>
<g>
	<path d="M63.856,71.108c-0.789,0-1.772-0.635-3.094-1.999c-0.603-0.915-0.677-1.229-0.677-1.442v-0.103
		c-0.396,0.133-0.639,0.162-0.812,0.162h-1.155l-0.303-1.186l0.332-0.188c0.84-0.479,2.076-1.063,3.675-1.74
		c0.394-0.383,0.664-0.615,0.869-0.753v-1.438c0-0.078-0.013-0.14-0.039-0.187l-0.136-0.24l0.132-0.243
		c0.029-0.054,0.043-0.117,0.043-0.193v-1.104l-0.029-0.203l-1.537,0.189l-0.175-0.213c-0.288-0.352-0.434-0.716-0.434-1.085v-0.397
		l0.387-0.09c0.677-0.156,1.084-0.278,1.328-0.366l0.025-0.188c0.027-0.204,0.066-0.503,0.188-0.735
		c-0.191-0.995-0.288-1.938-0.288-2.805v-0.305l0.595-0.307h1.245l0.111,0.349c0.224,0.702,0.339,1.774,0.351,3.272
		c0.899-0.451,1.549-0.663,2.02-0.663c0.271,0.027,0.476,0.142,0.596,0.312c-0.006-0.242-0.009-0.915-0.009-0.915v-0.097
		l0.036-0.089c0.112-0.281,0.422-0.754,1.231-0.754h0.1l0.093,0.038c0.235,0.099,0.605,0.338,0.716,0.894
		c0.612-0.589,1.763-1.125,3.527-1.662c1.577-0.805,3.049-1.229,4.295-1.229h0.282l0.649,1.076l-0.205,0.27
		c-0.014,0.021-0.149,0.241-0.324,1.344l0.102,0.636L77.561,56.8c-0.066,0.61-0.101,1.144-0.101,1.585v0.439
		c0,0.078,0.013,0.14,0.038,0.185l0.065,0.115v0.132c0,0.103-0.022,0.197-0.062,0.28l0.054,0.281c0.295,4.258,0.44,7.099,0.44,8.505
		l0.146,1.246L77.1,70.195l-0.237-0.104c-1.93-0.846-2.188-1.097-2.312-1.316l-0.064-0.114v-0.562c0-0.356,0.256-0.716,0.827-0.716
		h0.148l0.125,0.081c0.117,0.077,0.221,0.138,0.311,0.185l0.118-0.461l-0.342-3.559c-0.969,0.779-1.552,1.123-1.942,1.268
		c-0.016,0.24-0.045,0.616-0.098,1.218l0.201,1.285h-0.416c-0.002,0.019-0.026,0.543-0.026,0.543h-1.021
		c-0.822,0-0.898-1.226-0.939-1.884v-0.083c-1.105,0.245-1.727,0.612-1.727,1.035c-0.114,1.036-0.27,1.915-0.932,1.915h-0.971
		l-0.312-1.57l0.218-1.653l-0.321-2.31l0.105-0.552c-0.191-1.789-0.319-3.34-0.382-4.635c-0.235,0.629-0.964,1.092-2.175,1.38
		c-0.083,0.092-0.191,0.177-0.323,0.262l0.293,2.155l-0.015,0.079c-0.025,0.136-0.045,0.283-0.061,0.441
		c0.387-0.185,0.708-0.273,0.984-0.273h0.5v1.059l-0.177,0.15c-1.304,1.105-1.342,1.532-1.342,1.577v1.096
		c0,0.082,0.014,0.147,0.043,0.201l0.122,0.225l-0.15,0.312l0.449,3.415l-1.009,0.824H63.856z M61.146,67.199
		c0.885,0.877,1.458,1.28,1.816,1.463c0.015-0.087,0.032-0.177,0.053-0.27c-0.109-1.11-0.19-1.764-0.247-2.147
		c-0.682,0.394-1.23,0.685-1.678,0.899L61.146,67.199z M69.786,64.381c0.306-0.068,0.807-0.22,1.621-0.538
		c-0.071-0.985-0.144-1.484-0.195-1.734c-0.239,0.068-0.729,0.221-1.731,0.56v0.193c0,0.089-0.017,0.172-0.047,0.246L69.786,64.381z
		 M73.311,62.851c0.367-0.208,1.038-0.675,2.232-1.718c-0.049-0.332-0.088-0.693-0.118-1.083c-0.274,0.604-0.848,1.049-1.703,1.321
		c-0.133,0.071-0.271,0.128-0.411,0.17V62.851z M69.156,58.701c0.063,0.579,0.102,1.206,0.113,1.868
		c0.477-0.086,1.075-0.242,1.79-0.465c-0.12-1.062-0.18-1.907-0.181-2.57c-0.429,0.237-0.821,0.478-1.177,0.72l-0.127,0.087h-0.386
		C69.18,58.459,69.168,58.579,69.156,58.701z M73.01,59.325c0.868-0.308,1.518-0.457,1.976-0.457h0.381
		c-0.005-0.207-0.008-0.421-0.01-0.64h-0.208l0.217-1.137l-0.006-1.502c-1.061,0.373-2.024,0.756-2.886,1.147
		c0.161,0.126,0.324,0.322,0.516,0.584l0.098,0.132v0.275c0,0.239-0.029,0.442-0.088,0.614l0.081,0.505
		c0.005,0.175-0.02,0.314-0.074,0.46C73.007,59.313,73.008,59.319,73.01,59.325z"/>
	<path fill="#FFFFFF" d="M77.063,53.907l0.328,0.544c-0.149,0.197-0.293,0.746-0.432,1.646l0.104,0.647
		c-0.069,0.635-0.104,1.181-0.104,1.64v0.439c0,0.165,0.034,0.31,0.104,0.432c0,0.075-0.034,0.112-0.104,0.112l0.104,0.543
		c0.288,4.211,0.432,7.015,0.432,8.411l0.112,0.983l-0.544,0.328c-1.29-0.565-1.982-0.934-2.078-1.104v-0.432
		c0-0.145,0.109-0.216,0.327-0.216c0.448,0.293,0.813,0.439,1.096,0.439c0.074-0.144,0.112-0.253,0.112-0.328
		c0-0.08-0.038-0.188-0.112-0.327l0.112-0.44l-0.44-4.589c-1.438,1.236-2.382,1.854-2.83,1.854c0,0.177-0.04,0.723-0.12,1.64
		l0.12,0.768c-0.208,0-0.319,0.181-0.336,0.543h-0.543c-0.235,0-0.382-0.472-0.44-1.415v-0.655c-1.817,0.293-2.726,0.84-2.726,1.639
		c-0.107,0.943-0.251,1.415-0.432,1.415h-0.561l-0.216-1.087l0.216-1.639l-0.319-2.295l0.104-0.544
		c-0.287-2.665-0.432-4.775-0.432-6.332v-0.224c0.117-0.293,0.373-0.439,0.768-0.439c0.293,0.122,0.44,0.381,0.44,0.775
		c0,0.586-0.04,1.273-0.12,2.062c0.08,0.704,0.12,1.472,0.12,2.303l0.207,0.112c0.624-0.075,1.498-0.296,2.623-0.664
		c-0.149-1.236-0.225-2.217-0.225-2.942c0.08-0.293,0.302-0.439,0.664-0.439c0.096,0,0.277,0.182,0.544,0.544v0.111
		c0,0.24-0.035,0.424-0.104,0.552l0.104,0.647c0,0.08-0.035,0.189-0.104,0.328c0.069,0.293,0.104,0.547,0.104,0.76
		c1.108-0.432,1.907-0.647,2.398-0.647v0.439c-0.208,0.49-0.68,0.853-1.415,1.087c-0.294,0.149-0.547,0.225-0.76,0.225v1.854
		l0.104,0.544c0.459,0,1.514-0.73,3.166-2.191c-0.149-0.868-0.224-1.958-0.224-3.27c0-0.219-0.034-0.328-0.104-0.328l0.104-0.543
		v-2.295c-2.767,0.928-4.911,1.911-6.436,2.95h-0.216v-0.432c0-0.778,1.236-1.543,3.709-2.295
		C74.508,54.31,75.892,53.907,77.063,53.907 M69.421,64.933c0.421,0,1.258-0.253,2.51-0.76c-0.111-1.743-0.256-2.614-0.432-2.614
		h-0.12c-0.128,0-0.927,0.25-2.398,0.751v0.552c0,0.075-0.034,0.112-0.104,0.112L69.421,64.933 M63.632,54.451
		c0.219,0.688,0.328,1.817,0.328,3.39v0.216c0.021,0.149,0.096,0.224,0.224,0.224c1.071-0.581,1.836-0.871,2.295-0.871
		c0.144,0.016,0.216,0.085,0.216,0.208v0.111c0,0.65-0.69,1.122-2.07,1.415c-0.011,0.102-0.195,0.248-0.552,0.44l0.327,2.406
		c-0.069,0.373-0.104,0.811-0.104,1.312v0.104c0.672-0.437,1.178-0.655,1.519-0.655v0.327c-1.013,0.858-1.519,1.512-1.519,1.959
		v1.096c0,0.165,0.034,0.312,0.104,0.439l-0.104,0.216l0.432,3.286l-0.655,0.535h-0.216c-0.63,0-1.541-0.615-2.734-1.847
		c-0.357-0.554-0.536-0.919-0.536-1.095l0.208-0.112c1.178,1.167,2.052,1.751,2.622,1.751v-0.112c0-0.224,0.035-0.479,0.104-0.768
		c-0.192-1.967-0.336-2.95-0.432-2.95c-1.951,1.168-3.223,1.751-3.814,1.751h-0.767l-0.112-0.439
		c0.842-0.479,2.079-1.063,3.71-1.751c0.586-0.575,0.948-0.863,1.087-0.863v-1.751c0-0.165-0.034-0.309-0.104-0.432
		c0.069-0.128,0.104-0.271,0.104-0.432v-1.104l-0.104-0.76l-1.751,0.216c-0.214-0.261-0.32-0.517-0.32-0.768
		c1.312-0.304,1.967-0.557,1.967-0.759c0-0.145-0.077-0.216-0.231-0.216c0.059-0.438,0.136-0.656,0.231-0.656
		c-0.219-1.061-0.327-2.044-0.327-2.95l0.216-0.111H63.632 M77.628,52.907h-0.564c-1.324,0-2.804,0.417-4.522,1.275
		c-1.38,0.424-2.401,0.855-3.104,1.324c-0.177-0.246-0.419-0.439-0.719-0.563l-0.185-0.077h-0.2c-0.807,0-1.425,0.39-1.696,1.068
		l-0.071,0.179v0.192v0.107l-0.032-0.004h-0.055c-0.413,0-0.907,0.123-1.536,0.388c-0.042-1.157-0.161-2.029-0.357-2.649
		l-0.222-0.696h-0.731h-0.759h-0.242l-0.217,0.111l-0.215,0.111l-0.542,0.279v0.609c0,0.857,0.091,1.782,0.271,2.756
		c-0.083,0.217-0.125,0.435-0.148,0.594c-0.226,0.068-0.543,0.154-0.987,0.257l-0.774,0.18v0.795c0,0.487,0.184,0.959,0.547,1.402
		l0.35,0.425l0.546-0.067l0.732-0.09v0.732L61.946,62l0.246,0.436v1.171c-0.185,0.147-0.396,0.338-0.649,0.582
		c-1.576,0.669-2.801,1.25-3.643,1.729l-0.662,0.378l0.188,0.738l0.112,0.439l0.192,0.753h0.776h0.767
		c0.116,0,0.249-0.009,0.409-0.038c0.103,0.293,0.293,0.642,0.599,1.115l0.054,0.083l0.068,0.071c1.441,1.487,2.506,2.15,3.452,2.15
		h0.216h0.356l0.276-0.226l0.655-0.535l0.431-0.353l-0.072-0.552l-0.393-2.991l0.195-0.408l-0.225-0.416l-0.001-1.041
		c0.037-0.087,0.237-0.461,1.165-1.247l0.354-0.3v-0.463V62.75v-1h-1c-0.139,0-0.281,0.016-0.432,0.048l-0.234-1.725
		c0.013-0.011,0.025-0.022,0.039-0.034c0.608-0.156,1.107-0.358,1.495-0.606c0.069,1.01,0.172,2.142,0.305,3.388l-0.076,0.397
		l-0.03,0.162l0.022,0.163l0.301,2.161l-0.198,1.504l-0.021,0.164l0.031,0.162l0.217,1.086l0.159,0.806h0.821h0.561
		c1.163,0,1.327-1.44,1.426-2.302l0.006-0.057v-0.057l0,0c0,0,0.129-0.192,0.771-0.398c0.091,0.782,0.365,1.83,1.396,1.83h0.543
		h0.955l0.025-0.543h0.107c-0.011,0.066-0.017,0.133-0.017,0.199v0.432v0.262l0.129,0.229c0.191,0.341,0.458,0.613,2.548,1.529
		l0.475,0.208l0.443-0.268l0.544-0.328l0.55-0.332l-0.072-0.638l-0.106-0.928c-0.004-1.437-0.149-4.27-0.435-8.422l-0.004-0.06
		l-0.011-0.06l-0.028-0.145c0.03-0.103,0.046-0.211,0.046-0.323v-0.265L77.96,58.81v-0.425c0-0.423,0.033-0.938,0.098-1.531
		l0.015-0.134l-0.021-0.133l-0.078-0.49c0.122-0.75,0.215-1.01,0.243-1.077l0.382-0.505l-0.35-0.58l-0.328-0.544L77.628,52.907
		L77.628,52.907z M73.311,56.915c0.486-0.206,1.002-0.41,1.546-0.612v0.788l-0.086,0.45l-0.162,0.851
		c-0.303,0.036-0.651,0.112-1.058,0.23l-0.04-0.246c0.051-0.192,0.076-0.407,0.076-0.647v-0.111v-0.328l-0.194-0.265
		C73.365,56.988,73.338,56.951,73.311,56.915L73.311,56.915z M69.674,58.841h0.056l0.255-0.174c0.135-0.092,0.275-0.184,0.422-0.275
		c0.022,0.403,0.06,0.854,0.111,1.354c-0.277,0.082-0.533,0.151-0.766,0.208C69.734,59.569,69.709,59.196,69.674,58.841
		L69.674,58.841z M69.969,63.031c0.353-0.118,0.626-0.207,0.837-0.274c0.023,0.193,0.049,0.44,0.074,0.753
		c-0.305,0.113-0.55,0.197-0.745,0.258l-0.182-0.655C69.959,63.086,69.964,63.059,69.969,63.031L69.969,63.031z M74.208,65.233
		c0.288-0.141,0.63-0.351,1.054-0.658l0.221,2.308h-0.17c-0.438,0-0.77,0.154-0.993,0.384l-0.081-0.521l-0.102-0.647
		C74.168,65.732,74.191,65.451,74.208,65.233L74.208,65.233z M61.946,67.272c0.134-0.07,0.274-0.146,0.422-0.227
		c0.022,0.188,0.047,0.405,0.073,0.657C62.296,67.585,62.131,67.442,61.946,67.272L61.946,67.272z"/>
</g>
<g>
	<path d="M92.267,74.813l-0.138-0.111c-0.398-0.322-0.555-0.328-0.555-0.328l-0.495-0.007l-0.007-0.493v-1.252h0.419
		c-0.095-1.233-0.161-1.959-0.207-2.386c-1.499,0.64-2.881,1.118-4.121,1.427v1.339c0,0.31-0.209,0.567-0.86,1.062l-0.135,0.102
		h-0.454l-0.14-0.117c-0.479-0.401-0.723-0.972-0.723-1.694c0-0.147,0.033-0.357,0.421-1.266c-0.062-0.352-0.093-0.618-0.093-0.813
		v-0.062l0.083-0.325c-0.055-0.147-0.083-0.307-0.083-0.476V69.28l0.064-0.114c-0.149-0.173-0.32-0.432-0.546-0.809l-0.175-0.293
		l0.209-0.27c0.442-0.569,0.447-0.78,0.447-0.789v-2.015c-0.22,0.471-0.511,1.115-0.896,1.999l-0.131,0.3h-0.085
		c-0.07,0.113-0.187,0.316-0.378,0.674l0.078,0.49c0.006,0.637-0.323,1.145-0.972,1.587l-0.128,0.087h-0.482
		c-0.426,0-0.724-0.294-0.724-0.716c0-0.291,0-0.953,3.062-7.688c-1.529,0.541-2.902,0.938-4.093,1.183l-0.601,0.123v-1.623
		l0.345-0.113c4.359-1.426,5.354-1.958,5.579-2.126c0.543-2.344,1.032-2.974,1.355-3.243l0.351-0.293l0.323,0.323
		c0.259,0.259,0.362,0.302,0.366,0.304h0.5l-0.072,0.489c0,0.478-0.094,1.038-0.286,1.699c0.419-0.189,1.141-0.558,2.375-1.27
		l0.116-0.066h0.9c0.472,0.08,0.717,0.361,0.717,0.725v0.439c0,0.498-0.299,0.889-4.408,2.089l-1.145,0.965
		c0.061,0.729,0.092,1.277,0.092,1.631v0.259c3.052-2.421,4.167-2.717,4.744-2.717h0.101l0.093,0.039
		c0.316,0.133,0.748,0.359,0.84,0.798l0.011,0.051v1.251c0,1.547,0.069,2.688,0.207,3.39l0.116,0.596h-0.183
		c0.081,0.506,0.177,1.361,0.297,2.851c0.283,1.319,0.467,2.665,0.537,3.938l0.009,0.148l-0.075,0.129
		c-0.233,0.405-0.252,0.578-0.252,0.622v0.5H92.267z M87.14,69.647c0.913-0.24,2.158-0.656,3.716-1.243
		c-0.001-0.47-0.006-0.935-0.015-1.395c-0.664,0.515-1.752,0.949-3.294,1.324l-0.432,0.378l0.075,0.317l-0.112,0.234L87.14,69.647z
		 M86.939,66.568c1.284-0.388,2.422-0.896,3.389-1.512l0.171-0.108l0.285,0.059c-0.031-0.79-0.073-1.561-0.125-2.31
		c-0.447,0.27-1.26,0.865-2.684,2.167c-0.483,0.488-0.802,0.77-1.036,0.928V66.568z"/>
	<path fill="#FFFFFF" d="M87.431,56.309c0.293,0.293,0.509,0.439,0.647,0.439c0,0.607-0.181,1.407-0.543,2.398h0.216
		c0.335,0,1.391-0.512,3.166-1.535h0.767c0.145,0.027,0.217,0.102,0.217,0.225v0.439c0,0.288-1.384,0.834-4.149,1.639l-1.424,1.199
		c0.075,0.854,0.112,1.469,0.112,1.847v1.208h0.12c2.574-2.111,4.282-3.166,5.124-3.166c0.331,0.139,0.512,0.285,0.544,0.439v1.199
		c0,1.588,0.072,2.75,0.216,3.485h-0.216c0.123,0.16,0.27,1.29,0.439,3.391c0.288,1.364,0.467,2.673,0.536,3.925
		c-0.213,0.368-0.319,0.658-0.319,0.872h-0.44c-0.362-0.293-0.652-0.439-0.871-0.439v-0.752c0.293,0,0.439-0.075,0.439-0.224
		c-0.149-2.01-0.259-3.137-0.328-3.382c-1.876,0.837-3.549,1.42-5.021,1.751v1.734c0,0.106-0.221,0.328-0.663,0.664h-0.104
		c-0.362-0.304-0.544-0.741-0.544-1.312c0-0.128,0.147-0.53,0.44-1.207c-0.075-0.395-0.112-0.686-0.112-0.872l0.112-0.439
		c-0.075-0.122-0.112-0.264-0.112-0.424c0.075-0.133,0.112-0.279,0.112-0.439c-0.096,0-0.317-0.29-0.664-0.871
		c0.368-0.475,0.552-0.84,0.552-1.096v-2.07c0-0.47-0.074-0.981-0.224-1.535c-0.187,0.197-0.73,1.327-1.631,3.39
		c-0.054,0-0.272,0.362-0.656,1.087l0.104,0.656c0,0.384-0.253,0.749-0.76,1.095h-0.328c-0.148,0-0.224-0.071-0.224-0.216
		c0-0.607,1.165-3.448,3.494-8.522h-0.104c-1.918,0.725-3.592,1.234-5.021,1.527V61.77c3.929-1.285,5.893-2.087,5.893-2.407
		C86.607,57.679,87.01,56.66,87.431,56.309 M91.244,61.977h-0.104c-0.539,0.038-1.706,0.877-3.502,2.519
		c-0.65,0.656-1.05,0.983-1.199,0.983v1.751c1.599-0.421,2.984-1.004,4.157-1.751l0.544,0.112c0,0.917-1.276,1.679-3.83,2.286
		l-0.751,0.656l0.104,0.439l-0.104,0.216l0.104,0.647v0.439c1.019-0.213,2.582-0.722,4.693-1.526c0-2.239-0.072-4.35-0.216-6.332
		C91.21,62.289,91.244,62.143,91.244,61.977 M87.491,54.955l-0.701,0.586c-0.398,0.333-0.922,1.012-1.474,3.311
		c-0.392,0.217-1.598,0.758-5.296,1.968l-0.689,0.226v0.725v0.647v1.226l1.201-0.246c0.919-0.188,1.943-0.466,3.062-0.828
		c-2.632,5.851-2.632,6.463-2.632,6.844c0,0.693,0.526,1.216,1.224,1.216h0.328h0.309l0.255-0.174
		c0.935-0.638,1.172-1.336,1.194-1.836c0.143,0.239,0.275,0.454,0.408,0.639v0.155c0,0.171,0.021,0.335,0.063,0.49l-0.032,0.125
		l-0.031,0.122v0.126c0,0.197,0.024,0.441,0.075,0.754c-0.34,0.807-0.403,1.082-0.403,1.325c0,1.093,0.49,1.733,0.901,2.078
		l0.279,0.233h0.363H86h0.337l0.268-0.203c0.579-0.44,1.059-0.854,1.059-1.461V72.05c0.986-0.266,2.053-0.631,3.188-1.092
		c0.028,0.304,0.06,0.686,0.098,1.163h-0.345l-0.032,1.001v0.752v1h0.927c0.045,0.022,0.146,0.08,0.315,0.217l0.275,0.223h0.354
		h0.44h1v-0.997v0.002c0.004,0,0.037-0.119,0.186-0.377l0.148-0.258l-0.016-0.298c-0.071-1.277-0.254-2.628-0.543-4.013
		c-0.082-0.998-0.152-1.72-0.217-2.247h0.215l-0.232-1.191c-0.131-0.671-0.197-1.779-0.197-3.294v-1.199v-0.104l-0.021-0.102
		c-0.155-0.746-0.894-1.055-1.137-1.156l-0.185-0.078h-0.201c-0.682,0-1.731,0.291-4.271,2.215
		c-0.012-0.199-0.027-0.423-0.047-0.672l0.867-0.73c4.049-1.186,4.667-1.639,4.667-2.539v-0.439c0-0.605-0.414-1.091-1.03-1.207
		l-0.093-0.018h-0.094h-0.767h-0.268l-0.232,0.134c-0.578,0.333-1.038,0.588-1.403,0.782c0.043-0.279,0.064-0.538,0.064-0.779v-1
		h-0.784c-0.038-0.033-0.09-0.08-0.156-0.146L87.491,54.955L87.491,54.955z M87.768,65.762c0.171-0.156,0.362-0.342,0.581-0.562
		c0.826-0.754,1.431-1.254,1.867-1.585c0.018,0.295,0.032,0.592,0.046,0.892l-0.202,0.129
		C89.382,65.066,88.614,65.443,87.768,65.762L87.768,65.762z M87.784,68.791c0.846-0.21,1.781-0.49,2.568-0.896
		c0.001,0.054,0.001,0.108,0.002,0.162c-1.044,0.389-1.934,0.694-2.664,0.914l-0.02-0.082L87.784,68.791L87.784,68.791z"/>
</g>
<g>
	<g>
		<path fill="#F7C393" d="M74.804,50.254c-0.293,0-0.555-0.036-0.758-0.104c-0.081-0.025-0.199-0.039-0.344-0.039
			c-0.254,0-0.513,0.044-0.645,0.069c-0.18,0.032-0.36,0.048-0.542,0.048c-1.397,0-2.788-0.864-3.308-2.057l-1.423-3.267
			c-0.37-0.851-0.39-1.791-0.053-2.647c0.336-0.856,0.99-1.531,1.842-1.902l0.888-0.387c0.615-1.45,1.7-2.988,1.747-3.055
			c1.043-1.372,1.906-3.173,2.321-4.038c0.285-0.596,0.309-0.645,0.423-0.693c0.1-0.051,0.247-0.126,0.455-0.126
			c0.188,0,0.382,0.062,0.574,0.187l0.393,0.327c0.999,1.027,1.079,2.964,0.188,4.161l-0.168,0.263l7.734-3.372
			c0.211-0.092,0.434-0.138,0.663-0.138c0.671,0,1.275,0.395,1.542,1.007c0.178,0.407,0.186,0.862,0.021,1.279
			c-0.164,0.418-0.479,0.746-0.888,0.925l-2.828,1.231c0.402,0.161,0.734,0.474,0.913,0.885c0.367,0.845-0.021,1.835-0.866,2.205
			l-0.214,0.093c0.401,0.162,0.733,0.475,0.912,0.886c0.369,0.845-0.02,1.833-0.866,2.204l-0.54,0.234
			c0.402,0.161,0.733,0.475,0.911,0.886c0.179,0.407,0.187,0.862,0.022,1.28c-0.164,0.419-0.479,0.747-0.889,0.925l-5.226,2.277
			C75.938,50.175,75.239,50.254,74.804,50.254L74.804,50.254z"/>
		<path fill="#FFFFFF" d="M75.408,32.306c0.119,0,0.266,0.035,0.438,0.146c0.122,0.103,0.245,0.204,0.366,0.308
			c0.849,0.874,1.007,2.67,0.15,3.821l-0.625,0.971l8.491-3.701c0.184-0.08,0.375-0.117,0.564-0.117
			c0.551,0,1.079,0.321,1.312,0.856c0.313,0.717-0.019,1.562-0.736,1.875l-3.907,1.702l-0.014,0.006l-1.307,0.569l1.32-0.575
			c0.18-0.076,0.367-0.112,0.551-0.112c0.551,0,1.079,0.321,1.312,0.855c0.312,0.719-0.019,1.562-0.737,1.877l-1.305,0.566
			l-0.003,0.001l0.003-0.001c0.183-0.079,0.373-0.117,0.561-0.117c0.552,0,1.08,0.321,1.313,0.857
			c0.313,0.718-0.021,1.562-0.737,1.875l-1.631,0.709l-0.003,0.002l0.003-0.002c0.183-0.078,0.373-0.116,0.562-0.116
			c0.552,0,1.08,0.321,1.312,0.856c0.314,0.718-0.018,1.563-0.736,1.876l-5.226,2.277c-0.732,0.319-1.395,0.433-1.896,0.433
			c-0.282,0-0.514-0.036-0.678-0.092c-0.122-0.037-0.27-0.051-0.424-0.051c-0.24,0-0.495,0.034-0.692,0.073
			c-0.161,0.029-0.327,0.043-0.495,0.043c-1.249,0-2.588-0.784-3.077-1.906l-1.423-3.267c-0.711-1.633,0.025-3.51,1.659-4.221
			l0.98-0.427c0.603-1.468,1.759-3.1,1.759-3.1c1.457-1.916,2.539-4.604,2.639-4.646C75.109,32.386,75.229,32.306,75.408,32.306
			 M75.408,31.806L75.408,31.806c-0.269,0-0.458,0.097-0.548,0.143c-0.206,0.09-0.246,0.173-0.556,0.818
			c-0.411,0.858-1.267,2.644-2.29,3.988c-0.056,0.079-1.111,1.576-1.743,3.023l-0.797,0.347c-0.913,0.397-1.614,1.122-1.976,2.041
			c-0.36,0.918-0.34,1.926,0.057,2.838l1.424,3.268c0.557,1.278,2.044,2.206,3.535,2.206c0.199,0,0.396-0.017,0.584-0.051
			c0.13-0.025,0.37-0.065,0.604-0.065c0.156,0,0.242,0.019,0.279,0.029c0.213,0.072,0.502,0.113,0.822,0.113
			c0.459,0,1.195-0.082,2.095-0.475l5.226-2.277c0.471-0.204,0.834-0.581,1.021-1.062c0.189-0.48,0.18-1.003-0.026-1.474
			c-0.131-0.302-0.335-0.559-0.586-0.753l0.085-0.036c0.975-0.426,1.42-1.562,0.996-2.534c-0.135-0.309-0.344-0.569-0.603-0.765
			c0.813-0.493,1.159-1.525,0.771-2.418c-0.131-0.303-0.336-0.56-0.587-0.754l2.374-1.033c0.47-0.206,0.832-0.583,1.02-1.062
			c0.189-0.48,0.18-1.003-0.025-1.472c-0.305-0.702-1-1.156-1.77-1.156c-0.265,0-0.521,0.054-0.764,0.159l-6.989,3.046
			c0.652-1.266,0.482-3.047-0.47-4.027l-0.281-0.24l-0.122-0.102l-0.024-0.021l-0.026-0.018
			C75.884,31.882,75.646,31.806,75.408,31.806L75.408,31.806L75.408,31.806z"/>
	</g>
	<g>
		<path fill="#F0A26F" d="M74.899,38.307c-0.057-0.13-0.035-0.258,0.068-0.379l0.51-0.61c0.135-0.139,0.36-0.159,0.482-0.057
			c0.137,0.135,0.157,0.359,0.054,0.481l-0.511,0.612c-0.135,0.136-0.359,0.157-0.48,0.054
			C74.941,38.404,74.927,38.371,74.899,38.307"/>
		<path fill="#F0A26F" d="M75.896,40.592c-0.085-0.194-0.012-0.383,0.186-0.469l5.553-2.419c0.194-0.085,0.383-0.012,0.468,0.185
			s0.012,0.383-0.185,0.469l-5.555,2.42C76.169,40.863,75.981,40.788,75.896,40.592"/>
		<path fill="#F0A26F" d="M77.359,43.063c-0.086-0.194-0.01-0.384,0.185-0.468l3.594-1.565c0.196-0.087,0.383-0.013,0.47,0.183
			c0.085,0.197,0.011,0.384-0.186,0.471l-3.592,1.563C77.636,43.333,77.446,43.26,77.359,43.063"/>
		<path fill="#F0A26F" d="M78.173,45.818c-0.086-0.195-0.013-0.384,0.185-0.469l2.286-0.996c0.195-0.086,0.383-0.011,0.469,0.183
			c0.087,0.196,0.013,0.385-0.184,0.47l-2.285,0.997C78.446,46.089,78.259,46.016,78.173,45.818"/>
		<path fill="#F0A26F" d="M72.761,48.564c-0.055-0.128-0.014-0.304,0.088-0.425c0.182-0.119,0.387-0.093,0.524,0.045l0.118,0.18
			c0.509,0.632,0.778,0.982,1.259,0.928c0.192-0.006,0.362,0.116,0.382,0.341c0.006,0.19-0.115,0.359-0.34,0.381
			c-0.896,0.08-1.375-0.569-1.881-1.201l-0.105-0.149C72.792,48.632,72.777,48.599,72.761,48.564"/>
		<path fill="#F0A26F" d="M70.058,42.359c-0.028-0.065-0.023-0.146-0.019-0.225c0.078-0.267,0.136-0.488,0.182-0.74
			c0.05-0.333,0.146-0.646,0.261-1.008c0.074-0.188,0.27-0.273,0.441-0.23c0.188,0.071,0.274,0.268,0.233,0.441
			c-0.097,0.314-0.159,0.614-0.223,0.914c-0.047,0.253-0.091,0.507-0.187,0.819c-0.074,0.187-0.256,0.307-0.443,0.232
			C70.176,42.541,70.102,42.457,70.058,42.359"/>
	</g>
</g>
<g>
	<polygon fill="#FAEE00" points="65.855,33.337 63.827,31.766 66.31,31.111 67.18,28.697 68.566,30.855 71.13,30.936 69.508,32.923 
		70.222,35.389 67.831,34.457 65.709,35.898 	"/>
	<path fill="#FFFFFF" d="M67.243,29.259l1.184,1.843l2.189,0.068l-1.385,1.696l0.609,2.105L67.8,34.177l-1.812,1.23l0.125-2.188
		l-1.731-1.342l2.119-0.559L67.243,29.259 M67.116,28.136l-0.344,0.953l-0.654,1.814l-1.865,0.491l-0.979,0.258l0.8,0.621
		l1.524,1.181l-0.11,1.925l-0.058,1.011l0.838-0.568l1.595-1.083l1.796,0.699l0.943,0.367l-0.281-0.972l-0.537-1.854l1.22-1.493
		l0.64-0.784l-1.012-0.032l-1.927-0.06l-1.041-1.622L67.116,28.136L67.116,28.136z"/>
</g>
<g>
	<polygon fill="#FAEE00" points="40.633,72.038 36.224,73.545 37.708,69.126 34.909,65.399 39.572,65.445 42.254,61.633 
		43.647,66.08 48.104,67.451 44.308,70.153 44.376,74.815 	"/>
	<path fill="#FFFFFF" d="M42.167,62.191l1.281,4.089l4.098,1.261l-3.49,2.484l0.062,4.288l-3.441-2.555l-4.055,1.386l1.365-4.063
		l-2.574-3.427l4.288,0.042L42.167,62.191 M42.341,61.075l-0.583,0.828l-2.314,3.291l-4.025-0.04l-1.013-0.01l0.608,0.81
		l2.416,3.217l-1.281,3.814l-0.323,0.96l0.959-0.327l3.806-1.301l3.23,2.397l0.812,0.604l-0.015-1.013L44.56,70.28l3.276-2.332
		l0.825-0.587l-0.969-0.298l-3.846-1.184l-1.203-3.838L42.341,61.075L42.341,61.075z"/>
</g>
<g>
	<polygon fill="#FAEE00" points="87.385,49.447 86.203,48.307 87.829,48.063 88.553,46.588 89.285,48.059 90.913,48.291 
		89.738,49.441 90.022,51.062 88.564,50.3 87.111,51.069 	"/>
	<path fill="#FFFFFF" d="M88.555,47.152l0.565,1.136l1.256,0.179l-0.906,0.888l0.219,1.251l-1.125-0.588l-1.121,0.594l0.211-1.252
		l-0.912-0.881l1.255-0.188L88.555,47.152 M88.552,46.023l-0.446,0.908l-0.442,0.903l-0.996,0.149l-1.002,0.149l0.729,0.704
		l0.723,0.698l-0.167,0.992l-0.168,0.999l0.896-0.475l0.889-0.471l0.892,0.467l0.898,0.47l-0.175-0.999l-0.173-0.992l0.718-0.703
		l0.725-0.71l-1.004-0.143L89.45,47.83l-0.448-0.9L88.552,46.023L88.552,46.023z"/>
</g>
</svg>
