<?xml version="1.0" encoding="utf-8"?>
<!-- Generator: Adobe Illustrator 16.0.0, SVG Export Plug-In . SVG Version: 6.00 Build 0)  -->
<!DOCTYPE svg PUBLIC "-//W3C//DTD SVG 1.1//EN" "http://www.w3.org/Graphics/SVG/1.1/DTD/svg11.dtd">
<svg version="1.1" id="Layer_1" xmlns="http://www.w3.org/2000/svg" xmlns:xlink="http://www.w3.org/1999/xlink" x="0px" y="0px"
	 width="126.877px" height="112.438px" viewBox="0 0 126.877 112.438" enable-background="new 0 0 126.877 112.438"
	 xml:space="preserve">
<rect fill="#FFFFFF" width="126.877" height="112.438"/>
<linearGradient id="SVGID_2_" gradientUnits="userSpaceOnUse" x1="15.8262" y1="85.335" x2="60.9961" y2="40.1651" gradientTransform="matrix(0.7082 -0.706 0.7899 0.7924 -31.2681 36.9258)">
	<stop  offset="0" style="stop-color:#FFFFFF;stop-opacity:0"/>
	<stop  offset="1" style="stop-color:#FAEE00"/>
</linearGradient>
<polygon opacity="0.5" fill="url(#SVGID_2_)" points="23.537,91.999 17.721,24.193 71.96,70.584 "/>
<linearGradient id="SVGID_4_" gradientUnits="userSpaceOnUse" x1="36.1318" y1="89.7949" x2="81.3028" y2="44.624" gradientTransform="matrix(0.9927 -0.1207 0.1207 0.9927 -6.6782 7.4873)">
	<stop  offset="0" style="stop-color:#FFFFFF;stop-opacity:0"/>
	<stop  offset="1" style="stop-color:#FAEE00"/>
</linearGradient>
<polygon fill="url(#SVGID_4_)" points="22.335,78.409 60.14,26.875 73.438,89.318 "/>
<linearGradient id="SVGID_6_" gradientUnits="userSpaceOnUse" x1="50.5518" y1="86.1289" x2="95.7203" y2="40.9604" gradientTransform="matrix(0.938 -0.3468 0.3468 0.938 -12.0286 29.4326)">
	<stop  offset="0" style="stop-color:#FFFFFF;stop-opacity:0"/>
	<stop  offset="1" style="stop-color:#FAEE00"/>
</linearGradient>
<polygon fill="url(#SVGID_6_)" points="44.84,83.294 69.719,24.422 97.083,82.104 "/>
<linearGradient id="SVGID_8_" gradientUnits="userSpaceOnUse" x1="61.1104" y1="88.6289" x2="106.2796" y2="43.4597" gradientTransform="matrix(0.8644 0.5029 -0.5029 0.8644 49.4731 -30.9385)">
	<stop  offset="0" style="stop-color:#FFFFFF;stop-opacity:0"/>
	<stop  offset="1" style="stop-color:#FAEE00"/>
</linearGradient>
<polygon opacity="0.5" fill="url(#SVGID_8_)" points="51.979,54.676 113.226,36.403 86.142,94.219 "/>
<path stroke="#FFFFFF" stroke-miterlimit="10" d="M40.919,48.645c7.657,0,13.866,6.212,13.866,13.867
	c0,7.658-6.209,13.868-13.866,13.868s-13.865-6.21-13.865-13.868C27.054,54.856,33.262,48.645,40.919,48.645z"/>
<path stroke="#FFFFFF" stroke-miterlimit="10" d="M63.775,48.523c7.657,0,13.866,6.212,13.866,13.867
	c0,7.658-6.209,13.868-13.866,13.868S49.91,70.049,49.91,62.391C49.91,54.735,56.118,48.523,63.775,48.523z"/>
<path stroke="#FFFFFF" stroke-miterlimit="10" d="M86.272,48.645c7.657,0,13.866,6.212,13.866,13.867
	c0,7.658-6.209,13.868-13.866,13.868s-13.865-6.21-13.865-13.868C72.407,54.856,78.615,48.645,86.272,48.645z"/>
<path fill="#FFFFFF" d="M32.494,57.292h6.588V53.98h3.559v3.312h6.693v3.276h-6.905c0.857,1.351,1.867,2.666,3.03,3.946
	c1.162,1.28,2.454,2.29,3.875,3.029l-1.867,3.224c-1.21-0.669-2.36-1.567-3.452-2.695c-1.093-1.127-2.056-2.289-2.89-3.487
	c-1.468,2.807-3.617,4.879-6.446,6.218l-2.325-2.941c1.538-0.786,2.924-1.791,4.156-3.012c1.233-1.222,2.009-2.648,2.326-4.281
	h-6.342V57.292z"/>
<path fill="#FFFFFF" d="M56.54,70.416l-2.396-2.272c0.975-2.056,1.667-4.239,2.078-6.554l2.572,1.586
	C58.36,65.818,57.608,68.231,56.54,70.416z M65.137,60.956h-3.348v2.185c0.071,2.865-0.457,5.396-1.585,7.592l-2.571-1.479
	c0.657-1.209,1.083-2.334,1.276-3.373c0.194-1.039,0.285-2.082,0.273-3.127v-4.756l-1.832,1.867c-0.446-0.528-0.928-1.095-1.444-1.7
	c-0.518-0.604-1.034-1.13-1.551-1.576l2.114-2.114c0.975,0.951,1.879,1.938,2.713,2.96v-1.868h5.426
	c-0.083-0.669-0.106-1.326-0.071-1.973h2.819c-0.024,0.646,0.022,1.304,0.141,1.973h0.951c-0.105-0.199-0.224-0.387-0.353-0.563
	l1.621-0.951c0.657,0.928,1.174,1.75,1.55,2.467l-1.057,0.563v1.268h-2.537c0.059,1.257,0.188,2.561,0.388,3.911
	c0.258-1.115,0.411-2.125,0.458-3.03l2.255,0.564c-0.247,2.184-0.846,4.415-1.797,6.693c-0.059,0.306,0.006,0.505,0.193,0.599
	c0.188,0.095,0.394,0.071,0.617-0.07l0.599-0.388l1.021,3.188c-0.716,0.622-1.538,0.951-2.466,0.986
	c-0.693,0.082-1.327-0.435-1.902-1.55c-0.599,0.587-1.339,1.233-2.22,1.938l-1.62-2.148c0.469-0.259,0.966-0.635,1.488-1.128
	s0.978-1.039,1.365-1.638C65.688,64.608,65.383,62.835,65.137,60.956z M61.789,58.948h3.171l-0.07-0.6h-3.101V58.948z M65.03,67.403
	h-2.818v-5.742h2.818V67.403z M63.974,63.916H63.27v0.986h0.704V63.916z"/>
<path fill="#FFFFFF" d="M78.012,63.281l-1.268-2.713c1.644-1.891,2.936-4.204,3.875-6.94l2.537,0.881
	c-0.411,1.222-0.928,2.514-1.551,3.876v12.207h-2.713v-8.402C78.611,62.554,78.317,62.918,78.012,63.281z M84.107,61.062
	c-0.259,0.247-0.518,0.458-0.775,0.635l-1.691-2.149c2.149-1.608,3.899-3.641,5.25-6.095l2.606,1.162l-0.423,0.564
	c0.998,0.986,1.908,1.77,2.73,2.352c0.822,0.581,1.65,1.065,2.484,1.453L92.95,61.52c-0.411-0.223-0.787-0.434-1.128-0.634v9.776
	h-2.889V60.71h2.607c-1.504-0.928-2.808-2.021-3.911-3.276c-0.916,1.092-1.973,2.184-3.171,3.276h2.325v3.734
	c0.023,1.15-0.123,2.231-0.44,3.241c-0.316,1.01-0.98,2.084-1.99,3.224l-2.431-1.974c0.893-0.892,1.485-1.737,1.779-2.536
	c0.293-0.799,0.429-1.709,0.405-2.73V61.062z"/>
</svg>
