<?xml version="1.0" encoding="utf-8"?>
<!-- Generator: Adobe Illustrator 16.0.0, SVG Export Plug-In . SVG Version: 6.00 Build 0)  -->
<!DOCTYPE svg PUBLIC "-//W3C//DTD SVG 1.1//EN" "http://www.w3.org/Graphics/SVG/1.1/DTD/svg11.dtd">
<svg version="1.1" id="Layer_1" xmlns="http://www.w3.org/2000/svg" xmlns:xlink="http://www.w3.org/1999/xlink" x="0px" y="0px"
	 width="126.875px" height="112.438px" viewBox="0 0 126.875 112.438" enable-background="new 0 0 126.875 112.438"
	 xml:space="preserve">
<rect fill="#FFFFFF" width="126.875" height="112.438"/>
<circle fill="#FFFFFF" cx="63.375" cy="50.318" r="22.859"/>
<circle fill="#F39800" cx="63.375" cy="50.318" r="14.993"/>
<polygon fill="#E83828" points="47.932,70.608 43.893,86.061 51.143,83.811 55.027,91.311 62.102,75.739 "/>
<polygon fill="#E83828" points="64.643,74.561 70.893,90.061 74.893,84.311 82.393,86.061 76.643,70.608 "/>
<g>
	<g>
		<path fill="#040000" d="M71.327,94.448c-0.858-0.015-1.603-0.525-1.917-1.303l-6.102-15.073l-6.234,15.02
			c-0.321,0.773-1.069,1.278-1.907,1.286c-0.853-0.004-1.6-0.495-1.93-1.251l-2.915-6.674L43.536,89.1
			c-0.242,0.095-0.498,0.144-0.759,0.144c-0.558,0-1.101-0.229-1.49-0.627c-0.585-0.6-0.756-1.486-0.435-2.259l6.449-15.537
			c-1.448-0.898-2.562-2.252-3.162-3.854l-0.587-1.571c-0.201-0.536-0.534-1.021-0.961-1.403l-1.25-1.117
			c-1.894-1.692-2.835-4.207-2.518-6.728l0.209-1.662c0.071-0.568,0.004-1.153-0.197-1.692l-0.587-1.567
			c-0.891-2.379-0.556-5.043,0.896-7.127l0.958-1.375c0.328-0.471,0.539-1.021,0.61-1.589l0.209-1.663
			c0.236-1.871,1.146-3.588,2.558-4.834c0.471-0.414,0.991-0.771,1.549-1.061l1.488-0.771c0.508-0.264,0.95-0.652,1.279-1.123
			l0.958-1.376c1.443-2.071,3.813-3.309,6.339-3.309l1.71,0.007c0.583,0,1.15-0.139,1.656-0.4l1.486-0.771
			c1.096-0.569,2.327-0.87,3.562-0.87c1.259,0,2.511,0.312,3.621,0.901l1.48,0.786c0.508,0.269,1.079,0.411,1.651,0.414l1.675,0.008
			c2.54,0.011,4.912,1.269,6.347,3.364l0.946,1.385c0.323,0.474,0.762,0.865,1.268,1.133l1.481,0.786
			c2.243,1.189,3.759,3.406,4.055,5.929l0.195,1.665c0.066,0.571,0.272,1.122,0.596,1.595l0.946,1.384
			c1.433,2.096,1.745,4.762,0.834,7.134l-0.602,1.563c-0.205,0.536-0.279,1.12-0.212,1.688l0.193,1.666
			c0.296,2.521-0.667,5.027-2.575,6.703l-1.261,1.105c-0.431,0.379-0.768,0.862-0.973,1.397l-0.601,1.564
			c-0.613,1.598-1.739,2.942-3.195,3.827l6.312,15.593c0.314,0.776,0.136,1.662-0.456,2.255c-0.393,0.396-0.917,0.613-1.477,0.613
			l0,0c-0.267,0-0.527-0.05-0.774-0.149l-6.763-2.707l-2.974,6.648c-0.336,0.75-1.086,1.233-1.91,1.233H71.327z M71.439,87.044
			l1.794-4.009c0.335-0.75,1.083-1.235,1.903-1.235c0.266,0,0.526,0.051,0.774,0.15l4.077,1.632l-4.566-11.281
			c-0.508,0.144-0.984,0.401-1.386,0.752l-1.258,1.106c-1.409,1.236-3.219,1.917-5.095,1.917c-0.232,0-0.465-0.01-0.696-0.031
			L71.439,87.044z M51.429,81.696c0.83,0,1.581,0.491,1.913,1.251l1.758,4.024l4.548-10.957c-0.21,0.018-0.419,0.026-0.627,0.026
			c-1.922-0.009-3.738-0.707-5.146-1.966l-1.248-1.116c-0.395-0.353-0.869-0.614-1.378-0.764l-4.666,11.241l4.09-1.598
			C50.915,81.744,51.169,81.696,51.429,81.696z M63.305,71.162c0.637,0,1.271,0.078,1.883,0.231l1.624,0.407
			c0.284,0.071,0.576,0.107,0.868,0.107c0.863,0,1.697-0.313,2.349-0.884l1.257-1.105c0.938-0.822,2.072-1.411,3.281-1.705
			l1.631-0.394c1.137-0.274,2.064-1.09,2.483-2.18l0.602-1.565c0.446-1.163,1.178-2.213,2.114-3.036l1.26-1.105
			c0.878-0.771,1.321-1.924,1.186-3.086l-0.194-1.665c-0.145-1.236,0.015-2.505,0.462-3.669l0.602-1.564
			c0.419-1.09,0.275-2.317-0.386-3.283l-0.944-1.384c-0.702-1.023-1.15-2.221-1.297-3.463l-0.194-1.666
			c-0.137-1.16-0.835-2.181-1.867-2.729l-1.48-0.784c-1.099-0.583-2.052-1.436-2.757-2.465l-0.946-1.384
			c-0.659-0.965-1.751-1.544-2.92-1.549l-1.676-0.008c-1.244-0.005-2.484-0.316-3.587-0.899l-1.48-0.787
			c-0.512-0.271-1.089-0.414-1.668-0.414c-0.568,0-1.135,0.139-1.639,0.399l-1.487,0.773c-1.097,0.568-2.328,0.869-3.562,0.869
			l-1.708-0.008c-1.179,0-2.27,0.569-2.936,1.524l-0.957,1.374c-0.711,1.021-1.672,1.865-2.779,2.441l-1.487,0.771
			c-1.038,0.539-1.744,1.553-1.89,2.714l-0.21,1.662c-0.155,1.236-0.614,2.43-1.327,3.453l-0.958,1.375
			c-0.668,0.96-0.822,2.186-0.413,3.279l0.588,1.569c0.438,1.171,0.586,2.441,0.43,3.675l-0.209,1.663
			c-0.146,1.159,0.287,2.316,1.158,3.097l1.249,1.115c0.93,0.831,1.652,1.887,2.089,3.054l0.587,1.568
			c0.41,1.096,1.331,1.919,2.465,2.203l1.626,0.408c1.206,0.304,2.335,0.902,3.267,1.733l1.25,1.117
			c0.653,0.584,1.495,0.905,2.371,0.905c0.28,0,0.562-0.033,0.835-0.1l1.628-0.395C62.08,71.234,62.691,71.162,63.305,71.162z"/>
		<path fill="#FFFFFF" d="M63.509,25.463c1.164,0,2.327,0.281,3.386,0.843l1.48,0.786c0.578,0.306,1.229,0.47,1.884,0.473
			l1.675,0.008c2.376,0.01,4.595,1.187,5.936,3.146l0.946,1.385c0.368,0.539,0.869,0.987,1.447,1.293l1.48,0.785
			c2.099,1.113,3.516,3.187,3.792,5.546l0.195,1.665c0.076,0.649,0.311,1.278,0.68,1.818l0.946,1.384
			c1.341,1.96,1.632,4.455,0.78,6.672l-0.602,1.563c-0.234,0.611-0.318,1.276-0.242,1.927l0.193,1.665
			c0.277,2.358-0.624,4.703-2.408,6.27l-1.261,1.105c-0.49,0.432-0.875,0.983-1.109,1.595l-0.601,1.563
			c-0.632,1.646-1.834,2.981-3.356,3.789l6.476,15.998c0.239,0.59,0.104,1.264-0.346,1.714c-0.304,0.306-0.71,0.467-1.124,0.467
			c-0.197,0-0.397-0.037-0.588-0.113l-7.208-2.886l-3.17,7.087c-0.257,0.572-0.823,0.938-1.454,0.938h-0.008c0,0-0.007,0-0.015,0
			c-0.635-0.011-1.202-0.4-1.441-0.99l-6.559-16.204L56.612,92.9c-0.243,0.586-0.813,0.972-1.45,0.978c-0.007,0-0.014,0-0.021,0
			c-0.626-0.003-1.193-0.375-1.445-0.951l-3.107-7.114l-7.233,2.821c-0.188,0.073-0.383,0.109-0.577,0.109
			c-0.418,0-0.829-0.166-1.133-0.477c-0.443-0.454-0.574-1.13-0.33-1.717l6.617-15.941c-1.515-0.821-2.706-2.167-3.324-3.817
			l-0.586-1.57c-0.23-0.612-0.609-1.166-1.097-1.602l-1.25-1.117c-1.771-1.583-2.651-3.935-2.354-6.292l0.209-1.662
			c0.082-0.649,0.004-1.315-0.225-1.93l-0.588-1.568c-0.833-2.226-0.519-4.717,0.839-6.665l0.958-1.375
			c0.374-0.537,0.615-1.164,0.696-1.812l0.209-1.663c0.224-1.769,1.086-3.369,2.393-4.521c0.436-0.384,0.921-0.718,1.448-0.991
			l1.488-0.771c0.58-0.302,1.084-0.745,1.459-1.281l0.958-1.376c1.352-1.939,3.566-3.095,5.93-3.095c0.01,0,0.021,0,0.032,0
			l1.675,0.007c0.006,0,0.012,0,0.018,0c0.649,0,1.295-0.158,1.87-0.456l1.487-0.772C61.222,25.734,62.365,25.463,63.509,25.463
			 M56.819,30.676c-0.01,0-0.021,0-0.03,0l-1.676-0.008c-0.006,0-0.012,0-0.018,0c-1.327,0-2.571,0.649-3.33,1.738l-0.957,1.375
			c-0.666,0.956-1.565,1.745-2.6,2.283l-1.487,0.771c-1.184,0.614-1.989,1.771-2.155,3.095l-0.21,1.662
			c-0.146,1.156-0.575,2.273-1.241,3.229l-0.958,1.375c-0.762,1.094-0.938,2.493-0.471,3.741l0.587,1.568
			c0.408,1.093,0.549,2.28,0.402,3.438l-0.209,1.663c-0.166,1.322,0.328,2.643,1.32,3.531l1.25,1.116
			c0.869,0.776,1.545,1.764,1.953,2.855l0.588,1.569c0.467,1.249,1.518,2.188,2.811,2.513l1.626,0.408
			c1.131,0.284,2.187,0.846,3.056,1.621l1.25,1.117c0.752,0.673,1.718,1.032,2.704,1.032c0.317,0,0.637-0.037,0.952-0.113
			l1.629-0.395c0.556-0.135,1.128-0.201,1.699-0.201c0.593,0,1.186,0.072,1.761,0.217l1.625,0.407
			c0.327,0.082,0.659,0.122,0.989,0.122c0.974,0,1.928-0.351,2.678-1.008l1.258-1.105c0.876-0.769,1.938-1.32,3.069-1.595
			l1.63-0.394c1.296-0.313,2.355-1.243,2.833-2.487l0.602-1.564c0.418-1.089,1.103-2.071,1.978-2.84l1.26-1.105
			c1.002-0.88,1.507-2.194,1.353-3.52l-0.194-1.665c-0.136-1.157,0.014-2.344,0.432-3.432l0.602-1.564
			c0.479-1.244,0.313-2.645-0.439-3.745L83.794,45c-0.659-0.961-1.077-2.082-1.214-3.239l-0.193-1.665
			c-0.156-1.324-0.951-2.487-2.13-3.113l-1.48-0.784c-1.028-0.546-1.92-1.344-2.579-2.306l-0.945-1.384
			c-0.752-1.1-1.998-1.761-3.331-1.767l-1.676-0.008c-1.165-0.005-2.325-0.297-3.355-0.842l-1.479-0.786
			c-0.595-0.315-1.249-0.473-1.902-0.473c-0.642,0-1.283,0.151-1.869,0.456l-1.487,0.773C59.126,30.395,57.974,30.676,56.819,30.676
			 M45.67,84.329l5.184-2.024c0.188-0.073,0.384-0.108,0.575-0.108c0.613,0,1.195,0.356,1.455,0.951l2.228,5.101l5.334-12.852
			c-0.474,0.096-0.95,0.145-1.425,0.145c-0.01,0-0.02,0-0.028,0c-1.746-0.008-3.454-0.648-4.785-1.839l-1.248-1.116
			c-0.488-0.436-1.082-0.75-1.717-0.91l-0.29-0.072L45.67,84.329 M67.684,75.576c-0.495,0-0.994-0.051-1.488-0.154l5.221,12.897
			l2.273-5.08c0.263-0.588,0.84-0.939,1.448-0.939c0.195,0,0.395,0.037,0.588,0.114l5.167,2.068l-5.17-12.771l-0.292,0.07
			c-0.636,0.153-1.231,0.464-1.724,0.895l-1.259,1.106C71.115,74.953,69.418,75.576,67.684,75.576 M63.509,24.463
			c-1.314,0-2.626,0.32-3.793,0.926l-1.487,0.772c-0.434,0.225-0.921,0.344-1.409,0.344l-1.688-0.007
			c-2.726,0-5.249,1.316-6.786,3.523l-0.958,1.376c-0.283,0.403-0.663,0.738-1.101,0.966L44.8,33.134
			c-0.594,0.308-1.148,0.688-1.649,1.129c-1.505,1.327-2.472,3.154-2.724,5.146l-0.209,1.664c-0.061,0.488-0.242,0.961-0.524,1.366
			l-0.958,1.374c-1.546,2.219-1.902,5.056-0.955,7.588l0.588,1.568c0.172,0.463,0.23,0.966,0.169,1.454l-0.209,1.662
			c-0.338,2.684,0.664,5.36,2.681,7.163l1.25,1.117c0.367,0.328,0.652,0.745,0.827,1.208l0.585,1.567
			c0.589,1.572,1.643,2.92,3.011,3.871l-6.291,15.154c-0.397,0.957-0.187,2.057,0.538,2.799c0.484,0.495,1.158,0.778,1.849,0.778
			c0.324,0,0.642-0.06,0.943-0.179l6.335-2.471l2.723,6.233c0.41,0.938,1.336,1.546,2.357,1.551c1.074-0.01,2.002-0.636,2.4-1.595
			l5.767-13.893l5.644,13.942c0.391,0.964,1.313,1.598,2.352,1.615c1.06,0,1.988-0.6,2.405-1.528l2.778-6.211l6.316,2.529
			c0.307,0.123,0.63,0.185,0.959,0.185c0.694,0,1.346-0.271,1.834-0.762c0.731-0.733,0.953-1.831,0.562-2.795l-6.156-15.208
			c1.377-0.938,2.441-2.277,3.044-3.845l0.601-1.563c0.177-0.46,0.466-0.876,0.837-1.203l1.259-1.104
			c2.033-1.785,3.058-4.453,2.742-7.139l-0.193-1.663c-0.057-0.49,0.006-0.992,0.183-1.454l0.602-1.562
			c0.97-2.525,0.638-5.365-0.889-7.596l-0.946-1.384c-0.277-0.406-0.454-0.88-0.512-1.37l-0.195-1.665
			c-0.314-2.687-1.928-5.046-4.316-6.312l-1.48-0.786c-0.436-0.229-0.812-0.566-1.09-0.974l-0.947-1.385
			c-1.526-2.232-4.053-3.57-6.757-3.582l-1.674-0.008c-0.493-0.002-0.984-0.125-1.421-0.356l-1.479-0.786
			C66.181,24.795,64.848,24.463,63.509,24.463L63.509,24.463z M56.819,31.676c1.313,0,2.625-0.32,3.792-0.925l1.489-0.774
			c0.432-0.224,0.919-0.343,1.407-0.343c0.498,0,0.994,0.123,1.435,0.356l1.479,0.785c1.176,0.622,2.496,0.953,3.82,0.959
			l1.675,0.008c1.005,0.004,1.943,0.502,2.511,1.331l0.945,1.384c0.751,1.097,1.766,2.004,2.936,2.625l1.481,0.784
			c0.887,0.471,1.487,1.349,1.604,2.347l0.193,1.663c0.156,1.324,0.635,2.599,1.383,3.689l0.942,1.382
			c0.568,0.831,0.692,1.886,0.332,2.822l-0.602,1.564c-0.476,1.239-0.646,2.591-0.491,3.907l0.194,1.665
			c0.116,0.998-0.265,1.989-1.02,2.652l-1.259,1.104c-0.998,0.876-1.776,1.994-2.252,3.233l-0.602,1.564
			c-0.359,0.938-1.157,1.638-2.135,1.874l-1.629,0.394c-1.289,0.312-2.497,0.939-3.494,1.814l-1.259,1.106
			c-0.559,0.489-1.275,0.759-2.018,0.759c-0.251,0-0.502-0.03-0.745-0.092l-1.626-0.407c-0.651-0.164-1.326-0.247-2.004-0.247
			c-0.653,0-1.304,0.077-1.934,0.229l-1.63,0.396c-0.234,0.057-0.477,0.085-0.717,0.085c-0.753,0-1.477-0.275-2.037-0.777
			l-1.251-1.117c-0.991-0.885-2.194-1.523-3.478-1.846l-1.627-0.408c-0.974-0.244-1.766-0.952-2.117-1.893l-0.588-1.57
			c-0.465-1.242-1.233-2.366-2.224-3.251l-1.25-1.116c-0.747-0.669-1.119-1.664-0.994-2.66l0.209-1.663
			c0.166-1.312,0.008-2.666-0.458-3.912l-0.587-1.569c-0.353-0.94-0.22-1.994,0.354-2.819l0.958-1.374
			c0.759-1.09,1.247-2.361,1.413-3.677l0.21-1.662c0.125-0.998,0.731-1.869,1.624-2.332l1.486-0.771
			c1.18-0.613,2.203-1.513,2.96-2.6l0.958-1.375c0.571-0.819,1.51-1.31,2.509-1.31l1.688,0.008h0.002H56.819L56.819,31.676z
			 M47.494,82.543l4.031-9.712c0.278,0.128,0.539,0.297,0.768,0.501l1.247,1.115c1.475,1.319,3.371,2.061,5.348,2.093l-3.8,9.155
			L53.8,82.747c-0.411-0.942-1.342-1.551-2.371-1.551c-0.321,0-0.637,0.06-0.938,0.177L47.494,82.543L47.494,82.543z M67.741,76.576
			c1.977-0.014,3.881-0.737,5.367-2.041l1.259-1.107c0.231-0.202,0.492-0.369,0.771-0.494l3.946,9.748l-2.988-1.196
			c-0.307-0.123-0.63-0.186-0.959-0.186c-1.019,0-1.945,0.602-2.361,1.531l-1.314,2.937L67.741,76.576L67.741,76.576z"/>
	</g>
	<g>
		<path fill="#040000" d="M63.352,68.396c-9.861-0.043-17.849-8.102-17.807-17.963c0.044-9.818,8.066-17.806,17.884-17.806
			c4.85,0.021,9.331,1.903,12.697,5.3c3.367,3.396,5.209,7.894,5.188,12.663c-0.044,9.817-8.067,17.806-17.884,17.806H63.352z
			 M63.429,36.798c-7.528,0-13.68,6.125-13.714,13.654c-0.033,7.562,6.093,13.741,13.654,13.774c7.59,0,13.741-6.125,13.775-13.654
			c0.032-7.562-6.094-13.74-13.654-13.774l-0.062-0.5V36.798z"/>
		<path fill="#FFFFFF" d="M63.429,33.128c0.025,0,0.052,0,0.077,0c9.587,0.042,17.351,7.875,17.309,17.461
			c-0.043,9.561-7.833,17.308-17.384,17.308c-0.025,0-0.052,0-0.077,0c-9.586-0.042-17.35-7.875-17.309-17.461
			C46.088,40.876,53.878,33.128,63.429,33.128 M63.431,64.727c7.809,0,14.179-6.336,14.214-14.152
			c0.033-7.838-6.315-14.241-14.152-14.276c-0.021,0-0.042,0-0.063,0c-7.809,0-14.179,6.335-14.214,14.152
			c-0.034,7.838,6.314,14.242,14.152,14.276C63.388,64.727,63.409,64.727,63.431,64.727 M63.429,32.128
			c-10.092,0-18.339,8.211-18.384,18.304c-0.044,10.137,8.168,18.42,18.304,18.465h0.082c10.092,0,18.339-8.211,18.384-18.303
			c0.021-4.904-1.872-9.527-5.333-13.019s-8.067-5.426-12.971-5.447H63.429L63.429,32.128z M63.431,63.727h-0.059
			c-7.287-0.031-13.189-5.985-13.157-13.271c0.032-7.255,5.96-13.157,13.214-13.157h0.059c7.286,0.032,13.188,5.986,13.157,13.272
			C76.612,57.824,70.685,63.727,63.431,63.727L63.431,63.727z"/>
	</g>
</g>
<g>
	<path d="M54.153,49.97l0.074-0.819c0-0.183-0.024-0.36-0.074-0.534s-0.124-0.36-0.224-0.559c0.199-0.1,0.671-0.289,1.415-0.571
		c0.745-0.281,1.332-0.529,1.763-0.744v-1.838c0-0.562-0.037-0.955-0.111-1.179s-0.286-0.468-0.633-0.732
		c0.148-0.231,0.289-0.431,0.422-0.596c0.132-0.165,0.281-0.298,0.446-0.397c0.215-0.182,0.455-0.285,0.721-0.311
		c0.264-0.024,0.554,0.037,0.868,0.187c0.331,0.133,0.634,0.348,0.906,0.646c0.273,0.298,0.418,0.612,0.435,0.943v2.085
		c0.215-0.049,0.401-0.049,0.559,0c0.157,0.05,0.302,0.166,0.435,0.348c0.215,0.266,0.364,0.634,0.447,1.105
		c0.082,0.472,0.008,0.815-0.224,1.03c-0.166,0.115-0.344,0.223-0.534,0.322s-0.418,0.207-0.683,0.323v1.216l0.993,0.745
		c0.165,0.133,0.298,0.257,0.397,0.372c0.099,0.116,0.182,0.257,0.248,0.422l0.472-0.67c-0.298,0-0.546-0.05-0.745-0.148
		c-0.198-0.1-0.396-0.265-0.596-0.497c-0.133-0.165-0.161-0.348-0.087-0.546c0.074-0.199,0.203-0.397,0.385-0.596
		c0.314,0.05,0.616,0.058,0.906,0.024c0.289-0.033,0.691-0.083,1.204-0.148l0.298-0.497c-0.265,0.017-0.468,0-0.608-0.05
		s-0.344-0.148-0.607-0.298c-0.282-0.165-0.364-0.401-0.249-0.707c0.116-0.307,0.298-0.559,0.547-0.758
		c0.248,0.066,0.5,0.083,0.757,0.05s0.583-0.074,0.98-0.124l0.224-0.546c-0.447,0.083-0.84,0.137-1.18,0.161
		c-0.339,0.024-0.625-0.028-0.856-0.161c-0.281-0.165-0.509-0.339-0.683-0.521c-0.174-0.182-0.203-0.381-0.087-0.596
		c0.05-0.149,0.145-0.273,0.286-0.373c0.14-0.099,0.302-0.223,0.483-0.372l0.124,0.149l2.26-0.323
		c0.033-0.314,0.021-0.587-0.037-0.819c-0.059-0.231-0.17-0.472-0.335-0.72c0.529-0.314,0.885-0.5,1.067-0.559
		c0.182-0.058,0.496-0.013,0.943,0.137l0.348,0.099c0.348,0.116,0.583,0.282,0.707,0.497s0.202,0.53,0.236,0.943l1.961-0.273
		l0.198-0.148c0.249,0.148,0.542,0.327,0.882,0.533c0.339,0.207,0.533,0.419,0.583,0.634c0.017,0.182-0.05,0.331-0.198,0.446
		c-0.149,0.116-0.331,0.224-0.546,0.323L67.51,45.6l-0.273,0.571l2.731-0.447l0.248-0.074l0.72,0.521
		c0.215,0.133,0.281,0.348,0.199,0.646c-0.083,0.298-0.257,0.472-0.521,0.521l-4.121,0.646l-0.323,0.646l4.742-0.646l0.322-0.174
		c0.281,0.165,0.562,0.352,0.845,0.559c0.281,0.207,0.472,0.418,0.57,0.633c0.05,0.149,0.042,0.298-0.024,0.447
		c-0.066,0.148-0.224,0.289-0.472,0.422l-1.738,0.273c0.497,0.513,0.96,0.96,1.391,1.34c0.431,0.381,0.836,0.695,1.217,0.943
		c0,0.1,0.008,0.369,0.024,0.808s0.009,0.757-0.024,0.955c-0.05,0.149-0.146,0.273-0.286,0.373
		c-0.141,0.099-0.285,0.124-0.434,0.074c-0.497-0.198-0.969-0.509-1.416-0.931c-0.446-0.423-0.943-0.932-1.489-1.527
		c0.083,0.133,0.153,0.253,0.211,0.36s0.078,0.22,0.062,0.335c-0.066,0.198-0.232,0.348-0.497,0.447
		c-0.265,0.099-0.538,0.173-0.819,0.223l-0.77,0.124v0.795l2.16-0.348c0.364-0.05,0.612-0.024,0.745,0.074
		c0.132,0.1,0.313,0.356,0.546,0.77c0.1,0.149,0.194,0.319,0.285,0.51s0.128,0.368,0.112,0.533c-0.066,0.232-0.203,0.422-0.41,0.571
		c-0.207,0.148-0.409,0.165-0.608,0.05c-0.099-0.066-0.19-0.141-0.272-0.224c-0.083-0.083-0.166-0.174-0.248-0.273l-2.31,0.323
		v3.178c0,0.248-0.104,0.455-0.31,0.62c-0.208,0.166-0.451,0.273-0.732,0.323c-0.381,0.033-0.712-0.042-0.993-0.224
		c-0.282-0.183-0.422-0.447-0.422-0.795v-2.805l-2.16,0.298c-0.248-0.05-0.456-0.124-0.621-0.224s-0.281-0.239-0.348-0.422
		c-0.099-0.231-0.099-0.455,0-0.671c0.1-0.215,0.249-0.454,0.447-0.72l0.1,0.149l2.582-0.373v-0.72l-1.068,0.174
		c-0.215,0.033-0.385,0.029-0.509-0.013c-0.124-0.041-0.277-0.128-0.459-0.26c-0.033,0.033-0.17,0.207-0.41,0.521
		c-0.239,0.315-0.476,0.601-0.707,0.856c-0.232,0.257-0.455,0.451-0.67,0.584c-0.216,0.133-0.39,0.141-0.521,0.024
		c-0.083-0.065-0.133-0.152-0.149-0.261c-0.017-0.107-0.024-0.235-0.024-0.385c-0.033-0.348-0.083-0.6-0.149-0.757
		s-0.215-0.327-0.446-0.509l0.024,4.519c0,0.148-0.083,0.344-0.248,0.583c-0.166,0.24-0.364,0.468-0.596,0.683
		c-0.381,0.298-0.737,0.479-1.067,0.546c-0.332,0.066-0.563-0.058-0.695-0.372l-0.521-1.341l-0.571-0.894
		c-0.133-0.198-0.27-0.372-0.409-0.521c-0.142-0.148-0.303-0.289-0.484-0.422c-0.216,0.183-0.427,0.327-0.633,0.435
		c-0.207,0.107-0.394,0.079-0.559-0.087c-0.149-0.132-0.207-0.335-0.174-0.608c0.032-0.273,0.058-0.517,0.074-0.732
		c0.017-0.265-0.004-0.513-0.062-0.744c-0.058-0.232-0.145-0.473-0.261-0.721c0.431-0.38,0.873-0.848,1.329-1.402
		c0.455-0.555,0.931-1.221,1.427-1.999l0.571-0.918c-0.397,0.198-0.865,0.405-1.402,0.62c-0.538,0.216-0.965,0.29-1.279,0.224
		c-0.165-0.033-0.269-0.148-0.31-0.348C54.124,50.342,54.12,50.151,54.153,49.97z M57.133,56.548v-1.489l-1.54,1.663
		c0.133,0.017,0.423,0.046,0.869,0.087C56.909,56.851,57.133,56.764,57.133,56.548z M60.037,53.817l0.646-0.844l-0.646-0.547V53.817
		z M64.928,51.211l0.943-0.621l-0.77,0.224l-1.043,1.489l1.143-0.198c-0.033-0.182-0.07-0.344-0.112-0.484
		C65.048,51.479,64.994,51.344,64.928,51.211z M67.46,51.732l1.391-0.224l-1.067-1.093l-1.192,0.124
		c0.249,0.216,0.455,0.406,0.621,0.571C67.377,51.277,67.46,51.483,67.46,51.732z"/>
</g>
</svg>
