<?xml version="1.0" encoding="utf-8"?>
<!-- Generator: Adobe Illustrator 16.0.0, SVG Export Plug-In . SVG Version: 6.00 Build 0)  -->
<!DOCTYPE svg PUBLIC "-//W3C//DTD SVG 1.1//EN" "http://www.w3.org/Graphics/SVG/1.1/DTD/svg11.dtd">
<svg version="1.1" id="Layer_1" xmlns="http://www.w3.org/2000/svg" xmlns:xlink="http://www.w3.org/1999/xlink" x="0px" y="0px"
	 width="126.877px" height="112.438px" viewBox="0 0 126.877 112.438" enable-background="new 0 0 126.877 112.438"
	 xml:space="preserve">
<rect fill="#FFFFFF" width="126.877" height="112.438"/>
<g>
	<g>
		<path fill="#D36DA5" d="M69.75,54.14l3.718-0.329c0.263-0.023,0.384-0.169,0.361-0.431l-0.08-0.892
			c-0.062-0.704,0.366-1.256,1.017-1.312l0.116-0.005c0.631,0,1.148,0.477,1.204,1.109l0.119,1.343
			c0.054,0.608-0.134,1.203-0.528,1.674s-0.947,0.76-1.557,0.813l-4.163,0.368L69.75,54.14z"/>
		<path fill="#FFFFFF" d="M74.882,51.671c0.407,0,0.677,0.315,0.706,0.653l0.119,1.343c0.087,0.983-0.646,1.858-1.631,1.945
			l-3.665,0.324l-0.119-1.343l3.22-0.285c0.536-0.048,0.862-0.436,0.815-0.973l-0.08-0.893c-0.039-0.447,0.206-0.738,0.562-0.77
			C74.834,51.672,74.858,51.671,74.882,51.671 M74.882,50.671c-0.053,0-0.106,0.002-0.162,0.007
			c-0.922,0.081-1.554,0.877-1.469,1.853l0.07,0.79l-3.117,0.277l-0.996,0.088l0.088,0.996l0.119,1.344l0.088,0.995l0.996-0.088
			l3.665-0.324c0.742-0.065,1.415-0.417,1.896-0.99s0.709-1.298,0.644-2.039l-0.119-1.343
			C76.506,51.344,75.774,50.671,74.882,50.671L74.882,50.671z"/>
	</g>
	<g>
		<path fill="#D36DA5" d="M39.933,49.155c-0.097-0.426-0.193-0.851-0.283-1.197c-0.208-2.265,0.44-4.315,1.861-6.009l0.32-0.383
			l6.525,5.466l-1.008,0.211c-2.154,0.452-4.462,1.466-6.5,2.855l-0.602,0.411L39.933,49.155z"/>
		<path fill="#FFFFFF" d="M41.894,42.271l5.353,4.483c-2.211,0.464-4.554,1.482-6.679,2.932c-0.145-0.617-0.297-1.325-0.434-1.853
			C39.959,45.864,40.509,43.922,41.894,42.271 M41.77,40.862l-0.643,0.766c-1.507,1.798-2.195,3.974-1.989,6.294l0.008,0.082
			l0.021,0.08c0.089,0.342,0.184,0.762,0.279,1.182l0.148,0.648l0.333,1.419l1.204-0.821c1.984-1.354,4.229-2.34,6.32-2.779
			l2.016-0.423l-1.579-1.322l-5.352-4.483L41.77,40.862L41.77,40.862z"/>
	</g>
	<g>
		<path fill="#D36DA5" d="M36.972,62.632c-0.521,0-0.893-0.102-1.141-0.31c-1.096-0.918-1.379-3.234-1.439-3.923
			c-0.062-0.688-0.188-3.02,0.73-4.114c0.337-0.402,1.052-0.589,2.251-0.589c0.662,0,1.288,0.057,1.589,0.084l0.131,0.011
			l0.497-0.043l-0.011,0.499l0.684,7.737l-0.388,0.119C39.805,62.125,38.135,62.632,36.972,62.632z"/>
		<path fill="#FFFFFF" d="M37.373,54.196c0.832,0,1.629,0.095,1.704,0.095c0.002,0,0.003,0,0.003,0l0.648,7.334
			c0,0-1.655,0.506-2.757,0.506c-0.355,0-0.653-0.052-0.819-0.191c-1.362-1.143-1.79-5.971-0.647-7.333
			C35.778,54.28,36.591,54.196,37.373,54.196 M37.373,53.196c-1.377,0-2.189,0.236-2.635,0.768c-1.489,1.776-1.007,7.25,0.771,8.741
			c0.341,0.287,0.819,0.426,1.462,0.426c1.216,0,2.865-0.493,3.049-0.55l0.775-0.237l-0.071-0.807l-0.647-7.334l-0.088-0.993
			l-0.928,0.079l-0.054-0.007C38.699,53.254,38.058,53.196,37.373,53.196L37.373,53.196z"/>
	</g>
	<g>
		<path fill="#EBACCC" d="M54.629,71.63c-9.042,0-16.374-5.809-17.055-13.512c-0.73-8.262,6.558-15.68,16.245-16.536
			c0.612-0.054,1.231-0.082,1.842-0.082c9.041,0,16.372,5.809,17.053,13.511c0.356,4.018-1.148,7.953-4.236,11.081
			c-3.065,3.105-7.33,5.043-12.009,5.457C55.857,71.603,55.238,71.63,54.629,71.63z"/>
		<path fill="#FFFFFF" d="M55.661,42c8.654,0,15.893,5.568,16.555,13.055c0.709,8.001-6.362,15.162-15.791,15.996
			c-0.604,0.053-1.204,0.08-1.796,0.08c-8.656,0-15.895-5.568-16.557-13.057c-0.707-8,6.361-15.16,15.791-15.994
			C54.468,42.026,55.068,42,55.661,42 M55.661,41L55.661,41c-0.625,0-1.26,0.028-1.886,0.084
			c-9.962,0.881-17.454,8.542-16.699,17.078c0.704,7.963,8.25,13.969,17.553,13.969c0.624,0,1.258-0.028,1.884-0.084
			c4.797-0.424,9.172-2.414,12.32-5.604c3.193-3.234,4.748-7.311,4.379-11.477C72.509,47.005,64.963,41,55.661,41L55.661,41z"/>
	</g>
</g>
<circle fill="#3F5869" cx="41.732" cy="53.696" r="1.077"/>
<path fill="#D36DA5" d="M60.088,45.225L48.376,46.26c-0.359,0.032-0.691,0.333-0.652,0.779l0,0c0.031,0.355,0.331,0.689,0.778,0.651
	l11.713-1.037c0.358-0.032,0.604-0.322,0.564-0.769l0,0C60.747,45.526,60.446,45.192,60.088,45.225z"/>
<circle fill="#F7CB5E" stroke="#FFFFFF" stroke-miterlimit="10" cx="53.571" cy="38.772" r="7.72"/>
<circle fill="#EFB14E" cx="53.571" cy="38.771" r="5.834"/>
<path fill="#F7CB5E" d="M52.883,41.177c-0.194-0.167-0.308-0.427-0.431-0.776l-1.502,0.315c0.152,0.707,0.475,1.31,0.953,1.628
	c0.487,0.404,1.04,0.539,1.674,0.573l0.062,0.714l0.805-0.07l-0.07-0.805c0.708-0.153,1.31-0.478,1.62-1.045
	c0.407-0.485,0.531-1.13,0.476-1.755c-0.055-0.626-0.282-1.146-0.67-1.474c-0.391-0.324-1.048-0.627-1.966-0.815l-0.183-2.058
	c0.374,0.148,0.666,0.391,0.795,0.832l1.414-0.307c-0.135-0.527-0.443-0.952-0.834-1.278c-0.389-0.324-0.852-0.466-1.485-0.499
	l-0.056-0.627l-0.805,0.072l0.048,0.537c-0.618,0.144-1.138,0.371-1.545,0.857c-0.321,0.478-0.538,1.038-0.483,1.666
	c0.056,0.624,0.281,1.145,0.679,1.561c0.396,0.414,0.955,0.637,1.694,0.841l0.213,2.416C53.19,41.598,52.996,41.436,52.883,41.177z
	 M54.081,39.447c0.365,0.058,0.65,0.212,0.756,0.382c0.105,0.173,0.306,0.424,0.322,0.602c0.023,0.27-0.043,0.548-0.204,0.741
	c-0.163,0.195-0.417,0.397-0.685,0.422L54.081,39.447z M52.536,37.24c-0.105-0.17-0.212-0.344-0.228-0.52
	c-0.016-0.18,0.05-0.456,0.124-0.643c0.072-0.188,0.244-0.294,0.504-0.404l0.174,1.967C52.835,37.574,52.64,37.412,52.536,37.24z"/>
<path fill="#F7CB5E" stroke="#FFFFFF" stroke-miterlimit="10" d="M70.283,23.088c2.612,0.818,4.068,3.601,3.251,6.213
	c-0.821,2.613-3.604,4.067-6.215,3.25c-2.613-0.818-4.068-3.603-3.25-6.215C64.89,23.724,67.671,22.27,70.283,23.088z"/>
<circle fill="#EFB14E" cx="68.801" cy="27.819" r="3.747"/>
<path fill="#F7CB5E" d="M67.803,29.078c-0.074-0.146-0.078-0.329-0.065-0.566l-0.969-0.183c-0.082,0.458-0.04,0.896,0.167,1.201
	c0.19,0.36,0.484,0.575,0.853,0.751l-0.138,0.439l0.495,0.155L68.3,30.38c0.458,0.083,0.896,0.038,1.218-0.222
	c0.361-0.188,0.594-0.54,0.715-0.925c0.119-0.386,0.114-0.749-0.038-1.04c-0.151-0.287-0.469-0.628-0.966-0.966l0.396-1.265
	c0.187,0.179,0.3,0.395,0.269,0.688l0.914,0.166c0.049-0.346-0.029-0.675-0.181-0.963c-0.152-0.289-0.394-0.486-0.76-0.662
	l0.121-0.385l-0.496-0.154l-0.103,0.33c-0.401-0.066-0.767-0.059-1.127,0.129c-0.309,0.206-0.575,0.485-0.696,0.871
	c-0.121,0.384-0.114,0.748,0.02,1.094c0.133,0.342,0.411,0.611,0.801,0.913l-0.467,1.487C67.882,29.402,67.808,29.258,67.803,29.078
	z M68.938,28.346c0.202,0.122,0.334,0.285,0.354,0.412s0.078,0.326,0.042,0.436c-0.05,0.166-0.158,0.314-0.302,0.391
	s-0.345,0.134-0.508,0.081L68.938,28.346z M68.562,26.658c-0.021-0.129-0.041-0.258-0.008-0.364
	c0.035-0.112,0.143-0.261,0.231-0.353c0.089-0.094,0.217-0.115,0.398-0.116l-0.379,1.21C68.657,26.928,68.581,26.784,68.562,26.658z
	"/>
<g>
	<g>
		<path d="M47.409,90.069c-0.419,0-0.837-0.004-1.255-0.012l-0.456-0.009l-0.087-1.19c-0.015-0.21-0.032-0.448,0.001-0.723
			l0.049-0.409l0.41-0.03c0.744-0.055,1.536-0.098,2.375-0.142c-0.042-0.57-0.081-1.118-0.111-1.654
			c-0.578,0.022-1.157,0.032-1.73,0.032c-0.291,0-1.323-0.015-1.323-0.015l-0.088-1.188c-0.014-0.177-0.032-0.423,0.003-0.702
			l0.051-0.405l0.408-0.031c0.791-0.06,1.631-0.104,2.534-0.153c-0.033-0.554-0.051-1.095-0.062-1.613
			c-0.967,0.084-1.821,0.147-2.554,0.202l-0.283,0.021l-0.197-0.229c-0.118-0.169-0.181-0.406-0.223-0.874
			c-0.114,0.229-0.522,1.021-0.522,1.021l-0.381-0.091c-0.135-0.032-0.265-0.068-0.389-0.108c0.015,0.522-0.048,0.999-0.19,1.449
			l-0.103,0.322l-0.337,0.025c-0.607,0.045-1.138,0.073-1.606,0.077c0.162,1.645,0.327,3.383,0.461,5.166l0.022,0.308l-0.266,0.159
			c-0.258,0.153-0.6,0.207-1.033,0.24c-0.282,0.021-0.499,0.036-0.656,0.036c-0.138,0-0.239-0.01-0.33-0.033l-0.328-0.082
			l-0.045-0.336c-0.467-3.457-0.829-6.917-1.077-10.284l-0.018-0.25L38.26,78.4c0.165-0.144,0.406-0.218,1.078-0.333
			c0.156-0.014,0.256-0.018,0.348-0.018c0.253,0,0.47,0.027,0.662,0.083l0.309,0.09l0.047,0.319
			c0.117,0.811,0.235,1.637,0.341,2.468c0.062,0,0.126,0,0.189,0c0.332,0,0.675,0.004,1.03,0.014l-0.141-0.121l0.128-0.33
			c0.576-1.48,1.255-2.984,2.019-4.468l0.182-0.354l0.386,0.098c0.581,0.146,1.127,0.348,1.622,0.598l0.426,0.215l-0.194,0.436
			c-0.36,0.806-0.721,1.587-1.079,2.337c0.463-0.033,2.096-0.138,2.447-0.161c-0.023-1.254-0.011-2.248,0.039-3.101l0.022-0.396
			l0.393-0.067c0.236-0.04,0.493-0.083,0.823-0.107c0.06-0.004,0.122-0.007,0.184-0.007c0.235,0,0.48,0.034,0.728,0.102l0.342,0.093
			l0.026,0.353c0.071,0.956,0.128,1.946,0.184,2.954c0.339-0.023,0.678-0.044,1.015-0.065c0.49-0.03,0.978-0.061,1.459-0.097
			l0.498-0.036l0.092,1.209c0.024,0.333,0.012,0.622-0.039,0.91l-0.067,0.383l-2.847,0.211c0.009,0.278,0.052,1.437,0.061,1.733
			c0.49-0.003,0.954-0.009,1.416-0.027l0.482-0.019l0.036,0.481c0.034,0.465,0.023,0.949-0.034,1.48l-0.045,0.415l-0.532,0.038
			c-0.436,0.032-0.86,0.062-1.269,0.085c0,0.561,0.002,1.121,0.01,1.673l0.672-0.013c0.556-0.009,1.13-0.019,1.726-0.037
			l0.479-0.015l0.036,0.478c0.034,0.47,0.024,0.975-0.032,1.502L53.87,89.8l-0.416,0.031C51.278,89.991,49.302,90.069,47.409,90.069
			z M36.543,86.759c-0.386,0-0.683-0.081-0.907-0.248l-0.184-0.136l-0.018-0.229c-0.178-2.414-0.228-4.08-0.159-5.243l0.023-0.393
			l0.386-0.07c0.234-0.042,0.54-0.087,0.87-0.112c0.072-0.005,0.146-0.008,0.218-0.008c0.249,0,0.503,0.033,0.756,0.098l0.347,0.09
			l0.027,0.357c0.116,1.555,0.177,3.267,0.186,5.232l0.002,0.337l-0.312,0.128c-0.232,0.095-0.538,0.152-0.991,0.187
			C36.701,86.755,36.62,86.759,36.543,86.759z"/>
		<path fill="#FFFFFF" d="M49.52,76.094c0.196,0,0.396,0.029,0.597,0.084c0.083,1.113,0.146,2.271,0.211,3.451
			c1.001-0.074,2.004-0.125,2.982-0.197l0.054,0.712c0.026,0.354,0,0.603-0.032,0.785l-2.936,0.218
			c0.021,0.892,0.067,1.806,0.088,2.699c0.626-0.003,1.275-0.005,1.922-0.03c0.033,0.444,0.021,0.894-0.032,1.39
			c-0.645,0.047-1.268,0.094-1.849,0.113c0,0.895-0.001,1.789,0.02,2.661c0.915-0.022,1.877-0.028,2.903-0.06
			c0.033,0.445,0.022,0.916-0.03,1.412c-2.023,0.149-4.021,0.237-6.008,0.237c-0.415,0-0.83-0.004-1.245-0.012l-0.054-0.735
			c-0.015-0.2-0.029-0.4-0.002-0.627c0.89-0.065,1.849-0.114,2.874-0.168c-0.069-0.935-0.135-1.802-0.174-2.648
			c-0.735,0.038-1.474,0.054-2.204,0.054c-0.288,0-0.574-0.002-0.858-0.007l-0.054-0.732c-0.014-0.178-0.028-0.378,0-0.604
			c0.934-0.07,1.937-0.121,3.029-0.181c-0.07-0.935-0.092-1.827-0.105-2.631c-1.201,0.11-2.245,0.188-3.114,0.252
			c-0.074-0.105-0.116-0.371-0.146-0.793c-0.019-0.245,0.005-0.516,0.075-0.789c1.045-0.078,2.093-0.134,3.138-0.211
			c-0.032-1.339-0.03-2.524,0.028-3.536c0.223-0.038,0.465-0.079,0.775-0.102C49.421,76.096,49.47,76.094,49.52,76.094
			 M44.714,76.333c0.548,0.139,1.055,0.325,1.52,0.56c-0.691,1.549-1.407,3.056-2.15,4.496c-0.569-0.136-1.032-0.348-1.366-0.635
			C43.299,79.257,43.972,77.775,44.714,76.333 M39.686,78.551c0.221,0,0.39,0.023,0.522,0.062c0.138,0.951,0.277,1.925,0.395,2.901
			c0.207-0.003,0.417-0.005,0.631-0.005c0.574,0,1.179,0.013,1.833,0.045c0.041,0.558-0.011,1.054-0.155,1.51
			c-0.645,0.049-1.2,0.077-1.687,0.077c-0.151,0-0.297-0.003-0.436-0.009c0.181,1.82,0.366,3.73,0.515,5.711
			c-0.172,0.103-0.459,0.145-0.815,0.172c-0.266,0.02-0.47,0.035-0.618,0.035c-0.089,0-0.157-0.006-0.208-0.019
			c-0.496-3.677-0.841-7.096-1.073-10.255c0.084-0.073,0.37-0.138,0.833-0.217C39.518,78.554,39.605,78.551,39.686,78.551
			 M36.772,80.82c0.209,0,0.419,0.027,0.631,0.082c0.116,1.556,0.176,3.273,0.185,5.197c-0.195,0.08-0.482,0.124-0.839,0.15
			c-0.072,0.006-0.141,0.009-0.206,0.009c-0.271,0-0.476-0.05-0.609-0.149c-0.167-2.269-0.229-3.986-0.159-5.177
			c0.22-0.04,0.508-0.082,0.818-0.105C36.652,80.822,36.713,80.82,36.772,80.82 M49.52,75.094c-0.074,0-0.149,0.003-0.224,0.009
			c-0.359,0.026-0.642,0.074-0.868,0.113l-0.783,0.134l-0.046,0.794c-0.044,0.754-0.06,1.614-0.047,2.661
			c-0.194,0.013-0.388,0.025-0.581,0.037c-0.182,0.012-0.362,0.023-0.544,0.035c0.24-0.514,0.48-1.039,0.72-1.576l0.389-0.871
			L46.684,76c-0.527-0.267-1.107-0.48-1.725-0.637l-0.771-0.195l-0.363,0.707c-0.771,1.5-1.458,3.02-2.041,4.517l-0.047,0.121
			c-0.084-0.001-0.169-0.002-0.254-0.003c-0.087-0.661-0.183-1.326-0.285-2.04l-0.093-0.638l-0.618-0.179
			c-0.238-0.069-0.5-0.103-0.802-0.103l0,0c-0.103,0-0.216,0.004-0.337,0.013l-0.048,0.003l-0.048,0.009
			c-0.707,0.12-1.048,0.21-1.321,0.448l-0.377,0.329l0.037,0.498c0.026,0.362,0.055,0.726,0.083,1.089l-0.022-0.006
			c-0.293-0.075-0.589-0.113-0.88-0.113c-0.085,0-0.171,0.003-0.256,0.01c-0.381,0.029-0.711,0.08-0.922,0.119l-0.772,0.141
			l-0.046,0.783c-0.07,1.187-0.02,2.874,0.16,5.31l0.033,0.457l0.368,0.273c0.31,0.229,0.715,0.346,1.205,0.346
			c0.089,0,0.184-0.004,0.284-0.012c0.504-0.037,0.856-0.106,1.141-0.222l0.407-0.168c0.094,0.77,0.192,1.539,0.296,2.309
			l0.091,0.671l0.656,0.165c0.131,0.033,0.274,0.049,0.452,0.049c0.166,0,0.395-0.016,0.691-0.038
			c0.507-0.038,0.912-0.106,1.255-0.31l0.53-0.317l-0.046-0.616c-0.119-1.597-0.264-3.155-0.409-4.643
			c0.321-0.013,0.682-0.034,1.095-0.065l0.674-0.051l0.204-0.645c0.098-0.308,0.162-0.624,0.193-0.956l0.555,0.133l0.161-0.311
			l0.237,0.337l0.565-0.042c0.62-0.046,1.307-0.097,2.065-0.16c0.006,0.197,0.014,0.396,0.022,0.598
			c-0.72,0.039-1.399,0.079-2.047,0.128l-0.815,0.062L44.7,83.965c-0.041,0.33-0.02,0.616-0.005,0.805l0.054,0.729l0.066,0.911
			l0.914,0.016c0.29,0.005,0.582,0.007,0.875,0.007c0.428,0,0.85-0.005,1.261-0.017c0.015,0.221,0.029,0.441,0.045,0.666
			c-0.655,0.036-1.28,0.072-1.875,0.116l-0.821,0.06l-0.099,0.817c-0.038,0.323-0.019,0.599-0.002,0.82l0.054,0.735l0.066,0.909
			l0.912,0.018c0.421,0.008,0.842,0.012,1.264,0.012c1.904,0,3.894-0.078,6.082-0.24l0.832-0.062l0.088-0.83
			c0.06-0.557,0.07-1.093,0.033-1.592l-0.071-0.954l-0.956,0.028c-0.594,0.019-1.166,0.028-1.72,0.037
			c-0.057,0.001-0.112,0.002-0.169,0.003c-0.002-0.229-0.003-0.461-0.003-0.692c0.262-0.018,0.53-0.037,0.804-0.057l0.116-0.009
			l0.832-0.061l0.09-0.829c0.061-0.562,0.072-1.075,0.035-1.571l-0.071-0.963l-0.965,0.038c-0.305,0.012-0.61,0.019-0.913,0.022
			c-0.005-0.137-0.01-0.273-0.015-0.41c-0.005-0.119-0.01-0.237-0.014-0.356l1.98-0.146l0.775-0.058l0.135-0.766
			c0.058-0.326,0.072-0.664,0.045-1.033l-0.054-0.713l-0.075-0.995l-0.996,0.073c-0.479,0.035-0.965,0.065-1.453,0.096
			c-0.17,0.011-0.342,0.021-0.513,0.032c-0.046-0.825-0.097-1.656-0.156-2.459l-0.053-0.705l-0.683-0.186
			C50.088,75.134,49.8,75.094,49.52,75.094L49.52,75.094z"/>
	</g>
	<g>
		<path d="M67.625,88.533c-0.305,0-0.6-0.018-0.896-0.054l-0.408-0.048l-0.031-0.411c-0.112-1.521-0.053-3.772,0.172-6.512
			l0.035-0.427l0.427-0.031c0.154-0.011,0.312-0.017,0.47-0.017c0.373,0,0.759,0.03,1.146,0.089l0.396,0.06l0.029,0.398
			c0.034,0.474,0.002,1.546-0.054,3.256c-0.055,1.108-0.133,2.19-0.234,3.225l-0.042,0.419l-0.419,0.031
			C68.012,88.526,67.816,88.533,67.625,88.533z M73.758,88.379c-0.182,0-0.333-0.014-0.464-0.042l-0.305-0.065l-0.075-0.302
			c-0.564-2.269-0.951-4.599-1.147-6.928l-0.033-0.395l0.376-0.123c0.247-0.08,0.543-0.167,0.864-0.191l1.174-0.085l0.089,0.43
			c0.471,2.294,0.811,4.576,1.036,6.978l0.027,0.293l-0.243,0.167c-0.244,0.167-0.547,0.22-0.927,0.249
			C73.991,88.374,73.867,88.379,73.758,88.379z M60.749,86.781c-0.438-1.601-0.813-3.252-1.117-4.917
			c-0.339,0.118-0.675,0.228-1.021,0.327l-0.249,0.071l-0.202-0.161c-0.382-0.307-0.668-0.763-0.851-1.356l-0.11-0.357l0.312-0.206
			c1.541-1.017,3.322-1.88,5.293-2.566l0.306-0.106l0.223,0.236c0.315,0.335,0.527,0.707,0.646,1.132
			c1.893-2.213,4.083-4.359,6.514-6.385l0.279-0.233l0.308,0.194c0.519,0.326,0.911,0.722,1.202,1.207l0.202,0.341
			c0,0-0.511,0.494-0.557,0.539c1.604,1.199,3.229,2.448,4.876,3.715l0.303,0.233l-0.145,0.354c-0.182,0.439-0.504,0.87-1.016,1.355
			l-0.277,0.265l-0.327-0.2c-1.808-1.106-3.546-2.369-5.301-3.854c-1.553,1.513-3.069,3.003-4.548,4.471l-0.28,0.278l-0.336-0.208
			c-0.576-0.357-0.966-0.767-1.161-1.22c-0.561,0.416-1.126,0.779-1.686,1.084c0.438,1.855,0.785,3.639,1.06,5.438l0.059,0.38
			l-0.353,0.153c-0.476,0.207-0.96,0.323-1.525,0.365l-0.411,0.03L60.749,86.781z"/>
		<path fill="#FFFFFF" d="M70.812,72.876c0.446,0.281,0.784,0.614,1.039,1.041c-0.251,0.243-0.48,0.461-0.688,0.679
			c1.752,1.302,3.53,2.668,5.334,4.056c-0.151,0.368-0.438,0.748-0.896,1.184c-1.922-1.176-3.768-2.539-5.584-4.104
			c-1.668,1.623-3.295,3.22-4.878,4.792c-0.517-0.32-0.854-0.676-0.996-1.068C66.074,77.164,68.306,74.964,70.812,72.876
			 M62.968,78.088c0.315,0.335,0.499,0.702,0.577,1.143c-0.656,0.497-1.36,0.951-2.094,1.319c0.451,1.868,0.839,3.784,1.143,5.775
			c-0.433,0.188-0.872,0.288-1.362,0.324c-0.492-1.797-0.896-3.623-1.211-5.458c-0.522,0.196-1.023,0.368-1.549,0.52
			c-0.309-0.247-0.538-0.633-0.686-1.112C59.279,79.614,61.005,78.771,62.968,78.088 M73.746,80.778
			c0.489,2.38,0.817,4.681,1.028,6.924c-0.148,0.102-0.369,0.14-0.682,0.163c-0.125,0.01-0.236,0.014-0.335,0.014
			c-0.146,0-0.264-0.01-0.358-0.03c-0.574-2.305-0.943-4.581-1.135-6.849c0.263-0.086,0.503-0.149,0.747-0.168L73.746,80.778
			 M67.393,81.535c0.355,0,0.718,0.029,1.071,0.082c0.032,0.445,0,1.521-0.055,3.203c-0.053,1.077-0.131,2.158-0.232,3.192
			c-0.189,0.014-0.372,0.021-0.552,0.021c-0.284,0-0.561-0.017-0.837-0.05c-0.105-1.425-0.063-3.574,0.171-6.434
			C67.102,81.539,67.246,81.535,67.393,81.535 M70.729,71.643l-0.559,0.465c-2.232,1.861-4.264,3.823-6.053,5.846
			c-0.117-0.193-0.258-0.377-0.422-0.551l-0.445-0.473l-0.612,0.214c-2.009,0.7-3.827,1.581-5.403,2.62l-0.625,0.412l0.22,0.717
			c0.213,0.691,0.555,1.229,1.017,1.599l0.404,0.324l0.498-0.144c0.164-0.047,0.329-0.098,0.497-0.151
			c0.286,1.487,0.628,2.96,1.021,4.394l0.218,0.793l0.82-0.061c0.615-0.045,1.167-0.178,1.688-0.404l0.705-0.308l-0.116-0.761
			c-0.258-1.693-0.581-3.372-0.981-5.109c0.32-0.188,0.642-0.392,0.962-0.612c0.254,0.338,0.604,0.646,1.05,0.921l0.671,0.416
			l0.56-0.557c0.051-0.049,0.101-0.1,0.151-0.148l-0.032,0.384c-0.227,2.765-0.285,5.044-0.171,6.589l0.061,0.822l0.818,0.098
			c0.323,0.038,0.635,0.057,0.955,0.057c0.203,0,0.411-0.008,0.626-0.023l0.839-0.062l0.082-0.838
			c0.103-1.042,0.182-2.132,0.236-3.241c0.057-1.742,0.089-2.825,0.053-3.324l-0.058-0.797l-0.79-0.119
			c-0.412-0.062-0.823-0.094-1.221-0.094c-0.171,0-0.339,0.006-0.505,0.018l-0.386,0.027c1.126-1.115,2.302-2.27,3.562-3.499
			c1.197,0.993,2.388,1.887,3.602,2.7l-0.727,0.054c-0.377,0.028-0.709,0.124-0.984,0.215l-0.752,0.246l0.066,0.788
			c0.198,2.355,0.589,4.713,1.16,7.006l0.15,0.604l0.609,0.132c0.166,0.035,0.352,0.053,0.569,0.053c0.121,0,0.257-0.005,0.41-0.017
			c0.37-0.027,0.797-0.079,1.171-0.335l0.486-0.332l-0.055-0.587c-0.229-2.42-0.569-4.72-1.045-7.031L74.7,80.453
			c0.126,0.079,0.252,0.157,0.379,0.234l0.653,0.4l0.557-0.527c0.564-0.535,0.925-1.021,1.133-1.529l0.291-0.707l-0.606-0.465
			c-1.625-1.251-3.028-2.328-4.412-3.367l0.421-0.408l-0.406-0.68c-0.331-0.555-0.777-1.005-1.364-1.374L70.729,71.643
			L70.729,71.643z"/>
	</g>
	<g>
		<path d="M85.186,85.362c-1.117,0-2.176-0.055-3.147-0.164l-0.412-0.047l-0.031-0.413c-0.261-3.533-0.271-6.842-0.028-10.115
			l0.029-0.391l0.386-0.065c0.257-0.043,0.539-0.087,0.821-0.108c0.08-0.006,0.158-0.009,0.236-0.009
			c0.22,0,0.438,0.021,0.641,0.042l0.452,0.048l-0.005,0.454c-0.009,0.9-0.003,1.783,0.019,2.649c1.485,0.017,3.03,0.086,4.6,0.205
			l0.428,0.033l0.033,0.428c0.033,0.442-0.001,0.946-0.104,1.539l-0.066,0.384l-0.389,0.029c-0.634,0.047-1.285,0.07-1.935,0.07
			c-0.84,0-1.697-0.039-2.558-0.118c-0.007,0.953-0.001,1.907,0.016,2.859c1.151,0.047,2.331,0.078,3.513,0.106l0.451,0.011
			l0.035,0.45c0.016,0.19,0.016,0.395,0.015,0.627l-0.001,0.173c0.016,0.195-0.006,0.452-0.032,0.731l-0.04,0.425l-0.432,0.084
			C86.814,85.335,85.976,85.362,85.186,85.362z M93.246,84.885c-0.522,0-0.952-0.03-1.312-0.092l-0.385-0.067l-0.029-0.389
			c-0.201-2.736-0.217-5.707-0.046-8.829l0.021-0.385l0.377-0.077c0.191-0.04,0.435-0.083,0.75-0.106
			c0.077-0.005,0.152-0.008,0.227-0.008c0.22,0,0.426,0.022,0.615,0.047l0.454,0.06l-0.019,0.458
			c-0.024,0.575-0.023,1.138-0.019,1.686c0.854-0.013,1.701-0.022,2.537-0.022c0.487,0,0.97,0.003,1.448,0.012l0.457,0.009
			l0.033,0.455c0.031,0.438-0.001,0.919-0.104,1.516l-0.066,0.385l-0.39,0.029c-1.166,0.087-2.349,0.129-3.614,0.129
			c-0.099,0-0.197,0-0.296-0.001c0.009,0.86,0.036,1.711,0.067,2.57c0.517-0.022,3.838-0.174,3.838-0.174l0.086,1.149
			c0.025,0.362,0.028,0.658,0.007,0.835l-0.038,0.315l-0.301,0.1c-0.363,0.12-1.103,0.208-2.825,0.335
			C94.174,84.863,93.682,84.885,93.246,84.885z"/>
		<path fill="#FFFFFF" d="M83.039,74.55c0.201,0,0.401,0.02,0.588,0.039c-0.011,1.074,0,2.124,0.032,3.15
			c1.722,0.007,3.405,0.083,5.048,0.208c0.03,0.399-0.003,0.871-0.098,1.415c-0.624,0.046-1.258,0.069-1.897,0.069
			c-1.002,0-2.021-0.057-3.053-0.171c-0.015,1.298-0.008,2.596,0.021,3.892c1.302,0.059,2.646,0.095,3.991,0.127
			c0.018,0.224,0.012,0.469,0.012,0.761c0.017,0.223-0.01,0.471-0.035,0.741c-0.851,0.054-1.672,0.081-2.462,0.081
			c-1.092,0-2.124-0.052-3.092-0.161c-0.25-3.382-0.274-6.714-0.028-10.041c0.242-0.041,0.509-0.083,0.775-0.104
			C82.907,74.552,82.973,74.55,83.039,74.55 M92.848,75.432c0.196,0,0.381,0.021,0.551,0.043c-0.032,0.762-0.021,1.5-0.013,2.215
			c1.021-0.016,2.034-0.031,3.031-0.031c0.484,0,0.964,0.004,1.439,0.013c0.029,0.401-0.004,0.85-0.098,1.395
			c-1.155,0.086-2.343,0.128-3.577,0.128c-0.265,0-0.53-0.002-0.799-0.006c0.001,1.208,0.045,2.391,0.089,3.595
			c1.249-0.048,2.52-0.118,3.856-0.174l0.05,0.667c0.027,0.378,0.023,0.625,0.01,0.738c-0.349,0.115-1.261,0.204-2.705,0.311
			c-0.532,0.04-1.012,0.061-1.436,0.061c-0.482,0-0.893-0.027-1.229-0.085c-0.2-2.714-0.217-5.644-0.046-8.765
			c0.175-0.036,0.397-0.075,0.686-0.097C92.723,75.434,92.786,75.432,92.848,75.432 M83.039,73.55c-0.091,0-0.181,0.003-0.271,0.01
			c-0.308,0.023-0.599,0.069-0.869,0.114l-0.772,0.131l-0.058,0.781c-0.244,3.299-0.235,6.631,0.028,10.189l0.061,0.827l0.825,0.093
			c0.989,0.111,2.067,0.167,3.203,0.167c0.801,0,1.65-0.028,2.524-0.083l0.854-0.054l0.08-0.851l0.005-0.057
			c0.024-0.263,0.051-0.533,0.034-0.81v-0.14c0.002-0.248,0.001-0.466-0.015-0.668l-0.071-0.9l-0.902-0.021
			c-1.117-0.026-2.096-0.053-3.031-0.088c-0.009-0.61-0.012-1.224-0.012-1.836c0.693,0.051,1.383,0.076,2.061,0.076
			c0.662,0,1.325-0.023,1.972-0.072l0.777-0.058l0.134-0.768c0.11-0.635,0.146-1.179,0.109-1.663l-0.064-0.855l-0.856-0.065
			c-1.411-0.107-2.802-0.175-4.148-0.2c-0.013-0.706-0.015-1.427-0.008-2.151l0.009-0.908l-0.903-0.096
			C83.528,73.572,83.29,73.55,83.039,73.55L83.039,73.55z M92.848,74.432c-0.086,0-0.173,0.003-0.262,0.01
			c-0.365,0.027-0.641,0.078-0.815,0.114l-0.754,0.156l-0.043,0.769c-0.172,3.144-0.156,6.136,0.048,8.893l0.058,0.779l0.77,0.133
			c0.389,0.067,0.846,0.1,1.398,0.1c0.442,0,0.937-0.021,1.51-0.063c1.79-0.132,2.533-0.222,2.944-0.358l0.604-0.199l0.076-0.63
			c0.032-0.267,0.015-0.653-0.006-0.931l-0.05-0.669l-0.072-0.965l-0.967,0.04c-0.608,0.025-1.203,0.054-1.789,0.082
			c-0.357,0.017-0.711,0.033-1.062,0.049c-0.018-0.52-0.032-1.033-0.042-1.547c1.199-0.005,2.327-0.048,3.44-0.131l0.779-0.058
			l0.132-0.771c0.11-0.637,0.145-1.157,0.109-1.637l-0.066-0.91l-0.913-0.017c-0.481-0.009-0.967-0.013-1.457-0.013
			c-0.674,0-1.354,0.008-2.04,0.017c0-0.382,0.004-0.769,0.021-1.158l0.039-0.915l-0.908-0.118
			C93.335,74.458,93.103,74.432,92.848,74.432L92.848,74.432z"/>
	</g>
</g>
</svg>
