<?xml version="1.0" encoding="utf-8"?>
<!-- Generator: Adobe Illustrator 16.0.0, SVG Export Plug-In . SVG Version: 6.00 Build 0)  -->
<!DOCTYPE svg PUBLIC "-//W3C//DTD SVG 1.1//EN" "http://www.w3.org/Graphics/SVG/1.1/DTD/svg11.dtd">
<svg version="1.1" id="Layer_1" xmlns="http://www.w3.org/2000/svg" xmlns:xlink="http://www.w3.org/1999/xlink" x="0px" y="0px"
	 width="126.877px" height="112.438px" viewBox="0 0 126.877 112.438" enable-background="new 0 0 126.877 112.438"
	 xml:space="preserve">
<rect fill="#FFFFFF" width="126.877" height="112.438"/>
<g>
	<path d="M42.562,44.72c-5.063-0.221-8.112-0.582-9.062-1.075l-0.204-0.105l-0.053-0.225c-0.164-0.707-0.234-1.752-0.234-3.494
		c0.112-3.319,0.345-6.716,0.689-10.114l0.045-0.449h0.452c0.654,0,1.253,0.056,1.811,0.112l0.473,0.048l-0.024,0.475
		c-0.102,2-0.178,3.896-0.229,5.776c0.46-0.019,0.948-0.032,1.465-0.032c1.684,0,3.129,0.075,4.295,0.223l0.31,0.039l0.101,0.295
		c0.063,0.186,0.14,0.507,0.14,0.988c0,0.333-0.029,0.785-0.168,1.054L42.279,38.4l-0.173,0.068
		c-0.176,0.07-0.502,0.201-4.418,0.201c-0.615,0-1.137,0-1.557-0.009c-0.035,0.887-0.058,1.772-0.079,2.646
		c2.085,0.256,4.392,0.406,7.034,0.46c2.892,0,4.102-0.072,4.572-0.149c-0.048-3.275-0.05-6.595-0.05-9.82
		c-3.169-0.166-6.244-0.408-9.148-0.72l-0.345-0.037l-0.086-0.336c-0.072-0.281-0.072-0.591-0.072-0.948
		c0-0.356,0.066-0.719,0.196-1.077l0.119-0.33h0.351c0.389,0,0.776,0.007,1.164,0.014c0.246,0.005,0.491,0.009,0.737,0.012
		c0.179-0.826,0.418-1.688,0.729-2.625l0.13-0.39l0.407,0.052c0.717,0.091,1.382,0.21,2.034,0.365l0.519,0.123l-0.155,0.509
		c-0.213,0.697-0.408,1.396-0.599,2.081c2.125,0.107,4.314,0.264,6.518,0.466l0.435,0.04l0.019,0.436
		c0.096,2.161,0.193,4.699,0.193,7.144c0,3.588-0.104,6.057-0.309,7.338l-0.055,0.34l-0.337,0.07
		c-1.26,0.263-3.773,0.396-7.472,0.396H42.562z"/>
	<path fill="#FFFFFF" d="M41.729,25.908c0.633,0.08,1.295,0.192,1.981,0.355c-0.276,0.906-0.524,1.815-0.77,2.695
		c2.362,0.109,4.728,0.275,7.121,0.495c0.11,2.5,0.192,4.868,0.192,7.121c0,3.63-0.109,6.051-0.303,7.259
		c-1.184,0.247-3.631,0.386-7.369,0.386c-5.061-0.22-8.003-0.577-8.854-1.019c-0.166-0.714-0.222-1.84-0.222-3.381
		c0.109-3.218,0.332-6.57,0.687-10.063c0.635,0,1.212,0.054,1.76,0.109c-0.109,2.144-0.191,4.234-0.245,6.325
		c0.604-0.029,1.265-0.056,1.979-0.056c1.76,0,3.161,0.083,4.232,0.219c0.057,0.165,0.112,0.44,0.112,0.826
		c0,0.438-0.056,0.715-0.112,0.824c-0.273,0.109-1.702,0.165-4.232,0.165c-0.881,0-1.568,0-2.035-0.026
		c-0.055,1.208-0.083,2.419-0.111,3.603c2.284,0.302,4.786,0.466,7.535,0.521c3.218,0,4.923-0.082,5.087-0.303
		c-0.055-3.547-0.055-7.095-0.055-10.642c-3.299-0.165-6.518-0.412-9.595-0.742c-0.057-0.221-0.057-0.496-0.057-0.824
		c0-0.303,0.057-0.605,0.166-0.907c0.771,0,1.539,0.027,2.309,0.027C41.125,27.887,41.4,26.897,41.729,25.908 M41.04,24.812
		l-0.26,0.78c-0.268,0.804-0.482,1.555-0.653,2.276c-0.11-0.002-0.22-0.004-0.33-0.006c-0.391-0.007-0.781-0.014-1.173-0.014h-0.701
		l-0.239,0.659c-0.149,0.413-0.226,0.833-0.226,1.248c0,0.375,0,0.729,0.088,1.073l0.173,0.672l0.689,0.073
		c2.768,0.297,5.69,0.531,8.701,0.696c0.001,2.93,0.004,5.93,0.043,8.9c-0.602,0.05-1.78,0.096-4.075,0.096
		c-2.419-0.049-4.564-0.182-6.514-0.403c0.015-0.562,0.03-1.129,0.05-1.696c0.32,0.002,0.679,0.002,1.075,0.002
		c4.013,0,4.354-0.137,4.604-0.236l0.346-0.139l0.171-0.33c0.149-0.287,0.225-0.72,0.225-1.284c0-0.55-0.091-0.93-0.167-1.151
		l-0.201-0.589l-0.618-0.078c-1.188-0.15-2.653-0.227-4.358-0.227c-0.33,0-0.647,0.006-0.95,0.014
		c0.052-1.702,0.122-3.425,0.215-5.232l0.048-0.949l-0.945-0.097c-0.57-0.058-1.184-0.114-1.861-0.114h-0.903l-0.092,0.899
		c-0.346,3.408-0.578,6.816-0.69,10.13c-0.001,1.816,0.073,2.896,0.246,3.642l0.105,0.449l0.408,0.212
		c0.657,0.341,2.333,0.829,9.271,1.13c0.012,0,0.025,0,0.038,0c3.755,0,6.29-0.137,7.578-0.406l0.675-0.141l0.108-0.68
		c0.209-1.308,0.315-3.803,0.315-7.417c0-2.454-0.098-4.999-0.193-7.165l-0.039-0.872l-0.869-0.08
		c-1.994-0.183-3.978-0.329-5.913-0.435c0.137-0.486,0.278-0.978,0.427-1.468l0.311-1.019l-1.035-0.246
		c-0.67-0.159-1.354-0.282-2.088-0.375L41.04,24.812L41.04,24.812z"/>
</g>
<g>
	<path d="M44.591,76.38c-0.43,0-0.744-0.032-0.989-0.102l-0.315-0.09l-0.044-0.324c-0.165-1.204-0.285-2.328-0.365-3.412
		c-1.525,0.744-3.148,1.481-5.048,2.292l-0.347,0.148L37.244,74.6c-0.37-0.457-0.7-1.035-0.981-1.721l-0.176-0.429l0.415-0.208
		c1.557-0.778,3.123-1.497,4.677-2.146c-1.282-0.055-2.65-0.132-4.186-0.235l-0.354-0.024l-0.094-0.343
		c-0.085-0.312-0.127-0.625-0.127-0.956c0-0.23,0-0.518,0.065-0.842l0.081-0.4h0.409c1.878,0,3.771,0.047,5.612,0.095
		c-0.008-0.192-0.008-0.386-0.008-0.585v-0.054l-0.147-0.197c-0.632-0.845-0.996-1.854-1.116-3.085l-0.034-0.353l0.168-0.077
		c-1.761,0.097-3.527,0.162-5.291,0.194l-0.437,0.008l-0.066-0.432c-0.08-0.521-0.117-1.077-0.117-1.753v-0.457l0.455-0.041
		c3.946-0.356,8.478-0.662,13.469-0.907l0.412-0.021l0.098,0.4c0.059,0.238,0.125,0.557,0.125,0.915c0,0.531-0.04,0.849-0.063,0.99
		l-0.062,0.371l-0.374,0.043c-1.891,0.216-3.802,0.394-5.723,0.533c0.452,0.663,0.769,1.55,0.987,2.76l0.063,0.353
		c0,0-0.344,0.19-0.358,0.198h0.739l0.056,0.438c0.027,0.215,0.048,0.431,0.068,0.644c0.007,0.075,0.015,0.15,0.021,0.226
		c1.787,0.062,3.544,0.167,5.108,0.262l0.47,0.028v1.186c0,0.299-0.051,0.615-0.156,0.969l-0.106,0.357h-0.373
		c-0.834,0-1.677-0.007-2.524-0.02c1.399,0.391,2.865,0.854,4.476,1.411l0.469,0.163l-0.159,0.47
		c-0.183,0.541-0.417,1.036-0.735,1.558l-0.178,0.291l-0.336-0.06c-1.98-0.351-3.543-0.814-4.778-1.417l-0.387-0.188l0.13-0.411
		c0.22-0.698,0.465-1.244,0.748-1.668l0.106-0.159c-0.505-0.01-1.011-0.022-1.517-0.036c0.132,1.783,0.209,3.588,0.234,5.497
		l0.005,0.351l-0.328,0.124C45.313,76.324,44.978,76.38,44.591,76.38z M36.164,67.117c-0.677-0.739-1.083-1.707-1.176-2.8
		l-0.029-0.338l0.304-0.151c0.422-0.21,0.953-0.364,1.581-0.459l0.257-0.039l0.18,0.188c0.598,0.627,0.991,1.503,1.202,2.676
		l0.063,0.353l-0.313,0.174c-0.573,0.317-1.096,0.494-1.644,0.556l-0.253,0.028L36.164,67.117z M49.319,66.755
		c-0.817,0-1.453-0.175-1.944-0.535l-0.261-0.19l0.066-0.315c0.221-1.057,0.528-2.026,0.913-2.881l0.146-0.323l0.353,0.03
		c0.675,0.057,1.298,0.247,1.904,0.583l0.352,0.194l-0.114,0.386c-0.432,1.452-0.721,2.282-0.967,2.775l-0.138,0.276H49.319z
		 M37.357,60.319l-0.099-0.372c-0.172-0.647-0.324-1.345-0.462-2.119c-1.318-0.061-2.532-0.165-3.58-0.26l-0.273-0.024L32.817,57.3
		c-0.112-0.217-0.112-0.506-0.112-1.08c0-0.334,0.044-0.651,0.13-0.942l0.106-0.358h0.373c0.608,0,1.217,0.008,1.824,0.015
		c0.411,0.005,0.823,0.01,1.234,0.013c-0.043-0.364-0.073-0.727-0.091-1.096l-0.022-0.441l0.437-0.075
		c0.67-0.116,1.354-0.173,2.091-0.173h0.42l0.072,0.414c0.052,0.296,0.098,0.586,0.143,0.873c0.03,0.189,0.06,0.377,0.091,0.564
		c2.229,0.054,4.436,0.128,6.572,0.221c0.107-0.686,0.246-1.351,0.381-1.979l0.077-0.36l0.367-0.033
		c0.316-0.028,0.661-0.056,1.008-0.056l0.227,0.026c0.334,0.047,0.562,0.082,0.723,0.133l0.373,0.119l-0.026,0.391
		c-0.045,0.665-0.105,1.31-0.181,1.922l4.004,0.241v1.215c0,0.435-0.035,0.755-0.107,0.979l-0.111,0.347h-0.364
		c-1.332,0-2.599,0-3.817-0.021c-0.049,0.265-0.221,1.175-0.221,1.175l-0.221,0.11c-0.235,0.119-0.55,0.163-1.158,0.163
		c-0.357,0-0.769-0.022-1.102-0.188l-0.296-0.147l0.02-0.33c0.017-0.285,0.033-0.557,0.055-0.817
		c-2.065-0.007-4.011-0.053-5.797-0.137c0.065,0.501,0.122,0.998,0.178,1.484l0.069,0.601l-0.466,0.081
		c-0.65,0.112-1.309,0.169-1.956,0.169H37.357z"/>
	<path fill="#FFFFFF" d="M47.918,53.305c0.383,0.054,0.632,0.083,0.797,0.136c-0.056,0.826-0.139,1.65-0.248,2.422
		c1.374,0.082,2.723,0.165,4.07,0.245v0.744c0,0.384-0.029,0.659-0.083,0.826c-1.484,0-2.888,0-4.233-0.029
		c-0.083,0.467-0.167,0.907-0.25,1.347c-0.165,0.083-0.467,0.109-0.934,0.109c-0.356,0-0.659-0.026-0.879-0.136
		c0.026-0.44,0.053-0.909,0.11-1.347c-2.531,0-4.842-0.057-6.93-0.167c0.109,0.743,0.192,1.484,0.274,2.202
		c-0.633,0.109-1.264,0.162-1.871,0.162c-0.219-0.824-0.384-1.648-0.521-2.474c-1.429-0.055-2.75-0.166-3.959-0.275
		c-0.057-0.109-0.057-0.411-0.057-0.851c0-0.248,0.027-0.523,0.109-0.801c1.212,0,2.422,0.029,3.63,0.029
		c-0.083-0.549-0.136-1.072-0.163-1.622c0.632-0.109,1.292-0.165,2.006-0.165c0.11,0.633,0.193,1.238,0.303,1.842
		c2.476,0.057,4.95,0.139,7.424,0.25c0.111-0.827,0.276-1.624,0.441-2.395C47.258,53.331,47.587,53.305,47.918,53.305
		 M49.485,60.151c0.054,0.22,0.11,0.494,0.11,0.796c0,0.44-0.029,0.744-0.057,0.907c-4.344,0.496-8.826,0.797-13.391,0.88
		c-0.084-0.547-0.111-1.099-0.111-1.677C39.999,60.699,44.479,60.397,49.485,60.151 M43.326,62.983
		c0.494,0.631,0.823,1.54,1.042,2.75c-0.548,0.303-1.042,0.468-1.537,0.521c-0.577-0.771-0.909-1.705-1.019-2.833
		C42.225,63.23,42.719,63.094,43.326,62.983 M48.55,63.038c0.66,0.056,1.208,0.248,1.704,0.522
		c-0.384,1.292-0.688,2.199-0.935,2.694c-0.687,0-1.237-0.137-1.649-0.438C47.889,64.771,48.191,63.834,48.55,63.038 M36.918,63.863
		c0.522,0.548,0.88,1.349,1.072,2.42c-0.494,0.273-0.963,0.44-1.457,0.496c-0.605-0.661-0.963-1.515-1.047-2.504
		C35.872,64.083,36.367,63.946,36.918,63.863 M44.864,66.695c0.056,0.438,0.083,0.88,0.139,1.292
		c1.869,0.057,3.712,0.166,5.525,0.275v0.715c0,0.275-0.054,0.551-0.136,0.826c-1.76,0-3.521-0.029-5.227-0.083
		c0.166,2.062,0.249,4.04,0.275,6.021c-0.22,0.083-0.494,0.139-0.851,0.139c-0.386,0-0.66-0.028-0.854-0.083
		c-0.191-1.403-0.331-2.749-0.411-4.124c-1.926,0.961-3.824,1.813-5.693,2.611c-0.356-0.439-0.659-0.99-0.907-1.595
		c2.144-1.072,4.316-2.035,6.462-2.859c0-0.056,0-0.109,0-0.165c-2.089-0.054-4.125-0.165-6.16-0.303
		c-0.083-0.303-0.109-0.577-0.109-0.824c0-0.221,0-0.468,0.056-0.742c2.062,0,4.125,0.056,6.16,0.109
		c-0.056-0.359-0.056-0.715-0.056-1.1c0.301-0.056,0.604-0.11,0.906-0.11H44.864 M47.533,70.71c1.594,0.439,3.134,0.934,4.646,1.458
		c-0.167,0.494-0.386,0.962-0.688,1.457c-1.869-0.331-3.409-0.771-4.646-1.374C47.037,71.644,47.258,71.122,47.533,70.71
		 M47.988,52.305h-0.07c-0.381,0-0.743,0.03-1.053,0.058l-0.733,0.066l-0.154,0.721c-0.107,0.501-0.218,1.024-0.313,1.565
		c-1.867-0.079-3.786-0.143-5.724-0.191c-0.009-0.052-0.017-0.103-0.024-0.153c-0.045-0.289-0.092-0.582-0.144-0.881l-0.145-0.828
		h-0.841c-0.766,0-1.479,0.059-2.177,0.18l-0.872,0.15l0.044,0.885c0.01,0.189,0.022,0.378,0.038,0.565
		c-0.226-0.002-0.451-0.005-0.676-0.008c-0.609-0.007-1.22-0.015-1.83-0.015h-0.747l-0.212,0.717c-0.1,0.337-0.15,0.702-0.15,1.084
		c0,0.635,0,0.984,0.169,1.311l0.252,0.486l0.546,0.05c0.947,0.085,2.03,0.179,3.205,0.241c0.115,0.602,0.239,1.158,0.376,1.683
		c-0.271,0.023-0.54,0.048-0.806,0.071l-0.91,0.082v0.914c0,0.701,0.039,1.282,0.123,1.828l0.062,0.409
		c-0.062,0.027-0.123,0.056-0.183,0.086l-0.607,0.303l0.058,0.677c0.102,1.203,0.554,2.273,1.306,3.094l0.187,0.204
		c-0.064,0.348-0.064,0.653-0.064,0.88c0,0.377,0.047,0.732,0.145,1.089l0.188,0.685l0.709,0.049
		c0.721,0.049,1.405,0.092,2.062,0.129c-0.915,0.413-1.831,0.85-2.743,1.306l-0.83,0.415l0.353,0.859
		c0.299,0.729,0.654,1.351,1.056,1.845l0.476,0.586l0.693-0.296c1.637-0.699,3.07-1.343,4.412-1.984
		c0.078,0.868,0.18,1.766,0.309,2.713l0.089,0.648l0.63,0.178c0.291,0.083,0.649,0.121,1.126,0.121c0.448,0,0.842-0.066,1.204-0.203
		l0.656-0.248l-0.01-0.701c-0.012-0.885-0.035-1.746-0.068-2.595l0.034,0.017c1.277,0.624,2.884,1.102,4.909,1.46l0.672,0.119
		l0.356-0.582c0.334-0.546,0.59-1.089,0.782-1.658l0.318-0.94l-0.938-0.324c-0.464-0.161-0.916-0.314-1.357-0.46l0.201-0.675
		c0.119-0.4,0.177-0.764,0.177-1.111v-0.715v-0.941l-0.939-0.057c-0.209-0.013-0.421-0.025-0.637-0.038l0.262-0.525
		c0.26-0.521,0.559-1.374,0.999-2.856l0.229-0.77l-0.703-0.39c-0.1-0.055-0.199-0.106-0.299-0.154l0.086-0.512
		c0.045-0.271,0.07-0.651,0.07-1.072c0-0.412-0.074-0.769-0.139-1.033l-0.196-0.802l-0.824,0.04
		c-0.161,0.008-0.322,0.017-0.482,0.024l0.028-0.149c0.022-0.121,0.046-0.242,0.068-0.364c1.093,0.015,2.223,0.015,3.403,0.015
		h0.729l0.224-0.694c0.089-0.277,0.131-0.637,0.131-1.132v-0.744v-0.942l-0.94-0.056l-2.157-0.13l-0.85-0.051
		c0.049-0.461,0.09-0.936,0.123-1.421l0.053-0.781l-0.746-0.239c-0.224-0.07-0.468-0.104-0.807-0.151l-0.156-0.021L47.988,52.305
		L47.988,52.305z M40.623,59.683l-0.016-0.139l-0.016-0.132c-0.034-0.296-0.068-0.598-0.105-0.901
		c1.471,0.061,3.041,0.097,4.691,0.107c-0.005,0.076-0.01,0.151-0.014,0.227l-0.004,0.064l-0.029,0.477
		C43.572,59.479,42.068,59.577,40.623,59.683L40.623,59.683z M44.693,63.324c0.92-0.071,1.838-0.152,2.751-0.242
		c-0.31,0.771-0.563,1.62-0.753,2.529l-0.133,0.631l0.521,0.381c0.314,0.23,0.674,0.396,1.085,0.501
		c-0.736-0.04-1.492-0.076-2.258-0.106c-0.016-0.148-0.031-0.299-0.05-0.448l-0.111-0.874h-0.368l-0.024-0.14
		C45.19,64.662,44.976,63.931,44.693,63.324L44.693,63.324z M38.059,63.688c0.922-0.029,1.844-0.067,2.764-0.114
		c0.135,1.301,0.529,2.374,1.208,3.281l0.017,0.021c-0.973-0.024-1.959-0.048-2.949-0.062l0.004-0.002l-0.127-0.705
		C38.797,65.12,38.496,64.322,38.059,63.688L38.059,63.688z"/>
</g>
<g>
	<path d="M73.982,91.891c-0.435,0-0.75-0.032-0.992-0.103l-0.301-0.087l-0.054-0.309c-0.487-2.847-0.749-5.741-0.777-8.604
		l-0.004-0.395l0.384-0.096c0.418-0.104,0.744-0.15,1.057-0.15h1.346l0.057,0.436c0.369,2.84,0.577,5.673,0.636,8.661l0.006,0.298
		l-0.26,0.147C74.783,91.856,74.427,91.891,73.982,91.891z M66.694,91.532c-0.63,0-1.22-0.057-1.802-0.173l-0.402-0.08v-0.41
		c0-1.892,0.278-4.647,0.804-7.971l0.067-0.422h0.427c0.613,0,1.271,0.078,1.952,0.233l0.39,0.088v0.399
		c0,0.567-0.131,1.819-0.361,3.983c-0.172,1.378-0.367,2.699-0.581,3.937l-0.072,0.415H66.694z M57.867,89.225l-0.079-0.404
		c-0.4-2.062-0.715-4.169-0.936-6.273c-0.498,0.136-0.957,0.247-1.412,0.342l-0.252,0.053L55,82.768
		c-0.426-0.391-0.727-0.959-0.893-1.688l-0.084-0.365l0.328-0.183c1.986-1.106,4.246-2,6.715-2.657l0.313-0.083l0.204,0.252
		c0.392,0.484,0.622,1.016,0.701,1.62c2.575-2.611,5.514-5.103,8.737-7.406l0.295-0.21l0.292,0.214
		c0.596,0.438,1.032,0.948,1.334,1.56l0.175,0.354c0,0-0.661,0.548-0.765,0.636c1.927,1.673,3.87,3.412,5.754,5.098l0.284,0.254
		l-0.169,0.341c-0.251,0.507-0.677,0.996-1.34,1.54l-0.298,0.243l-0.312-0.224c-2.145-1.543-4.185-3.274-6.225-5.283
		c-2.078,1.739-4.104,3.456-6.081,5.147l-0.301,0.257l-0.319-0.232c-0.706-0.515-1.148-1.077-1.314-1.673l-0.005-0.016
		c-0.802,0.512-1.597,0.943-2.368,1.287c0.377,2.347,0.646,4.595,0.821,6.858l0.03,0.383l-0.362,0.128
		c-0.583,0.206-1.194,0.306-1.87,0.306H57.867z"/>
	<path fill="#FFFFFF" d="M71.313,72.664c0.523,0.385,0.909,0.826,1.182,1.378c-0.328,0.272-0.631,0.521-0.907,0.767
		c2.036,1.76,4.098,3.604,6.187,5.473c-0.219,0.441-0.605,0.88-1.209,1.375c-2.255-1.622-4.398-3.465-6.488-5.553
		c-2.201,1.84-4.346,3.656-6.435,5.443c-0.604-0.44-0.989-0.907-1.128-1.403C65.1,77.505,68.041,75.002,71.313,72.664
		 M61.195,78.357c0.355,0.439,0.548,0.906,0.604,1.458c-0.854,0.548-1.76,1.043-2.696,1.429c0.386,2.337,0.688,4.731,0.88,7.203
		c-0.548,0.193-1.099,0.277-1.704,0.277c-0.438-2.256-0.769-4.538-0.989-6.821c-0.66,0.193-1.292,0.358-1.952,0.496
		c-0.358-0.329-0.604-0.824-0.743-1.432C56.521,79.896,58.721,79.016,61.195,78.357 M74.201,82.647
		c0.386,2.968,0.577,5.828,0.632,8.606c-0.193,0.109-0.467,0.137-0.851,0.137c-0.386,0-0.661-0.027-0.854-0.083
		c-0.495-2.887-0.743-5.719-0.771-8.524c0.33-0.082,0.634-0.136,0.937-0.136H74.201 M65.788,82.977c0.604,0,1.234,0.083,1.842,0.221
		c0,0.549-0.139,1.869-0.358,3.931c-0.165,1.319-0.358,2.64-0.577,3.904c-0.605,0-1.156-0.054-1.704-0.163
		C64.99,89.109,65.235,86.469,65.788,82.977 M71.321,71.43l-0.589,0.421c-2.992,2.138-5.741,4.437-8.186,6.845
		c-0.138-0.342-0.328-0.662-0.574-0.967l-0.407-0.504l-0.627,0.166c-2.51,0.668-4.808,1.577-6.83,2.703l-0.655,0.365l0.167,0.731
		c0.189,0.83,0.54,1.485,1.041,1.945l0.379,0.348l0.502-0.104c0.288-0.061,0.577-0.127,0.876-0.201
		c0.218,1.926,0.513,3.851,0.88,5.738l0.157,0.809h0.824c0.733,0,1.399-0.109,2.037-0.334l0.724-0.256l-0.06-0.765
		c-0.167-2.157-0.419-4.299-0.768-6.524c0.52-0.246,1.048-0.529,1.579-0.849c0.266,0.485,0.688,0.94,1.262,1.358l0.639,0.465
		l0.601-0.514c1.944-1.664,3.868-3.294,5.729-4.854c1.598,1.55,3.197,2.934,4.852,4.194h-0.673h-0.906
		c-0.354,0-0.718,0.051-1.178,0.165l-0.767,0.19l0.008,0.79c0.028,2.89,0.292,5.812,0.785,8.684l0.105,0.617l0.602,0.175
		c0.289,0.083,0.648,0.122,1.132,0.122c0.523,0,0.952-0.045,1.343-0.267l0.52-0.294l-0.012-0.596
		c-0.06-3.007-0.269-5.857-0.641-8.716l-0.09-0.698c0.291,0.22,0.584,0.436,0.879,0.647l0.624,0.449L77.2,82.43
		c0.72-0.591,1.187-1.133,1.471-1.704l0.338-0.683l-0.567-0.507c-1.741-1.558-3.533-3.161-5.316-4.718l0.009-0.007l0.607-0.505
		l-0.35-0.707c-0.338-0.686-0.824-1.255-1.486-1.741L71.321,71.43L71.321,71.43z M65.788,81.977h-0.854L64.8,82.82
		c-0.529,3.349-0.81,6.132-0.81,8.049v0.82l0.804,0.16c0.615,0.123,1.236,0.183,1.9,0.183h0.842l0.144-0.829
		c0.216-1.246,0.412-2.575,0.584-3.951c0.234-2.199,0.366-3.462,0.366-4.055v-0.799l-0.779-0.177
		C67.133,82.059,66.438,81.977,65.788,81.977L65.788,81.977z"/>
</g>
<path fill="#FFFFFF" d="M62.327,43.295c-0.028,0.112-0.057,0.227-0.084,0.338c-4.051-0.951-4.902,3.63-4.902,3.63
	s16.085,2.37,6.787,15.633c-1.742,2.48,2.143,5.416,4.712,3.806c0.023-0.016,0.048-0.028,0.073-0.045
	c0.111-0.07,0.224-0.145,0.336-0.216c6.217-4.006,9.781-7.287,11.553-14.089c1.627-0.094,3.092-1.187,3.573-2.84
	c0.343-1.18,0.108-2.393-0.534-3.337c0.662-0.633,1.176-1.439,1.45-2.384c0.81-2.785-0.733-5.688-3.456-6.604
	c0.178-0.313,0.326-0.648,0.43-1.009c0.688-2.36-0.577-4.822-2.842-5.673c0.002-0.005,0.004-0.012,0.006-0.018
	c0.555-1.905-0.54-3.898-2.444-4.452c-0.89-0.26-1.794-0.146-2.563,0.228c-0.459-0.825-1.273-1.448-2.309-1.62
	c-1.26-0.21-2.559,0.392-3.248,1.471c-0.245,0.385-0.389,0.778-0.451,1.17c-0.007-0.001-0.015-0.004-0.023-0.006
	c-2.554-0.743-5.218,0.633-6.119,3.096c-2.709,0.146-5.148,1.995-5.896,4.777c-0.668,2.483,0.315,5.136,2.312,6.757
	c1.161,0.943,2.4,1.311,3.613,1.371C62.31,43.284,62.315,43.29,62.327,43.295z"/>
<path fill="#8FC31F" d="M68.083,67.028c0.051-0.005,0.104-0.013,0.155-0.019c5.016-0.596,8.497-1.569,12.274-5.59
	c1.363,0.407,3.053,0.043,4.217-1.061c0.869-0.82,1.26-1.869,1.148-2.848c0.934-0.338,1.841-0.881,2.622-1.633
	c2.445-2.354,2.706-5.786,0.44-7.602c0.38-0.289,0.748-0.617,1.091-0.988c2.347-2.56,2.691-6.052,0.683-7.844
	c0.006-0.008,0.012-0.013,0.02-0.021c2.066-2.509,2.287-5.799,0.355-7.181c-0.902-0.646-2.09-0.707-3.287-0.324
	c0.021-1.415-0.529-2.632-1.666-3.174c-1.381-0.655-3.295,0.004-4.715,1.528c-0.285,0.306-0.526,0.623-0.739,0.948
	c1.441,1.144,2.13,3.078,1.583,4.955c-0.104,0.36-0.252,0.695-0.433,1.008c2.724,0.916,4.269,3.82,3.458,6.605
	c-0.274,0.944-0.788,1.751-1.449,2.383c0.643,0.945,0.877,2.156,0.533,3.338c-0.48,1.653-1.945,2.746-3.572,2.84
	c-1.771,6.802-5.336,10.083-11.553,14.089c-0.113,0.073-0.225,0.146-0.338,0.215c-0.023,0.018-0.048,0.03-0.072,0.046
	C68.597,66.854,68.343,66.951,68.083,67.028z"/>
<path fill="#639736" d="M73.489,44.586c0.085,1.262,0.047,2.645-0.171,4.151c-1.355-1.519-3.43-2.172-3.548-2.208
	c-0.002,0-0.004,0-0.01-0.002c-0.398-0.116-0.816,0.11-0.94,0.51c-0.122,0.402,0.104,0.826,0.505,0.952
	c0.031,0.009,3.023,0.954,3.541,3.002c-0.449,1.805-1.15,3.762-2.179,5.869c-0.007,0.017-0.014,0.032-0.021,0.05
	c-1.374,2.807-3.308,5.873-6.011,9.207c-0.003,0.005-0.006,0.013-0.009,0.018c0.368,0.341,0.819,0.616,1.311,0.794
	c2.583-3.206,4.47-6.184,5.84-8.927c2.205-0.037,3.554-1.401,3.613-1.466c0.294-0.302,0.284-0.786-0.019-1.076
	c-0.301-0.293-0.781-0.283-1.075,0.015c-0.042,0.044-0.684,0.666-1.761,0.906c0.813-1.846,1.396-3.579,1.782-5.183
	c0.025-0.067,0.042-0.14,0.049-0.214c0.528-2.294,0.673-4.326,0.593-6.085c2.895-0.754,3.994-3.403,4.168-4.794
	c0.053-0.418-0.245-0.799-0.661-0.852c-0.418-0.052-0.797,0.243-0.851,0.66c-0.016,0.122-0.395,2.646-2.787,3.431
	c-0.033-0.258-0.066-0.519-0.109-0.762c-0.77-4.534-2.945-7.309-3.82-8.272c0.428-1.466-0.163-3.019-0.19-3.093
	c-0.152-0.392-0.595-0.586-0.986-0.435c-0.392,0.152-0.587,0.594-0.435,0.986c0.099,0.263,0.262,0.898,0.232,1.533
	c-1.63-0.683-3.551-0.209-3.649-0.184c-0.409,0.104-0.655,0.519-0.551,0.926c0.069,0.271,0.276,0.471,0.525,0.544
	c0.128,0.037,0.265,0.041,0.401,0.007c0.596-0.148,2.342-0.355,3.258,0.464c0.159,0.147,1.208,1.181,2.197,3.072
	c-2.842-1.058-5.115-0.782-5.229-0.767c-0.416,0.055-0.711,0.437-0.656,0.855c0.042,0.308,0.263,0.55,0.544,0.632
	c0.097,0.028,0.202,0.04,0.31,0.022c0.062-0.006,2.838-0.311,5.921,1.326c0.39,1.115,0.697,2.407,0.839,3.881
	c-0.026,0.097-0.037,0.2-0.021,0.306C73.438,44.457,73.46,44.523,73.489,44.586z"/>
</svg>
