<?xml version="1.0" encoding="utf-8"?>
<!-- Generator: Adobe Illustrator 16.0.0, SVG Export Plug-In . SVG Version: 6.00 Build 0)  -->
<!DOCTYPE svg PUBLIC "-//W3C//DTD SVG 1.1//EN" "http://www.w3.org/Graphics/SVG/1.1/DTD/svg11.dtd">
<svg version="1.1" id="Layer_1" xmlns="http://www.w3.org/2000/svg" xmlns:xlink="http://www.w3.org/1999/xlink" x="0px" y="0px"
	 width="126.875px" height="112.438px" viewBox="0 0 126.875 112.438" enable-background="new 0 0 126.875 112.438"
	 xml:space="preserve">
<rect fill="#FFFFFF" width="126.875" height="112.438"/>
<rect x="2.784" y="70.229" fill="#FFFFFF" width="76.421" height="10.342"/>
<g>
	<polygon fill="#FAEE00" points="9.859,79.887 6.441,81.054 7.592,77.629 5.421,74.74 9.036,74.775 11.115,71.82 12.196,75.268 
		15.65,76.331 12.707,78.426 12.76,82.04 	"/>
	<path d="M10.941,72.937l0.856,2.731l2.737,0.843l-2.332,1.66l0.042,2.864l-2.299-1.706l-2.709,0.925l0.912-2.715L6.43,75.25
		l2.864,0.028L10.941,72.937 M11.289,70.704l-1.165,1.657l-1.346,1.912L6.439,74.25l-2.026-0.02l1.217,1.62l1.404,1.868
		l-0.745,2.217l-0.645,1.919L7.561,81.2l2.212-0.755l1.877,1.393l1.625,1.207l-0.029-2.024l-0.034-2.339l1.904-1.356l1.649-1.175
		l-1.936-0.596l-2.234-0.688l-0.699-2.229L11.289,70.704L11.289,70.704z"/>
</g>
<g>
	<polygon fill="#FAEE00" points="34.059,76.428 31.112,77.433 32.105,74.483 30.234,71.995 33.349,72.025 35.143,69.479 
		36.071,72.448 39.048,73.365 36.513,75.169 36.558,78.283 	"/>
	<path d="M34.968,70.596l0.705,2.253l2.26,0.696l-1.924,1.369l0.034,2.364l-1.897-1.408l-2.236,0.763l0.754-2.239l-1.42-1.889
		l2.363,0.023L34.968,70.596 M35.317,68.363L34.15,70.02l-1.06,1.504l-1.838-0.019l-2.027-0.021l1.219,1.621l1.104,1.468
		l-0.586,1.74l-0.646,1.919l1.916-0.653l1.74-0.593l1.476,1.095l1.625,1.206l-0.029-2.023l-0.026-1.839l1.496-1.065l1.649-1.174
		l-1.935-0.596l-1.758-0.542l-0.548-1.751L35.317,68.363L35.317,68.363z"/>
</g>
<g>
	<polygon fill="#FAEE00" points="65.098,78.768 63.268,77.472 65.411,76.806 66.083,74.662 67.375,76.497 69.619,76.474 
		68.274,78.27 68.991,80.397 66.867,79.673 65.065,81.011 	"/>
	<path d="M66.257,75.778L67.117,77l1.495-0.016l-0.896,1.195l0.478,1.418l-1.414-0.482l-1.2,0.891l0.021-1.494l-1.219-0.863
		l1.427-0.443L66.257,75.778 M65.908,73.547l-0.605,1.933l-0.29,0.927l-0.927,0.287l-1.933,0.601l1.651,1.171l0.789,0.559
		l-0.014,0.968l-0.029,2.023l1.625-1.206l0.778-0.577l0.917,0.312l1.917,0.654l-0.646-1.92l-0.31-0.92l0.581-0.774l1.214-1.621
		l-2.025,0.021l-0.97,0.01l-0.558-0.791L65.908,73.547L65.908,73.547z"/>
</g>
<g>
	<polygon fill="#FAEE00" points="70.11,73.817 67.497,71.966 70.558,71.017 71.516,67.957 73.362,70.575 76.566,70.542 
		74.646,73.105 75.672,76.146 72.638,75.11 70.064,77.02 	"/>
	<path d="M71.69,69.072l1.414,2.006l2.455-0.025l-1.471,1.964l0.785,2.329l-2.323-0.793l-1.972,1.463l0.035-2.454l-2.002-1.418
		l2.344-0.728L71.69,69.072 M71.341,66.842l-0.604,1.932l-0.577,1.843l-1.844,0.572l-1.934,0.601l1.652,1.171l1.572,1.113
		l-0.027,1.928l-0.029,2.023l1.625-1.206l1.55-1.149l1.826,0.623l1.918,0.655l-0.647-1.921l-0.617-1.831l1.156-1.543l1.213-1.621
		l-2.023,0.021l-1.931,0.02l-1.111-1.576L71.341,66.842L71.341,66.842z"/>
</g>
<g>
	<g>
		<path d="M19.797,80.186c-0.562,0-1.052-0.11-1.456-0.327c-0.423-0.226-0.707-0.525-0.843-0.89
			c-0.125-0.336-0.187-0.791-0.187-1.391v-0.741h1.747c-0.056-0.038-0.116-0.078-0.182-0.121c-0.502-0.332-0.828-0.57-0.998-0.727
			c-0.186-0.171-0.338-0.404-0.454-0.692c-0.115-0.286-0.174-0.648-0.174-1.077c0-0.624,0.082-1.076,0.251-1.383
			c0.174-0.313,0.452-0.559,0.827-0.731c0.359-0.164,0.794-0.247,1.292-0.247c0.541,0,1.013,0.091,1.401,0.269
			c0.411,0.188,0.69,0.438,0.832,0.741c0.133,0.287,0.197,0.736,0.197,1.374v0.547h-1.91c0.893,0.533,1.445,0.967,1.69,1.326
			c0.257,0.377,0.382,0.947,0.382,1.741c0,0.579-0.069,1.003-0.213,1.294c-0.152,0.305-0.436,0.558-0.844,0.753
			C20.768,80.091,20.31,80.186,19.797,80.186z M19.625,78c0,0.324,0.035,0.404,0.039,0.413l0.137-0.035
			c0.021-0.034,0.058-0.122,0.058-0.322c0-0.527-0.091-0.67-0.118-0.701c-0.022-0.024-0.059-0.06-0.115-0.106V78z M19.704,73.615
			c-0.089,0.066-0.125,0.145-0.125,0.345c0,0.26,0.039,0.387,0.071,0.448c0.007,0.013,0.026,0.046,0.087,0.101v-0.526
			C19.737,73.691,19.705,73.618,19.704,73.615z"/>
		<path fill="#FFFFFF" d="M19.621,72.108c0.507,0,0.939,0.082,1.297,0.246s0.594,0.37,0.71,0.619
			c0.115,0.249,0.174,0.672,0.174,1.269v0.297h-1.814v-0.557c0-0.26-0.023-0.425-0.069-0.496c-0.047-0.071-0.124-0.106-0.232-0.106
			c-0.117,0-0.206,0.048-0.267,0.144s-0.09,0.241-0.09,0.437c0,0.251,0.033,0.439,0.102,0.566c0.064,0.127,0.248,0.28,0.552,0.459
			c0.869,0.517,1.417,0.939,1.643,1.271s0.339,0.864,0.339,1.601c0,0.535-0.062,0.93-0.188,1.184
			c-0.126,0.253-0.367,0.466-0.727,0.638c-0.358,0.172-0.776,0.258-1.253,0.258c-0.522,0-0.969-0.1-1.338-0.298
			c-0.37-0.197-0.612-0.449-0.727-0.756c-0.114-0.306-0.171-0.74-0.171-1.304v-0.491h1.813V78c0,0.282,0.025,0.463,0.076,0.543
			c0.052,0.081,0.142,0.121,0.271,0.121s0.227-0.051,0.29-0.153c0.063-0.102,0.096-0.254,0.096-0.455
			c0-0.441-0.061-0.731-0.182-0.867c-0.123-0.136-0.428-0.363-0.913-0.682c-0.486-0.322-0.808-0.556-0.966-0.701
			c-0.157-0.146-0.288-0.346-0.392-0.603s-0.155-0.585-0.155-0.983c0-0.576,0.073-0.996,0.22-1.263
			c0.147-0.266,0.385-0.474,0.713-0.624C18.761,72.184,19.157,72.108,19.621,72.108 M19.621,71.608c-0.534,0-1.003,0.091-1.396,0.27
			c-0.426,0.195-0.742,0.477-0.942,0.837c-0.19,0.346-0.282,0.838-0.282,1.505c0,0.468,0.062,0.851,0.191,1.171
			c0.131,0.322,0.304,0.586,0.516,0.782c0.115,0.104,0.291,0.242,0.535,0.414h-0.682h-0.5v0.5v0.491
			c0,0.631,0.066,1.114,0.203,1.479c0.157,0.423,0.479,0.767,0.959,1.022c0.44,0.236,0.97,0.356,1.573,0.356
			c0.55,0,1.044-0.104,1.47-0.307c0.458-0.22,0.78-0.511,0.957-0.866c0.162-0.328,0.24-0.788,0.24-1.406
			c0-0.847-0.139-1.462-0.426-1.882c-0.19-0.279-0.527-0.584-1.038-0.936h0.802h0.5v-0.5v-0.297c0-0.675-0.072-1.158-0.22-1.479
			c-0.168-0.359-0.489-0.649-0.956-0.863C20.705,71.707,20.198,71.608,19.621,71.608L19.621,71.608z"/>
	</g>
	<g>
		<path d="M23.801,80.139c-0.32,0-0.596-0.06-0.817-0.178c-0.229-0.121-0.401-0.288-0.514-0.496
			c-0.103-0.191-0.167-0.394-0.192-0.602c-0.022-0.183-0.034-0.547-0.034-1.09v-4.402h2.374v4.439c0,0.631,0.026,0.759,0.032,0.777
			c0.016-0.023,0.038-0.163,0.038-0.824v-4.393h2.375v6.656h-2.424l0.008-0.114c-0.022,0.014-0.045,0.026-0.067,0.039
			C24.351,80.076,24.09,80.139,23.801,80.139z"/>
		<path fill="#FFFFFF" d="M26.812,73.621v6.156h-1.907l0.032-0.512c-0.13,0.208-0.29,0.363-0.479,0.468
			c-0.19,0.104-0.409,0.155-0.657,0.155c-0.281,0-0.515-0.05-0.7-0.148s-0.322-0.23-0.411-0.395
			c-0.088-0.164-0.143-0.335-0.164-0.513s-0.032-0.531-0.032-1.06v-4.152h1.874v4.189c0,0.479,0.015,0.764,0.044,0.854
			s0.109,0.135,0.239,0.135c0.139,0,0.222-0.047,0.248-0.14s0.039-0.392,0.039-0.896v-4.143H26.812 M27.312,73.121h-0.5h-1.875
			h-0.07h-0.5h-1.874h-0.5v0.5v4.152c0,0.554,0.012,0.92,0.036,1.119c0.028,0.239,0.103,0.471,0.22,0.689
			c0.137,0.254,0.345,0.455,0.617,0.6c0.258,0.138,0.572,0.207,0.935,0.207c0.237,0,0.46-0.037,0.663-0.111h0.441h1.907h0.5v-0.5
			v-6.156V73.121L27.312,73.121z"/>
	</g>
	<g>
		<path d="M27.234,80.904v-7.533h2.423l-0.01,0.169c0.047-0.032,0.096-0.062,0.146-0.088c0.236-0.128,0.497-0.192,0.776-0.192
			c0.344,0,0.647,0.096,0.902,0.283c0.259,0.19,0.424,0.419,0.491,0.679c0.058,0.229,0.086,0.589,0.086,1.102v2.594
			c0,0.588-0.035,1.001-0.109,1.262c-0.082,0.294-0.253,0.531-0.508,0.705c-0.247,0.169-0.545,0.255-0.885,0.255
			c-0.272,0-0.53-0.065-0.766-0.193c-0.059-0.032-0.116-0.069-0.173-0.109v1.068H27.234z M29.624,74.852
			c0.013,0.006-0.016,0.13-0.016,0.561v2.551c0,0.478,0.031,0.587,0.038,0.604v0.002c0,0,0.028-0.109,0.028-0.517v-2.64
			c0-0.488-0.023-0.594-0.028-0.61l0.005,0.048C29.638,74.85,29.629,74.851,29.624,74.852z"/>
		<path fill="#FFFFFF" d="M30.569,73.51c0.291,0,0.542,0.078,0.754,0.234s0.345,0.336,0.397,0.54
			c0.052,0.204,0.078,0.551,0.078,1.039v2.594c0,0.56-0.033,0.958-0.1,1.194c-0.066,0.237-0.202,0.426-0.408,0.566
			s-0.454,0.211-0.744,0.211c-0.232,0-0.447-0.055-0.646-0.163s-0.379-0.27-0.543-0.483v1.412h-1.874v-7.033h1.907l-0.033,0.544
			c0.167-0.22,0.352-0.385,0.553-0.493S30.331,73.51,30.569,73.51 M29.655,78.799c0.121,0,0.196-0.043,0.226-0.128
			s0.044-0.292,0.044-0.619v-2.64c0-0.381-0.014-0.611-0.042-0.691c-0.027-0.081-0.104-0.121-0.231-0.121
			c-0.124,0-0.204,0.047-0.239,0.14s-0.054,0.316-0.054,0.673v2.551c0,0.372,0.019,0.604,0.056,0.696S29.532,78.799,29.655,78.799
			 M30.569,73.01c-0.227,0-0.444,0.037-0.648,0.111h-0.529h-1.907h-0.5v0.5v7.033v0.5h0.5h1.874h0.5v-0.5v-0.396
			c0.217,0.087,0.447,0.131,0.688,0.131c0.392,0,0.736-0.101,1.026-0.298c0.305-0.208,0.509-0.492,0.607-0.845
			c0.08-0.283,0.118-0.718,0.118-1.329v-2.594c0-0.534-0.03-0.914-0.094-1.162c-0.082-0.318-0.278-0.594-0.585-0.819
			C31.321,73.121,30.968,73.01,30.569,73.01L30.569,73.01z"/>
	</g>
	<g>
		<path d="M34.564,80.139c-0.424,0-0.807-0.063-1.137-0.188c-0.342-0.129-0.614-0.312-0.811-0.543
			c-0.192-0.229-0.327-0.482-0.4-0.757c-0.071-0.261-0.106-0.624-0.106-1.11v-1.795c0-0.581,0.079-1.032,0.241-1.38
			c0.17-0.362,0.449-0.643,0.83-0.832c0.362-0.182,0.784-0.274,1.253-0.274c0.567,0,1.048,0.112,1.427,0.333
			c0.389,0.227,0.666,0.534,0.824,0.913c0.151,0.362,0.226,0.849,0.226,1.485v1.671c0,0.402-0.025,0.708-0.079,0.934
			c-0.056,0.237-0.184,0.489-0.38,0.748c-0.203,0.267-0.462,0.469-0.771,0.601C35.381,80.073,35.005,80.139,34.564,80.139z
			 M34.484,78.14c0,0.336,0.031,0.42,0.035,0.428c0.076-0.057,0.114-0.171,0.114-0.549v-0.96h-0.149V78.14z M34.532,75.556v-0.199
			c0-0.324-0.019-0.457-0.028-0.506c-0.007,0-0.013,0.001-0.017,0.001c0.014,0.02-0.003,0.151-0.003,0.505v0.199H34.532z"/>
		<path fill="#FFFFFF" d="M34.435,73.51c0.525,0,0.959,0.1,1.301,0.299s0.582,0.464,0.72,0.794c0.138,0.329,0.206,0.792,0.206,1.389
			v0.817h-2.427v1.331c0,0.278,0.021,0.458,0.061,0.538s0.117,0.121,0.232,0.121c0.142,0,0.237-0.054,0.285-0.16
			c0.048-0.107,0.071-0.313,0.071-0.62v-0.812h1.777v0.455c0,0.38-0.024,0.673-0.072,0.877s-0.16,0.422-0.336,0.653
			c-0.177,0.232-0.399,0.406-0.671,0.522c-0.271,0.116-0.609,0.174-1.018,0.174c-0.396,0-0.746-0.058-1.049-0.172
			s-0.539-0.271-0.708-0.471c-0.168-0.199-0.285-0.419-0.35-0.659c-0.065-0.239-0.098-0.588-0.098-1.046v-1.795
			c0-0.539,0.072-0.963,0.218-1.274c0.146-0.311,0.384-0.549,0.715-0.714C33.624,73.592,34.004,73.51,34.435,73.51 M34.234,75.806
			h0.548v-0.449c0-0.319-0.017-0.524-0.051-0.617s-0.104-0.14-0.209-0.14c-0.13,0-0.211,0.04-0.241,0.118
			c-0.031,0.079-0.047,0.292-0.047,0.639V75.806 M34.435,73.01c-0.508,0-0.967,0.102-1.365,0.301
			c-0.432,0.216-0.75,0.535-0.944,0.949c-0.178,0.382-0.265,0.868-0.265,1.486v1.795c0,0.509,0.038,0.894,0.115,1.178
			c0.082,0.307,0.234,0.594,0.449,0.85c0.226,0.266,0.532,0.473,0.914,0.616c0.359,0.136,0.771,0.204,1.226,0.204
			c0.481,0,0.879-0.07,1.215-0.215c0.349-0.148,0.643-0.378,0.872-0.679c0.221-0.292,0.359-0.567,0.424-0.842
			c0.059-0.245,0.086-0.569,0.086-0.991v-0.354v-0.5v-0.817c0-0.671-0.08-1.188-0.245-1.581c-0.18-0.432-0.492-0.779-0.929-1.033
			C35.569,73.133,35.047,73.01,34.435,73.01L34.435,73.01z"/>
	</g>
	<g>
		<path d="M37.024,80.027v-6.656h2.398l-0.02,0.21c0.239-0.192,0.52-0.3,0.838-0.32l0.267-0.019v2.684h-0.25
			c-0.37,0-0.548,0.058-0.632,0.106c-0.1,0.058-0.156,0.129-0.178,0.226c-0.022,0.101-0.05,0.371-0.05,1.089v2.681H37.024z"/>
		<path fill="#FFFFFF" d="M40.258,73.51v2.166c-0.344,0-0.596,0.047-0.757,0.14c-0.16,0.093-0.26,0.222-0.297,0.388
			c-0.037,0.165-0.056,0.546-0.056,1.144v2.431h-1.874v-6.156h1.874l-0.074,0.81C39.347,73.851,39.741,73.544,40.258,73.51
			 M40.758,72.976l-0.533,0.035c-0.161,0.011-0.343,0.044-0.528,0.116v-0.006h-0.548h-1.874h-0.5v0.5v6.156v0.5h0.5h1.874h0.5v-0.5
			v-2.431c0-0.78,0.033-0.988,0.044-1.034c0.003-0.016,0.008-0.034,0.06-0.064c0.02-0.012,0.144-0.072,0.506-0.072h0.5v-0.5V73.51
			V72.976L40.758,72.976z"/>
	</g>
	<g>
		<path d="M44.258,80.186c-0.369,0-0.721-0.091-1.043-0.271c-0.321-0.179-0.57-0.406-0.742-0.677
			c-0.167-0.265-0.273-0.547-0.314-0.839c-0.039-0.271-0.059-0.663-0.059-1.197v-2.231c0-0.742,0.04-1.272,0.123-1.621
			c0.091-0.383,0.347-0.731,0.761-1.036c0.409-0.302,0.938-0.455,1.57-0.455c0.617,0,1.142,0.132,1.557,0.391
			c0.424,0.264,0.706,0.589,0.841,0.966c0.125,0.354,0.186,0.841,0.186,1.491v0.575h-2.453V74.35c0-0.56-0.032-0.697-0.042-0.727
			c-0.054,0.019-0.089,0.129-0.089,0.61v1.263h2.584v4.531h-1.657l-0.09-0.268c-0.089,0.086-0.186,0.158-0.29,0.218
			C44.858,80.115,44.575,80.186,44.258,80.186z M44.553,77.838c0,0.425,0.035,0.544,0.047,0.57c0.104-0.062,0.145-0.203,0.145-0.631
			v-0.641h-0.191V77.838z"/>
		<path fill="#FFFFFF" d="M44.554,72.108c0.572,0,1.047,0.117,1.424,0.353c0.378,0.235,0.623,0.515,0.738,0.838
			c0.114,0.323,0.171,0.792,0.171,1.407v0.325h-1.953V74.35c0-0.431-0.019-0.699-0.056-0.808s-0.125-0.162-0.265-0.162
			c-0.12,0-0.202,0.046-0.245,0.139c-0.044,0.093-0.065,0.331-0.065,0.715v3.604c0,0.337,0.021,0.56,0.065,0.666
			c0.043,0.106,0.13,0.16,0.26,0.16c0.142,0,0.238-0.061,0.29-0.181c0.051-0.121,0.076-0.356,0.076-0.706v-0.891H44.6v-1.141h2.287
			v4.031h-1.228l-0.181-0.538c-0.133,0.231-0.301,0.406-0.503,0.521c-0.203,0.116-0.442,0.175-0.718,0.175
			c-0.328,0-0.636-0.08-0.922-0.239s-0.503-0.356-0.652-0.592c-0.148-0.235-0.241-0.481-0.278-0.74
			c-0.037-0.258-0.056-0.646-0.056-1.162v-2.231c0-0.718,0.039-1.238,0.116-1.563c0.077-0.324,0.299-0.622,0.666-0.893
			C43.498,72.244,43.972,72.108,44.554,72.108 M44.554,71.608c-0.688,0-1.266,0.17-1.719,0.504c-0.463,0.341-0.75,0.737-0.855,1.179
			c-0.088,0.369-0.13,0.918-0.13,1.68v2.231c0,0.546,0.02,0.949,0.061,1.233c0.047,0.326,0.165,0.642,0.351,0.936
			c0.195,0.308,0.475,0.563,0.832,0.762c0.36,0.201,0.753,0.303,1.165,0.303c0.362,0,0.687-0.081,0.966-0.24
			c0.014-0.008,0.027-0.016,0.04-0.024l0.036,0.106h0.359h1.228h0.5v-0.5v-4.031v-0.215v-0.5v-0.325
			c0-0.679-0.065-1.194-0.199-1.573c-0.154-0.434-0.473-0.802-0.945-1.096C45.787,71.752,45.219,71.608,44.554,71.608L44.554,71.608
			z"/>
	</g>
	<g>
		<path d="M49.698,80.139c-0.437,0-0.816-0.05-1.129-0.148c-0.333-0.106-0.597-0.271-0.784-0.488
			c-0.185-0.213-0.317-0.472-0.394-0.769c-0.074-0.284-0.11-0.689-0.11-1.238v-1.578c0-0.609,0.066-1.077,0.202-1.431
			c0.144-0.372,0.403-0.675,0.771-0.898c0.359-0.218,0.818-0.328,1.364-0.328c0.451,0,0.848,0.069,1.179,0.206
			c0.339,0.141,0.606,0.33,0.796,0.562c0.186,0.228,0.314,0.467,0.384,0.712c0.067,0.239,0.1,0.58,0.1,1.043v1.508
			c0,0.577-0.029,0.993-0.089,1.271c-0.063,0.296-0.201,0.574-0.407,0.828c-0.212,0.259-0.484,0.452-0.811,0.573
			C50.457,80.079,50.097,80.139,49.698,80.139z M49.665,74.85c0.017,0-0.01,0.106-0.01,0.47v2.778c0,0.298,0.021,0.414,0.03,0.454
			c0.001-0.037,0.018-0.144,0.018-0.394v-2.839c0-0.394-0.026-0.487-0.032-0.502l0.013,0.032V74.6l-0.023,0.252
			C49.662,74.851,49.664,74.85,49.665,74.85z"/>
		<path fill="#FFFFFF" d="M49.619,73.51c0.421,0,0.781,0.062,1.083,0.188s0.534,0.288,0.698,0.489s0.276,0.408,0.337,0.622
			c0.06,0.213,0.09,0.538,0.09,0.975v1.508c0,0.554-0.027,0.959-0.083,1.218c-0.056,0.258-0.175,0.499-0.357,0.724
			c-0.183,0.224-0.417,0.39-0.703,0.496s-0.614,0.16-0.985,0.16c-0.415,0-0.766-0.046-1.054-0.137
			c-0.287-0.092-0.511-0.229-0.67-0.413c-0.159-0.184-0.273-0.406-0.341-0.668c-0.068-0.262-0.103-0.653-0.103-1.176v-1.578
			c0-0.572,0.062-1.019,0.186-1.341c0.124-0.321,0.347-0.579,0.668-0.774C48.707,73.606,49.118,73.51,49.619,73.51 M49.68,78.799
			c0.111,0,0.185-0.041,0.22-0.121c0.036-0.08,0.054-0.254,0.054-0.52v-2.839c0-0.316-0.017-0.515-0.051-0.597
			S49.795,74.6,49.684,74.6s-0.186,0.041-0.223,0.123s-0.056,0.28-0.056,0.597v2.778c0,0.291,0.019,0.48,0.056,0.568
			S49.571,78.799,49.68,78.799 M49.619,73.01c-0.592,0-1.095,0.123-1.493,0.364c-0.418,0.254-0.712,0.598-0.876,1.022
			c-0.147,0.383-0.219,0.88-0.219,1.521v1.578c0,0.57,0.039,0.996,0.118,1.302c0.086,0.334,0.236,0.627,0.447,0.869
			c0.218,0.252,0.52,0.441,0.896,0.562c0.339,0.106,0.743,0.16,1.206,0.16c0.428,0,0.818-0.064,1.16-0.191
			c0.368-0.137,0.676-0.355,0.916-0.648c0.232-0.286,0.387-0.601,0.459-0.935c0.062-0.295,0.094-0.728,0.094-1.323v-1.508
			c0-0.486-0.035-0.849-0.108-1.109c-0.079-0.279-0.224-0.55-0.431-0.803c-0.217-0.266-0.518-0.479-0.895-0.636
			C50.532,73.086,50.104,73.01,49.619,73.01L49.619,73.01z"/>
	</g>
	<g>
		<path d="M54.557,80.139c-0.437,0-0.816-0.05-1.129-0.148c-0.333-0.106-0.597-0.271-0.784-0.488
			c-0.185-0.213-0.317-0.472-0.394-0.769c-0.074-0.284-0.11-0.689-0.11-1.238v-1.578c0-0.609,0.066-1.077,0.202-1.431
			c0.144-0.372,0.403-0.675,0.771-0.898c0.359-0.218,0.818-0.328,1.364-0.328c0.451,0,0.848,0.069,1.179,0.206
			c0.339,0.141,0.606,0.33,0.796,0.562c0.186,0.228,0.314,0.467,0.384,0.712c0.067,0.239,0.1,0.58,0.1,1.043v1.508
			c0,0.578-0.029,0.993-0.089,1.271c-0.063,0.296-0.201,0.574-0.407,0.828c-0.212,0.259-0.484,0.452-0.811,0.573
			C55.315,80.079,54.955,80.139,54.557,80.139z M54.523,74.85c0.017,0-0.01,0.106-0.01,0.47v2.778c0,0.298,0.021,0.414,0.03,0.454
			c0.001-0.037,0.018-0.144,0.018-0.394v-2.839c0-0.394-0.026-0.487-0.032-0.502l0.013,0.032V74.6l-0.023,0.252L54.523,74.85z"/>
		<path fill="#FFFFFF" d="M54.478,73.51c0.421,0,0.781,0.062,1.083,0.188s0.534,0.288,0.698,0.489s0.276,0.408,0.337,0.622
			c0.06,0.213,0.09,0.538,0.09,0.975v1.508c0,0.554-0.027,0.959-0.083,1.218c-0.056,0.258-0.175,0.499-0.357,0.724
			c-0.183,0.224-0.417,0.39-0.703,0.496s-0.614,0.16-0.985,0.16c-0.415,0-0.766-0.046-1.054-0.137
			c-0.287-0.092-0.511-0.229-0.67-0.413c-0.159-0.184-0.273-0.406-0.341-0.668c-0.068-0.262-0.103-0.653-0.103-1.176v-1.578
			c0-0.572,0.062-1.019,0.186-1.341c0.124-0.321,0.347-0.579,0.668-0.774C53.565,73.606,53.977,73.51,54.478,73.51 M54.538,78.799
			c0.111,0,0.185-0.041,0.22-0.121c0.036-0.08,0.054-0.254,0.054-0.52v-2.839c0-0.316-0.017-0.515-0.051-0.597
			S54.653,74.6,54.542,74.6s-0.186,0.041-0.223,0.123s-0.056,0.28-0.056,0.597v2.778c0,0.291,0.019,0.48,0.056,0.568
			S54.43,78.799,54.538,78.799 M54.478,73.01c-0.592,0-1.095,0.123-1.493,0.364c-0.417,0.254-0.712,0.598-0.876,1.022
			c-0.147,0.383-0.219,0.88-0.219,1.521v1.578c0,0.57,0.039,0.996,0.119,1.302c0.086,0.334,0.236,0.627,0.446,0.869
			c0.218,0.252,0.519,0.441,0.896,0.562c0.338,0.106,0.744,0.16,1.206,0.16c0.428,0,0.818-0.064,1.159-0.191
			c0.369-0.137,0.678-0.355,0.916-0.648c0.233-0.286,0.387-0.601,0.459-0.935c0.064-0.295,0.095-0.728,0.095-1.323v-1.508
			c0-0.486-0.035-0.849-0.108-1.109c-0.079-0.279-0.225-0.55-0.431-0.803c-0.217-0.266-0.518-0.479-0.895-0.636
			C55.391,73.086,54.962,73.01,54.478,73.01L54.478,73.01z"/>
	</g>
	<g>
		<path d="M58.505,80.139c-0.343,0-0.646-0.093-0.902-0.276c-0.26-0.187-0.43-0.41-0.504-0.663
			c-0.068-0.226-0.102-0.571-0.102-1.055v-2.882c0-0.503,0.033-0.855,0.102-1.079c0.075-0.251,0.248-0.472,0.512-0.654
			c0.26-0.179,0.567-0.27,0.917-0.27c0.266,0,0.513,0.049,0.736,0.146c0.062,0.026,0.121,0.057,0.179,0.09v-1.479h2.374v8.012
			h-2.374v-0.168c-0.069,0.044-0.14,0.083-0.21,0.116C59.001,80.084,58.756,80.139,58.505,80.139z M59.38,74.851
			c0.008,0.016-0.009,0.104-0.009,0.319v3.016c0,0.303,0.028,0.38,0.032,0.388c0.005-0.02,0.039-0.119,0.039-0.555V75.17
			c0-0.27-0.03-0.339-0.032-0.342l-0.006,0.021C59.394,74.85,59.386,74.851,59.38,74.851z"/>
		<path fill="#FFFFFF" d="M61.566,72.266v7.512h-1.874v-0.446c-0.18,0.186-0.368,0.325-0.566,0.418s-0.405,0.14-0.621,0.14
			c-0.291,0-0.543-0.076-0.757-0.229c-0.213-0.153-0.351-0.33-0.41-0.531c-0.061-0.201-0.091-0.529-0.091-0.983v-2.882
			c0-0.473,0.03-0.809,0.091-1.006c0.06-0.198,0.198-0.372,0.415-0.522c0.217-0.149,0.475-0.225,0.774-0.225
			c0.232,0,0.445,0.042,0.638,0.125c0.193,0.084,0.369,0.21,0.527,0.377v-1.746H61.566 M59.391,78.799
			c0.12,0,0.201-0.045,0.241-0.133s0.061-0.304,0.061-0.647V75.17c0-0.226-0.02-0.377-0.059-0.454
			c-0.038-0.077-0.115-0.116-0.229-0.116c-0.111,0-0.187,0.035-0.225,0.104c-0.039,0.069-0.059,0.225-0.059,0.466v3.016
			c0,0.251,0.019,0.416,0.056,0.494C59.214,78.759,59.285,78.799,59.391,78.799 M62.066,71.766h-0.5h-1.874h-0.5v0.5v0.846
			c-0.209-0.067-0.432-0.102-0.665-0.102c-0.401,0-0.757,0.105-1.058,0.312c-0.313,0.218-0.519,0.482-0.61,0.791
			c-0.076,0.248-0.112,0.614-0.112,1.149v2.882c0,0.508,0.037,0.877,0.112,1.127c0.09,0.307,0.291,0.573,0.597,0.793
			c0.3,0.216,0.652,0.324,1.049,0.324c0.235,0,0.467-0.042,0.688-0.125v0.014h0.5h1.874h0.5v-0.5v-7.512V71.766L62.066,71.766z"/>
	</g>
</g>
<polyline fill="#FFFFFF" points="81.278,68.357 81.503,81.288 96.169,81.044 99.963,72.553 97.815,66.054 89.291,66.029 
	89.695,55.716 87.904,54.855 "/>
<g>
	<g>
		<path fill="#040000" d="M91.887,84.062c-0.656-0.001-1.386-0.032-2.167-0.095c-0.235,0.007-0.519,0.01-0.8,0.01
			c-4.011,0-7.668-0.485-7.703-0.49l-1.306-0.158c-0.494,0.304-1.059,0.464-1.644,0.464L3.384,83.786
			c-1.734-0.002-3.143-1.415-3.141-3.15l0.018-10.333c0.002-1.73,1.412-3.139,3.143-3.139l74.885,0.006
			c0.355,0.001,0.698,0.059,1.023,0.171c0.313-0.583,0.689-1.107,1.122-1.563c0.082-0.078,0.129-0.121,0.182-0.157
			c1.766-1.354,3.997-6.375,4.969-8.941c-0.097-0.89-0.113-2.388,0.673-3.297c0.401-0.471,0.972-0.73,1.602-0.73
			c0.558,0.001,2.452,0.133,3.643,1.782c1.099,1.519,1.174,3.745,0.225,6.618c-0.485,1.464-0.675,2.372-0.743,2.913
			c0.128-0.025,0.254-0.05,0.378-0.072c0.046-0.009,1.471-0.325,3.202-0.402c0.255-0.012,0.504-0.018,0.744-0.018
			c2.131,0,3.718,0.464,4.718,1.377c1.641,1.503,1.297,3.369,1.024,4.203c0.357,0.529,0.727,1.297,0.764,2.247
			c0.037,0.918-0.242,1.803-0.831,2.632c0.092,0.304,0.18,0.703,0.201,1.165c0.045,0.934-0.174,2.282-1.425,3.514
			c0.055,0.666-0.014,1.569-0.523,2.484c-0.749,1.347-2.191,2.253-4.286,2.694c-0.85,0.182-1.867,0.273-3.023,0.273H91.887z
			 M89.856,81.253c0.777,0.062,1.467,0.092,2.088,0.092c0.961,0,1.783-0.072,2.443-0.214c1.272-0.267,2.131-0.739,2.482-1.365
			c0.302-0.538,0.165-1.122,0.131-1.246c-0.188-0.558-0.001-1.169,0.47-1.526c0.71-0.53,1.037-1.109,1.002-1.772
			c-0.015-0.284-0.096-0.585-0.229-0.847l-0.003-0.005c-0.305-0.518-0.226-1.18,0.195-1.619c0.457-0.471,0.678-0.923,0.659-1.347
			c-0.023-0.628-0.545-1.14-0.55-1.145c-0.493-0.447-0.592-1.185-0.223-1.743c0.098-0.156,0.582-1.023-0.133-1.677
			c-0.466-0.426-1.51-0.66-2.94-0.66c-1.042,0-2.268,0.13-3.278,0.349l-0.107,0.023c-0.339,0.057-0.699,0.131-1.078,0.216
			c-0.148,0.057-0.377,0.097-0.602,0.097c-0.46,0-0.896-0.164-1.228-0.462c-1.033-0.921-0.98-2.723,0.181-6.22
			c0.641-1.938,0.694-3.421,0.152-4.173c-0.277-0.385-0.693-0.544-1.011-0.609c-0.03,0.296-0.035,0.761,0.034,1.226
			c0.037,0.229,0.014,0.465-0.066,0.678c-0.502,1.358-3.138,8.22-5.941,10.436c-0.544,0.59-0.838,1.331-0.977,1.788
			c0.067,0.263,0.102,0.527,0.101,0.788c0,0-0.018,10.42-0.02,10.46l0.145,0.018c0.053,0.006,3.559,0.47,7.34,0.47
			c0.286,0,0.867-0.009,0.867-0.009H89.856z M78.266,81.068c0.237,0,0.431-0.191,0.431-0.427l0.017-10.332
			c0-0.236-0.191-0.43-0.428-0.43L3.407,69.873c-0.237,0-0.431,0.192-0.431,0.429L2.96,80.641c0,0.113,0.044,0.221,0.126,0.303
			c0.063,0.063,0.144,0.104,0.229,0.119l0.071-0.001L78.266,81.068z"/>
		<path fill="#FFFFFF" d="M87.858,53.151h0.004c0.496,0.001,2.182,0.118,3.233,1.575c1.004,1.388,1.05,3.461,0.155,6.168
			c-0.754,2.275-0.825,3.285-0.801,3.691c0.344-0.074,0.68-0.144,0.999-0.201h0.007c0.057-0.013,1.456-0.32,3.129-0.395
			c0.248-0.012,0.488-0.018,0.723-0.018c2.004,0,3.476,0.42,4.38,1.246c1.377,1.262,1.216,2.883,0.802,3.912
			c0.354,0.465,0.786,1.222,0.823,2.188c0.036,0.877-0.265,1.729-0.889,2.522c0.12,0.324,0.235,0.765,0.26,1.278
			c0.042,0.891-0.183,2.155-1.45,3.298c0.082,0.586,0.08,1.508-0.436,2.434c-0.676,1.214-2.006,2.038-3.953,2.448
			c-0.819,0.175-1.797,0.263-2.92,0.263c-0.013,0-0.024,0-0.037,0c-0.66-0.001-1.373-0.033-2.129-0.093
			c-0.28,0.005-0.561,0.007-0.838,0.007c-3.868,0-7.424-0.455-7.637-0.484l-1.494-0.182c-0.433,0.305-0.958,0.482-1.522,0.482
			h-0.005L3.384,83.286c-1.456-0.002-2.643-1.188-2.641-2.649l0.018-10.333c0.002-1.453,1.185-2.64,2.643-2.64h0.006l74.879,0.006
			c0.459,0.001,0.883,0.115,1.259,0.32c0.269-0.583,0.664-1.252,1.249-1.868c0.033-0.031,0.064-0.063,0.102-0.089
			c1.993-1.527,4.354-7.043,5.197-9.292c-0.087-0.7-0.168-2.213,0.54-3.032C86.944,53.347,87.382,53.151,87.858,53.151
			 M81.495,81.288h0.008c0.042,0.007,3.607,0.474,7.391,0.474c0.29,0,0.582-0.003,0.873-0.009c0.033,0,0.064,0,0.09,0
			c0.752,0.061,1.449,0.092,2.088,0.092c0.993,0,1.847-0.074,2.548-0.225c1.437-0.302,2.386-0.848,2.813-1.609
			c0.445-0.793,0.173-1.634,0.173-1.64c-0.126-0.357-0.005-0.752,0.295-0.979c0.84-0.628,1.242-1.365,1.198-2.197
			c-0.031-0.611-0.29-1.056-0.29-1.063c-0.204-0.33-0.151-0.756,0.116-1.035c0.554-0.57,0.822-1.15,0.797-1.715
			c-0.03-0.846-0.703-1.483-0.703-1.483c-0.316-0.287-0.386-0.751-0.151-1.106c0.083-0.133,0.817-1.379-0.212-2.321
			c-0.643-0.587-1.924-0.792-3.278-0.792c-1.204,0-2.465,0.162-3.384,0.361c-0.026,0.007-0.058,0.013-0.084,0.019
			c-0.348,0.058-0.717,0.134-1.105,0.221c-0.148,0.054-0.317,0.085-0.492,0.085c-0.305,0-0.628-0.096-0.894-0.334
			c-0.845-0.753-0.753-2.456,0.321-5.69c0.701-2.122,0.73-3.726,0.083-4.623c-0.546-0.758-1.454-0.854-1.791-0.86
			c-0.153,0.26-0.192,1.132-0.085,1.844c0.023,0.146,0.011,0.292-0.04,0.426c-0.122,0.33-2.925,7.962-5.783,10.221
			c-0.753,0.806-1.07,1.752-1.187,2.179c0.076,0.249,0.121,0.515,0.12,0.788l-0.017,10.339c-0.001,0.191-0.02,0.381-0.059,0.56
			L81.495,81.288 M3.387,81.568v-0.007l74.879,0.007h0.002c0.508,0,0.928-0.413,0.929-0.926l0.017-10.332
			c0.001-0.509-0.413-0.93-0.927-0.931L3.407,69.373c-0.508,0-0.93,0.412-0.931,0.928L2.46,80.64
			C2.459,81.147,2.872,81.568,3.387,81.568 M87.864,52.151L87.864,52.151h-0.002h-0.004c-0.778,0-1.483,0.322-1.983,0.908
			c-0.868,1.004-0.894,2.566-0.8,3.552c-1.105,2.895-3.218,7.412-4.774,8.619c-0.063,0.046-0.121,0.098-0.178,0.151l-0.018,0.017
			l-0.035,0.035c-0.374,0.395-0.709,0.837-1,1.32c-0.253-0.055-0.514-0.084-0.78-0.084L3.409,66.664
			c-2.012,0-3.646,1.632-3.648,3.639l-0.018,10.332c-0.003,2.011,1.63,3.648,3.639,3.651l74.881,0.007
			c0.621,0,1.22-0.153,1.755-0.447l1.146,0.139c0.021,0.004,3.712,0.492,7.758,0.492c0.268,0,0.537-0.002,0.808-0.006
			c0.776,0.06,1.502,0.091,2.157,0.092c1.229,0,2.282-0.096,3.168-0.285c2.24-0.472,3.795-1.461,4.618-2.939
			c0.511-0.918,0.625-1.824,0.599-2.535c1.238-1.315,1.459-2.734,1.412-3.729c-0.02-0.398-0.082-0.755-0.158-1.052
			c0.562-0.863,0.826-1.784,0.787-2.743c-0.036-0.943-0.363-1.724-0.715-2.297c0.484-1.681,0.041-3.332-1.233-4.5
			c-1.097-1.001-2.798-1.509-5.056-1.509c-0.249,0-0.505,0.007-0.769,0.019c-1.273,0.057-2.39,0.24-2.939,0.345
			c0.108-0.507,0.293-1.197,0.601-2.127c1.003-3.035,0.904-5.412-0.294-7.068C90.577,52.3,88.477,52.152,87.864,52.151
			L87.864,52.151z M82.682,68.078c2.884-2.351,5.528-9.232,6.032-10.598c0.112-0.295,0.145-0.619,0.093-0.939
			c-0.019-0.124-0.031-0.25-0.038-0.371c0.041,0.038,0.08,0.082,0.115,0.131c0.434,0.601,0.352,1.993-0.221,3.725
			c-0.903,2.718-1.533,5.418-0.037,6.75c0.421,0.378,0.976,0.588,1.559,0.588c0.258,0,0.52-0.042,0.762-0.121
			c0.352-0.077,0.685-0.146,1-0.198l0.026-0.004l0.026-0.007l0.118-0.026c0.938-0.202,2.124-0.329,3.133-0.329
			c1.878,0,2.468,0.406,2.604,0.53c0.411,0.376,0.134,0.901,0.039,1.053c-0.492,0.745-0.36,1.754,0.327,2.377
			c0.076,0.077,0.363,0.437,0.376,0.778c0.016,0.359-0.271,0.732-0.516,0.983c-0.511,0.533-0.655,1.298-0.398,1.958v0.013
			l0.03,0.059c0.026,0.061,0.057,0.12,0.09,0.179c0.1,0.199,0.16,0.425,0.171,0.638c0.017,0.311-0.048,0.785-0.798,1.346
			c-0.601,0.456-0.865,1.206-0.696,1.919v0.001l0.001,0.003c0.012,0.05,0.025,0.1,0.042,0.148c0.02,0.077,0.114,0.5-0.088,0.859
			c-0.274,0.489-1.037,0.887-2.147,1.12c-0.629,0.135-1.416,0.203-2.342,0.203c-0.607,0-1.283-0.03-2.008-0.089l-0.04-0.003h-0.04
			h-0.09c-0.305,0.006-0.59,0.009-0.873,0.009c-3.102,0-6.084-0.324-6.98-0.431l0.017-10.017c0.001-0.254-0.026-0.512-0.082-0.769
			C81.981,69.146,82.233,68.577,82.682,68.078L82.682,68.078z M3.46,80.562l0.017-10.188l74.736,0.007l-0.017,10.188L3.46,80.562
			L3.46,80.562z"/>
	</g>
</g>
<line fill="none" stroke="#000000" stroke-linecap="round" stroke-miterlimit="10" x1="93.797" y1="70.229" x2="95.63" y2="70.229"/>
<line fill="none" stroke="#000000" stroke-linecap="round" stroke-miterlimit="10" x1="93.797" y1="73.229" x2="95.63" y2="73.229"/>
<line fill="none" stroke="#000000" stroke-linecap="round" stroke-miterlimit="10" x1="93.797" y1="76.229" x2="95.63" y2="76.229"/>
</svg>
