<?xml version="1.0" encoding="utf-8"?>
<!-- Generator: Adobe Illustrator 16.0.0, SVG Export Plug-In . SVG Version: 6.00 Build 0)  -->
<!DOCTYPE svg PUBLIC "-//W3C//DTD SVG 1.1//EN" "http://www.w3.org/Graphics/SVG/1.1/DTD/svg11.dtd">
<svg version="1.1" id="Layer_1" xmlns="http://www.w3.org/2000/svg" xmlns:xlink="http://www.w3.org/1999/xlink" x="0px" y="0px"
	 width="126.875px" height="112.438px" viewBox="0 0 126.875 112.438" enable-background="new 0 0 126.875 112.438"
	 xml:space="preserve">
<rect fill="#FFFFFF" width="126.875" height="112.438"/>
<path stroke="#FFFFFF" stroke-miterlimit="10" d="M60.771,64.974c-0.264,0.302-0.698,0.435-1.303,0.395H56.89
	c-1.251,0.079-1.815-0.487-1.7-1.699v-6.503h2.52v1.289c0.02,0.294-0.371,0.41-1.172,0.352l0.821,4.044
	c3.632,0.272,5.391-0.841,5.272-3.342v-6.035c0.587,0.373,1.271,0.743,2.051,1.115l1.759-5.45c-3.027-1.327-5.548-3.008-7.56-5.039
	l0.587-0.878l-5.919-0.938c-0.684,1.269-1.592,2.479-2.723,3.632c-1.136,1.152-2.297,2.071-3.487,2.754v-0.762h-1.642V42.4h-4.979
	v5.508h-2.404v5.216h2.404v2.812c-0.489,0.097-1.012,0.176-1.568,0.234c-0.558,0.059-0.914,0.098-1.07,0.116l0.41,5.157
	c0.354-0.076,1.094-0.195,2.229-0.351v2.695c0.135,0.839-0.607,1.23-2.229,1.171l0.996,5.186h3.398
	c1.777-0.06,2.715-0.957,2.812-2.695v-7.179c0.332-0.038,0.958-0.135,1.875-0.293v-4.979c-0.839,0.156-1.465,0.274-1.875,0.351
	v-2.225h1.642v-0.88l1.055,2.345c0.586-0.333,1.034-0.606,1.348-0.821v13.36c0.136,2.068,1.093,3.056,2.87,2.957h7.852
	c4.142-0.136,6.094-2.275,5.86-6.416l-5.157-0.644C61.166,64.021,61.035,64.671,60.771,64.974z M51.674,52.42
	c0.607-0.37,1.373-0.977,2.301-1.815c0.927-0.841,1.684-1.582,2.271-2.229c0.663,0.821,1.46,1.626,2.387,2.418
	c0.927,0.79,1.694,1.333,2.3,1.626H51.674z"/>
<polyline fill="none" stroke="#000000" stroke-miterlimit="10" points="57.805,29.952 47.127,40.029 48.459,42.284 47.127,44.907 
	49.959,44.907 49.402,47.225 57.805,71.653 52.26,76.886 49.459,76.691 49.626,78.84 48.126,78.84 46.292,80.797 "/>
<g>
	<defs>
		<circle id="SVGID_1360_" cx="44.02" cy="56.215" r="16.145"/>
	</defs>
	<clipPath id="SVGID_2_">
		<use xlink:href="#SVGID_1360_"  overflow="visible"/>
	</clipPath>
	<path clip-path="url(#SVGID_2_)" fill="#C30D23" d="M66.44,49.139l-1.759,5.45c-0.78-0.372-1.464-0.742-2.051-1.115v6.035
		c0.118,2.501-1.641,3.614-5.272,3.342l-0.821-4.044c0.801,0.059,1.191-0.058,1.172-0.352v-1.289h-2.52v6.503
		c-0.115,1.212,0.449,1.778,1.7,1.699h2.578c0.604,0.04,1.039-0.093,1.303-0.395c0.265-0.303,0.396-0.952,0.396-1.948l5.157,0.644
		c0.233,4.141-1.719,6.28-5.86,6.416h-7.852c-1.777,0.099-2.734-0.889-2.87-2.957v-13.36c-0.313,0.215-0.762,0.488-1.348,0.821
		l-1.055-2.345v0.88h-1.642v2.225c0.41-0.076,1.036-0.194,1.875-0.351v4.979c-0.917,0.158-1.543,0.255-1.875,0.293v7.179
		c-0.098,1.738-1.035,2.636-2.812,2.695h-3.398l-0.996-5.186c1.621,0.06,2.363-0.332,2.229-1.171v-2.695
		c-1.135,0.155-1.875,0.274-2.229,0.351l-0.41-5.157c0.156-0.019,0.513-0.058,1.07-0.116c0.557-0.059,1.079-0.138,1.568-0.234
		v-2.812h-2.404v-5.216h2.404V42.4h4.979v5.508h1.642v0.762c1.19-0.683,2.352-1.602,3.487-2.754
		c1.131-1.152,2.039-2.363,2.723-3.632l5.919,0.938L58.881,44.1C60.893,46.131,63.413,47.812,66.44,49.139z M51.674,52.42h9.258
		c-0.605-0.293-1.373-0.836-2.3-1.626c-0.927-0.792-1.724-1.597-2.387-2.418c-0.587,0.646-1.344,1.388-2.271,2.229
		C53.047,51.443,52.281,52.05,51.674,52.42z"/>
</g>
<g>
	<path stroke="#FFFFFF" stroke-width="0.25" stroke-miterlimit="10" d="M75.708,64.133l0.409-0.641l0.366,0.641l3.064-1.281
		l0.31,0.133v-0.424h-2.995v-0.887c1.038-0.056,2.069-0.248,3.09-0.574l-0.861-1.871c-1.19,0.393-2.484,0.593-3.882,0.6v3.917
		L75.708,64.133z"/>
	<path stroke="#FFFFFF" stroke-width="0.25" stroke-miterlimit="10" d="M79.509,63.497l-2.934,1.185l-0.366-0.503l-0.595,0.412
		l-0.405-0.136v1.221c0.024,1.007-0.169,1.973-0.575,2.899h-4.386v-1.701l0.623,1.078c0.208-0.263,0.455-0.542,0.743-0.839v1.197
		h1.653v-2.06c0.399,0.353,0.727,0.704,0.982,1.054l0.79-1.82c-0.193-0.281-0.497-0.602-0.868-0.949l-0.565,0.971l-0.555-1.007
		l-0.548,0.503l-0.546-1.074l-0.873,1.074l-0.125-0.326c-0.215,0.299-0.446,0.605-0.712,0.928V64.69l-0.174,0.312l0.174-0.466
		v-3.317c0.238,0.352,0.455,0.654,0.647,0.911l0.719-0.624v0.791h-1.199v1.608l0.167-0.642l0.64,0.96l0.658-0.64l0.852,0.777
		l0.152-0.162l0.259-0.271l0.464,1.074l0.415-0.613c-0.022-0.02-0.037-0.036-0.059-0.056h0.098l0.135-0.2l0.274-0.961l0.354,0.275
		v-1.15h-0.238c0.15-0.672,0.304-1.335,0.454-1.988l-1.533-0.768c-0.08,0.367-0.158,0.759-0.239,1.174v-1.629h-1.653v1.606
		c-0.239-0.337-0.48-0.672-0.719-1.009l-0.743,0.551v-0.383h-1.653v10.438h6.374V69.57l0.911,0.838
		c0.72-1.174,1.078-2.488,1.078-3.941v-1.869h0.407v5.979h1.966v-5.979h0.622v-0.992L79.509,63.497z M73.268,61.985l0.431,0.312
		h-0.431V61.985z"/>
	<polygon stroke="#FFFFFF" stroke-width="0.25" stroke-miterlimit="10" points="74.288,64.333 74.824,64.333 74.824,64.328 
		74.379,64.179 	"/>
	<polygon stroke="#FFFFFF" stroke-width="0.25" stroke-miterlimit="10" points="70.828,64.333 70.673,63.928 70.447,64.333 	"/>
</g>
<g>
	<polygon stroke="#FFFFFF" stroke-width="0.25" stroke-miterlimit="10" points="82.431,64.297 82.431,66.552 83.404,66.826 
		83.542,66.078 84.123,66.535 84.565,66.096 84.565,65.712 84.951,65.712 86.377,64.297 	"/>
	<path stroke="#FFFFFF" stroke-width="0.25" stroke-miterlimit="10" d="M85.618,62.525c0.258-0.041,0.536-0.12,0.84-0.241v0.241
		c0.016,0.398,0.144,0.706,0.385,0.921c0.239,0.217,0.494,0.325,0.766,0.325h1.742l0.853-0.742l1.496,0.035l-1.263,0.414
		l-0.377,0.293h1.215c0.368-0.017,0.676-0.191,0.924-0.521c0.248-0.333,0.387-0.718,0.419-1.157l-2.085-0.623
		c-0.008,0.526-0.256,0.791-0.742,0.791h-0.815c-0.247-0.032-0.374-0.136-0.384-0.312v-0.191c0.535-0.192,1.089-0.408,1.659-0.647
		c0.571-0.24,1.081-0.47,1.528-0.694l-0.84-1.438c-0.393,0.239-0.765,0.439-1.124,0.604c-0.361,0.164-0.769,0.338-1.224,0.521
		v-0.958h-2.133v1.487c-0.415,0.142-0.863,0.247-1.342,0.31L85.618,62.525z"/>
	<path stroke="#FFFFFF" stroke-width="0.25" stroke-miterlimit="10" d="M82.671,62.261v1.605h2.037v-3.282
		c0.159-0.201,0.384-0.497,0.671-0.887l-1.726-0.887c-0.326,0.446-0.732,0.87-1.223,1.27c-0.485,0.399-0.98,0.751-1.482,1.055
		l0.957,1.63C82.169,62.644,82.424,62.477,82.671,62.261z"/>
	<path stroke="#FFFFFF" stroke-width="0.25" stroke-miterlimit="10" d="M91.442,68.444v-4.147h-2.061l-0.41,0.318l-2.286,0.192
		l-0.934,0.904h3.462v2.204c-0.511-0.207-1.069-0.383-1.678-0.527c0.216-0.353,0.352-0.693,0.408-1.03l-2.205-0.479
		c-0.057,0.815-0.447,1.541-1.174,2.18v-1.198l-0.151,0.146l-0.528-0.327l-0.396,0.605l-1.059,0.067v1.139h1.128
		c-0.528,0.171-1.057,0.293-1.585,0.392v0.005l-0.005-0.004c-0.204,0.038-0.409,0.083-0.614,0.11l1.271,1.856
		c1.421-0.192,2.746-0.77,3.977-1.736c1.599,0.398,3.163,0.978,4.697,1.736l0.983-1.762c-0.528-0.239-1.064-0.455-1.606-0.646
		H91.442z"/>
</g>
</svg>
