<?xml version="1.0" encoding="utf-8"?>
<!-- Generator: Adobe Illustrator 16.0.0, SVG Export Plug-In . SVG Version: 6.00 Build 0)  -->
<!DOCTYPE svg PUBLIC "-//W3C//DTD SVG 1.1//EN" "http://www.w3.org/Graphics/SVG/1.1/DTD/svg11.dtd">
<svg version="1.1" id="Layer_1" xmlns="http://www.w3.org/2000/svg" xmlns:xlink="http://www.w3.org/1999/xlink" x="0px" y="0px"
	 width="126.877px" height="112.438px" viewBox="0 0 126.877 112.438" enable-background="new 0 0 126.877 112.438"
	 xml:space="preserve">
<rect fill="#FFFFFF" width="126.877" height="112.438"/>
<g>
	<path fill="#FFFFFF" d="M58.089,29.408c-0.935,0-1.423-0.417-1.815-0.752c-0.325-0.277-0.541-0.461-1.028-0.461
		s-0.702,0.184-1.027,0.461c-0.394,0.335-0.882,0.752-1.816,0.752c-0.933,0-1.422-0.417-1.814-0.752
		c-0.324-0.277-0.54-0.461-1.026-0.461s-0.7,0.184-1.026,0.461c-0.392,0.335-0.879,0.752-1.813,0.752
		c-0.933,0-1.421-0.417-1.812-0.752c-0.325-0.277-0.539-0.461-1.025-0.461s-0.701,0.184-1.026,0.461
		c-0.392,0.335-0.879,0.752-1.813,0.752c-0.934,0-1.421-0.417-1.812-0.752c-0.325-0.277-0.54-0.461-1.026-0.461
		s-0.701,0.184-1.026,0.461c-0.392,0.335-0.88,0.752-1.813,0.752c-0.933,0-1.421-0.417-1.813-0.752
		c-0.324-0.277-0.538-0.461-1.024-0.461c-0.485,0-0.7,0.184-1.024,0.461c-0.392,0.335-0.879,0.752-1.812,0.752
		c-0.933,0-1.421-0.417-1.812-0.752c-0.325-0.277-0.54-0.461-1.026-0.461c-0.484,0-0.698,0.184-1.023,0.461
		c-0.392,0.335-0.879,0.752-1.812,0.752c-0.934,0-1.422-0.417-1.813-0.752c-0.325-0.277-0.539-0.461-1.025-0.461v-1.213
		c0.934,0,1.421,0.417,1.813,0.752c0.325,0.277,0.539,0.461,1.025,0.461c0.484,0,0.698-0.184,1.023-0.461
		c0.392-0.335,0.879-0.752,1.812-0.752c0.934,0,1.422,0.417,1.813,0.752c0.325,0.277,0.54,0.461,1.025,0.461s0.7-0.184,1.024-0.461
		c0.392-0.335,0.88-0.752,1.812-0.752c0.934,0,1.422,0.417,1.813,0.752c0.324,0.277,0.539,0.461,1.024,0.461
		c0.486,0,0.701-0.184,1.026-0.461c0.392-0.335,0.88-0.752,1.813-0.752s1.422,0.417,1.813,0.752c0.325,0.277,0.54,0.461,1.025,0.461
		c0.486,0,0.701-0.184,1.026-0.461c0.392-0.335,0.88-0.752,1.813-0.752s1.422,0.417,1.813,0.752
		c0.325,0.277,0.539,0.461,1.024,0.461c0.486,0,0.701-0.184,1.026-0.461c0.392-0.335,0.88-0.752,1.813-0.752
		c0.935,0,1.422,0.417,1.814,0.752c0.325,0.277,0.54,0.461,1.026,0.461c0.488,0,0.702-0.184,1.028-0.461
		c0.393-0.335,0.881-0.752,1.815-0.752s1.423,0.417,1.815,0.752c0.325,0.277,0.541,0.461,1.028,0.461V29.408z"/>
</g>
<g>
	<path fill="#FFFFFF" d="M106.649,29.408c-0.935,0-1.423-0.417-1.814-0.752c-0.326-0.277-0.542-0.461-1.028-0.461
		c-0.488,0-0.702,0.184-1.028,0.461c-0.393,0.335-0.881,0.752-1.815,0.752c-0.934,0-1.422-0.417-1.814-0.752
		c-0.325-0.277-0.54-0.461-1.027-0.461c-0.485,0-0.7,0.184-1.025,0.461c-0.393,0.335-0.88,0.752-1.813,0.752
		s-1.422-0.417-1.813-0.752c-0.324-0.277-0.539-0.461-1.024-0.461c-0.487,0-0.701,0.184-1.026,0.461
		c-0.393,0.335-0.88,0.752-1.813,0.752s-1.421-0.417-1.813-0.752c-0.325-0.277-0.539-0.461-1.026-0.461
		c-0.485,0-0.7,0.184-1.025,0.461c-0.393,0.335-0.88,0.752-1.813,0.752s-1.422-0.417-1.813-0.752
		c-0.324-0.277-0.539-0.461-1.024-0.461c-0.486,0-0.7,0.184-1.024,0.461c-0.393,0.335-0.88,0.752-1.812,0.752
		c-0.934,0-1.421-0.417-1.813-0.752c-0.325-0.277-0.539-0.461-1.025-0.461c-0.484,0-0.699,0.184-1.023,0.461
		c-0.393,0.335-0.88,0.752-1.812,0.752c-0.934,0-1.421-0.417-1.813-0.752c-0.324-0.277-0.539-0.461-1.024-0.461v-1.213
		c0.933,0,1.421,0.417,1.812,0.752c0.325,0.277,0.54,0.461,1.025,0.461c0.484,0,0.699-0.184,1.023-0.461
		c0.393-0.335,0.88-0.752,1.812-0.752c0.934,0,1.421,0.417,1.813,0.752c0.325,0.277,0.539,0.461,1.025,0.461
		c0.485,0,0.699-0.184,1.024-0.461c0.391-0.335,0.879-0.752,1.812-0.752s1.421,0.417,1.813,0.752
		c0.324,0.277,0.539,0.461,1.024,0.461s0.7-0.184,1.025-0.461c0.393-0.335,0.88-0.752,1.813-0.752c0.935,0,1.422,0.417,1.814,0.752
		c0.325,0.277,0.539,0.461,1.025,0.461s0.7-0.184,1.025-0.461c0.393-0.335,0.88-0.752,1.814-0.752c0.934,0,1.421,0.417,1.813,0.752
		c0.324,0.277,0.539,0.461,1.024,0.461c0.486,0,0.701-0.184,1.025-0.461c0.393-0.335,0.88-0.752,1.813-0.752
		c0.935,0,1.423,0.417,1.814,0.752c0.326,0.277,0.54,0.461,1.027,0.461c0.488,0,0.702-0.184,1.027-0.461
		c0.394-0.335,0.882-0.752,1.816-0.752c0.934,0,1.422,0.417,1.814,0.752c0.326,0.277,0.541,0.461,1.028,0.461V29.408z"/>
</g>
<g>
	<path fill="#FFFFFF" d="M53.995,35.333c-0.962,0-1.469-0.411-1.875-0.742c-0.35-0.284-0.581-0.471-1.111-0.471
		c-0.532,0-0.763,0.187-1.111,0.471c-0.407,0.331-0.914,0.742-1.876,0.742s-1.468-0.411-1.875-0.742
		c-0.348-0.284-0.579-0.471-1.109-0.471c-0.531,0-0.761,0.187-1.109,0.47c-0.406,0.332-0.912,0.743-1.873,0.743
		c-0.962,0-1.468-0.411-1.875-0.742c-0.349-0.284-0.578-0.471-1.109-0.471c-0.53,0-0.76,0.187-1.108,0.47
		c-0.407,0.332-0.913,0.743-1.875,0.743c-0.961,0-1.468-0.411-1.874-0.743c-0.349-0.283-0.579-0.47-1.108-0.47
		c-0.53,0-0.761,0.187-1.109,0.47c-0.406,0.332-0.913,0.743-1.874,0.743s-1.467-0.411-1.874-0.743
		c-0.348-0.283-0.578-0.47-1.107-0.47c-0.53,0-0.76,0.187-1.107,0.47c-0.407,0.332-0.912,0.743-1.874,0.743
		c-0.96,0-1.466-0.411-1.873-0.743c-0.349-0.283-0.578-0.47-1.108-0.47v-1.213c0.961,0,1.467,0.411,1.874,0.743
		c0.348,0.283,0.578,0.47,1.107,0.47c0.53,0,0.76-0.187,1.107-0.47c0.407-0.332,0.913-0.743,1.874-0.743s1.467,0.411,1.873,0.743
		c0.348,0.283,0.578,0.47,1.108,0.47s0.761-0.187,1.108-0.47c0.407-0.332,0.913-0.743,1.875-0.743c0.961,0,1.467,0.411,1.874,0.743
		c0.348,0.283,0.578,0.47,1.108,0.47c0.531,0,0.761-0.187,1.109-0.471c0.407-0.331,0.913-0.742,1.874-0.742
		c0.962,0,1.468,0.411,1.875,0.743c0.349,0.283,0.578,0.47,1.109,0.47c0.529,0,0.76-0.187,1.108-0.47
		c0.406-0.332,0.912-0.743,1.874-0.743c0.961,0,1.467,0.411,1.875,0.742c0.348,0.284,0.579,0.471,1.109,0.471
		c0.532,0,0.763-0.187,1.111-0.471c0.407-0.331,0.914-0.742,1.876-0.742s1.468,0.411,1.875,0.742c0.35,0.284,0.58,0.471,1.111,0.471
		V35.333z"/>
</g>
<g>
	<path fill="#FFFFFF" d="M106.649,35.333c-0.962,0-1.469-0.411-1.875-0.742c-0.35-0.284-0.581-0.471-1.111-0.471
		c-0.532,0-0.762,0.187-1.11,0.471c-0.408,0.331-0.915,0.742-1.877,0.742s-1.467-0.411-1.875-0.742
		c-0.348-0.284-0.579-0.471-1.109-0.471c-0.531,0-0.761,0.187-1.108,0.47c-0.406,0.332-0.913,0.743-1.874,0.743
		s-1.468-0.411-1.875-0.742c-0.349-0.284-0.578-0.471-1.108-0.471c-0.531,0-0.761,0.187-1.109,0.47
		c-0.407,0.332-0.913,0.743-1.875,0.743c-0.961,0-1.467-0.411-1.873-0.743c-0.35-0.283-0.579-0.47-1.109-0.47
		s-0.761,0.187-1.109,0.47c-0.406,0.332-0.913,0.743-1.874,0.743s-1.467-0.411-1.874-0.743c-0.348-0.283-0.577-0.47-1.107-0.47
		c-0.529,0-0.76,0.187-1.107,0.47c-0.406,0.332-0.912,0.743-1.873,0.743s-1.467-0.411-1.874-0.743
		c-0.349-0.283-0.578-0.47-1.108-0.47v-1.213c0.961,0,1.467,0.411,1.874,0.743c0.348,0.283,0.578,0.47,1.108,0.47
		c0.529,0,0.76-0.187,1.107-0.47c0.406-0.332,0.912-0.743,1.873-0.743s1.467,0.411,1.873,0.743c0.349,0.283,0.578,0.47,1.108,0.47
		c0.531,0,0.761-0.187,1.108-0.47c0.407-0.332,0.913-0.743,1.875-0.743c0.961,0,1.468,0.411,1.874,0.743
		c0.349,0.283,0.578,0.47,1.108,0.47c0.531,0,0.761-0.187,1.109-0.471c0.407-0.331,0.913-0.742,1.875-0.742
		c0.961,0,1.467,0.411,1.874,0.743c0.349,0.283,0.578,0.47,1.109,0.47c0.53,0,0.76-0.187,1.108-0.47
		c0.406-0.332,0.913-0.743,1.874-0.743c0.962,0,1.468,0.411,1.875,0.742c0.348,0.284,0.579,0.471,1.109,0.471
		c0.532,0,0.763-0.187,1.111-0.471c0.407-0.331,0.914-0.742,1.876-0.742s1.468,0.411,1.875,0.742c0.35,0.284,0.58,0.471,1.111,0.471
		V35.333z"/>
</g>
<g>
	<path fill="#FFFFFF" d="M57.982,41.258c-0.933,0-1.421-0.417-1.812-0.752c-0.325-0.277-0.539-0.461-1.024-0.461
		c-0.484,0-0.698,0.183-1.022,0.461c-0.391,0.335-0.879,0.752-1.812,0.752c-0.932,0-1.419-0.417-1.81-0.752
		c-0.324-0.278-0.538-0.461-1.021-0.461c-0.483,0-0.698,0.183-1.021,0.46c-0.391,0.336-0.878,0.753-1.81,0.753
		c-0.933,0-1.419-0.417-1.811-0.752c-0.324-0.278-0.538-0.461-1.021-0.461s-0.697,0.183-1.021,0.461
		c-0.391,0.335-0.877,0.752-1.81,0.752c-0.932,0-1.419-0.417-1.811-0.752c-0.324-0.278-0.537-0.461-1.021-0.461
		c-0.483,0-0.697,0.183-1.021,0.461c-0.392,0.335-0.878,0.752-1.81,0.752s-1.418-0.418-1.81-0.753
		c-0.323-0.277-0.536-0.46-1.02-0.46s-0.697,0.183-1.021,0.461c-0.392,0.335-0.878,0.752-1.811,0.752
		c-0.931,0-1.418-0.418-1.809-0.753c-0.323-0.277-0.536-0.46-1.019-0.46c-0.483,0-0.697,0.183-1.021,0.461
		c-0.392,0.335-0.879,0.752-1.811,0.752s-1.419-0.417-1.811-0.752c-0.323-0.278-0.537-0.461-1.021-0.461v-1.213
		c0.932,0,1.418,0.417,1.81,0.752c0.324,0.277,0.538,0.461,1.021,0.461s0.697-0.184,1.021-0.461
		c0.392-0.335,0.879-0.752,1.811-0.752c0.931,0,1.418,0.417,1.809,0.752c0.323,0.277,0.537,0.461,1.019,0.461
		c0.483,0,0.698-0.184,1.021-0.461c0.391-0.335,0.877-0.752,1.81-0.752c0.932,0,1.418,0.417,1.81,0.752
		c0.323,0.277,0.537,0.461,1.02,0.461c0.483,0,0.697-0.184,1.021-0.461c0.391-0.335,0.878-0.752,1.81-0.752
		c0.933,0,1.419,0.417,1.811,0.752c0.324,0.277,0.538,0.461,1.021,0.461s0.697-0.184,1.021-0.461
		c0.391-0.335,0.877-0.752,1.81-0.752c0.932,0,1.419,0.417,1.811,0.752c0.323,0.277,0.537,0.461,1.021,0.461
		c0.483,0,0.697-0.184,1.021-0.461c0.391-0.335,0.878-0.752,1.811-0.752c0.932,0,1.419,0.417,1.81,0.752
		c0.323,0.277,0.538,0.461,1.021,0.461c0.484,0,0.699-0.184,1.022-0.461c0.392-0.335,0.879-0.752,1.812-0.752
		s1.421,0.417,1.812,0.752c0.325,0.277,0.539,0.461,1.024,0.461c0.484,0,0.699-0.184,1.023-0.461
		c0.391-0.335,0.879-0.752,1.812-0.752v1.213c-0.484,0-0.699,0.184-1.023,0.461C59.403,40.841,58.915,41.258,57.982,41.258z"/>
</g>
<g>
	<path fill="#FFFFFF" d="M103.814,41.258c-0.933,0-1.421-0.417-1.812-0.752c-0.325-0.277-0.539-0.461-1.024-0.461
		c-0.484,0-0.698,0.183-1.022,0.461c-0.391,0.335-0.879,0.752-1.812,0.752c-0.932,0-1.419-0.417-1.81-0.752
		c-0.324-0.278-0.538-0.461-1.021-0.461c-0.483,0-0.698,0.183-1.021,0.46c-0.391,0.336-0.878,0.753-1.81,0.753
		c-0.933,0-1.419-0.417-1.811-0.752c-0.324-0.278-0.538-0.461-1.021-0.461s-0.697,0.183-1.021,0.461
		c-0.391,0.335-0.877,0.752-1.81,0.752c-0.932,0-1.419-0.417-1.811-0.752c-0.324-0.278-0.537-0.461-1.021-0.461
		c-0.483,0-0.697,0.183-1.021,0.461c-0.392,0.335-0.878,0.752-1.81,0.752s-1.418-0.418-1.81-0.753
		c-0.323-0.277-0.536-0.46-1.02-0.46s-0.697,0.183-1.021,0.461c-0.392,0.335-0.878,0.752-1.811,0.752
		c-0.931,0-1.418-0.418-1.809-0.753c-0.323-0.277-0.536-0.46-1.019-0.46c-0.483,0-0.697,0.183-1.021,0.461
		c-0.392,0.335-0.879,0.752-1.811,0.752s-1.419-0.417-1.811-0.752c-0.323-0.278-0.537-0.461-1.021-0.461v-1.213
		c0.932,0,1.419,0.417,1.81,0.752c0.324,0.277,0.538,0.461,1.021,0.461s0.697-0.184,1.021-0.461
		c0.392-0.335,0.879-0.752,1.811-0.752c0.931,0,1.418,0.417,1.809,0.752c0.323,0.277,0.537,0.461,1.019,0.461
		c0.483,0,0.698-0.184,1.021-0.461c0.391-0.335,0.877-0.752,1.81-0.752c0.932,0,1.419,0.417,1.81,0.752
		c0.323,0.277,0.537,0.461,1.02,0.461c0.483,0,0.697-0.184,1.021-0.461c0.391-0.335,0.878-0.752,1.81-0.752
		c0.933,0,1.419,0.417,1.811,0.752c0.324,0.277,0.538,0.461,1.021,0.461s0.697-0.184,1.021-0.461
		c0.391-0.335,0.877-0.752,1.81-0.752c0.932,0,1.419,0.417,1.811,0.752c0.323,0.277,0.537,0.461,1.021,0.461
		c0.483,0,0.697-0.184,1.021-0.461c0.392-0.335,0.878-0.752,1.811-0.752c0.932,0,1.419,0.417,1.81,0.752
		c0.324,0.277,0.538,0.461,1.021,0.461c0.484,0,0.699-0.184,1.022-0.461c0.392-0.335,0.879-0.752,1.812-0.752
		s1.421,0.417,1.812,0.752c0.325,0.277,0.539,0.461,1.024,0.461c0.484,0,0.699-0.184,1.023-0.461
		c0.391-0.335,0.879-0.752,1.812-0.752v1.213c-0.484,0-0.699,0.184-1.023,0.461C105.235,40.841,104.747,41.258,103.814,41.258z"/>
</g>
<g>
	<path fill="#FFFFFF" d="M56.997,47.182c-0.919,0-1.417-0.438-1.78-0.757c-0.312-0.274-0.519-0.456-0.979-0.456
		c-0.46,0-0.667,0.182-0.979,0.456c-0.363,0.319-0.861,0.757-1.78,0.757c-0.917,0-1.415-0.438-1.777-0.757
		c-0.312-0.274-0.518-0.456-0.978-0.456s-0.665,0.182-0.977,0.456c-0.363,0.319-0.86,0.757-1.778,0.757s-1.415-0.438-1.779-0.757
		c-0.311-0.274-0.517-0.456-0.977-0.456s-0.666,0.182-0.978,0.456c-0.363,0.319-0.86,0.757-1.778,0.757s-1.416-0.438-1.778-0.757
		c-0.312-0.274-0.518-0.456-0.978-0.456c-0.459,0-0.665,0.182-0.977,0.455c-0.362,0.32-0.86,0.758-1.778,0.758
		c-0.917,0-1.414-0.438-1.777-0.758c-0.311-0.273-0.517-0.455-0.976-0.455c-0.46,0-0.665,0.182-0.977,0.456
		c-0.363,0.319-0.861,0.757-1.778,0.757c-0.918,0-1.414-0.438-1.777-0.758c-0.312-0.273-0.517-0.455-0.975-0.455
		c-0.46,0-0.666,0.182-0.977,0.455c-0.363,0.32-0.86,0.758-1.777,0.758c-0.918,0-1.416-0.438-1.779-0.757
		c-0.312-0.274-0.517-0.456-0.977-0.456v-1.213c0.917,0,1.415,0.438,1.778,0.758c0.312,0.274,0.517,0.455,0.978,0.455
		c0.459,0,0.664-0.181,0.976-0.454c0.362-0.32,0.86-0.759,1.778-0.759c0.916,0,1.414,0.438,1.776,0.759
		c0.311,0.273,0.517,0.454,0.976,0.454c0.46,0,0.665-0.181,0.977-0.455c0.363-0.319,0.86-0.758,1.778-0.758
		c0.917,0,1.415,0.438,1.777,0.759c0.312,0.273,0.517,0.454,0.976,0.454c0.46,0,0.666-0.181,0.978-0.455
		c0.362-0.319,0.859-0.758,1.777-0.758s1.416,0.438,1.778,0.758c0.312,0.274,0.518,0.455,0.978,0.455s0.665-0.181,0.977-0.455
		c0.363-0.319,0.861-0.758,1.779-0.758s1.415,0.438,1.779,0.758c0.311,0.274,0.517,0.455,0.977,0.455s0.665-0.181,0.977-0.455
		c0.363-0.319,0.86-0.758,1.778-0.758s1.416,0.438,1.778,0.758c0.312,0.274,0.518,0.455,0.977,0.455
		c0.461,0,0.667-0.181,0.979-0.455c0.364-0.319,0.862-0.758,1.78-0.758s1.416,0.438,1.78,0.758c0.312,0.274,0.518,0.455,0.979,0.455
		c0.461,0,0.667-0.181,0.979-0.455c0.363-0.319,0.861-0.758,1.78-0.758v1.213c-0.462,0-0.668,0.182-0.979,0.456
		C58.413,46.744,57.915,47.182,56.997,47.182z"/>
</g>
<g>
	<path fill="#FFFFFF" d="M103.89,47.182c-0.918,0-1.416-0.438-1.78-0.757c-0.312-0.274-0.518-0.456-0.979-0.456
		c-0.46,0-0.666,0.182-0.978,0.456c-0.363,0.319-0.861,0.757-1.78,0.757c-0.917,0-1.415-0.438-1.777-0.757
		c-0.312-0.274-0.518-0.456-0.978-0.456s-0.666,0.182-0.977,0.456c-0.363,0.319-0.861,0.757-1.778,0.757
		c-0.918,0-1.415-0.438-1.779-0.757c-0.312-0.274-0.517-0.456-0.977-0.456c-0.461,0-0.666,0.182-0.978,0.456
		c-0.363,0.319-0.861,0.757-1.779,0.757s-1.415-0.438-1.777-0.757c-0.312-0.274-0.518-0.456-0.978-0.456s-0.665,0.182-0.977,0.455
		c-0.363,0.32-0.86,0.758-1.778,0.758c-0.917,0-1.414-0.438-1.777-0.758c-0.311-0.273-0.517-0.455-0.976-0.455
		c-0.46,0-0.665,0.182-0.977,0.456c-0.364,0.319-0.861,0.757-1.778,0.757c-0.918,0-1.415-0.438-1.777-0.758
		c-0.312-0.273-0.517-0.455-0.976-0.455s-0.665,0.182-0.976,0.455c-0.363,0.32-0.861,0.758-1.777,0.758
		c-0.918,0-1.416-0.438-1.779-0.757c-0.312-0.274-0.517-0.456-0.977-0.456v-1.213c0.917,0,1.414,0.438,1.778,0.758
		c0.312,0.274,0.517,0.455,0.978,0.455c0.459,0,0.664-0.181,0.976-0.454c0.362-0.32,0.86-0.759,1.777-0.759s1.415,0.438,1.777,0.759
		c0.311,0.273,0.517,0.454,0.976,0.454c0.46,0,0.664-0.181,0.977-0.455c0.363-0.319,0.86-0.758,1.778-0.758
		c0.917,0,1.415,0.438,1.777,0.759c0.312,0.273,0.516,0.454,0.976,0.454s0.666-0.181,0.978-0.455
		c0.362-0.319,0.859-0.758,1.777-0.758c0.917,0,1.415,0.438,1.778,0.758c0.312,0.274,0.518,0.455,0.977,0.455
		c0.461,0,0.666-0.181,0.978-0.455c0.363-0.319,0.861-0.758,1.779-0.758s1.415,0.438,1.778,0.758
		c0.312,0.274,0.518,0.455,0.978,0.455s0.665-0.181,0.977-0.455c0.363-0.319,0.86-0.758,1.778-0.758s1.416,0.438,1.778,0.758
		c0.312,0.274,0.518,0.455,0.977,0.455c0.461,0,0.667-0.181,0.979-0.455c0.363-0.319,0.861-0.758,1.779-0.758
		c0.919,0,1.417,0.438,1.78,0.758c0.312,0.274,0.519,0.455,0.979,0.455c0.462,0,0.668-0.181,0.979-0.455
		c0.364-0.319,0.862-0.758,1.78-0.758v1.213c-0.461,0-0.667,0.182-0.979,0.456C105.307,46.744,104.809,47.182,103.89,47.182z"/>
</g>
<g>
	<path fill="#FFFFFF" d="M45.96,53.106c-0.918,0-1.416-0.438-1.779-0.757c-0.312-0.274-0.517-0.456-0.978-0.456
		s-0.666,0.182-0.978,0.456c-0.363,0.319-0.861,0.757-1.779,0.757c-0.917,0-1.415-0.438-1.778-0.758
		c-0.312-0.273-0.517-0.455-0.976-0.455c-0.46,0-0.665,0.182-0.977,0.455c-0.362,0.319-0.859,0.758-1.776,0.758
		s-1.414-0.438-1.777-0.758c-0.311-0.273-0.516-0.455-0.976-0.455c-0.459,0-0.664,0.182-0.976,0.455
		c-0.362,0.319-0.86,0.758-1.777,0.758c-0.916,0-1.414-0.438-1.776-0.758c-0.312-0.273-0.517-0.455-0.976-0.455
		c-0.46,0-0.665,0.182-0.977,0.455c-0.362,0.319-0.859,0.758-1.776,0.758s-1.414-0.438-1.777-0.758
		c-0.311-0.273-0.516-0.455-0.975-0.455v-1.212c0.917,0,1.413,0.438,1.776,0.758c0.312,0.273,0.516,0.454,0.976,0.454
		c0.458,0,0.665-0.181,0.975-0.454c0.364-0.32,0.86-0.758,1.778-0.758c0.917,0,1.414,0.438,1.777,0.758
		c0.311,0.273,0.516,0.454,0.975,0.454s0.665-0.181,0.976-0.454c0.363-0.32,0.86-0.758,1.777-0.758c0.918,0,1.414,0.438,1.777,0.758
		c0.312,0.273,0.516,0.454,0.976,0.454c0.458,0,0.664-0.181,0.975-0.454c0.363-0.32,0.86-0.758,1.778-0.758
		c0.917,0,1.414,0.438,1.777,0.757c0.312,0.274,0.517,0.455,0.977,0.455s0.666-0.181,0.978-0.455
		c0.364-0.319,0.861-0.757,1.779-0.757s1.416,0.438,1.779,0.757c0.312,0.274,0.518,0.455,0.978,0.455V53.106z"/>
</g>
<g>
	<path fill="#FFFFFF" d="M106.649,53.106c-0.918,0-1.416-0.438-1.778-0.757c-0.312-0.274-0.518-0.456-0.979-0.456
		c-0.46,0-0.666,0.182-0.978,0.456c-0.362,0.319-0.86,0.757-1.778,0.757s-1.415-0.438-1.779-0.757
		c-0.312-0.274-0.516-0.456-0.977-0.456c-0.459,0-0.664,0.182-0.975,0.455c-0.363,0.319-0.86,0.758-1.777,0.758
		s-1.414-0.438-1.777-0.758c-0.311-0.273-0.516-0.455-0.975-0.455s-0.665,0.182-0.976,0.455c-0.363,0.319-0.86,0.758-1.777,0.758
		s-1.414-0.438-1.777-0.758c-0.312-0.273-0.517-0.455-0.976-0.455s-0.664,0.182-0.976,0.455c-0.362,0.319-0.86,0.758-1.777,0.758
		s-1.414-0.438-1.776-0.758c-0.312-0.273-0.517-0.455-0.976-0.455v-1.212c0.918,0,1.414,0.438,1.777,0.758
		c0.311,0.273,0.516,0.454,0.975,0.454s0.665-0.181,0.976-0.454c0.363-0.32,0.859-0.758,1.777-0.758
		c0.917,0,1.414,0.438,1.777,0.758c0.311,0.273,0.517,0.454,0.976,0.454s0.664-0.181,0.976-0.454c0.362-0.32,0.86-0.758,1.777-0.758
		s1.414,0.438,1.776,0.758c0.312,0.273,0.517,0.454,0.976,0.454s0.664-0.181,0.975-0.454c0.363-0.32,0.86-0.758,1.777-0.758
		c0.918,0,1.415,0.438,1.779,0.757c0.311,0.274,0.516,0.455,0.977,0.455c0.46,0,0.666-0.181,0.978-0.455
		c0.363-0.319,0.86-0.757,1.778-0.757s1.416,0.438,1.779,0.757c0.312,0.274,0.518,0.455,0.978,0.455V53.106z"/>
</g>
<g>
	<path fill="#FFFFFF" d="M51.115,59.031c-0.913,0-1.406-0.439-1.767-0.76c-0.306-0.273-0.509-0.453-0.959-0.453
		s-0.652,0.18-0.959,0.453c-0.36,0.32-0.854,0.76-1.767,0.76c-0.911,0-1.404-0.439-1.765-0.76c-0.317-0.282-0.508-0.453-0.958-0.453
		c-0.449,0-0.641,0.171-0.957,0.453c-0.36,0.32-0.853,0.76-1.764,0.76c-0.912,0-1.404-0.439-1.765-0.76
		c-0.316-0.282-0.507-0.453-0.956-0.453s-0.641,0.171-0.957,0.453c-0.359,0.32-0.853,0.76-1.765,0.76
		c-0.911,0-1.403-0.439-1.764-0.76c-0.316-0.282-0.508-0.453-0.957-0.453s-0.641,0.171-0.957,0.453
		c-0.36,0.32-0.853,0.76-1.765,0.76c-0.911,0-1.403-0.439-1.764-0.76c-0.316-0.282-0.507-0.453-0.956-0.453s-0.64,0.171-0.956,0.453
		c-0.359,0.32-0.853,0.76-1.764,0.76c-0.91,0-1.403-0.439-1.764-0.76c-0.316-0.282-0.507-0.453-0.956-0.453v-1.213
		c0.911,0,1.404,0.439,1.765,0.761c0.315,0.282,0.507,0.452,0.955,0.452c0.449,0,0.64-0.17,0.956-0.452
		c0.36-0.321,0.853-0.761,1.764-0.761s1.403,0.439,1.764,0.761c0.316,0.282,0.507,0.452,0.956,0.452s0.641-0.17,0.957-0.452
		c0.36-0.321,0.853-0.761,1.765-0.761c0.911,0,1.403,0.439,1.764,0.761c0.316,0.282,0.508,0.452,0.957,0.452s0.641-0.17,0.957-0.452
		c0.36-0.321,0.853-0.761,1.765-0.761c0.911,0,1.403,0.439,1.764,0.761c0.316,0.282,0.507,0.452,0.957,0.452
		c0.449,0,0.64-0.17,0.956-0.452c0.36-0.321,0.853-0.761,1.765-0.761c0.911,0,1.404,0.439,1.765,0.76
		c0.317,0.283,0.509,0.453,0.958,0.453c0.451,0,0.653-0.18,0.96-0.453c0.36-0.32,0.854-0.76,1.766-0.76s1.405,0.439,1.766,0.76
		c0.307,0.273,0.509,0.453,0.96,0.453V59.031z"/>
</g>
<g>
	<path fill="#FFFFFF" d="M106.649,59.031c-0.912,0-1.405-0.439-1.766-0.76c-0.306-0.273-0.509-0.453-0.959-0.453
		s-0.652,0.18-0.959,0.453c-0.36,0.32-0.854,0.76-1.767,0.76s-1.404-0.439-1.765-0.76c-0.317-0.282-0.508-0.453-0.958-0.453
		c-0.449,0-0.641,0.171-0.957,0.453c-0.36,0.32-0.853,0.76-1.765,0.76c-0.911,0-1.403-0.439-1.764-0.76
		c-0.316-0.282-0.507-0.453-0.956-0.453s-0.641,0.171-0.957,0.453c-0.36,0.32-0.853,0.76-1.765,0.76
		c-0.911,0-1.403-0.439-1.764-0.76c-0.317-0.282-0.508-0.453-0.957-0.453s-0.641,0.171-0.957,0.453
		c-0.36,0.32-0.853,0.76-1.765,0.76c-0.911,0-1.404-0.439-1.764-0.76c-0.316-0.282-0.507-0.453-0.957-0.453
		c-0.448,0-0.639,0.171-0.955,0.453c-0.359,0.32-0.853,0.76-1.764,0.76c-0.91,0-1.403-0.439-1.764-0.76
		c-0.316-0.282-0.507-0.453-0.956-0.453v-1.213c0.911,0,1.404,0.439,1.764,0.761c0.316,0.282,0.507,0.452,0.956,0.452
		s0.64-0.17,0.956-0.452c0.36-0.321,0.853-0.761,1.763-0.761c0.912,0,1.404,0.439,1.765,0.761c0.316,0.282,0.507,0.452,0.956,0.452
		s0.641-0.17,0.957-0.452c0.359-0.321,0.853-0.761,1.765-0.761c0.911,0,1.403,0.439,1.764,0.761
		c0.316,0.282,0.508,0.452,0.957,0.452s0.641-0.17,0.957-0.452c0.36-0.321,0.853-0.761,1.765-0.761c0.911,0,1.403,0.439,1.764,0.761
		c0.316,0.282,0.507,0.452,0.956,0.452c0.45,0,0.641-0.17,0.957-0.452c0.36-0.321,0.853-0.761,1.765-0.761
		c0.911,0,1.404,0.439,1.765,0.76c0.317,0.283,0.509,0.453,0.958,0.453c0.451,0,0.653-0.18,0.96-0.453
		c0.36-0.32,0.854-0.76,1.766-0.76s1.405,0.439,1.766,0.76c0.306,0.273,0.509,0.453,0.959,0.453V59.031z"/>
</g>
<g>
	<g>
		<path fill="#1B4166" d="M74.564,49.12l2.773,0.722c0,0-4.262,4.301-6.561,4.966c-2.299,0.663-3.357,1.044-3.894,0.663
			c-0.535-0.38-1.602-15.482-1.602-21.93h7.075l1.072-1.072h0.867v-1.362H65.25v-3.289c0,0-0.053-1.148-1.337-1.148
			s-1.337,1.148-1.337,1.148v3.289h-9.047v1.362h0.867l1.071,1.072h7.075c0,6.447-1.064,21.55-1.601,21.93
			c-0.536,0.381-1.594,0-3.893-0.663c-2.3-0.665-6.562-4.966-6.562-4.966l2.773-0.722l-5.629-3.293l0.289,6.777l1.177-1.896
			c0,0,2.185,5.6,7.739,7.978c5.554,2.38,7.075,6.062,7.075,6.062s1.522-3.682,7.075-6.062c5.554-2.378,7.739-7.978,7.739-7.978
			l1.177,1.896l0.29-6.777L74.564,49.12z"/>
	</g>
	<g>
		<path fill="#1B4166" d="M63.913,20.433c-2.667,0-4.828,2.162-4.828,4.829c0,2.099,1.342,3.881,3.214,4.546v-1.862
			c-0.911-0.549-1.521-1.545-1.521-2.684c0-1.73,1.406-3.137,3.136-3.137c1.73,0,3.138,1.406,3.138,3.137
			c0,1.139-0.612,2.135-1.523,2.684v1.862c1.872-0.665,3.215-2.447,3.215-4.546C68.742,22.595,66.581,20.433,63.913,20.433z"/>
	</g>
</g>
<g>
	<path fill="#FFFFFF" d="M57.974,64.217c-0.071,0.109-0.145,0.193-0.216,0.303c1.216,1.527,3.406,3.166,5.152,3.924
		c-0.156,0.12-0.338,0.349-0.445,0.506c-1.65-0.807-3.756-2.421-5.057-3.984c-1.288,1.612-3.178,3.082-5.08,4.02
		c-0.097-0.145-0.265-0.348-0.433-0.469c2.19-1.012,4.346-2.77,5.537-4.551L57.974,64.217z M61.08,69.924l0.434,0.24
		c-0.963,1.252-2.576,3.251-3.865,4.779l-0.565-0.276c1.131-1.288,2.517-2.985,3.383-4.117h-7.09v-0.577h7.596L61.08,69.924z
		 M58.433,69.442c-0.483-0.53-1.481-1.396-2.275-1.999l0.408-0.337c0.807,0.579,1.807,1.396,2.299,1.95L58.433,69.442z"/>
	<path fill="#FFFFFF" d="M73.28,64.892v9.823h-0.59v-0.71h-6.379v0.782h-0.577v-9.896H73.28z M66.312,65.47v3.659h6.379V65.47
		H66.312z M72.69,73.439v-3.744h-6.379v3.744H72.69z"/>
</g>
<text transform="matrix(1 0 0 1 50.0771 88.7178)" fill="#1B4166" font-family="'SourceHanSansCN-Heavy-GBpc-EUC-H'" font-size="14.8768">最低</text>
<g>
	
		<text transform="matrix(1 0 0 1 48.5625 88.7178)" fill="#C30D23" font-family="'SourceHanSansCN-Heavy-GBpc-EUC-H'" font-size="14.8768">最低</text>
</g>
</svg>
