<?xml version="1.0" encoding="utf-8"?>
<!-- Generator: Adobe Illustrator 16.0.0, SVG Export Plug-In . SVG Version: 6.00 Build 0)  -->
<!DOCTYPE svg PUBLIC "-//W3C//DTD SVG 1.1//EN" "http://www.w3.org/Graphics/SVG/1.1/DTD/svg11.dtd">
<svg version="1.1" id="Layer_1" xmlns="http://www.w3.org/2000/svg" xmlns:xlink="http://www.w3.org/1999/xlink" x="0px" y="0px"
	 width="126.877px" height="112.438px" viewBox="0 0 126.877 112.438" enable-background="new 0 0 126.877 112.438"
	 xml:space="preserve">
<rect fill="#FFFFFF" width="126.877" height="112.438"/>
<g>
	<polygon points="45.595,36.832 45.595,69.462 44.091,74.539 49.014,72.361 86.203,72.361 86.203,36.832 	"/>
	<g opacity="0.5">
		<g>
			<g>
				<circle fill="#FFFFFF" cx="36.773" cy="35.579" r="0.521"/>
				<circle fill="#FFFFFF" cx="38.443" cy="35.372" r="0.521"/>
				<circle fill="#FFFFFF" cx="40.113" cy="35.165" r="0.521"/>
				<circle fill="#FFFFFF" cx="41.783" cy="34.958" r="0.522"/>
				<circle fill="#FFFFFF" cx="43.454" cy="34.751" r="0.521"/>
				<circle fill="#FFFFFF" cx="45.124" cy="34.544" r="0.521"/>
				<circle fill="#FFFFFF" cx="46.794" cy="34.337" r="0.521"/>
				<circle fill="#FFFFFF" cx="48.464" cy="34.13" r="0.521"/>
				<circle fill="#FFFFFF" cx="50.134" cy="33.924" r="0.521"/>
				<circle fill="#FFFFFF" cx="51.804" cy="33.717" r="0.521"/>
				<circle fill="#FFFFFF" cx="53.474" cy="33.51" r="0.521"/>
				<circle fill="#FFFFFF" cx="55.144" cy="33.303" r="0.521"/>
				<circle fill="#FFFFFF" cx="56.813" cy="33.097" r="0.522"/>
				<circle fill="#FFFFFF" cx="58.484" cy="32.89" r="0.522"/>
				<circle fill="#FFFFFF" cx="60.154" cy="32.683" r="0.521"/>
				<circle fill="#FFFFFF" cx="61.824" cy="32.476" r="0.521"/>
				<circle fill="#FFFFFF" cx="63.494" cy="32.269" r="0.521"/>
				<circle fill="#FFFFFF" cx="65.165" cy="32.062" r="0.521"/>
				<circle fill="#FFFFFF" cx="66.834" cy="31.855" r="0.521"/>
				<circle fill="#FFFFFF" cx="68.504" cy="31.648" r="0.522"/>
				<circle fill="#FFFFFF" cx="70.174" cy="31.441" r="0.521"/>
				<circle fill="#FFFFFF" cx="71.844" cy="31.235" r="0.521"/>
			</g>
			<g>
				<circle fill="#FFFFFF" cx="37.162" cy="38.377" r="0.521"/>
				<circle fill="#FFFFFF" cx="38.832" cy="38.17" r="0.521"/>
				<circle fill="#FFFFFF" cx="40.502" cy="37.964" r="0.522"/>
				<circle fill="#FFFFFF" cx="42.172" cy="37.757" r="0.521"/>
				<circle fill="#FFFFFF" cx="43.842" cy="37.55" r="0.521"/>
				<circle fill="#FFFFFF" cx="45.513" cy="37.343" r="0.521"/>
				<circle fill="#FFFFFF" cx="47.183" cy="37.136" r="0.521"/>
				<circle fill="#FFFFFF" cx="48.853" cy="36.929" r="0.521"/>
				<circle fill="#FFFFFF" cx="50.522" cy="36.722" r="0.521"/>
				<circle fill="#FFFFFF" cx="52.192" cy="36.516" r="0.521"/>
				<circle fill="#FFFFFF" cx="53.862" cy="36.309" r="0.521"/>
				<circle fill="#FFFFFF" cx="55.532" cy="36.102" r="0.521"/>
				<circle fill="#FFFFFF" cx="57.203" cy="35.895" r="0.521"/>
				<circle fill="#FFFFFF" cx="58.873" cy="35.688" r="0.521"/>
				<circle fill="#FFFFFF" cx="60.543" cy="35.481" r="0.521"/>
				<circle fill="#FFFFFF" cx="62.213" cy="35.274" r="0.521"/>
				<circle fill="#FFFFFF" cx="63.883" cy="35.067" r="0.521"/>
				<circle fill="#FFFFFF" cx="65.553" cy="34.861" r="0.521"/>
				<circle fill="#FFFFFF" cx="67.223" cy="34.654" r="0.52"/>
				<circle fill="#FFFFFF" cx="68.893" cy="34.447" r="0.521"/>
				<circle fill="#FFFFFF" cx="70.563" cy="34.24" r="0.52"/>
				<circle fill="#FFFFFF" cx="72.233" cy="34.033" r="0.52"/>
			</g>
			<g>
				<circle fill="#FFFFFF" cx="37.55" cy="41.177" r="0.522"/>
				<circle fill="#FFFFFF" cx="39.22" cy="40.97" r="0.522"/>
				<circle fill="#FFFFFF" cx="40.891" cy="40.763" r="0.522"/>
				<circle fill="#FFFFFF" cx="42.561" cy="40.556" r="0.522"/>
				<circle fill="#FFFFFF" cx="44.23" cy="40.35" r="0.522"/>
				<circle fill="#FFFFFF" cx="45.901" cy="40.143" r="0.522"/>
				<circle fill="#FFFFFF" cx="47.571" cy="39.936" r="0.522"/>
				<circle fill="#FFFFFF" cx="49.241" cy="39.729" r="0.521"/>
				<circle fill="#FFFFFF" cx="50.911" cy="39.522" r="0.522"/>
				<circle fill="#FFFFFF" cx="52.581" cy="39.315" r="0.522"/>
				<circle fill="#FFFFFF" cx="54.251" cy="39.108" r="0.522"/>
				<circle fill="#FFFFFF" cx="55.921" cy="38.901" r="0.522"/>
				<circle fill="#FFFFFF" cx="57.591" cy="38.694" r="0.522"/>
				<circle fill="#FFFFFF" cx="59.261" cy="38.487" r="0.522"/>
				<circle fill="#FFFFFF" cx="60.931" cy="38.28" r="0.522"/>
				<circle fill="#FFFFFF" cx="62.602" cy="38.074" r="0.522"/>
				<circle fill="#FFFFFF" cx="64.271" cy="37.867" r="0.522"/>
				<circle fill="#FFFFFF" cx="65.941" cy="37.66" r="0.522"/>
				<circle fill="#FFFFFF" cx="67.612" cy="37.453" r="0.522"/>
				<path fill="#FFFFFF" d="M69.21,36.729c0.286-0.04,0.548,0.159,0.588,0.446c0.04,0.282-0.159,0.549-0.443,0.588
					c-0.285,0.04-0.55-0.162-0.589-0.446C68.726,37.032,68.925,36.769,69.21,36.729z"/>
				<circle fill="#FFFFFF" cx="70.952" cy="37.04" r="0.521"/>
				<circle fill="#FFFFFF" cx="72.622" cy="36.833" r="0.522"/>
			</g>
			<g>
				<circle fill="#FFFFFF" cx="37.939" cy="43.976" r="0.522"/>
				<circle fill="#FFFFFF" cx="39.61" cy="43.769" r="0.522"/>
				<circle fill="#FFFFFF" cx="41.28" cy="43.562" r="0.522"/>
				<path fill="#FFFFFF" d="M42.878,42.839c0.284-0.039,0.548,0.159,0.588,0.445c0.04,0.282-0.161,0.549-0.444,0.588
					c-0.286,0.04-0.548-0.161-0.587-0.444C42.395,43.141,42.594,42.878,42.878,42.839z"/>
				<circle fill="#FFFFFF" cx="44.62" cy="43.148" r="0.522"/>
				<circle fill="#FFFFFF" cx="46.29" cy="42.941" r="0.522"/>
				<circle fill="#FFFFFF" cx="47.959" cy="42.734" r="0.522"/>
				<circle fill="#FFFFFF" cx="49.629" cy="42.527" r="0.522"/>
				<circle fill="#FFFFFF" cx="51.299" cy="42.32" r="0.522"/>
				<circle fill="#FFFFFF" cx="52.97" cy="42.114" r="0.521"/>
				<circle fill="#FFFFFF" cx="54.64" cy="41.907" r="0.521"/>
				<circle fill="#FFFFFF" cx="56.31" cy="41.7" r="0.521"/>
				<circle fill="#FFFFFF" cx="57.98" cy="41.493" r="0.522"/>
				<circle fill="#FFFFFF" cx="59.65" cy="41.286" r="0.522"/>
				<circle fill="#FFFFFF" cx="61.32" cy="41.079" r="0.522"/>
				<circle fill="#FFFFFF" cx="62.99" cy="40.872" r="0.522"/>
				<circle fill="#FFFFFF" cx="64.66" cy="40.665" r="0.521"/>
				<circle fill="#FFFFFF" cx="66.33" cy="40.458" r="0.521"/>
				<circle fill="#FFFFFF" cx="68" cy="40.251" r="0.521"/>
				<circle fill="#FFFFFF" cx="69.67" cy="40.044" r="0.521"/>
				<circle fill="#FFFFFF" cx="71.34" cy="39.837" r="0.521"/>
				<circle fill="#FFFFFF" cx="73.01" cy="39.63" r="0.521"/>
			</g>
			<g>
				<circle fill="#FFFFFF" cx="38.328" cy="46.774" r="0.521"/>
				<circle fill="#FFFFFF" cx="39.999" cy="46.567" r="0.521"/>
				<circle fill="#FFFFFF" cx="41.669" cy="46.36" r="0.521"/>
				<circle fill="#FFFFFF" cx="43.338" cy="46.153" r="0.521"/>
				<circle fill="#FFFFFF" cx="45.008" cy="45.946" r="0.521"/>
				<circle fill="#FFFFFF" cx="46.678" cy="45.74" r="0.521"/>
				<circle fill="#FFFFFF" cx="48.348" cy="45.533" r="0.521"/>
				<circle fill="#FFFFFF" cx="50.019" cy="45.326" r="0.521"/>
				<circle fill="#FFFFFF" cx="51.688" cy="45.119" r="0.521"/>
				<circle fill="#FFFFFF" cx="53.359" cy="44.912" r="0.521"/>
				<circle fill="#FFFFFF" cx="55.029" cy="44.705" r="0.521"/>
				<circle fill="#FFFFFF" cx="56.699" cy="44.498" r="0.521"/>
				<circle fill="#FFFFFF" cx="58.369" cy="44.291" r="0.521"/>
				<circle fill="#FFFFFF" cx="60.039" cy="44.085" r="0.521"/>
				<circle fill="#FFFFFF" cx="61.708" cy="43.877" r="0.521"/>
				<circle fill="#FFFFFF" cx="63.378" cy="43.671" r="0.521"/>
				<circle fill="#FFFFFF" cx="65.049" cy="43.464" r="0.521"/>
				<circle fill="#FFFFFF" cx="66.719" cy="43.257" r="0.521"/>
				<circle fill="#FFFFFF" cx="68.389" cy="43.05" r="0.521"/>
				<circle fill="#FFFFFF" cx="70.059" cy="42.844" r="0.521"/>
				<circle fill="#FFFFFF" cx="71.729" cy="42.637" r="0.521"/>
				<circle fill="#FFFFFF" cx="73.399" cy="42.43" r="0.521"/>
			</g>
			<g>
				<circle fill="#FFFFFF" cx="38.717" cy="49.573" r="0.521"/>
				<circle fill="#FFFFFF" cx="40.387" cy="49.366" r="0.522"/>
				<circle fill="#FFFFFF" cx="42.057" cy="49.159" r="0.522"/>
				<circle fill="#FFFFFF" cx="43.727" cy="48.952" r="0.522"/>
				<circle fill="#FFFFFF" cx="45.397" cy="48.745" r="0.522"/>
				<circle fill="#FFFFFF" cx="47.067" cy="48.539" r="0.521"/>
				<circle fill="#FFFFFF" cx="48.737" cy="48.332" r="0.521"/>
				<circle fill="#FFFFFF" cx="50.407" cy="48.125" r="0.521"/>
				<circle fill="#FFFFFF" cx="52.077" cy="47.917" r="0.521"/>
				<circle fill="#FFFFFF" cx="53.747" cy="47.711" r="0.521"/>
				<circle fill="#FFFFFF" cx="55.417" cy="47.504" r="0.521"/>
				<circle fill="#FFFFFF" cx="57.087" cy="47.297" r="0.521"/>
				<circle fill="#FFFFFF" cx="58.757" cy="47.09" r="0.521"/>
				<circle fill="#FFFFFF" cx="60.427" cy="46.883" r="0.521"/>
				<circle fill="#FFFFFF" cx="62.097" cy="46.676" r="0.521"/>
				<circle fill="#FFFFFF" cx="63.767" cy="46.469" r="0.521"/>
				<circle fill="#FFFFFF" cx="65.437" cy="46.262" r="0.521"/>
				<circle fill="#FFFFFF" cx="67.107" cy="46.055" r="0.521"/>
				<circle fill="#FFFFFF" cx="68.776" cy="45.849" r="0.522"/>
				<circle fill="#FFFFFF" cx="70.447" cy="45.642" r="0.521"/>
				<circle fill="#FFFFFF" cx="72.117" cy="45.435" r="0.522"/>
				<circle fill="#FFFFFF" cx="73.787" cy="45.228" r="0.521"/>
			</g>
			<g>
				<circle fill="#FFFFFF" cx="39.106" cy="52.371" r="0.521"/>
				<circle fill="#FFFFFF" cx="40.776" cy="52.164" r="0.521"/>
				<circle fill="#FFFFFF" cx="42.446" cy="51.957" r="0.521"/>
				<circle fill="#FFFFFF" cx="44.116" cy="51.75" r="0.521"/>
				<circle fill="#FFFFFF" cx="45.787" cy="51.543" r="0.521"/>
				<circle fill="#FFFFFF" cx="47.456" cy="51.337" r="0.521"/>
				<circle fill="#FFFFFF" cx="49.125" cy="51.13" r="0.521"/>
				<circle fill="#FFFFFF" cx="50.796" cy="50.923" r="0.521"/>
				<circle fill="#FFFFFF" cx="52.466" cy="50.717" r="0.521"/>
				<circle fill="#FFFFFF" cx="54.136" cy="50.51" r="0.521"/>
				<circle fill="#FFFFFF" cx="55.806" cy="50.303" r="0.521"/>
				<circle fill="#FFFFFF" cx="57.476" cy="50.096" r="0.521"/>
				<circle fill="#FFFFFF" cx="59.146" cy="49.889" r="0.521"/>
				<circle fill="#FFFFFF" cx="60.816" cy="49.682" r="0.521"/>
				<circle fill="#FFFFFF" cx="62.486" cy="49.476" r="0.521"/>
				<circle fill="#FFFFFF" cx="64.156" cy="49.269" r="0.521"/>
				<circle fill="#FFFFFF" cx="65.826" cy="49.062" r="0.521"/>
				<circle fill="#FFFFFF" cx="67.497" cy="48.854" r="0.521"/>
				<circle fill="#FFFFFF" cx="69.166" cy="48.648" r="0.521"/>
				<circle fill="#FFFFFF" cx="70.836" cy="48.441" r="0.521"/>
				<circle fill="#FFFFFF" cx="72.506" cy="48.234" r="0.521"/>
				<circle fill="#FFFFFF" cx="74.176" cy="48.027" r="0.521"/>
			</g>
			<g>
				<circle fill="#FFFFFF" cx="39.494" cy="55.17" r="0.521"/>
				<circle fill="#FFFFFF" cx="41.164" cy="54.964" r="0.521"/>
				<circle fill="#FFFFFF" cx="42.834" cy="54.757" r="0.521"/>
				<circle fill="#FFFFFF" cx="44.504" cy="54.549" r="0.521"/>
				<circle fill="#FFFFFF" cx="46.174" cy="54.343" r="0.52"/>
				<circle fill="#FFFFFF" cx="47.844" cy="54.136" r="0.521"/>
				<circle fill="#FFFFFF" cx="49.515" cy="53.929" r="0.521"/>
				<circle fill="#FFFFFF" cx="51.185" cy="53.722" r="0.521"/>
				<circle fill="#FFFFFF" cx="52.854" cy="53.516" r="0.521"/>
				<circle fill="#FFFFFF" cx="54.525" cy="53.309" r="0.52"/>
				<circle fill="#FFFFFF" cx="56.195" cy="53.102" r="0.521"/>
				<circle fill="#FFFFFF" cx="57.865" cy="52.895" r="0.521"/>
				<circle fill="#FFFFFF" cx="59.535" cy="52.688" r="0.521"/>
				<circle fill="#FFFFFF" cx="61.205" cy="52.481" r="0.521"/>
				<circle fill="#FFFFFF" cx="62.875" cy="52.274" r="0.521"/>
				<circle fill="#FFFFFF" cx="64.545" cy="52.067" r="0.521"/>
				<circle fill="#FFFFFF" cx="66.215" cy="51.861" r="0.521"/>
				<circle fill="#FFFFFF" cx="67.885" cy="51.653" r="0.521"/>
				<circle fill="#FFFFFF" cx="69.555" cy="51.446" r="0.521"/>
				<circle fill="#FFFFFF" cx="71.225" cy="51.24" r="0.521"/>
				<circle fill="#FFFFFF" cx="72.896" cy="51.033" r="0.521"/>
				<circle fill="#FFFFFF" cx="74.565" cy="50.826" r="0.521"/>
			</g>
		</g>
		<g>
			<g>
				<circle fill="#FFFFFF" cx="39.818" cy="57.51" r="0.521"/>
				<circle fill="#FFFFFF" cx="41.488" cy="57.303" r="0.521"/>
				<circle fill="#FFFFFF" cx="43.158" cy="57.097" r="0.522"/>
				<circle fill="#FFFFFF" cx="44.829" cy="56.89" r="0.521"/>
				<circle fill="#FFFFFF" cx="46.499" cy="56.683" r="0.522"/>
				<circle fill="#FFFFFF" cx="48.168" cy="56.476" r="0.522"/>
				<circle fill="#FFFFFF" cx="49.839" cy="56.269" r="0.521"/>
				<circle fill="#FFFFFF" cx="51.509" cy="56.062" r="0.521"/>
				<circle fill="#FFFFFF" cx="53.179" cy="55.855" r="0.521"/>
				<circle fill="#FFFFFF" cx="54.849" cy="55.648" r="0.521"/>
				<circle fill="#FFFFFF" cx="56.52" cy="55.441" r="0.521"/>
				<circle fill="#FFFFFF" cx="58.189" cy="55.234" r="0.521"/>
				<circle fill="#FFFFFF" cx="59.859" cy="55.028" r="0.521"/>
				<circle fill="#FFFFFF" cx="61.529" cy="54.821" r="0.521"/>
				<circle fill="#FFFFFF" cx="63.199" cy="54.614" r="0.521"/>
				<circle fill="#FFFFFF" cx="64.869" cy="54.407" r="0.521"/>
				<circle fill="#FFFFFF" cx="66.54" cy="54.2" r="0.521"/>
				<circle fill="#FFFFFF" cx="68.21" cy="53.993" r="0.521"/>
				<circle fill="#FFFFFF" cx="69.88" cy="53.787" r="0.521"/>
				<circle fill="#FFFFFF" cx="71.55" cy="53.58" r="0.521"/>
				<circle fill="#FFFFFF" cx="73.22" cy="53.373" r="0.521"/>
				<circle fill="#FFFFFF" cx="74.89" cy="53.166" r="0.521"/>
			</g>
			<g>
				<circle fill="#FFFFFF" cx="40.208" cy="60.309" r="0.521"/>
				<circle fill="#FFFFFF" cx="41.878" cy="60.102" r="0.521"/>
				<circle fill="#FFFFFF" cx="43.548" cy="59.896" r="0.521"/>
				<path fill="#FFFFFF" d="M45.147,59.172c0.282-0.04,0.548,0.16,0.588,0.444c0.039,0.285-0.162,0.548-0.445,0.588
					c-0.285,0.04-0.549-0.158-0.588-0.444C44.662,59.475,44.861,59.213,45.147,59.172z"/>
				<circle fill="#FFFFFF" cx="46.888" cy="59.481" r="0.522"/>
				<circle fill="#FFFFFF" cx="48.558" cy="59.275" r="0.521"/>
				<circle fill="#FFFFFF" cx="50.229" cy="59.068" r="0.521"/>
				<circle fill="#FFFFFF" cx="51.898" cy="58.861" r="0.521"/>
				<circle fill="#FFFFFF" cx="53.568" cy="58.654" r="0.521"/>
				<circle fill="#FFFFFF" cx="55.238" cy="58.447" r="0.521"/>
				<circle fill="#FFFFFF" cx="56.908" cy="58.24" r="0.521"/>
				<circle fill="#FFFFFF" cx="58.578" cy="58.033" r="0.521"/>
				<circle fill="#FFFFFF" cx="60.249" cy="57.826" r="0.521"/>
				<circle fill="#FFFFFF" cx="61.918" cy="57.62" r="0.521"/>
				<circle fill="#FFFFFF" cx="63.588" cy="57.413" r="0.521"/>
				<circle fill="#FFFFFF" cx="65.258" cy="57.206" r="0.521"/>
				<circle fill="#FFFFFF" cx="66.929" cy="56.999" r="0.521"/>
				<circle fill="#FFFFFF" cx="68.599" cy="56.792" r="0.521"/>
				<circle fill="#FFFFFF" cx="70.269" cy="56.585" r="0.521"/>
				<circle fill="#FFFFFF" cx="71.939" cy="56.378" r="0.521"/>
				<circle fill="#FFFFFF" cx="73.609" cy="56.171" r="0.521"/>
				<circle fill="#FFFFFF" cx="75.279" cy="55.964" r="0.521"/>
			</g>
			<g>
				<circle fill="#FFFFFF" cx="40.597" cy="63.108" r="0.521"/>
				<circle fill="#FFFFFF" cx="42.267" cy="62.901" r="0.522"/>
				<circle fill="#FFFFFF" cx="43.937" cy="62.694" r="0.522"/>
				<circle fill="#FFFFFF" cx="45.607" cy="62.487" r="0.522"/>
				<path fill="#FFFFFF" d="M47.206,61.764c0.285-0.04,0.548,0.159,0.588,0.446c0.039,0.282-0.161,0.548-0.445,0.587
					c-0.286,0.04-0.548-0.16-0.588-0.444C46.721,62.066,46.919,61.804,47.206,61.764z"/>
				<circle fill="#FFFFFF" cx="48.947" cy="62.074" r="0.521"/>
				<circle fill="#FFFFFF" cx="50.617" cy="61.867" r="0.521"/>
				<circle fill="#FFFFFF" cx="52.287" cy="61.66" r="0.521"/>
				<circle fill="#FFFFFF" cx="53.957" cy="61.453" r="0.521"/>
				<circle fill="#FFFFFF" cx="55.627" cy="61.246" r="0.521"/>
				<circle fill="#FFFFFF" cx="57.297" cy="61.039" r="0.521"/>
				<circle fill="#FFFFFF" cx="58.967" cy="60.833" r="0.521"/>
				<circle fill="#FFFFFF" cx="60.637" cy="60.625" r="0.521"/>
				<circle fill="#FFFFFF" cx="62.307" cy="60.418" r="0.521"/>
				<circle fill="#FFFFFF" cx="63.977" cy="60.211" r="0.521"/>
				<circle fill="#FFFFFF" cx="65.646" cy="60.004" r="0.521"/>
				<circle fill="#FFFFFF" cx="67.317" cy="59.797" r="0.521"/>
				<circle fill="#FFFFFF" cx="68.987" cy="59.59" r="0.521"/>
				<circle fill="#FFFFFF" cx="70.656" cy="59.384" r="0.521"/>
				<circle fill="#FFFFFF" cx="72.327" cy="59.177" r="0.521"/>
				<circle fill="#FFFFFF" cx="73.996" cy="58.97" r="0.521"/>
				<circle fill="#FFFFFF" cx="75.667" cy="58.763" r="0.521"/>
			</g>
			<g>
				<circle fill="#FFFFFF" cx="40.985" cy="65.906" r="0.521"/>
				<circle fill="#FFFFFF" cx="42.655" cy="65.699" r="0.521"/>
				<circle fill="#FFFFFF" cx="44.326" cy="65.492" r="0.521"/>
				<circle fill="#FFFFFF" cx="45.995" cy="65.286" r="0.521"/>
				<circle fill="#FFFFFF" cx="47.666" cy="65.078" r="0.521"/>
				<circle fill="#FFFFFF" cx="49.335" cy="64.872" r="0.521"/>
				<circle fill="#FFFFFF" cx="51.005" cy="64.665" r="0.521"/>
				<circle fill="#FFFFFF" cx="52.675" cy="64.458" r="0.521"/>
				<circle fill="#FFFFFF" cx="54.345" cy="64.251" r="0.522"/>
				<circle fill="#FFFFFF" cx="56.016" cy="64.044" r="0.521"/>
				<circle fill="#FFFFFF" cx="57.686" cy="63.837" r="0.521"/>
				<circle fill="#FFFFFF" cx="59.355" cy="63.63" r="0.521"/>
				<circle fill="#FFFFFF" cx="61.025" cy="63.424" r="0.521"/>
				<circle fill="#FFFFFF" cx="62.696" cy="63.217" r="0.521"/>
				<circle fill="#FFFFFF" cx="64.366" cy="63.01" r="0.521"/>
				<circle fill="#FFFFFF" cx="66.036" cy="62.803" r="0.521"/>
				<circle fill="#FFFFFF" cx="67.706" cy="62.596" r="0.521"/>
				<circle fill="#FFFFFF" cx="69.376" cy="62.39" r="0.521"/>
				<circle fill="#FFFFFF" cx="71.045" cy="62.183" r="0.521"/>
				<circle fill="#FFFFFF" cx="72.716" cy="61.976" r="0.521"/>
				<circle fill="#FFFFFF" cx="74.385" cy="61.769" r="0.521"/>
				<circle fill="#FFFFFF" cx="76.056" cy="61.562" r="0.521"/>
			</g>
			<g>
				<circle fill="#FFFFFF" cx="41.374" cy="68.705" r="0.521"/>
				<circle fill="#FFFFFF" cx="43.043" cy="68.499" r="0.521"/>
				<circle fill="#FFFFFF" cx="44.714" cy="68.292" r="0.521"/>
				<circle fill="#FFFFFF" cx="46.383" cy="68.084" r="0.521"/>
				<circle fill="#FFFFFF" cx="48.054" cy="67.877" r="0.52"/>
				<circle fill="#FFFFFF" cx="49.723" cy="67.671" r="0.521"/>
				<circle fill="#FFFFFF" cx="51.394" cy="67.464" r="0.521"/>
				<circle fill="#FFFFFF" cx="53.064" cy="67.257" r="0.521"/>
				<circle fill="#FFFFFF" cx="54.734" cy="67.051" r="0.521"/>
				<circle fill="#FFFFFF" cx="56.404" cy="66.844" r="0.521"/>
				<circle fill="#FFFFFF" cx="58.074" cy="66.637" r="0.521"/>
				<circle fill="#FFFFFF" cx="59.744" cy="66.43" r="0.521"/>
				<circle fill="#FFFFFF" cx="61.414" cy="66.223" r="0.521"/>
				<circle fill="#FFFFFF" cx="63.084" cy="66.016" r="0.521"/>
				<circle fill="#FFFFFF" cx="64.754" cy="65.809" r="0.521"/>
				<circle fill="#FFFFFF" cx="66.424" cy="65.603" r="0.521"/>
				<circle fill="#FFFFFF" cx="68.094" cy="65.396" r="0.521"/>
				<circle fill="#FFFFFF" cx="69.764" cy="65.189" r="0.521"/>
				<circle fill="#FFFFFF" cx="71.435" cy="64.982" r="0.521"/>
				<circle fill="#FFFFFF" cx="73.104" cy="64.775" r="0.521"/>
				<circle fill="#FFFFFF" cx="74.774" cy="64.568" r="0.521"/>
				<circle fill="#FFFFFF" cx="76.444" cy="64.362" r="0.521"/>
			</g>
			<g>
				<circle fill="#FFFFFF" cx="41.763" cy="71.504" r="0.521"/>
				<circle fill="#FFFFFF" cx="43.433" cy="71.297" r="0.521"/>
				<circle fill="#FFFFFF" cx="45.104" cy="71.09" r="0.52"/>
				<circle fill="#FFFFFF" cx="46.772" cy="70.884" r="0.521"/>
				<circle fill="#FFFFFF" cx="48.442" cy="70.677" r="0.521"/>
				<circle fill="#FFFFFF" cx="50.113" cy="70.47" r="0.521"/>
				<circle fill="#FFFFFF" cx="51.783" cy="70.263" r="0.521"/>
				<circle fill="#FFFFFF" cx="53.453" cy="70.056" r="0.521"/>
				<circle fill="#FFFFFF" cx="55.123" cy="69.849" r="0.521"/>
				<circle fill="#FFFFFF" cx="56.793" cy="69.642" r="0.521"/>
				<circle fill="#FFFFFF" cx="58.463" cy="69.435" r="0.521"/>
				<circle fill="#FFFFFF" cx="60.133" cy="69.228" r="0.521"/>
				<circle fill="#FFFFFF" cx="61.803" cy="69.021" r="0.521"/>
				<circle fill="#FFFFFF" cx="63.473" cy="68.815" r="0.521"/>
				<circle fill="#FFFFFF" cx="65.143" cy="68.607" r="0.521"/>
				<circle fill="#FFFFFF" cx="66.813" cy="68.401" r="0.521"/>
				<circle fill="#FFFFFF" cx="68.484" cy="68.194" r="0.521"/>
				<circle fill="#FFFFFF" cx="70.153" cy="67.987" r="0.521"/>
				<circle fill="#FFFFFF" cx="71.824" cy="67.78" r="0.522"/>
				<circle fill="#FFFFFF" cx="73.494" cy="67.573" r="0.521"/>
				<circle fill="#FFFFFF" cx="75.164" cy="67.366" r="0.522"/>
				<circle fill="#FFFFFF" cx="76.833" cy="67.159" r="0.522"/>
			</g>
			<g>
				<circle fill="#FFFFFF" cx="42.151" cy="74.302" r="0.521"/>
				<circle fill="#FFFFFF" cx="43.821" cy="74.095" r="0.521"/>
				<circle fill="#FFFFFF" cx="45.492" cy="73.889" r="0.52"/>
				<circle fill="#FFFFFF" cx="47.162" cy="73.681" r="0.521"/>
				<circle fill="#FFFFFF" cx="48.832" cy="73.475" r="0.521"/>
				<circle fill="#FFFFFF" cx="50.502" cy="73.268" r="0.521"/>
				<circle fill="#FFFFFF" cx="52.172" cy="73.062" r="0.521"/>
				<circle fill="#FFFFFF" cx="53.842" cy="72.854" r="0.521"/>
				<circle fill="#FFFFFF" cx="55.512" cy="72.648" r="0.521"/>
				<circle fill="#FFFFFF" cx="57.182" cy="72.441" r="0.521"/>
				<circle fill="#FFFFFF" cx="58.852" cy="72.234" r="0.521"/>
				<circle fill="#FFFFFF" cx="60.521" cy="72.027" r="0.521"/>
				<circle fill="#FFFFFF" cx="62.192" cy="71.82" r="0.521"/>
				<circle fill="#FFFFFF" cx="63.862" cy="71.613" r="0.521"/>
				<circle fill="#FFFFFF" cx="65.532" cy="71.407" r="0.521"/>
				<circle fill="#FFFFFF" cx="67.202" cy="71.2" r="0.521"/>
				<circle fill="#FFFFFF" cx="68.873" cy="70.993" r="0.52"/>
				<circle fill="#FFFFFF" cx="70.542" cy="70.787" r="0.521"/>
				<circle fill="#FFFFFF" cx="72.213" cy="70.579" r="0.521"/>
				<circle fill="#FFFFFF" cx="73.883" cy="70.373" r="0.52"/>
				<circle fill="#FFFFFF" cx="75.553" cy="70.166" r="0.521"/>
				<circle fill="#FFFFFF" cx="77.223" cy="69.959" r="0.521"/>
			</g>
			<g>
				<circle fill="#FFFFFF" cx="42.54" cy="77.102" r="0.521"/>
				<circle fill="#FFFFFF" cx="44.21" cy="76.895" r="0.521"/>
				<circle fill="#FFFFFF" cx="45.88" cy="76.688" r="0.52"/>
				<circle fill="#FFFFFF" cx="47.551" cy="76.481" r="0.521"/>
				<circle fill="#FFFFFF" cx="49.221" cy="76.274" r="0.521"/>
				<circle fill="#FFFFFF" cx="50.89" cy="76.067" r="0.521"/>
				<circle fill="#FFFFFF" cx="52.561" cy="75.86" r="0.521"/>
				<circle fill="#FFFFFF" cx="54.23" cy="75.653" r="0.521"/>
				<circle fill="#FFFFFF" cx="55.9" cy="75.447" r="0.521"/>
				<circle fill="#FFFFFF" cx="57.57" cy="75.24" r="0.521"/>
				<circle fill="#FFFFFF" cx="59.24" cy="75.033" r="0.521"/>
				<circle fill="#FFFFFF" cx="60.91" cy="74.826" r="0.521"/>
				<circle fill="#FFFFFF" cx="62.581" cy="74.619" r="0.521"/>
				<circle fill="#FFFFFF" cx="64.25" cy="74.412" r="0.521"/>
				<circle fill="#FFFFFF" cx="65.92" cy="74.205" r="0.521"/>
				<circle fill="#FFFFFF" cx="67.59" cy="73.998" r="0.522"/>
				<circle fill="#FFFFFF" cx="69.26" cy="73.791" r="0.522"/>
				<path fill="#FFFFFF" d="M70.858,73.068c0.287-0.04,0.55,0.158,0.589,0.444s-0.159,0.549-0.445,0.589
					c-0.285,0.04-0.549-0.159-0.588-0.446C70.375,73.373,70.573,73.107,70.858,73.068z"/>
				<circle fill="#FFFFFF" cx="72.601" cy="73.378" r="0.522"/>
				<circle fill="#FFFFFF" cx="74.27" cy="73.17" r="0.521"/>
				<circle fill="#FFFFFF" cx="75.941" cy="72.964" r="0.522"/>
				<circle fill="#FFFFFF" cx="77.611" cy="72.757" r="0.522"/>
			</g>
		</g>
	</g>
	<polygon fill="#E4007F" points="43.313,40.458 43.313,67.196 41.866,72.514 46.607,69.574 82.415,69.574 82.415,40.458 	"/>
	<text transform="matrix(1 0 0 1 45.1768 51.9902)"><tspan x="0" y="0" fill="#FFFFFF" font-family="'DFWaWaSC-W5-GBpc-EUC-H'" font-size="8.7842">比价就是</tspan><tspan x="0" y="10.541" fill="#FFFFFF" font-family="'DFWaWaSC-W5-GBpc-EUC-H'" font-size="8.7842">互相伤害</tspan></text>
</g>
</svg>
