<?xml version="1.0" encoding="UTF-8" standalone="no"?>
<svg width="120px" height="120px" viewBox="0 0 120 120" version="1.1" xmlns="http://www.w3.org/2000/svg" xmlns:xlink="http://www.w3.org/1999/xlink" xmlns:sketch="http://www.bohemiancoding.com/sketch/ns">
    <!-- Generator: Sketch 3.3.2 (12043) - http://www.bohemiancoding.com/sketch -->
    <title>Mobile Portrait Copy 6</title>
    <desc>Created with Sketch.</desc>
    <defs></defs>
    <g id="basic" stroke="none" stroke-width="1" fill="none" fill-rule="evenodd" sketch:type="MSPage">
        <g id="Mobile-Portrait-Copy-6" sketch:type="MSArtboardGroup">
            <g id="Imported-Layers" sketch:type="MSLayerGroup" transform="translate(20.000000, 37.000000)">
                <path d="M8.143,3.739 C7.48,3.739 6.789,4.013 6.482,4.593 C6.111,5.297 6.016,6.088 6.381,6.795 C6.679,7.372 7.054,7.939 7.46,8.504 C8.18,7.776 9.122,7.222 10.123,7.222 C10.195,7.222 10.268,7.225 10.341,7.231 C10.36,7.232 10.379,7.233 10.398,7.235 L10.362,6.377 C10.291,6.001 10.352,5.626 10.501,5.276 C10.347,4.898 9.863,4.496 9.6,4.253 C9.262,3.94 8.799,3.784 8.34,3.747 C8.275,3.741 8.209,3.739 8.143,3.739" id="Fill-1" fill="#F1D3DE" sketch:type="MSShapeGroup"></path>
                <path d="M13.354,3.289 C12.678,3.29 12.002,3.613 11.467,4.047 C11.062,4.374 10.702,4.803 10.501,5.276 C10.352,5.626 10.291,6.001 10.362,6.377 L10.398,7.235 C11.768,7.377 12.849,8.603 13.165,9.954 C13.555,9.536 13.95,9.121 14.305,8.673 C14.964,7.843 15.5,6.854 15.511,5.794 C15.522,4.734 14.881,3.618 13.855,3.353 C13.689,3.31 13.522,3.289 13.354,3.289" id="Fill-2" fill="#F1D3DE" sketch:type="MSShapeGroup"></path>
                <path d="M8.57,22.127 C8.561,22.174 8.554,22.221 8.545,22.268 C8.577,22.328 8.607,22.391 8.637,22.452 L8.57,22.127 M3.181,9.089 C3.066,9.089 2.952,9.094 2.839,9.104 C1.836,9.196 0.795,9.759 0.484,10.718 C0.144,11.777 0.203,12.891 0.878,13.777 C2.998,16.564 6.653,18.874 8.377,21.951 L6.26,12.24 C6.071,11.739 6.065,11.208 6.185,10.691 C5.884,10.207 5.118,9.77 4.697,9.497 C4.252,9.208 3.715,9.089 3.181,9.089" id="Fill-3" fill="#F1D3DE" sketch:type="MSShapeGroup"></path>
                <path d="M7.46,8.504 C7.376,8.588 7.296,8.675 7.219,8.764 C6.74,9.312 6.347,9.989 6.185,10.691 C6.065,11.208 6.071,11.739 6.26,12.24 L8.504,22.533 C8.517,22.444 8.531,22.356 8.545,22.268 C8.554,22.221 8.561,22.174 8.57,22.127 C8.812,20.772 9.27,19.454 9.92,18.241 C10.62,16.934 11.537,15.754 12.246,14.451 C12.953,13.148 13.453,11.657 13.212,10.193 C13.199,10.113 13.183,10.033 13.165,9.954 C12.831,10.312 12.501,10.671 12.199,11.055 C11.591,11.83 11.106,12.701 10.77,13.627 L10.776,13.862 C10.763,13.815 10.75,13.769 10.735,13.722 C10.714,13.782 10.694,13.843 10.674,13.903 L10.656,13.481 C10.039,11.717 8.622,10.119 7.46,8.504" id="Fill-4" fill="#F1D3DE" sketch:type="MSShapeGroup"></path>
                <path d="M10.77,13.627 C10.758,13.658 10.747,13.69 10.735,13.722 C10.75,13.769 10.763,13.815 10.776,13.862 L10.77,13.627 M10.123,7.222 C9.122,7.222 8.18,7.776 7.46,8.504 C8.622,10.119 10.039,11.717 10.656,13.481 L10.398,7.235 C10.379,7.233 10.36,7.232 10.341,7.231 C10.268,7.225 10.195,7.222 10.123,7.222" id="Fill-5" fill="#E7B7CB" sketch:type="MSShapeGroup"></path>
                <path d="M10.398,7.235 L10.674,13.903 C10.694,13.843 10.714,13.782 10.735,13.722 C10.747,13.69 10.758,13.658 10.77,13.627 C11.106,12.701 11.591,11.83 12.199,11.055 C12.501,10.671 12.831,10.312 13.165,9.954 C12.849,8.603 11.768,7.377 10.398,7.235" id="Fill-6" fill="#E7B7CB" sketch:type="MSShapeGroup"></path>
                <path d="M3.335,10.136 C3.335,10.136 1.166,10.054 1.166,12.42 C1.166,12.42 1.39,10.829 3.335,10.136" id="Fill-7" fill="#FFFFFF" sketch:type="MSShapeGroup"></path>
                <path d="M8.421,4.377 C8.421,4.377 7.012,4.253 6.938,5.605 C6.938,5.605 7.133,4.703 8.421,4.377" id="Fill-8" fill="#FFFFFF" sketch:type="MSShapeGroup"></path>
                <path d="M46.68,40.57 C46.62,40.689 46.56,40.807 46.501,40.926 C46.545,41.116 46.587,41.308 46.627,41.498 L46.68,40.57 M37.524,0.269 C35.114,0.269 32.749,1.056 31.477,2.838 C29.639,5.411 28.955,8.469 30.273,11.439 C34.422,20.782 43.508,30.146 46.245,39.931 L47.474,11.877 C47.3,10.361 47.693,8.923 48.45,7.628 C47.928,6.064 45.992,4.227 44.951,3.133 C43.611,1.723 41.683,0.874 39.727,0.485 C39.009,0.343 38.264,0.269 37.524,0.269" id="Fill-9" fill="#F1D3DE" sketch:type="MSShapeGroup"></path>
                <path d="M60.105,1.237 C57.613,1.237 55.11,2.085 53.016,3.302 C51.169,4.375 49.476,5.87 48.45,7.628 C47.693,8.923 47.3,10.361 47.474,11.877 L46.172,41.606 C46.279,41.378 46.389,41.151 46.501,40.926 C46.56,40.807 46.62,40.689 46.68,40.57 C48.451,37.111 50.832,33.94 53.709,31.213 C56.804,28.279 60.446,25.873 63.561,22.957 C66.676,20.041 69.317,16.437 69.736,12.279 C70.153,8.12 67.796,3.401 63.492,1.82 C62.393,1.416 61.251,1.237 60.105,1.237" id="Fill-10" fill="#F1D3DE" sketch:type="MSShapeGroup"></path>
                <path d="M39.982,3.477 C39.982,3.477 32.859,1.518 32.859,7.84 C32.859,7.84 33.353,3.738 39.982,3.477" id="Fill-11" fill="#FFFFFF" sketch:type="MSShapeGroup"></path>
                <path d="M34.447,38.831 L34.447,35.45 L33.864,35.45 L33.864,34.936 L34.447,34.936 L34.447,34.522 C34.447,34.261 34.47,34.066 34.516,33.94 C34.58,33.769 34.692,33.629 34.852,33.523 C35.012,33.417 35.236,33.363 35.525,33.363 C35.71,33.363 35.916,33.386 36.141,33.43 L36.042,34.005 C35.905,33.981 35.775,33.969 35.653,33.969 C35.453,33.969 35.311,34.012 35.228,34.097 C35.145,34.183 35.103,34.343 35.103,34.577 L35.103,34.936 L35.862,34.936 L35.862,35.45 L35.103,35.45 L35.103,38.831 L34.447,38.831" id="Fill-12" fill="#FFFFFF" sketch:type="MSShapeGroup"></path>
                <path d="M36.368,38.831 L36.368,34.936 L36.962,34.936 L36.962,35.527 C37.114,35.251 37.254,35.068 37.382,34.981 C37.51,34.893 37.651,34.849 37.806,34.849 C38.028,34.849 38.254,34.92 38.484,35.062 L38.257,35.674 C38.095,35.578 37.934,35.53 37.772,35.53 C37.628,35.53 37.499,35.574 37.384,35.661 C37.269,35.748 37.187,35.868 37.138,36.022 C37.065,36.257 37.028,36.514 37.028,36.792 L37.028,38.831 L36.368,38.831" id="Fill-13" fill="#FFFFFF" sketch:type="MSShapeGroup"></path>
                <path d="M38.631,36.884 C38.631,36.163 38.831,35.629 39.232,35.281 C39.567,34.993 39.975,34.849 40.457,34.849 C40.992,34.849 41.43,35.024 41.77,35.375 C42.109,35.726 42.279,36.21 42.279,36.829 C42.279,37.33 42.204,37.725 42.054,38.012 C41.903,38.299 41.685,38.522 41.398,38.681 C41.11,38.84 40.797,38.919 40.457,38.919 C39.912,38.919 39.471,38.744 39.135,38.395 C38.799,38.045 38.631,37.542 38.631,36.884 L38.631,36.884 Z M39.309,36.884 C39.309,37.383 39.418,37.756 39.635,38.004 C39.853,38.252 40.127,38.376 40.457,38.376 C40.785,38.376 41.057,38.252 41.274,38.002 C41.492,37.753 41.601,37.373 41.601,36.862 C41.601,36.38 41.492,36.016 41.273,35.768 C41.054,35.52 40.782,35.396 40.457,35.396 C40.127,35.396 39.853,35.519 39.635,35.766 C39.418,36.013 39.309,36.385 39.309,36.884 L39.309,36.884 Z" id="Fill-14" fill="#FFFFFF" sketch:type="MSShapeGroup"></path>
                <path d="M43.053,38.831 L43.053,34.936 L43.644,34.936 L43.644,35.483 C43.766,35.292 43.928,35.139 44.131,35.023 C44.334,34.907 44.565,34.849 44.824,34.849 C45.113,34.849 45.349,34.908 45.534,35.028 C45.718,35.148 45.849,35.315 45.924,35.53 C46.232,35.076 46.633,34.849 47.127,34.849 C47.514,34.849 47.811,34.956 48.019,35.17 C48.226,35.384 48.33,35.713 48.33,36.158 L48.33,38.831 L47.674,38.831 L47.674,36.378 C47.674,36.114 47.652,35.924 47.609,35.808 C47.566,35.691 47.489,35.598 47.377,35.527 C47.264,35.456 47.132,35.421 46.98,35.421 C46.707,35.421 46.479,35.512 46.298,35.694 C46.118,35.876 46.027,36.168 46.027,36.568 L46.027,38.831 L45.367,38.831 L45.367,36.301 C45.367,36.008 45.314,35.787 45.206,35.641 C45.098,35.494 44.922,35.421 44.678,35.421 C44.492,35.421 44.32,35.47 44.163,35.567 C44.005,35.665 43.891,35.809 43.819,35.996 C43.749,36.185 43.713,36.456 43.713,36.81 L43.713,38.831 L43.053,38.831" id="Fill-15" fill="#FFFFFF" sketch:type="MSShapeGroup"></path>
                <path d="M53.251,37.081 C53.156,37.321 53.061,37.538 52.966,37.731 C52.871,37.924 52.769,38.106 52.662,38.275 C52.554,38.445 52.435,38.608 52.305,38.764 C52.174,38.919 52.027,39.081 51.862,39.252 C51.811,39.137 51.751,39.039 51.682,38.959 C51.611,38.879 51.521,38.812 51.411,38.756 C51.736,38.541 52.027,38.275 52.282,37.96 C52.538,37.645 52.788,37.241 53.033,36.751 L52.62,36.751 C52.5,36.751 52.387,36.752 52.282,36.755 C52.177,36.757 52.077,36.761 51.982,36.766 C51.887,36.771 51.792,36.775 51.696,36.781 L51.696,36.173 C51.807,36.183 51.914,36.191 52.02,36.199 C52.125,36.206 52.236,36.213 52.353,36.218 C52.471,36.223 52.602,36.228 52.744,36.232 C52.887,36.237 53.053,36.24 53.244,36.24 C53.244,36.08 53.241,35.925 53.236,35.774 C53.231,35.624 53.224,35.52 53.213,35.459 C53.304,35.469 53.415,35.476 53.548,35.478 C53.68,35.481 53.792,35.481 53.882,35.481 L54.01,35.523 L53.927,35.609 L53.822,35.774 L53.822,36.24 C53.997,36.24 54.151,36.237 54.284,36.232 C54.417,36.228 54.538,36.223 54.648,36.218 C54.758,36.213 54.863,36.206 54.963,36.199 C55.064,36.191 55.166,36.183 55.272,36.173 L55.272,36.781 C55.166,36.775 55.064,36.771 54.963,36.766 C54.863,36.761 54.758,36.757 54.648,36.755 C54.538,36.752 54.415,36.751 54.28,36.751 L53.822,36.751 L53.822,39.026 C53.822,39.121 53.826,39.224 53.833,39.334 C53.841,39.444 53.849,39.55 53.859,39.649 L53.206,39.649 C53.236,39.435 53.251,39.227 53.251,39.026 L53.251,37.081 L53.251,37.081 Z M55.377,34.671 C55.332,34.801 55.305,34.912 55.297,35.005 C55.29,35.098 55.301,35.196 55.332,35.302 C55.071,35.321 54.852,35.33 54.674,35.327 C54.497,35.325 54.353,35.308 54.246,35.275 C54.138,35.242 54.062,35.19 54.017,35.117 C53.972,35.045 53.952,34.948 53.957,34.828 L53.987,33.717 L53.003,33.717 C53.003,33.987 52.983,34.224 52.943,34.427 C52.903,34.629 52.843,34.81 52.763,34.967 C52.683,35.125 52.582,35.267 52.459,35.392 C52.336,35.517 52.19,35.637 52.02,35.752 L51.933,35.617 L51.843,35.512 L51.734,35.422 L51.584,35.316 C51.759,35.222 51.905,35.116 52.023,35.001 C52.141,34.886 52.232,34.745 52.297,34.58 C52.362,34.415 52.402,34.218 52.418,33.987 C52.433,33.757 52.425,33.477 52.395,33.146 C52.635,33.161 53.011,33.168 53.522,33.168 C54.022,33.168 54.397,33.161 54.648,33.146 C54.633,33.251 54.617,33.42 54.599,33.653 C54.582,33.886 54.568,34.138 54.558,34.407 C54.553,34.498 54.555,34.569 54.565,34.622 L54.659,34.727 C54.712,34.744 54.794,34.748 54.907,34.738 C55.02,34.728 55.176,34.705 55.377,34.671 L55.377,34.671 Z M54.881,38.674 C54.781,38.523 54.639,38.342 54.457,38.129 C54.273,37.916 54.085,37.715 53.889,37.524 L54.272,37.119 C54.348,37.194 54.431,37.276 54.524,37.366 C54.617,37.457 54.71,37.547 54.806,37.637 C54.901,37.728 54.993,37.814 55.084,37.897 C55.174,37.979 55.253,38.05 55.324,38.11 L54.881,38.674 L54.881,38.674 Z M56.428,33.897 C56.383,33.922 56.36,33.994 56.36,34.114 L56.36,37.134 C56.36,37.284 56.363,37.438 56.368,37.596 C56.373,37.753 56.383,37.925 56.398,38.11 L55.73,38.11 C55.739,37.92 55.747,37.747 55.752,37.592 C55.757,37.437 55.759,37.284 55.759,37.134 L55.759,34.543 C55.759,34.353 55.757,34.19 55.752,34.055 C55.747,33.92 55.739,33.797 55.73,33.687 C55.845,33.712 55.951,33.728 56.048,33.735 C56.146,33.743 56.26,33.747 56.39,33.747 L56.499,33.796 L56.428,33.897 L56.428,33.897 Z M57.817,33.019 L57.753,33.105 L57.742,33.243 L57.742,38.816 C57.742,38.951 57.732,39.063 57.712,39.15 L57.558,39.372 C57.476,39.432 57.353,39.481 57.19,39.523 C57.027,39.562 56.806,39.6 56.525,39.635 C56.525,39.489 56.512,39.36 56.484,39.248 C56.457,39.135 56.403,39.004 56.323,38.853 C56.498,38.879 56.637,38.892 56.739,38.892 C56.842,38.892 56.921,38.881 56.976,38.861 L57.085,38.771 L57.111,38.613 L57.111,34.085 C57.111,33.779 57.109,33.518 57.104,33.3 C57.099,33.082 57.089,32.918 57.074,32.808 C57.174,32.828 57.284,32.842 57.404,32.85 C57.524,32.856 57.642,32.856 57.757,32.846 L57.885,32.898 L57.817,33.019 L57.817,33.019 Z" id="Fill-16" fill="#FFFFFF" sketch:type="MSShapeGroup"></path>
                <path d="M61.978,34.018 C61.718,34.042 61.461,34.064 61.208,34.081 C60.955,34.099 60.72,34.113 60.502,34.126 C60.284,34.139 60.089,34.148 59.917,34.156 C59.744,34.163 59.605,34.167 59.5,34.167 C59.475,34.037 59.444,33.927 59.41,33.837 C59.375,33.747 59.324,33.649 59.259,33.544 C59.35,33.559 59.49,33.566 59.68,33.566 C59.87,33.566 60.093,33.562 60.348,33.556 C60.603,33.548 60.881,33.536 61.182,33.522 C61.482,33.507 61.788,33.486 62.098,33.461 C62.283,33.446 62.483,33.425 62.699,33.397 C62.914,33.37 63.129,33.338 63.345,33.3 C63.56,33.263 63.768,33.223 63.968,33.18 C64.169,33.138 64.351,33.094 64.516,33.048 C64.546,33.139 64.59,33.237 64.648,33.345 C64.705,33.453 64.787,33.581 64.892,33.731 C64.962,33.827 64.932,33.862 64.802,33.837 L64.546,33.81 C64.461,33.808 64.344,33.81 64.193,33.818 C64.043,33.825 63.844,33.841 63.596,33.863 C63.349,33.886 63.024,33.917 62.624,33.957 L62.624,35.031 C63.069,35.026 63.449,35.019 63.762,35.009 C64.074,34.998 64.349,34.981 64.584,34.956 L64.584,35.594 C64.358,35.574 64.085,35.56 63.765,35.553 C63.445,35.545 63.065,35.544 62.624,35.549 L62.624,36.54 C62.909,36.535 63.191,36.529 63.469,36.522 C63.747,36.515 64.011,36.507 64.261,36.499 C64.511,36.491 64.742,36.483 64.952,36.473 C65.162,36.463 65.345,36.453 65.5,36.442 L65.5,37.097 C65.345,37.086 65.161,37.077 64.948,37.07 C64.735,37.063 64.504,37.057 64.253,37.051 C64.003,37.046 63.74,37.044 63.465,37.044 L62.624,37.044 L62.624,38.996 C62.624,39.092 62.61,39.172 62.582,39.236 C62.555,39.302 62.491,39.358 62.391,39.405 C62.291,39.453 62.146,39.493 61.956,39.525 C61.765,39.559 61.505,39.587 61.174,39.612 C61.129,39.342 61.024,39.081 60.859,38.831 C61.094,38.861 61.286,38.88 61.434,38.888 C61.581,38.895 61.695,38.886 61.775,38.861 L61.936,38.73 C61.964,38.667 61.978,38.581 61.978,38.471 L61.978,37.044 C61.652,37.049 61.332,37.054 61.017,37.059 C60.701,37.064 60.405,37.07 60.127,37.077 C59.849,37.085 59.599,37.094 59.376,37.103 C59.153,37.114 58.971,37.124 58.831,37.134 L58.831,36.488 C58.971,36.498 59.154,36.508 59.379,36.518 C59.605,36.528 59.856,36.534 60.134,36.537 C60.412,36.539 60.707,36.542 61.021,36.544 C61.333,36.547 61.652,36.546 61.978,36.54 L61.978,35.542 C61.497,35.542 61.066,35.545 60.686,35.553 C60.306,35.56 60.005,35.574 59.785,35.594 L59.785,34.971 C60.015,34.996 60.317,35.014 60.69,35.023 C61.063,35.033 61.492,35.036 61.978,35.031 L61.978,34.018" id="Fill-17" fill="#FFFFFF" sketch:type="MSShapeGroup"></path>
                <path d="M67.843,39.041 L67.742,39.143 L67.622,39.278 L67.502,39.417 L67.416,39.537 C67.35,39.436 67.279,39.338 67.201,39.24 C67.124,39.143 67.037,39.046 66.942,38.951 C67.043,38.866 67.125,38.751 67.19,38.606 C67.255,38.461 67.288,38.285 67.288,38.08 L67.288,35.587 C67.018,35.587 66.801,35.594 66.638,35.609 C66.476,35.624 66.334,35.647 66.214,35.677 L66.214,34.963 C66.329,34.979 66.457,34.988 66.597,34.993 C66.737,34.998 66.9,35.001 67.085,35.001 C67.26,35.001 67.419,34.997 67.562,34.989 C67.705,34.982 67.834,34.974 67.949,34.963 C67.929,35.078 67.914,35.219 67.903,35.384 C67.894,35.549 67.889,35.72 67.889,35.895 L67.889,38.133 C68.054,38.003 68.211,37.871 68.362,37.738 C68.512,37.606 68.637,37.486 68.737,37.382 C68.762,37.497 68.797,37.619 68.842,37.75 C68.887,37.88 68.93,37.98 68.97,38.05 L67.843,39.041 L67.843,39.041 Z M67.618,34.362 C67.548,34.157 67.45,33.94 67.325,33.713 C67.2,33.485 67.065,33.276 66.92,33.086 L67.543,32.756 C67.668,32.945 67.797,33.151 67.93,33.371 C68.063,33.592 68.179,33.792 68.279,33.972 L67.618,34.362 L67.618,34.362 Z M71.861,33.867 L70.277,33.867 C70.186,33.867 70.085,33.869 69.973,33.874 C69.86,33.88 69.749,33.887 69.638,33.897 C69.528,33.907 69.425,33.918 69.331,33.931 C69.235,33.943 69.16,33.957 69.105,33.972 L69.105,33.146 C69.245,33.187 69.453,33.212 69.729,33.225 C70.004,33.237 70.369,33.243 70.825,33.243 C71.271,33.243 71.625,33.236 71.888,33.221 C72.15,33.206 72.359,33.181 72.515,33.146 C72.5,33.246 72.49,33.349 72.485,33.454 C72.48,33.559 72.477,33.682 72.477,33.822 L72.477,35.233 C72.477,35.449 72.481,35.65 72.488,35.838 C72.496,36.026 72.505,36.225 72.515,36.435 L71.861,36.435 L71.861,36.053 L69.946,36.053 L69.946,38.245 C69.946,38.381 69.955,38.489 69.973,38.572 L70.119,38.76 C70.199,38.803 70.319,38.83 70.479,38.843 C70.64,38.855 70.862,38.861 71.148,38.861 C71.393,38.861 71.588,38.851 71.734,38.831 C71.879,38.812 71.994,38.765 72.079,38.692 C72.164,38.619 72.231,38.512 72.278,38.369 C72.326,38.227 72.372,38.03 72.417,37.779 C72.532,37.895 72.652,37.99 72.778,38.065 C72.903,38.14 73.021,38.192 73.13,38.223 C73.041,38.503 72.957,38.725 72.879,38.888 C72.801,39.05 72.697,39.172 72.567,39.252 C72.437,39.332 72.262,39.382 72.042,39.401 C71.821,39.422 71.523,39.432 71.148,39.432 C70.728,39.432 70.396,39.425 70.153,39.409 C69.91,39.395 69.727,39.363 69.605,39.315 C69.482,39.268 69.404,39.198 69.372,39.106 C69.339,39.013 69.323,38.889 69.323,38.733 L69.323,36.105 C69.323,35.935 69.32,35.804 69.315,35.711 C69.31,35.618 69.3,35.529 69.286,35.444 L69.455,35.467 L69.661,35.481 C69.741,35.486 69.833,35.489 69.939,35.489 L70.329,35.489 L71.861,35.489 L71.861,33.867 L71.861,33.867 Z" id="Fill-18" fill="#FFFFFF" sketch:type="MSShapeGroup"></path>
                <path d="M15.543,25.571 C15.339,26.084 15.136,26.547 14.933,26.958 C14.73,27.37 14.513,27.758 14.284,28.121 C14.054,28.484 13.8,28.832 13.522,29.163 C13.244,29.494 12.928,29.842 12.576,30.206 C12.469,29.96 12.34,29.751 12.191,29.58 C12.041,29.409 11.849,29.265 11.613,29.148 C12.308,28.687 12.928,28.121 13.474,27.447 C14.019,26.773 14.553,25.913 15.077,24.865 L14.195,24.865 C13.939,24.865 13.698,24.868 13.474,24.873 C13.249,24.879 13.035,24.887 12.832,24.898 C12.629,24.908 12.426,24.919 12.223,24.93 L12.223,23.631 C12.458,23.652 12.688,23.671 12.913,23.686 C13.137,23.703 13.374,23.717 13.626,23.727 C13.877,23.737 14.155,23.748 14.46,23.759 C14.765,23.77 15.12,23.775 15.526,23.775 C15.526,23.433 15.521,23.102 15.51,22.78 C15.5,22.46 15.483,22.235 15.462,22.107 C15.655,22.129 15.893,22.142 16.176,22.147 C16.459,22.152 16.697,22.155 16.89,22.155 C17.039,22.155 17.13,22.185 17.162,22.243 C17.194,22.303 17.135,22.363 16.986,22.428 C16.836,22.492 16.761,22.609 16.761,22.78 L16.761,23.775 C17.135,23.775 17.464,23.77 17.748,23.759 C18.031,23.748 18.29,23.737 18.525,23.727 C18.76,23.717 18.985,23.703 19.199,23.686 C19.413,23.671 19.632,23.652 19.856,23.631 L19.856,24.93 C19.632,24.919 19.413,24.908 19.199,24.898 C18.985,24.887 18.76,24.879 18.525,24.873 C18.29,24.868 18.028,24.865 17.739,24.865 L16.761,24.865 L16.761,29.725 C16.761,29.928 16.769,30.147 16.785,30.382 C16.801,30.617 16.82,30.842 16.841,31.056 L15.446,31.056 C15.51,30.596 15.543,30.152 15.543,29.725 L15.543,25.571 L15.543,25.571 Z M20.081,20.423 C19.984,20.701 19.929,20.94 19.913,21.137 C19.897,21.335 19.92,21.546 19.984,21.771 C19.429,21.814 18.961,21.832 18.582,21.826 C18.202,21.821 17.897,21.784 17.668,21.714 C17.438,21.645 17.274,21.532 17.178,21.378 C17.082,21.223 17.039,21.017 17.05,20.76 L17.114,18.387 L15.013,18.387 C15.013,18.964 14.97,19.469 14.885,19.902 C14.799,20.335 14.671,20.72 14.5,21.057 C14.329,21.394 14.112,21.695 13.851,21.963 C13.588,22.231 13.276,22.486 12.913,22.732 C12.848,22.626 12.787,22.529 12.728,22.444 L12.536,22.22 L12.303,22.027 C12.217,21.963 12.11,21.888 11.982,21.803 C12.356,21.6 12.669,21.375 12.92,21.129 C13.171,20.883 13.367,20.584 13.506,20.231 C13.645,19.878 13.731,19.456 13.762,18.964 C13.794,18.473 13.778,17.873 13.714,17.168 C14.227,17.2 15.029,17.216 16.12,17.216 C17.189,17.216 17.991,17.2 18.525,17.168 C18.493,17.393 18.458,17.753 18.421,18.25 C18.383,18.747 18.354,19.285 18.333,19.862 C18.322,20.055 18.327,20.207 18.349,20.319 C18.37,20.432 18.437,20.506 18.549,20.544 C18.662,20.581 18.838,20.589 19.079,20.567 C19.319,20.546 19.653,20.498 20.081,20.423 L20.081,20.423 Z M19.023,28.971 C18.809,28.65 18.506,28.263 18.116,27.809 C17.726,27.353 17.322,26.924 16.906,26.518 L17.724,25.651 C17.884,25.812 18.063,25.988 18.261,26.181 C18.458,26.373 18.659,26.565 18.862,26.758 C19.065,26.95 19.263,27.135 19.456,27.312 C19.648,27.487 19.819,27.64 19.969,27.769 L19.023,28.971 L19.023,28.971 Z M22.326,18.772 C22.23,18.825 22.182,18.981 22.182,19.236 L22.182,25.684 C22.182,26.004 22.187,26.333 22.198,26.67 C22.208,27.007 22.23,27.373 22.262,27.769 L20.835,27.769 C20.856,27.362 20.872,26.993 20.883,26.661 C20.893,26.33 20.899,26.004 20.899,25.684 L20.899,20.15 C20.899,19.744 20.893,19.397 20.883,19.108 C20.872,18.819 20.856,18.558 20.835,18.322 C21.081,18.376 21.308,18.411 21.516,18.427 C21.725,18.442 21.968,18.451 22.246,18.451 C22.385,18.451 22.462,18.485 22.478,18.555 C22.494,18.625 22.443,18.697 22.326,18.772 L22.326,18.772 Z M25.293,16.896 L25.156,17.08 C25.141,17.139 25.132,17.237 25.132,17.376 L25.132,29.275 C25.132,29.565 25.111,29.802 25.068,29.989 C25.025,30.176 24.916,30.334 24.739,30.462 C24.563,30.591 24.301,30.697 23.954,30.783 C23.606,30.868 23.133,30.948 22.535,31.023 C22.535,30.713 22.505,30.439 22.446,30.197 C22.387,29.957 22.273,29.677 22.102,29.356 C22.476,29.409 22.773,29.436 22.992,29.436 C23.21,29.436 23.379,29.414 23.497,29.372 C23.614,29.329 23.691,29.265 23.729,29.18 C23.767,29.094 23.785,28.981 23.785,28.843 L23.785,19.173 C23.785,18.521 23.78,17.962 23.769,17.497 C23.758,17.031 23.737,16.682 23.705,16.446 C23.919,16.489 24.154,16.519 24.411,16.534 C24.668,16.551 24.918,16.548 25.165,16.526 C25.325,16.516 25.416,16.553 25.437,16.639 C25.459,16.725 25.41,16.81 25.293,16.896 L25.293,16.896 Z" id="Fill-19" fill="#FFFFFF" sketch:type="MSShapeGroup"></path>
                <path d="M34.177,19.028 C33.621,19.082 33.073,19.127 32.533,19.164 C31.993,19.202 31.491,19.234 31.026,19.261 C30.561,19.287 30.144,19.309 29.775,19.325 C29.406,19.341 29.109,19.349 28.885,19.349 C28.831,19.071 28.767,18.836 28.692,18.644 C28.618,18.451 28.511,18.242 28.372,18.018 C28.564,18.05 28.863,18.065 29.27,18.065 C29.676,18.065 30.152,18.058 30.697,18.042 C31.242,18.025 31.835,18.002 32.477,17.97 C33.119,17.938 33.771,17.895 34.434,17.842 C34.829,17.81 35.257,17.764 35.716,17.705 C36.176,17.647 36.636,17.577 37.096,17.497 C37.555,17.416 37.999,17.331 38.427,17.24 C38.854,17.149 39.245,17.056 39.597,16.959 C39.662,17.151 39.755,17.363 39.878,17.593 C40.001,17.823 40.175,18.098 40.399,18.419 C40.549,18.622 40.485,18.697 40.207,18.644 C40.025,18.611 39.843,18.593 39.662,18.587 C39.48,18.582 39.228,18.587 38.908,18.603 C38.587,18.619 38.162,18.651 37.633,18.699 C37.103,18.747 36.411,18.815 35.556,18.899 L35.556,21.193 C36.508,21.183 37.317,21.166 37.986,21.145 C38.654,21.124 39.239,21.086 39.742,21.032 L39.742,22.396 C39.261,22.353 38.678,22.323 37.994,22.308 C37.31,22.292 36.497,22.289 35.556,22.3 L35.556,24.416 C36.165,24.406 36.767,24.393 37.36,24.376 C37.954,24.36 38.518,24.345 39.052,24.328 C39.586,24.313 40.079,24.294 40.527,24.273 C40.977,24.251 41.367,24.23 41.698,24.208 L41.698,25.604 C41.367,25.582 40.974,25.564 40.52,25.547 C40.065,25.531 39.571,25.518 39.036,25.507 C38.502,25.496 37.94,25.491 37.352,25.491 L35.556,25.491 L35.556,29.66 C35.556,29.863 35.526,30.034 35.468,30.174 C35.409,30.313 35.273,30.433 35.059,30.534 C34.845,30.636 34.535,30.722 34.129,30.791 C33.723,30.86 33.167,30.922 32.461,30.976 C32.365,30.398 32.14,29.842 31.788,29.308 C32.29,29.372 32.699,29.412 33.014,29.428 C33.33,29.444 33.573,29.425 33.744,29.372 C33.915,29.318 34.03,29.225 34.089,29.091 C34.147,28.958 34.177,28.773 34.177,28.538 L34.177,25.491 C33.482,25.502 32.798,25.513 32.125,25.523 C31.451,25.534 30.817,25.547 30.224,25.564 C29.63,25.579 29.096,25.598 28.62,25.619 C28.145,25.641 27.757,25.662 27.458,25.684 L27.458,24.304 C27.757,24.326 28.147,24.347 28.628,24.368 C29.109,24.39 29.647,24.403 30.24,24.408 C30.833,24.414 31.464,24.419 32.132,24.425 C32.8,24.43 33.482,24.427 34.177,24.416 L34.177,22.283 C33.151,22.283 32.231,22.292 31.418,22.308 C30.606,22.323 29.965,22.353 29.494,22.396 L29.494,21.065 C29.986,21.118 30.63,21.155 31.427,21.177 C32.223,21.198 33.14,21.204 34.177,21.193 L34.177,19.028" id="Fill-20" fill="#FFFFFF" sketch:type="MSShapeGroup"></path>
                <path d="M50.519,24.096 C51.587,24.042 52.574,23.991 53.477,23.943 C54.38,23.896 55.147,23.845 55.778,23.791 L55.842,24.962 C55.201,24.93 54.423,24.919 53.509,24.93 C52.595,24.94 51.598,24.967 50.519,25.01 L50.519,26.518 C51.93,26.475 53.143,26.424 54.159,26.365 C55.174,26.307 56.062,26.234 56.821,26.148 L56.885,27.383 C56.105,27.362 55.201,27.359 54.175,27.375 C53.148,27.392 51.93,27.426 50.519,27.48 L50.519,28.666 C50.519,28.88 50.534,29.046 50.566,29.163 C50.599,29.281 50.686,29.369 50.831,29.428 C50.976,29.486 51.197,29.524 51.497,29.54 C51.796,29.557 52.213,29.565 52.748,29.565 C53.41,29.565 53.94,29.548 54.335,29.516 C54.731,29.484 55.043,29.409 55.273,29.292 C55.503,29.174 55.674,29 55.786,28.771 C55.898,28.541 56.008,28.233 56.115,27.849 C56.286,28.041 56.484,28.215 56.708,28.369 C56.933,28.524 57.158,28.65 57.382,28.746 C57.222,29.174 57.059,29.514 56.893,29.765 C56.727,30.016 56.492,30.206 56.188,30.334 C55.883,30.462 55.463,30.545 54.928,30.583 C54.394,30.62 53.678,30.639 52.779,30.639 C51.903,30.639 51.224,30.628 50.743,30.606 C50.262,30.585 49.906,30.523 49.676,30.422 C49.446,30.32 49.31,30.166 49.268,29.957 C49.225,29.749 49.203,29.457 49.203,29.083 L49.203,27.527 C48.038,27.581 47.006,27.638 46.108,27.696 C45.21,27.755 44.424,27.816 43.751,27.88 L43.687,26.646 C44.392,26.667 45.191,26.67 46.084,26.653 C46.977,26.638 48.017,26.613 49.203,26.581 L49.203,25.058 C48.155,25.101 47.26,25.147 46.517,25.194 C45.774,25.242 45.098,25.293 44.488,25.347 L44.424,24.192 C44.734,24.203 45.05,24.211 45.371,24.216 C45.691,24.222 46.039,24.222 46.413,24.216 C46.787,24.211 47.201,24.203 47.656,24.192 C48.11,24.182 48.626,24.165 49.203,24.144 L49.203,22.861 C48.327,22.914 47.552,22.957 46.878,22.989 C46.205,23.022 45.632,23.048 45.162,23.069 C45.108,22.888 45.031,22.682 44.93,22.452 C44.828,22.222 44.734,22.032 44.649,21.883 C45.151,21.915 45.857,21.931 46.766,21.931 C47.674,21.931 48.765,21.894 50.037,21.818 C50.507,21.786 50.983,21.744 51.464,21.69 C51.946,21.637 52.403,21.575 52.835,21.506 C53.269,21.436 53.669,21.364 54.039,21.289 C54.407,21.215 54.72,21.145 54.977,21.081 C55.084,21.306 55.207,21.514 55.345,21.706 C55.484,21.898 55.628,22.059 55.778,22.188 C55.875,22.273 55.912,22.351 55.891,22.42 C55.869,22.489 55.8,22.514 55.682,22.492 C55.575,22.481 55.426,22.476 55.233,22.476 C55.041,22.476 54.754,22.486 54.375,22.508 C53.996,22.529 53.499,22.561 52.884,22.604 C52.269,22.648 51.48,22.7 50.519,22.765 L50.519,24.096 L50.519,24.096 Z M46.413,19.06 C46.071,19.563 45.79,19.945 45.571,20.207 C45.352,20.469 45.141,20.696 44.938,20.889 C44.788,20.738 44.622,20.613 44.44,20.512 C44.258,20.41 44.093,20.333 43.943,20.279 C44.595,19.701 45.146,19.071 45.595,18.387 C46.044,17.702 46.381,16.991 46.605,16.254 C46.862,16.371 47.135,16.478 47.423,16.574 C47.712,16.671 47.979,16.734 48.225,16.767 C48.343,16.788 48.396,16.834 48.385,16.903 C48.375,16.973 48.31,17.034 48.193,17.088 C48.022,17.162 47.845,17.28 47.664,17.44 C47.482,17.601 47.279,17.825 47.054,18.114 L48.514,18.114 C49.027,18.114 49.486,18.106 49.893,18.09 C50.299,18.074 50.593,18.056 50.775,18.034 L50.775,19.141 C50.593,19.119 50.315,19.101 49.941,19.084 C49.566,19.068 49.139,19.06 48.658,19.06 C48.883,19.852 49.091,20.45 49.284,20.856 L47.968,21.097 C47.937,20.883 47.883,20.613 47.808,20.287 C47.733,19.961 47.621,19.552 47.471,19.06 L46.413,19.06 L46.413,19.06 Z M52.988,19.028 C52.699,19.52 52.453,19.932 52.251,20.263 C52.047,20.595 51.876,20.867 51.737,21.081 C51.555,20.932 51.374,20.819 51.192,20.744 C51.01,20.669 50.796,20.61 50.55,20.567 C50.753,20.386 50.976,20.127 51.216,19.79 C51.457,19.453 51.686,19.084 51.905,18.684 C52.125,18.282 52.325,17.871 52.507,17.448 C52.689,17.026 52.822,16.628 52.908,16.254 C53.165,16.34 53.45,16.42 53.766,16.494 C54.081,16.569 54.351,16.623 54.576,16.654 C54.693,16.676 54.754,16.708 54.76,16.751 C54.765,16.794 54.709,16.842 54.592,16.896 C54.474,16.959 54.321,17.096 54.135,17.304 C53.947,17.513 53.752,17.772 53.549,18.082 L55.41,18.082 C55.923,18.082 56.361,18.074 56.725,18.058 C57.088,18.042 57.36,18.023 57.543,18.002 L57.543,19.108 C57.36,19.087 57.066,19.068 56.66,19.052 C56.254,19.036 55.752,19.028 55.153,19.028 C55.271,19.402 55.367,19.707 55.441,19.942 C55.516,20.178 55.597,20.402 55.682,20.616 L54.335,20.824 C54.314,20.61 54.279,20.375 54.231,20.118 C54.183,19.862 54.1,19.499 53.982,19.028 L52.988,19.028 L52.988,19.028 Z" id="Fill-21" fill="#FFFFFF" sketch:type="MSShapeGroup"></path>
                <path d="M62.738,29.757 C62.674,29.81 62.602,29.882 62.522,29.973 C62.441,30.064 62.356,30.16 62.265,30.262 C62.174,30.363 62.089,30.462 62.008,30.559 C61.928,30.654 61.867,30.74 61.824,30.815 C61.685,30.602 61.533,30.39 61.367,30.182 C61.201,29.973 61.017,29.768 60.814,29.565 C61.027,29.382 61.204,29.137 61.343,28.826 C61.482,28.517 61.551,28.143 61.551,27.704 L61.551,22.38 C60.974,22.38 60.512,22.396 60.165,22.428 C59.817,22.46 59.515,22.508 59.258,22.572 L59.258,21.049 C59.504,21.081 59.777,21.103 60.076,21.113 C60.375,21.124 60.723,21.129 61.119,21.129 C61.493,21.129 61.832,21.121 62.137,21.104 C62.441,21.089 62.717,21.07 62.963,21.049 C62.92,21.295 62.888,21.594 62.867,21.946 C62.845,22.3 62.835,22.663 62.835,23.037 L62.835,27.816 C63.187,27.538 63.524,27.258 63.845,26.975 C64.166,26.691 64.433,26.437 64.647,26.213 C64.7,26.459 64.775,26.721 64.871,26.998 C64.967,27.276 65.058,27.49 65.144,27.64 L62.738,29.757 L62.738,29.757 Z M62.257,19.766 C62.107,19.327 61.899,18.865 61.632,18.379 C61.364,17.893 61.076,17.446 60.766,17.039 L62.097,16.334 C62.364,16.74 62.639,17.179 62.923,17.649 C63.206,18.119 63.455,18.547 63.668,18.932 L62.257,19.766 L62.257,19.766 Z M71.318,18.707 L67.934,18.707 C67.742,18.707 67.525,18.713 67.285,18.724 C67.044,18.734 66.806,18.75 66.571,18.772 C66.335,18.793 66.116,18.817 65.914,18.844 C65.71,18.87 65.55,18.899 65.432,18.932 L65.432,17.168 C65.731,17.254 66.175,17.31 66.763,17.336 C67.351,17.363 68.132,17.376 69.105,17.376 C70.056,17.376 70.813,17.36 71.374,17.328 C71.935,17.296 72.381,17.243 72.713,17.168 C72.681,17.382 72.659,17.601 72.649,17.825 C72.638,18.05 72.633,18.312 72.633,18.611 L72.633,21.626 C72.633,22.086 72.641,22.516 72.657,22.917 C72.673,23.318 72.691,23.743 72.713,24.192 L71.318,24.192 L71.318,23.374 L67.229,23.374 L67.229,28.057 C67.229,28.346 67.247,28.578 67.285,28.754 C67.322,28.931 67.426,29.065 67.597,29.155 C67.768,29.246 68.025,29.305 68.367,29.332 C68.709,29.358 69.185,29.372 69.794,29.372 C70.318,29.372 70.735,29.351 71.045,29.308 C71.355,29.265 71.601,29.166 71.783,29.011 C71.964,28.856 72.106,28.626 72.208,28.321 C72.31,28.017 72.408,27.598 72.504,27.063 C72.751,27.309 73.007,27.512 73.274,27.672 C73.542,27.832 73.793,27.944 74.028,28.009 C73.835,28.607 73.656,29.081 73.491,29.428 C73.325,29.775 73.103,30.034 72.825,30.206 C72.547,30.377 72.173,30.483 71.703,30.526 C71.232,30.569 70.596,30.591 69.794,30.591 C68.897,30.591 68.188,30.574 67.669,30.542 C67.151,30.511 66.761,30.443 66.499,30.342 C66.237,30.24 66.071,30.091 66.001,29.893 C65.932,29.695 65.897,29.431 65.897,29.1 L65.897,23.486 C65.897,23.123 65.892,22.843 65.881,22.645 C65.871,22.446 65.849,22.257 65.817,22.075 C65.935,22.097 66.055,22.112 66.178,22.123 C66.301,22.134 66.448,22.145 66.619,22.155 C66.79,22.166 66.988,22.171 67.212,22.171 L68.046,22.171 L71.318,22.171 L71.318,18.707 L71.318,18.707 Z" id="Fill-22" fill="#FFFFFF" sketch:type="MSShapeGroup"></path>
            </g>
        </g>
    </g>
</svg>