<?xml version="1.0" encoding="UTF-8" standalone="no"?>
<svg width="120px" height="120px" viewBox="0 0 120 120" version="1.1" xmlns="http://www.w3.org/2000/svg" xmlns:xlink="http://www.w3.org/1999/xlink" xmlns:sketch="http://www.bohemiancoding.com/sketch/ns">
    <!-- Generator: Sketch 3.3.2 (12043) - http://www.bohemiancoding.com/sketch -->
    <title>Mobile Portrait Copy 9</title>
    <desc>Created with Sketch.</desc>
    <defs></defs>
    <g id="basic" stroke="none" stroke-width="1" fill="none" fill-rule="evenodd" sketch:type="MSPage">
        <g id="Mobile-Portrait-Copy-9" sketch:type="MSArtboardGroup" fill="#FFFFFF">
            <g id="Imported-Layers" sketch:type="MSLayerGroup" transform="translate(15.000000, 46.000000)">
                <path d="M28.674,28.023 L28.674,24.643 L28.091,24.643 L28.091,24.129 L28.674,24.129 L28.674,23.715 C28.674,23.453 28.697,23.259 28.744,23.132 C28.808,22.961 28.919,22.821 29.079,22.716 C29.239,22.609 29.464,22.556 29.752,22.556 C29.938,22.556 30.144,22.578 30.368,22.622 L30.269,23.197 C30.133,23.173 30.003,23.161 29.881,23.161 C29.681,23.161 29.538,23.204 29.455,23.289 C29.372,23.375 29.331,23.535 29.331,23.769 L29.331,24.129 L30.09,24.129 L30.09,24.643 L29.331,24.643 L29.331,28.023 L28.674,28.023" id="Fill-1" sketch:type="MSShapeGroup"></path>
                <path d="M30.596,28.023 L30.596,24.129 L31.19,24.129 L31.19,24.72 C31.342,24.443 31.481,24.261 31.61,24.173 C31.738,24.085 31.88,24.041 32.033,24.041 C32.256,24.041 32.482,24.112 32.712,24.254 L32.484,24.866 C32.323,24.77 32.162,24.723 32.001,24.723 C31.856,24.723 31.727,24.767 31.612,24.853 C31.497,24.94 31.415,25.06 31.366,25.215 C31.293,25.449 31.256,25.706 31.256,25.984 L31.256,28.023 L30.596,28.023" id="Fill-2" sketch:type="MSShapeGroup"></path>
                <path d="M32.858,26.076 C32.858,25.355 33.06,24.821 33.46,24.474 C33.795,24.185 34.203,24.041 34.685,24.041 C35.221,24.041 35.658,24.217 35.998,24.567 C36.338,24.918 36.508,25.402 36.508,26.022 C36.508,26.522 36.433,26.917 36.282,27.204 C36.132,27.491 35.913,27.714 35.626,27.873 C35.338,28.032 35.024,28.111 34.685,28.111 C34.14,28.111 33.699,27.936 33.363,27.587 C33.026,27.237 32.858,26.734 32.858,26.076 L32.858,26.076 Z M33.537,26.076 C33.537,26.575 33.646,26.948 33.863,27.196 C34.081,27.444 34.355,27.568 34.685,27.568 C35.013,27.568 35.285,27.444 35.503,27.194 C35.721,26.945 35.829,26.565 35.829,26.055 C35.829,25.572 35.72,25.208 35.501,24.96 C35.282,24.712 35.01,24.588 34.685,24.588 C34.355,24.588 34.081,24.711 33.863,24.958 C33.646,25.205 33.537,25.577 33.537,26.076 L33.537,26.076 Z" id="Fill-3" sketch:type="MSShapeGroup"></path>
                <path d="M37.281,28.023 L37.281,24.129 L37.871,24.129 L37.871,24.676 C37.994,24.484 38.156,24.331 38.359,24.215 C38.562,24.1 38.793,24.041 39.053,24.041 C39.341,24.041 39.577,24.101 39.762,24.221 C39.946,24.341 40.077,24.508 40.152,24.723 C40.461,24.269 40.861,24.041 41.356,24.041 C41.741,24.041 42.038,24.148 42.246,24.362 C42.454,24.576 42.558,24.905 42.558,25.351 L42.558,28.023 L41.901,28.023 L41.901,25.57 C41.901,25.307 41.88,25.116 41.838,25 C41.795,24.884 41.717,24.79 41.604,24.72 C41.492,24.648 41.36,24.613 41.209,24.613 C40.935,24.613 40.707,24.704 40.526,24.887 C40.346,25.068 40.255,25.36 40.255,25.761 L40.255,28.023 L39.595,28.023 L39.595,25.493 C39.595,25.2 39.541,24.979 39.434,24.833 C39.326,24.686 39.15,24.613 38.905,24.613 C38.72,24.613 38.548,24.662 38.391,24.76 C38.232,24.857 38.118,25.001 38.048,25.189 C37.977,25.377 37.941,25.648 37.941,26.003 L37.941,28.023 L37.281,28.023" id="Fill-4" sketch:type="MSShapeGroup"></path>
                <path d="M47.479,26.273 C47.384,26.514 47.288,26.73 47.193,26.923 C47.098,27.116 46.997,27.298 46.889,27.468 C46.781,27.638 46.662,27.801 46.532,27.956 C46.402,28.111 46.255,28.273 46.089,28.444 C46.039,28.329 45.98,28.231 45.909,28.151 C45.839,28.071 45.749,28.004 45.639,27.948 C45.964,27.733 46.255,27.468 46.51,27.152 C46.765,26.837 47.016,26.434 47.261,25.943 L46.848,25.943 C46.727,25.943 46.615,25.944 46.51,25.947 C46.404,25.949 46.305,25.953 46.209,25.958 C46.114,25.963 46.019,25.968 45.924,25.974 L45.924,25.365 C46.034,25.375 46.142,25.384 46.247,25.392 C46.352,25.398 46.464,25.405 46.581,25.41 C46.698,25.415 46.829,25.42 46.972,25.425 C47.114,25.43 47.28,25.433 47.471,25.433 C47.471,25.272 47.469,25.117 47.464,24.967 C47.459,24.816 47.451,24.712 47.441,24.651 C47.531,24.661 47.643,24.668 47.775,24.67 C47.908,24.673 48.019,24.674 48.109,24.674 C48.18,24.674 48.222,24.688 48.237,24.715 C48.252,24.743 48.225,24.772 48.154,24.802 C48.084,24.832 48.05,24.887 48.05,24.967 L48.05,25.433 C48.225,25.433 48.379,25.43 48.511,25.425 C48.644,25.42 48.766,25.415 48.875,25.41 C48.985,25.405 49.091,25.398 49.19,25.392 C49.291,25.384 49.394,25.375 49.499,25.365 L49.499,25.974 C49.394,25.968 49.291,25.963 49.19,25.958 C49.091,25.953 48.985,25.949 48.875,25.947 C48.766,25.944 48.643,25.943 48.508,25.943 L48.05,25.943 L48.05,28.219 C48.05,28.314 48.053,28.416 48.06,28.526 C48.068,28.637 48.077,28.742 48.087,28.842 L47.434,28.842 C47.464,28.627 47.479,28.419 47.479,28.219 L47.479,26.273 L47.479,26.273 Z M49.604,23.863 C49.559,23.993 49.532,24.104 49.525,24.197 C49.518,24.29 49.529,24.389 49.559,24.494 C49.299,24.514 49.079,24.522 48.901,24.519 C48.724,24.518 48.581,24.5 48.474,24.468 C48.366,24.435 48.29,24.383 48.244,24.31 C48.199,24.237 48.18,24.141 48.185,24.02 L48.215,22.909 L47.231,22.909 C47.231,23.18 47.211,23.416 47.171,23.619 C47.131,23.821 47.07,24.002 46.99,24.159 C46.91,24.317 46.809,24.459 46.687,24.584 C46.563,24.709 46.417,24.829 46.247,24.944 C46.217,24.894 46.188,24.85 46.16,24.81 C46.133,24.77 46.102,24.734 46.07,24.704 C46.038,24.674 46.002,24.644 45.962,24.614 C45.922,24.584 45.871,24.549 45.812,24.509 C45.986,24.414 46.133,24.309 46.251,24.193 C46.368,24.078 46.46,23.937 46.524,23.772 C46.59,23.607 46.63,23.41 46.644,23.18 C46.66,22.949 46.652,22.669 46.622,22.338 C46.862,22.353 47.238,22.36 47.749,22.36 C48.25,22.36 48.625,22.353 48.875,22.338 C48.86,22.443 48.844,22.612 48.826,22.846 C48.809,23.078 48.795,23.33 48.785,23.6 C48.78,23.69 48.783,23.762 48.793,23.815 C48.803,23.866 48.834,23.901 48.887,23.919 C48.939,23.936 49.021,23.94 49.135,23.931 C49.247,23.921 49.403,23.897 49.604,23.863 L49.604,23.863 Z M49.108,27.866 C49.008,27.716 48.866,27.534 48.684,27.321 C48.501,27.108 48.312,26.907 48.117,26.717 L48.5,26.311 C48.575,26.387 48.659,26.469 48.752,26.559 C48.844,26.649 48.938,26.739 49.033,26.829 C49.128,26.92 49.221,27.006 49.312,27.089 C49.401,27.171 49.481,27.242 49.552,27.303 L49.108,27.866 L49.108,27.866 Z M50.655,23.089 C50.61,23.114 50.588,23.186 50.588,23.307 L50.588,26.326 C50.588,26.477 50.59,26.63 50.596,26.788 C50.601,26.945 50.61,27.117 50.625,27.303 L49.957,27.303 C49.967,27.112 49.975,26.94 49.979,26.784 C49.984,26.629 49.987,26.477 49.987,26.326 L49.987,23.735 C49.987,23.545 49.984,23.382 49.979,23.247 C49.975,23.112 49.967,22.989 49.957,22.879 C50.072,22.904 50.179,22.92 50.276,22.928 C50.374,22.935 50.487,22.94 50.618,22.94 C50.683,22.94 50.719,22.955 50.727,22.988 C50.734,23.021 50.71,23.055 50.655,23.089 L50.655,23.089 Z M52.045,22.211 C52.01,22.24 51.988,22.269 51.981,22.297 C51.974,22.324 51.97,22.371 51.97,22.435 L51.97,28.009 C51.97,28.144 51.96,28.255 51.939,28.343 C51.92,28.43 51.868,28.504 51.785,28.565 C51.703,28.624 51.58,28.674 51.418,28.715 C51.255,28.754 51.033,28.792 50.753,28.827 C50.753,28.682 50.739,28.553 50.712,28.44 C50.685,28.327 50.63,28.196 50.55,28.046 C50.726,28.071 50.864,28.084 50.967,28.084 C51.069,28.084 51.148,28.073 51.203,28.054 C51.259,28.033 51.295,28.004 51.312,27.963 C51.33,27.924 51.339,27.871 51.339,27.806 L51.339,23.277 C51.339,22.972 51.336,22.71 51.331,22.492 C51.326,22.274 51.316,22.11 51.301,22 C51.401,22.02 51.512,22.034 51.632,22.042 C51.752,22.049 51.869,22.048 51.984,22.038 C52.06,22.033 52.102,22.051 52.112,22.091 C52.122,22.131 52.1,22.171 52.045,22.211 L52.045,22.211 Z" id="Fill-5" sketch:type="MSShapeGroup"></path>
                <path d="M56.206,23.21 C55.945,23.234 55.688,23.256 55.437,23.273 C55.184,23.291 54.948,23.306 54.731,23.318 C54.513,23.331 54.317,23.341 54.144,23.349 C53.972,23.355 53.833,23.359 53.727,23.359 C53.702,23.229 53.673,23.119 53.638,23.029 C53.602,22.94 53.553,22.842 53.487,22.736 C53.577,22.751 53.718,22.759 53.908,22.759 C54.098,22.759 54.321,22.755 54.576,22.748 C54.832,22.74 55.109,22.728 55.41,22.714 C55.71,22.699 56.016,22.679 56.326,22.653 C56.512,22.639 56.712,22.617 56.927,22.59 C57.143,22.562 57.357,22.53 57.573,22.492 C57.788,22.455 57.996,22.415 58.196,22.372 C58.396,22.33 58.579,22.286 58.744,22.24 C58.774,22.331 58.818,22.43 58.876,22.537 C58.934,22.646 59.015,22.773 59.12,22.924 C59.19,23.019 59.16,23.055 59.029,23.029 C58.944,23.015 58.859,23.006 58.774,23.003 C58.689,23 58.571,23.003 58.422,23.011 C58.271,23.018 58.072,23.033 57.824,23.056 C57.576,23.078 57.252,23.109 56.852,23.149 L56.852,24.224 C57.298,24.219 57.677,24.211 57.989,24.201 C58.303,24.19 58.576,24.174 58.812,24.148 L58.812,24.786 C58.587,24.767 58.313,24.753 57.993,24.745 C57.673,24.737 57.292,24.736 56.852,24.741 L56.852,25.732 C57.138,25.728 57.419,25.722 57.696,25.714 C57.975,25.707 58.238,25.699 58.489,25.691 C58.739,25.684 58.97,25.676 59.18,25.665 C59.391,25.655 59.573,25.646 59.729,25.635 L59.729,26.289 C59.573,26.278 59.389,26.27 59.176,26.263 C58.963,26.255 58.731,26.249 58.481,26.243 C58.231,26.238 57.968,26.236 57.693,26.236 L56.852,26.236 L56.852,28.189 C56.852,28.284 56.838,28.364 56.81,28.429 C56.783,28.494 56.719,28.551 56.619,28.598 C56.519,28.646 56.374,28.685 56.184,28.718 C55.993,28.751 55.732,28.779 55.402,28.805 C55.357,28.534 55.252,28.273 55.087,28.023 C55.322,28.054 55.514,28.072 55.661,28.08 C55.81,28.087 55.923,28.078 56.003,28.054 C56.083,28.028 56.137,27.984 56.165,27.922 C56.192,27.859 56.206,27.773 56.206,27.663 L56.206,26.236 C55.881,26.241 55.56,26.246 55.245,26.251 C54.93,26.256 54.633,26.263 54.354,26.27 C54.077,26.277 53.826,26.286 53.603,26.296 C53.381,26.307 53.199,26.316 53.06,26.326 L53.06,25.681 C53.199,25.69 53.382,25.7 53.607,25.71 C53.833,25.721 54.084,25.727 54.362,25.729 C54.64,25.731 54.935,25.734 55.248,25.736 C55.562,25.739 55.881,25.738 56.206,25.732 L56.206,24.734 C55.726,24.734 55.295,24.737 54.914,24.745 C54.533,24.753 54.233,24.767 54.013,24.786 L54.013,24.163 C54.243,24.189 54.545,24.206 54.918,24.216 C55.291,24.226 55.721,24.228 56.206,24.224 L56.206,23.21" id="Fill-6" sketch:type="MSShapeGroup"></path>
                <path d="M62.071,28.233 C62.041,28.259 62.007,28.293 61.97,28.335 C61.932,28.378 61.892,28.423 61.85,28.471 C61.807,28.518 61.767,28.565 61.73,28.609 C61.691,28.654 61.663,28.694 61.643,28.729 C61.578,28.629 61.507,28.53 61.429,28.433 C61.352,28.335 61.265,28.238 61.17,28.144 C61.269,28.059 61.352,27.943 61.418,27.798 C61.482,27.653 61.516,27.477 61.516,27.272 L61.516,24.779 C61.245,24.779 61.028,24.786 60.865,24.802 C60.703,24.816 60.562,24.839 60.441,24.869 L60.441,24.155 C60.557,24.171 60.685,24.181 60.824,24.185 C60.965,24.19 61.127,24.193 61.312,24.193 C61.487,24.193 61.646,24.19 61.789,24.182 C61.932,24.175 62.06,24.166 62.176,24.155 C62.156,24.27 62.141,24.411 62.131,24.576 C62.121,24.741 62.116,24.912 62.116,25.087 L62.116,27.325 C62.281,27.195 62.439,27.064 62.589,26.931 C62.739,26.798 62.864,26.679 62.965,26.574 C62.989,26.69 63.024,26.811 63.07,26.942 C63.115,27.072 63.157,27.172 63.197,27.242 L62.071,28.233 L62.071,28.233 Z M61.846,23.555 C61.775,23.35 61.678,23.133 61.553,22.905 C61.428,22.678 61.292,22.469 61.147,22.278 L61.771,21.948 C61.896,22.138 62.024,22.344 62.157,22.564 C62.29,22.784 62.406,22.984 62.507,23.164 L61.846,23.555 L61.846,23.555 Z M66.089,23.06 L64.504,23.06 C64.414,23.06 64.313,23.061 64.2,23.066 C64.088,23.072 63.976,23.079 63.866,23.089 C63.756,23.1 63.653,23.11 63.558,23.123 C63.463,23.136 63.388,23.149 63.333,23.164 L63.333,22.338 C63.473,22.379 63.681,22.404 63.956,22.417 C64.231,22.43 64.597,22.435 65.053,22.435 C65.498,22.435 65.852,22.429 66.115,22.413 C66.378,22.398 66.587,22.373 66.742,22.338 C66.727,22.438 66.717,22.541 66.712,22.647 C66.707,22.751 66.705,22.874 66.705,23.015 L66.705,24.426 C66.705,24.642 66.708,24.843 66.716,25.03 C66.724,25.219 66.732,25.417 66.742,25.628 L66.089,25.628 L66.089,25.245 L64.174,25.245 L64.174,27.437 C64.174,27.573 64.183,27.682 64.2,27.765 C64.218,27.847 64.267,27.909 64.347,27.952 C64.427,27.995 64.547,28.022 64.707,28.035 C64.867,28.047 65.09,28.054 65.375,28.054 C65.621,28.054 65.816,28.043 65.961,28.023 C66.106,28.004 66.222,27.957 66.307,27.885 C66.392,27.811 66.458,27.704 66.506,27.561 C66.554,27.419 66.6,27.223 66.644,26.972 C66.76,27.087 66.88,27.183 67.005,27.258 C67.13,27.332 67.248,27.385 67.358,27.415 C67.268,27.695 67.185,27.917 67.106,28.08 C67.029,28.242 66.925,28.364 66.795,28.444 C66.665,28.524 66.489,28.574 66.269,28.594 C66.049,28.614 65.751,28.624 65.375,28.624 C64.955,28.624 64.623,28.617 64.38,28.602 C64.138,28.587 63.955,28.556 63.832,28.508 C63.709,28.46 63.632,28.391 63.6,28.298 C63.566,28.205 63.551,28.081 63.551,27.926 L63.551,25.297 C63.551,25.127 63.548,24.996 63.543,24.903 C63.538,24.81 63.528,24.722 63.513,24.637 C63.568,24.647 63.624,24.654 63.682,24.659 C63.739,24.664 63.809,24.669 63.889,24.674 C63.969,24.679 64.062,24.682 64.166,24.682 L64.557,24.682 L66.089,24.682 L66.089,23.06 L66.089,23.06 Z" id="Fill-7" sketch:type="MSShapeGroup"></path>
                <path d="M30.879,14.428 C30.676,14.94 30.473,15.403 30.269,15.815 C30.066,16.227 29.85,16.614 29.62,16.977 C29.39,17.341 29.136,17.689 28.858,18.02 C28.58,18.351 28.265,18.698 27.912,19.062 C27.805,18.816 27.677,18.607 27.527,18.436 C27.377,18.266 27.185,18.121 26.95,18.004 C27.644,17.544 28.265,16.977 28.81,16.304 C29.356,15.63 29.89,14.769 30.414,13.722 L29.532,13.722 C29.275,13.722 29.034,13.725 28.81,13.729 C28.586,13.735 28.372,13.743 28.169,13.754 C27.966,13.765 27.763,13.775 27.56,13.786 L27.56,12.487 C27.794,12.509 28.024,12.527 28.249,12.543 C28.474,12.56 28.711,12.573 28.963,12.583 C29.214,12.594 29.491,12.605 29.796,12.615 C30.102,12.626 30.456,12.632 30.863,12.632 C30.863,12.289 30.857,11.958 30.847,11.637 C30.836,11.316 30.82,11.092 30.799,10.964 C30.991,10.985 31.229,10.998 31.513,11.004 C31.796,11.009 32.033,11.012 32.226,11.012 C32.376,11.012 32.467,11.041 32.499,11.1 C32.53,11.159 32.472,11.22 32.322,11.284 C32.172,11.349 32.098,11.466 32.098,11.637 L32.098,12.632 C32.472,12.632 32.801,12.626 33.084,12.615 C33.367,12.605 33.626,12.594 33.861,12.583 C34.097,12.573 34.321,12.56 34.535,12.543 C34.749,12.527 34.968,12.509 35.192,12.487 L35.192,13.786 C34.968,13.775 34.749,13.765 34.535,13.754 C34.321,13.743 34.097,13.735 33.861,13.729 C33.626,13.725 33.364,13.722 33.076,13.722 L32.098,13.722 L32.098,18.581 C32.098,18.784 32.106,19.003 32.122,19.238 C32.138,19.474 32.156,19.698 32.178,19.912 L30.782,19.912 C30.847,19.452 30.879,19.009 30.879,18.581 L30.879,14.428 L30.879,14.428 Z M35.417,9.279 C35.321,9.558 35.265,9.796 35.249,9.993 C35.232,10.191 35.257,10.402 35.321,10.627 C34.765,10.67 34.297,10.689 33.918,10.683 C33.538,10.678 33.233,10.641 33.004,10.57 C32.773,10.501 32.61,10.389 32.515,10.234 C32.418,10.079 32.376,9.873 32.387,9.616 L32.45,7.243 L30.35,7.243 C30.35,7.82 30.307,8.325 30.222,8.759 C30.136,9.191 30.008,9.576 29.837,9.913 C29.665,10.25 29.449,10.552 29.187,10.819 C28.925,11.087 28.612,11.343 28.249,11.589 C28.185,11.482 28.123,11.386 28.065,11.301 C28.006,11.215 27.941,11.14 27.872,11.076 C27.803,11.012 27.725,10.947 27.64,10.884 C27.554,10.819 27.447,10.744 27.318,10.659 C27.692,10.456 28.006,10.231 28.257,9.985 C28.508,9.739 28.703,9.44 28.842,9.087 C28.981,8.734 29.066,8.313 29.099,7.82 C29.131,7.329 29.115,6.729 29.051,6.024 C29.563,6.057 30.365,6.072 31.456,6.072 C32.525,6.072 33.327,6.057 33.861,6.024 C33.83,6.249 33.795,6.609 33.758,7.106 C33.72,7.603 33.69,8.142 33.669,8.719 C33.658,8.911 33.664,9.064 33.685,9.176 C33.707,9.288 33.773,9.362 33.886,9.4 C33.998,9.438 34.175,9.445 34.415,9.424 C34.655,9.402 34.989,9.354 35.417,9.279 L35.417,9.279 Z M34.358,17.827 C34.144,17.507 33.843,17.119 33.453,16.665 C33.063,16.21 32.659,15.78 32.242,15.374 L33.06,14.508 C33.221,14.668 33.399,14.845 33.597,15.037 C33.795,15.229 33.995,15.422 34.198,15.614 C34.401,15.807 34.6,15.991 34.792,16.168 C34.984,16.344 35.155,16.496 35.305,16.625 L34.358,17.827 L34.358,17.827 Z M37.662,7.628 C37.566,7.682 37.518,7.837 37.518,8.093 L37.518,14.54 C37.518,14.86 37.523,15.19 37.534,15.526 C37.545,15.863 37.566,16.229 37.599,16.625 L36.171,16.625 C36.192,16.219 36.208,15.85 36.219,15.518 C36.23,15.186 36.235,14.86 36.235,14.54 L36.235,9.007 C36.235,8.601 36.23,8.253 36.219,7.965 C36.208,7.676 36.192,7.414 36.171,7.179 C36.417,7.232 36.644,7.268 36.852,7.283 C37.06,7.299 37.304,7.308 37.582,7.308 C37.721,7.308 37.799,7.342 37.815,7.411 C37.831,7.481 37.78,7.554 37.662,7.628 L37.662,7.628 Z M40.629,5.752 C40.555,5.815 40.509,5.878 40.493,5.936 C40.477,5.995 40.469,6.094 40.469,6.232 L40.469,18.132 C40.469,18.421 40.447,18.658 40.404,18.846 C40.361,19.032 40.252,19.19 40.076,19.318 C39.899,19.447 39.638,19.554 39.29,19.64 C38.942,19.725 38.47,19.805 37.871,19.88 C37.871,19.569 37.841,19.295 37.782,19.054 C37.724,18.814 37.608,18.533 37.437,18.212 C37.812,18.266 38.108,18.292 38.328,18.292 C38.547,18.292 38.715,18.27 38.833,18.228 C38.95,18.185 39.028,18.121 39.065,18.036 C39.102,17.95 39.122,17.838 39.122,17.699 L39.122,8.029 C39.122,7.377 39.116,6.818 39.106,6.353 C39.095,5.888 39.073,5.538 39.042,5.303 C39.255,5.346 39.49,5.375 39.747,5.391 C40.004,5.407 40.255,5.404 40.501,5.383 C40.661,5.372 40.752,5.409 40.773,5.495 C40.795,5.581 40.747,5.666 40.629,5.752 L40.629,5.752 Z" id="Fill-8" sketch:type="MSShapeGroup"></path>
                <path d="M49.514,7.885 C48.958,7.939 48.41,7.983 47.87,8.021 C47.33,8.059 46.828,8.091 46.362,8.117 C45.898,8.144 45.481,8.165 45.112,8.182 C44.743,8.197 44.446,8.205 44.222,8.205 C44.168,7.928 44.105,7.692 44.029,7.5 C43.954,7.308 43.848,7.099 43.709,6.874 C43.901,6.906 44.2,6.922 44.606,6.922 C45.013,6.922 45.488,6.914 46.034,6.898 C46.579,6.882 47.173,6.858 47.814,6.826 C48.455,6.794 49.107,6.751 49.771,6.698 C50.166,6.666 50.594,6.62 51.054,6.561 C51.513,6.503 51.973,6.434 52.433,6.353 C52.893,6.272 53.336,6.187 53.764,6.097 C54.191,6.006 54.581,5.912 54.935,5.815 C54.998,6.008 55.092,6.22 55.215,6.449 C55.338,6.68 55.512,6.954 55.736,7.275 C55.886,7.478 55.821,7.554 55.544,7.5 C55.361,7.468 55.18,7.449 54.998,7.443 C54.816,7.438 54.565,7.443 54.245,7.46 C53.924,7.476 53.499,7.508 52.97,7.556 C52.44,7.603 51.748,7.671 50.894,7.756 L50.894,10.05 C51.845,10.039 52.654,10.022 53.322,10.001 C53.99,9.98 54.576,9.942 55.079,9.889 L55.079,11.252 C54.598,11.21 54.015,11.18 53.331,11.164 C52.646,11.148 51.834,11.146 50.894,11.156 L50.894,13.272 C51.503,13.263 52.103,13.249 52.697,13.232 C53.291,13.217 53.855,13.201 54.389,13.185 C54.924,13.169 55.415,13.15 55.864,13.129 C56.313,13.107 56.704,13.086 57.035,13.065 L57.035,14.46 C56.704,14.439 56.31,14.42 55.856,14.403 C55.402,14.388 54.907,14.374 54.373,14.363 C53.838,14.352 53.277,14.348 52.689,14.348 L50.894,14.348 L50.894,18.517 C50.894,18.72 50.863,18.891 50.805,19.03 C50.746,19.169 50.609,19.289 50.395,19.391 C50.182,19.492 49.872,19.578 49.466,19.647 C49.06,19.717 48.504,19.778 47.798,19.832 C47.702,19.255 47.477,18.698 47.124,18.164 C47.627,18.228 48.036,18.269 48.352,18.284 C48.666,18.301 48.91,18.281 49.081,18.228 C49.252,18.175 49.367,18.081 49.426,17.947 C49.484,17.815 49.514,17.63 49.514,17.394 L49.514,14.348 C48.818,14.358 48.135,14.369 47.461,14.38 C46.788,14.391 46.154,14.403 45.56,14.42 C44.968,14.435 44.433,14.454 43.957,14.476 C43.481,14.497 43.094,14.519 42.795,14.54 L42.795,13.16 C43.094,13.183 43.484,13.203 43.965,13.225 C44.446,13.246 44.983,13.26 45.577,13.265 C46.17,13.271 46.801,13.275 47.469,13.281 C48.138,13.286 48.818,13.283 49.514,13.272 L49.514,11.14 C48.487,11.14 47.568,11.148 46.756,11.164 C45.943,11.18 45.302,11.21 44.831,11.252 L44.831,9.921 C45.323,9.975 45.967,10.012 46.764,10.033 C47.56,10.055 48.477,10.06 49.514,10.05 L49.514,7.885" id="Fill-9" sketch:type="MSShapeGroup"></path>
                <path d="M65.855,12.952 C66.924,12.898 67.91,12.848 68.813,12.8 C69.717,12.752 70.483,12.701 71.115,12.647 L71.179,13.818 C70.537,13.786 69.76,13.775 68.846,13.786 C67.932,13.797 66.935,13.823 65.855,13.866 L65.855,15.374 C67.266,15.331 68.48,15.28 69.495,15.222 C70.511,15.163 71.398,15.091 72.157,15.005 L72.222,16.239 C71.44,16.219 70.537,16.216 69.511,16.231 C68.484,16.248 67.266,16.282 65.855,16.336 L65.855,17.522 C65.855,17.736 65.871,17.902 65.903,18.02 C65.935,18.138 66.023,18.226 66.167,18.284 C66.312,18.343 66.533,18.381 66.833,18.397 C67.132,18.413 67.549,18.421 68.084,18.421 C68.747,18.421 69.275,18.404 69.672,18.372 C70.066,18.341 70.38,18.266 70.609,18.148 C70.84,18.03 71.011,17.856 71.123,17.627 C71.235,17.397 71.345,17.09 71.451,16.705 C71.622,16.897 71.82,17.071 72.045,17.226 C72.269,17.381 72.494,17.507 72.719,17.602 C72.558,18.03 72.394,18.37 72.23,18.621 C72.063,18.872 71.828,19.062 71.523,19.19 C71.219,19.318 70.799,19.401 70.265,19.44 C69.731,19.477 69.014,19.495 68.116,19.495 C67.239,19.495 66.56,19.484 66.079,19.463 C65.599,19.441 65.242,19.38 65.013,19.278 C64.783,19.177 64.646,19.022 64.604,18.814 C64.562,18.605 64.54,18.313 64.54,17.94 L64.54,16.384 C63.374,16.437 62.343,16.494 61.444,16.553 C60.547,16.611 59.761,16.673 59.087,16.736 L59.023,15.502 C59.729,15.523 60.527,15.526 61.421,15.51 C62.313,15.494 63.352,15.47 64.54,15.437 L64.54,13.914 C63.492,13.957 62.597,14.003 61.853,14.051 C61.11,14.099 60.435,14.149 59.825,14.203 L59.761,13.049 C60.07,13.06 60.387,13.067 60.707,13.072 C61.027,13.078 61.375,13.078 61.749,13.072 C62.123,13.067 62.538,13.06 62.992,13.049 C63.446,13.038 63.963,13.022 64.54,13 L64.54,11.718 C63.663,11.771 62.888,11.814 62.215,11.846 C61.541,11.878 60.969,11.904 60.498,11.926 C60.445,11.744 60.367,11.538 60.266,11.309 C60.164,11.078 60.07,10.889 59.985,10.739 C60.487,10.772 61.193,10.787 62.102,10.787 C63.011,10.787 64.102,10.75 65.374,10.675 C65.844,10.643 66.319,10.601 66.801,10.547 C67.282,10.493 67.739,10.432 68.172,10.362 C68.606,10.293 69.006,10.221 69.375,10.145 C69.743,10.071 70.057,10.001 70.312,9.937 C70.42,10.162 70.543,10.37 70.682,10.563 C70.82,10.755 70.965,10.915 71.115,11.044 C71.211,11.13 71.248,11.207 71.227,11.276 C71.205,11.346 71.136,11.37 71.019,11.349 C70.911,11.338 70.762,11.332 70.569,11.332 C70.377,11.332 70.091,11.343 69.712,11.364 C69.332,11.386 68.835,11.418 68.22,11.461 C67.606,11.504 66.817,11.557 65.855,11.621 L65.855,12.952 L65.855,12.952 Z M61.749,7.917 C61.407,8.419 61.126,8.802 60.907,9.064 C60.688,9.325 60.477,9.553 60.274,9.745 C60.124,9.595 59.959,9.47 59.776,9.368 C59.595,9.267 59.43,9.19 59.279,9.136 C59.932,8.558 60.482,7.928 60.932,7.243 C61.381,6.559 61.717,5.848 61.941,5.11 C62.198,5.227 62.471,5.335 62.76,5.431 C63.048,5.527 63.315,5.591 63.562,5.623 C63.679,5.645 63.732,5.69 63.722,5.76 C63.711,5.829 63.646,5.891 63.529,5.944 C63.358,6.019 63.182,6.137 63,6.297 C62.818,6.457 62.615,6.682 62.391,6.971 L63.851,6.971 C64.363,6.971 64.823,6.963 65.229,6.946 C65.636,6.931 65.93,6.912 66.111,6.891 L66.111,7.997 C65.93,7.976 65.651,7.957 65.277,7.94 C64.903,7.925 64.476,7.917 63.994,7.917 C64.219,8.708 64.428,9.307 64.62,9.713 L63.305,9.953 C63.273,9.739 63.219,9.47 63.144,9.144 C63.069,8.817 62.957,8.408 62.808,7.917 L61.749,7.917 L61.749,7.917 Z M68.324,7.885 C68.036,8.376 67.79,8.788 67.587,9.119 C67.384,9.451 67.212,9.724 67.073,9.937 C66.892,9.788 66.71,9.676 66.528,9.601 C66.347,9.525 66.133,9.467 65.887,9.424 C66.09,9.242 66.312,8.983 66.553,8.647 C66.793,8.31 67.023,7.94 67.242,7.54 C67.461,7.139 67.661,6.727 67.844,6.305 C68.025,5.883 68.158,5.484 68.244,5.11 C68.501,5.196 68.787,5.276 69.102,5.351 C69.417,5.426 69.687,5.479 69.912,5.511 C70.029,5.532 70.091,5.565 70.097,5.607 C70.102,5.65 70.046,5.698 69.928,5.752 C69.81,5.815 69.658,5.952 69.471,6.16 C69.284,6.369 69.089,6.628 68.886,6.939 L70.746,6.939 C71.259,6.939 71.697,6.931 72.06,6.914 C72.424,6.898 72.697,6.88 72.879,6.858 L72.879,7.965 C72.697,7.943 72.403,7.925 71.997,7.908 C71.591,7.893 71.088,7.885 70.489,7.885 C70.606,8.259 70.703,8.563 70.778,8.799 C70.852,9.034 70.933,9.259 71.019,9.473 L69.672,9.681 C69.65,9.467 69.615,9.231 69.567,8.975 C69.519,8.719 69.437,8.355 69.318,7.885 L68.324,7.885 L68.324,7.885 Z" id="Fill-10" sketch:type="MSShapeGroup"></path>
                <path d="M78.075,18.613 C78.011,18.666 77.938,18.738 77.858,18.829 C77.778,18.92 77.692,19.017 77.602,19.118 C77.511,19.22 77.426,19.318 77.346,19.415 C77.266,19.511 77.204,19.597 77.161,19.672 C77.021,19.458 76.869,19.246 76.704,19.038 C76.538,18.829 76.354,18.624 76.15,18.421 C76.364,18.238 76.541,17.993 76.68,17.683 C76.818,17.373 76.889,16.999 76.889,16.56 L76.889,11.236 C76.312,11.236 75.849,11.252 75.501,11.284 C75.153,11.316 74.852,11.364 74.595,11.429 L74.595,9.905 C74.841,9.937 75.113,9.959 75.413,9.97 C75.712,9.98 76.06,9.985 76.455,9.985 C76.829,9.985 77.169,9.978 77.474,9.961 C77.778,9.945 78.054,9.927 78.3,9.905 C78.257,10.151 78.225,10.45 78.203,10.803 C78.182,11.156 78.171,11.519 78.171,11.894 L78.171,16.673 C78.524,16.394 78.861,16.114 79.182,15.831 C79.502,15.548 79.769,15.294 79.983,15.069 C80.037,15.315 80.111,15.577 80.208,15.854 C80.305,16.133 80.394,16.347 80.481,16.496 L78.075,18.613 L78.075,18.613 Z M77.594,8.622 C77.444,8.184 77.235,7.722 76.969,7.235 C76.701,6.749 76.412,6.303 76.102,5.896 L77.434,5.19 C77.701,5.597 77.977,6.035 78.26,6.506 C78.543,6.976 78.791,7.403 79.005,7.788 L77.594,8.622 L77.594,8.622 Z M86.654,7.564 L83.272,7.564 C83.078,7.564 82.862,7.569 82.621,7.58 C82.381,7.591 82.143,7.606 81.908,7.628 C81.673,7.649 81.453,7.674 81.25,7.7 C81.047,7.727 80.887,7.756 80.769,7.788 L80.769,6.024 C81.068,6.11 81.513,6.166 82.101,6.192 C82.688,6.22 83.469,6.232 84.441,6.232 C85.394,6.232 86.149,6.217 86.711,6.185 C87.273,6.152 87.719,6.1 88.05,6.024 C88.018,6.238 87.996,6.457 87.985,6.682 C87.975,6.906 87.97,7.168 87.97,7.468 L87.97,10.482 C87.97,10.942 87.977,11.372 87.994,11.773 C88.01,12.175 88.028,12.6 88.05,13.049 L86.654,13.049 L86.654,12.23 L82.565,12.23 L82.565,16.913 C82.565,17.202 82.584,17.435 82.621,17.61 C82.659,17.787 82.763,17.921 82.935,18.012 C83.106,18.102 83.361,18.161 83.704,18.189 C84.046,18.215 84.521,18.228 85.131,18.228 C85.655,18.228 86.072,18.207 86.382,18.164 C86.692,18.121 86.937,18.022 87.12,17.867 C87.302,17.713 87.443,17.482 87.545,17.178 C87.646,16.873 87.745,16.454 87.842,15.919 C88.087,16.165 88.344,16.368 88.611,16.528 C88.878,16.689 89.13,16.801 89.365,16.865 C89.173,17.464 88.993,17.937 88.828,18.284 C88.662,18.632 88.44,18.891 88.162,19.062 C87.884,19.233 87.51,19.34 87.04,19.383 C86.569,19.426 85.933,19.447 85.131,19.447 C84.233,19.447 83.524,19.431 83.007,19.398 C82.487,19.367 82.098,19.3 81.836,19.198 C81.573,19.097 81.408,18.947 81.339,18.749 C81.269,18.552 81.234,18.287 81.234,17.956 L81.234,12.343 C81.234,11.979 81.229,11.699 81.219,11.501 C81.208,11.303 81.187,11.113 81.154,10.932 C81.271,10.953 81.392,10.969 81.515,10.979 C81.638,10.99 81.785,11.001 81.956,11.012 C82.127,11.022 82.325,11.027 82.55,11.027 L83.383,11.027 L86.654,11.027 L86.654,7.564 L86.654,7.564 Z" id="Fill-11" sketch:type="MSShapeGroup"></path>
                <path d="M11.965,5.864 L11.965,1.52 C11.965,1.218 11.722,0.975 11.419,0.975 C11.115,0.975 10.873,1.218 10.873,1.52 L10.873,5.869 C10.873,6.172 11.115,6.415 11.419,6.415 C11.722,6.41 11.965,6.167 11.965,5.864" id="Fill-12" sketch:type="MSShapeGroup"></path>
                <path d="M7.308,7.635 C7.445,7.635 7.589,7.58 7.693,7.476 C7.909,7.26 7.909,6.918 7.693,6.702 L4.62,3.629 C4.405,3.414 4.062,3.414 3.848,3.629 C3.632,3.845 3.632,4.186 3.848,4.401 L6.922,7.476 C7.025,7.58 7.169,7.635 7.308,7.635" id="Fill-13" sketch:type="MSShapeGroup"></path>
                <path d="M20.451,10.742 L16.103,10.742 C15.799,10.742 15.557,10.984 15.557,11.288 C15.557,11.592 15.799,11.835 16.103,11.835 L20.451,11.835 C20.755,11.835 20.998,11.592 20.998,11.288 C20.998,10.984 20.755,10.742 20.451,10.742" id="Fill-14" sketch:type="MSShapeGroup"></path>
                <path d="M1.833,11.288 C1.833,11.592 2.076,11.835 2.38,11.835 L6.727,11.835 C7.031,11.835 7.274,11.592 7.274,11.288 C7.274,10.984 7.031,10.742 6.727,10.742 L2.38,10.742 C2.082,10.742 1.833,10.99 1.833,11.288" id="Fill-15" sketch:type="MSShapeGroup"></path>
                <path d="M15.451,7.79 L18.525,4.717 C18.74,4.501 18.74,4.159 18.525,3.943 C18.31,3.728 17.968,3.728 17.752,3.943 L14.68,7.017 C14.465,7.232 14.465,7.574 14.68,7.79 C14.784,7.895 14.928,7.949 15.066,7.949 C15.203,7.949 15.347,7.895 15.451,7.79" id="Fill-16" sketch:type="MSShapeGroup"></path>
                <path d="M0.604,17.17 L0.604,26.634 C0.604,27.228 1.089,27.709 1.679,27.709 L4.897,27.709 C5.267,27.709 5.585,27.526 5.784,27.246 C6.297,27.726 6.982,28.024 7.738,28.024 L16.356,28.024 C18.289,28.024 19.519,27.009 19.739,25.243 L20.898,17.87 C20.903,17.843 20.903,17.815 20.903,17.788 C20.903,16.215 19.623,14.935 18.051,14.935 L13.741,14.935 L13.741,11.84 C13.741,10.499 13.35,9.533 12.571,8.96 C11.342,8.06 9.658,8.573 9.587,8.596 C9.36,8.667 9.206,8.876 9.206,9.114 L9.206,12.634 C9.206,15.377 6.016,16.315 5.883,16.353 C5.817,16.37 5.752,16.403 5.701,16.447 C5.503,16.227 5.216,16.088 4.901,16.088 L1.679,16.088 C1.083,16.088 0.604,16.574 0.604,17.17 L0.604,17.17 Z M5.978,17.424 C6.044,17.429 6.11,17.424 6.177,17.407 C6.348,17.357 10.299,16.215 10.299,12.641 L10.299,9.555 C10.723,9.488 11.424,9.467 11.927,9.842 C12.405,10.195 12.648,10.868 12.648,11.835 L12.648,15.476 C12.648,15.779 12.892,16.022 13.195,16.022 L18.051,16.022 C19.011,16.022 19.789,16.789 19.81,17.744 L18.658,25.077 L18.658,25.094 C18.508,26.308 17.736,26.92 16.356,26.92 L7.738,26.92 C6.767,26.92 5.978,26.131 5.978,25.16 L5.978,17.424 L5.978,17.424 Z M1.695,17.181 L4.885,17.181 L4.885,26.616 L1.695,26.616 L1.695,17.181 Z" id="Fill-17" sketch:type="MSShapeGroup"></path>
            </g>
        </g>
    </g>
</svg>