<?xml version="1.0" encoding="UTF-8" standalone="no"?>
<svg width="120px" height="120px" viewBox="0 0 120 120" version="1.1" xmlns="http://www.w3.org/2000/svg" xmlns:xlink="http://www.w3.org/1999/xlink" xmlns:sketch="http://www.bohemiancoding.com/sketch/ns">
    <!-- Generator: Sketch 3.3.2 (12043) - http://www.bohemiancoding.com/sketch -->
    <title>Mobile Portrait Copy 2</title>
    <desc>Created with Sketch.</desc>
    <defs></defs>
    <g id="basic" stroke="none" stroke-width="1" fill="none" fill-rule="evenodd" sketch:type="MSPage">
        <g id="Mobile-Portrait-Copy-2" sketch:type="MSArtboardGroup">
            <g id="Imported-Layers" sketch:type="MSLayerGroup" transform="translate(30.000000, 22.000000)">
                <path d="M29.186,48.248 L29.186,44.867 L28.603,44.867 L28.603,44.353 L29.186,44.353 L29.186,43.94 C29.186,43.678 29.209,43.483 29.255,43.356 C29.319,43.185 29.431,43.046 29.591,42.94 C29.752,42.834 29.976,42.78 30.264,42.78 C30.45,42.78 30.655,42.803 30.88,42.847 L30.781,43.422 C30.644,43.398 30.515,43.386 30.393,43.386 C30.192,43.386 30.05,43.428 29.967,43.514 C29.884,43.6 29.842,43.76 29.842,43.994 L29.842,44.353 L30.602,44.353 L30.602,44.867 L29.842,44.867 L29.842,48.248 L29.186,48.248" id="Fill-1" fill="#FFFFFF" sketch:type="MSShapeGroup"></path>
                <path d="M31.107,48.248 L31.107,44.353 L31.701,44.353 L31.701,44.944 C31.853,44.668 31.993,44.486 32.121,44.397 C32.25,44.31 32.391,44.266 32.545,44.266 C32.767,44.266 32.993,44.336 33.223,44.478 L32.996,45.091 C32.835,44.996 32.673,44.948 32.512,44.948 C32.368,44.948 32.238,44.991 32.123,45.078 C32.008,45.165 31.926,45.285 31.877,45.439 C31.804,45.674 31.768,45.931 31.768,46.209 L31.768,48.248 L31.107,48.248" id="Fill-2" fill="#FFFFFF" sketch:type="MSShapeGroup"></path>
                <path d="M33.37,46.301 C33.37,45.58 33.57,45.045 33.971,44.698 C34.306,44.41 34.714,44.266 35.196,44.266 C35.731,44.266 36.169,44.441 36.509,44.792 C36.849,45.143 37.019,45.627 37.019,46.246 C37.019,46.747 36.943,47.141 36.793,47.428 C36.643,47.716 36.424,47.939 36.137,48.098 C35.85,48.256 35.536,48.336 35.196,48.336 C34.651,48.336 34.21,48.161 33.874,47.812 C33.538,47.462 33.37,46.959 33.37,46.301 L33.37,46.301 Z M34.048,46.301 C34.048,46.8 34.157,47.173 34.375,47.421 C34.592,47.669 34.866,47.793 35.196,47.793 C35.524,47.793 35.796,47.668 36.014,47.419 C36.231,47.17 36.34,46.79 36.34,46.279 C36.34,45.797 36.231,45.433 36.012,45.184 C35.793,44.936 35.522,44.812 35.196,44.812 C34.866,44.812 34.592,44.935 34.375,45.183 C34.157,45.429 34.048,45.802 34.048,46.301 L34.048,46.301 Z" id="Fill-3" fill="#FFFFFF" sketch:type="MSShapeGroup"></path>
                <path d="M37.793,48.248 L37.793,44.353 L38.383,44.353 L38.383,44.9 C38.505,44.71 38.668,44.556 38.871,44.44 C39.073,44.324 39.305,44.266 39.563,44.266 C39.852,44.266 40.088,44.326 40.273,44.445 C40.457,44.565 40.588,44.732 40.664,44.948 C40.972,44.493 41.373,44.266 41.867,44.266 C42.253,44.266 42.55,44.373 42.758,44.586 C42.965,44.8 43.069,45.13 43.069,45.575 L43.069,48.248 L42.413,48.248 L42.413,45.795 C42.413,45.531 42.392,45.341 42.349,45.225 C42.306,45.108 42.228,45.015 42.115,44.944 C42.004,44.873 41.871,44.838 41.72,44.838 C41.445,44.838 41.219,44.929 41.037,45.111 C40.857,45.293 40.767,45.585 40.767,45.985 L40.767,48.248 L40.106,48.248 L40.106,45.718 C40.106,45.424 40.053,45.205 39.945,45.058 C39.838,44.911 39.661,44.838 39.417,44.838 C39.231,44.838 39.06,44.887 38.902,44.984 C38.744,45.082 38.63,45.225 38.559,45.414 C38.488,45.602 38.453,45.873 38.453,46.228 L38.453,48.248 L37.793,48.248" id="Fill-4" fill="#FFFFFF" sketch:type="MSShapeGroup"></path>
                <path d="M47.99,46.498 C47.895,46.738 47.8,46.955 47.705,47.148 C47.609,47.341 47.508,47.522 47.4,47.692 C47.293,47.863 47.174,48.025 47.044,48.181 C46.914,48.335 46.766,48.499 46.602,48.669 C46.551,48.553 46.49,48.456 46.421,48.376 C46.351,48.295 46.26,48.228 46.15,48.173 C46.476,47.958 46.766,47.692 47.022,47.377 C47.277,47.062 47.527,46.659 47.772,46.168 L47.359,46.168 C47.239,46.168 47.127,46.169 47.022,46.171 C46.916,46.174 46.816,46.178 46.721,46.183 C46.626,46.188 46.531,46.193 46.435,46.198 L46.435,45.589 C46.546,45.6 46.653,45.608 46.759,45.616 C46.863,45.623 46.975,45.629 47.093,45.635 C47.211,45.64 47.341,45.645 47.483,45.649 C47.626,45.655 47.793,45.657 47.982,45.657 C47.982,45.497 47.98,45.342 47.975,45.191 C47.971,45.041 47.963,44.936 47.953,44.876 C48.043,44.886 48.154,44.892 48.287,44.895 C48.42,44.897 48.531,44.898 48.621,44.898 L48.749,44.94 L48.666,45.026 L48.56,45.191 L48.56,45.657 C48.736,45.657 48.891,45.655 49.023,45.649 C49.156,45.645 49.277,45.64 49.387,45.635 C49.497,45.629 49.603,45.623 49.702,45.616 C49.803,45.608 49.905,45.6 50.011,45.589 L50.011,46.198 C49.905,46.193 49.803,46.188 49.702,46.183 C49.603,46.178 49.497,46.174 49.387,46.171 C49.277,46.169 49.154,46.168 49.02,46.168 L48.56,46.168 L48.56,48.443 C48.56,48.539 48.565,48.641 48.572,48.752 C48.58,48.861 48.588,48.966 48.599,49.066 L47.945,49.066 C47.975,48.851 47.99,48.644 47.99,48.443 L47.99,46.498 L47.99,46.498 Z M50.115,44.087 C50.07,44.218 50.044,44.329 50.037,44.422 C50.029,44.514 50.041,44.613 50.07,44.718 C49.81,44.738 49.592,44.747 49.414,44.745 C49.236,44.742 49.093,44.725 48.985,44.692 C48.877,44.66 48.801,44.607 48.756,44.534 C48.711,44.462 48.691,44.365 48.696,44.245 L48.727,43.134 L47.742,43.134 C47.742,43.404 47.723,43.641 47.683,43.843 C47.643,44.046 47.582,44.227 47.502,44.384 C47.422,44.542 47.32,44.683 47.197,44.809 C47.075,44.934 46.929,45.054 46.759,45.169 L46.672,45.034 L46.582,44.929 L46.473,44.838 L46.323,44.733 C46.498,44.638 46.644,44.533 46.762,44.418 C46.88,44.303 46.971,44.163 47.037,43.998 C47.102,43.832 47.142,43.634 47.156,43.404 C47.172,43.174 47.164,42.894 47.135,42.563 C47.375,42.578 47.75,42.585 48.261,42.585 C48.762,42.585 49.137,42.578 49.387,42.563 C49.372,42.668 49.356,42.837 49.338,43.07 C49.32,43.303 49.307,43.554 49.297,43.825 L49.305,44.039 L49.398,44.144 C49.451,44.162 49.533,44.165 49.647,44.155 C49.759,44.145 49.915,44.123 50.115,44.087 L50.115,44.087 Z M49.62,48.09 C49.52,47.94 49.379,47.759 49.195,47.546 C49.013,47.333 48.824,47.132 48.629,46.941 L49.012,46.536 C49.087,46.611 49.17,46.693 49.264,46.784 C49.356,46.874 49.449,46.964 49.545,47.054 C49.64,47.144 49.732,47.23 49.823,47.313 L50.063,47.527 L49.62,48.09 L49.62,48.09 Z M51.167,43.314 C51.122,43.339 51.1,43.412 51.1,43.532 L51.1,46.551 C51.1,46.701 51.102,46.855 51.107,47.013 C51.112,47.17 51.122,47.342 51.137,47.527 L50.469,47.527 C50.478,47.337 50.486,47.164 50.491,47.009 C50.496,46.854 50.499,46.701 50.499,46.551 L50.499,43.96 C50.499,43.77 50.496,43.607 50.491,43.472 C50.486,43.336 50.478,43.214 50.469,43.104 C50.584,43.129 50.69,43.145 50.788,43.152 C50.886,43.16 50.999,43.164 51.13,43.164 L51.238,43.212 L51.167,43.314 L51.167,43.314 Z M52.557,42.435 L52.492,42.522 L52.481,42.661 L52.481,48.233 C52.481,48.368 52.472,48.48 52.451,48.567 L52.297,48.789 C52.215,48.849 52.092,48.899 51.93,48.939 C51.767,48.979 51.545,49.017 51.265,49.052 C51.265,48.906 51.251,48.777 51.224,48.665 C51.196,48.552 51.142,48.421 51.061,48.271 C51.237,48.295 51.376,48.308 51.478,48.308 C51.581,48.308 51.66,48.298 51.715,48.278 L51.824,48.188 L51.851,48.03 L51.851,43.502 C51.851,43.196 51.848,42.935 51.843,42.717 C51.838,42.499 51.828,42.335 51.812,42.225 C51.913,42.245 52.023,42.259 52.144,42.266 C52.264,42.274 52.381,42.272 52.496,42.263 L52.624,42.315 L52.557,42.435 L52.557,42.435 Z" id="Fill-5" fill="#FFFFFF" sketch:type="MSShapeGroup"></path>
                <path d="M56.718,43.434 C56.457,43.459 56.2,43.48 55.948,43.498 C55.695,43.516 55.46,43.531 55.242,43.543 C55.024,43.556 54.829,43.565 54.656,43.573 C54.483,43.581 54.345,43.585 54.239,43.585 C54.214,43.454 54.185,43.344 54.149,43.254 C54.114,43.164 54.065,43.066 53.999,42.961 C54.089,42.976 54.229,42.983 54.42,42.983 C54.609,42.983 54.833,42.979 55.088,42.972 C55.344,42.965 55.621,42.954 55.922,42.939 C56.222,42.923 56.527,42.903 56.838,42.878 C57.023,42.863 57.224,42.842 57.439,42.815 C57.654,42.787 57.869,42.754 58.085,42.717 C58.3,42.679 58.508,42.639 58.708,42.597 C58.908,42.554 59.091,42.51 59.256,42.465 C59.286,42.555 59.33,42.654 59.388,42.762 C59.445,42.87 59.526,42.999 59.632,43.149 C59.701,43.244 59.672,43.279 59.541,43.254 L59.286,43.228 C59.201,43.225 59.083,43.228 58.934,43.235 C58.783,43.243 58.584,43.258 58.336,43.28 C58.088,43.303 57.764,43.334 57.363,43.374 L57.363,44.448 C57.81,44.443 58.189,44.435 58.501,44.425 C58.815,44.416 59.088,44.398 59.323,44.373 L59.323,45.011 C59.099,44.991 58.825,44.978 58.505,44.97 C58.185,44.962 57.804,44.961 57.363,44.966 L57.363,45.957 C57.649,45.953 57.931,45.946 58.208,45.939 C58.486,45.931 58.75,45.924 59.001,45.916 C59.251,45.909 59.481,45.9 59.691,45.89 C59.902,45.88 60.085,45.87 60.24,45.86 L60.24,46.513 C60.085,46.503 59.9,46.495 59.687,46.487 C59.475,46.48 59.243,46.473 58.993,46.468 C58.743,46.463 58.479,46.46 58.205,46.46 L57.363,46.46 L57.363,48.413 C57.363,48.508 57.35,48.588 57.322,48.654 C57.295,48.719 57.231,48.775 57.131,48.823 C57.03,48.87 56.886,48.91 56.695,48.943 C56.505,48.975 56.244,49.004 55.914,49.029 C55.869,48.759 55.764,48.499 55.599,48.248 C55.834,48.278 56.025,48.297 56.173,48.304 C56.321,48.312 56.435,48.303 56.515,48.278 L56.677,48.147 C56.704,48.084 56.718,47.998 56.718,47.888 L56.718,46.46 C56.393,46.466 56.072,46.471 55.757,46.476 C55.441,46.481 55.145,46.487 54.866,46.495 C54.589,46.502 54.338,46.511 54.115,46.521 C53.893,46.531 53.711,46.541 53.571,46.551 L53.571,45.905 C53.711,45.915 53.894,45.925 54.119,45.935 C54.345,45.945 54.596,45.951 54.874,45.954 C55.151,45.957 55.447,45.959 55.76,45.961 C56.073,45.964 56.393,45.962 56.718,45.957 L56.718,44.958 C56.237,44.958 55.807,44.962 55.426,44.97 C55.045,44.978 54.745,44.991 54.524,45.011 L54.524,44.388 C54.755,44.413 55.057,44.431 55.43,44.44 C55.803,44.451 56.232,44.453 56.718,44.448 L56.718,43.434" id="Fill-6" fill="#FFFFFF" sketch:type="MSShapeGroup"></path>
                <path d="M62.583,48.459 L62.481,48.56 L62.361,48.695 L62.241,48.834 L62.154,48.954 C62.09,48.854 62.019,48.755 61.94,48.657 C61.863,48.56 61.776,48.463 61.682,48.368 C61.781,48.283 61.864,48.168 61.93,48.023 C61.994,47.877 62.027,47.703 62.027,47.497 L62.027,45.004 C61.757,45.004 61.54,45.011 61.377,45.026 C61.215,45.041 61.073,45.064 60.953,45.094 L60.953,44.38 C61.068,44.396 61.196,44.405 61.336,44.41 C61.477,44.416 61.639,44.418 61.824,44.418 C61.999,44.418 62.158,44.414 62.301,44.407 C62.443,44.399 62.572,44.391 62.687,44.38 C62.668,44.496 62.652,44.636 62.643,44.801 C62.633,44.966 62.628,45.136 62.628,45.311 L62.628,47.55 C62.793,47.419 62.951,47.288 63.101,47.155 C63.251,47.023 63.376,46.904 63.477,46.799 C63.501,46.914 63.536,47.037 63.582,47.167 C63.627,47.297 63.669,47.397 63.709,47.467 L62.583,48.459 L62.583,48.459 Z M62.357,43.78 C62.287,43.574 62.19,43.358 62.065,43.13 C61.94,42.902 61.804,42.693 61.659,42.503 L62.282,42.172 C62.407,42.363 62.536,42.568 62.669,42.788 C62.802,43.009 62.918,43.209 63.019,43.389 L62.357,43.78 L62.357,43.78 Z M66.601,43.284 L65.016,43.284 C64.926,43.284 64.824,43.287 64.712,43.292 C64.6,43.296 64.487,43.304 64.378,43.314 C64.268,43.324 64.165,43.335 64.069,43.348 C63.975,43.36 63.899,43.374 63.845,43.389 L63.845,42.563 C63.984,42.603 64.192,42.629 64.468,42.642 C64.743,42.654 65.108,42.661 65.564,42.661 C66.01,42.661 66.364,42.653 66.627,42.638 C66.89,42.623 67.099,42.598 67.254,42.563 C67.239,42.663 67.228,42.766 67.224,42.871 C67.219,42.976 67.217,43.099 67.217,43.239 L67.217,44.651 C67.217,44.866 67.22,45.067 67.228,45.255 C67.235,45.443 67.244,45.642 67.254,45.853 L66.601,45.853 L66.601,45.469 L64.685,45.469 L64.685,47.662 C64.685,47.797 64.694,47.906 64.712,47.989 L64.858,48.177 C64.939,48.219 65.059,48.247 65.219,48.259 C65.379,48.272 65.602,48.278 65.887,48.278 C66.133,48.278 66.328,48.268 66.473,48.248 C66.618,48.228 66.733,48.182 66.818,48.109 C66.903,48.037 66.97,47.929 67.018,47.786 C67.065,47.644 67.111,47.447 67.156,47.197 C67.272,47.312 67.392,47.407 67.517,47.482 C67.642,47.557 67.76,47.61 67.87,47.64 C67.779,47.92 67.696,48.142 67.618,48.304 C67.541,48.467 67.436,48.588 67.307,48.669 C67.177,48.749 67.001,48.799 66.781,48.819 C66.56,48.839 66.263,48.849 65.887,48.849 C65.467,48.849 65.135,48.841 64.892,48.826 C64.649,48.812 64.467,48.78 64.344,48.732 C64.221,48.685 64.144,48.615 64.111,48.522 C64.078,48.43 64.063,48.306 64.063,48.15 L64.063,45.522 C64.063,45.352 64.06,45.22 64.055,45.127 C64.05,45.035 64.04,44.946 64.024,44.861 L64.193,44.883 L64.4,44.898 C64.48,44.904 64.573,44.906 64.678,44.906 L65.068,44.906 L66.601,44.906 L66.601,43.284 L66.601,43.284 Z" id="Fill-7" fill="#FFFFFF" sketch:type="MSShapeGroup"></path>
                <path d="M9.856,34.443 C9.653,34.956 9.45,35.419 9.247,35.83 C9.044,36.242 8.827,36.629 8.597,36.993 C8.367,37.356 8.113,37.704 7.835,38.035 C7.557,38.366 7.242,38.714 6.889,39.077 C6.782,38.831 6.654,38.623 6.504,38.452 C6.354,38.281 6.162,38.137 5.927,38.019 C6.622,37.559 7.242,36.993 7.787,36.319 C8.332,35.645 8.867,34.785 9.391,33.737 L8.509,33.737 C8.252,33.737 8.012,33.74 7.787,33.745 C7.562,33.751 7.349,33.759 7.146,33.769 C6.942,33.78 6.739,33.79 6.536,33.801 L6.536,32.502 C6.772,32.524 7.002,32.543 7.226,32.558 C7.45,32.574 7.688,32.588 7.94,32.599 C8.19,32.609 8.469,32.62 8.773,32.63 C9.078,32.641 9.434,32.647 9.84,32.647 C9.84,32.305 9.835,31.973 9.824,31.652 C9.813,31.331 9.797,31.107 9.776,30.978 C9.968,31.001 10.206,31.014 10.489,31.019 C10.772,31.024 11.011,31.027 11.203,31.027 C11.353,31.027 11.443,31.057 11.476,31.115 C11.508,31.174 11.449,31.235 11.299,31.299 C11.149,31.364 11.075,31.481 11.075,31.652 L11.075,32.647 C11.449,32.647 11.777,32.641 12.061,32.63 C12.344,32.62 12.603,32.609 12.839,32.599 C13.074,32.588 13.298,32.574 13.512,32.558 C13.726,32.543 13.945,32.524 14.17,32.502 L14.17,33.801 C13.945,33.79 13.726,33.78 13.512,33.769 C13.298,33.759 13.074,33.751 12.839,33.745 C12.603,33.74 12.342,33.737 12.053,33.737 L11.075,33.737 L11.075,38.596 C11.075,38.799 11.082,39.019 11.099,39.253 C11.115,39.489 11.133,39.713 11.155,39.927 L9.76,39.927 C9.824,39.467 9.856,39.023 9.856,38.596 L9.856,34.443 L9.856,34.443 Z M14.394,29.295 C14.298,29.573 14.242,29.811 14.226,30.008 C14.21,30.206 14.234,30.418 14.298,30.642 C13.742,30.685 13.274,30.704 12.895,30.698 C12.515,30.693 12.21,30.655 11.981,30.586 C11.751,30.517 11.588,30.404 11.492,30.249 C11.396,30.094 11.353,29.888 11.363,29.632 L11.428,27.258 L9.327,27.258 C9.327,27.835 9.284,28.341 9.198,28.773 C9.113,29.207 8.984,29.591 8.814,29.928 C8.643,30.265 8.426,30.567 8.164,30.834 C7.902,31.102 7.589,31.358 7.226,31.604 C7.162,31.498 7.1,31.401 7.042,31.315 L6.849,31.091 L6.617,30.898 C6.531,30.834 6.424,30.76 6.296,30.674 C6.67,30.471 6.982,30.247 7.234,30.001 C7.485,29.755 7.68,29.455 7.819,29.103 C7.958,28.75 8.044,28.328 8.076,27.835 C8.108,27.344 8.092,26.745 8.028,26.04 C8.541,26.071 9.343,26.087 10.433,26.087 C11.502,26.087 12.304,26.071 12.839,26.04 C12.807,26.264 12.772,26.625 12.734,27.122 C12.697,27.619 12.668,28.156 12.647,28.733 C12.636,28.926 12.641,29.079 12.662,29.19 C12.684,29.303 12.75,29.378 12.863,29.415 C12.975,29.453 13.151,29.461 13.392,29.439 C13.632,29.418 13.967,29.37 14.394,29.295 L14.394,29.295 Z M13.336,37.842 C13.122,37.522 12.82,37.134 12.43,36.68 C12.04,36.226 11.636,35.795 11.219,35.389 L12.037,34.523 C12.197,34.683 12.376,34.859 12.574,35.052 C12.772,35.245 12.972,35.437 13.175,35.629 C13.378,35.822 13.577,36.006 13.769,36.183 C13.961,36.359 14.132,36.511 14.282,36.64 L13.336,37.842 L13.336,37.842 Z M16.64,27.643 C16.544,27.697 16.495,27.852 16.495,28.108 L16.495,34.555 C16.495,34.876 16.5,35.205 16.511,35.541 C16.522,35.878 16.544,36.244 16.575,36.64 L15.148,36.64 C15.169,36.233 15.185,35.865 15.196,35.533 C15.207,35.202 15.212,34.876 15.212,34.555 L15.212,29.023 C15.212,28.616 15.207,28.269 15.196,27.98 C15.185,27.691 15.169,27.429 15.148,27.194 C15.394,27.248 15.621,27.282 15.83,27.298 C16.038,27.315 16.281,27.322 16.559,27.322 C16.698,27.322 16.776,27.357 16.792,27.427 C16.808,27.496 16.757,27.568 16.64,27.643 L16.64,27.643 Z M19.606,25.767 L19.47,25.951 C19.454,26.01 19.446,26.109 19.446,26.248 L19.446,38.147 C19.446,38.436 19.424,38.673 19.382,38.861 C19.339,39.048 19.23,39.206 19.053,39.334 C18.877,39.462 18.614,39.569 18.267,39.655 C17.919,39.74 17.447,39.82 16.848,39.895 C16.848,39.585 16.818,39.31 16.76,39.069 C16.701,38.829 16.586,38.548 16.415,38.228 C16.789,38.281 17.086,38.308 17.305,38.308 C17.524,38.308 17.692,38.286 17.81,38.243 C17.928,38.201 18.005,38.137 18.043,38.051 C18.08,37.965 18.099,37.853 18.099,37.714 L18.099,28.044 C18.099,27.392 18.093,26.833 18.082,26.368 C18.072,25.903 18.051,25.553 18.019,25.318 C18.232,25.361 18.468,25.39 18.724,25.406 C18.981,25.422 19.232,25.419 19.478,25.398 C19.638,25.387 19.729,25.425 19.75,25.51 C19.772,25.596 19.724,25.681 19.606,25.767 L19.606,25.767 Z" id="Fill-8" fill="#FFFFFF" sketch:type="MSShapeGroup"></path>
                <path d="M28.49,27.9 C27.935,27.953 27.386,27.999 26.847,28.036 C26.307,28.074 25.804,28.106 25.339,28.132 C24.874,28.159 24.457,28.18 24.088,28.196 C23.72,28.212 23.423,28.22 23.198,28.22 C23.145,27.942 23.081,27.707 23.006,27.515 C22.931,27.322 22.824,27.114 22.685,26.889 C22.877,26.921 23.177,26.938 23.583,26.938 C23.989,26.938 24.465,26.93 25.011,26.914 C25.556,26.898 26.149,26.874 26.79,26.841 C27.432,26.809 28.084,26.767 28.747,26.713 C29.143,26.681 29.57,26.636 30.03,26.577 C30.49,26.518 30.949,26.448 31.409,26.368 C31.869,26.288 32.312,26.203 32.74,26.112 C33.168,26.021 33.558,25.927 33.911,25.831 C33.975,26.023 34.068,26.234 34.191,26.464 C34.315,26.694 34.488,26.97 34.713,27.29 C34.862,27.494 34.798,27.568 34.521,27.515 C34.338,27.483 34.157,27.464 33.975,27.459 C33.793,27.454 33.542,27.459 33.221,27.475 C32.9,27.491 32.476,27.523 31.946,27.571 C31.417,27.619 30.725,27.686 29.87,27.772 L29.87,30.065 C30.821,30.054 31.631,30.038 32.299,30.017 C32.967,29.995 33.553,29.958 34.055,29.904 L34.055,31.268 C33.574,31.225 32.991,31.195 32.307,31.179 C31.623,31.163 30.81,31.161 29.87,31.171 L29.87,33.288 C30.479,33.277 31.081,33.264 31.674,33.248 C32.267,33.232 32.831,33.216 33.366,33.2 C33.9,33.184 34.392,33.165 34.841,33.144 C35.29,33.123 35.68,33.101 36.012,33.08 L36.012,34.475 C35.68,34.454 35.287,34.435 34.833,34.419 C34.378,34.402 33.884,34.389 33.35,34.378 C32.815,34.368 32.253,34.362 31.665,34.362 L29.87,34.362 L29.87,38.532 C29.87,38.735 29.84,38.906 29.781,39.045 C29.723,39.184 29.586,39.304 29.373,39.406 C29.159,39.507 28.849,39.593 28.442,39.663 C28.036,39.732 27.48,39.793 26.774,39.847 C26.678,39.27 26.454,38.714 26.101,38.179 C26.603,38.243 27.012,38.283 27.328,38.299 C27.643,38.315 27.886,38.297 28.058,38.243 C28.228,38.19 28.343,38.097 28.402,37.963 C28.461,37.829 28.49,37.645 28.49,37.41 L28.49,34.362 C27.795,34.373 27.111,34.384 26.438,34.395 C25.764,34.405 25.131,34.419 24.538,34.435 C23.944,34.451 23.409,34.469 22.934,34.491 C22.458,34.512 22.07,34.534 21.771,34.555 L21.771,33.176 C22.07,33.197 22.46,33.219 22.942,33.24 C23.423,33.261 23.96,33.275 24.554,33.28 C25.147,33.286 25.777,33.291 26.446,33.296 C27.114,33.302 27.795,33.299 28.49,33.288 L28.49,31.155 C27.464,31.155 26.544,31.163 25.732,31.179 C24.919,31.195 24.278,31.225 23.808,31.268 L23.808,29.936 C24.299,29.99 24.944,30.027 25.74,30.049 C26.537,30.07 27.453,30.075 28.49,30.065 L28.49,27.9" id="Fill-9" fill="#FFFFFF" sketch:type="MSShapeGroup"></path>
                <path d="M44.832,32.967 C45.9,32.914 46.887,32.863 47.791,32.815 C48.693,32.767 49.461,32.716 50.092,32.663 L50.156,33.834 C49.514,33.801 48.736,33.79 47.822,33.801 C46.908,33.812 45.912,33.839 44.832,33.881 L44.832,35.389 C46.243,35.346 47.457,35.295 48.473,35.236 C49.488,35.178 50.375,35.106 51.135,35.02 L51.199,36.255 C50.418,36.233 49.514,36.231 48.488,36.247 C47.462,36.263 46.243,36.298 44.832,36.351 L44.832,37.538 C44.832,37.752 44.848,37.918 44.88,38.035 C44.912,38.153 45,38.241 45.144,38.299 C45.289,38.358 45.511,38.395 45.81,38.412 C46.109,38.428 46.526,38.436 47.06,38.436 C47.724,38.436 48.253,38.42 48.648,38.388 C49.043,38.356 49.357,38.281 49.586,38.163 C49.816,38.045 49.988,37.872 50.1,37.642 C50.213,37.412 50.322,37.105 50.428,36.72 C50.6,36.912 50.797,37.086 51.022,37.241 C51.246,37.396 51.471,37.522 51.695,37.618 C51.535,38.045 51.371,38.385 51.207,38.636 C51.041,38.887 50.805,39.077 50.5,39.206 C50.195,39.334 49.775,39.417 49.242,39.454 C48.707,39.491 47.991,39.51 47.093,39.51 C46.217,39.51 45.537,39.5 45.057,39.478 C44.575,39.457 44.22,39.395 43.99,39.294 C43.76,39.192 43.623,39.037 43.581,38.829 C43.538,38.62 43.517,38.329 43.517,37.955 L43.517,36.399 C42.352,36.453 41.32,36.509 40.422,36.567 C39.523,36.626 38.738,36.688 38.065,36.752 L38,35.517 C38.705,35.539 39.505,35.541 40.397,35.525 C41.29,35.509 42.33,35.485 43.517,35.453 L43.517,33.93 C42.469,33.972 41.574,34.018 40.83,34.066 C40.088,34.114 39.412,34.165 38.802,34.218 L38.738,33.064 C39.048,33.074 39.363,33.083 39.684,33.087 C40.005,33.093 40.352,33.093 40.727,33.087 C41.101,33.083 41.515,33.074 41.969,33.064 C42.424,33.053 42.94,33.037 43.517,33.016 L43.517,31.732 C42.641,31.786 41.865,31.829 41.191,31.861 C40.518,31.893 39.945,31.919 39.476,31.941 C39.422,31.759 39.345,31.554 39.243,31.324 C39.141,31.094 39.048,30.904 38.963,30.754 C39.465,30.786 40.17,30.802 41.079,30.802 C41.988,30.802 43.078,30.765 44.351,30.69 C44.82,30.658 45.297,30.615 45.777,30.562 C46.26,30.508 46.717,30.447 47.148,30.377 C47.582,30.308 47.982,30.236 48.352,30.161 C48.721,30.086 49.033,30.017 49.289,29.952 C49.397,30.177 49.52,30.385 49.658,30.578 C49.797,30.77 49.941,30.931 50.092,31.059 C50.188,31.145 50.225,31.222 50.203,31.292 C50.182,31.361 50.113,31.385 49.996,31.364 C49.889,31.353 49.738,31.348 49.547,31.348 C49.353,31.348 49.068,31.358 48.689,31.38 C48.309,31.401 47.812,31.433 47.197,31.476 C46.582,31.519 45.794,31.572 44.832,31.636 L44.832,32.967 L44.832,32.967 Z M40.727,27.932 C40.385,28.435 40.103,28.816 39.885,29.079 C39.665,29.34 39.454,29.567 39.251,29.76 C39.102,29.61 38.935,29.485 38.754,29.383 C38.572,29.282 38.406,29.204 38.257,29.15 C38.908,28.573 39.459,27.942 39.908,27.258 C40.357,26.574 40.694,25.863 40.919,25.126 C41.176,25.243 41.448,25.35 41.736,25.446 C42.025,25.543 42.293,25.606 42.539,25.639 C42.656,25.66 42.709,25.706 42.699,25.775 C42.688,25.844 42.624,25.906 42.506,25.96 C42.336,26.034 42.158,26.152 41.977,26.312 C41.795,26.472 41.592,26.697 41.367,26.985 L42.827,26.985 C43.34,26.985 43.8,26.978 44.207,26.961 C44.612,26.945 44.906,26.927 45.088,26.905 L45.088,28.012 C44.906,27.991 44.629,27.972 44.254,27.956 C43.88,27.94 43.453,27.932 42.972,27.932 C43.196,28.723 43.404,29.322 43.598,29.728 L42.281,29.968 C42.25,29.755 42.196,29.485 42.121,29.159 C42.047,28.833 41.935,28.424 41.785,27.932 L40.727,27.932 L40.727,27.932 Z M47.301,27.9 C47.013,28.392 46.767,28.803 46.565,29.134 C46.36,29.466 46.19,29.739 46.051,29.952 C45.869,29.803 45.688,29.69 45.506,29.616 C45.323,29.541 45.109,29.482 44.863,29.439 C45.066,29.257 45.289,28.998 45.529,28.662 C45.77,28.325 46,27.956 46.219,27.555 C46.438,27.154 46.639,26.743 46.82,26.32 C47.002,25.898 47.136,25.5 47.221,25.126 C47.478,25.211 47.764,25.291 48.079,25.366 C48.395,25.441 48.664,25.494 48.889,25.526 C49.006,25.548 49.068,25.58 49.074,25.623 C49.078,25.666 49.023,25.713 48.905,25.767 C48.787,25.831 48.635,25.967 48.448,26.176 C48.261,26.384 48.066,26.644 47.863,26.954 L49.723,26.954 C50.236,26.954 50.674,26.945 51.037,26.93 C51.4,26.914 51.674,26.895 51.855,26.874 L51.855,27.98 C51.674,27.958 51.381,27.94 50.975,27.924 C50.568,27.908 50.065,27.9 49.467,27.9 C49.584,28.274 49.68,28.579 49.756,28.814 C49.83,29.049 49.91,29.273 49.996,29.487 L48.648,29.696 C48.627,29.482 48.592,29.247 48.545,28.99 C48.496,28.733 48.413,28.37 48.296,27.9 L47.301,27.9 L47.301,27.9 Z" id="Fill-10" fill="#FFFFFF" sketch:type="MSShapeGroup"></path>
                <path d="M57.052,38.628 C56.987,38.682 56.915,38.754 56.835,38.845 C56.755,38.935 56.669,39.032 56.578,39.133 C56.487,39.235 56.402,39.334 56.322,39.43 C56.242,39.526 56.181,39.612 56.138,39.686 C55.998,39.473 55.846,39.262 55.681,39.053 C55.515,38.845 55.33,38.639 55.127,38.436 C55.341,38.254 55.518,38.008 55.656,37.698 C55.795,37.388 55.865,37.014 55.865,36.576 L55.865,31.252 C55.288,31.252 54.825,31.268 54.478,31.299 C54.13,31.331 53.828,31.38 53.571,31.444 L53.571,29.92 C53.817,29.952 54.09,29.974 54.39,29.984 C54.689,29.995 55.036,30.001 55.432,30.001 C55.806,30.001 56.146,29.993 56.45,29.977 C56.755,29.96 57.03,29.942 57.276,29.92 C57.233,30.167 57.201,30.465 57.18,30.818 C57.158,31.171 57.147,31.535 57.147,31.909 L57.147,36.688 C57.501,36.41 57.838,36.129 58.158,35.846 C58.478,35.563 58.746,35.309 58.96,35.084 C59.014,35.33 59.088,35.592 59.185,35.87 C59.281,36.148 59.371,36.362 59.457,36.511 L57.052,38.628 L57.052,38.628 Z M56.57,28.637 C56.421,28.199 56.212,27.737 55.945,27.25 C55.678,26.764 55.389,26.317 55.079,25.911 L56.41,25.206 C56.678,25.612 56.953,26.05 57.236,26.521 C57.519,26.991 57.768,27.419 57.981,27.803 L56.57,28.637 L56.57,28.637 Z M65.631,27.579 L62.248,27.579 C62.055,27.579 61.839,27.585 61.598,27.595 C61.357,27.606 61.119,27.622 60.885,27.643 C60.649,27.665 60.43,27.689 60.227,27.715 C60.023,27.742 59.863,27.772 59.746,27.803 L59.746,26.04 C60.045,26.125 60.489,26.181 61.077,26.208 C61.665,26.234 62.445,26.248 63.418,26.248 C64.37,26.248 65.126,26.232 65.687,26.2 C66.249,26.168 66.695,26.114 67.026,26.04 C66.994,26.253 66.973,26.472 66.962,26.697 C66.951,26.921 66.946,27.184 66.946,27.483 L66.946,30.498 C66.946,30.958 66.954,31.388 66.971,31.789 C66.986,32.19 67.005,32.614 67.026,33.064 L65.631,33.064 L65.631,32.246 L61.542,32.246 L61.542,36.928 C61.542,37.217 61.561,37.45 61.598,37.626 C61.636,37.802 61.739,37.936 61.911,38.027 C62.082,38.118 62.338,38.177 62.681,38.203 C63.022,38.23 63.498,38.243 64.107,38.243 C64.632,38.243 65.049,38.222 65.358,38.179 C65.669,38.137 65.914,38.038 66.097,37.882 C66.278,37.727 66.42,37.498 66.522,37.193 C66.623,36.888 66.722,36.469 66.818,35.934 C67.064,36.18 67.32,36.383 67.588,36.544 C67.854,36.704 68.106,36.816 68.342,36.88 C68.149,37.479 67.97,37.952 67.805,38.299 C67.639,38.647 67.417,38.906 67.139,39.077 C66.86,39.248 66.486,39.355 66.017,39.398 C65.546,39.44 64.909,39.462 64.107,39.462 C63.21,39.462 62.501,39.446 61.983,39.414 C61.464,39.382 61.074,39.315 60.812,39.213 C60.55,39.112 60.385,38.962 60.315,38.765 C60.245,38.566 60.211,38.302 60.211,37.971 L60.211,32.358 C60.211,31.995 60.205,31.714 60.195,31.516 C60.185,31.318 60.163,31.128 60.131,30.947 C60.248,30.968 60.368,30.984 60.491,30.995 C60.614,31.005 60.762,31.016 60.933,31.027 C61.103,31.038 61.302,31.043 61.526,31.043 L62.359,31.043 L65.631,31.043 L65.631,27.579 L65.631,27.579 Z" id="Fill-11" fill="#FFFFFF" sketch:type="MSShapeGroup"></path>
                <path d="M45.933,18.431 C45.933,19.718 44.89,20.761 43.603,20.761 C42.315,20.761 41.272,19.718 41.272,18.431 C41.272,17.145 42.315,16.101 43.603,16.101 C44.89,16.101 45.933,17.145 45.933,18.431" id="Fill-12" fill="#DEB164" sketch:type="MSShapeGroup"></path>
                <path d="M48.263,6.648 C47.307,6.648 46.35,7.013 45.62,7.743 C44.16,9.203 44.16,11.569 45.62,13.029 C46.35,13.759 47.307,14.124 48.263,14.124 C49.22,14.124 50.176,13.759 50.906,13.029 C52.366,11.569 52.366,9.203 50.906,7.743 C50.176,7.013 49.22,6.648 48.263,6.648" id="Fill-13" fill="#E8C58A" sketch:type="MSShapeGroup"></path>
                <path d="M58.036,0.022 C56.859,0.022 55.683,0.471 54.786,1.368 C52.99,3.164 52.99,6.075 54.786,7.87 C55.683,8.768 56.859,9.217 58.036,9.217 C59.213,9.217 60.39,8.768 61.287,7.87 C63.083,6.075 63.083,3.164 61.287,1.368 C60.39,0.471 59.213,0.022 58.036,0.022" id="Fill-14" fill="#EFD4A6" sketch:type="MSShapeGroup"></path>
                <path d="M17.504,48.249 C17.504,46.961 18.547,45.918 19.834,45.918 C21.121,45.918 22.164,46.961 22.164,48.249 C22.164,49.535 21.121,50.579 19.834,50.579 C18.547,50.579 17.504,49.535 17.504,48.249" id="Fill-15" fill="#DEB164" sketch:type="MSShapeGroup"></path>
                <path d="M15.174,52.556 C14.217,52.556 13.261,52.921 12.531,53.65 C11.07,55.11 11.07,57.477 12.531,58.937 C13.261,59.667 14.217,60.032 15.174,60.032 C16.13,60.032 17.087,59.667 17.816,58.937 C19.276,57.477 19.276,55.11 17.816,53.65 C17.087,52.921 16.13,52.556 15.174,52.556" id="Fill-16" fill="#E8C58A" sketch:type="MSShapeGroup"></path>
                <path d="M5.4,57.462 C4.224,57.462 3.047,57.911 2.148,58.809 C0.353,60.606 0.353,63.516 2.148,65.312 C3.047,66.21 4.224,66.658 5.4,66.658 C6.577,66.658 7.753,66.21 8.651,65.312 C10.447,63.516 10.447,60.606 8.651,58.809 C7.753,57.911 6.577,57.462 5.4,57.462" id="Fill-17" fill="#EFD4A6" sketch:type="MSShapeGroup"></path>
            </g>
        </g>
    </g>
</svg>