<?xml version="1.0" encoding="UTF-8" standalone="no"?>
<svg width="120px" height="120px" viewBox="0 0 120 120" version="1.1" xmlns="http://www.w3.org/2000/svg" xmlns:xlink="http://www.w3.org/1999/xlink" xmlns:sketch="http://www.bohemiancoding.com/sketch/ns">
    <!-- Generator: Sketch 3.3.2 (12043) - http://www.bohemiancoding.com/sketch -->
    <title>Mobile Portrait</title>
    <desc>Created with Sketch.</desc>
    <defs></defs>
    <g id="basic" stroke="none" stroke-width="1" fill="none" fill-rule="evenodd" sketch:type="MSPage">
        <g id="Mobile-Portrait" sketch:type="MSArtboardGroup">
            <g id="Imported-Layers" sketch:type="MSLayerGroup" transform="translate(17.000000, 38.000000)">
                <path d="M17.307,10.873 C11.141,11.994 10.214,12.904 9.068,19.077 C7.944,12.9 7.027,11.986 0.864,10.839 C7.031,9.717 7.953,8.794 9.104,2.63 C10.223,8.798 11.145,9.726 17.307,10.873" id="Fill-1" fill="#DEB164" sketch:type="MSShapeGroup"></path>
                <path d="M19.539,23.502 C19.336,24.015 19.133,24.478 18.93,24.889 C18.727,25.301 18.51,25.689 18.28,26.052 C18.05,26.415 17.796,26.763 17.519,27.094 C17.24,27.425 16.925,27.773 16.572,28.136 C16.465,27.89 16.337,27.682 16.188,27.511 C16.038,27.34 15.845,27.196 15.61,27.078 C16.305,26.618 16.925,26.052 17.47,25.378 C18.016,24.705 18.55,23.844 19.074,22.796 L18.192,22.796 C17.936,22.796 17.695,22.799 17.47,22.804 C17.246,22.81 17.032,22.818 16.829,22.828 C16.626,22.839 16.422,22.85 16.219,22.86 L16.219,21.562 C16.455,21.583 16.685,21.602 16.909,21.617 C17.133,21.633 17.371,21.647 17.623,21.658 C17.873,21.669 18.152,21.679 18.456,21.69 C18.761,21.7 19.117,21.706 19.523,21.706 C19.523,21.364 19.518,21.032 19.507,20.711 C19.496,20.391 19.48,20.166 19.459,20.038 C19.651,20.06 19.889,20.073 20.172,20.078 C20.456,20.084 20.694,20.086 20.886,20.086 C21.036,20.086 21.127,20.116 21.159,20.174 C21.191,20.233 21.132,20.294 20.982,20.358 C20.832,20.423 20.758,20.541 20.758,20.711 L20.758,21.706 C21.132,21.706 21.46,21.7 21.744,21.69 C22.027,21.679 22.287,21.669 22.522,21.658 C22.757,21.647 22.981,21.633 23.195,21.617 C23.409,21.602 23.628,21.583 23.853,21.562 L23.853,22.86 C23.628,22.85 23.409,22.839 23.195,22.828 C22.981,22.818 22.757,22.81 22.522,22.804 C22.287,22.799 22.025,22.796 21.736,22.796 L20.758,22.796 L20.758,27.655 C20.758,27.858 20.766,28.078 20.782,28.312 C20.798,28.548 20.816,28.773 20.838,28.986 L19.443,28.986 C19.507,28.526 19.539,28.083 19.539,27.655 L19.539,23.502 L19.539,23.502 Z M24.078,18.354 C23.981,18.632 23.925,18.87 23.909,19.067 C23.893,19.266 23.917,19.477 23.981,19.701 C23.425,19.744 22.958,19.763 22.578,19.757 C22.198,19.752 21.894,19.714 21.664,19.645 C21.434,19.576 21.271,19.463 21.175,19.308 C21.079,19.153 21.036,18.947 21.046,18.691 L21.111,16.317 L19.01,16.317 C19.01,16.895 18.967,17.4 18.881,17.833 C18.796,18.266 18.668,18.65 18.497,18.987 C18.326,19.324 18.109,19.627 17.847,19.894 C17.585,20.161 17.273,20.418 16.909,20.663 C16.845,20.557 16.783,20.46 16.725,20.375 C16.666,20.289 16.602,20.214 16.532,20.15 C16.462,20.086 16.385,20.022 16.3,19.957 C16.214,19.894 16.107,19.819 15.979,19.733 C16.353,19.53 16.666,19.306 16.917,19.06 C17.168,18.814 17.363,18.514 17.502,18.162 C17.641,17.809 17.727,17.387 17.759,16.895 C17.791,16.403 17.775,15.804 17.711,15.099 C18.224,15.13 19.026,15.147 20.116,15.147 C21.185,15.147 21.987,15.13 22.522,15.099 C22.49,15.323 22.455,15.684 22.418,16.181 C22.38,16.678 22.351,17.215 22.33,17.793 C22.319,17.985 22.324,18.138 22.345,18.25 C22.367,18.362 22.434,18.437 22.546,18.474 C22.658,18.512 22.835,18.52 23.075,18.498 C23.315,18.477 23.65,18.429 24.078,18.354 L24.078,18.354 Z M23.019,26.901 C22.805,26.581 22.503,26.193 22.113,25.739 C21.723,25.285 21.319,24.855 20.902,24.448 L21.72,23.582 C21.88,23.742 22.059,23.919 22.257,24.111 C22.455,24.304 22.655,24.496 22.858,24.689 C23.062,24.881 23.26,25.065 23.452,25.242 C23.645,25.418 23.815,25.57 23.965,25.699 L23.019,26.901 L23.019,26.901 Z M26.323,16.702 C26.227,16.756 26.178,16.911 26.178,17.167 L26.178,23.614 C26.178,23.935 26.184,24.264 26.194,24.6 C26.205,24.937 26.227,25.303 26.258,25.699 L24.831,25.699 C24.853,25.293 24.869,24.924 24.879,24.592 C24.89,24.261 24.896,23.935 24.896,23.614 L24.896,18.082 C24.896,17.675 24.89,17.328 24.879,17.039 C24.869,16.751 24.853,16.488 24.831,16.253 C25.077,16.307 25.304,16.341 25.513,16.357 C25.721,16.374 25.964,16.381 26.242,16.381 C26.381,16.381 26.459,16.417 26.475,16.486 C26.491,16.555 26.44,16.627 26.323,16.702 L26.323,16.702 Z M29.29,14.826 C29.214,14.89 29.169,14.952 29.153,15.01 C29.137,15.069 29.129,15.168 29.129,15.307 L29.129,27.206 C29.129,27.495 29.107,27.732 29.065,27.92 C29.022,28.107 28.913,28.265 28.736,28.393 C28.56,28.521 28.297,28.628 27.95,28.714 C27.603,28.799 27.13,28.879 26.531,28.954 C26.531,28.644 26.502,28.369 26.443,28.128 C26.384,27.888 26.269,27.607 26.098,27.287 C26.472,27.34 26.769,27.367 26.988,27.367 C27.207,27.367 27.376,27.345 27.493,27.302 C27.611,27.26 27.688,27.196 27.726,27.11 C27.763,27.024 27.782,26.912 27.782,26.773 L27.782,17.103 C27.782,16.451 27.776,15.892 27.766,15.427 C27.755,14.962 27.734,14.612 27.702,14.377 C27.916,14.42 28.151,14.449 28.407,14.465 C28.664,14.481 28.915,14.479 29.161,14.457 C29.321,14.446 29.412,14.484 29.434,14.569 C29.455,14.655 29.407,14.74 29.29,14.826 L29.29,14.826 Z" id="Fill-2" fill="#FFFFFF" sketch:type="MSShapeGroup"></path>
                <path d="M38.173,16.959 C37.618,17.012 37.069,17.058 36.53,17.095 C35.99,17.133 35.487,17.165 35.023,17.191 C34.557,17.218 34.14,17.239 33.771,17.255 C33.403,17.272 33.106,17.279 32.881,17.279 C32.828,17.002 32.764,16.766 32.689,16.574 C32.614,16.381 32.507,16.173 32.368,15.948 C32.561,15.981 32.86,15.997 33.266,15.997 C33.672,15.997 34.148,15.989 34.694,15.973 C35.239,15.957 35.832,15.933 36.474,15.9 C37.115,15.868 37.767,15.826 38.43,15.772 C38.826,15.74 39.253,15.695 39.713,15.636 C40.173,15.577 40.632,15.507 41.092,15.427 C41.552,15.347 41.996,15.262 42.423,15.171 C42.851,15.08 43.241,14.986 43.594,14.89 C43.658,15.083 43.752,15.294 43.875,15.523 C43.998,15.753 44.171,16.029 44.396,16.349 C44.545,16.553 44.481,16.627 44.204,16.574 C44.022,16.542 43.84,16.523 43.658,16.518 C43.476,16.513 43.225,16.518 42.904,16.534 C42.584,16.55 42.159,16.582 41.629,16.63 C41.1,16.678 40.408,16.745 39.553,16.831 L39.553,19.124 C40.504,19.113 41.314,19.097 41.982,19.076 C42.65,19.054 43.236,19.017 43.738,18.963 L43.738,20.327 C43.257,20.284 42.674,20.254 41.99,20.238 C41.306,20.222 40.493,20.22 39.553,20.231 L39.553,22.347 C40.162,22.336 40.764,22.323 41.357,22.307 C41.95,22.291 42.514,22.275 43.049,22.259 C43.583,22.243 44.075,22.224 44.524,22.203 C44.973,22.182 45.363,22.16 45.695,22.139 L45.695,23.534 C45.363,23.513 44.97,23.494 44.516,23.477 C44.062,23.461 43.567,23.448 43.033,23.437 C42.498,23.427 41.937,23.421 41.349,23.421 L39.553,23.421 L39.553,27.591 C39.553,27.794 39.523,27.965 39.464,28.105 C39.406,28.243 39.27,28.363 39.056,28.465 C38.842,28.566 38.532,28.652 38.126,28.722 C37.719,28.791 37.163,28.852 36.458,28.906 C36.361,28.329 36.137,27.773 35.784,27.238 C36.287,27.302 36.695,27.342 37.011,27.358 C37.326,27.375 37.569,27.356 37.741,27.302 C37.912,27.249 38.026,27.156 38.085,27.022 C38.144,26.888 38.173,26.704 38.173,26.469 L38.173,23.421 C37.479,23.432 36.794,23.443 36.121,23.454 C35.447,23.464 34.814,23.477 34.221,23.494 C33.627,23.51 33.092,23.528 32.617,23.55 C32.141,23.571 31.753,23.593 31.454,23.614 L31.454,22.235 C31.753,22.256 32.144,22.278 32.625,22.299 C33.106,22.32 33.643,22.334 34.237,22.339 C34.83,22.345 35.46,22.35 36.129,22.355 C36.797,22.361 37.479,22.358 38.173,22.347 L38.173,20.214 C37.148,20.214 36.228,20.222 35.415,20.238 C34.603,20.254 33.961,20.284 33.491,20.327 L33.491,18.996 C33.982,19.049 34.627,19.086 35.423,19.108 C36.22,19.129 37.136,19.134 38.173,19.124 L38.173,16.959" id="Fill-3" fill="#FFFFFF" sketch:type="MSShapeGroup"></path>
                <path d="M54.515,22.026 C55.584,21.973 56.57,21.922 57.474,21.874 C58.377,21.826 59.144,21.775 59.775,21.722 L59.839,22.893 C59.198,22.86 58.42,22.85 57.506,22.86 C56.592,22.871 55.595,22.898 54.515,22.94 L54.515,24.448 C55.926,24.405 57.14,24.355 58.155,24.295 C59.171,24.237 60.058,24.165 60.817,24.079 L60.881,25.314 C60.101,25.293 59.198,25.29 58.171,25.306 C57.145,25.322 55.926,25.357 54.515,25.41 L54.515,26.597 C54.515,26.811 54.531,26.977 54.563,27.094 C54.595,27.212 54.683,27.3 54.828,27.358 C54.972,27.417 55.194,27.455 55.493,27.471 C55.793,27.487 56.21,27.495 56.744,27.495 C57.407,27.495 57.936,27.479 58.332,27.447 C58.727,27.415 59.04,27.34 59.27,27.222 C59.499,27.105 59.671,26.931 59.783,26.701 C59.895,26.471 60.005,26.164 60.112,25.779 C60.283,25.971 60.481,26.145 60.705,26.3 C60.93,26.455 61.154,26.581 61.378,26.677 C61.218,27.105 61.055,27.444 60.89,27.695 C60.724,27.946 60.489,28.136 60.184,28.265 C59.879,28.393 59.46,28.476 58.925,28.513 C58.39,28.55 57.674,28.569 56.776,28.569 C55.899,28.569 55.221,28.559 54.739,28.537 C54.258,28.516 53.903,28.454 53.673,28.353 C53.443,28.251 53.307,28.096 53.264,27.888 C53.221,27.679 53.2,27.388 53.2,27.014 L53.2,25.458 C52.035,25.512 51.003,25.568 50.105,25.627 C49.207,25.686 48.421,25.747 47.748,25.811 L47.683,24.576 C48.389,24.598 49.188,24.6 50.081,24.584 C50.973,24.568 52.013,24.544 53.2,24.512 L53.2,22.989 C52.152,23.031 51.257,23.077 50.514,23.125 C49.771,23.173 49.095,23.224 48.485,23.277 L48.421,22.123 C48.731,22.133 49.046,22.142 49.367,22.147 C49.688,22.152 50.035,22.152 50.41,22.147 C50.784,22.142 51.198,22.133 51.652,22.123 C52.106,22.112 52.623,22.096 53.2,22.075 L53.2,20.792 C52.323,20.845 51.548,20.888 50.874,20.92 C50.201,20.952 49.629,20.978 49.159,21 C49.105,20.818 49.028,20.613 48.926,20.383 C48.824,20.153 48.731,19.963 48.646,19.814 C49.148,19.845 49.854,19.861 50.762,19.861 C51.671,19.861 52.761,19.824 54.034,19.749 C54.504,19.717 54.98,19.674 55.461,19.621 C55.942,19.567 56.399,19.506 56.832,19.437 C57.265,19.367 57.666,19.295 58.035,19.22 C58.404,19.145 58.716,19.076 58.973,19.011 C59.08,19.236 59.203,19.444 59.342,19.637 C59.481,19.829 59.625,19.99 59.775,20.118 C59.871,20.204 59.909,20.281 59.887,20.351 C59.866,20.42 59.796,20.444 59.679,20.423 C59.572,20.412 59.422,20.407 59.23,20.407 C59.037,20.407 58.751,20.418 58.372,20.439 C57.992,20.46 57.495,20.492 56.88,20.535 C56.266,20.578 55.477,20.631 54.515,20.695 L54.515,22.026 L54.515,22.026 Z M50.41,16.991 C50.067,17.494 49.787,17.876 49.567,18.138 C49.348,18.399 49.137,18.626 48.934,18.819 C48.784,18.669 48.619,18.544 48.437,18.442 C48.255,18.341 48.089,18.263 47.94,18.21 C48.592,17.632 49.143,17.002 49.592,16.317 C50.041,15.633 50.377,14.922 50.602,14.185 C50.858,14.302 51.131,14.409 51.42,14.505 C51.709,14.602 51.976,14.666 52.222,14.698 C52.339,14.719 52.393,14.765 52.382,14.834 C52.371,14.903 52.307,14.965 52.189,15.019 C52.019,15.093 51.842,15.211 51.66,15.371 C51.479,15.531 51.275,15.756 51.051,16.044 L52.51,16.044 C53.023,16.044 53.483,16.037 53.89,16.02 C54.295,16.004 54.589,15.986 54.772,15.964 L54.772,17.071 C54.589,17.05 54.312,17.031 53.937,17.015 C53.563,16.999 53.136,16.991 52.655,16.991 C52.879,17.782 53.087,18.381 53.28,18.787 L51.965,19.027 C51.933,18.814 51.879,18.544 51.805,18.218 C51.73,17.892 51.618,17.483 51.468,16.991 L50.41,16.991 L50.41,16.991 Z M56.984,16.959 C56.696,17.451 56.45,17.862 56.247,18.193 C56.044,18.525 55.873,18.798 55.734,19.011 C55.552,18.862 55.37,18.75 55.189,18.675 C55.006,18.6 54.793,18.541 54.547,18.498 C54.75,18.316 54.972,18.057 55.212,17.721 C55.453,17.384 55.683,17.015 55.902,16.614 C56.121,16.213 56.322,15.802 56.503,15.379 C56.685,14.957 56.819,14.559 56.904,14.185 C57.161,14.27 57.447,14.35 57.762,14.425 C58.078,14.5 58.348,14.553 58.572,14.585 C58.69,14.607 58.751,14.639 58.757,14.682 C58.762,14.725 58.706,14.773 58.588,14.826 C58.47,14.89 58.318,15.026 58.131,15.235 C57.944,15.443 57.749,15.703 57.546,16.013 L59.406,16.013 C59.919,16.013 60.357,16.004 60.721,15.989 C61.085,15.973 61.357,15.954 61.539,15.933 L61.539,17.039 C61.357,17.018 61.063,16.999 60.657,16.983 C60.251,16.967 59.748,16.959 59.149,16.959 C59.267,17.333 59.363,17.638 59.438,17.873 C59.513,18.108 59.593,18.333 59.679,18.546 L58.332,18.755 C58.31,18.541 58.275,18.306 58.228,18.049 C58.179,17.793 58.096,17.429 57.979,16.959 L56.984,16.959 L56.984,16.959 Z" id="Fill-4" fill="#FFFFFF" sketch:type="MSShapeGroup"></path>
                <path d="M66.735,27.688 C66.67,27.741 66.599,27.813 66.518,27.904 C66.438,27.995 66.352,28.091 66.262,28.192 C66.171,28.294 66.085,28.393 66.005,28.489 C65.925,28.585 65.863,28.671 65.821,28.746 C65.682,28.532 65.529,28.321 65.364,28.112 C65.198,27.904 65.013,27.698 64.811,27.495 C65.024,27.313 65.201,27.067 65.339,26.757 C65.479,26.447 65.548,26.073 65.548,25.635 L65.548,20.31 C64.971,20.31 64.508,20.327 64.161,20.358 C63.814,20.391 63.511,20.439 63.255,20.503 L63.255,18.98 C63.501,19.011 63.773,19.033 64.073,19.044 C64.372,19.054 64.719,19.06 65.115,19.06 C65.489,19.06 65.829,19.052 66.133,19.036 C66.438,19.02 66.713,19.001 66.96,18.98 C66.917,19.226 66.884,19.524 66.863,19.877 C66.841,20.231 66.831,20.594 66.831,20.968 L66.831,25.747 C67.184,25.469 67.521,25.189 67.841,24.905 C68.162,24.622 68.429,24.368 68.643,24.143 C68.696,24.389 68.771,24.651 68.868,24.929 C68.964,25.207 69.055,25.421 69.14,25.57 L66.735,27.688 L66.735,27.688 Z M66.254,17.696 C66.104,17.258 65.896,16.796 65.628,16.309 C65.361,15.823 65.072,15.377 64.762,14.97 L66.093,14.265 C66.36,14.671 66.636,15.109 66.919,15.58 C67.202,16.05 67.451,16.477 67.665,16.862 L66.254,17.696 L66.254,17.696 Z M75.315,16.638 L71.931,16.638 C71.738,16.638 71.522,16.644 71.281,16.654 C71.041,16.665 70.803,16.681 70.567,16.702 C70.332,16.724 70.113,16.748 69.91,16.774 C69.707,16.801 69.546,16.831 69.429,16.862 L69.429,15.099 C69.728,15.184 70.172,15.24 70.76,15.267 C71.348,15.294 72.128,15.307 73.102,15.307 C74.053,15.307 74.809,15.291 75.371,15.259 C75.932,15.227 76.378,15.173 76.71,15.099 C76.678,15.313 76.656,15.531 76.645,15.756 C76.635,15.981 76.629,16.243 76.629,16.542 L76.629,19.557 C76.629,20.017 76.637,20.447 76.653,20.848 C76.669,21.249 76.688,21.673 76.71,22.123 L75.315,22.123 L75.315,21.305 L71.225,21.305 L71.225,25.987 C71.225,26.276 71.244,26.509 71.281,26.685 C71.318,26.861 71.423,26.995 71.594,27.086 C71.765,27.177 72.022,27.236 72.364,27.262 C72.706,27.289 73.182,27.302 73.791,27.302 C74.314,27.302 74.731,27.281 75.042,27.238 C75.352,27.196 75.598,27.097 75.779,26.941 C75.961,26.787 76.102,26.557 76.205,26.252 C76.306,25.947 76.405,25.528 76.501,24.993 C76.747,25.239 77.003,25.442 77.271,25.603 C77.538,25.763 77.79,25.875 78.024,25.94 C77.832,26.538 77.653,27.011 77.487,27.358 C77.321,27.706 77.1,27.965 76.822,28.136 C76.544,28.307 76.169,28.414 75.699,28.457 C75.229,28.5 74.593,28.521 73.791,28.521 C72.893,28.521 72.185,28.505 71.666,28.473 C71.148,28.441 70.757,28.374 70.496,28.273 C70.233,28.171 70.068,28.022 69.998,27.824 C69.929,27.626 69.894,27.361 69.894,27.03 L69.894,21.417 C69.894,21.054 69.889,20.773 69.878,20.575 C69.867,20.377 69.846,20.188 69.814,20.006 C69.931,20.027 70.052,20.044 70.175,20.054 C70.297,20.065 70.444,20.075 70.616,20.086 C70.787,20.097 70.984,20.102 71.209,20.102 L72.043,20.102 L75.315,20.102 L75.315,16.638 L75.315,16.638 Z" id="Fill-5" fill="#FFFFFF" sketch:type="MSShapeGroup"></path>
                <path d="M16.254,38.366 L16.254,34.985 L15.671,34.985 L15.671,34.472 L16.254,34.472 L16.254,34.058 C16.254,33.796 16.277,33.602 16.323,33.475 C16.387,33.303 16.499,33.165 16.659,33.058 C16.819,32.952 17.044,32.898 17.332,32.898 C17.518,32.898 17.723,32.921 17.948,32.965 L17.849,33.54 C17.712,33.516 17.583,33.504 17.46,33.504 C17.26,33.504 17.118,33.546 17.035,33.632 C16.952,33.718 16.91,33.878 16.91,34.112 L16.91,34.472 L17.669,34.472 L17.669,34.985 L16.91,34.985 L16.91,38.366 L16.254,38.366" id="Fill-6" fill="#FFFFFF" sketch:type="MSShapeGroup"></path>
                <path d="M18.175,38.366 L18.175,34.472 L18.769,34.472 L18.769,35.062 C18.921,34.786 19.061,34.604 19.189,34.516 C19.317,34.428 19.459,34.384 19.613,34.384 C19.835,34.384 20.061,34.455 20.291,34.597 L20.064,35.209 C19.902,35.114 19.741,35.066 19.58,35.066 C19.436,35.066 19.306,35.109 19.191,35.196 C19.076,35.283 18.994,35.403 18.945,35.557 C18.872,35.792 18.835,36.049 18.835,36.327 L18.835,38.366 L18.175,38.366" id="Fill-7" fill="#FFFFFF" sketch:type="MSShapeGroup"></path>
                <path d="M20.438,36.419 C20.438,35.698 20.638,35.164 21.039,34.816 C21.374,34.528 21.782,34.384 22.264,34.384 C22.799,34.384 23.237,34.559 23.577,34.91 C23.917,35.261 24.086,35.746 24.086,36.364 C24.086,36.865 24.011,37.259 23.861,37.546 C23.71,37.834 23.492,38.057 23.205,38.216 C22.918,38.375 22.604,38.454 22.264,38.454 C21.719,38.454 21.278,38.279 20.942,37.93 C20.606,37.58 20.438,37.077 20.438,36.419 L20.438,36.419 Z M21.116,36.419 C21.116,36.918 21.225,37.291 21.442,37.539 C21.66,37.788 21.934,37.912 22.264,37.912 C22.592,37.912 22.864,37.787 23.082,37.538 C23.299,37.288 23.408,36.908 23.408,36.397 C23.408,35.916 23.299,35.551 23.08,35.302 C22.861,35.054 22.589,34.93 22.264,34.93 C21.934,34.93 21.66,35.054 21.442,35.301 C21.225,35.547 21.116,35.92 21.116,36.419 L21.116,36.419 Z" id="Fill-8" fill="#FFFFFF" sketch:type="MSShapeGroup"></path>
                <path d="M24.86,38.366 L24.86,34.472 L25.451,34.472 L25.451,35.018 C25.573,34.828 25.735,34.674 25.939,34.558 C26.141,34.442 26.372,34.384 26.631,34.384 C26.92,34.384 27.156,34.444 27.341,34.564 C27.525,34.683 27.656,34.851 27.731,35.066 C28.04,34.611 28.44,34.384 28.935,34.384 C29.321,34.384 29.618,34.491 29.826,34.705 C30.033,34.919 30.137,35.248 30.137,35.693 L30.137,38.366 L29.481,38.366 L29.481,35.913 C29.481,35.649 29.46,35.459 29.416,35.343 C29.374,35.227 29.296,35.133 29.184,35.062 C29.071,34.991 28.939,34.956 28.788,34.956 C28.514,34.956 28.287,35.047 28.106,35.229 C27.925,35.411 27.835,35.703 27.835,36.104 L27.835,38.366 L27.174,38.366 L27.174,35.836 C27.174,35.543 27.121,35.323 27.013,35.176 C26.905,35.029 26.729,34.956 26.485,34.956 C26.299,34.956 26.127,35.005 25.97,35.103 C25.812,35.2 25.698,35.343 25.627,35.532 C25.556,35.72 25.521,35.991 25.521,36.346 L25.521,38.366 L24.86,38.366" id="Fill-9" fill="#FFFFFF" sketch:type="MSShapeGroup"></path>
                <path d="M35.058,36.616 C34.963,36.856 34.868,37.073 34.773,37.266 C34.678,37.459 34.576,37.64 34.469,37.81 C34.361,37.981 34.242,38.144 34.112,38.299 C33.981,38.454 33.834,38.617 33.669,38.787 C33.619,38.671 33.559,38.574 33.489,38.494 C33.419,38.414 33.328,38.346 33.218,38.291 C33.544,38.076 33.834,37.81 34.089,37.495 C34.345,37.18 34.595,36.777 34.84,36.286 L34.427,36.286 C34.307,36.286 34.194,36.287 34.089,36.29 C33.984,36.293 33.884,36.296 33.789,36.301 C33.694,36.306 33.599,36.311 33.503,36.316 L33.503,35.707 C33.614,35.718 33.721,35.727 33.827,35.734 C33.932,35.741 34.043,35.748 34.161,35.753 C34.278,35.758 34.409,35.763 34.551,35.768 C34.694,35.773 34.86,35.775 35.051,35.775 C35.051,35.615 35.048,35.46 35.043,35.31 C35.038,35.159 35.031,35.054 35.021,34.994 C35.111,35.004 35.222,35.01 35.355,35.013 C35.487,35.016 35.599,35.017 35.689,35.017 C35.759,35.017 35.802,35.031 35.817,35.058 C35.832,35.085 35.804,35.114 35.734,35.145 C35.664,35.174 35.629,35.229 35.629,35.31 L35.629,35.775 C35.804,35.775 35.958,35.773 36.091,35.768 C36.224,35.763 36.345,35.758 36.455,35.753 C36.565,35.748 36.67,35.741 36.771,35.734 C36.871,35.727 36.973,35.718 37.079,35.707 L37.079,36.316 C36.973,36.311 36.871,36.306 36.771,36.301 C36.67,36.296 36.565,36.293 36.455,36.29 C36.345,36.287 36.222,36.286 36.087,36.286 L35.629,36.286 L35.629,38.562 C35.629,38.657 35.633,38.759 35.64,38.87 C35.648,38.979 35.656,39.085 35.667,39.185 L35.013,39.185 C35.043,38.969 35.058,38.762 35.058,38.562 L35.058,36.616 L35.058,36.616 Z M37.184,34.206 C37.139,34.336 37.112,34.447 37.105,34.54 C37.097,34.632 37.108,34.731 37.139,34.836 C36.878,34.856 36.659,34.865 36.481,34.863 C36.304,34.86 36.161,34.843 36.053,34.81 C35.945,34.778 35.869,34.725 35.824,34.652 C35.779,34.58 35.759,34.483 35.764,34.363 L35.794,33.252 L34.811,33.252 C34.811,33.522 34.79,33.759 34.751,33.961 C34.71,34.165 34.65,34.345 34.57,34.502 C34.49,34.66 34.389,34.801 34.266,34.927 C34.143,35.052 33.997,35.172 33.827,35.287 C33.796,35.237 33.768,35.192 33.74,35.152 C33.712,35.112 33.683,35.077 33.65,35.047 C33.617,35.017 33.581,34.987 33.541,34.957 C33.501,34.927 33.451,34.892 33.391,34.852 C33.566,34.756 33.712,34.651 33.83,34.536 C33.948,34.421 34.039,34.281 34.105,34.116 C34.169,33.95 34.21,33.752 34.225,33.522 C34.24,33.292 34.232,33.012 34.202,32.681 C34.442,32.696 34.818,32.704 35.329,32.704 C35.829,32.704 36.205,32.696 36.455,32.681 C36.44,32.786 36.424,32.955 36.406,33.188 C36.389,33.421 36.375,33.672 36.365,33.943 C36.36,34.033 36.362,34.104 36.373,34.157 C36.382,34.21 36.414,34.245 36.466,34.262 C36.519,34.28 36.602,34.283 36.714,34.273 C36.827,34.263 36.983,34.241 37.184,34.206 L37.184,34.206 Z M36.688,38.209 C36.588,38.058 36.446,37.877 36.264,37.664 C36.081,37.451 35.892,37.25 35.696,37.06 L36.08,36.654 C36.155,36.729 36.238,36.811 36.331,36.902 C36.424,36.992 36.518,37.082 36.613,37.172 C36.708,37.262 36.8,37.349 36.891,37.431 C36.981,37.514 37.061,37.585 37.131,37.645 L36.688,38.209 L36.688,38.209 Z M38.235,33.432 C38.19,33.457 38.168,33.53 38.168,33.65 L38.168,36.669 C38.168,36.819 38.17,36.973 38.175,37.131 C38.18,37.289 38.19,37.46 38.205,37.645 L37.537,37.645 C37.546,37.455 37.554,37.282 37.559,37.127 C37.564,36.972 37.566,36.819 37.566,36.669 L37.566,34.078 C37.566,33.888 37.564,33.725 37.559,33.59 C37.554,33.455 37.546,33.332 37.537,33.222 C37.652,33.247 37.758,33.263 37.856,33.271 C37.953,33.278 38.067,33.282 38.197,33.282 C38.262,33.282 38.299,33.298 38.306,33.331 C38.314,33.363 38.29,33.397 38.235,33.432 L38.235,33.432 Z M39.625,32.553 C39.589,32.584 39.568,32.612 39.561,32.64 C39.553,32.668 39.549,32.714 39.549,32.779 L39.549,38.351 C39.549,38.486 39.539,38.598 39.519,38.685 C39.499,38.773 39.448,38.847 39.365,38.907 C39.283,38.967 39.16,39.017 38.997,39.057 C38.835,39.097 38.613,39.135 38.333,39.17 C38.333,39.024 38.319,38.896 38.292,38.783 C38.264,38.67 38.21,38.539 38.13,38.389 C38.305,38.414 38.444,38.426 38.546,38.426 C38.649,38.426 38.728,38.416 38.783,38.397 C38.838,38.376 38.875,38.346 38.892,38.306 C38.91,38.266 38.919,38.213 38.919,38.148 L38.919,33.62 C38.919,33.315 38.916,33.053 38.911,32.835 C38.906,32.617 38.896,32.453 38.881,32.343 C38.981,32.363 39.091,32.377 39.211,32.384 C39.331,32.392 39.449,32.391 39.565,32.381 C39.639,32.376 39.682,32.393 39.692,32.433 C39.702,32.473 39.679,32.513 39.625,32.553 L39.625,32.553 Z" id="Fill-10" fill="#FFFFFF" sketch:type="MSShapeGroup"></path>
                <path d="M43.785,33.552 C43.525,33.577 43.268,33.599 43.015,33.616 C42.762,33.634 42.527,33.649 42.31,33.661 C42.091,33.674 41.897,33.684 41.724,33.691 C41.551,33.699 41.412,33.703 41.307,33.703 C41.282,33.572 41.252,33.462 41.217,33.372 C41.182,33.282 41.131,33.184 41.066,33.079 C41.157,33.094 41.297,33.102 41.487,33.102 C41.677,33.102 41.9,33.098 42.155,33.09 C42.411,33.083 42.689,33.072 42.989,33.057 C43.29,33.042 43.595,33.022 43.905,32.997 C44.09,32.981 44.291,32.96 44.506,32.933 C44.721,32.905 44.937,32.873 45.152,32.835 C45.367,32.797 45.575,32.757 45.775,32.715 C45.976,32.672 46.158,32.628 46.323,32.584 C46.354,32.673 46.398,32.773 46.455,32.88 C46.512,32.988 46.594,33.117 46.699,33.267 C46.769,33.362 46.739,33.397 46.609,33.372 C46.523,33.357 46.439,33.348 46.354,33.346 C46.269,33.343 46.151,33.346 46.001,33.353 C45.85,33.361 45.651,33.376 45.403,33.398 C45.156,33.421 44.832,33.452 44.431,33.492 L44.431,34.566 C44.877,34.561 45.256,34.554 45.569,34.544 C45.881,34.534 46.156,34.516 46.391,34.491 L46.391,35.129 C46.166,35.109 45.893,35.096 45.572,35.088 C45.252,35.081 44.872,35.08 44.431,35.085 L44.431,36.076 C44.716,36.071 44.998,36.065 45.276,36.057 C45.554,36.049 45.818,36.042 46.068,36.034 C46.318,36.027 46.549,36.018 46.759,36.008 C46.969,35.998 47.152,35.988 47.307,35.978 L47.307,36.631 C47.152,36.622 46.968,36.613 46.755,36.605 C46.543,36.598 46.311,36.591 46.061,36.586 C45.81,36.582 45.547,36.579 45.272,36.579 L44.431,36.579 L44.431,38.531 C44.431,38.626 44.417,38.707 44.39,38.772 C44.362,38.837 44.298,38.893 44.198,38.941 C44.098,38.988 43.953,39.028 43.763,39.061 C43.572,39.093 43.312,39.122 42.981,39.148 C42.937,38.877 42.831,38.617 42.666,38.366 C42.901,38.397 43.093,38.415 43.241,38.422 C43.388,38.43 43.502,38.421 43.583,38.397 C43.662,38.371 43.716,38.328 43.744,38.265 C43.771,38.202 43.785,38.116 43.785,38.006 L43.785,36.579 C43.459,36.584 43.139,36.589 42.824,36.594 C42.508,36.599 42.212,36.605 41.934,36.613 C41.656,36.62 41.406,36.629 41.183,36.639 C40.96,36.649 40.778,36.659 40.638,36.669 L40.638,36.023 C40.778,36.033 40.961,36.043 41.187,36.053 C41.412,36.063 41.664,36.069 41.941,36.072 C42.219,36.075 42.515,36.077 42.828,36.08 C43.14,36.082 43.459,36.081 43.785,36.076 L43.785,35.077 C43.304,35.077 42.873,35.081 42.493,35.088 C42.113,35.096 41.813,35.109 41.592,35.129 L41.592,34.506 C41.822,34.531 42.124,34.549 42.497,34.559 C42.87,34.569 43.299,34.571 43.785,34.566 L43.785,33.552" id="Fill-11" fill="#FFFFFF" sketch:type="MSShapeGroup"></path>
                <path d="M49.65,38.577 C49.621,38.602 49.587,38.635 49.549,38.678 C49.512,38.72 49.472,38.766 49.429,38.813 C49.386,38.86 49.347,38.907 49.309,38.952 C49.272,38.997 49.243,39.037 49.223,39.072 C49.157,38.972 49.086,38.873 49.008,38.775 C48.931,38.678 48.844,38.582 48.75,38.486 C48.85,38.401 48.932,38.286 48.997,38.141 C49.062,37.996 49.095,37.821 49.095,37.615 L49.095,35.122 C48.825,35.122 48.608,35.129 48.445,35.145 C48.283,35.159 48.141,35.182 48.021,35.212 L48.021,34.499 C48.136,34.514 48.264,34.523 48.404,34.528 C48.544,34.534 48.707,34.536 48.892,34.536 C49.067,34.536 49.226,34.532 49.369,34.525 C49.512,34.517 49.641,34.509 49.756,34.499 C49.736,34.614 49.721,34.754 49.71,34.919 C49.701,35.085 49.696,35.254 49.696,35.43 L49.696,37.668 C49.861,37.538 50.019,37.406 50.169,37.273 C50.319,37.141 50.444,37.022 50.544,36.917 C50.569,37.032 50.605,37.155 50.649,37.285 C50.694,37.415 50.737,37.515 50.777,37.585 L49.65,38.577 L49.65,38.577 Z M49.425,33.898 C49.355,33.692 49.257,33.476 49.132,33.248 C49.007,33.021 48.872,32.812 48.727,32.621 L49.35,32.291 C49.475,32.481 49.605,32.686 49.737,32.906 C49.87,33.127 49.986,33.327 50.086,33.507 L49.425,33.898 L49.425,33.898 Z M53.669,33.402 L52.084,33.402 C51.994,33.402 51.893,33.405 51.78,33.41 C51.667,33.415 51.556,33.422 51.445,33.432 C51.335,33.442 51.232,33.454 51.138,33.466 C51.042,33.479 50.967,33.492 50.912,33.507 L50.912,32.681 C51.052,32.721 51.26,32.748 51.536,32.76 C51.811,32.773 52.176,32.779 52.632,32.779 C53.078,32.779 53.432,32.771 53.695,32.756 C53.958,32.741 54.167,32.716 54.322,32.681 C54.307,32.781 54.297,32.884 54.292,32.989 C54.287,33.094 54.284,33.217 54.284,33.357 L54.284,34.769 C54.284,34.984 54.288,35.185 54.295,35.374 C54.303,35.561 54.312,35.76 54.322,35.971 L53.669,35.971 L53.669,35.587 L51.753,35.587 L51.753,37.78 C51.753,37.916 51.762,38.024 51.78,38.107 C51.797,38.19 51.846,38.252 51.926,38.295 C52.006,38.337 52.126,38.365 52.287,38.377 C52.447,38.39 52.669,38.397 52.955,38.397 C53.2,38.397 53.395,38.386 53.541,38.366 C53.686,38.346 53.801,38.3 53.886,38.227 C53.971,38.155 54.038,38.047 54.085,37.904 C54.133,37.762 54.179,37.565 54.224,37.315 C54.339,37.43 54.46,37.525 54.585,37.6 C54.71,37.675 54.828,37.728 54.938,37.758 C54.848,38.039 54.764,38.26 54.686,38.422 C54.608,38.585 54.504,38.707 54.375,38.787 C54.244,38.867 54.069,38.917 53.849,38.937 C53.628,38.957 53.331,38.967 52.955,38.967 C52.535,38.967 52.203,38.96 51.96,38.944 C51.717,38.93 51.534,38.898 51.412,38.851 C51.289,38.803 51.211,38.733 51.179,38.64 C51.147,38.548 51.13,38.424 51.13,38.269 L51.13,35.64 C51.13,35.47 51.127,35.338 51.123,35.246 C51.118,35.153 51.107,35.065 51.093,34.979 C51.148,34.989 51.204,34.997 51.262,35.002 C51.319,35.007 51.388,35.012 51.468,35.017 C51.548,35.022 51.641,35.024 51.746,35.024 L52.136,35.024 L53.669,35.024 L53.669,33.402 L53.669,33.402 Z" id="Fill-12" fill="#FFFFFF" sketch:type="MSShapeGroup"></path>
                <path d="M27.77,5.104 C24.176,5.759 23.637,6.288 22.97,9.886 C22.315,6.286 21.779,5.753 18.189,5.085 C21.781,4.431 22.32,3.893 22.99,0.301 C23.643,3.895 24.178,4.436 27.77,5.104" id="Fill-13" fill="#DEB164" sketch:type="MSShapeGroup"></path>
                <path d="M77.828,39.46 C71.671,40.58 70.746,41.487 69.602,47.652 C68.48,41.483 67.564,40.57 61.41,39.426 C67.568,38.305 68.488,37.384 69.637,31.229 C70.754,37.387 71.674,38.315 77.828,39.46" id="Fill-14" fill="#DEB164" sketch:type="MSShapeGroup"></path>
            </g>
        </g>
    </g>
</svg>