<?xml version="1.0" encoding="UTF-8" standalone="no"?>
<svg width="120px" height="120px" viewBox="0 0 120 120" version="1.1" xmlns="http://www.w3.org/2000/svg" xmlns:xlink="http://www.w3.org/1999/xlink" xmlns:sketch="http://www.bohemiancoding.com/sketch/ns">
    <!-- Generator: Sketch 3.3.2 (12043) - http://www.bohemiancoding.com/sketch -->
    <title>Mobile Portrait Copy 8</title>
    <desc>Created with Sketch.</desc>
    <defs></defs>
    <g id="basic" stroke="none" stroke-width="1" fill="none" fill-rule="evenodd" sketch:type="MSPage">
        <g id="Mobile-Portrait-Copy-8" sketch:type="MSArtboardGroup">
            <g id="Imported-Layers" sketch:type="MSLayerGroup" transform="translate(9.000000, 44.000000)">
                <path d="M85.303,0.994 C74.232,4.653 63.38,8.903 52.635,13.433 L73.633,12.769 C77.273,8.607 81.173,4.671 85.303,0.994 M55.718,3.084 C37.042,5.82 18.402,10.713 0.033,15.096 L38.061,13.894 C43.957,10.328 49.989,6.897 55.718,3.084 M94.587,12.106 L73.633,12.769 C70.39,16.474 67.352,20.358 64.538,24.399 C74.553,20.301 84.569,16.204 94.587,12.106 M52.635,13.433 L38.061,13.894 C37.744,14.085 37.427,14.277 37.11,14.47 C32.594,17.219 24.923,20.315 23.724,26.146 C33.325,21.835 42.936,17.521 52.635,13.433" id="Fill-1" fill="#EFD4A6" sketch:type="MSShapeGroup"></path>
                <path d="M22.208,27.023 L22.208,23.643 L21.625,23.643 L21.625,23.129 L22.208,23.129 L22.208,22.715 C22.208,22.453 22.231,22.259 22.278,22.132 C22.342,21.961 22.453,21.821 22.613,21.716 C22.773,21.609 22.998,21.556 23.286,21.556 C23.473,21.556 23.678,21.578 23.902,21.622 L23.804,22.197 C23.667,22.173 23.537,22.161 23.415,22.161 C23.215,22.161 23.072,22.204 22.989,22.289 C22.906,22.375 22.865,22.535 22.865,22.769 L22.865,23.129 L23.624,23.129 L23.624,23.643 L22.865,23.643 L22.865,27.023 L22.208,27.023" id="Fill-2" fill="#FFFFFF" sketch:type="MSShapeGroup"></path>
                <path d="M24.13,27.023 L24.13,23.129 L24.725,23.129 L24.725,23.72 C24.876,23.443 25.016,23.261 25.144,23.173 C25.273,23.085 25.414,23.041 25.567,23.041 C25.79,23.041 26.017,23.112 26.246,23.254 L26.019,23.866 C25.857,23.77 25.696,23.723 25.535,23.723 C25.391,23.723 25.261,23.767 25.147,23.853 C25.031,23.94 24.949,24.06 24.9,24.215 C24.827,24.449 24.79,24.706 24.79,24.984 L24.79,27.023 L24.13,27.023" id="Fill-3" fill="#FFFFFF" sketch:type="MSShapeGroup"></path>
                <path d="M26.393,25.076 C26.393,24.355 26.594,23.821 26.994,23.474 C27.329,23.185 27.737,23.041 28.219,23.041 C28.755,23.041 29.192,23.217 29.532,23.567 C29.872,23.918 30.042,24.402 30.042,25.022 C30.042,25.522 29.967,25.917 29.816,26.204 C29.666,26.491 29.447,26.714 29.16,26.873 C28.872,27.032 28.559,27.111 28.219,27.111 C27.674,27.111 27.233,26.936 26.898,26.587 C26.56,26.237 26.393,25.734 26.393,25.076 L26.393,25.076 Z M27.071,25.076 C27.071,25.575 27.18,25.948 27.397,26.196 C27.615,26.444 27.889,26.568 28.219,26.568 C28.547,26.568 28.819,26.444 29.037,26.194 C29.255,25.945 29.363,25.565 29.363,25.055 C29.363,24.572 29.254,24.208 29.035,23.96 C28.816,23.712 28.544,23.588 28.219,23.588 C27.889,23.588 27.615,23.711 27.397,23.958 C27.18,24.205 27.071,24.577 27.071,25.076 L27.071,25.076 Z" id="Fill-4" fill="#FFFFFF" sketch:type="MSShapeGroup"></path>
                <path d="M30.815,27.023 L30.815,23.129 L31.405,23.129 L31.405,23.676 C31.528,23.484 31.69,23.331 31.894,23.215 C32.097,23.1 32.327,23.041 32.587,23.041 C32.875,23.041 33.111,23.101 33.296,23.221 C33.481,23.341 33.611,23.508 33.687,23.723 C33.995,23.269 34.396,23.041 34.89,23.041 C35.275,23.041 35.572,23.148 35.78,23.362 C35.988,23.576 36.092,23.905 36.092,24.351 L36.092,27.023 L35.436,27.023 L35.436,24.57 C35.436,24.307 35.414,24.116 35.372,24 C35.329,23.884 35.251,23.79 35.139,23.72 C35.026,23.648 34.894,23.613 34.743,23.613 C34.469,23.613 34.241,23.704 34.06,23.887 C33.88,24.068 33.789,24.36 33.789,24.761 L33.789,27.023 L33.129,27.023 L33.129,24.493 C33.129,24.2 33.075,23.979 32.968,23.833 C32.86,23.686 32.685,23.613 32.439,23.613 C32.254,23.613 32.082,23.662 31.925,23.76 C31.767,23.857 31.652,24.001 31.582,24.189 C31.511,24.377 31.476,24.648 31.476,25.003 L31.476,27.023 L30.815,27.023" id="Fill-5" fill="#FFFFFF" sketch:type="MSShapeGroup"></path>
                <path d="M41.013,25.273 C40.918,25.514 40.822,25.73 40.727,25.923 C40.632,26.116 40.531,26.298 40.423,26.468 C40.315,26.638 40.196,26.801 40.066,26.956 C39.937,27.111 39.789,27.273 39.623,27.444 C39.573,27.329 39.514,27.231 39.443,27.151 C39.373,27.071 39.283,27.004 39.173,26.948 C39.498,26.733 39.789,26.468 40.044,26.152 C40.299,25.837 40.55,25.434 40.795,24.943 L40.382,24.943 C40.262,24.943 40.149,24.944 40.044,24.947 C39.938,24.949 39.839,24.953 39.743,24.958 C39.648,24.963 39.554,24.968 39.458,24.974 L39.458,24.365 C39.568,24.375 39.676,24.384 39.781,24.392 C39.887,24.398 39.998,24.405 40.115,24.41 C40.232,24.415 40.363,24.42 40.506,24.425 C40.648,24.43 40.815,24.433 41.005,24.433 C41.005,24.272 41.003,24.117 40.998,23.967 C40.993,23.816 40.985,23.712 40.976,23.651 C41.065,23.661 41.177,23.668 41.31,23.67 C41.442,23.673 41.554,23.674 41.644,23.674 L41.771,23.715 L41.688,23.802 L41.584,23.967 L41.584,24.433 C41.759,24.433 41.913,24.43 42.045,24.425 C42.178,24.42 42.3,24.415 42.409,24.41 C42.519,24.405 42.625,24.398 42.725,24.392 C42.825,24.384 42.928,24.375 43.033,24.365 L43.033,24.974 C42.928,24.968 42.825,24.963 42.725,24.958 C42.625,24.953 42.519,24.949 42.409,24.947 C42.3,24.944 42.177,24.943 42.042,24.943 L41.584,24.943 L41.584,27.219 C41.584,27.314 41.587,27.416 41.595,27.526 C41.603,27.637 41.611,27.742 41.621,27.842 L40.968,27.842 C40.998,27.627 41.013,27.419 41.013,27.219 L41.013,25.273 L41.013,25.273 Z M43.138,22.863 C43.093,22.993 43.066,23.104 43.06,23.197 C43.052,23.29 43.063,23.389 43.093,23.494 C42.833,23.514 42.613,23.522 42.435,23.519 C42.258,23.518 42.115,23.5 42.008,23.468 C41.9,23.435 41.824,23.383 41.778,23.31 C41.733,23.237 41.714,23.141 41.719,23.02 L41.749,21.909 L40.765,21.909 C40.765,22.18 40.745,22.416 40.705,22.619 C40.665,22.821 40.604,23.002 40.524,23.159 C40.444,23.317 40.343,23.459 40.221,23.584 C40.098,23.709 39.951,23.829 39.781,23.944 L39.694,23.81 L39.605,23.704 L39.496,23.614 L39.346,23.509 C39.52,23.414 39.667,23.309 39.785,23.193 C39.902,23.078 39.994,22.937 40.059,22.772 C40.124,22.607 40.164,22.41 40.179,22.18 C40.194,21.949 40.187,21.669 40.156,21.338 C40.396,21.353 40.773,21.36 41.283,21.36 C41.784,21.36 42.159,21.353 42.409,21.338 C42.394,21.443 42.378,21.612 42.36,21.846 C42.343,22.078 42.329,22.33 42.319,22.6 C42.315,22.69 42.317,22.762 42.327,22.815 L42.421,22.919 C42.474,22.936 42.556,22.94 42.669,22.931 C42.781,22.921 42.938,22.897 43.138,22.863 L43.138,22.863 Z M42.643,26.866 C42.542,26.716 42.4,26.534 42.218,26.321 C42.035,26.108 41.847,25.907 41.651,25.717 L42.034,25.311 C42.109,25.387 42.193,25.469 42.286,25.559 C42.378,25.649 42.473,25.739 42.567,25.829 C42.662,25.92 42.755,26.006 42.846,26.089 L43.086,26.303 L42.643,26.866 L42.643,26.866 Z M44.19,22.089 C44.144,22.114 44.122,22.186 44.122,22.307 L44.122,25.326 C44.122,25.477 44.124,25.63 44.13,25.788 C44.135,25.945 44.144,26.117 44.159,26.303 L43.491,26.303 C43.501,26.112 43.509,25.94 43.514,25.784 C43.519,25.629 43.522,25.477 43.522,25.326 L43.522,22.735 C43.522,22.545 43.519,22.382 43.514,22.247 C43.509,22.112 43.501,21.989 43.491,21.879 C43.606,21.904 43.713,21.92 43.81,21.928 C43.908,21.935 44.021,21.94 44.152,21.94 L44.261,21.988 L44.19,22.089 L44.19,22.089 Z M45.579,21.211 L45.515,21.297 L45.504,21.435 L45.504,27.009 C45.504,27.144 45.494,27.255 45.474,27.343 L45.319,27.565 C45.237,27.624 45.114,27.674 44.952,27.715 C44.789,27.754 44.567,27.792 44.287,27.827 C44.287,27.682 44.273,27.553 44.246,27.44 C44.219,27.327 44.164,27.196 44.084,27.046 C44.26,27.071 44.398,27.084 44.501,27.084 C44.603,27.084 44.683,27.073 44.737,27.054 L44.847,26.963 L44.873,26.806 L44.873,22.277 C44.873,21.972 44.87,21.71 44.865,21.492 C44.86,21.274 44.851,21.11 44.835,21 C44.935,21.02 45.046,21.034 45.166,21.042 C45.286,21.049 45.403,21.048 45.519,21.038 L45.646,21.091 L45.579,21.211 L45.579,21.211 Z" id="Fill-6" fill="#FFFFFF" sketch:type="MSShapeGroup"></path>
                <path d="M49.74,22.21 C49.479,22.234 49.223,22.256 48.971,22.273 C48.718,22.291 48.482,22.306 48.265,22.318 C48.047,22.331 47.852,22.341 47.679,22.349 C47.506,22.355 47.367,22.359 47.262,22.359 C47.236,22.229 47.207,22.119 47.172,22.029 C47.137,21.94 47.087,21.842 47.021,21.736 C47.111,21.751 47.252,21.759 47.442,21.759 C47.632,21.759 47.856,21.755 48.11,21.748 C48.366,21.74 48.644,21.728 48.944,21.714 C49.244,21.699 49.55,21.679 49.86,21.653 C50.046,21.639 50.246,21.617 50.461,21.59 C50.677,21.562 50.892,21.53 51.107,21.492 C51.322,21.455 51.53,21.415 51.731,21.372 C51.931,21.33 52.113,21.286 52.278,21.24 C52.309,21.331 52.352,21.43 52.41,21.537 C52.468,21.646 52.549,21.773 52.654,21.924 C52.724,22.019 52.694,22.055 52.563,22.029 L52.309,22.003 C52.224,22 52.106,22.003 51.956,22.011 C51.806,22.018 51.606,22.033 51.358,22.056 C51.11,22.078 50.786,22.109 50.386,22.149 L50.386,23.224 C50.832,23.219 51.211,23.211 51.523,23.201 C51.837,23.19 52.11,23.174 52.346,23.148 L52.346,23.786 C52.121,23.767 51.848,23.753 51.527,23.745 C51.207,23.737 50.826,23.736 50.386,23.741 L50.386,24.732 C50.672,24.728 50.953,24.722 51.231,24.714 C51.509,24.707 51.772,24.699 52.023,24.691 C52.273,24.684 52.504,24.676 52.714,24.665 C52.925,24.655 53.107,24.646 53.263,24.635 L53.263,25.289 C53.107,25.278 52.923,25.27 52.71,25.263 C52.497,25.255 52.266,25.249 52.016,25.243 C51.766,25.238 51.502,25.236 51.227,25.236 L50.386,25.236 L50.386,27.189 C50.386,27.284 50.372,27.364 50.345,27.429 C50.317,27.494 50.253,27.551 50.153,27.598 C50.053,27.646 49.908,27.685 49.718,27.718 C49.527,27.751 49.267,27.779 48.937,27.805 C48.892,27.534 48.786,27.273 48.621,27.023 C48.856,27.054 49.048,27.072 49.195,27.08 C49.344,27.087 49.457,27.078 49.537,27.054 L49.699,26.922 C49.727,26.859 49.74,26.773 49.74,26.663 L49.74,25.236 C49.415,25.241 49.095,25.246 48.779,25.251 C48.464,25.256 48.167,25.263 47.889,25.27 C47.611,25.277 47.36,25.286 47.138,25.296 C46.915,25.307 46.733,25.316 46.594,25.326 L46.594,24.681 C46.733,24.69 46.916,24.7 47.142,24.71 C47.367,24.721 47.618,24.727 47.896,24.729 C48.174,24.731 48.47,24.734 48.782,24.736 C49.096,24.739 49.415,24.738 49.74,24.732 L49.74,23.734 C49.26,23.734 48.829,23.737 48.448,23.745 C48.067,23.753 47.768,23.767 47.547,23.786 L47.547,23.163 C47.777,23.189 48.079,23.206 48.452,23.216 C48.825,23.226 49.255,23.228 49.74,23.224 L49.74,22.21" id="Fill-7" fill="#FFFFFF" sketch:type="MSShapeGroup"></path>
                <path d="M55.606,27.233 L55.504,27.335 L55.384,27.471 L55.264,27.609 L55.177,27.729 C55.112,27.629 55.041,27.53 54.963,27.433 C54.886,27.335 54.799,27.238 54.704,27.144 C54.804,27.059 54.887,26.943 54.952,26.798 C55.017,26.653 55.05,26.477 55.05,26.272 L55.05,23.779 C54.779,23.779 54.562,23.786 54.399,23.802 C54.237,23.816 54.096,23.839 53.976,23.869 L53.976,23.155 C54.091,23.171 54.219,23.181 54.358,23.185 C54.499,23.19 54.661,23.193 54.847,23.193 C55.021,23.193 55.181,23.19 55.323,23.182 C55.466,23.175 55.595,23.166 55.71,23.155 C55.69,23.27 55.675,23.411 55.665,23.576 C55.655,23.741 55.65,23.912 55.65,24.087 L55.65,26.325 C55.815,26.195 55.974,26.064 56.123,25.931 C56.273,25.798 56.398,25.679 56.499,25.574 C56.523,25.69 56.559,25.811 56.604,25.942 C56.649,26.072 56.691,26.172 56.731,26.242 L55.606,27.233 L55.606,27.233 Z M55.38,22.555 C55.31,22.35 55.212,22.133 55.087,21.905 C54.962,21.678 54.826,21.469 54.682,21.278 L55.305,20.948 C55.43,21.138 55.559,21.344 55.691,21.564 C55.824,21.784 55.94,21.984 56.041,22.164 L55.38,22.555 L55.38,22.555 Z M59.623,22.06 L58.038,22.06 C57.948,22.06 57.847,22.061 57.734,22.066 C57.622,22.072 57.51,22.079 57.4,22.089 C57.29,22.1 57.187,22.11 57.092,22.123 C56.997,22.136 56.922,22.149 56.867,22.164 L56.867,21.338 C57.007,21.379 57.215,21.404 57.49,21.417 C57.766,21.43 58.131,21.435 58.587,21.435 C59.032,21.435 59.387,21.429 59.649,21.413 C59.912,21.398 60.121,21.373 60.276,21.338 C60.262,21.438 60.251,21.541 60.246,21.647 C60.241,21.751 60.239,21.874 60.239,22.015 L60.239,23.426 C60.239,23.642 60.242,23.843 60.25,24.03 C60.258,24.219 60.267,24.417 60.276,24.628 L59.623,24.628 L59.623,24.245 L57.708,24.245 L57.708,26.437 C57.708,26.573 57.717,26.682 57.734,26.765 L57.881,26.952 C57.961,26.995 58.081,27.022 58.241,27.035 C58.401,27.047 58.624,27.054 58.909,27.054 C59.155,27.054 59.351,27.043 59.495,27.023 C59.641,27.004 59.756,26.957 59.841,26.885 C59.926,26.811 59.992,26.704 60.04,26.561 C60.088,26.419 60.134,26.223 60.179,25.972 C60.294,26.087 60.414,26.183 60.539,26.258 C60.664,26.332 60.782,26.385 60.893,26.415 C60.802,26.695 60.719,26.917 60.641,27.08 C60.563,27.242 60.459,27.364 60.329,27.444 C60.199,27.524 60.023,27.574 59.804,27.594 C59.583,27.614 59.285,27.624 58.909,27.624 C58.489,27.624 58.157,27.617 57.914,27.602 C57.672,27.587 57.489,27.556 57.366,27.508 C57.243,27.46 57.166,27.391 57.134,27.298 C57.101,27.205 57.085,27.081 57.085,26.926 L57.085,24.297 C57.085,24.127 57.082,23.996 57.077,23.903 C57.072,23.81 57.063,23.722 57.047,23.637 L57.216,23.659 L57.423,23.674 C57.503,23.679 57.596,23.682 57.7,23.682 L58.091,23.682 L59.623,23.682 L59.623,22.06 L59.623,22.06 Z" id="Fill-8" fill="#FFFFFF" sketch:type="MSShapeGroup"></path>
                <path d="M24.413,13.429 C24.21,13.941 24.007,14.404 23.804,14.815 C23.601,15.227 23.384,15.615 23.154,15.978 C22.924,16.342 22.67,16.69 22.393,17.02 C22.114,17.352 21.799,17.699 21.446,18.063 C21.339,17.817 21.211,17.608 21.062,17.437 C20.911,17.267 20.719,17.122 20.484,17.005 C21.179,16.545 21.799,15.978 22.345,15.305 C22.89,14.631 23.424,13.771 23.948,12.723 L23.066,12.723 C22.81,12.723 22.568,12.726 22.345,12.73 C22.12,12.736 21.906,12.744 21.703,12.755 C21.5,12.766 21.297,12.776 21.094,12.787 L21.094,11.488 C21.328,11.51 21.559,11.528 21.783,11.544 C22.008,11.56 22.245,11.574 22.497,11.584 C22.748,11.595 23.025,11.605 23.33,11.616 C23.636,11.627 23.99,11.633 24.397,11.633 C24.397,11.29 24.392,10.959 24.381,10.638 C24.37,10.317 24.354,10.093 24.333,9.965 C24.525,9.986 24.763,9.999 25.047,10.005 C25.33,10.01 25.567,10.013 25.76,10.013 C25.91,10.013 26.001,10.042 26.033,10.101 C26.064,10.16 26.006,10.221 25.856,10.285 C25.706,10.35 25.632,10.467 25.632,10.638 L25.632,11.633 C26.006,11.633 26.335,11.627 26.618,11.616 C26.901,11.605 27.16,11.595 27.396,11.584 C27.631,11.574 27.856,11.56 28.069,11.544 C28.283,11.528 28.502,11.51 28.727,11.488 L28.727,12.787 C28.502,12.776 28.283,12.766 28.069,12.755 C27.856,12.744 27.631,12.736 27.396,12.73 C27.16,12.726 26.898,12.723 26.61,12.723 L25.632,12.723 L25.632,17.582 C25.632,17.785 25.64,18.004 25.656,18.239 C25.672,18.475 25.69,18.699 25.712,18.913 L24.316,18.913 C24.381,18.453 24.413,18.01 24.413,17.582 L24.413,13.429 L24.413,13.429 Z M28.951,8.28 C28.856,8.559 28.799,8.797 28.783,8.994 C28.767,9.192 28.791,9.403 28.856,9.628 C28.299,9.671 27.831,9.69 27.452,9.684 C27.072,9.679 26.768,9.642 26.538,9.571 C26.308,9.502 26.144,9.39 26.049,9.235 C25.952,9.08 25.91,8.874 25.921,8.617 L25.984,6.244 L23.884,6.244 C23.884,6.821 23.841,7.326 23.756,7.76 C23.67,8.192 23.542,8.577 23.371,8.914 C23.199,9.251 22.983,9.553 22.721,9.82 C22.459,10.088 22.147,10.344 21.783,10.59 C21.719,10.483 21.657,10.387 21.599,10.302 L21.406,10.077 L21.174,9.885 C21.088,9.82 20.981,9.745 20.852,9.66 C21.227,9.457 21.54,9.232 21.791,8.986 C22.042,8.74 22.237,8.441 22.376,8.088 C22.516,7.735 22.601,7.314 22.633,6.821 C22.665,6.33 22.649,5.731 22.585,5.025 C23.098,5.058 23.899,5.073 24.99,5.073 C26.06,5.073 26.861,5.058 27.396,5.025 C27.364,5.25 27.329,5.61 27.292,6.107 C27.254,6.604 27.225,7.143 27.203,7.72 C27.192,7.912 27.198,8.065 27.22,8.177 C27.241,8.289 27.308,8.363 27.42,8.401 C27.532,8.439 27.709,8.446 27.949,8.425 C28.19,8.403 28.523,8.356 28.951,8.28 L28.951,8.28 Z M27.893,16.828 C27.679,16.508 27.377,16.12 26.987,15.666 C26.597,15.211 26.193,14.781 25.776,14.375 L26.594,13.509 C26.755,13.669 26.934,13.846 27.131,14.038 C27.329,14.23 27.529,14.423 27.732,14.615 C27.936,14.808 28.134,14.992 28.326,15.169 C28.519,15.345 28.689,15.497 28.839,15.626 L27.893,16.828 L27.893,16.828 Z M31.196,6.629 C31.101,6.683 31.052,6.838 31.052,7.094 L31.052,13.541 C31.052,13.861 31.058,14.19 31.068,14.527 C31.079,14.864 31.101,15.23 31.133,15.626 L29.705,15.626 C29.727,15.22 29.742,14.851 29.753,14.519 C29.764,14.187 29.769,13.861 29.769,13.541 L29.769,8.008 C29.769,7.602 29.764,7.254 29.753,6.966 C29.742,6.677 29.727,6.415 29.705,6.18 C29.951,6.233 30.179,6.269 30.387,6.284 C30.595,6.3 30.838,6.309 31.116,6.309 C31.255,6.309 31.333,6.343 31.349,6.412 C31.365,6.482 31.314,6.555 31.196,6.629 L31.196,6.629 Z M34.163,4.753 L34.027,4.938 C34.011,4.996 34.003,5.095 34.003,5.233 L34.003,17.133 C34.003,17.422 33.981,17.659 33.938,17.847 C33.895,18.033 33.786,18.191 33.61,18.319 C33.434,18.448 33.172,18.555 32.824,18.641 C32.477,18.726 32.004,18.806 31.405,18.881 C31.405,18.57 31.375,18.296 31.316,18.055 C31.258,17.815 31.143,17.534 30.972,17.213 C31.346,17.267 31.643,17.293 31.862,17.293 C32.081,17.293 32.249,17.272 32.367,17.229 C32.484,17.186 32.562,17.122 32.6,17.037 C32.637,16.951 32.656,16.839 32.656,16.7 L32.656,7.03 C32.656,6.378 32.65,5.819 32.64,5.354 C32.629,4.889 32.607,4.539 32.576,4.304 C32.789,4.347 33.024,4.376 33.281,4.392 C33.538,4.408 33.789,4.405 34.035,4.384 C34.195,4.373 34.286,4.41 34.308,4.496 C34.329,4.582 34.281,4.667 34.163,4.753 L34.163,4.753 Z" id="Fill-9" fill="#FFFFFF" sketch:type="MSShapeGroup"></path>
                <path d="M43.048,6.886 C42.492,6.94 41.944,6.984 41.404,7.022 C40.864,7.06 40.362,7.092 39.896,7.118 C39.432,7.144 39.015,7.166 38.647,7.183 C38.277,7.198 37.981,7.206 37.756,7.206 C37.702,6.929 37.639,6.693 37.563,6.501 C37.488,6.309 37.382,6.1 37.243,5.875 C37.435,5.907 37.734,5.923 38.141,5.923 C38.547,5.923 39.022,5.915 39.568,5.899 C40.113,5.883 40.707,5.859 41.349,5.827 C41.989,5.795 42.642,5.752 43.305,5.699 C43.7,5.667 44.128,5.621 44.588,5.562 C45.047,5.504 45.507,5.435 45.967,5.354 C46.427,5.273 46.87,5.189 47.298,5.098 C47.726,5.007 48.115,4.913 48.469,4.816 C48.532,5.009 48.626,5.221 48.749,5.45 C48.872,5.681 49.046,5.955 49.27,6.276 C49.42,6.479 49.356,6.555 49.078,6.501 C48.895,6.469 48.714,6.45 48.532,6.444 C48.351,6.44 48.1,6.444 47.779,6.461 C47.458,6.477 47.033,6.509 46.504,6.557 C45.975,6.604 45.282,6.672 44.428,6.757 L44.428,9.051 C45.379,9.04 46.188,9.023 46.856,9.002 C47.524,8.981 48.11,8.943 48.613,8.89 L48.613,10.253 C48.132,10.211 47.549,10.181 46.865,10.165 C46.181,10.149 45.368,10.147 44.428,10.157 L44.428,12.273 C45.037,12.264 45.638,12.25 46.231,12.233 C46.825,12.218 47.389,12.202 47.923,12.185 C48.458,12.17 48.949,12.151 49.398,12.13 C49.848,12.108 50.238,12.087 50.569,12.065 L50.569,13.461 C50.238,13.44 49.845,13.421 49.391,13.404 C48.937,13.389 48.441,13.375 47.907,13.364 C47.372,13.353 46.812,13.349 46.224,13.349 L44.428,13.349 L44.428,17.518 C44.428,17.721 44.398,17.892 44.339,18.031 C44.28,18.17 44.144,18.29 43.93,18.392 C43.716,18.493 43.406,18.579 43,18.648 C42.594,18.718 42.038,18.779 41.332,18.833 C41.236,18.256 41.012,17.699 40.658,17.165 C41.161,17.229 41.57,17.269 41.886,17.285 C42.2,17.302 42.444,17.282 42.615,17.229 C42.786,17.176 42.901,17.082 42.96,16.948 C43.019,16.815 43.048,16.631 43.048,16.396 L43.048,13.349 C42.353,13.359 41.669,13.37 40.995,13.381 C40.322,13.392 39.688,13.404 39.095,13.421 C38.502,13.436 37.967,13.455 37.491,13.477 C37.016,13.498 36.628,13.519 36.329,13.541 L36.329,12.161 C36.628,12.184 37.019,12.204 37.499,12.226 C37.981,12.247 38.518,12.261 39.111,12.266 C39.704,12.272 40.335,12.276 41.003,12.282 C41.672,12.287 42.353,12.284 43.048,12.273 L43.048,10.141 C42.022,10.141 41.102,10.149 40.29,10.165 C39.477,10.181 38.836,10.211 38.365,10.253 L38.365,8.922 C38.857,8.976 39.501,9.013 40.298,9.034 C41.094,9.056 42.011,9.061 43.048,9.051 L43.048,6.886" id="Fill-10" fill="#FFFFFF" sketch:type="MSShapeGroup"></path>
                <path d="M59.389,11.953 C60.458,11.899 61.444,11.849 62.348,11.801 C63.251,11.753 64.018,11.702 64.649,11.648 L64.713,12.819 C64.071,12.787 63.294,12.776 62.38,12.787 C61.466,12.798 60.469,12.824 59.389,12.867 L59.389,14.375 C60.8,14.332 62.014,14.281 63.029,14.223 C64.045,14.164 64.932,14.092 65.691,14.006 L65.756,15.24 C64.975,15.22 64.071,15.217 63.045,15.232 C62.019,15.249 60.8,15.283 59.389,15.337 L59.389,16.523 C59.389,16.737 59.405,16.903 59.437,17.02 C59.469,17.139 59.558,17.227 59.701,17.285 C59.846,17.344 60.067,17.382 60.367,17.397 C60.666,17.414 61.083,17.422 61.618,17.422 C62.281,17.422 62.81,17.405 63.206,17.373 C63.601,17.342 63.914,17.267 64.144,17.149 C64.374,17.031 64.545,16.857 64.657,16.628 C64.769,16.398 64.879,16.091 64.985,15.706 C65.156,15.898 65.354,16.072 65.579,16.227 C65.804,16.382 66.028,16.508 66.253,16.603 C66.092,17.031 65.929,17.371 65.764,17.622 C65.598,17.873 65.362,18.063 65.058,18.191 C64.753,18.319 64.333,18.402 63.799,18.44 C63.265,18.477 62.548,18.496 61.65,18.496 C60.773,18.496 60.095,18.485 59.613,18.464 C59.133,18.442 58.776,18.381 58.547,18.279 C58.317,18.178 58.181,18.023 58.138,17.815 C58.096,17.606 58.074,17.315 58.074,16.94 L58.074,15.385 C56.908,15.438 55.877,15.495 54.979,15.554 C54.081,15.612 53.295,15.674 52.621,15.737 L52.558,14.503 C53.263,14.524 54.062,14.527 54.955,14.511 C55.848,14.495 56.887,14.471 58.074,14.439 L58.074,12.915 C57.026,12.958 56.131,13.004 55.388,13.052 C54.644,13.1 53.969,13.15 53.359,13.204 L53.295,12.05 C53.604,12.06 53.921,12.068 54.241,12.073 C54.562,12.079 54.909,12.079 55.283,12.073 C55.657,12.068 56.072,12.06 56.526,12.05 C56.981,12.039 57.497,12.022 58.074,12.001 L58.074,10.719 C57.197,10.772 56.422,10.815 55.749,10.847 C55.075,10.879 54.503,10.905 54.032,10.927 C53.979,10.745 53.901,10.539 53.8,10.31 C53.698,10.079 53.604,9.89 53.519,9.74 C54.022,9.772 54.728,9.788 55.637,9.788 C56.545,9.788 57.636,9.751 58.908,9.676 C59.378,9.644 59.854,9.602 60.335,9.548 C60.816,9.494 61.273,9.433 61.706,9.363 C62.14,9.294 62.54,9.222 62.909,9.147 C63.277,9.072 63.591,9.002 63.847,8.939 C63.954,9.163 64.077,9.371 64.216,9.564 C64.355,9.756 64.499,9.916 64.649,10.045 C64.745,10.131 64.782,10.208 64.761,10.277 C64.739,10.347 64.67,10.371 64.553,10.35 C64.445,10.339 64.296,10.333 64.104,10.333 C63.911,10.333 63.625,10.344 63.246,10.365 C62.866,10.387 62.369,10.419 61.754,10.462 C61.14,10.505 60.352,10.558 59.389,10.622 L59.389,11.953 L59.389,11.953 Z M55.283,6.918 C54.941,7.42 54.66,7.803 54.441,8.065 C54.223,8.326 54.011,8.554 53.809,8.746 C53.658,8.596 53.493,8.471 53.31,8.369 C53.129,8.268 52.964,8.19 52.813,8.137 C53.466,7.559 54.017,6.929 54.466,6.244 C54.915,5.56 55.251,4.849 55.476,4.111 C55.732,4.228 56.005,4.336 56.294,4.432 C56.582,4.528 56.85,4.592 57.096,4.624 C57.213,4.645 57.267,4.691 57.256,4.761 C57.245,4.83 57.181,4.892 57.063,4.945 C56.893,5.02 56.716,5.138 56.534,5.298 C56.352,5.458 56.149,5.683 55.925,5.972 L57.385,5.972 C57.898,5.972 58.357,5.964 58.764,5.947 C59.17,5.932 59.464,5.913 59.646,5.892 L59.646,6.998 C59.464,6.977 59.185,6.958 58.812,6.941 C58.437,6.926 58.01,6.918 57.528,6.918 C57.753,7.709 57.962,8.308 58.154,8.714 L56.839,8.954 C56.807,8.74 56.753,8.471 56.679,8.144 C56.603,7.818 56.491,7.409 56.342,6.918 L55.283,6.918 L55.283,6.918 Z M61.858,6.886 C61.57,7.377 61.324,7.789 61.121,8.12 C60.918,8.452 60.746,8.725 60.607,8.939 C60.426,8.789 60.244,8.677 60.063,8.602 C59.881,8.526 59.667,8.468 59.421,8.425 C59.624,8.243 59.846,7.984 60.087,7.647 C60.327,7.31 60.557,6.941 60.776,6.541 C60.995,6.14 61.195,5.728 61.378,5.306 C61.56,4.884 61.692,4.485 61.778,4.111 C62.035,4.197 62.321,4.277 62.637,4.352 C62.951,4.427 63.222,4.48 63.446,4.512 C63.563,4.533 63.625,4.565 63.631,4.608 C63.636,4.651 63.58,4.699 63.462,4.753 C63.345,4.816 63.192,4.953 63.005,5.161 C62.818,5.37 62.623,5.629 62.42,5.94 L64.28,5.94 C64.793,5.94 65.231,5.932 65.595,5.915 C65.958,5.899 66.231,5.881 66.413,5.859 L66.413,6.966 C66.231,6.944 65.937,6.926 65.531,6.909 C65.125,6.894 64.622,6.886 64.023,6.886 C64.141,7.26 64.237,7.565 64.313,7.8 C64.387,8.035 64.467,8.26 64.553,8.474 L63.206,8.682 C63.185,8.468 63.149,8.232 63.102,7.976 C63.054,7.72 62.971,7.356 62.852,6.886 L61.858,6.886 L61.858,6.886 Z" id="Fill-11" fill="#FFFFFF" sketch:type="MSShapeGroup"></path>
                <path d="M71.609,17.614 C71.545,17.667 71.473,17.739 71.393,17.83 C71.313,17.921 71.227,18.018 71.136,18.119 C71.045,18.221 70.96,18.319 70.88,18.416 C70.8,18.512 70.738,18.598 70.695,18.673 C70.556,18.459 70.403,18.247 70.238,18.039 C70.072,17.83 69.888,17.625 69.685,17.422 C69.898,17.239 70.075,16.994 70.214,16.684 C70.352,16.374 70.423,16 70.423,15.561 L70.423,10.237 C69.846,10.237 69.383,10.253 69.035,10.285 C68.688,10.317 68.386,10.365 68.129,10.43 L68.129,8.906 C68.375,8.939 68.647,8.96 68.947,8.971 C69.246,8.981 69.594,8.986 69.989,8.986 C70.363,8.986 70.703,8.978 71.008,8.962 C71.313,8.946 71.588,8.928 71.834,8.906 C71.791,9.152 71.759,9.451 71.737,9.804 C71.716,10.157 71.705,10.521 71.705,10.894 L71.705,15.674 C72.059,15.395 72.396,15.115 72.716,14.832 C73.036,14.549 73.304,14.295 73.518,14.07 C73.571,14.316 73.645,14.578 73.742,14.855 C73.839,15.134 73.929,15.348 74.015,15.497 L71.609,17.614 L71.609,17.614 Z M71.128,7.623 C70.979,7.185 70.769,6.723 70.503,6.236 C70.235,5.75 69.946,5.304 69.637,4.897 L70.968,4.191 C71.235,4.598 71.511,5.036 71.794,5.507 C72.077,5.977 72.325,6.404 72.539,6.789 L71.128,7.623 L71.128,7.623 Z M80.188,6.565 L76.806,6.565 C76.612,6.565 76.396,6.57 76.155,6.581 C75.915,6.592 75.677,6.607 75.442,6.629 C75.207,6.65 74.987,6.675 74.784,6.701 C74.581,6.728 74.421,6.757 74.304,6.789 L74.304,5.025 C74.603,5.111 75.047,5.167 75.635,5.193 C76.223,5.221 77.003,5.233 77.976,5.233 C78.928,5.233 79.684,5.218 80.245,5.185 C80.807,5.153 81.253,5.101 81.584,5.025 C81.552,5.239 81.53,5.458 81.519,5.683 C81.509,5.907 81.504,6.169 81.504,6.469 L81.504,9.483 C81.504,9.943 81.512,10.373 81.528,10.774 C81.544,11.176 81.562,11.601 81.584,12.05 L80.188,12.05 L80.188,11.231 L76.1,11.231 L76.1,15.914 C76.1,16.203 76.118,16.435 76.155,16.611 C76.193,16.788 76.297,16.922 76.469,17.013 C76.64,17.103 76.896,17.162 77.238,17.19 C77.58,17.216 78.056,17.229 78.665,17.229 C79.19,17.229 79.606,17.208 79.916,17.165 C80.227,17.122 80.472,17.023 80.654,16.868 C80.836,16.714 80.978,16.483 81.079,16.179 C81.181,15.874 81.279,15.455 81.376,14.92 C81.621,15.166 81.878,15.369 82.146,15.529 C82.412,15.69 82.664,15.802 82.899,15.866 C82.707,16.465 82.527,16.938 82.362,17.285 C82.196,17.633 81.975,17.892 81.696,18.063 C81.418,18.234 81.044,18.341 80.574,18.384 C80.104,18.427 79.467,18.448 78.665,18.448 C77.768,18.448 77.059,18.432 76.541,18.399 C76.021,18.368 75.632,18.301 75.37,18.199 C75.107,18.098 74.942,17.948 74.873,17.75 C74.803,17.553 74.769,17.288 74.769,16.957 L74.769,11.344 C74.769,10.981 74.763,10.7 74.753,10.502 C74.742,10.304 74.721,10.114 74.688,9.933 C74.806,9.954 74.926,9.97 75.049,9.98 C75.172,9.991 75.319,10.002 75.49,10.013 C75.661,10.023 75.859,10.028 76.084,10.028 L76.917,10.028 L80.188,10.028 L80.188,6.565 L80.188,6.565 Z" id="Fill-12" fill="#FFFFFF" sketch:type="MSShapeGroup"></path>
            </g>
        </g>
    </g>
</svg>