<?xml version="1.0" encoding="UTF-8" standalone="no"?>
<svg width="120px" height="120px" viewBox="0 0 120 120" version="1.1" xmlns="http://www.w3.org/2000/svg" xmlns:xlink="http://www.w3.org/1999/xlink" xmlns:sketch="http://www.bohemiancoding.com/sketch/ns">
    <!-- Generator: Sketch 3.3.2 (12043) - http://www.bohemiancoding.com/sketch -->
    <title>Mobile Portrait Copy</title>
    <desc>Created with Sketch.</desc>
    <defs>
        <path id="path-1" d="M11.205,38.417 L61.334,38.417 C62.352,38.417 63.183,37.771 63.183,36.973 L63.183,2.274 C63.183,1.479 62.355,0.83 61.334,0.83 L5.428,0.83 C4.408,0.83 3.578,1.477 3.578,2.274 L3.578,32.662 C3.222,34.198 2.815,35.778 2.701,36.06 L0.761,40.867 C0.54,41.409 0.922,41.673 1.608,41.458 L11.205,38.417"></path>
        <path id="path-3" d="M51.877,37.075 L2.44,37.075 C1.436,37.075 0.615,36.436 0.615,35.65 L0.615,1.432 C0.615,0.646 1.434,0.007 2.44,0.007 L57.574,0.007 C58.578,0.007 59.398,0.644 59.398,1.432 L59.398,31.397 C59.748,32.914 60.149,34.472 60.264,34.749 L62.176,39.49 C62.395,40.023 62.018,40.285 61.34,40.072 L51.877,37.075 L51.877,37.075 Z"></path>
        <path id="path-5" d="M51.877,37.075 L2.44,37.075 C1.436,37.075 0.615,36.436 0.615,35.65 L0.615,1.432 C0.615,0.646 1.434,0.007 2.44,0.007 L57.574,0.007 C58.578,0.007 59.398,0.644 59.398,1.432 L59.398,31.397 C59.748,32.914 60.149,34.472 60.264,34.749 L62.176,39.49 C62.395,40.023 62.018,40.285 61.34,40.072 L51.877,37.075 L51.877,37.075 Z"></path>
    </defs>
    <g id="basic" stroke="none" stroke-width="1" fill="none" fill-rule="evenodd" sketch:type="MSPage">
        <g id="Mobile-Portrait-Copy" sketch:type="MSArtboardGroup">
            <g id="Imported-Layers" sketch:type="MSLayerGroup" transform="translate(15.000000, 33.000000)">
                <g id="Group-3">
                    <mask id="mask-2" sketch:name="Clip 2" fill="white">
                        <use xlink:href="#path-1"></use>
                    </mask>
                    <g id="Clip-2"></g>
                    <path d="M61.334,0.83 L5.428,0.83 C4.408,0.83 3.578,1.477 3.578,2.274 L3.578,32.662 C3.222,34.198 2.815,35.778 2.701,36.06 L0.761,40.867 C0.592,41.281 0.775,41.533 1.178,41.533 C1.302,41.533 1.447,41.509 1.608,41.458 L11.205,38.417 L61.334,38.417 C62.352,38.417 63.183,37.771 63.183,36.973 L63.183,2.274 C63.183,1.479 62.355,0.83 61.334,0.83" id="Fill-1" fill="#ADD0DB" sketch:type="MSShapeGroup" mask="url(#mask-2)"></path>
                </g>
                <path d="M79.877,48.075 L30.44,48.075 C29.436,48.075 28.615,47.436 28.615,46.65 L28.615,12.432 C28.615,11.646 29.434,11.007 30.44,11.007 L85.574,11.007 C86.578,11.007 87.398,11.644 87.398,12.432 L87.398,42.397 C87.748,43.914 88.149,45.472 88.264,45.749 L90.176,50.49 C90.395,51.023 90.018,51.285 89.34,51.072 L79.877,48.075" id="Fill-4" fill="#5FACC2" sketch:type="MSShapeGroup"></path>
                <g id="Group-7" transform="translate(28.000000, 11.000000)">
                    <mask id="mask-4" sketch:name="Clip 6" fill="white">
                        <use xlink:href="#path-3"></use>
                    </mask>
                    <g id="Clip-6"></g>
                    <path d="M0.615,0.007 L62.394,0.007 L62.394,40.285 L0.615,40.285 L0.615,0.007 Z" id="Fill-5" fill="#5FACC2" sketch:type="MSShapeGroup" mask="url(#mask-4)"></path>
                </g>
                <g id="Group-10" transform="translate(28.000000, 11.000000)">
                    <mask id="mask-6" sketch:name="Clip 9" fill="white">
                        <use xlink:href="#path-5"></use>
                    </mask>
                    <g id="Clip-9"></g>
                    <path d="M0.56,-0.04 L62.24,-0.04 L62.24,40.16 L0.56,40.16 L0.56,-0.04 Z" id="Fill-8" fill="#5FACC2" sketch:type="MSShapeGroup" mask="url(#mask-6)"></path>
                </g>
                <path d="M20.452,27.301 C20.252,27.808 20.051,28.264 19.851,28.67 C19.65,29.077 19.437,29.459 19.21,29.818 C18.983,30.177 18.732,30.52 18.458,30.847 C18.184,31.174 17.873,31.517 17.524,31.876 C17.419,31.633 17.292,31.427 17.144,31.258 C16.996,31.089 16.806,30.947 16.574,30.831 C17.26,30.377 17.873,29.818 18.411,29.153 C18.949,28.488 19.476,27.639 19.993,26.605 L19.123,26.605 C18.87,26.605 18.632,26.607 18.411,26.613 C18.189,26.618 17.978,26.626 17.777,26.636 C17.577,26.647 17.376,26.658 17.176,26.668 L17.176,25.386 C17.408,25.407 17.635,25.425 17.856,25.441 C18.078,25.457 18.313,25.471 18.561,25.481 C18.809,25.492 19.083,25.502 19.384,25.513 C19.685,25.523 20.035,25.528 20.437,25.528 C20.437,25.191 20.431,24.864 20.421,24.547 C20.41,24.23 20.394,24.009 20.373,23.882 C20.563,23.903 20.798,23.916 21.078,23.922 C21.357,23.927 21.592,23.93 21.782,23.93 C21.93,23.93 22.02,23.959 22.051,24.017 C22.083,24.075 22.024,24.136 21.877,24.199 C21.729,24.262 21.655,24.378 21.655,24.547 L21.655,25.528 C22.024,25.528 22.349,25.523 22.629,25.513 C22.908,25.502 23.164,25.492 23.397,25.481 C23.628,25.471 23.85,25.457 24.061,25.441 C24.273,25.425 24.489,25.407 24.71,25.386 L24.71,26.668 C24.489,26.658 24.273,26.647 24.061,26.636 C23.85,26.626 23.628,26.618 23.397,26.613 C23.164,26.607 22.906,26.605 22.621,26.605 L21.655,26.605 L21.655,31.401 C21.655,31.601 21.663,31.817 21.679,32.05 C21.695,32.282 21.713,32.503 21.734,32.714 L20.357,32.714 C20.421,32.261 20.452,31.823 20.452,31.401 L20.452,27.301 L20.452,27.301 Z M24.932,22.22 C24.837,22.495 24.781,22.729 24.766,22.925 C24.75,23.12 24.773,23.328 24.837,23.55 C24.288,23.592 23.826,23.611 23.452,23.605 C23.077,23.6 22.776,23.563 22.55,23.495 C22.323,23.426 22.162,23.315 22.067,23.162 C21.972,23.009 21.93,22.806 21.94,22.553 L22.003,20.21 L19.93,20.21 C19.93,20.78 19.888,21.278 19.803,21.706 C19.719,22.133 19.592,22.513 19.423,22.846 C19.254,23.178 19.041,23.476 18.782,23.74 C18.524,24.004 18.215,24.257 17.856,24.499 C17.793,24.394 17.732,24.299 17.674,24.215 L17.484,23.993 L17.255,23.803 C17.17,23.74 17.065,23.666 16.939,23.581 C17.308,23.381 17.616,23.16 17.864,22.916 C18.112,22.674 18.305,22.378 18.442,22.03 C18.579,21.682 18.664,21.265 18.695,20.78 C18.727,20.294 18.711,19.704 18.648,19.007 C19.154,19.039 19.946,19.055 21.022,19.055 C22.077,19.055 22.869,19.039 23.397,19.007 C23.365,19.228 23.331,19.585 23.294,20.076 C23.256,20.566 23.228,21.096 23.206,21.666 C23.196,21.856 23.201,22.006 23.222,22.117 C23.243,22.228 23.31,22.302 23.42,22.339 C23.531,22.376 23.705,22.384 23.942,22.363 C24.18,22.342 24.51,22.294 24.932,22.22 L24.932,22.22 Z M23.887,30.657 C23.676,30.34 23.378,29.958 22.993,29.509 C22.607,29.061 22.21,28.636 21.798,28.235 L22.605,27.38 C22.763,27.539 22.94,27.713 23.135,27.903 C23.331,28.093 23.528,28.283 23.729,28.473 C23.929,28.663 24.125,28.845 24.315,29.019 C24.504,29.193 24.673,29.343 24.821,29.47 L23.887,30.657 L23.887,30.657 Z M27.148,20.59 C27.053,20.643 27.005,20.796 27.005,21.049 L27.005,27.412 C27.005,27.728 27.011,28.053 27.021,28.385 C27.032,28.718 27.053,29.08 27.085,29.47 L25.676,29.47 C25.697,29.069 25.712,28.705 25.723,28.377 C25.734,28.051 25.739,27.728 25.739,27.412 L25.739,21.951 C25.739,21.55 25.734,21.207 25.723,20.922 C25.712,20.637 25.697,20.379 25.676,20.146 C25.919,20.2 26.143,20.234 26.349,20.249 C26.554,20.266 26.794,20.273 27.069,20.273 C27.206,20.273 27.282,20.308 27.298,20.376 C27.314,20.445 27.264,20.516 27.148,20.59 L27.148,20.59 Z M30.076,18.738 L29.941,18.92 C29.926,18.978 29.918,19.076 29.918,19.213 L29.918,30.957 C29.918,31.243 29.897,31.477 29.855,31.662 C29.812,31.847 29.704,32.002 29.53,32.129 C29.356,32.255 29.097,32.361 28.754,32.445 C28.412,32.53 27.944,32.609 27.353,32.683 C27.353,32.377 27.324,32.105 27.267,31.868 C27.209,31.63 27.095,31.353 26.926,31.037 C27.295,31.089 27.588,31.116 27.805,31.116 C28.021,31.116 28.187,31.095 28.303,31.053 C28.419,31.01 28.496,30.947 28.533,30.863 C28.57,30.778 28.588,30.667 28.588,30.53 L28.588,20.986 C28.588,20.342 28.583,19.79 28.572,19.331 C28.562,18.873 28.541,18.527 28.509,18.295 C28.72,18.337 28.952,18.366 29.206,18.382 C29.459,18.397 29.707,18.395 29.95,18.374 C30.108,18.364 30.197,18.4 30.219,18.485 C30.24,18.569 30.192,18.654 30.076,18.738 L30.076,18.738 Z" id="Fill-11" fill="#FFFFFF" sketch:type="MSShapeGroup"></path>
                <path d="M38.845,20.843 C38.296,20.896 37.755,20.941 37.223,20.977 C36.69,21.015 36.194,21.046 35.735,21.073 C35.276,21.099 34.864,21.12 34.5,21.136 C34.136,21.152 33.843,21.16 33.622,21.16 C33.569,20.885 33.505,20.653 33.432,20.463 C33.358,20.273 33.252,20.067 33.115,19.846 C33.305,19.877 33.601,19.894 34.002,19.894 C34.403,19.894 34.872,19.886 35.411,19.87 C35.949,19.854 36.534,19.83 37.168,19.798 C37.8,19.767 38.444,19.725 39.099,19.672 C39.489,19.64 39.911,19.595 40.365,19.537 C40.818,19.479 41.272,19.411 41.726,19.331 C42.18,19.252 42.618,19.168 43.04,19.078 C43.462,18.989 43.847,18.896 44.195,18.801 C44.259,18.991 44.351,19.2 44.472,19.427 C44.593,19.653 44.765,19.925 44.987,20.242 C45.134,20.442 45.071,20.516 44.797,20.463 C44.617,20.432 44.438,20.413 44.259,20.408 C44.079,20.403 43.831,20.408 43.515,20.424 C43.198,20.439 42.779,20.471 42.256,20.519 C41.734,20.566 41.051,20.632 40.207,20.716 L40.207,22.98 C41.146,22.97 41.945,22.954 42.605,22.933 C43.264,22.912 43.842,22.874 44.338,22.822 L44.338,24.167 C43.863,24.125 43.288,24.096 42.612,24.08 C41.937,24.064 41.135,24.062 40.207,24.072 L40.207,26.162 C40.808,26.151 41.401,26.138 41.987,26.122 C42.573,26.106 43.129,26.09 43.657,26.075 C44.185,26.059 44.67,26.04 45.113,26.019 C45.557,25.998 45.941,25.977 46.269,25.956 L46.269,27.333 C45.941,27.312 45.554,27.294 45.106,27.277 C44.657,27.262 44.169,27.249 43.641,27.238 C43.113,27.227 42.56,27.222 41.979,27.222 L40.207,27.222 L40.207,31.337 C40.207,31.538 40.177,31.706 40.12,31.844 C40.062,31.981 39.927,32.1 39.716,32.2 C39.504,32.3 39.199,32.385 38.798,32.454 C38.397,32.522 37.848,32.582 37.151,32.635 C37.057,32.065 36.835,31.517 36.487,30.989 C36.982,31.053 37.386,31.092 37.698,31.108 C38.009,31.124 38.249,31.105 38.418,31.053 C38.586,30.999 38.7,30.908 38.758,30.775 C38.816,30.644 38.845,30.462 38.845,30.229 L38.845,27.222 C38.159,27.233 37.484,27.243 36.819,27.254 C36.154,27.264 35.529,27.277 34.943,27.294 C34.358,27.309 33.83,27.328 33.361,27.349 C32.891,27.37 32.508,27.391 32.213,27.412 L32.213,26.051 C32.508,26.072 32.894,26.093 33.369,26.114 C33.843,26.135 34.374,26.148 34.96,26.154 C35.545,26.159 36.168,26.164 36.827,26.169 C37.486,26.175 38.159,26.172 38.845,26.162 L38.845,24.056 C37.832,24.056 36.924,24.064 36.123,24.08 C35.321,24.096 34.688,24.125 34.223,24.167 L34.223,22.853 C34.709,22.906 35.344,22.943 36.131,22.964 C36.917,22.985 37.822,22.991 38.845,22.98 L38.845,20.843" id="Fill-12" fill="#FFFFFF" sketch:type="MSShapeGroup"></path>
                <path d="M54.975,25.845 C56.03,25.792 57.003,25.742 57.895,25.695 C58.787,25.647 59.543,25.597 60.167,25.544 L60.23,26.7 C59.597,26.668 58.829,26.658 57.927,26.668 C57.024,26.679 56.04,26.705 54.975,26.747 L54.975,28.235 C56.368,28.193 57.565,28.143 58.568,28.085 C59.57,28.027 60.446,27.956 61.195,27.871 L61.258,29.09 C60.488,29.069 59.597,29.066 58.583,29.082 C57.57,29.098 56.368,29.132 54.975,29.185 L54.975,30.356 C54.975,30.567 54.99,30.731 55.022,30.847 C55.054,30.963 55.141,31.05 55.283,31.108 C55.426,31.166 55.645,31.203 55.94,31.219 C56.235,31.234 56.647,31.243 57.175,31.243 C57.829,31.243 58.351,31.227 58.742,31.195 C59.132,31.164 59.441,31.089 59.668,30.974 C59.895,30.857 60.064,30.686 60.174,30.459 C60.285,30.232 60.393,29.929 60.499,29.549 C60.668,29.739 60.863,29.911 61.085,30.063 C61.306,30.216 61.527,30.34 61.749,30.435 C61.591,30.857 61.43,31.192 61.267,31.44 C61.103,31.688 60.871,31.876 60.57,32.002 C60.269,32.129 59.855,32.21 59.328,32.248 C58.8,32.285 58.093,32.303 57.207,32.303 C56.341,32.303 55.671,32.292 55.196,32.272 C54.721,32.25 54.371,32.19 54.144,32.089 C53.917,31.989 53.782,31.836 53.74,31.63 C53.698,31.424 53.677,31.137 53.677,30.768 L53.677,29.232 C52.526,29.285 51.508,29.341 50.622,29.398 C49.735,29.456 48.96,29.517 48.295,29.581 L48.231,28.362 C48.928,28.383 49.717,28.385 50.598,28.37 C51.479,28.354 52.505,28.33 53.677,28.298 L53.677,26.795 C52.642,26.837 51.759,26.882 51.025,26.929 C50.292,26.977 49.625,27.027 49.023,27.08 L48.96,25.94 C49.266,25.951 49.577,25.958 49.894,25.964 C50.21,25.969 50.553,25.969 50.922,25.964 C51.292,25.958 51.701,25.951 52.149,25.94 C52.598,25.93 53.107,25.914 53.677,25.893 L53.677,24.626 C52.811,24.679 52.046,24.721 51.381,24.753 C50.717,24.785 50.152,24.811 49.688,24.832 C49.635,24.653 49.559,24.45 49.459,24.223 C49.358,23.996 49.266,23.809 49.181,23.661 C49.677,23.692 50.374,23.708 51.271,23.708 C52.168,23.708 53.244,23.671 54.5,23.597 C54.964,23.566 55.434,23.523 55.909,23.471 C56.383,23.418 56.835,23.357 57.262,23.289 C57.689,23.22 58.085,23.149 58.449,23.075 C58.813,23.001 59.122,22.933 59.375,22.869 C59.481,23.091 59.602,23.296 59.739,23.486 C59.876,23.676 60.019,23.835 60.167,23.961 C60.261,24.046 60.298,24.123 60.277,24.191 C60.256,24.26 60.188,24.283 60.071,24.262 C59.966,24.252 59.818,24.246 59.628,24.246 C59.438,24.246 59.156,24.257 58.781,24.278 C58.407,24.299 57.916,24.331 57.309,24.373 C56.702,24.415 55.924,24.468 54.975,24.531 L54.975,25.845 L54.975,25.845 Z M50.922,20.875 C50.585,21.371 50.308,21.748 50.091,22.006 C49.875,22.265 49.667,22.489 49.466,22.679 C49.318,22.532 49.155,22.408 48.976,22.307 C48.796,22.207 48.632,22.131 48.485,22.078 C49.128,21.508 49.672,20.885 50.115,20.21 C50.559,19.535 50.891,18.833 51.112,18.105 C51.366,18.221 51.635,18.327 51.919,18.421 C52.205,18.517 52.468,18.58 52.711,18.611 C52.827,18.633 52.88,18.677 52.869,18.746 C52.859,18.814 52.795,18.875 52.679,18.928 C52.511,19.002 52.336,19.118 52.157,19.276 C51.978,19.435 51.777,19.656 51.556,19.941 L52.996,19.941 C53.502,19.941 53.956,19.933 54.357,19.917 C54.758,19.901 55.048,19.883 55.228,19.862 L55.228,20.954 C55.048,20.933 54.774,20.915 54.405,20.898 C54.035,20.883 53.613,20.875 53.139,20.875 C53.36,21.656 53.566,22.247 53.756,22.647 L52.458,22.885 C52.426,22.674 52.373,22.408 52.299,22.086 C52.226,21.764 52.115,21.36 51.967,20.875 L50.922,20.875 L50.922,20.875 Z M57.412,20.843 C57.127,21.329 56.884,21.735 56.684,22.062 C56.483,22.389 56.315,22.658 56.178,22.869 C55.998,22.722 55.819,22.611 55.639,22.537 C55.46,22.463 55.249,22.405 55.006,22.363 C55.207,22.184 55.426,21.927 55.663,21.595 C55.9,21.263 56.127,20.898 56.344,20.503 C56.56,20.107 56.758,19.701 56.938,19.284 C57.117,18.867 57.249,18.474 57.333,18.105 C57.586,18.189 57.869,18.269 58.18,18.342 C58.491,18.416 58.758,18.469 58.979,18.5 C59.095,18.522 59.156,18.554 59.161,18.596 C59.167,18.638 59.111,18.685 58.995,18.738 C58.879,18.801 58.728,18.936 58.544,19.142 C58.359,19.347 58.167,19.603 57.966,19.909 L59.802,19.909 C60.309,19.909 60.741,19.901 61.1,19.886 C61.459,19.87 61.728,19.852 61.907,19.83 L61.907,20.922 C61.728,20.901 61.438,20.883 61.037,20.867 C60.636,20.851 60.14,20.843 59.549,20.843 C59.665,21.213 59.76,21.513 59.834,21.746 C59.908,21.977 59.987,22.199 60.071,22.41 L58.742,22.616 C58.721,22.405 58.687,22.173 58.639,21.919 C58.591,21.666 58.51,21.308 58.394,20.843 L57.412,20.843 L57.412,20.843 Z" id="Fill-13" fill="#FFFFFF" sketch:type="MSShapeGroup"></path>
                <path d="M67.036,31.433 L66.822,31.646 C66.743,31.736 66.659,31.831 66.569,31.931 C66.48,32.031 66.395,32.129 66.316,32.224 C66.237,32.319 66.176,32.403 66.134,32.477 C65.997,32.266 65.846,32.058 65.683,31.852 C65.519,31.646 65.337,31.443 65.137,31.243 C65.348,31.063 65.522,30.821 65.659,30.514 C65.796,30.208 65.865,29.839 65.865,29.406 L65.865,24.151 C65.295,24.151 64.838,24.167 64.496,24.199 C64.152,24.23 63.855,24.278 63.601,24.341 L63.601,22.837 C63.844,22.869 64.113,22.891 64.409,22.901 C64.704,22.912 65.047,22.916 65.438,22.916 C65.807,22.916 66.142,22.909 66.442,22.893 C66.743,22.877 67.015,22.859 67.258,22.837 C67.215,23.081 67.184,23.376 67.163,23.724 C67.141,24.072 67.131,24.431 67.131,24.8 L67.131,29.517 C67.479,29.243 67.812,28.966 68.128,28.686 C68.445,28.407 68.708,28.156 68.919,27.935 C68.972,28.177 69.046,28.435 69.141,28.71 C69.236,28.984 69.326,29.195 69.41,29.343 L67.036,31.433 L67.036,31.433 Z M66.561,21.571 C66.413,21.139 66.208,20.683 65.944,20.202 C65.68,19.722 65.395,19.282 65.089,18.88 L66.403,18.184 C66.667,18.585 66.939,19.018 67.218,19.482 C67.498,19.946 67.743,20.368 67.954,20.748 L66.561,21.571 L66.561,21.571 Z M75.504,20.526 L72.165,20.526 C71.975,20.526 71.761,20.532 71.523,20.542 C71.286,20.553 71.051,20.569 70.819,20.59 C70.587,20.611 70.371,20.635 70.17,20.661 C69.969,20.687 69.811,20.716 69.695,20.748 L69.695,19.007 C69.991,19.092 70.429,19.147 71.009,19.173 C71.589,19.2 72.359,19.213 73.32,19.213 C74.259,19.213 75.006,19.197 75.56,19.165 C76.114,19.134 76.554,19.081 76.881,19.007 C76.85,19.218 76.829,19.435 76.818,19.656 C76.808,19.877 76.802,20.136 76.802,20.432 L76.802,23.407 C76.802,23.861 76.81,24.286 76.826,24.682 C76.842,25.077 76.86,25.497 76.881,25.94 L75.504,25.94 L75.504,25.133 L71.468,25.133 L71.468,29.754 C71.468,30.04 71.486,30.269 71.523,30.443 C71.56,30.617 71.663,30.749 71.832,30.839 C72.001,30.929 72.254,30.987 72.592,31.013 C72.929,31.039 73.399,31.053 74.001,31.053 C74.518,31.053 74.929,31.031 75.235,30.989 C75.541,30.947 75.784,30.85 75.963,30.696 C76.143,30.543 76.282,30.316 76.383,30.016 C76.483,29.715 76.581,29.301 76.676,28.773 C76.918,29.016 77.171,29.216 77.436,29.374 C77.699,29.533 77.947,29.644 78.179,29.707 C77.989,30.298 77.812,30.765 77.649,31.108 C77.485,31.451 77.267,31.706 76.992,31.876 C76.718,32.044 76.348,32.15 75.884,32.192 C75.419,32.234 74.792,32.255 74.001,32.255 C73.114,32.255 72.415,32.24 71.903,32.208 C71.391,32.176 71.006,32.11 70.748,32.01 C70.489,31.91 70.326,31.762 70.257,31.567 C70.189,31.372 70.154,31.11 70.154,30.784 L70.154,25.244 C70.154,24.885 70.149,24.608 70.138,24.413 C70.128,24.217 70.107,24.03 70.075,23.851 C70.191,23.872 70.31,23.888 70.431,23.898 C70.552,23.909 70.698,23.919 70.867,23.93 C71.035,23.94 71.231,23.946 71.452,23.946 L72.275,23.946 L75.504,23.946 L75.504,20.526 L75.504,20.526 Z" id="Fill-14" fill="#FFFFFF" sketch:type="MSShapeGroup"></path>
                <path d="M17.209,41.973 L17.209,38.636 L16.633,38.636 L16.633,38.129 L17.209,38.129 L17.209,37.72 C17.209,37.461 17.231,37.27 17.277,37.144 C17.34,36.976 17.451,36.838 17.609,36.733 C17.767,36.628 17.988,36.576 18.273,36.576 C18.456,36.576 18.659,36.598 18.881,36.641 L18.783,37.21 C18.648,37.185 18.52,37.173 18.399,37.173 C18.202,37.173 18.061,37.215 17.98,37.3 C17.898,37.384 17.856,37.542 17.856,37.774 L17.856,38.129 L18.606,38.129 L18.606,38.636 L17.856,38.636 L17.856,41.973 L17.209,41.973" id="Fill-15" fill="#FFFFFF" sketch:type="MSShapeGroup"></path>
                <path d="M19.106,41.973 L19.106,38.129 L19.692,38.129 L19.692,38.711 C19.841,38.439 19.98,38.259 20.106,38.172 C20.233,38.085 20.372,38.042 20.524,38.042 C20.744,38.042 20.967,38.112 21.194,38.252 L20.969,38.856 C20.81,38.762 20.651,38.715 20.492,38.715 C20.349,38.715 20.221,38.758 20.108,38.844 C19.995,38.929 19.914,39.048 19.866,39.2 C19.793,39.432 19.757,39.685 19.757,39.96 L19.757,41.973 L19.106,41.973" id="Fill-16" fill="#FFFFFF" sketch:type="MSShapeGroup"></path>
                <path d="M21.338,40.051 C21.338,39.339 21.536,38.811 21.932,38.469 C22.263,38.185 22.666,38.042 23.141,38.042 C23.669,38.042 24.101,38.215 24.436,38.561 C24.772,38.908 24.94,39.386 24.94,39.997 C24.94,40.491 24.866,40.88 24.717,41.164 C24.569,41.447 24.353,41.667 24.069,41.824 C23.786,41.981 23.476,42.06 23.141,42.06 C22.603,42.06 22.168,41.887 21.836,41.542 C21.504,41.197 21.338,40.7 21.338,40.051 L21.338,40.051 Z M22.008,40.051 C22.008,40.543 22.115,40.912 22.33,41.156 C22.545,41.401 22.815,41.524 23.141,41.524 C23.464,41.524 23.733,41.401 23.948,41.155 C24.163,40.909 24.27,40.533 24.27,40.029 C24.27,39.554 24.162,39.193 23.946,38.949 C23.731,38.704 23.462,38.581 23.141,38.581 C22.815,38.581 22.545,38.703 22.33,38.947 C22.115,39.19 22.008,39.559 22.008,40.051 L22.008,40.051 Z" id="Fill-17" fill="#FFFFFF" sketch:type="MSShapeGroup"></path>
                <path d="M25.704,41.973 L25.704,38.129 L26.286,38.129 L26.286,38.668 C26.407,38.48 26.567,38.329 26.768,38.214 C26.968,38.099 27.196,38.042 27.452,38.042 C27.736,38.042 27.97,38.101 28.152,38.219 C28.334,38.337 28.463,38.503 28.538,38.715 C28.841,38.266 29.237,38.042 29.725,38.042 C30.106,38.042 30.399,38.147 30.604,38.359 C30.809,38.57 30.912,38.895 30.912,39.334 L30.912,41.973 L30.264,41.973 L30.264,39.551 C30.264,39.29 30.243,39.103 30.201,38.988 C30.158,38.874 30.082,38.782 29.971,38.711 C29.86,38.642 29.73,38.606 29.58,38.606 C29.31,38.606 29.085,38.696 28.907,38.876 C28.728,39.056 28.639,39.344 28.639,39.739 L28.639,41.973 L27.987,41.973 L27.987,39.475 C27.987,39.185 27.934,38.969 27.828,38.824 C27.722,38.679 27.548,38.606 27.307,38.606 C27.124,38.606 26.954,38.655 26.798,38.751 C26.643,38.848 26.53,38.989 26.46,39.175 C26.39,39.361 26.355,39.628 26.355,39.978 L26.355,41.973 L25.704,41.973" id="Fill-18" fill="#FFFFFF" sketch:type="MSShapeGroup"></path>
                <path d="M35.77,40.246 C35.675,40.483 35.582,40.696 35.488,40.887 C35.394,41.077 35.294,41.256 35.188,41.424 C35.081,41.592 34.964,41.753 34.835,41.906 C34.707,42.059 34.561,42.22 34.398,42.388 C34.349,42.274 34.289,42.178 34.22,42.099 C34.151,42.019 34.062,41.953 33.953,41.898 C34.274,41.686 34.561,41.424 34.813,41.113 C35.065,40.801 35.312,40.404 35.554,39.919 L35.147,39.919 C35.028,39.919 34.917,39.92 34.813,39.923 C34.71,39.926 34.61,39.929 34.517,39.934 C34.423,39.939 34.329,39.944 34.235,39.949 L34.235,39.349 C34.344,39.358 34.45,39.367 34.554,39.375 C34.658,39.382 34.768,39.388 34.884,39.393 C35,39.398 35.128,39.403 35.269,39.408 C35.41,39.413 35.574,39.415 35.762,39.415 C35.762,39.257 35.759,39.104 35.754,38.956 C35.75,38.808 35.742,38.704 35.732,38.644 C35.821,38.654 35.931,38.661 36.062,38.663 C36.193,38.665 36.303,38.666 36.392,38.666 L36.518,38.707 L36.436,38.792 L36.332,38.956 L36.332,39.415 C36.506,39.415 36.658,39.413 36.789,39.408 C36.919,39.403 37.04,39.398 37.148,39.393 C37.257,39.388 37.36,39.382 37.46,39.375 C37.558,39.367 37.66,39.358 37.763,39.349 L37.763,39.949 C37.66,39.944 37.558,39.939 37.46,39.934 C37.36,39.929 37.257,39.926 37.148,39.923 C37.04,39.92 36.918,39.919 36.785,39.919 L36.332,39.919 L36.332,42.165 C36.332,42.259 36.336,42.36 36.344,42.469 C36.351,42.578 36.36,42.682 36.37,42.781 L35.725,42.781 C35.754,42.568 35.77,42.363 35.77,42.165 L35.77,40.246 L35.77,40.246 Z M37.867,37.866 C37.823,37.995 37.797,38.104 37.789,38.196 C37.782,38.288 37.793,38.385 37.823,38.489 C37.565,38.508 37.35,38.517 37.174,38.515 C36.999,38.512 36.858,38.495 36.751,38.463 C36.645,38.431 36.57,38.379 36.525,38.307 C36.481,38.235 36.461,38.14 36.466,38.022 L36.496,36.925 L35.525,36.925 C35.525,37.191 35.505,37.425 35.465,37.625 C35.426,37.825 35.367,38.003 35.288,38.159 C35.209,38.314 35.108,38.454 34.987,38.578 C34.866,38.701 34.722,38.82 34.554,38.934 L34.468,38.8 L34.379,38.696 L34.272,38.607 L34.124,38.503 C34.297,38.41 34.441,38.306 34.558,38.192 C34.673,38.079 34.764,37.94 34.828,37.777 C34.892,37.614 34.932,37.419 34.947,37.191 C34.961,36.964 34.954,36.687 34.924,36.361 C35.162,36.376 35.532,36.384 36.036,36.384 C36.53,36.384 36.901,36.376 37.148,36.361 C37.133,36.465 37.117,36.632 37.1,36.862 C37.082,37.091 37.069,37.34 37.059,37.606 L37.066,37.818 L37.159,37.922 C37.211,37.939 37.293,37.943 37.404,37.933 C37.515,37.923 37.669,37.901 37.867,37.866 L37.867,37.866 Z M37.378,41.817 C37.279,41.669 37.14,41.49 36.959,41.28 C36.779,41.07 36.592,40.871 36.399,40.683 L36.777,40.283 C36.852,40.357 36.934,40.438 37.026,40.527 C37.117,40.616 37.21,40.705 37.304,40.794 C37.397,40.883 37.489,40.968 37.578,41.05 L37.815,41.261 L37.378,41.817 L37.378,41.817 Z M38.905,37.103 C38.86,37.127 38.838,37.199 38.838,37.317 L38.838,40.297 C38.838,40.446 38.841,40.598 38.846,40.753 C38.851,40.909 38.86,41.078 38.875,41.261 L38.215,41.261 C38.226,41.073 38.233,40.903 38.238,40.75 C38.243,40.597 38.245,40.446 38.245,40.297 L38.245,37.74 C38.245,37.552 38.243,37.392 38.238,37.258 C38.233,37.125 38.226,37.004 38.215,36.895 C38.329,36.92 38.434,36.936 38.531,36.943 C38.627,36.951 38.739,36.954 38.868,36.954 L38.975,37.002 L38.905,37.103 L38.905,37.103 Z M40.276,36.235 L40.213,36.32 L40.202,36.457 L40.202,41.958 C40.202,42.091 40.192,42.201 40.172,42.288 L40.021,42.506 C39.939,42.565 39.818,42.615 39.657,42.655 C39.497,42.694 39.278,42.731 39.001,42.766 C39.001,42.623 38.988,42.495 38.96,42.384 C38.933,42.273 38.88,42.143 38.801,41.995 C38.974,42.019 39.111,42.032 39.212,42.032 C39.314,42.032 39.392,42.022 39.446,42.002 L39.554,41.914 L39.58,41.758 L39.58,37.288 C39.58,36.986 39.577,36.728 39.572,36.513 C39.567,36.298 39.557,36.137 39.543,36.028 C39.641,36.047 39.75,36.061 39.869,36.068 C39.987,36.076 40.103,36.075 40.217,36.065 L40.343,36.117 L40.276,36.235 L40.276,36.235 Z" id="Fill-19" fill="#FFFFFF" sketch:type="MSShapeGroup"></path>
                <path d="M44.383,37.221 C44.126,37.246 43.873,37.267 43.623,37.284 C43.374,37.302 43.141,37.316 42.926,37.329 C42.711,37.341 42.519,37.351 42.348,37.358 C42.178,37.366 42.041,37.37 41.937,37.37 C41.912,37.241 41.882,37.132 41.848,37.043 C41.813,36.954 41.764,36.858 41.699,36.754 C41.789,36.769 41.927,36.776 42.115,36.776 C42.302,36.776 42.523,36.773 42.774,36.765 C43.026,36.758 43.301,36.747 43.597,36.732 C43.894,36.717 44.195,36.697 44.502,36.673 C44.684,36.658 44.882,36.637 45.094,36.61 C45.307,36.582 45.52,36.55 45.732,36.513 C45.944,36.476 46.149,36.436 46.347,36.394 C46.545,36.353 46.725,36.31 46.888,36.265 C46.918,36.354 46.961,36.452 47.018,36.558 C47.075,36.664 47.155,36.791 47.259,36.94 C47.328,37.033 47.298,37.068 47.17,37.043 L46.918,37.017 C46.834,37.015 46.718,37.017 46.569,37.025 C46.421,37.032 46.225,37.047 45.98,37.069 C45.736,37.091 45.416,37.123 45.021,37.162 L45.021,38.222 C45.46,38.217 45.835,38.209 46.143,38.2 C46.452,38.19 46.723,38.172 46.955,38.148 L46.955,38.778 C46.732,38.758 46.463,38.745 46.147,38.737 C45.831,38.729 45.455,38.728 45.021,38.733 L45.021,39.712 C45.302,39.707 45.58,39.701 45.854,39.693 C46.128,39.686 46.389,39.678 46.636,39.671 C46.883,39.664 47.111,39.655 47.318,39.645 C47.526,39.635 47.706,39.625 47.859,39.615 L47.859,40.26 C47.706,40.25 47.524,40.242 47.315,40.234 C47.105,40.227 46.876,40.221 46.629,40.216 C46.382,40.211 46.122,40.208 45.851,40.208 L45.021,40.208 L45.021,42.136 C45.021,42.229 45.007,42.309 44.979,42.373 C44.952,42.437 44.889,42.493 44.791,42.54 C44.691,42.586 44.548,42.626 44.36,42.658 C44.173,42.69 43.916,42.719 43.59,42.744 C43.545,42.477 43.441,42.22 43.278,41.973 C43.511,42.002 43.7,42.021 43.845,42.028 C43.991,42.036 44.103,42.027 44.183,42.002 L44.342,41.873 C44.369,41.811 44.383,41.726 44.383,41.617 L44.383,40.208 C44.062,40.213 43.745,40.218 43.434,40.223 C43.123,40.228 42.83,40.234 42.556,40.242 C42.281,40.249 42.034,40.258 41.815,40.268 C41.594,40.278 41.415,40.288 41.277,40.297 L41.277,39.66 C41.415,39.67 41.596,39.68 41.818,39.69 C42.041,39.7 42.289,39.706 42.563,39.708 C42.837,39.71 43.129,39.713 43.438,39.715 C43.747,39.718 44.062,39.717 44.383,39.712 L44.383,38.726 C43.908,38.726 43.483,38.729 43.108,38.737 C42.732,38.745 42.436,38.758 42.218,38.778 L42.218,38.163 C42.446,38.187 42.743,38.205 43.111,38.214 C43.479,38.225 43.903,38.227 44.383,38.222 L44.383,37.221" id="Fill-20" fill="#FFFFFF" sketch:type="MSShapeGroup"></path>
                <path d="M50.172,42.18 L50.072,42.28 L49.953,42.414 L49.835,42.551 L49.75,42.669 C49.685,42.57 49.615,42.473 49.538,42.376 C49.461,42.28 49.377,42.185 49.283,42.091 C49.381,42.007 49.463,41.894 49.527,41.75 C49.591,41.607 49.624,41.434 49.624,41.231 L49.624,38.77 C49.356,38.77 49.143,38.778 48.982,38.792 C48.822,38.808 48.682,38.83 48.564,38.859 L48.564,38.155 C48.677,38.17 48.803,38.18 48.941,38.185 C49.08,38.19 49.241,38.192 49.423,38.192 C49.596,38.192 49.753,38.188 49.894,38.181 C50.035,38.174 50.162,38.165 50.276,38.155 C50.256,38.269 50.241,38.407 50.231,38.57 C50.221,38.733 50.216,38.901 50.216,39.074 L50.216,41.283 C50.379,41.155 50.535,41.025 50.684,40.894 C50.832,40.763 50.955,40.646 51.054,40.542 C51.079,40.656 51.113,40.777 51.158,40.905 C51.202,41.034 51.244,41.133 51.284,41.202 L50.172,42.18 L50.172,42.18 Z M49.95,37.562 C49.88,37.359 49.784,37.146 49.661,36.921 C49.537,36.696 49.403,36.49 49.26,36.302 L49.876,35.976 C49.999,36.164 50.127,36.366 50.257,36.583 C50.388,36.801 50.503,36.999 50.602,37.177 L49.95,37.562 L49.95,37.562 Z M54.138,37.073 L52.574,37.073 C52.485,37.073 52.385,37.076 52.273,37.081 C52.162,37.085 52.052,37.093 51.944,37.103 C51.835,37.112 51.733,37.123 51.64,37.136 C51.546,37.148 51.472,37.162 51.418,37.177 L51.418,36.361 C51.556,36.401 51.761,36.427 52.033,36.439 C52.304,36.452 52.665,36.457 53.115,36.457 C53.555,36.457 53.904,36.45 54.164,36.435 C54.423,36.42 54.629,36.396 54.783,36.361 C54.768,36.46 54.758,36.561 54.753,36.665 C54.748,36.769 54.746,36.89 54.746,37.028 L54.746,38.422 C54.746,38.635 54.75,38.833 54.757,39.019 C54.764,39.204 54.773,39.4 54.783,39.608 L54.138,39.608 L54.138,39.23 L52.248,39.23 L52.248,41.395 C52.248,41.528 52.256,41.635 52.273,41.717 L52.418,41.902 C52.497,41.944 52.616,41.972 52.774,41.984 C52.932,41.996 53.152,42.002 53.434,42.002 C53.676,42.002 53.868,41.992 54.012,41.973 C54.155,41.953 54.269,41.907 54.353,41.835 C54.436,41.764 54.502,41.658 54.549,41.517 C54.596,41.376 54.642,41.182 54.687,40.935 C54.8,41.049 54.918,41.143 55.042,41.217 C55.166,41.29 55.282,41.343 55.391,41.372 C55.302,41.649 55.219,41.868 55.142,42.028 C55.065,42.189 54.963,42.309 54.835,42.388 C54.706,42.467 54.533,42.516 54.316,42.536 C54.098,42.556 53.804,42.565 53.434,42.565 C53.019,42.565 52.691,42.558 52.451,42.543 C52.211,42.529 52.031,42.498 51.91,42.451 C51.789,42.404 51.712,42.334 51.681,42.243 C51.648,42.152 51.632,42.029 51.632,41.876 L51.632,39.282 C51.632,39.114 51.63,38.984 51.625,38.893 C51.62,38.801 51.61,38.714 51.595,38.629 L51.762,38.652 L51.966,38.666 C52.045,38.671 52.136,38.674 52.24,38.674 L52.626,38.674 L54.138,38.674 L54.138,37.073 L54.138,37.073 Z" id="Fill-21" fill="#FFFFFF" sketch:type="MSShapeGroup"></path>
            </g>
        </g>
    </g>
</svg>