<?xml version="1.0" encoding="UTF-8" standalone="no"?>
<svg width="120px" height="120px" viewBox="0 0 120 120" version="1.1" xmlns="http://www.w3.org/2000/svg" xmlns:xlink="http://www.w3.org/1999/xlink" xmlns:sketch="http://www.bohemiancoding.com/sketch/ns">
    <!-- Generator: Sketch 3.3.2 (12043) - http://www.bohemiancoding.com/sketch -->
    <title>Mobile Portrait Copy 4</title>
    <desc>Created with Sketch.</desc>
    <defs></defs>
    <g id="basic" stroke="none" stroke-width="1" fill="none" fill-rule="evenodd" sketch:type="MSPage">
        <g id="Mobile-Portrait-Copy-4" sketch:type="MSArtboardGroup">
            <g id="Imported-Layers" sketch:type="MSLayerGroup" transform="translate(21.000000, 66.000000)">
                <path d="M19.417,26.061 C19.214,26.574 19.011,27.037 18.808,27.448 C18.605,27.86 18.388,28.248 18.158,28.611 C17.928,28.974 17.674,29.322 17.396,29.653 C17.118,29.984 16.803,30.332 16.45,30.695 C16.343,30.449 16.215,30.241 16.065,30.07 C15.915,29.899 15.723,29.755 15.488,29.637 C16.183,29.177 16.803,28.611 17.349,27.937 C17.894,27.264 18.428,26.403 18.952,25.355 L18.07,25.355 C17.813,25.355 17.572,25.358 17.349,25.363 C17.124,25.369 16.91,25.377 16.707,25.387 C16.504,25.398 16.301,25.409 16.098,25.419 L16.098,24.121 C16.332,24.142 16.563,24.161 16.787,24.176 C17.012,24.192 17.249,24.206 17.501,24.217 C17.752,24.228 18.029,24.238 18.334,24.248 C18.64,24.259 18.994,24.265 19.401,24.265 C19.401,23.923 19.396,23.591 19.385,23.27 C19.374,22.95 19.358,22.725 19.337,22.597 C19.529,22.619 19.767,22.632 20.051,22.637 C20.334,22.643 20.571,22.645 20.764,22.645 C20.914,22.645 21.005,22.675 21.037,22.733 C21.068,22.792 21.01,22.853 20.86,22.918 C20.71,22.982 20.636,23.1 20.636,23.27 L20.636,24.265 C21.01,24.265 21.339,24.259 21.622,24.248 C21.905,24.238 22.164,24.228 22.399,24.217 C22.635,24.206 22.859,24.192 23.073,24.176 C23.287,24.161 23.506,24.142 23.731,24.121 L23.731,25.419 C23.506,25.409 23.287,25.398 23.073,25.387 C22.859,25.377 22.635,25.369 22.399,25.363 C22.164,25.358 21.902,25.355 21.614,25.355 L20.636,25.355 L20.636,30.214 C20.636,30.418 20.644,30.637 20.66,30.872 C20.676,31.107 20.694,31.332 20.716,31.545 L19.32,31.545 C19.385,31.085 19.417,30.642 19.417,30.214 L19.417,26.061 L19.417,26.061 Z M23.955,20.913 C23.859,21.191 23.803,21.429 23.787,21.626 C23.771,21.825 23.795,22.036 23.859,22.26 C23.303,22.303 22.835,22.322 22.456,22.316 C22.076,22.311 21.772,22.273 21.542,22.204 C21.312,22.135 21.148,22.023 21.053,21.867 C20.956,21.712 20.914,21.506 20.925,21.25 L20.988,18.877 L18.888,18.877 C18.888,19.454 18.845,19.959 18.76,20.392 C18.674,20.825 18.546,21.21 18.375,21.546 C18.203,21.883 17.987,22.185 17.725,22.453 C17.463,22.72 17.15,22.977 16.787,23.222 C16.723,23.116 16.661,23.019 16.602,22.934 C16.544,22.848 16.479,22.773 16.41,22.709 C16.341,22.645 16.263,22.581 16.178,22.517 C16.092,22.453 15.985,22.378 15.856,22.292 C16.231,22.089 16.544,21.865 16.795,21.619 C17.046,21.373 17.241,21.073 17.38,20.721 C17.519,20.368 17.604,19.946 17.637,19.454 C17.669,18.962 17.653,18.363 17.589,17.658 C18.102,17.69 18.903,17.706 19.994,17.706 C21.064,17.706 21.865,17.69 22.399,17.658 C22.368,17.882 22.333,18.243 22.296,18.74 C22.258,19.237 22.229,19.774 22.207,20.352 C22.196,20.544 22.202,20.697 22.224,20.809 C22.245,20.921 22.312,20.996 22.424,21.033 C22.536,21.071 22.713,21.079 22.953,21.057 C23.193,21.036 23.527,20.988 23.955,20.913 L23.955,20.913 Z M22.897,29.46 C22.683,29.14 22.381,28.752 21.991,28.298 C21.601,27.844 21.197,27.414 20.78,27.007 L21.598,26.141 C21.759,26.301 21.937,26.478 22.135,26.67 C22.333,26.863 22.533,27.055 22.736,27.248 C22.94,27.44 23.138,27.625 23.33,27.801 C23.523,27.977 23.693,28.129 23.843,28.258 L22.897,29.46 L22.897,29.46 Z M26.2,19.261 C26.105,19.315 26.056,19.47 26.056,19.726 L26.056,26.173 C26.056,26.494 26.062,26.823 26.072,27.159 C26.083,27.496 26.105,27.862 26.137,28.258 L24.709,28.258 C24.731,27.852 24.746,27.483 24.757,27.151 C24.768,26.82 24.773,26.494 24.773,26.173 L24.773,20.641 C24.773,20.234 24.768,19.887 24.757,19.598 C24.746,19.31 24.731,19.047 24.709,18.812 C24.955,18.866 25.183,18.9 25.391,18.916 C25.599,18.933 25.842,18.94 26.12,18.94 C26.259,18.94 26.337,18.976 26.352,19.045 C26.369,19.114 26.318,19.186 26.2,19.261 L26.2,19.261 Z M29.167,17.385 C29.093,17.449 29.047,17.511 29.031,17.569 C29.015,17.628 29.007,17.727 29.007,17.866 L29.007,29.765 C29.007,30.054 28.985,30.292 28.942,30.479 C28.899,30.666 28.79,30.824 28.614,30.952 C28.438,31.08 28.176,31.187 27.828,31.273 C27.481,31.358 27.008,31.439 26.409,31.513 C26.409,31.203 26.379,30.928 26.32,30.688 C26.262,30.447 26.147,30.166 25.976,29.846 C26.35,29.899 26.647,29.926 26.866,29.926 C27.085,29.926 27.253,29.904 27.371,29.861 C27.488,29.819 27.566,29.755 27.604,29.669 C27.641,29.583 27.66,29.471 27.66,29.332 L27.66,19.662 C27.66,19.01 27.654,18.451 27.644,17.986 C27.633,17.521 27.611,17.171 27.58,16.936 C27.793,16.979 28.028,17.008 28.285,17.024 C28.542,17.04 28.793,17.038 29.039,17.016 C29.199,17.005 29.29,17.043 29.312,17.128 C29.333,17.214 29.285,17.299 29.167,17.385 L29.167,17.385 Z" id="Fill-1" fill="#FFFFFF" sketch:type="MSShapeGroup"></path>
                <path d="M38.052,19.518 C37.496,19.571 36.948,19.617 36.408,19.654 C35.868,19.692 35.366,19.724 34.9,19.751 C34.435,19.777 34.019,19.798 33.65,19.815 C33.281,19.831 32.984,19.838 32.76,19.838 C32.706,19.56 32.643,19.325 32.567,19.133 C32.492,18.94 32.386,18.732 32.247,18.507 C32.44,18.54 32.738,18.556 33.144,18.556 C33.551,18.556 34.026,18.548 34.572,18.532 C35.117,18.516 35.711,18.492 36.353,18.459 C36.993,18.427 37.646,18.385 38.309,18.331 C38.704,18.299 39.132,18.254 39.592,18.195 C40.051,18.136 40.511,18.066 40.971,17.986 C41.431,17.906 41.874,17.821 42.302,17.73 C42.729,17.639 43.119,17.545 43.473,17.449 C43.536,17.642 43.63,17.852 43.753,18.082 C43.876,18.313 44.05,18.588 44.274,18.908 C44.424,19.112 44.359,19.186 44.082,19.133 C43.899,19.101 43.718,19.082 43.536,19.077 C43.355,19.072 43.104,19.077 42.783,19.093 C42.462,19.109 42.037,19.141 41.508,19.189 C40.979,19.237 40.286,19.304 39.432,19.39 L39.432,21.683 C40.383,21.672 41.192,21.656 41.86,21.635 C42.528,21.613 43.114,21.576 43.617,21.523 L43.617,22.886 C43.136,22.843 42.553,22.814 41.869,22.797 C41.185,22.781 40.372,22.779 39.432,22.79 L39.432,24.906 C40.041,24.896 40.642,24.882 41.235,24.866 C41.829,24.85 42.393,24.834 42.927,24.818 C43.462,24.802 43.953,24.783 44.402,24.762 C44.852,24.741 45.242,24.719 45.573,24.698 L45.573,26.093 C45.242,26.072 44.849,26.053 44.394,26.037 C43.94,26.021 43.445,26.007 42.911,25.997 C42.376,25.986 41.815,25.98 41.228,25.98 L39.432,25.98 L39.432,30.15 C39.432,30.353 39.401,30.524 39.343,30.664 C39.284,30.802 39.148,30.922 38.934,31.024 C38.72,31.125 38.41,31.211 38.004,31.281 C37.598,31.35 37.042,31.412 36.336,31.465 C36.24,30.888 36.016,30.332 35.662,29.797 C36.165,29.861 36.574,29.901 36.89,29.917 C37.204,29.934 37.448,29.915 37.619,29.861 C37.79,29.808 37.905,29.715 37.964,29.581 C38.023,29.447 38.052,29.263 38.052,29.028 L38.052,25.98 C37.356,25.991 36.673,26.002 35.999,26.013 C35.326,26.023 34.692,26.037 34.099,26.053 C33.506,26.069 32.971,26.087 32.495,26.109 C32.019,26.13 31.632,26.152 31.333,26.173 L31.333,24.794 C31.632,24.815 32.023,24.837 32.503,24.858 C32.984,24.879 33.521,24.893 34.115,24.898 C34.708,24.904 35.339,24.909 36.007,24.914 C36.676,24.92 37.356,24.917 38.052,24.906 L38.052,22.773 C37.025,22.773 36.106,22.781 35.294,22.797 C34.481,22.814 33.84,22.843 33.369,22.886 L33.369,21.555 C33.861,21.608 34.505,21.645 35.302,21.667 C36.098,21.689 37.015,21.693 38.052,21.683 L38.052,19.518" id="Fill-2" fill="#FFFFFF" sketch:type="MSShapeGroup"></path>
                <path d="M54.393,24.585 C55.462,24.532 56.448,24.481 57.352,24.433 C58.255,24.385 59.021,24.335 59.653,24.281 L59.717,25.452 C59.075,25.419 58.298,25.409 57.384,25.419 C56.47,25.43 55.473,25.457 54.393,25.5 L54.393,27.007 C55.804,26.964 57.018,26.914 58.033,26.854 C59.049,26.796 59.935,26.724 60.695,26.638 L60.76,27.873 C59.979,27.852 59.075,27.849 58.049,27.865 C57.023,27.881 55.804,27.916 54.393,27.969 L54.393,29.156 C54.393,29.37 54.409,29.536 54.441,29.653 C54.473,29.771 54.562,29.859 54.705,29.917 C54.85,29.976 55.071,30.014 55.371,30.03 C55.67,30.046 56.087,30.054 56.622,30.054 C57.285,30.054 57.814,30.038 58.21,30.006 C58.605,29.974 58.918,29.899 59.148,29.781 C59.378,29.664 59.549,29.49 59.661,29.26 C59.773,29.03 59.883,28.723 59.989,28.338 C60.16,28.53 60.358,28.705 60.583,28.859 C60.808,29.014 61.032,29.14 61.257,29.236 C61.096,29.664 60.933,30.003 60.768,30.254 C60.602,30.505 60.366,30.695 60.062,30.824 C59.757,30.952 59.337,31.035 58.803,31.072 C58.269,31.109 57.552,31.128 56.654,31.128 C55.777,31.128 55.099,31.118 54.617,31.096 C54.137,31.075 53.78,31.013 53.551,30.912 C53.321,30.81 53.185,30.655 53.142,30.447 C53.1,30.238 53.078,29.947 53.078,29.573 L53.078,28.017 C51.912,28.071 50.881,28.127 49.982,28.185 C49.085,28.245 48.299,28.306 47.625,28.37 L47.562,27.135 C48.267,27.157 49.065,27.159 49.959,27.143 C50.852,27.127 51.891,27.103 53.078,27.071 L53.078,25.548 C52.03,25.59 51.135,25.636 50.392,25.684 C49.648,25.732 48.973,25.783 48.363,25.836 L48.299,24.682 C48.608,24.692 48.925,24.701 49.245,24.706 C49.565,24.711 49.913,24.711 50.287,24.706 C50.661,24.701 51.076,24.692 51.53,24.682 C51.984,24.671 52.501,24.655 53.078,24.634 L53.078,23.351 C52.201,23.404 51.426,23.447 50.753,23.479 C50.079,23.511 49.507,23.538 49.036,23.559 C48.983,23.377 48.905,23.172 48.804,22.942 C48.702,22.712 48.608,22.522 48.523,22.373 C49.025,22.404 49.731,22.42 50.641,22.42 C51.549,22.42 52.64,22.383 53.912,22.308 C54.382,22.276 54.857,22.233 55.339,22.18 C55.82,22.126 56.277,22.065 56.71,21.996 C57.144,21.926 57.544,21.854 57.913,21.779 C58.281,21.704 58.595,21.635 58.851,21.57 C58.958,21.795 59.081,22.003 59.22,22.196 C59.358,22.388 59.503,22.549 59.653,22.677 C59.749,22.763 59.786,22.84 59.765,22.91 C59.743,22.979 59.674,23.003 59.557,22.982 C59.449,22.971 59.3,22.966 59.107,22.966 C58.915,22.966 58.629,22.977 58.25,22.998 C57.87,23.019 57.373,23.051 56.758,23.094 C56.144,23.137 55.356,23.19 54.393,23.254 L54.393,24.585 L54.393,24.585 Z M50.287,19.55 C49.945,20.053 49.664,20.435 49.445,20.697 C49.227,20.958 49.015,21.186 48.813,21.378 C48.662,21.228 48.497,21.103 48.315,21.001 C48.133,20.9 47.968,20.822 47.817,20.769 C48.47,20.191 49.021,19.56 49.47,18.877 C49.919,18.192 50.255,17.481 50.48,16.744 C50.736,16.861 51.009,16.968 51.298,17.064 C51.586,17.161 51.854,17.225 52.1,17.257 C52.217,17.278 52.271,17.324 52.26,17.393 C52.249,17.462 52.185,17.524 52.067,17.578 C51.896,17.652 51.72,17.77 51.538,17.93 C51.356,18.09 51.153,18.315 50.929,18.603 L52.389,18.603 C52.901,18.603 53.361,18.596 53.768,18.58 C54.174,18.563 54.468,18.545 54.649,18.523 L54.649,19.63 C54.468,19.609 54.19,19.59 53.815,19.574 C53.441,19.558 53.014,19.55 52.532,19.55 C52.757,20.341 52.966,20.94 53.158,21.346 L51.843,21.586 C51.81,21.373 51.757,21.103 51.683,20.777 C51.607,20.451 51.495,20.042 51.346,19.55 L50.287,19.55 L50.287,19.55 Z M56.862,19.518 C56.574,20.01 56.328,20.421 56.125,20.752 C55.922,21.084 55.75,21.357 55.611,21.57 C55.43,21.421 55.248,21.309 55.066,21.234 C54.885,21.159 54.671,21.1 54.425,21.057 C54.628,20.876 54.85,20.616 55.091,20.28 C55.331,19.943 55.56,19.574 55.78,19.173 C55.999,18.772 56.199,18.361 56.382,17.938 C56.563,17.516 56.696,17.118 56.782,16.744 C57.039,16.829 57.325,16.909 57.641,16.984 C57.955,17.059 58.226,17.112 58.45,17.145 C58.567,17.166 58.629,17.198 58.635,17.241 C58.64,17.284 58.584,17.332 58.466,17.385 C58.349,17.449 58.196,17.585 58.009,17.794 C57.822,18.002 57.627,18.262 57.424,18.572 L59.284,18.572 C59.797,18.572 60.235,18.563 60.599,18.548 C60.962,18.532 61.235,18.513 61.417,18.492 L61.417,19.598 C61.235,19.577 60.941,19.558 60.535,19.542 C60.129,19.526 59.626,19.518 59.027,19.518 C59.144,19.892 59.241,20.197 59.316,20.432 C59.391,20.667 59.471,20.892 59.557,21.105 L58.21,21.314 C58.189,21.1 58.153,20.865 58.106,20.608 C58.058,20.352 57.975,19.988 57.856,19.518 L56.862,19.518 L56.862,19.518 Z" id="Fill-3" fill="#FFFFFF" sketch:type="MSShapeGroup"></path>
                <path d="M66.613,30.247 C66.549,30.3 66.477,30.372 66.397,30.463 C66.316,30.554 66.231,30.65 66.14,30.751 C66.049,30.853 65.964,30.952 65.884,31.048 C65.804,31.145 65.742,31.23 65.699,31.305 C65.56,31.091 65.407,30.88 65.242,30.671 C65.076,30.463 64.892,30.257 64.688,30.054 C64.902,29.872 65.079,29.626 65.218,29.316 C65.356,29.006 65.427,28.632 65.427,28.194 L65.427,22.87 C64.85,22.87 64.387,22.886 64.039,22.918 C63.691,22.95 63.39,22.998 63.133,23.062 L63.133,21.539 C63.379,21.57 63.651,21.592 63.951,21.602 C64.25,21.613 64.598,21.619 64.993,21.619 C65.367,21.619 65.707,21.611 66.012,21.595 C66.316,21.579 66.592,21.56 66.838,21.539 C66.795,21.785 66.763,22.083 66.741,22.436 C66.72,22.79 66.709,23.153 66.709,23.527 L66.709,28.306 C67.063,28.028 67.399,27.748 67.72,27.464 C68.04,27.181 68.308,26.927 68.522,26.702 C68.575,26.948 68.649,27.21 68.746,27.488 C68.843,27.766 68.933,27.98 69.019,28.129 L66.613,30.247 L66.613,30.247 Z M66.132,20.255 C65.982,19.817 65.773,19.355 65.507,18.868 C65.239,18.382 64.95,17.935 64.641,17.529 L65.972,16.824 C66.239,17.23 66.515,17.669 66.798,18.139 C67.081,18.609 67.329,19.037 67.543,19.421 L66.132,20.255 L66.132,20.255 Z M75.192,19.197 L71.81,19.197 C71.616,19.197 71.4,19.203 71.159,19.213 C70.919,19.224 70.681,19.24 70.446,19.261 C70.211,19.283 69.991,19.307 69.788,19.334 C69.585,19.36 69.425,19.39 69.308,19.421 L69.308,17.658 C69.606,17.743 70.051,17.799 70.639,17.826 C71.227,17.852 72.007,17.866 72.98,17.866 C73.932,17.866 74.688,17.85 75.249,17.818 C75.81,17.786 76.257,17.732 76.588,17.658 C76.556,17.872 76.534,18.09 76.523,18.315 C76.513,18.54 76.508,18.802 76.508,19.101 L76.508,22.116 C76.508,22.576 76.516,23.006 76.532,23.407 C76.548,23.808 76.566,24.232 76.588,24.682 L75.192,24.682 L75.192,23.864 L71.104,23.864 L71.104,28.546 C71.104,28.835 71.122,29.068 71.159,29.244 C71.197,29.42 71.301,29.554 71.473,29.645 C71.644,29.736 71.899,29.795 72.242,29.821 C72.584,29.848 73.06,29.861 73.669,29.861 C74.193,29.861 74.61,29.84 74.92,29.797 C75.231,29.755 75.476,29.656 75.658,29.5 C75.84,29.346 75.981,29.116 76.083,28.811 C76.185,28.506 76.283,28.087 76.38,27.552 C76.625,27.798 76.882,28.001 77.149,28.162 C77.416,28.322 77.668,28.434 77.903,28.499 C77.711,29.097 77.531,29.57 77.366,29.917 C77.2,30.265 76.979,30.524 76.7,30.695 C76.422,30.866 76.048,30.973 75.578,31.016 C75.107,31.059 74.471,31.08 73.669,31.08 C72.772,31.08 72.063,31.065 71.545,31.032 C71.025,31 70.636,30.933 70.374,30.832 C70.111,30.73 69.946,30.581 69.877,30.383 C69.807,30.185 69.773,29.92 69.773,29.589 L69.773,23.976 C69.773,23.613 69.767,23.332 69.757,23.134 C69.746,22.936 69.725,22.747 69.692,22.565 C69.81,22.586 69.93,22.602 70.053,22.613 C70.176,22.624 70.323,22.634 70.494,22.645 C70.665,22.656 70.863,22.661 71.088,22.661 L71.921,22.661 L75.192,22.661 L75.192,19.197 L75.192,19.197 Z" id="Fill-4" fill="#FFFFFF" sketch:type="MSShapeGroup"></path>
                <path d="M14.398,0.941 L24.586,0.941 L24.586,11.128 L14.398,11.128 L14.398,0.941 Z" id="Fill-5" fill="#E7E5E1" sketch:type="MSShapeGroup"></path>
                <path d="M16.877,9.198 L16.877,2.872 L19.056,2.872 C19.548,2.872 19.923,2.901 20.182,2.961 C20.544,3.045 20.853,3.197 21.109,3.415 C21.443,3.697 21.693,4.058 21.857,4.496 C22.023,4.935 22.107,5.436 22.107,6 C22.107,6.48 22.05,6.906 21.938,7.277 C21.826,7.648 21.683,7.956 21.506,8.198 C21.331,8.442 21.139,8.632 20.931,8.771 C20.722,8.913 20.471,9.018 20.175,9.09 C19.88,9.162 19.541,9.198 19.159,9.198 L16.877,9.198 L16.877,9.198 Z M17.713,8.451 L19.065,8.451 C19.481,8.451 19.809,8.413 20.046,8.335 C20.282,8.256 20.473,8.148 20.613,8.007 C20.812,7.809 20.967,7.541 21.076,7.206 C21.188,6.871 21.243,6.465 21.243,5.986 C21.243,5.325 21.135,4.816 20.918,4.462 C20.7,4.106 20.437,3.869 20.125,3.747 C19.901,3.661 19.54,3.617 19.043,3.617 L17.713,3.617 L17.713,8.451 L17.713,8.451 Z" id="Fill-6" fill="#B9BBBA" sketch:type="MSShapeGroup"></path>
                <path d="M26.035,0.941 L36.222,0.941 L36.222,11.128 L26.035,11.128 L26.035,0.941 Z" id="Fill-7" fill="#E7E5E1" sketch:type="MSShapeGroup"></path>
                <path d="M32.78,2.817 L33.617,2.817 L33.617,6.472 C33.617,7.107 33.545,7.613 33.401,7.987 C33.257,8.362 32.998,8.666 32.623,8.899 C32.247,9.135 31.755,9.251 31.144,9.251 C30.551,9.251 30.067,9.149 29.69,8.945 C29.314,8.741 29.045,8.445 28.883,8.058 C28.723,7.671 28.643,7.144 28.643,6.472 L28.643,2.817 L29.479,2.817 L29.479,6.468 C29.479,7.018 29.53,7.422 29.633,7.683 C29.734,7.944 29.909,8.145 30.158,8.285 C30.407,8.425 30.712,8.497 31.07,8.497 C31.688,8.497 32.125,8.356 32.387,8.078 C32.649,7.798 32.78,7.262 32.78,6.468 L32.78,2.817" id="Fill-8" fill="#B9BBBA" sketch:type="MSShapeGroup"></path>
                <path d="M37.674,0.941 L47.862,0.941 L47.862,11.128 L37.674,11.128 L37.674,0.941 Z" id="Fill-9" fill="#E7E5E1" sketch:type="MSShapeGroup"></path>
                <path d="M39.743,6.119 C39.743,5.069 40.023,4.247 40.588,3.652 C41.151,3.058 41.88,2.761 42.771,2.761 C43.356,2.761 43.882,2.901 44.351,3.18 C44.82,3.459 45.178,3.847 45.423,4.348 C45.67,4.846 45.793,5.412 45.793,6.045 C45.793,6.687 45.664,7.261 45.404,7.767 C45.146,8.273 44.779,8.656 44.304,8.917 C43.829,9.177 43.316,9.308 42.767,9.308 C42.171,9.308 41.639,9.164 41.17,8.876 C40.701,8.588 40.347,8.195 40.106,7.698 C39.863,7.201 39.743,6.674 39.743,6.119 L39.743,6.119 Z M40.606,6.132 C40.606,6.895 40.812,7.494 41.221,7.933 C41.631,8.372 42.144,8.592 42.763,8.592 C43.394,8.592 43.911,8.37 44.318,7.927 C44.727,7.483 44.93,6.855 44.93,6.041 C44.93,5.526 44.842,5.076 44.669,4.692 C44.494,4.308 44.24,4.01 43.904,3.799 C43.569,3.587 43.193,3.482 42.776,3.482 C42.184,3.482 41.673,3.685 41.246,4.092 C40.819,4.5 40.606,5.18 40.606,6.132 L40.606,6.132 Z" id="Fill-10" fill="#B9BBBA" sketch:type="MSShapeGroup"></path>
                <path d="M55.706,6.035 L92.238,6.035 L92.238,41.114 L0.884,41.114 L0.884,6.035 L9.641,6.035" id="Stroke-11" stroke="#FFFFFF" sketch:type="MSShapeGroup"></path>
            </g>
        </g>
    </g>
</svg>