<?xml version="1.0" encoding="UTF-8" standalone="no"?>
<svg width="120px" height="120px" viewBox="0 0 120 120" version="1.1" xmlns="http://www.w3.org/2000/svg" xmlns:xlink="http://www.w3.org/1999/xlink" xmlns:sketch="http://www.bohemiancoding.com/sketch/ns">
    <!-- Generator: Sketch 3.3.2 (12043) - http://www.bohemiancoding.com/sketch -->
    <title>Mobile Portrait Copy 7</title>
    <desc>Created with Sketch.</desc>
    <defs></defs>
    <g id="basic" stroke="none" stroke-width="1" fill="none" fill-rule="evenodd" sketch:type="MSPage">
        <g id="Mobile-Portrait-Copy-7" sketch:type="MSArtboardGroup">
            <g id="Imported-Layers" sketch:type="MSLayerGroup" transform="translate(22.000000, 44.000000)">
                <path d="M26.886,23.425 L26.886,20.044 L26.303,20.044 L26.303,19.53 L26.886,19.53 L26.886,19.116 C26.886,18.854 26.909,18.66 26.956,18.533 C27.02,18.362 27.131,18.223 27.292,18.117 C27.452,18.011 27.676,17.957 27.964,17.957 C28.15,17.957 28.356,17.98 28.58,18.023 L28.481,18.599 C28.344,18.574 28.215,18.563 28.093,18.563 C27.892,18.563 27.75,18.606 27.667,18.69 C27.584,18.776 27.543,18.936 27.543,19.171 L27.543,19.53 L28.302,19.53 L28.302,20.044 L27.543,20.044 L27.543,23.425 L26.886,23.425" id="Fill-1" fill="#FFFFFF" sketch:type="MSShapeGroup"></path>
                <path d="M28.808,23.425 L28.808,19.53 L29.401,19.53 L29.401,20.121 C29.553,19.845 29.693,19.662 29.821,19.574 C29.95,19.486 30.091,19.442 30.245,19.442 C30.467,19.442 30.693,19.514 30.923,19.655 L30.696,20.268 C30.535,20.172 30.374,20.124 30.212,20.124 C30.068,20.124 29.938,20.168 29.823,20.255 C29.708,20.342 29.626,20.462 29.578,20.616 C29.504,20.851 29.468,21.107 29.468,21.386 L29.468,23.425 L28.808,23.425" id="Fill-2" fill="#FFFFFF" sketch:type="MSShapeGroup"></path>
                <path d="M31.07,21.478 C31.07,20.757 31.271,20.223 31.671,19.875 C32.006,19.587 32.415,19.442 32.897,19.442 C33.432,19.442 33.869,19.618 34.209,19.969 C34.549,20.319 34.719,20.804 34.719,21.423 C34.719,21.924 34.644,22.318 34.493,22.606 C34.343,22.893 34.124,23.115 33.837,23.274 C33.55,23.434 33.236,23.513 32.897,23.513 C32.351,23.513 31.911,23.338 31.574,22.988 C31.238,22.639 31.07,22.136 31.07,21.478 L31.07,21.478 Z M31.748,21.478 C31.748,21.977 31.857,22.35 32.075,22.598 C32.293,22.846 32.566,22.97 32.897,22.97 C33.224,22.97 33.497,22.846 33.714,22.596 C33.932,22.347 34.041,21.967 34.041,21.456 C34.041,20.974 33.931,20.609 33.712,20.361 C33.494,20.113 33.222,19.989 32.897,19.989 C32.566,19.989 32.293,20.112 32.075,20.359 C31.857,20.606 31.748,20.978 31.748,21.478 L31.748,21.478 Z" id="Fill-3" fill="#FFFFFF" sketch:type="MSShapeGroup"></path>
                <path d="M35.493,23.425 L35.493,19.53 L36.083,19.53 L36.083,20.077 C36.205,19.886 36.368,19.732 36.571,19.616 C36.773,19.501 37.004,19.442 37.264,19.442 C37.552,19.442 37.789,19.502 37.973,19.622 C38.158,19.742 38.288,19.909 38.364,20.124 C38.672,19.67 39.073,19.442 39.567,19.442 C39.953,19.442 40.25,19.55 40.458,19.764 C40.665,19.978 40.77,20.307 40.77,20.752 L40.77,23.425 L40.113,23.425 L40.113,20.972 C40.113,20.708 40.092,20.518 40.049,20.401 C40.006,20.285 39.928,20.191 39.816,20.121 C39.704,20.05 39.572,20.015 39.42,20.015 C39.146,20.015 38.919,20.106 38.738,20.288 C38.557,20.47 38.467,20.762 38.467,21.162 L38.467,23.425 L37.807,23.425 L37.807,20.895 C37.807,20.602 37.753,20.381 37.645,20.234 C37.538,20.088 37.361,20.015 37.117,20.015 C36.931,20.015 36.76,20.064 36.602,20.161 C36.444,20.259 36.33,20.402 36.259,20.59 C36.188,20.778 36.153,21.05 36.153,21.404 L36.153,23.425 L35.493,23.425" id="Fill-4" fill="#FFFFFF" sketch:type="MSShapeGroup"></path>
                <path d="M45.69,21.675 C45.596,21.915 45.5,22.132 45.405,22.324 C45.31,22.518 45.209,22.699 45.102,22.869 C44.993,23.039 44.875,23.202 44.744,23.357 C44.613,23.513 44.467,23.675 44.301,23.846 C44.251,23.731 44.191,23.633 44.121,23.553 C44.051,23.473 43.961,23.405 43.851,23.35 C44.176,23.135 44.467,22.869 44.722,22.554 C44.977,22.238 45.228,21.835 45.473,21.345 L45.06,21.345 C44.94,21.345 44.826,21.346 44.722,21.349 C44.617,21.351 44.516,21.355 44.422,21.359 C44.326,21.364 44.23,21.369 44.136,21.375 L44.136,20.767 C44.246,20.776 44.353,20.785 44.459,20.793 C44.565,20.8 44.676,20.807 44.793,20.811 C44.91,20.816 45.041,20.821 45.184,20.826 C45.326,20.831 45.492,20.834 45.684,20.834 C45.684,20.674 45.68,20.519 45.676,20.368 C45.67,20.218 45.663,20.113 45.652,20.053 C45.743,20.063 45.855,20.069 45.987,20.071 C46.119,20.074 46.231,20.075 46.321,20.075 L46.449,20.116 L46.366,20.203 L46.262,20.368 L46.262,20.834 C46.436,20.834 46.59,20.831 46.723,20.826 C46.855,20.821 46.977,20.816 47.088,20.811 C47.197,20.807 47.303,20.8 47.402,20.793 C47.503,20.785 47.605,20.776 47.711,20.767 L47.711,21.375 C47.605,21.369 47.503,21.364 47.402,21.359 C47.303,21.355 47.197,21.351 47.088,21.349 C46.977,21.346 46.854,21.345 46.719,21.345 L46.262,21.345 L46.262,23.62 C46.262,23.715 46.266,23.817 46.272,23.928 C46.28,24.038 46.289,24.144 46.299,24.243 L45.645,24.243 C45.676,24.028 45.69,23.82 45.69,23.62 L45.69,21.675 L45.69,21.675 Z M47.816,19.265 C47.772,19.395 47.744,19.506 47.736,19.599 C47.73,19.691 47.74,19.79 47.772,19.896 C47.51,19.915 47.291,19.924 47.113,19.921 C46.935,19.919 46.793,19.901 46.685,19.869 C46.578,19.836 46.502,19.784 46.457,19.711 C46.412,19.639 46.392,19.542 46.397,19.422 L46.426,18.31 L45.443,18.31 C45.443,18.581 45.422,18.817 45.383,19.021 C45.342,19.223 45.282,19.403 45.202,19.56 C45.122,19.719 45.022,19.86 44.898,19.985 C44.775,20.11 44.629,20.23 44.459,20.346 L44.373,20.211 L44.282,20.106 L44.174,20.016 L44.023,19.91 C44.198,19.815 44.345,19.71 44.463,19.595 C44.58,19.48 44.672,19.339 44.736,19.174 C44.802,19.009 44.842,18.812 44.857,18.581 C44.872,18.351 44.864,18.07 44.834,17.739 C45.074,17.755 45.45,17.762 45.961,17.762 C46.461,17.762 46.837,17.755 47.088,17.739 C47.072,17.845 47.057,18.014 47.039,18.247 C47.022,18.479 47.008,18.731 46.997,19.001 C46.992,19.092 46.994,19.163 47.005,19.216 L47.099,19.32 C47.151,19.338 47.234,19.342 47.347,19.332 C47.459,19.322 47.615,19.299 47.816,19.265 L47.816,19.265 Z M47.32,23.268 C47.221,23.117 47.078,22.935 46.897,22.723 C46.713,22.51 46.523,22.309 46.328,22.118 L46.712,21.713 C46.787,21.788 46.871,21.87 46.963,21.96 C47.057,22.051 47.15,22.141 47.245,22.231 C47.34,22.321 47.433,22.407 47.523,22.49 L47.764,22.704 L47.32,23.268 L47.32,23.268 Z M48.867,18.49 C48.822,18.516 48.8,18.588 48.8,18.708 L48.8,21.728 C48.8,21.878 48.803,22.031 48.807,22.19 C48.812,22.347 48.822,22.519 48.838,22.704 L48.169,22.704 C48.179,22.514 48.187,22.341 48.191,22.185 C48.196,22.03 48.199,21.878 48.199,21.728 L48.199,19.137 C48.199,18.946 48.196,18.783 48.191,18.648 C48.187,18.514 48.179,18.391 48.169,18.28 C48.284,18.306 48.391,18.321 48.488,18.329 C48.586,18.337 48.699,18.341 48.83,18.341 L48.938,18.39 L48.867,18.49 L48.867,18.49 Z M50.257,17.612 L50.193,17.698 L50.182,17.837 L50.182,23.41 C50.182,23.545 50.172,23.656 50.151,23.744 L49.998,23.966 C49.915,24.025 49.792,24.075 49.629,24.116 C49.467,24.155 49.245,24.193 48.965,24.228 C48.965,24.083 48.951,23.954 48.924,23.842 C48.897,23.728 48.842,23.598 48.762,23.447 C48.937,23.473 49.076,23.485 49.179,23.485 C49.281,23.485 49.36,23.475 49.416,23.455 L49.524,23.364 L49.551,23.207 L49.551,18.679 C49.551,18.373 49.549,18.111 49.543,17.894 C49.538,17.676 49.528,17.512 49.514,17.401 C49.613,17.422 49.724,17.435 49.844,17.443 C49.964,17.45 50.082,17.449 50.197,17.44 L50.324,17.492 L50.257,17.612 L50.257,17.612 Z" id="Fill-5" fill="#FFFFFF" sketch:type="MSShapeGroup"></path>
                <path d="M54.418,18.611 C54.157,18.636 53.9,18.657 53.647,18.675 C53.394,18.692 53.16,18.707 52.941,18.72 C52.724,18.732 52.529,18.742 52.356,18.75 C52.184,18.757 52.045,18.761 51.94,18.761 C51.914,18.631 51.884,18.52 51.85,18.431 C51.815,18.341 51.764,18.243 51.699,18.138 C51.789,18.152 51.93,18.16 52.119,18.16 C52.31,18.16 52.532,18.156 52.787,18.149 C53.043,18.142 53.32,18.13 53.621,18.115 C53.922,18.101 54.227,18.08 54.537,18.055 C54.723,18.04 54.924,18.019 55.139,17.991 C55.353,17.964 55.568,17.932 55.785,17.894 C56,17.856 56.207,17.816 56.408,17.773 C56.607,17.731 56.791,17.687 56.955,17.642 C56.986,17.732 57.029,17.831 57.088,17.939 C57.144,18.047 57.227,18.175 57.332,18.325 C57.4,18.421 57.371,18.456 57.24,18.431 L56.986,18.404 C56.9,18.401 56.783,18.404 56.633,18.412 C56.482,18.419 56.283,18.435 56.035,18.457 C55.787,18.479 55.463,18.511 55.063,18.551 L55.063,19.625 C55.51,19.62 55.889,19.612 56.201,19.603 C56.514,19.592 56.787,19.575 57.023,19.55 L57.023,20.187 C56.799,20.168 56.525,20.154 56.205,20.147 C55.885,20.139 55.504,20.138 55.063,20.143 L55.063,21.134 C55.35,21.129 55.631,21.123 55.908,21.115 C56.185,21.108 56.449,21.101 56.701,21.093 C56.951,21.085 57.182,21.077 57.391,21.066 C57.602,21.057 57.785,21.047 57.94,21.036 L57.94,21.69 C57.785,21.68 57.6,21.671 57.387,21.664 C57.174,21.656 56.943,21.65 56.693,21.645 C56.443,21.64 56.18,21.638 55.904,21.638 L55.063,21.638 L55.063,23.59 C55.063,23.685 55.049,23.766 55.022,23.83 C54.994,23.896 54.93,23.952 54.83,23.999 C54.73,24.047 54.585,24.087 54.395,24.119 C54.205,24.152 53.944,24.181 53.613,24.206 C53.568,23.935 53.463,23.675 53.299,23.425 C53.533,23.455 53.725,23.474 53.873,23.481 C54.021,23.488 54.135,23.479 54.215,23.455 L54.376,23.323 C54.403,23.261 54.418,23.175 54.418,23.065 L54.418,21.638 C54.092,21.643 53.772,21.647 53.456,21.652 C53.141,21.657 52.844,21.664 52.566,21.671 C52.288,21.679 52.038,21.687 51.815,21.697 C51.592,21.708 51.41,21.718 51.271,21.728 L51.271,21.082 C51.41,21.092 51.594,21.102 51.818,21.111 C52.045,21.122 52.296,21.128 52.574,21.131 C52.852,21.133 53.147,21.136 53.46,21.138 C53.772,21.141 54.092,21.14 54.418,21.134 L54.418,20.136 C53.936,20.136 53.506,20.139 53.125,20.147 C52.745,20.154 52.445,20.168 52.225,20.187 L52.225,19.565 C52.455,19.59 52.756,19.607 53.129,19.617 C53.502,19.627 53.932,19.63 54.418,19.625 L54.418,18.611" id="Fill-6" fill="#FFFFFF" sketch:type="MSShapeGroup"></path>
                <path d="M60.283,23.635 L60.182,23.736 L60.061,23.872 L59.941,24.011 L59.854,24.131 C59.79,24.03 59.719,23.932 59.641,23.834 C59.564,23.736 59.477,23.64 59.382,23.545 C59.481,23.46 59.565,23.345 59.63,23.199 C59.694,23.055 59.728,22.879 59.728,22.674 L59.728,20.181 C59.457,20.181 59.24,20.187 59.077,20.203 C58.915,20.218 58.773,20.24 58.653,20.271 L58.653,19.557 C58.769,19.572 58.897,19.582 59.036,19.587 C59.177,19.592 59.339,19.595 59.524,19.595 C59.699,19.595 59.858,19.591 60.001,19.583 C60.144,19.576 60.272,19.567 60.388,19.557 C60.368,19.672 60.353,19.812 60.343,19.978 C60.333,20.143 60.328,20.314 60.328,20.488 L60.328,22.727 C60.493,22.597 60.651,22.465 60.801,22.332 C60.951,22.199 61.076,22.08 61.177,21.976 C61.201,22.091 61.236,22.213 61.282,22.344 C61.327,22.474 61.369,22.573 61.409,22.644 L60.283,23.635 L60.283,23.635 Z M60.058,18.956 C59.987,18.751 59.89,18.534 59.765,18.307 C59.64,18.079 59.504,17.87 59.359,17.68 L59.982,17.35 C60.107,17.539 60.236,17.745 60.369,17.965 C60.502,18.185 60.618,18.386 60.719,18.565 L60.058,18.956 L60.058,18.956 Z M64.301,18.461 L62.716,18.461 C62.626,18.461 62.524,18.463 62.412,18.468 C62.3,18.474 62.188,18.481 62.078,18.49 C61.968,18.501 61.865,18.512 61.77,18.524 C61.675,18.537 61.6,18.551 61.545,18.565 L61.545,17.739 C61.685,17.78 61.893,17.806 62.168,17.818 C62.443,17.831 62.809,17.837 63.265,17.837 C63.71,17.837 64.065,17.83 64.327,17.815 C64.59,17.8 64.799,17.774 64.954,17.739 C64.94,17.84 64.929,17.942 64.924,18.048 C64.919,18.152 64.917,18.275 64.917,18.416 L64.917,19.827 C64.917,20.043 64.92,20.244 64.928,20.432 C64.936,20.62 64.944,20.818 64.954,21.029 L64.301,21.029 L64.301,20.647 L62.386,20.647 L62.386,22.839 C62.386,22.975 62.394,23.083 62.412,23.166 L62.559,23.353 C62.639,23.397 62.759,23.424 62.919,23.436 C63.079,23.448 63.302,23.455 63.587,23.455 C63.833,23.455 64.028,23.444 64.173,23.425 C64.318,23.405 64.434,23.358 64.519,23.286 C64.603,23.213 64.67,23.106 64.718,22.963 C64.766,22.82 64.811,22.624 64.856,22.373 C64.972,22.488 65.092,22.584 65.217,22.659 C65.342,22.733 65.46,22.786 65.57,22.816 C65.479,23.097 65.397,23.318 65.318,23.481 C65.241,23.644 65.137,23.766 65.007,23.846 C64.877,23.926 64.701,23.976 64.481,23.995 C64.261,24.016 63.963,24.025 63.587,24.025 C63.167,24.025 62.835,24.019 62.592,24.003 C62.35,23.988 62.167,23.957 62.044,23.909 C61.921,23.861 61.844,23.792 61.811,23.699 C61.778,23.606 61.763,23.482 61.763,23.327 L61.763,20.698 C61.763,20.528 61.76,20.397 61.755,20.305 C61.75,20.212 61.74,20.123 61.725,20.038 L61.894,20.06 L62.101,20.075 C62.181,20.08 62.273,20.083 62.378,20.083 L62.769,20.083 L64.301,20.083 L64.301,18.461 L64.301,18.461 Z" id="Fill-7" fill="#FFFFFF" sketch:type="MSShapeGroup"></path>
                <path d="M31.252,10.165 C31.049,10.678 30.846,11.141 30.643,11.552 C30.44,11.964 30.223,12.352 29.994,12.715 C29.764,13.078 29.51,13.426 29.232,13.757 C28.954,14.088 28.638,14.435 28.286,14.8 C28.179,14.554 28.05,14.345 27.901,14.174 C27.751,14.003 27.559,13.858 27.323,13.741 C28.018,13.281 28.638,12.715 29.184,12.041 C29.729,11.367 30.263,10.507 30.787,9.459 L29.905,9.459 C29.649,9.459 29.408,9.462 29.184,9.467 C28.959,9.473 28.745,9.481 28.542,9.491 C28.339,9.502 28.136,9.513 27.933,9.523 L27.933,8.225 C28.168,8.246 28.398,8.265 28.623,8.28 C28.847,8.297 29.085,8.31 29.336,8.32 C29.587,8.331 29.865,8.342 30.17,8.353 C30.475,8.363 30.83,8.369 31.236,8.369 C31.236,8.026 31.231,7.695 31.22,7.374 C31.21,7.054 31.193,6.829 31.172,6.701 C31.365,6.723 31.603,6.735 31.886,6.741 C32.169,6.746 32.407,6.749 32.6,6.749 C32.749,6.749 32.84,6.778 32.872,6.837 C32.904,6.897 32.845,6.957 32.696,7.022 C32.546,7.086 32.471,7.203 32.471,7.374 L32.471,8.369 C32.845,8.369 33.174,8.363 33.458,8.353 C33.741,8.342 34,8.331 34.235,8.32 C34.47,8.31 34.695,8.297 34.909,8.28 C35.123,8.265 35.342,8.246 35.566,8.225 L35.566,9.523 C35.342,9.513 35.123,9.502 34.909,9.491 C34.695,9.481 34.47,9.473 34.235,9.467 C34,9.462 33.738,9.459 33.449,9.459 L32.471,9.459 L32.471,14.318 C32.471,14.522 32.479,14.74 32.495,14.976 C32.511,15.211 32.53,15.435 32.551,15.649 L31.156,15.649 C31.22,15.19 31.252,14.746 31.252,14.318 L31.252,10.165 L31.252,10.165 Z M35.791,5.017 C35.694,5.295 35.639,5.533 35.623,5.731 C35.606,5.929 35.63,6.14 35.694,6.364 C35.139,6.407 34.671,6.426 34.291,6.42 C33.912,6.415 33.607,6.378 33.377,6.308 C33.148,6.238 32.984,6.126 32.888,5.972 C32.792,5.816 32.749,5.61 32.76,5.353 L32.824,2.98 L30.723,2.98 C30.723,3.558 30.68,4.063 30.595,4.496 C30.509,4.929 30.381,5.314 30.21,5.65 C30.039,5.987 29.822,6.289 29.56,6.557 C29.298,6.824 28.986,7.08 28.623,7.326 C28.558,7.22 28.497,7.123 28.438,7.038 L28.246,6.814 L28.013,6.621 C27.927,6.557 27.82,6.481 27.692,6.397 C28.066,6.193 28.379,5.969 28.63,5.723 C28.881,5.477 29.077,5.178 29.216,4.824 C29.355,4.472 29.44,4.05 29.472,3.558 C29.504,3.066 29.488,2.467 29.424,1.762 C29.938,1.794 30.739,1.81 31.83,1.81 C32.898,1.81 33.701,1.794 34.235,1.762 C34.203,1.986 34.169,2.347 34.131,2.844 C34.093,3.341 34.064,3.879 34.043,4.456 C34.032,4.648 34.037,4.801 34.059,4.913 C34.08,5.025 34.147,5.1 34.259,5.138 C34.372,5.175 34.548,5.183 34.789,5.161 C35.029,5.14 35.363,5.092 35.791,5.017 L35.791,5.017 Z M34.732,13.565 C34.519,13.244 34.216,12.856 33.826,12.402 C33.436,11.947 33.032,11.518 32.616,11.111 L33.434,10.245 C33.594,10.405 33.772,10.582 33.971,10.774 C34.169,10.967 34.369,11.159 34.572,11.352 C34.775,11.544 34.973,11.728 35.166,11.905 C35.358,12.081 35.529,12.233 35.679,12.362 L34.732,13.565 L34.732,13.565 Z M38.036,3.365 C37.94,3.419 37.892,3.574 37.892,3.83 L37.892,10.277 C37.892,10.598 37.897,10.927 37.908,11.264 C37.918,11.601 37.94,11.967 37.972,12.362 L36.544,12.362 C36.566,11.956 36.582,11.587 36.593,11.255 C36.603,10.924 36.609,10.598 36.609,10.277 L36.609,4.744 C36.609,4.338 36.603,3.99 36.593,3.702 C36.582,3.413 36.566,3.151 36.544,2.916 C36.79,2.97 37.018,3.005 37.226,3.021 C37.435,3.036 37.678,3.045 37.956,3.045 C38.095,3.045 38.172,3.079 38.189,3.148 C38.204,3.219 38.153,3.291 38.036,3.365 L38.036,3.365 Z M41.003,1.489 L40.866,1.674 C40.851,1.732 40.842,1.831 40.842,1.97 L40.842,13.869 C40.842,14.158 40.821,14.395 40.778,14.583 C40.735,14.77 40.626,14.928 40.449,15.056 C40.273,15.185 40.011,15.291 39.664,15.377 C39.316,15.462 38.843,15.542 38.245,15.617 C38.245,15.307 38.215,15.032 38.156,14.791 C38.097,14.551 37.982,14.271 37.811,13.949 C38.185,14.003 38.482,14.029 38.702,14.029 C38.92,14.029 39.089,14.008 39.207,13.966 C39.324,13.923 39.401,13.858 39.439,13.773 C39.477,13.688 39.495,13.575 39.495,13.436 L39.495,3.767 C39.495,3.114 39.49,2.556 39.479,2.091 C39.468,1.625 39.447,1.275 39.415,1.04 C39.629,1.083 39.864,1.112 40.121,1.128 C40.377,1.144 40.628,1.142 40.875,1.12 C41.035,1.109 41.125,1.147 41.147,1.232 C41.168,1.318 41.12,1.403 41.003,1.489 L41.003,1.489 Z" id="Fill-8" fill="#FFFFFF" sketch:type="MSShapeGroup"></path>
                <path d="M49.887,3.622 C49.331,3.676 48.783,3.721 48.243,3.758 C47.703,3.796 47.201,3.828 46.736,3.855 C46.271,3.881 45.853,3.902 45.484,3.919 C45.116,3.935 44.819,3.942 44.595,3.942 C44.541,3.665 44.477,3.43 44.402,3.237 C44.328,3.045 44.221,2.836 44.082,2.611 C44.273,2.644 44.573,2.659 44.979,2.659 C45.386,2.659 45.861,2.651 46.407,2.636 C46.952,2.619 47.545,2.596 48.187,2.564 C48.828,2.531 49.48,2.488 50.144,2.435 C50.539,2.403 50.967,2.357 51.426,2.299 C51.887,2.24 52.346,2.171 52.806,2.091 C53.266,2.01 53.709,1.925 54.137,1.834 C54.565,1.743 54.955,1.649 55.308,1.553 C55.371,1.745 55.465,1.957 55.588,2.186 C55.711,2.417 55.885,2.691 56.109,3.013 C56.259,3.216 56.194,3.291 55.917,3.237 C55.734,3.205 55.553,3.186 55.371,3.181 C55.19,3.176 54.938,3.181 54.617,3.197 C54.297,3.213 53.872,3.245 53.343,3.293 C52.814,3.341 52.121,3.408 51.266,3.493 L51.266,5.787 C52.218,5.776 53.027,5.76 53.695,5.738 C54.363,5.718 54.949,5.68 55.452,5.626 L55.452,6.989 C54.971,6.947 54.388,6.917 53.703,6.901 C53.019,6.886 52.207,6.883 51.266,6.894 L51.266,9.01 C51.875,9 52.477,8.986 53.07,8.97 C53.664,8.954 54.228,8.939 54.762,8.922 C55.297,8.906 55.788,8.888 56.237,8.866 C56.686,8.845 57.077,8.823 57.408,8.802 L57.408,10.197 C57.077,10.176 56.684,10.157 56.229,10.141 C55.775,10.125 55.28,10.111 54.746,10.101 C54.211,10.09 53.65,10.085 53.063,10.085 L51.266,10.085 L51.266,14.254 C51.266,14.457 51.236,14.628 51.178,14.768 C51.119,14.906 50.982,15.026 50.769,15.128 C50.555,15.229 50.245,15.315 49.839,15.385 C49.433,15.454 48.877,15.516 48.171,15.569 C48.074,14.992 47.85,14.435 47.498,13.901 C48,13.966 48.408,14.006 48.725,14.022 C49.039,14.038 49.283,14.019 49.454,13.966 C49.625,13.912 49.74,13.818 49.799,13.685 C49.857,13.552 49.887,13.367 49.887,13.132 L49.887,10.085 C49.191,10.096 48.508,10.106 47.834,10.117 C47.16,10.128 46.527,10.141 45.934,10.157 C45.34,10.173 44.806,10.191 44.33,10.213 C43.854,10.234 43.467,10.256 43.168,10.277 L43.168,8.897 C43.467,8.92 43.857,8.94 44.338,8.962 C44.819,8.983 45.356,8.997 45.95,9.002 C46.543,9.008 47.174,9.013 47.842,9.019 C48.51,9.023 49.191,9.021 49.887,9.01 L49.887,6.877 C48.861,6.877 47.941,6.886 47.129,6.901 C46.316,6.917 45.675,6.947 45.204,6.989 L45.204,5.658 C45.695,5.712 46.34,5.749 47.137,5.771 C47.934,5.792 48.85,5.798 49.887,5.787 L49.887,3.622" id="Fill-9" fill="#FFFFFF" sketch:type="MSShapeGroup"></path>
                <path d="M66.228,8.69 C67.298,8.636 68.284,8.585 69.188,8.537 C70.091,8.489 70.857,8.439 71.489,8.385 L71.553,9.556 C70.911,9.523 70.134,9.513 69.22,9.523 C68.306,9.534 67.309,9.56 66.228,9.603 L66.228,11.111 C67.64,11.068 68.853,11.018 69.869,10.959 C70.885,10.9 71.772,10.828 72.531,10.742 L72.596,11.977 C71.815,11.956 70.911,11.953 69.885,11.969 C68.858,11.985 67.64,12.019 66.228,12.073 L66.228,13.26 C66.228,13.474 66.245,13.64 66.277,13.757 C66.309,13.875 66.397,13.963 66.541,14.022 C66.685,14.08 66.907,14.118 67.207,14.134 C67.506,14.15 67.923,14.158 68.458,14.158 C69.121,14.158 69.649,14.142 70.046,14.109 C70.44,14.078 70.754,14.003 70.983,13.886 C71.214,13.768 71.385,13.594 71.497,13.364 C71.609,13.135 71.719,12.827 71.825,12.442 C71.996,12.635 72.194,12.809 72.419,12.963 C72.644,13.118 72.868,13.244 73.093,13.34 C72.932,13.768 72.769,14.107 72.603,14.358 C72.437,14.609 72.202,14.8 71.897,14.928 C71.593,15.056 71.173,15.139 70.639,15.177 C70.104,15.214 69.388,15.232 68.49,15.232 C67.613,15.232 66.935,15.222 66.453,15.2 C65.973,15.179 65.616,15.117 65.387,15.016 C65.157,14.914 65.021,14.76 64.978,14.551 C64.936,14.343 64.914,14.051 64.914,13.677 L64.914,12.121 C63.748,12.175 62.717,12.231 61.818,12.29 C60.921,12.349 60.135,12.41 59.461,12.474 L59.397,11.239 C60.103,11.261 60.901,11.264 61.795,11.247 C62.687,11.231 63.727,11.207 64.914,11.175 L64.914,9.651 C63.866,9.694 62.971,9.74 62.228,9.788 C61.484,9.836 60.809,9.887 60.199,9.94 L60.135,8.786 C60.444,8.797 60.761,8.805 61.081,8.81 C61.401,8.815 61.749,8.815 62.123,8.81 C62.497,8.805 62.912,8.797 63.366,8.786 C63.82,8.775 64.337,8.759 64.914,8.737 L64.914,7.455 C64.037,7.508 63.262,7.551 62.589,7.583 C61.915,7.615 61.343,7.642 60.872,7.663 C60.819,7.481 60.741,7.275 60.64,7.046 C60.538,6.815 60.444,6.626 60.359,6.477 C60.861,6.509 61.567,6.524 62.477,6.524 C63.385,6.524 64.476,6.487 65.748,6.412 C66.218,6.38 66.693,6.338 67.175,6.284 C67.656,6.231 68.113,6.169 68.546,6.1 C68.979,6.03 69.38,5.958 69.749,5.883 C70.117,5.809 70.431,5.738 70.687,5.675 C70.794,5.899 70.917,6.107 71.056,6.3 C71.194,6.492 71.339,6.652 71.489,6.781 C71.585,6.867 71.622,6.944 71.601,7.014 C71.579,7.083 71.51,7.107 71.393,7.086 C71.285,7.075 71.136,7.069 70.943,7.069 C70.751,7.069 70.465,7.08 70.086,7.102 C69.706,7.123 69.209,7.155 68.594,7.198 C67.98,7.241 67.191,7.294 66.228,7.358 L66.228,8.69 L66.228,8.69 Z M62.123,3.654 C61.781,4.156 61.5,4.539 61.281,4.801 C61.063,5.063 60.851,5.29 60.648,5.482 C60.498,5.332 60.333,5.207 60.15,5.106 C59.969,5.004 59.804,4.927 59.653,4.873 C60.306,4.295 60.856,3.665 61.306,2.98 C61.755,2.296 62.091,1.585 62.315,0.848 C62.572,0.965 62.845,1.072 63.134,1.168 C63.422,1.265 63.69,1.328 63.935,1.36 C64.053,1.382 64.106,1.428 64.096,1.497 C64.085,1.566 64.021,1.628 63.903,1.682 C63.732,1.756 63.556,1.874 63.374,2.034 C63.192,2.194 62.989,2.419 62.765,2.708 L64.225,2.708 C64.737,2.708 65.197,2.7 65.604,2.684 C66.01,2.668 66.304,2.649 66.485,2.628 L66.485,3.734 C66.304,3.713 66.025,3.694 65.651,3.678 C65.277,3.662 64.85,3.654 64.368,3.654 C64.593,4.445 64.802,5.044 64.994,5.45 L63.679,5.69 C63.647,5.477 63.593,5.207 63.519,4.881 C63.443,4.555 63.331,4.146 63.182,3.654 L62.123,3.654 L62.123,3.654 Z M68.698,3.622 C68.41,4.113 68.164,4.525 67.961,4.856 C67.758,5.189 67.586,5.461 67.447,5.675 C67.266,5.525 67.084,5.413 66.902,5.338 C66.721,5.263 66.507,5.204 66.261,5.161 C66.464,4.98 66.685,4.721 66.927,4.384 C67.167,4.047 67.397,3.678 67.616,3.277 C67.835,2.876 68.035,2.465 68.218,2.042 C68.399,1.62 68.532,1.222 68.618,0.848 C68.875,0.934 69.161,1.014 69.477,1.088 C69.791,1.163 70.061,1.217 70.286,1.248 C70.403,1.27 70.465,1.302 70.471,1.345 C70.476,1.388 70.42,1.435 70.302,1.489 C70.185,1.553 70.032,1.69 69.845,1.898 C69.658,2.106 69.463,2.365 69.26,2.676 L71.12,2.676 C71.633,2.676 72.071,2.668 72.435,2.651 C72.798,2.636 73.071,2.617 73.253,2.596 L73.253,3.702 C73.071,3.681 72.777,3.662 72.371,3.646 C71.965,3.63 71.462,3.622 70.863,3.622 C70.98,3.996 71.077,4.301 71.152,4.536 C71.227,4.772 71.307,4.996 71.393,5.21 L70.046,5.418 C70.024,5.204 69.989,4.969 69.941,4.712 C69.894,4.456 69.811,4.093 69.692,3.622 L68.698,3.622 L68.698,3.622 Z" id="Fill-10" fill="#FFFFFF" sketch:type="MSShapeGroup"></path>
                <path d="M78.448,14.351 C78.384,14.403 78.311,14.476 78.231,14.566 C78.151,14.657 78.065,14.754 77.975,14.856 C77.884,14.957 77.799,15.056 77.719,15.152 C77.639,15.248 77.577,15.334 77.534,15.409 C77.394,15.195 77.242,14.983 77.077,14.775 C76.911,14.566 76.727,14.361 76.523,14.158 C76.737,13.976 76.914,13.731 77.053,13.42 C77.191,13.11 77.262,12.736 77.262,12.298 L77.262,6.974 C76.685,6.974 76.222,6.989 75.874,7.022 C75.526,7.054 75.225,7.102 74.968,7.166 L74.968,5.643 C75.214,5.675 75.486,5.696 75.786,5.707 C76.085,5.718 76.433,5.723 76.828,5.723 C77.202,5.723 77.542,5.715 77.847,5.698 C78.151,5.683 78.427,5.664 78.673,5.643 C78.63,5.889 78.598,6.188 78.576,6.54 C78.555,6.894 78.544,7.257 78.544,7.631 L78.544,12.41 C78.897,12.132 79.234,11.852 79.555,11.568 C79.875,11.285 80.143,11.031 80.356,10.807 C80.41,11.053 80.484,11.315 80.581,11.592 C80.678,11.87 80.768,12.084 80.853,12.233 L78.448,14.351 L78.448,14.351 Z M77.967,4.359 C77.817,3.921 77.608,3.459 77.342,2.973 C77.074,2.486 76.785,2.04 76.476,1.633 L77.807,0.928 C78.074,1.334 78.35,1.772 78.633,2.243 C78.916,2.713 79.164,3.141 79.378,3.525 L77.967,4.359 L77.967,4.359 Z M87.027,3.301 L83.645,3.301 C83.451,3.301 83.235,3.307 82.994,3.317 C82.754,3.328 82.516,3.344 82.281,3.365 C82.046,3.387 81.826,3.411 81.623,3.438 C81.42,3.464 81.26,3.493 81.143,3.525 L81.143,1.762 C81.441,1.848 81.886,1.903 82.474,1.93 C83.062,1.957 83.842,1.97 84.815,1.97 C85.767,1.97 86.522,1.954 87.084,1.922 C87.646,1.89 88.092,1.837 88.423,1.762 C88.391,1.976 88.369,2.194 88.358,2.419 C88.348,2.644 88.343,2.905 88.343,3.205 L88.343,6.22 C88.343,6.68 88.351,7.109 88.367,7.511 C88.383,7.912 88.401,8.337 88.423,8.786 L87.027,8.786 L87.027,7.968 L82.939,7.968 L82.939,12.65 C82.939,12.94 82.957,13.172 82.994,13.348 C83.032,13.524 83.136,13.658 83.308,13.749 C83.478,13.84 83.734,13.898 84.077,13.926 C84.419,13.952 84.894,13.966 85.504,13.966 C86.028,13.966 86.445,13.944 86.755,13.901 C87.065,13.858 87.31,13.76 87.493,13.604 C87.675,13.45 87.816,13.22 87.918,12.915 C88.02,12.61 88.118,12.191 88.215,11.656 C88.46,11.902 88.717,12.106 88.984,12.266 C89.251,12.426 89.503,12.538 89.738,12.602 C89.546,13.201 89.366,13.675 89.201,14.022 C89.035,14.369 88.814,14.628 88.535,14.8 C88.257,14.971 87.883,15.077 87.413,15.12 C86.942,15.163 86.306,15.185 85.504,15.185 C84.606,15.185 83.897,15.168 83.38,15.136 C82.86,15.104 82.471,15.037 82.209,14.935 C81.946,14.834 81.781,14.685 81.712,14.486 C81.642,14.289 81.607,14.024 81.607,13.693 L81.607,8.08 C81.607,7.717 81.602,7.436 81.592,7.238 C81.581,7.04 81.56,6.851 81.527,6.669 C81.645,6.69 81.765,6.706 81.888,6.717 C82.011,6.728 82.158,6.738 82.329,6.749 C82.5,6.76 82.698,6.765 82.923,6.765 L83.756,6.765 L87.027,6.765 L87.027,3.301 L87.027,3.301 Z" id="Fill-11" fill="#FFFFFF" sketch:type="MSShapeGroup"></path>
                <path d="M16.75,9.809 C15.068,9.809 13.703,8.444 13.703,6.761 C13.703,5.078 15.068,3.713 16.75,3.713 C18.434,3.713 19.799,5.078 19.799,6.761 C19.799,8.444 18.434,9.809 16.75,9.809 M20.56,2.951 L11.691,2.951 L0.65,14.081 C0.275,14.458 0.275,15.068 0.65,15.444 L8.449,23.242 C8.637,23.43 8.883,23.523 9.129,23.523 C9.375,23.523 9.622,23.43 9.81,23.242 L20.56,12.2 L20.56,2.951" id="Fill-12" fill="#BFDCA9" sketch:type="MSShapeGroup"></path>
                <path d="M15.227,6.761 L15.227,6.761 C15.227,5.918 15.908,5.237 16.75,5.237 C17.592,5.237 18.275,5.918 18.275,6.761 C18.275,7.603 17.592,8.284 16.75,8.284 C15.908,8.284 15.227,7.603 15.227,6.761 M16.75,3.713 C15.068,3.713 13.703,5.078 13.703,6.761 C13.703,8.444 15.068,9.809 16.75,9.809 C18.434,9.809 19.799,8.444 19.799,6.761 C19.799,5.078 18.434,3.713 16.75,3.713" id="Fill-13" fill="#DDECD0" sketch:type="MSShapeGroup"></path>
                <path d="M16.75,7.141 C16.654,7.141 16.555,7.104 16.481,7.031 C16.334,6.881 16.334,6.641 16.481,6.491 L21.815,1.157 C21.964,1.009 22.205,1.009 22.353,1.157 C22.504,1.307 22.504,1.547 22.353,1.696 L17.019,7.031 C16.945,7.104 16.849,7.141 16.75,7.141" id="Fill-14" fill="#FFFFFF" sketch:type="MSShapeGroup"></path>
            </g>
        </g>
    </g>
</svg>