<?xml version="1.0" encoding="UTF-8" standalone="no"?>
<svg width="120px" height="120px" viewBox="0 0 120 120" version="1.1" xmlns="http://www.w3.org/2000/svg" xmlns:xlink="http://www.w3.org/1999/xlink" xmlns:sketch="http://www.bohemiancoding.com/sketch/ns">
    <!-- Generator: Sketch 3.3.2 (12043) - http://www.bohemiancoding.com/sketch -->
    <title>Mobile Portrait Copy 3</title>
    <desc>Created with Sketch.</desc>
    <defs></defs>
    <g id="basic" stroke="none" stroke-width="1" fill="none" fill-rule="evenodd" sketch:type="MSPage">
        <g id="Mobile-Portrait-Copy-3" sketch:type="MSArtboardGroup">
            <g id="Imported-Layers" sketch:type="MSLayerGroup" transform="translate(13.000000, 41.000000)">
                <path d="M42.327,34.248 L42.327,30.867 L41.744,30.867 L41.744,30.353 L42.327,30.353 L42.327,29.94 C42.327,29.678 42.351,29.483 42.397,29.356 C42.461,29.185 42.572,29.046 42.732,28.94 C42.893,28.833 43.117,28.78 43.405,28.78 C43.592,28.78 43.797,28.803 44.021,28.847 L43.923,29.422 C43.786,29.398 43.656,29.386 43.534,29.386 C43.334,29.386 43.191,29.428 43.108,29.514 C43.025,29.6 42.984,29.76 42.984,29.994 L42.984,30.353 L43.743,30.353 L43.743,30.867 L42.984,30.867 L42.984,34.248 L42.327,34.248" id="Fill-1" fill="#FFFFFF" sketch:type="MSShapeGroup"></path>
                <path d="M44.249,34.248 L44.249,30.353 L44.844,30.353 L44.844,30.944 C44.995,30.668 45.135,30.486 45.264,30.397 C45.392,30.31 45.533,30.266 45.686,30.266 C45.909,30.266 46.136,30.336 46.365,30.478 L46.138,31.091 C45.977,30.996 45.815,30.948 45.654,30.948 C45.51,30.948 45.38,30.991 45.266,31.078 C45.15,31.165 45.068,31.285 45.019,31.439 C44.946,31.674 44.909,31.931 44.909,32.209 L44.909,34.248 L44.249,34.248" id="Fill-2" fill="#FFFFFF" sketch:type="MSShapeGroup"></path>
                <path d="M46.512,32.301 C46.512,31.58 46.713,31.045 47.113,30.698 C47.448,30.41 47.856,30.266 48.338,30.266 C48.874,30.266 49.312,30.441 49.651,30.792 C49.991,31.143 50.161,31.627 50.161,32.246 C50.161,32.747 50.086,33.141 49.935,33.428 C49.785,33.716 49.566,33.939 49.279,34.098 C48.991,34.256 48.678,34.336 48.338,34.336 C47.793,34.336 47.352,34.161 47.017,33.811 C46.68,33.462 46.512,32.958 46.512,32.301 L46.512,32.301 Z M47.19,32.301 C47.19,32.8 47.299,33.173 47.517,33.421 C47.734,33.669 48.008,33.793 48.338,33.793 C48.666,33.793 48.938,33.668 49.156,33.419 C49.374,33.17 49.482,32.79 49.482,32.279 C49.482,31.797 49.373,31.433 49.154,31.184 C48.935,30.936 48.663,30.812 48.338,30.812 C48.008,30.812 47.734,30.935 47.517,31.183 C47.299,31.429 47.19,31.802 47.19,32.301 L47.19,32.301 Z" id="Fill-3" fill="#FFFFFF" sketch:type="MSShapeGroup"></path>
                <path d="M50.935,34.248 L50.935,30.353 L51.524,30.353 L51.524,30.9 C51.648,30.709 51.81,30.556 52.013,30.44 C52.216,30.324 52.446,30.266 52.706,30.266 C52.994,30.266 53.23,30.326 53.415,30.445 C53.6,30.565 53.731,30.732 53.806,30.948 C54.114,30.493 54.515,30.266 55.009,30.266 C55.394,30.266 55.691,30.373 55.899,30.586 C56.107,30.8 56.211,31.13 56.211,31.575 L56.211,34.248 L55.555,34.248 L55.555,31.795 C55.555,31.531 55.533,31.341 55.491,31.225 C55.448,31.108 55.37,31.015 55.258,30.944 C55.146,30.873 55.014,30.838 54.862,30.838 C54.588,30.838 54.36,30.929 54.18,31.111 C53.999,31.293 53.908,31.584 53.908,31.985 L53.908,34.248 L53.248,34.248 L53.248,31.718 C53.248,31.424 53.194,31.205 53.087,31.058 C52.979,30.911 52.804,30.838 52.559,30.838 C52.373,30.838 52.201,30.887 52.044,30.984 C51.886,31.082 51.771,31.225 51.701,31.414 C51.63,31.602 51.595,31.873 51.595,32.227 L51.595,34.248 L50.935,34.248" id="Fill-4" fill="#FFFFFF" sketch:type="MSShapeGroup"></path>
                <path d="M61.132,32.498 C61.037,32.738 60.941,32.955 60.847,33.148 C60.751,33.341 60.65,33.522 60.542,33.692 C60.435,33.863 60.315,34.025 60.185,34.181 C60.056,34.335 59.908,34.499 59.742,34.668 C59.692,34.553 59.633,34.456 59.562,34.375 C59.492,34.295 59.402,34.228 59.292,34.173 C59.617,33.957 59.908,33.692 60.163,33.377 C60.418,33.061 60.669,32.659 60.914,32.168 L60.501,32.168 C60.381,32.168 60.269,32.169 60.163,32.171 C60.058,32.174 59.958,32.178 59.862,32.183 C59.768,32.188 59.673,32.193 59.577,32.198 L59.577,31.589 C59.687,31.6 59.795,31.608 59.9,31.616 C60.006,31.623 60.117,31.629 60.234,31.635 C60.352,31.64 60.482,31.644 60.625,31.649 C60.768,31.655 60.934,31.657 61.124,31.657 C61.124,31.497 61.122,31.342 61.117,31.191 C61.112,31.041 61.104,30.936 61.095,30.876 C61.185,30.886 61.296,30.892 61.429,30.895 C61.562,30.897 61.673,30.898 61.763,30.898 C61.833,30.898 61.875,30.913 61.891,30.94 C61.905,30.967 61.878,30.996 61.808,31.026 C61.737,31.056 61.703,31.111 61.703,31.191 L61.703,31.657 C61.878,31.657 62.032,31.655 62.164,31.649 C62.297,31.644 62.419,31.64 62.528,31.635 C62.639,31.629 62.744,31.623 62.844,31.616 C62.944,31.608 63.047,31.6 63.152,31.589 L63.152,32.198 C63.047,32.193 62.944,32.188 62.844,32.183 C62.744,32.178 62.639,32.174 62.528,32.171 C62.419,32.169 62.296,32.168 62.161,32.168 L61.703,32.168 L61.703,34.443 C61.703,34.539 61.706,34.641 61.714,34.751 C61.722,34.861 61.731,34.966 61.74,35.066 L61.087,35.066 C61.117,34.851 61.132,34.644 61.132,34.443 L61.132,32.498 L61.132,32.498 Z M63.257,30.087 C63.212,30.218 63.185,30.329 63.179,30.422 C63.171,30.514 63.183,30.613 63.212,30.718 C62.952,30.738 62.732,30.747 62.555,30.745 C62.377,30.742 62.234,30.725 62.127,30.692 C62.019,30.66 61.943,30.607 61.897,30.534 C61.852,30.462 61.833,30.365 61.838,30.245 L61.868,29.134 L60.884,29.134 C60.884,29.404 60.864,29.641 60.824,29.843 C60.784,30.046 60.724,30.227 60.644,30.384 C60.563,30.542 60.462,30.683 60.34,30.809 C60.217,30.934 60.07,31.054 59.9,31.169 C59.87,31.119 59.842,31.074 59.813,31.034 C59.786,30.994 59.756,30.958 59.724,30.929 C59.691,30.898 59.655,30.869 59.615,30.838 C59.575,30.809 59.524,30.773 59.465,30.733 C59.64,30.638 59.786,30.533 59.904,30.418 C60.021,30.303 60.113,30.163 60.178,29.998 C60.243,29.832 60.283,29.634 60.298,29.404 C60.313,29.174 60.306,28.894 60.275,28.563 C60.516,28.578 60.892,28.585 61.402,28.585 C61.903,28.585 62.278,28.578 62.528,28.563 C62.514,28.668 62.497,28.837 62.479,29.07 C62.462,29.303 62.448,29.554 62.438,29.825 C62.434,29.915 62.437,29.986 62.446,30.039 C62.456,30.091 62.487,30.126 62.54,30.144 C62.593,30.162 62.675,30.165 62.788,30.155 C62.9,30.145 63.057,30.123 63.257,30.087 L63.257,30.087 Z M62.762,34.09 C62.661,33.94 62.519,33.759 62.337,33.546 C62.154,33.333 61.966,33.132 61.77,32.941 L62.153,32.536 C62.228,32.611 62.312,32.693 62.405,32.784 C62.497,32.873 62.592,32.964 62.687,33.054 C62.781,33.144 62.874,33.23 62.965,33.313 C63.055,33.396 63.135,33.467 63.205,33.527 L62.762,34.09 L62.762,34.09 Z M64.309,29.314 C64.264,29.339 64.241,29.412 64.241,29.532 L64.241,32.551 C64.241,32.701 64.243,32.855 64.249,33.013 C64.254,33.17 64.264,33.342 64.278,33.527 L63.61,33.527 C63.62,33.337 63.628,33.164 63.633,33.009 C63.638,32.853 63.641,32.701 63.641,32.551 L63.641,29.96 C63.641,29.769 63.638,29.607 63.633,29.472 C63.628,29.336 63.62,29.214 63.61,29.103 C63.726,29.129 63.832,29.145 63.93,29.152 C64.027,29.16 64.141,29.164 64.271,29.164 C64.336,29.164 64.372,29.18 64.38,29.212 C64.388,29.245 64.363,29.279 64.309,29.314 L64.309,29.314 Z M65.698,28.435 C65.663,28.465 65.642,28.494 65.634,28.522 C65.627,28.549 65.623,28.596 65.623,28.661 L65.623,34.233 C65.623,34.368 65.613,34.479 65.593,34.567 C65.573,34.655 65.521,34.728 65.438,34.789 C65.356,34.849 65.233,34.899 65.071,34.939 C64.908,34.979 64.687,35.017 64.406,35.052 C64.406,34.906 64.393,34.777 64.365,34.665 C64.338,34.552 64.283,34.421 64.203,34.27 C64.379,34.295 64.518,34.308 64.62,34.308 C64.723,34.308 64.802,34.298 64.856,34.278 C64.912,34.258 64.948,34.228 64.966,34.188 C64.983,34.148 64.992,34.095 64.992,34.03 L64.992,29.501 C64.992,29.196 64.989,28.935 64.984,28.717 C64.979,28.499 64.97,28.335 64.954,28.225 C65.055,28.245 65.165,28.259 65.285,28.266 C65.405,28.274 65.523,28.272 65.638,28.263 C65.713,28.258 65.756,28.275 65.766,28.315 C65.775,28.355 65.753,28.395 65.698,28.435 L65.698,28.435 Z" id="Fill-5" fill="#FFFFFF" sketch:type="MSShapeGroup"></path>
                <path d="M69.859,29.434 C69.599,29.459 69.342,29.48 69.09,29.498 C68.837,29.516 68.602,29.531 68.384,29.543 C68.166,29.556 67.971,29.565 67.798,29.573 C67.625,29.581 67.486,29.584 67.381,29.584 C67.356,29.454 67.326,29.344 67.291,29.254 C67.256,29.164 67.206,29.066 67.141,28.961 C67.231,28.976 67.371,28.983 67.562,28.983 C67.751,28.983 67.975,28.979 68.229,28.972 C68.485,28.965 68.763,28.954 69.063,28.938 C69.363,28.923 69.669,28.903 69.979,28.878 C70.165,28.863 70.365,28.842 70.58,28.815 C70.796,28.787 71.011,28.754 71.227,28.717 C71.441,28.679 71.649,28.639 71.85,28.597 C72.05,28.554 72.232,28.51 72.397,28.465 C72.428,28.555 72.472,28.654 72.529,28.762 C72.587,28.87 72.668,28.998 72.773,29.149 C72.843,29.244 72.813,29.279 72.683,29.254 C72.598,29.239 72.513,29.23 72.428,29.227 C72.343,29.225 72.225,29.227 72.075,29.235 C71.925,29.243 71.726,29.258 71.477,29.28 C71.229,29.303 70.905,29.334 70.505,29.374 L70.505,30.448 C70.951,30.443 71.33,30.435 71.643,30.425 C71.956,30.415 72.229,30.398 72.465,30.373 L72.465,31.011 C72.24,30.991 71.967,30.977 71.646,30.97 C71.326,30.962 70.945,30.961 70.505,30.966 L70.505,31.957 C70.791,31.953 71.072,31.946 71.35,31.938 C71.628,31.931 71.892,31.924 72.143,31.916 C72.393,31.909 72.623,31.9 72.833,31.89 C73.044,31.88 73.227,31.87 73.382,31.86 L73.382,32.513 C73.227,32.503 73.042,32.495 72.829,32.487 C72.616,32.479 72.385,32.473 72.135,32.468 C71.885,32.463 71.621,32.46 71.347,32.46 L70.505,32.46 L70.505,34.413 C70.505,34.508 70.491,34.588 70.464,34.654 C70.436,34.719 70.372,34.775 70.272,34.823 C70.172,34.87 70.027,34.91 69.837,34.943 C69.646,34.975 69.386,35.004 69.056,35.029 C69.011,34.759 68.905,34.499 68.74,34.248 C68.976,34.278 69.167,34.297 69.314,34.304 C69.463,34.312 69.576,34.303 69.656,34.278 C69.736,34.253 69.79,34.209 69.818,34.147 C69.846,34.084 69.859,33.998 69.859,33.888 L69.859,32.46 C69.534,32.466 69.214,32.471 68.898,32.476 C68.583,32.481 68.286,32.487 68.008,32.495 C67.731,32.502 67.479,32.511 67.257,32.52 C67.034,32.531 66.852,32.541 66.713,32.551 L66.713,31.905 C66.852,31.915 67.035,31.925 67.261,31.935 C67.486,31.945 67.737,31.951 68.016,31.954 C68.293,31.957 68.589,31.959 68.901,31.961 C69.215,31.964 69.534,31.962 69.859,31.957 L69.859,30.958 C69.379,30.958 68.948,30.962 68.567,30.97 C68.186,30.977 67.887,30.991 67.666,31.011 L67.666,30.388 C67.896,30.413 68.198,30.431 68.571,30.44 C68.944,30.451 69.374,30.453 69.859,30.448 L69.859,29.434" id="Fill-6" fill="#FFFFFF" sketch:type="MSShapeGroup"></path>
                <path d="M75.725,34.458 C75.694,34.483 75.66,34.517 75.623,34.56 C75.585,34.602 75.545,34.647 75.503,34.695 C75.46,34.742 75.42,34.789 75.383,34.834 C75.345,34.879 75.316,34.919 75.296,34.954 C75.231,34.854 75.16,34.755 75.082,34.657 C75.005,34.56 74.918,34.463 74.823,34.368 C74.923,34.283 75.006,34.168 75.071,34.023 C75.136,33.877 75.169,33.703 75.169,33.497 L75.169,31.004 C74.898,31.004 74.682,31.011 74.519,31.026 C74.356,31.041 74.215,31.064 74.095,31.094 L74.095,30.38 C74.21,30.396 74.338,30.405 74.477,30.41 C74.618,30.415 74.78,30.418 74.966,30.418 C75.141,30.418 75.3,30.414 75.442,30.407 C75.585,30.399 75.714,30.391 75.829,30.38 C75.81,30.496 75.794,30.636 75.784,30.801 C75.774,30.966 75.769,31.136 75.769,31.311 L75.769,33.55 C75.935,33.419 76.093,33.288 76.242,33.155 C76.393,33.023 76.518,32.904 76.618,32.799 C76.643,32.914 76.678,33.037 76.724,33.166 C76.769,33.297 76.81,33.397 76.851,33.467 L75.725,34.458 L75.725,34.458 Z M75.499,29.78 C75.429,29.574 75.331,29.358 75.206,29.13 C75.081,28.902 74.945,28.693 74.801,28.503 L75.424,28.172 C75.549,28.363 75.678,28.568 75.81,28.788 C75.943,29.009 76.06,29.209 76.16,29.389 L75.499,29.78 L75.499,29.78 Z M79.742,29.284 L78.157,29.284 C78.067,29.284 77.966,29.287 77.854,29.291 C77.741,29.296 77.629,29.304 77.519,29.314 C77.409,29.324 77.307,29.335 77.211,29.348 C77.116,29.36 77.041,29.374 76.986,29.389 L76.986,28.563 C77.126,28.603 77.334,28.629 77.609,28.642 C77.885,28.654 78.25,28.661 78.706,28.661 C79.151,28.661 79.506,28.653 79.769,28.638 C80.031,28.623 80.24,28.598 80.395,28.563 C80.381,28.663 80.37,28.766 80.365,28.871 C80.36,28.976 80.358,29.099 80.358,29.239 L80.358,30.651 C80.358,30.866 80.361,31.067 80.369,31.255 C80.377,31.443 80.386,31.642 80.395,31.852 L79.742,31.852 L79.742,31.469 L77.827,31.469 L77.827,33.662 C77.827,33.797 77.836,33.906 77.854,33.989 C77.871,34.072 77.92,34.134 78,34.177 C78.08,34.219 78.2,34.247 78.36,34.259 C78.52,34.272 78.743,34.278 79.028,34.278 C79.274,34.278 79.47,34.268 79.614,34.248 C79.76,34.228 79.875,34.182 79.96,34.109 C80.045,34.037 80.111,33.929 80.159,33.786 C80.207,33.644 80.253,33.447 80.298,33.197 C80.413,33.312 80.533,33.407 80.658,33.482 C80.783,33.557 80.901,33.61 81.012,33.64 C80.921,33.92 80.838,34.142 80.76,34.304 C80.683,34.467 80.578,34.588 80.448,34.668 C80.318,34.748 80.143,34.799 79.923,34.819 C79.702,34.839 79.404,34.849 79.028,34.849 C78.608,34.849 78.276,34.841 78.033,34.826 C77.791,34.811 77.608,34.78 77.485,34.732 C77.362,34.685 77.285,34.615 77.253,34.522 C77.22,34.43 77.204,34.306 77.204,34.15 L77.204,31.522 C77.204,31.352 77.201,31.22 77.196,31.127 C77.191,31.035 77.182,30.946 77.166,30.861 C77.222,30.871 77.277,30.878 77.335,30.883 C77.393,30.889 77.462,30.894 77.542,30.898 C77.622,30.904 77.715,30.906 77.819,30.906 L78.21,30.906 L79.742,30.906 L79.742,29.284 L79.742,29.284 Z" id="Fill-7" fill="#FFFFFF" sketch:type="MSShapeGroup"></path>
                <path d="M22.997,20.443 C22.794,20.956 22.591,21.419 22.388,21.83 C22.185,22.242 21.968,22.629 21.738,22.993 C21.508,23.356 21.254,23.704 20.977,24.035 C20.698,24.366 20.383,24.714 20.03,25.077 C19.923,24.831 19.795,24.623 19.645,24.452 C19.495,24.281 19.303,24.137 19.068,24.019 C19.763,23.559 20.383,22.993 20.929,22.319 C21.474,21.645 22.008,20.785 22.532,19.737 L21.65,19.737 C21.394,19.737 21.152,19.74 20.929,19.745 C20.704,19.75 20.49,19.759 20.287,19.769 C20.084,19.78 19.881,19.79 19.678,19.801 L19.678,18.502 C19.912,18.524 20.143,18.542 20.367,18.558 C20.592,18.574 20.829,18.588 21.081,18.599 C21.332,18.609 21.609,18.62 21.914,18.63 C22.22,18.641 22.574,18.646 22.981,18.646 C22.981,18.305 22.976,17.973 22.965,17.652 C22.954,17.331 22.938,17.107 22.917,16.978 C23.109,17.001 23.347,17.014 23.631,17.019 C23.914,17.024 24.151,17.027 24.344,17.027 C24.494,17.027 24.585,17.057 24.617,17.115 C24.648,17.174 24.59,17.235 24.44,17.299 C24.29,17.364 24.216,17.481 24.216,17.652 L24.216,18.646 C24.59,18.646 24.919,18.641 25.202,18.63 C25.485,18.62 25.744,18.609 25.979,18.599 C26.215,18.588 26.439,18.574 26.653,18.558 C26.867,18.542 27.086,18.524 27.31,18.502 L27.31,19.801 C27.086,19.79 26.867,19.78 26.653,19.769 C26.439,19.759 26.215,19.75 25.979,19.745 C25.744,19.74 25.482,19.737 25.194,19.737 L24.216,19.737 L24.216,24.596 C24.216,24.799 24.224,25.019 24.24,25.253 C24.256,25.489 24.274,25.713 24.296,25.927 L22.9,25.927 C22.965,25.467 22.997,25.023 22.997,24.596 L22.997,20.443 L22.997,20.443 Z M27.535,15.295 C27.44,15.573 27.383,15.811 27.367,16.008 C27.351,16.206 27.375,16.417 27.44,16.642 C26.883,16.685 26.415,16.704 26.036,16.698 C25.656,16.693 25.352,16.655 25.122,16.586 C24.892,16.517 24.728,16.404 24.633,16.249 C24.536,16.094 24.494,15.888 24.505,15.632 L24.568,13.258 L22.468,13.258 C22.468,13.835 22.425,14.341 22.34,14.773 C22.254,15.206 22.126,15.591 21.955,15.928 C21.783,16.265 21.567,16.567 21.305,16.834 C21.043,17.102 20.731,17.358 20.367,17.604 C20.303,17.498 20.241,17.401 20.183,17.315 C20.124,17.23 20.06,17.155 19.99,17.091 C19.921,17.027 19.843,16.963 19.758,16.898 C19.672,16.834 19.565,16.76 19.436,16.674 C19.81,16.471 20.124,16.247 20.375,16 C20.626,15.755 20.821,15.455 20.96,15.102 C21.1,14.749 21.185,14.328 21.217,13.835 C21.249,13.344 21.233,12.745 21.169,12.04 C21.682,12.071 22.483,12.087 23.574,12.087 C24.644,12.087 25.445,12.071 25.979,12.04 C25.948,12.264 25.913,12.625 25.876,13.122 C25.838,13.619 25.809,14.156 25.787,14.733 C25.776,14.926 25.782,15.079 25.804,15.19 C25.825,15.303 25.892,15.378 26.004,15.415 C26.116,15.453 26.293,15.461 26.533,15.439 C26.773,15.418 27.107,15.37 27.535,15.295 L27.535,15.295 Z M26.477,23.842 C26.263,23.521 25.961,23.134 25.571,22.68 C25.181,22.226 24.777,21.795 24.36,21.389 L25.178,20.523 C25.339,20.683 25.518,20.859 25.715,21.052 C25.913,21.245 26.113,21.437 26.316,21.629 C26.519,21.822 26.718,22.006 26.91,22.183 C27.102,22.359 27.273,22.511 27.423,22.64 L26.477,23.842 L26.477,23.842 Z M29.78,13.643 C29.685,13.697 29.636,13.852 29.636,14.108 L29.636,20.555 C29.636,20.875 29.642,21.205 29.652,21.541 C29.663,21.878 29.685,22.244 29.717,22.64 L28.289,22.64 C28.31,22.233 28.326,21.865 28.337,21.533 C28.348,21.202 28.354,20.875 28.354,20.555 L28.354,15.022 C28.354,14.616 28.348,14.269 28.337,13.98 C28.326,13.691 28.31,13.429 28.289,13.194 C28.535,13.248 28.763,13.282 28.971,13.298 C29.179,13.314 29.422,13.322 29.7,13.322 C29.839,13.322 29.917,13.357 29.933,13.427 C29.949,13.496 29.898,13.568 29.78,13.643 L29.78,13.643 Z M32.747,11.767 C32.673,11.831 32.627,11.893 32.611,11.951 C32.595,12.01 32.587,12.109 32.587,12.248 L32.587,24.147 C32.587,24.435 32.565,24.673 32.523,24.861 C32.479,25.048 32.37,25.206 32.194,25.334 C32.018,25.462 31.756,25.569 31.408,25.655 C31.06,25.74 30.588,25.82 29.989,25.895 C29.989,25.585 29.959,25.31 29.9,25.069 C29.842,24.829 29.727,24.548 29.556,24.227 C29.93,24.281 30.227,24.308 30.446,24.308 C30.665,24.308 30.833,24.286 30.951,24.243 C31.068,24.201 31.146,24.137 31.184,24.051 C31.221,23.965 31.24,23.853 31.24,23.714 L31.24,14.044 C31.24,13.392 31.234,12.833 31.224,12.368 C31.213,11.903 31.191,11.553 31.16,11.318 C31.373,11.361 31.608,11.39 31.865,11.406 C32.122,11.422 32.373,11.419 32.619,11.398 C32.779,11.387 32.87,11.425 32.892,11.51 C32.913,11.596 32.865,11.681 32.747,11.767 L32.747,11.767 Z" id="Fill-8" fill="#FFFFFF" sketch:type="MSShapeGroup"></path>
                <path d="M41.632,13.9 C41.076,13.953 40.528,13.998 39.988,14.036 C39.448,14.074 38.946,14.105 38.481,14.132 C38.016,14.159 37.599,14.18 37.231,14.196 C36.861,14.212 36.564,14.22 36.34,14.22 C36.286,13.942 36.223,13.707 36.147,13.515 C36.072,13.322 35.966,13.114 35.827,12.889 C36.019,12.921 36.318,12.937 36.725,12.937 C37.131,12.937 37.606,12.93 38.152,12.914 C38.697,12.897 39.291,12.873 39.933,12.841 C40.573,12.809 41.226,12.767 41.889,12.713 C42.284,12.681 42.712,12.636 43.172,12.577 C43.631,12.518 44.091,12.448 44.551,12.368 C45.011,12.288 45.454,12.203 45.882,12.112 C46.31,12.021 46.699,11.927 47.053,11.831 C47.116,12.023 47.21,12.234 47.333,12.464 C47.456,12.694 47.63,12.97 47.854,13.29 C48.004,13.494 47.939,13.568 47.662,13.515 C47.479,13.483 47.298,13.464 47.116,13.458 C46.935,13.454 46.684,13.458 46.363,13.475 C46.042,13.491 45.617,13.523 45.088,13.571 C44.559,13.619 43.866,13.686 43.012,13.771 L43.012,16.065 C43.963,16.054 44.772,16.038 45.44,16.017 C46.108,15.995 46.694,15.958 47.197,15.904 L47.197,17.268 C46.716,17.225 46.133,17.195 45.449,17.179 C44.765,17.163 43.952,17.161 43.012,17.171 L43.012,19.288 C43.621,19.277 44.222,19.264 44.815,19.248 C45.409,19.232 45.973,19.216 46.507,19.2 C47.042,19.184 47.533,19.165 47.982,19.144 C48.432,19.123 48.822,19.101 49.153,19.08 L49.153,20.475 C48.822,20.454 48.429,20.435 47.975,20.418 C47.52,20.402 47.025,20.389 46.491,20.378 C45.956,20.368 45.396,20.362 44.808,20.362 L43.012,20.362 L43.012,24.532 C43.012,24.735 42.981,24.906 42.923,25.045 C42.864,25.184 42.727,25.304 42.514,25.406 C42.3,25.507 41.99,25.593 41.584,25.663 C41.178,25.732 40.622,25.793 39.916,25.847 C39.82,25.269 39.596,24.714 39.242,24.179 C39.745,24.243 40.154,24.283 40.47,24.299 C40.784,24.315 41.028,24.297 41.199,24.243 C41.37,24.19 41.485,24.097 41.544,23.963 C41.602,23.829 41.632,23.644 41.632,23.41 L41.632,20.362 C40.937,20.373 40.253,20.384 39.579,20.394 C38.906,20.405 38.272,20.418 37.679,20.435 C37.086,20.451 36.551,20.469 36.075,20.491 C35.6,20.512 35.212,20.534 34.913,20.555 L34.913,19.176 C35.212,19.197 35.602,19.219 36.083,19.24 C36.564,19.261 37.102,19.275 37.695,19.28 C38.288,19.286 38.919,19.29 39.587,19.296 C40.256,19.302 40.937,19.299 41.632,19.288 L41.632,17.155 C40.606,17.155 39.686,17.163 38.874,17.179 C38.062,17.195 37.42,17.225 36.949,17.268 L36.949,15.936 C37.441,15.99 38.085,16.027 38.882,16.049 C39.678,16.07 40.595,16.075 41.632,16.065 L41.632,13.9" id="Fill-9" fill="#FFFFFF" sketch:type="MSShapeGroup"></path>
                <path d="M57.973,18.967 C59.042,18.914 60.028,18.863 60.932,18.815 C61.835,18.767 62.602,18.716 63.233,18.663 L63.297,19.833 C62.655,19.801 61.878,19.79 60.964,19.801 C60.05,19.812 59.053,19.839 57.973,19.881 L57.973,21.389 C59.384,21.346 60.598,21.295 61.613,21.236 C62.629,21.178 63.516,21.105 64.275,21.02 L64.34,22.255 C63.559,22.233 62.655,22.231 61.629,22.247 C60.602,22.263 59.384,22.298 57.973,22.351 L57.973,23.538 C57.973,23.752 57.989,23.917 58.021,24.035 C58.053,24.153 58.142,24.241 58.285,24.299 C58.43,24.358 58.651,24.395 58.951,24.412 C59.25,24.428 59.667,24.435 60.202,24.435 C60.865,24.435 61.394,24.42 61.79,24.388 C62.185,24.355 62.498,24.281 62.727,24.163 C62.958,24.045 63.129,23.872 63.241,23.642 C63.353,23.412 63.463,23.105 63.569,22.72 C63.74,22.912 63.938,23.086 64.163,23.241 C64.388,23.396 64.612,23.521 64.837,23.618 C64.676,24.045 64.513,24.385 64.348,24.636 C64.182,24.887 63.946,25.077 63.642,25.206 C63.337,25.334 62.917,25.417 62.383,25.454 C61.849,25.491 61.132,25.51 60.234,25.51 C59.357,25.51 58.679,25.5 58.197,25.478 C57.717,25.456 57.36,25.395 57.131,25.294 C56.901,25.192 56.765,25.037 56.722,24.829 C56.68,24.62 56.658,24.329 56.658,23.955 L56.658,22.399 C55.492,22.453 54.461,22.509 53.562,22.567 C52.665,22.626 51.879,22.688 51.205,22.752 L51.142,21.517 C51.847,21.539 52.645,21.541 53.539,21.525 C54.432,21.509 55.471,21.485 56.658,21.453 L56.658,19.93 C55.61,19.972 54.715,20.018 53.972,20.066 C53.228,20.114 52.553,20.165 51.943,20.218 L51.879,19.064 C52.188,19.074 52.505,19.082 52.825,19.087 C53.145,19.093 53.493,19.093 53.867,19.087 C54.241,19.082 54.656,19.074 55.11,19.064 C55.565,19.053 56.081,19.037 56.658,19.016 L56.658,17.732 C55.781,17.786 55.006,17.829 54.333,17.861 C53.659,17.893 53.087,17.919 52.616,17.941 C52.563,17.759 52.485,17.554 52.384,17.324 C52.282,17.094 52.188,16.904 52.103,16.754 C52.606,16.786 53.312,16.802 54.221,16.802 C55.129,16.802 56.22,16.765 57.492,16.69 C57.962,16.658 58.437,16.615 58.919,16.562 C59.4,16.508 59.857,16.447 60.29,16.377 C60.724,16.308 61.124,16.236 61.493,16.161 C61.861,16.086 62.175,16.017 62.431,15.952 C62.538,16.177 62.661,16.385 62.8,16.578 C62.938,16.77 63.083,16.931 63.233,17.059 C63.329,17.145 63.366,17.222 63.345,17.291 C63.323,17.361 63.254,17.385 63.137,17.364 C63.029,17.353 62.88,17.348 62.687,17.348 C62.495,17.348 62.209,17.358 61.83,17.38 C61.45,17.401 60.953,17.433 60.338,17.476 C59.724,17.519 58.935,17.572 57.973,17.636 L57.973,18.967 L57.973,18.967 Z M53.867,13.932 C53.525,14.435 53.244,14.816 53.025,15.079 C52.807,15.34 52.595,15.567 52.393,15.76 C52.242,15.61 52.077,15.485 51.894,15.383 C51.713,15.282 51.548,15.204 51.397,15.15 C52.05,14.573 52.601,13.942 53.05,13.258 C53.499,12.574 53.835,11.863 54.06,11.125 C54.316,11.243 54.589,11.35 54.878,11.446 C55.166,11.542 55.434,11.606 55.68,11.639 C55.797,11.66 55.851,11.706 55.84,11.775 C55.829,11.844 55.765,11.906 55.647,11.959 C55.477,12.034 55.3,12.152 55.118,12.312 C54.937,12.472 54.733,12.697 54.509,12.985 L55.969,12.985 C56.481,12.985 56.941,12.977 57.348,12.961 C57.754,12.945 58.048,12.927 58.229,12.905 L58.229,14.012 C58.048,13.991 57.769,13.972 57.396,13.956 C57.021,13.94 56.594,13.932 56.112,13.932 C56.337,14.723 56.546,15.322 56.738,15.728 L55.423,15.968 C55.391,15.755 55.337,15.485 55.263,15.159 C55.187,14.832 55.075,14.424 54.926,13.932 L53.867,13.932 L53.867,13.932 Z M60.442,13.9 C60.154,14.392 59.908,14.803 59.705,15.134 C59.502,15.466 59.33,15.739 59.191,15.952 C59.01,15.803 58.828,15.69 58.646,15.616 C58.465,15.541 58.251,15.482 58.005,15.439 C58.208,15.257 58.43,14.998 58.671,14.662 C58.911,14.325 59.141,13.956 59.36,13.555 C59.579,13.154 59.779,12.743 59.962,12.32 C60.144,11.898 60.276,11.499 60.362,11.125 C60.619,11.211 60.905,11.291 61.221,11.366 C61.535,11.441 61.806,11.494 62.03,11.526 C62.148,11.548 62.209,11.58 62.215,11.623 C62.22,11.665 62.164,11.713 62.046,11.767 C61.929,11.831 61.776,11.967 61.589,12.176 C61.402,12.384 61.207,12.644 61.004,12.954 L62.864,12.954 C63.377,12.954 63.815,12.945 64.179,12.93 C64.542,12.914 64.815,12.895 64.997,12.873 L64.997,13.98 C64.815,13.958 64.521,13.94 64.115,13.924 C63.709,13.908 63.206,13.9 62.607,13.9 C62.725,14.274 62.821,14.579 62.896,14.814 C62.971,15.049 63.051,15.273 63.137,15.487 L61.79,15.696 C61.769,15.482 61.733,15.247 61.685,14.99 C61.638,14.733 61.555,14.37 61.436,13.9 L60.442,13.9 L60.442,13.9 Z" id="Fill-10" fill="#FFFFFF" sketch:type="MSShapeGroup"></path>
                <path d="M70.193,24.628 C70.129,24.682 70.057,24.754 69.977,24.845 C69.896,24.935 69.81,25.032 69.72,25.133 C69.629,25.235 69.544,25.334 69.464,25.43 C69.384,25.526 69.322,25.612 69.279,25.686 C69.14,25.473 68.987,25.262 68.822,25.053 C68.656,24.845 68.472,24.639 68.269,24.435 C68.482,24.254 68.659,24.008 68.798,23.698 C68.936,23.388 69.007,23.014 69.007,22.576 L69.007,17.251 C68.43,17.251 67.967,17.268 67.619,17.299 C67.271,17.331 66.97,17.38 66.713,17.444 L66.713,15.92 C66.959,15.952 67.231,15.974 67.531,15.984 C67.83,15.995 68.178,16 68.573,16 C68.947,16 69.287,15.993 69.592,15.977 C69.896,15.96 70.172,15.942 70.418,15.92 C70.375,16.166 70.343,16.465 70.321,16.818 C70.3,17.171 70.289,17.535 70.289,17.909 L70.289,22.688 C70.643,22.41 70.979,22.129 71.3,21.846 C71.62,21.562 71.888,21.309 72.102,21.084 C72.155,21.33 72.229,21.592 72.326,21.87 C72.423,22.148 72.513,22.362 72.599,22.511 L70.193,24.628 L70.193,24.628 Z M69.712,14.637 C69.562,14.199 69.354,13.737 69.087,13.25 C68.819,12.764 68.53,12.317 68.221,11.911 L69.552,11.206 C69.819,11.612 70.095,12.05 70.378,12.52 C70.661,12.991 70.909,13.418 71.123,13.803 L69.712,14.637 L69.712,14.637 Z M78.772,13.579 L75.39,13.579 C75.196,13.579 74.98,13.584 74.739,13.595 C74.499,13.606 74.261,13.622 74.026,13.643 C73.791,13.665 73.571,13.688 73.368,13.715 C73.165,13.742 73.005,13.771 72.888,13.803 L72.888,12.04 C73.187,12.125 73.631,12.181 74.219,12.208 C74.807,12.234 75.587,12.248 76.56,12.248 C77.512,12.248 78.268,12.232 78.829,12.2 C79.391,12.167 79.837,12.114 80.168,12.04 C80.136,12.253 80.114,12.472 80.104,12.697 C80.093,12.921 80.088,13.184 80.088,13.483 L80.088,16.498 C80.088,16.957 80.096,17.388 80.112,17.789 C80.128,18.189 80.146,18.614 80.168,19.064 L78.772,19.064 L78.772,18.246 L74.684,18.246 L74.684,22.928 C74.684,23.217 74.702,23.45 74.739,23.626 C74.777,23.802 74.881,23.936 75.053,24.027 C75.224,24.118 75.479,24.177 75.822,24.203 C76.164,24.23 76.64,24.243 77.249,24.243 C77.773,24.243 78.19,24.222 78.5,24.179 C78.81,24.137 79.056,24.038 79.238,23.882 C79.42,23.727 79.562,23.498 79.663,23.193 C79.765,22.888 79.863,22.469 79.96,21.934 C80.205,22.18 80.462,22.383 80.729,22.544 C80.996,22.704 81.248,22.816 81.483,22.88 C81.291,23.479 81.111,23.952 80.946,24.299 C80.78,24.647 80.559,24.906 80.28,25.077 C80.002,25.248 79.628,25.355 79.158,25.398 C78.687,25.44 78.051,25.462 77.249,25.462 C76.352,25.462 75.643,25.446 75.125,25.414 C74.605,25.382 74.216,25.315 73.954,25.213 C73.691,25.112 73.526,24.962 73.457,24.765 C73.387,24.566 73.352,24.302 73.352,23.971 L73.352,18.358 C73.352,17.995 73.347,17.714 73.337,17.516 C73.326,17.318 73.305,17.128 73.272,16.947 C73.39,16.968 73.51,16.984 73.633,16.995 C73.756,17.005 73.903,17.016 74.074,17.027 C74.245,17.038 74.443,17.043 74.668,17.043 L75.501,17.043 L78.772,17.043 L78.772,13.579 L78.772,13.579 Z" id="Fill-11" fill="#FFFFFF" sketch:type="MSShapeGroup"></path>
                <path d="M4.255,9.805 C4.255,9.805 5.284,8.479 4.619,6.637 C3.951,4.797 2.396,4.098 2.396,4.098 C2.396,4.098 1.233,5.678 1.884,7.473 C2.532,9.268 4.255,9.805 4.255,9.805" id="Fill-12" fill="#81B244" sketch:type="MSShapeGroup"></path>
                <path d="M7.111,10.748 C7.111,10.748 8.91,10.603 9.94,8.995 C10.97,7.388 10.182,5.59 10.182,5.59 C10.181,5.59 8.513,5.929 7.455,7.579 C6.398,9.228 7.111,10.748 7.111,10.748" id="Fill-13" fill="#81B244" sketch:type="MSShapeGroup"></path>
                <path d="M7.293,12.873 C6.462,14.645 7.365,16.06 7.365,16.06 C7.365,16.06 9.132,15.682 9.942,13.955 C10.752,12.226 9.736,10.546 9.736,10.546 C9.736,10.546 8.125,11.099 7.293,12.873" id="Fill-14" fill="#81B244" sketch:type="MSShapeGroup"></path>
                <path d="M11.359,14.301 C11.359,14.301 9.807,15.004 9.145,16.846 C8.482,18.692 9.515,20.013 9.515,20.013 C9.515,20.013 11.235,19.471 11.882,17.675 C12.525,15.878 11.359,14.301 11.359,14.301" id="Fill-15" fill="#81B244" sketch:type="MSShapeGroup"></path>
                <path d="M12.652,24 C12.652,24 14.146,22.984 14.247,21.079 C14.347,19.171 12.773,17.999 12.773,17.999 C12.773,17.999 11.489,19.119 11.386,21.075 C11.284,23.029 12.652,24 12.652,24" id="Fill-16" fill="#81B244" sketch:type="MSShapeGroup"></path>
                <path d="M6.549,6.257 C6.549,6.257 8.142,5.725 8.607,3.824 C9.075,1.923 8.172,0.478 8.172,0.478 C8.172,0.478 6.327,1.147 5.87,3.001 C5.416,4.854 6.549,6.257 6.549,6.257" id="Fill-17" fill="#81B244" sketch:type="MSShapeGroup"></path>
                <path d="M4.255,13.848 C4.255,13.848 4.846,12.277 3.667,10.715 C2.485,9.152 0.795,8.941 0.795,8.941 C0.795,8.941 0.148,10.795 1.299,12.318 C2.448,13.843 4.255,13.848 4.255,13.848" id="Fill-18" fill="#81B244" sketch:type="MSShapeGroup"></path>
                <path d="M5.573,17.994 C5.573,17.994 5.801,16.331 4.305,15.07 C2.807,13.807 1.11,13.979 1.11,13.979 C1.11,13.979 0.893,15.931 2.351,17.16 C3.812,18.389 5.573,17.994 5.573,17.994" id="Fill-19" fill="#81B244" sketch:type="MSShapeGroup"></path>
                <path d="M7.583,21.422 C7.583,21.422 7.298,19.768 5.488,19.02 C3.679,18.27 2.116,18.947 2.116,18.947 C2.116,18.947 2.498,20.873 4.261,21.605 C6.024,22.332 7.583,21.422 7.583,21.422" id="Fill-20" fill="#81B244" sketch:type="MSShapeGroup"></path>
                <path d="M8.461,22.846 C6.574,22.318 5.102,23.177 5.102,23.177 C5.102,23.177 5.712,25.042 7.549,25.556 C9.388,26.071 10.826,24.98 10.826,24.98 C10.826,24.98 10.347,23.372 8.461,22.846" id="Fill-21" fill="#81B244" sketch:type="MSShapeGroup"></path>
                <path d="M6.745,7.39 L5.906,6.978 C5.863,7.069 1.55,16.231 13.668,26.591 L14.275,25.881 C2.736,16.016 6.575,7.737 6.745,7.39" id="Fill-22" fill="#81B244" sketch:type="MSShapeGroup"></path>
                <path d="M92.896,24.039 C92.896,24.039 92.191,23.131 92.648,21.87 C93.103,20.609 94.17,20.131 94.17,20.131 C94.17,20.131 94.965,21.212 94.521,22.441 C94.077,23.67 92.896,24.039 92.896,24.039" id="Fill-23" fill="#81B244" sketch:type="MSShapeGroup"></path>
                <path d="M90.941,24.684 C90.941,24.684 89.71,24.584 89.004,23.483 C88.299,22.383 88.838,21.152 88.838,21.152 C88.838,21.152 89.981,21.385 90.707,22.514 C91.43,23.644 90.941,24.684 90.941,24.684" id="Fill-24" fill="#81B244" sketch:type="MSShapeGroup"></path>
                <path d="M90.816,26.138 C91.387,27.352 90.769,28.32 90.769,28.32 C90.769,28.32 89.559,28.061 89.003,26.879 C88.449,25.695 89.144,24.545 89.144,24.545 C89.144,24.545 90.247,24.924 90.816,26.138" id="Fill-25" fill="#81B244" sketch:type="MSShapeGroup"></path>
                <path d="M88.033,27.117 C88.033,27.117 89.096,27.598 89.55,28.861 C90.003,30.123 89.295,31.029 89.295,31.029 C89.295,31.029 88.118,30.657 87.676,29.426 C87.233,28.196 88.033,27.117 88.033,27.117" id="Fill-26" fill="#81B244" sketch:type="MSShapeGroup"></path>
                <path d="M87.146,33.756 C87.146,33.756 86.125,33.061 86.055,31.756 C85.987,30.451 87.065,29.647 87.065,29.647 C87.065,29.647 87.943,30.414 88.015,31.753 C88.084,33.093 87.146,33.756 87.146,33.756" id="Fill-27" fill="#81B244" sketch:type="MSShapeGroup"></path>
                <path d="M91.326,21.609 C91.326,21.609 90.236,21.245 89.917,19.943 C89.597,18.642 90.217,17.651 90.217,17.651 C90.217,17.651 91.479,18.109 91.791,19.38 C92.102,20.648 91.326,21.609 91.326,21.609" id="Fill-28" fill="#81B244" sketch:type="MSShapeGroup"></path>
                <path d="M92.898,26.807 C92.898,26.807 92.493,25.731 93.3,24.661 C94.108,23.591 95.266,23.447 95.266,23.447 C95.266,23.447 95.709,24.716 94.922,25.759 C94.134,26.804 92.898,26.807 92.898,26.807" id="Fill-29" fill="#81B244" sketch:type="MSShapeGroup"></path>
                <path d="M91.995,29.645 C91.995,29.645 91.839,28.506 92.863,27.641 C93.889,26.777 95.051,26.895 95.051,26.895 C95.051,26.895 95.2,28.232 94.199,29.073 C93.201,29.915 91.995,29.645 91.995,29.645" id="Fill-30" fill="#81B244" sketch:type="MSShapeGroup"></path>
                <path d="M90.618,31.992 C90.618,31.992 90.815,30.859 92.052,30.346 C93.294,29.832 94.362,30.296 94.362,30.296 C94.362,30.296 94.101,31.615 92.893,32.115 C91.685,32.616 90.618,31.992 90.618,31.992" id="Fill-31" fill="#81B244" sketch:type="MSShapeGroup"></path>
                <path d="M90.017,32.967 C91.309,32.606 92.318,33.193 92.318,33.193 C92.318,33.193 91.9,34.47 90.642,34.824 C89.383,35.175 88.399,34.428 88.399,34.428 C88.399,34.428 88.727,33.328 90.017,32.967" id="Fill-32" fill="#81B244" sketch:type="MSShapeGroup"></path>
                <path d="M91.191,22.385 L91.767,22.102 C91.798,22.165 94.751,28.438 86.452,35.531 L86.038,35.044 C93.935,28.291 91.308,22.622 91.191,22.385" id="Fill-33" fill="#81B244" sketch:type="MSShapeGroup"></path>
            </g>
        </g>
    </g>
</svg>