<?xml version="1.0" encoding="UTF-8" standalone="no"?>
<svg width="120px" height="120px" viewBox="0 0 120 120" version="1.1" xmlns="http://www.w3.org/2000/svg" xmlns:xlink="http://www.w3.org/1999/xlink" xmlns:sketch="http://www.bohemiancoding.com/sketch/ns">
    <!-- Generator: Sketch 3.3.2 (12043) - http://www.bohemiancoding.com/sketch -->
    <title>Mobile Portrait Copy 5</title>
    <desc>Created with Sketch.</desc>
    <defs></defs>
    <g id="basic" stroke="none" stroke-width="1" fill="none" fill-rule="evenodd" sketch:type="MSPage">
        <g id="Mobile-Portrait-Copy-5" sketch:type="MSArtboardGroup">
            <g id="Imported-Layers" sketch:type="MSLayerGroup" transform="translate(22.000000, 43.000000)">
                <path d="M0.646,0.474 L78.017,0.474 L78.017,29.836 L0.646,29.836 L0.646,0.474 Z" id="Fill-1" fill="#B32959" sketch:type="MSShapeGroup"></path>
                <path d="M0.646,29.836 L78.017,29.836 L78.017,40.9 L0.646,40.9 L0.646,29.836 Z" id="Fill-2" fill="#FFFFFF" sketch:type="MSShapeGroup"></path>
                <path d="M14.033,17.458 C13.838,17.949 13.644,18.392 13.45,18.785 C13.255,19.179 13.048,19.55 12.828,19.897 C12.608,20.245 12.365,20.578 12.1,20.896 C11.833,21.212 11.532,21.545 11.194,21.893 C11.092,21.657 10.969,21.458 10.826,21.294 C10.683,21.13 10.498,20.992 10.273,20.88 C10.938,20.44 11.532,19.897 12.053,19.253 C12.575,18.608 13.086,17.785 13.588,16.782 L12.744,16.782 C12.498,16.782 12.268,16.785 12.053,16.79 C11.838,16.796 11.634,16.804 11.439,16.814 C11.245,16.823 11.051,16.834 10.856,16.844 L10.856,15.602 C11.081,15.622 11.302,15.64 11.516,15.655 C11.731,15.67 11.959,15.684 12.199,15.693 C12.439,15.703 12.706,15.714 12.997,15.724 C13.289,15.734 13.628,15.739 14.018,15.739 C14.018,15.412 14.012,15.095 14.002,14.788 C13.992,14.481 13.977,14.267 13.956,14.144 C14.14,14.164 14.368,14.177 14.639,14.182 C14.91,14.188 15.138,14.19 15.322,14.19 C15.465,14.19 15.552,14.218 15.582,14.273 C15.613,14.33 15.557,14.389 15.414,14.45 C15.271,14.512 15.199,14.624 15.199,14.788 L15.199,15.739 C15.557,15.739 15.872,15.734 16.143,15.724 C16.414,15.714 16.662,15.703 16.887,15.693 C17.112,15.684 17.327,15.67 17.532,15.655 C17.736,15.64 17.946,15.622 18.161,15.602 L18.161,16.844 C17.946,16.834 17.736,16.823 17.532,16.814 C17.327,16.804 17.112,16.796 16.887,16.79 C16.662,16.785 16.411,16.782 16.135,16.782 L15.199,16.782 L15.199,21.433 C15.199,21.626 15.206,21.836 15.222,22.062 C15.237,22.286 15.255,22.501 15.276,22.706 L13.941,22.706 C14.002,22.266 14.033,21.841 14.033,21.433 L14.033,17.458 L14.033,17.458 Z M18.375,12.532 C18.283,12.798 18.229,13.025 18.214,13.215 C18.199,13.404 18.222,13.606 18.283,13.821 C17.751,13.862 17.304,13.88 16.941,13.875 C16.578,13.87 16.286,13.834 16.066,13.768 C15.846,13.701 15.69,13.594 15.598,13.445 C15.506,13.297 15.465,13.1 15.475,12.854 L15.537,10.583 L13.526,10.583 C13.526,11.136 13.485,11.619 13.404,12.033 C13.322,12.448 13.199,12.816 13.036,13.139 C12.872,13.461 12.665,13.75 12.414,14.005 C12.163,14.261 11.864,14.507 11.516,14.742 C11.455,14.64 11.396,14.548 11.34,14.466 C11.284,14.384 11.222,14.313 11.156,14.251 C11.089,14.19 11.015,14.128 10.933,14.066 C10.851,14.005 10.749,13.934 10.626,13.852 C10.984,13.657 11.284,13.442 11.524,13.207 C11.764,12.972 11.951,12.685 12.084,12.348 C12.217,12.011 12.299,11.606 12.33,11.136 C12.36,10.665 12.345,10.093 12.284,9.417 C12.774,9.448 13.542,9.463 14.585,9.463 C15.608,9.463 16.376,9.448 16.887,9.417 C16.856,9.632 16.823,9.978 16.787,10.453 C16.752,10.929 16.723,11.442 16.703,11.995 C16.692,12.18 16.698,12.325 16.718,12.433 C16.739,12.54 16.803,12.611 16.91,12.648 C17.018,12.684 17.186,12.691 17.416,12.67 C17.646,12.65 17.966,12.603 18.375,12.532 L18.375,12.532 Z M17.363,20.711 C17.158,20.404 16.869,20.033 16.496,19.599 C16.122,19.164 15.736,18.752 15.337,18.363 L16.12,17.534 C16.273,17.689 16.444,17.856 16.634,18.041 C16.823,18.226 17.015,18.409 17.209,18.594 C17.403,18.777 17.593,18.954 17.777,19.123 C17.961,19.292 18.124,19.438 18.268,19.56 L17.363,20.711 L17.363,20.711 Z M20.524,10.952 C20.432,11.003 20.386,11.151 20.386,11.397 L20.386,17.565 C20.386,17.872 20.391,18.186 20.401,18.509 C20.411,18.831 20.432,19.182 20.462,19.56 L19.097,19.56 C19.117,19.172 19.132,18.818 19.143,18.501 C19.153,18.185 19.158,17.872 19.158,17.565 L19.158,12.272 C19.158,11.883 19.153,11.55 19.143,11.273 C19.132,10.998 19.117,10.747 19.097,10.522 C19.332,10.573 19.549,10.606 19.749,10.622 C19.948,10.637 20.181,10.645 20.447,10.645 C20.58,10.645 20.654,10.678 20.669,10.744 C20.685,10.812 20.636,10.88 20.524,10.952 L20.524,10.952 Z M23.362,9.156 C23.291,9.218 23.248,9.276 23.232,9.333 C23.217,9.389 23.209,9.483 23.209,9.616 L23.209,21.003 C23.209,21.278 23.189,21.506 23.148,21.685 C23.107,21.864 23.002,22.016 22.833,22.138 C22.665,22.261 22.414,22.363 22.081,22.445 C21.748,22.526 21.296,22.603 20.723,22.675 C20.723,22.378 20.695,22.115 20.639,21.885 C20.582,21.654 20.473,21.386 20.309,21.079 C20.667,21.13 20.951,21.156 21.161,21.156 C21.37,21.156 21.531,21.136 21.644,21.095 C21.756,21.054 21.831,20.992 21.866,20.91 C21.902,20.829 21.92,20.722 21.92,20.588 L21.92,11.335 C21.92,10.712 21.915,10.177 21.905,9.731 C21.895,9.287 21.874,8.952 21.843,8.727 C22.048,8.768 22.273,8.796 22.519,8.811 C22.764,8.826 23.004,8.824 23.24,8.804 C23.393,8.793 23.48,8.829 23.501,8.911 C23.521,8.993 23.475,9.074 23.362,9.156 L23.362,9.156 Z" id="Fill-3" fill="#FFFFFF" sketch:type="MSShapeGroup"></path>
                <path d="M31.863,11.197 C31.331,11.248 30.807,11.292 30.29,11.327 C29.774,11.363 29.294,11.395 28.848,11.42 C28.403,11.445 28.004,11.466 27.651,11.481 C27.298,11.496 27.015,11.504 26.8,11.504 C26.748,11.238 26.687,11.013 26.616,10.829 C26.544,10.645 26.441,10.445 26.309,10.231 C26.493,10.261 26.779,10.276 27.168,10.276 C27.557,10.276 28.012,10.269 28.534,10.254 C29.055,10.238 29.623,10.215 30.237,10.185 C30.851,10.153 31.475,10.113 32.109,10.062 C32.487,10.031 32.896,9.987 33.336,9.932 C33.776,9.875 34.216,9.809 34.656,9.731 C35.096,9.655 35.521,9.573 35.93,9.486 C36.339,9.399 36.712,9.31 37.05,9.218 C37.111,9.402 37.201,9.603 37.318,9.824 C37.436,10.044 37.602,10.308 37.817,10.614 C37.96,10.809 37.899,10.88 37.633,10.829 C37.459,10.798 37.285,10.78 37.111,10.775 C36.937,10.771 36.697,10.775 36.39,10.791 C36.083,10.806 35.677,10.837 35.17,10.883 C34.664,10.929 34.002,10.993 33.183,11.074 L33.183,13.269 C34.093,13.259 34.869,13.243 35.508,13.223 C36.147,13.202 36.707,13.167 37.188,13.115 L37.188,14.42 C36.727,14.379 36.17,14.351 35.516,14.335 C34.861,14.32 34.083,14.317 33.183,14.327 L33.183,16.353 C33.766,16.343 34.342,16.33 34.909,16.315 C35.477,16.3 36.017,16.284 36.528,16.269 C37.04,16.253 37.51,16.235 37.94,16.215 C38.37,16.194 38.743,16.174 39.06,16.153 L39.06,17.488 C38.743,17.468 38.367,17.45 37.932,17.435 C37.498,17.42 37.024,17.407 36.513,17.397 C36.002,17.387 35.464,17.381 34.902,17.381 L33.183,17.381 L33.183,21.371 C33.183,21.565 33.155,21.728 33.099,21.862 C33.043,21.995 32.912,22.109 32.707,22.207 C32.502,22.304 32.206,22.386 31.817,22.452 C31.429,22.519 30.897,22.578 30.222,22.629 C30.129,22.076 29.915,21.545 29.577,21.033 C30.058,21.095 30.449,21.133 30.751,21.148 C31.053,21.164 31.286,21.146 31.449,21.095 C31.613,21.043 31.723,20.954 31.779,20.826 C31.835,20.698 31.863,20.522 31.863,20.297 L31.863,17.381 C31.198,17.392 30.544,17.401 29.899,17.412 C29.255,17.422 28.649,17.435 28.081,17.45 C27.513,17.466 27.002,17.483 26.546,17.504 C26.091,17.524 25.72,17.545 25.434,17.565 L25.434,16.246 C25.72,16.267 26.094,16.287 26.554,16.307 C27.015,16.327 27.529,16.341 28.096,16.346 C28.664,16.351 29.268,16.355 29.907,16.36 C30.546,16.366 31.198,16.363 31.863,16.353 L31.863,14.313 C30.881,14.313 30.002,14.32 29.224,14.335 C28.447,14.351 27.833,14.379 27.383,14.42 L27.383,13.146 C27.853,13.197 28.47,13.233 29.232,13.253 C29.994,13.274 30.871,13.279 31.863,13.269 L31.863,11.197" id="Fill-4" fill="#FFFFFF" sketch:type="MSShapeGroup"></path>
                <path d="M47.499,16.046 C48.522,15.995 49.466,15.946 50.331,15.9 C51.195,15.854 51.929,15.806 52.533,15.755 L52.594,16.875 C51.98,16.844 51.236,16.834 50.361,16.844 C49.487,16.855 48.533,16.88 47.499,16.921 L47.499,18.363 C48.85,18.322 50.011,18.273 50.983,18.218 C51.955,18.161 52.804,18.092 53.53,18.011 L53.592,19.191 C52.845,19.172 51.98,19.169 50.999,19.185 C50.016,19.199 48.85,19.232 47.499,19.284 L47.499,20.419 C47.499,20.624 47.515,20.782 47.546,20.896 C47.577,21.008 47.661,21.092 47.799,21.148 C47.937,21.204 48.149,21.24 48.436,21.256 C48.722,21.272 49.121,21.278 49.633,21.278 C50.267,21.278 50.773,21.264 51.152,21.232 C51.53,21.202 51.83,21.13 52.049,21.018 C52.269,20.905 52.433,20.739 52.54,20.519 C52.648,20.299 52.753,20.005 52.855,19.637 C53.019,19.821 53.208,19.987 53.423,20.136 C53.638,20.284 53.852,20.404 54.067,20.496 C53.914,20.905 53.758,21.23 53.599,21.471 C53.44,21.711 53.216,21.893 52.924,22.016 C52.633,22.138 52.231,22.217 51.72,22.253 C51.208,22.289 50.523,22.307 49.664,22.307 C48.824,22.307 48.175,22.297 47.714,22.276 C47.254,22.256 46.914,22.196 46.694,22.1 C46.474,22.002 46.344,21.854 46.303,21.654 C46.262,21.455 46.242,21.177 46.242,20.818 L46.242,19.33 C45.126,19.381 44.139,19.435 43.28,19.491 C42.42,19.548 41.669,19.606 41.024,19.668 L40.963,18.486 C41.638,18.507 42.403,18.509 43.257,18.493 C44.111,18.478 45.106,18.455 46.242,18.425 L46.242,16.967 C45.239,17.008 44.382,17.051 43.671,17.098 C42.96,17.144 42.313,17.192 41.73,17.243 L41.669,16.139 C41.965,16.148 42.267,16.156 42.574,16.161 C42.881,16.167 43.213,16.167 43.571,16.161 C43.93,16.156 44.326,16.148 44.761,16.139 C45.195,16.128 45.689,16.113 46.242,16.092 L46.242,14.864 C45.402,14.916 44.661,14.957 44.017,14.987 C43.372,15.018 42.825,15.044 42.374,15.065 C42.323,14.891 42.249,14.693 42.152,14.474 C42.055,14.254 41.965,14.072 41.884,13.929 C42.364,13.959 43.04,13.975 43.909,13.975 C44.778,13.975 45.822,13.939 47.04,13.867 C47.489,13.837 47.945,13.796 48.405,13.744 C48.865,13.693 49.303,13.635 49.717,13.568 C50.131,13.502 50.515,13.433 50.868,13.36 C51.221,13.289 51.52,13.223 51.766,13.161 C51.868,13.376 51.985,13.575 52.119,13.76 C52.251,13.944 52.39,14.098 52.533,14.22 C52.625,14.302 52.661,14.376 52.64,14.442 C52.62,14.509 52.553,14.532 52.441,14.512 C52.338,14.502 52.195,14.496 52.011,14.496 C51.827,14.496 51.553,14.507 51.19,14.527 C50.827,14.548 50.351,14.578 49.763,14.619 C49.175,14.66 48.42,14.711 47.499,14.772 L47.499,16.046 L47.499,16.046 Z M43.571,11.228 C43.244,11.709 42.976,12.074 42.766,12.325 C42.556,12.576 42.354,12.793 42.16,12.978 C42.017,12.834 41.858,12.714 41.684,12.616 C41.51,12.52 41.352,12.445 41.209,12.395 C41.832,11.842 42.359,11.238 42.789,10.583 C43.219,9.929 43.541,9.248 43.756,8.543 C44.001,8.655 44.262,8.758 44.538,8.85 C44.814,8.941 45.07,9.003 45.306,9.033 C45.418,9.055 45.469,9.098 45.459,9.164 C45.449,9.23 45.387,9.289 45.275,9.341 C45.111,9.412 44.942,9.524 44.769,9.678 C44.594,9.831 44.4,10.046 44.185,10.322 L45.582,10.322 C46.073,10.322 46.512,10.315 46.901,10.3 C47.29,10.284 47.571,10.267 47.745,10.246 L47.745,11.305 C47.571,11.284 47.305,11.267 46.947,11.251 C46.589,11.235 46.18,11.228 45.72,11.228 C45.935,11.985 46.134,12.558 46.318,12.946 L45.06,13.177 C45.029,12.972 44.978,12.714 44.906,12.401 C44.835,12.09 44.727,11.698 44.584,11.228 L43.571,11.228 L43.571,11.228 Z M49.863,11.197 C49.586,11.668 49.351,12.061 49.157,12.379 C48.962,12.696 48.799,12.957 48.666,13.161 C48.492,13.019 48.318,12.911 48.144,12.839 C47.97,12.768 47.766,12.711 47.53,12.67 C47.725,12.496 47.937,12.248 48.167,11.926 C48.398,11.603 48.617,11.251 48.827,10.867 C49.037,10.483 49.228,10.09 49.402,9.685 C49.576,9.282 49.704,8.9 49.786,8.543 C50.032,8.625 50.305,8.701 50.607,8.772 C50.909,8.845 51.167,8.896 51.382,8.926 C51.495,8.947 51.553,8.978 51.559,9.019 C51.563,9.06 51.51,9.106 51.398,9.156 C51.285,9.218 51.139,9.349 50.96,9.548 C50.781,9.747 50.594,9.995 50.4,10.292 L52.18,10.292 C52.671,10.292 53.09,10.284 53.438,10.269 C53.786,10.254 54.047,10.235 54.221,10.215 L54.221,11.273 C54.047,11.254 53.766,11.235 53.377,11.221 C52.988,11.205 52.507,11.197 51.935,11.197 C52.047,11.556 52.139,11.847 52.21,12.072 C52.282,12.297 52.359,12.512 52.441,12.717 L51.152,12.916 C51.131,12.711 51.098,12.486 51.052,12.24 C51.006,11.995 50.927,11.647 50.814,11.197 L49.863,11.197 L49.863,11.197 Z" id="Fill-5" fill="#FFFFFF" sketch:type="MSShapeGroup"></path>
                <path d="M59.192,21.463 C59.131,21.514 59.062,21.583 58.985,21.67 C58.909,21.757 58.827,21.849 58.74,21.946 C58.653,22.043 58.571,22.138 58.494,22.231 C58.417,22.322 58.358,22.404 58.318,22.476 C58.185,22.271 58.039,22.069 57.88,21.869 C57.722,21.67 57.545,21.473 57.351,21.278 C57.556,21.104 57.724,20.87 57.857,20.573 C57.99,20.276 58.057,19.918 58.057,19.499 L58.057,14.404 C57.504,14.404 57.062,14.42 56.73,14.45 C56.397,14.481 56.108,14.527 55.863,14.589 L55.863,13.131 C56.098,13.161 56.359,13.182 56.645,13.192 C56.932,13.202 57.264,13.207 57.643,13.207 C58.001,13.207 58.326,13.199 58.617,13.185 C58.909,13.169 59.172,13.151 59.407,13.131 C59.366,13.366 59.335,13.652 59.315,13.99 C59.294,14.327 59.285,14.676 59.285,15.033 L59.285,19.606 C59.622,19.34 59.944,19.071 60.251,18.801 C60.558,18.529 60.814,18.286 61.019,18.071 C61.069,18.307 61.141,18.558 61.233,18.823 C61.325,19.09 61.412,19.294 61.494,19.438 L59.192,21.463 L59.192,21.463 Z M58.732,11.903 C58.589,11.483 58.389,11.041 58.134,10.576 C57.878,10.11 57.602,9.684 57.305,9.295 L58.579,8.619 C58.834,9.008 59.098,9.428 59.369,9.878 C59.64,10.328 59.877,10.737 60.083,11.105 L58.732,11.903 L58.732,11.903 Z M67.402,10.891 L64.164,10.891 C63.98,10.891 63.773,10.896 63.542,10.905 C63.312,10.916 63.085,10.932 62.86,10.952 C62.635,10.973 62.425,10.995 62.23,11.021 C62.036,11.047 61.883,11.074 61.77,11.105 L61.77,9.417 C62.057,9.499 62.481,9.553 63.044,9.578 C63.606,9.603 64.354,9.616 65.284,9.616 C66.195,9.616 66.919,9.602 67.456,9.57 C67.993,9.54 68.419,9.489 68.737,9.417 C68.706,9.622 68.686,9.831 68.675,10.046 C68.665,10.261 68.66,10.512 68.66,10.798 L68.66,13.683 C68.66,14.123 68.668,14.535 68.683,14.918 C68.699,15.302 68.716,15.709 68.737,16.139 L67.402,16.139 L67.402,15.356 L63.489,15.356 L63.489,19.836 C63.489,20.112 63.507,20.335 63.542,20.504 C63.579,20.673 63.678,20.801 63.842,20.888 C64.005,20.975 64.251,21.031 64.579,21.057 C64.906,21.082 65.361,21.095 65.944,21.095 C66.445,21.095 66.844,21.074 67.141,21.033 C67.438,20.992 67.673,20.898 67.847,20.749 C68.02,20.602 68.156,20.381 68.253,20.09 C68.351,19.798 68.445,19.397 68.538,18.885 C68.772,19.12 69.018,19.315 69.274,19.468 C69.529,19.621 69.77,19.728 69.995,19.79 C69.811,20.363 69.64,20.816 69.481,21.148 C69.322,21.481 69.11,21.728 68.844,21.893 C68.578,22.056 68.22,22.158 67.77,22.199 C67.32,22.24 66.711,22.261 65.944,22.261 C65.085,22.261 64.407,22.245 63.911,22.215 C63.415,22.184 63.042,22.12 62.791,22.023 C62.54,21.926 62.381,21.782 62.315,21.594 C62.249,21.404 62.215,21.15 62.215,20.834 L62.215,15.463 C62.215,15.115 62.21,14.847 62.2,14.657 C62.189,14.469 62.169,14.287 62.139,14.112 C62.251,14.134 62.366,14.148 62.484,14.159 C62.602,14.169 62.742,14.18 62.906,14.19 C63.069,14.2 63.259,14.205 63.474,14.205 L64.271,14.205 L67.402,14.205 L67.402,10.891 L67.402,10.891 Z" id="Fill-6" fill="#FFFFFF" sketch:type="MSShapeGroup"></path>
                <path d="M10.722,37.559 L10.722,33.565 L13.416,33.565 L13.416,34.036 L11.25,34.036 L11.25,35.272 L13.125,35.272 L13.125,35.744 L11.25,35.744 L11.25,37.559 L10.722,37.559" id="Fill-7" fill="#B9BBBA" sketch:type="MSShapeGroup"></path>
                <path d="M14.111,37.559 L14.111,33.565 L15.882,33.565 C16.238,33.565 16.509,33.601 16.694,33.672 C16.879,33.744 17.027,33.87 17.138,34.052 C17.248,34.233 17.304,34.435 17.304,34.654 C17.304,34.938 17.212,35.177 17.029,35.371 C16.846,35.565 16.562,35.689 16.179,35.741 C16.319,35.809 16.425,35.875 16.498,35.94 C16.652,36.082 16.798,36.259 16.936,36.472 L17.631,37.559 L16.966,37.559 L16.438,36.728 C16.283,36.488 16.156,36.305 16.056,36.177 C15.956,36.05 15.867,35.961 15.788,35.91 C15.709,35.859 15.628,35.824 15.547,35.804 C15.487,35.791 15.389,35.785 15.252,35.785 L14.64,35.785 L14.64,37.559 L14.111,37.559 L14.111,37.559 Z M14.64,35.327 L15.776,35.327 C16.017,35.327 16.206,35.302 16.342,35.252 C16.478,35.202 16.582,35.122 16.653,35.013 C16.724,34.902 16.759,34.783 16.759,34.654 C16.759,34.465 16.691,34.31 16.554,34.189 C16.416,34.066 16.2,34.006 15.904,34.006 L14.64,34.006 L14.64,35.327 L14.64,35.327 Z" id="Fill-8" fill="#B9BBBA" sketch:type="MSShapeGroup"></path>
                <path d="M17.972,35.613 C17.972,34.95 18.15,34.432 18.506,34.057 C18.862,33.681 19.321,33.493 19.884,33.493 C20.253,33.493 20.585,33.582 20.882,33.758 C21.178,33.934 21.403,34.18 21.559,34.495 C21.714,34.81 21.791,35.167 21.791,35.567 C21.791,35.972 21.71,36.334 21.546,36.654 C21.383,36.974 21.151,37.216 20.852,37.38 C20.552,37.545 20.228,37.627 19.882,37.627 C19.506,37.627 19.17,37.536 18.873,37.355 C18.578,37.173 18.353,36.925 18.201,36.61 C18.048,36.296 17.972,35.964 17.972,35.613 L17.972,35.613 Z M18.517,35.621 C18.517,36.103 18.646,36.482 18.905,36.759 C19.164,37.036 19.488,37.175 19.879,37.175 C20.277,37.175 20.604,37.034 20.861,36.755 C21.118,36.476 21.247,36.078 21.247,35.565 C21.247,35.239 21.192,34.955 21.082,34.713 C20.972,34.471 20.811,34.282 20.6,34.148 C20.388,34.016 20.15,33.948 19.887,33.948 C19.513,33.948 19.191,34.077 18.921,34.334 C18.652,34.591 18.517,35.021 18.517,35.621 L18.517,35.621 Z" id="Fill-9" fill="#B9BBBA" sketch:type="MSShapeGroup"></path>
                <path d="M22.456,37.559 L22.456,33.565 L23.252,33.565 L24.198,36.393 C24.285,36.656 24.348,36.853 24.388,36.983 C24.434,36.839 24.504,36.625 24.601,36.344 L25.557,33.565 L26.268,33.565 L26.268,37.559 L25.759,37.559 L25.759,34.216 L24.598,37.559 L24.121,37.559 L22.966,34.158 L22.966,37.559 L22.456,37.559" id="Fill-10" fill="#B9BBBA" sketch:type="MSShapeGroup"></path>
                <path d="M29.987,36.259 C29.916,36.438 29.846,36.598 29.775,36.741 C29.705,36.885 29.629,37.019 29.549,37.145 C29.469,37.273 29.381,37.394 29.284,37.509 C29.187,37.624 29.078,37.744 28.955,37.871 C28.918,37.785 28.873,37.713 28.821,37.653 C28.769,37.594 28.702,37.544 28.62,37.503 C28.862,37.343 29.078,37.145 29.268,36.911 C29.457,36.677 29.643,36.378 29.825,36.013 L29.519,36.013 C29.429,36.013 29.346,36.014 29.268,36.016 C29.189,36.018 29.115,36.02 29.044,36.024 C28.974,36.028 28.903,36.031 28.832,36.035 L28.832,35.583 C28.914,35.591 28.994,35.598 29.072,35.603 C29.15,35.608 29.233,35.613 29.32,35.617 C29.408,35.62 29.504,35.624 29.61,35.628 C29.717,35.632 29.84,35.634 29.981,35.634 C29.981,35.515 29.979,35.399 29.976,35.287 C29.972,35.176 29.967,35.098 29.959,35.054 C30.026,35.06 30.109,35.065 30.207,35.067 C30.306,35.069 30.389,35.07 30.456,35.07 C30.508,35.07 30.54,35.08 30.551,35.101 C30.562,35.121 30.541,35.143 30.489,35.165 C30.438,35.188 30.411,35.228 30.411,35.287 L30.411,35.634 C30.541,35.634 30.656,35.632 30.754,35.628 C30.853,35.624 30.943,35.62 31.025,35.617 C31.107,35.613 31.185,35.608 31.259,35.603 C31.334,35.598 31.41,35.591 31.488,35.583 L31.488,36.035 C31.41,36.031 31.334,36.028 31.259,36.024 C31.185,36.02 31.107,36.018 31.025,36.016 C30.943,36.014 30.852,36.013 30.752,36.013 L30.411,36.013 L30.411,37.704 C30.411,37.774 30.414,37.851 30.419,37.933 C30.425,38.015 30.432,38.093 30.439,38.167 L29.954,38.167 C29.976,38.007 29.987,37.853 29.987,37.704 L29.987,36.259 L29.987,36.259 Z M31.566,34.468 C31.533,34.565 31.513,34.647 31.508,34.716 C31.502,34.784 31.511,34.858 31.533,34.936 C31.339,34.951 31.177,34.957 31.044,34.956 C30.913,34.954 30.807,34.94 30.727,34.917 C30.646,34.893 30.59,34.853 30.556,34.8 C30.523,34.745 30.508,34.674 30.512,34.585 L30.534,33.759 L29.803,33.759 C29.803,33.96 29.788,34.136 29.758,34.286 C29.729,34.437 29.684,34.57 29.624,34.687 C29.565,34.805 29.49,34.91 29.398,35.003 C29.307,35.096 29.199,35.185 29.072,35.27 C29.05,35.233 29.028,35.2 29.008,35.17 C28.987,35.141 28.965,35.114 28.941,35.092 C28.917,35.07 28.89,35.048 28.86,35.025 C28.83,35.003 28.793,34.977 28.748,34.947 C28.878,34.877 28.987,34.799 29.075,34.713 C29.162,34.627 29.23,34.523 29.279,34.4 C29.327,34.277 29.357,34.131 29.368,33.96 C29.379,33.788 29.373,33.58 29.351,33.335 C29.53,33.346 29.809,33.352 30.188,33.352 C30.56,33.352 30.839,33.346 31.025,33.335 C31.014,33.413 31.002,33.538 30.989,33.711 C30.976,33.884 30.965,34.071 30.958,34.273 C30.955,34.339 30.956,34.392 30.964,34.431 C30.971,34.47 30.995,34.496 31.034,34.509 C31.073,34.522 31.134,34.525 31.218,34.518 C31.301,34.51 31.418,34.493 31.566,34.468 L31.566,34.468 Z M31.198,37.441 C31.123,37.33 31.019,37.195 30.883,37.037 C30.747,36.879 30.606,36.729 30.461,36.588 L30.746,36.286 C30.802,36.342 30.864,36.403 30.933,36.471 C31.002,36.537 31.072,36.605 31.142,36.672 C31.213,36.738 31.282,36.803 31.349,36.864 C31.415,36.925 31.475,36.978 31.527,37.023 L31.198,37.441 L31.198,37.441 Z M32.348,33.893 C32.314,33.911 32.297,33.965 32.297,34.055 L32.297,36.298 C32.297,36.409 32.299,36.523 32.303,36.641 C32.307,36.758 32.314,36.886 32.325,37.023 L31.829,37.023 C31.836,36.882 31.842,36.753 31.845,36.638 C31.849,36.523 31.851,36.409 31.851,36.298 L31.851,34.372 C31.851,34.231 31.849,34.11 31.845,34.01 C31.842,33.909 31.836,33.818 31.829,33.736 C31.914,33.755 31.993,33.767 32.066,33.772 C32.138,33.778 32.223,33.781 32.32,33.781 C32.368,33.781 32.395,33.793 32.4,33.817 C32.406,33.842 32.388,33.866 32.348,33.893 L32.348,33.893 Z M33.38,33.24 C33.354,33.262 33.338,33.283 33.332,33.304 C33.327,33.324 33.324,33.358 33.324,33.407 L33.324,37.548 C33.324,37.648 33.316,37.73 33.302,37.796 C33.287,37.86 33.249,37.916 33.187,37.96 C33.126,38.005 33.035,38.042 32.914,38.072 C32.793,38.102 32.628,38.13 32.42,38.155 C32.42,38.048 32.41,37.952 32.389,37.868 C32.369,37.784 32.329,37.686 32.27,37.575 C32.399,37.594 32.503,37.603 32.579,37.603 C32.655,37.603 32.714,37.596 32.755,37.581 C32.796,37.566 32.823,37.544 32.836,37.514 C32.849,37.484 32.855,37.445 32.855,37.397 L32.855,34.032 C32.855,33.806 32.853,33.61 32.85,33.449 C32.846,33.287 32.838,33.165 32.828,33.084 C32.902,33.099 32.983,33.108 33.073,33.114 C33.162,33.12 33.249,33.119 33.335,33.111 C33.391,33.107 33.422,33.121 33.43,33.15 C33.437,33.181 33.421,33.21 33.38,33.24 L33.38,33.24 Z" id="Fill-11" fill="#B9BBBA" sketch:type="MSShapeGroup"></path>
                <path d="M36.471,33.981 C36.278,34.001 36.087,34.017 35.899,34.029 C35.711,34.042 35.537,34.054 35.375,34.063 C35.213,34.072 35.068,34.079 34.939,34.085 C34.811,34.091 34.708,34.094 34.63,34.094 C34.611,33.997 34.589,33.915 34.563,33.848 C34.537,33.781 34.499,33.708 34.451,33.63 C34.518,33.642 34.623,33.648 34.764,33.648 C34.905,33.648 35.071,33.644 35.26,33.639 C35.45,33.633 35.657,33.625 35.88,33.613 C36.103,33.603 36.33,33.588 36.56,33.569 C36.698,33.558 36.847,33.542 37.007,33.522 C37.167,33.501 37.327,33.477 37.487,33.449 C37.646,33.421 37.801,33.392 37.95,33.359 C38.099,33.328 38.234,33.296 38.357,33.262 C38.379,33.329 38.412,33.402 38.455,33.482 C38.498,33.562 38.558,33.658 38.636,33.77 C38.688,33.841 38.666,33.866 38.569,33.848 C38.506,33.837 38.443,33.83 38.379,33.828 C38.316,33.826 38.229,33.828 38.117,33.834 C38.006,33.84 37.858,33.851 37.674,33.867 C37.49,33.884 37.248,33.907 36.951,33.937 L36.951,34.735 C37.282,34.731 37.564,34.726 37.796,34.719 C38.029,34.711 38.232,34.698 38.408,34.68 L38.408,35.153 C38.24,35.139 38.037,35.129 37.799,35.123 C37.561,35.117 37.278,35.116 36.951,35.12 L36.951,35.856 C37.163,35.853 37.373,35.849 37.579,35.843 C37.785,35.837 37.981,35.832 38.168,35.826 C38.354,35.82 38.524,35.815 38.681,35.807 C38.837,35.799 38.973,35.792 39.088,35.784 L39.088,36.269 C38.973,36.263 38.836,36.256 38.678,36.25 C38.52,36.244 38.348,36.24 38.162,36.236 C37.976,36.232 37.781,36.23 37.576,36.23 L36.951,36.23 L36.951,37.682 C36.951,37.752 36.941,37.812 36.92,37.86 C36.9,37.908 36.852,37.95 36.778,37.985 C36.704,38.021 36.596,38.051 36.455,38.075 C36.313,38.099 36.12,38.12 35.874,38.139 C35.841,37.939 35.763,37.744 35.64,37.559 C35.814,37.581 35.957,37.595 36.067,37.601 C36.176,37.606 36.261,37.6 36.321,37.581 C36.38,37.563 36.42,37.53 36.44,37.483 C36.461,37.437 36.471,37.373 36.471,37.291 L36.471,36.23 C36.229,36.234 35.991,36.238 35.757,36.242 C35.522,36.245 35.302,36.25 35.096,36.256 C34.889,36.262 34.703,36.268 34.538,36.275 C34.372,36.283 34.237,36.29 34.133,36.298 L34.133,35.817 C34.237,35.825 34.373,35.833 34.54,35.84 C34.708,35.848 34.895,35.853 35.102,35.853 C35.308,35.855 35.527,35.857 35.76,35.859 C35.992,35.861 36.229,35.86 36.471,35.856 L36.471,35.114 C36.114,35.114 35.794,35.117 35.512,35.123 C35.229,35.129 35.005,35.139 34.842,35.153 L34.842,34.69 C35.013,34.709 35.237,34.723 35.514,34.73 C35.791,34.737 36.11,34.739 36.471,34.735 L36.471,33.981" id="Fill-12" fill="#B9BBBA" sketch:type="MSShapeGroup"></path>
                <path d="M40.829,37.715 C40.807,37.733 40.781,37.759 40.753,37.79 C40.726,37.821 40.696,37.856 40.664,37.891 C40.633,37.926 40.603,37.96 40.575,37.994 C40.547,38.027 40.525,38.057 40.511,38.083 C40.462,38.009 40.409,37.935 40.352,37.862 C40.294,37.79 40.23,37.719 40.159,37.648 C40.233,37.585 40.295,37.499 40.343,37.392 C40.392,37.283 40.416,37.153 40.416,37.001 L40.416,35.148 C40.215,35.148 40.054,35.153 39.933,35.165 C39.812,35.176 39.707,35.192 39.618,35.215 L39.618,34.685 C39.704,34.696 39.798,34.703 39.902,34.707 C40.007,34.711 40.127,34.713 40.265,34.713 C40.396,34.713 40.514,34.71 40.62,34.704 C40.726,34.699 40.821,34.692 40.907,34.685 C40.892,34.771 40.881,34.875 40.873,34.997 C40.866,35.12 40.862,35.247 40.862,35.377 L40.862,37.04 C40.985,36.943 41.102,36.846 41.214,36.747 C41.326,36.648 41.419,36.56 41.493,36.481 C41.511,36.567 41.538,36.658 41.571,36.755 C41.604,36.852 41.636,36.926 41.666,36.978 L40.829,37.715 L40.829,37.715 Z M40.662,34.238 C40.609,34.086 40.537,33.925 40.444,33.756 C40.351,33.587 40.25,33.432 40.143,33.29 L40.606,33.045 C40.699,33.185 40.794,33.338 40.893,33.502 C40.992,33.666 41.078,33.815 41.152,33.948 L40.662,34.238 L40.662,34.238 Z M43.814,33.87 L42.637,33.87 C42.57,33.87 42.495,33.872 42.411,33.876 C42.327,33.88 42.244,33.885 42.163,33.893 C42.081,33.9 42.004,33.908 41.934,33.918 C41.863,33.927 41.807,33.937 41.766,33.948 L41.766,33.335 C41.871,33.364 42.025,33.384 42.229,33.394 C42.434,33.402 42.706,33.407 43.044,33.407 C43.375,33.407 43.638,33.401 43.834,33.391 C44.029,33.379 44.184,33.36 44.299,33.335 C44.289,33.409 44.281,33.485 44.277,33.564 C44.273,33.642 44.271,33.732 44.271,33.837 L44.271,34.886 C44.271,35.046 44.274,35.195 44.28,35.335 C44.286,35.475 44.292,35.622 44.299,35.778 L43.814,35.778 L43.814,35.494 L42.391,35.494 L42.391,37.123 C42.391,37.224 42.398,37.305 42.411,37.366 C42.424,37.428 42.46,37.474 42.519,37.506 C42.579,37.537 42.668,37.558 42.788,37.567 C42.906,37.576 43.072,37.581 43.284,37.581 C43.466,37.581 43.611,37.573 43.719,37.559 C43.827,37.544 43.913,37.51 43.976,37.455 C44.039,37.401 44.088,37.321 44.124,37.216 C44.159,37.109 44.193,36.964 44.227,36.777 C44.312,36.863 44.402,36.934 44.495,36.989 C44.588,37.045 44.675,37.084 44.757,37.106 C44.69,37.315 44.628,37.479 44.57,37.601 C44.512,37.722 44.435,37.812 44.338,37.871 C44.242,37.931 44.112,37.968 43.948,37.982 C43.784,37.997 43.563,38.005 43.284,38.005 C42.972,38.005 42.725,37.999 42.544,37.988 C42.364,37.978 42.229,37.954 42.137,37.919 C42.046,37.883 41.988,37.831 41.964,37.763 C41.94,37.693 41.928,37.602 41.928,37.486 L41.928,35.533 C41.928,35.406 41.926,35.309 41.922,35.24 C41.919,35.171 41.911,35.105 41.9,35.042 C41.941,35.05 41.983,35.055 42.026,35.059 C42.068,35.062 42.12,35.066 42.179,35.07 C42.239,35.073 42.308,35.075 42.386,35.075 L42.676,35.075 L43.814,35.075 L43.814,33.87 L43.814,33.87 Z" id="Fill-13" fill="#B9BBBA" sketch:type="MSShapeGroup"></path>
            </g>
        </g>
    </g>
</svg>