<?xml version="1.0" encoding="utf-8"?>
<!-- Generator: Adobe Illustrator 16.0.0, SVG Export Plug-In . SVG Version: 6.00 Build 0)  -->
<!DOCTYPE svg PUBLIC "-//W3C//DTD SVG 1.1//EN" "http://www.w3.org/Graphics/SVG/1.1/DTD/svg11.dtd">
<svg version="1.1" id="Layer_1" xmlns="http://www.w3.org/2000/svg" xmlns:xlink="http://www.w3.org/1999/xlink" x="0px" y="0px"
	 width="126.876px" height="112.438px" viewBox="0 0 126.876 112.438" enable-background="new 0 0 126.876 112.438"
	 xml:space="preserve">
<rect fill="#FFFFFF" width="126.876" height="112.438"/>
<path d="M18.461,47.468c-0.035,0.088,0.091,1.129,0.603,1.322s2.414-1.398,2.414-1.398c-0.021-0.844-0.646-0.609-1.197-0.237
	l0.138-0.184l-0.011-0.02c0.438-0.172,0.934-0.275,1.239-0.288c0.583-0.022,0.298,1.046,0.298,1.046s-1.463,0.537-1.275,1.421
	c0.188,0.886,0.539,0.143,0.709-0.089c0.17-0.23,1.125-0.798,1.576-0.722c0.452,0.076,1.916-0.826,2.131-0.813
	c0.029,0.002,0.088-0.025,0.163-0.066c0.546-0.021,0.937,0.141,1.161,0.06c0.338-0.119,0.67-0.164,0.957-0.186
	c0.086,0.17,0.266,0.281,0.473,0.268l1.202-0.082c0.206-0.013,0.378-0.146,0.453-0.327c1.396-0.091,3.298-0.22,4.205-0.413
	c1.341-0.286,6.458-0.941,7.386-1.56c0.93-0.618,5.283-1.565,5.459-1.576c0.176-0.01,0.284,0.156-0.009,0.343
	c-0.294,0.187-0.411,0.05-0.039,0.421c0.373,0.371,1.654,0.124,1.44,0.644c-0.215,0.52-0.594,1.557-0.397,1.89
	c0.196,0.332,0.459-0.109-0.428,1.753c-0.888,1.861-1.079,3.906-1.764,4.426c-0.685,0.521-2.391,3.734-2.487,4.497
	c-0.097,0.764,0.339,3.229,0.202,3.543c-0.136,0.313-0.704,0.559-1.203,0.521s-1.632,0.776-1.544,1.344
	c0.09,0.568,0.12,1.185,0.776,1.311c0.655,0.126,2.673,0.689,2.741,0.826c0.069,0.138-0.859,0.657-1.006,0.883
	c-0.146,0.227-4.119,0.889-4.461,1.173s-1.889,0.769-1.889,0.856c0.001,0.088-0.487,0.312-0.487,0.312s-3.026-1.442-2.888-0.327
	c0.139,1.116,2.345,3.138,2.345,3.138s0.401,0.254,1.254,0.516c0.852,0.264,2.263,0.799,2.263,0.799v0.333l0.432,0.518
	c0,0-0.246,0.413,0.107,0.599c0.353,0.186,0.374,0.486,0.277,0.722c-0.098,0.235-0.459,0.745-0.763,0.579
	c-0.016-0.009-0.03-0.02-0.044-0.029c-0.161-0.72-0.877-1.261-1.734-1.259c-0.255,0-0.496,0.05-0.715,0.136
	c-0.111,0.037-0.234,0.095-0.352,0.186c-0.424,0.287-0.699,0.738-0.697,1.247c0,0.351,0.131,0.672,0.351,0.932
	c0.106,0.162,0.267,0.293,0.49,0.398c0.271,0.147,0.587,0.233,0.928,0.233c0.128,0,0.251-0.013,0.37-0.035
	c0.617-0.099,1.019-0.443,1.029-0.47c0.014-0.036,0.095-0.103,0.095-0.103l2.165,0.921c-0.001,0.017-0.003,0.034-0.003,0.051
	c0.001,0.865,0.755,1.565,1.682,1.563s1.677-0.704,1.675-1.569c-0.001-0.865-0.754-1.564-1.681-1.562
	c-0.311,0-0.601,0.081-0.851,0.219c-0.133-0.182-0.271-0.433-0.183-0.617c0.154-0.323,0.741-0.309,0.793-0.396
	s0.18-0.091,0.18-0.091s0.271,0.115,0.481,0.177l0.332,0.134l0.426-0.457l14.697,7.124l-0.188,0.497l0.098,0.138l0.25,0.137
	c0.001,0.001,0.002,0.003,0.004,0.005c0.113,0.105,0.294,0.499,0.294,0.499s0.322,0.792,0.19,1.013s-0.653,0.239-0.742,0.195
	c-0.018-0.009-0.118-0.061-0.263-0.126c-0.164-0.189-0.375-0.336-0.626-0.416c-0.768-0.244-1.602,0.227-1.864,1.051
	c-0.222,0.697,0.039,1.423,0.59,1.778c0.875,0.792,2.372,0.02,2.505-0.29c0.111-0.261,1.51,0.343,2.058,0.591
	c-0.042,0.67,0.328,1.297,0.95,1.514c0.761,0.266,1.607-0.181,1.894-0.997c0.284-0.816-0.101-1.693-0.86-1.959
	c-0.493-0.173-1.021-0.044-1.411,0.29c-0.139-0.13-0.485-0.476-0.409-0.647c0.096-0.212,1.014-0.373,1.146-0.454
	c0.053-0.033,0.14-0.094,0.225-0.158l0.437,0.108l0.35-0.595c0.241,0,2.631,1.252,4.91,1.554c1.885,0.25,4.679,0.755,4.247-0.185
	c-0.433-0.938-3.468-1.344-3.468-1.344l-2.095-0.388l1.154-0.257c0,0,0.646-0.275,0.858-0.98c0.215-0.705,0.584-1.938,0.838-2.448
	c0.254-0.509,0.801-0.667,0.546-1.332c-0.256-0.665,0.136-0.47,0.233-0.47c0.099,0,1.957-0.376,1.957-0.376s1.114-0.589,1.291-0.863
	c0.176-0.274,0.915-2.605,0.934-2.919c0.02-0.312,0.252-1.213,0.446-1.801s1.793-4.369,2.242-4.977s2.713-4.33,2.751-4.487
	c0.04-0.156,0.408-2.075,0.682-2.487c0.273-0.411,0.935-2.37,0.953-3.016c0.019-0.646,0.15-3.406-0.242-3.777
	c-0.392-0.371-1.568-1.328-2.116-1.406c-0.548-0.077-1.82-0.035-1.997,0.062c-0.176,0.099-1.114,0.375-1.114,0.375
	s0.312-0.804,0.075-1.508s-0.412-0.919-0.414-1.369c0-0.45,0.176-0.744,0.136-1.116s1.194-0.14,1.507,0.114
	c0.314,0.255,1.276,2.072,1.335,2.112c0.06,0.039,0.628,0.762,0.628,0.762s0.743-0.217,1.076-0.433
	c0.332-0.216,0.781-0.53,0.781-0.53s2.098,1.425,2.273,1.503c0.177,0.078,3.98,3.536,5.255,4.668
	c1.274,1.134,1.314,1.349,1.354,1.584c0.04,0.234-0.779,1.959-0.642,2.447c0.138,0.49-0.232,1.312-0.467,1.528
	s-1.012,0.691-0.013,0.793c0.998,0.101,1.274-1.28,1.274-1.28s1.145-0.441,1.189,0.203c0.045,0.646-0.23,2.276-0.788,2.586
	c-0.558,0.309-1.188,0.912-1.188,0.912s-0.263,0.808,0.573,0.337c0.836-0.472,0.953-0.604,0.953-0.604s-0.512,1.146-0.658,1.264
	c-0.146,0.119-0.733,0.311-0.219,0.603c0.514,0.293,1.057-0.28,1.057-0.28l0.996-1.147c0,0,0.323,0.44,0.705,0.176l0.381-0.265
	c0,0,0.808,0.13,0.895-0.179c0.088-0.309,1.17-2.277,1.17-2.277s0.762-0.971,0.307-1.483c-0.456-0.513-1.973-3.256-1.975-3.681
	c-0.001-0.427-0.222-0.808-0.428-0.954c-0.205-0.146-3.003-4.897-3.43-5.455c-0.427-0.557-2.119-2.491-3.338-2.915
	c-1.22-0.424-2.162-2.228-2.162-2.228l0.117-0.176c0,0-2.118-1.89-2.441-2.227c-0.323-0.338,0.205-0.339-0.368-0.543
	c-0.573-0.205-0.866-0.381-0.823-0.732c0.043-0.353-0.839-0.776-1.104-1.334c-0.266-0.558-1.193-2.405-1.751-2.287
	c-0.558,0.119-1.073-0.277-1.117-0.321c-0.044-0.043-1.307-0.218-1.733-0.79c-0.427-0.57-0.119-1.041-0.721-1.069
	c-0.603-0.028-1.322,0.003-1.557-0.218c-0.235-0.22-0.428-0.615-0.823-0.498c-0.396,0.118-0.427-0.072-0.427-0.072
	s0.424-1.248,0.498-1.396c0.072-0.146,0.865-0.456,0.879-0.618c0.015-0.161,1.011-1.322,0.511-1.366
	c-0.499-0.043,0.962-3.906-0.788-5.503c-1.749-1.598-1.749-1.539-1.749-1.539s0.16-0.411-0.573-0.395
	c-0.309,0.015-0.132,0.249-0.132,0.249s-0.44-0.278-1.762,0.004c-1.321,0.281-2.685,1.091-2.685,1.091s-2.168,2.809-2.43,3.733
	c-0.263,0.926-0.41,0.911-0.41,0.911s-3.742-0.965-3.667-0.157s3.936,2.344,3.936,2.344l0.163,0.969c0,0-0.777,0.545-0.895,0.574
	c-0.117,0.03-1.526-0.144-1.938-0.202c-0.412-0.058-0.441-0.308-1.146-0.071s-1.232,0.663-1.878,0.693
	c-0.646,0.031-1.027-0.013-1.351,0.105s-2.743,1.165-3.33,1.195s-2.919,1.254-3.169,1.195s-3.814,1.167-4.284,1.167
	c-0.47,0.002-0.808-0.057-0.925,0.062c-0.117,0.117-0.631,0.471-0.631,0.471l0.148,0.381c0,0-3.787,0.433-5.035,0.597
	c-1.247,0.164-5.018,1.375-7.585,2.275c-0.704,0.246-1.389,0.463-2.015,0.649c-0.091-0.159-0.274-0.237-0.479-0.182l-1.023,0.282
	c-0.205,0.058-0.382,0.235-0.46,0.44c-0.471,0.12-0.796,0.195-0.9,0.219c-0.024,0.006-0.039,0.009-0.039,0.009s-0.027,0-0.073,0.002
	c-0.435-0.091-1.008-0.169-1.274-0.141c-0.382,0.041-2.986-1.051-3.49-1.408c-0.504-0.359-1.299,0.418-1.299,0.418
	s-1.658,1.162-1.926,1.271s-0.071,0.819-0.071,0.819l-0.201,0.367c-0.2,0.367,0.202,0.812,0.202,0.812s0.011,0.006,0.03,0.018
	C18.114,46.796,18.489,47.396,18.461,47.468 M48.302,68.059l0.254-0.235c0,0,0.039-0.333,0.409-0.961
	c0.37-0.627,0.681-2.311,0.602-3.113c-0.081-0.803-0.237-0.88-0.159-0.997c0.078-0.118,0.841-0.687,1.054-1.921
	c0.213-1.233,0.817-2.526,1.208-3.231c0.167-0.303,0.291-0.647,0.365-0.912c0.055,0.271,0.272,0.487,0.357,0.559
	c0.118,0.098,1.142,3.286,2.028,6.357c0.886,3.071,6.333,5.587,8.115,6.288s5.812-0.539,5.812-0.539l-1.053,2.232
	c0,0-0.606,0.002-0.88,0.667c-0.272,0.666-1.895,1.981-1.895,1.981l0.335,1.33c0,0-0.058,0.216-0.507,0.979
	c-0.449,0.765-0.838,2.097-0.936,2.194c-0.098,0.099-0.275,1.059-1.584,0.95c-0.262-0.022-1.055,1.195-1.055,1.195l1.512,1.378
	l0.057,0.061l-1.176-0.526l-17.338-8.542c0,0,0.567,0.038,2.075,0.467c1.509,0.428,1.213-0.452,1.446-1.138
	c0.234-0.687,0.759-2.898,0.601-3.583c-0.157-0.686-0.925-2.133-0.925-2.133L48.302,68.059z"/>
<path fill="#F5CD21" stroke="#000000" stroke-width="0.25" stroke-miterlimit="10" d="M31.731,56.668l0.428,1.149l-3.201,0.538
	l-0.406-1.091L31.731,56.668z M32.566,58.909l0.406,1.092l-3.18,0.595l-0.428-1.148L32.566,58.909z M30.716,61.495l2.471-0.92
	l1.844,6.705l-2.413,0.898L30.716,61.495z M42.792,55.101l0.492,1.32l-2.184,0.813l-0.085-0.229l-5.515,2.055l0.106,0.286
	l-2.241,0.835l-0.513-1.379l0.287-0.106l-1.027-2.759l9.364-3.486l1.027,2.757L42.792,55.101z M43.413,56.767l2.054,5.515
	c0.294,0.676,0.052,1.136-0.728,1.383l-1.379,0.514l-0.941-2.527l-4.998,1.861l0.941,2.528l-2.471,0.92l-2.418-6.492L43.413,56.767z
	 M40.321,56.021L39.7,54.354l-4.997,1.862l0.171,0.46l4.194-1.562l0.276,1.271L40.321,56.021z M37.392,57.111l-0.093-0.423
	l-2.125,0.791l0.149,0.402L37.392,57.111z M41.562,59.353l-0.214-0.575l-4.998,1.862l0.214,0.574L41.562,59.353z M42.119,60.846
	l-0.257-0.688l-4.998,1.861l0.257,0.689L42.119,60.846z"/>
<path fill="none" stroke="#000000" stroke-width="0.25" stroke-miterlimit="10" d="M31.731,56.668l0.428,1.149l-3.201,0.538
	l-0.406-1.091L31.731,56.668z M32.566,58.909l0.406,1.092l-3.18,0.595l-0.428-1.148L32.566,58.909z M30.716,61.495l2.471-0.92
	l1.844,6.705l-2.413,0.898L30.716,61.495z M42.792,55.101l0.492,1.32l-2.184,0.813l-0.085-0.229l-5.515,2.055l0.106,0.286
	l-2.241,0.835l-0.513-1.379l0.287-0.106l-1.027-2.759l9.364-3.486l1.027,2.757L42.792,55.101z M43.413,56.767l2.054,5.515
	c0.294,0.676,0.052,1.136-0.728,1.383l-1.379,0.514l-0.941-2.527l-4.998,1.861l0.941,2.528l-2.471,0.92l-2.418-6.492L43.413,56.767z
	 M40.321,56.021L39.7,54.354l-4.997,1.862l0.171,0.46l4.194-1.562l0.276,1.271L40.321,56.021z M37.392,57.111l-0.093-0.423
	l-2.125,0.791l0.149,0.402L37.392,57.111z M41.562,59.353l-0.214-0.575l-4.998,1.862l0.214,0.574L41.562,59.353z M42.119,60.846
	l-0.257-0.688l-4.998,1.861l0.257,0.689L42.119,60.846z"/>
<path fill="#F5CD21" stroke="#000000" stroke-width="0.25" stroke-miterlimit="10" d="M43.665,52.878l-0.406-1.092l13.213-4.922
	l0.406,1.092l-2.063,2.012l2.89,7.756c0.294,0.675,0.051,1.136-0.729,1.383l-5.803,2.161l-0.363-0.977l2.93-1.091
	c0.604-0.137,0.762-0.415,0.476-0.832l-2.675-7.181l1.949-1.969L43.665,52.878z"/>
<path fill="none" stroke="#000000" stroke-width="0.25" stroke-miterlimit="10" d="M43.665,52.878l-0.406-1.092l13.213-4.922
	l0.406,1.092l-2.063,2.012l2.89,7.756c0.294,0.675,0.051,1.136-0.729,1.383l-5.803,2.161l-0.363-0.977l2.93-1.091
	c0.604-0.137,0.762-0.415,0.476-0.832l-2.675-7.181l1.949-1.969L43.665,52.878z"/>
<path fill="#F5CD21" stroke="#000000" stroke-width="0.25" stroke-miterlimit="10" d="M61.934,46.073l0.437,3.631l-2.757,1.027
	l-0.479-4.27l-0.192-0.518l11.26-4.194l2.624,4.06l-2.757,1.027l-1.988-3.054L61.934,46.073z M67.029,55.361l-3.274-8.789
	l3.332-1.241l3.274,8.789L67.029,55.361z"/>
<path fill="none" stroke="#000000" stroke-width="0.25" stroke-miterlimit="10" d="M61.934,46.073l0.437,3.631l-2.757,1.027
	l-0.479-4.27l-0.192-0.518l11.26-4.194l2.624,4.06l-2.757,1.027l-1.988-3.054L61.934,46.073z M67.029,55.361l-3.274-8.789
	l3.332-1.241l3.274,8.789L67.029,55.361z"/>
<path fill="#F5CD21" stroke="#000000" stroke-width="0.25" stroke-miterlimit="10" d="M75.499,44.029l2.676,7.181l-1.437,0.535
	l-2.825-7.583c-0.496-0.862-0.305-1.347,0.57-1.455l0.919-0.343l-0.214-0.574l-1.896,0.706l-0.407-1.092l1.896-0.706l-0.215-0.574
	l2.24-0.835l0.215,0.575l0.287-0.107l0.406,1.091l-0.287,0.107l0.215,0.575l0.287-0.107l0.406,1.092l-0.287,0.106l2.824,7.584
	l-2.24,0.834l-2.824-7.583l-0.173,0.063C75.394,43.567,75.347,43.737,75.499,44.029 M85.2,37.407l-4.768,1.775l0.428,1.148
	l5.859-2.183l0.193,0.517c0.156,0.423,0.215,0.815,0.176,1.178l-0.084,2.583l2.946,4.397l-2.067,0.771l-2.168-3.183l0.443,3.824
	l-2.067,0.771l-0.591-5.274l-1.955-2.086l2.011-0.748l1.39,1.444l0.104-2.001c0.033-0.144,0.024-0.227-0.028-0.251
	s-0.156-0.008-0.309,0.049l-3.447,1.284l2.461,6.607c0.295,0.675,0.053,1.136-0.728,1.383l-1.493,0.556L77.44,39.054l8.445-3.146
	C86.157,36.636,85.928,37.136,85.2,37.407"/>
<path fill="none" stroke="#000000" stroke-width="0.25" stroke-miterlimit="10" d="M75.499,44.029l2.676,7.181l-1.437,0.535
	l-2.825-7.583c-0.496-0.862-0.305-1.347,0.57-1.455l0.919-0.343l-0.214-0.574l-1.896,0.706l-0.407-1.092l1.896-0.706l-0.215-0.574
	l2.24-0.835l0.215,0.575l0.287-0.107l0.406,1.091l-0.287,0.107l0.215,0.575l0.287-0.107l0.406,1.092l-0.287,0.106l2.824,7.584
	l-2.24,0.834l-2.824-7.583l-0.173,0.063C75.394,43.567,75.347,43.737,75.499,44.029z M85.2,37.407l-4.768,1.775l0.428,1.148
	l5.859-2.183l0.193,0.517c0.156,0.423,0.215,0.815,0.176,1.178l-0.084,2.583l2.946,4.397l-2.067,0.771l-2.168-3.183l0.443,3.824
	l-2.067,0.771l-0.591-5.274l-1.955-2.086l2.011-0.748l1.39,1.444l0.104-2.001c0.033-0.144,0.024-0.227-0.028-0.251
	s-0.156-0.008-0.309,0.049l-3.447,1.284l2.461,6.607c0.295,0.675,0.053,1.136-0.728,1.383l-1.493,0.556L77.44,39.054l8.445-3.146
	C86.157,36.636,85.928,37.136,85.2,37.407z"/>
</svg>
