<?xml version="1.0" encoding="utf-8"?>
<!-- Generator: Adobe Illustrator 16.0.0, SVG Export Plug-In . SVG Version: 6.00 Build 0)  -->
<!DOCTYPE svg PUBLIC "-//W3C//DTD SVG 1.1//EN" "http://www.w3.org/Graphics/SVG/1.1/DTD/svg11.dtd">
<svg version="1.1" id="Layer_1" xmlns="http://www.w3.org/2000/svg" xmlns:xlink="http://www.w3.org/1999/xlink" x="0px" y="0px"
	 width="126.876px" height="112.438px" viewBox="0 0 126.876 112.438" enable-background="new 0 0 126.876 112.438"
	 xml:space="preserve">
<rect fill="#FFFFFF" width="126.876" height="112.438"/>
<g>
	<g>
		<path fill="#E36B40" d="M48.367,60.797c-0.055,0.001-0.109-0.003-0.164-0.013c-0.054-0.01-0.103-0.021-0.145-0.034
			c-0.041-0.015-0.066-0.029-0.075-0.048c-0.011-0.021-0.014-0.041-0.009-0.063c0.004-0.021,0.03-0.051,0.076-0.086
			c0.044-0.035,0.078-0.094,0.104-0.177c0.025-0.083,0.041-0.177,0.044-0.282c0.004-0.105-0.004-0.217-0.023-0.333
			c-0.02-0.117-0.054-0.225-0.104-0.326c-0.021-0.042-0.048-0.08-0.085-0.116c-0.035-0.037-0.096-0.082-0.18-0.138
			c-0.084-0.057-0.203-0.126-0.355-0.21s-0.356-0.193-0.609-0.326c-0.171-0.089-0.317-0.161-0.443-0.218
			c-0.125-0.057-0.231-0.103-0.315-0.142c-0.084-0.037-0.151-0.072-0.2-0.102c-0.05-0.028-0.083-0.06-0.098-0.09
			c-0.013-0.025-0.013-0.062,0-0.115c0.014-0.052,0.033-0.105,0.059-0.159c0.024-0.054,0.054-0.104,0.087-0.15
			c0.032-0.048,0.062-0.077,0.085-0.089c0.024-0.013,0.047-0.011,0.067,0.003c0.02,0.014,0.04,0.034,0.06,0.061
			c0.021,0.026,0.042,0.058,0.064,0.091c0.024,0.035,0.053,0.066,0.085,0.098c0.089,0.082,0.218,0.172,0.388,0.272
			c0.169,0.1,0.346,0.201,0.532,0.303c0.186,0.103,0.363,0.203,0.535,0.302c0.17,0.099,0.303,0.189,0.396,0.273
			c0-0.209,0.004-0.423,0.012-0.641c0.007-0.219,0.013-0.424,0.017-0.617s0-0.364-0.01-0.514c-0.009-0.149-0.031-0.258-0.066-0.327
			c-0.035-0.07-0.049-0.117-0.043-0.145c0.006-0.026,0.028-0.05,0.066-0.069c0.024-0.012,0.061-0.022,0.111-0.032
			c0.049-0.01,0.099-0.017,0.148-0.02c0.051-0.004,0.098-0.001,0.141,0.008c0.044,0.008,0.072,0.026,0.086,0.055
			c0.007,0.014,0.01,0.029,0.005,0.049c-0.003,0.02-0.008,0.045-0.017,0.077c-0.007,0.032-0.017,0.073-0.026,0.121
			c-0.011,0.049-0.019,0.111-0.024,0.188l-0.1,2.036c-0.004,0.045,0,0.113,0.01,0.206c0.009,0.094,0.021,0.198,0.032,0.312
			c0.013,0.115,0.024,0.237,0.038,0.362c0.014,0.126,0.021,0.241,0.026,0.345c0.004,0.104,0.002,0.192-0.005,0.266
			c-0.007,0.072-0.025,0.117-0.057,0.133C48.461,60.789,48.42,60.797,48.367,60.797"/>
		<path fill="#E36B40" d="M49.596,57.253c-0.041-0.202-0.043-0.401-0.008-0.603c0.034-0.199,0.112-0.387,0.235-0.563
			c0.122-0.177,0.302-0.324,0.542-0.443c0.139-0.07,0.285-0.109,0.436-0.118c0.152-0.008,0.304,0.02,0.453,0.086
			c0.15,0.065,0.297,0.172,0.439,0.32c0.145,0.146,0.275,0.34,0.396,0.579c0.113,0.229,0.18,0.45,0.197,0.663
			c0.018,0.212-0.003,0.408-0.061,0.587s-0.146,0.338-0.267,0.476c-0.12,0.139-0.261,0.248-0.424,0.33
			c-0.128,0.064-0.272,0.102-0.432,0.112c-0.161,0.01-0.319-0.014-0.479-0.071c-0.159-0.057-0.312-0.15-0.46-0.28
			c-0.147-0.13-0.275-0.303-0.383-0.517C49.698,57.639,49.635,57.453,49.596,57.253 M50.289,57.791
			c0.083,0.105,0.186,0.2,0.308,0.284c0.122,0.085,0.261,0.143,0.416,0.173c0.154,0.031,0.317,0.004,0.491-0.083
			c0.073-0.037,0.147-0.092,0.225-0.165c0.076-0.072,0.136-0.168,0.179-0.285c0.044-0.117,0.059-0.255,0.046-0.415
			c-0.014-0.161-0.072-0.346-0.176-0.555c-0.107-0.215-0.222-0.384-0.339-0.507c-0.118-0.123-0.236-0.211-0.354-0.263
			s-0.233-0.074-0.346-0.067c-0.114,0.007-0.222,0.036-0.322,0.087c-0.135,0.067-0.241,0.159-0.317,0.273
			c-0.078,0.114-0.128,0.24-0.15,0.378c-0.022,0.136-0.02,0.282,0.011,0.437c0.029,0.154,0.082,0.307,0.157,0.455
			C50.148,57.601,50.205,57.686,50.289,57.791"/>
		<path fill="#E36B40" d="M55.215,55.525c0.018-0.025,0.064-0.058,0.141-0.096c0.021-0.011,0.04-0.017,0.057-0.017
			c0.018,0,0.039,0.014,0.062,0.037c0.023,0.026,0.051,0.069,0.084,0.128c0.032,0.061,0.076,0.146,0.131,0.257
			c0.117,0.233,0.219,0.418,0.307,0.554c0.088,0.135,0.156,0.254,0.207,0.354c0.024,0.049,0.032,0.088,0.024,0.118
			c-0.01,0.031-0.045,0.062-0.107,0.093c-0.021,0.011-0.041,0.014-0.061,0.011c-0.019-0.004-0.043-0.018-0.07-0.039
			c-0.029-0.023-0.064-0.059-0.104-0.108c-0.038-0.049-0.089-0.115-0.147-0.198c-0.06-0.084-0.134-0.104-0.225-0.058
			c-0.013,0.007-0.037,0.023-0.069,0.048c-0.033,0.025-0.072,0.054-0.117,0.085s-0.094,0.063-0.146,0.099s-0.104,0.064-0.151,0.089
			c-0.239,0.12-0.459,0.174-0.658,0.161c-0.199-0.014-0.378-0.062-0.533-0.147c-0.155-0.084-0.286-0.188-0.394-0.313
			c-0.109-0.124-0.189-0.239-0.243-0.348c-0.108-0.215-0.181-0.442-0.219-0.684c-0.039-0.241-0.028-0.479,0.031-0.712
			c0.059-0.234,0.169-0.456,0.334-0.665c0.163-0.211,0.394-0.391,0.692-0.54c0.197-0.099,0.359-0.153,0.486-0.162
			c0.126-0.008,0.211,0.034,0.259,0.128c0.013,0.023,0.015,0.055,0.007,0.09c-0.008,0.037-0.021,0.072-0.039,0.105
			c-0.02,0.033-0.038,0.062-0.061,0.089c-0.021,0.025-0.04,0.042-0.059,0.051c-0.023,0.013-0.054,0.015-0.09,0.008
			c-0.037-0.009-0.11-0.027-0.223-0.059c-0.05-0.014-0.094-0.019-0.129-0.011c-0.035,0.007-0.075,0.021-0.121,0.044
			c-0.169,0.085-0.304,0.217-0.403,0.395s-0.169,0.374-0.204,0.587c-0.036,0.215-0.042,0.431-0.015,0.649
			c0.027,0.218,0.083,0.411,0.165,0.577c0.096,0.188,0.191,0.33,0.29,0.429c0.099,0.098,0.2,0.161,0.304,0.189
			c0.103,0.028,0.208,0.032,0.314,0.009c0.105-0.022,0.211-0.061,0.319-0.114c0.093-0.047,0.173-0.101,0.24-0.163
			c0.067-0.062,0.12-0.124,0.16-0.188s0.066-0.125,0.077-0.183c0.014-0.058,0.012-0.109-0.001-0.154l-0.116-0.333
			C55.193,55.582,55.197,55.552,55.215,55.525"/>
		<path fill="#E36B40" d="M57.145,54.92c-0.049,0.065-0.077,0.155-0.082,0.266l-0.033,0.583c-0.002,0.04,0.004,0.079,0.019,0.114
			c0.013,0.037-0.003,0.068-0.052,0.092c-0.098,0.049-0.181,0.077-0.25,0.086s-0.113-0.006-0.133-0.044
			c-0.017-0.031-0.015-0.072,0.003-0.124c0.017-0.053,0.033-0.12,0.049-0.202c0.022-0.11,0.044-0.24,0.065-0.39
			c0.02-0.149,0.038-0.304,0.054-0.464c0.015-0.159,0.028-0.319,0.04-0.479c0.011-0.158,0.019-0.306,0.021-0.438
			c0.004-0.131,0.004-0.244-0.002-0.34c-0.004-0.096-0.014-0.159-0.03-0.19c-0.033-0.069-0.14-0.133-0.317-0.191l-0.643-0.22
			c-0.074-0.027-0.135-0.042-0.18-0.047c-0.045-0.003-0.074-0.019-0.088-0.046c-0.008-0.015-0.002-0.037,0.014-0.069
			c0.017-0.032,0.037-0.066,0.062-0.103c0.025-0.037,0.053-0.071,0.082-0.103c0.029-0.033,0.057-0.055,0.08-0.066
			c0.049-0.025,0.088-0.042,0.117-0.053s0.058-0.015,0.082-0.012c0.026,0.002,0.05,0.013,0.074,0.031
			c0.025,0.019,0.057,0.044,0.094,0.077c0.019,0.017,0.057,0.04,0.117,0.071c0.062,0.03,0.123,0.061,0.186,0.09
			c0.451,0.199,0.838,0.364,1.158,0.494s0.609,0.24,0.867,0.33c0.255,0.092,0.496,0.17,0.721,0.234
			c0.227,0.065,0.472,0.133,0.737,0.204c0.051,0.014,0.094,0.019,0.13,0.013c0.037-0.005,0.068-0.01,0.094-0.015
			c0.027-0.004,0.049-0.003,0.069,0.001c0.021,0.006,0.038,0.023,0.054,0.055c0.008,0.015,0.008,0.039,0.002,0.074
			c-0.007,0.037-0.018,0.073-0.032,0.113c-0.015,0.041-0.03,0.076-0.051,0.107c-0.019,0.031-0.038,0.052-0.06,0.062l-0.155,0.078
			c-0.028,0.014-0.053,0.011-0.075-0.008c-0.024-0.02-0.049-0.034-0.076-0.047c-0.192-0.098-0.554-0.237-1.08-0.416l-1.38,0.691
			C57.285,54.789,57.194,54.854,57.145,54.92 M57.115,54.223c-0.006,0.103-0.01,0.169-0.011,0.2
			c-0.002,0.031,0.001,0.057,0.011,0.073c0.007,0.014,0.017,0.022,0.029,0.027c0.013,0.004,0.038,0,0.074-0.015
			c0.037-0.014,0.09-0.037,0.16-0.069c0.07-0.033,0.168-0.082,0.293-0.145c0.135-0.067,0.248-0.125,0.336-0.172
			c0.09-0.047,0.162-0.086,0.216-0.117s0.093-0.057,0.118-0.075s0.042-0.036,0.054-0.051l-1.234-0.423L57.115,54.223z"/>
		<g>
			<defs>
				<path id="SVGID_1320_" d="M65.839,27.813c-0.399,0.196-0.122,0.557-0.122,0.557c0.895,0.305,0.83,1.181,0.754,4.051
					c-0.076,2.869,1.692,3.736,1.692,3.736c-1.406-1.442-0.961-2.756-0.961-2.756c0.661,2.954,2.375,3.004,3.863,4.009
					c1.489,1.006,0.568,1.857,0.568,1.857c1.462-1.268,0.472-2.469-0.599-3.332c-1.071-0.863-1.188-1.602-1.188-1.602
					c1.624,1.883,3.342,1.235,3.342,1.235s-1.197,0.292-2.761-1.67c-1.563-1.963-1.265-4.227-2.628-5.585
					c-0.496-0.492-0.996-0.613-1.367-0.613C66.076,27.701,65.839,27.813,65.839,27.813"/>
			</defs>
			<clipPath id="SVGID_2_">
				<use xlink:href="#SVGID_1320_"  overflow="visible"/>
			</clipPath>
			
				<linearGradient id="SVGID_4_" gradientUnits="userSpaceOnUse" x1="-2673.0859" y1="-270.4307" x2="-2672.9104" y2="-270.4307" gradientTransform="matrix(-20.9971 -42.6117 -42.6117 20.9971 -67578.9922 -108188.5156)">
				<stop  offset="0" style="stop-color:#836D63"/>
				<stop  offset="1" style="stop-color:#493C37"/>
			</linearGradient>
			<polygon clip-path="url(#SVGID_2_)" fill="url(#SVGID_4_)" points="66.954,42.34 60.854,29.961 71.676,24.628 77.775,37.008 			
				"/>
		</g>
		<g>
			<defs>
				<path id="SVGID_1323_" d="M64.814,55.882c0,0,0.309,1.929,0.456,4.929c0.172,3.476,0.888,10.008,0.935,12.912
					c0.041,2.576-0.042,3.74-0.079,5.971c-0.052,3.149,0.426,6.988,0.167,10.49c-0.104,1.425-0.189,0.946-0.263,1.474
					c-0.074,0.527-0.329,1.082-0.233,2.479c0.094,1.396-0.207,3.133-0.43,4.802c-0.223,1.67,0.064,2.469,0.866,2.793
					c0.801,0.322,2.202-1.232,2.025-2.889c-0.178-1.656-1.015-5.563-0.757-7.518c0.316-2.38,0.637-4.08,1.068-6.794
					c0.693-4.351,0.708-6.025,0.563-9.267c-0.087-1.939,0.089-3.001,0.199-5.33c0.111-2.33,0.502-5.908,0.78-7.471
					c0.277-1.562,0.441-4.58,0.113-5.924c-0.328-1.342-1.424-2.278-1.424-2.278L64.814,55.882z"/>
			</defs>
			<clipPath id="SVGID_6_">
				<use xlink:href="#SVGID_1323_"  overflow="visible"/>
			</clipPath>
			
				<linearGradient id="SVGID_8_" gradientUnits="userSpaceOnUse" x1="-2639.9829" y1="-241.5117" x2="-2639.8076" y2="-241.5117" gradientTransform="matrix(-11.2822 221.7562 221.7087 6.1457 23828.9473 586977.75)">
				<stop  offset="0" style="stop-color:#FAD6B0"/>
				<stop  offset="1" style="stop-color:#FBE3C1"/>
			</linearGradient>
			<polygon clip-path="url(#SVGID_6_)" fill="url(#SVGID_8_)" points="72.984,54.328 70.547,102.212 62.386,101.985 64.822,54.102 
							"/>
		</g>
		<g>
			<defs>
				<path id="SVGID_1326_" d="M65.846,15.783c-0.158,0.028-0.158,0.626-0.158,0.626c-0.104,0.228-0.025,0.798-0.025,0.798
					c-0.027,0.256,0.104,0.627,0.104,1.282s-0.092,0.982-0.132,1.666c-0.038,0.684,0.118,0.897,0.473,1.452
					c0.354,0.556,1.377,1.965,2.086,3.76c0.707,1.794,1.691,3.417,1.85,3.802c0.156,0.385,0.078,0.77-0.078,2.094
					c-0.158,1.324-0.434,2.648-0.434,3.674s-0.275,1.282-0.708,2.008c-0.433,0.727-0.669,1.068-1.024,1.154
					c-0.354,0.084-0.645-0.071-1.037-0.756c-0.394-0.683-0.059-2.677-0.059-2.677l-2.334-0.057c0,0,0.564,2.051,0.17,2.733
					c-0.394,0.685-0.729,0.997-1.082,0.912c-0.354-0.086-0.593-0.299-1.025-1.024c-0.433-0.727-0.777-1.269-0.777-2.294
					s-0.274-2.35-0.433-3.674c-0.157-1.324-0.235-1.709-0.079-2.094c0.158-0.385,1.143-2.008,1.851-3.802
					c0.709-1.795,1.731-3.204,2.085-3.76c0.354-0.555,0.512-0.769,0.473-1.452s-0.131-1.011-0.131-1.666s0.132-1.026,0.104-1.282
					c0,0,0.079-0.57-0.026-0.798c0,0,0-0.598-0.156-0.626c-0.158-0.028-0.264,0.513-0.264,0.513s-0.629,1.396-0.707,2.051
					c-0.08,0.655,0.393,1.822,0.314,2.079c-0.079,0.256-1.154,1.766-2.073,2.905c-0.918,1.139-2.387,3.36-2.808,3.986
					c-0.419,0.627-0.76,1.055-0.733,1.652c0.026,0.599,0.236,2.819,0.262,4.671c0.022,1.596,0.364,3.531,0.706,4.842
					c0.334,1.279,0.496,1.88,0.627,3.02c0.131,1.139,0.101,1.396,0.284,2.393c0.185,0.996,0.794,1.936,1.083,3.417
					c0.288,1.481,0.2,1.951,0.148,3.488c-0.053,1.538-0.727,2.905-0.727,2.905l3.815,0.841l3.761-0.855c0,0-0.73-0.754-0.784-2.292
					c-0.052-1.538,0.489-2.45,0.778-3.93c0.288-1.481,1.026-2.578,1.211-3.574c0.184-0.997,0.152-1.254,0.283-2.393
					c0.131-1.14,0.395-2.003,0.627-3.305c0.285-1.594,0.732-2.705,0.707-4.557c-0.026-1.852,0.235-4.072,0.262-4.671
					c0.025-0.598-0.314-1.025-0.734-1.652c-0.42-0.626-1.889-2.848-2.808-3.986c-0.919-1.14-1.994-2.649-2.072-2.905
					c-0.078-0.257,0.394-1.424,0.315-2.079c-0.079-0.654-0.709-2.051-0.709-2.051s-0.1-0.514-0.25-0.514
					C65.857,15.782,65.849,15.782,65.846,15.783"/>
			</defs>
			<clipPath id="SVGID_10_">
				<use xlink:href="#SVGID_1326_"  overflow="visible"/>
			</clipPath>
			
				<linearGradient id="SVGID_12_" gradientUnits="userSpaceOnUse" x1="-2638.5605" y1="-239.7363" x2="-2638.3855" y2="-239.7363" gradientTransform="matrix(-11.0463 180.4239 180.4239 11.0463 14174.1973 478728.9688)">
				<stop  offset="0" style="stop-color:#FAD6B0"/>
				<stop  offset="1" style="stop-color:#FBE3C1"/>
			</linearGradient>
			<polygon clip-path="url(#SVGID_10_)" fill="url(#SVGID_12_)" points="74.508,15.9 72.093,55.345 56.679,54.401 59.094,14.956 			
				"/>
		</g>
		<g>
			<defs>
				<path id="SVGID_1329_" d="M63.717,29.878c0,0-0.571,1.294-0.45,2.678c0.052,0.573,0.045,1.32,0.532,2.166
					c0.471,0.816,1.455,1.727,1.812,1.661c0.471-0.085,1.87-1.046,2.26-2.768c0.389-1.723-0.558-3.624-0.769-3.94
					c-0.127-0.191-0.796-0.713-1.633-0.713C64.922,28.962,64.303,29.187,63.717,29.878"/>
			</defs>
			<clipPath id="SVGID_14_">
				<use xlink:href="#SVGID_1329_"  overflow="visible"/>
			</clipPath>
			
				<linearGradient id="SVGID_16_" gradientUnits="userSpaceOnUse" x1="-2668.7192" y1="-297.5732" x2="-2668.5437" y2="-297.5732" gradientTransform="matrix(0.0481 -32.4247 -32.4247 -0.0481 -9454.627 -86510.7969)">
				<stop  offset="0" style="stop-color:#F1D6B0"/>
				<stop  offset="1" style="stop-color:#F6E3C0"/>
			</linearGradient>
			<polygon clip-path="url(#SVGID_14_)" fill="url(#SVGID_16_)" points="63.135,36.448 63.146,28.955 68.271,28.962 68.26,36.455 
							"/>
		</g>
		<g>
			<defs>
				<path id="SVGID_1332_" d="M66.737,33.092c-0.28,0.229-0.322,0.643-0.093,0.923c0.23,0.281,0.643,0.322,0.924,0.093
					s0.322-0.643,0.092-0.924c-0.129-0.158-0.317-0.24-0.507-0.24C67.006,32.943,66.859,32.991,66.737,33.092"/>
			</defs>
			<clipPath id="SVGID_18_">
				<use xlink:href="#SVGID_1332_"  overflow="visible"/>
			</clipPath>
			
				<radialGradient id="SVGID_20_" cx="-2460.7969" cy="-689.7422" r="0.1753" gradientTransform="matrix(2.8993 -2.3708 -2.3708 -2.8993 5566.4995 -7800.2227)" gradientUnits="userSpaceOnUse">
				<stop  offset="0" style="stop-color:#EB9374"/>
				<stop  offset="1" style="stop-color:#F2DBB7"/>
			</radialGradient>
			<polygon clip-path="url(#SVGID_18_)" fill="url(#SVGID_20_)" points="65.732,33.501 67.3,32.221 68.573,33.778 67.006,35.06 			
				"/>
		</g>
		<g>
			<defs>
				<path id="SVGID_1335_" d="M63.675,33.134c-0.281,0.229-0.322,0.644-0.093,0.924s0.644,0.321,0.923,0.092
					c0.28-0.229,0.322-0.642,0.093-0.923c-0.13-0.158-0.318-0.241-0.508-0.241C63.943,32.985,63.797,33.034,63.675,33.134"/>
			</defs>
			<clipPath id="SVGID_22_">
				<use xlink:href="#SVGID_1335_"  overflow="visible"/>
			</clipPath>
			
				<radialGradient id="SVGID_24_" cx="-2457.9551" cy="-692.2114" r="0.1754" gradientTransform="matrix(2.899 -2.3705 -2.3705 -2.899 5548.8135 -7799.6641)" gradientUnits="userSpaceOnUse">
				<stop  offset="0" style="stop-color:#EB9374"/>
				<stop  offset="1" style="stop-color:#F2DBB7"/>
			</radialGradient>
			<polygon clip-path="url(#SVGID_22_)" fill="url(#SVGID_24_)" points="62.67,33.544 64.236,32.263 65.51,33.821 63.944,35.102 			
				"/>
		</g>
		<g>
			<defs>
				<path id="SVGID_1338_" d="M67.192,31.205c-0.386,0.079-0.872,0.416-0.906,0.509c0,0,0.28-0.083,0.427-0.138
					c0.145-0.054,0.387-0.179,0.555-0.2c0.169-0.022,0.565-0.021,0.565-0.021s-0.287-0.159-0.54-0.159
					C67.258,31.196,67.225,31.198,67.192,31.205"/>
			</defs>
			<clipPath id="SVGID_26_">
				<use xlink:href="#SVGID_1338_"  overflow="visible"/>
			</clipPath>
			
				<linearGradient id="SVGID_28_" gradientUnits="userSpaceOnUse" x1="-3080.5552" y1="-1063.688" x2="-3080.3794" y2="-1063.688" gradientTransform="matrix(0.0109 -1.9377 -1.9377 -0.0109 -1960.4706 -5949.1177)">
				<stop  offset="0" style="stop-color:#836D63"/>
				<stop  offset="1" style="stop-color:#493C37"/>
			</linearGradient>
			<rect x="66.285" y="31.192" clip-path="url(#SVGID_26_)" fill="url(#SVGID_28_)" width="1.55" height="0.526"/>
		</g>
		<g>
			<defs>
				<path id="SVGID_1341_" d="M63.224,31.171c0,0,0.381,0.049,0.541,0.091c0.159,0.042,0.384,0.189,0.52,0.26
					c0.136,0.068,0.399,0.183,0.399,0.183c-0.027-0.092-0.471-0.472-0.836-0.595c-0.057-0.02-0.12-0.026-0.184-0.026
					C63.445,31.083,63.224,31.171,63.224,31.171"/>
			</defs>
			<clipPath id="SVGID_30_">
				<use xlink:href="#SVGID_1341_"  overflow="visible"/>
			</clipPath>
			
				<linearGradient id="SVGID_32_" gradientUnits="userSpaceOnUse" x1="-3014.6558" y1="-947.5996" x2="-3014.481" y2="-947.5996" gradientTransform="matrix(0.0128 -2.2801 -2.2801 -0.0128 -2058.0833 -6854.2046)">
				<stop  offset="0" style="stop-color:#836D63"/>
				<stop  offset="1" style="stop-color:#493C37"/>
			</linearGradient>
			<rect x="63.222" y="31.079" clip-path="url(#SVGID_30_)" fill="url(#SVGID_32_)" width="1.464" height="0.63"/>
		</g>
		<g>
			<defs>
				<path id="SVGID_1344_" d="M66.113,34.81c-0.1,0.025-0.165,0.016-0.219,0.006c-0.026-0.005-0.051-0.01-0.074-0.01
					c-0.017,0-0.033-0.002-0.048-0.003c-0.046-0.002-0.089-0.005-0.134,0.019c-0.041,0.022-0.098,0.067-0.139,0.092
					c-0.03-0.021-0.107-0.067-0.155-0.087c-0.027-0.011-0.082-0.001-0.151,0.008c-0.097,0.014-0.223,0.027-0.335-0.018
					c-0.06-0.023-0.163-0.065-0.163-0.065s0.087,0.125,0.154,0.257c0.066,0.133,0.22,0.323,0.425,0.405
					c0.13,0.052,0.318,0.052,0.528-0.006c0.216-0.059,0.407-0.352,0.462-0.437c0.056-0.084,0.167-0.254,0.167-0.254
					S66.265,34.771,66.113,34.81"/>
			</defs>
			<clipPath id="SVGID_34_">
				<use xlink:href="#SVGID_1344_"  overflow="visible"/>
			</clipPath>
			
				<linearGradient id="SVGID_36_" gradientUnits="userSpaceOnUse" x1="-2623.1489" y1="185.8125" x2="-2622.9736" y2="185.8125" gradientTransform="matrix(-1.7693 3.7201 3.7201 1.7693 -5266.5742 9464.2002)">
				<stop  offset="0" style="stop-color:#EC966F"/>
				<stop  offset="1" style="stop-color:#DB6545"/>
			</linearGradient>
			<polygon clip-path="url(#SVGID_34_)" fill="url(#SVGID_36_)" points="66.721,34.855 66.111,36.138 64.405,35.326 65.016,34.044 
							"/>
		</g>
		<g>
			<defs>
				<path id="SVGID_1347_" d="M62.873,31.832c-0.288,0.32,0.043,0.759,0.149,0.993c0.108,0.235,0.086,0.513,0.481,0.513
					c0,0-0.043-1.11-0.182-1.388c0,0-0.086-0.234-0.246-0.235C63.019,31.715,62.95,31.746,62.873,31.832"/>
			</defs>
			<clipPath id="SVGID_38_">
				<use xlink:href="#SVGID_1347_"  overflow="visible"/>
			</clipPath>
			
				<linearGradient id="SVGID_40_" gradientUnits="userSpaceOnUse" x1="-2763.5342" y1="-472.6973" x2="-2763.3589" y2="-472.6973" gradientTransform="matrix(-0.0292 -7.097 -7.097 0.0292 -3372.3687 -19565.7637)">
				<stop  offset="0" style="stop-color:#F1D6B0"/>
				<stop  offset="1" style="stop-color:#F6E3C0"/>
			</linearGradient>
			<polygon clip-path="url(#SVGID_38_)" fill="url(#SVGID_40_)" points="62.585,33.342 62.578,31.715 63.504,31.712 63.511,33.338 
							"/>
		</g>
		<g>
			<defs>
				<path id="SVGID_1350_" d="M67.916,31.95c-0.139,0.277-0.183,1.388-0.183,1.388c0.396,0,0.374-0.277,0.481-0.513
					c0.106-0.234,0.438-0.673,0.149-0.993c-0.077-0.086-0.146-0.117-0.204-0.117C68.002,31.716,67.916,31.95,67.916,31.95"/>
			</defs>
			<clipPath id="SVGID_42_">
				<use xlink:href="#SVGID_1350_"  overflow="visible"/>
			</clipPath>
			
				<linearGradient id="SVGID_44_" gradientUnits="userSpaceOnUse" x1="-2761.7012" y1="-27.0967" x2="-2761.5261" y2="-27.0967" gradientTransform="matrix(0.0292 -7.097 7.097 0.0292 341.1304 -19565.7637)">
				<stop  offset="0" style="stop-color:#F1D6B0"/>
				<stop  offset="1" style="stop-color:#F6E3C0"/>
			</linearGradient>
			<polygon clip-path="url(#SVGID_42_)" fill="url(#SVGID_44_)" points="68.652,33.342 68.659,31.715 67.733,31.712 67.727,33.338 
							"/>
		</g>
		<path fill="#19274D" d="M70.397,85.135c0.114-5.697-0.568-7.634-0.911-11.62c-0.342-3.987,0.683-9.685,1.14-13.786
			c0.455-4.101-1.652-6.123-1.652-6.123c-3.926,1.247-6.978-0.094-7.37-0.285c0.095,0.529,0.361,1.617,1.219,2.628
			c1.092,1.288,1.712,2.087,1.708,3.247c0.3,0.393,0.441,2.129,0.798,5.034c0.399,3.247,0.171,5.297,0.171,8.601
			c0,3.305-0.455,5.126-0.569,9.57c-0.113,4.442-0.455,10.594-0.455,10.594c3.417,1.824,6.379,0.569,6.379,0.569
			S70.283,90.83,70.397,85.135"/>
		<path fill="#FFFFFF" d="M69.657,86.624c0.249-4.396-0.009-6.878-0.309-9.751c-0.11-1.064-0.225-2.167-0.318-3.43
			c-0.285-3.857,0.146-7.703,0.565-11.422l0.231-2.104c0.327-3.109-0.604-5.221-1.194-6.21c-0.117,0.033-0.233,0.063-0.35,0.093
			c0.552,0.908,1.528,3.002,1.203,6.081l-0.229,2.101c-0.421,3.735-0.855,7.597-0.567,11.487c0.094,1.267,0.208,2.37,0.32,3.439
			c0.297,2.857,0.554,5.326,0.306,9.696c-0.224,3.961-0.027,6.324,0.095,7.311c0.12-0.017,0.233-0.035,0.34-0.054
			C69.631,92.883,69.438,90.514,69.657,86.624"/>
		<g>
			<defs>
				<path id="SVGID_1353_" d="M62.862,30.198c-0.199,1.367,0.438,2.648,0.438,2.648c0-0.712-0.1-1.573,0.513-2.584
					c0.612-1.012,2.136-0.802,2.136-0.802c1.965,0.043,2.019,3.204,2.019,3.204c0.398-1.068,0.673-2.541-0.039-3.624
					c-0.548-0.832-1.537-0.954-1.537-0.954c-0.298-0.09-0.585-0.131-0.86-0.131C64.113,27.956,63.029,29.054,62.862,30.198"/>
			</defs>
			<clipPath id="SVGID_45_">
				<use xlink:href="#SVGID_1353_"  overflow="visible"/>
			</clipPath>
			
				<linearGradient id="SVGID_46_" gradientUnits="userSpaceOnUse" x1="-2690.1489" y1="-336.1484" x2="-2689.9734" y2="-336.1484" gradientTransform="matrix(0 -18.1014 -18.1014 0 -6019.1016 -48663.0625)">
				<stop  offset="0" style="stop-color:#836D63"/>
				<stop  offset="1" style="stop-color:#493C37"/>
			</linearGradient>
			<rect x="62.663" y="27.956" clip-path="url(#SVGID_45_)" fill="url(#SVGID_46_)" width="5.978" height="4.891"/>
		</g>
		<g>
			<defs>
				<path id="SVGID_1356_" d="M60.246,54.873c0,0-5.256,2.985-7.026,3.954c-1.772,0.968-2.761,1.55-4.693,2.712
					s-2.897,1.735-3,3.061c-0.093,1.201,0.534,2.087,1.964,2.787c1.501,0.734,3.936,2.11,5.093,2.544
					c2.832,1.062,5.208,2.228,7.433,3.132c2.495,1.016,2.456,1.875,3.312,3.802c1.223,2.75,0.722,4.195,1.408,4.245
					c0.435,0.03,0.836-2.844,0.614-3.463c-0.558-1.554-0.442-1.881-0.017-2.916c0.374-0.907,0.383-1.652-0.442-1.966
					c-0.204-0.077-0.361-0.028-0.57,0.019c-0.321,0.074-0.764,0.146-1.696-0.24c-1.539-0.638-4.689-2.686-5.879-3.671
					c-1.521-1.261-2.399-2.349-6.27-3.304c-0.711-0.175-1.183-0.626-0.721-0.755c0.463-0.127,2.535-1.083,5.036-1.933
					c2.842-0.963,4.937-1.98,6.339-2.664c0.601-0.295,1.198-0.663,1.728-0.888c-0.123-0.363-0.37-0.882-0.852-1.611
					c-0.907-1.379-1.2-2.631-1.293-3.214C60.584,54.61,60.431,54.732,60.246,54.873"/>
			</defs>
			<clipPath id="SVGID_47_">
				<use xlink:href="#SVGID_1356_"  overflow="visible"/>
			</clipPath>
			
				<linearGradient id="SVGID_48_" gradientUnits="userSpaceOnUse" x1="-2638.5303" y1="-234.7559" x2="-2638.3552" y2="-234.7559" gradientTransform="matrix(-13.6626 120.4793 120.0934 13.6988 -7799.7793 321161.9375)">
				<stop  offset="0" style="stop-color:#FAD6B0"/>
				<stop  offset="1" style="stop-color:#FBE3C1"/>
			</linearGradient>
			<polygon clip-path="url(#SVGID_47_)" fill="url(#SVGID_48_)" points="68.698,54.845 65.457,83.424 42.451,80.8 45.691,52.22 			
				"/>
		</g>
		<path fill="#19274D" d="M61.671,53.315c-0.029-0.015-0.045-0.022-0.045-0.022s-0.343,0.968-2.051,1.879
			c-1.709,0.912-3.76,2.222-5.811,3.361c-2.05,1.14-4.386,2.106-6.095,3.247c-1.709,1.139-2.677,2.278-2.393,3.816
			c0.286,1.538,2.563,2.904,6.209,4.671c3.646,1.766,8.146,6.835,8.146,6.835c3.19-1.71,3.133-5.64,3.133-5.64
			s-1.31-0.455-3.646-1.709c-2.335-1.253-4.728-3.189-6.551-3.816c-1.822-0.626-2.677-0.854-2.677-0.854
			c0.113-0.172,1.024-0.684,2.734-1.196c1.709-0.513,6.209-2.393,8.146-3.305c1.937-0.91,3.304-1.48,3.703-1.366
			c0.041,0.013,0.078,0.045,0.113,0.092c0.004-1.161-0.588-2.094-1.681-3.382C62.051,54.917,61.765,53.844,61.671,53.315"/>
		<path fill="#0B1330" d="M62.195,55.115c0,0,0.643,0.997,1.607,1.965c0.965,0.969,0.878,2.25,0.878,2.25s-0.117-0.257-0.673-0.086
			c0,0,0.263-0.712-0.73-2.079C62.283,55.799,62.195,55.115,62.195,55.115"/>
		<path fill="#19274D" d="M63.257,38.197c0,0-0.298,2.436-1.152,3.504c-0.854,1.067-1.368,1.067-1.368,1.067
			s0.043,1.453,0.343,2.179c0.3,0.727,0.641,1.41,0.641,1.41s3.675-1.581,7.646-0.086c0,0,0.556-0.769,0.812-1.795
			c0.257-1.024,0.299-2.093,0.299-2.093s-1.067-0.171-1.752-1.751c-0.683-1.581-0.927-2.535-0.927-2.535l-0.354-0.028
			c0,0,0.513,1.453,0.726,2.478c0.214,1.025-0.085,2.393-2.605,2.265c-2.521-0.128-2.777-0.855-2.562-1.965
			c0.213-1.111,0.556-2.649,0.556-2.649H63.257z"/>
		<path fill="#FFFFFF" d="M61.168,42.594c-0.145,0.091-0.255,0.135-0.327,0.155c0.073,0.735,0.234,1.832,0.556,2.475
			c0.228,0.456,0.371,0.822,0.458,1.081c0.076-0.029,0.186-0.068,0.323-0.114c-0.093-0.271-0.24-0.649-0.476-1.12
			C61.389,44.445,61.236,43.299,61.168,42.594"/>
		<path fill="#FFFFFF" d="M70.322,42.341c-0.086-0.03-0.198-0.078-0.331-0.156c-0.045,0.598-0.191,2.084-0.563,2.829
			c-0.234,0.468-0.382,0.843-0.474,1.114c0.107,0.035,0.215,0.072,0.323,0.112c0.088-0.258,0.229-0.622,0.456-1.074
			C70.111,44.41,70.266,43.022,70.322,42.341"/>
		<path fill="#FFFFFF" d="M61.689,53.107c0,0,3.695,1.474,7.028,0.149c0,0,0.362,0.299,0.427,0.533c0,0-3.909,1.411-7.625-0.276
			C61.52,53.514,61.582,53.214,61.689,53.107"/>
	</g>
	<circle cx="64.217" cy="31.989" r="0.274"/>
	<circle cx="66.854" cy="31.989" r="0.274"/>
</g>
</svg>
