<?xml version="1.0" encoding="utf-8"?>
<!-- Generator: Adobe Illustrator 16.0.0, SVG Export Plug-In . SVG Version: 6.00 Build 0)  -->
<!DOCTYPE svg PUBLIC "-//W3C//DTD SVG 1.1//EN" "http://www.w3.org/Graphics/SVG/1.1/DTD/svg11.dtd">
<svg version="1.1" id="Layer_1" xmlns="http://www.w3.org/2000/svg" xmlns:xlink="http://www.w3.org/1999/xlink" x="0px" y="0px"
	 width="126.876px" height="112.438px" viewBox="0 0 126.876 112.438" enable-background="new 0 0 126.876 112.438"
	 xml:space="preserve">
<rect fill="#FFFFFF" width="126.876" height="112.438"/>
<path fill-rule="evenodd" clip-rule="evenodd" fill="#FFFFFF" d="M52.111,35.646C52.114,35.85,52.664,35.508,52.111,35.646"/>
<path fill-rule="evenodd" clip-rule="evenodd" fill="#FFFFFF" d="M47.059,44.638c0.155-0.134,0.247,0.228,0.047,0.183
	C47.089,44.759,47.074,44.697,47.059,44.638"/>
<path fill-rule="evenodd" clip-rule="evenodd" fill="#FFFFFF" d="M61.937,62.462c0.107,0.168-0.109,0.143-0.214,0.184
	C61.71,62.534,61.792,62.48,61.937,62.462"/>
<path fill-rule="evenodd" clip-rule="evenodd" fill="#FFFFFF" d="M71.069,64.235c0.006-0.017,0.104-0.145,0.169-0.105
	C71.291,64.161,71.039,64.357,71.069,64.235"/>
<path fill-rule="evenodd" clip-rule="evenodd" stroke="#FFFFFF" stroke-miterlimit="10" d="M49.272,75.451
	c0.068,0.128-0.094,0.115-0.074,0.213C49.04,75.679,49.134,75.429,49.272,75.451"/>
<path fill-rule="evenodd" clip-rule="evenodd" stroke="#FFFFFF" stroke-miterlimit="10" d="M40.081,87.027
	c0.191,0.005-0.041,0.172,0.076,0.303C39.827,87.393,40.048,87.164,40.081,87.027"/>
<path fill-rule="evenodd" clip-rule="evenodd" stroke="#FFFFFF" stroke-miterlimit="10" d="M39.899,87.591
	c0.061,0.155-0.088,0.19-0.197,0.244C39.733,87.733,39.745,87.619,39.899,87.591"/>
<path fill-rule="evenodd" clip-rule="evenodd" stroke="#FFFFFF" stroke-miterlimit="10" d="M48.498,88.011
	C48.726,87.911,48.696,88.677,48.498,88.011"/>
<path fill-rule="evenodd" clip-rule="evenodd" fill="#FFFFFF" d="M50.067,73.469c5.413-4.79,6.347,0.479,5.52-6.976
	c-0.61-5.487-6.536-3.166-9.934-6.197c-3.752-3.344-4.625-12.242-1.345-16.427c0.868-1.968,2.858-4.037,2.212-4.961
	c-1.427-2.045,0.413-5.41,1.417-6.89c3.68-5.42,11.245,2.571,10.958,5.418c-0.379,0.596-4.869,1.479-4.724,1.531
	c3.017,1.632,18.194,2.182,19.821,5.564c1.059,2.207-2.979,6.37-1.751,9.826c0.594,1.673,3.567,4.106,3.402,4.203
	c2.237,2.487,9.086,1.488,10.073,4.049c0.02-0.926-3.351-1.272-4.072-1.039c1.561,1.403,4.12,4.098,5.537,5.124
	c1.681,1.231-1.692,8.38-3.775,6.5c-2.38,1.112-8.752-3.325-9.287-6.396c-0.721-4.14,3.684-5.108,0.504-7.922
	c-2.733,2.036-2.753,5.74-4.717,7.912c-1.221,1.336-0.844,2.832-1.639,4.062c1.841,3.995,5.932-0.838,7.536-0.955
	c-0.216,1.968-5.552,5.651-4.951,7.588c0.646-1.155,1.444-1.622,2.396-1.401c0.344,0.552-1.922,1.905-2.1,2.561
	c-1.771-0.114-2.215-3.229-3.856-2.885c-1.534,0.128-3.507-0.172-5.334-0.647C70.293,96.223,37.458,85.536,50.067,73.469
	 M74.312,71.872c0.06-0.052,0.115-0.106,0.143-0.177C74.372,71.712,74.152,71.893,74.312,71.872 M48.529,75.723
	c-0.042-0.139,0.366-0.465,0.068-0.416C48.738,75.501,48.257,75.624,48.529,75.723 M51.138,37.672
	c-0.411-0.467-1.444-4.985-1.525-4.922c-0.089,5.983,1.854,5.573,7.78,4.298c-1.597-2.69-2.261-6.972-7.291-5.898
	C50.217,33.39,50.745,35.251,51.138,37.672 M49.774,39.214c0.996-0.072,2.145,0.427,3.113,0.284
	c-4.801-1.575-3.253-4.361-3.75-7.852C48.025,33.776,44.311,39.613,49.774,39.214 M47.976,40.626
	c0.731-0.031,3.314,0.611,3.631-0.598C49.096,38.874,47.888,39.076,47.976,40.626 M46.139,41.92
	c-0.566,1.872-2.689,3.534-2.425,5.753c0.186-0.207,5.949-6.343,6.014-6.273C47.743,41.649,47.215,41.85,46.139,41.92
	 M52.064,40.872c-1.808-1.983-17.595,16.759-4.479,19.286c0.502-0.948,1.553-4.188,2.593-5.214c-0.265,0.993-0.31,0.476,0.012,0.458
	c-0.062-1.862,1.45-3.415-0.113-5.032c2.862-1.492,2.905-3.655,7.346-4.316c4.973-0.741,11.521-0.607,15.355-1.407
	C71.758,41.461,52.433,42.476,52.064,40.872 M49.554,56.324C50.016,56.163,49.855,54.931,49.554,56.324 M49.351,42.305
	c0.058-0.075,0.455-0.222,0.166-0.313C49.656,42.17,49.124,42.247,49.351,42.305 M48.968,42.556c0.24-0.106-0.178-0.008-0.22,0.134
	C48.886,43.153,48.803,42.628,48.968,42.556 M46.575,44.812C46.328,44.673,46.63,44.988,46.575,44.812 M44.027,47.839
	c-0.028-0.104-0.095-0.14-0.177-0.144C43.878,47.8,43.944,47.836,44.027,47.839 M69.795,45.638
	c-3.857,0.538-17.364-0.85-17.511,4.641c2.833,0.637,5.875-0.396,10.293,1.15c-0.149,0.246-0.294,0.782-0.396,0.848
	c-2.736-1.629-15.135-1.245-9.998,2.771c2.743-1.14,5.897-0.493,8.161-1.479C62.128,52.798,70.583,45.526,69.795,45.638
	 M70.544,54.419c-0.525,0.163,1.517-6.827,1.268-7.367c0.178,0.763-7.875,4.852-8.1,6.131
	C64.108,53.147,70.501,53.094,70.544,54.419 M62.573,62.878c-0.343-0.989-0.488-0.565-0.61-0.27
	c0.29-0.009-11.026-7.726-11.026-7.768c-1.072,0.623-2.653,4.693-2.623,5.551c0.744-0.05,10.404-3.812,5.276,1.522
	c-0.31-0.761,0.194-2.728-0.207-3.423c-2.159,0.142-2.977,2.117-4.67,2.764c1.579,1.775,9.721,0.603,10.443,1.633
	c-0.909,0.239,8.219,11.564,10.099,12.195c-0.192,0.219,2.773-2.565,1.943-0.732c0.839-0.527,1.464-1.268,1.877-2.227
	c-1.377-0.919-2.269,1.86-3.767,1.163c-1.104-0.515-4.226-8.848-5.708-6.252c-0.713-0.537-0.578-1.019,0.408-1.442
	c-0.558,0.589-0.992,0.563-1.306-0.078C62.869,64.592,62.497,63.063,62.573,62.878 M49.447,56.619
	c0.104-0.029,0.14-0.094,0.144-0.175C49.499,56.478,49.38,56.5,49.447,56.619 M53.803,55.597
	C54.085,55.51,53.716,55.315,53.803,55.597 M56.14,55.07c-0.033,0.002-2.482,0.561-2.227,0.887c4.204-0.405,5.652,5.179,8.655,6.266
	c-0.255-2.309,0.446-5.175-0.654-7.626C61.537,54.686,56.017,54.31,56.14,55.07 M54.443,55.333
	C54.493,55.564,54.138,55.306,54.443,55.333 M55.983,54.987c0.103-0.029,0.137-0.094,0.143-0.176
	C56.033,54.846,55.913,54.868,55.983,54.987 M53.6,55.793C53.882,55.704,53.512,55.509,53.6,55.793 M49.112,57.447
	c-0.033-0.077,0.189-0.257-0.014-0.259C49.132,57.266,48.965,57.475,49.112,57.447 M62.93,54.478
	C62.562,53.47,63.258,54.907,62.93,54.478 M63.89,56.089c-0.75,0.242,1.447,6.503,1.187,7.856c2.191-1.628,3.46-3.609,5.082-6.314
	c1.839-3.068-3.438-4.313-5.677-3.24C65.468,55.865,65.27,56.43,63.89,56.089 M63.013,56.229c-0.113-0.133,0.109-0.372-0.152-0.281
	C62.919,56.025,62.885,56.279,63.013,56.229 M62.936,57.042C63.587,56.401,62.359,56.298,62.936,57.042 M62.469,57.45
	c-0.007-0.087-0.109-0.222-0.096-0.102C62.381,57.435,62.481,57.57,62.469,57.45 M63.151,59.016
	c-0.433,0.133,0.574,4.668,0.275,4.914c0.204,0.341,1.07,0.791,1.529,0.053c-1.609,0.547-1.301-6.312-2.044-6.802
	C62.765,57.819,62.846,58.43,63.151,59.016 M62.905,57.578c-0.01-0.087-0.109-0.222-0.098-0.102
	C62.817,57.563,62.917,57.7,62.905,57.578 M63.614,58.807c0.145-0.064,0.249-0.37,0.027-0.338
	C63.697,58.615,63.604,58.683,63.614,58.807 M60.17,60.006c0.214,0.034,0.063-0.45-0.093-0.302
	C60.108,59.806,60.139,59.906,60.17,60.006 M63.749,59.027c0.05-0.027-0.072-0.341-0.098-0.101
	C63.647,58.967,63.717,59.045,63.749,59.027 M69.3,59.739c-0.342,0.29-0.972,1.054-1.105,1.529c0.44-0.671,0.615-0.813,0.525-0.427
	c1.406-0.167,2.31-3.134,4.124-3.253C70.86,55.836,69.342,59.777,69.3,59.739 M63.737,59.624c0.191,0.385,0.223-0.035,0.082-0.157
	C63.843,59.546,63.73,59.553,63.737,59.624 M62.879,60.679c-0.047-0.103-0.033-0.32-0.195-0.203
	C62.727,60.586,62.787,60.665,62.879,60.679 M56.284,68.054c-0.147-0.169,3.688-3.656-0.92-4.453
	C55.8,64.583,57.062,66.827,56.284,68.054 M69.161,59.716c-0.029-0.104-0.094-0.137-0.176-0.142
	C69.013,59.679,69.078,59.714,69.161,59.716 M70.224,62.086c0.809,1.241,2.421-2.632,2.438-3.389
	C67.247,61.938,70.936,60.572,70.224,62.086 M73.192,58.927C74.331,59.264,73.155,57.811,73.192,58.927 M61.275,70.782
	c-2.494,2.175-0.778,4.835,3.636,1.964c-2.742-1.996-3.414-5.678-6.218-7.743c-0.154,0.818-0.722,1.964-0.858,2.964
	c-0.03-0.07-0.396,0.632,0.27-0.412c-0.299,0.103-0.246,0.065,0.16-0.116c-0.334,3.161,1.315,3.074,3.895,1.952
	C62.586,70.084,61.416,70.728,61.275,70.782 M68.026,62.636c0.104-0.028,0.139-0.095,0.143-0.177
	C68.063,62.489,68.028,62.553,68.026,62.636 M66.805,64.001c0.206,0.431-2.061,3.611,1.128,5.968
	c0.095-0.621,2.916-5.233,2.632-6.147c-0.359,0.084-2.452,4.396-2.866,3.061c-0.4-1.287,3.312-3.082,1.672-4.795
	C68.618,62.116,66.675,63.817,66.805,64.001 M76.073,61.85c-1.296,0.975-2.45,6.812-0.131,7.214
	C75.669,67.122,77.388,60.863,76.073,61.85 M78.058,61.037c0.008,0.111-0.081,0.012-0.179,0.058
	C77.925,61.37,78.312,61.114,78.058,61.037 M70.705,63.846c-0.019-0.153,0.409-0.521,0.108-0.495
	C70.886,63.543,70.456,63.728,70.705,63.846 M78.401,61.72C78.867,62.787,80.298,60.592,78.401,61.72 M78.103,62.669
	c-0.834-1.145-1.281-0.61-1.346,1.602C77.729,63.52,77.256,62.828,78.103,62.669 M84.539,64.753
	c-1.647-2.114-2.976-3.014-5.359-2.222c0.654,1.234,4.64,3.296,3.458,4.785c-2.975-6.036-7.721-2.454-3.919,2.005
	c9.176,10.772,9.198-7.912,4.568-6.484c-0.579-0.663,3.663,2.965,2.435,3.391C85.327,65.735,84.934,65.243,84.539,64.753
	 M74.276,64.118c-0.014-0.073,0.064-0.17-0.056-0.18C74.233,64.012,74.154,64.107,74.276,64.118 M74.171,64.415
	C74.453,64.327,74.082,64.131,74.171,64.415 M49.696,75.031c-0.2,0.063-1.358,1.535-1.132,1.865c0.252-0.136,0.282-0.035,0.093,0.3
	c0.275-0.06,4.033-4.171,4.301-5.02C52.541,72.413,48.862,74.982,49.696,75.031 M50.024,75.455c0.105-0.028,0.141-0.094,0.145-0.175
	C50.063,75.308,50.029,75.374,50.024,75.455 M53.055,72.279C52.998,72.015,53.74,72.464,53.055,72.279 M56.647,71.56
	c2.504,1.557,2.09,0.813,3.982-0.312C59.168,70.344,57.443,70.999,56.647,71.56 M57.046,78.148c0.302,0.1-2.92,0.874-2.701,0.837
	c-0.044,0.621,0.116,1.563,0.632,2.041c0.871,0.033,0.908-2.688,1.938-1.391c-0.241,0.885-0.89,2.662-2.33,2.039
	c-3.755-1.631,1.64-7.472,1.472-9.472c-2.866-0.634-7.347,4.442-7.073,6.472c0.531,0.391-0.225,3.086,1.15,3.919
	c1.004,3.184,8.607,6.24,10.1,1.804c0.903,0.083,0.975,0.523,0.212,1.316c3.461-1.653,2.422-7.713,0.768-10.042
	C59.351,75.716,58.106,77.657,57.046,78.148 M56.095,72.323l0.018,0.061C55.93,72.796,56.367,72.183,56.095,72.323 M57.519,72.672
	c-1.395,0.733-3.316,3.522-3.061,5.619c0.528-0.358,6.19-5.717,3.241-5.675C59.399,73.415,57.861,73.322,57.519,72.672
	 M49.151,75.397c0.203,0.034,0.092-0.322-0.056-0.181C49.116,75.278,49.134,75.337,49.151,75.397 M55.77,73.608
	c-0.114-0.133,0.192-0.289-0.033-0.318C55.766,73.379,55.589,73.604,55.77,73.608 M76.837,68.982c0.25,0.439,1.229,2.156,2.23,1.677
	c-0.319-0.4-2.102-3.426-2.41-3.529C76.718,67.747,76.776,68.365,76.837,68.982 M48.069,76.786
	c-0.051-0.101,0.225-0.272,0.047-0.277C48.102,76.575,47.907,76.792,48.069,76.786 M58.184,75.03
	c0.123,0.396-2.052,1.946-2.249,2.935c1.537-0.861,7.967-2.544,3.238-4.622C59.267,73.534,58.261,74.662,58.184,75.03
	 M48.631,77.533C48.931,76.665,48.366,77.554,48.631,77.533 M64.558,73.515c-0.721,1.793-6.183,1.573,3.229,1.498
	C67.183,74.265,64.394,73.253,64.558,73.515 M63.304,74.562C63.191,74.146,63.116,74.576,63.304,74.562 M74.104,71.409
	c0.108-0.042,0.188-0.101,0.202-0.194C74.163,71.241,74.086,71.301,74.104,71.409 M73.065,72.52
	C73.242,73.682,72.817,72.442,73.065,72.52 M72.989,73.334C73.413,73.203,72.857,72.911,72.989,73.334 M72.265,73.757
	c-0.062,0.021-0.022,0.091,0.078,0.041C72.391,73.56,72.287,73.505,72.265,73.757 M71.651,74.539
	C72.195,73.934,71.737,74.498,71.651,74.539 M82.505,72.62c0.842,0.245,1.607,0.096,2.296-0.448
	C81.62,71.492,80.857,71.644,82.505,72.62 M49.827,83.938c0.031-0.002,1.338,2.723,2.741,2.046
	C51.306,85.493,48.329,83.44,49.827,83.938 M57.704,87.483c0.987-0.389,1.865-0.946,2.639-1.674
	c-1.117,0.19-4.317,2.559-5.473,1.237C55.814,87.192,56.76,87.338,57.704,87.483"/>
<path fill-rule="evenodd" clip-rule="evenodd" fill="#FFFFFF" d="M52.073,33.451c-0.002,0.136-0.077,0.229-0.105,0.351
	C51.888,33.816,51.873,33.44,52.073,33.451"/>
<path fill-rule="evenodd" clip-rule="evenodd" fill="#FFFFFF" d="M74.162,63.131c0.188,0.134-0.235,0.342-0.181,0.563
	C73.819,63.579,74.144,63.312,74.162,63.131"/>
<path fill-rule="evenodd" clip-rule="evenodd" fill="#FFFFFF" d="M57.708,66.254c0.068,0.127-0.094,0.114-0.076,0.213
	C57.529,66.513,57.569,66.231,57.708,66.254"/>
<path fill-rule="evenodd" clip-rule="evenodd" fill="#FFFFFF" d="M58.438,65.291C58.806,65.341,58.238,65.278,58.438,65.291"/>
<path fill-rule="evenodd" clip-rule="evenodd" fill="#FFFFFF" d="M58.165,66.009C58.474,66.34,57.429,67.117,58.165,66.009"/>
<path fill-rule="evenodd" clip-rule="evenodd" fill="#FFFFFF" d="M75.196,62.351c-0.049,0.145-0.147,0.258-0.305,0.337
	C74.941,62.544,75.039,62.431,75.196,62.351"/>
<path fill-rule="evenodd" clip-rule="evenodd" fill="#FFFFFF" d="M56.111,67.369c-0.041-0.229,0.196,0.143,0.031,0.123
	C56.075,67.662,56.143,67.468,56.111,67.369"/>
<path fill-rule="evenodd" clip-rule="evenodd" fill="#FFFFFF" d="M74.786,62.779C74.42,63.13,74.622,62.82,74.786,62.779"/>
<path fill="#FFFFFF" d="M65.812,30.599l0.133-0.02c0.317,0.107,0.521,0.258,0.611,0.457c0.059,0.414,0.002,1.269-0.173,2.562
	l0.089-0.013c0.887-0.338,1.538-0.54,1.954-0.6l0.398-0.058c0.778,0.37,1.22,0.7,1.322,0.987l0.013,0.088l-0.146,0.248l-0.184-0.019
	l-0.324,0.274l-0.051-0.039c-0.075,0.103-0.116,0.351-0.118,0.743l0.05,0.037l0.144,1.295l0.084,0.577l-0.039,0.051l0.051,0.039
	l0.06,0.398c-0.004,1.028-0.198,1.568-0.582,1.625c-0.623,0.091-1.459-0.15-2.509-0.724c-0.271-0.203-0.517-0.545-0.738-1.027
	c-0.148,0.021-0.312-0.166-0.488-0.564l-0.039-0.265c0.012-0.122,0.188-0.27,0.525-0.439c0.74-0.106,1.332,0.215,1.773,0.968
	l0.031,0.221l-0.045,0.007l0.063,0.127c0.031,0.208-0.018,0.396-0.144,0.564l0.013,0.09l0.458,0.023l0.264-0.038
	c0.47-0.31,0.677-0.656,0.62-1.041c0.077-0.104,0.134-0.957,0.174-2.564l-0.051-0.038c-2.017,0.474-3.157,0.85-3.42,1.13
	l-0.442,0.064l-0.051-0.037l-0.044,0.006c-0.194,2.416-0.558,3.662-1.091,3.739l-0.043,0.007c-0.09,0.014-0.141-0.024-0.155-0.113
	c-0.043-0.509-0.034-0.767,0.025-0.775l-0.051-0.038l-0.026-0.178c0.249-0.369,0.344-0.759,0.284-1.174l-0.059-0.4l-0.089,0.013
	c-0.588,0.752-0.866,1.215-0.841,1.393l-0.38,0.19l-0.091,0.014c-0.117,0.016-0.242-0.223-0.375-0.717
	c0.06-0.009,0.06-0.22-0.001-0.634l0.044-0.008l-0.05-0.036l-0.039-0.27l0.411-0.603l-0.005-0.043l-0.47,0.203l-0.312,0.045
	c-0.296-0.168-0.476-0.37-0.54-0.603l0.082-0.057l-0.133,0.02l-0.038-0.267l-0.077-0.217c-0.052-0.354,0.117-0.756,0.505-1.205
	l1.032-1.646l-0.019-0.133l-0.533,0.077l-0.293-0.139l-0.013-0.089c0.092-0.195,0.242-0.308,0.449-0.337l0.311-0.045
	c0.415-0.061,0.809,0.049,1.182,0.327l0.237,1.327L63.8,33.928l0.306,0.229l0.135,0.932c0.073,0.503,0.014,0.92-0.182,1.25
	l0.02,0.134l0.413,0.029l0.365-0.913c-0.178,0.025-0.276-0.035-0.298-0.185l0.082-0.374l-0.007-0.044l-0.159-0.159
	c0.225-0.122,0.376-0.432,0.455-0.927c0.788-1.231,1.141-2.144,1.055-2.736c-0.287-0.11-0.436-0.193-0.445-0.255l-0.006-0.043
	L65.812,30.599z M65.976,36.741l0.002,0.316c0.271,0.415,0.613,0.698,1.029,0.849l-0.006-0.045c-0.103-0.073-0.22-0.36-0.352-0.854
	l-0.452-0.299L65.976,36.741z"/>
<path fill="#FFFFFF" d="M74.235,31.983c0.504-0.073,0.785,0.098,0.846,0.513c-0.006,0.394-0.098,0.693-0.277,0.901l-0.133,0.654
	l0.141,0.66l-0.867,0.895l-0.045,0.007c-0.3-0.196-0.482-0.413-0.547-0.646l-0.045,0.007l0.008,0.044l0.199,0.743l-0.039,0.05
	l-0.044,0.006c-0.398-0.244-0.632-0.497-0.7-0.76l0.037-0.051l-0.018-0.133c-0.33-1.222-0.789-1.79-1.382-1.706l-0.107-0.119
	c0.011-0.122,0.077-0.191,0.195-0.209l0.376,0.081C72.172,32.751,72.972,32.439,74.235,31.983 M72.608,33.58
	c0.331,0.404,0.514,0.727,0.548,0.963c0.058-0.009,0.071-0.131,0.037-0.369c0.108-0.076,0.256-0.309,0.442-0.699l-0.299,0.135
	l-0.222,0.032L72.608,33.58z M73.225,34.715l0.013,0.088l0.09-0.012l-0.013-0.09L73.225,34.715z M76.622,29.054
	c0.711-0.104,1.173,0.269,1.385,1.114l0.486,2.105l0.04,0.266l0.044-0.006c0.344-0.141,0.676-0.233,1.001-0.281l0.052,0.038
	l0.043-0.007l0.039-0.051l0.045-0.005c0.444-0.066,0.895,0.127,1.354,0.573l0.057,0.083l0.057,0.4l-0.189,0.571l0.052,0.036
	l-0.007,0.273l0.25,0.781c0.192,1.332,0.037,2.034-0.466,2.106l-0.433,0.153l-0.53,0.077c-1.211-0.006-2.069-0.092-2.577-0.261
	c-0.617,0.331-1.088,0.521-1.414,0.567l-0.768,0.021l-0.164,0.115c-0.446-0.147-0.693-0.398-0.744-0.756l-0.007-0.043l0.044-0.008
	l0.678-0.007c0.148-0.021,1.188-0.579,3.114-1.676l1.914-0.865c0.161,0.067,0.245,0.13,0.254,0.189l0.02,0.133
	c0.009,0.059-0.235,0.246-0.734,0.562c-0.169,0.295-0.525,0.649-1.07,1.06l-0.438,0.428l0.718-0.059
	c1.548-0.376,2.29-0.786,2.226-1.23l-0.014-0.405l-0.032-0.223l-0.34-1.083l-0.005-0.046l-0.045,0.007
	c-0.444,0.064-0.9,0.251-1.37,0.562l-0.051-0.037l-0.044,0.006l-2.955,1.516l-0.214,0.076l-0.134,0.021l-0.617-1.137
	c0.121-0.409,0.329-0.636,0.626-0.679c0.266-0.885,0.363-1.563,0.294-2.038l-0.344-0.811l-0.02-0.134l0.189-0.254l0.133-0.021
	c0.209-0.029,0.447,0.465,0.714,1.484l0.003,1.27l0.089-0.013l0.659-0.46c-0.141-0.341-0.389-0.698-0.744-1.07l0.038-0.051
	c0.322,0.136,0.526,0.197,0.614,0.183l0.09-0.012l-0.033-0.541c-0.18-1.242-0.373-1.848-0.58-1.818l-0.09,0.014l-0.348,0.095
	c-0.018-0.117-0.242-0.207-0.674-0.265l-0.026-0.179C76.054,29.211,76.354,29.092,76.622,29.054"/>
<path fill="#FFFFFF" d="M84.274,33.471l-0.114,0.153c-0.014,0.123-0.091,0.21-0.233,0.26c-0.112-0.135-0.23-0.224-0.357-0.266
	l-0.203-0.469c-0.043-0.295,0.09-0.724,0.402-1.283c0.338-0.38,0.511-0.754,0.519-1.117c0.097-0.588-0.097-0.876-0.579-0.869
	c-0.425,0.184-0.777,0.476-1.051,0.879c-0.144,0.263-0.371,0.371-0.679,0.325c-0.178,0.025-0.248-0.146-0.211-0.514l0.215-0.395
	l0.438-0.426l0.538-0.35c0.233-0.062,0.498-0.118,0.794-0.161c0.757,0.012,1.232,0.487,1.431,1.426
	c-0.117,0.651-0.398,1.221-0.842,1.708C84.146,32.705,84.124,33.07,84.274,33.471 M83.637,35.015
	c-0.01-0.271,0.126-0.488,0.403-0.647c0.271-0.01,0.488,0.142,0.655,0.448c0.161,0.49,0.019,0.753-0.431,0.788
	C83.821,35.667,83.611,35.472,83.637,35.015"/>
<path fill="#FFFFFF" d="M79.725,28.079l-0.093,0.125c-0.01,0.099-0.074,0.17-0.189,0.211c-0.09-0.111-0.188-0.182-0.289-0.216
	l-0.166-0.382c-0.035-0.24,0.074-0.587,0.326-1.041c0.275-0.311,0.414-0.613,0.423-0.908c0.077-0.478-0.08-0.713-0.472-0.706
	c-0.348,0.149-0.631,0.387-0.854,0.714c-0.116,0.214-0.3,0.302-0.552,0.264c-0.144,0.021-0.2-0.118-0.169-0.419l0.174-0.317
	l0.355-0.347l0.436-0.283c0.189-0.053,0.404-0.097,0.645-0.131c0.615,0.009,1.003,0.395,1.163,1.158
	c-0.096,0.528-0.323,0.99-0.683,1.387C79.622,27.456,79.604,27.754,79.725,28.079 M79.206,29.333
	c-0.008-0.22,0.103-0.395,0.329-0.525c0.22-0.008,0.398,0.114,0.531,0.363c0.132,0.399,0.015,0.612-0.349,0.64
	C79.356,29.863,79.188,29.704,79.206,29.333"/>
</svg>
