<?xml version="1.0" encoding="utf-8"?>
<!-- Generator: Adobe Illustrator 16.0.0, SVG Export Plug-In . SVG Version: 6.00 Build 0)  -->
<!DOCTYPE svg PUBLIC "-//W3C//DTD SVG 1.1//EN" "http://www.w3.org/Graphics/SVG/1.1/DTD/svg11.dtd">
<svg version="1.1" id="Layer_1" xmlns="http://www.w3.org/2000/svg" xmlns:xlink="http://www.w3.org/1999/xlink" x="0px" y="0px"
	 width="126.876px" height="112.438px" viewBox="0 0 126.876 112.438" enable-background="new 0 0 126.876 112.438"
	 xml:space="preserve">
<rect fill="#FFFFFF" width="126.876" height="112.438"/>
<g>
	<g>
		<defs>
			<rect id="SVGID_1280_" x="33.167" y="29.965" width="62.354" height="62.361"/>
		</defs>
		<clipPath id="SVGID_2_">
			<use xlink:href="#SVGID_1280_"  overflow="visible"/>
		</clipPath>
		<path clip-path="url(#SVGID_2_)" fill="#A09D9A" d="M92.715,30.146c-0.125-0.04-0.252-0.072-0.382-0.1
			c-0.261-0.053-0.529-0.081-0.806-0.081H37.16c-0.689,0-1.337,0.175-1.902,0.483c-0.33,0.181-0.631,0.405-0.896,0.668
			c-0.008,0.007-0.018,0.015-0.025,0.022c-0.723,0.724-1.17,1.725-1.17,2.826v54.36c0,2.213,1.788,4.002,3.993,4.002h54.367
			c2.206,0,3.994-1.789,3.994-4.002v-54.36C95.521,32.174,94.341,30.653,92.715,30.146"/>
	</g>
</g>
<g>
	<defs>
		<path id="SVGID_1282_" d="M34.665,28.254c-2.104,0-3.815,1.716-3.815,3.824v54.36c0,2.108,1.712,3.823,3.815,3.823h54.368
			c2.105,0,3.817-1.715,3.817-3.823v-54.36c0-2.108-1.712-3.824-3.817-3.824H34.665z"/>
	</defs>
	<clipPath id="SVGID_4_">
		<use xlink:href="#SVGID_1282_"  overflow="visible"/>
	</clipPath>
	
		<linearGradient id="SVGID_6_" gradientUnits="userSpaceOnUse" x1="-2185.2109" y1="-104.2578" x2="-2184.7705" y2="-104.2578" gradientTransform="matrix(0 140.7738 140.7738 0 14738.6719 307648.8125)">
		<stop  offset="0" style="stop-color:#F2F0EA"/>
		<stop  offset="1" style="stop-color:#E8E4D8"/>
	</linearGradient>
	<rect x="30.85" y="28.254" clip-path="url(#SVGID_4_)" fill="url(#SVGID_6_)" width="62.001" height="62.008"/>
</g>
<g>
	<defs>
		<path id="SVGID_1285_" d="M34.665,28.254c-2.104,0-3.815,1.716-3.815,3.824v18.624h62.001V32.078c0-2.108-1.712-3.824-3.817-3.824
			H34.665z"/>
	</defs>
	<clipPath id="SVGID_8_">
		<use xlink:href="#SVGID_1285_"  overflow="visible"/>
	</clipPath>
	
		<linearGradient id="SVGID_10_" gradientUnits="userSpaceOnUse" x1="-2175.7686" y1="-84.4482" x2="-2175.3281" y2="-84.4482" gradientTransform="matrix(0 50.9629 50.9629 0 4365.5625 110911.7344)">
		<stop  offset="0" style="stop-color:#F0875F"/>
		<stop  offset="0.2156" style="stop-color:#F0875F"/>
		<stop  offset="1" style="stop-color:#EB622F"/>
	</linearGradient>
	<rect x="30.85" y="28.254" clip-path="url(#SVGID_8_)" fill="url(#SVGID_10_)" width="62.001" height="22.448"/>
</g>
<path fill="#EB8761" d="M89.033,28.431c2.008,0,3.641,1.636,3.641,3.647v18.447H31.025V32.078c0-2.012,1.634-3.647,3.641-3.647
	h50.332H89.033 M89.033,28.078h-4.035H34.666c-2.206,0-3.993,1.795-3.993,4V50.88h62.354V32.078
	C93.027,29.873,91.239,28.078,89.033,28.078"/>
<path fill="#F9F9F8" d="M46.234,33.905c0.328-0.147,0.783-0.222,1.361-0.222c0.17,0,0.405,0.006,0.706,0.017
	c0.3,0.012,0.513,0.018,0.638,0.018c1.43,0,2.646,0.307,3.651,0.918c1.003,0.613,1.732,1.441,2.187,2.485
	c0.441,0.976,0.584,2.074,0.426,3.293c-0.16,1.22-0.619,2.385-1.379,3.497c-0.363,0.522-0.931,0.941-1.701,1.26l-0.512,0.221
	l-0.578,0.238c-0.146,0.068-0.332,0.134-0.553,0.196s-0.43,0.099-0.621,0.11c-0.33,0.021-0.926,0.021-1.787,0
	c-0.715-0.012-1.276,0.017-1.685,0.085c-0.103,0.011-0.176-0.028-0.222-0.119h-0.255l0.153-11.896h0.067
	C46.154,33.962,46.189,33.928,46.234,33.905 M46.336,44.167l-0.017,1.446c0.432-0.068,1.021-0.097,1.77-0.086l0.052,0.018
	l-0.018-1.174c-0.487-0.012-1.049-0.062-1.685-0.154C46.404,44.206,46.371,44.188,46.336,44.167 M48.072,35.861
	c-0.545,0.034-1.089,0.12-1.634,0.256l-0.085,7.743c0.045-0.046,0.096-0.062,0.152-0.051c0.602,0.091,1.141,0.142,1.617,0.152
	L48.072,35.861z M48.072,35.453l-0.018-1.361h-0.459c-0.488,0-0.862,0.051-1.123,0.154l-0.018,1.463
	C46.988,35.572,47.527,35.487,48.072,35.453 M48.531,44.371l0.018,1.174c0.521,0.011,0.947,0.006,1.275-0.018
	c0.182-0.011,0.369-0.044,0.562-0.102c0.193-0.057,0.357-0.113,0.494-0.171l0.562-0.238c0.227-0.102,0.396-0.176,0.51-0.221
	c0.715-0.283,1.226-0.658,1.531-1.122c0.727-1.056,1.167-2.162,1.319-3.319s0.02-2.184-0.4-3.08
	c-0.42-0.953-1.097-1.716-2.033-2.289c-0.936-0.573-2.08-0.859-3.43-0.859c-0.113,0-0.271-0.005-0.477-0.017l0.018,1.311
	c0.193,0,0.38,0.005,0.561,0.017c1.124,0.045,1.986,0.334,2.588,0.867c0.408,0.375,0.729,0.849,0.962,1.422
	c0.231,0.572,0.366,1.177,0.399,1.812c0.023,0.636-0.045,1.251-0.205,1.847c-0.158,0.596-0.413,1.109-0.765,1.54l-0.103,0.153
	l-0.136,0.187c-0.113,0.159-0.233,0.273-0.357,0.341C50.642,44.093,49.678,44.348,48.531,44.371 M48.48,35.827l0.051,8.135
	c1.066-0.022,1.963-0.255,2.689-0.698c0.068-0.045,0.146-0.129,0.238-0.254l0.119-0.17c0.045-0.08,0.091-0.143,0.137-0.188
	c0.306-0.374,0.532-0.836,0.68-1.387c0.147-0.55,0.21-1.12,0.188-1.71c-0.035-0.59-0.156-1.146-0.367-1.668
	c-0.209-0.521-0.495-0.947-0.858-1.276c-0.522-0.477-1.3-0.73-2.331-0.766C48.844,35.834,48.662,35.827,48.48,35.827"/>
<path fill="#F9F9F8" d="M64.75,45.919l-0.375,0.137l-0.834-2.383l-3.71,0.052l-0.817,2.348l-0.374-0.136l0.749-2.212L57.5,43.741
	l-0.919,2.28l-0.375-0.136l5.156-12.968l-0.05-0.119l0.136-0.068l0.034-0.085l0.102,0.034l0.102-0.051l0.052,0.102l0.12,0.052
	l-0.053,0.136l5.361,12.95l-0.375,0.17l-1.004-2.434v0.051l-1.82,0.018L64.75,45.919z M59.525,43.316l0.441-1.294l-1.804,0.033
	l-0.511,1.276L59.525,43.316z M60.104,41.613l1.345-3.896l-0.732-2.06l-2.383,5.991L60.104,41.613z M63.388,43.265l-0.441-1.294
	l-2.536,0.052l-0.443,1.276L63.388,43.265z M62.793,41.562l-1.141-3.232l-1.106,3.283L62.793,41.562z M61.652,37.088l0.646-1.907
	l-0.715-1.718l-0.63,1.616L61.652,37.088z M63.218,41.562l1.72-0.034l-2.4-5.769l-0.663,1.957L63.218,41.562z M63.831,43.265
	l1.804-0.018l-0.545-1.311l-1.719,0.034L63.831,43.265z"/>
<path fill="#F9F9F8" d="M76.15,33.99l0.341,0.203l-2.825,4.901l0.834,1.447l3.795-6.603l0.341,0.203l-3.982,6.943v4.867h-0.407
	v-1.379l-0.069,0.052l-0.767-1.361l-0.782,1.361l0.035,1.378h-0.409l-0.135-4.866h0.084l-3.948-7.046l0.34-0.204l3.745,6.654
	l0.85-1.447l-2.791-4.901l0.341-0.203l2.689,4.696L76.15,33.99z M72.595,43.843l0.577-0.986l-0.628-1.123L72.595,43.843z
	 M73.429,39.504l-0.852,1.463l0.833,1.464l0.852-1.481L73.429,39.504z M74.246,41.801l-0.597,1.056l0.597,1.072V41.801z"/>
<path fill="#F0875F" d="M72.867,59.902l-1.761,2.051c-1.677,1.96-3.218,4.334-4.624,7.119l-3.521,7.719
	c-0.245,0.567-0.786,2.058-1.626,4.469c-0.67,1.909-1.295,3.335-1.876,4.276c-0.36,0.605-0.877,0.909-1.548,0.909
	c-0.516,0-0.971-0.182-1.363-0.542c-0.395-0.361-0.59-0.794-0.59-1.296c0-0.491,0.412-1.747,1.238-3.773l4.352-10.659
	c1.922-4.218,3.895-7.468,5.92-9.75l0.368-0.406l-9.712-0.194l-4.354-0.115c-1.25-0.116-1.875-0.736-1.875-1.857
	c0-0.542,0.18-0.987,0.541-1.335c0.36-0.348,0.812-0.522,1.354-0.522c1.626,0,4.065,0.053,7.321,0.155
	c3.257,0.103,5.699,0.154,7.323,0.154h3.54c1.367,0,2.051,0.406,2.051,1.22C74.027,58.129,73.641,58.922,72.867,59.902"/>
<text transform="matrix(1 0 0 1 32.2949 24.6621)" fill="#F0875F" font-family="'CloudHeiCuGBK'" font-size="9.3245">运动打卡</text>
</svg>
