<?xml version="1.0" encoding="utf-8"?>
<!-- Generator: Adobe Illustrator 16.0.0, SVG Export Plug-In . SVG Version: 6.00 Build 0)  -->
<!DOCTYPE svg PUBLIC "-//W3C//DTD SVG 1.1//EN" "http://www.w3.org/Graphics/SVG/1.1/DTD/svg11.dtd">
<svg version="1.1" id="Layer_1" xmlns="http://www.w3.org/2000/svg" xmlns:xlink="http://www.w3.org/1999/xlink" x="0px" y="0px"
	 width="126.876px" height="112.438px" viewBox="0 0 126.876 112.438" enable-background="new 0 0 126.876 112.438"
	 xml:space="preserve">
<rect fill="#FFFFFF" width="126.876" height="112.438"/>
<path fill="#4D4C4C" d="M76.516,67.768c0,0,0.076-0.065,0.218-0.187c0.134-0.115,0.335-0.294,0.595-0.53
	c0.258-0.233,0.565-0.529,0.919-0.865c0.347-0.346,0.747-0.726,1.161-1.164c0.424-0.43,0.869-0.909,1.335-1.424
	c0.475-0.505,0.936-1.072,1.436-1.642c0.474-0.59,0.981-1.188,1.46-1.823c0.475-0.638,0.978-1.275,1.427-1.947
	c0.23-0.333,0.461-0.666,0.691-0.998c0.223-0.336,0.432-0.68,0.646-1.016c0.212-0.338,0.423-0.674,0.63-1.005
	c0.193-0.341,0.385-0.677,0.572-1.007c0.186-0.332,0.377-0.655,0.55-0.978c0.164-0.328,0.324-0.649,0.479-0.961
	c0.157-0.313,0.309-0.617,0.455-0.911c0.15-0.295,0.262-0.593,0.386-0.871c0.24-0.562,0.46-1.077,0.655-1.534
	c0.166-0.469,0.311-0.876,0.431-1.213c0.239-0.675,0.376-1.06,0.376-1.06s-0.105,0.395-0.291,1.086
	c-0.092,0.346-0.205,0.767-0.334,1.25c-0.158,0.473-0.338,1.008-0.533,1.591c-0.103,0.29-0.191,0.6-0.317,0.907
	c-0.124,0.308-0.252,0.627-0.386,0.954c-0.132,0.327-0.268,0.664-0.406,1.009c-0.15,0.34-0.314,0.681-0.477,1.031
	s-0.329,0.707-0.497,1.067c-0.183,0.353-0.369,0.709-0.557,1.068c-0.19,0.358-0.376,0.725-0.574,1.084
	c-0.206,0.355-0.413,0.712-0.621,1.069c-0.403,0.722-0.86,1.409-1.294,2.099c-0.437,0.688-0.904,1.338-1.34,1.979
	c-0.464,0.622-0.891,1.241-1.336,1.799c-0.434,0.564-0.852,1.094-1.252,1.57c-0.391,0.485-0.773,0.912-1.103,1.298
	c-0.339,0.378-0.633,0.709-0.886,0.977c-0.249,0.267-0.451,0.479-0.597,0.624c-0.139,0.14-0.213,0.215-0.213,0.215L76.516,67.768z"
	/>
<path fill="#4D4C4C" d="M66.785,56.784c0,0,0.227-0.172,0.622-0.474c0.396-0.304,0.957-0.753,1.626-1.297
	c0.663-0.551,1.438-1.197,2.244-1.914c0.406-0.356,0.818-0.732,1.234-1.119c0.422-0.38,0.83-0.785,1.248-1.183
	c0.416-0.4,0.812-0.817,1.215-1.219c0.387-0.415,0.77-0.823,1.139-1.219c0.354-0.409,0.696-0.805,1.021-1.179
	c0.311-0.388,0.604-0.755,0.874-1.093c0.253-0.353,0.485-0.674,0.692-0.96c0.214-0.283,0.363-0.551,0.502-0.764
	c0.27-0.432,0.423-0.678,0.423-0.678s-0.126,0.262-0.345,0.721c-0.114,0.228-0.234,0.516-0.416,0.82
	c-0.176,0.311-0.372,0.661-0.587,1.043c-0.233,0.372-0.485,0.773-0.754,1.199c-0.284,0.414-0.585,0.852-0.896,1.304
	c-0.328,0.44-0.666,0.897-1.01,1.359c-0.359,0.451-0.715,0.918-1.089,1.369c-0.376,0.449-0.743,0.906-1.126,1.339
	c-0.377,0.437-0.751,0.865-1.122,1.271c-0.733,0.819-1.444,1.562-2.055,2.197c-0.616,0.63-1.136,1.15-1.509,1.51
	c-0.375,0.36-0.59,0.566-0.59,0.566L66.785,56.784z"/>
<path fill="#4D4C4C" d="M72.514,84.554c0,0,0.271-0.364,0.779-1.049c0.507-0.687,1.246-1.699,2.176-2.999
	c1.855-2.6,4.479-6.341,7.445-10.943c1.481-2.302,3.047-4.82,4.617-7.529c1.572-2.707,3.135-5.614,4.545-8.701
	c0.688-1.549,1.337-3.143,1.848-4.786c0.499-1.645,0.895-3.338,0.742-4.993l-0.027-0.336l-0.065-0.28l-0.127-0.564l-0.215-0.573
	c-0.038-0.095-0.062-0.196-0.112-0.285l-0.146-0.271c-0.103-0.18-0.188-0.368-0.302-0.542l-0.366-0.507
	c-0.063-0.084-0.118-0.175-0.188-0.253L92.9,39.707l-0.432-0.47c-1.238-1.188-2.786-2.099-4.407-2.843
	c-1.625-0.748-3.346-1.317-5.087-1.793c-0.865-0.256-1.749-0.443-2.623-0.658c-0.885-0.177-1.76-0.381-2.646-0.528
	c-3.529-0.637-7.05-1.045-10.466-1.334c-3.416-0.287-6.73-0.454-9.875-0.562c-3.146-0.11-6.123-0.136-8.87-0.151
	c-2.749-0.001-5.269,0.024-7.502,0.062c-1.116,0.022-2.161,0.045-3.128,0.065c-0.965,0.027-1.854,0.053-2.654,0.075
	c-1.604,0.042-2.863,0.1-3.722,0.127c-0.858,0.031-1.316,0.048-1.316,0.048s0.457-0.027,1.315-0.075
	c0.857-0.046,2.115-0.13,3.718-0.203c0.802-0.04,1.688-0.085,2.653-0.133c0.967-0.04,2.012-0.083,3.128-0.13
	c2.233-0.085,4.753-0.162,7.505-0.219c2.75-0.04,5.732-0.077,8.886-0.033s6.48,0.141,9.92,0.359
	c3.438,0.218,6.99,0.555,10.577,1.126c0.897,0.131,1.792,0.318,2.693,0.479c0.895,0.199,1.798,0.373,2.689,0.615
	c1.791,0.45,3.575,0.998,5.299,1.747c1.718,0.747,3.401,1.678,4.833,2.993l0.508,0.527l0.253,0.264
	c0.082,0.091,0.152,0.194,0.229,0.29l0.443,0.591c0.138,0.204,0.25,0.428,0.376,0.642l0.182,0.324
	c0.061,0.109,0.098,0.229,0.146,0.344l0.274,0.695c0.07,0.247,0.125,0.504,0.186,0.756l0.087,0.38l0.034,0.338l0.066,0.673
	c0.008,0.111,0.001,0.057,0.003,0.094l-0.002,0.046l-0.001,0.09l-0.006,0.182l-0.01,0.362c0.006,0.49-0.082,0.949-0.136,1.419
	c-0.142,0.928-0.354,1.824-0.604,2.698c-0.505,1.746-1.142,3.406-1.814,5.014c-1.381,3.195-2.909,6.18-4.442,8.954
	c-1.533,2.775-3.061,5.35-4.507,7.703c-2.896,4.704-5.458,8.525-7.275,11.185c-0.908,1.329-1.634,2.366-2.132,3.073
	c-0.503,0.707-0.771,1.083-0.771,1.083L72.514,84.554z"/>
<path fill="#4D4C4C" d="M48.9,60.934c0,0-0.717,0.136-0.268-0.248c0.237-0.194,4.361-4.347,4.705-4.629
	c0.346-0.273,0.739-0.585,1.188-0.925c1.788-1.365,2.11-1.72,5.323-3.747c1.605-1.004,3.346-2.092,5.186-3.242
	c1.831-1.149,3.758-2.361,5.667-3.704c0.953-0.673,1.9-1.379,2.796-2.145c0.443-0.386,0.881-0.782,1.272-1.206
	c0.405-0.417,0.755-0.868,1.032-1.33c0.275-0.463,0.447-0.945,0.423-1.375c-0.017-0.43-0.229-0.84-0.595-1.216
	c-0.355-0.379-0.855-0.688-1.369-0.965c-0.265-0.133-0.525-0.272-0.809-0.382c-0.277-0.118-0.556-0.234-0.848-0.331
	c-1.15-0.408-2.35-0.735-3.564-0.994c-0.604-0.141-1.217-0.247-1.824-0.369c-0.612-0.102-1.219-0.218-1.83-0.307
	c-2.439-0.378-4.862-0.648-7.211-0.871c-2.351-0.217-4.629-0.378-6.79-0.516c-2.162-0.13-4.208-0.233-6.098-0.314
	c-1.89-0.08-3.622-0.142-5.159-0.189c-1.535-0.042-2.875-0.079-3.979-0.11c-2.208-0.047-3.469-0.072-3.469-0.072
	s1.262-0.012,3.469-0.032c1.104-0.003,2.445-0.006,3.982-0.01c1.538,0.001,3.273,0.01,5.166,0.033
	c1.893,0.024,3.943,0.065,6.113,0.131c2.17,0.071,4.457,0.165,6.822,0.312c2.366,0.151,4.812,0.35,7.291,0.658
	c0.621,0.07,1.24,0.17,1.865,0.254c0.621,0.105,1.248,0.196,1.872,0.32c1.251,0.229,2.502,0.526,3.74,0.924
	c0.311,0.094,0.617,0.209,0.925,0.331c0.309,0.108,0.609,0.257,0.913,0.397c0.599,0.301,1.202,0.639,1.73,1.159
	c0.14,0.114,0.258,0.269,0.378,0.417c0.057,0.076,0.122,0.146,0.174,0.229l0.146,0.261c0.046,0.089,0.102,0.172,0.136,0.268
	l0.096,0.292c0.075,0.191,0.088,0.397,0.113,0.602c0.063,0.825-0.216,1.566-0.548,2.174c-0.341,0.613-0.747,1.154-1.183,1.634
	c-0.431,0.492-0.889,0.934-1.351,1.36c-0.93,0.845-1.891,1.605-2.848,2.327c-1.919,1.438-3.827,2.719-5.632,3.929
	c-1.802,1.204-3.504,2.341-5.076,3.392c-3.127,2.107-5.646,3.948-7.325,5.313c-0.422,0.338-0.792,0.651-1.11,0.918
	c-0.312,0.272-0.577,0.504-0.792,0.691c-0.438,0.398-0.672,0.609-0.672,0.609L48.9,60.934z"/>
<path fill="#4D4C4C" d="M73.111,60.311c0,0,0.924-0.604,1.354-0.997c0.43-0.402,1.059-1.003,1.838-1.788
	c0.776-0.788,1.703-1.763,2.72-2.918c1.011-1.16,2.121-2.496,3.204-4.032c0.544-0.764,1.077-1.582,1.578-2.449
	c0.501-0.868,0.975-1.786,1.356-2.757c0.373-0.968,0.672-1.993,0.747-3.027c0-0.254,0.035-0.518,0.011-0.771l-0.026-0.383
	l-0.006-0.097l-0.002-0.023c0.025,0.129,0.004,0.02,0.008,0.041l-0.012-0.053l-0.045-0.217c-0.056-0.328-0.145-0.485-0.209-0.707
	c-0.113-0.224-0.203-0.459-0.354-0.672c-0.534-0.886-1.41-1.631-2.379-2.271c-0.978-0.638-2.082-1.152-3.227-1.604
	c-2.297-0.895-4.771-1.519-7.27-2.01c-2.5-0.489-5.035-0.848-7.541-1.122c-2.506-0.276-4.982-0.471-7.384-0.613
	c-4.803-0.284-9.3-0.363-13.153-0.368c-3.855-0.003-7.068,0.074-9.316,0.145c-2.248,0.082-3.533,0.129-3.533,0.129
	S32.755,31.66,35,31.512c2.246-0.136,5.457-0.309,9.314-0.42c3.857-0.109,8.363-0.164,13.193-0.021
	c2.415,0.071,4.91,0.193,7.443,0.396c2.533,0.202,5.105,0.487,7.665,0.909c2.559,0.427,5.11,0.986,7.56,1.855
	c1.223,0.44,2.424,0.954,3.547,1.638c1.111,0.692,2.19,1.525,2.952,2.689c0.202,0.277,0.349,0.598,0.509,0.904
	c0.131,0.343,0.282,0.734,0.328,0.993c0.175,0.711,0.175,1.337,0.165,1.991c-0.058,1.287-0.376,2.477-0.763,3.577
	c-0.394,1.1-0.88,2.111-1.39,3.06c-0.512,0.948-1.052,1.831-1.601,2.653c-1.092,1.65-2.204,3.071-3.215,4.305
	c-1.018,1.228-1.944,2.261-2.724,3.099c-0.779,0.836-1.412,1.476-1.849,1.91c-0.447,0.434-1.16,1.229-1.16,1.229L73.111,60.311z"/>
<path fill="#FFFFFF" d="M43.621,73.459c0-9.911,8.035-17.945,17.946-17.945s17.945,8.034,17.945,17.945s-8.034,17.945-17.945,17.945
	S43.621,83.37,43.621,73.459"/>
<path d="M61.568,91.785c9.956,0,18.058-8.222,18.058-18.326c0-10.105-8.102-18.327-18.058-18.327
	c-9.959,0-18.061,8.222-18.061,18.327C43.508,83.563,51.609,91.785,61.568,91.785 M49.45,63.96l4.43,0.429l1.448,6.212l-3.476,5.892
	l-4.389-0.3l-1.595-6.223L49.45,63.96z M60.159,59.893l4.987,1.307l2.439,7.32l-5.102,4.438l-6.783-2.286l-1.459-6.262
	L60.159,59.893z M74.394,71.522l0.062,6.654l-5.98,4.524l-4.721-2.109l-1.162-7.267l5.126-4.458L74.394,71.522z M56.973,82.79
	l6.854-1.747l-0.006-0.04l4.682,2.092l0.81,3.83l-7.237,2.625l-5.152-2.447L56.973,82.79z M62.172,89.885l7.686-2.787l-0.025-0.068
	l2.277,0.425c-2.776,2.16-6.209,3.488-9.938,3.618V89.885z M46.171,81.592l1.331-5.048l4.152,0.285l-0.012,0.019l4.981,6
	l-0.049,4.091l-0.011-0.005l-5.452,0.589C49.062,85.948,47.369,83.922,46.171,81.592 M77.732,79.882l-2.93-1.852l-0.061-6.369
	l0.059,0.022l2.252-4.894l0.497-0.219c0.888,2.117,1.38,4.445,1.38,6.888C78.93,75.725,78.502,77.89,77.732,79.882 M77.408,66.254
	l-0.406,0.179l-5.512-6.657l0.093-0.703C74.104,60.886,76.127,63.363,77.408,66.254 M71.262,58.84l-0.117,0.89l-5.971,1.117
	l-4.941-1.295l-2.197-3.354c1.141-0.241,2.322-0.368,3.533-0.368C65.154,55.829,68.491,56.94,71.262,58.84 M49.546,60.758
	l-0.29,2.847l-3.682,6.182l-0.952-0.155C45.376,66.187,47.125,63.121,49.546,60.758"/>
<g>
	<path d="M28.04,27.985c-0.089,0-0.155-0.005-0.196-0.01l-0.36-0.044c0,0-0.106-0.553-0.123-0.648
		c-0.868,0.147-1.67,0.246-2.437,0.301l-0.399,0.028l-0.115-0.385c-0.079-0.266-0.104-0.51-0.117-0.713l-0.027-0.421l0.328-0.079
		c-0.1-0.646-0.175-1.253-0.228-1.834c-0.017,0.001-0.468,0.03-0.468,0.03l-0.1-0.407c-0.055-0.223-0.084-0.46-0.101-0.697
		l-0.033-0.474c0,0,0.882-0.107,1.091-0.133l-0.04-0.22c-0.138-0.761-0.241-1.671-0.326-2.863l-0.035-0.499l1.491-0.104l0.013-0.351
		l0.465-0.017c0.854-0.03,1.72-0.043,2.596-0.043c0.456,0,0.914,0.004,1.376,0.01l0.328,0.004l0.126,0.303
		c0.137,0.326,0.234,0.902,0.291,1.711c0.032,0.461,0.041,0.891,0.047,1.274l0.002,0.106c0.315-0.032,1.339-0.132,1.339-0.132
		l0.134,0.361c0.044,0.119,0.072,0.261,0.085,0.434c0.007,0.103,0.009,0.188,0.01,0.254l0.036,0.469l-0.43,0.129l-0.03,0.413
		c-0.035,0.475-0.119,0.958-0.255,1.465c0.214,0.037,1.162,0.189,1.162,0.189l-0.118,0.521c-0.056,0.249-0.126,0.486-0.208,0.7
		l-0.141,0.366c0,0-1.034-0.129-1.271-0.162l-0.312,0.716l-0.397,0.025c-0.239,0-0.495-0.062-0.783-0.188l-0.395-0.175
		c0,0,0.155-0.565,0.177-0.639c-0.103-0.019-0.203-0.038-0.302-0.059l0.025,0.357l-0.354,0.085l0.063,0.816l-0.366,0.123
		c-0.155,0.053-0.302,0.082-0.462,0.095C28.191,27.983,28.107,27.985,28.04,27.985z M28.219,20.274
		c0.014,0.188,0.006,0.4-0.021,0.629c0.438-0.033,0.792-0.064,1.074-0.094c-0.022-0.23-0.049-0.468-0.08-0.712
		c-0.329,0.005-0.658,0.008-0.986,0.008L28.219,20.274z"/>
	<path fill="#FFFFFF" d="M28.918,18.903c0.453,0,0.91,0.004,1.369,0.01c0.107,0.257,0.199,0.781,0.253,1.553
		c0.032,0.451,0.04,0.872,0.046,1.247c-0.101,0.15-1.297,0.302-3.598,0.464c-0.42,0.029-0.792,0.046-1.114,0.046
		c-0.253,0-0.476-0.01-0.667-0.031c-0.145-0.796-0.243-1.731-0.319-2.81l0.727-0.051c0.034,0.341,0.068,0.658,0.101,0.955
		c0.189-0.003,0.382-0.005,0.577-0.005c0.465,0,0.942,0.01,1.428,0.029c0.013,0.177,0.003,0.376-0.025,0.589
		c-0.347,0.024-0.683,0.036-1.008,0.036c-0.315,0-0.621-0.011-0.917-0.033l0.041,0.584c0.152,0.011,0.319,0.016,0.503,0.016
		c0.381,0,0.829-0.021,1.341-0.058c1.002-0.07,1.719-0.133,2.156-0.196c-0.037-0.519-0.097-1.067-0.184-1.658
		c-0.519,0.011-1.034,0.016-1.549,0.016c-0.572,0-1.144-0.006-1.715-0.019c-0.016-0.219-0.031-0.43-0.023-0.641
		C27.188,18.916,28.048,18.903,28.918,18.903 M32.092,22.215c0.028,0.076,0.046,0.175,0.055,0.296
		c0.011,0.154,0.008,0.266,0.013,0.33c-2.148,0.297-4.345,0.539-6.577,0.73c0.012,0.176,0.033,0.34,0.057,0.505
		c0.416-0.073,0.844-0.137,1.303-0.202c0.035,0.163,0.057,0.339,0.07,0.526c-0.456,0.109-0.895,0.185-1.312,0.225
		c0.014,0.198,0.038,0.396,0.064,0.594c0.391-0.095,0.784-0.167,1.2-0.229c0.034,0.175,0.059,0.349,0.07,0.526
		c-0.422,0.129-0.826,0.212-1.222,0.263c0.013,0.176,0.035,0.33,0.046,0.483c0.59-0.108,1.193-0.195,1.808-0.26
		c-0.107-0.746-0.181-1.46-0.227-2.12c0.042-0.024,0.151-0.056,0.337-0.09c0.036-0.003,0.069-0.004,0.101-0.004
		c0.099,0,0.17,0.012,0.222,0.025c0.136,0.676,0.262,1.376,0.359,2.12c0.121-0.008,0.242-0.026,0.363-0.035
		c0.017,0.086,0.034,0.174,0.041,0.272l0.021,0.298c-0.131,0.031-0.251,0.062-0.36,0.081c0.021,0.286,0.052,0.571,0.072,0.857
		c-0.087,0.029-0.196,0.059-0.339,0.069c-0.086,0.006-0.159,0.008-0.218,0.008c-0.062,0-0.107-0.002-0.136-0.006
		c-0.054-0.273-0.092-0.535-0.133-0.776c-0.973,0.18-1.937,0.314-2.883,0.382c-0.059-0.196-0.083-0.383-0.098-0.604
		c0.13-0.031,0.25-0.05,0.369-0.081c-0.15-0.907-0.271-1.828-0.338-2.765c-0.188,0.024-0.363,0.037-0.539,0.049
		c-0.048-0.195-0.072-0.404-0.087-0.613C26.521,22.786,29.146,22.501,32.092,22.215 M31.592,23.701c0.049,0,0.097,0,0.141,0.001
		c-0.045,0.611-0.18,1.241-0.396,1.897c0.402,0.071,0.806,0.142,1.197,0.204c-0.051,0.225-0.113,0.438-0.188,0.632
		c-0.446-0.056-0.859-0.105-1.251-0.167c-0.114,0.263-0.229,0.526-0.344,0.789c-0.02,0.002-0.04,0.002-0.06,0.002
		c-0.173,0-0.367-0.051-0.581-0.146c0.071-0.26,0.142-0.508,0.224-0.757c-0.425-0.06-0.829-0.141-1.211-0.225
		c0.037-0.245,0.101-0.461,0.176-0.643c0.425,0.059,0.827,0.13,1.231,0.189c0.106-0.384,0.222-0.769,0.339-1.141
		c-0.694,0.037-1.379,0.062-2.042,0.065c-0.016-0.22-0.019-0.42,0.013-0.599C30.116,23.736,31.03,23.701,31.592,23.701
		 M28.918,17.903c-0.94,0-1.795,0.015-2.613,0.044l-0.93,0.032l-0.014,0.367l-0.543,0.037l-0.999,0.07l0.071,0.998
		c0.074,1.058,0.164,1.899,0.28,2.615c-0.032,0.004-0.064,0.008-0.097,0.012l-0.941,0.115l0.066,0.947
		c0.021,0.305,0.057,0.553,0.113,0.781l0.199,0.815l0.404-0.027c0.033,0.301,0.071,0.608,0.115,0.925l-0.294,0.07l0.056,0.842
		c0.016,0.231,0.044,0.51,0.138,0.823l0.229,0.769l0.8-0.058c0.638-0.045,1.298-0.12,1.999-0.228l0.104,0.529l0.72,0.088
		c0.054,0.007,0.142,0.014,0.258,0.014c0.077,0,0.172-0.003,0.284-0.01c0.209-0.016,0.399-0.055,0.592-0.12l0.733-0.247
		l-0.022-0.314l0.08,0.035c0.352,0.155,0.674,0.23,0.984,0.23c0.045,0,0.089-0.002,0.133-0.005l0.603-0.044l0.241-0.555l0.041-0.093
		c0.121,0.016,0.244,0.031,0.371,0.047l0.142,0.018l0.777,0.097l0.28-0.73c0.09-0.232,0.166-0.491,0.229-0.77l0.235-1.04
		l-1.053-0.168c-0.035-0.006-0.07-0.012-0.105-0.017c0.071-0.348,0.119-0.688,0.144-1.024l0.001-0.004l0.497-0.068l-0.071-0.938
		l-0.001-0.047c-0.001-0.073-0.003-0.166-0.011-0.277c-0.017-0.224-0.055-0.41-0.115-0.575l-0.269-0.721l-0.766,0.074
		c-0.14,0.014-0.279,0.027-0.418,0.041c-0.007-0.279-0.019-0.562-0.04-0.866c-0.061-0.874-0.168-1.485-0.327-1.867l-0.253-0.605
		l-0.656-0.009C29.837,17.907,29.376,17.903,28.918,17.903L28.918,17.903z"/>
</g>
<g>
	<path d="M40.12,27.787c-0.353-0.1-0.64-0.237-0.854-0.409l-0.303-0.244l0.099-0.216c-0.554-0.106-1.067-0.222-1.555-0.35
		l-0.432-0.113l0.037-0.253c-0.031,0.041-0.289,0.38-0.289,0.38l-0.346-0.036c-0.428-0.101-0.742-0.311-0.935-0.621l-0.157-0.254
		c0,0,0.527-0.917,0.841-1.456l-0.551,0.001l-0.068-0.466l-0.026-0.378c-0.203-0.016-0.363-0.076-0.487-0.186l-0.155-0.135
		l-0.015-0.206c-0.054-0.762-0.048-1.365,0.019-1.794l0.055-0.354l0.352-0.062c0.096-0.017,0.206-0.034,0.326-0.046
		c-0.081-0.214-0.142-0.449-0.184-0.707l-0.054-0.339l0.166-0.097c-0.073-0.188-0.118-0.415-0.139-0.689l-0.031-0.435l0.427-0.091
		c1.886-0.399,3.953-0.773,6.146-1.11l0.418-0.064l0.133,0.401c0.088,0.266,0.143,0.546,0.163,0.832l0.019,0.268
		c0.056,0.028,0.108,0.059,0.16,0.093l0.315,0.203l-0.106,0.359c-0.096,0.32-0.245,0.65-0.446,0.985
		c0.043,0,1.063,0.004,1.063,0.004l0.004,0.493c0.006,0.696,0.042,1.357,0.087,1.986l0.023,0.342l-0.31,0.146
		c-0.137,0.064-0.294,0.1-0.508,0.114c-0.061,0.004-0.126,0.009-0.201,0.01c-0.003,0.079-0.034,0.683-0.034,0.683
		s-0.537,0.038-0.586,0.041l-0.087,0.33c-0.1,0.38-0.229,0.766-0.387,1.153l1.611,0.26l0.026,0.398
		c0.021,0.302-0.024,0.592-0.127,0.84l-0.132,0.314l-0.34-0.007c-0.649-0.013-1.279-0.051-1.877-0.113
		c-0.066,0.116-0.385,0.703-0.385,0.703L40.12,27.787z M36.702,22.468c0.195-0.011,0.395-0.021,0.598-0.031
		c0.064-0.106,0.13-0.213,0.196-0.319c-0.15-0.001-0.777-0.014-0.777-0.014l-0.007-0.017C36.71,22.21,36.707,22.336,36.702,22.468z
		 M39.354,22.348c0.893-0.03,1.805-0.049,2.724-0.057l-0.021-0.29c-0.865,0.054-1.729,0.09-2.583,0.107L39.354,22.348z
		 M37.341,19.815c0.075,0.166,0.142,0.351,0.197,0.554c0.317-0.021,0.633-0.039,0.949-0.055c-0.098-0.192-0.17-0.405-0.219-0.641
		C37.959,19.725,37.649,19.771,37.341,19.815z M40.049,19.345c0.122,0.218,0.221,0.474,0.292,0.767l0.031,0.125
		c0.188-0.006,0.376-0.011,0.564-0.016l-0.142-0.092l0.127-0.369c0.081-0.237,0.178-0.459,0.291-0.671
		C40.822,19.18,40.435,19.266,40.049,19.345z"/>
	<path fill="#FFFFFF" d="M42.084,17.616c0.071,0.215,0.121,0.456,0.139,0.709c-1.999,0.518-4.008,0.902-6.049,1.135
		c-0.124-0.168-0.186-0.419-0.209-0.738C37.917,18.308,39.961,17.942,42.084,17.616 M41.971,18.83
		c0.259,0.048,0.473,0.121,0.659,0.241c-0.107,0.361-0.292,0.729-0.542,1.101c-0.27-0.048-0.508-0.13-0.693-0.25
		C41.523,19.547,41.707,19.181,41.971,18.83 M39.369,19.268c0.213,0.206,0.379,0.525,0.486,0.963
		c-0.211,0.136-0.426,0.229-0.635,0.265c-0.25-0.26-0.405-0.591-0.479-1.007C38.912,19.4,39.129,19.329,39.369,19.268
		 M36.612,19.584c0.218,0.25,0.389,0.636,0.501,1.149c-0.209,0.147-0.426,0.229-0.634,0.265c-0.253-0.304-0.414-0.7-0.493-1.194
		C36.156,19.705,36.373,19.634,36.612,19.584 M42.791,20.699c0.146,0,0.293,0,0.439,0.001c0.006,0.707,0.043,1.379,0.088,2.018
		c-0.085,0.04-0.195,0.059-0.328,0.067c-0.064,0.005-0.14,0.01-0.229,0.01c-0.045,0-0.094-0.001-0.146-0.005l-0.094-1.321
		c-1.422,0.1-2.854,0.153-4.298,0.153c-0.389,0-0.778-0.004-1.169-0.012c-0.04-0.096-0.06-0.216-0.07-0.371
		c-0.008-0.099-0.016-0.209-0.002-0.332C38.945,20.77,40.885,20.699,42.791,20.699 M35.904,21.076c0.101,0,0.195,0.015,0.285,0.043
		c0.035,0.506,0.03,1.06-0.003,1.683c-0.086,0.038-0.218,0.059-0.382,0.07c-0.04,0.003-0.077,0.005-0.113,0.005
		c-0.12,0-0.213-0.019-0.268-0.066c-0.052-0.727-0.047-1.292,0.014-1.683c0.109-0.02,0.242-0.039,0.385-0.049
		C35.85,21.077,35.877,21.076,35.904,21.076 M38.225,21.903c0.229,0.096,0.447,0.202,0.632,0.322
		c-0.115,0.229-0.233,0.448-0.351,0.655c1.169-0.05,2.439-0.083,3.812-0.092c0.016,0.22,0.009,0.464-0.005,0.72
		c-1.443,0.102-2.867,0.169-4.281,0.191c-0.078,0.139-0.157,0.276-0.237,0.404c-0.255,0.461-0.481,0.841-0.683,1.154
		c-0.098,0.185-0.185,0.334-0.267,0.451c-0.079,0.127-0.171,0.244-0.251,0.35c-0.293-0.069-0.501-0.198-0.625-0.398
		c0.187-0.324,0.531-0.924,1.045-1.801c0.029-0.059,0.059-0.104,0.09-0.149c-0.344,0.002-0.676,0.003-0.996,0.004l-0.027-0.386
		c-0.008-0.111-0.015-0.21,0-0.321c0.484-0.034,0.98-0.059,1.51-0.085C37.798,22.576,38.006,22.24,38.225,21.903 M39.104,24.069
		c0.82,0,1.661,0.05,2.528,0.151c-0.14,0.53-0.343,1.086-0.623,1.67c0.615,0.101,1.231,0.202,1.858,0.302
		c0.015,0.219-0.014,0.432-0.09,0.614c-0.742-0.015-1.466-0.062-2.158-0.146c-0.118,0.208-0.246,0.428-0.363,0.646
		c-0.283-0.08-0.512-0.186-0.676-0.317c0.068-0.149,0.134-0.299,0.212-0.447c-0.739-0.125-1.458-0.272-2.157-0.456
		c0.045-0.312,0.116-0.561,0.191-0.744c0.773,0.145,1.559,0.288,2.342,0.411c0.136-0.275,0.26-0.562,0.385-0.836
		c-0.91-0.024-1.754-0.075-2.524-0.165c-0.017-0.231-0.011-0.453,0.03-0.654C38.403,24.079,38.752,24.069,39.104,24.069
		 M42.768,16.499l-0.836,0.129c-2.202,0.338-4.279,0.714-6.174,1.115l-0.854,0.182l0.064,0.87c0.011,0.147,0.028,0.285,0.053,0.413
		l-0.13,0.075l0.108,0.679c0.012,0.075,0.025,0.148,0.041,0.221l-0.481,0.086l-0.109,0.706c-0.073,0.473-0.08,1.096-0.023,1.907
		l0.029,0.41l0.311,0.271c0.102,0.088,0.216,0.158,0.344,0.209v0.013l0.066,0.933l0.183-0.001c-0.099,0.171-0.18,0.312-0.243,0.424
		l-0.299,0.518l0.303,0.529c0.265,0.428,0.684,0.713,1.244,0.845l0.634,0.15l0.146-0.193l0.238,0.062
		c0.312,0.082,0.634,0.159,0.971,0.231l0.602,0.484c0.271,0.217,0.607,0.381,1.03,0.5l0.772,0.219l0.381-0.707
		c0.01-0.019,0.021-0.038,0.03-0.057c0.513,0.045,1.046,0.073,1.591,0.084l0.681,0.014l0.262-0.629
		c0.133-0.319,0.19-0.688,0.165-1.065l-0.054-0.796l-0.787-0.125c-0.206-0.033-0.411-0.066-0.615-0.099
		c0.069-0.206,0.132-0.411,0.186-0.615l0.669-0.047l0.037-0.688c0.137-0.022,0.291-0.062,0.443-0.134l0.62-0.291l-0.048-0.684
		c-0.037-0.52-0.08-1.211-0.086-1.955l-0.008-0.986l-0.754-0.005c0.046-0.115,0.086-0.23,0.119-0.345l0.215-0.72l-0.582-0.374
		v-0.007c-0.023-0.328-0.086-0.649-0.188-0.954L42.768,16.499L42.768,16.499z"/>
</g>
<g>
	<path d="M27.452,50.838c-0.717-0.005-1.348-0.163-1.874-0.471l-0.292-0.171l0.051-0.336c0.342-2.251,0.849-4.332,1.55-6.36
		l0.14-0.403l0.42,0.074c0.575,0.102,1.136,0.256,1.714,0.473l0.41,0.153l-0.612,2.626c0.984,0.21,2.028,0.411,3.214,0.619
		c-0.06-0.693-0.111-1.413-0.164-2.161c-0.074-1.052-0.121-2.026-0.142-2.963c-0.26,0.002-0.518,0.003-0.776,0.003
		c-1.755,0-3.387-0.052-4.987-0.157l-0.381-0.025l-0.076-0.375c-0.2-0.992-0.351-2.254-0.473-3.97
		c-0.055-1.857-0.041-3.071,0.042-3.843l0.039-0.367l0.363-0.07c0.225-0.043,0.5-0.086,0.827-0.109
		c0.165-0.012,0.323-0.016,0.479-0.016l0.861,0.02l-0.011,0.497c-0.025,1.166,0.007,2.36,0.099,3.65l0.151,2.163
		c0.883,0.023,1.763,0.035,2.639,0.035c2.173,0,4.386-0.073,6.582-0.22c0.116-1.061,0.159-2.168,0.131-3.362
		c-2.446-0.284-4.993-0.485-7.578-0.598l-0.446-0.02l-0.031-0.446c-0.042-0.611-0.045-1.134-0.009-1.595l0.034-0.456
		c0,0,1.1-0.012,1.421-0.012c2.982,0,5.936,0.184,8.777,0.547l0.406,0.052l0.029,0.409c0.081,1.154,0.092,2.407,0.033,3.828
		c-0.054,1.093-0.129,2.388-0.28,3.735l-0.047,0.414L39.27,41.66c-1.607,0.112-3.224,0.188-4.811,0.225l0.104,0.977
		c1.473,0.051,2.86,0.17,3.931,0.271l0.423,0.04l0.029,0.423c0.032,0.461-0.006,0.986-0.115,1.606l-0.067,0.385l-0.39,0.027
		c-0.461,0.032-0.927,0.049-1.396,0.049c-0.722,0-1.46-0.039-2.204-0.117c0.021,0.641,0.023,1.285,0.009,1.949
		c0.969,0.172,1.942,0.327,2.932,0.481l0.393,0.062l0.029,0.396c0.036,0.505-0.044,1.06-0.137,1.584l-0.076,0.436l-0.442-0.023
		c-3.18-0.165-6.256-0.662-9.153-1.477l-0.019,0.075c-0.118,0.468-0.24,0.948-0.371,1.439l-0.101,0.373L27.452,50.838z"/>
	<path fill="#FFFFFF" d="M30.766,33.146c2.93,0,5.833,0.175,8.714,0.543c0.087,1.235,0.085,2.502,0.032,3.772
		c-0.058,1.175-0.134,2.423-0.277,3.7c-1.798,0.126-3.573,0.204-5.33,0.235c0.074,0.697,0.143,1.349,0.208,1.952
		c1.481,0.036,2.917,0.147,4.335,0.281c0.029,0.421-0.008,0.914-0.108,1.484c-0.45,0.031-0.903,0.048-1.36,0.048
		c-0.895,0-1.804-0.061-2.728-0.182c0.053,1.077,0.05,2.035,0.021,2.93c1.113,0.204,2.229,0.382,3.366,0.56
		c0.03,0.42-0.03,0.895-0.13,1.461c-3.412-0.178-6.593-0.729-9.537-1.601c-0.165,0.646-0.33,1.315-0.516,2.008
		c-0.61-0.004-1.158-0.13-1.624-0.402c0.338-2.227,0.847-4.301,1.528-6.272c0.57,0.101,1.096,0.25,1.625,0.448
		c-0.197,0.855-0.414,1.764-0.629,2.692c1.451,0.32,2.9,0.591,4.373,0.842c-0.086-0.886-0.152-1.819-0.222-2.8
		c-0.079-1.118-0.135-2.264-0.149-3.434c-0.424,0.006-0.847,0.009-1.268,0.009c-1.67,0-3.316-0.048-4.954-0.156
		c-0.215-1.064-0.354-2.368-0.464-3.906c-0.051-1.732-0.044-2.974,0.04-3.754c0.208-0.04,0.464-0.08,0.768-0.102
		c0.153-0.011,0.3-0.015,0.443-0.015c0.118,0,0.234,0.003,0.351,0.006c-0.027,1.268,0.014,2.483,0.1,3.696l0.184,2.614
		c1.04,0.033,2.075,0.049,3.105,0.049c2.365,0,4.707-0.085,7.03-0.249c0.182-1.42,0.223-2.828,0.169-4.279
		c-2.697-0.325-5.385-0.535-8.043-0.651c-0.035-0.513-0.048-1.028-0.01-1.522C30.128,33.147,30.447,33.146,30.766,33.146
		 M30.766,32.146c-0.323,0-0.646,0.002-0.97,0.006l-0.914,0.012l-0.07,0.911c-0.037,0.486-0.034,1.032,0.009,1.668l0.062,0.892
		l0.893,0.039c2.421,0.105,4.808,0.289,7.107,0.545c0.008,0.855-0.022,1.664-0.093,2.444c-2.047,0.127-4.104,0.191-6.127,0.191
		c-0.721,0-1.447-0.008-2.172-0.024l-0.119-1.709c-0.091-1.275-0.123-2.454-0.098-3.604l0.021-0.995L27.3,32.494
		c-0.124-0.003-0.25-0.006-0.377-0.006c-0.166,0-0.336,0.005-0.513,0.017c-0.297,0.021-0.586,0.06-0.887,0.117l-0.727,0.141
		l-0.079,0.734c-0.086,0.795-0.101,2.03-0.046,3.891c0.126,1.779,0.279,3.061,0.483,4.075l0.151,0.749l0.763,0.051
		c1.612,0.106,3.254,0.158,5.021,0.158c0.097,0,0.193,0,0.289,0c0.025,0.794,0.068,1.618,0.131,2.495
		c0.035,0.502,0.071,1.013,0.11,1.52c-0.731-0.133-1.411-0.264-2.059-0.397l0.08-0.344c0.109-0.464,0.216-0.918,0.317-1.358
		l0.197-0.854l-0.821-0.308c-0.606-0.228-1.196-0.39-1.802-0.496l-0.84-0.148l-0.279,0.806c-0.711,2.059-1.226,4.168-1.572,6.449
		l-0.102,0.671l0.586,0.343c0.603,0.353,1.316,0.534,2.123,0.539l0.771,0.005l0.2-0.746c0.093-0.348,0.182-0.689,0.267-1.026
		c2.788,0.744,5.732,1.201,8.769,1.359l0.884,0.046l0.152-0.872c0.099-0.556,0.184-1.147,0.143-1.706l-0.057-0.793l-0.786-0.123
		c-0.805-0.125-1.649-0.259-2.502-0.406c0.003-0.33,0.003-0.656-0.003-0.98c0.57,0.045,1.136,0.067,1.691,0.067
		c0.479,0,0.96-0.018,1.431-0.051l0.778-0.055l0.137-0.769c0.116-0.66,0.155-1.226,0.121-1.728l-0.06-0.847l-0.845-0.08
		c-0.972-0.091-2.204-0.197-3.526-0.255l-0.001-0.008c1.42-0.041,2.858-0.112,4.291-0.212l0.83-0.059l0.094-0.828
		c0.152-1.361,0.229-2.666,0.282-3.763c0.06-1.448,0.049-2.718-0.034-3.892l-0.057-0.817l-0.813-0.104
		C36.743,32.331,33.769,32.146,30.766,32.146L30.766,32.146z"/>
</g>
<g>
	<path d="M54.293,47.876c-0.187-0.408-0.302-0.857-0.333-1.3l-0.031-0.446l0.44-0.081c0.505-0.092,1.04-0.199,1.591-0.321
		c-0.332-2.543-0.733-5.291-1.281-8.79c-1.226-0.008-2.51-0.065-3.821-0.174l-0.427-0.035l-0.031-0.427
		c-0.041-0.573-0.016-1.059,0.078-1.484l0.08-0.365l0.373-0.026c1.055-0.074,2.142-0.123,3.307-0.146
		c-0.044-0.274-0.087-0.548-0.13-0.82c-0.077-0.496-0.154-0.989-0.238-1.481l-0.073-0.434l0.421-0.129
		c0.441-0.135,0.94-0.22,1.524-0.261l0.429-0.029l0.094,0.418c0.193,0.854,0.368,1.696,0.541,2.521l0.044,0.213
		c1.177,0.019,2.444,0.07,3.947,0.16l0.438,0.026l0.03,0.438c0.032,0.461,0.023,0.938-0.023,1.42l-0.042,0.42l-0.421,0.03
		c-0.946,0.066-2.154,0.142-3.409,0.161c0.577,3.209,1.039,6.592,1.373,10.065l0.036,0.376l-0.352,0.138
		c-0.812,0.317-2.072,0.544-3.644,0.654l-0.346,0.024L54.293,47.876z M44.285,46.238c-0.286-0.385-0.45-0.929-0.502-1.664
		l-0.03-0.436l0.428-0.089c0.515-0.107,1.02-0.2,1.52-0.288c-0.144-0.594-0.276-1.256-0.407-2.027
		c-0.721,0.047-1.179,0.067-1.492,0.067c-0.39,0-0.58-0.03-0.729-0.118l-0.159-0.094l-0.06-0.174
		c-0.078-0.226-0.122-0.473-0.146-0.8c-0.017-0.242-0.021-0.562,0.098-0.891l0.103-0.283l0.299-0.041
		c0.532-0.073,1.109-0.137,1.72-0.199c-0.058-0.512-0.094-1.023-0.132-1.557l-0.032-0.451l0.445-0.09
		c0.471-0.081,0.971-0.163,1.467-0.198l0.442-0.031l0.084,0.436c0.117,0.605,0.232,1.183,0.346,1.729
		c0.24-0.006,0.466-0.01,0.678-0.01c0.343,0,0.65,0.009,0.921,0.027l0.305,0.021l0.121,0.281c0.083,0.193,0.131,0.443,0.157,0.81
		c0.031,0.436,0.012,0.688-0.067,0.869l-0.065,0.149l-0.141,0.083c-0.095,0.055-0.279,0.163-1.462,0.27
		c0.088,0.591,0.165,1.202,0.233,1.849c0.435-0.045,0.855-0.087,1.265-0.116l0.389-0.027l0.121,0.37
		c0.073,0.222,0.143,0.458,0.16,0.693c0.021,0.312-0.016,0.559-0.056,0.786l-0.051,0.294l-0.284,0.095
		c-0.812,0.27-2.405,0.571-5.012,0.951l-0.295,0.043L44.285,46.238z M51.136,45.621c-0.214-0.453-0.356-0.97-0.423-1.536
		l-0.042-0.354l0.32-0.155c0.957-0.462,1.994-0.821,3.171-1.098l0.402-0.095l0.169,0.377c0.245,0.55,0.387,1.071,0.42,1.551
		l0.022,0.329l-0.293,0.15c-0.987,0.507-2.062,0.879-3.196,1.106l-0.384,0.077L51.136,45.621z M61.46,45.227
		c-0.997-0.288-1.937-0.767-2.791-1.423l-0.27-0.207l0.094-0.327c0.179-0.623,0.447-1.139,0.823-1.576l0.254-0.296l0.349,0.175
		c0.646,0.323,1.62,0.818,2.606,1.38l0.356,0.204l-0.13,0.39c-0.087,0.257-0.191,0.519-0.301,0.752
		c-0.126,0.245-0.271,0.511-0.456,0.752l-0.207,0.271L61.46,45.227z M53.892,41.466c-1.029-0.165-2.04-0.428-3.006-0.781
		l-0.39-0.143l0.068-0.409c0.112-0.676,0.254-1.192,0.446-1.625l0.168-0.378l0.402,0.094c1.023,0.239,2.021,0.503,2.968,0.785
		l0.436,0.131l-0.089,0.446c-0.107,0.54-0.263,1.067-0.46,1.569l-0.146,0.374L53.892,41.466z M59.56,41.212
		c-0.526-0.282-0.951-0.669-1.261-1.148l-0.2-0.31l0.236-0.283c0.677-0.808,1.539-1.525,2.563-2.132l0.263-0.155l0.258,0.162
		c0.563,0.354,0.947,0.761,1.174,1.244l0.145,0.31l-0.236,0.248c-0.787,0.823-1.583,1.491-2.433,2.043l-0.248,0.161L59.56,41.212z
		 M46.353,36.763c-1.193,0-2.347-0.064-3.429-0.192l-0.41-0.048l-0.03-0.412c-0.033-0.467-0.071-0.996-0.057-1.502l0.014-0.469
		l0.47-0.017c0.753-0.025,1.514-0.038,2.284-0.038c1.249,0,2.547,0.034,3.857,0.103l0.442,0.022l0.031,0.441
		c0.035,0.495,0.022,1.023-0.038,1.569l-0.046,0.415l-0.416,0.029C48.104,36.729,47.205,36.763,46.353,36.763z M60.872,33.269
		c-1.104,0-2.104-0.285-2.975-0.847l-0.264-0.171l0.039-0.312c0.064-0.509,0.182-0.978,0.359-1.433l0.13-0.332l0.356,0.014
		c0.89,0.036,1.87,0.318,2.996,0.861l0.346,0.166l-0.071,0.377c-0.095,0.502-0.243,0.97-0.442,1.39l-0.135,0.285L60.872,33.269z"/>
	<path fill="#FFFFFF" d="M58.498,30.688c0.847,0.034,1.781,0.32,2.8,0.812c-0.085,0.45-0.22,0.881-0.403,1.269
		c-0.008,0-0.016,0-0.022,0c-1.022,0-1.926-0.265-2.703-0.767C58.229,31.528,58.338,31.099,58.498,30.688 M55.776,31.653
		c0.239,1.062,0.452,2.104,0.665,3.119c1.454,0.014,2.89,0.078,4.324,0.164c0.032,0.465,0.02,0.913-0.022,1.337
		c-1.345,0.095-2.644,0.164-3.945,0.164c-0.009,0-0.019,0-0.027,0c0.644,3.47,1.129,7.024,1.474,10.609
		c-0.729,0.285-1.909,0.51-3.496,0.621c-0.166-0.363-0.263-0.755-0.289-1.127c0.646-0.118,1.342-0.26,2.056-0.427
		c-0.413-3.205-0.897-6.43-1.408-9.676c-0.05,0-0.101,0-0.15,0c-1.38,0-2.739-0.064-4.058-0.173
		c-0.035-0.489-0.021-0.937,0.067-1.341c1.308-0.093,2.593-0.139,3.858-0.155c-0.163-0.975-0.301-1.926-0.462-2.876
		C54.753,31.774,55.216,31.692,55.776,31.653 M45.194,34.585c1.247,0,2.521,0.034,3.832,0.102c0.033,0.466,0.021,0.959-0.036,1.479
		c-0.906,0.063-1.785,0.097-2.639,0.097c-1.168,0-2.29-0.062-3.369-0.188c-0.035-0.49-0.069-0.98-0.056-1.451
		C43.674,34.598,44.43,34.585,45.194,34.585 M46.71,37.405c0.147,0.763,0.292,1.479,0.434,2.149
		c0.395-0.016,0.755-0.024,1.081-0.024c0.33,0,0.626,0.009,0.887,0.026c0.059,0.137,0.097,0.344,0.118,0.647
		c0.023,0.328,0.015,0.538-0.027,0.635c-0.135,0.079-0.736,0.171-1.786,0.245c0.166,1.019,0.278,1.972,0.363,2.855
		c0.607-0.064,1.188-0.129,1.747-0.168c0.06,0.182,0.122,0.39,0.136,0.574c0.018,0.26-0.016,0.472-0.049,0.663
		c-0.801,0.266-2.442,0.569-4.927,0.931c-0.231-0.311-0.36-0.771-0.404-1.4c0.693-0.145,1.366-0.262,2.037-0.377
		c-0.251-0.923-0.44-1.916-0.607-2.958c-0.876,0.062-1.513,0.098-1.911,0.098c-0.26,0-0.417-0.015-0.475-0.049
		c-0.062-0.182-0.1-0.392-0.119-0.672c-0.017-0.233-0.011-0.467,0.068-0.685c0.673-0.093,1.419-0.169,2.211-0.249
		c-0.096-0.673-0.144-1.35-0.193-2.05C45.758,37.518,46.244,37.438,46.71,37.405 M61.153,37.77c0.468,0.294,0.795,0.624,0.986,1.032
		c-0.72,0.753-1.492,1.417-2.344,1.97c-0.464-0.249-0.816-0.576-1.077-0.979C59.345,39.044,60.165,38.354,61.153,37.77
		 M51.468,38.711c1.001,0.233,1.979,0.491,2.938,0.777c-0.104,0.523-0.254,1.024-0.435,1.483c-1.019-0.163-1.998-0.422-2.913-0.757
		C51.156,39.622,51.285,39.122,51.468,38.711 M59.695,42.02c0.826,0.413,1.703,0.866,2.582,1.367
		c-0.08,0.239-0.178,0.482-0.279,0.699c-0.125,0.243-0.249,0.464-0.399,0.66c-0.909-0.263-1.785-0.694-2.625-1.339
		C59.124,42.882,59.35,42.422,59.695,42.02 M54.276,42.965c0.224,0.501,0.349,0.962,0.378,1.382
		c-0.951,0.488-1.979,0.843-3.066,1.061c-0.193-0.409-0.318-0.869-0.379-1.381C52.115,43.589,53.123,43.236,54.276,42.965
		 M57.826,29.66l-0.26,0.665c-0.193,0.494-0.32,1.002-0.39,1.552l-0.078,0.624l0.528,0.341c0.951,0.615,2.043,0.927,3.245,0.927
		h0.633l0.294-0.572c0.217-0.459,0.379-0.967,0.481-1.511l0.143-0.753l-0.69-0.333c-1.189-0.574-2.234-0.872-3.194-0.91
		L57.826,29.66L57.826,29.66z M56.563,30.596l-0.856,0.06c-0.623,0.044-1.158,0.136-1.637,0.282l-0.841,0.256l0.147,0.867
		c0.082,0.491,0.159,0.981,0.236,1.476c0.014,0.086,0.027,0.172,0.041,0.257c-0.961,0.027-1.871,0.071-2.76,0.135l-0.745,0.053
		l-0.129,0.587l-0.06-0.834l-0.883-0.046c-1.32-0.067-2.627-0.103-3.884-0.103c-0.771,0-1.546,0.013-2.302,0.039l-0.938,0.031
		l-0.026,0.938c-0.016,0.531,0.023,1.073,0.057,1.552l0.06,0.825l0.821,0.097c0.454,0.054,0.92,0.096,1.396,0.128l0.033,0.474
		c0.027,0.373,0.053,0.732,0.084,1.088c-0.424,0.045-0.843,0.094-1.24,0.149l-0.598,0.082l-0.205,0.566
		c-0.153,0.421-0.146,0.828-0.127,1.098c0.026,0.366,0.08,0.661,0.172,0.926l0.119,0.349l0.317,0.188
		c0.267,0.157,0.562,0.188,0.983,0.188c0.252,0,0.593-0.013,1.076-0.041c0.071,0.394,0.144,0.759,0.219,1.102
		c-0.338,0.062-0.676,0.127-1.018,0.198l-0.854,0.178l0.062,0.87c0.058,0.834,0.254,1.465,0.6,1.929l0.355,0.478l0.59-0.086
		c2.637-0.383,4.257-0.691,5.098-0.971l0.568-0.188l0.047-0.267c0.043,0.113,0.09,0.225,0.141,0.332l0.334,0.706l0.767-0.153
		c0.558-0.111,1.103-0.258,1.631-0.436l0.046,0.659c0.036,0.501,0.166,1.01,0.378,1.473l0.288,0.63l0.691-0.049
		c1.621-0.113,2.932-0.351,3.79-0.687l0.703-0.275l-0.072-0.752c-0.074-0.773-0.154-1.542-0.241-2.305
		c0.729,0.469,1.507,0.824,2.323,1.061l0.655,0.189l0.416-0.542c0.209-0.272,0.367-0.563,0.495-0.812
		c0.136-0.288,0.247-0.567,0.338-0.839l0.261-0.779l-0.714-0.407c-0.756-0.431-1.503-0.821-2.104-1.128
		c0.761-0.527,1.482-1.151,2.194-1.896l0.474-0.496l-0.291-0.62c-0.269-0.572-0.713-1.048-1.359-1.454l-0.002-0.001l0.055-0.55
		c0.051-0.51,0.059-1.016,0.025-1.505l-0.062-0.876l-0.877-0.053c-1.342-0.08-2.497-0.13-3.568-0.153
		c-0.161-0.771-0.325-1.556-0.505-2.352L56.563,30.596L56.563,30.596z M47.696,37.237c0.447-0.017,0.903-0.041,1.364-0.074
		l0.832-0.059l0.039-0.349l0.031,0.437l0.854,0.07c1.174,0.096,2.325,0.153,3.434,0.171c0.054,0.345,0.106,0.682,0.157,1.013
		c-0.87-0.254-1.781-0.492-2.712-0.709l-0.806-0.188l-0.336,0.756c-0.162,0.365-0.29,0.779-0.396,1.281
		c-0.032-0.16-0.074-0.299-0.128-0.423l-0.241-0.562l-0.609-0.042c-0.281-0.019-0.6-0.028-0.955-0.028
		c-0.088,0-0.179,0.001-0.271,0.002C47.868,38.116,47.783,37.685,47.696,37.237L47.696,37.237z M57.963,37.42
		c0.72-0.021,1.407-0.056,2.025-0.094c-0.676,0.462-1.272,0.976-1.783,1.534C58.127,38.377,58.047,37.896,57.963,37.42L57.963,37.42
		z M48.561,41.983c0.84-0.102,1.019-0.206,1.148-0.282l0.28-0.165l0.13-0.299c0.037-0.084,0.064-0.172,0.084-0.271l0.511,0.188
		c0.995,0.364,2.038,0.635,3.099,0.805l0.222,0.035c-1.207,0.285-2.273,0.655-3.26,1.132l-0.352,0.17l-0.188-0.576l-0.777,0.055
		c-0.258,0.018-0.521,0.041-0.788,0.067C48.635,42.549,48.6,42.264,48.561,41.983L48.561,41.983z M58.637,41.761
		c-0.029-0.217-0.06-0.433-0.09-0.647c0.114,0.102,0.235,0.197,0.363,0.286C58.812,41.515,58.722,41.636,58.637,41.761
		L58.637,41.761z M54.705,41.837l0.154-0.392c0.027,0.186,0.054,0.37,0.08,0.552l-0.087-0.195L54.705,41.837L54.705,41.837z
		 M54.548,45.508c0.19-0.086,0.378-0.177,0.563-0.271l0.262-0.135c0.011,0.079,0.021,0.157,0.031,0.234
		C55.122,45.396,54.836,45.453,54.548,45.508L54.548,45.508z"/>
</g>
</svg>
