<?xml version="1.0" encoding="utf-8"?>
<!-- Generator: Adobe Illustrator 16.0.0, SVG Export Plug-In . SVG Version: 6.00 Build 0)  -->
<!DOCTYPE svg PUBLIC "-//W3C//DTD SVG 1.1//EN" "http://www.w3.org/Graphics/SVG/1.1/DTD/svg11.dtd">
<svg version="1.1" id="Layer_1" xmlns="http://www.w3.org/2000/svg" xmlns:xlink="http://www.w3.org/1999/xlink" x="0px" y="0px"
	 width="126.876px" height="112.438px" viewBox="0 0 126.876 112.438" enable-background="new 0 0 126.876 112.438"
	 xml:space="preserve">
<rect fill="#FFFFFF" width="126.876" height="112.438"/>
<g>
	<g>
		<defs>
			<path id="SVGID_746_" d="M70.945,26.174c-1.35,0-2.615,0.339-3.564,0.955c-1.089,0.704-1.735,1.635-1.818,2.611v0.464
				c0.083,0.987,0.729,1.918,1.818,2.619c0.506,0.33,1.075,0.611,1.692,0.839v-4.006c-0.023-0.501,0.269-0.987,0.806-1.332
				l0.145-0.093v2.514c0.598,0.374,1.386,0.58,2.224,0.58c0.857,0,1.66-0.216,2.263-0.606c0.666-0.435,1.073-1,1.146-1.597
				c0.091-0.737-0.326-1.463-1.146-1.993C73.56,26.513,72.294,26.174,70.945,26.174L70.945,26.174z"/>
		</defs>
		<clipPath id="SVGID_2_">
			<use xlink:href="#SVGID_746_"  overflow="visible"/>
		</clipPath>
		<g clip-path="url(#SVGID_2_)">
			
				<linearGradient id="SVGID_4_" gradientUnits="userSpaceOnUse" x1="-2247.3237" y1="-230.8945" x2="-2246.9561" y2="-230.8945" gradientTransform="matrix(-32.9644 0 0 32.9644 -74003.7188 7641.2168)">
				<stop  offset="0" style="stop-color:#E8D19C"/>
				<stop  offset="0.117" style="stop-color:#DFC58F"/>
				<stop  offset="0.2847" style="stop-color:#D6BA83"/>
				<stop  offset="0.4625" style="stop-color:#D3B680"/>
				<stop  offset="1" style="stop-color:#B89961"/>
			</linearGradient>
			<rect x="65.562" y="26.174" fill="url(#SVGID_4_)" width="10.185" height="7.488"/>
		</g>
	</g>
	<g>
		<defs>
			<path id="SVGID_1308_" d="M61.016,23.84c-3.01,1.945-4.657,4.635-4.518,7.377c0.121,2.546,1.727,4.943,4.518,6.751
				c1.298,0.841,2.767,1.554,4.361,2.123v-9.867c-0.018-0.164-0.018-0.33,0-0.493c0.089-1.041,0.764-2.021,1.901-2.758
				c0.98-0.635,2.281-0.986,3.667-0.986c1.385,0,2.686,0.352,3.666,0.986c0.882,0.57,1.33,1.362,1.23,2.161v4.847
				c1.03-0.257,1.952-0.646,2.743-1.157c1.702-1.1,2.718-2.556,2.86-4.103c0.178-1.811-0.863-3.59-2.86-4.881
				c-2.347-1.518-5.466-2.354-8.785-2.354C66.482,21.486,63.361,22.322,61.016,23.84"/>
		</defs>
		<clipPath id="SVGID_6_">
			<use xlink:href="#SVGID_1308_"  overflow="visible"/>
		</clipPath>
		<g clip-path="url(#SVGID_6_)">
			
				<linearGradient id="SVGID_8_" gradientUnits="userSpaceOnUse" x1="-2228.0078" y1="-237.0195" x2="-2227.6404" y2="-237.0195" gradientTransform="matrix(-50.0731 0 0 50.0731 -111487.7188 11899.0684)">
				<stop  offset="0" style="stop-color:#E8D19C"/>
				<stop  offset="0.117" style="stop-color:#DFC58F"/>
				<stop  offset="0.2847" style="stop-color:#D6BA83"/>
				<stop  offset="0.4625" style="stop-color:#D3B680"/>
				<stop  offset="1" style="stop-color:#B89961"/>
			</linearGradient>
			<rect x="56.358" y="21.486" fill="url(#SVGID_8_)" width="25.265" height="18.604"/>
		</g>
	</g>
	<path fill="#B89961" d="M69.8,21.579c3.301,0,6.403,0.831,8.733,2.339c1.967,1.271,2.995,3.019,2.82,4.796
		c-0.142,1.517-1.143,2.948-2.82,4.031c-0.752,0.487-1.625,0.862-2.598,1.116v-4.716c0.098-0.843-0.364-1.662-1.273-2.251
		c-0.996-0.645-2.314-1-3.717-1s-2.723,0.355-3.717,1c-1.163,0.753-1.854,1.757-1.943,2.824c-0.02,0.166-0.02,0.336-0.002,0.504
		v9.734c-1.541-0.558-2.958-1.253-4.217-2.068c-2.767-1.79-4.355-4.16-4.477-6.677c-0.137-2.709,1.494-5.367,4.477-7.294
		C63.397,22.41,66.499,21.579,69.8,21.579 M69.8,21.393c-3.196,0-6.394,0.79-8.835,2.368c-3.174,2.054-4.695,4.772-4.561,7.461
		c0.119,2.478,1.641,4.934,4.561,6.824c1.369,0.885,2.886,1.609,4.504,2.175V30.212c-0.017-0.158-0.017-0.315,0-0.473
		c0.084-0.978,0.703-1.938,1.86-2.688c0.997-0.646,2.308-0.97,3.616-0.97c1.308,0,2.617,0.323,3.615,0.97
		c0.881,0.57,1.28,1.337,1.188,2.083v4.96v0.005c1.053-0.25,2.04-0.649,2.886-1.196c1.794-1.159,2.764-2.654,2.902-4.172
		c0.177-1.785-0.792-3.605-2.902-4.97C76.193,22.183,72.997,21.393,69.8,21.393"/>
	<g>
		<defs>
			<path id="SVGID_1311_" d="M74.561,30.796c-1.276,0.83-3.35,0.83-4.632,0c-0.486-0.315-0.745-0.732-0.762-1.145v4.114
				l-0.009,0.025c2.034,0.715,4.446,0.82,6.591,0.308v-0.005v-4.96C75.675,29.74,75.275,30.331,74.561,30.796"/>
		</defs>
		<clipPath id="SVGID_10_">
			<use xlink:href="#SVGID_1311_"  overflow="visible"/>
		</clipPath>
		<g clip-path="url(#SVGID_10_)">
			
				<linearGradient id="SVGID_12_" gradientUnits="userSpaceOnUse" x1="-2149.5068" y1="-118.0312" x2="-2149.1394" y2="-118.0312" gradientTransform="matrix(0 14.3822 14.3822 0 1770 30943.7715)">
				<stop  offset="0" style="stop-color:#F3BA61"/>
				<stop  offset="0.3857" style="stop-color:#F3BA61"/>
				<stop  offset="1" style="stop-color:#F19B1E"/>
			</linearGradient>
			<rect x="69.158" y="29.134" fill="url(#SVGID_12_)" width="6.591" height="5.478"/>
		</g>
	</g>
	<g>
		<defs>
			<path id="SVGID_1314_" d="M78.635,32.902c-0.848,0.547-1.833,0.946-2.886,1.196c-2.145,0.513-4.557,0.407-6.591-0.308
				c-0.658-0.232-1.276-0.53-1.829-0.889c-1.157-0.747-1.776-1.707-1.86-2.69v10.009c4.961,1.74,10.846,1.986,16.068,0.74v-0.004
				V28.73C81.398,30.248,80.428,31.743,78.635,32.902"/>
		</defs>
		<clipPath id="SVGID_14_">
			<use xlink:href="#SVGID_1314_"  overflow="visible"/>
		</clipPath>
		<g clip-path="url(#SVGID_14_)">
			
				<linearGradient id="SVGID_16_" gradientUnits="userSpaceOnUse" x1="-2173.875" y1="-195.7207" x2="-2173.5078" y2="-195.7207" gradientTransform="matrix(0 35.4117 35.4117 0 7004.332 77009.3203)">
				<stop  offset="0" style="stop-color:#F3BA61"/>
				<stop  offset="0.3857" style="stop-color:#F3BA61"/>
				<stop  offset="1" style="stop-color:#F19B1E"/>
			</linearGradient>
			<rect x="65.469" y="28.73" fill="url(#SVGID_16_)" width="16.068" height="13.477"/>
		</g>
	</g>
	<g>
		<defs>
			<path id="SVGID_758_" d="M56.404,44.356h-0.005c0.11,2.49,1.633,4.954,4.565,6.855c7.624,4.933,19.98,4.933,27.607,0V38.046
				c-2.062,1.333-4.468,2.302-7.035,2.911v0.004c-5.223,1.246-11.107,1-16.068-0.74c-1.618-0.566-3.135-1.29-4.504-2.175
				c-2.92-1.891-4.441-4.347-4.561-6.824V44.356z"/>
		</defs>
		<clipPath id="SVGID_18_">
			<use xlink:href="#SVGID_758_"  overflow="visible"/>
		</clipPath>
		<g clip-path="url(#SVGID_18_)">
			
				<linearGradient id="SVGID_20_" gradientUnits="userSpaceOnUse" x1="-2181.4609" y1="-219.5977" x2="-2181.0938" y2="-219.5977" gradientTransform="matrix(0 64.4742 64.4742 0 14230.8086 140679.1094)">
				<stop  offset="0" style="stop-color:#F3BA61"/>
				<stop  offset="0.3857" style="stop-color:#F3BA61"/>
				<stop  offset="1" style="stop-color:#F19B1E"/>
			</linearGradient>
			<rect x="56.399" y="31.222" fill="url(#SVGID_20_)" width="32.173" height="24.923"/>
		</g>
	</g>
	<g>
		<g>
			<defs>
				<rect id="SVGID_761_" x="57.996" y="44.912" width="27.733" height="9.307"/>
			</defs>
			<clipPath id="SVGID_22_">
				<use xlink:href="#SVGID_761_"  overflow="visible"/>
			</clipPath>
			<path clip-path="url(#SVGID_22_)" fill="#EB625E" d="M60.686,50.331c-0.102,0-0.187-0.083-0.187-0.186v-5.048
				c0-0.103,0.085-0.186,0.187-0.186c0.104,0,0.188,0.083,0.188,0.186v5.048C60.873,50.248,60.789,50.331,60.686,50.331"/>
			<path clip-path="url(#SVGID_22_)" fill="#EB625E" d="M63.487,51.896c-0.103,0-0.187-0.083-0.187-0.186v-3.184
				c0-0.102,0.084-0.187,0.187-0.187s0.186,0.085,0.186,0.187v3.184C63.673,51.813,63.59,51.896,63.487,51.896"/>
			<path clip-path="url(#SVGID_22_)" fill="#EB625E" d="M58.182,48.04c-0.103,0-0.186-0.082-0.186-0.186v-2.311
				c0-0.103,0.083-0.186,0.186-0.186c0.104,0,0.186,0.083,0.186,0.186v2.311C58.367,47.958,58.285,48.04,58.182,48.04"/>
			<path clip-path="url(#SVGID_22_)" fill="#EB625E" d="M66.64,52.9c-0.104,0-0.186-0.083-0.186-0.186v-5.664
				c0-0.104,0.082-0.186,0.186-0.186c0.103,0,0.187,0.082,0.187,0.186v5.664C66.826,52.817,66.742,52.9,66.64,52.9"/>
			<path clip-path="url(#SVGID_22_)" fill="#EB625E" d="M69.651,53.778c-0.104,0-0.187-0.083-0.187-0.186V50.12
				c0-0.104,0.082-0.187,0.187-0.187c0.103,0,0.185,0.083,0.185,0.187v3.473C69.836,53.695,69.754,53.778,69.651,53.778"/>
			<path clip-path="url(#SVGID_22_)" fill="#EB625E" d="M72.481,54.132c-0.103,0-0.186-0.084-0.186-0.187v-5.276
				c0-0.103,0.083-0.188,0.186-0.188s0.186,0.085,0.186,0.188v5.276C72.667,54.048,72.584,54.132,72.481,54.132"/>
			<path clip-path="url(#SVGID_22_)" fill="#EB625E" d="M75.477,54.219c-0.103,0-0.186-0.083-0.186-0.186v-3.322
				c0-0.103,0.083-0.185,0.186-0.185c0.102,0,0.186,0.082,0.186,0.185v3.322C75.662,54.136,75.578,54.219,75.477,54.219"/>
			<path clip-path="url(#SVGID_22_)" fill="#EB625E" d="M78.729,53.956c-0.102,0-0.186-0.083-0.186-0.186v-6.313
				c0-0.104,0.084-0.187,0.186-0.187c0.103,0,0.186,0.083,0.186,0.187v6.313C78.914,53.873,78.831,53.956,78.729,53.956"/>
			<path clip-path="url(#SVGID_22_)" fill="#EB625E" d="M81.939,53.339c-0.104,0-0.187-0.084-0.187-0.188v-3.006
				c0-0.104,0.083-0.186,0.187-0.186s0.187,0.082,0.187,0.186v3.006C82.126,53.255,82.043,53.339,81.939,53.339"/>
			<path clip-path="url(#SVGID_22_)" fill="#EB625E" d="M85.543,52.123c-0.103,0-0.185-0.083-0.185-0.187v-6.139
				c0-0.104,0.082-0.186,0.185-0.186c0.104,0,0.187,0.082,0.187,0.186v6.139C85.729,52.04,85.646,52.123,85.543,52.123"/>
		</g>
	</g>
	<g>
		<path fill="#E36B40" d="M49.935,36.454c0.22-0.86,0.491-1.749,0.811-2.669c0.299-0.88,0.608-1.729,0.929-2.549
			c-0.041-0.039-0.109-0.09-0.21-0.149c-0.059-0.06-0.11-0.091-0.15-0.091h-2.128l-13.224,0.99c0,0.021-0.005,0.064-0.015,0.135
			s-0.016,0.115-0.016,0.135c0,0.44,0.069,0.858,0.211,1.259c0.119,0.44,0.179,0.881,0.179,1.32c0,0.261-0.08,0.521-0.239,0.778
			c-0.12,0.24-0.34,0.361-0.66,0.361c-0.319,0-0.568-0.091-0.749-0.271c-0.14-0.179-0.251-0.418-0.33-0.719l-1.23-5.727
			c-0.019-0.021-0.03-0.051-0.03-0.091v-0.18c0-0.318,0.076-0.584,0.226-0.795c0.15-0.21,0.391-0.314,0.72-0.314
			c0.33,0,0.565,0.104,0.706,0.314c0.139,0.211,0.249,0.44,0.329,0.69c0.078,0.249,0.139,0.476,0.18,0.675
			c0.08,0.219,0.211,0.33,0.39,0.33h0.06l12.983-0.87h0.21c0.141,0,0.28-0.005,0.42-0.015c0.141-0.01,0.29-0.016,0.45-0.016h0.39
			c0.281,0,0.631-0.011,1.049-0.03c0.461,0,0.891,0.03,1.291,0.091c0.398,0.099,0.739,0.259,1.019,0.479s0.421,0.569,0.421,1.05
			c0,0.28-0.016,0.484-0.045,0.614c-0.031,0.13-0.105,0.355-0.226,0.675c-0.061,0.22-0.176,0.544-0.346,0.974
			c-0.17,0.432-0.341,0.881-0.509,1.351c-0.171,0.47-0.335,0.905-0.495,1.304c-0.12,0.421-0.21,0.689-0.271,0.811
			c-0.099,0.318-0.234,0.589-0.404,0.81c-0.171,0.219-0.425,0.33-0.764,0.33c-0.261,0-0.48-0.091-0.661-0.272
			c-0.181-0.139-0.27-0.357-0.27-0.658V36.454z M35.691,24.19c-0.32-0.021-0.645-0.115-0.973-0.286
			c-0.331-0.168-0.495-0.444-0.495-0.823c0-0.139,0.054-0.33,0.164-0.57c0.108-0.24,0.254-0.359,0.436-0.359h3.208v-2.07
			c0-0.219,0.115-0.374,0.345-0.464s0.436-0.135,0.615-0.135c0.278,0,0.494,0.08,0.643,0.239c0.151,0.16,0.257,0.35,0.316,0.57
			c0.101,0.22,0.149,0.469,0.149,0.749c0.019,0.24,0.04,0.461,0.061,0.66c0.039,0.14,0.079,0.221,0.119,0.24
			c0.08,0.02,0.17,0.029,0.271,0.029h0.209c0.381-0.02,0.854-0.039,1.426-0.061c0.569-0.018,1.125-0.059,1.663-0.119
			c0.559-0.02,1.029-0.041,1.409-0.061l0.6-0.029l0.24-0.09c0.021-0.199,0.045-0.425,0.075-0.674c0.029-0.25,0.074-0.48,0.135-0.689
			c0.059-0.211,0.17-0.391,0.33-0.541c0.159-0.15,0.375-0.225,0.645-0.225s0.475,0.064,0.615,0.195
			c0.139,0.13,0.238,0.295,0.299,0.494c0.062,0.2,0.096,0.415,0.105,0.645c0.01,0.23,0.015,0.445,0.015,0.646l0.15,0.149h0.48
			c0.278-0.021,0.554-0.029,0.823-0.029c0.271,0,0.525,0.005,0.765,0.015c0.241,0.01,0.409,0.015,0.51,0.015
			c0.38,0,0.685,0.065,0.915,0.194c0.229,0.131,0.345,0.387,0.345,0.765c0,0.381-0.101,0.635-0.302,0.765
			c-0.198,0.13-0.478,0.216-0.838,0.255c-0.1,0-0.284,0.006-0.555,0.015c-0.27,0.011-0.565,0.016-0.885,0.016
			c-0.279,0.021-0.555,0.035-0.823,0.046c-0.271,0.01-0.466,0.015-0.586,0.015c-0.239,0.04-0.384,0.22-0.435,0.539
			c-0.05,0.32-0.09,0.665-0.12,1.035c-0.03,0.369-0.11,0.7-0.24,0.989c-0.128,0.29-0.403,0.436-0.824,0.436
			c-0.301,0-0.535-0.115-0.704-0.346c-0.171-0.229-0.256-0.484-0.256-0.766c0-0.239,0.02-0.488,0.061-0.749
			c0.039-0.22,0.06-0.449,0.06-0.689v-0.194c0-0.05-0.039-0.086-0.12-0.105h-0.629c-0.801,0-1.555,0.025-2.264,0.074
			c-0.711,0.051-1.484,0.105-2.324,0.166c-0.081,0.021-0.119,0.074-0.119,0.164v0.195c0,0.38,0.064,0.731,0.194,1.049
			c0.13,0.32,0.194,0.671,0.194,1.051c0,0.279-0.064,0.52-0.194,0.719s-0.355,0.3-0.675,0.3c-0.42,0-0.721-0.168-0.898-0.51
			c-0.162-0.3-0.281-0.654-0.361-1.064c-0.08-0.409-0.15-0.795-0.209-1.154c-0.061-0.359-0.2-0.569-0.42-0.629H35.691z
			 M37.16,46.349c0.081-0.341,0.151-0.649,0.211-0.93c0.101-0.3,0.2-0.6,0.299-0.899c0.062-0.239,0.201-0.64,0.421-1.199
			c0.2-0.521,0.41-1.094,0.63-1.725c0.22-0.629,0.43-1.218,0.629-1.769c0.201-0.55,0.351-0.934,0.451-1.155
			c0.019-0.078,0.055-0.244,0.104-0.495c0.049-0.248,0.095-0.414,0.134-0.493v-0.121v-0.135c0-0.049-0.039-0.084-0.119-0.104
			c-0.18,0-0.405,0.006-0.674,0.015c-0.271,0.01-0.532-0.015-0.781-0.074s-0.464-0.161-0.645-0.3c-0.18-0.14-0.27-0.359-0.27-0.659
			c0-0.182,0.09-0.396,0.27-0.645c0.181-0.251,0.381-0.375,0.601-0.375H40.4c0.198,0,0.318-0.151,0.358-0.45
			c0.08-0.3,0.146-0.62,0.195-0.96s0.15-0.655,0.3-0.945c0.149-0.289,0.425-0.435,0.824-0.435c0.36,0,0.605,0.104,0.734,0.315
			c0.13,0.21,0.195,0.475,0.195,0.794c0,0.221-0.021,0.436-0.059,0.645c-0.041,0.211-0.061,0.426-0.061,0.646v0.089
			c0,0.021,0.016,0.057,0.045,0.104c0.03,0.051,0.054,0.086,0.074,0.105c0.101,0,0.255,0.007,0.465,0.015
			c0.21,0.01,0.436,0.016,0.674,0.016c0.281,0.039,0.529,0.07,0.751,0.09c0.22,0.02,0.38,0.029,0.479,0.029
			c0.26,0.021,0.539,0.05,0.84,0.09c0.299,0.081,0.59,0.171,0.869,0.27c0.26,0.142,0.475,0.316,0.645,0.525
			c0.171,0.21,0.255,0.495,0.255,0.855c0,0.019-0.011,0.05-0.029,0.088v0.151l-1.26,7.047c-0.04,0.239-0.14,0.444-0.301,0.614
			c-0.159,0.17-0.369,0.254-0.63,0.254c-0.317,0-0.574-0.073-0.764-0.224c-0.189-0.149-0.284-0.405-0.284-0.765v-0.12l1.139-6.296
			v-0.09v-0.061c-0.021-0.02-0.056-0.065-0.105-0.136c-0.049-0.069-0.104-0.104-0.164-0.104c-0.5-0.06-0.911-0.097-1.229-0.106
			c-0.32-0.009-0.709-0.015-1.17-0.015h-0.81c-0.1,0.04-0.159,0.115-0.179,0.225c-0.021,0.11-0.041,0.204-0.06,0.286
			c0,0.039-0.021,0.119-0.062,0.238c-0.039,0.121-0.09,0.261-0.149,0.421c-0.02,0.159-0.05,0.304-0.09,0.435
			c-0.04,0.13-0.06,0.215-0.06,0.255c-0.101,0.279-0.271,0.774-0.511,1.484c-0.239,0.71-0.51,1.453-0.809,2.232
			c-0.261,0.78-0.53,1.52-0.81,2.22c-0.24,0.721-0.41,1.209-0.51,1.47c-0.102,0.52-0.41,0.78-0.93,0.78
			c-0.299,0-0.55-0.076-0.75-0.226s-0.301-0.395-0.301-0.735V46.349z"/>
	</g>
	<path fill="#E36B40" d="M32.695,51.869c0-0.279,0.094-0.515,0.283-0.704c0.19-0.19,0.426-0.285,0.705-0.285
		c0.06,0,0.166,0.015,0.315,0.045S34.264,50.98,34.344,51c0.04,0.021,0.16,0.061,0.361,0.119c0.198,0.1,0.408,0.19,0.628,0.271
		c0.261,0.1,0.5,0.195,0.721,0.285c0.219,0.09,0.39,0.155,0.509,0.194c0.24,0.12,0.46,0.251,0.66,0.391
		c0.219,0.179,0.329,0.419,0.329,0.719c0,0.141-0.039,0.32-0.119,0.539c-0.08,0.221-0.21,0.331-0.39,0.331h-0.989
		c-0.36-0.14-0.7-0.259-1.021-0.36c-0.28-0.12-0.568-0.24-0.869-0.36c-0.301-0.08-0.541-0.159-0.72-0.238
		c-0.22-0.101-0.409-0.24-0.569-0.421C32.755,52.31,32.695,52.109,32.695,51.869 M32.695,57.956c0-0.119,0.029-0.278,0.09-0.479
		c0.06-0.2,0.16-0.319,0.299-0.36l3.479-1.888h0.24c0.32,0,0.568,0.079,0.749,0.239s0.271,0.385,0.271,0.675s-0.079,0.51-0.24,0.659
		c-0.159,0.15-0.341,0.284-0.539,0.404c-0.06,0.042-0.21,0.131-0.45,0.271c-0.239,0.141-0.491,0.284-0.749,0.435
		c-0.261,0.149-0.525,0.306-0.795,0.466c-0.271,0.16-0.476,0.269-0.614,0.328c-0.161,0.102-0.256,0.152-0.286,0.152h-0.375
		c-0.299,0-0.553-0.072-0.764-0.212C32.8,58.507,32.695,58.276,32.695,57.956 M44.749,71.39l1.139-6.236v-0.212v-0.238
		c0-0.101-0.05-0.15-0.149-0.15h-8.006c0,1.06,0.074,2.104,0.225,3.134c0.15,1.03,0.226,2.083,0.226,3.163
		c0,0.68-0.341,1.021-1.021,1.021c-0.279,0-0.504-0.101-0.674-0.301s-0.275-0.43-0.315-0.689l-0.601-5.577
		c-0.118-0.361-0.194-0.641-0.225-0.839c-0.029-0.2-0.044-0.461-0.044-0.78c0-0.18-0.005-0.32-0.016-0.42s0.045-0.221,0.166-0.36
		c0.06-0.061,0.15-0.165,0.269-0.314c0.121-0.149,0.19-0.226,0.211-0.226h5.338c-0.142-0.198-0.256-0.373-0.346-0.524
		c-0.09-0.149-0.135-0.354-0.135-0.614v-0.301c0.3-1.198,0.655-2.362,1.064-3.491c0.409-1.131,0.754-2.325,1.033-3.584
		c0.041-0.181,0.171-0.35,0.391-0.51s0.43-0.239,0.63-0.239c0.301,0,0.529,0.1,0.69,0.299c0.18,0.24,0.27,0.5,0.27,0.78v0.3
		L44,57.837v0.089v0.03c0.08,0.101,0.168,0.19,0.269,0.271c0.14,0.06,0.37,0.169,0.689,0.329c0.32,0.16,0.665,0.335,1.035,0.525
		s0.721,0.364,1.049,0.524c0.331,0.159,0.556,0.28,0.675,0.36c0.26,0.099,0.455,0.225,0.585,0.374s0.196,0.355,0.196,0.615
		c0,0.359-0.06,0.614-0.182,0.765c-0.119,0.149-0.369,0.225-0.749,0.225h-0.33l-3.599-1.738h-0.06H43.49
		c-0.021,0-0.031-0.011-0.031-0.03c-0.08,0-0.176,0.084-0.284,0.254c-0.11,0.17-0.23,0.38-0.359,0.63
		c-0.132,0.25-0.247,0.485-0.346,0.705c-0.121,0.26-0.219,0.44-0.299,0.539c0.119,0,0.345,0.006,0.675,0.015
		c0.329,0.011,0.678,0.021,1.049,0.03c0.369,0.011,0.705,0.035,1.005,0.076c0.339,0.019,0.578,0.028,0.72,0.028
		c0.279,0.021,0.574,0.041,0.883,0.061c0.311,0.021,0.581,0.08,0.812,0.181c0.229,0.1,0.424,0.25,0.584,0.448
		c0.159,0.201,0.239,0.48,0.239,0.841c0,0.04-0.004,0.114-0.015,0.225s-0.015,0.185-0.015,0.225c-0.041,0.24-0.115,0.65-0.226,1.229
		c-0.109,0.58-0.22,1.199-0.329,1.859c-0.111,0.659-0.221,1.289-0.33,1.89c-0.109,0.598-0.185,1.01-0.225,1.229
		c-0.04,0.18-0.086,0.369-0.135,0.568c-0.051,0.2-0.115,0.386-0.195,0.556c-0.08,0.169-0.199,0.314-0.359,0.435
		c-0.12,0.12-0.291,0.18-0.511,0.18c-0.299,0-0.55-0.08-0.749-0.24c-0.201-0.119-0.3-0.349-0.3-0.689V71.39z M41.211,73.879H41.15
		c-0.021,0-0.039,0.015-0.06,0.044c-0.021,0.03-0.05,0.055-0.09,0.075c-0.021,0.16-0.04,0.35-0.061,0.568
		c-0.02,0.222-0.07,0.431-0.149,0.631c-0.101,0.24-0.23,0.42-0.39,0.54c-0.12,0.16-0.311,0.239-0.569,0.239
		c-0.381,0-0.631-0.159-0.751-0.479c-0.119-0.279-0.179-0.569-0.179-0.869v-0.3c0-0.141,0.01-0.221,0.029-0.239l1.47-7.317
		c0.06-0.259,0.185-0.475,0.374-0.645c0.19-0.169,0.414-0.255,0.675-0.255c0.339,0,0.581,0.095,0.721,0.285
		c0.139,0.19,0.209,0.445,0.209,0.766v0.239l-0.718,3.598v0.329c0,0.141-0.007,0.226-0.018,0.256c-0.01,0.03,0.041,0.09,0.15,0.18
		c0.11,0.091,0.255,0.21,0.435,0.36c0.181,0.149,0.364,0.306,0.556,0.463c0.189,0.162,0.35,0.302,0.479,0.421s0.205,0.19,0.226,0.21
		c0.199,0.16,0.475,0.33,0.823,0.511c0.351,0.179,0.7,0.369,1.05,0.568c0.35,0.2,0.649,0.425,0.9,0.675
		c0.249,0.25,0.374,0.524,0.374,0.826c0,0.259-0.085,0.478-0.255,0.659c-0.17,0.179-0.404,0.269-0.704,0.269
		c-0.201,0-0.434-0.055-0.706-0.164c-0.27-0.111-0.539-0.245-0.809-0.405c-0.27-0.159-0.525-0.325-0.766-0.494
		c-0.239-0.17-0.449-0.325-0.629-0.466c-0.079-0.02-0.185-0.085-0.314-0.193c-0.131-0.11-0.275-0.222-0.435-0.33
		c-0.16-0.111-0.32-0.226-0.48-0.345c-0.12-0.102-0.209-0.171-0.269-0.21H41.211z M47.358,57.416c0-0.259,0.003-0.454,0.015-0.584
		c0.009-0.131,0.056-0.325,0.135-0.584c0.02-0.141,0.06-0.39,0.119-0.751c0.101-0.339,0.19-0.698,0.271-1.079
		c0.12-0.379,0.21-0.75,0.27-1.109c0.101-0.34,0.17-0.57,0.21-0.69v-0.629c0-0.02-0.116-0.046-0.344-0.075
		c-0.23-0.03-0.406-0.045-0.525-0.045h-1.859H43.76c-0.361,0-0.672,0.005-0.93,0.015c-0.262,0.011-0.481,0.052-0.659,0.121
		c-0.181,0.069-0.331,0.199-0.45,0.39c-0.121,0.189-0.19,0.476-0.209,0.854c0,0.061-0.006,0.175-0.017,0.346
		s-0.02,0.345-0.028,0.525c-0.012,0.18-0.021,0.354-0.031,0.523c-0.011,0.171-0.016,0.285-0.016,0.345
		c-0.06,0.221-0.2,0.4-0.419,0.54c-0.161,0.14-0.36,0.21-0.6,0.21c-0.44,0-0.716-0.189-0.825-0.569
		c-0.109-0.379-0.164-0.75-0.164-1.109c0-0.88,0.049-1.77,0.149-2.669c0.139-0.86,0.21-1.729,0.21-2.608
		c0.02-0.28,0.121-0.471,0.3-0.569c0.18-0.141,0.39-0.21,0.63-0.21c0.279,0,0.488,0.069,0.63,0.21
		c0.119,0.099,0.214,0.239,0.284,0.418c0.07,0.181,0.109,0.386,0.12,0.616c0.01,0.229,0.024,0.445,0.045,0.645h0.689
		c0.538,0,1.074-0.024,1.604-0.075c0.529-0.05,1.075-0.075,1.635-0.075h0.42c0.12,0,0.359,0.015,0.72,0.046
		c0.359,0.029,0.734,0.059,1.125,0.089c0.389,0.03,0.765,0.056,1.125,0.075c0.358,0.02,0.608,0.041,0.749,0.061
		c0.358,0.02,0.595,0.165,0.704,0.434C50.66,50.715,50.716,51,50.716,51.3v0.42l-1.469,6.117c-0.06,0.259-0.176,0.435-0.346,0.524
		c-0.17,0.089-0.365,0.135-0.585,0.135c-0.359,0-0.609-0.104-0.749-0.314C47.429,57.971,47.358,57.716,47.358,57.416"/>
	<path fill="#E36B40" d="M51.962,89.037c0-0.756,0.04-1.508,0.117-2.251c0.078-0.745,0.118-1.495,0.118-2.253
		c-0.393,0-0.797,0.038-1.215,0.117c-0.418,0.131-0.822,0.195-1.215,0.195c-0.339,0-0.652-0.109-0.938-0.333
		c-0.288-0.221-0.433-0.515-0.433-0.88c0-0.419,0.123-0.732,0.373-0.94c0.247-0.209,0.541-0.354,0.881-0.433
		c0.131-0.025,0.326-0.092,0.587-0.195c0.262-0.052,0.536-0.104,0.824-0.156c0.287-0.053,0.567-0.111,0.841-0.177
		c0.275-0.064,0.45-0.109,0.529-0.138c0.209-0.077,0.346-0.254,0.412-0.529c0.064-0.272,0.098-0.554,0.098-0.841
		c0.053-0.288,0.058-0.575,0.02-0.863c-0.039-0.285-0.059-0.509-0.059-0.666c0-0.338-0.195-0.574-0.588-0.704
		c-0.419-0.079-0.869-0.163-1.352-0.255c-0.484-0.091-0.935-0.241-1.352-0.449c-0.393-0.158-0.588-0.511-0.588-1.059
		c0-0.391,0.157-0.706,0.469-0.94c0.316-0.234,0.653-0.353,1.021-0.353h0.155c0.026,0,0.144,0.027,0.354,0.077
		c0.209,0.054,0.431,0.093,0.666,0.117c0.26,0.079,0.496,0.146,0.705,0.197c0.21,0.052,0.334,0.085,0.372,0.099
		c0.04,0.013,0.072,0.019,0.099,0.019h0.078c0.208,0,0.314-0.117,0.314-0.353c0-0.079,0.004-0.235,0.019-0.47
		c0.013-0.234,0.02-0.483,0.02-0.744c0.051-0.261,0.085-0.51,0.097-0.744c0.014-0.236,0.021-0.392,0.021-0.471v-1.528
		c0.025-0.679,0.04-1.416,0.04-2.214c0-0.796-0.008-1.547-0.021-2.251c-0.013-0.706-0.02-1.202-0.02-1.489
		c0.078-0.521,0.307-0.907,0.687-1.155c0.377-0.248,0.801-0.432,1.273-0.549c0.469-0.118,0.96-0.182,1.468-0.196
		c0.509-0.013,0.946-0.02,1.312-0.02h2.548c1.148,0,2.297,0.027,3.447,0.079c1.147,0.052,2.31,0.078,3.486,0.078
		c1.175,0,2.343-0.026,3.506-0.078c1.162-0.052,2.344-0.079,3.546-0.079h2.742c0.339,0.104,0.541,0.262,0.606,0.471
		c0.066,0.209,0.1,0.457,0.1,0.744c0,0.052-0.008,0.15-0.021,0.295c-0.013,0.143-0.02,0.24-0.02,0.293
		c-0.131,0.13-0.301,0.261-0.51,0.392c-0.21,0.132-0.419,0.194-0.626,0.194l-6.975,0.354l-0.979,0.194
		c-0.026,0-0.039,0.015-0.039,0.041v0.037c0,0.132,0.013,0.211,0.039,0.236c0,0.234,0.006,0.529,0.021,0.882
		c0.014,0.352,0.045,0.685,0.099,0.999c0.024,0.365,0.038,0.757,0.038,1.176l0.157,0.352c0.052-0.052,0.183-0.131,0.392-0.235
		c0.209-0.052,0.346-0.091,0.411-0.116c0.065-0.027,0.15-0.066,0.255-0.119c0.156-0.025,0.248-0.038,0.273-0.038h6.621
		c0.443,0,0.731,0.169,0.863,0.509c0.182,0.392,0.273,0.744,0.273,1.058v0.706c0,0.288-0.013,0.743-0.039,1.37
		c-0.027,0.626-0.065,1.28-0.117,1.958c-0.053,0.681-0.092,1.312-0.117,1.901c-0.027,0.587-0.04,0.96-0.04,1.116
		c-0.054,0.681-0.242,1.268-0.569,1.764c-0.325,0.496-0.895,0.743-1.703,0.743h-6.308c-0.078,0-0.13,0.106-0.157,0.314
		c-0.026,0.208-0.084,0.444-0.176,0.705c-0.092,0.262-0.234,0.495-0.432,0.704c-0.194,0.211-0.469,0.314-0.821,0.314
		s-0.608-0.079-0.764-0.235c-0.133-0.104-0.229-0.255-0.295-0.451c-0.066-0.195-0.124-0.403-0.176-0.627
		c-0.053-0.222-0.157-0.437-0.313-0.646c-0.053,0-0.195-0.005-0.432-0.019c-0.234-0.014-0.379-0.02-0.43-0.02
		c-0.862,0-1.719,0.092-2.566,0.274c-0.849,0.183-1.691,0.274-2.526,0.274c-0.522,0-0.916-0.092-1.177-0.274
		s-0.469-0.535-0.627-1.058c-0.076-1.541-0.208-3.103-0.392-4.682c-0.183-1.58-0.273-3.167-0.273-4.76
		c0-0.654,0.273-1.149,0.823-1.489c0.574-0.288,1.161-0.431,1.763-0.431h4.896c0.13,0,0.286,0.124,0.472,0.371
		c0.182,0.249,0.299,0.45,0.351,0.608v0.078c0,0.417-0.169,0.743-0.509,0.979c-0.288,0.21-0.613,0.353-0.979,0.431
		c-0.13,0-0.353,0.008-0.666,0.021c-0.312,0.013-0.666,0.019-1.058,0.019c-0.34,0.027-0.674,0.047-1,0.06s-0.555,0.02-0.686,0.02
		c-0.052,0.026-0.136,0.053-0.254,0.079c-0.117,0.025-0.189,0.064-0.215,0.117c-0.105,0.051-0.158,0.104-0.158,0.156v1.135
		c0,0.134,0.053,0.21,0.158,0.237c0.155,0.026,0.3,0.052,0.431,0.077c0.182,0.027,0.391,0.027,0.627,0
		c0.757,0,1.495-0.039,2.212-0.117c0.719-0.078,1.457-0.091,2.215-0.039l0.195-0.158v-6.501h-9.285
		c-0.051,0-0.209,0.019-0.469,0.059c-0.261,0.039-0.419,0.085-0.471,0.136c-0.078,0-0.15,0.047-0.215,0.138
		c-0.066,0.092-0.1,0.151-0.1,0.177v7.758l-1.137,12.496c0,0.053-0.038,0.184-0.117,0.392c-0.025,0.235-0.058,0.503-0.096,0.804
		c-0.041,0.301-0.086,0.596-0.138,0.882c-0.053,0.286-0.105,0.522-0.157,0.705c-0.053,0.313-0.196,0.58-0.431,0.803
		c-0.235,0.222-0.523,0.333-0.862,0.333c-0.495,0-0.822-0.183-0.98-0.549C52.014,89.822,51.962,89.456,51.962,89.037 M61.05,76.423
		v0.882c0,0.274,0.053,0.568,0.158,0.881c0.052,0,0.175,0.008,0.371,0.021c0.196,0.014,0.32,0.019,0.373,0.019
		c0.757,0,1.435-0.064,2.037-0.195c0.601-0.078,1.357-0.196,2.271-0.354c0.104-0.023,0.17-0.103,0.195-0.233
		c0.079-0.156,0.124-0.319,0.138-0.49c0.014-0.169,0.014-0.339,0-0.511c-0.014-0.167-0.02-0.293-0.02-0.371v-0.666
		c-0.026-0.078-0.072-0.117-0.136-0.117h-0.178h-0.195c-0.366,0.025-0.837,0.053-1.41,0.078c-0.523,0.026-1.044,0.053-1.568,0.078
		c-0.601,0.052-1.227,0.105-1.879,0.157l-0.158,0.157V76.423z M63.285,91.741c0-0.444,0.116-0.758,0.352-0.94
		c0.234-0.183,0.503-0.328,0.803-0.432c0.301-0.104,0.594-0.221,0.881-0.352c0.34-0.104,0.59-0.328,0.745-0.666
		c-0.288-0.366-0.68-0.705-1.176-1.02c-0.496-0.26-0.979-0.528-1.449-0.803c-0.47-0.275-0.882-0.601-1.233-0.979
		c-0.354-0.379-0.529-0.855-0.529-1.43c0-0.47,0.104-0.862,0.313-1.175c0.235-0.262,0.509-0.457,0.823-0.588
		c0.363-0.131,0.756-0.216,1.175-0.254c0.417-0.04,0.835-0.059,1.253-0.059h9.756c0.208,0,0.396,0.163,0.567,0.488
		c0.17,0.328,0.255,0.568,0.255,0.725c0,0.497-0.189,1.014-0.568,1.547c-0.379,0.537-0.789,1.04-1.233,1.511
		c-0.445,0.468-0.856,0.867-1.235,1.194c-0.379,0.326-0.566,0.542-0.566,0.646v0.076c0.024,0,0.051,0.021,0.077,0.061
		c0.025,0.039,0.065,0.059,0.118,0.059c0.104,0.052,0.287,0.129,0.549,0.235c0.26,0.103,0.541,0.214,0.842,0.332
		c0.3,0.117,0.58,0.236,0.842,0.354s0.431,0.188,0.51,0.216c0.287,0.156,0.529,0.339,0.725,0.548
		c0.195,0.208,0.295,0.47,0.295,0.784c0,0.259-0.06,0.469-0.177,0.627c-0.118,0.156-0.294,0.324-0.529,0.508H74.84
		c-0.495,0-0.992-0.104-1.487-0.312c-0.497-0.21-0.979-0.438-1.449-0.686c-0.471-0.248-0.941-0.465-1.411-0.647
		c-0.418-0.208-0.836-0.312-1.254-0.312h-0.235c-0.784,0.392-1.429,0.725-1.938,0.999s-1.117,0.542-1.822,0.803
		c-0.209,0.077-0.333,0.124-0.371,0.137c-0.039,0.014-0.151,0.02-0.334,0.02C63.702,92.955,63.285,92.55,63.285,91.741
		 M61.991,58.206c0-0.392,0.117-0.666,0.353-0.823c0.26-0.208,0.575-0.312,0.941-0.312c0.181,0,0.346,0.013,0.488,0.039
		s0.308,0.131,0.49,0.313c0.104,0.053,0.24,0.177,0.41,0.372s0.366,0.392,0.588,0.588c0.222,0.195,0.418,0.386,0.588,0.568
		c0.17,0.182,0.307,0.313,0.411,0.391c0.104,0.132,0.261,0.319,0.471,0.568c0.208,0.249,0.312,0.385,0.312,0.411v0.196
		c0.028,0.156,0.041,0.263,0.041,0.313c0,0.419-0.071,0.738-0.216,0.96c-0.143,0.223-0.438,0.332-0.882,0.332
		c-0.287,0-0.659-0.148-1.115-0.451c-0.457-0.299-0.908-0.658-1.352-1.075c-0.393-0.419-0.759-0.85-1.098-1.294
		C62.135,58.859,61.991,58.494,61.991,58.206 M65.91,85.825c0.312,0.393,0.768,0.725,1.37,0.999c0.6,0.274,1.122,0.529,1.566,0.764
		h0.196c0.131,0,0.345-0.078,0.646-0.234c0.3-0.156,0.614-0.347,0.94-0.567c0.326-0.222,0.608-0.45,0.844-0.687
		c0.234-0.183,0.352-0.352,0.352-0.509c-0.967,0-1.953,0.014-2.958,0.039C67.861,85.656,66.875,85.722,65.91,85.825 M69.317,73.799
		c0,0.026,0.012,0.052,0.038,0.078c0.079,0.027,0.131,0.052,0.157,0.078h0.04h0.077c0.026,0,0.104-0.021,0.235-0.059
		c0.13-0.038,0.209-0.071,0.236-0.098c0.103,0,0.234-0.04,0.391-0.119c0.104-0.024,0.196-0.038,0.274-0.038h4.858v-1.605h-6.308
		V73.799z M69.317,77.363c0,0.079,0.012,0.145,0.038,0.197c0.079,0.076,0.131,0.115,0.157,0.115h5.837
		c0.08,0,0.124-0.122,0.137-0.371c0.014-0.248,0.021-0.397,0.021-0.45c0-0.156-0.008-0.268-0.021-0.334
		c-0.013-0.063-0.123-0.098-0.332-0.098l-5.642-0.195c-0.13,0-0.195,0.065-0.195,0.195v0.432V77.363z"/>
	<path fill="#E36B40" d="M92.459,92.242c-0.156-0.104-0.41-0.242-0.764-0.412c-0.353-0.168-0.725-0.359-1.116-0.567
		c-0.392-0.209-0.758-0.418-1.098-0.628c-0.364-0.155-0.614-0.273-0.745-0.352c-0.076-0.025-0.176-0.079-0.292-0.157
		c-0.118-0.079-0.19-0.144-0.217-0.195c-0.131-0.104-0.347-0.275-0.646-0.51c-0.301-0.235-0.602-0.482-0.9-0.745
		c-0.301-0.26-0.583-0.502-0.844-0.724c-0.26-0.222-0.443-0.358-0.548-0.412c-0.34-0.312-0.634-0.588-0.882-0.821
		c-0.248-0.236-0.372-0.589-0.372-1.058c0-0.837,0.404-1.255,1.216-1.255h0.351c0.132,0.026,0.249,0.092,0.354,0.197
		c1.018,0.966,2.147,1.912,3.39,2.839c1.239,0.929,2.539,1.666,3.896,2.213h0.275h0.215c0.091,0,0.15-0.063,0.176-0.196v-0.41
		c0-0.195,0.007-0.411,0.021-0.647c0.013-0.233,0.021-0.456,0.021-0.665v-0.392v-0.509c0-0.235-0.008-0.463-0.021-0.686
		c-0.014-0.223-0.021-0.418-0.021-0.589v-0.293c0-0.104-0.045-0.333-0.137-0.687c-0.092-0.351-0.189-0.729-0.293-1.135
		c-0.105-0.405-0.211-0.816-0.314-1.235c-0.104-0.365-0.184-0.64-0.235-0.823c-0.025-0.051-0.085-0.194-0.176-0.429
		c-0.092-0.236-0.195-0.478-0.313-0.727c-0.118-0.247-0.215-0.483-0.294-0.704c-0.078-0.223-0.13-0.359-0.156-0.412
		c-0.156-0.287-0.235-0.49-0.235-0.607v-0.725v-0.352c0-0.078,0.013-0.157,0.039-0.236l3.369-7.13
		c0.027-0.025,0.039-0.078,0.039-0.155c0-0.183-0.117-0.287-0.352-0.314c-0.105-0.052-0.326-0.099-0.667-0.138
		s-0.536-0.059-0.587-0.059h-6.817c-0.392,0.078-0.705,0.132-0.94,0.157c-0.235,0.026-0.529,0.039-0.881,0.039
		c-0.353,0-0.653-0.09-0.9-0.273c-0.249-0.183-0.373-0.47-0.373-0.863c0-0.391,0.138-0.71,0.411-0.959
		c0.274-0.246,0.567-0.411,0.882-0.49c1.044-0.209,1.959-0.319,2.742-0.332c0.783-0.015,1.684-0.021,2.704-0.021h2.506
		c0.026,0,0.164,0.015,0.412,0.039c0.247,0.027,0.529,0.053,0.842,0.079c0.312,0.025,0.613,0.053,0.901,0.078
		c0.312,0.079,0.562,0.13,0.744,0.156c0.627,0.053,1.215,0.203,1.763,0.451c0.549,0.248,0.823,0.738,0.823,1.469
		c0,0.156-0.007,0.319-0.021,0.489c-0.012,0.171-0.059,0.334-0.138,0.491l-3.682,7.756c-0.051,0.053-0.079,0.093-0.079,0.117v0.195
		c0,0.472,0.145,0.916,0.433,1.333c0.287,0.47,0.483,0.94,0.588,1.41c0.338,1.358,0.6,2.585,0.783,3.683
		c0.234,1.149,0.352,2.404,0.352,3.762c0,0.312-0.014,0.686-0.039,1.116c-0.025,0.43-0.097,0.862-0.215,1.294
		c-0.118,0.43-0.293,0.802-0.529,1.114c-0.235,0.367-0.574,0.589-1.018,0.666c-0.054,0.027-0.196,0.04-0.432,0.04h-0.431h-0.783
		C92.941,92.398,92.693,92.347,92.459,92.242"/>
</g>
</svg>
