<?xml version="1.0" encoding="utf-8"?>
<!-- Generator: Adobe Illustrator 16.0.0, SVG Export Plug-In . SVG Version: 6.00 Build 0)  -->
<!DOCTYPE svg PUBLIC "-//W3C//DTD SVG 1.1//EN" "http://www.w3.org/Graphics/SVG/1.1/DTD/svg11.dtd">
<svg version="1.1" id="Layer_1" xmlns="http://www.w3.org/2000/svg" xmlns:xlink="http://www.w3.org/1999/xlink" x="0px" y="0px"
	 width="126.877px" height="112.438px" viewBox="0 0 126.877 112.438" enable-background="new 0 0 126.877 112.438"
	 xml:space="preserve">
<rect fill="#FFFFFF" width="126.877" height="112.438"/>
<path fill="#424242" d="M54.969,59.662v-0.07c-0.807,0.663,2.278,1.958,2.601,2.264c1.1,1.045,1.309,2.408,1.285,3.865
	c1.126-1.955,1.023-4.577,0.361-6.493C59.091,60.986,55.671,59.534,54.969,59.662"/>
<path fill="#424242" d="M72.168,59.766v0.07c-0.702-0.127-4.123,1.324-4.247-0.435c-0.662,1.916-0.765,4.538,0.36,6.494
	c-0.022-1.458,0.187-2.821,1.286-3.865C69.89,61.724,72.975,60.429,72.168,59.766"/>
<path fill="#424242" d="M105.188,33.24c-0.066-0.126-0.158-0.246-0.28-0.34c-0.041-0.032-0.088-0.059-0.138-0.082
	c-0.021-0.634-0.152-1.264-0.425-1.853c-0.196-0.419-0.469-0.815-0.836-1.131c-0.159-0.137-0.339-0.253-0.531-0.344
	c-0.197-0.314-0.435-0.606-0.718-0.859c-0.082-0.072-0.169-0.139-0.26-0.201c-0.241-0.408-0.535-0.785-0.893-1.109
	c-0.516-0.467-1.192-0.792-1.894-0.834c-0.349-0.021-0.697,0.021-1.023,0.12c-0.325,0.098-0.626,0.253-0.9,0.436
	c-0.55,0.367-0.982,0.863-1.334,1.395c-0.104,0.16-0.271,0.597-0.383,0.851c-0.378-0.368-0.816-0.833-1.234-0.64
	c-0.099-0.446-0.235-0.886-0.414-1.312c-0.296-0.697-0.718-1.354-1.283-1.886c-0.562-0.529-1.305-0.904-2.082-0.965
	c-0.386-0.033-0.774,0.007-1.139,0.11c-0.364,0.103-0.703,0.268-1.014,0.465c-0.097,0.062-0.19,0.13-0.281,0.199
	c-0.029,0.008-0.06,0.014-0.088,0.021c-0.308,0.089-0.59,0.23-0.847,0.398c-0.438,0.284-0.796,0.656-1.096,1.061
	c-0.304,0.248-0.552,0.549-0.761,0.865c-0.259,0.397-0.46,0.822-0.612,1.263c-0.058,0.027-0.109,0.059-0.155,0.096
	c-0.115,0.093-0.199,0.205-0.266,0.321c-0.11,0.195-0.176,0.402-0.215,0.612c-0.008,0.043-0.016,0.085-0.021,0.127
	c0.034-0.253,0.14-0.501,0.312-0.684c0.085-0.09,0.188-0.162,0.294-0.198c0.107-0.038,0.213-0.033,0.295,0
	c0.163,0.071,0.24,0.247,0.284,0.437c0.041,0.191,0.042,0.4,0.015,0.605c-0.028,0.206-0.082,0.407-0.172,0.582
	c-0.092,0.172-0.212,0.322-0.39,0.348c-0.088,0.012-0.191-0.013-0.285-0.078c-0.093-0.063-0.173-0.16-0.231-0.27
	c-0.118-0.22-0.154-0.487-0.121-0.742c-0.006,0.043-0.01,0.086-0.013,0.13c-0.017,0.213-0.009,0.43,0.047,0.646
	c0.035,0.13,0.055,0.291,0.174,0.379c0.022,0.018,0.046,0.033,0.071,0.05c0.007,0.59,0.089,1.181,0.273,1.752
	c0.122,0.365,0.286,0.725,0.518,1.048c0.186,0.462,0.431,0.905,0.771,1.289c0.074,0.08,0.15,0.156,0.23,0.231
	c0.195,0.386,0.433,0.752,0.73,1.078c0.246,0.272,0.53,0.521,0.855,0.714c0.323,0.194,0.688,0.335,1.069,0.404
	c0.766,0.145,1.579-0.023,2.261-0.386c0.619-0.331,1.15-0.792,1.594-1.317c0.518,0.658,0.905,0.899,1.227,1.917
	c0.765,2.421,1.3,5.632,0.912,8.205c-0.175,1.163-0.322,2.606-0.45,3.772c-0.071,0.651-0.127,1.448,0.027,2.159
	c-0.278,0.587-2.307,0.102-3.331,0.051c-1.351-0.065-2.295,0.201-3.587,0.375c-1.064,0.145-2.344,0.86-3.396,0.957
	c-0.567,0.053-0.907-0.056-1.477-0.161c-0.819-0.151-1.607-0.326-2.195-0.421c-1.456-0.233-3.103-0.115-4.602,0.243
	c-0.871,0.208-2.021,0.894-3.079,1.089l-2.379-0.684c0.938-0.284,1.952-0.588,2.829-0.523c0.549,0.04,0.592,0.449,0.758,0.557
	c0.918-0.46,0.766-0.338,1.583-0.597c0-0.999-0.836-2.279-1.7-2.806c-1.772-1.08-3.982-1.202-5.472-2.062
	c0.04-0.521,0.144-2.388,0.235-2.893c0.632,1.164,1.287-0.637,1.527-1.425c0.162-0.531,0.472-1.277,0.483-1.885
	c0.015-0.796-0.854-0.975-0.852-0.63c0.003-0.299,0,0-0.002-0.345c0.084-0.28,0.162-0.572,0.231-0.873
	c0.11-0.283,0.218-0.556,0.301-0.799c0.311-0.908,0.488-2.03,0.443-3.04c-0.004-0.104,0.005-0.001,0.01,0.074
	c0.24-0.889-0.329-3.355-0.713-3.978c-0.636-1.034-1.393-1.806-2.435-2.425c-0.683-0.404-1.397-0.56-2.141-0.634
	c-2.714-1.301-6.887,0.296-8.465,2.634c-1.503,2.226-1.751,5.408-0.13,7.396c0.082,0.236,0.186,0.498,0.291,0.771
	c0.062,0.261,0.128,0.514,0.199,0.76c-0.168-0.398-0.834-0.007-0.935,0.436c-0.132,0.593,0.435,2.417,0.597,2.95
	c0.24,0.787,1.119,1.841,1.53,0.891c0.277,1.521,0.396,4.626,0.027,6.142c-0.305,0.877-0.788,1.684-1.456,2.205l-2.719,0.781
	c-1.059-0.195-2.209-0.881-3.079-1.089c-1.5-0.358-2.948-0.477-4.405-0.243c-0.588,0.095-2.331,0.261-3.31,0.421
	c-1.042,0.172-2.438-0.433-3.865-0.796c-1.264-0.322-2.45-0.495-3.802-0.428c-1.023,0.05-2.147,0.157-3.052,0.268
	c0.154-0.711-0.056-1.773-0.128-2.425c-0.127-1.166-0.274-2.609-0.449-3.772c-0.388-2.573,0.148-5.784,0.913-8.205
	c0.321-1.018,0.708-1.259,1.226-1.917c0.443,0.525,0.975,0.986,1.594,1.317c0.682,0.362,1.496,0.53,2.261,0.386
	c0.382-0.069,0.745-0.21,1.069-0.404c0.325-0.193,0.609-0.441,0.856-0.714c0.296-0.326,0.535-0.692,0.729-1.078
	c0.079-0.075,0.157-0.151,0.229-0.231c0.342-0.384,0.588-0.827,0.771-1.289c0.232-0.323,0.396-0.683,0.519-1.048
	c0.185-0.571,0.268-1.162,0.272-1.752c0.025-0.017,0.05-0.032,0.073-0.05c0.119-0.088,0.138-0.249,0.173-0.379
	c0.056-0.217,0.063-0.434,0.047-0.646c-0.004-0.044-0.007-0.087-0.013-0.13c0.033,0.255-0.003,0.522-0.121,0.742
	c-0.059,0.109-0.139,0.206-0.231,0.27c-0.094,0.065-0.197,0.09-0.285,0.078c-0.178-0.025-0.298-0.176-0.39-0.348
	c-0.09-0.175-0.145-0.376-0.172-0.582c-0.026-0.205-0.026-0.414,0.015-0.605c0.044-0.189,0.12-0.365,0.284-0.437
	c0.082-0.033,0.188-0.038,0.294,0c0.106,0.036,0.21,0.108,0.296,0.198c0.171,0.183,0.276,0.431,0.311,0.684
	c-0.006-0.042-0.014-0.084-0.021-0.127c-0.039-0.21-0.104-0.417-0.214-0.612c-0.067-0.116-0.151-0.229-0.267-0.321
	c-0.045-0.037-0.099-0.068-0.155-0.096c-0.152-0.44-0.354-0.865-0.612-1.263c-0.209-0.316-0.457-0.617-0.761-0.865
	c-0.301-0.404-0.659-0.776-1.096-1.061c-0.258-0.168-0.54-0.31-0.847-0.398c-0.029-0.008-0.059-0.014-0.088-0.021
	c-0.091-0.069-0.184-0.137-0.281-0.199c-0.311-0.197-0.649-0.362-1.014-0.465c-0.364-0.104-0.752-0.144-1.139-0.11
	c-0.776,0.061-1.521,0.436-2.082,0.965c-0.564,0.532-0.987,1.188-1.282,1.886c-0.18,0.427-0.316,0.866-0.415,1.312
	c-0.418-0.193-0.856,0.271-1.232,0.64c-0.113-0.254-0.28-0.69-0.386-0.851c-0.351-0.531-0.783-1.027-1.333-1.395
	c-0.274-0.183-0.575-0.338-0.901-0.436c-0.325-0.099-0.674-0.142-1.022-0.12c-0.701,0.042-1.378,0.367-1.894,0.834
	c-0.356,0.324-0.651,0.701-0.893,1.109c-0.09,0.062-0.178,0.129-0.26,0.201c-0.282,0.253-0.521,0.545-0.718,0.859
	c-0.193,0.091-0.372,0.207-0.531,0.344c-0.367,0.315-0.64,0.712-0.836,1.131c-0.272,0.589-0.403,1.219-0.425,1.853
	c-0.049,0.023-0.097,0.05-0.138,0.082c-0.122,0.094-0.214,0.214-0.279,0.34c-0.133,0.257-0.17,0.54-0.14,0.811
	c0.033,0.271,0.137,0.539,0.323,0.758c0.094,0.107,0.211,0.202,0.352,0.266c0.081,0.037,0.174,0.058,0.267,0.062
	c0.008,0.01,0.015,0.021,0.023,0.028c0.021,0.026,0.045,0.05,0.068,0.075c0.15,0.324,0.335,0.636,0.561,0.921
	c0.289,0.362,0.647,0.685,1.077,0.905c0.302,0.156,0.647,0.249,0.993,0.256c0.147,0.109,0.301,0.21,0.464,0.298
	c0.371,0.197,0.794,0.317,1.219,0.331c0.047,0.027,0.092,0.056,0.139,0.081c0.44,0.241,0.947,0.389,1.455,0.406
	c-0.002,1.385-0.131,2.753-0.442,4.011c-0.575,2.33-1.181,4.579-1.749,6.929c-0.264,1.09-0.353,2.31-0.369,3.465
	c-0.005,0.357,0.04,1.069,0.189,1.728c0.1,0.818,0.404,1.674,0.869,2.144c0.668,0.674,1.758,0.972,2.618,1.22
	c1.093,0.315,1.934,0.553,2.883,1.22c0.827,0.58,1.786,1.154,2.702,1.591c2.098,0.997,4.535,1.222,6.859,1.22
	c1.693-0.003,4.312-0.081,5.76,1.095c0.318,0.677,1.22,1.415,1.593,1.945c0.614,0.872,1.256,1.664,1.715,2.615
	c0.571,1.186,0.983,2.478,1.312,3.778c3.616,0.396,7.274,0.6,10.907,0.6h0.05c3.595,0,7.213-0.199,10.791-0.586
	c0.077-0.19,0.157-0.379,0.238-0.567c0.004-0.01,0.011-0.015,0.015-0.022c0.302-1.104,0.673-2.191,1.159-3.202
	c0.46-0.951,1.101-1.743,1.715-2.615c0.374-0.53,1.274-1.269,1.592-1.945c1.448-1.176,4.068-1.098,5.761-1.095
	c2.324,0.002,4.763-0.223,6.859-1.22c0.916-0.437,1.875-1.011,2.702-1.591c0.949-0.667,1.791-0.904,2.883-1.22
	c0.859-0.248,1.95-0.546,2.618-1.22c0.465-0.47,0.77-1.325,0.869-2.144c0.149-0.658,0.195-1.37,0.189-1.728
	c-0.017-1.155-0.106-2.375-0.369-3.465c-0.568-2.35-1.173-4.599-1.75-6.929c-0.312-1.258-0.439-2.626-0.441-4.011
	c0.508-0.018,1.014-0.165,1.455-0.406c0.047-0.025,0.093-0.054,0.139-0.081c0.424-0.014,0.849-0.134,1.219-0.331
	c0.163-0.088,0.316-0.188,0.464-0.298c0.345-0.007,0.691-0.1,0.993-0.256c0.43-0.221,0.788-0.543,1.077-0.905
	c0.227-0.285,0.411-0.597,0.561-0.921c0.023-0.025,0.047-0.049,0.069-0.075c0.008-0.008,0.015-0.019,0.022-0.028
	c0.093-0.004,0.185-0.024,0.266-0.062c0.143-0.063,0.259-0.158,0.353-0.266c0.188-0.219,0.291-0.487,0.323-0.758
	C105.356,33.78,105.319,33.497,105.188,33.24 M85.632,31.666c0.166,0.046,0.355,0.025,0.512-0.044
	c0.097-0.041,0.183-0.098,0.26-0.161c-0.148,0.223-0.344,0.4-0.598,0.418c-0.144,0.008-0.303-0.041-0.441-0.146
	c-0.066-0.049-0.127-0.11-0.182-0.177C85.39,31.611,85.563,31.647,85.632,31.666 M85.804,29.364
	c-0.006-0.012-0.013-0.022-0.02-0.034c0.057-0.002,0.11,0.007,0.155,0.026c0.163,0.07,0.24,0.246,0.284,0.437
	c0.041,0.191,0.066,0.404,0.015,0.605c-0.151,0.58-0.502,0.452-0.455,0.4c0,0,0.119-0.221,0.161-0.522
	C85.982,29.973,85.946,29.653,85.804,29.364 M85.985,29.014c-0.121,0-0.393,0.004-0.473-0.028c0.075-0.056,0.154-0.101,0.237-0.134
	c0.16-0.064,0.326-0.07,0.462-0.024c0.255,0.09,0.399,0.337,0.482,0.61c-0.062-0.091-0.136-0.176-0.226-0.247
	C86.336,29.083,86.158,29.014,85.985,29.014 M84.758,32.928c-0.235-0.527-0.36-1.104-0.392-1.686
	c0.173,0.104,0.392,0.188,0.602,0.253c0.053,0.142,0.123,0.282,0.222,0.41c0.13,0.17,0.323,0.319,0.562,0.379
	c0.237,0.061,0.503,0.024,0.724-0.076c0.223-0.101,0.41-0.253,0.561-0.427c0.302-0.351,0.472-0.783,0.532-1.222
	c0.058-0.438,0.007-0.9-0.192-1.318c-0.1-0.207-0.239-0.403-0.43-0.56c-0.186-0.156-0.434-0.261-0.68-0.264
	c-0.246-0.005-0.473,0.088-0.642,0.22c-0.101,0.075-0.185,0.163-0.259,0.257c-0.109-0.058-0.233-0.095-0.355-0.094
	c-0.083,0-0.162,0.017-0.235,0.044c0.174-0.415,0.398-0.806,0.681-1.15c0.29-0.351,0.644-0.646,1.034-0.84
	c0.393-0.19,0.825-0.253,1.212-0.162c0.391,0.088,0.719,0.323,0.972,0.628c0.258,0.305,0.436,0.681,0.562,1.072
	c0.25,0.791,0.29,1.654,0.179,2.493c-0.111,0.838-0.374,1.662-0.823,2.359c-0.225,0.347-0.495,0.662-0.823,0.889
	c-0.324,0.229-0.705,0.37-1.104,0.353c-0.397-0.014-0.8-0.188-1.129-0.477C85.21,33.721,84.944,33.343,84.758,32.928 M86.142,35.088
	c-0.149-0.138-0.287-0.289-0.414-0.451c0.007,0.005,0.013,0.009,0.02,0.014c0.201,0.197,0.512,0.443,0.965,0.622
	c0.249,0.096,0.541,0.169,0.868,0.18c0.325,0.012,0.687-0.045,1.033-0.198c0.348-0.152,0.672-0.397,0.936-0.701
	c0.251-0.297,0.473-0.607,0.676-0.956c0.404-0.692,0.648-1.434,0.756-2.115c0.109-0.683,0.091-1.304,0.034-1.812
	c-0.06-0.509-0.156-0.908-0.23-1.181c-0.076-0.271-0.128-0.419-0.128-0.419l0.01,0.436c0.004,0.28,0.006,0.684-0.03,1.172
	c-0.018,0.233-0.045,0.486-0.085,0.752c0.028-0.807-0.097-1.625-0.429-2.38c-0.208-0.471-0.506-0.912-0.899-1.271
	c-0.393-0.355-0.913-0.604-1.446-0.633c-0.331-0.023-0.653,0.037-0.947,0.153c0.169-0.127,0.346-0.239,0.528-0.334
	c0.499-0.253,1.058-0.348,1.567-0.24c0.512,0.104,0.953,0.404,1.292,0.796c0.343,0.392,0.585,0.877,0.755,1.382
	c0.339,1.021,0.396,2.138,0.254,3.219c-0.145,1.081-0.491,2.145-1.086,3.041c-0.296,0.444-0.657,0.849-1.091,1.138
	c-0.43,0.29-0.936,0.464-1.457,0.429C87.069,35.701,86.556,35.463,86.142,35.088 M93.366,31.608
	c-0.178,1.319-0.606,2.618-1.343,3.709c-0.368,0.542-0.815,1.032-1.354,1.382c-0.533,0.352-1.162,0.558-1.805,0.507
	c-0.633-0.046-1.25-0.34-1.744-0.793c0.252,0.157,0.589,0.303,1.008,0.38c0.608,0.114,1.397,0.081,2.186-0.271
	c0.391-0.174,0.777-0.429,1.115-0.756c0.086-0.082,0.167-0.168,0.246-0.258c0.075-0.087,0.149-0.176,0.22-0.269
	c0.143-0.186,0.274-0.383,0.394-0.589c0.479-0.828,0.707-1.711,0.792-2.5c0.085-0.793,0.103-1.57,0.038-2.153
	c-0.09-0.837-0.062-0.816-0.159-1.365c-0.122-0.695-0.495-1.224-0.493-1.225c-0.008-0.001,0.062,1.569-0.071,2.674
	c-0.004,0.034-0.009,0.072-0.014,0.109c-0.005-0.896-0.165-1.793-0.523-2.63c-0.252-0.584-0.613-1.134-1.093-1.58
	c-0.479-0.443-1.111-0.755-1.769-0.801c-0.012-0.002-0.023-0.001-0.035-0.002c0.497-0.184,1.028-0.244,1.526-0.146
	c0.632,0.119,1.184,0.482,1.606,0.961c0.429,0.477,0.731,1.068,0.944,1.687C93.464,28.925,93.54,30.289,93.366,31.608 M41.86,31.557
	c-0.056,0.066-0.115,0.128-0.182,0.177c-0.138,0.104-0.298,0.153-0.441,0.146c-0.253-0.018-0.45-0.195-0.598-0.418
	c0.077,0.063,0.164,0.12,0.26,0.161c0.156,0.069,0.346,0.09,0.512,0.044C41.479,31.647,41.653,31.611,41.86,31.557 M41.099,30.276
	c0.042,0.302,0.057,0.465,0.271,0.705c0.046,0.053-0.302,0.171-0.394-0.001c-0.09-0.175-0.145-0.377-0.172-0.582
	c-0.026-0.206-0.025-0.414,0.016-0.605c0.043-0.19,0.12-0.366,0.283-0.437c0.045-0.02,0.099-0.028,0.155-0.026
	c-0.007,0.012-0.014,0.022-0.02,0.034C41.097,29.653,41.06,29.973,41.099,30.276 M41.058,29.014c-0.173,0-0.351,0.069-0.484,0.177
	c-0.089,0.071-0.162,0.156-0.225,0.247c0.082-0.273,0.228-0.521,0.482-0.61c0.136-0.046,0.302-0.04,0.463,0.024
	c0.082,0.033,0.161,0.078,0.235,0.134C41.449,29.018,41.179,29.014,41.058,29.014 M40.553,26.854
	c0.391,0.194,0.745,0.489,1.034,0.84c0.282,0.345,0.508,0.735,0.68,1.15c-0.072-0.027-0.152-0.044-0.235-0.044
	c-0.121-0.001-0.245,0.036-0.354,0.094c-0.074-0.094-0.158-0.182-0.259-0.257c-0.169-0.132-0.396-0.225-0.643-0.22
	c-0.244,0.003-0.493,0.107-0.68,0.264c-0.189,0.156-0.329,0.353-0.43,0.56c-0.198,0.418-0.249,0.88-0.191,1.318
	c0.061,0.438,0.23,0.871,0.532,1.222c0.151,0.174,0.337,0.326,0.561,0.427c0.221,0.101,0.486,0.137,0.724,0.076
	c0.239-0.06,0.433-0.209,0.562-0.379c0.1-0.128,0.17-0.269,0.223-0.41c0.21-0.065,0.43-0.149,0.601-0.253
	c-0.03,0.582-0.155,1.158-0.391,1.686c-0.187,0.415-0.452,0.793-0.777,1.082c-0.329,0.288-0.73,0.463-1.129,0.477
	c-0.4,0.018-0.779-0.124-1.104-0.353c-0.328-0.227-0.6-0.542-0.824-0.889c-0.447-0.697-0.711-1.521-0.822-2.359
	c-0.11-0.839-0.071-1.702,0.18-2.493c0.126-0.392,0.305-0.768,0.562-1.072c0.253-0.305,0.581-0.54,0.972-0.628
	C39.728,26.602,40.16,26.664,40.553,26.854 M39.686,25.966c0.184,0.095,0.359,0.207,0.528,0.334
	c-0.294-0.116-0.615-0.177-0.946-0.153c-0.534,0.029-1.055,0.277-1.447,0.633c-0.394,0.358-0.691,0.8-0.899,1.271
	c-0.331,0.755-0.457,1.573-0.429,2.38c-0.041-0.266-0.067-0.519-0.085-0.752c-0.036-0.488-0.035-0.892-0.031-1.172l0.011-0.436
	c0.002,0-0.052,0.147-0.127,0.419c-0.075,0.272-0.172,0.672-0.23,1.181c-0.059,0.508-0.076,1.129,0.033,1.812
	c0.107,0.682,0.352,1.423,0.756,2.115c0.203,0.349,0.425,0.659,0.677,0.956c0.263,0.304,0.588,0.549,0.935,0.701
	c0.347,0.153,0.709,0.21,1.034,0.198c0.326-0.011,0.619-0.084,0.867-0.18c0.454-0.179,0.765-0.425,0.965-0.622
	c0.008-0.005,0.014-0.009,0.02-0.014c-0.127,0.162-0.265,0.313-0.414,0.451c-0.414,0.375-0.928,0.613-1.449,0.642
	c-0.522,0.035-1.028-0.139-1.457-0.429c-0.436-0.289-0.796-0.693-1.092-1.138c-0.594-0.896-0.94-1.96-1.086-3.041
	c-0.143-1.081-0.085-2.197,0.254-3.219c0.172-0.505,0.412-0.99,0.755-1.382c0.339-0.392,0.78-0.691,1.293-0.796
	C38.629,25.618,39.187,25.713,39.686,25.966 M34.004,27.679c0.214-0.618,0.517-1.21,0.945-1.687
	c0.423-0.479,0.975-0.842,1.607-0.961c0.498-0.098,1.028-0.037,1.526,0.146c-0.013,0.001-0.024,0-0.037,0.002
	c-0.656,0.046-1.29,0.357-1.768,0.801c-0.479,0.446-0.841,0.996-1.093,1.58c-0.358,0.837-0.519,1.734-0.523,2.63
	c-0.005-0.037-0.01-0.075-0.014-0.109c-0.133-1.104-0.129-1.829-0.136-1.828c0.001,0-0.072,0.165-0.174,0.473
	c-0.102,0.309-0.231,0.763-0.322,1.344c-0.089,0.58-0.139,1.288-0.054,2.081c0.085,0.789,0.313,1.672,0.793,2.5
	c0.119,0.206,0.251,0.403,0.393,0.589c0.07,0.093,0.146,0.182,0.22,0.269c0.079,0.09,0.161,0.176,0.246,0.258
	c0.339,0.327,0.725,0.582,1.116,0.756c0.788,0.353,1.576,0.386,2.185,0.271c0.419-0.077,0.756-0.223,1.008-0.38
	c-0.494,0.453-1.111,0.747-1.744,0.793c-0.643,0.051-1.271-0.155-1.805-0.507c-0.538-0.35-0.986-0.84-1.354-1.382
	c-0.737-1.091-1.165-2.39-1.343-3.709C33.503,30.289,33.579,28.925,34.004,27.679 M71.296,51.251
	c-1.417-0.251-4.217-0.617-5.601-3.154c1.408,1.646,4.409,2.043,5.933,2.458c0.954,0.259,2.68,1.091,2.774,2.242
	C74.125,51.728,72.286,51.428,71.296,51.251 M57.331,40.932c0.001,0.002,0.001,0.005,0.001,0.005S57.332,40.934,57.331,40.932
	c0-0.071,0-0.126,0.002,0.007C57.333,41.129,57.331,41.02,57.331,40.932 M57.969,34.487c-0.071-0.424,0.123-1.73,0.137-2.027
	c-0.643,0.187-0.968,1.434-1.142,2.027c-0.188,0.644-0.169,1.679-0.088,2.336c0.107,1.157,0.653,2.232,0.727,3.409v0.033
	c-0.412-1.396-1.302-2.564-1.304-4.148c0-2.094,0.878-4.238,2.474-5.409c-0.164,0.292-0.318,0.88-0.265,1.203
	c1.289-3.681,6.624-2.755,7.324-2.006c0.823,0,2.015,0.708,2.722,1.425c0.618,0.627,0.944,0.948,1.325,1.747
	c0.938,1.964,0.232,4.526,0.228,5.646c-0.002-0.499-0.125-2.991-0.49-3.542c-0.076,1.274-0.443,2.416-0.56,3.658
	c-0.04-1.885,0.421-3.423-0.097-5.328c-0.399-1.479-1.881-2.722-2.784-2.533C66.168,29.623,59.401,28.436,57.969,34.487
	 M66.69,37.213c-0.355-1.572-2.039-3.014-3.053-2.924c-0.942,0.082-2.677,1.752-2.881,2.721
	C59.723,32.04,67.158,31.461,66.69,37.213 M26.614,27.358c-0.35,0.305-0.65,0.66-0.897,1.049c-0.251,0.386-0.441,0.807-0.58,1.242
	c-0.069,0.219-0.116,0.438-0.156,0.668c-0.041,0.229-0.072,0.46-0.093,0.691c-0.04,0.464-0.049,0.933-0.029,1.399
	c0.023,0.467,0.072,0.934,0.158,1.396c0.167,0.924,0.47,1.826,0.9,2.679c-0.561-0.775-0.954-1.678-1.19-2.616
	c-0.117-0.47-0.198-0.95-0.236-1.435c-0.041-0.483-0.044-0.971-0.003-1.458c0.041-0.483,0.107-0.972,0.266-1.447
	c0.054-0.164,0.119-0.323,0.19-0.48c-0.309,0.362-0.555,0.765-0.722,1.195c-0.119,0.312-0.205,0.636-0.247,0.967
	c-0.024,0.165-0.039,0.332-0.045,0.499c-0.007,0.166,0.001,0.336,0.001,0.508c0.015,0.689,0.066,1.375,0.174,2.053
	c0.11,0.678,0.286,1.345,0.571,1.986c-0.429-0.561-0.702-1.234-0.878-1.922c-0.178-0.689-0.253-1.399-0.275-2.105
	c-0.016-0.35,0.001-0.724,0.062-1.08c0.066-0.358,0.174-0.711,0.336-1.038c0.017-0.035,0.038-0.069,0.056-0.104
	c-0.118,0.107-0.238,0.209-0.336,0.315c-0.175,0.188-0.268,0.417-0.341,0.671c-0.066,0.253-0.122,0.52-0.161,0.789
	c-0.044,0.269-0.072,0.54-0.091,0.812c-0.038,0.544-0.033,1.093,0.035,1.635c0.065,0.542,0.195,1.08,0.471,1.571
	c-0.391-0.413-0.613-0.968-0.749-1.521c-0.129-0.56-0.172-1.135-0.154-1.706c0.024-0.573,0.095-1.142,0.297-1.698
	c0.101-0.274,0.274-0.562,0.529-0.739c0.123-0.091,0.253-0.153,0.38-0.213l0.23-0.109c0.255-0.414,0.597-0.771,0.991-1.035
	c0.105-0.195,0.222-0.386,0.351-0.565c0.293-0.397,0.644-0.753,1.05-1.03c0.402-0.272,0.875-0.486,1.359-0.48
	C27.368,26.799,26.966,27.059,26.614,27.358 M25.362,30.359c-0.062,0.411-0.104,0.826-0.125,1.239
	C25.247,31.182,25.287,30.766,25.362,30.359 M27.844,33.557c0.059,0.36,0.521,1.805,0.722,2.703c0.009,0.11,0.017,0.221,0.024,0.331
	c-0.307-1.03-0.875-2.075-1.155-2.967c-0.281-0.893-0.514-3.025,0.721-3.451c0.271-0.093,0.354,0.23,0.553,0.142
	c0.174-0.079,0.295-0.516,0.445-0.702c0.638-0.796,1.827-0.302,1.871-0.283c0.033,0.093,0.063,0.184,0.085,0.271
	c-0.06,0.039-0.115,0.066-0.169,0.076c-0.196,0.038-0.904-0.229-1.224-0.083c-0.242,0.11-0.193,0.4-0.312,0.552
	c-0.169,0.215-0.191,0.409-0.478,0.497c-0.249,0.076-0.519-0.244-0.713-0.146C27.421,30.897,27.668,32.462,27.844,33.557
	 M58.921,67.406c-0.61,1.427-1.945,3.439-3.627,3.785c-0.023-0.084-0.045-0.166-0.068-0.249c-0.127-0.444-0.257-0.904-0.395-1.37
	c-0.001-0.414-0.007-0.823-0.028-1.229c-0.056-1.039-0.106-2.09-0.142-3.133c-0.027-0.806,0.084-1.613-0.264-2.344
	c-0.583-1.228-1.234-2.517-1.84-3.732c-0.64-1.286-1.479-1.256-2.775-1.061c-1.355,0.204-3.18-0.182-4.388-0.833
	c0.518,1.053,3.052,1.829,4.105,2.193c1.158,0.402,1.761,1.029,2.046,2.246c0.147,0.624,0.225,1.255,0.285,1.884l-0.47-0.477
	c-0.184-0.407-0.374-0.808-0.57-1.199c-0.437-0.862-1.981-1.84-2.291-1.777c-0.553-0.228-1.155-0.35-1.743-0.412
	c-1.203-0.123-2.44-0.148-3.619-0.424c-0.649-0.151-1.271-0.381-1.857-0.703c-0.492-0.271-1.324-0.321-2.717-0.856
	c0.435,0.997,2.233,2.132,3.278,2.624c-2.042-0.038-3.746-0.918-5.493-1.93c-0.83-0.481-1.78-0.854-2.685-1.116
	c-0.675-0.195-1.981-0.249-2.342-0.917c0.157-0.154,0.255-0.312,0.496-0.371c-1.031-0.621-2.271,0.46-3.302,0.072
	c-0.337-0.127-0.661-0.339-0.952-0.603c-0.229-0.354-0.397-0.756-0.482-1.22c-0.125-0.691-0.052-1.646,0.782-1.626
	c1.058,0.024,2.591,2.151,3.6,0.438c-0.932,0.667-1.942-0.09-2.662-1.215c-0.605-0.947-0.893-1.866-0.938-2.974
	c-0.115-2.878,1.145-5.413,1.54-8.199c0.171-1.203,0.329-2.434,0.228-3.675c-0.008-0.098-0.02-0.188-0.031-0.28
	c0.014-0.144,0.024-0.286,0.031-0.428c0.053-1.051-0.598-2.342-0.515-3.372c0.515-0.331,0.803,2.497,0.915,3.559
	c0.181-1.667,0.275-3.255,0.052-4.562c1.076-0.805,1.344,1.571,1.383,2.374c0.388-0.747,0.29-2.543,0.823-2.505
	c0.01,0.067,0.02,0.136,0.028,0.203c-0.009-0.067-0.019-0.136-0.027-0.202c0.009,0,0.018,0,0.025,0.002
	c0.335,0.875,0.821,2.606,0.727,3.931c-0.032,0.067-0.067,0.135-0.104,0.201c-0.538,0.988-0.956,1.812-1.274,2.916
	c-0.438,1.52-0.562,3.186-0.48,4.817c-0.043,0.478-0.062,0.958-0.084,1.407c-0.05,1.045-0.227,2.149-0.039,3.175
	c0.197-0.678,0.276-1.452,0.375-2.23c0.01,0.062,0.021,0.124,0.03,0.185c0.198,1.16,0.585,2.206,0.64,3.394
	c0.044,0.957,0.222,2.978-0.07,3.748c0.115-0.109,0,0,0,0c1.574-0.238,3.383-0.721,5.02-0.637c1.697,0.088,3.215,0.735,4.873,1.146
	c-0.223,0.193-0.711,0.529-0.854,0.622c1.137,0.135,2.348-0.277,3.404-0.494c1.095-0.227,2.12-0.438,3.253-0.495
	c1.193-0.062,2.197,0.191,3.322,0.428c0.646,0.136,1.272,0.489,1.917,0.72l-0.927,0.266c0.005,0.004,0.009,0.006,0.013,0.01
	c-0.02,0.002-0.041,0.003-0.062,0.007c0.038,0.011,0.078,0.021,0.117,0.029c0.743,0.507,2.322,0.625,3.184,0.362
	c0.411-0.125,0.945-0.396,1.419-0.749c0.839,0.549,1.518,1.754,1.904,2.536c0.652,1.315,1.121,2.415,1.342,3.886
	C60.307,63.264,59.809,65.333,58.921,67.406 M63.521,64.891c0.004-0.007-2.648-6.335-3.416-7.723
	c-0.651-1.175-1.2-2.122-2.022-3.014c0.405-0.524,0.605-1.281,1.05-2.583c0.396-1.158,0.405-2.301,0.407-3.537
	c0.001-1.091-0.099-2.167-0.336-3.197c-0.021-0.088-0.039-0.17-0.058-0.251c0.251,0.287,0.692,0.72,1.161,1.153
	c0.125,0.218,0.255,0.411,0.386,0.569c-0.128-1.751-0.263-4.022,0.43-5.527c0.521-1.136,0.359-1.781,0-2.972
	c-0.203-0.672,0.256-1.411,0.926-1.955c0.108-0.188,0.547-0.576,0.745-0.685c0.883-0.771,2.211,0.069,2.786,0.971
	c1.508,1.619,0.972,5.154,0.948,7.075c-0.015,1.36-0.038,2.649,0.443,3.705c-0.001-0.001-0.001-0.001-0.001-0.001
	c0.07-0.222,0.247-0.903,0.331-1.076c0.184-0.383,0.362-1.128,0.564-1.496c-0.009,0.04-0.018,0.448-0.027,0.489
	c-0.19,0.824-0.165,2.189-0.197,3.058c0.274,0.276,0.615,0.524,1.037,0.739c2.032,1.035,5.049,1.107,6.145,3.577
	c-0.581-0.854-1.008-1.394-1.995-1.774c-0.853-0.329-1.66-0.52-2.538-0.739c-1.624-0.408-3.581-1.007-4.252-2.641
	c-0.926-2.252,0.08-4.656,0.205-6.962c0.06-1.089,0.042-2.199-0.565-3.084c-0.124-0.181-0.356-0.465-0.625-0.74
	c0.32,0.47,0.522,1.01,0.543,1.425c0.001,0.021,0.001,0.042,0.001,0.063c0.122,0.633,0.09,1.268-0.001,1.753
	c-0.319,1.709-0.877,4.343-0.457,6.104c-0.973-1.685-0.877-3.977-0.62-5.713c0.043-0.948,0.12-1.902-0.077-2.777
	c0.037,0.411,0.014,0.825-0.054,1.186c-0.113,0.626-0.389,1.254-0.612,1.849c-0.225,0.594-0.412,1.41-0.412,2.404
	c-0.211-1.406,0.167-2.718,0.357-3.907c0.175-1.081,0.304-2.786-0.199-3.271c-0.541,0.128-1.348,0.823-1.348,1.691
	c0,1.195,0.832,2.23,0.346,4.173c-0.287,1.144-0.521,1.052-0.749,2.207c-0.396,2.019-0.748,5.782,1.106,7.313
	c-0.636-0.491-1.059-1.199-1.451-1.896c-0.21-0.375-0.372-0.771-0.49-1.181c0.167,2.111,0.327,3.091,2.017,4.678
	c1.731,1.628,3.697,2.014,5.867,1.578c0.044,0.072,0.091,0.141,0.141,0.205c-0.78,0.892-1.371,1.839-2.022,3.014
	C66.17,58.556,63.622,65.114,63.521,64.891 M99.179,48.879c-0.045,1.107-0.332,2.026-0.936,2.974
	c-0.722,1.125-1.56,1.635-2.662,1.215c1.007,1.714,2.539-0.413,3.598-0.438c0.833-0.02,0.906,0.935,0.781,1.626
	c-0.084,0.464-0.251,0.866-0.481,1.22c-0.291,0.264-0.614,0.476-0.952,0.603c-1.031,0.388-2.271-0.693-3.302-0.072
	c0.241,0.06,0.339,0.217,0.497,0.371c-0.36,0.668-1.668,0.722-2.343,0.917c-0.904,0.262-1.854,0.635-2.685,1.116
	c-1.747,1.012-3.451,1.892-5.493,1.93c1.046-0.492,2.731-1.923,3.53-2.944c-1.018,0.535-2.477,0.906-2.969,1.177
	c-0.587,0.322-1.208,0.552-1.857,0.703c-1.178,0.275-2.416,0.301-3.62,0.424c-0.587,0.062-3.227,0.479-4.032,2.189
	c-0.187,0.396-0.388,0.792-0.57,1.199l-0.926,2.767c0.06-0.63,0.594-3.55,0.74-4.174c0.284-1.217,0.887-1.844,2.046-2.246
	c1.054-0.364,3.588-1.141,4.105-2.193c-1.208,0.651-3.032,1.037-4.388,0.833c-1.297-0.195-2.136-0.226-2.775,1.061
	c-0.605,1.216-1.257,2.505-1.84,3.732c-0.349,0.73-0.237,1.538-0.264,2.344c-0.033,1.043-0.086,2.094-0.141,3.133
	c-0.022,0.402-0.418,2.167-0.423,2.592c0.076-0.265,0.292-1.008-0.001,0.007c-0.023,0.083-0.045,0.165-0.068,0.249
	c-1.681-0.346-3.017-2.358-3.627-3.785c-0.888-2.073-1.386-4.143-1.041-6.434c0.221-1.471,0.689-2.57,1.342-3.886
	c0.388-0.782,1.066-1.987,1.904-2.536c0.474,0.354,1.008,0.624,1.419,0.749c0.861,0.263,2.44,0.145,3.184-0.362
	c0.04-0.009,0.079-0.019,0.117-0.029c-0.021-0.004-0.042-0.005-0.062-0.007c0.003-0.004,0.009-0.006,0.013-0.01l-0.928-0.266
	c0.646-0.23,1.272-0.584,1.918-0.72c1.126-0.236,2.128-0.489,3.323-0.428c1.132,0.057,2.157,0.269,3.252,0.495
	c1.057,0.217,2.268,0.629,3.404,0.494c-0.143-0.093-0.631-0.429-0.854-0.622c1.657-0.41,3.176-1.058,4.873-1.146
	c1.631-0.084,3.49,0.354,4.998,0.633c-0.02-0.025-0.028-0.044,0.021,0.004c-0.292-0.771-0.114-2.791-0.07-3.748
	c0.055-1.188,0.441-2.233,0.64-3.394c0.011-0.061,0.021-0.123,0.03-0.185c0.099,0.778,0.178,1.553,0.375,2.23
	c0.188-1.025,0.011-2.13-0.039-3.175c-0.022-0.449-0.041-0.93-0.084-1.407c0.081-1.632-0.042-3.298-0.479-4.817
	c-0.319-1.104-0.737-1.928-1.275-2.916c-0.036-0.066-0.07-0.134-0.103-0.201c-0.096-1.324,0.39-3.056,0.726-3.931
	c0.009-0.002,0.018-0.002,0.026-0.002c-0.01,0.066-0.02,0.135-0.028,0.202c0.009-0.067,0.019-0.136,0.028-0.203
	c0.533-0.038,0.436,1.758,0.823,2.505c0.039-0.803,0.308-3.179,1.383-2.374c-0.223,1.307-0.129,2.895,0.052,4.562
	c0.111-1.062,0.4-3.89,0.915-3.559c0.083,1.03-0.567,2.321-0.515,3.372c0.007,0.142,0.019,0.284,0.032,0.428
	c-0.012,0.092-0.023,0.183-0.032,0.28c-0.102,1.241,0.057,2.472,0.229,3.675C98.034,43.466,99.295,46.001,99.179,48.879
	 M99.608,33.624c-0.28,0.892-0.848,1.937-1.155,2.967c0.008-0.11,0.016-0.221,0.025-0.331c0.199-0.898,0.662-2.343,0.721-2.703
	c0.177-1.095,0.423-2.659-0.37-3.061c-0.194-0.098-0.463,0.223-0.713,0.146c-0.286-0.088-0.309-0.282-0.477-0.497
	c-0.12-0.151-0.071-0.441-0.313-0.552c-0.319-0.146-1.026,0.121-1.224,0.083c-0.053-0.01-0.109-0.037-0.169-0.076
	c0.021-0.088,0.052-0.179,0.085-0.271c0.045-0.019,1.232-0.513,1.872,0.283c0.15,0.187,0.27,0.623,0.444,0.702
	c0.197,0.089,0.281-0.234,0.553-0.142C100.122,30.599,99.89,32.731,99.608,33.624 M104.239,34.276
	c-0.137,0.553-0.358,1.107-0.749,1.521c0.275-0.491,0.404-1.029,0.471-1.571c0.068-0.542,0.073-1.091,0.036-1.635
	c-0.021-0.271-0.048-0.543-0.093-0.812c-0.037-0.27-0.094-0.536-0.16-0.789c-0.073-0.254-0.166-0.483-0.341-0.671
	c-0.099-0.106-0.218-0.208-0.336-0.315c0.018,0.035,0.038,0.069,0.056,0.104c0.163,0.327,0.269,0.68,0.335,1.038
	c0.061,0.356,0.077,0.73,0.062,1.08c-0.023,0.706-0.099,1.416-0.275,2.105c-0.175,0.688-0.449,1.361-0.878,1.922
	c0.285-0.642,0.46-1.309,0.57-1.986c0.108-0.678,0.16-1.363,0.175-2.053c0.001-0.172,0.008-0.342,0.002-0.508
	c-0.006-0.167-0.021-0.334-0.045-0.499c-0.043-0.331-0.129-0.654-0.247-0.967c-0.168-0.431-0.414-0.833-0.723-1.195
	c0.071,0.157,0.137,0.316,0.19,0.48c0.158,0.476,0.226,0.964,0.266,1.447c0.041,0.487,0.038,0.975-0.004,1.458
	c-0.037,0.484-0.118,0.965-0.235,1.435c-0.236,0.938-0.629,1.841-1.19,2.616c0.431-0.853,0.733-1.755,0.9-2.679
	c0.086-0.462,0.135-0.929,0.158-1.396c0.021-0.467,0.011-0.936-0.03-1.399c-0.021-0.231-0.052-0.463-0.092-0.691
	c-0.04-0.23-0.087-0.449-0.156-0.668c-0.138-0.436-0.329-0.856-0.581-1.242c-0.246-0.389-0.547-0.744-0.896-1.049
	c-0.352-0.3-0.754-0.56-1.223-0.659c0.486-0.006,0.956,0.208,1.359,0.48c0.407,0.277,0.757,0.633,1.05,1.03
	c0.129,0.18,0.245,0.37,0.351,0.565c0.396,0.265,0.735,0.621,0.991,1.035l0.229,0.109c0.128,0.06,0.259,0.122,0.381,0.213
	c0.256,0.178,0.429,0.465,0.529,0.739c0.201,0.557,0.271,1.125,0.297,1.698C104.411,33.142,104.368,33.717,104.239,34.276
	 M101.681,30.359c0.076,0.406,0.116,0.822,0.125,1.239C101.784,31.186,101.742,30.771,101.681,30.359"/>
<path fill="#424242" d="M50.102,71.91c-4.093-0.629-7.725-1.482-10.735-2.326c-3.012-0.843-5.405-1.669-7.06-2.243
	c-1.653-0.576-2.575-0.896-2.621-0.804c-0.044,0.085,0.794,0.574,2.388,1.314c1.597,0.733,3.955,1.713,6.965,2.691
	c3.009,0.979,6.674,1.949,10.825,2.66c4.149,0.713,8.784,1.16,13.658,1.159c4.872,0.001,9.507-0.443,13.655-1.156
	c4.152-0.712,7.816-1.68,10.825-2.66c3.012-0.979,5.37-1.959,6.967-2.693c1.595-0.74,2.433-1.23,2.389-1.315
	c-0.046-0.093-0.967,0.229-2.622,0.806c-1.655,0.573-4.049,1.401-7.062,2.244c-3.01,0.845-6.644,1.698-10.734,2.326
	c-4.09,0.628-8.638,1.025-13.418,1.024C58.741,72.938,54.191,72.54,50.102,71.91"/>
<path fill="#424242" stroke="#FFFFFF" stroke-miterlimit="10" d="M32.508,75.873c1.192,0.265,1.789,0.463,1.789,0.596
	c0,0.089-0.067,0.199-0.199,0.331c-0.265,0.31-0.486,0.751-0.662,1.324h1.523c0.043,0,0.109-0.087,0.199-0.265
	c0.221-0.265,0.374-0.396,0.464-0.396c0.883,0.354,1.435,0.751,1.656,1.191c0,0.09-0.09,0.177-0.266,0.266
	c-0.222,0.044-0.354,0.133-0.397,0.265l-0.066,0.198c-0.486,1.37-0.817,2.386-0.993,3.048h0.198
	c0.044-0.043,0.108-0.109,0.199-0.198c0.132-0.133,0.242-0.199,0.33-0.199c0.884,0.222,1.436,0.574,1.656,1.06
	c0,0.045-0.065,0.111-0.198,0.199c-0.177,0.088-0.287,0.177-0.331,0.265c-0.045,0.354-0.09,0.619-0.132,0.795h1.788v-1.854h-1.06
	c-0.487-0.133-0.619-0.222-0.397-0.265h1.457v-1.789h-2.054c-0.132,0-0.265-0.065-0.397-0.198c-0.045-0.089,0-0.133,0.133-0.133
	h2.318v-1.656h-1.192c-0.486-0.133-0.596-0.221-0.332-0.265h1.524v-1.723c-0.089-0.485,0.132-0.685,0.661-0.596
	c0.973,0.088,1.436,0.221,1.393,0.397c0,0.044-0.023,0.11-0.066,0.198c-0.132,0.177-0.199,0.31-0.199,0.397v1.325h0.597l0.134-0.199
	c0.264-0.441,0.462-0.662,0.595-0.662c0.795,0.221,1.413,0.596,1.854,1.126c0,0.088-0.065,0.177-0.198,0.265
	c-0.133,0.133-0.198,0.221-0.198,0.266v1.126l0.198-0.199c0.221-0.265,0.375-0.397,0.464-0.397c0.309,0.089,0.596,0.354,0.861,0.795
	c0.043,0.089-0.155,0.133-0.598,0.133h-0.926v1.921c0.087,0.487-0.354,0.751-1.325,0.795c-0.397,0-0.619-0.132-0.663-0.397v-0.265
	h-0.795v1.854h0.862c0.087,0,0.22-0.154,0.397-0.464c0.22-0.353,0.396-0.53,0.529-0.53c0.618,0.223,1.104,0.62,1.457,1.193
	c0.089,0.044-0.198,0.066-0.86,0.066h-2.386v1.788h1.325c0.088,0,0.242-0.154,0.464-0.464c0.265-0.354,0.464-0.53,0.597-0.53
	c0.397,0.133,0.838,0.509,1.323,1.126c0.178,0.09-0.131,0.133-0.926,0.133h-2.783v2.385c1.061,0.045,2.142,0.045,3.246,0
	c0.619-0.043,0.905-0.043,0.861,0c0,0.045-0.066,0.134-0.198,0.266c-0.31,0.176-0.553,0.375-0.729,0.596
	c-0.089,0.133-0.154,0.331-0.198,0.596c-0.044,0.222-0.089,0.354-0.133,0.398c-1.148,0.133-3.069-0.045-5.764-0.53
	c-0.794-0.177-1.589-0.619-2.384-1.325c-0.397,0.441-1.127,0.994-2.187,1.657c-0.354,0.265-0.554,0.374-0.596,0.331
	c-0.045-0.045,0.087-0.244,0.397-0.597c0.705-0.884,1.214-1.723,1.523-2.517c-0.397-0.84-0.686-1.922-0.861-3.247
	c-0.045-0.265-0.023-0.419,0.066-0.463c0.088-0.044,0.153,0.065,0.198,0.331c0.309,0.795,0.685,1.523,1.127,2.186
	c0.353-1.06,0.507-2.385,0.463-3.975h-0.198c-0.31,0.486-0.553,0.729-0.729,0.729c-0.662-0.266-1.037-0.617-1.126-1.06
	c0-0.043,0.021-0.088,0.066-0.133c0.176-0.176,0.331-0.441,0.464-0.795c0.088-0.265,0.242-0.795,0.463-1.59
	c0.178-0.573,0.332-1.06,0.465-1.457h-1.723c-0.089,0.177-0.243,0.53-0.464,1.06c-0.222,0.486-0.376,0.84-0.464,1.06
	c0.441,0.045,0.662,0.111,0.662,0.2c0,0.043-0.022,0.109-0.065,0.197c-0.089,0.133-0.155,0.266-0.199,0.398v8.943
	c-0.045,0.352-0.42,0.551-1.126,0.596c-0.441,0.088-0.64-0.066-0.596-0.464v-7.419c-0.397,0.529-0.753,0.95-1.061,1.258
	c-0.265,0.266-0.397,0.377-0.397,0.332c-0.044,0,0-0.155,0.133-0.465c1.016-2.163,1.655-4.725,1.921-7.684
	c0-0.353,0.044-0.553,0.133-0.596C31.89,75.784,32.11,75.784,32.508,75.873 M36.813,86.67c-0.044,0.09-0.111,0.265-0.198,0.529
	c-0.132,0.398-0.222,0.621-0.265,0.663c0.97,0.574,1.876,0.951,2.716,1.127V86.67H36.813z M39.066,84.617h-1.788
	c-0.045,0.221-0.133,0.618-0.266,1.191c-0.045,0.266-0.09,0.465-0.132,0.597h2.186V84.617z M41.649,78.456h-0.795v1.656h0.795
	V78.456z M41.649,80.443h-0.795v1.789h0.795V80.443z"/>
<path fill="#424242" stroke="#FFFFFF" stroke-miterlimit="10" d="M51.648,75.541c1.324,0.089,1.987,0.288,1.987,0.597l-0.134,0.065
	c-0.176,0.09-0.33,0.178-0.463,0.266c-0.397,0.265-0.773,0.662-1.126,1.192h2.054c0.088,0,0.22-0.133,0.397-0.397
	c0.22-0.354,0.397-0.53,0.53-0.53c0.97,0.31,1.678,0.817,2.12,1.523c0,0.133-0.111,0.287-0.332,0.464
	c-0.177,0.133-0.266,0.221-0.266,0.266v3.775l0.067-0.066c0.573-0.662,0.949-1.192,1.126-1.59c0.308-0.795,0.729-0.928,1.258-0.397
	c0.884,0.619,1.303,1.039,1.259,1.259c-0.044,0.089-0.132,0.155-0.265,0.199c-0.177,0-0.354,0.089-0.529,0.265
	c-0.222,0.222-0.575,0.553-1.061,0.993c-1.104,1.017-1.722,1.613-1.855,1.789v4.24c0.089,1.235-0.706,1.854-2.384,1.854
	c-0.397,0-0.596-0.155-0.596-0.464c-0.046-0.574-0.421-0.972-1.127-1.192l-0.397-0.198c0-0.045,0.154-0.066,0.464-0.066
	c1.458,0.132,2.142-0.066,2.054-0.596v-2.319c-3.401,2.032-6.185,3.024-8.348,2.981c3.18-1.148,5.896-2.672,8.148-4.572h-8.943
	c-0.132,0-0.242-0.065-0.331-0.198c-0.044-0.088,0-0.132,0.133-0.132h2.981v-6.89c0-0.618,0.374-0.706,1.126-0.266
	c0.308,0.178,0.507,0.266,0.596,0.266h1.193v-1.656C50.896,75.564,51.118,75.409,51.648,75.541 M50.522,77.992
	c-0.443-0.044-0.642,0.132-0.597,0.529v1.524h4.438v-2.054H50.522z M49.926,82.298h4.438v-1.921h-4.438V82.298z M49.926,84.551
	h4.505v-1.987h-4.505V84.551z"/>
<g>
	<path fill="#424242" d="M60.013,91.302v-1.838h0.752c0.304,0,0.707-0.045,0.911-0.261c0.139-0.146,0.199-0.389,0.182-0.721
		l-0.001-8.578c0.021-0.427-0.048-0.713-0.202-0.874c-0.141-0.147-0.388-0.223-0.734-0.223l-0.907,0.004v-1.838h7.791v1.838h-0.836
		c-0.848,0-1.178,0.307-1.178,1.093v8.467c-0.02,0.413,0.048,0.692,0.202,0.854c0.153,0.161,0.427,0.243,0.812,0.243l0.999-0.004
		v1.838H60.013z"/>
	<path fill="#FFFFFF" d="M67.304,77.474v0.838h-0.336c-1.119,0-1.678,0.531-1.678,1.593v8.467c-0.053,1.064,0.452,1.597,1.515,1.597
		c0.054,0,0.107-0.001,0.163-0.004h0.336v0.838h-6.791v-0.838h0.252c1.117,0,1.646-0.504,1.592-1.509v-8.551
		c0.052-1.064-0.426-1.597-1.437-1.597c-0.051,0-0.103,0.001-0.155,0.004h-0.252v-0.838H67.304 M68.304,76.474h-1h-6.791h-1v1v0.838
		v1h1h0.252c0.086-0.003,0.121-0.004,0.155-0.004c0.256,0,0.359,0.053,0.373,0.067c0.021,0.023,0.08,0.16,0.064,0.48l-0.001,8.6
		v0.027l0.002,0.027c0.012,0.233-0.029,0.333-0.045,0.35c-0.028,0.029-0.18,0.104-0.549,0.104h-0.252h-1v1v0.838v1h1h6.791h1v-1
		v-0.838v-1h-1h-0.336c-0.087,0.003-0.125,0.004-0.163,0.004c-0.301,0-0.427-0.063-0.45-0.088s-0.081-0.155-0.065-0.459l0.001-8.517
		c0-0.422,0.026-0.593,0.678-0.593h0.336h1v-1v-0.838V76.474L68.304,76.474z"/>
</g>
<g>
	<path fill="#424242" d="M81.925,91.302l-9.515-9.904v6.806c-0.039,0.467,0.029,0.776,0.2,0.963
		c0.189,0.206,0.542,0.312,1.049,0.312c0.099,0,0.202-0.004,0.311-0.013l0.537-0.04v1.877H68.31v-1.838h0.667
		c0.467,0,0.796-0.088,0.953-0.255c0.041-0.044,0.164-0.175,0.141-0.557l-0.001-9.622c-0.326-0.146-0.721-0.219-1.177-0.219h-0.5
		v-1.838h5.072l8.089,8.397v-5.216c0.062-0.549,0.003-0.898-0.173-1.097c-0.161-0.182-0.459-0.273-0.885-0.273
		c-0.124,0-0.258,0.008-0.399,0.023l-0.807,0.003v-1.838h6.532v1.838h-0.751l-0.233-0.006c-0.665,0-0.884,0.159-0.947,0.227
		c-0.041,0.045-0.096,0.129-0.08,0.333l0.001,11.937H81.925z"/>
	<path fill="#FFFFFF" d="M85.322,77.474v0.838h-0.251c-0.081-0.004-0.158-0.005-0.233-0.005c-1.071,0-1.579,0.363-1.526,1.095v11.4
		h-1.174L71.91,80.155v8.048c-0.104,1.182,0.48,1.774,1.749,1.774c0.11,0,0.227-0.005,0.348-0.014v0.838H68.81v-0.838h0.167
		c1.117,0,1.647-0.447,1.593-1.342V78.73c-0.448-0.279-1.006-0.419-1.677-0.419v-0.838h4.359l8.802,9.137v-6.455
		c0.15-1.246-0.369-1.87-1.557-1.87c-0.143,0-0.294,0.009-0.455,0.026H79.79v-0.838H85.322 M86.322,76.474h-1H79.79h-1v1v0.838v1h1
		h0.252h0.055l0.056-0.006c0.122-0.014,0.236-0.021,0.344-0.021c0.33,0,0.479,0.068,0.511,0.105c0.04,0.045,0.104,0.238,0.054,0.646
		l-0.007,0.06v0.06v3.976l-7.082-7.351l-0.295-0.307h-0.425h-4.359h-1v1v0.838v1h1c0.251,0,0.478,0.025,0.677,0.075v9.235v0.03
		l0.002,0.031c0.007,0.116-0.008,0.178-0.014,0.193c0,0,0,0-0.001,0c-0.008,0-0.148,0.087-0.58,0.087H68.81h-1v1v0.838v1h1h5.197h1
		v-1v-0.838v-1.077l-1.074,0.08c-0.096,0.007-0.187,0.011-0.273,0.011c-0.401,0-0.617-0.081-0.681-0.149
		c-0.053-0.058-0.099-0.229-0.072-0.538l0.004-0.043v-0.044V82.64l8.507,8.854l0.295,0.308h0.426h1.174h1v-1v-11.4v-0.036v-0.002
		c0.084-0.025,0.245-0.057,0.526-0.057c0.061,0,0.124,0.001,0.188,0.004l0.296,0.001h1v-1v-0.838V76.474L86.322,76.474z"/>
</g>
<g>
	<path fill="#424242" d="M92.935,91.47c-5.485-0.12-8.357-2.651-8.536-7.523c0.358-4.573,3.14-7.012,8.267-7.308
		c0.002,0,0.005,0,0.007,0c1.01,0,2.231,0.174,3.659,0.516c0.83,0.227,1.025,0.238,1.057,0.238c0.066,0,0.113-0.005,0.146-0.01
		l0.08-0.242h1.448v4.856h-1.71l-0.106-0.356c-0.608-2.022-1.909-3.03-3.977-3.08c-2.932,0.204-4.479,1.97-4.687,5.397
		c0.208,3.486,1.759,5.335,4.741,5.591c0.69-0.002,1.305-0.108,1.805-0.319v-2.765l0.015-0.06c0.046-0.184-0.005-0.249-0.029-0.28
		c-0.08-0.104-0.475-0.439-2.168-0.439h-0.5v-1.839h8.126v1.866l-0.672-0.032c-0.232,0-0.543,0.034-0.695,0.196
		c-0.112,0.119-0.16,0.328-0.144,0.62l0.001,3.55l-0.31,0.127c-1.944,0.802-3.893,1.237-5.791,1.296h-0.014H92.935z"/>
	<path fill="#FFFFFF" d="M92.693,77.138c0.95,0,2.123,0.168,3.521,0.503c0.613,0.168,1.005,0.252,1.173,0.252
		c0.336,0,0.531-0.084,0.587-0.252h0.587v3.856h-0.838c-0.672-2.234-2.152-3.381-4.443-3.437c-3.241,0.224-4.975,2.179-5.197,5.867
		c0.223,3.801,1.956,5.841,5.197,6.119c0.95,0,1.731-0.168,2.348-0.503v-3.018c0.223-0.893-0.671-1.341-2.683-1.341v-0.839h7.126
		v0.839c-0.059-0.003-0.116-0.005-0.172-0.005c-0.945,0-1.391,0.449-1.338,1.346v3.186c-1.9,0.783-3.771,1.201-5.616,1.258
		c-5.198-0.113-7.879-2.46-8.047-7.042C85.234,79.682,87.832,77.418,92.693,77.138 M92.693,76.138h-0.028l-0.029,0.002
		c-6.745,0.389-8.473,4.407-8.734,7.709l-0.004,0.058l0.002,0.059c0.131,3.564,1.802,7.848,9.024,8.005h0.026l0.025-0.001
		c1.96-0.06,3.967-0.508,5.967-1.332l0.619-0.255v-0.67v-3.186v-0.029l-0.002-0.029c-0.012-0.196,0.021-0.265,0.021-0.266
		c-0.001,0.003,0.002,0.004,0.008,0.004c0.028,0,0.131-0.025,0.311-0.025c0.039,0,0.079,0.001,0.119,0.004l1.053,0.055v-1.054
		v-0.839v-1h-1h-7.126h-1v1v0.839v1h1c1.039,0,1.503,0.132,1.687,0.21l-0.004,0.131v2.352c-0.371,0.109-0.808,0.166-1.305,0.169
		c-1.705-0.155-3.969-0.871-4.238-5.118c0.204-3.118,1.545-4.666,4.217-4.867c1.822,0.059,2.924,0.925,3.464,2.724l0.215,0.712
		h0.743h0.838h1v-1v-3.856v-1h-1h-0.587h-0.722l-0.07,0.213c-0.14-0.03-0.362-0.084-0.703-0.178
		C94.958,76.312,93.729,76.138,92.693,76.138L92.693,76.138z"/>
</g>
</svg>
