<?xml version="1.0" encoding="utf-8"?>
<!-- Generator: Adobe Illustrator 16.0.0, SVG Export Plug-In . SVG Version: 6.00 Build 0)  -->
<!DOCTYPE svg PUBLIC "-//W3C//DTD SVG 1.1//EN" "http://www.w3.org/Graphics/SVG/1.1/DTD/svg11.dtd">
<svg version="1.1" id="Layer_1" xmlns="http://www.w3.org/2000/svg" xmlns:xlink="http://www.w3.org/1999/xlink" x="0px" y="0px"
	 width="126.877px" height="112.438px" viewBox="0 0 126.877 112.438" enable-background="new 0 0 126.877 112.438"
	 xml:space="preserve">
<rect fill="#FFFFFF" width="126.877" height="112.438"/>
<path fill="#EA5514" stroke="#000000" stroke-miterlimit="10" d="M95.277,51.489c-4.838,5.705-16.392,9.633-30.215,9.633
	s-25.384-3.929-30.214-9.633l-1.06,12.131c0,3.351,2.718,6.062,6.069,6.062h50.409c3.351,0,6.062-2.711,6.062-6.062L95.277,51.489z"
	/>
<path fill="#F7F8F8" stroke="#000000" stroke-miterlimit="10" d="M94.816,46.177c0-3.351-2.718-6.069-6.062-6.069H80.42v-1.803
	c0-7.17-4.588-13.005-10.23-13.005H59.083c-5.643,0-10.231,5.835-10.231,13.005v1.803h-7.48c-3.351,0-6.061,2.718-6.061,6.069
	l-0.139,1.583c2.566,6.207,15.208,11.092,29.891,11.092c14.685,0,27.324-4.885,29.891-11.092L94.816,46.177z M65.062,55.143
	c-1.341,0-2.429-1.087-2.429-2.429c0-1.335,1.088-2.422,2.429-2.422c1.335,0,2.423,1.087,2.423,2.422
	C67.485,54.056,66.397,55.143,65.062,55.143z M77.393,40.108H51.887v-1.803c0-5.498,3.227-9.97,7.196-9.97h11.106
	c3.969,0,7.203,4.472,7.203,9.97V40.108z"/>
<g>
	<g>
		<path d="M40.98,89.029c-0.585,0-1.73-0.076-3.83-0.255c-1.252-0.227-1.958-0.414-2.338-0.614L34.508,88l0.042-0.342
			c0.266-2.198,0.575-4.028,0.947-5.594l0.114-0.48l0.481,0.108c0.306,0.068,0.646,0.118,0.987,0.152l0.505,0.05
			c0,0-0.122,1.065-0.148,1.319c0.553-0.016,1.178-0.028,1.873-0.042l0.94-0.02c-0.021-0.382-0.032-0.782-0.037-1.219
			c-1.641-0.149-3.312-0.297-5.028-0.446l-0.457-0.04v-0.458c0-0.398,0.039-0.805,0.115-1.211l0.079-0.424l0.432,0.017
			c3.35,0.128,5.504,0.29,6.586,0.495l0.344,0.065l0.057,0.345c0.113,0.687,0.169,1.375,0.169,2.102
			c0,1.082-0.048,1.952-0.135,2.449l-0.062,0.362l-0.364,0.048c-0.648,0.086-2.119,0.126-4.743,0.13
			c-0.048,0.417-0.09,0.829-0.132,1.24c0.824,0.088,1.677,0.167,2.559,0.247c0.045-0.199,0.104-0.4,0.166-0.613l0.119-0.405
			l0.419,0.049c0.364,0.043,0.71,0.105,1.056,0.192l0.402,0.101l-0.024,0.414c-0.041,0.692-0.143,1.383-0.302,2.053l-0.092,0.384
			H40.98z M44.516,83.04c-0.311,0-0.813-0.105-1.181-0.193l-0.406-0.098l0.024-0.418c0.078-1.318,0.157-2.542,0.247-3.647
			c-2.022-0.181-4.515-0.445-7.765-0.824c-0.683,1.011-1.355,1.938-2.052,2.825l-0.15,0.191H32.99c-0.163,0-0.352-0.055-0.789-0.329
			c-0.383-0.202-0.595-0.399-0.678-0.642l-0.072-0.212l0.111-0.195c0.967-1.704,2.196-3.6,3.655-5.636l0.249-0.348l0.382,0.192
			c0.437,0.22,0.812,0.456,1.148,0.723l0.336,0.266c0,0-0.549,0.967-0.642,1.13c2.717,0.153,5.579,0.424,8.521,0.809l0.436,0.057
			v0.439c0,0.529-0.064,1.343-0.201,2.563c-0.074,0.885-0.223,1.882-0.44,2.948l-0.082,0.4H44.516z"/>
		<path fill="#FFFFFF" d="M35.624,74.152c0.359,0.181,0.721,0.396,1.062,0.667c-0.287,0.505-0.558,0.992-0.847,1.461
			c3.03,0.145,6.134,0.433,9.308,0.848c0,0.542-0.072,1.389-0.198,2.507c-0.072,0.866-0.216,1.84-0.434,2.904
			c-0.179,0-0.54-0.054-1.063-0.18c0.09-1.515,0.181-2.905,0.288-4.131c-2.309-0.198-5.158-0.505-8.55-0.902
			c-0.686,1.028-1.407,2.039-2.2,3.049c-0.072,0-0.235-0.072-0.523-0.253c-0.271-0.144-0.433-0.27-0.47-0.379
			C32.918,78.121,34.125,76.245,35.624,74.152 M35.334,79.871c3.302,0.126,5.466,0.289,6.513,0.487
			c0.107,0.65,0.162,1.317,0.162,2.021c0,1.154-0.055,1.948-0.127,2.363c-0.684,0.09-2.381,0.126-5.121,0.126
			c-0.092,0.739-0.163,1.461-0.235,2.183c1.118,0.126,2.291,0.234,3.518,0.343c0.035-0.325,0.127-0.649,0.233-1.011
			c0.308,0.036,0.632,0.09,0.993,0.181c-0.036,0.613-0.126,1.281-0.289,1.966c-0.612,0-1.876-0.09-3.788-0.253
			c-1.083-0.198-1.804-0.378-2.146-0.559c0.253-2.092,0.561-3.951,0.938-5.538c0.324,0.073,0.686,0.126,1.047,0.162
			c-0.054,0.469-0.108,0.938-0.145,1.39c1.01-0.037,2.309-0.055,3.896-0.09c-0.055-0.722-0.072-1.443-0.072-2.165
			c-1.786-0.163-3.607-0.325-5.482-0.487C35.228,80.628,35.263,80.25,35.334,79.871 M35.31,72.875l-0.498,0.695
			c-1.47,2.051-2.709,3.962-3.685,5.681l-0.222,0.391l0.146,0.425c0.155,0.457,0.546,0.723,0.915,0.922
			c0.453,0.281,0.733,0.387,1.024,0.387h0.486l0.3-0.382c0.161-0.205,0.32-0.412,0.479-0.621c-0.019,0.207-0.028,0.413-0.028,0.617
			v0.917l0.777,0.067c-0.374,1.579-0.686,3.418-0.952,5.624l-0.082,0.684l0.609,0.321c0.432,0.228,1.159,0.424,2.433,0.658
			l0.047,0.008l0.048,0.004c2.115,0.18,3.273,0.256,3.873,0.256h0.79l0.183-0.769c0.166-0.698,0.272-1.417,0.314-2.139l0.049-0.828
			l-0.266-0.066l0.69-0.091l0.126-0.724c0.065-0.374,0.109-0.938,0.129-1.633l0.222,0.053c0.572,0.138,1.009,0.208,1.298,0.208
			h0.816l0.163-0.799c0.223-1.085,0.374-2.102,0.45-3.021c0.137-1.21,0.202-2.042,0.202-2.59v-0.878l-0.87-0.114
			c-2.666-0.349-5.267-0.604-7.755-0.764l0.033-0.06l0.424-0.745l-0.672-0.533c-0.363-0.288-0.767-0.542-1.234-0.777L35.31,72.875
			L35.31,72.875z M35.348,78.871c0.11-0.158,0.221-0.318,0.331-0.479c2.854,0.331,5.113,0.572,6.984,0.746
			c-0.009,0.115-0.018,0.232-0.026,0.353l-0.604-0.114c-1.106-0.209-3.285-0.375-6.66-0.503L35.348,78.871L35.348,78.871z
			 M37.996,82.699c0.006-0.055,0.013-0.11,0.019-0.165l0.009-0.079l0.025-0.215c0.561,0.05,1.118,0.1,1.672,0.15
			c0.002,0.092,0.005,0.183,0.008,0.272L39.3,82.672C38.833,82.681,38.398,82.69,37.996,82.699L37.996,82.699z M37.652,85.866
			c0.654-0.002,1.231-0.007,1.738-0.015L39.317,86.1c-0.022,0.074-0.043,0.146-0.063,0.218c-0.58-0.053-1.119-0.104-1.633-0.156
			C37.631,86.063,37.642,85.965,37.652,85.866L37.652,85.866z"/>
	</g>
	<g>
		<path d="M50.466,88.334c-0.309-0.392-0.527-0.758-0.668-1.121l-0.138-0.355l0.305-0.227c0.783-0.584,1.6-1.042,2.494-1.399
			l0.368-0.147l0.228,0.325c0.286,0.411,0.485,0.797,0.606,1.182l0.099,0.311l-0.245,0.215c-0.773,0.681-1.624,1.148-2.527,1.389
			l-0.318,0.085L50.466,88.334z M59.354,88.38c-1.681,0-2.813-0.095-3.462-0.292l-0.254-0.077l-0.079-0.254
			c-0.154-0.496-0.253-1.251-0.312-2.377c-0.073-0.865-0.109-1.575-0.109-2.154v-0.401l0.392-0.087
			c0.174-0.038,0.402-0.077,0.691-0.116c0.034,0,0.067,0,0.099,0c0.312,0,0.508,0.02,0.637,0.039l0.38,0.056l0.044,0.382
			c0.118,1.04,0.183,2.051,0.198,3.08c0.572,0.044,1.167,0.066,1.775,0.066c0.492,0,0.959-0.019,1.395-0.057l-0.072-1.733
			c-0.227-0.016-1.291-0.097-1.296-0.097c-0.488,0-0.975-0.072-1.454-0.22l-0.271-0.083l-0.067-0.276
			c-0.057-0.232-0.087-0.454-0.087-0.642c0-0.237,0.029-0.448,0.093-0.664l0.104-0.359h0.375c1.787,0,3.279,0.105,4.437,0.314
			l0.353,0.063l0.053,0.354c0.127,0.846,0.187,1.529,0.187,2.149c0,1.141-0.027,2.135-0.074,2.66l-0.03,0.337l-0.323,0.098
			C62.025,88.285,60.938,88.38,59.354,88.38z M52.266,83.167c-0.401,0-0.934-0.011-1.483-0.096c-0.431-0.013-0.93-0.071-1.425-0.165
			l-0.406-0.078v-0.414c0-0.423,0.039-0.87,0.115-1.327l0.075-0.449l0.453,0.033c1.125,0.08,2.092,0.175,2.953,0.292l0.51,0.069
			l-0.118,0.743c-0.018,0.125-0.034,0.24-0.057,0.356c-0.04,0.315-0.081,0.551-0.157,0.73l-0.129,0.305H52.266z M61.231,81.85
			c-2.381,0-4.742-0.209-7.017-0.621l-0.606-0.11l0.232-0.571c0.86-2.118,1.847-4.034,2.931-5.695l0.199-0.305l0.352,0.096
			c0.438,0.12,0.86,0.276,1.255,0.464l0.483,0.23l-0.263,0.466c-0.769,1.364-1.404,2.519-1.968,3.578
			c1.396,0.183,2.905,0.321,4.592,0.422l0.406,0.024c-0.36-0.655-0.664-1.321-0.905-1.988l-0.152-0.418l0.398-0.199
			c0.367-0.184,0.733-0.325,1.118-0.432l0.361-0.1l0.197,0.319c0.336,0.542,0.616,1.085,0.87,1.591
			c0.238,0.443,0.465,0.932,0.685,1.481l0.144,0.357l-0.309,0.23c-0.339,0.253-0.752,0.434-1.194,0.522l-0.328,0.066l-0.186-0.279
			c-0.228-0.341-0.439-0.687-0.635-1.034v0.36c0,0.406-0.061,0.797-0.184,1.194L61.6,81.85H61.231z M53.263,78.205
			c-1.226-0.077-2.33-0.453-3.284-1.116l-0.276-0.192l0.073-0.328c0.097-0.433,0.238-0.835,0.42-1.198l0.16-0.318l0.354,0.047
			c1.02,0.137,2.118,0.506,3.265,1.098l0.359,0.186l-0.106,0.391c-0.121,0.442-0.286,0.832-0.506,1.192l-0.156,0.258L53.263,78.205z
			"/>
		<path fill="#FFFFFF" d="M57.19,75.126c0.396,0.108,0.793,0.252,1.172,0.433c-0.793,1.407-1.57,2.814-2.309,4.221
			c1.731,0.252,3.518,0.415,5.339,0.523c0,0.361-0.055,0.704-0.161,1.046c-2.328,0-4.638-0.198-6.928-0.613
			C55.169,78.608,56.143,76.732,57.19,75.126 M50.643,75.596c0.937,0.126,1.982,0.469,3.102,1.046
			c-0.108,0.396-0.253,0.74-0.45,1.064c-1.138-0.072-2.148-0.415-3.03-1.028C50.353,76.281,50.479,75.92,50.643,75.596
			 M62.421,77.273c0.324,0.523,0.595,1.046,0.848,1.552c0.271,0.504,0.487,0.992,0.668,1.443c-0.289,0.216-0.632,0.36-0.993,0.433
			c-0.649-0.974-1.172-1.984-1.551-3.03C61.754,77.49,62.096,77.363,62.421,77.273 M49.56,81.17
			c1.009,0.072,1.984,0.162,2.922,0.289c-0.035,0.216-0.055,0.396-0.09,0.577c-0.037,0.289-0.072,0.504-0.126,0.631
			c-0.469,0-0.938-0.018-1.407-0.09c-0.469-0.018-0.938-0.073-1.407-0.162C49.451,82.017,49.487,81.602,49.56,81.17 M58.073,82.613
			c1.805,0,3.247,0.108,4.348,0.306c0.108,0.722,0.181,1.407,0.181,2.075c0,1.353-0.037,2.219-0.072,2.616
			c-0.595,0.18-1.659,0.27-3.176,0.27c-1.623,0-2.723-0.09-3.317-0.27c-0.146-0.469-0.235-1.209-0.29-2.255
			c-0.071-0.848-0.108-1.551-0.108-2.128c0.163-0.036,0.379-0.072,0.65-0.109c0.271,0,0.469,0.019,0.595,0.037
			c0.127,1.118,0.198,2.272,0.198,3.481c0.722,0.072,1.479,0.108,2.272,0.108c0.687,0,1.335-0.037,1.913-0.108
			c-0.035-0.866-0.072-1.75-0.109-2.651c-0.63-0.037-1.207-0.09-1.73-0.126c-0.433,0-0.884-0.054-1.354-0.199
			c-0.053-0.216-0.072-0.396-0.072-0.523C58.001,82.955,58.021,82.793,58.073,82.613 M52.645,85.697
			c0.252,0.361,0.432,0.704,0.54,1.046c-0.738,0.649-1.514,1.064-2.326,1.281c-0.271-0.343-0.469-0.668-0.595-0.992
			C51.039,86.455,51.832,86.022,52.645,85.697 M56.751,73.97l-0.398,0.61c-1.101,1.688-2.103,3.632-2.976,5.78l-0.081,0.199
			l-0.681-0.092c-0.873-0.118-1.849-0.214-2.984-0.295l-0.907-0.064l-0.15,0.897c-0.081,0.484-0.122,0.959-0.122,1.41v0.827
			l0.812,0.155c0.501,0.095,1.005,0.155,1.5,0.177c0.562,0.082,1.096,0.093,1.502,0.093h0.662l0.259-0.609
			c0.096-0.227,0.145-0.49,0.193-0.864c0.021-0.113,0.037-0.227,0.055-0.348l0.034-0.227l0.003-0.018l0.653,0.119
			c1,0.181,2.016,0.324,3.043,0.427l-0.011,0.037l-0.129-0.019c-0.147-0.022-0.396-0.048-0.74-0.048H56.22l-0.067,0.009
			c-0.305,0.042-0.548,0.083-0.731,0.123l-0.783,0.174v0.803c0,0.593,0.037,1.317,0.112,2.212c0.06,1.152,0.162,1.923,0.331,2.468
			l0.157,0.507l0.509,0.153c0.706,0.214,1.852,0.313,3.606,0.313c1.635,0,2.769-0.102,3.465-0.313l0.647-0.195l0.06-0.674
			c0.022-0.259,0.076-1.04,0.076-2.704c0-0.646-0.061-1.352-0.191-2.223l-0.106-0.708l-0.705-0.127
			c-0.154-0.027-0.313-0.053-0.478-0.078l0.065-0.21c0.02-0.065,0.039-0.13,0.056-0.194l0.24,0.36l0.657-0.131
			c0.515-0.103,0.997-0.314,1.396-0.612l0.615-0.459l-0.285-0.713c-0.228-0.567-0.462-1.073-0.716-1.546
			c-0.245-0.49-0.532-1.045-0.878-1.604l-0.396-0.638l-0.723,0.201c-0.416,0.115-0.812,0.268-1.208,0.466l-0.796,0.398l0.303,0.837
			c0.153,0.423,0.331,0.846,0.531,1.265c-1.207-0.079-2.321-0.178-3.368-0.3c0.476-0.88,1.004-1.835,1.618-2.926l0.525-0.933
			l-0.966-0.461c-0.422-0.201-0.872-0.367-1.339-0.495L56.751,73.97L56.751,73.97z M58.067,85.708
			c-0.01-0.342-0.025-0.684-0.047-1.025c0.442,0.114,0.894,0.171,1.37,0.174c0.188,0.013,0.385,0.029,0.587,0.044
			c0.072,0.006,0.145,0.012,0.218,0.017l0.005,0.133l0.028,0.67c-0.28,0.015-0.573,0.022-0.875,0.022
			C58.917,85.744,58.486,85.732,58.067,85.708L58.067,85.708z M50.069,74.51l-0.32,0.637c-0.2,0.399-0.355,0.841-0.461,1.313
			l-0.146,0.656l0.551,0.383c1.03,0.716,2.221,1.122,3.539,1.205l0.603,0.038l0.314-0.516c0.244-0.401,0.427-0.833,0.561-1.32
			l0.214-0.781l-0.721-0.371c-1.197-0.618-2.35-1.004-3.426-1.149L50.069,74.51L50.069,74.51z M53.01,84.474l-0.736,0.294
			c-0.936,0.374-1.788,0.852-2.607,1.462l-0.61,0.455l0.275,0.709c0.159,0.409,0.402,0.817,0.742,1.249l0.407,0.517l0.636-0.169
			c0.979-0.261,1.896-0.765,2.729-1.497l0.49-0.431l-0.197-0.622c-0.137-0.434-0.357-0.864-0.673-1.317L53.01,84.474L53.01,84.474z"
			/>
	</g>
	<g>
		<path d="M73.381,88.38c-1.287,0-2.391-0.134-3.281-0.4l-0.313-0.093l-0.04-0.324c-0.262-2.089-0.421-4.529-0.474-7.25l-0.009-0.47
			l0.468-0.039c0.504-0.042,0.905-0.074,1.321-0.074h0.462l0.036,0.461c0.038,0.477,0.07,0.953,0.103,1.432
			c0.021,0.29,0.04,0.58,0.061,0.872c0.079-0.002,0.261-0.004,0.271-0.004c1.46,0,2.62,0,3.46-0.018l0.419-0.009l0.082,0.411
			c0.043,0.212,0.081,0.424,0.081,0.657c0,0.222-0.02,0.422-0.039,0.584l-0.046,0.381l-0.38,0.054
			c-0.789,0.112-1.993,0.167-3.679,0.167c-0.011,0-0.021,0-0.031,0c0.013,0.229,0.063,1.103,0.075,1.311
			c2.098,0.086,4.083,0.134,5.916,0.142c0.008-1.382,0.049-2.955,0.12-4.604c-2.088-0.061-3.952-0.182-5.683-0.368l-0.446-0.048
			v-0.449c0-0.378,0.001-0.757,0.039-1.117l0.014-0.127c-0.104-0.07-0.201-0.147-0.291-0.231l-0.27-0.252l0.162-0.332
			c0.244-0.5,0.515-1.009,0.809-1.521c-1.179-0.03-2.339-0.062-3.5-0.105l-0.378-0.014l-0.089-0.367
			c-0.071-0.29-0.086-0.558-0.086-0.732c0-0.193,0.003-0.407,0.046-0.622l0.08-0.402h0.41c3.868,0,7.893,0.085,11.962,0.253
			l0.479,0.02v0.985c0,0.283-0.049,0.546-0.146,0.784l-0.126,0.312h-0.337c-2.159,0-3.986-0.021-5.719-0.064
			c-0.327,0.645-0.725,1.308-1.203,2.008c2.136,0.072,4.18,0.18,6.094,0.323l0.463,0.034v0.464c0,3.389-0.116,6.002-0.346,7.767
			l-0.049,0.376l-0.376,0.054C78.644,88.314,76.479,88.38,73.381,88.38z"/>
		<path fill="#FFFFFF" d="M68.78,75.379c4.023,0,8.01,0.09,11.941,0.252v0.505c0,0.217-0.035,0.415-0.108,0.595
			c-2.02,0-4.021-0.018-6.025-0.072c-0.432,0.902-0.991,1.804-1.641,2.707c-0.396-0.09-0.74-0.253-1.01-0.505
			c0.379-0.775,0.794-1.516,1.226-2.219c-1.46-0.037-2.903-0.073-4.348-0.126c-0.053-0.216-0.071-0.433-0.071-0.613
			C68.744,75.74,68.744,75.56,68.78,75.379 M72.37,79.636c2.742,0.072,5.195,0.198,7.378,0.361c0,3.481-0.126,6.043-0.342,7.702
			c-0.758,0.109-2.779,0.181-6.025,0.181c-1.245,0-2.291-0.126-3.139-0.379c-0.253-2.021-0.416-4.419-0.47-7.197
			c0.433-0.036,0.849-0.073,1.28-0.073c0.072,0.92,0.126,1.841,0.198,2.778c0.218,0,0.452-0.018,0.704-0.018
			c1.479,0,2.652,0,3.5-0.018c0.036,0.181,0.071,0.36,0.071,0.559c0,0.199-0.018,0.379-0.035,0.524
			c-0.758,0.108-1.949,0.162-3.608,0.162c-0.216,0-0.414,0-0.559-0.019c0.036,0.776,0.09,1.552,0.127,2.309
			c2.488,0.109,4.797,0.163,6.89,0.163c0-1.407,0.037-3.283,0.145-5.592c-2.272-0.055-4.312-0.181-6.151-0.379
			C72.334,80.34,72.334,79.979,72.37,79.636 M68.78,74.379h-0.82l-0.16,0.804c-0.056,0.278-0.056,0.533-0.056,0.72
			c0,0.201,0.018,0.512,0.1,0.85l0.179,0.734l0.756,0.028c0.893,0.033,1.785,0.06,2.682,0.083c-0.147,0.276-0.288,0.551-0.421,0.823
			l-0.324,0.664l0.157,0.147c-0.378,0.008-0.74,0.038-1.093,0.067l-0.089,0.007l-0.936,0.077l0.018,0.939
			c0.053,2.738,0.214,5.195,0.478,7.302l0.081,0.648l0.626,0.187c0.937,0.279,2.089,0.42,3.424,0.42c2.208,0,5.07-0.033,6.168-0.191
			l0.751-0.108l0.098-0.753c0.232-1.786,0.351-4.42,0.351-7.831v-0.928L79.822,79c-1.653-0.124-3.404-0.221-5.227-0.292
			c0.219-0.351,0.418-0.694,0.599-1.033c1.645,0.039,3.385,0.057,5.419,0.057h0.673l0.254-0.624c0.12-0.297,0.182-0.624,0.182-0.972
			v-0.505v-0.959l-0.959-0.04C76.687,74.464,72.655,74.379,68.78,74.379L68.78,74.379z M72.18,81.992
			c-0.007-0.102-0.014-0.203-0.021-0.304l0.067,0.007c1.081,0.117,2.213,0.208,3.418,0.274l-0.211,0.005
			C74.64,81.991,73.55,81.992,72.18,81.992L72.18,81.992z M72.381,85.217c1.452-0.01,2.52-0.066,3.251-0.17l0.76-0.108l0.092-0.762
			c0.019-0.15,0.043-0.38,0.043-0.644c0-0.301-0.051-0.553-0.091-0.755l-0.155-0.775c0.38,0.018,0.768,0.034,1.162,0.048
			c-0.051,1.277-0.083,2.501-0.096,3.618c-1.553-0.012-3.209-0.053-4.947-0.12c-0.003-0.058-0.006-0.115-0.01-0.172
			C72.387,85.322,72.384,85.27,72.381,85.217L72.381,85.217z"/>
	</g>
	<g>
		<path d="M90.13,88.723l-0.062-0.429c-0.24-1.679-0.395-3.437-0.474-5.373l-0.017-0.431l0.424-0.08
			c0.416-0.079,0.842-0.117,1.302-0.117h0.104c0.017-0.143,0.053-0.291,0.11-0.447l0.123-0.337l0.462,0.012
			c0.585,0.015,1.168,0.029,1.743,0.053c0.082-0.217,0.367-0.951,0.367-0.951c-1.408-0.006-2.261-0.052-2.818-0.151l-0.284-0.05
			l-0.099-0.271c-0.068-0.188-0.102-0.415-0.102-0.695c0-0.217,0-0.422,0.051-0.626l0.093-0.37l0.382-0.009
			c0.833-0.019,1.882-0.037,3.149-0.037c1.574,0,2.661,0.037,3.322,0.112l0.392,0.044l0.048,0.392
			c0.021,0.163,0.039,0.326,0.039,0.529v0.858l-0.332,0.118c-0.172,0.062-0.484,0.122-1.955,0.145l0.112,0.042
			c0,0-0.179,0.814-0.222,1l3.278,0.153l0.067,0.396c0.232,1.369,0.351,3.328,0.351,5.821v0.362L99.343,88.5
			c-0.243,0.08-0.75,0.097-1.132,0.097c-0.482,0-0.918-0.047-1.293-0.142l-0.269-0.067l-0.086-0.264
			c-0.06-0.184-0.06-0.361-0.06-0.533c0-0.171,0-0.349,0.06-0.533L96.582,87l-0.226-0.032c-0.613-0.087-1.191-0.231-1.727-0.428
			c-0.056,0.156-0.112,0.312-0.164,0.469l-0.124,0.374l-0.394-0.033c0,0-0.231-0.019-0.674-0.096
			c-0.246-0.049-0.435-0.124-0.607-0.239l-0.27-0.179l0.054-0.319c0.147-0.886,0.38-1.84,0.705-2.9
			c-0.438-0.026-0.855-0.054-1.266-0.09l-0.022-0.002c0.13,1.567,0.235,3.099,0.313,4.563l0.023,0.436l-0.428,0.083
			c-0.408,0.078-0.816,0.118-1.214,0.118H90.13z M97.472,86.714c-0.05-1.024-0.13-1.974-0.242-2.879
			c-0.589-0.025-1.172-0.051-1.761-0.085c-0.067,0.251-0.135,0.5-0.202,0.743c0.52,0.181,1.061,0.381,1.624,0.592l0.398,0.149
			l-0.084,0.418c-0.066,0.329-0.173,0.67-0.317,1.014l-0.02,0.046C96.868,86.712,97.329,86.712,97.472,86.714z M87.83,87.44
			c-0.407-0.037-0.813-0.093-1.185-0.149l-0.467-0.07l0.044-0.47c0.057-0.602,0.123-1.204,0.192-1.806
			c-0.534-0.039-0.956-0.116-1.302-0.237l-0.335-0.117v-0.355c0-0.375,0.047-0.725,0.145-1.073l0.103-0.365h0.379
			c0.413,0,0.854,0.033,1.269,0.075c0.04-0.356,0.085-0.713,0.133-1.069c-0.361,0.019-0.735,0.029-1.131,0.029h-0.401l-0.087-0.392
			c-0.078-0.354-0.12-0.753-0.12-1.155v-0.459l0.458-0.039c0.524-0.044,1.049-0.087,1.593-0.122
			c0.089-0.587,0.181-1.167,0.285-1.758l0.079-0.45l0.964,0.076c0.234,0.016,0.457,0.032,0.672,0.054l0.491,0.051l-0.044,0.492
			c-0.269,2.967-0.671,5.961-1.197,8.9l-0.081,0.451L87.83,87.44z M98.753,77.701c-3.965,0-7.791-0.097-11.373-0.289l-0.474-0.025
			v-0.474c0-0.494,0.045-0.905,0.142-1.293l0.095-0.379h0.391c1.604,0,3.195,0.03,4.771,0.062c0.026-0.431,0.071-0.817,0.132-1.136
			l0.07-0.368l0.372-0.036c0.195-0.019,0.408-0.038,0.68-0.038c0.225,0,0.463,0.035,0.729,0.108l0.367,0.101v0.381
			c0,0.34-0.017,0.688-0.039,1.052c1.368,0.05,2.735,0.112,4.104,0.173l0.624,0.028v0.478c0,0.387-0.03,0.777-0.095,1.226
			l-0.062,0.429H98.753z"/>
		<path fill="#FFFFFF" d="M93.558,74.225c0.199,0,0.396,0.036,0.596,0.09c0,0.487-0.035,0.992-0.072,1.533
			c1.588,0.054,3.174,0.126,4.762,0.198c0,0.396-0.035,0.775-0.09,1.155c-3.859,0-7.647-0.09-11.347-0.289
			c0-0.433,0.037-0.812,0.127-1.173c1.767,0,3.518,0.037,5.249,0.072c0.018-0.65,0.072-1.173,0.145-1.552
			C93.107,74.243,93.306,74.225,93.558,74.225 M87.895,77.995c0.432,0.036,0.811,0.054,1.172,0.091
			c-0.271,2.994-0.668,5.935-1.191,8.857c-0.396-0.036-0.793-0.09-1.154-0.145c0.072-0.775,0.163-1.551,0.253-2.327
			c-0.722-0.018-1.281-0.09-1.695-0.235c0-0.306,0.035-0.613,0.126-0.938c0.523,0,1.101,0.055,1.713,0.126
			c0.073-0.721,0.163-1.443,0.271-2.164c-0.596,0.053-1.173,0.072-1.714,0.072c-0.072-0.325-0.108-0.686-0.108-1.046
			c0.649-0.055,1.298-0.108,1.984-0.144C87.659,79.419,87.768,78.716,87.895,77.995 M94.586,78.915c1.552,0,2.634,0.037,3.266,0.108
			c0.018,0.144,0.035,0.289,0.035,0.469v0.505c-0.253,0.09-1.353,0.126-3.318,0.126c-1.443,0-2.472-0.036-3.086-0.144
			c-0.053-0.145-0.071-0.325-0.071-0.523s0-0.36,0.036-0.504C92.277,78.933,93.323,78.915,94.586,78.915 M94.713,80.719
			c0.324,0.054,0.631,0.144,0.919,0.252c-0.09,0.415-0.181,0.793-0.271,1.155c1.155,0.054,2.327,0.108,3.481,0.162
			c0.218,1.281,0.344,3.192,0.344,5.737c-0.108,0.036-0.434,0.072-0.976,0.072c-0.504,0-0.883-0.054-1.172-0.126
			c-0.035-0.108-0.035-0.235-0.035-0.379s0-0.27,0.035-0.379c0.325,0,0.649,0,0.956,0.019c-0.054-1.407-0.161-2.688-0.324-3.878
			c-0.867-0.036-1.714-0.072-2.579-0.126c-0.146,0.541-0.29,1.083-0.434,1.587c0.649,0.217,1.335,0.469,2.057,0.74
			c-0.055,0.271-0.145,0.577-0.288,0.92c-0.758-0.108-1.462-0.306-2.093-0.595c-0.109,0.325-0.235,0.649-0.343,0.974
			c0,0-0.217-0.019-0.632-0.09c-0.181-0.036-0.307-0.09-0.415-0.163c0.181-1.083,0.487-2.237,0.884-3.445
			c-0.649-0.037-1.28-0.073-1.894-0.126c-0.036-0.235-0.036-0.415-0.036-0.56c0-0.108,0.018-0.253,0.09-0.451
			c0.74,0.019,1.479,0.036,2.201,0.072C94.352,81.638,94.532,81.188,94.713,80.719 M91.304,82.793
			c0.161,1.84,0.287,3.608,0.379,5.321c-0.379,0.073-0.758,0.109-1.119,0.109c-0.253-1.768-0.396-3.536-0.469-5.322
			C90.474,82.83,90.87,82.793,91.304,82.793 M93.558,73.225c-0.289,0-0.518,0.02-0.728,0.041l-0.745,0.072l-0.141,0.735
			c-0.041,0.214-0.074,0.456-0.102,0.72c-1.414-0.028-2.861-0.053-4.31-0.053h-0.782l-0.188,0.759
			c-0.106,0.429-0.156,0.879-0.156,1.414v0.948l0.492,0.026c-0.077,0.439-0.147,0.873-0.215,1.307
			c-0.405,0.029-0.804,0.062-1.201,0.095l-0.916,0.077v0.919c0,0.438,0.046,0.875,0.132,1.264l0.167,0.749h-0.22l-0.204,0.73
			c-0.109,0.392-0.163,0.787-0.163,1.208v0.71l0.67,0.234c0.265,0.092,0.564,0.162,0.913,0.209
			c-0.049,0.438-0.096,0.876-0.137,1.315l-0.087,0.94l0.934,0.141c0.471,0.071,0.856,0.12,1.213,0.152l0.913,0.083l0.162-0.903
			c0.125-0.698,0.243-1.4,0.354-2.103c0.086,1.165,0.206,2.273,0.359,3.349l0.123,0.858h0.867c0.43,0,0.869-0.042,1.308-0.127
			l0.856-0.165l-0.047-0.871c-0.008-0.159-0.017-0.32-0.026-0.481c0.155,0.072,0.324,0.126,0.509,0.163
			c0.497,0.086,0.743,0.106,0.743,0.106l0.783,0.063l0.25-0.742c0.342,0.103,0.698,0.186,1.066,0.249
			c-0.002,0.061-0.002,0.119-0.002,0.173c0,0.191,0,0.429,0.084,0.688l0.171,0.527l0.538,0.134c0.415,0.104,0.891,0.156,1.414,0.156
			c0.917,0,1.196-0.092,1.288-0.122l0.688-0.227v-0.724c0-2.521-0.12-4.508-0.357-5.904l-0.136-0.793l-0.804-0.038l-2.28-0.106
			l0.018-0.081c1.114-0.031,1.394-0.091,1.596-0.163l0.664-0.237v-0.705v-0.505c0-0.241-0.023-0.435-0.042-0.59l-0.086-0.701h0.86
			l0.124-0.857c0.067-0.474,0.1-0.886,0.1-1.297V75.09l-0.955-0.043l-0.145-0.006c-1.201-0.055-2.401-0.109-3.603-0.155
			c0.008-0.192,0.013-0.382,0.013-0.571v-0.763l-0.735-0.202C94.109,73.266,93.827,73.225,93.558,73.225L93.558,73.225z
			 M89.648,81.968c0.162-1.265,0.3-2.531,0.414-3.793l0.013-0.138c0.188,0.007,0.376,0.015,0.565,0.021l-0.163,0.649
			c-0.066,0.264-0.066,0.51-0.066,0.748c0,0.34,0.043,0.623,0.132,0.866l0.198,0.542l0.567,0.1c0.089,0.016,0.184,0.03,0.286,0.043
			L91.295,81l-0.246,0.675c-0.016,0.042-0.029,0.083-0.042,0.124c-0.381,0.013-0.742,0.053-1.099,0.121L89.648,81.968L89.648,81.968
			z M96.805,84.519c-0.206-0.077-0.416-0.154-0.626-0.231c0.201,0.01,0.402,0.019,0.604,0.028
			C96.79,84.383,96.798,84.451,96.805,84.519L96.805,84.519z"/>
	</g>
</g>
<circle fill="#604C3F" cx="65.064" cy="52.758" r="2.421"/>
</svg>
