<?xml version="1.0" encoding="utf-8"?>
<!-- Generator: Adobe Illustrator 16.0.0, SVG Export Plug-In . SVG Version: 6.00 Build 0)  -->
<!DOCTYPE svg PUBLIC "-//W3C//DTD SVG 1.1//EN" "http://www.w3.org/Graphics/SVG/1.1/DTD/svg11.dtd">
<svg version="1.1" id="Layer_1" xmlns="http://www.w3.org/2000/svg" xmlns:xlink="http://www.w3.org/1999/xlink" x="0px" y="0px"
	 width="126.876px" height="112.438px" viewBox="0 0 126.876 112.438" enable-background="new 0 0 126.876 112.438"
	 xml:space="preserve">
<rect fill="#FFFFFF" width="126.876" height="112.438"/>
<rect x="69.992" y="56.006" transform="matrix(0.9885 0.1515 -0.1515 0.9885 12.3809 -11.5998)" fill="#FFFFFF" width="24.627" height="38.87"/>
<linearGradient id="SVGID_2_" gradientUnits="userSpaceOnUse" x1="70.0381" y1="75.0737" x2="95.4707" y2="75.0737" gradientTransform="matrix(0.9885 0.1515 -0.1515 0.9885 11.292 -7.5316)">
	<stop  offset="0" style="stop-color:#DFACCE"/>
	<stop  offset="1" style="stop-color:#187FC4;stop-opacity:0"/>
</linearGradient>
<path fill="url(#SVGID_2_)" d="M71.258,63.54c0,0,3.348-0.7,9.097,1.395c5.749,2.094,14.408,3.107,16.303,0.773l-4.551,29.686
	l-5.847,0.317l-19.07-2.923L71.258,63.54z"/>
<rect x="80.622" y="43.529" transform="matrix(0.9884 0.1516 -0.1516 0.9884 8.4297 -12.5107)" fill="#FFFFFF" width="11.331" height="11.031"/>
<rect x="71.162" y="40.353" transform="matrix(0.8303 0.5574 -0.5574 0.8303 35.3153 -34.6775)" fill="#FFFFFF" width="6.862" height="0.583"/>
<rect x="69.816" y="48.75" transform="matrix(-0.9591 0.283 -0.283 -0.9591 157.3789 75.3489)" fill="#FFFFFF" width="6.862" height="0.583"/>
<rect x="70.879" y="44.582" transform="matrix(0.9764 0.2159 -0.2159 0.9764 11.4339 -14.9418)" fill="#FFFFFF" width="6.483" height="0.583"/>
<g>
	<path fill="none" stroke="#040000" stroke-miterlimit="10" d="M71.183,45.03l5.235,0.802c0.328,0.05,0.635-0.174,0.685-0.501
		c0.051-0.328-0.175-0.633-0.503-0.684l-5.235-0.803c-0.327-0.05-0.633,0.174-0.684,0.502C70.631,44.674,70.855,44.98,71.183,45.03z
		"/>
	<path fill="none" stroke="#040000" stroke-miterlimit="10" d="M71.772,39.55l4.872,3.174c0.075,0.048,0.154,0.078,0.236,0.091
		c0.226,0.035,0.461-0.062,0.594-0.266c0.181-0.278,0.103-0.649-0.175-0.83l-4.872-3.173c-0.278-0.182-0.65-0.103-0.83,0.175
		C71.415,38.999,71.495,39.37,71.772,39.55z"/>
	<path fill="none" stroke="#040000" stroke-miterlimit="10" d="M76.624,48.096c-0.088-0.319-0.419-0.505-0.739-0.417l-5.599,1.569
		c-0.319,0.089-0.506,0.42-0.417,0.739c0.065,0.234,0.262,0.397,0.488,0.432c0.081,0.012,0.167,0.008,0.251-0.016l5.601-1.569
		C76.528,48.746,76.714,48.415,76.624,48.096z"/>
	<path fill="none" stroke="#040000" stroke-miterlimit="10" d="M96.629,57.975l-22.77-3.49c-0.652-0.1-1.268,0.351-1.367,1.003
		l-5.526,36.051c-0.101,0.651,0.352,1.267,1.003,1.367l22.771,3.49c0.652,0.1,1.268-0.352,1.367-1.003l5.526-36.051
		C97.733,58.689,97.282,58.075,96.629,57.975z M91.035,76.173c-0.05,0.325-0.357,0.552-0.685,0.501l-16.104-2.468
		c-0.326-0.05-0.552-0.358-0.502-0.684l0.354-2.305c0.05-0.326,0.357-0.552,0.684-0.502l16.104,2.469
		c0.326,0.05,0.553,0.357,0.503,0.684L91.035,76.173L91.035,76.173z"/>
	<path fill="none" stroke="#040000" stroke-miterlimit="10" d="M92.027,44.345l-9.693-1.486c-0.446-0.068-0.867,0.24-0.936,0.687
		l-1.484,9.685c-0.068,0.446,0.24,0.867,0.687,0.935l9.693,1.486c0.445,0.068,0.867-0.241,0.936-0.687l1.484-9.685
		C92.782,44.834,92.473,44.413,92.027,44.345z M84.958,50.435c-0.033,0.216-0.237,0.366-0.454,0.333l-2.354-0.361
		c-0.216-0.033-0.366-0.237-0.333-0.453l0.721-4.702c0.033-0.217,0.238-0.367,0.454-0.333l2.354,0.361
		c0.216,0.033,0.366,0.238,0.333,0.454L84.958,50.435z"/>
</g>
<g>
	<path fill="#FFFFFF" d="M71.272,43.838c0.03,0,0.061,0.002,0.092,0.007l5.235,0.803c0.328,0.05,0.554,0.355,0.503,0.684
		c-0.045,0.296-0.301,0.508-0.593,0.508c-0.03,0-0.061-0.002-0.092-0.007l-5.235-0.802c-0.327-0.05-0.552-0.356-0.502-0.684
		C70.727,44.049,70.981,43.838,71.272,43.838 M71.272,42.838c-0.794,0-1.458,0.57-1.58,1.356c-0.133,0.874,0.468,1.691,1.338,1.825
		l5.236,0.802c0.082,0.013,0.163,0.019,0.243,0.019c0.797,0,1.462-0.571,1.581-1.358c0.065-0.42-0.038-0.842-0.29-1.187
		c-0.253-0.345-0.626-0.571-1.05-0.636l-5.235-0.803C71.435,42.844,71.353,42.838,71.272,42.838L71.272,42.838z"/>
</g>
<g>
	<path fill="#FFFFFF" d="M72.1,38.448c0.112,0,0.227,0.032,0.328,0.098L77.3,41.72c0.277,0.181,0.355,0.552,0.175,0.83
		c-0.115,0.176-0.308,0.272-0.503,0.272c-0.03,0-0.061-0.002-0.091-0.007c-0.082-0.013-0.161-0.043-0.236-0.091l-4.872-3.174
		c-0.277-0.181-0.357-0.552-0.175-0.829C71.712,38.544,71.903,38.448,72.1,38.448 M72.1,37.448c-0.544,0-1.046,0.273-1.342,0.73
		c-0.23,0.35-0.312,0.777-0.225,1.196c0.088,0.42,0.334,0.78,0.693,1.014l4.872,3.174c0.201,0.128,0.41,0.207,0.629,0.241
		c0.082,0.013,0.163,0.019,0.244,0.019c0.543,0,1.044-0.271,1.341-0.726c0.481-0.741,0.271-1.733-0.467-2.214l-4.872-3.173
		C72.714,37.539,72.411,37.448,72.1,37.448L72.1,37.448z"/>
</g>
<g>
	<path fill="#FFFFFF" d="M76.046,47.658c0.264,0,0.505,0.173,0.578,0.438c0.09,0.319-0.096,0.65-0.415,0.738l-5.601,1.569
		c-0.054,0.015-0.108,0.022-0.162,0.022c-0.03,0-0.06-0.002-0.089-0.007c-0.227-0.035-0.423-0.197-0.488-0.432
		c-0.089-0.319,0.098-0.65,0.417-0.739l5.599-1.569C75.938,47.665,75.993,47.658,76.046,47.658 M76.046,46.658
		c-0.144,0-0.287,0.02-0.427,0.058l-5.603,1.57c-0.85,0.237-1.348,1.122-1.11,1.971c0.169,0.604,0.679,1.057,1.3,1.151
		c0.08,0.012,0.16,0.019,0.24,0.019c0.146,0,0.29-0.02,0.431-0.059l5.602-1.57c0.409-0.113,0.752-0.381,0.962-0.754
		c0.211-0.374,0.263-0.806,0.146-1.218C77.397,47.14,76.764,46.658,76.046,46.658L76.046,46.658z"/>
</g>
<g>
	<path fill="#FFFFFF" d="M73.678,54.471c0.06,0,0.12,0.004,0.182,0.014l22.77,3.49c0.653,0.1,1.104,0.715,1.004,1.367l-5.526,36.051
		c-0.09,0.59-0.604,1.017-1.186,1.017c-0.061,0-0.121-0.004-0.182-0.014l-22.771-3.49c-0.651-0.1-1.104-0.716-1.003-1.367
		l5.526-36.051C72.583,54.896,73.097,54.471,73.678,54.471 M90.441,76.682c0.292,0,0.549-0.213,0.594-0.508l0.354-2.305
		c0.05-0.326-0.177-0.634-0.503-0.684l-16.104-2.469c-0.03-0.005-0.061-0.007-0.091-0.007c-0.29,0-0.548,0.213-0.593,0.509
		l-0.354,2.305c-0.05,0.325,0.176,0.633,0.502,0.684l16.104,2.468C90.381,76.68,90.411,76.682,90.441,76.682 M73.678,53.471
		c-1.077,0-2.012,0.802-2.174,1.866l-5.526,36.05c-0.09,0.578,0.053,1.159,0.401,1.633s0.858,0.785,1.438,0.874l22.771,3.49
		c0.111,0.017,0.223,0.025,0.333,0.025c1.076,0,2.012-0.802,2.174-1.866l5.526-36.051c0.09-0.579-0.053-1.16-0.401-1.634
		s-0.859-0.784-1.439-0.873l-22.77-3.49C73.899,53.479,73.788,53.471,73.678,53.471L73.678,53.471z M74.794,73.279l0.232-1.514
		l15.313,2.347l-0.232,1.514L74.794,73.279L74.794,73.279z"/>
</g>
<g>
	<path fill="#FFFFFF" d="M82.21,42.85c0.041,0,0.082,0.003,0.124,0.009l9.693,1.486c0.445,0.068,0.755,0.489,0.687,0.935
		l-1.484,9.685c-0.062,0.405-0.414,0.696-0.812,0.696c-0.041,0-0.083-0.003-0.124-0.009l-9.693-1.486
		c-0.446-0.068-0.755-0.489-0.687-0.935l1.484-9.685C81.46,43.141,81.812,42.85,82.21,42.85 M84.564,50.771
		c0.193,0,0.363-0.141,0.394-0.337l0.721-4.702c0.033-0.216-0.117-0.421-0.333-0.454l-2.354-0.361
		c-0.021-0.003-0.04-0.004-0.061-0.004c-0.192,0-0.363,0.141-0.394,0.338l-0.721,4.702c-0.033,0.216,0.117,0.42,0.333,0.453
		l2.354,0.361C84.524,50.77,84.544,50.771,84.564,50.771 M82.21,41.85c-0.892,0-1.665,0.664-1.8,1.544l-1.484,9.685
		c-0.073,0.479,0.044,0.959,0.332,1.352s0.712,0.649,1.191,0.723l9.693,1.486c0.092,0.014,0.185,0.021,0.275,0.021
		c0.892,0,1.665-0.664,1.8-1.545l1.484-9.685c0.152-0.992-0.531-1.922-1.523-2.075l-9.693-1.486
		C82.393,41.856,82.301,41.85,82.21,41.85L82.21,41.85z M82.897,49.509l0.538-3.512l1.163,0.178l-0.538,3.512L82.897,49.509
		L82.897,49.509z"/>
</g>
<g>
	<path d="M40.356,40.97c-0.204,0-0.376-0.016-0.517-0.031l-0.426-0.046l-0.02-0.428c-0.063-1.345-0.1-2.761-0.11-4.391
		c-0.001,0.002-0.003,0.005-0.005,0.007c-0.22,0.33-0.434,0.63-0.619,0.886c-0.161,0.241-0.356,0.488-0.571,0.72l-0.214,0.229
		l-0.3-0.092c-0.502-0.155-0.858-0.418-1.06-0.783l-0.143-0.257l0.156-0.25c0.319-0.511,0.857-1.322,1.602-2.445
		c0,0,0.803-1.21,0.817-1.233c-0.809-0.057-1.61-0.122-2.404-0.194l-0.327-0.03l-0.103-0.312c-0.072-0.219-0.109-0.437-0.109-0.647
		c0-0.226,0.039-0.454,0.113-0.66l0.125-0.346c0,0,3.511,0.161,4.113,0.186c0.413-0.588,0.838-1.187,1.274-1.796l0.234-0.327
		l0.369,0.159c0.33,0.142,0.62,0.316,0.887,0.533l0.341,0.276c0,0-0.606,0.988-0.793,1.286c1.508,0.086,3.016,0.18,4.524,0.275
		l0.328,0.021l0.111,0.309c0.076,0.212,0.113,0.437,0.113,0.688c0,0.195-0.037,0.393-0.114,0.605l-0.121,0.334l-0.355-0.005
		c-2.081-0.029-3.985-0.097-5.812-0.207c-0.138,0.206-0.534,0.776-0.534,0.776c-0.144,0.229-0.287,0.454-0.43,0.675
		c0.218,0,0.372,0.013,0.503,0.026l0.079,0.008c0.001-0.134,0.019-0.299,0.051-0.48l0.073-0.413h0.419
		c1.549,0,2.979,0.043,4.249,0.127l0.405,0.027l0.057,0.402c0.31,2.202,0.466,4.279,0.466,6.175v0.434l-0.429,0.062
		c-0.546,0.078-1.262,0.118-2.13,0.118h-0.374l-0.105-0.358c-0.089-0.3-0.132-0.562-0.132-0.8V39.35l0.43-0.061
		c0.218-0.031,0.427-0.058,0.627-0.081c-0.042-0.583-0.209-2.949-0.253-3.546c-0.967-0.06-1.915-0.12-2.864-0.168l-0.118-0.006
		c0.001,0.029,0.001,0.057,0.001,0.086c0.023,0,0.048,0,0.072,0c0.915,0,1.696,0.024,2.32,0.072l0.365,0.028l0.084,0.357
		c0.034,0.15,0.07,0.329,0.07,0.519c0,0.163-0.017,0.309-0.032,0.439l-0.05,0.415l-0.097,0.005l0.09,0.009l0.077,0.357
		c0.035,0.163,0.053,0.326,0.053,0.498c0,0.083-0.014,0.378-0.014,0.378v0.5H41.35c0.001,0.126,0.011,1.544,0.011,1.544
		l-0.274,0.139C40.898,40.926,40.667,40.97,40.356,40.97z"/>
	<path fill="#FFFFFF" d="M42.037,29.35c0.294,0.126,0.545,0.28,0.77,0.462c-0.336,0.547-0.671,1.093-1.022,1.625
		c1.793,0.099,3.585,0.21,5.378,0.323c0.056,0.154,0.084,0.322,0.084,0.518c0,0.141-0.028,0.281-0.084,0.435
		c-2.059-0.028-4.089-0.098-6.077-0.224c-0.225,0.35-0.463,0.686-0.687,1.008c-0.562,0.896-1.078,1.667-1.526,2.297
		c-0.225,0.336-0.435,0.63-0.617,0.882c-0.168,0.252-0.35,0.476-0.532,0.672c-0.364-0.112-0.63-0.294-0.77-0.547
		c0.42-0.672,1.218-1.862,2.367-3.599c0.167-0.252,0.35-0.518,0.545-0.784c-1.106-0.07-2.198-0.154-3.276-0.252
		c-0.056-0.168-0.084-0.336-0.084-0.49c0-0.168,0.028-0.336,0.084-0.491c1.344,0.057,2.676,0.126,4.02,0.182
		C41.07,30.708,41.546,30.036,42.037,29.35 M41.505,34.098c1.54,0,2.955,0.042,4.216,0.126c0.307,2.185,0.461,4.215,0.461,6.105
		c-0.49,0.07-1.177,0.113-2.059,0.113c-0.083-0.281-0.111-0.491-0.111-0.659c0.393-0.056,0.755-0.098,1.092-0.126
		c-0.111-1.484-0.21-2.983-0.321-4.468c-1.121-0.07-2.213-0.14-3.305-0.196c-0.016-0.111-0.016-0.28-0.016-0.49
		C41.462,34.392,41.478,34.252,41.505,34.098 M40.328,34.952c0.195,0,0.364,0.014,0.504,0.028c0,0.378,0,0.743,0.015,1.106
		c0.153,0,0.335-0.014,0.56-0.014c0.967,0,1.723,0.028,2.282,0.071c0.029,0.125,0.058,0.266,0.058,0.405
		c0,0.141-0.015,0.266-0.028,0.378c-0.49,0.028-1.275,0.028-2.367,0.028c-0.21,0-0.379,0-0.504-0.014v0.84h0.532
		c1.008,0,1.792,0.042,2.367,0.098c0.027,0.126,0.041,0.252,0.041,0.393c0,0.14-0.014,0.266-0.014,0.378h-2.438
		c-0.195,0-0.364,0-0.489-0.014c0,0.602,0.014,1.176,0.014,1.75c-0.112,0.057-0.279,0.084-0.504,0.084
		c-0.183,0-0.337-0.014-0.463-0.028c-0.084-1.779-0.112-3.585-0.112-5.435C39.95,34.994,40.133,34.98,40.328,34.952 M41.692,28.113
		l-0.469,0.655c-0.382,0.534-0.755,1.059-1.119,1.576c-0.51-0.022-1.019-0.046-1.528-0.07c-0.647-0.031-1.295-0.061-1.945-0.088
		l-0.733-0.031l-0.249,0.69c-0.096,0.264-0.144,0.543-0.144,0.83c0,0.264,0.045,0.534,0.135,0.804l0.205,0.623l0.654,0.06
		c0.519,0.047,1.04,0.091,1.561,0.131l-0.346,0.521c-0.745,1.124-1.283,1.935-1.608,2.456l-0.312,0.499l0.284,0.515
		c0.183,0.332,0.565,0.777,1.35,1.019l0.6,0.185l0.428-0.459c0.122-0.131,0.238-0.267,0.348-0.407
		c0.019,1.017,0.049,1.958,0.092,2.869l0.04,0.854l0.852,0.092c0.155,0.017,0.345,0.034,0.57,0.034c0.392,0,0.695-0.061,0.954-0.191
		l0.55-0.277v-0.616c0-0.245-0.002-0.489-0.005-0.736h1.156v0.134c0,0.287,0.05,0.595,0.152,0.942l0.212,0.716h0.747
		c0.892,0,1.632-0.042,2.2-0.123l0.858-0.123V40.33c0-1.919-0.158-4.02-0.471-6.245l-0.054-0.381
		c0.163,0.003,0.326,0.005,0.491,0.008l0.712,0.01l0.242-0.669c0.097-0.267,0.144-0.521,0.144-0.775c0-0.309-0.047-0.59-0.144-0.857
		l-0.223-0.618l-0.655-0.041c-1.229-0.077-2.459-0.154-3.688-0.227c0.036-0.058,0.071-0.116,0.107-0.175l0.459-0.748l-0.666-0.577
		c-0.304-0.246-0.632-0.443-1.004-0.604L41.692,28.113L41.692,28.113z"/>
</g>
<g>
	<path d="M59.495,40.618c-0.284-0.503-0.543-0.998-0.783-1.499c-0.612,0.394-1.285,0.799-2.074,1.252l-0.254,0.146l-0.252-0.15
		c-0.368-0.22-0.634-0.547-0.788-0.972l-0.124-0.341l0.285-0.224c0.689-0.542,1.474-1.091,2.336-1.636
		c-0.083-0.188-0.164-0.378-0.241-0.569c-0.758,0.14-1.498,0.27-2.238,0.389l-0.085,0.014v0.362L55,37.528
		c-0.152,0.076-0.375,0.137-1.562,0.148c-0.006,0.246-0.008,0.487-0.009,0.723c0.228,0.021,1.312,0.14,1.312,0.14l0.085,0.337
		c0.038,0.148,0.072,0.307,0.072,0.472c0,0.164-0.03,0.362-0.063,0.559l-0.067,0.397l-0.401,0.02
		c-0.299,0.014-0.714,0.029-1.242,0.029c-0.377,0-0.768-0.029-1.145-0.058l-0.436-0.033l-0.025-0.437
		c-0.015-0.255-0.016-0.896-0.016-1.948c0-0.073,0-0.146,0-0.219c-0.494-0.011-0.892-0.04-1.186-0.084l-0.306-0.046l-0.095-0.293
		c-0.055-0.168-0.08-0.364-0.08-0.616c0-0.191,0-0.371,0.044-0.543l0.096-0.377h0.389c0.351,0,0.748-0.008,1.191-0.018
		c0.005-0.108,0.012-0.219,0.02-0.332c-0.235-0.031-1.124-0.162-1.124-0.162s0.001-0.555,0.003-0.615
		c-0.129-0.036-0.281-0.113-0.495-0.246c-0.292-0.167-0.463-0.331-0.537-0.523l-0.081-0.208l0.101-0.199
		c0.502-0.99,1.155-2.134,1.995-3.496l0.24-0.388l0.408,0.203c0.285,0.142,0.562,0.318,0.868,0.556l0.314,0.243
		c0,0-0.264,0.57-0.314,0.673c0.806,0.063,1.592,0.146,2.228,0.215l0.445,0.049v0.448c0,0.173-0.011,0.353-0.032,0.541
		c0.097-0.008,0.422-0.037,0.487-0.043c-0.153-0.488-0.299-0.982-0.431-1.476l-0.096-0.361l0.318-0.194
		c0.274-0.167,0.596-0.3,0.982-0.406l0.461-0.126l0.146,0.455c0.213,0.659,0.425,1.317,0.653,1.958c0,0,1.009-0.057,1.284-0.07
		c-0.3-0.389-0.559-0.804-0.787-1.259l-0.181-0.362l0.315-0.253c0.247-0.197,0.541-0.373,0.821-0.533l0.378-0.216l0.266,0.344
		c0.353,0.457,0.678,0.959,0.968,1.496l0.184,0.339l-0.281,0.264c-0.222,0.207-0.494,0.389-0.858,0.572l-0.146,0.073
		c0.029,0.261,0.057,0.535,0.057,0.824v0.44l-0.437,0.056c-0.318,0.041-0.628,0.077-0.928,0.105c0.045,0.124,0.09,0.247,0.135,0.369
		c0.529-0.1,1.067-0.198,1.614-0.288l0.398-0.065l0.147,0.376c0.127,0.324,0.188,0.64,0.188,0.966v0.39c0,0-0.436,0.109-0.464,0.116
		c0.252,0.194,0.467,0.451,0.641,0.765l0.21,0.382l-0.351,0.26c-0.322,0.239-0.638,0.464-0.945,0.678
		c0.074,0.181,0.148,0.358,0.224,0.533c0.134-0.076,0.765-0.448,0.765-0.448l0.273,0.312c0.255,0.291,0.407,0.584,0.466,0.896
		l0.053,0.278l-0.212,0.188c-0.557,0.495-1.173,0.854-1.831,1.068l-0.389,0.126L59.495,40.618z M53.525,35.675
		c0.422,0.007,0.76,0.024,1.023,0.05l-0.021-0.188h-0.018c-0.322,0-0.649-0.006-0.976-0.02
		C53.532,35.571,53.528,35.624,53.525,35.675z M55.136,34.248c-0.008,0.272-0.053,0.564-0.141,0.911l-0.032,0.127
		c0.631-0.152,1.277-0.304,1.941-0.449c-0.076-0.208-0.151-0.417-0.224-0.625c-0.521,0.026-1.03,0.035-1.512,0.035H55.136z
		 M51.716,33.378c0.996,0.077,1.978,0.173,2.926,0.287c-0.023-0.135-0.04-0.274-0.049-0.416c-0.949-0.016-1.829-0.083-2.669-0.203
		C51.856,33.156,51.787,33.267,51.716,33.378z"/>
	<path fill="#FFFFFF" d="M51.864,30.163c0.281,0.14,0.532,0.308,0.785,0.504c-0.154,0.336-0.323,0.658-0.491,0.966
		c0.952,0.057,1.947,0.154,2.97,0.267c0,0.266-0.028,0.546-0.084,0.854c-1.22,0-2.339-0.083-3.376-0.252
		c-0.322,0.547-0.672,1.079-1.036,1.597c-0.056,0-0.183-0.056-0.406-0.196c-0.196-0.112-0.309-0.21-0.336-0.28
		C50.394,32.627,51.052,31.479,51.864,30.163 M59.819,30.205c0.335,0.434,0.644,0.91,0.924,1.428
		c-0.21,0.196-0.462,0.35-0.741,0.491c-0.379-0.448-0.687-0.925-0.939-1.429C59.272,30.526,59.525,30.373,59.819,30.205
		 M56.989,30.442c0.253,0.785,0.506,1.569,0.785,2.325c0.588-0.028,1.189-0.07,1.807-0.098c0.028,0.252,0.057,0.518,0.057,0.798
		c-0.547,0.07-1.065,0.126-1.555,0.154c0.167,0.476,0.336,0.938,0.504,1.386c0.658-0.125,1.33-0.252,2.016-0.364
		c0.099,0.252,0.154,0.504,0.154,0.784c-0.615,0.154-1.231,0.294-1.834,0.42c0.14,0.365,0.279,0.7,0.421,1.037
		c0.35-0.196,0.714-0.406,1.078-0.602c0.224,0.154,0.419,0.378,0.573,0.658c-0.434,0.322-0.854,0.616-1.261,0.896
		c0.196,0.49,0.393,0.966,0.603,1.415c0.294-0.154,0.589-0.322,0.896-0.504c0.196,0.224,0.309,0.434,0.351,0.658
		c-0.504,0.448-1.051,0.771-1.653,0.966c-0.364-0.644-0.7-1.302-1.008-1.988c-0.84,0.56-1.681,1.064-2.534,1.554
		c-0.28-0.167-0.463-0.406-0.575-0.714c0.785-0.617,1.682-1.232,2.661-1.834c-0.196-0.435-0.392-0.883-0.561-1.331
		c-0.896,0.168-1.765,0.322-2.632,0.462c-0.113-0.238-0.197-0.49-0.225-0.742c0.812-0.196,1.652-0.392,2.521-0.574
		c-0.197-0.504-0.379-1.008-0.547-1.512c-0.644,0.042-1.274,0.056-1.863,0.056c-0.056-0.238-0.084-0.49-0.084-0.757
		c0.547-0.056,1.106-0.098,1.666-0.154c-0.223-0.672-0.433-1.358-0.615-2.044C56.389,30.639,56.683,30.526,56.989,30.442
		 M51.052,33.832c1.232,0.084,2.423,0.196,3.585,0.336c0,0.252-0.041,0.532-0.126,0.869c-0.477,0-0.966-0.015-1.441-0.043
		c-0.028,0.42-0.056,0.813-0.07,1.177h0.015c0.825,0,1.4,0.028,1.735,0.083c0.015,0.112,0.027,0.252,0.027,0.393v0.434
		c-0.14,0.07-0.742,0.098-1.792,0.098h-0.028c-0.027,0.588-0.027,1.148-0.027,1.681c0.42,0.028,0.896,0.083,1.414,0.14
		c0.028,0.112,0.057,0.238,0.057,0.35c0,0.14-0.028,0.308-0.057,0.476c-0.293,0.014-0.7,0.028-1.218,0.028
		c-0.364,0-0.742-0.028-1.106-0.056c-0.015-0.252-0.015-0.882-0.015-1.919c0-0.238,0-0.476,0.015-0.714
		c-0.714,0-1.261-0.028-1.625-0.084c-0.041-0.126-0.056-0.281-0.056-0.462c0-0.168,0-0.309,0.028-0.42
		c0.476,0,1.035-0.014,1.681-0.028c0-0.42,0.027-0.84,0.07-1.261c-0.393-0.042-0.784-0.098-1.164-0.154
		C50.953,34.42,50.981,34.111,51.052,33.832 M51.492,28.861l-0.479,0.776c-0.849,1.374-1.508,2.529-2.016,3.532l-0.202,0.398
		l0.162,0.416c0.119,0.307,0.356,0.549,0.771,0.786c0.076,0.048,0.15,0.092,0.224,0.131v0.297h-0.365l-0.191,0.754
		c-0.059,0.233-0.059,0.453-0.059,0.666c0,0.306,0.033,0.551,0.104,0.771l0.19,0.587l0.609,0.093
		c0.212,0.033,0.464,0.057,0.762,0.072c0,0.929,0.001,1.457,0.017,1.714l0.051,0.873l0.871,0.066
		c0.362,0.028,0.773,0.059,1.183,0.059c0.538,0,0.962-0.015,1.267-0.029l0.804-0.039l0.084-0.5c0.166,0.202,0.365,0.372,0.597,0.51
		l0.502,0.3l0.509-0.292c0.599-0.344,1.132-0.661,1.623-0.966c0.173,0.341,0.355,0.681,0.551,1.026l0.402,0.71l0.776-0.252
		c0.725-0.235,1.4-0.628,2.01-1.17l0.422-0.375l-0.104-0.556c-0.076-0.403-0.267-0.773-0.582-1.134l-0.339-0.385l0.646-0.479
		l-0.421-0.765c-0.046-0.084-0.095-0.165-0.146-0.242l0.032-0.008v-0.78c0-0.39-0.073-0.765-0.223-1.149l-0.295-0.752l-0.602,0.098
		v-0.157c0-0.187-0.01-0.363-0.024-0.535c0.329-0.178,0.591-0.361,0.812-0.569l0.564-0.527l-0.367-0.679
		c-0.304-0.56-0.644-1.086-1.012-1.563l-0.532-0.689l-0.756,0.432c-0.298,0.17-0.611,0.358-0.886,0.577l-0.451,0.361
		c-0.016-0.046-0.03-0.093-0.045-0.139l-0.294-0.911l-0.922,0.253c-0.433,0.118-0.796,0.269-1.11,0.461l-0.638,0.389l0.15,0.565
		c-0.424-0.046-0.908-0.097-1.416-0.144l0.178-0.388l-0.628-0.486c-0.334-0.259-0.637-0.452-0.953-0.609L51.492,28.861
		L51.492,28.861z M55.776,37.453c0.328-0.054,0.667-0.112,1.02-0.174c-0.563,0.379-1.089,0.758-1.569,1.134l-0.084-0.333
		l-0.148-0.016c0.092-0.025,0.161-0.055,0.229-0.088l0.553-0.276V37.453L55.776,37.453z"/>
</g>
<g>
	<path d="M45.306,55.439c-1.145,0-2.04-0.041-2.59-0.117l-0.318-0.044l-0.092-0.308c-0.053-0.175-0.077-0.358-0.077-0.578
		c0-0.191,0-0.371,0.044-0.543l0.093-0.369l0.381-0.009c0.488-0.011,1.075-0.022,1.752-0.026c-0.06-0.604-0.109-1.246-0.156-1.993
		c-0.831-0.068-1.644-0.157-2.423-0.263l-0.433-0.059v-0.885c0-0.141,0.003-0.3,0.038-0.477l0.081-0.401h0.409
		c0.7,0,1.428,0.018,2.211,0.056c-0.033-0.633-0.05-1.273-0.05-1.908v-0.102c-0.57,0.06-1.142,0.106-1.713,0.139l-0.362,0.021
		l-0.132-0.337c-0.119-0.304-0.186-0.612-0.202-0.941l-0.022-0.423l0.414-0.091c1.759-0.389,3.714-0.67,5.811-0.836l0.366-0.029
		l0.137,0.341c0.136,0.337,0.204,0.668,0.204,0.984v0.398l-0.389,0.089c-0.726,0.167-1.46,0.31-2.199,0.43l0.023,0.24
		c0.069,0.727,0.121,1.453,0.169,2.164l0.003,0c0.827,0.072,1.695,0.147,2.604,0.243l0.447,0.047v0.45
		c0,0.294-0.031,0.608-0.093,0.934l-0.077,0.407H48.75c-0.805,0-1.582-0.018-2.362-0.056c0.023,0.63,0.042,1.253,0.054,1.866
		c0.747,0.016,1.297,0.042,1.67,0.078l0.393,0.038l0.055,0.39c0.019,0.131,0.033,0.296,0.033,0.461v0.774l-0.351,0.109
		C48.112,55.345,47.81,55.439,45.306,55.439z M39.097,53.562l-0.079-0.403c-0.188-0.947-0.338-1.906-0.447-2.857
		c-0.151,0.043-0.718,0.188-0.718,0.188l-0.198-0.184c-0.253-0.234-0.429-0.565-0.524-0.985l-0.08-0.352l0.309-0.187
		c0.979-0.593,2.101-1.069,3.331-1.412l0.317-0.089l0.207,0.256c0.241,0.3,0.377,0.629,0.415,1.006l0.029,0.291l-0.238,0.168
		c-0.294,0.207-0.608,0.394-0.938,0.558c0.151,0.979,0.277,2.044,0.393,3.315l0.035,0.389l-0.369,0.128
		c-0.324,0.113-0.662,0.168-1.032,0.168H39.097z"/>
	<path fill="#FFFFFF" d="M48.008,45.444c0.112,0.28,0.168,0.546,0.168,0.798c-1.834,0.42-3.753,0.7-5.741,0.812
		c-0.099-0.252-0.154-0.504-0.169-0.785C43.975,45.892,45.894,45.611,48.008,45.444 M45.613,47.447
		c0.083,0.868,0.141,1.736,0.196,2.577c0.952,0.083,1.961,0.168,3.024,0.28c0,0.266-0.028,0.546-0.084,0.84
		c-0.979,0-1.933-0.028-2.884-0.084c0.041,0.98,0.07,1.946,0.083,2.885c0.98,0.014,1.681,0.042,2.114,0.084
		c0.016,0.111,0.028,0.252,0.028,0.392v0.406c-0.224,0.07-1.147,0.112-2.786,0.112c-1.177,0-2.018-0.042-2.521-0.112
		c-0.042-0.14-0.056-0.28-0.056-0.434c0-0.168,0-0.309,0.028-0.42c0.615-0.014,1.387-0.028,2.297-0.028
		c-0.112-0.995-0.183-1.975-0.238-2.956c-0.952-0.07-1.904-0.167-2.829-0.294v-0.448c0-0.111,0-0.238,0.028-0.378
		c0.854,0,1.765,0.028,2.744,0.084c-0.056-0.813-0.083-1.625-0.083-2.437c0.167-0.042,0.321-0.07,0.476-0.07H45.613 M40.824,47.852
		c0.181,0.224,0.279,0.462,0.308,0.743c-0.378,0.266-0.783,0.49-1.204,0.672c0.196,1.19,0.335,2.408,0.448,3.655
		c-0.28,0.098-0.561,0.14-0.868,0.14c-0.225-1.134-0.393-2.269-0.504-3.417c-0.337,0.112-0.673,0.21-1.01,0.294
		c-0.182-0.168-0.307-0.42-0.377-0.729C38.541,48.651,39.619,48.188,40.824,47.852 M48.662,44.389l-0.733,0.058
		c-2.119,0.168-4.097,0.453-5.879,0.846l-0.827,0.183l0.044,0.846c0.011,0.2,0.037,0.394,0.079,0.584l-0.156-0.194l-0.634,0.177
		c-1.275,0.356-2.438,0.849-3.457,1.466l-0.617,0.374l0.161,0.704c0.118,0.519,0.344,0.936,0.672,1.24l0.397,0.368l0.433-0.108
		c0.102,0.776,0.229,1.554,0.382,2.324l0.16,0.806h0.821c0.428,0,0.819-0.064,1.197-0.196l0.737-0.257l-0.07-0.778
		c-0.039-0.431-0.08-0.839-0.122-1.228l0.601,0.082c0.653,0.089,1.33,0.166,2.021,0.229c0.024,0.367,0.051,0.709,0.079,1.037
		c-0.454,0.005-0.86,0.013-1.216,0.021l-0.76,0.017l-0.188,0.737c-0.059,0.233-0.059,0.453-0.059,0.666
		c0,0.27,0.031,0.499,0.098,0.721l0.185,0.615l0.637,0.088c0.58,0.08,1.475,0.121,2.658,0.121c2.58,0,2.908-0.102,3.084-0.157
		l0.702-0.219v-0.735v-0.406c0-0.215-0.021-0.408-0.038-0.531l-0.109-0.78l-0.784-0.076c-0.3-0.029-0.706-0.052-1.229-0.068
		c-0.007-0.279-0.015-0.563-0.024-0.855c0.607,0.022,1.218,0.033,1.844,0.033h0.828l0.154-0.814
		c0.067-0.355,0.102-0.701,0.102-1.026v-0.9l-0.896-0.094c-0.758-0.08-1.487-0.146-2.188-0.207c-0.035-0.502-0.073-1.012-0.12-1.527
		c0.594-0.104,1.185-0.224,1.77-0.358l0.776-0.178v-0.797c0-0.38-0.081-0.774-0.24-1.17L48.662,44.389L48.662,44.389z
		 M42.048,48.078l0.443-0.025c0.396-0.022,0.792-0.052,1.188-0.087c0.004,0.312,0.012,0.625,0.023,0.937
		c-0.533-0.02-1.043-0.031-1.537-0.032l-0.038-0.375C42.112,48.351,42.086,48.212,42.048,48.078L42.048,48.078z"/>
</g>
<g>
	<path d="M62.345,54.949c-1.669,0-3.172-0.065-4.598-0.198l-0.453-0.042v-0.918c0-0.159,0.003-0.315,0.038-0.491l0.081-0.401h0.409
		c0.412,0,0.848,0.007,1.306,0.017c0.001-0.229,0.002-0.452,0.005-0.672c-0.454-0.019-0.935-0.052-1.454-0.098l-0.455-0.041v-0.919
		c0-0.141,0.003-0.301,0.038-0.478l0.081-0.4h0.409c0.444,0,0.912,0.008,1.41,0.018c0.006-0.217,0.014-0.43,0.022-0.635
		c-0.538,0.006-1.018,0.006-1.433,0.006h-0.286l-0.145-0.247c-0.02-0.033-0.036-0.067-0.05-0.104l-0.18,0.293
		c0,0-0.385-0.123-0.391-0.125c-0.03,0.25-0.09,0.484-0.179,0.708l-0.126,0.315h-0.339c-0.316,0-0.584-0.005-0.818-0.016
		c0.022,0.984,0.043,2.007,0.043,3.059v0.309l-0.276,0.138c-0.216,0.108-0.483,0.123-0.741,0.123c-0.332,0-0.516,0-0.676-0.053
		l-0.321-0.106l-0.021-0.338c-0.051-0.85-0.093-1.703-0.124-2.556c-0.012,0.206-0.063,0.962-0.063,0.962l-0.317,0.105
		c-0.17,0.057-0.383,0.082-0.69,0.082c-0.366,0-0.638-0.081-0.831-0.249l-0.173-0.149V51.62c0-1.522,0.046-2.576,0.144-3.314
		l0.053-0.392l0.393-0.04c0.153-0.016,0.354-0.031,0.569-0.031c0.22,0,0.442,0.037,0.661,0.109l0.188,0.062
		c-0.003-0.288-0.004-1.111-0.004-1.111l0.199-0.15c0.158-0.12,0.37-0.157,0.786-0.196c0.01,0,0.02,0,0.029,0
		c0.296,0,0.505,0.033,0.682,0.1l0.302,0.113l0.022,0.321c0.032,0.462,0.064,0.931,0.091,1.4c0.116,0.009,0.235,0.019,0.356,0.03
		l0.073-0.154c0.438-0.917,0.937-1.833,1.482-2.721l0.207-0.337l0.376,0.125c0.365,0.121,0.71,0.277,1.024,0.465l0.41,0.245
		l-0.227,0.421c-0.215,0.397-0.424,0.777-0.629,1.141c0.179,0.001,0.876,0.009,1.045,0.01c0.043-0.713,0.094-1.286,0.159-1.777
		l0.053-0.392l0.393-0.04c0.154-0.016,0.324-0.03,0.542-0.03c0.21,0,0.423,0.038,0.631,0.113l0.33,0.119v0.351
		c0,0.543-0.008,1.104-0.019,1.673c0.149,0.001,1.867,0.012,1.867,0.012v0.948c0,0.29-0.04,0.486-0.07,0.609l-0.094,0.381h-1.762
		c-0.006,0.132-0.029,0.729-0.029,0.729c0.232,0.015,0.468,0.027,0.702,0.036l0.483,0.016v0.483c0,0.306-0.029,0.61-0.092,0.958
		l-0.074,0.411c0,0-0.891,0-1.117-0.003c-0.017,0.229-0.033,0.457-0.048,0.684l0.24,0.013c0.346,0.021,0.703,0.041,1.074,0.057
		l0.479,0.021v0.479c0,0.309-0.031,0.636-0.093,0.973l-0.075,0.41H62.345z"/>
	<path fill="#FFFFFF" d="M57.5,45.906c0.336,0.111,0.644,0.252,0.925,0.42c-0.506,0.938-1.022,1.849-1.555,2.717
		c-0.352-0.112-0.631-0.267-0.827-0.462C56.478,47.671,56.967,46.774,57.5,45.906 M60.428,45.976c0.152,0,0.307,0.028,0.461,0.083
		c0,0.701-0.013,1.429-0.028,2.171c0.631,0,1.262,0.014,1.877,0.014v0.448c0,0.224-0.028,0.378-0.056,0.49h-1.849
		c-0.028,0.561-0.043,1.134-0.07,1.695c0.393,0.028,0.799,0.056,1.205,0.07c0,0.28-0.028,0.561-0.084,0.869
		c-0.407,0-0.798,0-1.162-0.014c-0.043,0.56-0.084,1.121-0.113,1.667c0.574,0.028,1.177,0.07,1.821,0.098
		c0,0.28-0.028,0.574-0.085,0.882c-1.54,0-3.052-0.056-4.551-0.196v-0.462c0-0.126,0-0.252,0.028-0.392
		c0.56,0,1.162,0.014,1.806,0.028c0-0.588,0-1.134,0.015-1.667c-0.645-0.014-1.288-0.056-1.919-0.112v-0.462
		c0-0.112,0-0.238,0.028-0.378c0.588,0,1.218,0.014,1.904,0.028c0-0.589,0.027-1.148,0.056-1.653
		c-0.756,0.014-1.414,0.014-1.96,0.014c-0.041-0.07-0.056-0.238-0.056-0.504c0-0.154,0.027-0.322,0.083-0.49
		c0.659,0,1.317,0.014,1.976,0.014c0.042-0.841,0.098-1.583,0.182-2.213C60.076,45.99,60.23,45.976,60.428,45.976 M54.083,47.054
		c0.223,0,0.377,0.028,0.489,0.07c0.042,0.603,0.085,1.219,0.113,1.834c0.476,0.028,0.979,0.071,1.54,0.141
		c0,0.35-0.057,0.658-0.168,0.938c-0.532,0-0.967-0.014-1.331-0.056c0.027,1.148,0.056,2.353,0.056,3.599
		c-0.111,0.056-0.294,0.07-0.518,0.07c-0.266,0-0.435,0-0.519-0.028c-0.14-2.325-0.195-4.482-0.195-6.47
		C53.606,47.11,53.789,47.082,54.083,47.054 M52.206,48.343c0.168,0,0.336,0.028,0.504,0.084c0,0.98-0.042,2.059-0.126,3.263
		c-0.126,0.042-0.309,0.056-0.532,0.056c-0.237,0-0.406-0.042-0.504-0.126c0-1.428,0.041-2.507,0.14-3.249
		C51.827,48.357,52.01,48.343,52.206,48.343 M57.062,44.708l-0.415,0.675c-0.378,0.616-0.733,1.245-1.063,1.878
		c-0.005-0.068-0.009-0.135-0.014-0.203l-0.045-0.642l-0.603-0.229c-0.24-0.09-0.515-0.133-0.84-0.133h-0.047l-0.047,0.004
		c-0.435,0.041-0.764,0.086-1.041,0.295l-0.397,0.3v0.499c0,0.071,0,0.143,0,0.214c-0.114-0.016-0.229-0.024-0.345-0.024
		c-0.234,0-0.453,0.017-0.619,0.033l-0.786,0.08l-0.104,0.783c-0.102,0.761-0.148,1.835-0.148,3.38v0.457l0.346,0.299
		c0.288,0.249,0.667,0.37,1.158,0.37c0.258,0,0.464-0.017,0.642-0.053c0.017,0.33,0.035,0.66,0.055,0.989l0.04,0.676l0.644,0.213
		c0.237,0.079,0.462,0.079,0.833,0.079c0.318,0,0.656-0.021,0.965-0.175l0.553-0.276v-0.618c0-0.874-0.014-1.735-0.031-2.545
		c0.098,0.001,0.199,0.002,0.307,0.002h0.668c-0.002,0.056-0.002,0.105-0.002,0.148v0.462v0.914l0.243,0.022L56.842,53.2
		c-0.048,0.238-0.048,0.442-0.048,0.59v0.462v0.911l0.907,0.085c1.44,0.135,2.959,0.2,4.644,0.2h0.833l0.15-0.819
		c0.067-0.367,0.102-0.724,0.102-1.063v-0.958l-0.668-0.029l0.106-0.586c0.066-0.372,0.1-0.714,0.1-1.046v-0.765h0.498l0.187-0.761
		c0.058-0.235,0.085-0.466,0.085-0.729v-0.448v-1h-1c-0.283,0-0.57-0.003-0.858-0.006c0.006-0.399,0.01-0.793,0.01-1.179v-0.702
		l-0.661-0.238c-0.262-0.095-0.531-0.143-0.8-0.143c-0.237,0-0.424,0.016-0.592,0.033l-0.786,0.08l-0.055,0.413l-0.058-0.034
		c-0.346-0.207-0.724-0.378-1.123-0.511L57.062,44.708L57.062,44.708z"/>
</g>
</svg>
