<?xml version="1.0" encoding="utf-8"?>
<!-- Generator: Adobe Illustrator 16.0.0, SVG Export Plug-In . SVG Version: 6.00 Build 0)  -->
<!DOCTYPE svg PUBLIC "-//W3C//DTD SVG 1.1//EN" "http://www.w3.org/Graphics/SVG/1.1/DTD/svg11.dtd">
<svg version="1.1" id="Layer_1" xmlns="http://www.w3.org/2000/svg" xmlns:xlink="http://www.w3.org/1999/xlink" x="0px" y="0px"
	 width="126.876px" height="112.438px" viewBox="0 0 126.876 112.438" enable-background="new 0 0 126.876 112.438"
	 xml:space="preserve">
<rect fill="#FFFFFF" width="126.876" height="112.438"/>
<g>
	<g>
		
			<rect x="28.395" y="42.924" transform="matrix(-0.9539 0.3001 -0.3001 -0.9539 99.2846 78.7986)" fill="#F8B62D" width="30.392" height="8.199"/>
		<path fill="#FFFFFF" d="M56.529,39.18l2.161,6.867l-28.037,8.819L28.492,48L56.529,39.18 M57.183,37.926l-0.953,0.3l-28.037,8.82
			l-0.954,0.301l0.3,0.953l2.161,6.866L30,56.12l0.953-0.3l28.037-8.819l0.954-0.3l-0.3-0.954l-2.161-6.867L57.183,37.926
			L57.183,37.926z"/>
	</g>
	<g>
		<path fill="#F8B62D" d="M37.108,29.104c-1.181,0-2.212-0.757-2.565-1.884c-0.216-0.684-0.151-1.41,0.181-2.047
			c0.333-0.638,0.895-1.107,1.581-1.323c0.262-0.082,0.533-0.124,0.806-0.124c1.179,0,2.209,0.756,2.563,1.88
			c0.216,0.686,0.151,1.414-0.181,2.052s-0.892,1.106-1.576,1.321C37.654,29.062,37.382,29.104,37.108,29.104L37.108,29.104z"/>
		<path fill="#FFFFFF" d="M37.11,24.226c0.929,0,1.792,0.598,2.087,1.53c0.362,1.153-0.279,2.385-1.43,2.746
			c-0.219,0.069-0.441,0.102-0.659,0.102c-0.932,0-1.795-0.598-2.089-1.534c-0.362-1.15,0.279-2.38,1.435-2.742
			C36.672,24.259,36.893,24.226,37.11,24.226 M37.11,23.226c-0.324,0-0.646,0.05-0.957,0.147c-0.812,0.255-1.479,0.812-1.873,1.568
			c-0.394,0.755-0.47,1.617-0.215,2.429c0.421,1.336,1.644,2.233,3.043,2.233c0.325,0,0.647-0.05,0.959-0.147
			c0.812-0.255,1.476-0.812,1.869-1.568c0.394-0.756,0.47-1.619,0.215-2.432C39.73,24.122,38.509,23.226,37.11,23.226L37.11,23.226z
			"/>
	</g>
	<g>
		<path fill="#F8B62D" d="M24.469,36.283c-0.918,0-1.72-0.59-1.995-1.467c-0.168-0.532-0.118-1.099,0.14-1.594
			c0.258-0.496,0.694-0.861,1.228-1.029c0.203-0.064,0.414-0.097,0.626-0.097c0.917,0,1.719,0.589,1.994,1.465
			c0.169,0.534,0.118,1.103-0.141,1.6c-0.259,0.494-0.693,0.858-1.225,1.025C24.893,36.25,24.682,36.283,24.469,36.283
			L24.469,36.283z"/>
		<path fill="#FFFFFF" d="M24.467,32.597c0.676,0,1.304,0.436,1.518,1.115c0.264,0.838-0.2,1.734-1.038,1.997
			c-0.159,0.05-0.319,0.074-0.478,0.074c-0.677,0-1.305-0.438-1.519-1.117c-0.264-0.837,0.2-1.731,1.041-1.996
			C24.149,32.62,24.31,32.597,24.467,32.597 M24.467,31.597c-0.263,0-0.524,0.04-0.776,0.119c-0.661,0.208-1.201,0.661-1.521,1.275
			c-0.32,0.614-0.381,1.315-0.174,1.976c0.342,1.086,1.335,1.816,2.473,1.816c0.264,0,0.525-0.041,0.778-0.12
			c0.657-0.206,1.196-0.658,1.517-1.271c0.32-0.615,0.383-1.318,0.175-1.979C26.597,32.326,25.604,31.597,24.467,31.597
			L24.467,31.597z"/>
	</g>
	<g>
		<path fill="#F8B62D" d="M51.922,27.646c-0.917,0-1.719-0.589-1.994-1.466c-0.168-0.532-0.118-1.099,0.14-1.594
			c0.258-0.497,0.694-0.862,1.227-1.029c0.205-0.065,0.417-0.098,0.63-0.098c0.918,0,1.72,0.589,1.995,1.466
			c0.167,0.532,0.117,1.1-0.141,1.595c-0.259,0.496-0.694,0.861-1.229,1.028C52.347,27.612,52.135,27.646,51.922,27.646
			L51.922,27.646z"/>
		<path fill="#FFFFFF" d="M51.924,23.959c0.678,0,1.305,0.437,1.518,1.115c0.264,0.839-0.201,1.733-1.041,1.997
			c-0.159,0.051-0.32,0.074-0.479,0.074c-0.677,0-1.304-0.437-1.518-1.116c-0.264-0.837,0.201-1.732,1.04-1.996
			C51.604,23.982,51.766,23.959,51.924,23.959 M51.924,22.959c-0.264,0-0.527,0.04-0.781,0.121c-0.659,0.207-1.199,0.66-1.519,1.274
			s-0.382,1.315-0.174,1.976c0.342,1.086,1.335,1.815,2.472,1.815c0.264,0,0.526-0.041,0.78-0.121
			c0.659-0.207,1.199-0.659,1.52-1.274c0.319-0.613,0.382-1.315,0.174-1.976C54.055,23.688,53.062,22.959,51.924,22.959
			L51.924,22.959z"/>
	</g>
	<g>
		<path fill="#F8B62D" d="M27.02,44.983c-0.076-0.062-0.152-0.128-0.226-0.197c-2.801-2.569-2.978-6.316-0.425-9.107
			c1.301-1.412,2.971-2.189,4.705-2.189c0.651,0,1.296,0.109,1.924,0.325c0.642-2.255,2.444-4.029,4.927-4.811
			c0.815-0.257,1.64-0.387,2.45-0.387c1.643,0,3.132,0.521,4.341,1.512c1.14-1.561,2.9-2.443,4.918-2.443
			c0.521,0,1.053,0.06,1.581,0.177c3.696,0.824,5.698,3.998,4.87,7.717c-0.023,0.101-0.048,0.194-0.074,0.287l0.779,2.473
			L27.799,47.46L27.02,44.983z M31.884,36.91c-0.953,0-1.915,0.476-2.708,1.34c-1.492,1.629-1.48,3.579,0.03,4.969
			c0.115,0.105,0.233,0.202,0.352,0.291l5.491-1.727c-0.834-0.985-1.486-2.188-1.905-3.52c-0.128-0.406-0.222-0.796-0.284-1.186
			C32.54,36.967,32.213,36.91,31.884,36.91z M40.812,32.783c-0.52,0-1.062,0.088-1.614,0.261c-2.479,0.78-3.611,2.774-2.887,5.081
			c0.361,1.147,0.997,2.069,1.846,2.681l6.333-1.992c0.345-0.986,0.338-2.106-0.022-3.254
			C43.911,33.795,42.579,32.783,40.812,32.783z M46.7,32.726c0.174,0.368,0.322,0.748,0.443,1.134
			c0.418,1.33,0.572,2.688,0.455,3.976l5.489-1.728c0.045-0.139,0.085-0.283,0.116-0.433c0.214-0.952,0.091-1.823-0.355-2.525
			c-0.488-0.77-1.362-1.329-2.46-1.573c-0.354-0.079-0.703-0.118-1.038-0.118C48.221,31.458,47.29,31.905,46.7,32.726z"/>
		<path fill="#FFFFFF" d="M49.634,28.186c0.482,0,0.976,0.055,1.473,0.165c3.196,0.713,5.31,3.441,4.49,7.12
			c-0.033,0.142-0.069,0.273-0.109,0.406l0.003-0.001l0.673,2.136l-28.037,8.821l-0.673-2.137c-0.102-0.089-0.212-0.175-0.314-0.272
			c-2.777-2.548-2.609-5.993-0.4-8.407c1.194-1.298,2.734-2.027,4.336-2.027c0.756,0,1.524,0.162,2.277,0.504
			c0.454-2.408,2.245-4.232,4.724-5.013c0.771-0.242,1.545-0.363,2.3-0.363c1.665,0,3.231,0.59,4.439,1.771
			C45.872,29.104,47.66,28.186,49.634,28.186 M47.015,38.543l6.463-2.034c0.086-0.23,0.162-0.474,0.216-0.732
			c0.537-2.391-0.869-4.17-3.196-4.688c-0.393-0.087-0.776-0.13-1.146-0.13c-1.369,0-2.542,0.592-3.226,1.732
			c0.209,0.406,0.393,0.844,0.541,1.318c0.505,1.604,0.586,3.146,0.333,4.523C47.004,38.537,47.005,38.54,47.015,38.543
			 M38.075,41.355l6.795-2.138c0.451-1.099,0.51-2.42,0.073-3.809c-0.652-2.073-2.24-3.127-4.131-3.126
			c-0.567,0-1.161,0.094-1.766,0.284c-2.622,0.825-4.061,3.013-3.213,5.708C36.271,39.664,37.077,40.713,38.075,41.355
			 M29.468,44.062l6.465-2.033c0.002-0.007,0.007-0.011,0.008-0.019c-1-0.983-1.815-2.293-2.32-3.897
			c-0.149-0.476-0.251-0.937-0.307-1.393c-0.47-0.209-0.951-0.311-1.43-0.311c-1.099,0-2.185,0.531-3.076,1.502
			c-1.608,1.755-1.741,4.019,0.061,5.675C29.064,43.767,29.266,43.922,29.468,44.062 M49.634,27.186
			c-2.005,0-3.776,0.808-5.008,2.25c-1.22-0.856-2.694-1.318-4.251-1.318c-0.861,0-1.735,0.138-2.6,0.409
			c-2.469,0.777-4.308,2.481-5.102,4.668c-0.525-0.137-1.061-0.205-1.6-0.205c-1.876,0-3.677,0.834-5.072,2.351
			c-2.753,3.009-2.563,7.047,0.461,9.821c0.037,0.035,0.079,0.072,0.123,0.11l0.586,1.862l0.301,0.953l0.953-0.3l28.037-8.821
			l0.955-0.301l-0.301-0.954l-0.585-1.856c0.013-0.051,0.025-0.103,0.038-0.155c0.895-4.018-1.264-7.437-5.246-8.324
			C50.76,27.249,50.19,27.186,49.634,27.186L49.634,27.186z M47.281,32.798c0.613-0.684,1.439-0.84,2.069-0.84
			c0.299,0,0.611,0.035,0.93,0.106c0.967,0.215,1.729,0.696,2.146,1.353c0.378,0.597,0.476,1.316,0.291,2.141
			c-0.011,0.051-0.022,0.103-0.035,0.153l-4.548,1.431c0.018-1.127-0.155-2.291-0.515-3.433
			C47.523,33.401,47.41,33.097,47.281,32.798L47.281,32.798z M38.255,40.251c-0.664-0.546-1.167-1.324-1.467-2.276
			c-0.771-2.447,0.817-3.905,2.559-4.453c0.503-0.158,0.996-0.238,1.466-0.238c1.557-0.001,2.685,0.861,3.177,2.426
			c0.3,0.953,0.333,1.879,0.102,2.706L38.255,40.251L38.255,40.251z M29.661,42.953c-0.04-0.034-0.079-0.069-0.118-0.104
			c-1.562-1.437-1.023-3.144,0.002-4.262c0.697-0.759,1.527-1.178,2.339-1.178c0.181,0,0.36,0.021,0.539,0.062
			c0.062,0.31,0.143,0.621,0.243,0.941c0.359,1.144,0.885,2.196,1.545,3.109L29.661,42.953L29.661,42.953z"/>
	</g>
</g>
<g>
	<g>
		<path d="M51.033,67.389c-0.198,0-0.421-0.007-0.67-0.021l-0.16-0.009l-0.125-0.101c-0.281-0.227-0.409-0.59-0.381-1.08
			l0.024-0.417l0.414-0.05c0.072-0.009,0.164-0.022,0.276-0.039c-0.136-1.139-0.261-2.286-0.374-3.433l-0.041-0.42l0.407-0.111
			c0.285-0.078,0.567-0.116,0.862-0.116c0.064,0,0.13,0.002,0.198,0.006l0.374,0.021l0.085,0.365c0.296,1.27,0.508,2.861,0.63,4.73
			l0.021,0.319l-0.281,0.152C52.035,67.326,51.646,67.389,51.033,67.389z M55.464,65.048c-0.913-0.248-1.684-0.583-2.29-0.997
			l-0.326-0.222l0.14-0.369c0.149-0.394,0.316-0.723,0.496-0.979l0.229-0.327l0.369,0.151c0.717,0.294,1.434,0.633,2.193,1.036
			l0.387,0.205l-0.152,0.41c-0.108,0.292-0.276,0.589-0.515,0.907l-0.203,0.272L55.464,65.048z M45.708,64.711
			c-0.422-0.184-0.749-0.492-0.97-0.919l-0.157-0.302l0.224-0.257c0.845-0.97,1.701-1.89,2.428-2.661
			c1.009-1.059,1.747-1.8,2.253-2.26c-1.657-0.142-3.081-0.291-4.294-0.451l-0.257-0.034l-0.12-0.229
			c-0.099-0.188-0.106-0.418-0.086-0.754c0.01-0.206,0.059-0.418,0.148-0.641l0.134-0.333l0.358,0.021
			c3.551,0.2,7.188,0.517,10.808,0.939l0.468,0.056L56.592,57.8c-0.012,0.214-0.046,0.413-0.106,0.607l-0.116,0.373l-0.39-0.022
			c-2.024-0.113-3.833-0.233-5.442-0.359c0.169,0.131,0.333,0.274,0.491,0.429l0.334,0.327l-0.304,0.355
			c-0.776,0.907-1.583,1.778-2.34,2.584c-1.226,1.444-2.067,2.297-2.556,2.588l-0.22,0.131L45.708,64.711z"/>
		<path fill="#FFFFFF" d="M45.341,56.39c3.621,0.204,7.223,0.521,10.777,0.938l-0.025,0.444c-0.012,0.217-0.05,0.374-0.085,0.487
			c-4.515-0.254-8.09-0.542-10.751-0.894c-0.039-0.074-0.045-0.233-0.029-0.491C45.235,56.716,45.272,56.56,45.341,56.39
			 M49.934,58.581c0.264,0.173,0.512,0.375,0.745,0.604c-0.742,0.867-1.525,1.716-2.324,2.567c-1.203,1.416-2.029,2.251-2.447,2.5
			c-0.309-0.134-0.556-0.363-0.726-0.69c0.802-0.92,1.615-1.797,2.415-2.646C48.652,59.807,49.431,59.027,49.934,58.581
			 M51.267,62.093c0.055,0,0.111,0.002,0.17,0.005c0.279,1.198,0.494,2.752,0.618,4.649c-0.174,0.095-0.513,0.142-1.021,0.142
			c-0.19,0-0.403-0.006-0.642-0.02c-0.155-0.125-0.214-0.344-0.195-0.661c0.16-0.02,0.42-0.062,0.771-0.114
			c-0.158-1.293-0.302-2.598-0.431-3.902C50.756,62.131,50.994,62.093,51.267,62.093 M53.893,62.769
			c0.733,0.301,1.449,0.644,2.148,1.015c-0.1,0.269-0.26,0.532-0.446,0.782c-0.867-0.235-1.584-0.549-2.14-0.928
			C53.589,63.285,53.736,62.991,53.893,62.769 M44.681,55.351l-0.268,0.666c-0.11,0.275-0.171,0.54-0.185,0.808
			c-0.024,0.402-0.009,0.717,0.144,1.007l0.241,0.458l0.513,0.067c0.943,0.125,2.014,0.243,3.22,0.356
			c-0.409,0.407-0.898,0.909-1.474,1.513c-0.733,0.779-1.594,1.703-2.444,2.679l-0.447,0.514l0.313,0.604
			c0.272,0.523,0.692,0.92,1.216,1.147l0.47,0.203l0.439-0.262c0.342-0.204,0.994-0.707,2.697-2.712
			c0.129-0.137,0.261-0.277,0.395-0.42l0.03,0.311c0.098,0.992,0.204,1.981,0.317,2.952l-0.611,0.074l-0.049,0.833
			c-0.039,0.661,0.151,1.165,0.566,1.499l0.25,0.201l0.321,0.018c0.259,0.015,0.491,0.021,0.697,0.021
			c0.701,0,1.163-0.081,1.499-0.263l0.562-0.306l-0.042-0.639c-0.053-0.8-0.121-1.551-0.206-2.248l0.045,0.03
			c0.653,0.445,1.475,0.805,2.441,1.066l0.656,0.179l0.407-0.546c0.267-0.357,0.457-0.695,0.582-1.032l0.305-0.82L56.51,62.9
			c-0.774-0.411-1.507-0.757-2.237-1.057l-0.739-0.304l-0.459,0.654c-0.157,0.223-0.304,0.491-0.438,0.801
			c-0.069-0.398-0.145-0.773-0.227-1.124l-0.17-0.729L51.493,61.1c-0.078-0.005-0.153-0.007-0.227-0.007l0,0
			c-0.34,0-0.666,0.044-0.995,0.134l-0.089,0.025c0.415-0.455,0.84-0.931,1.256-1.417l0.608-0.711l-0.124-0.121
			c1.236,0.088,2.577,0.173,4.029,0.254l0.779,0.044l0.231-0.745c0.072-0.234,0.114-0.473,0.128-0.73l0.025-0.441l0.054-0.94
			l-0.936-0.109c-3.63-0.425-7.275-0.742-10.837-0.942L44.681,55.351L44.681,55.351z"/>
	</g>
	<g>
		<path d="M68.688,68.038c-1.967-0.148-2.463-0.264-2.677-0.349l-0.321-0.127l0.006-0.347c0.006-0.32,0.031-0.796,0.065-1.428
			l0.011-0.187c0.045-0.788,0.142-1.631,0.287-2.506l0.067-0.406l0.167-0.005c-0.045-0.017-0.082-0.033-0.115-0.05l-0.269-0.138
			l-0.004-0.302c-0.005-0.396,0.015-1.013,0.063-1.862c0.04-0.739,0.132-1.585,0.272-2.512l0.062-0.413l0.742-0.019
			c0.069,0,0.139,0.002,0.207,0.006c0.229,0.013,0.406,0.066,0.521,0.105l0.356,0.124c0,0-0.072,1.133-0.075,1.188
			c0.317-0.012,0.63-0.018,0.937-0.018c0.379,0,0.749,0.01,1.109,0.03l0.39,0.022l0.073,0.383c0.029,0.153,0.055,0.319,0.044,0.501
			c-0.011,0.19-0.057,0.357-0.1,0.499l-0.087,0.287l-0.294,0.059c-0.434,0.086-1.178,0.14-2.217,0.16
			c-0.007,0.082-0.014,0.164-0.021,0.246l2.245,0.21l0.018,0.437c0.007,0.18,0.013,0.332,0.004,0.482L70.112,62.9l-0.362,0.087
			c-0.126,0.03-0.273,0.044-0.464,0.044c-0.099,0-0.209-0.004-0.331-0.011c-0.389-0.025-0.722-0.051-1.009-0.076l-0.019,0.339
			c-0.01,0.187-0.024,0.376-0.04,0.572c0,0.006-0.001,0.012-0.001,0.018c0.288-0.007,0.57-0.011,0.849-0.011
			c0.432,0,0.854,0.01,1.267,0.033l0.39,0.021l0.073,0.384c0.027,0.143,0.056,0.311,0.047,0.48
			c-0.013,0.216-0.059,0.376-0.104,0.522l-0.088,0.282l-0.29,0.06c-0.407,0.083-1.092,0.126-2.314,0.144
			c-0.008,0.072-0.016,0.145-0.022,0.217l2.166,0.205l0.023,0.43c0.009,0.165,0.016,0.313,0.006,0.477l-0.048,0.841l-0.408,0.056
			c-0.12,0.017-0.285,0.031-0.494,0.031C68.861,68.045,68.777,68.043,68.688,68.038z M60.479,67.673
			c-0.251-0.049-0.502-0.088-0.746-0.125l-0.635-0.099l0.051-0.474c0.185-1.735,0.396-3.423,0.629-5.016l0.072-0.493l1.542,0.228
			c0.008-0.025,0.152-0.425,0.152-0.425l0.371,0.021c0.994,0.057,1.874,0.135,2.689,0.24l0.401,0.052l0.033,0.403
			c0.164,1.972,0.201,3.694,0.112,5.266l-0.024,0.434l-0.433,0.036c-0.239,0.021-0.527,0.032-0.861,0.032
			c-0.277,0-0.586-0.008-0.926-0.027l-0.359-0.02l-0.095-0.349c-0.076-0.281-0.109-0.538-0.099-0.764l0.012-0.265l-0.022,0.006
			c-0.171,0.038-0.388,0.057-0.663,0.057c-0.137,0-0.289-0.005-0.457-0.015c-0.013-0.001-0.025-0.001-0.038-0.002
			c-0.011,0.077-0.116,0.867-0.116,0.867l-0.065,0.531L60.479,67.673z M62.745,64.975c0.027,0.162,0.051,0.324,0.04,0.515
			c-0.008,0.163-0.033,0.313-0.058,0.445l-0.034,0.188c0,0,0.411-0.014,0.537-0.021c-0.016-0.935-0.038-1.862-0.062-2.789
			l-0.411-0.052l0.017,0.083c0.039,0.195,0.054,0.369,0.045,0.53c-0.012,0.172-0.034,0.303-0.058,0.434l-0.056,0.311l-0.02,0.006
			L62.745,64.975z M63.825,61.42c-1.394-0.079-2.673-0.247-3.913-0.515l-0.598-0.129l0.245-0.56
			c0.574-1.311,1.189-2.462,1.831-3.423l0.212-0.317l0.362,0.12c0.358,0.12,0.691,0.266,0.989,0.436l0.437,0.248l-0.25,0.436
			c-0.314,0.549-0.621,1.098-0.919,1.647c0.493,0.081,1,0.147,1.515,0.2c-0.027-0.225-0.039-0.46-0.036-0.707l0.005-0.354
			l0.336-0.112c0.248-0.084,0.524-0.147,0.845-0.194l0.368-0.055l0.158,0.337c0.21,0.448,0.336,1.047,0.386,1.829l0.021,0.334
			l-0.302,0.146c-0.333,0.162-0.645,0.25-0.951,0.267l-0.233,0.014c-0.004,0.01-0.142,0.373-0.142,0.373L63.825,61.42z"/>
		<path fill="#FFFFFF" d="M61.807,57.071c0.311,0.104,0.62,0.236,0.9,0.396c-0.433,0.755-0.85,1.51-1.253,2.267
			c0.827,0.161,1.686,0.281,2.575,0.36c-0.016,0.289-0.074,0.559-0.176,0.827c-1.294-0.073-2.567-0.23-3.836-0.504
			C60.579,59.135,61.176,58.017,61.807,57.071 M67.046,57.89c0.061,0,0.12,0.002,0.179,0.005c0.158,0.009,0.286,0.045,0.385,0.079
			c-0.024,0.432-0.063,0.891-0.09,1.364c0.505-0.027,0.995-0.043,1.472-0.043c0.369,0,0.729,0.01,1.081,0.029
			c0.022,0.117,0.044,0.247,0.036,0.377c-0.008,0.143-0.045,0.271-0.079,0.385c-0.453,0.09-1.308,0.145-2.574,0.157
			c-0.039,0.388-0.075,0.79-0.098,1.192c0.773,0.072,1.55,0.144,2.295,0.214c0.006,0.146,0.013,0.291,0.005,0.435l-0.023,0.417
			c-0.09,0.021-0.205,0.03-0.348,0.03c-0.09,0-0.191-0.003-0.303-0.01c-1.466-0.097-2.324-0.202-2.578-0.332
			c-0.005-0.39,0.015-0.994,0.062-1.828c0.039-0.719,0.129-1.551,0.268-2.465C66.843,57.894,66.945,57.89,67.046,57.89
			 M64.959,58.689c0.181,0.386,0.294,0.925,0.34,1.648c-0.267,0.13-0.516,0.203-0.761,0.217c-0.233-0.459-0.347-1.028-0.338-1.691
			C64.421,58.789,64.669,58.732,64.959,58.689 M61.888,61.79c0.977,0.056,1.852,0.134,2.654,0.237
			c0.154,1.854,0.202,3.587,0.111,5.196c-0.228,0.019-0.502,0.03-0.819,0.03c-0.269,0-0.568-0.008-0.897-0.026
			c-0.071-0.263-0.089-0.466-0.082-0.609c0.318-0.011,0.608-0.023,0.883-0.052c-0.017-1.24-0.048-2.469-0.08-3.695
			c-0.629-0.078-1.246-0.157-1.847-0.233c-0.022-0.117-0.014-0.261-0.003-0.463C61.814,62.062,61.836,61.933,61.888,61.79
			 M60.273,62.032c0.328,0.047,0.628,0.093,0.915,0.137c-0.054,0.416-0.089,0.818-0.139,1.19l0.459,0.025
			c0.331,0.019,0.589,0.047,0.775,0.058c0.023,0.117,0.044,0.263,0.036,0.405c-0.01,0.145-0.03,0.259-0.051,0.373
			c-0.121,0.033-0.291,0.05-0.513,0.05c-0.099,0-0.207-0.004-0.325-0.01c-0.188-0.012-0.346-0.021-0.489-0.043
			c-0.027,0.259-0.057,0.517-0.085,0.744l0.489,0.029c0.388,0.021,0.688,0.053,0.905,0.065c0.021,0.129,0.042,0.261,0.034,0.405
			c-0.007,0.144-0.03,0.272-0.051,0.386c-0.133,0.029-0.318,0.045-0.554,0.045c-0.128,0-0.271-0.005-0.429-0.014
			c-0.201-0.012-0.372-0.021-0.501-0.042c-0.056,0.459-0.123,0.9-0.178,1.345c-0.313-0.061-0.628-0.106-0.928-0.153
			C59.829,65.309,60.039,63.632,60.273,62.032 M66.858,63.172c0.06,0,0.116,0.001,0.171,0.004c0.172,0.01,0.301,0.046,0.399,0.08
			c-0.02,0.359-0.057,0.732-0.08,1.135c0.477-0.018,0.938-0.028,1.387-0.028c0.423,0,0.834,0.01,1.238,0.032
			c0.022,0.117,0.045,0.247,0.039,0.361c-0.01,0.16-0.047,0.286-0.082,0.399c-0.451,0.092-1.332,0.127-2.66,0.139
			c-0.051,0.389-0.087,0.774-0.122,1.162c0.759,0.071,1.504,0.142,2.235,0.212c0.008,0.145,0.015,0.275,0.006,0.419l-0.024,0.432
			c-0.104,0.014-0.247,0.026-0.427,0.026c-0.069,0-0.144-0.002-0.224-0.006c-1.437-0.108-2.266-0.214-2.52-0.314
			c0.006-0.347,0.036-0.878,0.075-1.596c0.041-0.721,0.129-1.537,0.281-2.451C66.661,63.175,66.763,63.172,66.858,63.172
			 M61.398,55.881l-0.424,0.636c-0.657,0.985-1.288,2.162-1.873,3.499l-0.491,1.121l0.76,0.164l-0.086,0.587
			c-0.234,1.599-0.447,3.293-0.632,5.035l-0.101,0.946l0.94,0.147l0.165,0.025c0.237,0.036,0.482,0.074,0.728,0.121l1.051,0.203
			l0.131-1.062c0.018-0.138,0.035-0.274,0.054-0.412c0.021,0.001,0.042,0.001,0.062,0.001c0.062,0,0.123-0.001,0.181-0.003
			c0.016,0.189,0.053,0.39,0.109,0.6l0.188,0.696l0.721,0.04c0.35,0.02,0.668,0.028,0.953,0.028c0.331,0,0.635-0.012,0.903-0.034
			l0.865-0.072l0.005-0.08l0.22,0.087c0.274,0.109,0.806,0.23,2.812,0.382c0.12,0.007,0.213,0.009,0.299,0.009
			c0.198,0,0.387-0.012,0.562-0.035l0.817-0.111l0.046-0.823l0.024-0.432c0.012-0.179,0.005-0.346-0.006-0.529l-0.027-0.524
			l0.355-0.072l0.176-0.566c0.037-0.121,0.107-0.346,0.125-0.635c0.012-0.225-0.02-0.426-0.055-0.61l-0.147-0.767l-0.649-0.036
			l0.432-0.104l0.041-0.743l0.023-0.417c0.01-0.167,0.004-0.335-0.003-0.504l-0.026-0.648l0.188-0.037l0.173-0.575
			c0.037-0.122,0.105-0.35,0.12-0.619c0.015-0.231-0.019-0.443-0.052-0.62l-0.147-0.766l-0.778-0.044
			c-0.37-0.021-0.749-0.031-1.138-0.031c-0.131,0-0.265,0.001-0.4,0.003c0.006-0.09,0.012-0.18,0.017-0.268l0.043-0.754
			l-0.714-0.248c-0.223-0.077-0.438-0.12-0.656-0.132c-0.077-0.005-0.155-0.007-0.234-0.007c-0.097,0-0.195,0.003-0.298,0.006
			l-0.835,0.024l-0.166,0.826c-0.011,0.068-0.021,0.136-0.03,0.203l-0.168-0.358L64.812,57.7c-0.351,0.052-0.654,0.122-0.931,0.215
			l-0.346,0.116c0.013-0.022,0.025-0.045,0.039-0.067l0.499-0.871l-0.873-0.495c-0.326-0.186-0.689-0.346-1.078-0.475L61.398,55.881
			L61.398,55.881z M63.005,58.975c0.066-0.119,0.132-0.237,0.198-0.355L63.2,58.85c-0.001,0.051-0.001,0.101,0,0.149
			C63.135,58.991,63.07,58.982,63.005,58.975L63.005,58.975z"/>
	</g>
	<g>
		<path d="M82.839,68.642c-0.938-0.333-1.634-0.619-2.253-0.926l-0.407-0.202l0.162-0.425c0.052-0.137,0.111-0.274,0.174-0.41
			l-0.119,0.018c-0.12,0.019-0.274,0.028-0.462,0.028c-0.168,0-0.365-0.008-0.595-0.021c-0.7-0.038-1.093-0.104-1.355-0.228
			l-0.305-0.144l0.019-0.337c0.104-1.85,0.251-3.56,0.453-5.227l0.035-0.291c-0.009,0-0.422,0.012-0.422,0.012l-0.1-0.385
			c-0.096-0.366-0.141-0.713-0.138-1.061l0.005-0.452l0.449-0.041c1.961-0.18,4.004-0.315,6.247-0.416l0.401-0.019l0.104,0.388
			c0.083,0.306,0.14,0.66,0.166,1.026l0.034,0.483l-0.482,0.049c-1.623,0.167-3.232,0.288-4.8,0.36
			c0.01,0.003,0.393,0.129,0.393,0.129l-0.021,0.384c-0.076,1.352-0.161,2.656-0.245,3.929c0.134,0.015,1.141,0.134,1.141,0.134
			l-0.05,0.896c0,0-0.023,0.092-0.027,0.114l0.085-0.172L81.35,66c0.763,0.291,1.502,0.598,2.196,0.911l0.364,0.165l-0.081,0.393
			c-0.065,0.318-0.191,0.624-0.396,0.961l-0.211,0.348L82.839,68.642z M75.079,66.306l-0.409-0.024l-0.057-0.405
			c-0.138-0.982-0.236-1.979-0.294-2.972c-0.164,0.037-0.327,0.071-0.49,0.103l-0.268,0.051l-0.188-0.196
			c-0.243-0.254-0.404-0.601-0.478-1.031l-0.061-0.356l0.319-0.169c1.044-0.555,2.221-0.978,3.498-1.257l0.32-0.07l0.191,0.267
			c0.231,0.32,0.352,0.664,0.367,1.052l0.012,0.291l-0.247,0.153c-0.313,0.195-0.649,0.37-1.003,0.521
			c0.101,1.031,0.169,2.135,0.213,3.437l0.013,0.388l-0.373,0.109c-0.273,0.079-0.552,0.118-0.852,0.118
			C75.225,66.312,75.152,66.311,75.079,66.306z M83.022,65.875c-0.276-0.624-0.516-1.212-0.725-1.786
			c-0.271,0.061-0.54,0.118-0.808,0.17l-0.315,0.061l-0.187-0.261c-0.271-0.381-0.398-0.779-0.376-1.185l0.019-0.347l0.332-0.104
			c0.226-0.069,0.45-0.135,0.672-0.197c-0.097-0.286-0.188-0.574-0.273-0.855l-0.131-0.43l0.414-0.176
			c0.237-0.101,0.524-0.183,0.905-0.258l0.411-0.082c0,0,0.394,1.01,0.515,1.31c0.319-0.078,0.627-0.149,0.926-0.214l0.347-0.075
			l0.186,0.302c0.231,0.375,0.361,0.718,0.398,1.048l0.044,0.397L84.9,63.358c-0.235,0.081-0.471,0.162-0.708,0.238l0.717,2
			l-0.34,0.214c-0.271,0.171-0.621,0.295-1.012,0.356l-0.38,0.06L83.022,65.875z"/>
		<path fill="#FFFFFF" d="M84.25,58.635c0.071,0.265,0.125,0.586,0.149,0.932c-2.089,0.215-4.173,0.356-6.252,0.413
			c-0.084-0.321-0.124-0.627-0.121-0.93C80.171,58.854,82.253,58.725,84.25,58.635 M76.76,60.536c0.174,0.241,0.261,0.49,0.272,0.78
			c-0.402,0.251-0.831,0.456-1.274,0.619c0.133,1.233,0.206,2.491,0.249,3.778c-0.233,0.068-0.467,0.099-0.712,0.099
			c-0.062,0-0.123-0.002-0.187-0.006c-0.165-1.176-0.271-2.351-0.32-3.534c-0.352,0.094-0.703,0.177-1.053,0.243
			c-0.176-0.184-0.291-0.449-0.346-0.77C74.371,61.225,75.505,60.811,76.76,60.536 M78.907,60.821c0.059,0,0.12,0.002,0.186,0.006
			c0.174,0.009,0.316,0.044,0.43,0.081c-0.086,1.523-0.184,2.987-0.277,4.411c0.316,0.019,0.688,0.067,1.146,0.121l-0.021,0.374
			c-0.035,0.128-0.044,0.258-0.051,0.388c-0.102,0.016-0.229,0.022-0.387,0.022c-0.159,0-0.349-0.007-0.566-0.02
			c-0.573-0.031-0.961-0.082-1.171-0.181c0.095-1.696,0.235-3.418,0.45-5.195C78.728,60.825,78.813,60.821,78.907,60.821
			 M82.646,60.998c0.177,0.456,0.353,0.897,0.53,1.327c0.468-0.118,0.908-0.224,1.331-0.315c0.185,0.3,0.298,0.58,0.327,0.842
			c-0.427,0.147-0.854,0.298-1.292,0.417c0.262,0.721,0.511,1.427,0.76,2.119c-0.209,0.132-0.489,0.232-0.823,0.285
			c-0.32-0.724-0.61-1.447-0.859-2.169c-0.408,0.093-0.818,0.186-1.225,0.264c-0.215-0.301-0.299-0.595-0.284-0.866
			c0.396-0.123,0.793-0.229,1.173-0.339c-0.163-0.44-0.311-0.897-0.444-1.337C82.047,61.138,82.311,61.064,82.646,60.998
			 M81.171,66.467c0.705,0.27,1.438,0.57,2.169,0.9c-0.059,0.283-0.173,0.537-0.334,0.803c-0.776-0.275-1.511-0.562-2.198-0.902
			C80.91,66.999,81.039,66.732,81.171,66.467 M85.007,57.6l-0.802,0.036c-2.251,0.102-4.302,0.238-6.27,0.418l-0.9,0.083
			l-0.009,0.903c-0.001,0.137,0.004,0.273,0.016,0.411l-0.496,0.108c-1.321,0.289-2.541,0.728-3.625,1.304l-0.639,0.339l0.122,0.712
			c0.09,0.53,0.295,0.966,0.608,1.293l0.376,0.393l0.469-0.09c0.061,0.815,0.147,1.63,0.261,2.436l0.113,0.812l0.818,0.048
			c0.083,0.005,0.165,0.008,0.245,0.008c0.348,0,0.672-0.046,0.991-0.139l0.746-0.217l-0.026-0.776
			c-0.038-1.146-0.098-2.172-0.181-3.111c0.229-0.11,0.45-0.23,0.662-0.359c-0.121,1.206-0.216,2.447-0.289,3.759l-0.038,0.674
			l0.611,0.287c0.329,0.154,0.761,0.231,1.541,0.273c0.162,0.01,0.31,0.016,0.442,0.02l-0.206,0.537l0.814,0.403
			c0.639,0.316,1.351,0.609,2.309,0.949l0.767,0.272l0.422-0.696c0.235-0.387,0.381-0.742,0.459-1.119l0.162-0.784l-0.457-0.206
			c0.304-0.081,0.575-0.196,0.812-0.346l0.68-0.429l-0.271-0.756l-0.296-0.824c-0.037-0.104-0.074-0.21-0.112-0.315
			c0.076-0.026,0.152-0.053,0.228-0.079l0.098-0.033l0.757-0.262l-0.089-0.795c-0.046-0.405-0.199-0.815-0.47-1.255l-0.371-0.604
			l-0.692,0.15c-0.169,0.037-0.341,0.076-0.517,0.117c-0.064-0.165-0.13-0.331-0.195-0.499c0.306-0.028,0.611-0.058,0.918-0.089
			l0.963-0.1l-0.067-0.966c-0.028-0.397-0.092-0.785-0.182-1.121L85.007,57.6L85.007,57.6z M80.525,60.88
			c0.054-0.003,0.107-0.006,0.161-0.01l0.196,0.646c0.04,0.13,0.078,0.254,0.116,0.374c-0.062,0.018-0.123,0.037-0.184,0.056
			l-0.358,0.111c0.021-0.361,0.043-0.726,0.063-1.093L80.525,60.88L80.525,60.88z M80.307,64.423
			c0.011-0.161,0.021-0.323,0.031-0.485c0.067,0.14,0.148,0.277,0.244,0.411l0.083,0.117l-0.157-0.019L80.307,64.423L80.307,64.423z
			 M81.43,64.779l0.154-0.029c0.132-0.025,0.265-0.053,0.397-0.08c0.155,0.403,0.325,0.816,0.512,1.245
			c-0.316-0.13-0.639-0.258-0.965-0.382l-0.138-0.053L81.43,64.779L81.43,64.779z"/>
	</g>
	<g>
		<path d="M91.437,69.915c-0.364-0.088-0.699-0.227-0.996-0.414l-0.323-0.205l0.113-0.366c0.266-0.856,0.577-1.746,0.928-2.65
			c-0.667-0.021-1.325-0.051-1.976-0.087l-0.41-0.022l-0.058-0.407c-0.045-0.318-0.058-0.673-0.037-1.024l0.026-0.458l0.46-0.013
			c0.97-0.025,1.903-0.05,2.844-0.053c0.724-1.67,1.537-3.36,2.421-5.029l0.164-0.311l0.349,0.05
			c0.415,0.061,0.801,0.206,1.115,0.423l0.345,0.237l-0.172,0.381c-0.371,0.822-0.999,2.253-1.882,4.276
			c1.264,0.029,2.478,0.078,3.689,0.147l0.445,0.025l0.025,0.444c0.009,0.149,0.017,0.291,0.007,0.461l-0.051,0.897l-0.449,0.021
			c-1.367,0.066-2.588,0.098-3.733,0.098c-0.283,0-0.565-0.002-0.847-0.006c-0.322,0.738-1.423,3.296-1.423,3.296l-0.166,0.386
			L91.437,69.915z M97,69.792c-0.818-0.476-1.491-0.992-2.058-1.579l-0.272-0.282l0.211-0.332c0.188-0.299,0.357-0.529,0.531-0.728
			l0.266-0.304l0.353,0.195c0.77,0.426,1.469,0.936,2.136,1.557l0.279,0.261l-0.178,0.338c-0.188,0.357-0.426,0.635-0.727,0.849
			l-0.263,0.187L97,69.792z M91.298,63.714c-0.939-0.135-1.756-0.532-2.424-1.18l-0.204-0.198l0.065-0.276
			c0.081-0.343,0.212-0.673,0.388-0.979l0.183-0.321l0.361,0.082c0.772,0.174,1.552,0.547,2.385,1.142l0.3,0.215l-0.116,0.35
			c-0.11,0.331-0.255,0.638-0.442,0.938L91.62,63.76L91.298,63.714z M92.371,61.543c-0.664-0.264-1.371-0.678-2.099-1.229
			l-0.279-0.212l0.104-0.334c0.108-0.351,0.263-0.672,0.459-0.953l0.229-0.33l0.371,0.153c0.781,0.321,1.485,0.753,2.153,1.318
			l0.262,0.223l-0.112,0.323c-0.104,0.299-0.277,0.599-0.515,0.892l-0.231,0.285L92.371,61.543z"/>
		<path fill="#FFFFFF" d="M90.966,59.1c0.732,0.302,1.4,0.713,2.021,1.238c-0.084,0.241-0.229,0.492-0.431,0.74
			c-0.591-0.234-1.263-0.618-1.981-1.163C90.662,59.631,90.792,59.35,90.966,59.1 M94.87,59.42c0.344,0.05,0.653,0.168,0.903,0.34
			c-0.412,0.913-1.141,2.576-2.183,4.967c1.441,0.025,2.908,0.076,4.418,0.162c0.007,0.117,0.016,0.246,0.007,0.404L97.99,65.74
			c-1.249,0.06-2.487,0.097-3.71,0.097c-0.392,0-0.782-0.004-1.171-0.012c-0.479,1.098-0.992,2.294-1.557,3.604
			c-0.313-0.075-0.595-0.192-0.845-0.351c0.316-1.02,0.71-2.123,1.179-3.278c-0.907-0.022-1.8-0.058-2.677-0.106
			c-0.041-0.291-0.052-0.608-0.033-0.926c0.989-0.026,1.992-0.053,3.007-0.053c0.051,0,0.103,0,0.153,0
			C93.035,63.081,93.868,61.312,94.87,59.42 M89.557,61.328c0.685,0.154,1.414,0.497,2.204,1.062
			c-0.104,0.312-0.234,0.578-0.392,0.829c-0.83-0.119-1.546-0.461-2.147-1.044C89.296,61.862,89.413,61.579,89.557,61.328
			 M95.788,67.2c0.699,0.387,1.378,0.871,2.037,1.485c-0.147,0.28-0.331,0.501-0.574,0.674c-0.739-0.43-1.389-0.913-1.948-1.493
			C95.462,67.615,95.617,67.396,95.788,67.2 M90.604,57.869l-0.459,0.659c-0.226,0.324-0.402,0.691-0.525,1.091l-0.202,0.652
			l-0.361-0.081l-0.367,0.642c-0.199,0.349-0.348,0.723-0.439,1.111l-0.132,0.554l0.408,0.396c0.366,0.354,0.771,0.642,1.212,0.86
			c-0.178,0.004-0.355,0.009-0.531,0.014l-0.056,0.001l-0.918,0.024l-0.054,0.917c-0.023,0.39-0.009,0.768,0.041,1.124l0.114,0.813
			l0.82,0.045c0.422,0.023,0.853,0.045,1.29,0.062c-0.255,0.689-0.486,1.368-0.691,2.027l-0.227,0.732l0.646,0.409
			c0.344,0.217,0.729,0.378,1.146,0.479l0.818,0.196l0.333-0.773l0.405-0.94c0.31-0.718,0.603-1.4,0.885-2.049
			c0.173,0.001,0.347,0.002,0.52,0.002c0.171,0,0.344-0.001,0.518-0.002c-0.109,0.146-0.222,0.31-0.34,0.496l-0.421,0.663
			l0.546,0.566c0.598,0.62,1.307,1.164,2.165,1.663l0.558,0.324l0.524-0.373c0.367-0.262,0.655-0.596,0.88-1.023l0.356-0.677
			l-0.56-0.521c-0.474-0.441-0.963-0.829-1.48-1.172c0.329-0.012,0.666-0.026,1.012-0.043l0.899-0.043l0.051-0.899l0.025-0.447
			c0.011-0.194,0.003-0.354-0.005-0.498l-0.053-0.889l-0.891-0.072c-0.979-0.056-1.957-0.099-2.963-0.129
			c0.808-1.849,1.283-2.928,1.582-3.591l0.344-0.762l-0.688-0.474c-0.378-0.26-0.836-0.435-1.326-0.505l-0.697-0.102l-0.33,0.623
			c-0.112,0.213-0.224,0.426-0.335,0.639l-0.019-0.016c-0.708-0.601-1.456-1.059-2.286-1.4L90.604,57.869L90.604,57.869z"/>
	</g>
	<g>
		<path d="M102.919,71.031c-0.413-0.023-0.724-0.148-0.923-0.372l-0.165-0.184l0.257-1.319c-0.335-0.188-0.581-0.419-0.749-0.7
			l-0.095-0.16l0.032-0.183c0.102-0.573,0.38-1.092,0.829-1.54l0.158-0.157l0.223,0.013c0.461,0.025,0.933,0.235,1.486,0.662
			l0.149,0.115l0.036,0.186c0.03,0.16,0.039,0.356,0.024,0.602c-0.055,0.975-0.323,1.91-0.796,2.778l-0.152,0.278L102.919,71.031z"
			/>
		<path fill="#FFFFFF" d="M102.459,66.928c0.374,0.021,0.765,0.217,1.208,0.559c0.022,0.116,0.028,0.275,0.017,0.478
			c-0.052,0.919-0.301,1.77-0.736,2.568c-0.272-0.016-0.471-0.085-0.579-0.206c0.084-0.443,0.182-0.928,0.285-1.455
			c-0.425-0.169-0.715-0.386-0.885-0.671C101.852,67.73,102.076,67.31,102.459,66.928 M102.068,65.905l-0.315,0.314
			c-0.523,0.522-0.85,1.13-0.969,1.807l-0.065,0.366l0.19,0.319c0.156,0.263,0.362,0.487,0.622,0.68
			c-0.052,0.262-0.101,0.511-0.146,0.748l-0.092,0.485l0.329,0.368c0.291,0.325,0.718,0.506,1.267,0.537l0.633,0.036l0.303-0.556
			c0.51-0.934,0.798-1.94,0.856-2.99c0.017-0.285,0.006-0.522-0.033-0.724l-0.071-0.372l-0.3-0.23
			c-0.637-0.491-1.197-0.734-1.764-0.765L102.068,65.905L102.068,65.905z"/>
	</g>
	<g>
		<path d="M49.572,84.954c-1.027,0-2.05-0.028-3.037-0.084l-0.402-0.022l-0.063-0.397c-0.054-0.339-0.044-0.676-0.032-0.899
			l0.023-0.449c0,0,0.647-0.033,0.747-0.038l-0.072-0.341c-0.051-0.24-0.081-0.534-0.094-0.899l-0.017-0.494l1.725-0.074
			c-0.001-0.019-0.002-0.038-0.002-0.057l-0.217-0.003c-0.591-0.009-1.227-0.018-1.904-0.035l-0.278-0.008l-0.141-0.241
			c-0.167-0.288-0.234-0.664-0.206-1.151l0.026-0.457l0.265-0.009c-0.446-0.086-0.796-0.181-1.051-0.285l-0.303-0.124l-0.008-0.326
			c-0.018-0.722,0.009-1.72,0.08-2.965c0.017-0.316,0.068-0.729,0.159-1.258l0.076-0.438l1.945,0.107l-0.04,0.51
			c-0.03,0.394-0.054,0.77-0.075,1.132c0.491-0.021,0.974-0.03,1.447-0.03c0.11,0,0.221,0.001,0.331,0.002
			c-0.376-0.01-0.717-0.024-1.021-0.041l-0.499-0.027l0.103-1.885l0.45-0.021c0.363-0.019,0.731-0.023,1.098-0.024
			c-0.028-0.227-0.044-0.443-0.048-0.649l-0.009-0.47l0.469-0.037c0.218-0.018,0.448-0.028,0.687-0.028
			c0.133,0,0.268,0.003,0.404,0.011l0.418,0.022c0,0,0.115,0.944,0.143,1.193c0.045,0.002,0.09,0.003,0.135,0.006
			c1.403,0.079,2.473,0.169,3.223,0.239l0.155,0.015l0.12,0.101c0.278,0.234,0.41,0.652,0.359,2.283
			c-0.087,1.547-0.164,2.396-0.25,2.766l-0.062,0.27l-0.262,0.09c-0.259,0.089-0.557,0.16-0.899,0.213l0.023,0.119
			c0.029,0.153,0.056,0.32,0.046,0.498c-0.012,0.199-0.059,0.368-0.102,0.508l-0.101,0.319l-0.334,0.029
			c-0.169,0.015-0.359,0.027-0.571,0.039l0.069,0.425c0.046,0.28,0.061,0.57,0.075,0.878l0.022,0.478l-0.476,0.05
			c-0.345,0.032-0.689,0.054-1.036,0.068c0.604,0.014,1.219,0.041,1.848,0.077l0.5,0.028l-0.029,0.5c0,0-0.001,0.27-0.006,0.358
			l-0.048,0.837l-0.448,0.022C51.576,84.929,50.557,84.954,49.572,84.954z M48.034,77.527c0.583,0.058,1.253,0.107,2.008,0.15
			c0.548,0.021,1.027,0.032,1.43,0.032c0.506,0,0.819-0.019,1.011-0.038l0.092-1.63c0-0.007,0.001-0.063-0.023-0.246
			c-0.239-0.019-2.231-0.174-2.231-0.174c-0.243,0.007-0.521,0.009-0.786,0.009c-0.178,0-0.351-0.001-0.517-0.003
			c0.296,0.009,0.589,0.021,0.879,0.037l0.396,0.022l0.068,0.391c0.022,0.127,0.053,0.301,0.044,0.475
			c-0.011,0.196-0.056,0.349-0.093,0.47l-0.089,0.299l-0.313,0.07C49.504,77.459,48.894,77.503,48.034,77.527z"/>
		<path fill="#FFFFFF" d="M49.685,72.935c0.124,0,0.25,0.003,0.377,0.01c0.05,0.408,0.1,0.813,0.135,1.206
			c0.187,0.01,0.374,0.006,0.562,0.016c1.394,0.079,2.456,0.168,3.202,0.238c0.166,0.14,0.217,0.763,0.182,1.885
			c-0.081,1.438-0.158,2.328-0.237,2.668c-0.581,0.201-1.427,0.301-2.538,0.301c-0.406,0-0.849-0.014-1.326-0.04
			c-2.615-0.148-4.275-0.371-5.009-0.672c-0.018-0.708,0.009-1.688,0.079-2.924c0.016-0.302,0.067-0.702,0.153-1.201l0.99,0.055
			c-0.047,0.603-0.078,1.164-0.107,1.696c0.675-0.037,1.335-0.056,1.978-0.056c0.595,0,1.176,0.016,1.743,0.048
			c0.021,0.117,0.043,0.248,0.037,0.363c-0.008,0.144-0.044,0.257-0.078,0.371c-0.622,0.104-1.81,0.149-3.579,0.149
			c-0.055,0-0.109,0-0.165,0l-0.039,0.69c0.827,0.189,2.145,0.336,3.971,0.438c0.564,0.022,1.05,0.033,1.458,0.033
			c0.796,0,1.293-0.042,1.488-0.127l0.113-2.013c0.006-0.114-0.023-0.361-0.089-0.74c-0.46-0.04-1.335-0.104-2.626-0.206
			c-0.288,0.005-0.562,0.007-0.825,0.007c-0.816,0-1.507-0.021-2.071-0.053l0.051-0.936c0.4-0.02,0.805-0.023,1.207-0.023
			c0.152,0,0.304,0.001,0.455,0.001c-0.079-0.393-0.13-0.785-0.137-1.159C49.243,72.944,49.46,72.935,49.685,72.935 M48.694,79.748
			c1.392,0,2.728,0.036,4.006,0.108c0.022,0.116,0.045,0.247,0.038,0.377c-0.009,0.144-0.045,0.272-0.08,0.385
			c-0.608,0.053-1.548,0.086-2.845,0.086c0.038,0.349,0.091,0.669,0.131,0.987c0.577-0.011,1.156-0.021,1.762-0.031
			c0.043,0.264,0.056,0.537,0.069,0.827c-0.58,0.054-1.159,0.078-1.75,0.089c0.023,0.347,0.048,0.651,0.06,0.968
			c0.822,0.004,1.656,0.037,2.52,0.086c-0.006,0.101,0.002,0.216-0.006,0.36l-0.022,0.388c-1.009,0.051-2.011,0.076-3.004,0.076
			c-1.012,0-2.015-0.026-3.009-0.083c-0.042-0.263-0.041-0.535-0.027-0.794c0.611-0.032,1.249-0.053,1.896-0.053
			c0.209,0,0.419,0.002,0.63,0.007c-0.038-0.32-0.08-0.609-0.106-0.915c-0.279,0.006-0.56,0.008-0.84,0.008
			c-0.297,0-0.595-0.002-0.892-0.005c-0.046-0.218-0.072-0.493-0.083-0.812c0.563-0.025,1.142-0.05,1.733-0.073
			c-0.022-0.349-0.034-0.682-0.043-1.028c-0.777-0.013-1.643-0.02-2.592-0.045c-0.12-0.207-0.161-0.499-0.14-0.872
			C46.985,79.761,47.85,79.748,48.694,79.748 M49.685,71.935c-0.252,0-0.495,0.011-0.726,0.029l-0.938,0.075l0.018,0.94
			c0.001,0.048,0.003,0.096,0.005,0.146c-0.194,0.003-0.388,0.01-0.58,0.019l-0.899,0.045l-0.017,0.302l-0.237-0.013l-0.99-0.055
			l-0.89-0.05l-0.151,0.878c-0.095,0.549-0.149,0.98-0.167,1.319c-0.071,1.254-0.098,2.266-0.08,3l0.017,0.653l0.604,0.247
			c0.117,0.049,0.263,0.101,0.457,0.156l-0.006,0.104c-0.034,0.588,0.055,1.057,0.272,1.432l0.28,0.482l0.48,0.014l0.007,0.182
			c0.009,0.287,0.03,0.535,0.062,0.753l-0.62,0.032l-0.048,0.899c-0.013,0.246-0.022,0.619,0.039,1.005l0.127,0.795l0.804,0.045
			c0.997,0.057,2.028,0.085,3.065,0.085c0.993,0,2.021-0.026,3.054-0.077l0.896-0.045l0.052-0.896l0.022-0.388
			c0.006-0.103,0.006-0.191,0.006-0.271c0-0.032-0.001-0.062,0-0.088l0.059-1l-0.877-0.05l-0.01-0.198
			c-0.013-0.271-0.025-0.545-0.063-0.823c0.011-0.001,0.022-0.002,0.033-0.003l0.668-0.058l0.2-0.64
			c0.053-0.169,0.109-0.374,0.124-0.622c0.005-0.089,0.003-0.173-0.002-0.252c0.178-0.041,0.343-0.088,0.497-0.141l0.521-0.181
			l0.125-0.538c0.066-0.285,0.149-0.846,0.262-2.838c0.048-1.497-0.021-2.273-0.536-2.707l-0.239-0.201l-0.311-0.029
			c-0.942-0.088-1.912-0.162-2.956-0.225c-0.013-0.108-0.026-0.218-0.039-0.327l-0.102-0.831l-0.841-0.08
			C49.97,71.938,49.826,71.935,49.685,71.935L49.685,71.935z M50.779,77.201l0.005-0.016c0.045-0.15,0.104-0.35,0.119-0.604
			c0.007-0.15-0.006-0.294-0.022-0.414l0.745,0.058c0.156,0.012,0.302,0.023,0.436,0.033l-0.053,0.943
			c-0.145,0.005-0.321,0.008-0.537,0.008C51.262,77.21,51.031,77.207,50.779,77.201L50.779,77.201z"/>
	</g>
	<g>
		<path d="M67.548,85.994c-2.048-0.114-4.082-0.459-6.22-1.054l-0.425-0.118l0.063-0.436c0.155-1.052,0.354-2.015,0.592-2.868
			c-0.026,0-0.053,0-0.079,0l-0.095,0.247c-0.561,1.473-1.033,2.556-1.405,3.22l-0.182,0.323l-0.362-0.079
			c-0.449-0.099-0.809-0.273-1.065-0.521l-0.246-0.235l0.129-0.314c0.364-0.891,0.756-1.79,1.168-2.68
			c-0.277-0.011-1.231-0.062-1.231-0.062l-0.064-0.396c-0.048-0.29-0.063-0.612-0.046-0.96l0.022-0.462l0.462-0.014
			c0.546-0.017,1.103-0.024,1.669-0.024c1.157,0,2.375,0.035,3.619,0.104c-0.006-0.06-0.01-0.12-0.014-0.181l-0.393-0.022
			c-1.257-0.07-2.408-0.232-3.52-0.494l-0.409-0.096l0.024-0.419c0.005-0.092,0.012-0.193,0.023-0.302
			c-0.061,0.006-0.127,0.009-0.198,0.009c-0.065,0-0.137-0.002-0.215-0.007c-0.247-0.015-0.556-0.058-0.772-0.264l-0.167-0.159
			l0.013-0.231c0.078-1.407,0.196-2.451,0.36-3.189l0.084-0.375l0.384-0.017c0.09-0.003,0.187-0.007,0.291-0.007
			c0.077,0,0.157,0.002,0.244,0.007c0.204,0.011,0.421,0.063,0.626,0.152l0.321,0.138l-0.02,0.349
			c-0.044,0.791-0.136,1.673-0.273,2.63c1.119,0.106,2.283,0.284,3.461,0.53l0.419,0.087l-0.021,0.427
			c-0.004,0.096-0.013,0.19-0.024,0.285l0.224-0.018c0.686-0.052,1.411-0.079,2.213-0.082l-0.021-1.046l0.426-0.072
			c0.271-0.046,0.583-0.059,0.913-0.07l0.37-0.014c-0.018-0.226-0.034-0.479-0.049-0.762c-2.292-0.135-4.637-0.31-6.975-0.521
			l-0.333-0.03l-0.1-0.319c-0.053-0.17-0.069-0.374-0.053-0.643c0.007-0.128,0.016-0.306,0.065-0.496l0.103-0.396l0.409,0.023
			c2.791,0.156,5.617,0.358,8.402,0.602l0.422,0.037l0.032,0.422c0.081,1.042,0.097,1.971,0.047,2.838l-0.019,0.326l-0.307,0.114
			c-0.127,0.047-0.276,0.07-0.457,0.07c-0.053,0-0.108-0.002-0.168-0.006c-0.125-0.007-0.309-0.018-0.537-0.062l-0.258-0.051
			c0.002,0.029,0.004,0.059,0.005,0.087c0.044,0.002,0.088,0.004,0.132,0.005c0.203,0.008,0.404,0.016,0.606,0.028l0.442,0.026
			l0.026,0.442c0.009,0.142,0.017,0.288,0.008,0.447L69.6,80.215l-0.429,0.04c-0.214,0.02-0.427,0.036-0.637,0.048
			c0.048,1.11,0.051,2.054,0.008,2.81l-0.021,0.359l-0.218,0.06l-0.063,1.106c-0.011,0.202-0.063,0.493-0.178,0.973l-0.097,0.407
			L67.548,85.994z M63.154,83.523c1.088,0.207,2.203,0.376,3.326,0.505l0.052-0.37c-0.36-0.049-0.592-0.132-0.758-0.265
			l-0.059-0.047l-0.042-0.062c-0.131-0.192-0.138-0.418-0.127-0.614c0.005-0.081,0.01-0.159,0.018-0.235
			c-0.063,0.027-0.13,0.052-0.197,0.073l-0.272,0.085l-0.212-0.191c-0.332-0.301-0.633-0.618-0.896-0.947
			c0,0-0.396,0.019-0.539,0.024l-0.014,0.151C63.377,82.24,63.284,82.875,63.154,83.523z M65.631,80.368
			c0.259,0.292,0.505,0.578,0.723,0.871l0.179,0.238c0.004-0.372,0.005-0.742,0.002-1.109c-0.149,0.003-0.298,0.004-0.446,0.004
			C65.936,80.372,65.783,80.371,65.631,80.368z"/>
		<path fill="#FFFFFF" d="M59.344,74.411c0.068,0,0.141,0.002,0.218,0.006c0.144,0.008,0.301,0.046,0.455,0.112
			c-0.052,0.935-0.169,1.966-0.347,3.095c-0.08,0.026-0.18,0.036-0.304,0.036c-0.057,0-0.119-0.002-0.188-0.006
			c-0.216-0.013-0.373-0.049-0.455-0.127c0.077-1.38,0.194-2.41,0.35-3.109C59.157,74.414,59.246,74.411,59.344,74.411
			 M61.24,74.569c2.847,0.159,5.647,0.361,8.387,0.601c0.075,0.971,0.096,1.896,0.046,2.771c-0.074,0.027-0.17,0.039-0.283,0.039
			c-0.043,0-0.089-0.002-0.137-0.005c-0.113-0.006-0.273-0.015-0.472-0.054c-0.064-0.408-0.114-1.045-0.15-1.942
			c-2.444-0.138-4.913-0.319-7.409-0.545c-0.037-0.119-0.043-0.277-0.031-0.463C61.196,74.854,61.203,74.712,61.24,74.569
			 M60.157,77.681c1.147,0.107,2.306,0.288,3.444,0.525c-0.013,0.259-0.057,0.516-0.128,0.757c-1.164-0.065-2.31-0.217-3.434-0.481
			C60.056,78.208,60.085,77.937,60.157,77.681 M67.884,77.726c0.031,0.434,0.054,0.825,0.075,1.2
			c0.404,0.023,0.792,0.03,1.181,0.054c0.007,0.113,0.016,0.245,0.008,0.391l-0.022,0.387c-0.379,0.035-0.754,0.059-1.114,0.066
			c0.07,1.332,0.08,2.413,0.032,3.261c-0.293,0.08-0.582,0.12-0.862,0.12c-0.057,0-0.112-0.002-0.168-0.005
			c-0.474-0.026-0.788-0.086-0.926-0.196c-0.04-0.059-0.049-0.161-0.041-0.305c0.009-0.145,0.016-0.272,0.049-0.372
			c0.127-0.005,0.253-0.008,0.381-0.008c0.178,0,0.358,0.006,0.543,0.016c0.019-0.834,0.022-1.671,0.01-2.48
			c-0.314,0.013-0.628,0.019-0.94,0.019c-0.578,0-1.151-0.02-1.712-0.051c-0.042-0.262-0.054-0.537-0.038-0.824
			c0.755-0.058,1.532-0.082,2.33-0.082c0.118,0,0.236,0.001,0.355,0.002c-0.009-0.375-0.016-0.75-0.023-1.126
			C67.261,77.747,67.564,77.737,67.884,77.726 M60.232,80.062c1.165,0,2.375,0.035,3.635,0.105c0.007,0.116,0.016,0.247,0.007,0.375
			l-0.023,0.419c-0.81,0.039-1.612,0.058-2.408,0.058c-0.951,0-1.893-0.026-2.824-0.078c-0.043-0.263-0.055-0.553-0.04-0.854
			C59.119,80.069,59.671,80.062,60.232,80.062 M65.047,80.466c0.326,0.362,0.638,0.713,0.906,1.072
			c-0.187,0.222-0.426,0.396-0.735,0.493c-0.356-0.322-0.682-0.672-0.965-1.049C64.524,80.781,64.779,80.609,65.047,80.466
			 M60.086,81.237c0.313,0.076,0.582,0.192,0.832,0.351c-0.575,1.511-1.037,2.551-1.375,3.153c-0.356-0.078-0.636-0.21-0.827-0.394
			C59.165,83.249,59.628,82.207,60.086,81.237 M62.11,81.409c0.271,0.045,0.541,0.104,0.825,0.176
			c-0.071,0.775-0.202,1.561-0.376,2.331c1.369,0.277,2.827,0.504,4.347,0.662c0.043-0.258,0.073-0.529,0.122-0.858
			c0.079-0.006,0.16-0.012,0.251-0.012c0.039,0,0.079,0.001,0.122,0.004c0.114,0.035,0.243,0.057,0.387,0.078l-0.047,0.819
			c-0.01,0.187-0.07,0.487-0.165,0.886c-2.014-0.112-4.04-0.459-6.114-1.036C61.626,83.343,61.842,82.316,62.11,81.409
			 M59.344,73.411c-0.112,0-0.215,0.004-0.312,0.008l-0.769,0.031l-0.167,0.751c-0.17,0.766-0.291,1.835-0.371,3.271l-0.026,0.461
			l0.335,0.319c0.306,0.291,0.697,0.369,0.995,0.395l-0.024,0.428c-0.153,0.004-0.306,0.008-0.457,0.012l-0.924,0.028l-0.045,0.923
			c-0.019,0.383-0.001,0.74,0.052,1.064l0.13,0.793l0.802,0.044c0.032,0.002,0.064,0.004,0.097,0.006
			c-0.303,0.675-0.594,1.352-0.869,2.024l-0.257,0.63l0.49,0.471c0.325,0.312,0.765,0.53,1.306,0.648l0.724,0.159l0.362-0.646
			c0.004-0.007,0.008-0.015,0.012-0.021l0.768,0.214c2.172,0.604,4.241,0.954,6.326,1.07l0.835,0.047l0.193-0.813
			c0.123-0.518,0.179-0.826,0.191-1.064l0.042-0.743l0.219-0.06l0.04-0.719c0.038-0.67,0.042-1.452,0.012-2.373
			c0.055-0.005,0.109-0.01,0.165-0.015l0.855-0.08l0.05-0.858l0.022-0.387c0.01-0.186,0.002-0.351-0.007-0.493l-0.006-0.099
			l0.501-0.186l0.037-0.653c0.051-0.89,0.035-1.84-0.047-2.904l-0.065-0.846l-0.845-0.073c-2.789-0.244-5.621-0.446-8.418-0.603
			l-0.817-0.046l-0.026,0.103l-0.04-0.018c-0.26-0.111-0.534-0.178-0.796-0.192C59.519,73.413,59.429,73.411,59.344,73.411
			L59.344,73.411z M60.808,76.742c0.015-0.113,0.029-0.227,0.043-0.338l0.281,0.025c1.811,0.163,3.625,0.306,5.416,0.424
			l-0.565,0.095L66,77.812l0.003,0.109c-0.486,0.009-0.946,0.026-1.389,0.055l0.028-0.574l-0.837-0.174
			C62.79,77.016,61.784,76.853,60.808,76.742L60.808,76.742z M63.737,83.122c0.06-0.343,0.109-0.681,0.148-1.013
			c0.205,0.229,0.426,0.45,0.661,0.664l0.424,0.383l0.104-0.033c0.016,0.075,0.038,0.151,0.069,0.228
			C64.672,83.281,64.202,83.205,63.737,83.122L63.737,83.122z"/>
	</g>
	<g>
		<path d="M78.608,86.28c-0.238,0-0.495-0.008-0.771-0.023c-1.485-0.133-2.263-0.238-2.617-0.354l-0.45-0.146l0.121-0.457
			c0.208-0.784,0.446-1.536,0.711-2.245c-0.578-0.013-1.148-0.027-1.711-0.048l-0.427-0.017l-0.051-0.423
			c-0.043-0.353-0.056-0.703-0.036-1.043l0.026-0.476l0.476,0.003c1.414,0.008,2.84,0.03,4.267,0.053l0.315,0.008
			c1.312,0.035,2.64,0.069,4.003,0.12l0.415,0.016l0.061,0.411c0.026,0.176,0.047,0.368,0.038,0.545l-0.055,0.949l-0.925,0.002
			c-1.439,0-2.879-0.021-4.285-0.061c-0.146,0.405-0.276,0.791-0.395,1.164l1.175,0.066c0.497,0.027,1.063,0.046,1.719,0.053
			l0.294,0.003c-0.02-0.162-0.031-0.33-0.035-0.502l-0.008-0.368l0.35-0.117c0.252-0.084,0.521-0.132,0.846-0.178l0.311-0.044
			l0.175,0.261c0.33,0.492,0.536,1.171,0.628,2.073l0.037,0.362l-0.334,0.146c-0.339,0.148-0.64,0.226-0.946,0.244l-0.3,0.018
			l-0.156-0.255c-0.117-0.19-0.217-0.387-0.299-0.591c0,0.048-0.023,0.451-0.023,0.451l-0.282,0.122
			C80.038,86.189,79.43,86.28,78.608,86.28z M80.331,80.382c-1.409-0.079-2.764-0.249-4.024-0.504l-0.425-0.086l0.055-0.938
			c0.008-0.146,0.017-0.312,0.065-0.498l0.079-0.301c-0.919,0.529-3.044,1.75-3.044,1.75l-0.267-0.217
			c-0.408-0.332-0.645-0.671-0.722-1.036l-0.068-0.321l0.269-0.19c2.172-1.537,4.698-2.998,7.51-4.342l0.299-0.143l0.248,0.219
			c0.31,0.272,0.545,0.583,0.701,0.922l0.188,0.406c0,0-0.434,0.261-0.458,0.275c1.062,0.878,2.143,1.78,3.23,2.725l0.302,0.263
			l-0.189,0.352c-0.146,0.272-0.398,0.53-0.818,0.837l-0.286,0.208l-0.292-0.2c-1.362-0.937-2.658-1.976-3.856-3.093
			c-0.868,0.503-1.732,1.002-2.595,1.499l0.282,0.016c1.09,0.061,2.375,0.207,4.045,0.46l0.45,0.068l-0.026,0.455
			c-0.019,0.322-0.067,0.658-0.132,1.006l-0.08,0.434L80.331,80.382z"/>
		<path fill="#FFFFFF" d="M79.975,74.15c0.247,0.218,0.448,0.474,0.578,0.756c-0.24,0.145-0.478,0.275-0.7,0.393
			c1.24,1.021,2.508,2.073,3.786,3.183c-0.113,0.211-0.342,0.428-0.673,0.669c-1.416-0.974-2.781-2.073-4.067-3.3
			c-1.953,1.131-3.89,2.246-5.812,3.351c-0.304-0.247-0.492-0.489-0.548-0.752C74.729,76.898,77.218,75.468,79.975,74.15
			 M76.485,78.483c1.151,0.064,2.482,0.226,3.998,0.455c-0.018,0.303-0.063,0.618-0.124,0.944c-1.353-0.076-2.67-0.235-3.953-0.495
			l0.029-0.504C76.442,78.756,76.448,78.625,76.485,78.483 M73.876,81.552c1.414,0.008,2.84,0.03,4.267,0.053
			c1.41,0.037,2.835,0.073,4.303,0.128c0.021,0.145,0.04,0.303,0.033,0.448l-0.027,0.474c-0.151,0-0.302,0.001-0.453,0.001
			c-1.547,0-3.085-0.023-4.632-0.071c-0.256,0.693-0.497,1.401-0.712,2.139l1.811,0.102c0.504,0.028,1.078,0.047,1.742,0.054
			c0.047,0.205,0.077,0.424,0.062,0.667c-0.361,0.156-0.913,0.235-1.661,0.235c-0.229,0-0.477-0.008-0.743-0.022
			c-1.335-0.12-2.166-0.225-2.491-0.33c0.256-0.966,0.569-1.927,0.955-2.857c-0.821-0.018-1.629-0.034-2.42-0.063
			C73.87,82.186,73.858,81.868,73.876,81.552 M81.729,83.711c0.28,0.418,0.463,1.034,0.546,1.846
			c-0.266,0.116-0.516,0.188-0.776,0.203c-0.33-0.538-0.512-1.154-0.527-1.892C81.19,83.795,81.438,83.752,81.729,83.711
			 M80.14,72.963l-0.596,0.285c-2.837,1.355-5.389,2.831-7.584,4.385l-0.536,0.38l0.136,0.644c0.103,0.481,0.395,0.914,0.896,1.32
			l0.533,0.434l0.596-0.342c0.612-0.352,1.227-0.705,1.843-1.06l-0.019,0.321l-0.051,0.865l0.851,0.173
			c0.419,0.085,0.848,0.16,1.285,0.226c-1.214-0.019-2.417-0.035-3.611-0.042l-0.951-0.005l-0.053,0.949
			c-0.021,0.369-0.008,0.75,0.039,1.132l0.103,0.847l0.853,0.031c0.34,0.013,0.682,0.023,1.026,0.032
			c-0.178,0.526-0.343,1.072-0.491,1.634l-0.242,0.915l0.9,0.292c0.29,0.094,0.819,0.205,2.71,0.375
			c0.32,0.019,0.587,0.026,0.833,0.026c0.892,0,1.564-0.104,2.059-0.317l0.07-0.031l0.222,0.362l0.599-0.036
			c0.363-0.021,0.729-0.115,1.117-0.285l0.669-0.292l-0.074-0.726c-0.074-0.72-0.218-1.314-0.436-1.802l0.562-0.002l0.054-0.939
			l0.027-0.474c0.012-0.249-0.017-0.479-0.042-0.653l-0.122-0.821l-0.83-0.03c-0.422-0.016-0.84-0.03-1.256-0.043l0.116-0.625
			c0.053-0.283,0.09-0.532,0.114-0.763c0.31,0.229,0.624,0.453,0.942,0.672l0.583,0.4l0.572-0.416
			c0.483-0.353,0.781-0.662,0.965-1.004l0.378-0.705l-0.604-0.523c-0.921-0.8-1.826-1.562-2.695-2.282l0.236-0.143l-0.374-0.813
			c-0.185-0.402-0.463-0.769-0.825-1.088L80.14,72.963L80.14,72.963z M77.884,77.593c0.291-0.168,0.583-0.337,0.875-0.506
			c0.263,0.24,0.53,0.476,0.802,0.708C78.95,77.711,78.396,77.645,77.884,77.593L77.884,77.593z M77.997,83.797
			c0.021-0.064,0.043-0.128,0.065-0.192c0.63,0.017,1.265,0.028,1.903,0.037l0.005,0.233c-0.528-0.008-1.015-0.024-1.45-0.049
			L77.997,83.797L77.997,83.797z"/>
	</g>
	<g>
		<path d="M94.221,87.364l-0.379-0.021l-0.081-0.371c-0.066-0.304-0.119-0.629-0.155-0.97l-1.933-0.108l-0.058-0.406
			c-0.046-0.327-0.061-0.637-0.043-0.949l0.023-0.429l0.427-0.042c0.262-0.025,0.589-0.035,0.986-0.035l0.539,0.005
			c0.002-0.033,0.009-0.164,0.009-0.164c-0.768-0.066-1.422-0.193-1.99-0.384l-0.309-0.104l-0.03-0.323
			c-0.026-0.281-0.048-0.576-0.064-0.887c0,0.015-0.001,0.028-0.002,0.043c-0.014,0.227-0.058,0.392-0.103,0.536l-0.078,0.248
			l-0.247,0.079c-0.191,0.061-0.42,0.099-0.701,0.128c0,0.158-0.001,1.695-0.001,1.695l-0.332,0.116
			c-0.246,0.086-0.531,0.128-0.872,0.128c-0.085,0-0.173-0.002-0.264-0.008l-0.454-0.026l-0.018-0.453
			c-0.017-0.438-0.033-0.876-0.045-1.314c-0.185,0.007-0.86,0.021-0.86,0.021l-0.149-0.25c-0.186-0.312-0.262-0.709-0.233-1.216
			l0.024-0.434l1.177-0.101c-0.008-0.308-0.013-0.618-0.013-0.933c-1.011-0.065-1.158-0.115-1.313-0.259l-0.098-0.091l-0.039-0.127
			c-0.054-0.17-0.07-0.373-0.054-0.658c0.009-0.166,0.033-0.388,0.141-0.62l0.132-0.285l0.767-0.009c0.146,0,0.3,0.001,0.459,0.005
			c-0.004-0.343-0.001-0.678,0.008-1.007l0.012-0.426l0.422-0.056c0.321-0.044,0.656-0.057,0.99-0.068l0.492-0.017l0.023,0.492
			c0.021,0.419,0.032,0.827,0.042,1.229c0.273,0.035,1.06,0.149,1.06,0.149s0.095,0.375,0.1,0.403
			c0.002-0.077,0.02-0.701,0.02-0.701l0.467-0.019c0.198-0.007,0.397-0.015,0.6-0.015c0.122,0,0.246,0.003,0.371,0.01l0.443,0.024
			l0.008,0.118c0.005-0.034,0.095-0.57,0.095-0.57s0.565,0.065,0.608,0.07c0.075-1.017,0.19-1.831,0.344-2.428l0.092-0.357
			c0,0,0.559-0.024,0.665-0.024c0.082,0,0.168,0.002,0.258,0.007c0.225,0.011,0.439,0.061,0.653,0.152l0.323,0.138
			c0,0-0.033,0.559-0.042,0.661c0.76,0.122,1.497,0.26,2.217,0.398l0.429,0.083l-0.024,0.437c-0.015,0.266-0.07,0.554-0.181,0.937
			l-0.11,0.383l-0.397-0.022c-0.75-0.041-1.456-0.133-2.143-0.277c-0.007,0.042-0.014,0.084-0.021,0.126
			c0.767,0.095,1.485,0.195,2.155,0.291l0.454,0.065l-0.026,0.458c-0.112,2.002-0.299,3.523-0.553,4.521l-0.077,0.304l-0.307,0.063
			c-0.226,0.046-0.562,0.067-1.057,0.067c-0.253,0-0.553-0.006-0.901-0.018c0.005,0.066,0.011,0.132,0.017,0.196
			c0.694,0.064,1.265,0.123,1.701,0.185l0.455,0.064l-0.1,1.764l-0.487-0.015c-0.438-0.014-0.926-0.039-1.463-0.068
			c0.003,0.234,0.003,0.458,0,0.677l-0.005,0.324l-0.298,0.128c-0.219,0.094-0.507,0.141-0.857,0.141
			C94.385,87.371,94.306,87.369,94.221,87.364z M93.153,81.865c1.022,0.097,2.005,0.174,2.93,0.231
			c0.041-0.57,0.102-1.186,0.18-1.839c-0.305-0.035-0.598-0.072-0.882-0.111l0.028,0.216c0.026,0.193,0.047,0.36,0.036,0.542
			c-0.009,0.167-0.034,0.316-0.058,0.447l-0.064,0.354l-0.355,0.052c-0.199,0.028-0.46,0.043-0.781,0.043
			c-0.291,0-0.637-0.012-1.033-0.033C93.153,81.77,93.153,81.835,93.153,81.865z M90.031,81.297c0.209,0.002,0.416,0.01,0.623,0.021
			l0.396,0.022c0,0,0.093,0.525,0.102,0.598c-0.028-0.614-0.038-1.286-0.031-2.024c-0.026,0.178-0.062,0.273-0.105,0.349
			l-0.11,0.189L90.69,80.5c-0.062,0.014-0.18,0.031-0.486,0.031c-0.055,0-0.115,0-0.18-0.001
			C90.027,80.788,90.03,81.044,90.031,81.297z M93.652,79.857c-0.095-0.02-0.545-0.116-0.545-0.116
			c0.001,0.029,0.002,0.058,0.004,0.087C93.164,79.83,93.652,79.857,93.652,79.857z"/>
		<path fill="#FFFFFF" d="M94.847,75.702c0.074,0,0.151,0.002,0.231,0.006c0.174,0.009,0.328,0.047,0.484,0.113
			c-0.015,0.261-0.044,0.517-0.058,0.761c0.915,0.139,1.799,0.303,2.656,0.468c-0.014,0.244-0.072,0.515-0.162,0.826
			c-0.862-0.048-1.722-0.168-2.588-0.39c-0.051,0.4-0.116,0.786-0.181,1.172c0.959,0.111,1.847,0.234,2.662,0.352
			c-0.113,2.013-0.299,3.486-0.538,4.426c-0.191,0.039-0.51,0.058-0.956,0.058c-0.577,0-1.368-0.03-2.372-0.087
			c-0.92-0.051-1.678-0.181-2.301-0.39c-0.108-1.158-0.131-2.544-0.085-4.143c0.192-0.008,0.385-0.015,0.58-0.015
			c0.113,0,0.228,0.002,0.344,0.009c0.03,0.477,0.047,0.955,0.062,1.445c0.173,0.01,0.375,0.007,0.62,0.021l1.667,0.094
			c0.02,0.146,0.041,0.29,0.032,0.448c-0.008,0.145-0.03,0.272-0.051,0.386c-0.181,0.026-0.417,0.038-0.709,0.038
			c-0.295,0-0.645-0.012-1.05-0.035c-0.201-0.011-0.36-0.021-0.489-0.042c0.009,0.375,0.003,0.735,0.012,1.097
			c1.403,0.138,2.698,0.238,3.892,0.305c0.039-0.719,0.12-1.65,0.271-2.81c-1.231-0.127-2.348-0.291-3.346-0.506
			c0.017-0.288,0.032-0.562,0.075-0.817c0.229,0.026,0.444,0.054,0.66,0.065c0.07-1.237,0.194-2.196,0.362-2.849
			C94.657,75.705,94.749,75.702,94.847,75.702 M89.435,77.337c0.027,0.565,0.039,1.112,0.052,1.647
			c0.444,0.053,0.832,0.104,1.146,0.151c0.022,0.088,0.029,0.231,0.019,0.433c-0.014,0.229-0.037,0.388-0.069,0.443
			c-0.054,0.012-0.181,0.02-0.378,0.02c-0.175,0-0.405-0.006-0.688-0.021c0.011,0.606,0.019,1.211,0.016,1.789
			c0.106-0.002,0.211-0.003,0.314-0.003c0.264,0,0.521,0.007,0.78,0.021c0.021,0.116,0.044,0.232,0.036,0.375
			c-0.011,0.174-0.046,0.302-0.081,0.414c-0.235,0.075-0.584,0.112-1.047,0.145c-0.006,0.604,0.005,1.212,0,1.8
			c-0.196,0.068-0.434,0.1-0.707,0.1c-0.075,0-0.154-0.002-0.235-0.007c-0.023-0.606-0.047-1.213-0.056-1.82
			c-0.348,0.024-0.694,0.033-1.069,0.041c-0.133-0.223-0.187-0.53-0.164-0.932c0.406-0.034,0.812-0.07,1.217-0.104
			c-0.023-0.607-0.032-1.229-0.025-1.861l-0.071-0.004c-0.862-0.049-1.338-0.09-1.404-0.151c-0.037-0.118-0.043-0.277-0.031-0.479
			c0.009-0.157,0.031-0.3,0.096-0.439c0.141-0.002,0.289-0.004,0.444-0.004c0.295,0,0.615,0.006,0.955,0.024l0.015,0.002
			c-0.016-0.521-0.017-1.024-0.003-1.515C88.8,77.359,89.117,77.348,89.435,77.337 M94.675,83.9c0.107,0,0.213,0.003,0.316,0.009
			c0.017,0.259,0.045,0.491,0.061,0.723c0.875,0.079,1.578,0.146,2.093,0.22l-0.046,0.818c-0.575-0.018-1.236-0.056-1.983-0.098
			c0.004,0.435,0.011,0.823,0.005,1.198c-0.145,0.062-0.365,0.101-0.66,0.101c-0.066,0-0.137-0.002-0.211-0.006
			c-0.093-0.423-0.152-0.874-0.184-1.338c-0.618-0.033-1.266-0.071-1.955-0.109c-0.041-0.29-0.055-0.565-0.039-0.852
			c0.249-0.024,0.561-0.033,0.938-0.033c0.194,0,0.405,0.003,0.635,0.006c0.131,0.008,0.259,0.015,0.389,0.021
			c-0.002-0.201,0.011-0.418,0.022-0.633C94.263,83.91,94.471,83.9,94.675,83.9 M94.847,74.702c-0.115,0-0.222,0.003-0.319,0.008
			l-0.737,0.035l-0.185,0.715c-0.133,0.517-0.238,1.186-0.314,1.995l-0.568-0.065l-0.081,0.481L92.62,77.87
			c-0.135-0.008-0.268-0.011-0.399-0.011c-0.208,0-0.414,0.008-0.618,0.016l-0.935,0.036l-0.007,0.218
			c-0.062-0.009-0.129-0.019-0.197-0.027c-0.008-0.268-0.018-0.538-0.03-0.812l-0.048-0.985L89.4,76.338
			c-0.3,0.01-0.675,0.022-1.039,0.071l-0.843,0.113l-0.024,0.85c-0.005,0.17-0.007,0.343-0.009,0.517
			c-0.146,0-0.286,0.002-0.419,0.004l-0.628,0.011l-0.264,0.57c-0.144,0.312-0.175,0.607-0.186,0.803
			c-0.014,0.232-0.018,0.539,0.075,0.835l0.079,0.253l0.195,0.181c0.245,0.227,0.506,0.305,1.156,0.359c0,0.003,0,0.006,0,0.008
			l-0.276,0.024l-0.866,0.072l-0.048,0.868c-0.034,0.609,0.064,1.1,0.304,1.5l0.298,0.499l0.581-0.012
			c0.025-0.001,0.05-0.001,0.075-0.002c0.009,0.273,0.02,0.547,0.03,0.819l0.035,0.908l0.906,0.052
			c0.102,0.006,0.199,0.009,0.293,0.009c0.398,0,0.737-0.051,1.037-0.156l0.664-0.232l0.006-0.703c0.002-0.288,0.001-0.581,0-0.876
			c0-0.013,0-0.024,0-0.037c0.084-0.016,0.164-0.033,0.241-0.054l0.015,0.166l0.318,0.106l-0.035,0.647
			c-0.02,0.345-0.004,0.688,0.047,1.046l0.115,0.813l0.82,0.045l0.854,0.049l0.253,0.014c0.031,0.207,0.067,0.408,0.11,0.601
			l0.162,0.742l0.759,0.042c0.094,0.006,0.183,0.008,0.267,0.008c0.418,0,0.772-0.061,1.054-0.182l0.597-0.255l0.01-0.648
			c0.001-0.052,0.001-0.104,0.002-0.157c0.337,0.018,0.652,0.031,0.946,0.041l0.974,0.029l0.055-0.974l0.046-0.818l0.037-0.661
			l0.144-0.563c0.263-1.029,0.453-2.582,0.567-4.616l0.048-0.838l0.021-0.075c0.121-0.42,0.183-0.743,0.199-1.048l0.049-0.872
			l-0.857-0.166c-0.565-0.108-1.162-0.221-1.782-0.326l0.032-0.565l-0.646-0.274c-0.27-0.115-0.54-0.178-0.825-0.192
			C95.032,74.704,94.938,74.702,94.847,74.702L94.847,74.702z"/>
	</g>
</g>
</svg>
