<?xml version="1.0" encoding="utf-8"?>
<!-- Generator: Adobe Illustrator 16.0.0, SVG Export Plug-In . SVG Version: 6.00 Build 0)  -->
<!DOCTYPE svg PUBLIC "-//W3C//DTD SVG 1.1//EN" "http://www.w3.org/Graphics/SVG/1.1/DTD/svg11.dtd">
<svg version="1.1" id="Layer_1" xmlns="http://www.w3.org/2000/svg" xmlns:xlink="http://www.w3.org/1999/xlink" x="0px" y="0px"
	 width="126.876px" height="112.438px" viewBox="0 0 126.876 112.438" enable-background="new 0 0 126.876 112.438"
	 xml:space="preserve">
<rect fill="#FFFFFF" width="126.876" height="112.438"/>
<path fill="#2B231D" d="M63.438,92.682c-20.104,0-36.46-16.358-36.46-36.463c0-20.107,16.355-36.464,36.46-36.464
	c20.106,0,36.462,16.357,36.462,36.464C99.899,76.324,83.544,92.682,63.438,92.682z"/>
<path fill="#E9E6DC" d="M94.276,48.668c0.014,0.03,0.026,0.062,0.037,0.091c0.164-0.196,0.312-0.361,0.444-0.498
	c-3.554-13.98-16.249-24.354-31.32-24.354c-17.333,0-31.521,13.721-32.274,30.873c0.039,0.334,0.133,0.739,0.309,0.675
	c0.065-0.022,0.884-0.511,0.887-0.577c0.004-0.114-0.193-0.295-0.212-0.812c-0.005-0.146-0.013-0.296,0-0.441
	C33.468,37.521,46.997,24.82,63.438,24.82c14.483,0,26.708,9.855,30.317,23.21C94.005,48.22,94.181,48.434,94.276,48.668z"/>
<path fill="#E9E6DC" d="M95.749,56.163c0-0.318-0.008-0.636-0.016-0.954l-0.906,0.161l0.012,0.953
	c-0.058,17.266-14.122,31.295-31.401,31.295c-13.975,0-25.844-9.177-29.903-21.822c-0.318,0.051-0.629,0.086-0.923,0.099
	c4.122,13.103,16.381,22.633,30.826,22.633c17.817,0,32.312-14.495,32.312-32.311C95.749,56.199,95.749,56.181,95.749,56.163z"/>
<g>
	<g>
		<g>
			<g>
				<g>
					
						<rect x="70.627" y="42.16" transform="matrix(0.6985 -0.7156 0.7156 0.6985 -9.0171 63.6037)" fill="#E9E6DC" width="0.682" height="0.685"/>
					
						<rect x="72.288" y="42.16" transform="matrix(0.6992 -0.7149 0.7149 0.6992 -8.5388 64.7098)" fill="#E9E6DC" width="0.683" height="0.685"/>
					
						<rect x="73.949" y="42.16" transform="matrix(0.6985 -0.7156 0.7156 0.6985 -8.0155 65.9809)" fill="#E9E6DC" width="0.682" height="0.684"/>
					
						<rect x="75.608" y="42.16" transform="matrix(0.6999 -0.7142 0.7142 0.6999 -7.5651 66.9983)" fill="#E9E6DC" width="0.684" height="0.684"/>
					
						<rect x="77.269" y="42.16" transform="matrix(0.6992 -0.7149 0.7149 0.6992 -7.0408 68.2688)" fill="#E9E6DC" width="0.684" height="0.683"/>
				</g>
				<g>
					
						<rect x="63.913" y="42.161" transform="matrix(0.6999 -0.7142 0.7142 0.6999 -11.0746 58.6454)" fill="#E9E6DC" width="0.684" height="0.683"/>
					
						<rect x="65.572" y="42.16" transform="matrix(0.6985 -0.7156 0.7156 0.6985 -10.5414 59.986)" fill="#E9E6DC" width="0.682" height="0.684"/>
					
						<rect x="67.233" y="42.161" transform="matrix(0.6999 -0.7142 0.7142 0.6999 -10.0782 61.0168)" fill="#E9E6DC" width="0.684" height="0.683"/>
					
						<rect x="68.893" y="42.16" transform="matrix(0.6985 -0.7156 0.7156 0.6985 -9.5399 62.3611)" fill="#E9E6DC" width="0.684" height="0.684"/>
				</g>
			</g>
		</g>
		<g>
			<g>
				<g>
					
						<rect x="55.639" y="42.16" transform="matrix(0.6992 -0.7149 0.7149 0.6992 -13.5468 52.807)" fill="#E9E6DC" width="0.683" height="0.684"/>
					
						<rect x="57.3" y="42.161" transform="matrix(0.6999 -0.7142 0.7142 0.6999 -13.0589 53.9224)" fill="#E9E6DC" width="0.684" height="0.683"/>
					
						<rect x="58.96" y="42.161" transform="matrix(0.6992 -0.7149 0.7149 0.6992 -12.5479 55.1812)" fill="#E9E6DC" width="0.683" height="0.683"/>
					
						<rect x="60.621" y="42.16" transform="matrix(0.6977 -0.7164 0.7164 0.6977 -12.02 56.5176)" fill="#E9E6DC" width="0.682" height="0.685"/>
					
						<rect x="62.281" y="42.161" transform="matrix(0.6992 -0.7149 0.7149 0.6992 -11.5487 57.5542)" fill="#E9E6DC" width="0.684" height="0.682"/>
				</g>
				<g>
					
						<rect x="48.925" y="42.16" transform="matrix(0.6992 -0.7149 0.7149 0.6992 -15.5667 48.0064)" fill="#E9E6DC" width="0.683" height="0.684"/>
					
						<rect x="50.584" y="42.161" transform="matrix(0.7007 -0.7135 0.7135 0.7007 -15.0808 49.0586)" fill="#E9E6DC" width="0.684" height="0.683"/>
					
						<rect x="52.246" y="42.16" transform="matrix(0.6985 -0.7156 0.7156 0.6985 -14.5597 50.4492)" fill="#E9E6DC" width="0.682" height="0.684"/>
					
						<rect x="53.904" y="42.16" transform="matrix(0.6992 -0.7149 0.7149 0.6992 -14.0684 51.5654)" fill="#E9E6DC" width="0.684" height="0.683"/>
				</g>
			</g>
		</g>
	</g>
	<g>
		<g>
			<path fill="#E9E6DC" d="M83.291,37.375c-0.008-0.023-0.02-0.045-0.03-0.067l-0.005-0.009c-0.003-0.003-0.005-0.007-0.006-0.009
				c-0.011-0.019-0.022-0.035-0.037-0.048c-0.091-0.109-0.227-0.178-0.379-0.178c-0.272,0-0.491,0.22-0.491,0.494
				c0,0.22,0.146,0.402,0.346,0.47c0.095,0.035,0.146,0.154,0.088,0.273c-0.078,0.163-0.184,0.322-0.313,0.46
				c-0.341,0.344-0.821,0.602-1.312,0.726c-0.479,0.125-1.039,0.102-1.568,0.063c-0.534-0.045-1.057-0.152-1.561-0.336
				c-0.502-0.18-1-0.438-1.55-0.593c-0.546-0.155-1.128-0.206-1.685-0.172c-1.129,0.078-2.215,0.497-3.101,1.181
				c-0.028,0.021-0.036,0.064-0.015,0.094c0.021,0.034,0.064,0.04,0.098,0.019l0.004-0.003c0.892-0.604,1.958-0.982,3.025-1.008
				c0.542-0.013,1.072,0.044,1.579,0.204c0.507,0.154,0.988,0.417,1.516,0.62c0.525,0.208,1.087,0.34,1.647,0.399
				c0.562,0.051,1.117,0.099,1.713-0.034c0.576-0.134,1.111-0.396,1.558-0.822c0.215-0.219,0.391-0.475,0.503-0.781
				C83.419,38.035,83.427,37.676,83.291,37.375z"/>
			<path fill="#E9E6DC" d="M79.015,39.014c-0.151-0.535-0.537-0.919-0.939-1.208c-0.827-0.562-1.809-0.818-2.783-0.818
				c-0.484,0-0.976,0.065-1.436,0.23c-0.457,0.158-0.902,0.427-1.172,0.837v0.001c-0.012,0.018-0.01,0.042,0.007,0.055
				c0.017,0.014,0.043,0.011,0.059-0.006c0.301-0.36,0.734-0.55,1.173-0.67c0.443-0.116,0.905-0.155,1.363-0.132
				c0.908,0.051,1.836,0.297,2.56,0.824c0.354,0.261,0.661,0.606,0.756,0.995c0.106,0.392-0.062,0.765-0.405,0.999
				c-0.479,0.338-1.134,0.383-1.669,0.157c-0.135-0.055-0.089-0.279-0.089-0.392c0-0.261-0.21-0.472-0.472-0.472
				s-0.473,0.21-0.473,0.472c0,0.065,0.016,0.127,0.039,0.185c0.257,0.458,0.937,0.772,1.432,0.82
				c0.529,0.056,1.068-0.079,1.503-0.401c0.215-0.16,0.405-0.373,0.512-0.642C79.087,39.569,79.087,39.281,79.015,39.014z"/>
		</g>
		<g>
			<path fill="#E9E6DC" d="M43.584,37.375c0.01-0.023,0.019-0.045,0.033-0.067l0.004-0.009c0.003-0.003,0.005-0.007,0.007-0.009
				c0.01-0.019,0.022-0.035,0.036-0.048c0.091-0.109,0.227-0.178,0.38-0.178c0.271,0,0.493,0.22,0.493,0.494
				c0,0.22-0.149,0.402-0.349,0.47c-0.095,0.035-0.145,0.154-0.088,0.273c0.079,0.163,0.184,0.322,0.313,0.46
				c0.341,0.344,0.82,0.602,1.312,0.726c0.479,0.125,1.04,0.102,1.568,0.063c0.534-0.045,1.057-0.152,1.559-0.336
				c0.504-0.18,1.003-0.438,1.553-0.593c0.545-0.155,1.127-0.206,1.684-0.172c1.13,0.078,2.215,0.497,3.102,1.181
				c0.026,0.021,0.035,0.064,0.015,0.094c-0.022,0.034-0.065,0.04-0.097,0.019l-0.006-0.003c-0.892-0.604-1.957-0.982-3.027-1.008
				c-0.539-0.013-1.069,0.044-1.577,0.204c-0.507,0.154-0.988,0.417-1.516,0.62c-0.525,0.208-1.088,0.34-1.648,0.399
				c-0.561,0.051-1.116,0.099-1.712-0.034c-0.575-0.134-1.111-0.396-1.558-0.822c-0.215-0.219-0.391-0.475-0.502-0.781
				C43.458,38.035,43.45,37.676,43.584,37.375z"/>
			<path fill="#E9E6DC" d="M47.861,39.014c0.152-0.535,0.538-0.919,0.94-1.208c0.828-0.562,1.809-0.818,2.783-0.818
				c0.484,0,0.976,0.065,1.436,0.23c0.456,0.158,0.902,0.427,1.17,0.837l0.003,0.001c0.011,0.018,0.009,0.042-0.008,0.055
				c-0.017,0.014-0.043,0.011-0.059-0.006c-0.3-0.36-0.737-0.55-1.173-0.67c-0.444-0.116-0.905-0.155-1.363-0.132
				c-0.907,0.051-1.836,0.297-2.56,0.824c-0.354,0.261-0.66,0.606-0.757,0.995c-0.105,0.392,0.064,0.765,0.406,0.999
				c0.479,0.338,1.134,0.383,1.67,0.157c0.135-0.055,0.087-0.279,0.087-0.392c0-0.261,0.212-0.472,0.473-0.472
				c0.26,0,0.472,0.21,0.472,0.472c0,0.065-0.014,0.127-0.038,0.185c-0.257,0.458-0.937,0.772-1.432,0.82
				c-0.529,0.056-1.07-0.079-1.503-0.401c-0.214-0.16-0.405-0.373-0.512-0.642C47.79,39.569,47.79,39.281,47.861,39.014z"/>
		</g>
		<g>
			<g>
				<path fill="#E9E6DC" d="M57.518,33.595v6.845H56.4v-6.072h-0.225v-0.313C57.022,33.76,57.471,33.605,57.518,33.595z"/>
				<path fill="#E9E6DC" d="M61.216,39.212c0,0.46-0.111,0.788-0.335,0.988c-0.224,0.199-0.605,0.3-1.144,0.3
					c-0.53,0-0.91-0.103-1.141-0.305c-0.232-0.203-0.347-0.529-0.347-0.983v-4.332c0-0.452,0.114-0.78,0.345-0.982
					c0.229-0.204,0.609-0.304,1.143-0.304c0.532,0,0.912,0.099,1.138,0.298c0.228,0.201,0.341,0.53,0.341,0.988V39.212z
					 M60.099,34.906c0-0.286-0.008-0.463-0.021-0.53c-0.046-0.209-0.158-0.315-0.337-0.315c-0.175,0-0.286,0.106-0.335,0.319
					c-0.017,0.076-0.025,0.253-0.025,0.531v4.281c0,0.264,0.011,0.44,0.029,0.53c0.047,0.214,0.156,0.318,0.331,0.318
					c0.182,0,0.294-0.103,0.337-0.309c0.014-0.068,0.021-0.245,0.021-0.531V34.906z"/>
				<path fill="#E9E6DC" d="M64.901,39.212c0,0.46-0.112,0.788-0.336,0.988c-0.225,0.199-0.605,0.3-1.144,0.3
					c-0.53,0-0.909-0.103-1.141-0.305c-0.231-0.203-0.346-0.529-0.346-0.983v-4.332c0-0.452,0.114-0.78,0.344-0.982
					c0.229-0.204,0.611-0.304,1.143-0.304c0.533,0,0.913,0.099,1.139,0.298c0.227,0.201,0.341,0.53,0.341,0.988V39.212z
					 M63.783,34.906c0-0.286-0.007-0.463-0.021-0.53c-0.046-0.209-0.157-0.315-0.338-0.315c-0.174,0-0.284,0.106-0.333,0.319
					c-0.017,0.076-0.025,0.253-0.025,0.531v4.281c0,0.264,0.01,0.44,0.029,0.53c0.047,0.214,0.155,0.318,0.329,0.318
					c0.183,0,0.296-0.103,0.338-0.309c0.015-0.068,0.021-0.245,0.021-0.531V34.906z"/>
				<path fill="#E9E6DC" d="M67.48,36.318c0,0.271-0.066,0.467-0.198,0.584c-0.135,0.118-0.357,0.177-0.672,0.177
					c-0.587,0-0.88-0.253-0.88-0.761V34.52c0-0.265,0.068-0.459,0.204-0.579c0.136-0.121,0.361-0.182,0.676-0.182
					c0.311,0,0.535,0.059,0.67,0.179c0.134,0.118,0.2,0.312,0.2,0.581V36.318z M66.818,34.529c0-0.181-0.002-0.287-0.009-0.315
					c-0.025-0.121-0.091-0.183-0.199-0.183c-0.142,0-0.214,0.168-0.214,0.501v1.772c0,0.334,0.072,0.501,0.214,0.501
					c0.108,0,0.174-0.06,0.199-0.183c0.007-0.027,0.009-0.133,0.009-0.313V34.529z M68.576,33.595h0.613l-1.474,7.087h-0.62
					L68.576,33.595z M70.685,39.675c0,0.273-0.065,0.466-0.199,0.584c-0.133,0.118-0.356,0.177-0.671,0.177
					c-0.586,0-0.88-0.254-0.88-0.761v-1.797c0-0.266,0.068-0.459,0.203-0.58c0.137-0.12,0.361-0.18,0.677-0.18
					c0.312,0,0.533,0.06,0.669,0.178c0.134,0.119,0.201,0.312,0.201,0.582V39.675z M70.022,37.887c0-0.182-0.003-0.287-0.008-0.315
					c-0.026-0.122-0.093-0.182-0.2-0.182c-0.143,0-0.213,0.166-0.213,0.501v1.772c0,0.333,0.07,0.501,0.213,0.501
					c0.107,0,0.174-0.062,0.2-0.184c0.005-0.029,0.008-0.133,0.008-0.314V37.887z"/>
			</g>
		</g>
	</g>
</g>
<g>
	<g>
		<g>
			<path fill="#E9E6DC" d="M51.789,72.407l-0.671,0.172l0.147,0.049c0.271,0.099,0.278,0.253,0.278,0.492v0.655v0.204v0.688
				c0,0.081-0.032,0.14-0.098,0.179l-0.181,0.123c-0.122,0.09-0.229,0.155-0.318,0.214h-0.009v0.008
				c-0.221,0.13-0.368,0.163-0.54,0.163c-0.188,0-0.319-0.033-0.548-0.163v-0.008c-0.091-0.059-0.196-0.124-0.328-0.214l-0.18-0.123
				c-0.058-0.032-0.098-0.089-0.098-0.179V69.43c0-0.074,0.033-0.14,0.098-0.181l0.131-0.089c0.5-0.327,0.663-0.417,0.925-0.417
				c0.271,0,0.417,0.09,0.916,0.417l0.132,0.089c0.065,0.042,0.098,0.107,0.098,0.181v1.121c0,0.073-0.024,0.115-0.081,0.13
				l-0.409,0.107l-0.213,0.041v-1.431c0-0.393-0.271-0.467-0.442-0.467c-0.179,0-0.45,0.074-0.45,0.467v5.301
				c0,0.393,0.271,0.458,0.45,0.458c0.172,0,0.442-0.065,0.442-0.458v-1.17v-0.597c0-0.221-0.147-0.254-0.434-0.164v-0.016v-0.212
				V72.53c0.041-0.007,0.098-0.016,0.172-0.042l1.21-0.293V72.407z"/>
			<path fill="#E9E6DC" d="M54.66,72.923v0.899v0.425v0.418c0,0.081-0.033,0.14-0.098,0.179l-0.106,0.074
				c-0.499,0.367-0.688,0.441-0.949,0.441c-0.263,0-0.434-0.074-0.94-0.441l-0.108-0.074c-0.064-0.039-0.098-0.098-0.098-0.179
				v-1.743v-4.149h0.703v0.189v3.96v1.782c0,0.394,0.271,0.459,0.443,0.459c0.172,0,0.45-0.065,0.45-0.459v-0.613v-0.261v-0.909
				v-3.96v-0.189h0.703V72.923z"/>
			<path fill="#E9E6DC" d="M56.925,73.251l-1.201,0.301l-0.279,1.759H55.2l0.955-6.241l0.018-0.091
				c0.016-0.041,0.049-0.065,0.098-0.09l0.213-0.05l0.205-0.056l0.114-0.024l0.098-0.025h0.017l0.171,1.097l0.877,5.48h-0.713
				L56.925,73.251z M56.885,73.021l-0.54-3.616l-0.582,3.903L56.885,73.021z"/>
			<path fill="#E9E6DC" d="M60.916,74.82c0.025,0.188,0.034,0.328,0.099,0.37l-0.605,0.146c-0.057-0.025-0.099-0.073-0.122-0.164
				l-0.058-0.376c-0.066-0.352-0.181-1.014-0.377-2.298c-0.072-0.205-0.123-0.271-0.344-0.23c-0.008,0.007-0.023,0.007-0.032,0.007
				c-0.089,0.024-0.155,0.024-0.229,0.05v2.699c0,0.074-0.031,0.115-0.104,0.14l-0.214,0.057l-0.114,0.025l-0.147,0.041
				l-0.114,0.024v-6.537h0.49l0.557,0.009c0.457,0,0.728,0.147,0.893,0.27l0.073,0.048c0.008,0,0.016,0.009,0.024,0.018
				c0.303,0.236,0.295,0.54,0.295,1.209v1.138v0.024c0,0.417-0.271,0.466-0.704,0.597c-0.008,0.008-0.018,0.008-0.033,0.008
				l0.041,0.017c0.156,0.056,0.278,0.146,0.344,0.531c0.131,0.784,0.221,1.317,0.286,1.668L60.916,74.82z M59.247,72.104
				l0.467-0.098c0.394-0.089,0.475-0.221,0.475-0.549v-2.134c-0.065-0.302-0.344-0.352-0.557-0.352h-0.385V72.104z"/>
			<path fill="#E9E6DC" d="M63.075,73.251l-1.203,0.301l-0.277,1.759H61.35l0.957-6.241l0.017-0.091
				c0.016-0.041,0.049-0.065,0.098-0.09l0.213-0.05l0.204-0.056l0.114-0.024l0.1-0.025h0.016l0.172,1.097l0.875,5.48h-0.711
				L63.075,73.251z M63.034,73.021l-0.539-3.616l-0.581,3.903L63.034,73.021z"/>
			<path fill="#E9E6DC" d="M67.207,68.774v5.858v0.034v0.368l-0.01,0.082c-0.024,0.057-0.063,0.081-0.104,0.091l-0.206,0.057
				l-0.114,0.023l-0.098,0.024h-0.017l-1.58-5.669c-0.039-0.139-0.08-0.229-0.139-0.262v5.931h-0.228v-6.332v-0.196v-0.009h0.228
				c0.263,0,0.631,0.009,0.786,0.564l1.251,4.46v-5.024H67.207z"/>
			<path fill="#E9E6DC" d="M70.069,69.011h-0.818v6.014c0,0.058-0.05,0.115-0.115,0.14l-0.205,0.057l-0.114,0.025l-0.147,0.041
				h-0.008l-0.106,0.024v-6.3h-0.818v-0.237h2.333V69.011z"/>
			<path fill="#E9E6DC" d="M71.263,69.011v2.701l0.883-0.221v0.229l-0.883,0.221v3.142h1.17v0.228h-1.17H70.95h-0.383v-6.537h0.383
				h0.312h1.17v0.237H71.263z"/>
			<path fill="#E9E6DC" d="M73.667,69.011v2.701l0.884-0.221v0.229l-0.884,0.221v3.142h1.17v0.228h-1.17h-0.311h-0.385v-6.537h0.385
				h0.311h1.17v0.237H73.667z"/>
			<path fill="#E9E6DC" d="M77.691,72.727v1.048c0,0.663,0,0.973-0.319,1.21c-0.008,0-0.008,0.008-0.017,0.008
				c-0.024,0.025-0.057,0.032-0.09,0.058c-0.172,0.123-0.434,0.261-0.892,0.261h-0.318h-0.229h-0.467v-6.537h0.696v0.009h0.318
				c0.458,0,0.72,0.139,0.892,0.262c0.033,0.025,0.065,0.033,0.09,0.056c0.009,0.009,0.009,0.009,0.017,0.009
				c0.319,0.238,0.319,0.548,0.319,1.211V72.727z M76.407,75.116c0.27,0,0.58-0.041,0.58-0.541v-2.364V69.52
				c0-0.498-0.311-0.541-0.58-0.541h-0.352v6.137H76.407z"/>
		</g>
	</g>
	<g>
		<path fill="#E9E6DC" d="M83.256,71.969c-0.103-0.121-0.281-0.179-0.437-0.142c-0.156,0.043-0.258,0.134-0.351,0.224
			c-0.06,0.059-0.112,0.119-0.166,0.182c-0.103-0.111-0.204-0.223-0.305-0.334c-0.279-0.313-0.55-0.634-0.811-0.961
			c0.162-0.439,0.297-0.89,0.393-1.351c0.034-0.164,0.062-0.346,0.039-0.525c-0.013-0.092-0.04-0.181-0.082-0.264
			c-0.021-0.041-0.044-0.079-0.07-0.117c-0.022-0.035-0.064-0.084-0.101-0.108c-0.08-0.057-0.173-0.094-0.278-0.094
			c-0.104-0.002-0.207,0.05-0.273,0.121c-0.017,0.02-0.031,0.036-0.048,0.057l-0.022,0.032c-0.006,0.009-0.011,0.015-0.019,0.033
			c-0.025,0.053-0.035,0.1-0.045,0.149c-0.017,0.099-0.029,0.19,0.003,0.323L80.7,69.26c0.013,0.057,0.055,0.106,0.111,0.127
			c0.094,0.035,0.198-0.014,0.232-0.107c0.035-0.093-0.013-0.195-0.107-0.231c-0.045-0.017-0.077-0.101-0.08-0.168
			c-0.004-0.034,0.002-0.072,0.01-0.095c0-0.003,0.005-0.015,0.01-0.025l0.012-0.019c0.011-0.015,0.022-0.029,0.034-0.042
			c0.047-0.053,0.104-0.084,0.169-0.086c0.064-0.004,0.135,0.027,0.192,0.069c0.031,0.023,0.043,0.04,0.066,0.075
			c0.023,0.032,0.04,0.065,0.058,0.101c0.03,0.068,0.051,0.142,0.057,0.219c0.021,0.155-0.006,0.312-0.04,0.475
			c-0.086,0.423-0.204,0.837-0.348,1.245c-0.116-0.152-0.233-0.305-0.347-0.459c-0.158-0.221-0.313-0.443-0.462-0.669
			c0.038-0.194,0.069-0.386,0.092-0.584c0.036-0.339,0.049-0.684-0.005-1.029c-0.031-0.172-0.066-0.341-0.154-0.508
			c-0.089-0.152-0.195-0.301-0.365-0.399c-0.083-0.049-0.19-0.075-0.292-0.057c-0.051,0.009-0.099,0.027-0.142,0.051
			c-0.012,0.008-0.02,0.01-0.033,0.021l-0.026,0.017c-0.021,0.016-0.043,0.036-0.06,0.054c-0.139,0.152-0.164,0.352-0.174,0.531
			c-0.002,0.183,0.021,0.362,0.084,0.538c0.073,0.169,0.146,0.315,0.227,0.467c0.201,0.358,0.414,0.708,0.639,1.05
			c-0.084,0.351-0.189,0.696-0.311,1.037l-0.672-1.188v0l-0.006-0.01c-0.009-0.012-0.015-0.021-0.022-0.031
			c0.031-0.2,0.036-0.401,0.028-0.599c-0.017-0.274-0.053-0.549-0.141-0.813c-0.083-0.262-0.229-0.519-0.447-0.709
			c-0.055-0.049-0.114-0.096-0.192-0.129c-0.039-0.016-0.082-0.032-0.131-0.034c-0.036-0.002-0.034-0.003-0.065,0
			c-0.023,0-0.041,0.004-0.062,0.007c-0.084,0.014-0.163,0.042-0.238,0.096c-0.038,0.027-0.071,0.059-0.102,0.1
			c-0.015,0.021-0.027,0.041-0.039,0.064l-0.01,0.018l-0.001,0.005l-0.002,0.007l-0.001,0.005l-0.009,0.023
			c-0.059,0.161-0.062,0.333-0.021,0.487c0.043,0.155,0.119,0.289,0.205,0.408c0.088,0.122,0.191,0.222,0.273,0.319
			c0.087,0.099,0.173,0.201,0.257,0.304c0.165,0.206,0.327,0.418,0.479,0.633l0.015,0.022c-0.089,0.237-0.181,0.482-0.281,0.716
			c-0.004,0.006-0.008,0.014-0.011,0.022c0,0.05,0,0.1,0,0.152v0.271c0.058-0.127,0.111-0.253,0.163-0.382
			c0.081-0.201,0.154-0.401,0.227-0.607l0.674,1.189c-0.098,0.242-0.202,0.481-0.314,0.718c-0.036,0.075-0.072,0.148-0.11,0.223
			c-0.024-0.039-0.044-0.079-0.067-0.117l-0.477-0.839l-0.095-0.168v0.686l0.282,0.488c0.057,0.099,0.114,0.197,0.171,0.295
			c-0.06,0.108-0.118,0.215-0.176,0.322l-0.277,0.511v0.861c0,0.034,0,0.069,0,0.102c0.054,0.118,0.103,0.236,0.149,0.354
			c0.048,0.122,0.104,0.255,0.146,0.37c0.011,0.036,0.021,0.073,0.028,0.111c-0.128,0.185-0.261,0.369-0.4,0.546
			c-0.083,0.106-0.166,0.209-0.253,0.312c-0.084,0.103-0.182,0.2-0.26,0.32c-0.081,0.114-0.147,0.246-0.184,0.389
			c-0.035,0.143-0.033,0.301,0.02,0.444c0.008,0.026,0.028,0.078,0.052,0.109c0.023,0.036,0.053,0.066,0.086,0.093
			c0.062,0.051,0.136,0.089,0.211,0.112c0.02,0.006,0.038,0.01,0.061,0.014c0.029,0.005,0.027,0.007,0.062,0.007
			c0.05,0.003,0.095-0.006,0.138-0.018c0.081-0.026,0.15-0.067,0.213-0.11c0.123-0.089,0.224-0.211,0.296-0.337
			c0.077-0.127,0.133-0.263,0.175-0.401c0.084-0.273,0.119-0.552,0.126-0.834c0.003-0.262-0.014-0.521-0.089-0.79l0.567-1.053
			c0.113,0.286,0.217,0.579,0.304,0.873c0.035,0.121,0.069,0.239,0.1,0.359c-0.06,0.098-0.118,0.195-0.175,0.294
			c-0.164,0.279-0.318,0.563-0.459,0.854l-0.104,0.222c-0.036,0.08-0.06,0.16-0.079,0.24c-0.041,0.163-0.062,0.333-0.038,0.506
			c0.012,0.086,0.038,0.175,0.087,0.257c0.024,0.039,0.057,0.076,0.094,0.11c0.021,0.019,0.038,0.03,0.053,0.041
			c0.026,0.014,0.042,0.025,0.066,0.035c0.087,0.041,0.194,0.053,0.291,0.026c0.096-0.026,0.177-0.079,0.243-0.14
			c0.067-0.06,0.122-0.127,0.171-0.197c0.023-0.037,0.049-0.073,0.07-0.111c0.01-0.021,0.018-0.035,0.03-0.062l0.025-0.06
			c0.061-0.16,0.096-0.329,0.115-0.495c0.056-0.573-0.023-1.132-0.147-1.68c0.226-0.353,0.465-0.697,0.717-1.032
			c0.154,0.404,0.287,0.818,0.385,1.239c0.038,0.163,0.072,0.311,0.071,0.463c-0.002,0.074-0.011,0.149-0.037,0.22
			c-0.015,0.037-0.03,0.07-0.051,0.105c-0.019,0.036-0.033,0.057-0.063,0.08c-0.057,0.048-0.126,0.08-0.195,0.084
			c-0.066,0.002-0.135-0.03-0.182-0.087c-0.012-0.012-0.021-0.029-0.032-0.043l-0.013-0.022c-0.006-0.008-0.012-0.02-0.012-0.025
			c-0.007-0.025-0.012-0.064-0.007-0.1c0.004-0.069,0.039-0.153,0.084-0.171c0.054-0.022,0.097-0.068,0.111-0.13
			c0.021-0.098-0.042-0.193-0.14-0.214c-0.096-0.021-0.193,0.042-0.213,0.138l-0.018,0.07c-0.027,0.134-0.006,0.227,0.012,0.323
			c0.013,0.048,0.025,0.092,0.054,0.142c0.026,0.042,0.059,0.083,0.093,0.112c0.066,0.065,0.164,0.115,0.265,0.114
			c0.1,0.002,0.192-0.037,0.271-0.091c0.038-0.024,0.08-0.071,0.103-0.105c0.026-0.036,0.052-0.076,0.071-0.118
			c0.043-0.083,0.077-0.17,0.092-0.264c0.035-0.184,0.009-0.373-0.031-0.535c-0.107-0.486-0.258-0.961-0.438-1.423
			c0.329-0.422,0.676-0.828,1.038-1.217l0.084,0.083c0.062,0.061,0.126,0.123,0.2,0.175c0.145,0.112,0.354,0.17,0.543,0.084
			c0.09-0.042,0.161-0.12,0.207-0.205c0.043-0.083,0.068-0.171,0.075-0.264c0.001-0.002,0.001-0.004,0.001-0.008
			C83.396,72.235,83.358,72.087,83.256,71.969z M78.925,69.461c-0.113-0.154-0.229-0.305-0.348-0.456
			c-0.086-0.107-0.174-0.21-0.264-0.314c-0.093-0.108-0.184-0.199-0.25-0.3c-0.141-0.2-0.21-0.426-0.15-0.624l0.012-0.037
			c0.002-0.007,0.005-0.015,0.01-0.022c0.007-0.016,0.021-0.03,0.037-0.046c0.029-0.032,0.074-0.061,0.122-0.082
			c0.011-0.003,0.026-0.008,0.036-0.012c0.003-0.002,0.038-0.009,0.035-0.009c0.019-0.004,0.043-0.002,0.067,0.002
			c0.05,0.011,0.106,0.035,0.159,0.07c0.212,0.141,0.334,0.384,0.418,0.628c0.082,0.249,0.125,0.513,0.133,0.775
			C78.944,69.178,78.94,69.321,78.925,69.461z M79.667,68.64c-0.077-0.145-0.161-0.298-0.227-0.437
			c-0.061-0.136-0.113-0.291-0.137-0.447c-0.021-0.152-0.007-0.317,0.09-0.417c0.012-0.014,0.022-0.022,0.035-0.034l0.025-0.017
			l0.021-0.012c0.028-0.018,0.062-0.03,0.094-0.036c0.065-0.011,0.131,0.004,0.194,0.038c0.126,0.073,0.229,0.205,0.307,0.343
			c0.069,0.133,0.112,0.296,0.136,0.457c0.046,0.325,0.031,0.66-0.012,0.989c-0.015,0.131-0.036,0.261-0.06,0.392
			C79.968,69.192,79.81,68.921,79.667,68.64z M79.876,71.068c0.121-0.342,0.229-0.69,0.314-1.044
			c0.107,0.157,0.217,0.314,0.327,0.469c0.146,0.201,0.299,0.399,0.454,0.593c-0.048,0.125-0.099,0.25-0.15,0.373
			c-0.1,0.242-0.214,0.476-0.336,0.709l-0.419-0.738l-0.196-0.348C79.872,71.077,79.873,71.073,79.876,71.068z M78.83,76.522
			c-0.074,0.243-0.191,0.461-0.369,0.62c-0.044,0.039-0.087,0.074-0.131,0.098c-0.021,0.009-0.042,0.017-0.062,0.019
			c0.002,0.004-0.033,0.002-0.038,0.002c-0.009,0-0.026-0.002-0.037-0.004c-0.113-0.015-0.214-0.073-0.245-0.18
			c-0.086-0.225-0.005-0.482,0.141-0.691c0.069-0.106,0.161-0.202,0.248-0.31c0.089-0.104,0.172-0.211,0.255-0.317
			c0.11-0.147,0.217-0.294,0.322-0.444c0.021,0.146,0.029,0.299,0.028,0.449C78.938,76.021,78.904,76.281,78.83,76.522z
			 M79.068,74.797c-0.034-0.089-0.068-0.171-0.103-0.261c-0.051-0.128-0.103-0.254-0.157-0.378
			c-0.069-0.159-0.143-0.316-0.222-0.471l0.422-0.778c0.037-0.071,0.076-0.142,0.114-0.211c0.062,0.109,0.118,0.22,0.174,0.333
			c0.119,0.237,0.229,0.48,0.332,0.724L79.068,74.797z M79.592,72.886c-0.088-0.18-0.184-0.356-0.283-0.531
			c0.062-0.11,0.12-0.227,0.176-0.342c0.093-0.194,0.177-0.392,0.257-0.589l0.082,0.145l0.505,0.874
			c0.003,0.003,0.005,0.006,0.007,0.011c-0.143,0.264-0.291,0.527-0.434,0.794l-0.08,0.15
			C79.749,73.223,79.673,73.053,79.592,72.886z M80.273,76.656c-0.01,0.154-0.036,0.306-0.083,0.448
			c-0.045,0.129-0.134,0.27-0.233,0.368c-0.103,0.102-0.229,0.15-0.35,0.095c-0.013-0.003-0.032-0.014-0.041-0.019
			c-0.018-0.01-0.035-0.022-0.044-0.03c-0.023-0.019-0.047-0.044-0.063-0.071c-0.036-0.056-0.062-0.124-0.071-0.196
			c-0.023-0.146-0.009-0.303,0.023-0.453c0.018-0.077,0.038-0.152,0.066-0.222l0.101-0.215c0.138-0.29,0.288-0.572,0.45-0.85
			c0.035-0.063,0.074-0.126,0.111-0.188c0.029,0.132,0.055,0.266,0.078,0.398C80.27,76.031,80.298,76.347,80.273,76.656z
			 M80.993,73.833c-0.241,0.324-0.472,0.656-0.691,0.997c-0.007-0.037-0.018-0.073-0.028-0.11c-0.103-0.394-0.231-0.779-0.381-1.157
			l0.133-0.25l0.392-0.716c0.135,0.238,0.258,0.479,0.373,0.728c0.074,0.164,0.146,0.329,0.213,0.496
			C80.999,73.825,80.997,73.829,80.993,73.833z M81.183,73.584c-0.049-0.125-0.103-0.246-0.156-0.368
			c-0.137-0.306-0.291-0.61-0.455-0.901c0.14-0.259,0.27-0.527,0.386-0.798c0.042-0.098,0.081-0.196,0.122-0.295
			c0.233,0.29,0.477,0.574,0.73,0.847c0.109,0.12,0.222,0.238,0.333,0.354C81.808,72.797,81.487,73.185,81.183,73.584z
			 M83.045,72.736c-0.06,0.031-0.136,0.039-0.206,0.025c-0.071-0.013-0.138-0.051-0.2-0.098c-0.061-0.047-0.116-0.107-0.167-0.171
			l-0.076-0.099c-0.003-0.002-0.006-0.007-0.006-0.009c0.062-0.069,0.13-0.136,0.203-0.191c0.092-0.072,0.19-0.133,0.273-0.151
			c0.085-0.013,0.17,0.008,0.23,0.072c0.064,0.062,0.104,0.164,0.119,0.264v0.003C83.228,72.52,83.168,72.678,83.045,72.736z"/>
		<path fill="#E9E6DC" d="M48.038,72.813c-0.058-0.107-0.117-0.214-0.176-0.322c0.055-0.098,0.113-0.196,0.17-0.295l0.35-0.607
			V70.73c-0.027-0.057-0.053-0.114-0.078-0.171c-0.1-0.233-0.191-0.479-0.279-0.716l0.014-0.022
			c0.151-0.215,0.312-0.428,0.479-0.633c0.084-0.103,0.17-0.205,0.257-0.304c0.083-0.098,0.186-0.197,0.272-0.319
			c0.087-0.12,0.165-0.253,0.206-0.408c0.043-0.154,0.038-0.326-0.019-0.487l-0.01-0.023l-0.002-0.005l-0.003-0.007l-0.001-0.005
			l-0.008-0.018c-0.012-0.023-0.026-0.043-0.041-0.064c-0.028-0.041-0.062-0.073-0.101-0.1c-0.075-0.054-0.155-0.082-0.237-0.096
			c-0.021-0.003-0.038-0.006-0.062-0.007c-0.03-0.003-0.028-0.002-0.065,0c-0.051,0.001-0.091,0.018-0.13,0.034
			c-0.078,0.034-0.137,0.081-0.191,0.129c-0.22,0.19-0.365,0.447-0.449,0.709c-0.086,0.264-0.125,0.539-0.14,0.813
			c-0.008,0.198-0.003,0.399,0.028,0.599c-0.008,0.01-0.014,0.02-0.023,0.031l-0.005,0.01v0l-0.67,1.188
			c-0.122-0.341-0.229-0.686-0.313-1.037c0.226-0.342,0.437-0.691,0.639-1.05c0.082-0.152,0.155-0.298,0.227-0.467
			c0.064-0.176,0.086-0.355,0.084-0.538c-0.009-0.179-0.036-0.379-0.174-0.531c-0.017-0.018-0.038-0.038-0.059-0.054l-0.025-0.017
			c-0.016-0.011-0.023-0.013-0.035-0.021c-0.043-0.024-0.091-0.042-0.141-0.051c-0.103-0.019-0.209,0.008-0.293,0.057
			c-0.169,0.098-0.275,0.247-0.366,0.399c-0.085,0.167-0.122,0.336-0.153,0.508c-0.055,0.345-0.04,0.69-0.005,1.029
			c0.022,0.198,0.054,0.39,0.091,0.584c-0.146,0.227-0.302,0.449-0.462,0.669c-0.111,0.154-0.228,0.307-0.346,0.459
			c-0.142-0.408-0.261-0.822-0.347-1.245c-0.034-0.163-0.061-0.32-0.042-0.475c0.008-0.077,0.026-0.151,0.059-0.219
			c0.017-0.036,0.033-0.069,0.057-0.101c0.022-0.036,0.036-0.052,0.067-0.075c0.057-0.042,0.128-0.073,0.192-0.069
			c0.064,0.001,0.122,0.033,0.169,0.086c0.011,0.013,0.022,0.027,0.034,0.042l0.01,0.019c0.006,0.011,0.011,0.022,0.011,0.025
			c0.009,0.022,0.013,0.061,0.01,0.095c-0.003,0.067-0.033,0.151-0.081,0.168c-0.094,0.036-0.141,0.139-0.106,0.231
			c0.035,0.093,0.14,0.142,0.232,0.107c0.058-0.021,0.098-0.071,0.113-0.127l0.016-0.069c0.031-0.132,0.02-0.224,0.003-0.323
			c-0.01-0.049-0.021-0.096-0.046-0.149c-0.008-0.018-0.013-0.023-0.02-0.033l-0.021-0.032c-0.016-0.021-0.031-0.037-0.047-0.057
			c-0.067-0.071-0.171-0.124-0.274-0.121c-0.105,0-0.2,0.038-0.278,0.094c-0.037,0.023-0.08,0.073-0.101,0.108
			c-0.026,0.038-0.05,0.076-0.071,0.117c-0.041,0.083-0.069,0.172-0.081,0.264c-0.023,0.179,0.004,0.362,0.038,0.525
			c0.097,0.461,0.23,0.912,0.393,1.351c-0.26,0.328-0.529,0.648-0.81,0.961c-0.101,0.112-0.202,0.223-0.308,0.334
			c-0.051-0.063-0.104-0.123-0.162-0.182c-0.095-0.089-0.194-0.18-0.352-0.224c-0.155-0.037-0.334,0.021-0.437,0.142
			c-0.104,0.119-0.141,0.266-0.132,0.407c0,0.004,0.001,0.006,0.001,0.008c0.007,0.093,0.033,0.181,0.076,0.264
			c0.045,0.084,0.116,0.163,0.207,0.205c0.189,0.086,0.398,0.028,0.543-0.084c0.074-0.052,0.139-0.115,0.2-0.175l0.083-0.083
			c0.363,0.39,0.711,0.795,1.037,1.217c-0.179,0.462-0.329,0.937-0.438,1.423c-0.039,0.162-0.065,0.352-0.03,0.535
			c0.016,0.094,0.048,0.181,0.091,0.264c0.02,0.042,0.046,0.082,0.072,0.118c0.023,0.035,0.064,0.081,0.104,0.105
			c0.077,0.054,0.17,0.093,0.27,0.091c0.101,0.001,0.197-0.049,0.265-0.114c0.034-0.03,0.067-0.071,0.094-0.112
			c0.026-0.05,0.038-0.094,0.052-0.142c0.019-0.097,0.04-0.189,0.011-0.323l-0.016-0.07c-0.021-0.096-0.117-0.159-0.214-0.138
			c-0.098,0.021-0.16,0.117-0.139,0.214c0.014,0.062,0.057,0.108,0.11,0.13c0.045,0.018,0.079,0.102,0.085,0.171
			c0.005,0.035,0,0.074-0.008,0.1c0,0.005-0.007,0.017-0.01,0.025l-0.014,0.022c-0.011,0.014-0.022,0.031-0.034,0.043
			c-0.047,0.057-0.113,0.089-0.182,0.087c-0.069-0.004-0.138-0.036-0.193-0.084c-0.031-0.023-0.043-0.044-0.064-0.08
			c-0.02-0.035-0.037-0.068-0.05-0.105c-0.026-0.07-0.036-0.146-0.037-0.22c-0.001-0.152,0.032-0.301,0.07-0.463
			c0.098-0.421,0.23-0.835,0.385-1.239c0.253,0.335,0.492,0.68,0.719,1.032c-0.125,0.547-0.206,1.107-0.148,1.68
			c0.02,0.167,0.053,0.335,0.115,0.495l0.025,0.06c0.012,0.028,0.02,0.042,0.03,0.062c0.021,0.038,0.045,0.074,0.07,0.111
			c0.049,0.07,0.104,0.137,0.17,0.197c0.067,0.061,0.148,0.113,0.244,0.14c0.096,0.027,0.204,0.014,0.29-0.026
			c0.024-0.01,0.04-0.021,0.066-0.035c0.016-0.011,0.031-0.022,0.053-0.041c0.04-0.034,0.068-0.071,0.095-0.11
			c0.048-0.082,0.075-0.171,0.087-0.257c0.023-0.174,0.001-0.344-0.037-0.506c-0.021-0.08-0.044-0.16-0.079-0.24l-0.105-0.222
			c-0.142-0.29-0.296-0.575-0.46-0.854c-0.057-0.099-0.114-0.196-0.174-0.294c0.03-0.12,0.062-0.239,0.098-0.359
			c0.09-0.294,0.191-0.587,0.306-0.873l0.567,1.053c-0.076,0.268-0.092,0.528-0.09,0.79c0.007,0.282,0.043,0.562,0.126,0.834
			c0.044,0.138,0.099,0.274,0.175,0.401c0.074,0.126,0.174,0.248,0.297,0.337c0.062,0.043,0.131,0.084,0.213,0.11
			c0.043,0.011,0.087,0.021,0.137,0.018c0.035,0,0.034-0.002,0.063-0.007c0.022-0.003,0.04-0.008,0.061-0.014
			c0.075-0.022,0.148-0.061,0.21-0.112c0.033-0.027,0.062-0.057,0.086-0.093c0.023-0.032,0.043-0.083,0.053-0.109
			c0.052-0.143,0.055-0.301,0.02-0.444c-0.035-0.143-0.104-0.274-0.185-0.389c-0.077-0.12-0.176-0.217-0.26-0.32
			c-0.087-0.102-0.171-0.206-0.252-0.312c-0.14-0.178-0.273-0.361-0.401-0.546c0.008-0.038,0.018-0.076,0.029-0.111
			c0.04-0.114,0.098-0.248,0.144-0.37c0.05-0.124,0.102-0.248,0.156-0.369c0.02-0.044,0.042-0.087,0.062-0.131v-0.693L48.038,72.813
			z M44.473,72.393l-0.077,0.099c-0.051,0.064-0.105,0.125-0.166,0.171c-0.062,0.046-0.129,0.084-0.201,0.098
			c-0.07,0.014-0.146,0.006-0.207-0.025c-0.122-0.058-0.18-0.216-0.17-0.354l0.001-0.003c0.016-0.1,0.056-0.202,0.118-0.264
			c0.062-0.063,0.147-0.084,0.229-0.072c0.084,0.018,0.185,0.079,0.274,0.151c0.073,0.055,0.142,0.122,0.205,0.191
			C44.477,72.386,44.475,72.391,44.473,72.393z M48.058,68.259c0.085-0.244,0.206-0.487,0.418-0.628
			c0.053-0.035,0.107-0.059,0.16-0.07c0.024-0.004,0.047-0.007,0.066-0.002c-0.002,0,0.032,0.007,0.036,0.009
			c0.009,0.003,0.023,0.008,0.035,0.012c0.048,0.021,0.093,0.049,0.124,0.082c0.014,0.016,0.028,0.03,0.035,0.046
			c0.006,0.007,0.008,0.015,0.011,0.022l0.011,0.037c0.061,0.198-0.009,0.424-0.15,0.624c-0.065,0.101-0.156,0.192-0.25,0.3
			c-0.09,0.104-0.178,0.207-0.264,0.314c-0.118,0.151-0.233,0.302-0.348,0.456c-0.015-0.141-0.02-0.284-0.018-0.427
			C47.933,68.772,47.976,68.508,48.058,68.259z M47.927,70.016c0.07,0.206,0.144,0.406,0.225,0.607
			c0.053,0.131,0.108,0.262,0.167,0.392l-0.1,0.175l-0.476,0.839c-0.021,0.038-0.044,0.078-0.067,0.117
			c-0.038-0.075-0.074-0.148-0.109-0.223c-0.112-0.237-0.219-0.477-0.315-0.718L47.927,70.016z M46.661,68.079
			c0.023-0.16,0.066-0.324,0.136-0.457c0.078-0.138,0.181-0.27,0.308-0.343c0.062-0.034,0.13-0.049,0.194-0.038
			c0.032,0.006,0.064,0.019,0.093,0.036l0.021,0.012l0.026,0.017c0.013,0.012,0.021,0.02,0.034,0.034
			c0.096,0.1,0.111,0.265,0.089,0.417c-0.022,0.156-0.075,0.311-0.134,0.447c-0.067,0.138-0.152,0.292-0.228,0.437
			c-0.145,0.281-0.302,0.552-0.468,0.819c-0.025-0.13-0.045-0.261-0.062-0.392C46.63,68.738,46.616,68.403,46.661,68.079z
			 M46.349,70.493c0.112-0.155,0.222-0.312,0.33-0.469c0.084,0.354,0.192,0.702,0.313,1.044c0.003,0.005,0.003,0.009,0.005,0.014
			l-0.195,0.348l-0.419,0.738c-0.122-0.233-0.236-0.467-0.337-0.709c-0.053-0.123-0.102-0.248-0.15-0.373
			C46.052,70.892,46.202,70.694,46.349,70.493z M45.687,73.584c-0.307-0.4-0.627-0.787-0.963-1.162
			c0.113-0.115,0.226-0.234,0.335-0.354c0.255-0.272,0.497-0.557,0.73-0.847c0.04,0.099,0.079,0.198,0.121,0.295
			c0.117,0.271,0.248,0.539,0.387,0.798c-0.165,0.291-0.319,0.595-0.456,0.901C45.787,73.338,45.735,73.459,45.687,73.584z
			 M46.84,75.511c0.161,0.277,0.312,0.56,0.449,0.85l0.102,0.215c0.028,0.07,0.049,0.145,0.066,0.222
			c0.032,0.15,0.047,0.306,0.023,0.453c-0.012,0.073-0.035,0.14-0.07,0.196c-0.019,0.027-0.042,0.052-0.065,0.071
			c-0.009,0.008-0.024,0.02-0.043,0.03c-0.009,0.004-0.028,0.015-0.043,0.019c-0.119,0.055-0.246,0.007-0.349-0.095
			c-0.099-0.098-0.188-0.239-0.231-0.368c-0.049-0.142-0.074-0.294-0.086-0.448c-0.022-0.309,0.006-0.625,0.057-0.935
			c0.023-0.132,0.05-0.266,0.078-0.398C46.766,75.385,46.805,75.448,46.84,75.511z M46.593,74.72c-0.01,0.037-0.02,0.074-0.027,0.11
			c-0.219-0.341-0.449-0.673-0.691-0.997c-0.003-0.004-0.007-0.008-0.008-0.014c0.065-0.167,0.138-0.332,0.212-0.496
			c0.116-0.249,0.238-0.489,0.371-0.728l0.394,0.716l0.134,0.25C46.825,73.941,46.696,74.327,46.593,74.72z M47.046,73.396
			l-0.08-0.15c-0.141-0.267-0.289-0.53-0.434-0.794c0.003-0.005,0.005-0.007,0.007-0.011l0.506-0.874l0.083-0.145
			c0.079,0.198,0.162,0.396,0.256,0.589c0.055,0.115,0.113,0.231,0.174,0.342c-0.098,0.175-0.194,0.351-0.282,0.531
			C47.195,73.053,47.118,73.223,47.046,73.396z M48.275,75.758c0.084,0.106,0.167,0.214,0.255,0.317
			c0.087,0.107,0.18,0.204,0.248,0.31c0.146,0.209,0.227,0.466,0.141,0.691c-0.031,0.107-0.131,0.166-0.243,0.18
			c-0.012,0.001-0.028,0.004-0.038,0.004c-0.006,0-0.04,0.002-0.039-0.002c-0.018-0.001-0.04-0.009-0.061-0.019
			c-0.045-0.023-0.089-0.059-0.132-0.098c-0.177-0.158-0.294-0.376-0.37-0.62c-0.072-0.242-0.106-0.501-0.111-0.759
			c0-0.15,0.009-0.303,0.029-0.449C48.059,75.464,48.164,75.611,48.275,75.758z M48.059,74.159c-0.055,0.124-0.107,0.25-0.157,0.378
			c-0.034,0.09-0.068,0.171-0.103,0.261l-0.56-1.042c0.104-0.244,0.213-0.487,0.332-0.724c0.054-0.113,0.112-0.223,0.174-0.333
			c0.038,0.07,0.076,0.141,0.115,0.211l0.42,0.778C48.202,73.843,48.128,74,48.059,74.159z"/>
	</g>
	<g>
		<circle fill="#E9E6DC" cx="51.173" cy="76.729" r="0.314"/>
		<circle fill="#E9E6DC" cx="53.405" cy="76.729" r="0.313"/>
		<circle fill="#E9E6DC" cx="55.638" cy="76.729" r="0.314"/>
		<circle fill="#E9E6DC" cx="57.87" cy="76.729" r="0.314"/>
		<circle fill="#E9E6DC" cx="60.103" cy="76.729" r="0.315"/>
		<circle fill="#E9E6DC" cx="62.336" cy="76.729" r="0.314"/>
		<circle fill="#E9E6DC" cx="64.543" cy="76.729" r="0.313"/>
		<circle fill="#E9E6DC" cx="66.775" cy="76.729" r="0.314"/>
		<circle fill="#E9E6DC" cx="69.007" cy="76.729" r="0.314"/>
		<circle fill="#E9E6DC" cx="71.239" cy="76.729" r="0.314"/>
		<circle fill="#E9E6DC" cx="73.473" cy="76.729" r="0.313"/>
		<circle fill="#E9E6DC" cx="75.705" cy="76.729" r="0.314"/>
	</g>
</g>
<text transform="matrix(0.9865 -0.1635 0.1635 0.9865 35.7266 63.3882)" fill="#FFFFFF" font-family="'zktqkt'" font-size="9.6007">海外原装进口</text>
<line fill="none" stroke="#FFFFFF" stroke-linecap="round" stroke-miterlimit="10" x1="31.611" y1="55.209" x2="84.021" y2="46.122"/>
<line fill="none" stroke="#FFFFFF" stroke-linecap="round" stroke-miterlimit="10" x1="43.021" y1="64.962" x2="95.276" y2="55.463"/>
<circle fill="#FFFFFF" cx="88.021" cy="45.06" r="1.062"/>
<circle fill="#FFFFFF" cx="38.297" cy="66.025" r="1.062"/>
</svg>
