<?xml version="1.0" encoding="utf-8"?>
<!-- Generator: Adobe Illustrator 16.0.0, SVG Export Plug-In . SVG Version: 6.00 Build 0)  -->
<!DOCTYPE svg PUBLIC "-//W3C//DTD SVG 1.1//EN" "http://www.w3.org/Graphics/SVG/1.1/DTD/svg11.dtd">
<svg version="1.1" id="Layer_1" xmlns="http://www.w3.org/2000/svg" xmlns:xlink="http://www.w3.org/1999/xlink" x="0px" y="0px"
	 width="126.876px" height="112.438px" viewBox="0 0 126.876 112.438" enable-background="new 0 0 126.876 112.438"
	 xml:space="preserve">
<rect fill="#FFFFFF" width="126.876" height="112.438"/>
<g>
	<path fill="#8F2347" d="M44.77,52.02c-1.859-0.414-2.06,1.506-2.445,2.852c-0.826,2.873-1.603,5.793-2.481,8.641
		c-0.913,2.957-1.811,5.969-2.793,8.912c-0.62,1.859-1.581,3.961-1.621,5.947c-0.052,2.543,4.681,4.041,6.69,4.732
		c1.673,0.576,3.296,0.875,5.038,0.744c1.056-0.078,3.126,0.09,3.886-0.76c0.618-0.691,0.84-3.043,1.051-3.971
		c0.297-1.309,0.463-2.639,0.784-3.953c0.703-2.867,1.674-5.443,2.69-8.17c0.8-2.143,1.195-4.646,1.764-6.926
		c0.353-1.412,0.745-3.775-0.697-4.752c-1.796,2.984-5.385,1.799-8.165,0.904c-1.222-0.393-2.021-0.865-2.723-1.951
		C45.426,53.771,45.003,52.072,44.77,52.02"/>
	<path fill="#9E3154" d="M48.455,56.678c-0.983-0.096-1.614-0.293-2.25-0.867c-0.278-0.25-0.663-1.363-0.892-1.262
		c-1.487-0.064-1.731,1.621-2.117,2.877c-0.817,2.668-1.601,5.373-2.447,8.025c-0.652,2.037-1.29,4.1-1.938,6.15
		c-0.226,0.713-0.453,1.436-0.687,2.158c-0.568,1.768-1.405,3.746-1.607,5.535c0.199,2.016,3.935,3.195,5.646,3.76
		c1.374,0.459,2.718,0.705,4.17,0.635c0.875-0.297,2.515-0.408,3.15-1.301c0.548-0.766,0.779-2.791,1.008-3.746
		c0.292-1.234,0.482-2.484,0.789-3.729c0.667-2.695,1.529-5.176,2.435-7.76c0.718-2.055,1.138-4.373,1.699-6.51
		c0.361-1.363,0.758-3.432-0.214-4.449C53.677,58.281,50.751,57.43,48.455,56.678"/>
	<path fill="#AD3D61" d="M48.44,57.135c-0.745,0.203-1.285,0.363-1.778,0.215c-0.265,0.037-0.581-0.529-0.805-0.271
		c-1.115,0.287-1.404,1.738-1.787,2.904c-0.812,2.463-1.601,4.949-2.417,7.408c-0.627,1.889-1.235,3.797-1.833,5.705
		c-0.205,0.648-0.408,1.32-0.619,2c-0.519,1.678-1.23,3.529-1.594,5.123c0.448,1.488,3.189,2.346,4.6,2.787
		c1.078,0.34,2.142,0.537,3.304,0.525c0.694-0.518,1.897-0.912,2.415-1.84c0.474-0.846,0.719-2.541,0.966-3.523
		c0.285-1.158,0.501-2.334,0.793-3.502c0.631-2.525,1.386-4.91,2.179-7.352c0.638-1.969,1.082-4.102,1.636-6.094
		c0.369-1.314,0.77-3.088,0.27-4.148C52.516,58.264,50.252,57.744,48.44,57.135"/>
	<path fill="#BE486E" d="M48.426,57.592c-0.507,0.498-0.955,0.936-1.307,1.297c-0.269,0.275-0.5,0.305-0.719,0.719
		c-0.742,0.637-1.076,1.855-1.458,2.93c-0.803,2.26-1.598,4.529-2.384,6.793c-0.603,1.74-1.184,3.494-1.73,5.258
		c-0.183,0.588-0.363,1.209-0.551,1.844c-0.468,1.588-1.055,3.314-1.582,4.711c0.7,0.961,2.445,1.502,3.556,1.816
		c0.781,0.219,1.564,0.365,2.438,0.412c0.513-0.734,1.274-1.42,1.68-2.377c0.393-0.93,0.657-2.291,0.921-3.299
		c0.281-1.086,0.522-2.182,0.8-3.277c0.594-2.354,1.241-4.645,1.923-6.943c0.555-1.881,1.023-3.83,1.57-5.678
		c0.377-1.266,0.781-2.746,0.754-3.846C51.354,58.242,49.754,58.061,48.426,57.592"/>
	<path fill="#CC537B" d="M50.902,58.828c-0.709-0.605-1.646-0.453-2.491-0.779c-2.051,6.07-4.695,11.91-6.574,18.031
		c-0.572,1.863-1.093,4.314-2.053,5.984c1.515,0.693,2.514,0.863,4.082,1.148C46.576,75.426,48.033,66.246,50.902,58.828"/>
	<path fill="#8B204A" d="M44.624,52.426c-2.109-0.627-2.575,1.719-1.429,2.988c1.752,1.943,4.605,2.58,7.013,3.387
		c1.757,0.59,5.147,1.52,6.873,0.334c1.576-1.078,0.744-2.984-0.376-3.92c-0.736,1.326-0.76,1.836-2.565,1.877
		c-1.454,0.033-3.096,0.107-4.49-0.287c-1.417-0.4-2.46-1.406-3.665-2.203C44.994,53.949,44.055,53.637,44.624,52.426"/>
	<path fill="#F8CD77" d="M47.57,42.17c-0.025,0.031-0.053,0.064-0.081,0.1c-1.021,1.285-1.132,3.1-1.569,4.623
		c-0.44,1.533-0.901,3.051-1.166,4.625c-0.236,1.408-0.395,2.336,0.96,3.191c3.014,1.902,6.851,2.939,10.356,2.42
		c0.783-2.883,1.531-5.992,2.65-8.764c0.562-1.398,1.664-3.441-0.361-3.594c-1.097-0.082-2.159,0.252-3.304,0.125
		c-1.191-0.133-2.118-0.443-3.198-0.979c-0.861-0.428-1.759-0.828-2.517-1.43C48.54,41.852,48.328,41.273,47.57,42.17"/>
	<path fill="#F9D48A" d="M48.2,42.922c-0.519,1.393-0.8,3.414-1.252,4.99c-0.38,1.318-0.778,2.805-1.074,4.275
		c-0.257,1.277-0.478,2.16,0.385,2.85c2.454,1.641,5.862,2.52,8.78,2.197c0.445-2.197,1.145-5.562,1.907-7.805
		c0.295-0.871,0.703-1.893,0.86-2.734c0.12-0.639,0.246-1.379-0.509-1.627c-0.91-0.088-1.795,0.139-2.74,0.018
		c-0.982-0.127-1.767-0.387-2.665-0.812c-0.723-0.344-1.476-0.662-2.118-1.139c-0.661-0.488-0.864-0.93-1.504-0.285
		C48.248,42.873,48.225,42.896,48.2,42.922"/>
	<path fill="#F9D99E" d="M48.91,43.574c-0.015,1.5-0.467,3.727-0.935,5.357c-0.317,1.102-0.653,2.559-0.981,3.928
		c-0.275,1.145-0.56,1.982-0.19,2.504c1.894,1.381,4.876,2.1,7.204,1.975c0.108-1.508,0.686-5.16,1.164-6.846
		c0.285-0.996,0.64-2.104,0.917-3.057c0.188-0.645,0.716-1.646,0.147-2.07c-0.724-0.092-1.43,0.025-2.178-0.092
		c-0.773-0.117-1.414-0.326-2.133-0.645c-0.583-0.26-1.189-0.498-1.719-0.846c-0.521-0.346-0.721-0.646-1.236-0.252
		C48.951,43.545,48.932,43.559,48.91,43.574"/>
	<path fill="#FBE1B2" d="M49.621,44.227c0.488,1.609-0.135,4.041-0.619,5.723c-0.254,0.889-0.525,2.314-0.889,3.582
		c-0.291,1.012-0.642,1.805-0.765,2.158c1.334,1.123,3.889,1.68,5.629,1.754c-0.23-0.82,0.173-4.779,0.421-5.887
		c0.254-1.133,0.566-2.318,0.972-3.383c0.249-0.65,1.186-1.912,0.804-2.512c-0.537-0.098-1.065-0.09-1.613-0.199
		c-0.564-0.113-1.063-0.27-1.6-0.48c-0.445-0.172-0.903-0.332-1.32-0.553c-0.379-0.201-0.591-0.369-0.97-0.221
		C49.655,44.217,49.638,44.221,49.621,44.227"/>
	<path fill="#FCE8C5" d="M54.111,45.957c-1.258-0.359-2.516-0.752-3.78-1.078c0.992,1.719,0.198,4.354-0.301,6.09
		c-0.339,1.182-0.71,4.615-2.137,5.047c0.773,0.863,2.9,1.26,4.053,1.535c-0.567-0.135-0.378-4.404-0.321-4.93
		c0.137-1.281,0.484-2.539,1.027-3.707C52.959,48.252,54.308,46.734,54.111,45.957"/>
	<path fill="#FFFFFF" d="M59.71,45.664c-0.054,0.045-0.111,0.092-0.165,0.133c-0.138,0.105-0.28,0.205-0.425,0.295
		c-0.093,0.057-0.187,0.109-0.28,0.16c-2.506,1.354-5.922,0.619-8.283-0.688c-1.436-0.797-2.967-1.469-3.744,0.391
		c-0.13,0.311-0.238,0.635-0.339,0.963c-0.014,0.049-0.028,0.098-0.042,0.143c-0.162,0.557-0.294,1.127-0.438,1.676
		c-0.111,0.426-0.232,0.848-0.363,1.268c-0.113,0.371-0.232,0.746-0.355,1.117c-0.272,0.828-0.271,2.09-0.666,2.783
		c-0.101-0.135-0.206-0.283-0.312-0.439c0.684-3.785,1.824-7.453,2.862-11.152c0.114-0.406,0.747-0.227,0.63,0.18
		c-0.003,0.01-0.004,0.016-0.008,0.025c3.215,2.725,7.541,4.086,11.72,3.1C59.588,45.598,59.659,45.619,59.71,45.664"/>
	<g>
		<defs>
			<rect id="SVGID_51_" x="47.025" y="41.18" width="12.999" height="5.609"/>
		</defs>
		<clipPath id="SVGID_2_">
			<use xlink:href="#SVGID_51_"  overflow="visible"/>
		</clipPath>
		<g clip-path="url(#SVGID_2_)">
			<defs>
				
					<rect id="SVGID_53_" x="47.235" y="42.058" transform="matrix(-0.9898 -0.1427 0.1427 -0.9898 100.2258 95.1563)" width="12.579" height="3.854"/>
			</defs>
			<clipPath id="SVGID_4_">
				<use xlink:href="#SVGID_53_"  overflow="visible"/>
			</clipPath>
			<path clip-path="url(#SVGID_4_)" fill="#D8B77E" d="M48.861,41.367c-0.008-0.002-0.016-0.002-0.024-0.004
				c-0.393-0.043-1.041,0.219-1.352,0.441c0.763,1.914,2.643,2.398,4.435,3.166c1.931,0.828,3.928,1.607,6.078,1.359
				c0.457-0.051,1.02-0.182,1.374-0.49c0.13-0.113,0.323-0.334,0.309-0.521c-0.021-0.271-0.379-0.369-0.521-0.572
				c-0.664,0.254-1.368,0.381-2.072,0.465c-0.504,0.061-1.013,0.002-1.523-0.002c-0.758-0.008-1.288-0.156-1.988-0.443
				c-0.366-0.15-0.75-0.254-1.123-0.381c-0.352-0.119-0.711-0.102-1.062-0.207c-0.74-0.223-1.34-0.584-1.908-1.092
				c-0.231-0.207-0.527-0.402-0.525-0.754C48.961,41.994,49.346,41.438,48.861,41.367"/>
		</g>
	</g>
	<g>
		<path fill="#ED89A0" d="M48.589,42.773c1.267-4.406,2.195-8.855,3.458-13.248c0.985-3.426,1.65-6.82,5.073-8.539
			c1.88-0.945,6.226-2.695,7.964-0.635c1.506,1.781-1.1,5.73-1.666,7.621c-0.641,2.141-1.35,4.26-1.87,6.414
			c-0.626,2.596-1.254,5.289-2.104,7.818c-0.338,1.008-0.34,2.457-1.53,2.785c-0.924,0.252-2.563-0.26-3.509-0.389
			C53.82,44.523,48.296,43.793,48.589,42.773"/>
		<path fill="#F093AA" d="M61.182,32.514c-0.711,2.807-1.333,5.721-2.173,8.486c-0.28,0.926-0.558,3.82-1.566,4.076
			c-0.948,0.18-2.324-0.17-3.274-0.34c-0.47-0.086-5.053-0.812-4.836-1.562c1.09-4.072,2.182-8.186,3.408-12.207
			c1.029-3.371,1.777-6.783,4.625-8.828c1.477-1.061,4.79-2.842,6.328-1.586c1.33,1.088-0.39,4.152-0.834,5.867
			C62.334,28.449,61.694,30.488,61.182,32.514"/>
		<path fill="#F19EB3" d="M60.814,30.639c-0.8,3.018-1.422,6.15-2.24,9.158c-0.229,0.84-0.777,5.18-1.603,5.365
			c-0.972,0.109-2.083-0.074-3.039-0.293c-0.358-0.08-3.998-0.812-3.856-1.295c0.912-3.738,2.173-7.516,3.357-11.166
			c1.076-3.316,1.906-6.699,4.179-9.117c1.077-1.148,3.372-2.982,4.688-2.535c1.176,0.398,0.326,2.574,0,4.111
			C61.895,26.785,61.316,28.744,60.814,30.639"/>
		<path fill="#F3A9BE" d="M60.446,28.764c-0.893,3.229-1.526,6.574-2.307,9.828c-0.181,0.754-0.996,6.539-1.638,6.658
			c-0.996,0.035-1.846,0.033-2.807-0.246c-0.247-0.072-2.941-0.816-2.875-1.031c0.736-3.402,2.169-6.842,3.307-10.123
			c1.13-3.258,2.082-6.564,3.73-9.406c0.702-1.209,1.989-3.162,3.052-3.486c1.049-0.32,1.045,0.998,0.833,2.357
			C61.461,25.123,60.935,26.998,60.446,28.764"/>
		<path fill="#F4B4C7" d="M60.08,26.891c0.473-1.637,0.955-3.428,1.104-5.129c0.104-1.182-0.791-1.684-1.667-0.602
			c-0.854,1.055-1.053,3.17-1.414,4.436c-0.936,3.283-2.094,6.496-3.283,9.695c-1.084,2.916-2.698,6.014-3.257,9.082
			c0.01-0.053,1.757,0.709,1.896,0.764c0.949,0.385,1.551,0.162,2.572,0.199c0.459-0.047,1.537-7.281,1.674-7.949
			C58.424,33.883,59.089,30.328,60.08,26.891"/>
		<path fill="#F4B4C7" d="M53.422,24.408c-0.428,0.723-0.59,1.654-0.2,2.396c0.514,0.975,1.613,1.096,2.599,1.012
			c1.565-0.131,3.103-0.557,4.521-1.232c1.419-0.678,2.718-1.602,3.808-2.736c0.704-0.73,1.36-1.697,1.143-2.689
			c-0.184-0.84-0.977-1.441-1.812-1.645c-1.753-0.422-4.07,0.428-5.643,1.191c-1.552,0.754-3.47,2.174-4.386,3.656
			C53.441,24.377,53.432,24.393,53.422,24.408"/>
		<path fill="#F6BFD0" d="M57.613,20.889c-1.303,0.633-2.808,1.715-3.695,2.838c-0.101,0.127-0.196,0.256-0.283,0.385
			c-0.009,0.016-0.019,0.029-0.027,0.043c-0.409,0.629-0.605,1.428-0.335,2.113c0.373,0.951,1.327,1.154,2.247,1.109
			c0.363-0.018,0.729-0.062,1.093-0.135c1.028-0.193,2.089-0.551,3.092-1.041c0.182-0.088,0.36-0.182,0.538-0.277
			c1.133-0.621,2.173-1.406,2.97-2.324c0.62-0.713,1.127-1.688,0.807-2.514c-0.065-0.168-0.147-0.328-0.26-0.473
			c-0.313-0.398-0.813-0.68-1.336-0.787C60.927,19.518,58.984,20.223,57.613,20.889"/>
		<path fill="#F7C9D7" d="M57.389,21.07c-1.207,0.588-2.521,1.535-3.306,2.463c-0.092,0.109-0.181,0.219-0.264,0.33
			c-0.01,0.012-0.018,0.023-0.026,0.035c-0.391,0.539-0.625,1.207-0.471,1.834c0.229,0.93,1.043,1.211,1.895,1.205
			c0.333-0.004,0.676-0.043,1.014-0.113c0.898-0.188,1.891-0.533,2.836-1.006c0.168-0.082,0.335-0.17,0.498-0.262
			c1.072-0.598,2.057-1.35,2.712-2.205c0.533-0.695,0.91-1.666,0.47-2.336c-0.078-0.117-0.156-0.236-0.261-0.338
			c-0.282-0.279-0.689-0.475-1.118-0.541C60.126,19.939,58.56,20.504,57.389,21.07"/>
		<path fill="#F9D4E0" d="M57.166,21.254c-1.113,0.541-2.24,1.352-2.918,2.086c-0.083,0.09-0.165,0.182-0.245,0.275
			c-0.008,0.008-0.017,0.02-0.024,0.027c-0.371,0.447-0.652,0.986-0.605,1.555c0.074,0.912,0.758,1.27,1.543,1.301
			c0.303,0.012,0.62-0.021,0.933-0.094c0.77-0.174,1.693-0.512,2.581-0.969c0.153-0.078,0.307-0.16,0.457-0.246
			c1.012-0.576,1.935-1.295,2.453-2.086c0.445-0.68,0.73-1.658,0.132-2.16c-0.081-0.068-0.163-0.143-0.26-0.203
			c-0.25-0.158-0.567-0.266-0.9-0.293C59.325,20.365,58.136,20.783,57.166,21.254"/>
		<path fill="#FBDFE8" d="M59.939,20.805c-0.881-0.178-1.978,0.139-2.997,0.631c-1.019,0.496-1.96,1.168-2.529,1.711
			c-0.43,0.408-0.924,0.889-0.989,1.514c-0.131,1.23,0.996,1.59,2.043,1.326c0.748-0.188,1.791-0.607,2.742-1.164
			c0.951-0.555,1.812-1.242,2.196-1.969c0.353-0.662,0.577-1.719-0.206-1.98C60.115,20.844,60.027,20.822,59.939,20.805"/>
		<path fill="#FFFFFF" d="M65.45,20.854c-0.095,0.172-0.193,0.34-0.246,0.52c-0.025-0.574-0.338-0.926-0.782-1.119
			c-0.702-0.305-1.733-0.219-2.48-0.012c-1.485,0.414-2.942,1.037-4.148,2.002c-1.134,0.906-2.371,2.066-3.057,3.359
			c-0.322,0.605-0.41,1.365-0.17,1.998c0.098,0.266,0.258,0.508,0.481,0.705c-1.123-0.059-2.039-0.479-2.156-1.613
			c-0.318-3.062,3.51-5.486,5.979-6.428C60.328,19.713,65.133,18.301,65.45,20.854"/>
		<path fill="#8C1C2B" d="M65.572,20.945c0.003-0.008-0.003-0.012-0.008-0.016c0.003-0.01,0.007-0.02,0.011-0.029
			c0.012-0.029-0.035-0.051-0.05-0.021c-0.022,0.039-0.041,0.074-0.063,0.111c-0.003-0.045-0.007-0.092-0.012-0.137
			c-0.317-2.553-5.122-1.141-6.579-0.588c-2.443,0.93-6.21,3.312-5.986,6.326c-1.759,4.678-2.847,9.688-4.086,14.539
			c-0.373,0.01-0.725,0.227-0.978,0.494c-0.127,0.135-0.264,0.291-0.375,0.459c-0.124,0.004-0.243,0.072-0.287,0.229
			c-0.921,3.281-1.921,6.537-2.612,9.875c-1.52-0.787-2.272,1.275-1.948,2.518c0.611,2.342,4.589,3.441,6.552,3.988
			c1.675,0.465,3.404,0.729,5.12,0.988c0.838,0.127,1.972,0.402,2.753-0.078c0.235-0.145,0.426-0.318,0.582-0.508
			c-0.533,1.523-1.125,3.023-1.598,4.574c-0.655,2.146-1.287,4.299-1.913,6.453c-1.232,4.244-2.64,8.494-3.651,12.797
			c-2.764,0.693-5.494,0.676-8.275,0.027c-2.553-0.596-6.514-2.068-6.71-5.119c-0.004-0.08-0.131-0.141-0.172-0.049
			c-1.309,2.932,2.831,4.617,4.9,5.422c3.384,1.314,7.196,1.287,10.672,0.365c0.007-0.002,0.013-0.004,0.019-0.006
			c0.127-0.025,0.244-0.109,0.299-0.27c1.393-4.053,2.423-8.27,3.595-12.391c0.613-2.158,1.227-4.316,1.812-6.482
			c0.529-1.961,0.891-3.949,1.37-5.916c0.054-0.141,0.088-0.287,0.109-0.434c0.018-0.072,0.034-0.143,0.053-0.213
			c0.007-0.029-0.011-0.047-0.033-0.053c0.009-0.791-0.426-1.59-1.258-2.031c-0.053-0.027-0.104-0.029-0.151-0.016
			c0.397-1.283,0.812-2.562,1.185-3.857c0.363-1.266,0.732-2.531,1.121-3.791c0.136-0.439,0.277-0.877,0.431-1.309
			c0.066-0.188,0.361-0.748,0.212-0.701c0.217-0.068,0.22-0.324,0.089-0.432c-0.008-0.008-0.017-0.014-0.025-0.02
			c0.011-0.031,0.021-0.062,0.029-0.104c0.032-0.178-0.001-0.369-0.03-0.543c-0.051-0.283-0.193-0.656-0.43-0.857
			c1.211-3.559,2.12-7.256,3.15-10.865C63.569,29.199,64.803,25.121,65.572,20.945 M54.76,23.441
			c0.813-0.797,1.774-1.426,2.762-1.984c1.268-0.721,5.229-2.305,6.9-1.203c0.339,0.225,0.584,0.561,0.691,1.035
			c0.013,0.062,0.053,0.102,0.099,0.115c-2.14,3.436-5.648,6.168-9.817,6.258c-0.319,0.008-0.592-0.016-0.829-0.062
			C52.342,27.172,53.588,24.586,54.76,23.441 M56.618,56.109c1.353,0.701,1.554,2.621-0.085,3.178
			c-0.625,0.211-1.509,0.006-2.124-0.088c-1.376-0.211-2.747-0.449-4.106-0.758c-1.49-0.338-2.939-0.846-4.314-1.512
			c-0.588-0.285-1.141-0.637-1.677-1.006c-0.407-0.279-0.74-0.629-0.998-1.051c-0.621-1.111-0.23-1.893,1.167-2.344
			c-0.062,0.311-0.127,0.623-0.184,0.936c-0.016,0.076-0.028,0.15-0.041,0.225c-0.023,0.143,0.014,0.256,0.133,0.34
			c1.409,1.016,2.9,2.105,4.507,2.783c2.336,0.984,4.8,0.998,7.226,0.432c0.068-0.016,0.125-0.074,0.145-0.143
			c0.101-0.342,0.205-0.684,0.311-1.025C56.589,56.088,56.601,56.1,56.618,56.109 M58.896,46.824
			c-0.432,1.281-0.842,2.568-1.241,3.857c-0.649,2.088-1.196,4.197-1.778,6.299c0.065-0.236-0.159-0.059-0.455,0.008
			c-0.512,0.115-1.025,0.189-1.55,0.242c-1.359,0.133-2.813-0.205-4.101-0.621c-1.729-0.561-3.295-1.832-4.764-2.873
			c-0.058-0.043-0.102-0.074-0.134-0.102c0.032-0.172,0.064-0.344,0.097-0.518c0.155-0.83,0.319-1.658,0.508-2.482
			c0.05-0.211,0.1-0.42,0.151-0.631c0.24-0.986,0.515-1.965,0.802-2.943c0.014-0.045,0.028-0.094,0.042-0.143
			c0.403-1.373,0.827-2.74,1.222-4.107c2.942,3.086,7.025,4.15,11.145,3.439c0.079-0.012,0.157-0.027,0.236-0.041
			C58.997,46.443,58.942,46.688,58.896,46.824 M59.179,45.682c-4.077,0.844-8.265-0.508-11.397-3.164
			c0.003-0.01,0.005-0.016,0.008-0.025c0.013-0.043,0.015-0.082,0.012-0.119c0.094-0.076,0.188-0.148,0.3-0.207
			c0.151-0.08,0.316-0.135,0.479-0.191c-0.025,0.1-0.052,0.199-0.078,0.299c-0.076,0.068-0.107,0.193-0.021,0.285
			c0.009,0.012,0.021,0.02,0.03,0.031c0.039,0.08,0.105,0.145,0.186,0.184c2.521,2.52,6.491,3.352,9.938,2.576
			c0.158-0.035,0.234-0.139,0.247-0.254c0.026-0.023,0.047-0.055,0.066-0.09c0.032,0.055,0.064,0.109,0.09,0.168
			c0.05,0.111,0.071,0.24,0.092,0.359C59.141,45.594,59.158,45.641,59.179,45.682 M58.404,44.707
			c-3.412,0.445-6.283-0.422-9.162-2.139c0.004-0.01,0.007-0.018,0.01-0.025c1.299-5.066,2.913-10.203,3.749-15.383
			c0.293,0.785,1.095,1.098,2.047,1.146c1.494,0.078,3.354-0.48,4.184-0.834c2.756-1.172,4.886-3.205,6.072-5.91
			c-1.371,3.584-2.404,7.293-3.47,10.977C60.669,36.568,59.316,40.609,58.404,44.707"/>
	</g>
</g>
<path fill="#8F2347" d="M76.438,85.777c-2.581,2.207-5.943,2.4-9.149,1.857c-1.086-0.184-2.04-0.697-3.112-0.914
	c-1.043-0.213-1.55-0.203-1.652-1.363c-0.104-1.199,0.031-2.467-0.006-3.662c-0.055-1.746,0.208-3.432,0.232-5.172
	c0.023-1.697,0.017-3.43,0.081-5.123c0.087-2.338-0.08-4.635-0.143-6.955c-0.062-2.344-0.366-4.188,2.119-5.225
	c1.78-0.74,3.82-0.566,5.688-0.357c1.825,0.203,4.499-0.119,5.99,1.164c0.99,0.852,1.016,2.217,1.055,3.4
	c0.079,2.338-0.161,4.705-0.199,7.051c-0.056,3.445,0.532,6.965,0.191,10.377c-0.104,1.029-0.089,1.98-0.07,3.016
	C77.484,85.033,77.285,85.055,76.438,85.777"/>
<path fill="#9E3154" d="M65.899,59.535c1.397-0.553,2.997-0.422,4.467-0.27c1.443,0.146,3.524-0.105,4.71,0.836
	c0.102,0.049,0.129,0.203,0.246,0.324c0.506,0.943,0.521,2.15,0.553,3.254c0.07,2.434-0.062,4.896-0.102,7.326
	c-0.055,3.426,0.353,6.904,0.061,10.303c-0.088,1.014-0.088,1.971-0.084,2.992c0.009,1.057-0.15,1.26-0.791,1.988
	c-2.057,1.676-4.697,1.859-7.225,1.461c-0.857-0.135-1.614-0.521-2.462-0.691c-0.783-0.275-1.166-0.381-1.236-1.365
	c-0.076-1.072,0.04-2.197,0.024-3.27c-0.022-1.557,0.197-3.07,0.231-4.623c0.034-1.52,0.047-3.066,0.081-4.582
	c0.059-2.561-0.105-5.082-0.139-7.633C64.198,63.162,63.85,60.955,65.899,59.535"/>
<path fill="#AD3D61" d="M66.989,59.85c1.019-0.367,2.176-0.277,3.247-0.184c1.061,0.092,2.547-0.09,3.429,0.512
	c0.094,0.004,0.051,0.209,0.198,0.348c0.311,1.035,0.316,2.254,0.345,3.406c0.062,2.525,0.038,5.088-0.003,7.602
	c-0.056,3.408,0.171,6.844-0.07,10.227c-0.074,1-0.09,1.963-0.099,2.969c-0.008,0.955-0.12,1.338-0.558,2.072
	c-1.529,1.145-3.45,1.32-5.301,1.064c-0.626-0.088-1.188-0.346-1.809-0.471c-0.526-0.332-0.781-0.555-0.822-1.365
	c-0.046-0.945,0.049-1.93,0.057-2.877c0.01-1.369,0.186-2.707,0.23-4.076c0.043-1.34,0.068-2.701,0.08-4.041
	c0.024-2.781-0.131-5.525-0.135-8.307C65.77,64.225,65.376,61.65,66.989,59.85"/>
<path fill="#BE486E" d="M68.079,60.162c0.638-0.176,1.354-0.131,2.026-0.094c0.679,0.035,1.57-0.078,2.146,0.184
	c0.088-0.039-0.025,0.217,0.151,0.373c0.115,1.127,0.112,2.357,0.138,3.559c0.052,2.619,0.137,5.279,0.095,7.875
	c-0.055,3.391-0.01,6.785-0.202,10.152c-0.057,0.988-0.088,1.957-0.111,2.947c-0.02,0.85-0.091,1.416-0.325,2.156
	c-1.001,0.613-2.201,0.779-3.375,0.666c-0.396-0.041-0.761-0.172-1.157-0.248c-0.268-0.393-0.395-0.734-0.406-1.367
	c-0.014-0.82,0.058-1.662,0.088-2.484c0.041-1.18,0.174-2.346,0.229-3.527c0.054-1.164,0.089-2.338,0.081-3.502
	c-0.02-3.002-0.156-5.971-0.133-8.982C67.34,65.287,66.902,62.346,68.079,60.162"/>
<path fill="#CC537B" d="M70.841,60.328c-0.526,0.15-1.138,0.172-1.672,0.148c-0.741,2.564-0.258,5.871-0.301,8.535
	c-0.054,3.24,0.054,6.434,0.129,9.658c0.074,3.156-0.5,6.316-0.436,9.4c0.679,0.111,1.32-0.133,1.955-0.244
	c0.2-5.086,0.468-10.143,0.55-15.24c0.063-3.912-0.378-7.998-0.121-11.863C70.737,60.551,70.92,60.244,70.841,60.328"/>
<path fill="#8B204A" d="M72.965,59.154c-0.659-0.033-1.302-0.033-1.876-0.041c-0.718-0.012-1.411-0.1-2.127-0.119
	c-1.528-0.041-3.235-0.059-4.601,0.699c-0.689,0.385-1.876,1.783-1.49,2.625c0.406,0.889,3.107,0.99,3.938,1.078
	c2.771,0.297,6.102,1.113,8.765-0.08c1.212-0.541,2.743-2.133,1.203-3.186C75.747,59.428,74.322,59.221,72.965,59.154"/>
<path fill="#8C1C2B" d="M77.4,84.682c0.141-3.693,0.12-7.398,0.178-11.092c0.06-3.867,0.347-7.824,0.067-11.691
	c0.067-0.166,0.115-0.344,0.136-0.535c0.266-2.527-5.99-2.471-7.357-2.416c-1.897-0.189-6.771-0.752-7.615,1.787
	c-0.043,0.131-0.071,0.254-0.094,0.375c-0.009,0.008-0.016,0.018-0.019,0.033c-0.486,3.887-0.356,7.887-0.427,11.797
	c-0.069,3.762-0.307,7.586-0.152,11.35c-0.224,3.029,4.402,3.463,6.552,3.686c2.929,0.303,7.503,0.199,8.95-2.926
	C77.707,84.861,77.554,84.689,77.4,84.682 M63.539,60.326c1.406-1.602,4.975-1.365,6.884-1.352c1.991,0.354,4.568,0.402,6.352,1.43
	c1.905,1.096-0.807,2.383-1.603,2.652c-1.256,0.426-2.641,0.512-3.952,0.592c-1.54,0.094-3.08-0.027-4.603-0.258
	C65.2,63.178,61.82,62.283,63.539,60.326 M69.702,87.471c-2.082-0.049-6.048-0.393-7.184-2.572c0.036-0.037,0.063-0.084,0.068-0.15
	c0.321-3.902,0.19-7.887,0.247-11.799c0.049-3.541,0.264-7.146,0.037-10.691c1.055,1.996,6.217,1.918,7.819,1.893
	c1.544-0.023,5.462-0.123,6.712-1.818c-0.33,3.535-0.199,7.152-0.259,10.689c-0.068,4.059-0.229,8.129-0.188,12.188
	C75.428,87.447,72.192,87.529,69.702,87.471"/>
<g>
	<g>
		<path d="M73.152,50.89c-2.512-0.232-4.764-0.638-6.869-1.236c-0.087,0.221-0.177,0.444-0.274,0.675l-0.129,0.306h-0.332
			c-0.372,0-0.753-0.11-1.273-0.368l-0.365-0.182l0.104-0.395c0.183-0.689,0.36-1.379,0.537-2.067
			c0.12-0.466,0.24-0.931,0.361-1.396c-0.486-0.046-0.962-0.112-1.418-0.198l-0.408-0.076v-0.415c0-0.478,0.045-0.91,0.133-1.284
			l0.094-0.401l0.411,0.016c1.704,0.064,2.801,0.17,3.451,0.331l0.428,0.106l-0.052,0.438c-0.105,0.903-0.288,1.819-0.542,2.729
			c0.872,0.206,1.748,0.407,2.621,0.604l-0.003-0.063c-0.04-1.18-0.061-2.533-0.061-4.022c0-0.405,0.021-0.913,0.062-1.501
			l0.031-0.448c0,0,1.056-0.036,1.389-0.043c-0.1-0.009-0.704-0.065-0.704-0.065l-0.041-0.41c-0.056-0.569-0.082-1.259-0.082-2.168
			c0-0.483,0.027-1,0.083-1.537l0.042-0.414h0.008l-0.141-0.198c-0.247-0.349-0.367-0.839-0.367-1.499v-0.464l0.463-0.035
			c2.878-0.214,5.334-0.317,7.508-0.317h0.39l0.096,0.378c0.041,0.165,0.093,0.371,0.093,0.618c0,0.269-0.045,0.484-0.093,0.677
			l-0.082,0.322l-0.328,0.05c-0.74,0.112-1.966,0.218-3.661,0.314c0.065,0,0.131,0,0.196,0c1.266,0,2.385,0.054,3.326,0.16
			l0.418,0.048l0.025,0.419c0.042,0.684,0.08,1.387,0.08,2.132c0,0.611-0.043,1.161-0.127,1.635l-0.062,0.351l-0.249,0.039
			c0.111,0.004,0.779,0.03,0.779,0.03l0.016,0.465c0.041,1.233,0.079,2.568,0.079,3.981c0,0.596-0.043,1.139-0.127,1.612
			l-0.062,0.346l-0.347,0.06c-0.447,0.076-1.114,0.107-2.302,0.107c-1.517,0-2.839-0.019-3.996-0.058
			c0.548,0.121,2.018,0.442,2.018,0.442v0.402c0,0.384-0.076,0.763-0.233,1.157l-0.139,0.347L73.152,50.89z M76.266,46.562v-0.257
			l-0.17,0.022c-0.198,0.025-0.472,0.057-0.801,0.073c-0.006,0.057-0.012,0.11-0.018,0.161H76.266z M73.087,46.562
			c-0.009-0.044-0.018-0.088-0.024-0.132c-0.527-0.007-0.871-0.035-1.121-0.09l-0.027-0.006v0.228H73.087z M71.914,44.272
			c0.129-0.025,0.377-0.058,1.06-0.066c0.004-0.058,0.009-0.115,0.014-0.173h-1.073V44.272z M75.336,44.225
			c0.242,0.011,0.461,0.019,0.657,0.019h0.272v-0.21h-0.942C75.328,44.099,75.332,44.163,75.336,44.225z M75.851,40.041v-0.644
			h-3.281v0.644H75.851z M66.536,42.407c-0.914-0.041-1.706-0.28-2.423-0.729l-0.29-0.182l0.064-0.337
			c0.084-0.434,0.228-0.852,0.44-1.277l0.156-0.314l0.349,0.04c0.697,0.081,1.478,0.314,2.384,0.713L67.6,40.49l-0.098,0.406
			c-0.108,0.447-0.28,0.873-0.513,1.267l-0.153,0.259L66.536,42.407z"/>
		<path fill="#FFFFFF" d="M77.816,35.389c0.04,0.159,0.078,0.316,0.078,0.496c0,0.218-0.038,0.396-0.078,0.555
			c-1.17,0.178-3.567,0.337-7.195,0.476c-0.197-0.278-0.275-0.693-0.275-1.21C73.001,35.508,75.478,35.389,77.816,35.389
			 M74.427,37.748c1.309,0,2.397,0.059,3.271,0.157c0.041,0.674,0.079,1.367,0.079,2.102c0,0.574-0.038,1.091-0.119,1.547
			c-0.494,0.078-1.248,0.099-2.238,0.099c-1.805,0-3.35-0.061-4.618-0.18c-0.061-0.613-0.08-1.327-0.08-2.119
			c0-0.397,0.02-0.894,0.08-1.486C71.791,37.786,73.001,37.748,74.427,37.748 M72.069,40.541h4.281v-1.644h-4.281V40.541
			 M64.775,40.105c0.674,0.078,1.428,0.316,2.24,0.674c-0.101,0.417-0.258,0.792-0.457,1.129c-0.831-0.038-1.545-0.256-2.18-0.653
			C64.459,40.84,64.598,40.462,64.775,40.105 M74.328,42.465c1.526,0,2.795,0.038,3.805,0.078c0.041,1.229,0.079,2.558,0.079,3.965
			c0,0.555-0.038,1.068-0.119,1.524c-0.474,0.081-1.229,0.101-2.218,0.101c-2.221,0-4.143-0.04-5.748-0.139
			c-0.04-1.17-0.061-2.499-0.061-4.005c0-0.396,0.021-0.892,0.061-1.466C71.277,42.482,72.683,42.465,74.328,42.465 M74.209,46.883
			c-0.276,0-0.456-0.038-0.555-0.119c-0.078-0.237-0.119-0.514-0.159-0.831h-0.138c-0.595,0-1.032-0.02-1.309-0.08
			c-0.078-0.14-0.099-0.316-0.099-0.515c0-0.199,0.021-0.396,0.059-0.574c0.2-0.04,0.674-0.061,1.388-0.061h0.061
			c0-0.415,0.038-0.812,0.099-1.17h-2.142v3.529h5.352v-3.529h-1.982c0.041,0.456,0.061,0.854,0.079,1.17
			c0.438,0.021,0.812,0.04,1.131,0.04c0.038,0.178,0.079,0.377,0.079,0.575c0,0.177-0.021,0.356-0.041,0.514
			c-0.316,0.041-0.711,0.081-1.188,0.081c-0.04,0.356-0.061,0.633-0.099,0.851C74.626,46.845,74.447,46.883,74.209,46.883
			 M63.705,44.366c1.605,0.061,2.716,0.159,3.35,0.316c-0.119,1.013-0.337,2.063-0.674,3.152c2.318,0.555,4.658,1.07,7.016,1.585
			c0,0.356-0.079,0.673-0.198,0.972c-2.577-0.238-4.975-0.674-7.215-1.347c-0.137,0.354-0.276,0.712-0.436,1.089
			c-0.316,0-0.653-0.119-1.051-0.316c0.357-1.348,0.694-2.696,1.051-4.044c-0.673-0.04-1.327-0.118-1.962-0.237
			C63.586,45.101,63.626,44.703,63.705,44.366 M78.596,34.389h-0.779c-2.187,0-4.654,0.104-7.545,0.319l-0.926,0.068v0.929
			c0,0.767,0.15,1.352,0.46,1.788l0.024,0.035l-0.024,0.237c-0.057,0.554-0.085,1.088-0.085,1.588c0,0.907,0.025,1.602,0.081,2.181
			l-0.609,0.021l-0.063,0.898c-0.041,0.599-0.062,1.115-0.062,1.535c0,1.255,0.015,2.414,0.043,3.455
			c-0.495-0.113-0.991-0.228-1.485-0.343c0.192-0.769,0.334-1.539,0.424-2.302l0.103-0.876l-0.855-0.212
			c-0.693-0.172-1.789-0.278-3.552-0.345l-0.823-0.031l-0.188,0.802c-0.097,0.411-0.146,0.882-0.146,1.398v0.83l0.815,0.152
			c0.288,0.055,0.582,0.101,0.882,0.14c-0.072,0.28-0.145,0.56-0.216,0.839c-0.178,0.688-0.354,1.376-0.537,2.064l-0.209,0.789
			l0.731,0.362c0.395,0.196,0.921,0.421,1.495,0.421h0.663l0.258-0.611c0.039-0.09,0.075-0.18,0.111-0.268
			c2.011,0.541,4.155,0.913,6.526,1.133l0.744,0.068l0.276-0.694c0.182-0.454,0.27-0.894,0.27-1.342v-0.294
			c0.472,0.005,0.964,0.007,1.479,0.007c1.029,0,1.829-0.02,2.387-0.115l0.692-0.118l0.123-0.692
			c0.09-0.502,0.135-1.074,0.135-1.699c0-1.417-0.038-2.759-0.08-3.998l-0.03-0.929l-0.433-0.018
			c0.072-0.466,0.107-0.977,0.107-1.557c0-0.769-0.04-1.489-0.081-2.162L78.656,37.2l0.13-0.517
			c0.054-0.213,0.108-0.475,0.108-0.799c0-0.31-0.065-0.568-0.108-0.74L78.596,34.389L78.596,34.389z M64.193,39.031l-0.312,0.628
			c-0.233,0.467-0.392,0.927-0.484,1.406l-0.129,0.673l0.581,0.364c0.791,0.495,1.663,0.759,2.664,0.805l0.601,0.027l0.307-0.518
			c0.257-0.436,0.448-0.907,0.568-1.403l0.195-0.812l-0.766-0.337c-0.952-0.42-1.779-0.665-2.527-0.752L64.193,39.031L64.193,39.031
			z"/>
	</g>
	<g>
		<path d="M95.104,50.793c-1.197,0-2.407-0.109-3.597-0.324l-0.273-0.05l-0.103-0.258c-0.184-0.462-0.273-1.191-0.273-2.228
			c0-0.458,0.044-1.197,0.124-2.095c-0.002,0-0.316,0.229-0.316,0.229l-0.299-0.246c-0.332-0.273-0.602-0.559-0.818-0.868
			c-0.12,0.363-0.291,0.712-0.51,1.038l-0.195,0.29l-0.34-0.084c-0.383-0.095-0.737-0.202-1.061-0.32
			c0.002,0.198,0.015,1.499,0.015,1.957v0.343l-0.32,0.124c-0.203,0.078-0.452,0.111-0.833,0.111c-0.473,0-0.688,0-0.87-0.088
			l-0.264-0.127l-0.019-0.292c-0.042-0.665-0.073-1.329-0.103-1.987c-0.438,0.258-0.912,0.512-1.419,0.76l-0.32,0.157l-0.253-0.253
			c-0.362-0.362-0.644-0.767-0.836-1.202l-0.163-0.368l0.325-0.237c0.777-0.568,1.627-1.125,2.53-1.655
			c-0.018-0.278-0.029-0.557-0.035-0.836c-0.752-0.015-1.421-0.062-1.918-0.138l-0.288-0.044l-0.104-0.272
			c-0.077-0.204-0.113-0.456-0.113-0.793c0-0.257,0-0.479,0.057-0.699l0.097-0.376h0.388c0.544,0,1.152-0.013,1.848-0.028
			c-0.009-0.582-0.009-1.153-0.009-1.712v-0.312l0.281-0.137c0.116-0.058,0.3-0.107,0.814-0.167c0.012,0,0.023,0,0.035,0
			c0.391,0,0.643,0.054,0.796,0.099l0.34,0.099c0,0,0.117,1.886,0.132,2.123c0.669,0.01,1.168,0.045,1.515,0.104l-0.089-0.123
			l0.215-0.293c1.173-1.604,2.606-3.213,4.261-4.784l0.275-0.262l0.325,0.194c0.434,0.259,0.807,0.545,1.109,0.85l0.288,0.29
			l-0.227,0.341c-0.068,0.102-0.137,0.2-0.205,0.297c1.039,0.107,2.195,0.251,3.506,0.436l0.64,0.09l-0.247,0.597
			c-0.264,0.637-0.758,1.382-1.469,2.214c-0.273,0.348-0.585,0.722-0.938,1.129c1.366,0.42,2.599,0.815,3.749,1.205l0.441,0.149
			l-0.118,0.451c-0.102,0.39-0.249,0.776-0.45,1.184l-0.177,0.357l-0.389-0.093c-1.534-0.369-3.125-0.804-4.854-1.326
			c-0.771,0.769-1.596,1.501-2.464,2.188c0.054-0.003,0.107-0.005,0.162-0.005c0.229,0,0.428,0.041,0.62,0.08l0.399,0.082
			l0.055,0.419c0,0.393,0,1.304,0.015,2.702c1.163,0.074,2.232,0.115,3.245,0.125c0.013-0.153,0.021-0.335,0.021-0.549
			c0-0.269-0.01-0.554-0.022-0.864c-1.345-0.105-2.182-0.194-2.552-0.271l-0.175-0.036l-0.112-0.138
			c-0.176-0.217-0.21-0.513-0.21-0.951c0-0.206,0.003-0.437,0.047-0.668l0.08-0.418l0.426,0.012
			c1.559,0.045,2.926,0.158,4.181,0.345l0.338,0.05l0.076,0.333c0.125,0.547,0.151,1.72,0.151,2.607c0,0.963-0.02,1.69-0.06,2.161
			l-0.031,0.375l-0.369,0.073C97.528,50.721,96.452,50.793,95.104,50.793z M87.388,43.278c0.787,0.338,1.402,0.627,1.965,0.924
			l0.046,0.024l0.142-0.112c0.787-0.624,1.563-1.288,2.316-1.981c-0.273-0.091-0.546-0.188-0.815-0.292l-0.38-0.146l0.066-0.402
			c0.023-0.143,0.052-0.28,0.086-0.412c-0.09,0.085-0.548,0.499-0.548,0.499l-0.317-0.194c-0.246-0.149-0.469-0.321-0.668-0.513
			c0.013,0.125,0.022,0.26,0.022,0.404v0.828L89.1,42.055c-0.212,0.156-0.536,0.235-1.743,0.252L87.388,43.278z M91.927,39.748
			c0.603,0.176,1.206,0.35,1.809,0.512c0.444-0.474,0.868-0.95,1.268-1.423c-0.673-0.073-1.341-0.146-1.994-0.212
			c-0.038,0.04-0.074,0.076-0.11,0.111C92.604,39.066,92.272,39.4,91.927,39.748z"/>
		<path fill="#FFFFFF" d="M93.479,35.191c0.397,0.237,0.734,0.494,1.011,0.772c-0.238,0.356-0.477,0.673-0.714,0.989
			c1.349,0.119,2.814,0.299,4.361,0.517c-0.238,0.575-0.693,1.269-1.387,2.081c-0.438,0.555-0.932,1.129-1.448,1.704
			c1.506,0.456,3.013,0.932,4.479,1.428c-0.099,0.377-0.238,0.731-0.415,1.089c-1.725-0.415-3.429-0.892-5.114-1.405
			c-1.069,1.089-2.259,2.119-3.567,3.07c-0.337-0.277-0.613-0.574-0.833-0.931c1.051-0.833,2.043-1.704,2.975-2.598
			c-0.557-0.157-1.091-0.337-1.604-0.534c0.078-0.477,0.217-0.871,0.415-1.19c0.752,0.22,1.506,0.438,2.259,0.636
			c0.754-0.793,1.447-1.585,2.08-2.378c-1.068-0.118-2.139-0.237-3.17-0.339c-0.099,0.119-0.179,0.2-0.258,0.278
			c-0.356,0.397-0.734,0.772-1.129,1.17c-0.397,0.436-0.793,0.833-1.21,1.208c-0.357-0.218-0.674-0.494-0.932-0.851
			C90.466,38.282,91.873,36.716,93.479,35.191 M85.987,38.103c0.278,0,0.496,0.041,0.633,0.081c0.041,0.752,0.101,1.486,0.14,2.238
			c0.951,0,1.625,0.04,2.002,0.119c0.021,0.159,0.041,0.337,0.041,0.536v0.575c-0.16,0.118-0.812,0.157-1.963,0.157
			c0.019,0.595,0.039,1.21,0.059,1.805c0.752,0.316,1.507,0.653,2.221,1.03c-0.1,0.356-0.258,0.714-0.496,1.068
			c-0.633-0.157-1.208-0.354-1.684-0.593c0,0.912,0.018,1.803,0.018,2.715c-0.157,0.061-0.375,0.078-0.653,0.078
			c-0.356,0-0.574,0-0.653-0.038c-0.061-0.952-0.099-1.903-0.139-2.835c-0.596,0.396-1.289,0.792-2.102,1.189
			c-0.337-0.337-0.574-0.693-0.732-1.051c0.813-0.595,1.725-1.189,2.755-1.782c-0.04-0.536-0.061-1.071-0.061-1.607
			c-1.03,0-1.823-0.059-2.337-0.137c-0.061-0.159-0.081-0.377-0.081-0.615s0-0.415,0.041-0.575c0.673,0,1.445-0.02,2.356-0.04
			c-0.018-0.752-0.018-1.486-0.018-2.2C85.412,38.184,85.631,38.144,85.987,38.103 M93.914,45.139
			c1.388,0.04,2.775,0.139,4.122,0.339c0.081,0.354,0.139,1.188,0.139,2.496c0,0.952-0.02,1.664-0.058,2.119
			c-0.596,0.119-1.588,0.2-3.014,0.2c-1.248,0-2.418-0.119-3.508-0.316c-0.158-0.397-0.238-1.091-0.238-2.043
			c0-0.415,0.04-1.17,0.139-2.238c0.14-0.04,0.337-0.081,0.596-0.081c0.197,0,0.377,0.041,0.574,0.081c0,0.436,0,1.506,0.02,3.17
			c1.408,0.099,2.795,0.159,4.183,0.159c0.038-0.238,0.079-0.574,0.079-1.051c0-0.397-0.021-0.833-0.041-1.329
			c-1.584-0.118-2.557-0.218-2.932-0.296c-0.08-0.099-0.099-0.316-0.099-0.636C93.876,45.536,93.876,45.338,93.914,45.139
			 M93.34,33.944l-0.55,0.521c-1.677,1.592-3.13,3.225-4.321,4.852l-0.116,0.16c-0.192-0.018-0.408-0.03-0.65-0.04
			c-0.006-0.085-0.012-0.17-0.018-0.255c-0.023-0.35-0.047-0.699-0.065-1.054l-0.039-0.706l-0.679-0.199
			c-0.189-0.055-0.501-0.121-0.914-0.121H85.93l-0.057,0.007c-0.59,0.067-0.805,0.13-0.978,0.214l-0.562,0.273v0.625
			c0,0.401,0,0.809,0.003,1.223c-0.49,0.011-0.935,0.018-1.342,0.018h-0.776l-0.192,0.752c-0.072,0.282-0.072,0.545-0.072,0.823
			c0,0.399,0.047,0.708,0.146,0.971l0.207,0.546l0.577,0.087c0.409,0.062,0.928,0.106,1.509,0.13
			c0.001,0.024,0.003,0.05,0.004,0.074c-0.819,0.492-1.595,1.004-2.31,1.526l-0.65,0.476l0.326,0.736
			c0.218,0.492,0.533,0.948,0.939,1.354l0.505,0.505l0.642-0.313c0.254-0.124,0.499-0.25,0.737-0.377
			c0.019,0.395,0.04,0.791,0.065,1.188l0.037,0.584l0.527,0.254c0.284,0.137,0.553,0.137,1.087,0.137
			c0.314,0,0.681-0.018,1.013-0.145l0.641-0.247v-0.687c0-0.426-0.004-0.847-0.008-1.268c0.141,0.041,0.284,0.079,0.433,0.116
			l0.681,0.169l0.391-0.582c0.084-0.125,0.162-0.254,0.234-0.386c0.112,0.11,0.232,0.218,0.36,0.324l0.376,0.309
			c-0.043,0.588-0.066,1.075-0.066,1.416c0,1.101,0.102,1.89,0.31,2.413l0.205,0.515l0.546,0.1c1.218,0.22,2.458,0.332,3.686,0.332
			c1.382,0,2.491-0.076,3.21-0.22l0.737-0.147l0.062-0.75c0.041-0.484,0.062-1.225,0.062-2.202c0-1.329-0.056-2.243-0.164-2.719
			l-0.131-0.572c0.084,0.021,0.168,0.041,0.251,0.062l0.776,0.187l0.354-0.716c0.217-0.438,0.375-0.856,0.486-1.279l0.235-0.901
			l-0.883-0.299c-0.947-0.32-1.95-0.646-3.037-0.985c0.166-0.199,0.323-0.392,0.471-0.579c0.731-0.855,1.238-1.624,1.526-2.318
			l0.494-1.193l-1.278-0.18c-0.979-0.138-1.873-0.253-2.696-0.348l0.195-0.292l-0.576-0.581c-0.333-0.334-0.739-0.646-1.208-0.926
			L93.34,33.944L93.34,33.944z M92.871,39.5c0.111-0.115,0.222-0.232,0.331-0.353c0.264,0.027,0.529,0.055,0.796,0.083
			c-0.139,0.156-0.279,0.312-0.424,0.468C93.34,39.634,93.105,39.567,92.871,39.5L92.871,39.5z M87.872,42.794
			c0.87-0.033,1.238-0.126,1.524-0.337l0.406-0.3v-0.475l0.322,0.196l-0.022,0.137l0.76,0.292c0.013,0.005,0.025,0.01,0.038,0.015
			c-0.512,0.452-1.033,0.891-1.559,1.311c-0.436-0.222-0.907-0.443-1.465-0.688L87.872,42.794L87.872,42.794z M93.855,44.137
			c0.23-0.211,0.456-0.424,0.679-0.641c1.21,0.362,2.354,0.681,3.461,0.965c-1.223-0.173-2.551-0.278-4.052-0.322L93.855,44.137
			L93.855,44.137z M93.676,47.927c-0.002-0.222-0.003-0.428-0.005-0.62l0.1,0.021c0.137,0.029,0.516,0.107,2.171,0.245
			c0.004,0.139,0.006,0.271,0.006,0.401c0,0.014,0,0.028,0,0.042C95.226,48.002,94.473,47.973,93.676,47.927L93.676,47.927z"/>
	</g>
</g>
</svg>
