<?xml version="1.0" encoding="utf-8"?>
<!-- Generator: Adobe Illustrator 16.0.0, SVG Export Plug-In . SVG Version: 6.00 Build 0)  -->
<!DOCTYPE svg PUBLIC "-//W3C//DTD SVG 1.1//EN" "http://www.w3.org/Graphics/SVG/1.1/DTD/svg11.dtd">
<svg version="1.1" id="Layer_1" xmlns="http://www.w3.org/2000/svg" xmlns:xlink="http://www.w3.org/1999/xlink" x="0px" y="0px"
	 width="126.876px" height="112.438px" viewBox="0 0 126.876 112.438" enable-background="new 0 0 126.876 112.438"
	 xml:space="preserve">
<rect fill="#FFFFFF" width="126.876" height="112.438"/>
<g>
	<g>
		<path d="M50.005,73.892c-0.378,0-0.71-0.028-0.981-0.06l-0.251-0.029l-0.126-0.219c-0.122-0.213-0.138-0.449-0.138-0.632
			c0-0.159,0-0.323,0.054-0.485l0.108-0.325c0,0,0.643-0.03,0.78-0.035c0.013-1.988,0.023-3.968,0.025-5.935
			c-0.849-0.092-1.678-0.213-2.335-0.312c-0.026,0.317-0.053,0.634-0.08,0.946c0.451,0.025,0.901,0.067,1.344,0.125l0.435,0.058
			v0.438c0,0.348-0.059,0.681-0.175,0.988l-0.122,0.324h-0.346c-0.538,0-0.969-0.016-1.329-0.051c-0.01,0.09-0.02,0.178-0.028,0.266
			c0.44,0.042,1.833,0.178,1.833,0.178l-0.115,0.547c-0.022,0.104-0.033,0.209-0.045,0.312c-0.041,0.284-0.077,0.442-0.113,0.546
			l-0.116,0.337h-0.356c-0.437,0-0.814-0.02-1.156-0.062c-0.048-0.002-0.096-0.006-0.145-0.01c-0.099,0.797-0.204,1.577-0.31,2.357
			l-0.064,0.477l-0.479-0.046c-0.31-0.03-0.601-0.073-0.896-0.118l-0.464-0.069l0.04-0.468c0.247-2.891,0.555-5.667,0.914-8.253
			l0.065-0.471l0.474,0.041c0.318,0.027,0.607,0.058,0.867,0.087l0.013,0.002l0.084-0.349l0.423,0.03
			c1.38,0.101,2.544,0.22,3.663,0.375l0.416,0.058l0.016,0.419c0.057,1.538,0.085,2.928,0.085,4.132c0,1.762-0.05,3.282-0.144,4.398
			l-0.036,0.437l-0.438,0.021C50.529,73.879,50.269,73.892,50.005,73.892z M42.275,72.056c-0.853,0-1.5-0.053-2.039-0.167
			l-0.333-0.07l-0.057-0.336c-0.088-0.526-0.135-1.441-0.15-2.968c0-0.884,0.038-1.683,0.117-2.447l0.037-0.36l0.353-0.077
			c0.145-0.032,0.34-0.068,0.563-0.068c0.18,0,0.349,0.024,0.503,0.054l0.03-0.183l0.438,0.015c0.953,0.033,1.706,0.079,2.367,0.146
			l0.439,0.043l0.032,1.288c0.02,0.731,0.035,1.31,0.035,1.742c0,0.901-0.037,1.826-0.115,2.829l-0.027,0.364l-0.355,0.084
			C43.784,72.022,43.234,72.056,42.275,72.056z M41.736,70.104c0.289,0.008,0.565,0.011,0.829,0.012
			c0.002-0.207,0.005-0.417,0.008-0.631l-0.052,0.122h-0.332c-0.159,0-0.311-0.003-0.453-0.008V70.104z M42.593,67.712
			c0.001-0.114,0.002-0.229,0.003-0.347c-0.307-0.019-0.592-0.049-0.859-0.089v0.375C41.949,67.665,42.593,67.712,42.593,67.712z"/>
		<path fill="#FFFFFF" d="M47.257,64.523c1.183,0.086,2.392,0.199,3.631,0.371c0.058,1.565,0.085,2.932,0.085,4.113
			c0,1.894-0.057,3.346-0.142,4.356c-0.286,0.014-0.555,0.027-0.826,0.027c-0.356,0-0.669-0.027-0.925-0.057
			c-0.057-0.099-0.071-0.227-0.071-0.383c0-0.129,0-0.242,0.028-0.327c0.313-0.015,0.611-0.029,0.911-0.029
			c0.015-2.306,0.028-4.599,0.028-6.876c-0.911-0.086-1.835-0.214-2.775-0.356v-0.412C47.201,64.838,47.216,64.694,47.257,64.523
			 M45.862,64.752c0.313,0.027,0.599,0.057,0.854,0.086c-0.058,0.825-0.128,1.65-0.199,2.447c0.555,0.015,1.167,0.057,1.822,0.143
			c0,0.314-0.057,0.584-0.143,0.812c-0.726,0-1.309-0.029-1.765-0.114c-0.057,0.441-0.101,0.867-0.143,1.28
			c0.626,0.058,1.21,0.114,1.778,0.17c-0.027,0.13-0.041,0.258-0.056,0.386c-0.029,0.198-0.057,0.328-0.086,0.413
			c-0.369,0-0.74-0.015-1.097-0.058c-0.227-0.014-0.439-0.042-0.641-0.071c-0.114,0.969-0.241,1.908-0.368,2.848
			c-0.301-0.029-0.584-0.071-0.87-0.114C45.193,70.146,45.494,67.4,45.862,64.752 M41.721,65.947
			c0.854,0.029,1.621,0.071,2.335,0.143c0.028,1.14,0.057,1.992,0.057,2.576c0,0.939-0.042,1.865-0.113,2.791
			c-0.3,0.071-0.869,0.099-1.724,0.099c-0.756,0-1.396-0.042-1.936-0.156c-0.086-0.512-0.129-1.466-0.144-2.89
			c0-0.768,0.029-1.565,0.114-2.392c0.129-0.028,0.286-0.057,0.456-0.057s0.328,0.028,0.47,0.057v2.008
			c0.356,0.015,0.726,0.041,1.124,0.07c0,0.342-0.057,0.641-0.171,0.911c-0.369,0-0.697-0.015-0.953-0.042v1.522
			c0.669,0.029,1.28,0.029,1.822,0.029c0.015-1.126,0.029-2.364,0.042-3.729c-0.54-0.015-1.01-0.057-1.437-0.13
			C41.664,66.475,41.678,66.203,41.721,65.947 M46.482,63.465l-0.08,0.333c-0.144-0.014-0.295-0.028-0.453-0.042l-0.946-0.083
			l-0.131,0.941c-0.025,0.181-0.05,0.362-0.075,0.545l-0.642-0.064c-0.673-0.067-1.436-0.114-2.4-0.146l-0.875-0.03l-0.024,0.146
			c-0.029-0.001-0.059-0.002-0.089-0.002c-0.275,0-0.515,0.046-0.671,0.08l-0.706,0.155l-0.074,0.719
			c-0.08,0.782-0.119,1.598-0.119,2.494c0.016,1.563,0.064,2.503,0.157,3.056l0.113,0.671l0.666,0.142
			c0.574,0.121,1.255,0.178,2.143,0.178c0.818,0,1.346-0.023,1.716-0.08c-0.013,0.14-0.024,0.279-0.036,0.419l-0.08,0.935
			l0.928,0.14c0.303,0.045,0.604,0.089,0.922,0.12l0.959,0.094l0.129-0.955c0.084-0.625,0.169-1.25,0.249-1.883
			c0.266,0.021,0.552,0.03,0.865,0.03h0.713l0.232-0.674c0.034-0.1,0.063-0.211,0.09-0.352c-0.003,0.426-0.005,0.852-0.008,1.278
			l-0.604,0.028l-0.262,0.652c-0.079,0.239-0.079,0.463-0.079,0.644c0,0.245,0.023,0.565,0.204,0.881l0.252,0.438l0.502,0.057
			c0.236,0.027,0.602,0.063,1.038,0.063c0.271,0,0.54-0.013,0.825-0.026l0.875-0.042l0.122-0.875c0.096-1.13,0.146-2.665,0.146-4.44
			c0-1.21-0.029-2.606-0.086-4.15l-0.03-0.838l-0.831-0.115c-1.131-0.157-2.305-0.277-3.696-0.378L46.482,63.465L46.482,63.465z"/>
	</g>
	<g>
		<path d="M61.185,75.131c-3.419,0-3.692-0.061-3.795-0.083l-0.266-0.059l-0.096-0.255c-0.06-0.161-0.088-0.36-0.088-0.629
			c0-0.191,0.014-0.418,0.114-0.645l0.126-0.285l0.312-0.013c0.59-0.023,1.227-0.045,1.894-0.054c0-0.01-0.001-0.021-0.001-0.031
			c-0.542,0.023-1.073,0.032-1.588,0.032h-0.406l-0.083-0.397c-0.064-0.308-0.097-0.625-0.097-0.943v-0.152
			c-0.159,0.289-0.324,0.577-0.494,0.863l-0.188,0.315l-0.358-0.085c-0.461-0.11-0.831-0.32-1.099-0.625l-0.207-0.234l0.121-0.289
			c0.227-0.541,0.695-1.502,1.331-2.777c-0.021-0.001-0.51-0.031-0.51-0.031l-0.021-0.45c-0.038-0.886-0.057-1.925-0.057-3.268
			c0-0.354,0.015-0.781,0.059-1.281l0.038-0.44l0.441-0.017c1.258-0.047,2.625-0.071,4.062-0.071c1.328,0,2.569,0.034,3.688,0.101
			l0.45,0.026l0.021,0.451C64.535,64.9,64.56,66,64.56,67.072c0,0.445-0.036,0.897-0.106,1.345l-0.059,0.366l-0.366,0.051
			c-0.433,0.061-1.064,0.09-1.933,0.09c-0.237,0-0.47,0-0.697-0.001c0,0.098,0.003,0.193,0.006,0.286
			c0.617,0.024,1.257,0.055,1.919,0.086l0.711,0.034v0.477c0,0.298-0.031,0.6-0.096,0.924l-0.08,0.402h-0.182l0.026,0.259
			c0.03,0.287,0.06,0.588,0.06,0.906v0.45l-0.447,0.047c-0.605,0.064-1.244,0.127-1.877,0.164c-0.002,0.05-0.004,0.1-0.007,0.149
			c0.834,0.005,1.455,0.038,1.939,0.104l0.31,0.041l0.099,0.296c0.038,0.114,0.083,0.308,0.083,0.585c0,0.285-0.037,0.504-0.11,0.65
			l-0.091,0.183l-0.193,0.066C63.361,75.069,63.183,75.131,61.185,75.131z M57.386,71.294c0,0,1.398-0.113,1.976-0.158
			c0.001-0.036,0.001-0.072,0.001-0.108c-0.603-0.023-1.194-0.055-1.784-0.1C57.516,71.05,57.451,71.172,57.386,71.294z
			 M59.421,69.139c0.006-0.079,0.013-0.158,0.021-0.237c-0.394-0.008-0.771-0.017-1.134-0.028l0.199,0.118l-0.059,0.129
			L59.421,69.139z M62.406,66.971v-1.776h-0.409v0.396c0,0.417-0.074,0.803-0.215,1.115l-0.118,0.265H62.406z M58.637,66.971
			c-0.288-0.008-0.558-0.017-0.81-0.027v0.027H58.637z"/>
		<path fill="#FFFFFF" d="M60.33,63.727c1.467,0,2.691,0.042,3.658,0.1c0.044,1.012,0.071,2.094,0.071,3.246
			c0,0.47-0.042,0.896-0.101,1.267c-0.412,0.058-1.038,0.085-1.863,0.085c-2.264,0-4.199-0.042-5.809-0.142
			c-0.042-0.955-0.057-2.035-0.057-3.246c0-0.342,0.015-0.755,0.057-1.238C57.398,63.756,58.749,63.727,60.33,63.727 M61.326,66.502
			c-1.666,0-3.003-0.027-3.999-0.084v1.053h5.579v-2.776h-5.579v0.826c1.266,0.015,2.661,0.043,4.17,0.07
			C61.497,65.933,61.44,66.247,61.326,66.502 M56.886,68.766c0.342,0.101,0.668,0.242,0.981,0.428
			c-0.07,0.156-0.142,0.298-0.2,0.412c0.713,0.015,1.453,0.029,2.235,0.042c0-0.255,0.015-0.498,0.043-0.753
			c0.143-0.028,0.299-0.058,0.47-0.058c0.186,0,0.343,0.029,0.483,0.058c0,0.284,0.015,0.54,0.029,0.797
			c0.826,0.029,1.695,0.071,2.606,0.114c0,0.27-0.029,0.541-0.086,0.826c-0.84,0-1.666-0.015-2.491-0.044
			c0,0.342,0.015,0.67,0.015,0.955c0.739-0.029,1.48-0.073,2.234-0.101c0.028,0.271,0.057,0.555,0.057,0.854
			c-0.796,0.084-1.565,0.156-2.306,0.184c-0.015,0.413-0.029,0.784-0.059,1.126c0.086,0,0.186,0,0.286,0
			c0.882,0,1.579,0.027,2.12,0.1c0.028,0.085,0.058,0.228,0.058,0.427c0,0.229-0.029,0.37-0.058,0.427
			c-0.127,0.044-0.838,0.071-2.12,0.071c-2.25,0-3.488-0.027-3.688-0.071c-0.042-0.112-0.057-0.271-0.057-0.454
			c0-0.172,0.015-0.314,0.071-0.442c0.739-0.029,1.552-0.057,2.405-0.057c-0.028-0.342-0.042-0.684-0.042-1.055
			c-0.713,0.044-1.409,0.059-2.078,0.059c-0.057-0.271-0.086-0.557-0.086-0.841c0.697-0.057,1.409-0.114,2.149-0.171
			c0-0.341,0-0.697,0.015-1.053c-0.884-0.029-1.737-0.071-2.591-0.143c-0.342,0.683-0.685,1.296-0.997,1.821
			c-0.356-0.085-0.641-0.242-0.84-0.469C55.674,71.215,56.16,70.219,56.886,68.766 M60.33,62.727c-1.443,0-2.816,0.024-4.081,0.072
			l-0.882,0.033l-0.076,0.879c-0.04,0.462-0.061,0.907-0.061,1.325c0,1.351,0.019,2.396,0.058,3.29l0.04,0.898l0.206,0.013
			c-0.47,0.951-0.82,1.681-1.009,2.132l-0.242,0.577l0.413,0.47c0.338,0.384,0.795,0.646,1.359,0.781l0.516,0.123
			c-0.115,0.292-0.131,0.571-0.131,0.785c0,0.33,0.038,0.585,0.12,0.805l0.19,0.509l0.53,0.117c0.15,0.033,0.43,0.095,3.903,0.095
			c2.082,0,2.276-0.067,2.447-0.126l0.385-0.134l0.183-0.364c0.109-0.22,0.163-0.506,0.163-0.874c0-0.272-0.038-0.529-0.108-0.743
			l-0.062-0.186l0.071-0.007v-0.9c0-0.231-0.014-0.45-0.033-0.665h0.04l0.159-0.806c0.071-0.355,0.105-0.689,0.105-1.021v-0.537
			l0.297-0.042l0.115-0.731c0.075-0.473,0.113-0.952,0.113-1.423c0-1.079-0.024-2.187-0.072-3.289l-0.039-0.901l-0.9-0.054
			C62.919,62.761,61.668,62.727,60.33,62.727L60.33,62.727z"/>
	</g>
	<g>
		<path d="M77.439,74.847c-1.575-0.062-2.999-0.287-4.352-0.689l-0.399-0.119c0,0,0.078-0.709,0.096-0.855l-0.158,0.142
			c-0.475,0.425-1.312,0.844-2.56,1.28l-0.346,0.121l-0.22-0.293c-0.218-0.291-0.362-0.618-0.432-0.973l-0.061-0.304l0.247-0.188
			c0.775-0.595,1.624-1.047,2.522-1.345l0.321-0.106l0.218,0.259c0.315,0.372,0.475,0.769,0.475,1.177v0.165
			c0.163-1.341,0.391-2.685,0.679-4.001l0.083-0.384l-0.265-0.021l0.042-0.5c0.032-0.39,0.079-0.701,0.144-0.951l0.104-0.403
			l0.415,0.029c1.835,0.13,3.786,0.274,5.621,0.456l0.451,0.045v0.453c0,1.549-0.133,2.927-0.396,4.095l-0.088,0.391h-0.4
			c-0.901,0-1.756-0.096-2.537-0.284l-0.383-0.093v-0.394c0-0.235,0.012-0.512,0.097-0.769l0.113-0.343h0.361
			c0.357,0,0.729,0.012,1.11,0.034c0.016-0.503,0.03-0.985,0.036-1.44c-1.046-0.062-2.135-0.133-3.267-0.216
			c0.1,0.017,0.195,0.034,0.285,0.053l0.468,0.098c0,0-0.528,3.194-0.608,3.683c0.986,0.166,1.904,0.301,2.792,0.412l0.438,0.055
			v0.441c0,0.306-0.05,0.612-0.152,0.935l-0.115,0.363L77.439,74.847z M71.225,71.288c-0.374,0-0.759-0.03-1.145-0.091
			c-0.363-0.027-0.751-0.09-1.114-0.181l-0.378-0.096v-0.39c0-0.334,0.037-0.659,0.113-0.994l0.095-0.421l0.431,0.032
			c0.92,0.07,1.609,0.147,2.234,0.249l0.515,0.083l-0.104,0.511c-0.024,0.118-0.036,0.236-0.048,0.354
			c-0.035,0.274-0.083,0.453-0.114,0.567l-0.102,0.368L71.225,71.288z M71.994,69.189c-0.869-0.256-1.688-0.613-2.437-1.062
			l-0.338-0.203l0.119-0.376c0.115-0.367,0.241-0.685,0.385-0.971l0.209-0.416l0.431,0.179c0.32,0.134,0.644,0.272,0.969,0.417
			l-0.079-0.295c-0.066-0.252-0.128-0.504-0.179-0.756c-0.632-0.023-2.054-0.084-2.054-0.084l-0.133-0.257
			c-0.072-0.141-0.1-0.326-0.1-0.686c0-0.24,0.035-0.444,0.106-0.625l0.125-0.315c0,0,1.614,0.011,1.748,0.012
			c-0.013-0.139-0.022-0.282-0.029-0.431l-0.019-0.438l0.432-0.076c0.352-0.062,0.706-0.093,1.083-0.093h0.429
			c0,0,0.134,0.853,0.167,1.058c0.955,0.012,1.908,0.024,2.855,0.044c0.049-0.255,0.108-0.522,0.18-0.798l0.09-0.345l0.354-0.028
			c0.198-0.017,0.376-0.03,0.58-0.03c0.321,0.038,0.491,0.076,0.594,0.108l0.376,0.12l-0.028,0.393
			c-0.017,0.218-0.036,0.431-0.058,0.639l2.093,0.082v0.895c0,0.272-0.041,0.473-0.075,0.593l-0.103,0.363h-2.188
			c-0.045,0.229-0.186,0.926-0.186,0.926l-0.223,0.107c-0.159,0.077-0.356,0.105-0.729,0.105c-0.278,0-0.515-0.044-0.705-0.13
			l-0.317-0.144c0,0,0.053-0.707,0.069-0.881c-0.81-0.003-1.569-0.012-2.278-0.026l0.116,0.894l-0.474,0.081
			c-0.362,0.063-0.702,0.094-1.039,0.094h-0.235c0.388,0.174,0.776,0.355,1.165,0.543l0.367,0.177l-0.099,0.395
			c-0.079,0.315-0.191,0.633-0.343,0.969l-0.18,0.396L71.994,69.189z"/>
		<path fill="#FFFFFF" d="M76.89,63.114c0.214,0.028,0.356,0.058,0.442,0.085c-0.029,0.399-0.071,0.784-0.115,1.153
			c0.728,0.029,1.438,0.058,2.149,0.085v0.413c0,0.2-0.027,0.356-0.056,0.456c-0.784,0-1.524,0-2.222,0
			c-0.07,0.369-0.142,0.727-0.214,1.083c-0.085,0.041-0.255,0.056-0.511,0.056c-0.2,0-0.371-0.027-0.498-0.085
			c0.027-0.37,0.056-0.727,0.112-1.068c-1.253,0-2.391-0.015-3.416-0.041c0.043,0.34,0.085,0.669,0.128,0.996
			c-0.327,0.057-0.64,0.086-0.954,0.086c-0.099-0.371-0.184-0.742-0.242-1.111c-0.782-0.029-1.508-0.057-2.162-0.086
			c-0.029-0.057-0.044-0.212-0.044-0.456c0-0.142,0.015-0.298,0.071-0.44c0.669,0,1.324,0.015,1.979,0.015
			c-0.057-0.314-0.086-0.642-0.1-0.955c0.314-0.056,0.642-0.085,0.996-0.085c0.058,0.371,0.114,0.713,0.171,1.053
			c1.238,0.015,2.477,0.029,3.702,0.059c0.057-0.398,0.143-0.798,0.242-1.183C76.52,63.129,76.691,63.114,76.89,63.114
			 M70.171,66.802c0.683,0.284,1.452,0.626,2.278,1.024c-0.071,0.285-0.172,0.57-0.313,0.884c-0.825-0.243-1.608-0.584-2.32-1.012
			C69.914,67.386,70.028,67.086,70.171,66.802 M73.959,67.386c2.005,0.142,3.871,0.283,5.607,0.455c0,1.509-0.128,2.848-0.384,3.985
			c-0.84,0-1.651-0.085-2.42-0.271c0-0.242,0.015-0.44,0.071-0.611c0.54,0,1.081,0.027,1.594,0.071
			c0.027-0.882,0.057-1.708,0.057-2.448c-1.466-0.086-3.019-0.186-4.655-0.314C73.858,67.898,73.9,67.612,73.959,67.386
			 M73.959,69.223c0.354,0.042,0.668,0.085,0.938,0.142c-0.198,1.224-0.412,2.462-0.611,3.7c1.067,0.186,2.164,0.356,3.303,0.499
			c0,0.256-0.043,0.513-0.129,0.783c-1.48-0.058-2.89-0.271-4.229-0.669C73.39,72.225,73.63,70.729,73.959,69.223 M69.188,69.647
			c0.77,0.059,1.495,0.13,2.192,0.243c-0.029,0.143-0.043,0.284-0.058,0.427c-0.027,0.214-0.071,0.371-0.099,0.471
			c-0.356,0-0.712-0.029-1.067-0.085c-0.371-0.029-0.728-0.086-1.069-0.172C69.088,70.246,69.117,69.962,69.188,69.647
			 M71.936,72.098c0.229,0.271,0.356,0.555,0.356,0.854c-0.412,0.369-1.21,0.768-2.391,1.181c-0.171-0.229-0.286-0.484-0.342-0.769
			C70.285,72.809,71.082,72.381,71.936,72.098 M76.955,62.114H76.89c-0.219,0-0.409,0.015-0.597,0.029l-0.709,0.058l-0.202,0.69
			c-0.037,0.143-0.07,0.28-0.102,0.416c-0.672-0.013-1.348-0.022-2.023-0.031c-0.012-0.07-0.022-0.143-0.034-0.216l-0.132-0.847
			h-0.856c-0.406,0-0.789,0.033-1.17,0.101l-0.863,0.152l0.034,0.778c-0.29-0.003-0.582-0.006-0.876-0.006h-0.679L68.43,63.87
			c-0.096,0.24-0.142,0.505-0.142,0.81c0,0.379,0.026,0.665,0.155,0.915l0.266,0.514l0.578,0.026
			c0.032,0.001,0.064,0.003,0.098,0.004l-0.107,0.215c-0.156,0.31-0.292,0.651-0.416,1.044l-0.237,0.752l0.677,0.406
			c0.063,0.038,0.127,0.075,0.192,0.112c-0.075-0.006-0.151-0.012-0.229-0.018l-0.86-0.065l-0.191,0.842
			c-0.084,0.372-0.125,0.733-0.125,1.104v0.779l0.756,0.19c0.379,0.096,0.781,0.161,1.196,0.196c0.075,0.011,0.149,0.021,0.225,0.03
			c-0.456,0.241-0.895,0.522-1.313,0.843l-0.492,0.377l0.119,0.609c0.084,0.429,0.26,0.824,0.522,1.175l0.439,0.587l0.691-0.241
			c0.793-0.278,1.433-0.553,1.931-0.83l-0.017,0.151l0.8,0.237c1.374,0.409,2.879,0.648,4.475,0.71l0.762,0.03l0.23-0.727
			c0.118-0.372,0.176-0.728,0.176-1.086v-0.751c0.196,0.009,0.395,0.014,0.595,0.014h0.8l0.176-0.78
			c0.271-1.204,0.408-2.619,0.408-4.205v-0.906l-0.901-0.089c-0.601-0.06-1.212-0.115-1.828-0.167l0.019-0.091
			c0.019-0.094,0.037-0.188,0.057-0.281h1.398h0.756l0.206-0.727c0.043-0.15,0.094-0.399,0.094-0.729v-0.413v-0.962l-0.962-0.037
			l-1.084-0.043c0.003-0.041,0.006-0.082,0.009-0.123l0.058-0.787l-0.752-0.239c-0.154-0.049-0.35-0.088-0.614-0.123L76.955,62.114
			L76.955,62.114z M73.715,66.366l-0.012-0.092c0.38,0.006,0.769,0.011,1.166,0.014l-0.012,0.159
			c-0.278-0.021-0.555-0.04-0.828-0.059L73.715,66.366L73.715,66.366z M75.433,72.243c0.054-0.323,0.107-0.646,0.161-0.968
			c0.098-0.586,0.195-1.17,0.29-1.751l0.019-0.117c0.502,0.034,1.022,0.067,1.569,0.102c-0.003,0.146-0.007,0.295-0.012,0.446
			c-0.213-0.007-0.422-0.011-0.626-0.011h-0.722l-0.228,0.686c-0.107,0.324-0.122,0.65-0.122,0.926v0.74
			C75.653,72.278,75.544,72.261,75.433,72.243L75.433,72.243z M72.688,69.915l0.19-0.422c-0.121,0.591-0.231,1.186-0.329,1.782
			l-0.287-0.34l-0.046,0.016c0.031-0.123,0.071-0.295,0.099-0.507c0.016-0.149,0.024-0.251,0.045-0.353l0.053-0.258L72.688,69.915
			L72.688,69.915z"/>
	</g>
	<g>
		<path d="M84.803,73.317c-0.442-0.07-0.805-0.195-1.108-0.381l-0.299-0.184l0.069-0.343c0.409-2.004,1.111-4.352,2.086-6.979
			l0.136-0.366l0.389,0.043c0.439,0.05,0.842,0.183,1.197,0.396l0.343,0.205l-0.125,0.38c-0.303,0.923-0.96,3.045-2.131,6.881
			l-0.127,0.416L84.803,73.317z M91.3,73.096c-1.255,0-1.673-0.114-1.896-0.215l-0.296-0.132v-0.324c0-1.966,0.07-3.901,0.214-5.916
			l0.025-0.349l0.337-0.096c0.15-0.043,0.368-0.062,0.705-0.062c0.138,0,0.342,0.03,0.597,0.082l0.427,0.086l-0.026,0.435
			c-0.102,1.669-0.156,3.159-0.167,4.536h1.262v-0.922l0.453-0.043c0.217-0.021,0.336-0.031,0.445-0.031
			c0.161,0,0.325,0.016,0.47,0.032l0.379,0.044l0.058,0.377c0.052,0.337,0.077,0.627,0.077,0.887c0,0.482-0.029,0.841-0.087,1.065
			l-0.076,0.296l-0.3,0.067C93.348,73.036,92.497,73.096,91.3,73.096z"/>
		<path fill="#FFFFFF" d="M86.02,65.605c0.384,0.043,0.711,0.156,0.996,0.327c-0.327,0.997-1.039,3.303-2.135,6.891
			c-0.356-0.057-0.669-0.156-0.926-0.313C84.354,70.559,85.037,68.253,86.02,65.605 M90.389,66.502c0.115,0,0.285,0.029,0.498,0.072
			c-0.112,1.85-0.17,3.53-0.17,5.066h2.264v-0.967c0.156-0.015,0.283-0.029,0.398-0.029c0.142,0,0.285,0.015,0.412,0.029
			c0.044,0.285,0.071,0.555,0.071,0.811c0,0.456-0.027,0.77-0.071,0.94c-0.513,0.114-1.338,0.171-2.491,0.171
			c-0.882,0-1.437-0.057-1.692-0.171c0-1.937,0.07-3.887,0.213-5.88C89.92,66.517,90.105,66.502,90.389,66.502 M85.354,64.524
			l-0.271,0.733c-0.983,2.65-1.692,5.023-2.106,7.052l-0.141,0.687l0.598,0.366c0.361,0.222,0.783,0.368,1.291,0.448l0.859,0.137
			l0.254-0.832c1.171-3.832,1.827-5.951,2.129-6.871l0.249-0.759l-0.686-0.41c-0.417-0.251-0.888-0.406-1.398-0.464L85.354,64.524
			L85.354,64.524z M90.389,65.502c-0.391,0-0.642,0.024-0.842,0.081l-0.674,0.191l-0.05,0.699c-0.146,2.026-0.216,3.974-0.216,5.951
			v0.648l0.592,0.265c0.405,0.181,1.033,0.258,2.101,0.258c1.234,0,2.12-0.063,2.709-0.195l0.598-0.133l0.153-0.594
			c0.068-0.269,0.103-0.658,0.103-1.189c0-0.286-0.027-0.601-0.083-0.963l-0.116-0.754l-0.758-0.087
			c-0.162-0.019-0.346-0.036-0.526-0.036c-0.124,0-0.259,0.011-0.416,0.026l-0.076,0.007l-0.906,0.086v0.877h-0.256
			c0.019-1.228,0.072-2.548,0.16-4.006l0.053-0.868l-0.853-0.173C90.803,65.537,90.589,65.502,90.389,65.502L90.389,65.502z"/>
	</g>
</g>
<path d="M65.244,45.955c-1.022,0.384-2.255,0.568-3.722,0.229c-10.475-2.96-21.242,0.221-21.242,0.221s0.16,0.948,0.494,2.472
	c2.064,0.126,2.228,2.627,2.228,2.627s0.657,3.573,1.661,5.441c1.573,2.935,6.958,3.141,6.958,3.141
	c3.494,0.27,6.27-1.188,7.452-2.555c1.353-1.564,1.568-2.696,2.076-5.5c0.406-2.242,1.428-2.598,2.168-2.674v-0.001
	c0.745-0.013,2.066,0.212,2.741,2.375c0.849,2.721,1.404,3.803,2.94,5.188c1.342,1.211,4.309,2.313,7.743,1.617
	c0,0,5.334-0.867,6.538-3.973c0.766-1.976,0.988-5.605,0.988-5.605s-0.142-2.505,1.893-2.882c0.144-1.554,0.191-2.512,0.191-2.512
	S75.275,41.73,65.244,45.955z"/>
<ellipse transform="matrix(0.0805 0.9968 -0.9968 0.0805 86.1799 1.5786)" cx="42.234" cy="47.498" rx="0.376" ry="1.024"/>
<path fill="#FFFFFF" d="M59.491,53.752c0,0-0.614,2.062-2.266,3.335c-2.052,1.582-6.523,1.673-9.198,0.76
	c-2.675-0.914-3.37-3.668-3.67-7.714c-0.249-3.339,4.413-3.473,4.413-3.473s4.409-0.512,8.756,0.405
	C61.246,47.849,59.491,53.752,59.491,53.752z"/>
<path fill="#FFFFFF" d="M80.067,55.869c-2.543,1.234-6.992,1.693-9.223,0.374c-1.793-1.06-2.656-3.032-2.656-3.032
	s-2.467-5.642,1.128-6.877c4.203-1.442,8.641-1.476,8.641-1.476s4.643-0.438,4.806,2.904C82.961,51.815,82.61,54.635,80.067,55.869z
	"/>
<ellipse transform="matrix(0.0621 0.9981 -0.9981 0.0621 123.8504 -41.7879)" cx="84.159" cy="45.001" rx="0.48" ry="1.102"/>
<polygon fill="#F8B62D" stroke="#FFFFFF" stroke-miterlimit="10" points="83.423,37.083 85.468,40.656 89.573,40.996 86.806,44.046 
	87.75,48.053 83.994,46.364 80.476,48.5 80.921,44.407 77.802,41.721 81.832,40.88 "/>
</svg>
