<?xml version="1.0" encoding="utf-8"?>
<!-- Generator: Adobe Illustrator 16.0.0, SVG Export Plug-In . SVG Version: 6.00 Build 0)  -->
<!DOCTYPE svg PUBLIC "-//W3C//DTD SVG 1.1//EN" "http://www.w3.org/Graphics/SVG/1.1/DTD/svg11.dtd">
<svg version="1.1" id="Layer_1" xmlns="http://www.w3.org/2000/svg" xmlns:xlink="http://www.w3.org/1999/xlink" x="0px" y="0px"
	 width="126.876px" height="112.438px" viewBox="0 0 126.876 112.438" enable-background="new 0 0 126.876 112.438"
	 xml:space="preserve">
<rect fill="#FFFFFF" width="126.876" height="112.438"/>
<linearGradient id="SVGID_2_" gradientUnits="userSpaceOnUse" x1="67.0381" y1="36.0298" x2="67.1504" y2="36.0298">
	<stop  offset="0" style="stop-color:#187FC4"/>
	<stop  offset="1" style="stop-color:#4AB2BC"/>
	<stop  offset="1" style="stop-color:#187FC4;stop-opacity:0.4"/>
</linearGradient>
<path fill="url(#SVGID_2_)" stroke="#FFFFFF" stroke-linecap="round" stroke-miterlimit="10" d="M67.066,36.047
	c-0.055,0.266-0.034,0.105,0.084-0.17c-0.026,0.031-0.048,0.064-0.062,0.1C67.079,36.002,67.071,36.023,67.066,36.047"/>
<linearGradient id="SVGID_4_" gradientUnits="userSpaceOnUse" x1="55.082" y1="56.2183" x2="94.6338" y2="56.2183">
	<stop  offset="0" style="stop-color:#187FC4"/>
	<stop  offset="1" style="stop-color:#4AB2BC"/>
	<stop  offset="1" style="stop-color:#187FC4;stop-opacity:0.4"/>
</linearGradient>
<path fill="url(#SVGID_4_)" stroke="#FFFFFF" stroke-linecap="round" stroke-miterlimit="10" d="M94.62,56.801
	c0.211-1.602-2.092-3.414-2.074-3.711c0.017-0.297-0.376-1.219-0.376-1.219s0.358-0.461,0.18-0.512
	c-0.18-0.047-1.029-1.234-1.045-2.256c-0.018-1.023-1.485-3.875-1.943-5.242s-4.819-6.607-4.819-6.607
	c0.883-0.184,5.178-2.672,5.178-2.672c1.225-0.297,0.752-1.316,0.752-1.316c-0.066-0.084,0.098-0.662,0.098-0.662
	c0.344-0.873,0.393-7.086,0.408-7.498s-0.179-0.348-0.359-0.396c-0.18-0.049-0.146-1.17-0.1-1.879
	c0.051-0.707-0.291-0.824-0.291-0.824s-0.408,0.461-0.083-0.576c0.327-1.039-0.032-1.234-0.113-2.094
	c-0.081-0.855-2.745-1.055-2.745-1.055s-0.08-0.064-0.539-0.461c-0.456-0.395-0.864,0.543-0.946,0.592
	c-0.083,0.051-0.476,0.197-0.476,0.197c-0.455-0.344-0.718,0.117-0.815,0.199s-0.277-0.033-0.277-0.033s0.049-0.295-0.735-0.049
	c-0.197,0.062-0.273,0.334-0.276,0.705c-4.513-0.074-26.179,1.215-26.179,1.215c-1.246,0.098-1.74,1.842-1.777,1.891
	c-0.035,0.047-0.623,1.092,0.519,1.816c1.141,0.723,1.046-2.328,1.177-2.709c0.128-0.379,0.553-0.312,0.553-0.312
	c3.141-1.088,22.596-0.807,25.847-0.75c0.19,0.959,0.511,1.947,0.546,2.051c0.065,0.197-0.213,0.725-0.213,0.725
	c-0.375,0.182-0.131,0.99-0.131,0.99c0,0.117-0.276,0.988-0.276,0.988c-1.177,1.104-1.96,3.576-1.978,3.727
	c-0.016,0.146-0.063,0.838-0.423,1.037c-0.358,0.197-1.537,2.209-1.714,2.373c-0.183,0.164-0.917,0.428-1.308,0.346
	c-0.393-0.082-1.373,0.33-1.373,0.33c-0.048-0.264-0.768-1.68-0.768-1.68c0.245-1.09-0.932-2.406-0.932-2.406
	c-0.129-0.744-0.653-0.529-0.653-0.529c-0.064-0.297-1.207-1.334-1.207-1.334c-4.394-1.318-5.457,3.131-5.457,3.131
	c-0.473,0.395,0.98,2.701,0.98,2.701c-0.312-0.164-0.49,0.725-0.49,0.725c-0.374,0.133-0.342,0.709-0.342,0.709
	c0.017-0.197,0.653-0.262,0.653-0.262c-0.163,0.064,0.064,0.676,0.064,0.676c-0.652-0.02-1.021,0.607-1.189,0.998
	c0.386-0.463,1.86-0.422,1.86-0.422c-0.132,0.064-0.132,0.66-0.132,0.66c-0.016-0.23,0.556-0.643,0.556-0.643
	s0.474-0.166-0.066,0.428c-0.537,0.594,0.377,1.27,0.377,1.27c-0.147-0.133,0.063-0.807,0.063-0.807
	c-0.03,0.115,0.278,0.525,0.278,0.525s-0.195-0.66-0.048-0.66c0.146,0,0.751-0.477,0.751-0.477c0.343,0.445-0.098,2.324-0.098,2.324
	c0-0.215,0.604-1.055,0.604-1.055c0,1.797,1.538,2.293,1.538,2.293c-1.207,3.094,2.509,4.5,2.509,4.5
	c-0.249,0.398,1.001,0.953,0.771,1.084c-0.228,0.133,0.163,0.527,0.262,0.527c0.098,0,0.59,0.297,0.458,0.463
	c-0.133,0.164,0.456,0.426,0.456,0.426s-0.324,0.068,0.033,0.135c0.359,0.066,2.058,2.24,2.058,2.24
	c-0.1,0.297,0.687,1.318,0.687,1.318c-0.229,0.164-0.294,1.615,0.034,1.881c0.325,0.262,1.143,2.371,0.031,2.834
	c-1.11,0.459-0.98,7.777-0.98,7.777s1.079,0.43,0.522,0.693c-0.555,0.266-0.327,2.506-0.327,2.506
	c-1.208,3.297-0.294,4.68-0.294,4.68s0.099,0.725-0.718,1.09c-0.817,0.361-0.522,0.889-0.915,1.117
	c-0.393,0.232-3.952,6.033-5.683,7.123c-1.732,1.088-2.059,3.758-2.778,4.646c-0.718,0.891,0.458,1.186,0.458,1.352
	s0.098,1.484-0.914,2.801c-1.011,1.32-0.294,3.594-0.033,5.012s1.568,1.516,2.613,0.594c1.046-0.922,1.535-4.154,1.535-4.154
	s0.783-1.779,0.947-2.275c0.164-0.492,3.789-5.404,3.789-5.404c1.077-0.824,4.9-5.77,4.9-5.77c0.326-0.1,2.058-2.01,1.993-2.967
	c-0.054-0.773,1.457-5.047,1.843-6.453c0.108,0.979,0.966,3.158,0.966,3.158s0.261,0.428,0,1.418
	c-0.262,0.988,0.523,2.67,0.523,2.67c-0.229,0.164-0.392,1.35-0.295,3.162c0.099,1.814-2.547,12.299-2.319,12.197
	c0.228-0.1,0.751,0.297,0.751,0.297c-0.293,0.23-1.388,0.824-1.388,0.824c-0.359-0.197-1.143,0.297-1.143,0.297
	c-0.132-0.033-0.718-0.395-2.123,0.297s0.438,1.895,1.24,2.455s6.861,0.314,7.334,0.102c0.474-0.217,0.426-2.703,0.426-2.703
	l0.259-0.281c0,0,0.195,0.066,0.019-0.066c-0.181-0.133-0.114-1.945-0.114-1.945c0.31-0.543,2.301-10.186,2.301-10.186
	c0.818-2.801-0.08-4.797-0.292-5.01c-0.214-0.217-0.051-0.891-0.051-0.891c0.638-1.234,0.523-5.85,1.03-7.729
	c0.506-1.881,0.162-5.885,0.162-5.885S94.408,58.396,94.62,56.801 M86.525,22.84c0,0,0.425-1.031,0.399-0.803
	c-0.025,0.225,0.573,0.754,0.448,0.777c-0.124,0.025-0.151,0.756-0.151,0.756s0.8,0.627,0.375,0.83
	c-0.422,0.201,0.199,1.332-0.123,1.535c-0.324,0.199,0.099,1.182,0.099,1.182c-0.724,0.426-0.074,0.955-0.351,1.309
	c-0.271,0.352-0.696,2.588-0.771,2.588c-0.074,0,0.199,0.779-0.274,0.455c-0.474-0.328-1.694,0.428-1.694,0.428
	C86.5,29.078,86.525,22.84,86.525,22.84"/>
<linearGradient id="SVGID_6_" gradientUnits="userSpaceOnUse" x1="28.1357" y1="58.4121" x2="40.1035" y2="58.4121">
	<stop  offset="0" style="stop-color:#187FC4"/>
	<stop  offset="1" style="stop-color:#4AB2BC"/>
	<stop  offset="1" style="stop-color:#187FC4;stop-opacity:0.4"/>
</linearGradient>
<path fill="url(#SVGID_6_)" stroke="#FFFFFF" stroke-linecap="round" stroke-miterlimit="10" d="M39.79,70.527
	c-0.209,0.15-0.425,0.225-0.646,0.225h-2.438c-0.124,0-0.234-0.148-0.333-0.447c-0.098-0.299-0.16-0.498-0.185-0.598
	c-0.492,0.424-1.003,0.766-1.532,1.025c-0.53,0.262-1.128,0.391-1.792,0.391c-0.812,0-1.521-0.174-2.124-0.52
	c-0.604-0.35-1.097-0.803-1.478-1.361c-0.383-0.561-0.665-1.193-0.85-1.9c-0.186-0.709-0.276-1.436-0.276-2.182v-12.6
	c0-0.869,0.146-1.715,0.442-2.535s0.715-1.553,1.256-2.199c0.541-0.645,1.188-1.16,1.94-1.547c0.751-0.385,1.581-0.578,2.493-0.578
	c0.763,0,1.502,0.113,2.216,0.336c0.715,0.225,1.337,0.559,1.866,1.006c0.528,0.447,0.954,0.994,1.273,1.641s0.48,1.393,0.48,2.236
	v1.566c0,0.199-0.062,0.373-0.185,0.521c-0.124,0.148-0.283,0.225-0.48,0.225h-3.251c-0.345,0-0.541-0.193-0.591-0.578
	s-0.087-0.801-0.11-1.25c-0.024-0.445-0.111-0.863-0.259-1.248s-0.518-0.578-1.107-0.578c-0.494,0-0.85,0.205-1.072,0.615
	c-0.222,0.41-0.333,0.826-0.333,1.25V64.49c0,0.271,0.007,0.564,0.02,0.875c0.012,0.311,0.067,0.596,0.165,0.857
	c0.099,0.26,0.247,0.473,0.444,0.633c0.197,0.164,0.479,0.244,0.849,0.244c0.32,0,0.635-0.125,0.942-0.373s0.462-0.547,0.462-0.896
	v-3.354c0-0.273-0.08-0.459-0.239-0.561c-0.161-0.098-0.339-0.18-0.536-0.24c-0.198-0.062-0.376-0.137-0.535-0.225
	c-0.161-0.086-0.24-0.268-0.24-0.541v-2.459c0-0.199,0.074-0.373,0.222-0.523c0.147-0.148,0.319-0.223,0.517-0.223h4.581
	c0.196,0,0.369,0.074,0.517,0.223c0.148,0.15,0.222,0.324,0.222,0.523v11.48C40.104,70.18,39.999,70.379,39.79,70.527"/>
<g>
	<linearGradient id="SVGID_8_" gradientUnits="userSpaceOnUse" x1="42.1924" y1="58.4121" x2="53.6406" y2="58.4121">
		<stop  offset="0" style="stop-color:#187FC4"/>
		<stop  offset="1" style="stop-color:#4AB2BC"/>
		<stop  offset="1" style="stop-color:#187FC4;stop-opacity:0.4"/>
	</linearGradient>
	<path fill="url(#SVGID_8_)" d="M47.898,70.623c-0.87,0-1.733-0.152-2.564-0.453c-0.798-0.292-1.434-0.782-1.942-1.497
		c-0.796-1.104-1.199-2.348-1.199-3.701V51.891c0-1.767,0.507-3.126,1.551-4.156c1.03-1.018,2.429-1.534,4.155-1.534
		c0.845,0,1.638,0.134,2.357,0.399c0.714,0.265,1.302,0.635,1.795,1.131c0.49,0.496,0.882,1.1,1.165,1.793
		c0.282,0.692,0.425,1.489,0.425,2.366v13.082c0,0.877-0.143,1.674-0.425,2.366c-0.281,0.69-0.678,1.285-1.178,1.769
		c-0.501,0.483-1.108,0.86-1.802,1.12C49.536,70.49,48.75,70.623,47.898,70.623z M47.898,49.266c-0.949,0-1.386,0.435-1.584,0.8
		c-0.236,0.431-0.356,0.945-0.356,1.526v13.68c0,0.558,0.127,1.066,0.376,1.512c0.209,0.373,0.649,0.816,1.564,0.816
		c0.907,0,1.349-0.429,1.559-0.789c0.254-0.441,0.382-0.958,0.382-1.54v-13.68c0-0.578-0.12-1.091-0.358-1.527
		C49.281,49.7,48.846,49.266,47.898,49.266z"/>
	<path fill="#FFFFFF" d="M47.898,46.701c0.785,0,1.521,0.124,2.183,0.368c0.646,0.239,1.174,0.571,1.613,1.013
		c0.444,0.449,0.801,0.998,1.059,1.631c0.257,0.632,0.388,1.365,0.388,2.178v13.082c0,0.812-0.131,1.545-0.388,2.178
		c-0.255,0.625-0.612,1.163-1.061,1.596c-0.453,0.436-1.002,0.776-1.633,1.013c-0.644,0.241-1.37,0.364-2.161,0.364
		c-0.812,0-1.617-0.142-2.391-0.421c-0.702-0.257-1.261-0.688-1.713-1.324c-0.742-1.028-1.103-2.142-1.103-3.405V51.891
		c0-1.626,0.458-2.869,1.401-3.8C45.041,47.156,46.285,46.701,47.898,46.701 M47.898,68.1c1.205,0,1.765-0.649,1.994-1.042
		c0.296-0.515,0.446-1.116,0.446-1.786v-13.68c0-0.663-0.141-1.257-0.419-1.767c-0.217-0.396-0.767-1.06-2.021-1.06
		c-1.258,0-1.808,0.665-2.021,1.058c-0.278,0.507-0.419,1.102-0.419,1.768v13.68c0,0.644,0.148,1.235,0.44,1.756
		C46.122,67.428,46.681,68.1,47.898,68.1 M47.898,45.701c-1.872,0-3.375,0.561-4.507,1.678c-1.134,1.119-1.699,2.623-1.699,4.512
		v13.082c0,1.467,0.431,2.797,1.292,3.99c0.566,0.797,1.294,1.354,2.18,1.678c0.887,0.32,1.797,0.482,2.734,0.482
		c0.91,0,1.748-0.141,2.513-0.428c0.762-0.285,1.421-0.695,1.975-1.229c0.554-0.535,0.984-1.182,1.293-1.939
		s0.462-1.609,0.462-2.555V51.891c0-0.945-0.153-1.797-0.462-2.555s-0.732-1.41-1.273-1.957c-0.543-0.547-1.201-0.961-1.977-1.248
		C49.653,45.846,48.809,45.701,47.898,45.701L47.898,45.701z M47.898,67.1c-0.542,0-0.919-0.188-1.128-0.561
		s-0.312-0.795-0.312-1.268v-13.68c0-0.498,0.098-0.926,0.296-1.287c0.195-0.359,0.577-0.539,1.145-0.539
		c0.565,0,0.947,0.18,1.144,0.539c0.197,0.361,0.297,0.789,0.297,1.287v13.68c0,0.498-0.105,0.926-0.313,1.287
		C48.815,66.918,48.439,67.1,47.898,67.1L47.898,67.1z"/>
</g>
<linearGradient id="SVGID_10_" gradientUnits="userSpaceOnUse" x1="55.915" y1="58.3574" x2="65.667" y2="58.3574">
	<stop  offset="0" style="stop-color:#187FC4"/>
	<stop  offset="1" style="stop-color:#4AB2BC"/>
	<stop  offset="1" style="stop-color:#187FC4;stop-opacity:0.4"/>
</linearGradient>
<path fill="url(#SVGID_10_)" stroke="#FFFFFF" stroke-linecap="round" stroke-miterlimit="10" d="M65.462,70.51
	c-0.134,0.162-0.312,0.242-0.533,0.242h-8.275c-0.247,0-0.432-0.094-0.555-0.279c-0.124-0.188-0.184-0.393-0.184-0.615V46.932
	c0-0.248,0.085-0.473,0.258-0.67c0.171-0.199,0.381-0.299,0.628-0.299h2.881c0.246,0,0.443,0.086,0.591,0.26
	c0.148,0.176,0.223,0.373,0.223,0.598v18.861c0,0.697,0.319,1.045,0.96,1.045h3.474c0.245,0,0.43,0.08,0.554,0.242
	c0.122,0.162,0.185,0.354,0.185,0.576v2.387C65.667,70.154,65.599,70.348,65.462,70.51"/>
<linearGradient id="SVGID_12_" gradientUnits="userSpaceOnUse" x1="66.6641" y1="58.3574" x2="76.1943" y2="58.3574">
	<stop  offset="0" style="stop-color:#187FC4"/>
	<stop  offset="1" style="stop-color:#4AB2BC"/>
	<stop  offset="1" style="stop-color:#187FC4;stop-opacity:0.4"/>
</linearGradient>
<path fill="url(#SVGID_12_)" stroke="#FFFFFF" stroke-linecap="round" stroke-miterlimit="10" d="M76.009,49.877
	c-0.123,0.148-0.282,0.225-0.48,0.225h-3.25c-0.296,0-0.542,0.098-0.739,0.297s-0.295,0.447-0.295,0.746v3.652
	c0,0.299,0.08,0.547,0.24,0.746c0.159,0.199,0.399,0.299,0.721,0.299h2.807c0.197,0,0.37,0.062,0.517,0.186
	c0.149,0.125,0.223,0.287,0.223,0.484v2.684c0,0.225-0.08,0.404-0.239,0.541c-0.161,0.137-0.351,0.205-0.573,0.205h-2.956
	c-0.246,0-0.431,0.111-0.554,0.336c-0.123,0.223-0.185,0.436-0.185,0.633v9.17c0,0.201-0.062,0.361-0.185,0.484
	c-0.124,0.125-0.283,0.188-0.48,0.188h-3.177c-0.197,0-0.37-0.074-0.518-0.225c-0.147-0.148-0.221-0.322-0.221-0.521V46.783
	c0-0.225,0.092-0.416,0.277-0.578c0.184-0.16,0.388-0.242,0.608-0.242h7.832c0.222,0,0.412,0.068,0.573,0.205
	c0.159,0.137,0.239,0.316,0.239,0.539v2.648C76.194,49.555,76.133,49.729,76.009,49.877"/>
<linearGradient id="SVGID_14_" gradientUnits="userSpaceOnUse" x1="60.2832" y1="36.042" x2="73.1729" y2="36.042">
	<stop  offset="0" style="stop-color:#187FC4"/>
	<stop  offset="1" style="stop-color:#4AB2BC"/>
	<stop  offset="1" style="stop-color:#187FC4;stop-opacity:0.4"/>
</linearGradient>
<polygon fill="url(#SVGID_14_)" stroke="#FFFFFF" stroke-linecap="round" stroke-miterlimit="10" points="66.729,29.913 
	68.72,33.947 73.173,34.595 69.951,37.736 70.712,42.171 66.729,40.077 62.744,42.171 63.506,37.736 60.283,34.595 64.736,33.947 
	"/>
</svg>
