<?xml version="1.0" encoding="utf-8"?>
<!-- Generator: Adobe Illustrator 16.0.0, SVG Export Plug-In . SVG Version: 6.00 Build 0)  -->
<!DOCTYPE svg PUBLIC "-//W3C//DTD SVG 1.1//EN" "http://www.w3.org/Graphics/SVG/1.1/DTD/svg11.dtd">
<svg version="1.1" id="Layer_1" xmlns="http://www.w3.org/2000/svg" xmlns:xlink="http://www.w3.org/1999/xlink" x="0px" y="0px"
	 width="126.877px" height="112.438px" viewBox="0 0 126.877 112.438" enable-background="new 0 0 126.877 112.438"
	 xml:space="preserve">
<rect fill="#FFFFFF" width="126.877" height="112.438"/>
<g>
	<g>
		<path d="M54.147,37.732c0,0,1.408-0.77,2.158-0.201c0,0,0.695,0.475,1.263,0.531c0.568,0.055,2.214,0.4,1.188-0.295
			c0,0-0.476-0.199-0.823-0.256c0,0-0.42-0.549,0.312-0.494c0,0,1.48-0.055,1.792,0.055c0,0,0.349,0.111,0.641,0.238
			c0,0,1.207,0.129,0.549-0.273c0,0,0.604-0.439-0.165-0.623c0,0-0.64-0.109-0.988-0.201c-0.348-0.09-0.769-0.291-1.665-0.236
			c-0.896,0.053-1.811,0.092-2.377,0.127c0,0-1.208,0.166-1.776,0.293c-0.566,0.127-2.377,0.328-2.835,0.385
			c-0.458,0.055-2.562,0.311-3.531,0.822c-0.969,0.514-1.281,0.75-2.323,0.916c0,0-0.513,0.018-0.768-0.02
			c0,0-1.52-0.383-3.422,0.164c0,0-0.311-0.072-0.329-0.328s-0.146-0.896,0.128-1.08c0,0,1.812-0.896,1.922-2.086
			c0,0,1.774-0.018,1.518-1.793c0,0-0.109-0.713-0.732-0.896c0,0-0.054-1.262-1.152-0.914c0,0-2.927-2.178-4.793,0.256
			c0,0-0.201,0.311-0.201,0.568c0,0-0.201,0.439-0.348,0.549c-0.146,0.107-1.134,0.273-0.604,0.859c0,0,0,0.291-0.11,0.365
			c0,0-0.219,0.238-0.09,0.385c0,0-0.165,0.236-0.037,0.383c0,0,0.073,0.295,0,0.367c0,0-0.22,0.512,0.293,0.695
			c0,0,0.95-0.037,1.135,0.549c0.182,0.586,0.329,0.986,0.055,1.611c-0.275,0.621-0.494,1.168-0.732,1.242
			c-0.237,0.072-0.659,0.109-0.805,0.072c-0.146-0.035-1.189-0.932-2.085-1.188c-0.898-0.258-1.794-0.66-2.141-0.861
			c-0.349-0.201-1.154-0.859-1.482-1.078c-0.329-0.219-0.786-0.914-1.062-1.154c-0.274-0.238-0.842-0.986-1.994-1.5
			c-1.152-0.512-1.793-0.932-2.434-1.498c-0.64-0.568-1.226-1.502-2.396-1.355c-1.17,0.146-2.25-0.02-2.524-0.074
			c-0.274-0.053-1.208-0.346-1.152-0.182c0,0-1.738,0.129-1.078,0.439c0,0,1.151,0.018,1.298,0.109c0,0-1.062,1.244-1.062,1.447
			c0,0-0.128,0.326,0.403,0.107l0.311-0.311c0,0,0.33,0.037,0.457,0c0,0-0.182,0.477,0.66,0.311c0,0,0.805-0.256,1.243-0.311
			c0.44-0.055,1.171-0.092,1.61-0.328c0,0,0.312,0.018,0.714,0.42c0.401,0.402,1.867,2.012,2.178,2.287
			c0.31,0.273,1.609,1.883,2.358,2.213c0.751,0.328,1.135,0.678,1.556,1.043s1.593,1.463,2.269,1.811
			c0.677,0.348,1.574,1.045,1.922,1.373c0.348,0.33,0.53,0.402,0.53,0.914c0,0.514-0.384,2.672,0.237,3.953
			c0.623,1.281,1.445,3.092,1.72,3.512c0.274,0.422,0.439,0.859,0.531,1.391c0.091,0.531,0.035,2.672,0.108,3.514
			c0.074,0.84,0.44,4.48,0.586,5.396c0.147,0.914,0.329,4.115,0.184,4.646c-0.147,0.531-0.11,1.52-0.202,1.83
			s-0.804,1.354-1.08,1.756c-0.272,0.404-0.565,0.896-0.565,0.896s1.024,0.018,1.171,0.459c0.146,0.438,0.383,0.236,1.171,0.035
			c0.785-0.201,1.043-0.33,1.188,0.072s0.787,1.703,1.995,0.824c0,0,0.658-0.256,0.658-0.055c0,0-0.494,5.488-1.116,6.275
			c-0.621,0.787-1.537,2.928-1.683,3.678c-0.147,0.75-0.258,1.92-0.184,2.598c0.073,0.676,0.477,2.232,1.006,2.469
			c0,0,0.732,0.422,0.988-0.311c0.255-0.732,0.367-1.299,0.312-1.9c-0.057-0.604,0-2.07,0.494-2.326
			c0.493-0.254,1.609-1.262,0.896-2.141c-0.713-0.879-0.128-1.209,0.184-1.865c0.311-0.66,2.378-4.574,2.452-5.543
			c0.072-0.969,0.273-3.988,0.127-4.393c0,0,0.53-0.566,0.787-0.621c0.256-0.053,0.165-0.201,0.566-0.549
			c0.402-0.348,0.642-0.256,1.007-0.385c0.366-0.127,0.402-0.42,0.695-0.641c0.293-0.219,0.787-0.219,1.043-0.475
			c0.257-0.258,0.219-0.422,0.493-0.586s0.567-0.201,0.751-0.475s0.129-0.404,0.256-0.586c0.128-0.184,0.275-0.256,0.385-0.365
			c0.109-0.111,0.257-0.715,0.237-0.951c-0.019-0.238,0.074-0.184,0.366-0.459c0.292-0.273,0.512-0.219,0.329-0.785
			c-0.184-0.566-0.074-1.008,0.457-1.666c0.532-0.658,0.567-0.604,0.951-1.135c0.385-0.531,0.476-0.822,0.64-1.041
			c0.166-0.221,0.33-0.35,0.531-0.494c0.201-0.146,0.622-0.385,0.824-0.66c0.2-0.273,0.164-0.293,0.476-0.623
			c0.311-0.326,0.878-1.463,0.841-1.828s-0.146-0.328,0-0.75c0.146-0.42,0.349-1.043,0.366-1.262
			c0.019-0.221,0.091-0.787,0.293-1.355c0.201-0.566,0.328-1.096,0.328-1.096s0.915-0.404,1.336-0.404c0,0,2.727-0.275,3.897-1.408
			c0,0,2.801-1.902,4.445-2.029c0,0,1.189,0.236,1.977-0.184c0,0,1.812-1.117,2.415-1.336c0,0,2.635-1.92,2.305-2.617
			c0,0,0-1.115-1.427-0.822c0,0-1.463,0.512-2.671,1.281c-1.207,0.768-1.263,1.006-1.665,1.281
			c-0.402,0.273-1.079,0.346-1.702,0.623c-0.622,0.271-2.23,0.654-3.019,0.729c-0.786,0.072-4.556,0.695-5.873,1.336
			c-1.316,0.643-0.932,0.549-0.932,0.549s0.218-0.494-0.312-0.256s-1.975,0.988-2.304,1.189c-0.33,0.201-0.842,0.311-1.226,0.311
			c-0.386,0-1.246-0.127-1.685,0.074c-0.439,0.201-1.335,0.73-1.629,0.785c-0.291,0.057-1.371,0.275-1.92,0.332
			c-0.549,0.053-1.08-0.074-1.426,0.199c-0.35,0.275-0.824,0.33-1.19,0.201s-0.806-1.061-2.232-1.006s-1.153-0.311-1.117-0.969
			c0.038-0.658,0.385-2.836,0.312-3.275c0,0-0.312-1.08,0.934-1.373c0,0,2.689-0.857,3.183-1.098c0,0,0.476-0.365,1.299-0.402
			c0,0,2.013-0.273,3.146-0.805L54.147,37.732z"/>
	</g>
	<path d="M50.802,83.482c-1.651,1.275-2.862,1.914-3.631,1.914c-0.414,0-0.718-0.201-0.916-0.605
		c-0.197-0.404-0.295-0.838-0.295-1.309c0-0.9,0.38-2.252,1.139-4.055c0.761-1.801,1.488-2.701,2.183-2.701
		c0.357,0,0.661,0.703,0.916,2.111c0.252,1.406,0.511,2.43,0.773,3.068c1.276-1.352,3.125-3.604,5.546-6.756
		c3.041-3.998,5.059-6.186,6.053-6.561c0.338-0.131,0.686-0.197,1.042-0.197s0.652,0.076,0.887,0.227s0.352,0.338,0.352,0.562
		c0,0.318-0.271,0.506-0.816,0.562c-0.656,0.357-1.671,1.221-3.04,2.59c-1.37,1.332-2.468,2.582-3.293,3.744
		c-2.009,2.797-4.074,5.078-6.195,6.842c1.052,1.557,2.703,2.338,4.955,2.338c0.244,0,0.61-0.02,1.1-0.059
		c5.217-0.488,8.914-2.748,11.092-6.783c0.881-1.615,1.322-3.209,1.322-4.787c0-1.576-0.573-2.992-1.717-4.252
		c-0.92-1.031-1.919-1.67-2.998-1.914c-1.08-0.244-2.182-0.365-3.308-0.365c-2.892,0-5.557,0.666-7.996,1.998
		c-2.572,1.408-3.856,2.986-3.856,4.73c0,0.469,0.126,0.854,0.379,1.154c0.254,0.301,0.428,0.469,0.521,0.506H50.83
		c-0.488-0.094-0.92-0.336-1.295-0.73c-0.413-0.488-0.62-1.004-0.62-1.549c0-1.877,1.179-3.49,3.534-4.842
		c2.354-1.352,5.118-2.027,8.29-2.027c1.465,0,2.966,0.168,4.505,0.506s2.938,1.145,4.195,2.422
		c1.444,1.502,2.167,3.199,2.167,5.096c0,1.406-0.412,2.863-1.238,4.363c-1.426,2.59-3.557,4.486-6.391,5.688
		c-2.271,0.957-4.721,1.436-7.348,1.436C54.002,85.848,52.06,85.059,50.802,83.482 M46.972,83.369c0,0.584,0.114,1.088,0.339,1.521
		c0.808-0.357,1.783-1.098,2.928-2.225c-0.544-0.9-0.887-1.609-1.027-2.125s-0.239-1.197-0.296-2.041
		C47.621,80.357,46.972,81.98,46.972,83.369 M50.999,75.486c0.019,0,0.037-0.008,0.057-0.027c0,0.039-0.005,0.057-0.015,0.057
		C51.032,75.516,51.018,75.506,50.999,75.486"/>
	<path d="M81.584,68.918l0.394-0.086c0.208,0,0.404,0.086,0.592,0.254c0.188,0.17,0.281,0.301,0.281,0.395s-0.581,1-1.745,2.717
		c-1.163,1.717-1.745,2.914-1.745,3.59c0,0.057,0.009,0.111,0.027,0.168c0.095,0.434,0.301,0.648,0.62,0.648
		c0.976,0,2.76-1.615,5.35-4.842c0.056-0.076,0.122-0.113,0.196-0.113s0.112,0.07,0.112,0.211s-0.084,0.322-0.253,0.549
		c-2.403,3.211-4.232,4.814-5.49,4.814c-0.168,0-0.328-0.027-0.479-0.084c-0.826-0.32-1.238-0.939-1.238-1.859
		c0-0.318,0.037-0.637,0.112-0.957l-1.745,1.689c-1.107,0.977-1.91,1.463-2.407,1.463c-0.498,0-0.972-0.158-1.422-0.477
		c-0.506-0.375-0.76-0.873-0.76-1.494c0-1.369,0.957-3.006,2.872-4.912c1.913-1.904,3.668-2.855,5.264-2.855
		c0.619,0,1.032,0.215,1.239,0.646c0.056,0.15,0.103,0.275,0.141,0.381C81.538,68.867,81.565,68.918,81.584,68.918 M73.167,75.844
		c0,0.676,0.234,1.014,0.703,1.014c1.088,0,2.571-1.193,4.448-3.576l2.985-4.111c-0.151-0.262-0.396-0.393-0.732-0.393
		c-1.146,0-2.666,0.887-4.562,2.66S73.167,74.68,73.167,75.844"/>
	<path d="M88.34,68.439c0.507,0,0.761,0.197,0.761,0.592c0,0.111-0.028,0.225-0.085,0.338c-1.689,2.346-2.702,4.119-3.04,5.32
		c4.373-4.373,7.029-6.561,7.967-6.561c0.094-0.018,0.178-0.027,0.254-0.027c0.525,0,0.788,0.234,0.788,0.703
		c0,0.094-0.019,0.188-0.056,0.281c-0.038,0.094-0.413,0.602-1.127,1.521c-0.826,0.977-1.525,1.914-2.097,2.814
		c-0.573,0.9-0.859,1.652-0.859,2.252s0.132,0.9,0.395,0.9c0.825,0,2.262-1.135,4.308-3.404c0.037-0.039,0.103-0.123,0.197-0.256
		c0.281-0.336,0.45-0.506,0.506-0.506c0.057,0,0.085,0.094,0.085,0.281s-0.132,0.434-0.395,0.732
		c-2.327,2.646-3.979,3.969-4.955,3.969c-0.919,0-1.379-0.506-1.379-1.52s0.375-2.176,1.126-3.492l1.802-2.926
		c-1.276,0.938-2.412,1.965-3.406,3.082c-0.995,1.117-1.9,2.201-2.717,3.252s-1.291,1.576-1.422,1.576
		c-0.281,0-0.502-0.117-0.661-0.354c-0.16-0.232-0.239-0.523-0.239-0.871s0.122-0.812,0.365-1.395
		c0.243-0.58,0.554-1.283,0.929-2.111l-1.688,1.775c-0.413,0.412-0.671,0.619-0.774,0.619s-0.154-0.061-0.154-0.184
		c0-0.121,0.075-0.258,0.225-0.408c0.694-0.695,1.295-1.361,1.802-2c0.488-0.637,1.492-1.857,3.013-3.66
		C87.974,68.551,88.153,68.439,88.34,68.439"/>
	<path d="M97.293,77.701c-0.206,0-0.394-0.027-0.563-0.084c-1.201-0.338-1.802-1.014-1.802-2.027c0-1.314,0.826-2.834,2.478-4.561
		c1.652-1.727,3.135-2.59,4.448-2.59c0.432,0,0.783,0.115,1.057,0.352c0.272,0.234,0.408,0.553,0.408,0.957
		s-0.122,0.826-0.367,1.266c-0.243,0.441-0.609,0.664-1.098,0.664s-0.731-0.152-0.731-0.451c0-0.207,0.127-0.521,0.38-0.943
		s0.38-0.648,0.38-0.676c0-0.029-0.028-0.043-0.084-0.043c-0.526,0.057-1.244,0.434-2.154,1.127s-1.534,1.277-1.872,1.744
		l-1.098,1.605c-0.188,0.301-0.323,0.658-0.408,1.07s-0.127,0.723-0.127,0.93s0.117,0.441,0.352,0.703
		c0.235,0.264,0.567,0.395,1,0.395c0.938,0,2.102-0.551,3.491-1.646c1.388-1.098,2.458-2.145,3.21-3.139
		c0.093-0.113,0.204-0.17,0.337-0.17c0.131,0,0.197,0.037,0.197,0.111c0,0.076-0.047,0.17-0.141,0.281
		c-1.033,1.371-2.267,2.568-3.702,3.592C99.447,77.189,98.251,77.701,97.293,77.701"/>
	<path d="M104.556,77.701c-0.206,0-0.394-0.027-0.562-0.084c-1.201-0.338-1.802-1.014-1.802-2.027c0-1.314,0.826-2.834,2.478-4.561
		s3.134-2.59,4.447-2.59c0.433,0,0.784,0.115,1.057,0.352c0.271,0.234,0.408,0.52,0.408,0.857c0,1.053-0.794,2.057-2.379,3.014
		c-1.587,0.957-2.876,1.436-3.871,1.436c-0.15,0-0.281-0.02-0.394-0.057c-0.282,0.508-0.423,1.041-0.423,1.604
		c0,0.979,0.465,1.465,1.394,1.465s2.134-0.627,3.617-1.885c1.146-0.92,2.121-1.896,2.929-2.93c0.169-0.225,0.313-0.336,0.436-0.336
		s0.184,0.055,0.184,0.168s-0.074,0.271-0.225,0.479c-1.015,1.332-2.234,2.516-3.661,3.547
		C106.761,77.186,105.551,77.701,104.556,77.701 M109.878,69.594c0-0.225-0.239-0.338-0.719-0.338c-0.479,0-1.158,0.365-2.042,1.098
		c-1.182,0.975-2.102,2-2.758,3.068c0.113,0.039,0.234,0.057,0.366,0.057c0.713,0,1.666-0.381,2.857-1.141s1.938-1.59,2.237-2.492
		C109.858,69.752,109.878,69.668,109.878,69.594"/>
</g>
</svg>
