<?xml version="1.0" encoding="UTF-8" standalone="no"?>
<svg width="120px" height="120px" viewBox="0 0 120 120" version="1.1" xmlns="http://www.w3.org/2000/svg" xmlns:xlink="http://www.w3.org/1999/xlink" xmlns:sketch="http://www.bohemiancoding.com/sketch/ns">
    <!-- Generator: Sketch 3.3.2 (12043) - http://www.bohemiancoding.com/sketch -->
    <title>Mobile Portrait Copy 6</title>
    <desc>Created with Sketch.</desc>
    <defs></defs>
    <g id="food" stroke="none" stroke-width="1" fill="none" fill-rule="evenodd" sketch:type="MSPage">
        <g id="Mobile-Portrait-Copy-6" sketch:type="MSArtboardGroup">
            <g id="Imported-Layers" sketch:type="MSLayerGroup" transform="translate(10.000000, 24.000000)">
                <path d="M13.746,43.956 C13.473,43.956 13.222,43.934 12.993,43.912 L12.587,43.873 L12.544,43.467 C12.42,42.296 12.339,40.826 12.302,39.086 C11.194,40.079 10.006,41.078 8.695,42.118 L8.306,42.428 L7.995,42.039 C7.716,41.691 7.474,41.25 7.257,40.69 L7.135,40.377 L7.379,40.147 C8.986,38.621 10.628,37.218 12.264,35.971 L12.264,34.372 C11.26,34.327 10.172,34.243 8.888,34.11 L8.439,34.065 L8.439,33.613 C8.439,32.959 8.501,32.452 8.632,32.017 L8.739,31.661 L9.11,31.661 C10.181,31.661 11.234,31.693 12.286,31.729 C12.296,30.736 12.333,29.915 12.394,29.334 L12.432,28.977 L12.782,28.898 C12.968,28.857 13.252,28.802 13.575,28.802 C13.866,28.802 14.127,28.854 14.336,28.897 L14.728,28.976 L14.792,31.843 C15.928,31.919 17.061,32 18.196,32.113 L18.646,32.158 L18.646,32.61 C18.646,33.072 18.611,33.548 18.535,34.107 L18.476,34.54 L18.04,34.54 C16.82,34.54 15.792,34.52 14.851,34.481 C14.864,35.4 14.878,36.34 14.889,37.293 C15.009,36.986 15.139,36.723 15.287,36.486 L15.508,36.135 L15.893,36.286 C16.972,36.709 18.117,37.225 19.395,37.863 L19.784,38.058 L19.645,38.47 C19.482,38.957 19.292,39.375 19.062,39.747 L18.869,40.062 L18.51,39.969 C17.041,39.585 15.861,39.073 14.901,38.407 C14.918,40.029 14.93,41.69 14.93,43.37 L14.93,43.757 L14.555,43.854 C14.294,43.922 14.021,43.956 13.746,43.956 L13.746,43.956 Z M4.32,41.394 L4.241,40.99 C3.938,39.458 3.7,37.904 3.53,36.361 C3.199,36.465 2.864,36.552 2.529,36.623 L2.276,36.677 L2.086,36.501 C1.739,36.18 1.495,35.721 1.36,35.135 L1.279,34.783 L1.588,34.595 C3.07,33.694 4.766,32.972 6.771,32.387 L7.089,32.295 L7.299,32.551 C7.637,32.966 7.826,33.423 7.879,33.948 L7.908,34.246 L7.658,34.413 C7.064,34.81 6.494,35.142 5.927,35.42 C6.172,36.957 6.378,38.668 6.555,40.636 L6.59,41.025 L6.221,41.153 C5.748,41.317 5.274,41.394 4.731,41.394 L4.32,41.394 L4.32,41.394 Z" id="Fill-1" fill="#1A1918" sketch:type="MSShapeGroup"></path>
                <path d="M13.575,29.302 C13.809,29.302 14.024,29.344 14.237,29.387 C14.26,30.369 14.279,31.329 14.302,32.31 C15.582,32.397 16.863,32.482 18.146,32.61 C18.146,33.102 18.103,33.571 18.04,34.04 C16.779,34.04 15.541,34.019 14.344,33.955 C14.388,36.966 14.43,40.104 14.43,43.37 C14.26,43.414 14.024,43.456 13.746,43.456 C13.49,43.456 13.255,43.435 13.041,43.414 C12.892,42.004 12.806,40.19 12.784,37.969 C11.311,39.336 9.838,40.573 8.385,41.727 C8.128,41.406 7.914,41.001 7.723,40.509 C9.41,38.908 11.096,37.477 12.764,36.219 L12.764,33.891 C11.46,33.849 10.179,33.741 8.939,33.613 C8.939,33.079 8.981,32.589 9.11,32.161 C10.35,32.161 11.566,32.205 12.784,32.247 C12.784,30.924 12.828,29.984 12.892,29.387 C13.083,29.344 13.318,29.302 13.575,29.302 L13.575,29.302 Z M6.911,32.867 C7.189,33.208 7.339,33.571 7.381,33.997 C6.74,34.425 6.078,34.809 5.373,35.129 C5.672,36.923 5.886,38.779 6.056,40.681 C5.629,40.829 5.202,40.894 4.731,40.894 C4.391,39.165 4.135,37.435 3.963,35.685 C3.452,35.876 2.937,36.025 2.426,36.134 C2.147,35.876 1.956,35.492 1.848,35.022 C3.323,34.126 5.01,33.422 6.911,32.867 L6.911,32.867 Z M15.711,36.752 C16.908,37.222 18.06,37.756 19.172,38.31 C19.043,38.694 18.873,39.101 18.637,39.485 C17.249,39.122 16.096,38.63 15.178,37.99 C15.327,37.5 15.497,37.093 15.711,36.752 L15.711,36.752 Z M13.575,28.302 C13.202,28.302 12.881,28.364 12.673,28.411 L11.973,28.568 L11.897,29.281 C11.845,29.773 11.81,30.431 11.794,31.213 C10.913,31.185 10.015,31.161 9.11,31.161 L8.367,31.161 L8.153,31.873 C8.079,32.118 8.025,32.382 7.99,32.674 C7.903,32.522 7.802,32.377 7.685,32.234 L7.267,31.722 L6.631,31.907 C4.584,32.505 2.849,33.244 1.328,34.168 L0.711,34.543 L0.873,35.247 C1.031,35.933 1.325,36.477 1.746,36.867 L2.126,37.22 L2.633,37.112 C2.789,37.079 2.945,37.042 3.101,37.003 C3.266,38.366 3.483,39.735 3.75,41.087 L3.909,41.894 L4.731,41.894 C5.324,41.894 5.864,41.806 6.385,41.625 L7.02,41.404 C7.197,41.772 7.391,42.085 7.605,42.352 L8.227,43.129 L9.007,42.51 C10.014,41.711 10.949,40.935 11.831,40.168 C11.875,41.462 11.947,42.584 12.047,43.52 L12.133,44.332 L12.945,44.409 C13.201,44.434 13.455,44.456 13.746,44.456 C14.063,44.456 14.378,44.416 14.68,44.338 L15.43,44.144 L15.43,43.37 C15.43,42 15.422,40.644 15.41,39.31 C16.255,39.775 17.236,40.152 18.384,40.453 L19.1,40.641 L19.488,40.009 C19.737,39.603 19.944,39.152 20.12,38.629 L20.396,37.805 L19.618,37.416 C18.326,36.772 17.168,36.249 16.076,35.821 L15.366,35.543 C15.364,35.361 15.361,35.181 15.359,35 C16.162,35.027 17.037,35.04 18.04,35.04 L18.914,35.04 L19.031,34.174 C19.109,33.593 19.146,33.096 19.146,32.61 L19.146,31.705 L18.246,31.615 C17.256,31.517 16.26,31.442 15.281,31.375 L15.27,30.821 L15.237,29.364 L15.219,28.564 L14.435,28.406 C14.216,28.362 13.916,28.302 13.575,28.302 L13.575,28.302 Z M6.476,35.701 C6.955,35.45 7.437,35.161 7.936,34.829 L8.343,34.557 L8.837,34.608 C9.931,34.721 10.883,34.799 11.764,34.848 L11.764,35.724 C10.18,36.943 8.591,38.308 7.034,39.783 L6.981,39.833 C6.834,38.315 6.668,36.951 6.476,35.701 L6.476,35.701 Z" id="Fill-2" fill="#FFFFFF" sketch:type="MSShapeGroup"></path>
                <path d="M26.005,45.216 C25.875,45.216 25.752,45.21 25.632,45.203 C25.534,45.198 25.439,45.193 25.344,45.193 L24.925,45.193 L24.851,44.78 C24.599,43.351 24.48,41.478 24.48,38.887 C24.48,36.052 24.533,34.509 24.657,33.727 L24.709,33.401 L25.028,33.321 C25.234,33.269 25.464,33.221 25.749,33.221 C25.967,33.221 26.202,33.254 26.47,33.321 L26.83,33.412 L26.846,33.783 C26.945,36.009 27.014,38.293 27.05,40.61 C28.359,39.591 29.727,38.65 31.122,37.812 L31.122,37.317 C30.079,37.269 29.046,37.19 28.044,37.079 L27.599,37.03 L27.599,36.582 C27.599,36.076 27.652,35.617 27.764,35.179 L27.862,34.786 L31.149,34.909 C31.162,34.29 31.196,33.619 31.252,32.871 L31.281,32.492 L31.654,32.419 C31.895,32.371 32.139,32.323 32.413,32.323 C32.715,32.323 32.982,32.372 33.204,32.421 L33.43,32.47 L33.43,31.436 C33.43,31.197 33.464,30.94 33.53,30.673 L33.633,30.265 L34.053,30.296 C35.798,30.427 37.559,30.638 39.435,30.943 L39.844,31.01 L39.855,31.423 C39.929,34.127 39.961,36.033 39.961,37.606 C39.961,40.502 39.897,42.652 39.768,44.181 L39.73,44.616 L39.295,44.638 C38.819,44.662 38.404,44.683 38.008,44.683 C37.467,44.683 37.005,44.64 36.586,44.593 L36.315,44.563 L36.194,44.318 C36.075,44.079 36.015,43.81 36.015,43.52 C36.015,43.273 36.015,43.078 36.081,42.873 L36.188,42.545 C36.188,42.545 37.134,42.502 37.426,42.493 C37.432,41.595 37.437,40.698 37.442,39.803 L37.427,39.842 C37.33,40.083 37.209,40.325 37.089,40.519 C36.982,40.733 36.829,40.962 36.656,41.159 L36.444,41.4 L36.137,41.309 C35.235,41.038 34.408,40.617 33.676,40.057 C33.658,41.087 33.632,42.106 33.598,43.11 L33.585,43.457 L33.256,43.567 C33.068,43.63 32.802,43.657 32.391,43.657 C31.925,43.657 31.74,43.594 31.632,43.539 L31.382,43.412 L31.359,43.133 C31.295,42.339 31.243,41.511 31.204,40.658 C30.308,41.303 29.399,41.911 28.49,42.473 L28.206,42.649 L27.934,42.453 C27.588,42.203 27.292,41.909 27.063,41.59 C27.076,42.605 27.082,43.627 27.082,44.651 L27.082,45.03 L26.718,45.133 C26.521,45.187 26.281,45.216 26.005,45.216 L26.005,45.216 Z M34.814,37.927 C35.577,38.308 36.384,38.743 37.213,39.223 L37.445,39.356 C37.457,37.269 37.466,35.19 37.467,33.118 C36.349,32.981 35.156,32.793 33.838,32.546 L33.435,32.471 L33.58,32.502 L33.596,32.887 C33.632,33.658 33.651,34.386 33.669,35.071 C34.633,35.145 35.597,35.223 36.563,35.314 L37.015,35.358 L37.015,35.812 C37.015,36.273 36.969,36.695 36.874,37.102 L36.783,37.487 L36.387,37.487 C35.394,37.487 34.511,37.469 33.702,37.43 C33.701,37.871 33.698,38.312 33.694,38.753 C33.842,38.493 34.018,38.255 34.225,38.033 L34.479,37.76 L34.814,37.927 L34.814,37.927 Z M29.937,31.693 C28.984,31.353 28.087,30.802 27.27,30.055 L27.031,29.836 L27.133,29.528 C27.314,28.98 27.618,28.479 28.036,28.04 L28.308,27.753 L28.649,27.951 C29.558,28.477 30.375,29.003 31.145,29.556 L31.452,29.776 L31.324,30.132 C31.225,30.405 31.099,30.657 30.948,30.882 C30.816,31.102 30.678,31.333 30.478,31.556 L30.254,31.807 L29.937,31.693 L29.937,31.693 Z" id="Fill-3" fill="#1A1918" sketch:type="MSShapeGroup"></path>
                <path d="M28.398,28.384 C29.208,28.852 30.021,29.364 30.853,29.962 C30.769,30.197 30.662,30.411 30.533,30.603 C30.404,30.817 30.278,31.029 30.105,31.223 C29.208,30.902 28.377,30.39 27.607,29.685 C27.777,29.173 28.056,28.745 28.398,28.384 L28.398,28.384 Z M34.016,30.795 C35.746,30.924 37.518,31.138 39.355,31.436 C39.419,33.785 39.461,35.834 39.461,37.606 C39.461,40.445 39.398,42.623 39.27,44.139 C38.842,44.16 38.415,44.183 38.008,44.183 C37.474,44.183 37.026,44.139 36.641,44.096 C36.557,43.925 36.514,43.733 36.514,43.52 C36.514,43.307 36.514,43.157 36.557,43.028 C37.026,43.007 37.474,42.986 37.923,42.986 C37.945,39.527 37.967,36.09 37.967,32.674 C36.641,32.524 35.297,32.31 33.93,32.055 L33.93,31.436 C33.93,31.265 33.951,31.052 34.016,30.795 L34.016,30.795 Z M32.413,32.823 C32.67,32.823 32.904,32.867 33.098,32.909 C33.139,33.849 33.159,34.724 33.182,35.535 C34.292,35.62 35.402,35.706 36.514,35.812 C36.514,36.239 36.472,36.624 36.387,36.987 C35.317,36.987 34.25,36.966 33.203,36.901 C33.203,39.25 33.159,41.321 33.098,43.093 C32.969,43.136 32.734,43.157 32.391,43.157 C32.135,43.157 31.942,43.136 31.857,43.093 C31.771,42.025 31.707,40.894 31.666,39.699 C30.555,40.531 29.401,41.321 28.227,42.048 C27.842,41.769 27.52,41.427 27.308,41.043 C28.675,39.976 30.105,38.993 31.622,38.097 L31.622,36.943 L31.622,36.838 C30.427,36.794 29.252,36.709 28.099,36.582 C28.099,36.154 28.14,35.727 28.248,35.301 C29.38,35.343 30.513,35.386 31.644,35.428 C31.644,34.617 31.686,33.763 31.751,32.909 C31.965,32.867 32.178,32.823 32.413,32.823 L32.413,32.823 Z M25.749,33.721 C25.963,33.721 26.177,33.763 26.347,33.806 C26.496,37.157 26.582,40.767 26.582,44.651 C26.433,44.693 26.239,44.716 26.005,44.716 C25.77,44.716 25.556,44.693 25.344,44.693 C25.087,43.242 24.98,41.321 24.98,38.887 C24.98,36.325 25.022,34.617 25.151,33.806 C25.321,33.763 25.515,33.721 25.749,33.721 L25.749,33.721 Z M34.591,38.374 C35.361,38.759 36.151,39.186 36.963,39.655 C36.877,39.869 36.77,40.083 36.664,40.254 C36.557,40.467 36.43,40.659 36.28,40.829 C35.425,40.573 34.613,40.168 33.866,39.57 C34.036,39.101 34.271,38.717 34.591,38.374 L34.591,38.374 Z M28.217,27.123 L27.673,27.695 C27.204,28.189 26.863,28.753 26.658,29.371 L26.454,29.986 L26.933,30.424 C27.799,31.216 28.753,31.802 29.769,32.164 L30.402,32.391 L30.851,31.889 C31.081,31.632 31.239,31.369 31.379,31.139 C31.537,30.902 31.682,30.613 31.794,30.302 L32.051,29.591 L31.437,29.149 C30.653,28.587 29.823,28.054 28.899,27.519 L28.217,27.123 L28.217,27.123 Z M33.25,29.735 L33.046,30.552 C32.969,30.858 32.93,31.156 32.93,31.436 L32.93,31.861 C32.771,31.839 32.599,31.823 32.413,31.823 C32.09,31.823 31.811,31.878 31.585,31.923 L30.838,32.069 L30.754,32.834 C30.712,33.391 30.682,33.906 30.664,34.391 L29.984,34.365 L28.285,34.302 L27.476,34.272 L27.383,34.641 C27.371,34.347 27.358,34.054 27.346,33.761 L27.312,33.019 L26.592,32.836 C26.285,32.759 26.009,32.721 25.749,32.721 C25.408,32.721 25.132,32.779 24.906,32.836 L24.267,32.998 L24.164,33.648 C24.033,34.469 23.98,35.986 23.98,38.887 C23.98,41.508 24.101,43.408 24.359,44.867 L24.505,45.693 L25.344,45.693 C25.431,45.693 25.518,45.698 25.606,45.703 C25.734,45.709 25.866,45.716 26.005,45.716 C26.327,45.716 26.612,45.682 26.852,45.614 L27.582,45.409 L27.582,44.651 C27.582,44.036 27.58,43.422 27.575,42.81 C27.598,42.826 27.62,42.843 27.642,42.858 L28.185,43.25 L28.754,42.898 C29.421,42.485 30.089,42.048 30.752,41.589 C30.783,42.13 30.819,42.658 30.86,43.173 L30.906,43.732 L31.406,43.985 C31.644,44.105 31.939,44.157 32.391,44.157 C32.864,44.157 33.17,44.123 33.414,44.041 L34.073,43.821 L34.098,43.128 C34.121,42.421 34.141,41.706 34.158,40.985 C34.729,41.324 35.344,41.593 35.994,41.787 L36.607,41.971 L36.932,41.602 C36.93,41.738 36.93,41.874 36.93,42.011 C36.791,42.017 36.652,42.022 36.511,42.029 L35.82,42.06 L35.605,42.719 C35.515,42.998 35.515,43.252 35.515,43.52 C35.515,43.889 35.593,44.231 35.746,44.541 L35.988,45.029 L36.53,45.09 C36.964,45.138 37.442,45.183 38.008,45.183 C38.412,45.183 38.836,45.162 39.261,45.141 L39.319,45.138 L40.191,45.094 L40.266,44.224 C40.397,42.681 40.461,40.517 40.461,37.606 C40.461,36.029 40.428,34.118 40.355,31.409 L40.333,30.582 L39.516,30.449 C37.625,30.142 35.85,29.929 34.09,29.798 L33.25,29.735 L33.25,29.735 Z M34.157,34.607 C34.144,34.126 34.129,33.625 34.107,33.104 C35.126,33.29 36.07,33.44 36.967,33.559 C36.966,33.989 36.965,34.42 36.964,34.851 L36.609,34.817 C35.791,34.738 34.975,34.672 34.157,34.607 L34.157,34.607 Z M27.533,39.615 C27.518,38.914 27.502,38.215 27.482,37.52 L27.989,37.576 C28.725,37.657 29.475,37.722 30.236,37.769 C29.318,38.345 28.414,38.962 27.533,39.615 L27.533,39.615 Z M36.95,38.497 C36.635,38.32 36.324,38.149 36.019,37.986 C36.139,37.987 36.263,37.987 36.387,37.987 L36.952,37.987 C36.951,38.156 36.951,38.326 36.95,38.497 L36.95,38.497 Z" id="Fill-4" fill="#FFFFFF" sketch:type="MSShapeGroup"></path>
                <path d="M72.592,43.561 L72.497,43.183 C72.413,42.845 72.376,42.459 72.376,41.93 L72.376,41.474 C72.376,41.474 73.542,41.367 73.817,41.338 C73.727,40.04 73.632,38.753 73.538,37.478 L73.35,34.915 C70.061,34.911 69.331,34.869 69.059,34.785 L68.824,34.714 L68.737,34.484 C68.654,34.265 68.619,34.008 68.619,33.624 C68.619,33.395 68.636,33.093 68.761,32.777 L68.883,32.474 L69.21,32.463 C70.428,32.425 71.748,32.404 73.17,32.385 L72.922,29.159 L73.338,29.06 C73.713,28.972 74.159,28.906 74.714,28.837 L75.202,28.775 L75.271,29.263 C75.429,30.36 75.576,31.392 75.693,32.388 C76.624,32.415 77.307,32.46 77.87,32.53 L78.183,32.569 L78.282,32.867 C78.333,33.018 78.394,33.279 78.394,33.667 C78.394,34.058 78.348,34.349 78.256,34.531 L78.168,34.706 L77.985,34.775 C77.885,34.813 77.661,34.897 75.971,34.913 C76.223,37.399 76.387,39.947 76.473,42.683 L76.482,43.003 L76.195,43.145 C75.618,43.434 74.627,43.561 72.982,43.561 L72.592,43.561 L72.592,43.561 Z M64.058,41.17 C63.072,41.17 62.201,41.105 61.395,40.972 L61.027,40.911 L60.979,40.543 C60.85,39.541 60.783,38.276 60.783,36.784 C60.783,34.944 60.805,33.287 60.848,31.859 L60.859,31.481 L61.226,31.39 C61.55,31.308 61.807,31.268 62.01,31.268 C62.196,31.268 62.409,31.289 62.62,31.312 L63.049,31.36 L63.062,31.75 C63.068,31.723 63.186,31.246 63.186,31.246 L63.618,31.291 C64.883,31.42 66.083,31.548 67.24,31.697 L67.655,31.751 L67.675,32.17 C67.763,34.024 67.825,35.414 67.825,36.4 C67.825,37.271 67.805,38.036 67.765,38.693 L67.855,38.539 C68.065,38.179 68.301,37.8 68.591,37.462 L68.837,37.175 L69.18,37.335 C70.127,37.774 71.061,38.372 71.957,39.11 L72.258,39.358 L72.09,39.711 C71.867,40.179 71.57,40.557 71.183,40.868 L70.935,41.067 L70.65,40.928 C69.637,40.432 68.757,39.856 67.961,39.17 L67.745,38.984 C67.697,39.64 67.627,40.176 67.535,40.588 L67.466,40.895 L67.158,40.966 C66.559,41.103 65.545,41.17 64.058,41.17 L64.058,41.17 Z M63.255,38.891 C63.434,38.902 63.69,38.91 64.058,38.91 C64.345,38.91 64.982,38.91 65.393,38.877 C65.425,38.048 65.456,36.391 65.459,33.843 L65.02,33.779 C64.477,33.701 63.951,33.626 63.444,33.542 L63.124,33.489 C63.141,33.962 63.158,34.424 63.175,34.875 C63.735,34.928 64.281,34.981 64.827,35.051 L65.264,35.106 L65.264,35.547 C65.264,35.904 65.186,36.321 65.102,36.718 L65.018,37.114 L64.613,37.114 C64.088,37.114 63.641,37.099 63.225,37.065 C63.238,37.7 63.251,38.31 63.255,38.891 L63.255,38.891 Z" id="Fill-5" fill="#1A1918" sketch:type="MSShapeGroup"></path>
                <path d="M74.776,29.333 C74.947,30.528 75.119,31.724 75.246,32.877 C76.271,32.899 77.125,32.941 77.809,33.026 C77.851,33.154 77.893,33.368 77.893,33.667 C77.893,34.009 77.851,34.222 77.809,34.308 C77.638,34.372 76.826,34.415 75.418,34.415 C75.715,37.211 75.887,39.966 75.973,42.698 C75.459,42.954 74.477,43.061 72.982,43.061 C72.897,42.72 72.876,42.335 72.876,41.93 C73.346,41.887 73.838,41.845 74.348,41.78 C74.179,39.282 73.986,36.826 73.815,34.415 C71.019,34.415 69.481,34.393 69.205,34.308 C69.141,34.137 69.119,33.923 69.119,33.624 C69.119,33.39 69.141,33.176 69.225,32.963 C70.592,32.92 72.087,32.899 73.709,32.877 C73.623,31.768 73.538,30.656 73.453,29.547 C73.815,29.461 74.264,29.397 74.776,29.333 L74.776,29.333 Z M62.01,31.768 C62.18,31.768 62.373,31.788 62.564,31.81 C62.607,33.049 62.649,34.222 62.692,35.333 C63.396,35.397 64.08,35.46 64.764,35.547 C64.764,35.845 64.699,36.207 64.613,36.614 C63.974,36.614 63.354,36.592 62.713,36.507 C62.734,37.51 62.757,38.45 62.757,39.324 C62.971,39.389 63.418,39.41 64.058,39.41 C65.019,39.41 65.617,39.389 65.874,39.304 C65.916,38.62 65.959,36.656 65.959,33.41 C65.105,33.283 64.294,33.176 63.525,33.049 C63.482,32.791 63.482,32.578 63.482,32.43 C63.482,32.258 63.504,32.044 63.567,31.788 C64.827,31.917 66.023,32.044 67.176,32.193 C67.262,34.009 67.325,35.418 67.325,36.4 C67.325,38.364 67.219,39.709 67.047,40.478 C66.492,40.605 65.489,40.67 64.058,40.67 C63.098,40.67 62.244,40.605 61.475,40.478 C61.348,39.496 61.283,38.257 61.283,36.784 C61.283,34.948 61.305,33.304 61.348,31.874 C61.603,31.81 61.839,31.768 62.01,31.768 L62.01,31.768 Z M68.97,37.788 C69.888,38.215 70.783,38.791 71.639,39.496 C71.445,39.901 71.189,40.222 70.87,40.478 C69.908,40.008 69.055,39.453 68.287,38.791 C68.499,38.429 68.713,38.087 68.97,37.788 L68.97,37.788 Z M75.627,28.218 L74.651,28.341 C74.081,28.412 73.619,28.479 73.223,28.574 L72.39,28.772 L72.456,29.623 L72.486,30.014 L72.631,31.892 C71.404,31.91 70.256,31.93 69.194,31.963 L68.539,31.984 L68.297,32.592 C68.261,32.684 68.231,32.773 68.208,32.86 C68.197,32.63 68.186,32.393 68.175,32.147 L68.135,31.31 L67.305,31.201 C66.199,31.059 65.052,30.935 63.669,30.793 L62.805,30.705 L62.775,30.827 L62.676,30.815 C62.449,30.79 62.228,30.768 62.01,30.768 C61.766,30.768 61.469,30.813 61.103,30.904 L60.371,31.089 L60.348,31.844 C60.305,33.277 60.283,34.939 60.283,36.784 C60.283,38.298 60.35,39.585 60.484,40.607 L60.58,41.344 L61.313,41.465 C62.146,41.602 63.045,41.67 64.058,41.67 C65.583,41.67 66.633,41.599 67.269,41.453 L67.885,41.312 L68.023,40.696 C68.07,40.484 68.112,40.241 68.148,39.969 C68.84,40.502 69.591,40.966 70.431,41.377 L71.002,41.656 L71.497,41.258 C71.937,40.903 72.289,40.455 72.541,39.927 L72.878,39.222 L72.274,38.725 C71.347,37.959 70.376,37.339 69.391,36.881 L68.705,36.562 L68.322,37.008 C68.324,36.811 68.325,36.608 68.325,36.4 C68.325,35.928 68.311,35.366 68.287,34.707 L68.442,35.119 L68.911,35.264 C69.219,35.357 69.742,35.406 72.885,35.414 C72.935,36.111 72.986,36.811 73.039,37.516 C73.121,38.631 73.205,39.755 73.284,40.889 C73.177,40.898 73.07,40.908 72.965,40.917 L72.785,40.934 L71.876,41.017 L71.876,41.93 C71.876,42.315 71.891,42.818 72.012,43.303 L72.2,44.061 L72.982,44.061 C74.732,44.061 75.76,43.922 76.418,43.594 L76.992,43.308 L76.973,42.667 C76.893,40.118 76.744,37.731 76.522,35.404 C77.808,35.377 78.015,35.299 78.161,35.243 L78.527,35.105 L78.703,34.755 C78.75,34.66 78.893,34.374 78.893,33.667 C78.893,33.307 78.846,32.975 78.757,32.708 L78.557,32.111 L77.932,32.034 C77.444,31.974 76.873,31.932 76.139,31.903 C76.029,31.031 75.902,30.144 75.779,29.278 L75.766,29.191 L75.627,28.218 L75.627,28.218 Z M63.658,34.419 C63.654,34.307 63.65,34.194 63.646,34.081 C64.068,34.147 64.503,34.21 64.949,34.274 L64.958,34.275 C64.958,34.373 64.957,34.469 64.957,34.564 L64.89,34.555 C64.477,34.502 64.07,34.459 63.658,34.419 L63.658,34.419 Z M63.75,38.408 C63.746,38.143 63.742,37.873 63.736,37.597 C64.008,37.608 64.297,37.614 64.613,37.614 L64.927,37.614 C64.921,37.913 64.915,38.175 64.909,38.4 C64.695,38.406 64.418,38.41 64.058,38.41 C63.943,38.41 63.842,38.409 63.75,38.408 L63.75,38.408 Z" id="Fill-6" fill="#FFFFFF" sketch:type="MSShapeGroup"></path>
                <path d="M86.693,45.297 C86.074,45.141 85.588,44.902 85.206,44.568 L84.946,44.341 L85.068,44.017 C85.514,42.829 86.018,41.703 86.566,40.67 L86.759,40.307 L87.152,40.426 C87.57,40.552 88.065,40.708 88.563,40.911 L89,41.089 L88.849,41.535 C88.48,42.616 87.975,43.733 87.254,45.052 L87.068,45.392 L86.693,45.297 L86.693,45.297 Z M93.884,45.205 C92.639,45.205 91.825,45.114 91.397,44.928 L91.098,44.797 L91.098,44.47 C91.098,43.162 91.147,41.946 91.25,40.755 L91.284,40.359 L91.677,40.303 C91.839,40.279 92.122,40.255 92.495,40.255 C92.658,40.255 92.872,40.286 93.12,40.325 L93.718,40.419 L93.676,40.886 C93.618,41.525 93.585,42.184 93.575,42.924 L94.727,42.924 L94.727,41.941 L95.36,41.885 C95.533,41.869 95.678,41.856 95.783,41.856 C96.038,41.856 96.267,41.88 96.476,41.902 L96.876,41.944 L96.921,42.344 C96.969,42.775 97.009,43.142 97.009,43.488 C97.009,44.032 96.956,44.382 96.912,44.579 L96.847,44.867 L96.563,44.95 C95.982,45.119 95.081,45.205 93.884,45.205 L93.884,45.205 Z M83.695,38.689 C83.634,38.242 83.605,37.739 83.605,37.104 L83.605,36.627 L84.083,36.605 C85.519,36.54 87.031,36.463 88.608,36.382 L89.572,36.332 C89.508,35.264 89.475,34.133 89.475,32.963 C89.475,31.498 89.52,29.945 89.605,28.346 L89.626,27.956 L90.008,27.882 C90.246,27.835 90.534,27.787 90.873,27.787 C91.212,27.787 91.5,27.835 91.738,27.882 L92.12,27.957 L92.141,28.346 C92.228,29.998 92.269,31.46 92.269,32.814 C92.269,33.931 92.232,35.051 92.157,36.224 C93.953,36.165 98.14,36.038 98.14,36.038 L98.249,36.407 C98.334,36.693 98.375,36.978 98.375,37.274 C98.375,37.689 98.352,37.987 98.329,38.17 L98.277,38.579 L97.866,38.606 C93.436,38.904 88.837,39.077 84.195,39.12 L83.755,39.124 L83.695,38.689 L83.695,38.689 Z M86.266,34.636 C85.051,34.542 84.019,34.192 83.114,33.565 L82.847,33.38 L82.908,33.06 C82.998,32.596 83.152,32.149 83.38,31.693 L83.54,31.371 L83.897,31.422 C84.889,31.563 85.948,31.916 87.043,32.475 L87.396,32.655 L87.301,33.041 C87.183,33.517 86.991,33.973 86.731,34.397 L86.572,34.658 L86.266,34.636 L86.266,34.636 Z M94.664,34.124 C94.334,33.702 94.07,33.225 93.902,32.743 L93.771,32.37 L94.104,32.157 C94.969,31.602 95.871,31.175 96.785,30.884 L97.136,30.772 L97.346,31.074 C97.693,31.57 97.918,32.017 98.055,32.478 L98.152,32.807 L97.883,33.016 C97.052,33.662 96.136,34.097 95.162,34.306 L94.856,34.371 L94.664,34.124 L94.664,34.124 Z" id="Fill-7" fill="#1A1918" sketch:type="MSShapeGroup"></path>
                <path d="M90.873,28.287 C91.172,28.287 91.428,28.33 91.642,28.372 C91.726,29.994 91.77,31.469 91.77,32.814 C91.77,34.266 91.705,35.589 91.62,36.741 C93.585,36.677 95.635,36.614 97.77,36.55 C97.833,36.764 97.875,36.998 97.875,37.274 C97.875,37.659 97.854,37.937 97.833,38.107 C93.391,38.406 88.844,38.577 84.19,38.62 C84.126,38.15 84.105,37.638 84.105,37.104 C85.984,37.019 87.99,36.913 90.104,36.806 C90.019,35.609 89.975,34.329 89.975,32.963 C89.975,31.489 90.019,29.952 90.104,28.372 C90.318,28.33 90.574,28.287 90.873,28.287 L90.873,28.287 Z M96.936,31.36 C97.235,31.788 97.449,32.193 97.576,32.621 C96.807,33.219 95.954,33.624 95.058,33.816 C94.758,33.433 94.523,33.005 94.374,32.578 C95.207,32.044 96.06,31.639 96.936,31.36 L96.936,31.36 Z M83.827,31.917 C84.724,32.044 85.727,32.365 86.815,32.92 C86.709,33.348 86.539,33.753 86.305,34.137 C85.193,34.052 84.232,33.731 83.399,33.154 C83.486,32.706 83.636,32.301 83.827,31.917 L83.827,31.917 Z M92.495,40.755 C92.667,40.755 92.901,40.798 93.178,40.841 C93.093,41.78 93.072,42.655 93.072,43.424 L95.228,43.424 L95.228,42.399 C95.463,42.379 95.655,42.356 95.783,42.356 C96.019,42.356 96.23,42.379 96.424,42.399 C96.467,42.784 96.509,43.147 96.509,43.488 C96.509,43.957 96.467,44.278 96.424,44.47 C95.911,44.619 95.058,44.705 93.884,44.705 C92.709,44.705 91.94,44.619 91.598,44.47 C91.598,43.253 91.642,42.036 91.748,40.798 C91.896,40.776 92.154,40.755 92.495,40.755 L92.495,40.755 Z M87.008,40.904 C87.435,41.033 87.905,41.183 88.375,41.374 C87.99,42.506 87.457,43.638 86.815,44.812 C86.305,44.684 85.877,44.491 85.536,44.192 C85.984,42.997 86.475,41.908 87.008,40.904 L87.008,40.904 Z M90.873,27.287 C90.491,27.287 90.173,27.34 89.912,27.391 L89.147,27.541 L89.105,28.318 C89.019,29.927 88.976,31.489 88.976,32.963 C88.976,33.961 88.999,34.931 89.046,35.858 L88.583,35.882 C87.007,35.963 85.496,36.041 84.06,36.105 L83.105,36.148 L83.105,37.104 C83.105,37.763 83.136,38.287 83.199,38.756 L83.319,39.628 L84.199,39.62 C88.852,39.577 93.461,39.404 97.9,39.105 L98.722,39.05 L98.825,38.232 C98.848,38.053 98.875,37.74 98.875,37.274 C98.875,36.928 98.827,36.598 98.728,36.266 L98.509,35.527 L97.739,35.55 C96,35.602 94.316,35.654 92.689,35.706 C92.743,34.72 92.769,33.766 92.769,32.814 C92.769,31.45 92.727,29.981 92.64,28.319 L92.599,27.541 L91.834,27.391 C91.573,27.34 91.255,27.287 90.873,27.287 L90.873,27.287 Z M97.335,30.185 L96.634,30.407 C95.678,30.711 94.735,31.158 93.834,31.736 L93.169,32.163 L93.43,32.908 C93.616,33.44 93.906,33.968 94.269,34.432 L94.655,34.926 L95.268,34.794 C96.315,34.569 97.299,34.103 98.189,33.41 L98.729,32.991 L98.535,32.337 C98.382,31.821 98.135,31.329 97.756,30.788 L97.335,30.185 L97.335,30.185 Z M83.254,30.826 L82.932,31.471 C82.684,31.968 82.515,32.456 82.418,32.964 L82.293,33.604 L82.83,33.977 C83.797,34.646 84.939,35.035 86.228,35.134 L86.839,35.181 L87.158,34.658 C87.444,34.189 87.655,33.686 87.786,33.161 L87.977,32.39 L87.27,32.029 C86.126,31.446 85.015,31.075 83.967,30.927 L83.254,30.826 L83.254,30.826 Z M86.51,39.71 L86.125,40.435 C85.565,41.487 85.053,42.634 84.6,43.841 L84.357,44.488 L84.877,44.944 C85.319,45.332 85.873,45.606 86.57,45.782 L87.322,45.972 L87.693,45.292 C88.428,43.947 88.945,42.805 89.322,41.696 L89.625,40.804 L88.752,40.448 C88.234,40.237 87.725,40.076 87.297,39.947 L86.51,39.71 L86.51,39.71 Z M92.495,39.755 C92.041,39.755 91.742,39.788 91.604,39.809 L90.819,39.922 L90.752,40.712 C90.648,41.918 90.598,43.147 90.598,44.47 L90.598,45.125 L91.198,45.387 C91.512,45.523 92.132,45.705 93.884,45.705 C95.128,45.705 96.077,45.612 96.703,45.43 L97.27,45.265 L97.399,44.689 C97.471,44.37 97.509,43.955 97.509,43.488 C97.509,43.103 97.467,42.728 97.422,42.331 L97.333,41.532 L96.529,41.405 C96.325,41.384 96.071,41.356 95.783,41.356 C95.666,41.356 95.506,41.369 95.313,41.388 L95.141,41.403 L94.227,41.482 L94.227,42.424 L94.086,42.424 C94.102,41.897 94.131,41.408 94.174,40.931 L94.258,39.997 L93.331,39.852 L93.199,39.832 C92.951,39.792 92.717,39.755 92.495,39.755 L92.495,39.755 Z" id="Fill-8" fill="#FFFFFF" sketch:type="MSShapeGroup"></path>
                <path d="M27.649,18.411 L49.08,25.319 L63.754,9.044 L27.424,16.239" id="Fill-9" fill="#00A3DB" sketch:type="MSShapeGroup"></path>
                <path d="M47.92,14.729 C48.423,16.916 47.058,19.097 44.87,19.6 C42.682,20.103 40.503,18.735 40,16.549 C39.497,14.362 40.862,12.182 43.051,11.679 C45.236,11.176 47.418,12.543 47.92,14.729" id="Fill-10" fill="#FFF101" sketch:type="MSShapeGroup"></path>
                <path d="M41.303,66.567 C40.721,66.567 40.189,66.203 39.981,65.659 C39.731,65.006 40.004,64.257 40.615,63.917 L54.708,56.124 L48.138,27.531 L18.842,15.266 C18.272,15.026 17.927,14.453 17.979,13.841 C18.032,13.227 18.472,12.722 19.071,12.584 L34.361,9.071 L28.494,3.877 C27.911,3.359 27.857,2.465 28.373,1.882 C28.642,1.579 29.027,1.406 29.432,1.406 C29.776,1.406 30.108,1.531 30.367,1.76 L37.746,8.294 L70.52,0.762 C70.625,0.738 70.731,0.726 70.838,0.726 C71.331,0.726 71.797,0.99 72.051,1.415 C72.367,1.944 72.306,2.611 71.897,3.074 L50.892,26.897 L57.464,55.49 L73.545,56.352 C74.244,56.389 74.817,56.943 74.877,57.641 C74.937,58.339 74.468,58.983 73.785,59.141 L41.618,66.532 C41.514,66.556 41.408,66.567 41.303,66.567 L41.303,66.567 Z M50.781,61.525 L63.355,58.637 L56.653,58.277 L50.781,61.525 L50.781,61.525 Z M48.965,24.81 L50.424,23.155 C50.317,23.181 50.207,23.194 50.096,23.194 C49.751,23.194 49.419,23.068 49.159,22.841 L46.566,20.545 C46.077,20.821 45.549,21.025 44.991,21.153 C44.558,21.253 44.114,21.304 43.673,21.304 C40.956,21.304 38.544,19.382 37.936,16.733 C37.897,16.567 37.866,16.399 37.843,16.23 L31.791,17.621 L48.965,24.81 L48.965,24.81 Z M51.032,20.723 C51.315,20.973 51.483,21.318 51.506,21.696 C51.511,21.776 51.509,21.856 51.5,21.935 L61.275,10.847 L49.278,13.603 C49.331,13.767 49.376,13.932 49.413,14.098 C49.77,15.648 49.483,17.263 48.629,18.594 L51.032,20.723 L51.032,20.723 Z M40.617,15.594 C40.628,15.763 40.652,15.932 40.691,16.099 C41.008,17.478 42.262,18.477 43.674,18.477 C43.903,18.477 44.134,18.451 44.358,18.399 C45.155,18.217 45.833,17.733 46.268,17.039 C46.702,16.346 46.841,15.525 46.658,14.729 C46.619,14.561 46.566,14.397 46.502,14.24 L40.617,15.594 L40.617,15.594 Z M27.319,15.75 L38.201,13.249 C38.275,13.06 38.36,12.876 38.455,12.695 L36.962,11.374 L23.988,14.355 L27.319,15.75 L27.319,15.75 Z M44.644,9.608 C45.759,9.798 46.812,10.309 47.654,11.077 L64.481,7.21 L66.871,4.502 L44.644,9.608 L44.644,9.608 Z" id="Fill-11" fill="#010604" sketch:type="MSShapeGroup"></path>
                <path d="M70.838,1.226 C71.154,1.226 71.454,1.392 71.622,1.672 C71.825,2.012 71.785,2.445 71.522,2.743 L50.348,26.759 L57.06,55.97 L73.519,56.851 C73.973,56.875 74.34,57.229 74.379,57.684 C74.418,58.137 74.118,58.551 73.673,58.653 L41.506,66.045 C41.438,66.06 41.369,66.067 41.303,66.067 C40.931,66.067 40.586,65.841 40.448,65.48 C40.285,65.055 40.461,64.575 40.858,64.354 L55.279,56.379 L48.567,27.169 L19.035,14.805 C18.669,14.65 18.443,14.278 18.477,13.884 C18.512,13.489 18.797,13.16 19.184,13.071 L35.42,9.341 L28.825,3.503 C28.448,3.168 28.412,2.593 28.748,2.213 C28.928,2.01 29.18,1.906 29.432,1.906 C29.646,1.906 29.863,1.981 30.037,2.135 L37.607,8.839 L70.633,1.249 C70.701,1.233 70.77,1.226 70.838,1.226 L70.838,1.226 Z M40.295,11.218 C40.912,10.721 41.646,10.353 42.467,10.164 C42.872,10.07 43.277,10.026 43.676,10.026 C45.132,10.026 46.506,10.621 47.503,11.625 L64.68,7.678 C64.705,7.673 64.726,7.668 64.748,7.664 L68.274,3.666 L39.287,10.326 L40.295,11.218 L40.295,11.218 Z M62.679,10.011 L48.608,13.244 C48.742,13.551 48.85,13.872 48.926,14.208 C49.298,15.826 48.896,17.443 47.964,18.673 L50.701,21.097 C51.078,21.431 51.113,22.009 50.777,22.386 C50.598,22.59 50.348,22.694 50.096,22.694 C49.881,22.694 49.664,22.618 49.489,22.465 L46.622,19.926 C46.104,20.266 45.518,20.519 44.88,20.666 C44.475,20.759 44.071,20.804 43.673,20.804 C41.22,20.804 38.995,19.113 38.424,16.622 C38.346,16.285 38.301,15.948 38.289,15.615 L30.164,17.481 L48.965,25.353 C49.001,25.339 49.039,25.328 49.08,25.319 C49.121,25.31 49.16,25.304 49.2,25.3 L62.679,10.011 L62.679,10.011 Z M27.291,16.28 C27.334,16.264 27.379,16.249 27.424,16.239 L38.576,13.676 C38.706,13.295 38.879,12.931 39.09,12.59 L37.1,10.829 L22.361,14.217 L27.291,16.28 L27.291,16.28 Z M40.943,13.132 L45.136,12.168 C44.684,11.964 44.186,11.853 43.674,11.853 C43.41,11.853 43.143,11.882 42.876,11.943 C42.09,12.125 41.423,12.555 40.943,13.132 L40.943,13.132 Z M43.674,18.978 C43.937,18.978 44.204,18.948 44.471,18.887 C46.386,18.446 47.586,16.532 47.145,14.617 C47.066,14.276 46.941,13.957 46.776,13.664 L40.118,15.195 C40.098,15.53 40.125,15.871 40.204,16.212 C40.582,17.859 42.053,18.978 43.674,18.978 L43.674,18.978 Z M47.428,62.809 L66.934,58.327 L56.537,57.77 L47.428,62.809 L47.428,62.809 Z M70.838,0.226 C70.693,0.226 70.549,0.242 70.408,0.274 L37.885,7.749 L30.7,1.386 C30.348,1.076 29.898,0.906 29.432,0.906 C28.884,0.906 28.362,1.141 28,1.55 C27.301,2.34 27.374,3.551 28.161,4.25 L33.302,8.802 L18.96,12.097 C18.147,12.283 17.553,12.967 17.481,13.798 C17.409,14.627 17.878,15.402 18.646,15.727 L47.708,27.894 L54.136,55.868 L40.375,63.479 C39.545,63.94 39.176,64.954 39.514,65.838 C39.796,66.573 40.515,67.067 41.303,67.067 C41.445,67.067 41.588,67.052 41.726,67.02 L73.896,59.628 C74.821,59.415 75.457,58.542 75.375,57.598 C75.294,56.653 74.518,55.902 73.572,55.852 L57.866,55.012 L51.437,27.035 L72.272,3.404 C72.825,2.778 72.908,1.875 72.48,1.159 C72.136,0.583 71.506,0.226 70.838,0.226 L70.838,0.226 Z M46.506,9.693 L65.467,5.337 L64.213,6.759 L47.791,10.533 C47.396,10.202 46.965,9.921 46.506,9.693 L46.506,9.693 Z M49.898,13.974 L59.873,11.682 L51.776,20.865 C51.672,20.673 51.533,20.498 51.364,20.349 L49.269,18.494 C50.024,17.126 50.255,15.527 49.9,13.984 C49.899,13.98 49.898,13.977 49.898,13.974 L49.898,13.974 Z M25.615,14.495 L36.823,11.919 L37.84,12.818 L37.84,12.819 L27.364,15.227 L25.615,14.495 L25.615,14.495 Z M41.177,15.978 L46.168,14.83 C46.17,14.834 46.17,14.839 46.172,14.844 C46.487,16.218 45.624,17.596 44.246,17.912 C44.059,17.955 43.865,17.977 43.674,17.977 C42.492,17.977 41.443,17.141 41.179,15.988 C41.178,15.984 41.178,15.981 41.177,15.978 L41.177,15.978 Z M33.419,17.76 L37.446,16.835 C37.447,16.839 37.449,16.844 37.449,16.848 C37.775,18.271 38.583,19.5 39.674,20.379 L33.419,17.76 L33.419,17.76 Z M43.673,21.804 C44.152,21.804 44.634,21.749 45.103,21.641 C45.59,21.529 46.055,21.364 46.494,21.148 L48.826,23.214 C48.998,23.364 49.191,23.481 49.398,23.563 L48.827,24.211 L42.986,21.766 C43.213,21.791 43.441,21.804 43.673,21.804 L43.673,21.804 Z M54.136,60.241 L56.769,58.784 L59.776,58.945 L54.136,60.241 L54.136,60.241 Z" id="Fill-12" fill="#FFFFFF" sketch:type="MSShapeGroup"></path>
            </g>
        </g>
    </g>
</svg>