<?xml version="1.0" encoding="UTF-8" standalone="no"?>
<svg width="120px" height="120px" viewBox="0 0 120 120" version="1.1" xmlns="http://www.w3.org/2000/svg" xmlns:xlink="http://www.w3.org/1999/xlink" xmlns:sketch="http://www.bohemiancoding.com/sketch/ns">
    <!-- Generator: Sketch 3.3.2 (12043) - http://www.bohemiancoding.com/sketch -->
    <title>Mobile Portrait Copy 8</title>
    <desc>Created with Sketch.</desc>
    <defs></defs>
    <g id="food" stroke="none" stroke-width="1" fill="none" fill-rule="evenodd" sketch:type="MSPage">
        <g id="Mobile-Portrait-Copy-8" sketch:type="MSArtboardGroup">
            <g id="Imported-Layers" sketch:type="MSLayerGroup" transform="translate(30.000000, 19.000000)">
                <path d="M31.024,13.775 C29.833,13.893 28.661,14.07 27.513,14.305 C27.386,14.111 27.264,13.918 27.163,13.725 C26.792,13.025 26.686,12.137 26.806,11.275 C27.717,11.721 28.744,11.904 29.847,11.766 C31.434,11.565 33.076,10.228 32.835,8.512 C32.577,6.686 30.033,6.137 28.556,6.441 C27.438,6.672 26.643,7.416 26.102,8.346 C26.011,8.227 25.921,8.106 25.832,7.984 C25.169,7.082 24.651,6.09 24.267,5.039 C23.772,3.688 23.999,2.981 25.151,2.23 C25.876,1.76 25.402,0.545 24.556,0.66 C19.824,1.303 23.227,7.645 24.8,9.625 C24.976,9.848 25.164,10.053 25.36,10.242 C25.317,10.422 25.277,10.6 25.247,10.773 C24.988,12.209 25.228,13.522 25.865,14.685 C10.051,18.758 -0.879,33.852 0.763,50.611 C2.58,69.141 16.538,73.709 35.066,71.893 C53.595,70.076 69.677,62.565 67.861,44.035 C66.046,25.508 49.554,11.959 31.024,13.775 M30.47,8.27 C31.32,8.557 31.217,9.147 30.633,9.617 C30.073,10.07 29.283,10.098 28.608,10.027 C28.132,9.977 27.727,9.816 27.369,9.588 C27.998,8.49 29.079,7.801 30.47,8.27" id="Fill-1" fill="#EC9C97" sketch:type="MSShapeGroup"></path>
                <path d="M31.024,13.775 C29.833,13.893 28.661,14.07 27.513,14.305 C27.386,14.111 27.264,13.918 27.163,13.725 C26.792,13.025 26.686,12.137 26.806,11.275 C27.717,11.721 28.744,11.904 29.847,11.766 C31.434,11.565 33.076,10.228 32.835,8.512 C32.577,6.686 30.033,6.137 28.556,6.441 C27.438,6.672 26.643,7.416 26.102,8.346 C26.011,8.227 25.921,8.106 25.832,7.984 C25.169,7.082 24.651,6.09 24.267,5.039 C23.772,3.688 23.999,2.981 25.151,2.23 C25.876,1.76 25.402,0.545 24.556,0.66 C19.824,1.303 23.227,7.645 24.8,9.625 C24.976,9.848 25.164,10.053 25.36,10.242 C25.317,10.422 25.277,10.6 25.247,10.773 C24.988,12.209 25.228,13.522 25.865,14.685 C10.051,18.758 -0.879,33.852 0.763,50.611 C2.58,69.141 16.538,73.709 35.066,71.893 C53.595,70.076 69.677,62.565 67.861,44.035 C66.046,25.508 49.554,11.959 31.024,13.775 L31.024,13.775 Z M30.47,8.27 C31.32,8.557 31.217,9.147 30.633,9.617 C30.073,10.07 29.283,10.098 28.608,10.027 C28.132,9.977 27.727,9.816 27.369,9.588 C27.998,8.49 29.079,7.801 30.47,8.27 L30.47,8.27 Z" id="Stroke-2" stroke="#D99493" stroke-width="2" sketch:type="MSShapeGroup"></path>
                <path d="M29.014,13.365 C29.755,13.615 29.664,14.127 29.158,14.537 C28.67,14.932 27.981,14.955 27.395,14.893 C26.98,14.85 26.629,14.711 26.317,14.512 C26.863,13.557 27.805,12.955 29.014,13.365" id="Fill-3" fill="#FFFFFF" sketch:type="MSShapeGroup"></path>
                <path d="M28.046,65.695 C27.824,63.637 26.327,62.215 24.484,61.494 C23.422,61.078 22.294,60.895 21.172,60.721 C20.504,60.613 19.809,60.422 19.143,60.459 C19.146,60.4 19.15,60.34 19.154,60.281 C19.176,59.764 18.348,59.594 18.156,60.07 C17.034,62.863 16.396,66.176 16.145,69.168 C15.926,71.772 15.906,74.359 17.349,76.633 C18.641,78.666 20.453,77.371 21.871,76.297 C22.227,76.029 23.021,75.613 22.829,75.334 C23.075,75.693 23.303,76.051 23.573,76.393 C24.046,76.986 24.72,77.859 25.517,78.025 C27.235,78.389 27.733,75.223 27.984,74.156 C28.628,71.438 28.344,68.44 28.046,65.695" id="Fill-4" fill="#FCE1CB" sketch:type="MSShapeGroup"></path>
                <path d="M28.046,65.695 C27.824,63.637 26.327,62.215 24.484,61.494 C23.422,61.078 22.294,60.895 21.172,60.721 C20.504,60.613 19.809,60.422 19.143,60.459 C19.146,60.4 19.15,60.34 19.154,60.281 C19.176,59.764 18.348,59.594 18.156,60.07 C17.034,62.863 16.396,66.176 16.145,69.168 C15.926,71.772 15.906,74.359 17.349,76.633 C18.641,78.666 20.453,77.371 21.871,76.297 C22.227,76.029 23.021,75.613 22.829,75.334 C23.075,75.693 23.303,76.051 23.573,76.393 C24.046,76.986 24.72,77.859 25.517,78.025 C27.235,78.389 27.733,75.223 27.984,74.156 C28.628,71.438 28.344,68.44 28.046,65.695 L28.046,65.695 Z" id="Stroke-5" stroke="#D9B095" stroke-width="2" sketch:type="MSShapeGroup"></path>
                <path d="M47.83,71.147 C48.284,72.143 49.387,75.15 51.002,74.465 C51.751,74.145 52.244,73.158 52.591,72.484 C52.793,72.096 52.944,71.701 53.117,71.303 C52.983,71.613 53.843,71.863 54.244,72.06 C55.845,72.838 57.872,73.758 58.744,71.512 C59.717,69 59.197,66.467 58.479,63.955 C57.649,61.068 56.381,57.943 54.738,55.42 C54.458,54.99 53.678,55.318 53.799,55.82 C53.814,55.879 53.831,55.935 53.844,55.994 C53.184,56.086 52.541,56.41 51.905,56.643 C50.839,57.033 49.768,57.432 48.807,58.045 C47.137,59.109 45.946,60.797 46.127,62.856 C46.37,65.607 46.671,68.606 47.83,71.147" id="Fill-6" fill="#FCE1CB" sketch:type="MSShapeGroup"></path>
                <path d="M47.83,71.147 C48.284,72.143 49.387,75.15 51.002,74.465 C51.751,74.145 52.244,73.158 52.591,72.484 C52.793,72.096 52.944,71.701 53.117,71.303 C52.983,71.613 53.843,71.863 54.244,72.06 C55.845,72.838 57.872,73.758 58.744,71.512 C59.717,69 59.197,66.467 58.479,63.955 C57.649,61.068 56.381,57.943 54.738,55.42 C54.458,54.99 53.678,55.318 53.799,55.82 C53.814,55.879 53.831,55.935 53.844,55.994 C53.184,56.086 52.541,56.41 51.905,56.643 C50.839,57.033 49.768,57.432 48.807,58.045 C47.137,59.109 45.946,60.797 46.127,62.856 C46.37,65.607 46.671,68.606 47.83,71.147 L47.83,71.147 Z" id="Stroke-7" stroke="#D9B095" stroke-width="2" sketch:type="MSShapeGroup"></path>
                <path d="M18.662,22.943 C17,20.621 14.877,18.543 12.02,17.947 C8.291,17.17 4.881,20.416 3.312,23.445 C-0.219,30.266 7.803,36.141 13.914,36.221 C14.544,36.229 14.872,35.727 14.895,35.197 C17.494,34.992 19.52,33.039 20.549,30.58 C21.667,27.91 21.412,24.379 18.662,22.943" id="Fill-8" fill="#FCE1CB" sketch:type="MSShapeGroup"></path>
                <path d="M18.662,22.943 C17,20.621 14.877,18.543 12.02,17.947 C8.291,17.17 4.881,20.416 3.312,23.445 C-0.219,30.266 7.803,36.141 13.914,36.221 C14.544,36.229 14.872,35.727 14.895,35.197 C17.494,34.992 19.52,33.039 20.549,30.58 C21.667,27.91 21.412,24.379 18.662,22.943 L18.662,22.943 Z" id="Stroke-9" stroke="#D9B095" stroke-width="2" sketch:type="MSShapeGroup"></path>
                <path d="M40.096,27.353 C41.766,29.434 44.253,30.75 46.807,30.227 C46.974,30.731 47.429,31.123 48.03,30.94 C53.883,29.176 59.969,21.311 54.689,15.732 C52.346,13.254 48.17,11.076 44.804,12.857 C42.222,14.219 40.755,16.803 39.8,19.492 C37.555,21.633 38.285,25.098 40.096,27.353" id="Fill-10" fill="#FCE1CB" sketch:type="MSShapeGroup"></path>
                <path d="M40.096,27.353 C41.766,29.434 44.253,30.75 46.807,30.227 C46.974,30.731 47.429,31.123 48.03,30.94 C53.883,29.176 59.969,21.311 54.689,15.732 C52.346,13.254 48.17,11.076 44.804,12.857 C42.222,14.219 40.755,16.803 39.8,19.492 C37.555,21.633 38.285,25.098 40.096,27.353 L40.096,27.353 Z" id="Stroke-11" stroke="#D9B095" stroke-width="2" sketch:type="MSShapeGroup"></path>
                <path d="M27.723,38.445 C27.833,39.588 27,40.603 25.857,40.715 C24.718,40.826 23.701,39.992 23.59,38.852 C23.478,37.709 24.311,36.695 25.453,36.584 C26.594,36.473 27.609,37.305 27.723,38.445" id="Fill-12" fill="#5F605F" sketch:type="MSShapeGroup"></path>
                <path d="M39.744,36.697 C39.855,37.838 39.021,38.856 37.881,38.967 C36.739,39.078 35.724,38.244 35.612,37.102 C35.5,35.961 36.334,34.945 37.476,34.834 C38.616,34.723 39.633,35.557 39.744,36.697" id="Fill-13" fill="#5F605F" sketch:type="MSShapeGroup"></path>
                <path d="M44.268,51.549 C44.824,57.238 39.888,59.545 34.2,60.102 C28.511,60.66 24.226,59.256 23.668,53.566 C23.111,47.879 27.27,42.816 32.959,42.258 C38.646,41.701 43.711,45.859 44.268,51.549" id="Fill-14" fill="#FCE1CB" sketch:type="MSShapeGroup"></path>
                <path d="M44.268,51.549 C44.824,57.238 39.888,59.545 34.2,60.102 C28.511,60.66 24.226,59.256 23.668,53.566 C23.111,47.879 27.27,42.816 32.959,42.258 C38.646,41.701 43.711,45.859 44.268,51.549 L44.268,51.549 Z" id="Stroke-15" stroke="#F7CAAB" stroke-width="5" sketch:type="MSShapeGroup"></path>
                <path d="M31.076,52.555 C31.174,53.553 30.446,54.438 29.449,54.535 C28.454,54.633 27.566,53.904 27.471,52.908 C27.371,51.914 28.101,51.025 29.097,50.928 C30.093,50.83 30.978,51.56 31.076,52.555" id="Fill-16" fill="#EC9C97" sketch:type="MSShapeGroup"></path>
                <path d="M40.366,51.647 C40.465,52.643 39.735,53.527 38.739,53.625 C37.744,53.725 36.857,52.994 36.759,51.998 C36.66,51.002 37.391,50.117 38.386,50.02 C39.383,49.92 40.268,50.648 40.366,51.647" id="Fill-17" fill="#EC9C97" sketch:type="MSShapeGroup"></path>
                <path d="M29.014,13.365 C29.755,13.615 29.664,14.127 29.158,14.537 C28.67,14.932 27.981,14.955 27.395,14.893 C26.98,14.85 26.629,14.711 26.317,14.512 C26.863,13.557 27.805,12.955 29.014,13.365" id="Fill-18" fill="#FFFFFF" sketch:type="MSShapeGroup"></path>
                <path d="M18.185,47.676 C18.565,49.532 15.808,51.663 12.031,52.434 C8.254,53.206 4.884,52.326 4.505,50.471 C4.125,48.613 6.881,46.483 10.658,45.712 C14.435,44.941 17.806,45.819 18.185,47.676" id="Fill-19" fill="#FCE1CB" sketch:type="MSShapeGroup"></path>
                <path d="M62.031,40.145 C62.411,42.002 59.655,44.133 55.878,44.903 C52.1,45.676 48.729,44.795 48.35,42.94 C47.971,41.083 50.728,38.953 54.505,38.181 C58.282,37.41 61.652,38.289 62.031,40.145" id="Fill-20" fill="#FCE1CB" sketch:type="MSShapeGroup"></path>
            </g>
        </g>
    </g>
</svg>