<?xml version="1.0" encoding="UTF-8" standalone="no"?>
<svg width="120px" height="120px" viewBox="0 0 120 120" version="1.1" xmlns="http://www.w3.org/2000/svg" xmlns:xlink="http://www.w3.org/1999/xlink" xmlns:sketch="http://www.bohemiancoding.com/sketch/ns">
    <!-- Generator: Sketch 3.3.2 (12043) - http://www.bohemiancoding.com/sketch -->
    <title>Mobile Portrait Copy 2</title>
    <desc>Created with Sketch.</desc>
    <defs>
        <path id="path-1" d="M3.87,34.554 L60.182,27.477 L56.74,0.075 L0.426,7.151 L3.87,34.554"></path>
    </defs>
    <g id="food" stroke="none" stroke-width="1" fill="none" fill-rule="evenodd" sketch:type="MSPage">
        <g id="Mobile-Portrait-Copy-2" sketch:type="MSArtboardGroup">
            <g id="Imported-Layers" sketch:type="MSLayerGroup" transform="translate(18.000000, 30.000000)">
                <path d="M6.262,39.132 L21.366,31.822 L15.52,24.105 L30.453,19.221 L25.341,11.939 L62.109,2.754 L69.845,0.999 L62.095,4.244 L33.168,16.491 L38.662,23.748 L23.343,27.126 L26.599,34.314 L6.391,40.569 L0.428,42.255 L6.262,39.132" id="Fill-1" fill="#010604" sketch:type="MSShapeGroup"></path>
                <path d="M6.377,39.831 L25.538,33.898 L22.246,26.626 L37.292,23.305 L31.891,16.175 L62.082,3.503 L26.637,12.358 L31.692,19.558 L16.8,24.429 L22.542,32.008 L6.377,39.831" id="Fill-2" fill="#ECBC43" sketch:type="MSShapeGroup"></path>
                <g id="Group-7" transform="translate(3.000000, 4.000000)">
                    <mask id="mask-2" sketch:name="Clip 4" fill="white">
                        <use xlink:href="#path-1"></use>
                    </mask>
                    <g id="Clip-4"></g>
                    <path d="M18.208,27.614 L3.87,34.554 L5.498,34.049 L18.366,27.822 L18.208,27.614" id="Fill-3" fill="#FFFFFF" sketch:type="MSShapeGroup" mask="url(#mask-2)"></path>
                    <path d="M18.966,27.248 L18.208,27.614 L18.366,27.822 L5.498,34.049 L9.826,32.71 L19.542,28.008 L18.966,27.248 M56.74,0.075 L23.098,8.477 L27.897,15.314 L13.763,19.935 L14.07,20.341 L28.692,15.558 L23.637,8.358 L56.662,0.108 L56.74,0.075" id="Fill-5" fill="#494642" sketch:type="MSShapeGroup" mask="url(#mask-2)"></path>
                    <path d="M56.662,0.108 L23.637,8.358 L28.692,15.558 L14.07,20.341 L19.21,27.129 L18.966,27.248 L19.542,28.008 L9.826,32.71 L22.055,28.924 L18.93,22.02 L33.21,18.87 L28.087,12.101 L56.662,0.108" id="Fill-6" fill="#F6D48A" sketch:type="MSShapeGroup" mask="url(#mask-2)"></path>
                </g>
                <path d="M26.441,55.818 L34.905,51.722 L31.629,47.397 L39.998,44.661 L37.133,40.58 L57.738,35.433 L62.073,34.449 L57.729,36.268 L41.52,43.131 L44.598,47.197 L36.013,49.091 L37.838,53.118 L26.514,56.624 L23.172,57.569 L26.441,55.818" id="Fill-8" fill="#1A1918" sketch:type="MSShapeGroup"></path>
                <path d="M62.729,43.112 L65.566,41.738 L64.467,40.288 L67.273,39.371 L66.312,38.002 L73.223,36.276 L74.676,35.946 L73.22,36.556 L67.784,38.857 L68.816,40.221 L65.937,40.856 L66.549,42.207 L62.752,43.382 L61.631,43.699 L62.729,43.112" id="Fill-9" fill="#010604" sketch:type="MSShapeGroup"></path>
                <path d="M62.729,43.112 L62.946,43.562 L66.333,41.922 L65.289,40.545 L68.07,39.636 L67.14,38.31 L73.34,36.762 L74.786,36.434 L74.676,35.946 L74.482,35.485 L73.026,36.095 L66.998,38.647 L67.947,39.901 L65.228,40.5 L65.859,41.897 L62.609,42.902 L61.494,43.218 L61.631,43.699 L61.866,44.14 L62.964,43.553 L62.729,43.112 L62.946,43.562 L62.729,43.112 L62.492,42.671 L57.318,45.437 L62.893,43.862 L67.238,42.517 L66.646,41.211 L69.686,40.541 L68.57,39.067 L73.414,37.017 L74.869,36.407 L74.565,35.458 L73.103,35.791 L65.484,37.693 L66.476,39.105 L63.645,40.031 L64.799,41.554 L62.502,42.665 L62.492,42.671 L62.729,43.112" id="Fill-10" fill="#1A1918" sketch:type="MSShapeGroup"></path>
                <path d="M62.75,43.243 L66.35,42.129 L65.731,40.762 L68.559,40.138 L67.544,38.798 L73.217,36.417 L66.557,38.081 L67.507,39.434 L64.708,40.349 L65.787,41.773 L62.75,43.243" id="Fill-11" fill="#ECBC43" sketch:type="MSShapeGroup"></path>
                <path d="M62.75,43.243 L62.897,43.721 L67.038,42.439 L66.44,41.118 L69.428,40.458 L68.331,39.01 L73.41,36.878 L73.096,35.932 L65.729,37.772 L66.709,39.168 L63.886,40.092 L65.02,41.589 L62.532,42.793 L62.897,43.721 L62.75,43.243 L62.968,43.693 L66.554,41.958 L65.529,40.606 L68.304,39.699 L67.384,38.39 L73.338,36.902 L73.217,36.417 L73.024,35.956 L66.757,38.586 L67.689,39.818 L65.021,40.407 L65.66,41.819 L62.602,42.766 L62.75,43.243 L62.968,43.693 L62.75,43.243" id="Fill-12" fill="#1A1918" sketch:type="MSShapeGroup"></path>
                <path d="M29.406,21.434 L29.524,20.907 L29.012,20.739 C28.444,20.549 27.833,20.452 27.194,20.444 L26.756,20.44 L26.621,20.858 C25.87,23.174 25.291,25.23 24.851,27.145 L24.752,27.577 L25.137,27.797 C25.609,28.067 26.18,28.252 26.881,28.365 L27.383,28.446 L27.544,27.952 C27.781,27.226 28.025,26.477 28.264,25.7 C30.466,25.69 32.857,25.572 35.376,25.348 L35.809,25.309 L35.905,24.885 C35.998,24.483 36.019,24.126 35.973,23.759 L35.807,22.438 C35.807,22.438 31.137,22.63 29.093,22.713 C29.199,22.303 29.309,21.879 29.406,21.434" id="Fill-13" fill="#010604" sketch:type="MSShapeGroup"></path>
                <path d="M29.895,21.543 L30.012,21.016 L30.111,20.573 L29.167,20.264 L29.17,20.265 C28.549,20.057 27.886,19.952 27.2,19.944 L26.76,19.94 L26.392,19.936 L26.145,20.705 C25.391,23.031 24.808,25.101 24.364,27.033 L24.265,27.464 L24.181,27.826 L24.888,28.231 C25.427,28.539 26.059,28.739 26.802,28.858 L27.303,28.939 L27.726,29.008 L28.02,28.106 C28.256,27.381 28.502,26.629 28.742,25.846 L28.264,25.7 L28.266,26.2 C30.484,26.19 32.889,26.071 35.42,25.846 L35.854,25.807 L36.215,25.774 L36.393,24.997 C36.461,24.701 36.496,24.415 36.496,24.132 C36.496,23.985 36.486,23.841 36.469,23.699 L36.245,21.919 L35.786,21.939 C35.783,21.939 34.618,21.986 33.195,22.045 C31.772,22.104 30.094,22.172 29.072,22.214 L29.093,22.713 L29.576,22.839 C29.684,22.428 29.795,21.998 29.895,21.541 L28.918,21.327 C28.822,21.761 28.715,22.178 28.608,22.588 L28.44,23.24 L29.113,23.213 C31.157,23.13 35.827,22.938 35.827,22.938 L35.807,22.438 L35.31,22.501 L35.477,23.822 L35.477,23.819 C35.489,23.927 35.496,24.03 35.496,24.132 C35.496,24.333 35.472,24.539 35.418,24.773 L35.402,24.844 L35.331,24.85 C32.825,25.073 30.447,25.19 28.262,25.2 L27.892,25.202 L27.785,25.553 C27.549,26.325 27.306,27.071 27.068,27.796 L27.04,27.884 L26.961,27.871 C26.301,27.766 25.791,27.595 25.385,27.363 L25.322,27.328 L25.339,27.257 C25.774,25.359 26.35,23.318 27.097,21.012 L27.119,20.943 L27.189,20.944 C27.779,20.951 28.34,21.042 28.853,21.213 L28.856,21.214 L28.938,21.24 L28.918,21.325 L29.895,21.543" id="Fill-14" fill="#1A1918" sketch:type="MSShapeGroup"></path>
                <path d="M33.426,35.536 C33.959,33.434 34.414,31.241 34.783,29.012 L34.903,28.288 L34.17,28.319 C31.2,28.446 28.416,28.67 25.894,28.986 L25.453,29.042 L25.38,29.481 C25.332,29.768 25.332,30.081 25.381,30.465 C25.436,30.905 25.511,31.194 25.637,31.433 L25.804,31.749 L26.159,31.753 C27.646,31.772 29.308,31.676 31.226,31.461 C30.645,33.842 30.229,35.793 29.981,37.26 L29.937,37.523 L30.104,37.733 C30.428,38.137 31.132,38.546 35.407,38.264 L35.856,38.236 L35.951,37.795 C36.069,37.252 36.095,36.709 36.029,36.18 L35.965,35.676 L35.459,35.659 C34.718,35.632 34.05,35.592 33.426,35.536" id="Fill-15" fill="#010604" sketch:type="MSShapeGroup"></path>
                <path d="M33.91,35.659 C34.447,33.542 34.905,31.335 35.276,29.094 L35.497,27.762 L34.148,27.819 C31.167,27.947 28.37,28.172 25.832,28.49 L25.391,28.545 L25.02,28.592 L24.887,29.399 C24.857,29.57 24.844,29.748 24.844,29.935 C24.844,30.121 24.857,30.319 24.885,30.531 L24.885,30.528 C24.943,30.992 25.027,31.348 25.194,31.666 L25.195,31.667 L25.361,31.982 L25.5,32.244 L26.152,32.253 C26.275,32.255 26.398,32.256 26.524,32.256 C27.94,32.256 29.504,32.157 31.281,31.959 L31.226,31.461 L30.74,31.343 C30.158,33.732 29.738,35.691 29.488,37.177 L29.444,37.44 L29.408,37.659 L29.711,38.043 L29.713,38.046 C29.883,38.269 30.204,38.515 30.692,38.643 C31.185,38.78 31.877,38.856 32.977,38.857 C33.637,38.857 34.443,38.829 35.439,38.763 L35.888,38.735 L36.266,38.711 L36.439,37.9 L36.439,37.901 C36.522,37.519 36.564,37.135 36.564,36.754 C36.564,36.541 36.551,36.329 36.525,36.121 L36.461,35.613 L36.406,35.191 L35.477,35.159 C34.742,35.133 34.084,35.093 33.471,35.038 L33.381,36.034 C34.016,36.091 34.692,36.132 35.441,36.158 L35.522,36.161 L35.533,36.244 L35.533,36.24 C35.553,36.411 35.565,36.583 35.565,36.754 C35.565,37.063 35.531,37.375 35.463,37.689 L35.447,37.761 L35.376,37.765 C34.395,37.83 33.607,37.857 32.977,37.857 C31.926,37.858 31.306,37.778 30.962,37.68 C30.613,37.574 30.573,37.508 30.493,37.42 L30.496,37.423 L30.467,37.386 L30.475,37.343 C30.719,35.896 31.133,33.953 31.711,31.58 L31.88,30.885 L31.17,30.964 C29.421,31.16 27.893,31.256 26.524,31.256 C26.403,31.256 26.283,31.255 26.165,31.253 L26.106,31.252 L26.078,31.199 L26.079,31.2 C25.994,31.04 25.93,30.817 25.877,30.402 L25.877,30.4 C25.853,30.226 25.844,30.073 25.844,29.935 C25.844,29.798 25.853,29.678 25.873,29.564 L25.885,29.491 L25.957,29.482 C28.462,29.169 31.233,28.945 34.191,28.818 L34.309,28.814 L34.29,28.931 C33.923,31.146 33.471,33.326 32.941,35.413 L33.91,35.659" id="Fill-16" fill="#1A1918" sketch:type="MSShapeGroup"></path>
                <path d="M23.697,26.51 L23.208,26.497 C22.337,26.47 21.316,26.529 20.178,26.672 C18.889,26.835 17.817,27.018 16.904,27.235 L16.431,27.346 L16.445,27.831 C16.466,28.528 16.515,29.188 16.591,29.795 C16.783,31.324 16.961,32.489 17.151,33.463 L17.24,33.915 L17.696,33.946 C18.598,34.006 19.684,33.953 21.023,33.786 C22.358,33.618 23.36,33.44 24.008,33.256 L24.422,33.137 L24.439,32.706 C24.465,32.073 24.43,31.398 24.336,30.647 C24.178,29.385 23.983,28.199 23.777,26.993 L23.697,26.51 L23.697,26.51 Z M21.406,31.03 L19.678,31.248 L19.463,29.543 L21.191,29.325 L21.406,31.03 L21.406,31.03 Z" id="Fill-17" fill="#010604" sketch:type="MSShapeGroup"></path>
                <path d="M23.697,26.51 L23.711,26.01 L23.222,25.997 C23.082,25.993 22.939,25.99 22.791,25.99 C21.99,25.99 21.094,26.053 20.115,26.176 C18.814,26.34 17.726,26.526 16.789,26.748 L16.316,26.859 L15.918,26.953 L15.945,27.847 C15.967,28.557 16.016,29.232 16.095,29.857 C16.288,31.393 16.467,32.568 16.66,33.559 L16.75,34.011 L16.823,34.387 L17.662,34.445 C17.914,34.461 18.177,34.47 18.453,34.47 C19.219,34.47 20.086,34.406 21.085,34.282 C22.434,34.111 23.45,33.934 24.145,33.737 L24.561,33.618 L24.906,33.518 L24.939,32.726 L24.939,32.725 C24.944,32.585 24.947,32.444 24.947,32.3 C24.947,31.761 24.907,31.195 24.832,30.585 C24.672,29.311 24.476,28.117 24.27,26.909 L24.19,26.428 L24.123,26.022 L23.711,26.01 L23.697,26.51 L23.204,26.592 L23.284,27.075 L23.284,27.077 C23.49,28.281 23.684,29.46 23.84,30.709 C23.911,31.285 23.947,31.81 23.947,32.3 C23.947,32.431 23.944,32.56 23.94,32.687 L23.936,32.756 L23.869,32.776 C23.27,32.946 22.281,33.124 20.961,33.29 C19.991,33.41 19.164,33.47 18.453,33.47 C18.197,33.47 17.956,33.462 17.73,33.447 L17.656,33.442 L17.642,33.367 C17.455,32.409 17.278,31.255 17.087,29.733 C17.013,29.144 16.965,28.499 16.945,27.817 L16.942,27.739 L17.018,27.722 C17.909,27.51 18.963,27.329 20.24,27.168 C21.184,27.049 22.043,26.99 22.791,26.99 C22.929,26.99 23.062,26.992 23.192,26.996 L23.684,27.01 L23.697,26.51 L23.204,26.592 L23.697,26.51 L23.697,26.51 Z M21.406,31.03 L21.344,30.534 L20.111,30.689 L20.021,29.976 L20.758,29.883 L20.91,31.092 L21.406,31.03 L21.344,30.534 L21.406,31.03 L21.902,30.967 L21.624,28.766 L18.904,29.109 L19.244,31.806 L21.965,31.463 L21.902,30.967 L21.406,31.03 L21.406,31.03 Z" id="Fill-18" fill="#1A1918" sketch:type="MSShapeGroup"></path>
                <path d="M55.276,32.79 C55.808,30.689 56.263,28.495 56.633,26.267 L56.752,25.542 L56.018,25.574 C53.049,25.7 50.266,25.924 47.743,26.241 L47.303,26.295 L47.228,26.735 C47.181,27.022 47.18,27.336 47.228,27.721 C47.285,28.16 47.361,28.448 47.488,28.688 L47.652,29.004 L48.008,29.008 C49.496,29.027 51.156,28.932 53.075,28.716 C52.496,31.097 52.079,33.047 51.831,34.516 L51.786,34.778 L51.954,34.987 C52.277,35.392 52.98,35.799 57.257,35.52 L57.705,35.49 L57.8,35.049 C57.918,34.508 57.945,33.964 57.878,33.435 L57.815,32.932 L57.308,32.914 C56.566,32.887 55.898,32.846 55.276,32.79" id="Fill-19" fill="#010604" sketch:type="MSShapeGroup"></path>
                <path d="M55.761,32.912 C56.296,30.797 56.754,28.589 57.126,26.349 L57.345,25.017 L55.996,25.074 C53.016,25.201 50.219,25.426 47.681,25.745 L47.241,25.799 L46.871,25.845 L46.735,26.651 C46.706,26.825 46.691,27.005 46.691,27.194 C46.691,27.38 46.705,27.576 46.732,27.786 C46.793,28.249 46.879,28.605 47.046,28.921 L47.044,28.918 L47.208,29.234 L47.346,29.501 L48.002,29.508 C48.125,29.51 48.25,29.511 48.376,29.511 C49.791,29.511 51.353,29.413 53.131,29.213 L53.075,28.716 L52.59,28.598 C52.008,30.987 51.589,32.945 51.338,34.433 L51.255,34.915 L51.564,35.3 L51.562,35.298 C51.732,35.523 52.055,35.77 52.543,35.898 C53.037,36.035 53.73,36.111 54.834,36.112 C55.493,36.112 56.297,36.084 57.289,36.019 L57.738,35.989 L58.114,35.963 L58.289,35.154 L58.288,35.156 C58.371,34.775 58.414,34.391 58.414,34.009 C58.414,33.795 58.4,33.583 58.374,33.374 L58.312,32.871 L58.259,32.448 L57.326,32.414 C56.592,32.388 55.934,32.347 55.321,32.291 L55.231,33.288 C55.863,33.345 56.541,33.387 57.29,33.413 L57.371,33.416 L57.382,33.497 C57.402,33.667 57.413,33.837 57.413,34.009 C57.413,34.317 57.379,34.629 57.311,34.943 L57.295,35.016 L57.223,35.021 C56.248,35.085 55.464,35.112 54.834,35.112 C53.779,35.113 53.157,35.033 52.812,34.935 C52.464,34.829 52.424,34.763 52.345,34.675 L52.316,34.64 L52.324,34.601 L52.324,34.6 C52.568,33.149 52.983,31.208 53.561,28.834 L53.73,28.14 L53.02,28.219 C51.27,28.416 49.745,28.511 48.376,28.511 C48.254,28.511 48.133,28.51 48.014,28.508 L47.958,28.508 L47.932,28.458 L47.93,28.455 C47.844,28.291 47.777,28.07 47.725,27.657 C47.701,27.484 47.691,27.332 47.691,27.194 C47.691,27.056 47.702,26.933 47.722,26.817 L47.733,26.746 L47.805,26.737 C50.311,26.422 53.082,26.199 56.039,26.073 L56.158,26.068 L56.14,26.186 C55.771,28.399 55.319,30.581 54.791,32.667 L55.762,32.912 L55.761,32.912" id="Fill-20" fill="#1A1918" sketch:type="MSShapeGroup"></path>
                <path d="M51.255,18.688 L51.372,18.163 L50.861,17.993 C50.293,17.805 49.682,17.706 49.045,17.7 L48.604,17.694 L48.471,18.112 C47.719,20.429 47.14,22.487 46.699,24.399 L46.601,24.831 L46.986,25.051 C47.458,25.322 48.027,25.506 48.728,25.62 L49.232,25.7 L49.394,25.206 C49.629,24.481 49.873,23.731 50.113,22.956 C52.314,22.946 54.706,22.827 57.225,22.603 L57.658,22.565 L57.755,22.141 C57.847,21.737 57.867,21.378 57.821,21.014 L57.655,19.694 C57.655,19.694 52.985,19.885 50.941,19.967 C51.048,19.557 51.156,19.133 51.255,18.688" id="Fill-21" fill="#010604" sketch:type="MSShapeGroup"></path>
                <path d="M51.742,18.797 L51.958,17.831 L51.019,17.518 C50.398,17.314 49.735,17.206 49.049,17.2 L48.611,17.194 L48.241,17.189 L47.994,17.96 L47.995,17.957 C47.239,20.286 46.656,22.357 46.212,24.287 L46.113,24.719 L46.03,25.08 L46.738,25.485 C47.275,25.794 47.906,25.993 48.649,26.113 L49.154,26.193 L49.574,26.261 L49.869,25.362 L49.907,25.243 L49.869,25.361 C50.104,24.636 50.35,23.883 50.591,23.103 L50.113,22.956 L50.115,23.456 C52.333,23.446 54.738,23.326 57.27,23.101 L57.702,23.063 L58.065,23.031 L58.242,22.252 C58.309,21.955 58.345,21.669 58.345,21.387 C58.345,21.24 58.334,21.096 58.317,20.955 L58.317,20.952 L58.094,19.175 L57.635,19.194 C57.632,19.194 56.467,19.242 55.044,19.3 C53.621,19.358 51.943,19.427 50.921,19.468 L50.941,19.967 L51.426,20.093 C51.532,19.682 51.643,19.251 51.743,18.796 L50.767,18.58 C50.67,19.015 50.563,19.433 50.457,19.842 L50.288,20.494 L50.961,20.467 C53.006,20.385 57.676,20.193 57.676,20.193 L57.655,19.694 L57.159,19.756 L57.325,21.077 L57.324,21.074 C57.338,21.181 57.344,21.284 57.344,21.387 C57.344,21.588 57.32,21.795 57.268,22.031 L57.252,22.099 L57.182,22.105 C54.674,22.328 52.296,22.446 50.111,22.456 L49.744,22.458 L49.636,22.808 C49.396,23.579 49.153,24.326 48.918,25.052 L48.879,25.171 L48.757,25.544 L49.232,25.7 L49.311,25.206 L48.807,25.126 C48.148,25.02 47.641,24.85 47.234,24.618 L47.17,24.581 L47.186,24.51 C47.623,22.616 48.197,20.573 48.946,18.266 L48.968,18.199 L49.038,18.2 C49.628,18.205 50.187,18.297 50.705,18.467 L50.785,18.495 L50.767,18.579 L51.743,18.797 L51.742,18.797" id="Fill-22" fill="#1A1918" sketch:type="MSShapeGroup"></path>
                <path d="M45.546,23.765 L45.056,23.751 C44.186,23.724 43.166,23.784 42.027,23.926 C40.738,24.088 39.668,24.274 38.754,24.489 L38.28,24.602 L38.295,25.086 C38.314,25.782 38.364,26.442 38.44,27.05 C38.633,28.578 38.811,29.744 39,30.719 L39.09,31.169 L39.546,31.2 C40.445,31.26 41.534,31.208 42.873,31.04 C44.205,30.872 45.209,30.694 45.855,30.51 L46.271,30.392 L46.287,29.959 C46.312,29.327 46.279,28.653 46.185,27.901 C46.027,26.639 45.832,25.454 45.626,24.247 L45.546,23.765 L45.546,23.765 Z M43.256,28.284 L41.527,28.502 L41.314,26.797 L43.043,26.581 L43.256,28.284 L43.256,28.284 Z" id="Fill-23" fill="#010604" sketch:type="MSShapeGroup"></path>
                <path d="M45.546,23.765 L45.561,23.265 L45.07,23.251 C44.932,23.247 44.789,23.244 44.644,23.244 C43.842,23.245 42.944,23.308 41.965,23.43 C40.663,23.594 39.576,23.782 38.64,24.002 L38.164,24.116 L37.768,24.21 L37.795,25.102 L37.795,25.101 C37.815,25.81 37.865,26.486 37.944,27.112 C38.138,28.646 38.316,29.823 38.509,30.814 L38.516,30.852 L38.6,31.267 L38.674,31.641 L39.512,31.699 C39.765,31.715 40.028,31.724 40.307,31.724 C41.07,31.724 41.937,31.661 42.936,31.536 C44.281,31.365 45.299,31.188 45.992,30.991 L46.407,30.873 L46.756,30.774 L46.787,29.979 C46.792,29.835 46.795,29.69 46.795,29.544 C46.795,29.008 46.757,28.446 46.682,27.839 C46.522,26.565 46.325,25.371 46.119,24.163 L46.119,24.165 L46.039,23.683 L45.971,23.277 L45.561,23.265 L45.546,23.765 L45.053,23.847 L45.133,24.329 L45.133,24.331 C45.339,25.536 45.533,26.713 45.69,27.963 C45.76,28.535 45.795,29.056 45.795,29.544 C45.795,29.679 45.793,29.81 45.787,29.94 L45.784,30.011 L45.719,30.029 C45.119,30.2 44.129,30.378 42.81,30.543 C41.844,30.665 41.016,30.724 40.307,30.724 C40.049,30.724 39.807,30.716 39.579,30.701 L39.505,30.696 L39.49,30.621 L39.49,30.624 C39.305,29.664 39.128,28.509 38.936,26.988 C38.862,26.398 38.813,25.753 38.795,25.072 L38.792,24.994 L38.87,24.975 C39.76,24.766 40.813,24.583 42.09,24.422 C43.035,24.304 43.894,24.244 44.644,24.244 C44.779,24.244 44.912,24.247 45.041,24.25 L45.531,24.265 L45.546,23.765 L45.053,23.847 L45.546,23.765 L45.546,23.765 Z M43.256,28.284 L43.193,27.788 L41.961,27.943 L41.871,27.231 L42.608,27.139 L42.76,28.346 L43.256,28.284 L43.193,27.788 L43.256,28.284 L43.752,28.222 L43.477,26.022 L40.755,26.363 L41.094,29.06 L43.815,28.717 L43.752,28.222 L43.256,28.284 L43.256,28.284 Z" id="Fill-24" fill="#1A1918" sketch:type="MSShapeGroup"></path>
                <path d="M72.791,17.221 C72.897,16.811 73.006,16.389 73.104,15.943 L73.222,15.417 L72.711,15.247 C72.143,15.059 71.531,14.96 70.893,14.954 L70.454,14.95 L70.319,15.368 C69.567,17.684 68.988,19.741 68.551,21.655 L68.45,22.086 L68.836,22.306 C69.307,22.577 69.879,22.761 70.578,22.874 L71.082,22.954 L71.242,22.461 C71.479,21.735 71.723,20.987 71.963,20.21 C74.164,20.2 76.556,20.081 79.075,19.857 L79.508,19.819 L79.604,19.395 C79.695,18.993 79.717,18.633 79.671,18.268 L79.506,16.95 C79.506,16.95 74.836,17.14 72.791,17.221" id="Fill-25" fill="#010604" sketch:type="MSShapeGroup"></path>
                <path d="M73.275,17.347 C73.382,16.936 73.492,16.508 73.593,16.051 L73.71,15.525 L73.808,15.084 L72.869,14.772 C72.247,14.567 71.584,14.461 70.897,14.454 L70.459,14.45 L70.091,14.446 L69.844,15.214 L69.844,15.213 C69.088,17.541 68.505,19.612 68.063,21.543 L67.963,21.973 L67.879,22.336 L68.588,22.741 L68.587,22.74 C69.125,23.049 69.758,23.248 70.499,23.367 L71.004,23.447 L71.425,23.515 L71.718,22.616 C71.955,21.89 72.199,21.139 72.44,20.357 L71.963,20.21 L71.965,20.709 C74.183,20.7 76.588,20.58 79.119,20.355 L79.552,20.317 L79.915,20.285 L80.091,19.505 C80.158,19.209 80.193,18.922 80.193,18.638 C80.193,18.492 80.184,18.349 80.167,18.209 L80.167,18.206 L79.944,16.431 L79.485,16.45 C79.482,16.45 78.318,16.498 76.894,16.556 C75.472,16.613 73.793,16.681 72.772,16.722 L72.81,17.721 C74.856,17.64 79.525,17.449 79.525,17.449 L79.506,16.95 L79.01,17.012 L79.175,18.33 L79.174,18.327 C79.188,18.434 79.193,18.537 79.193,18.638 C79.193,18.84 79.17,19.048 79.115,19.284 L79.1,19.353 L79.031,19.359 C76.523,19.581 74.145,19.7 71.961,19.709 L71.593,19.711 L71.485,20.062 C71.246,20.834 71.004,21.58 70.766,22.306 L70.738,22.393 L70.656,22.38 C70,22.274 69.488,22.104 69.085,21.873 L69.022,21.836 L69.037,21.768 L69.038,21.766 C69.472,19.87 70.047,17.828 70.795,15.522 L70.795,15.521 L70.817,15.453 L70.888,15.454 C71.478,15.46 72.037,15.551 72.555,15.721 L72.635,15.749 L72.616,15.834 C72.52,16.27 72.413,16.686 72.307,17.096 L73.275,17.347" id="Fill-26" fill="#1A1918" sketch:type="MSShapeGroup"></path>
                <path d="M77.125,30.045 C77.658,27.944 78.113,25.75 78.48,23.522 L78.602,22.797 L77.867,22.829 C74.899,22.956 72.113,23.178 69.591,23.496 L69.151,23.551 L69.078,23.991 C69.029,24.277 69.029,24.59 69.077,24.975 C69.132,25.415 69.211,25.704 69.337,25.944 L69.502,26.258 L69.855,26.262 C71.346,26.282 73.006,26.186 74.924,25.971 C74.345,28.352 73.927,30.301 73.681,31.77 L73.637,32.033 L73.802,32.241 C74.127,32.647 74.829,33.055 79.106,32.774 L79.555,32.745 L79.65,32.305 C79.768,31.762 79.793,31.219 79.727,30.69 L79.663,30.186 L79.157,30.168 C78.416,30.142 77.749,30.101 77.125,30.045" id="Fill-27" fill="#010604" sketch:type="MSShapeGroup"></path>
                <path d="M77.609,30.168 C78.146,28.052 78.604,25.845 78.974,23.603 L79.095,22.88 L79.195,22.271 L77.846,22.329 C74.865,22.457 72.067,22.68 69.528,22.999 L69.088,23.055 L68.719,23.102 L68.585,23.909 L68.575,23.963 L68.585,23.906 C68.556,24.08 68.541,24.26 68.541,24.448 C68.541,24.634 68.555,24.829 68.581,25.039 L68.581,25.037 C68.639,25.505 68.73,25.863 68.895,26.176 L69.059,26.491 L69.197,26.755 L69.85,26.762 C69.977,26.764 70.106,26.765 70.237,26.765 C71.651,26.765 73.209,26.666 74.979,26.468 L74.924,25.971 L74.437,25.853 C73.857,28.241 73.436,30.199 73.188,31.688 L73.144,31.95 L73.106,32.169 L73.41,32.551 L73.411,32.553 C73.581,32.777 73.902,33.024 74.391,33.152 C74.885,33.29 75.576,33.366 76.678,33.367 C77.337,33.367 78.143,33.338 79.139,33.273 L79.587,33.244 L79.963,33.219 L80.139,32.412 L80.139,32.411 C80.221,32.03 80.263,31.648 80.263,31.269 C80.263,31.054 80.249,30.84 80.223,30.628 L80.223,30.627 L80.159,30.123 L80.105,29.701 L79.175,29.669 C78.441,29.643 77.783,29.602 77.169,29.547 L77.081,30.543 C77.715,30.6 78.391,30.642 79.14,30.668 L79.22,30.671 L79.23,30.752 C79.252,30.923 79.262,31.096 79.262,31.269 C79.262,31.576 79.229,31.887 79.161,32.2 L79.147,32.27 L79.072,32.275 C78.094,32.339 77.308,32.367 76.678,32.367 C75.625,32.368 75.004,32.287 74.661,32.19 C74.313,32.083 74.273,32.017 74.192,31.928 L74.166,31.895 L74.174,31.852 C74.416,30.403 74.832,28.463 75.409,26.089 L75.578,25.395 L74.868,25.474 C73.126,25.669 71.604,25.765 70.237,25.765 C70.11,25.765 69.985,25.764 69.861,25.762 L69.806,25.762 L69.779,25.711 C69.692,25.544 69.625,25.324 69.573,24.914 L69.573,24.912 C69.551,24.738 69.541,24.585 69.541,24.448 C69.541,24.31 69.551,24.189 69.57,24.075 L69.58,24.02 L69.583,24.001 L69.653,23.992 C72.159,23.676 74.932,23.455 77.889,23.328 L78.007,23.323 L77.987,23.439 L77.987,23.44 C77.622,25.656 77.17,27.835 76.641,29.922 L77.609,30.168" id="Fill-28" fill="#1A1918" sketch:type="MSShapeGroup"></path>
                <path d="M67.396,21.02 L66.906,21.006 C66.035,20.979 65.016,21.039 63.877,21.181 C62.586,21.344 61.516,21.528 60.604,21.745 L60.131,21.856 L60.143,22.341 C60.163,23.038 60.212,23.697 60.288,24.305 C60.481,25.833 60.659,26.999 60.851,27.973 L60.937,28.424 L61.395,28.456 C62.295,28.514 63.382,28.462 64.722,28.295 C66.054,28.127 67.059,27.949 67.704,27.764 L68.119,27.646 L68.138,27.215 C68.162,26.582 68.128,25.907 68.035,25.156 C67.876,23.895 67.68,22.708 67.477,21.502 L67.396,21.02 L67.396,21.02 Z M65.104,25.54 L63.376,25.756 L63.162,24.051 L64.891,23.835 L65.104,25.54 L65.104,25.54 Z" id="Fill-29" fill="#010604" sketch:type="MSShapeGroup"></path>
                <path d="M67.396,21.02 L67.41,20.52 L66.92,20.506 C66.778,20.502 66.632,20.5 66.482,20.5 C65.684,20.5 64.789,20.563 63.814,20.685 C62.511,20.85 61.424,21.036 60.488,21.258 L60.016,21.369 L59.621,21.462 L59.643,22.353 L59.643,22.356 C59.664,23.066 59.713,23.741 59.792,24.367 C59.986,25.902 60.165,27.078 60.359,28.069 L60.359,28.068 L60.446,28.519 L60.518,28.897 L61.361,28.955 C61.612,28.971 61.873,28.979 62.147,28.979 C62.913,28.978 63.781,28.916 64.783,28.792 C66.13,28.621 67.148,28.442 67.842,28.245 L68.256,28.127 L68.603,28.028 L68.637,27.237 L68.637,27.234 C68.643,27.095 68.644,26.956 68.644,26.814 C68.644,26.273 68.606,25.706 68.531,25.095 L68.531,25.093 C68.37,23.82 68.173,22.626 67.97,21.419 L67.89,20.938 L67.822,20.532 L67.41,20.52 L67.396,21.02 L66.903,21.102 L66.983,21.584 L66.983,21.585 C67.186,22.791 67.381,23.97 67.539,25.218 L67.539,25.217 C67.609,25.794 67.645,26.321 67.645,26.814 C67.645,26.943 67.643,27.071 67.638,27.197 L67.635,27.264 L67.567,27.283 C66.969,27.455 65.977,27.634 64.659,27.799 C63.687,27.92 62.858,27.979 62.147,27.979 C61.893,27.979 61.653,27.971 61.428,27.956 L61.355,27.952 L61.342,27.878 L61.341,27.877 C61.152,26.919 60.977,25.763 60.784,24.242 C60.71,23.653 60.662,23.009 60.643,22.327 L60.643,22.329 L60.641,22.249 L60.718,22.231 C61.607,22.02 62.66,21.839 63.939,21.677 C64.881,21.559 65.736,21.5 66.482,21.5 C66.622,21.5 66.758,21.502 66.891,21.506 L67.383,21.52 L67.396,21.02 L66.903,21.102 L67.396,21.02 L67.396,21.02 Z M65.104,25.54 L65.041,25.044 L63.81,25.198 L63.721,24.485 L64.456,24.393 L64.607,25.602 L65.104,25.54 L65.041,25.044 L65.104,25.54 L65.6,25.477 L65.324,23.276 L62.603,23.617 L62.941,26.315 L65.661,25.974 L65.6,25.477 L65.104,25.54 L65.104,25.54 Z" id="Fill-30" fill="#1A1918" sketch:type="MSShapeGroup"></path>
                <path d="M28.572,23.124 C28.609,22.973 28.65,22.823 28.687,22.672 C28.801,22.243 28.914,21.799 29.017,21.338 L29.057,21.163 L28.887,21.107 C28.356,20.932 27.785,20.84 27.189,20.833 L27.043,20.831 L26.998,20.971 C26.252,23.276 25.674,25.321 25.238,27.225 L25.205,27.37 L25.333,27.442 C25.764,27.688 26.289,27.858 26.94,27.962 L27.108,27.99 L27.163,27.827 C27.43,27.014 27.702,26.17 27.969,25.294 C30.24,25.294 32.719,25.174 35.34,24.942 L35.484,24.928 L35.518,24.789 C35.598,24.432 35.617,24.118 35.576,23.799 L35.457,22.842 L35.273,22.85 C33.033,22.942 30.792,23.034 28.572,23.124" id="Fill-31" fill="#ECBC43" sketch:type="MSShapeGroup"></path>
                <path d="M29.058,23.243 C29.093,23.101 29.134,22.95 29.173,22.792 L28.687,22.672 L29.171,22.8 C29.285,22.368 29.399,21.918 29.506,21.448 L29.545,21.271 L29.643,20.829 L29.042,20.632 C28.461,20.44 27.838,20.341 27.195,20.333 L27.05,20.331 L26.68,20.327 L26.521,20.818 C25.772,23.132 25.19,25.191 24.751,27.114 L24.634,27.622 L25.087,27.877 L25.085,27.876 C25.582,28.16 26.168,28.345 26.861,28.456 L27.027,28.483 L27.446,28.552 L27.637,27.986 L27.638,27.982 C27.905,27.168 28.179,26.321 28.447,25.44 L27.969,25.294 L27.969,25.794 C30.258,25.794 32.75,25.673 35.384,25.44 L35.387,25.44 L35.531,25.426 L35.888,25.393 L36.004,24.904 L36.006,24.898 C36.064,24.633 36.097,24.377 36.097,24.123 C36.097,23.993 36.088,23.864 36.072,23.737 L35.953,22.78 L35.895,22.323 L35.252,22.351 C33.013,22.442 30.772,22.534 28.552,22.624 L28.593,23.623 C30.813,23.533 33.054,23.441 35.294,23.35 L35.479,23.342 L35.457,22.842 L34.961,22.904 L35.08,23.861 L35.097,24.123 C35.097,24.294 35.076,24.473 35.029,24.679 L35.518,24.789 L35.031,24.673 L34.998,24.813 L35.484,24.928 L35.438,24.431 L35.293,24.444 L35.296,24.444 C32.688,24.675 30.223,24.794 27.969,24.794 L27.598,24.794 L27.49,25.149 C27.225,26.02 26.954,26.86 26.688,27.671 L26.689,27.668 L26.635,27.831 L27.108,27.99 L27.188,27.496 L27.02,27.469 C26.41,27.371 25.945,27.216 25.581,27.008 L25.579,27.006 L25.451,26.934 L25.205,27.37 L25.692,27.481 L25.725,27.337 C26.157,25.45 26.73,23.419 27.474,21.125 L27.518,20.985 L27.043,20.831 L27.036,21.332 L27.183,21.333 C27.731,21.34 28.252,21.424 28.73,21.582 L28.9,21.638 L29.057,21.163 L28.568,21.054 L28.529,21.23 L28.493,21.393 L28.529,21.229 C28.428,21.681 28.316,22.118 28.204,22.545 L28.202,22.553 C28.167,22.695 28.126,22.846 28.087,23.004 L29.058,23.243" id="Fill-32" fill="#1A1918" sketch:type="MSShapeGroup"></path>
                <path d="M32.926,35.877 C33.504,33.65 33.997,31.317 34.391,28.938 L34.429,28.696 L34.185,28.707 C31.226,28.833 28.451,29.056 25.943,29.372 L25.796,29.391 L25.771,29.537 C25.73,29.786 25.731,30.062 25.774,30.408 C25.823,30.796 25.886,31.045 25.989,31.239 L26.044,31.344 L26.162,31.346 C27.774,31.368 29.606,31.251 31.746,30.991 C31.1,33.618 30.638,35.745 30.375,37.317 L30.357,37.405 L30.413,37.474 C30.664,37.789 31.458,38.117 35.38,37.858 L35.529,37.848 L35.561,37.702 C35.669,37.204 35.694,36.706 35.634,36.221 L35.612,36.053 L35.443,36.047 C34.514,36.014 33.688,35.958 32.926,35.877" id="Fill-33" fill="#ECBC43" sketch:type="MSShapeGroup"></path>
                <path d="M33.41,36.003 C33.992,33.76 34.488,31.413 34.884,29.02 L34.923,28.773 L35.018,28.166 L34.16,28.208 C31.193,28.335 28.405,28.558 25.881,28.876 L25.878,28.876 L25.73,28.895 L25.363,28.944 L25.278,29.454 L25.262,29.553 L25.278,29.455 C25.253,29.606 25.24,29.764 25.24,29.928 C25.241,30.099 25.254,30.277 25.277,30.469 L25.277,30.471 C25.331,30.883 25.399,31.193 25.549,31.475 L25.989,31.239 L25.545,31.469 L25.6,31.574 L25.736,31.839 L26.154,31.846 C26.283,31.848 26.412,31.849 26.543,31.849 C28.087,31.849 29.817,31.729 31.807,31.487 L31.746,30.991 L31.261,30.871 C30.612,33.506 30.148,35.641 29.882,37.234 L30.375,37.317 L29.885,37.219 L29.821,37.536 L30.023,37.787 L30.022,37.786 C30.202,38.015 30.504,38.187 30.94,38.287 C31.383,38.392 32.003,38.451 32.959,38.451 C33.607,38.451 34.41,38.423 35.412,38.357 L35.561,38.347 L35.936,38.323 L36.05,37.809 L36.051,37.807 C36.127,37.453 36.166,37.096 36.166,36.742 C36.166,36.546 36.153,36.353 36.13,36.161 L36.124,36.111 L36.054,35.568 L35.461,35.548 C34.541,35.515 33.728,35.459 32.978,35.38 L32.874,36.375 C33.649,36.456 34.486,36.514 35.426,36.547 L35.595,36.553 L35.612,36.053 L35.116,36.117 L35.138,36.285 L35.138,36.282 C35.156,36.434 35.165,36.587 35.165,36.742 C35.165,37.022 35.135,37.309 35.072,37.597 L35.041,37.741 L35.529,37.848 L35.496,37.349 L35.348,37.359 C34.361,37.424 33.578,37.451 32.959,37.451 C32.047,37.452 31.486,37.39 31.171,37.315 C30.848,37.234 30.81,37.168 30.804,37.162 L30.803,37.161 L30.747,37.092 L30.357,37.405 L30.848,37.503 L30.865,37.415 L30.868,37.399 C31.127,35.848 31.587,33.73 32.231,31.11 L32.404,30.407 L31.686,30.494 C29.726,30.733 28.035,30.849 26.543,30.849 C26.416,30.849 26.292,30.848 26.169,30.846 L26.052,30.844 L26.044,31.344 L26.488,31.114 L26.434,31.009 L26.43,31.003 C26.372,30.898 26.315,30.71 26.269,30.344 L26.269,30.346 C26.25,30.186 26.24,30.049 26.241,29.928 C26.241,29.812 26.249,29.711 26.265,29.618 L26.265,29.619 L26.289,29.474 L25.796,29.391 L25.861,29.887 L26.009,29.867 L26.006,29.868 C28.497,29.554 31.26,29.333 34.206,29.207 L34.453,29.195 L34.429,28.696 L33.934,28.618 L33.896,28.86 L33.897,28.856 C33.506,31.221 33.016,33.54 32.441,35.752 L33.41,36.003" id="Fill-34" fill="#1A1918" sketch:type="MSShapeGroup"></path>
                <path d="M23.358,26.889 L23.194,26.883 C22.344,26.858 21.346,26.917 20.227,27.057 C18.953,27.217 17.895,27.399 16.994,27.614 L16.838,27.65 L16.842,27.811 C16.861,28.493 16.91,29.141 16.985,29.737 C17.176,31.252 17.352,32.411 17.541,33.379 L17.57,33.529 L17.723,33.54 C18.597,33.596 19.659,33.545 20.973,33.381 C22.286,33.217 23.269,33.041 23.895,32.864 L24.033,32.825 L24.041,32.68 C24.065,32.068 24.032,31.417 23.94,30.687 C23.783,29.431 23.588,28.251 23.384,27.049 L23.358,26.889 L23.358,26.889 Z M21.85,31.366 L19.33,31.682 L19.018,29.188 L21.536,28.872 L21.85,31.366 L21.85,31.366 Z" id="Fill-35" fill="#ECBC43" sketch:type="MSShapeGroup"></path>
                <path d="M23.358,26.889 L23.376,26.39 L23.212,26.384 L23.209,26.383 C23.075,26.379 22.938,26.377 22.798,26.377 C22.012,26.377 21.13,26.44 20.164,26.561 C18.878,26.723 17.804,26.907 16.878,27.127 L16.881,27.126 L16.725,27.163 L16.328,27.255 L16.342,27.823 L16.342,27.825 C16.361,28.522 16.412,29.185 16.489,29.799 C16.681,31.321 16.858,32.49 17.05,33.475 L17.08,33.625 L17.153,34 L17.688,34.038 L17.69,34.039 C17.931,34.054 18.184,34.062 18.448,34.062 C19.197,34.061 20.049,34 21.034,33.877 C22.362,33.711 23.359,33.535 24.032,33.345 L24.17,33.306 L24.513,33.208 L24.54,32.707 L24.541,32.7 C24.546,32.562 24.548,32.425 24.548,32.286 C24.548,31.765 24.51,31.217 24.436,30.625 C24.277,29.356 24.081,28.168 23.877,26.965 L23.384,27.049 L23.877,26.971 L23.787,26.404 L23.376,26.39 L23.358,26.889 L22.864,26.967 L22.89,27.127 L22.891,27.133 C23.095,28.333 23.289,29.506 23.444,30.749 C23.514,31.308 23.549,31.813 23.548,32.286 C23.549,32.414 23.546,32.539 23.541,32.66 L24.041,32.68 L23.541,32.653 L23.533,32.798 L24.033,32.825 L23.896,32.344 L23.759,32.383 C23.18,32.548 22.209,32.724 20.91,32.885 C19.955,33.004 19.143,33.062 18.448,33.062 C18.203,33.062 17.972,33.055 17.755,33.04 L17.758,33.041 L17.606,33.03 L17.57,33.529 L18.06,33.433 L18.031,33.283 C17.846,32.331 17.671,31.184 17.481,29.674 C17.408,29.097 17.36,28.463 17.342,27.797 L17.338,27.638 L16.838,27.65 L16.95,28.137 L17.106,28.101 L17.109,28.1 C17.987,27.891 19.027,27.712 20.289,27.553 C21.222,27.436 22.065,27.377 22.798,27.377 C22.928,27.377 23.056,27.379 23.18,27.383 L23.176,27.383 L23.34,27.389 L23.358,26.889 L22.864,26.967 L23.358,26.889 L23.358,26.889 Z M21.85,31.366 L21.787,30.87 L19.764,31.124 L19.576,29.622 L21.102,29.43 L21.353,31.428 L21.85,31.366 L21.787,30.87 L21.85,31.366 L22.346,31.303 L21.97,28.313 L18.459,28.754 L18.896,32.241 L22.408,31.8 L22.346,31.303 L21.85,31.366 L21.85,31.366 Z" id="Fill-36" fill="#1A1918" sketch:type="MSShapeGroup"></path>
                <path d="M54.775,33.132 C55.352,30.905 55.846,28.571 56.238,26.194 L56.279,25.952 L56.033,25.961 C53.074,26.088 50.302,26.311 47.791,26.627 L47.644,26.645 L47.621,26.792 C47.578,27.04 47.579,27.317 47.622,27.662 C47.671,28.05 47.735,28.299 47.838,28.495 L47.895,28.6 L48.012,28.6 C49.623,28.622 51.453,28.504 53.596,28.247 C52.948,30.872 52.486,33.001 52.223,34.573 L52.207,34.659 L52.265,34.729 C52.514,35.043 53.306,35.372 57.229,35.114 L57.379,35.102 L57.41,34.957 C57.518,34.458 57.544,33.96 57.483,33.475 L57.463,33.308 L57.292,33.301 C56.362,33.268 55.537,33.213 54.775,33.132" id="Fill-37" fill="#ECBC43" sketch:type="MSShapeGroup"></path>
                <path d="M55.26,33.257 C55.84,31.015 56.336,28.667 56.731,26.275 L56.772,26.035 L56.875,25.427 L56.014,25.462 C53.041,25.589 50.256,25.813 47.729,26.13 L47.581,26.149 L47.206,26.196 L47.127,26.716 L47.621,26.792 L47.129,26.705 C47.102,26.859 47.089,27.019 47.089,27.185 C47.089,27.355 47.102,27.534 47.126,27.725 C47.178,28.138 47.25,28.449 47.395,28.727 L47.406,28.749 L47.454,28.836 L47.595,29.1 L48.012,29.1 L48.012,28.6 L48.005,29.1 C48.132,29.102 48.26,29.102 48.39,29.102 C49.934,29.102 51.664,28.982 53.655,28.743 L53.596,28.247 L53.11,28.127 C52.461,30.76 51.996,32.897 51.729,34.49 L52.223,34.573 L51.731,34.483 L51.715,34.569 L51.674,34.797 L51.878,35.046 L52.265,34.729 L51.873,35.04 C52.053,35.269 52.354,35.442 52.791,35.543 C53.234,35.647 53.854,35.706 54.813,35.707 C55.46,35.707 56.262,35.678 57.262,35.613 L57.268,35.612 L57.418,35.601 L57.789,35.571 L57.898,35.061 C57.975,34.707 58.015,34.349 58.015,33.995 C58.015,33.8 58.003,33.606 57.979,33.415 L57.959,33.247 L57.907,32.825 L57.311,32.802 C56.389,32.769 55.576,32.715 54.828,32.635 L54.723,33.629 C55.498,33.712 56.336,33.768 57.274,33.801 L57.443,33.808 L57.463,33.308 L56.967,33.369 L56.987,33.536 C57.006,33.687 57.015,33.841 57.015,33.995 C57.015,34.276 56.984,34.562 56.922,34.851 L56.89,34.997 L57.379,35.102 L57.34,34.603 L57.189,34.615 L57.229,35.114 L57.195,34.615 C56.212,34.679 55.431,34.707 54.813,34.707 C53.899,34.707 53.338,34.645 53.021,34.569 C52.698,34.49 52.662,34.423 52.656,34.418 L52.651,34.412 L52.594,34.342 L52.207,34.659 L52.699,34.748 L52.715,34.662 L52.718,34.645 L52.716,34.655 C52.976,33.104 53.436,30.983 54.081,28.366 L54.254,27.664 L53.536,27.75 C51.573,27.986 49.882,28.102 48.39,28.102 C48.264,28.102 48.141,28.102 48.019,28.1 L47.895,28.1 L47.895,28.6 L48.335,28.363 L48.278,28.258 L48.28,28.262 C48.221,28.149 48.163,27.963 48.118,27.599 C48.098,27.441 48.089,27.305 48.089,27.185 C48.089,27.069 48.098,26.969 48.113,26.878 L48.115,26.866 L48.138,26.721 L47.644,26.645 L47.706,27.141 L47.854,27.123 C50.348,26.809 53.107,26.587 56.055,26.461 L56.299,26.451 L56.279,25.952 L55.786,25.868 L55.745,26.11 L55.745,26.112 C55.354,28.475 54.863,30.794 54.291,33.007 L55.26,33.257" id="Fill-38" fill="#1A1918" sketch:type="MSShapeGroup"></path>
                <path d="M50.421,20.377 C50.461,20.228 50.498,20.077 50.538,19.926 C50.649,19.498 50.764,19.053 50.867,18.593 L50.905,18.417 L50.735,18.361 C50.206,18.186 49.635,18.094 49.039,18.088 L48.893,18.086 L48.848,18.226 C48.1,20.532 47.524,22.578 47.086,24.479 L47.053,24.624 L47.182,24.698 C47.611,24.943 48.137,25.113 48.791,25.217 L48.958,25.243 L49.012,25.083 C49.277,24.268 49.551,23.426 49.817,22.549 C52.089,22.548 54.569,22.43 57.189,22.196 L57.333,22.184 L57.366,22.044 C57.447,21.687 57.465,21.372 57.425,21.054 L57.305,20.096 L57.122,20.104 C54.882,20.196 52.641,20.288 50.421,20.377" id="Fill-39" fill="#ECBC43" sketch:type="MSShapeGroup"></path>
                <path d="M50.904,20.507 C50.945,20.351 50.982,20.199 51.022,20.055 L51.022,20.052 C51.134,19.623 51.249,19.172 51.356,18.703 L51.356,18.699 L51.488,18.085 L50.894,17.887 C50.31,17.694 49.687,17.595 49.044,17.588 L48.899,17.586 L48.529,17.582 L48.371,18.073 L48.372,18.072 C47.62,20.388 47.04,22.448 46.599,24.367 L46.565,24.512 L46.482,24.872 L46.932,25.131 L46.934,25.132 C47.431,25.415 48.017,25.6 48.712,25.711 L48.716,25.711 L48.883,25.737 L49.298,25.8 L49.485,25.242 L49.495,25.213 L49.487,25.237 C49.753,24.423 50.027,23.578 50.296,22.695 L49.817,22.549 L49.817,23.049 C52.106,23.048 54.6,22.929 57.234,22.694 L57.23,22.694 L57.373,22.683 L57.735,22.653 L57.852,22.158 L57.854,22.154 C57.914,21.888 57.945,21.632 57.945,21.38 C57.945,21.249 57.936,21.121 57.922,20.996 L57.743,19.577 L57.101,19.605 C54.861,19.696 52.62,19.788 50.4,19.878 L50.441,20.877 C52.661,20.787 54.902,20.695 57.143,20.604 L57.326,20.596 L57.305,20.096 L56.809,20.158 L56.929,21.116 L56.928,21.112 C56.94,21.205 56.944,21.293 56.944,21.38 C56.944,21.552 56.925,21.729 56.879,21.933 L56.846,22.069 L57.333,22.184 L57.292,21.685 L57.148,21.697 L57.145,21.698 C54.538,21.931 52.071,22.048 49.817,22.049 L49.446,22.049 L49.339,22.404 C49.074,23.275 48.802,24.113 48.536,24.927 L48.537,24.923 L48.484,25.083 L48.958,25.243 L49.033,24.749 L48.866,24.723 L48.869,24.724 C48.257,24.625 47.792,24.471 47.43,24.264 L47.302,24.19 L47.053,24.624 L47.54,24.735 L47.573,24.591 C48.007,22.707 48.578,20.675 49.323,18.38 L49.368,18.24 L48.893,18.086 L48.886,18.586 L49.032,18.588 C49.582,18.594 50.102,18.678 50.578,18.835 L50.747,18.892 L50.905,18.417 L50.416,18.311 L50.379,18.487 L50.379,18.483 C50.277,18.934 50.165,19.373 50.054,19.801 L50.055,19.798 C50.014,19.955 49.976,20.106 49.938,20.248 L50.904,20.507" id="Fill-40" fill="#1A1918" sketch:type="MSShapeGroup"></path>
                <path d="M45.207,24.144 L45.043,24.138 C44.192,24.113 43.193,24.17 42.075,24.311 C40.801,24.472 39.745,24.655 38.844,24.868 L38.686,24.905 L38.692,25.066 C38.71,25.747 38.759,26.395 38.834,26.992 C39.023,28.507 39.201,29.665 39.391,30.633 L39.419,30.784 L39.572,30.794 C40.445,30.852 41.51,30.801 42.822,30.637 C44.136,30.471 45.119,30.297 45.745,30.119 L45.884,30.079 L45.889,29.935 C45.915,29.323 45.882,28.67 45.79,27.942 C45.632,26.686 45.435,25.503 45.234,24.304 L45.207,24.144 L45.207,24.144 Z M43.698,28.621 L41.181,28.937 L40.867,26.442 L43.385,26.126 L43.698,28.621 L43.698,28.621 Z" id="Fill-41" fill="#ECBC43" sketch:type="MSShapeGroup"></path>
                <path d="M45.207,24.144 L45.225,23.645 L45.06,23.639 L45.058,23.638 C44.922,23.634 44.783,23.632 44.643,23.632 C43.857,23.632 42.977,23.694 42.013,23.815 C40.725,23.977 39.652,24.163 38.729,24.381 L38.571,24.418 L38.172,24.513 L38.192,25.084 L38.692,25.066 L38.192,25.079 C38.211,25.775 38.26,26.44 38.338,27.054 C38.528,28.576 38.707,29.746 38.9,30.73 L38.899,30.726 L38.928,30.876 L38.999,31.258 L39.54,31.292 C39.783,31.309 40.041,31.317 40.312,31.317 C41.058,31.317 41.906,31.255 42.884,31.133 C44.212,30.965 45.208,30.791 45.883,30.6 L46.022,30.559 L46.371,30.459 L46.389,29.952 L46.389,29.956 C46.395,29.813 46.397,29.669 46.396,29.522 C46.396,29.005 46.359,28.463 46.286,27.88 C46.126,26.611 45.929,25.421 45.728,24.222 L45.699,24.06 L45.631,23.659 L45.225,23.645 L45.207,24.144 L44.714,24.228 L44.741,24.388 L44.741,24.387 C44.942,25.585 45.137,26.761 45.294,28.004 C45.362,28.554 45.397,29.054 45.397,29.522 C45.397,29.655 45.394,29.785 45.389,29.915 L45.384,30.062 L45.884,30.079 L45.745,29.598 L45.606,29.638 C45.03,29.804 44.059,29.977 42.76,30.141 C41.813,30.26 41.002,30.317 40.312,30.317 C40.061,30.317 39.826,30.31 39.605,30.294 L39.451,30.285 L39.419,30.784 L39.91,30.691 L39.882,30.541 L39.881,30.537 C39.695,29.585 39.518,28.439 39.33,26.93 C39.257,26.351 39.209,25.718 39.192,25.053 L39.191,25.048 L39.186,24.887 L38.686,24.905 L38.801,25.392 L38.959,25.355 C39.837,25.147 40.876,24.967 42.138,24.807 C43.067,24.69 43.909,24.632 44.643,24.632 C44.774,24.632 44.903,24.634 45.027,24.638 L45.025,24.638 L45.189,24.644 L45.207,24.144 L44.714,24.228 L45.207,24.144 L45.207,24.144 Z M43.698,28.621 L43.636,28.124 L41.614,28.378 L41.426,26.876 L42.951,26.685 L43.202,28.683 L43.698,28.621 L43.636,28.124 L43.698,28.621 L44.194,28.558 L43.818,25.568 L40.309,26.008 L40.746,29.495 L44.257,29.055 L44.194,28.558 L43.698,28.621 L43.698,28.621 Z" id="Fill-42" fill="#1A1918" sketch:type="MSShapeGroup"></path>
                <path d="M78.972,17.358 C76.73,17.452 74.489,17.541 72.27,17.631 C72.309,17.482 72.347,17.331 72.387,17.18 C72.498,16.752 72.615,16.307 72.716,15.848 L72.754,15.672 L72.584,15.616 C72.056,15.442 71.484,15.348 70.888,15.342 L70.742,15.34 L70.696,15.481 C69.949,17.787 69.373,19.832 68.936,21.735 L68.904,21.878 L69.031,21.952 C69.461,22.198 69.988,22.368 70.641,22.472 L70.807,22.499 L70.861,22.338 C71.125,21.522 71.4,20.68 71.666,19.803 C73.939,19.803 76.417,19.684 79.039,19.452 L79.184,19.439 L79.214,19.297 C79.295,18.941 79.315,18.627 79.275,18.309 L79.155,17.351 L78.972,17.358" id="Fill-43" fill="#ECBC43" sketch:type="MSShapeGroup"></path>
                <path d="M78.972,17.358 L78.951,16.858 C76.71,16.952 74.469,17.042 72.25,17.132 L72.27,17.631 L72.755,17.755 C72.793,17.604 72.831,17.455 72.87,17.309 L72.87,17.306 C72.981,16.879 73.101,16.427 73.204,15.955 L73.337,15.34 L72.742,15.142 C72.161,14.95 71.538,14.849 70.893,14.842 L70.749,14.84 L70.381,14.835 L70.221,15.326 L70.221,15.327 C69.47,17.643 68.89,19.703 68.448,21.623 L68.443,21.642 L68.416,21.772 L68.338,22.129 L68.781,22.385 C69.28,22.67 69.867,22.854 70.561,22.966 L70.729,22.992 L71.144,23.059 L71.334,22.5 L71.337,22.492 C71.601,21.677 71.877,20.832 72.145,19.948 L71.666,19.803 L71.666,20.303 C73.956,20.303 76.448,20.183 79.083,19.95 L79.227,19.937 L79.595,19.905 L79.703,19.402 L79.214,19.297 L79.701,19.408 C79.762,19.14 79.795,18.881 79.795,18.625 C79.795,18.498 79.787,18.373 79.771,18.249 L79.651,17.289 L79.594,16.834 L78.953,16.858 L78.99,17.857 L79.174,17.851 L79.155,17.351 L78.659,17.413 L78.779,18.371 L78.779,18.369 L78.795,18.625 C78.795,18.797 78.773,18.978 78.727,19.186 L78.725,19.193 L78.694,19.334 L79.184,19.439 L79.14,18.941 L78.995,18.954 C76.386,19.185 73.921,19.303 71.666,19.303 L71.295,19.303 L71.187,19.658 C70.924,20.528 70.649,21.367 70.386,22.185 L70.861,22.338 L70.388,22.177 L70.333,22.337 L70.807,22.499 L70.885,22.005 L70.719,21.978 C70.108,21.881 69.641,21.725 69.279,21.518 L69.154,21.445 L68.904,21.878 L69.393,21.985 L69.424,21.841 L68.936,21.735 L69.423,21.847 C69.856,19.962 70.428,17.93 71.172,15.635 L71.172,15.636 L71.217,15.496 L70.742,15.34 L70.735,15.84 L70.881,15.842 C71.43,15.848 71.95,15.934 72.428,16.091 L72.596,16.146 L72.754,15.672 L72.266,15.566 L72.227,15.742 L72.228,15.741 C72.13,16.187 72.015,16.626 71.902,17.054 L71.903,17.052 C71.862,17.207 71.824,17.359 71.786,17.508 L71.62,18.158 L72.291,18.131 C74.51,18.041 76.751,17.951 78.992,17.857 L78.972,17.358" id="Fill-44" fill="#1A1918" sketch:type="MSShapeGroup"></path>
                <path d="M76.623,30.387 C77.202,28.159 77.693,25.825 78.087,23.448 L78.128,23.206 L77.883,23.217 C74.924,23.342 72.15,23.567 69.641,23.881 L69.494,23.901 L69.469,24.045 C69.426,24.294 69.429,24.571 69.471,24.917 C69.521,25.305 69.584,25.553 69.687,25.748 L69.742,25.854 L69.86,25.855 C71.473,25.876 73.303,25.759 75.444,25.501 C74.797,28.127 74.335,30.254 74.071,31.827 L74.057,31.915 L74.111,31.985 C74.363,32.297 75.154,32.626 79.079,32.368 L79.229,32.357 L79.26,32.211 C79.369,31.712 79.393,31.214 79.33,30.731 L79.311,30.563 L79.141,30.557 C78.212,30.523 77.387,30.467 76.623,30.387" id="Fill-45" fill="#ECBC43" sketch:type="MSShapeGroup"></path>
                <path d="M77.107,30.513 C77.689,28.269 78.184,25.92 78.58,23.529 L78.621,23.289 L78.725,22.676 L77.859,22.718 C74.891,22.843 72.104,23.069 69.578,23.385 L69.574,23.386 L69.428,23.405 L69.064,23.454 L68.977,23.959 L68.977,23.96 C68.949,24.112 68.937,24.269 68.937,24.432 C68.937,24.605 68.95,24.785 68.975,24.978 L68.975,24.981 C69.029,25.392 69.098,25.702 69.246,25.982 L69.687,25.748 L69.242,25.976 L69.297,26.082 L69.435,26.352 L69.856,26.355 C69.977,26.356 70.101,26.357 70.226,26.357 C71.773,26.357 73.508,26.238 75.504,25.997 L75.444,25.501 L74.959,25.381 C74.31,28.016 73.846,30.151 73.578,31.744 L73.564,31.832 L73.527,32.048 L73.717,32.292 L73.721,32.297 L73.722,32.299 C73.902,32.525 74.203,32.697 74.64,32.797 C75.083,32.901 75.703,32.96 76.661,32.96 C77.309,32.96 78.111,32.932 79.111,32.867 L79.115,32.866 L79.264,32.855 L79.639,32.829 L79.748,32.316 L79.748,32.318 C79.825,31.967 79.864,31.614 79.863,31.264 C79.864,31.063 79.852,30.864 79.826,30.668 L79.33,30.731 L79.826,30.673 L79.807,30.505 L79.758,30.078 L79.158,30.058 C78.239,30.023 77.426,29.969 76.675,29.89 L76.571,30.884 C77.348,30.966 78.184,31.022 79.122,31.057 L79.293,31.062 L79.311,30.563 L78.814,30.621 L78.833,30.789 L78.834,30.794 C78.854,30.949 78.863,31.106 78.863,31.264 C78.863,31.54 78.833,31.821 78.772,32.105 L78.739,32.252 L79.229,32.357 L79.192,31.858 L79.043,31.869 L79.046,31.869 C78.061,31.934 77.28,31.96 76.661,31.96 C75.747,31.961 75.186,31.899 74.869,31.824 C74.546,31.744 74.508,31.678 74.5,31.671 L74.111,31.985 L74.506,31.678 L74.451,31.607 L74.057,31.915 L74.55,31.997 L74.565,31.909 C74.824,30.358 75.284,28.239 75.93,25.62 L76.103,24.917 L75.385,25.004 C73.418,25.242 71.723,25.357 70.226,25.357 C70.104,25.357 69.984,25.356 69.866,25.355 L69.746,25.354 L69.742,25.854 L70.186,25.626 L70.132,25.519 L70.129,25.513 C70.07,25.405 70.014,25.218 69.967,24.852 L69.967,24.855 C69.947,24.693 69.938,24.554 69.938,24.432 C69.938,24.318 69.945,24.221 69.961,24.131 L69.961,24.132 L69.986,23.987 L69.494,23.901 L69.561,24.397 L69.707,24.377 L69.703,24.377 C72.196,24.065 74.957,23.841 77.904,23.717 L78.151,23.705 L78.128,23.206 L77.635,23.122 L77.594,23.364 L77.594,23.366 C77.202,25.729 76.714,28.048 76.139,30.261 L77.107,30.513" id="Fill-46" fill="#1A1918" sketch:type="MSShapeGroup"></path>
                <path d="M67.056,21.399 L66.893,21.393 C66.043,21.368 65.043,21.426 63.926,21.567 C62.65,21.726 61.593,21.908 60.694,22.123 L60.536,22.159 L60.54,22.321 C60.561,23.001 60.607,23.649 60.683,24.247 C60.872,25.762 61.051,26.92 61.239,27.887 L61.268,28.038 L61.42,28.049 C62.295,28.106 63.357,28.055 64.67,27.891 C65.984,27.726 66.967,27.551 67.596,27.374 L67.732,27.333 L67.738,27.19 C67.763,26.578 67.729,25.925 67.639,25.197 C67.481,23.941 67.285,22.758 67.082,21.559 L67.056,21.399 L67.056,21.399 Z M65.547,25.876 L63.03,26.192 L62.716,23.698 L65.233,23.381 L65.547,25.876 L65.547,25.876 Z" id="Fill-47" fill="#ECBC43" sketch:type="MSShapeGroup"></path>
                <path d="M67.056,21.399 L67.073,20.899 L66.91,20.894 L66.907,20.893 C66.773,20.889 66.637,20.887 66.496,20.887 C65.711,20.887 64.827,20.949 63.863,21.071 C62.576,21.231 61.501,21.415 60.578,21.636 L60.694,22.123 L60.583,21.635 L60.425,21.671 L60.025,21.762 L60.04,22.333 L60.04,22.336 C60.06,23.03 60.109,23.692 60.187,24.309 C60.377,25.832 60.557,27.001 60.748,27.983 L60.756,28.024 L60.776,28.13 L60.847,28.506 L61.381,28.548 L61.388,28.548 C61.629,28.564 61.881,28.572 62.146,28.572 C62.895,28.571 63.747,28.51 64.731,28.387 C66.06,28.22 67.057,28.045 67.731,27.855 L67.736,27.853 L67.873,27.813 L68.217,27.712 L68.238,27.21 L68.238,27.209 C68.243,27.074 68.246,26.938 68.245,26.8 C68.245,26.276 68.207,25.728 68.135,25.136 L68.135,25.134 C67.975,23.866 67.778,22.676 67.575,21.476 L67.567,21.431 L67.482,20.914 L67.073,20.899 L67.056,21.399 L66.562,21.48 L66.589,21.64 L66.596,21.685 L66.589,21.643 C66.792,22.84 66.986,24.016 67.143,25.259 L67.143,25.257 C67.211,25.817 67.246,26.326 67.245,26.8 C67.245,26.925 67.243,27.049 67.238,27.171 L67.232,27.313 L67.732,27.333 L67.592,26.853 L67.455,26.894 L67.46,26.893 C66.877,27.058 65.908,27.232 64.607,27.395 C63.653,27.514 62.84,27.572 62.146,27.572 C61.9,27.572 61.669,27.565 61.452,27.55 L61.42,28.049 L61.458,27.551 L61.306,27.539 L61.268,28.038 L61.759,27.945 L61.73,27.794 L61.722,27.75 L61.73,27.791 C61.545,26.84 61.367,25.693 61.179,24.185 C61.106,23.605 61.06,22.973 61.04,22.306 L61.04,22.309 L61.036,22.146 L60.536,22.159 L60.647,22.646 L60.806,22.61 L60.811,22.608 L60.81,22.609 C61.684,22.4 62.725,22.221 63.987,22.063 C64.919,21.946 65.764,21.887 66.496,21.887 C66.627,21.887 66.754,21.889 66.877,21.893 L66.875,21.893 L67.037,21.898 L67.056,21.399 L66.562,21.48 L67.056,21.399 L67.056,21.399 Z M65.547,25.876 L65.484,25.379 L63.463,25.633 L63.274,24.131 L64.799,23.94 L65.051,25.938 L65.547,25.876 L65.484,25.379 L65.547,25.876 L66.043,25.813 L65.667,22.823 L62.157,23.264 L62.597,26.75 L66.105,26.31 L66.043,25.813 L65.547,25.876 L65.547,25.876 Z" id="Fill-48" fill="#1A1918" sketch:type="MSShapeGroup"></path>
            </g>
        </g>
    </g>
</svg>