<?xml version="1.0" encoding="UTF-8" standalone="no"?>
<svg width="120px" height="120px" viewBox="0 0 120 120" version="1.1" xmlns="http://www.w3.org/2000/svg" xmlns:xlink="http://www.w3.org/1999/xlink" xmlns:sketch="http://www.bohemiancoding.com/sketch/ns">
    <!-- Generator: Sketch 3.3.2 (12043) - http://www.bohemiancoding.com/sketch -->
    <title>Mobile Portrait</title>
    <desc>Created with Sketch.</desc>
    <defs></defs>
    <g id="food" stroke="none" stroke-width="1" fill="none" fill-rule="evenodd" sketch:type="MSPage">
        <g id="Mobile-Portrait" sketch:type="MSArtboardGroup">
            <g id="Imported-Layers" sketch:type="MSLayerGroup" transform="translate(16.000000, 26.000000)">
                <path d="M35.042,27.971 C34.714,22.967 30.116,18.607 25.815,17.239 C20.28,15.493 13.982,19.435 12.909,26.021 C10.862,38.82 12.436,50.823 1.806,61.103 C-0.681,63.439 0.031,66.031 3.539,65.391 C19.396,62.646 36.271,46.128 35.042,27.971" id="Fill-1" fill="#040706" sketch:type="MSShapeGroup"></path>
                <path d="M3.431,64.827 C0.548,65.331 0.03,63.585 2.097,61.578 C12.969,51.129 11.423,38.693 13.424,26.112 C14.405,19.968 20.399,16.201 25.672,17.83 C29.841,19.139 34.232,23.304 34.538,28.023 C35.734,45.75 19.162,62.094 3.431,64.827" id="Fill-2" fill="#A9302F" sketch:type="MSShapeGroup"></path>
                <path d="M3.431,64.827 C0.982,65.214 0.259,64.065 1.282,62.523 C1.292,62.666 1.304,62.808 1.314,62.952 C1.219,65.768 3.089,64.5 7.736,63.026 C12.38,61.481 22.634,53.686 27.774,47.124 C32.914,40.564 34.028,30.449 32.404,29.172 L32.434,28.738 C32.434,28.738 33.321,28.721 34.594,28.737 C35.257,46.157 18.973,62.115 3.431,64.827" id="Fill-3" fill="#862B37" sketch:type="MSShapeGroup"></path>
                <path d="M34.134,35.043 C33.959,33.622 33.494,30.935 31.575,28.32 C28.735,24.503 28.869,23.77 27.001,26.692 C25.134,29.615 22.804,31.502 21.652,28.166 C20.439,24.832 20.349,24.482 17.267,26.517 C14.314,28.542 13.147,29.883 12.564,32.964 C12.831,30.706 13.03,28.382 13.424,26.112 C13.559,25.38 13.702,24.789 13.903,24.122 L19.755,20.151 C19.755,20.151 24.408,19.54 28.368,18.998 C31.573,20.979 34.315,24.375 34.538,28.023 C34.721,30.379 34.522,32.702 34.134,35.043" id="Fill-4" fill="#862B37" sketch:type="MSShapeGroup"></path>
                <path d="M32.929,21.275 C31.317,19.35 28.268,17.713 27.939,15.947 C27.68,14.247 27.553,11.813 26.743,9.591 C25.683,6.603 23.689,3.852 21.579,2.049 C19.88,0.636 15.903,3.409 17.787,4.733 C20.755,6.954 24.704,11.954 22.836,14.876 C21.825,16.561 18.697,16.372 16.075,18.579 C13.515,20.779 12.393,23.482 12.622,26.41 C12.634,26.552 12.708,26.688 12.832,26.675 C16.968,27.557 18.701,22.919 20.952,23.27 C22.687,23.527 21.616,26.081 23.331,28.5 C23.398,28.566 23.531,28.624 23.651,28.54 C27.074,26.83 26.481,23.29 28.595,23.509 C30.197,23.709 31.583,26.808 33.458,28.849 C33.532,28.987 33.658,28.974 33.717,28.896 C36.034,27.657 35.032,23.799 32.929,21.275" id="Fill-5" fill="#030706" sketch:type="MSShapeGroup"></path>
                <path d="M28.675,22.927 C26.242,22.666 26.562,25.946 23.968,27.716 L23.602,27.898 L23.458,27.696 C22.939,26.74 22.798,25.747 22.661,24.826 C22.452,23.768 22.191,22.858 21.033,22.685 C18.463,22.296 17.131,26.389 13.687,26.231 L13.173,26.138 L13.11,25.351 C13.247,23.036 14.225,20.922 16.429,19.046 C18.874,17.002 22.127,17.179 23.312,15.261 C25.513,11.729 20.969,6.428 18.068,4.273 C16.994,3.517 20.147,1.617 21.233,2.515 C23.276,4.253 25.2,6.938 26.257,9.855 C27.052,11.935 27.105,14.231 27.439,16.07 C27.791,18.121 30.973,19.817 32.517,21.677 C34.481,24.07 35.095,27.031 33.786,28.17 L33.667,28.254 L33.11,27.663 C31.62,25.652 30.278,23.124 28.675,22.927" id="Fill-6" fill="#3F8F56" sketch:type="MSShapeGroup"></path>
                <path d="M20.253,6.212 C19.493,5.425 18.743,4.781 18.068,4.273 C16.994,3.517 20.147,1.617 21.233,2.515 C23.276,4.253 25.201,6.938 26.257,9.855 C27.052,11.935 27.105,14.233 27.439,16.07 C27.452,16.212 27.526,16.349 27.606,16.556 C27.095,16.535 26.706,16.43 26.632,16.292 C26.017,14.917 26.817,12.173 24.701,7.852 C22.583,3.532 20.747,2.78 19.776,3.381 C18.871,3.976 19.488,4.562 19.488,4.562 L19.346,4.36 L20.266,5.563 L20.253,6.212" id="Fill-7" fill="#39502E" sketch:type="MSShapeGroup"></path>
                <path d="M25.117,31.846 C23.142,34.205 22.477,33.84 21.288,30 C20.173,26.299 13.966,28.146 13.542,36.537 C13.136,44.349 11.536,51.49 7.588,57.069 C3.642,62.645 0.607,64.461 6.209,62.172 C11.753,59.96 20.065,54.161 25.126,48.183 C33.497,38.275 32.444,23.195 25.117,31.846" id="Fill-8" fill="#C5282B" sketch:type="MSShapeGroup"></path>
                <path d="M10.324,55.499 C-1.978,68.752 25.229,47.884 28.757,36.951 C29.886,33.527 28.071,33.063 25.352,34.846 C21.6,37.237 22.31,38.174 19.991,33.729 C18.719,31.267 17.194,32.067 16.303,33.667 C14.485,37.233 16.473,48.834 10.324,55.499" id="Fill-9" fill="#CE565D" sketch:type="MSShapeGroup"></path>
                <path d="M15.662,32.796 C13.511,45.896 10.828,55.448 3.798,62.199 C13.412,58.426 18.323,42.461 15.662,32.796" id="Fill-10" fill="#FFFFFF" sketch:type="MSShapeGroup"></path>
                <path d="M30.335,20.6 C30.335,20.6 33.497,23.665 33.89,25.424 C34.218,27.19 33.28,25.773 30.995,23.34 C28.646,20.914 28.097,20.393 25.936,23.632 C23.781,26.944 23.66,27.028 22.979,24.001 C22.233,20.982 20.757,20.771 17.777,23.3 C14.856,25.752 13.8,24.419 14.769,22.164 C15.735,19.907 21.696,18.157 22.774,17.329 C23.915,16.496 26.102,11.957 21.095,6.415 C19.774,4.965 18.808,3.982 18.059,3.338 C17.829,3.65 17.73,4.019 18.068,4.273 C20.969,6.428 25.513,11.729 23.312,15.261 C22.127,17.179 18.874,17.002 16.429,19.045 C14.225,20.922 13.247,23.036 13.11,25.351 L13.173,26.137 L13.687,26.231 C17.131,26.387 18.462,22.296 21.033,22.685 C22.191,22.858 22.452,23.768 22.663,24.826 C22.798,25.747 22.939,26.74 23.458,27.696 L23.602,27.898 L23.968,27.716 C26.562,25.945 26.241,22.666 28.675,22.925 C30.278,23.124 31.62,25.652 33.11,27.663 L33.667,28.254 L33.786,28.17 C35.095,27.031 34.481,24.07 32.517,21.677 C30.973,19.817 27.79,18.121 27.439,16.07 C27.186,14.44 27.028,12.44 26.501,10.55 C26.653,11.687 26.765,13.115 26.509,14.723 C26.13,17.999 30.461,20.588 30.335,20.6" id="Fill-11" fill="#39502E" sketch:type="MSShapeGroup"></path>
                <path d="M25.925,20.252 C25.925,20.252 24.694,25.628 23.834,22.764 C22.971,19.829 20.293,20.53 18.894,21.317 C17.499,22.177 19.04,19.937 22.13,18.833 C25.282,17.725 25.003,14.155 25.003,14.155 C25.003,14.155 25.104,17.887 27.319,19.393 C29.597,20.89 25.925,20.252 25.925,20.252" id="Fill-12" fill="#75A855" sketch:type="MSShapeGroup"></path>
                <path d="M25.092,12.85 C25.092,12.85 24.283,7.39 22.146,5.23 C20.013,3.142 20.256,4.628 21.767,6.06 C23.338,7.487 25.092,12.85 25.092,12.85" id="Fill-13" fill="#A5C24F" sketch:type="MSShapeGroup"></path>
                <path d="M32.741,35.111 C28.542,47.192 18.022,58.898 1.891,64.621 C15.717,63.52 32.639,46.78 32.741,35.111" id="Fill-14" fill="#542428" sketch:type="MSShapeGroup"></path>
                <path d="M20.357,36.786 C17.311,48.176 13.335,56.635 5.202,62.274 C16.414,57.835 21.529,46.887 20.357,36.786" id="Fill-15" fill="#862B37" sketch:type="MSShapeGroup"></path>
                <path d="M58.952,14.638 C58.777,11.971 56.327,9.648 54.036,8.919 C51.087,7.989 47.73,10.09 47.159,13.599 C46.067,20.418 46.906,26.815 41.242,32.293 C39.917,33.538 40.296,34.919 42.165,34.578 C50.616,33.116 59.607,24.313 58.952,14.638" id="Fill-16" fill="#040706" sketch:type="MSShapeGroup"></path>
                <path d="M42.108,34.277 C40.571,34.545 40.296,33.615 41.398,32.545 C47.191,26.978 46.367,20.35 47.433,13.647 C47.955,10.373 51.15,8.365 53.961,9.234 C56.181,9.93 58.521,12.151 58.685,14.665 C59.322,24.112 50.49,32.821 42.108,34.277" id="Fill-17" fill="#A9302F" sketch:type="MSShapeGroup"></path>
                <path d="M42.108,34.277 C40.804,34.485 40.418,33.872 40.962,33.049 C40.97,33.126 40.974,33.202 40.982,33.278 C40.929,34.778 41.925,34.104 44.402,33.318 C46.877,32.495 52.34,28.34 55.079,24.845 C57.819,21.348 58.412,15.957 57.547,15.278 L57.562,15.045 C57.562,15.045 58.036,15.038 58.713,15.045 C59.067,24.329 50.39,32.831 42.108,34.277" id="Fill-18" fill="#862B37" sketch:type="MSShapeGroup"></path>
                <path d="M58.468,18.407 C58.375,17.649 58.128,16.216 57.105,14.823 C55.592,12.789 55.663,12.398 54.669,13.956 C53.672,15.513 52.431,16.519 51.817,14.742 C51.171,12.965 51.123,12.778 49.481,13.862 C47.907,14.942 47.286,15.657 46.975,17.299 C47.117,16.095 47.222,14.857 47.433,13.647 C47.505,13.256 47.581,12.942 47.689,12.586 L50.807,10.471 C50.807,10.471 53.286,10.145 55.397,9.856 C57.105,10.912 58.566,12.72 58.685,14.665 C58.782,15.92 58.676,17.159 58.468,18.407" id="Fill-19" fill="#862B37" sketch:type="MSShapeGroup"></path>
                <path d="M57.827,11.069 C56.969,10.043 55.343,9.172 55.167,8.23 C55.029,7.324 54.962,6.027 54.529,4.843 C53.966,3.249 52.903,1.786 51.779,0.824 C50.874,0.072 48.756,1.549 49.759,2.254 C51.34,3.438 53.444,6.103 52.448,7.661 C51.909,8.557 50.243,8.456 48.846,9.632 C47.481,10.805 46.884,12.245 47.005,13.805 C47.012,13.881 47.051,13.954 47.119,13.948 C49.321,14.416 50.246,11.946 51.444,12.132 C52.368,12.27 51.798,13.631 52.712,14.92 C52.748,14.955 52.819,14.986 52.883,14.94 C54.707,14.029 54.391,12.143 55.517,12.259 C56.372,12.366 57.11,14.018 58.108,15.106 C58.148,15.179 58.216,15.171 58.247,15.131 C59.481,14.469 58.947,12.414 57.827,11.069" id="Fill-20" fill="#030706" sketch:type="MSShapeGroup"></path>
                <path d="M55.56,11.949 C54.263,11.811 54.434,13.558 53.052,14.502 L52.857,14.599 L52.78,14.491 C52.503,13.982 52.429,13.453 52.356,12.961 C52.244,12.397 52.104,11.912 51.488,11.821 C50.118,11.614 49.407,13.793 47.573,13.71 L47.299,13.661 L47.266,13.242 C47.339,12.008 47.859,10.881 49.034,9.881 C50.337,8.792 52.07,8.886 52.702,7.866 C53.874,5.982 51.453,3.158 49.908,2.008 C49.335,1.606 51.015,0.593 51.595,1.073 C52.683,1.999 53.709,3.429 54.271,4.985 C54.694,6.092 54.724,7.317 54.902,8.295 C55.088,9.389 56.784,10.292 57.606,11.283 C58.654,12.559 58.982,14.136 58.284,14.744 L58.22,14.79 L57.925,14.473 C57.129,13.402 56.415,12.054 55.56,11.949" id="Fill-21" fill="#3F8F56" sketch:type="MSShapeGroup"></path>
                <path d="M51.072,3.042 C50.667,2.623 50.268,2.28 49.908,2.01 C49.335,1.606 51.015,0.594 51.595,1.072 C52.683,1.999 53.709,3.429 54.271,4.985 C54.694,6.092 54.724,7.317 54.902,8.295 C54.908,8.371 54.948,8.444 54.989,8.555 C54.719,8.543 54.511,8.489 54.472,8.415 C54.143,7.682 54.57,6.219 53.442,3.917 C52.314,1.615 51.336,1.214 50.818,1.535 C50.336,1.852 50.665,2.164 50.665,2.164 L50.589,2.055 L51.078,2.698 L51.072,3.042" id="Fill-22" fill="#39502E" sketch:type="MSShapeGroup"></path>
                <path d="M53.665,16.703 C52.61,17.959 52.257,17.765 51.624,15.719 C51.029,13.746 47.721,14.731 47.495,19.202 C47.28,23.366 46.427,27.17 44.323,30.143 C42.22,33.116 40.603,34.081 43.588,32.863 C46.542,31.684 50.972,28.593 53.668,25.408 C58.13,20.128 57.568,12.093 53.665,16.703" id="Fill-23" fill="#C5282B" sketch:type="MSShapeGroup"></path>
                <path d="M45.781,29.306 C39.225,36.369 53.725,25.249 55.603,19.423 C56.204,17.598 55.239,17.35 53.789,18.301 C51.79,19.575 52.167,20.075 50.934,17.706 C50.254,16.393 49.442,16.82 48.967,17.672 C47.999,19.573 49.058,25.755 45.781,29.306" id="Fill-24" fill="#CE565D" sketch:type="MSShapeGroup"></path>
                <path d="M48.626,17.207 C47.48,24.188 46.05,29.28 42.304,32.876 C47.426,30.867 50.045,22.359 48.626,17.207" id="Fill-25" fill="#FFFFFF" sketch:type="MSShapeGroup"></path>
                <path d="M56.445,10.71 C56.445,10.71 58.13,12.343 58.339,13.28 C58.514,14.221 58.015,13.465 56.796,12.17 C55.543,10.877 55.251,10.599 54.101,12.326 C52.952,14.09 52.889,14.135 52.524,12.522 C52.128,10.913 51.341,10.8 49.752,12.148 C48.196,13.456 47.633,12.745 48.149,11.543 C48.665,10.34 51.842,9.407 52.417,8.966 C53.024,8.522 54.189,6.104 51.521,3.152 C50.817,2.377 50.301,1.854 49.903,1.511 C49.78,1.677 49.729,1.873 49.908,2.008 C51.453,3.158 53.874,5.982 52.702,7.866 C52.071,8.887 50.337,8.791 49.034,9.881 C47.859,10.881 47.339,12.008 47.266,13.242 L47.299,13.661 L47.573,13.71 C49.407,13.793 50.118,11.614 51.488,11.821 C52.104,11.912 52.244,12.397 52.356,12.962 C52.429,13.453 52.503,13.982 52.78,14.491 L52.856,14.598 L53.052,14.502 C54.434,13.557 54.263,11.811 55.56,11.951 C56.415,12.054 57.129,13.402 57.925,14.472 L58.22,14.789 L58.284,14.744 C58.982,14.136 58.654,12.559 57.606,11.283 C56.784,10.293 55.088,9.388 54.902,8.295 C54.767,7.427 54.683,6.362 54.4,5.355 C54.482,5.96 54.542,6.721 54.405,7.58 C54.204,9.325 56.513,10.704 56.445,10.71" id="Fill-26" fill="#39502E" sketch:type="MSShapeGroup"></path>
                <path d="M54.094,10.524 C54.094,10.524 53.439,13.389 52.98,11.863 C52.52,10.298 51.093,10.672 50.348,11.092 C49.605,11.55 50.426,10.356 52.071,9.769 C53.752,9.178 53.603,7.275 53.603,7.275 C53.603,7.275 53.657,9.263 54.837,10.066 C56.051,10.865 54.094,10.524 54.094,10.524" id="Fill-27" fill="#75A855" sketch:type="MSShapeGroup"></path>
                <path d="M53.65,6.581 C53.65,6.581 53.219,3.67 52.081,2.519 C50.944,1.407 51.073,2.2 51.879,2.961 C52.716,3.722 53.65,6.581 53.65,6.581" id="Fill-28" fill="#A5C24F" sketch:type="MSShapeGroup"></path>
                <path d="M57.727,18.442 C55.489,24.879 49.884,31.119 41.288,34.166 C48.655,33.581 57.673,24.661 57.727,18.442" id="Fill-29" fill="#542428" sketch:type="MSShapeGroup"></path>
                <path d="M51.128,19.334 C49.505,25.404 47.386,29.912 43.051,32.917 C49.026,30.551 51.753,24.717 51.128,19.334" id="Fill-30" fill="#862B37" sketch:type="MSShapeGroup"></path>
                <path d="M78.021,14.638 C77.846,11.971 75.396,9.648 73.104,8.919 C70.154,7.989 66.799,10.09 66.226,13.599 C65.136,20.418 65.975,26.815 60.31,32.293 C58.985,33.538 59.364,34.919 61.233,34.578 C69.684,33.116 78.675,24.313 78.021,14.638" id="Fill-31" fill="#040706" sketch:type="MSShapeGroup"></path>
                <path d="M61.176,34.277 C59.64,34.545 59.364,33.615 60.466,32.545 C66.259,26.978 65.435,20.35 66.502,13.647 C67.024,10.373 70.218,8.365 73.028,9.234 C75.249,9.93 77.589,12.151 77.753,14.665 C78.39,24.112 69.559,32.821 61.176,34.277" id="Fill-32" fill="#A9302F" sketch:type="MSShapeGroup"></path>
                <path d="M61.176,34.277 C59.872,34.485 59.485,33.872 60.03,33.049 C60.036,33.126 60.042,33.202 60.048,33.278 C59.997,34.778 60.993,34.104 63.471,33.318 C65.944,32.495 71.408,28.34 74.147,24.845 C76.887,21.348 77.481,15.957 76.614,15.278 L76.63,15.045 C76.63,15.045 77.105,15.038 77.781,15.045 C78.136,24.329 69.458,32.831 61.176,34.277" id="Fill-33" fill="#862B37" sketch:type="MSShapeGroup"></path>
                <path d="M77.537,18.407 C77.443,17.649 77.196,16.216 76.174,14.823 C74.659,12.789 74.732,12.398 73.735,13.956 C72.74,15.513 71.499,16.519 70.886,14.742 C70.239,12.965 70.191,12.778 68.549,13.862 C66.976,14.942 66.354,15.657 66.042,17.299 C66.186,16.095 66.291,14.857 66.502,13.647 C66.572,13.256 66.649,12.942 66.756,12.586 L69.875,10.471 C69.875,10.471 72.354,10.145 74.464,9.856 C76.171,10.912 77.633,12.72 77.753,14.665 C77.851,15.92 77.743,17.159 77.537,18.407" id="Fill-34" fill="#862B37" sketch:type="MSShapeGroup"></path>
                <path d="M76.895,11.069 C76.036,10.043 74.41,9.172 74.235,8.23 C74.097,7.324 74.029,6.027 73.599,4.843 C73.032,3.249 71.972,1.786 70.847,0.824 C69.94,0.072 67.823,1.549 68.825,2.254 C70.407,3.438 72.512,6.103 71.517,7.661 C70.978,8.557 69.312,8.456 67.913,9.632 C66.55,10.805 65.95,12.245 66.073,13.805 C66.08,13.881 66.118,13.954 66.187,13.948 C68.39,14.416 69.313,11.946 70.513,12.132 C71.437,12.27 70.867,13.631 71.779,14.92 C71.815,14.955 71.888,14.986 71.95,14.94 C73.775,14.029 73.458,12.143 74.585,12.259 C75.439,12.366 76.179,14.018 77.177,15.106 C77.216,15.179 77.284,15.171 77.314,15.131 C78.549,14.469 78.017,12.414 76.895,11.069" id="Fill-35" fill="#030706" sketch:type="MSShapeGroup"></path>
                <path d="M74.628,11.949 C73.331,11.811 73.502,13.558 72.12,14.502 L71.925,14.599 L71.848,14.491 C71.571,13.982 71.496,13.453 71.423,12.961 C71.313,12.397 71.173,11.912 70.556,11.821 C69.185,11.614 68.476,13.793 66.641,13.71 L66.367,13.661 L66.334,13.242 C66.407,12.008 66.928,10.881 68.103,9.881 C69.405,8.792 71.139,8.886 71.771,7.866 C72.942,5.982 70.522,3.158 68.977,2.008 C68.403,1.606 70.083,0.593 70.662,1.073 C71.751,1.999 72.776,3.429 73.339,4.985 C73.764,6.092 73.792,7.317 73.97,8.295 C74.156,9.389 75.852,10.292 76.675,11.283 C77.722,12.559 78.048,14.136 77.351,14.744 L77.288,14.79 L76.991,14.473 C76.197,13.402 75.482,12.054 74.628,11.949" id="Fill-36" fill="#3F8F56" sketch:type="MSShapeGroup"></path>
                <path d="M70.14,3.042 C69.735,2.623 69.336,2.28 68.977,2.01 C68.403,1.606 70.083,0.594 70.662,1.072 C71.751,1.999 72.776,3.429 73.338,4.985 C73.764,6.092 73.792,7.317 73.97,8.295 C73.976,8.371 74.015,8.444 74.058,8.555 C73.786,8.543 73.579,8.489 73.539,8.415 C73.211,7.682 73.639,6.219 72.511,3.917 C71.382,1.615 70.403,1.214 69.886,1.535 C69.403,1.852 69.733,2.164 69.733,2.164 L69.657,2.055 L70.147,2.698 L70.14,3.042" id="Fill-37" fill="#39502E" sketch:type="MSShapeGroup"></path>
                <path d="M72.731,16.703 C71.679,17.959 71.324,17.765 70.692,15.719 C70.098,13.746 66.789,14.731 66.564,19.202 C66.349,23.366 65.495,27.17 63.391,30.143 C61.288,33.116 59.671,34.081 62.656,32.863 C65.61,31.684 70.04,28.593 72.735,25.408 C77.196,20.128 76.636,12.093 72.731,16.703" id="Fill-38" fill="#C5282B" sketch:type="MSShapeGroup"></path>
                <path d="M64.849,29.306 C58.294,36.369 72.792,25.249 74.671,19.423 C75.272,17.598 74.306,17.35 72.857,18.301 C70.857,19.575 71.235,20.075 70.001,17.706 C69.323,16.393 68.509,16.82 68.035,17.672 C67.067,19.573 68.126,25.755 64.849,29.306" id="Fill-39" fill="#CE565D" sketch:type="MSShapeGroup"></path>
                <path d="M67.693,17.207 C66.547,24.188 65.116,29.28 61.371,32.876 C66.494,30.867 69.112,22.359 67.693,17.207" id="Fill-40" fill="#FFFFFF" sketch:type="MSShapeGroup"></path>
                <path d="M75.513,10.71 C75.513,10.71 77.198,12.343 77.406,13.28 C77.581,14.221 77.083,13.465 75.864,12.17 C74.611,10.877 74.319,10.599 73.168,12.326 C72.02,14.09 71.956,14.135 71.593,12.522 C71.195,10.913 70.409,10.8 68.821,12.148 C67.264,13.456 66.7,12.745 67.217,11.543 C67.731,10.34 70.909,9.407 71.483,8.966 C72.093,8.522 73.257,6.104 70.589,3.152 C69.885,2.377 69.369,1.854 68.971,1.511 C68.847,1.677 68.796,1.873 68.977,2.008 C70.522,3.158 72.942,5.982 71.771,7.866 C71.139,8.887 69.405,8.791 68.103,9.881 C66.928,10.881 66.407,12.008 66.334,13.242 L66.366,13.661 L66.641,13.71 C68.476,13.793 69.185,11.614 70.556,11.821 C71.173,11.912 71.313,12.397 71.423,12.962 C71.496,13.453 71.571,13.982 71.848,14.491 L71.923,14.598 L72.12,14.502 C73.502,13.557 73.331,11.811 74.628,11.951 C75.483,12.054 76.197,13.402 76.991,14.472 L77.288,14.789 L77.353,14.744 C78.048,14.136 77.722,12.559 76.675,11.283 C75.853,10.293 74.156,9.388 73.97,8.295 C73.834,7.427 73.751,6.362 73.469,5.355 C73.55,5.96 73.61,6.721 73.474,7.58 C73.273,9.325 75.579,10.704 75.513,10.71" id="Fill-41" fill="#39502E" sketch:type="MSShapeGroup"></path>
                <path d="M73.162,10.524 C73.162,10.524 72.507,13.389 72.048,11.863 C71.588,10.298 70.161,10.672 69.415,11.092 C68.673,11.55 69.493,10.356 71.14,9.769 C72.819,9.178 72.671,7.275 72.671,7.275 C72.671,7.275 72.725,9.263 73.906,10.066 C75.118,10.865 73.162,10.524 73.162,10.524" id="Fill-42" fill="#75A855" sketch:type="MSShapeGroup"></path>
                <path d="M72.719,6.581 C72.719,6.581 72.288,3.67 71.149,2.519 C70.012,1.407 70.141,2.2 70.946,2.961 C71.783,3.722 72.719,6.581 72.719,6.581" id="Fill-43" fill="#A5C24F" sketch:type="MSShapeGroup"></path>
                <path d="M76.794,18.442 C74.557,24.879 68.951,31.119 60.354,34.166 C67.723,33.581 76.74,24.661 76.794,18.442" id="Fill-44" fill="#542428" sketch:type="MSShapeGroup"></path>
                <path d="M70.196,19.334 C68.571,25.404 66.454,29.912 62.12,32.917 C68.095,30.551 70.82,24.717 70.196,19.334" id="Fill-45" fill="#862B37" sketch:type="MSShapeGroup"></path>
                <path d="M32.519,65.232 L32.519,63.629 C32.788,63.566 32.97,63.357 33.066,63 C33.159,62.644 33.287,62.402 33.448,62.273 C33.475,62.273 33.543,62.241 33.651,62.175 C33.758,62.111 33.833,62.054 33.872,62.005 C33.913,61.957 34.007,61.845 34.156,61.666 C34.304,61.489 34.404,61.367 34.46,61.302 L34.863,61.302 C34.972,61.271 35.052,61.158 35.106,60.963 C35.159,60.769 35.207,60.648 35.248,60.599 C35.287,60.551 35.349,60.495 35.429,60.429 C35.511,60.366 35.565,60.331 35.591,60.331 C35.725,60.171 35.826,59.986 35.895,59.775 C35.962,59.565 36.063,59.379 36.198,59.218 C36.223,59.186 36.285,59.096 36.379,58.951 C36.474,58.804 36.575,58.643 36.682,58.465 C36.79,58.288 36.904,58.11 37.025,57.932 C37.147,57.755 37.234,57.617 37.289,57.519 C37.423,57.359 37.497,57.197 37.511,57.034 C37.524,56.873 37.558,56.711 37.612,56.55 C37.638,56.55 37.652,56.535 37.652,56.501 C37.652,56.468 37.665,56.438 37.692,56.404 C37.72,56.373 37.76,56.34 37.813,56.307 C38.002,56.016 38.13,55.645 38.197,55.192 C38.265,54.739 38.34,54.335 38.42,53.979 C38.394,53.882 38.325,53.833 38.218,53.833 C38.002,53.833 37.794,53.979 37.593,54.27 C37.39,54.562 37.193,54.788 37.005,54.95 L34.136,58.247 L34.136,58.925 C34.081,58.925 34.042,58.894 34.014,58.83 L33.935,58.634 C33.798,58.701 33.705,58.774 33.651,58.854 C33.597,58.935 33.564,59.032 33.55,59.145 C33.536,59.258 33.516,59.379 33.489,59.508 C33.462,59.637 33.409,59.75 33.329,59.848 C33.193,60.01 33.058,60.09 32.924,60.09 C32.788,60.09 32.654,60.123 32.519,60.187 C32.277,60.349 32.128,60.558 32.075,60.817 C32.021,61.077 31.927,61.238 31.792,61.302 C31.712,61.335 31.61,61.351 31.489,61.351 C31.368,61.351 31.267,61.383 31.186,61.449 C31.05,61.545 30.889,61.683 30.7,61.859 C30.511,62.038 30.317,62.216 30.114,62.394 C29.912,62.572 29.704,62.717 29.488,62.83 C29.272,62.944 29.07,63 28.882,63 C28.748,63 28.7,62.887 28.741,62.661 C28.781,62.434 28.801,62.305 28.801,62.273 L28.276,62.273 L28.276,61.934 L27.831,61.545 L27.831,61.302 C27.75,61.271 27.649,61.238 27.528,61.206 C27.407,61.174 27.306,61.125 27.226,61.06 C27.306,61.028 27.347,60.939 27.347,60.793 C27.347,60.648 27.306,60.446 27.226,60.187 C27.146,60.349 27.036,60.429 26.901,60.429 C26.821,60.462 26.767,60.446 26.74,60.381 C26.714,60.317 26.685,60.236 26.66,60.139 C26.632,60.04 26.619,59.944 26.619,59.848 L26.619,59.702 C26.699,59.669 26.746,59.574 26.761,59.411 C26.773,59.25 26.794,59.152 26.821,59.12 C26.874,59.023 26.989,58.79 27.164,58.417 C27.339,58.046 27.474,57.771 27.569,57.592 C27.663,57.415 27.777,57.333 27.912,57.349 C28.046,57.367 28.194,57.294 28.357,57.132 C28.384,57.1 28.41,57.052 28.438,56.986 C28.491,56.857 28.532,56.792 28.559,56.792 L28.761,56.792 C29.139,56.631 29.461,56.373 29.73,56.016 C30,55.662 30.324,55.385 30.7,55.192 L30.7,54.853 C30.7,54.821 30.762,54.739 30.883,54.61 C31.004,54.481 31.106,54.383 31.186,54.319 C31.401,54.158 31.597,53.972 31.772,53.761 C31.946,53.551 32.128,53.332 32.317,53.106 C32.505,52.881 32.694,52.686 32.883,52.524 L33.53,52.136 C33.664,52.073 33.752,51.96 33.792,51.796 C33.833,51.636 33.921,51.505 34.055,51.409 L34.661,50.827 C34.958,50.568 35.248,50.278 35.53,49.955 C35.814,49.631 36.063,49.316 36.278,49.008 C36.493,48.702 36.602,48.434 36.602,48.207 L36.602,48.111 C36.521,48.046 36.358,47.869 36.116,47.578 C35.873,47.287 35.725,47.092 35.672,46.996 L35.187,45.928 C35.106,45.8 34.91,45.606 34.601,45.347 C34.291,45.088 34.136,44.862 34.136,44.668 C34.136,44.571 34.183,44.466 34.277,44.353 C34.371,44.239 34.46,44.183 34.54,44.183 C34.757,44.183 34.932,44.231 35.065,44.328 L38.622,46.414 L38.663,46.414 C38.823,46.414 38.971,46.309 39.107,46.098 C39.241,45.889 39.391,45.752 39.552,45.686 L40.765,44.183 C40.952,44.085 41.127,43.95 41.29,43.771 C41.45,43.593 41.612,43.407 41.774,43.212 L42.219,42.679 C42.38,42.518 42.543,42.42 42.704,42.388 L43.836,41.03 C43.863,41.096 43.923,41.216 44.018,41.394 C44.112,41.573 44.186,41.694 44.239,41.757 L44.321,41.855 C44.321,41.596 44.388,41.467 44.522,41.467 C44.604,41.467 44.665,41.532 44.704,41.662 C44.745,41.79 44.778,41.945 44.806,42.123 C44.833,42.299 44.846,42.455 44.846,42.582 L44.846,42.873 C44.9,42.938 44.987,43.132 45.109,43.455 C45.231,43.779 45.305,43.989 45.331,44.085 C45.358,44.085 45.372,44.135 45.372,44.231 L45.372,44.474 C45.372,44.83 45.276,45.184 45.089,45.54 C44.9,45.897 44.671,46.228 44.402,46.535 C44.132,46.842 43.856,47.142 43.573,47.431 C43.291,47.723 43.067,47.983 42.906,48.207 L43.027,48.354 C42.974,48.418 42.871,48.54 42.724,48.718 C42.577,48.895 42.427,49.089 42.279,49.299 C42.131,49.51 41.997,49.704 41.875,49.881 C41.755,50.059 41.694,50.165 41.694,50.197 C41.694,50.229 41.707,50.278 41.734,50.342 L41.734,50.488 C41.734,50.52 41.748,50.537 41.774,50.537 L42.302,51.796 C42.38,51.538 42.454,51.288 42.521,51.045 C42.589,50.802 42.649,50.552 42.704,50.293 C42.704,50.39 42.724,50.511 42.765,50.658 C42.806,50.802 42.858,50.949 42.927,51.093 C42.993,51.239 43.061,51.37 43.128,51.482 C43.194,51.595 43.25,51.651 43.291,51.651 C43.33,51.651 43.392,51.636 43.473,51.603 C43.553,51.572 43.607,51.538 43.634,51.505 L43.715,51.505 C43.741,51.572 43.808,51.668 43.916,51.796 L44.239,52.185 C44.347,52.348 44.44,52.493 44.522,52.621 L44.725,52.864 C44.778,52.929 44.853,53.058 44.946,53.252 C45.041,53.445 45.103,53.559 45.13,53.591 C45.13,53.559 45.169,53.591 45.251,53.688 C45.276,53.72 45.305,53.736 45.331,53.736 C45.358,53.736 45.405,53.706 45.472,53.64 C45.539,53.576 45.607,53.518 45.675,53.47 C45.741,53.421 45.911,53.252 46.181,52.961 C46.448,52.67 46.611,52.476 46.664,52.379 C46.72,52.154 46.839,51.911 47.028,51.651 L47.716,50.923 C47.958,50.699 48.194,50.479 48.423,50.269 C48.651,50.059 48.82,49.875 48.929,49.711 L48.808,49.566 C49.345,49.21 49.925,48.919 50.544,48.693 C51.165,48.467 51.784,48.354 52.404,48.354 C52.942,48.354 53.36,48.596 53.656,49.081 C53.952,49.566 54.183,50.149 54.344,50.827 C54.506,51.505 54.612,52.193 54.667,52.888 C54.72,53.584 54.774,54.141 54.829,54.562 C54.936,54.659 55.004,54.771 55.03,54.901 C55.058,55.031 55.071,55.168 55.071,55.313 C55.071,55.458 55.085,55.596 55.112,55.726 C55.138,55.855 55.205,55.968 55.314,56.065 L55.314,56.259 C55.341,56.388 55.354,56.486 55.354,56.55 C55.354,57.034 55.335,57.456 55.294,57.81 C55.253,58.166 55.172,58.474 55.051,58.732 C54.93,58.992 54.761,59.234 54.546,59.46 C54.331,59.686 54.047,59.928 53.697,60.187 C53.588,60.284 53.428,60.349 53.212,60.381 C52.996,60.414 52.848,60.51 52.768,60.672 L52.889,60.817 C52.807,60.979 52.687,61.044 52.524,61.011 C52.362,60.979 52.241,61.044 52.161,61.206 C52.134,61.238 52.107,61.287 52.081,61.351 L52.04,61.399 C52.04,61.432 52.026,61.465 51.999,61.497 L51.96,61.545 L51.879,61.545 C51.851,61.545 51.797,61.529 51.717,61.497 C51.636,61.465 51.581,61.449 51.554,61.449 L51.353,61.449 C51.272,61.481 51.205,61.513 51.151,61.545 C50.773,61.481 50.357,61.408 49.898,61.328 C49.44,61.246 49.01,61.238 48.605,61.302 C48.524,61.142 48.39,61.011 48.201,60.915 L47.796,60.672 C47.878,60.575 47.984,60.495 48.12,60.429 C48.012,60.398 47.911,60.341 47.816,60.26 C47.723,60.18 47.675,60.075 47.675,59.944 C47.675,59.913 47.716,59.823 47.796,59.678 C47.878,59.533 47.958,59.387 48.039,59.242 C48.12,59.096 48.201,58.951 48.281,58.804 C48.362,58.66 48.402,58.563 48.402,58.513 C48.402,58.465 48.375,58.426 48.322,58.392 C48.456,58.199 48.591,57.916 48.726,57.544 C48.861,57.173 48.954,56.921 49.01,56.792 C49.036,56.857 49.103,56.825 49.211,56.695 C49.265,56.664 49.306,56.615 49.333,56.55 C49.413,56.388 49.527,56.17 49.676,55.895 C49.824,55.621 49.911,55.467 49.939,55.434 C49.992,55.305 50.04,55.039 50.081,54.634 C50.12,54.23 50.141,53.963 50.141,53.833 C50.274,53.77 50.357,53.624 50.384,53.397 C50.409,53.172 50.423,52.994 50.423,52.864 C50.423,52.799 50.396,52.767 50.343,52.767 C50.316,52.638 50.282,52.403 50.241,52.064 C50.2,51.725 50.174,51.514 50.162,51.432 C50.147,51.354 50.1,51.262 50.02,51.166 C49.831,51.233 49.608,51.441 49.353,51.796 C49.096,52.154 48.833,52.565 48.565,53.033 C48.294,53.502 48.054,53.963 47.836,54.416 C47.62,54.87 47.474,55.208 47.393,55.434 C47.337,55.596 47.265,55.822 47.17,56.114 C47.075,56.404 46.968,56.704 46.848,57.011 C46.726,57.318 46.597,57.592 46.463,57.835 C46.327,58.078 46.193,58.215 46.058,58.247 C46.004,58.247 45.951,58.239 45.898,58.222 C45.843,58.207 45.802,58.183 45.775,58.151 C45.05,57.989 44.468,57.659 44.038,57.157 C43.607,56.655 43.12,56.081 42.583,55.434 C42.583,55.403 42.569,55.362 42.543,55.313 C42.516,55.263 42.503,55.225 42.503,55.192 C42.475,55.094 42.454,54.893 42.441,54.585 C42.427,54.279 42.407,54.077 42.38,53.979 C42.246,54.27 42.185,54.585 42.198,54.926 C42.213,55.263 42.172,55.604 42.077,55.944 C41.982,56.283 41.882,56.671 41.774,57.107 C41.666,57.544 41.532,57.924 41.37,58.247 C41.343,58.312 41.276,58.442 41.168,58.634 C41.06,58.83 40.993,58.942 40.967,58.975 C40.886,59.234 40.858,59.404 40.886,59.484 C40.911,59.565 40.871,59.686 40.765,59.848 C40.71,59.913 40.616,60.058 40.481,60.284 C40.347,60.51 40.205,60.744 40.057,60.987 C39.909,61.23 39.779,61.456 39.673,61.666 C39.565,61.877 39.524,61.998 39.552,62.03 L39.026,62.661 L38.905,62.661 C38.905,62.532 38.946,62.417 39.026,62.322 C39.107,62.225 39.148,62.111 39.148,61.982 L39.148,61.934 C38.932,62.095 38.709,62.296 38.48,62.54 C38.252,62.782 38.138,63.082 38.138,63.436 C38.138,63.566 38.163,63.664 38.218,63.727 C38.218,63.76 38.204,63.776 38.177,63.776 L38.138,63.727 C38.082,63.696 38.017,63.629 37.937,63.534 L37.813,63.388 C37.787,63.42 37.76,63.485 37.732,63.582 L37.732,63.873 L37.813,63.97 L37.813,64.067 C37.813,64.229 37.76,64.285 37.652,64.237 C37.544,64.188 37.464,64.197 37.409,64.261 C37.383,64.261 37.363,64.31 37.349,64.406 C37.336,64.503 37.315,64.569 37.289,64.6 C37.152,65.085 36.911,65.457 36.561,65.715 C36.211,65.975 35.834,66.104 35.429,66.104 C34.944,66.104 34.493,66 34.076,65.789 C33.657,65.579 33.206,65.505 32.72,65.571 L32.519,65.232 L32.519,65.232 Z M31.913,60.769 C31.887,60.769 31.873,60.786 31.873,60.817 C31.873,60.851 31.887,60.867 31.913,60.867 C31.939,60.867 31.954,60.851 31.954,60.817 C31.954,60.786 31.939,60.769 31.913,60.769 L31.913,60.769 Z M41.573,50.002 C41.547,50.002 41.532,50.028 41.532,50.076 C41.532,50.124 41.552,50.149 41.592,50.149 C41.633,50.149 41.653,50.124 41.653,50.076 C41.653,50.028 41.626,50.002 41.573,50.002 L41.573,50.002 Z M44.321,41.321 C44.375,41.321 44.402,41.346 44.402,41.394 C44.402,41.443 44.381,41.467 44.34,41.467 C44.301,41.467 44.28,41.443 44.28,41.394 C44.28,41.346 44.294,41.321 44.321,41.321 L44.321,41.321 Z" id="Fill-46" fill="#DA302F" sketch:type="MSShapeGroup"></path>
                <path d="M32.519,65.232 L32.519,63.629 C32.788,63.566 32.97,63.357 33.066,63 C33.159,62.644 33.287,62.402 33.448,62.273 C33.475,62.273 33.543,62.241 33.651,62.175 C33.758,62.111 33.833,62.054 33.872,62.005 C33.913,61.957 34.007,61.845 34.156,61.666 C34.304,61.489 34.404,61.367 34.46,61.302 L34.863,61.302 C34.972,61.271 35.052,61.158 35.106,60.963 C35.159,60.769 35.207,60.648 35.248,60.599 C35.287,60.551 35.349,60.495 35.429,60.429 C35.511,60.366 35.565,60.331 35.591,60.331 C35.725,60.171 35.826,59.986 35.895,59.775 C35.962,59.565 36.063,59.379 36.198,59.218 C36.223,59.186 36.285,59.096 36.379,58.951 C36.474,58.804 36.575,58.643 36.682,58.465 C36.79,58.288 36.904,58.11 37.025,57.932 C37.147,57.755 37.234,57.617 37.289,57.519 C37.423,57.359 37.497,57.197 37.511,57.034 C37.524,56.873 37.558,56.711 37.612,56.55 C37.638,56.55 37.652,56.535 37.652,56.501 C37.652,56.468 37.665,56.438 37.692,56.404 C37.72,56.373 37.76,56.34 37.813,56.307 C38.002,56.016 38.13,55.645 38.197,55.192 C38.265,54.739 38.34,54.335 38.42,53.979 C38.394,53.882 38.325,53.833 38.218,53.833 C38.002,53.833 37.794,53.979 37.593,54.27 C37.39,54.562 37.193,54.788 37.005,54.95 L34.136,58.247 L34.136,58.925 C34.081,58.925 34.042,58.894 34.014,58.83 L33.935,58.634 C33.798,58.701 33.705,58.774 33.651,58.854 C33.597,58.935 33.564,59.032 33.55,59.145 C33.536,59.258 33.516,59.379 33.489,59.508 C33.462,59.637 33.409,59.75 33.329,59.848 C33.193,60.01 33.058,60.09 32.924,60.09 C32.788,60.09 32.654,60.123 32.519,60.187 C32.277,60.349 32.128,60.558 32.075,60.817 C32.021,61.077 31.927,61.238 31.792,61.302 C31.712,61.335 31.61,61.351 31.489,61.351 C31.368,61.351 31.267,61.383 31.186,61.449 C31.05,61.545 30.889,61.683 30.7,61.859 C30.511,62.038 30.317,62.216 30.114,62.394 C29.912,62.572 29.704,62.717 29.488,62.83 C29.272,62.944 29.07,63 28.882,63 C28.748,63 28.7,62.887 28.741,62.661 C28.781,62.434 28.801,62.305 28.801,62.273 L28.276,62.273 L28.276,61.934 L27.831,61.545 L27.831,61.302 C27.75,61.271 27.649,61.238 27.528,61.206 C27.407,61.174 27.306,61.125 27.226,61.06 C27.306,61.028 27.347,60.939 27.347,60.793 C27.347,60.648 27.306,60.446 27.226,60.187 C27.146,60.349 27.036,60.429 26.901,60.429 C26.821,60.462 26.767,60.446 26.74,60.381 C26.714,60.317 26.685,60.236 26.66,60.139 C26.632,60.04 26.619,59.944 26.619,59.848 L26.619,59.702 C26.699,59.669 26.746,59.574 26.761,59.411 C26.773,59.25 26.794,59.152 26.821,59.12 C26.874,59.023 26.989,58.79 27.164,58.417 C27.339,58.046 27.474,57.771 27.569,57.592 C27.663,57.415 27.777,57.333 27.912,57.349 C28.046,57.367 28.194,57.294 28.357,57.132 C28.384,57.1 28.41,57.052 28.438,56.986 C28.491,56.857 28.532,56.792 28.559,56.792 L28.761,56.792 C29.139,56.631 29.461,56.373 29.73,56.016 C30,55.662 30.324,55.385 30.7,55.192 L30.7,54.853 C30.7,54.821 30.762,54.739 30.883,54.61 C31.004,54.481 31.106,54.383 31.186,54.319 C31.401,54.158 31.597,53.972 31.772,53.761 C31.946,53.551 32.128,53.332 32.317,53.106 C32.505,52.881 32.694,52.686 32.883,52.524 L33.53,52.136 C33.664,52.073 33.752,51.96 33.792,51.796 C33.833,51.636 33.921,51.505 34.055,51.409 L34.661,50.827 C34.958,50.568 35.248,50.278 35.53,49.955 C35.814,49.631 36.063,49.316 36.278,49.008 C36.493,48.702 36.602,48.434 36.602,48.207 L36.602,48.111 C36.521,48.046 36.358,47.869 36.116,47.578 C35.873,47.287 35.725,47.092 35.672,46.996 L35.187,45.928 C35.106,45.8 34.91,45.606 34.601,45.347 C34.291,45.088 34.136,44.862 34.136,44.668 C34.136,44.571 34.183,44.466 34.277,44.353 C34.371,44.239 34.46,44.183 34.54,44.183 C34.757,44.183 34.932,44.231 35.065,44.328 L38.622,46.414 L38.663,46.414 C38.823,46.414 38.971,46.309 39.107,46.098 C39.241,45.889 39.391,45.752 39.552,45.686 L40.765,44.183 C40.952,44.085 41.127,43.95 41.29,43.771 C41.45,43.593 41.612,43.407 41.774,43.212 L42.219,42.679 C42.38,42.518 42.543,42.42 42.704,42.388 L43.836,41.03 C43.863,41.096 43.923,41.216 44.018,41.394 C44.112,41.573 44.186,41.694 44.239,41.757 L44.321,41.855 C44.321,41.596 44.388,41.467 44.522,41.467 C44.604,41.467 44.665,41.532 44.704,41.662 C44.745,41.79 44.778,41.945 44.806,42.123 C44.833,42.299 44.846,42.455 44.846,42.582 L44.846,42.873 C44.9,42.938 44.987,43.132 45.109,43.455 C45.231,43.779 45.305,43.989 45.331,44.085 C45.358,44.085 45.372,44.135 45.372,44.231 L45.372,44.474 C45.372,44.83 45.276,45.184 45.089,45.54 C44.9,45.897 44.671,46.228 44.402,46.535 C44.132,46.842 43.856,47.142 43.573,47.431 C43.291,47.723 43.067,47.983 42.906,48.207 L43.027,48.354 C42.974,48.418 42.871,48.54 42.724,48.718 C42.577,48.895 42.427,49.089 42.279,49.299 C42.131,49.51 41.997,49.704 41.875,49.881 C41.755,50.059 41.694,50.165 41.694,50.197 C41.694,50.229 41.707,50.278 41.734,50.342 L41.734,50.488 C41.734,50.52 41.748,50.537 41.774,50.537 L42.302,51.796 C42.38,51.538 42.454,51.288 42.521,51.045 C42.589,50.802 42.649,50.552 42.704,50.293 C42.704,50.39 42.724,50.511 42.765,50.658 C42.806,50.802 42.858,50.949 42.927,51.093 C42.993,51.239 43.061,51.37 43.128,51.482 C43.194,51.595 43.25,51.651 43.291,51.651 C43.33,51.651 43.392,51.636 43.473,51.603 C43.553,51.572 43.607,51.538 43.634,51.505 L43.715,51.505 C43.741,51.572 43.808,51.668 43.916,51.796 L44.239,52.185 C44.347,52.348 44.44,52.493 44.522,52.621 L44.725,52.864 C44.778,52.929 44.853,53.058 44.946,53.252 C45.041,53.445 45.103,53.559 45.13,53.591 C45.13,53.559 45.169,53.591 45.251,53.688 C45.276,53.72 45.305,53.736 45.331,53.736 C45.358,53.736 45.405,53.706 45.472,53.64 C45.539,53.576 45.607,53.518 45.675,53.47 C45.741,53.421 45.911,53.252 46.181,52.961 C46.448,52.67 46.611,52.476 46.664,52.379 C46.72,52.154 46.839,51.911 47.028,51.651 L47.716,50.923 C47.958,50.699 48.194,50.479 48.423,50.269 C48.651,50.059 48.82,49.875 48.929,49.711 L48.808,49.566 C49.345,49.21 49.925,48.919 50.544,48.693 C51.165,48.467 51.784,48.354 52.404,48.354 C52.942,48.354 53.36,48.596 53.656,49.081 C53.952,49.566 54.183,50.149 54.344,50.827 C54.506,51.505 54.612,52.193 54.667,52.888 C54.72,53.584 54.774,54.141 54.829,54.562 C54.936,54.659 55.004,54.771 55.03,54.901 C55.058,55.031 55.071,55.168 55.071,55.313 C55.071,55.458 55.085,55.596 55.112,55.726 C55.138,55.855 55.205,55.968 55.314,56.065 L55.314,56.259 C55.341,56.388 55.354,56.486 55.354,56.55 C55.354,57.034 55.335,57.456 55.294,57.81 C55.253,58.166 55.172,58.474 55.051,58.732 C54.93,58.992 54.761,59.234 54.546,59.46 C54.331,59.686 54.047,59.928 53.697,60.187 C53.588,60.284 53.428,60.349 53.212,60.381 C52.996,60.414 52.848,60.51 52.768,60.672 L52.889,60.817 C52.807,60.979 52.687,61.044 52.524,61.011 C52.362,60.979 52.241,61.044 52.161,61.206 C52.134,61.238 52.107,61.287 52.081,61.351 L52.04,61.399 C52.04,61.432 52.026,61.465 51.999,61.497 L51.96,61.545 L51.879,61.545 C51.851,61.545 51.797,61.529 51.717,61.497 C51.636,61.465 51.581,61.449 51.554,61.449 L51.353,61.449 C51.272,61.481 51.205,61.513 51.151,61.545 C50.773,61.481 50.357,61.408 49.898,61.328 C49.44,61.246 49.01,61.238 48.605,61.302 C48.524,61.142 48.39,61.011 48.201,60.915 L47.796,60.672 C47.878,60.575 47.984,60.495 48.12,60.429 C48.012,60.398 47.911,60.341 47.816,60.26 C47.723,60.18 47.675,60.075 47.675,59.944 C47.675,59.913 47.716,59.823 47.796,59.678 C47.878,59.533 47.958,59.387 48.039,59.242 C48.12,59.096 48.201,58.951 48.281,58.804 C48.362,58.66 48.402,58.563 48.402,58.513 C48.402,58.465 48.375,58.426 48.322,58.392 C48.456,58.199 48.591,57.916 48.726,57.544 C48.861,57.173 48.954,56.921 49.01,56.792 C49.036,56.857 49.103,56.825 49.211,56.695 C49.265,56.664 49.306,56.615 49.333,56.55 C49.413,56.388 49.527,56.17 49.676,55.895 C49.824,55.621 49.911,55.467 49.939,55.434 C49.992,55.305 50.04,55.039 50.081,54.634 C50.12,54.23 50.141,53.963 50.141,53.833 C50.274,53.77 50.357,53.624 50.384,53.397 C50.409,53.172 50.423,52.994 50.423,52.864 C50.423,52.799 50.396,52.767 50.343,52.767 C50.316,52.638 50.282,52.403 50.241,52.064 C50.2,51.725 50.174,51.514 50.162,51.432 C50.147,51.354 50.1,51.262 50.02,51.166 C49.831,51.233 49.608,51.441 49.353,51.796 C49.096,52.154 48.833,52.565 48.565,53.033 C48.294,53.502 48.054,53.963 47.836,54.416 C47.62,54.87 47.474,55.208 47.393,55.434 C47.337,55.596 47.265,55.822 47.17,56.114 C47.075,56.404 46.968,56.704 46.848,57.011 C46.726,57.318 46.597,57.592 46.463,57.835 C46.327,58.078 46.193,58.215 46.058,58.247 C46.004,58.247 45.951,58.239 45.898,58.222 C45.843,58.207 45.802,58.183 45.775,58.151 C45.05,57.989 44.468,57.659 44.038,57.157 C43.607,56.655 43.12,56.081 42.583,55.434 C42.583,55.403 42.569,55.362 42.543,55.313 C42.516,55.263 42.503,55.225 42.503,55.192 C42.475,55.094 42.454,54.893 42.441,54.585 C42.427,54.279 42.407,54.077 42.38,53.979 C42.246,54.27 42.185,54.585 42.198,54.926 C42.213,55.263 42.172,55.604 42.077,55.944 C41.982,56.283 41.882,56.671 41.774,57.107 C41.666,57.544 41.532,57.924 41.37,58.247 C41.343,58.312 41.276,58.442 41.168,58.634 C41.06,58.83 40.993,58.942 40.967,58.975 C40.886,59.234 40.858,59.404 40.886,59.484 C40.911,59.565 40.871,59.686 40.765,59.848 C40.71,59.913 40.616,60.058 40.481,60.284 C40.347,60.51 40.205,60.744 40.057,60.987 C39.909,61.23 39.779,61.456 39.673,61.666 C39.565,61.877 39.524,61.998 39.552,62.03 L39.026,62.661 L38.905,62.661 C38.905,62.532 38.946,62.417 39.026,62.322 C39.107,62.225 39.148,62.111 39.148,61.982 L39.148,61.934 C38.932,62.095 38.709,62.296 38.48,62.54 C38.252,62.782 38.138,63.082 38.138,63.436 C38.138,63.566 38.163,63.664 38.218,63.727 C38.218,63.76 38.204,63.776 38.177,63.776 L38.138,63.727 C38.082,63.696 38.017,63.629 37.937,63.534 L37.813,63.388 C37.787,63.42 37.76,63.485 37.732,63.582 L37.732,63.873 L37.813,63.97 L37.813,64.067 C37.813,64.229 37.76,64.285 37.652,64.237 C37.544,64.188 37.464,64.197 37.409,64.261 C37.383,64.261 37.363,64.31 37.349,64.406 C37.336,64.503 37.315,64.569 37.289,64.6 C37.152,65.085 36.911,65.457 36.561,65.715 C36.211,65.975 35.834,66.104 35.429,66.104 C34.944,66.104 34.493,66 34.076,65.789 C33.657,65.579 33.206,65.505 32.72,65.571 L32.519,65.232 L32.519,65.232 Z M31.913,60.769 C31.887,60.769 31.873,60.786 31.873,60.817 C31.873,60.851 31.887,60.867 31.913,60.867 C31.939,60.867 31.954,60.851 31.954,60.817 C31.954,60.786 31.939,60.769 31.913,60.769 L31.913,60.769 Z M41.573,50.002 C41.547,50.002 41.532,50.028 41.532,50.076 C41.532,50.124 41.552,50.149 41.592,50.149 C41.633,50.149 41.653,50.124 41.653,50.076 C41.653,50.028 41.626,50.002 41.573,50.002 L41.573,50.002 Z M44.321,41.321 C44.375,41.321 44.402,41.346 44.402,41.394 C44.402,41.443 44.381,41.467 44.34,41.467 C44.301,41.467 44.28,41.443 44.28,41.394 C44.28,41.346 44.294,41.321 44.321,41.321 L44.321,41.321 Z" id="Stroke-47" stroke="#FFFFFF" sketch:type="MSShapeGroup"></path>
                <path d="M56.573,70.3 C56.573,70.213 56.609,70.121 56.681,70.018 C56.753,69.917 56.829,69.868 56.916,69.868 C57,69.868 57.076,69.939 57.149,70.084 C57.076,69.881 57.07,69.731 57.132,69.63 C57.191,69.529 57.275,69.45 57.383,69.393 C57.491,69.334 57.605,69.298 57.725,69.286 C57.845,69.27 57.929,69.234 57.978,69.177 C58.073,69.061 58.133,68.889 58.157,68.659 C58.18,68.428 58.192,68.271 58.192,68.183 L58.337,68.097 C58.385,68.068 58.433,68.025 58.481,67.967 C58.913,67.651 59.267,67.262 59.543,66.802 C59.818,66.34 60.052,65.822 60.243,65.247 L60.389,64.901 L60.496,64.772 C60.52,64.772 60.544,64.764 60.568,64.749 C60.591,64.736 60.627,64.67 60.677,64.554 C60.724,64.382 60.766,64.181 60.802,63.951 C60.838,63.721 60.929,63.562 61.073,63.475 L61.073,62.482 C60.977,62.482 60.844,62.497 60.677,62.526 C60.507,62.554 60.37,62.597 60.262,62.655 C60.155,62.713 60.07,62.778 60.011,62.849 C59.95,62.922 59.866,62.956 59.759,62.956 C59.65,62.956 59.561,62.929 59.489,62.871 L58.157,62.871 C57.964,62.698 57.773,62.619 57.581,62.633 C57.389,62.648 57.196,62.625 57.006,62.569 C56.934,62.54 56.825,62.475 56.681,62.375 C56.537,62.274 56.405,62.158 56.286,62.028 C56.165,61.899 56.057,61.769 55.961,61.639 C55.864,61.509 55.817,61.423 55.817,61.38 C55.817,61.337 55.829,61.281 55.853,61.207 C55.876,61.137 55.89,61.086 55.89,61.057 C55.938,60.97 56.003,60.848 56.087,60.69 C56.171,60.532 56.225,60.452 56.25,60.452 L57.401,60.064 C57.473,59.949 57.599,59.826 57.778,59.696 C57.958,59.567 58.157,59.444 58.372,59.33 C58.589,59.214 58.799,59.121 59.003,59.049 C59.206,58.977 59.374,58.913 59.506,58.854 C59.638,58.796 59.759,58.697 59.866,58.552 C59.974,58.408 60.1,58.336 60.243,58.336 L60.243,58.422 C60.437,58.422 60.579,58.373 60.677,58.27 C60.772,58.171 60.905,58.09 61.073,58.033 C61.312,57.947 61.54,57.875 61.755,57.816 C61.972,57.76 62.08,57.53 62.08,57.126 C62.08,57.011 62.031,56.954 61.935,56.954 C61.768,56.954 61.618,57.018 61.485,57.148 C61.355,57.277 61.216,57.314 61.073,57.255 C60.712,57.487 60.382,57.724 60.083,57.968 C59.782,58.214 59.422,58.336 59.003,58.336 C58.582,58.336 58.233,58.114 57.958,57.667 C57.683,57.22 57.545,56.782 57.545,56.349 C57.545,56.206 57.647,56.011 57.852,55.765 C58.054,55.521 58.216,55.341 58.337,55.226 C58.408,55.168 58.505,55.075 58.625,54.945 C58.744,54.816 58.815,54.75 58.841,54.75 L58.913,54.75 L58.913,55.14 C59.032,55.082 59.141,55.009 59.237,54.923 C59.332,54.837 59.44,54.78 59.561,54.75 C59.608,54.722 59.687,54.715 59.794,54.729 C59.903,54.744 59.968,54.75 59.992,54.75 L60.243,54.449 C60.34,54.275 60.447,54.174 60.568,54.146 C60.688,54.118 60.748,54.074 60.748,54.016 L60.64,54.016 C60.64,53.959 60.688,53.894 60.784,53.823 C60.88,53.75 60.987,53.678 61.108,53.607 C61.229,53.535 61.336,53.442 61.433,53.326 C61.528,53.21 61.575,53.088 61.575,52.958 C61.575,52.83 61.552,52.75 61.504,52.72 C60.953,52.779 60.503,52.634 60.155,52.288 C59.807,51.943 59.476,51.526 59.164,51.036 C59.141,50.633 59.074,50.252 58.967,49.892 C58.858,49.532 58.805,49.151 58.805,48.747 C58.805,48.603 58.913,48.532 59.128,48.532 C59.248,48.532 59.362,48.596 59.471,48.725 C59.577,48.855 59.692,48.892 59.813,48.833 L60.929,50.129 L61.036,50.129 C61.372,50.129 61.708,49.957 62.044,49.611 C62.38,49.265 62.71,48.871 63.034,48.423 C63.358,47.977 63.67,47.531 63.97,47.085 C64.269,46.638 64.564,46.314 64.851,46.113 L65.032,45.896 C65.128,45.839 65.212,45.811 65.283,45.811 C65.595,45.811 65.89,45.948 66.165,46.22 C66.441,46.495 66.682,46.839 66.885,47.258 C67.089,47.674 67.244,48.106 67.353,48.553 C67.461,48.999 67.515,49.395 67.515,49.741 L67.515,50.129 C67.515,50.158 67.496,50.208 67.461,50.28 C67.425,50.352 67.412,50.41 67.425,50.453 C67.438,50.496 67.564,50.547 67.803,50.605 C68.042,50.663 68.198,50.763 68.271,50.907 C68.343,51.05 68.444,51.251 68.576,51.512 C68.708,51.77 68.775,52 68.775,52.203 C68.775,52.404 68.576,52.641 68.181,52.915 C67.784,53.19 67.34,53.469 66.849,53.758 C66.356,54.045 65.907,54.326 65.5,54.6 C65.092,54.875 64.869,55.125 64.834,55.356 C64.798,55.585 64.847,55.723 64.978,55.765 C65.109,55.809 65.247,55.831 65.392,55.831 C65.608,55.831 65.775,55.774 65.896,55.658 C66.015,55.543 66.123,55.42 66.219,55.291 C66.315,55.161 66.423,55.04 66.542,54.923 C66.662,54.808 66.843,54.75 67.084,54.75 C67.155,54.75 67.292,54.832 67.496,54.988 C67.7,55.147 67.91,55.333 68.127,55.55 C68.343,55.765 68.534,55.968 68.702,56.155 C68.87,56.341 68.955,56.45 68.955,56.478 C68.955,56.709 68.905,56.861 68.812,56.932 C68.716,57.004 68.62,57.112 68.522,57.255 C68.403,57.457 68.355,57.573 68.379,57.601 C68.403,57.63 68.343,57.717 68.198,57.861 C68.006,58.005 67.809,58.141 67.605,58.27 C67.401,58.4 67.204,58.552 67.011,58.724 L66.867,58.897 C66.817,58.983 66.782,59.035 66.759,59.049 C66.735,59.063 66.651,59.056 66.507,59.026 L66.256,59.026 C66.135,59.056 66.039,59.128 65.968,59.242 C65.896,59.358 65.8,59.387 65.68,59.33 C65.608,59.387 65.487,59.517 65.319,59.717 C65.15,59.92 65.042,60.064 64.995,60.15 C64.851,60.466 64.785,60.848 64.798,61.293 C64.809,61.741 64.791,62.123 64.743,62.439 C64.695,62.929 64.611,63.375 64.491,63.779 C64.372,64.181 64.24,64.614 64.097,65.074 C64.047,65.218 64.017,65.383 64.005,65.571 C63.993,65.757 63.963,65.922 63.917,66.067 C63.794,66.585 63.543,67.075 63.159,67.535 C62.776,67.997 62.44,68.415 62.151,68.788 C61.648,69.42 61.175,69.875 60.729,70.149 C60.286,70.422 59.669,70.559 58.876,70.559 C58.612,70.559 58.36,70.53 58.121,70.472 C57.882,70.414 57.641,70.386 57.401,70.386 C57.28,70.386 57.18,70.436 57.096,70.537 C57.011,70.637 56.909,70.688 56.789,70.688 C56.717,70.688 56.663,70.637 56.627,70.537 C56.591,70.436 56.573,70.357 56.573,70.3 L56.573,70.3 Z M57.149,46.717 C57.101,46.775 57.034,46.747 56.95,46.631 C56.865,46.516 56.825,46.415 56.825,46.329 L56.825,45.896 C56.825,45.752 56.885,45.653 57.006,45.594 C57.34,45.45 57.658,45.393 57.958,45.421 C58.259,45.45 58.576,45.421 58.913,45.335 C59.032,45.278 59.212,45.213 59.453,45.141 C59.692,45.069 59.872,44.991 59.992,44.903 C60.017,44.903 60.064,44.868 60.136,44.795 C60.209,44.723 60.268,44.659 60.315,44.601 C60.484,44.457 60.64,44.4 60.784,44.427 C60.929,44.457 61.085,44.414 61.253,44.297 C61.349,44.242 61.516,44.154 61.755,44.04 C61.995,43.925 62.235,43.788 62.477,43.628 C62.716,43.471 62.926,43.305 63.105,43.132 C63.285,42.96 63.375,42.786 63.375,42.614 C63.496,42.614 63.628,42.592 63.772,42.549 C63.917,42.505 63.987,42.384 63.987,42.182 C63.867,42.182 63.772,42.154 63.701,42.096 C63.628,42.038 63.53,42.008 63.412,42.008 L63.339,42.008 L63.088,42.527 L63.016,42.527 L63.016,42.312 L62.908,42.312 C62.884,42.312 62.841,42.328 62.782,42.355 C62.721,42.384 62.679,42.398 62.656,42.398 C62.631,41.419 62.524,40.426 62.331,39.417 C62.261,39.361 62.17,39.202 62.062,38.943 C61.954,38.683 61.899,38.497 61.899,38.381 L61.899,37.993 C61.923,37.964 61.948,37.884 61.972,37.754 C61.995,37.626 62.009,37.546 62.009,37.518 C62.009,37.489 61.995,37.446 61.972,37.388 C61.948,37.331 61.923,37.301 61.899,37.301 L61.899,37.085 C61.899,36.884 61.979,36.784 62.134,36.784 C62.29,36.784 62.495,36.876 62.746,37.064 C62.998,37.251 63.255,37.46 63.519,37.69 C63.783,37.921 64.035,38.151 64.276,38.381 C64.516,38.613 64.707,38.785 64.851,38.899 L65.247,39.159 C65.487,39.274 65.631,39.361 65.68,39.417 C65.823,39.503 65.968,39.72 66.111,40.066 C66.256,40.412 66.327,40.686 66.327,40.886 C66.327,40.945 66.291,41.052 66.219,41.209 C66.148,41.369 66.069,41.52 65.985,41.664 C65.9,41.808 65.812,41.931 65.716,42.03 C65.618,42.132 65.547,42.154 65.5,42.096 C65.547,42.154 65.618,42.268 65.716,42.441 C65.812,42.614 65.907,42.801 66.003,43.002 L66.256,43.608 C66.327,43.809 66.362,43.925 66.362,43.953 C66.362,44.098 66.303,44.234 66.183,44.364 C66.064,44.493 65.985,44.572 65.949,44.601 C65.913,44.629 65.823,44.665 65.68,44.708 C65.536,44.751 65.451,44.788 65.427,44.817 C65.331,44.875 65.302,44.918 65.337,44.946 C65.373,44.976 65.343,45.032 65.247,45.12 C65.224,45.148 65.157,45.184 65.05,45.227 C64.941,45.27 64.875,45.299 64.851,45.314 C64.827,45.328 64.798,45.364 64.761,45.421 C64.726,45.479 64.695,45.507 64.671,45.507 L63.917,46.113 C63.844,46.055 63.777,46.091 63.718,46.22 C63.657,46.35 63.592,46.386 63.519,46.329 C63.327,46.443 63.081,46.603 62.782,46.804 C62.481,47.005 62.164,47.207 61.827,47.408 C61.492,47.61 61.169,47.783 60.857,47.926 C60.544,48.071 60.292,48.143 60.1,48.143 C60.028,48.143 59.986,48.135 59.974,48.121 C59.962,48.106 59.914,48.084 59.83,48.055 C59.747,48.027 59.692,48.014 59.669,48.014 C59.645,48.014 59.549,48.043 59.38,48.1 L58.984,48.229 L58.841,48.316 L58.769,48.316 C58.72,48.316 58.648,48.273 58.552,48.185 L58.337,48.014 L57.149,46.717 L57.149,46.717 Z M58.66,55.226 C58.589,55.284 58.499,55.341 58.392,55.399 C58.282,55.457 58.229,55.543 58.229,55.658 C58.325,55.658 58.421,55.629 58.517,55.572 C58.612,55.514 58.66,55.414 58.66,55.27 L58.66,55.226 L58.66,55.226 Z M62.151,51.684 L62.151,51.857 C62.151,51.943 62.182,51.995 62.241,52.009 C62.302,52.023 62.331,51.943 62.331,51.77 C62.331,51.684 62.319,51.612 62.296,51.555 L62.44,51.555 C62.536,51.583 62.62,51.612 62.692,51.641 C62.765,51.669 62.818,51.713 62.855,51.77 C62.89,51.828 62.884,51.885 62.836,51.943 C62.956,51.885 63.088,51.749 63.232,51.534 C63.375,51.318 63.514,51.08 63.646,50.821 C63.777,50.561 63.898,50.309 64.005,50.065 C64.114,49.82 64.192,49.64 64.24,49.526 L64.42,49.611 C64.564,49.323 64.659,48.984 64.707,48.596 C64.755,48.207 64.779,47.84 64.779,47.494 C64.779,47.466 64.767,47.436 64.743,47.408 L64.743,47.235 C64.743,47.149 64.719,47.106 64.671,47.106 C64.527,47.106 64.378,47.258 64.221,47.56 C64.065,47.862 63.963,48.043 63.917,48.1 C63.867,48.215 63.747,48.438 63.555,48.768 C63.363,49.1 63.159,49.454 62.944,49.827 L62.403,50.95 C62.235,51.294 62.151,51.54 62.151,51.684 L62.151,51.684 Z M74.355,68.571 C74.209,68.342 74.138,68.082 74.138,67.795 C74.138,67.507 74.077,67.262 73.958,67.061 C73.909,66.745 73.856,66.305 73.796,65.743 C73.735,65.181 73.706,64.714 73.706,64.339 L73.778,64.252 L73.778,64.124 C73.778,64.096 73.771,64.001 73.76,63.843 C73.747,63.685 73.73,63.518 73.706,63.346 C73.682,63.173 73.652,63.015 73.616,62.871 C73.58,62.727 73.537,62.655 73.49,62.655 L73.454,62.655 C73.383,62.713 73.239,62.877 73.022,63.152 C72.806,63.425 72.667,63.599 72.608,63.67 C72.549,63.743 72.523,63.793 72.536,63.822 C72.549,63.85 72.518,63.893 72.446,63.951 C72.374,64.008 72.23,64.109 72.015,64.252 C71.799,64.398 71.666,64.499 71.618,64.554 L71.51,64.554 C71.414,64.554 71.354,64.541 71.33,64.512 L71.077,64.512 C71.077,64.541 71.09,64.57 71.113,64.598 C71.138,64.627 71.102,64.642 71.006,64.642 L70.862,64.554 C70.718,64.499 70.599,64.469 70.501,64.469 C70.479,64.469 70.399,64.512 70.268,64.598 C70.136,64.685 70.059,64.743 70.034,64.772 C69.77,64.858 69.446,64.929 69.063,64.987 C68.679,65.044 68.343,65.074 68.056,65.074 C67.935,65.074 67.755,65.03 67.515,64.944 C67.275,64.858 67.028,64.749 66.777,64.621 C66.525,64.49 66.303,64.339 66.111,64.166 C65.919,63.994 65.823,63.806 65.823,63.606 C65.823,63.518 65.848,63.461 65.896,63.432 L66.075,63.432 C66.219,63.432 66.362,63.461 66.507,63.518 C66.651,63.576 66.795,63.621 66.939,63.648 C66.939,63.59 67.022,63.497 67.191,63.368 C67.358,63.238 67.545,63.109 67.749,62.979 C67.952,62.849 68.146,62.727 68.325,62.612 C68.505,62.497 68.62,62.411 68.666,62.352 C68.787,62.265 68.931,62.209 69.099,62.18 C69.267,62.152 69.41,62.109 69.531,62.049 C69.554,62.049 69.59,62.006 69.639,61.92 L69.782,61.748 C69.927,61.604 70.106,61.503 70.321,61.446 C70.538,61.388 70.712,61.323 70.845,61.25 C70.975,61.18 71.126,61.049 71.293,60.863 C71.461,60.676 71.63,60.466 71.799,60.236 C71.966,60.006 72.116,59.782 72.248,59.567 C72.38,59.351 72.47,59.171 72.518,59.026 L72.518,58.724 C72.542,58.697 72.565,58.681 72.589,58.681 C72.661,58.681 72.697,58.666 72.697,58.638 C72.841,58.322 72.896,58.126 72.86,58.055 C72.824,57.983 72.806,57.789 72.806,57.472 L72.771,57.428 C72.771,57.457 72.757,57.493 72.734,57.538 C72.709,57.581 72.697,57.617 72.697,57.645 C72.602,57.444 72.47,57.342 72.302,57.342 L71.799,57.342 C71.63,57.342 71.481,57.358 71.349,57.385 C71.216,57.415 71.077,57.428 70.934,57.428 C70.718,57.428 70.567,57.342 70.484,57.169 C70.399,56.997 70.358,56.795 70.358,56.566 C70.358,56.249 70.388,55.924 70.448,55.593 C70.508,55.262 70.538,54.939 70.538,54.622 C70.538,54.478 70.508,54.377 70.448,54.319 C70.388,54.261 70.358,54.174 70.358,54.06 L70.358,53.93 C70.358,53.873 70.37,53.707 70.395,53.433 C70.419,53.16 70.431,52.988 70.431,52.915 C70.431,52.842 70.424,52.665 70.413,52.375 C70.399,52.088 70.382,51.9 70.358,51.814 C70.358,51.785 70.328,51.692 70.268,51.534 C70.208,51.375 70.179,51.267 70.179,51.208 L70.179,50.821 C70.179,50.763 70.172,50.625 70.16,50.41 C70.148,50.194 70.13,49.957 70.106,49.697 L70.034,49.005 L70.034,48.575 C70.034,48.229 70.07,47.884 70.142,47.537 C70.215,47.192 70.442,47.019 70.826,47.019 L70.862,47.019 C71.149,47.308 71.349,47.581 71.456,47.84 C71.563,48.1 71.823,48.229 72.23,48.229 C72.638,48.229 72.901,48.106 73.022,47.862 C73.142,47.618 73.203,47.278 73.203,46.847 C73.203,46.587 73.195,46.366 73.184,46.177 C73.172,45.991 73.142,45.739 73.094,45.421 C72.974,45.479 72.89,45.45 72.841,45.335 C72.794,45.479 72.703,45.543 72.573,45.53 C72.439,45.515 72.313,45.537 72.194,45.594 C72.146,45.623 72.043,45.696 71.888,45.811 C71.732,45.926 71.644,45.998 71.618,46.027 L71.546,46.027 C71.546,45.969 71.528,45.912 71.492,45.853 C71.456,45.796 71.439,45.739 71.439,45.68 C71.439,45.623 71.45,45.567 71.474,45.507 C71.497,45.45 71.51,45.393 71.51,45.335 C71.366,45.335 71.24,45.385 71.133,45.486 C71.024,45.586 70.91,45.637 70.79,45.637 C70.671,45.637 70.491,45.58 70.251,45.464 C70.011,45.35 69.77,45.199 69.531,45.01 C69.29,44.824 69.087,44.623 68.919,44.407 C68.75,44.19 68.666,43.996 68.666,43.824 C68.666,43.651 68.702,43.55 68.775,43.52 C69.374,43.29 69.969,43.104 70.556,42.96 C71.145,42.816 71.713,42.527 72.267,42.096 C72.577,42.182 72.771,42.067 72.841,41.749 C72.914,41.434 72.95,41.145 72.95,40.886 C72.95,40.771 72.933,40.613 72.896,40.412 C72.86,40.21 72.824,39.995 72.788,39.764 C72.753,39.534 72.697,39.317 72.626,39.116 L72.518,38.597 C72.47,38.424 72.416,38.288 72.356,38.187 C72.296,38.086 72.267,37.936 72.267,37.733 L72.267,37.69 C72.29,37.632 72.308,37.518 72.319,37.345 C72.332,37.171 72.35,37.056 72.374,36.998 C72.47,36.971 72.529,36.956 72.554,36.956 L72.661,36.827 C72.686,36.797 72.745,36.754 72.841,36.697 C72.89,36.668 72.95,36.647 73.022,36.631 C73.094,36.618 73.152,36.611 73.203,36.611 C73.296,36.582 73.447,36.553 73.652,36.525 C73.856,36.496 73.982,36.481 74.029,36.481 C74.341,36.481 74.581,36.639 74.749,36.956 C74.917,37.273 75.049,37.647 75.146,38.08 C75.241,38.51 75.313,38.936 75.361,39.353 C75.409,39.771 75.47,40.08 75.541,40.281 C75.541,40.311 75.565,40.325 75.613,40.325 L75.685,40.325 C75.805,40.325 75.864,40.311 75.864,40.281 C75.913,40.281 76.01,40.238 76.153,40.152 C76.298,40.066 76.393,40.022 76.442,40.022 C77.017,39.965 77.508,40.161 77.917,40.606 C78.325,41.052 78.528,41.621 78.528,42.312 C78.528,42.398 78.487,42.499 78.401,42.614 C78.317,42.729 78.222,42.852 78.115,42.981 C78.007,43.111 77.887,43.234 77.755,43.349 C77.623,43.463 77.521,43.55 77.449,43.608 C77.378,43.665 77.227,43.751 76.999,43.867 C76.771,43.982 76.622,44.069 76.549,44.125 C76.356,44.04 76.148,44.111 75.92,44.342 C75.69,44.572 75.529,44.759 75.434,44.903 L75.541,45.032 C75.47,45.032 75.434,45.09 75.434,45.206 L75.434,45.335 C75.434,45.364 75.445,45.378 75.47,45.378 L75.505,45.378 C75.505,45.407 75.517,45.421 75.541,45.421 L75.613,45.507 C75.613,45.537 75.601,45.573 75.577,45.616 C75.553,45.66 75.535,45.702 75.523,45.745 C75.511,45.788 75.493,45.853 75.47,45.94 C75.445,46.027 75.434,46.083 75.434,46.113 C75.434,46.199 75.482,46.242 75.577,46.242 C75.673,46.242 75.8,46.193 75.956,46.091 C76.111,45.991 76.267,45.875 76.423,45.745 C76.579,45.616 76.73,45.486 76.873,45.357 C77.017,45.227 77.125,45.12 77.196,45.032 C77.269,44.946 77.407,44.875 77.611,44.817 C77.814,44.759 78.036,44.703 78.277,44.644 L78.961,44.558 C79.177,44.529 79.343,44.514 79.464,44.514 C79.73,44.514 79.921,44.708 80.04,45.098 C80.16,45.486 80.22,45.818 80.22,46.091 C80.22,46.366 80.136,46.646 79.969,46.933 C79.801,47.221 79.657,47.481 79.536,47.71 C79.464,47.884 79.368,48.084 79.249,48.316 L78.961,49.093 C78.864,49.38 78.78,49.661 78.708,49.935 C78.637,50.208 78.601,50.431 78.601,50.605 C78.601,50.835 78.667,51.008 78.8,51.123 C78.93,51.239 79.008,51.411 79.033,51.641 C79.008,51.669 78.99,51.706 78.98,51.749 C78.966,51.791 78.961,51.842 78.961,51.9 L78.961,52.332 C78.983,52.391 79.044,52.476 79.141,52.592 L79.356,52.851 L79.356,52.937 C79.429,53.024 79.464,53.117 79.464,53.217 C79.464,53.319 79.441,53.455 79.393,53.628 C79.343,53.799 79.284,53.902 79.213,53.93 L78.205,54.319 C78.013,54.607 77.821,54.78 77.629,54.837 C77.437,54.895 77.209,54.966 76.945,55.053 C76.993,55.255 76.951,55.42 76.819,55.55 C76.687,55.679 76.622,55.846 76.622,56.047 C76.622,56.364 76.693,56.523 76.837,56.523 C76.982,56.523 77.094,56.594 77.179,56.738 C77.263,56.882 77.299,56.983 77.286,57.04 C77.274,57.099 77.328,57.169 77.449,57.255 C77.712,57.401 77.971,57.516 78.222,57.601 C78.475,57.688 78.721,57.803 78.961,57.947 C79.008,57.976 79.104,58.062 79.249,58.207 C79.393,58.351 79.488,58.437 79.536,58.465 C80.064,58.782 80.628,59.063 81.228,59.308 C81.828,59.552 82.38,59.863 82.884,60.236 C83.34,60.582 83.771,60.957 84.18,61.359 C84.588,61.762 84.995,62.195 85.402,62.655 L85.476,62.655 C85.524,62.944 85.631,63.123 85.8,63.195 C85.967,63.267 86.052,63.461 86.052,63.779 C86.052,64.008 85.925,64.26 85.673,64.535 C85.422,64.807 85.211,64.987 85.043,65.074 C84.995,65.044 84.923,64.996 84.827,64.922 C84.732,64.852 84.672,64.8 84.647,64.772 C84.384,64.541 84.096,64.355 83.782,64.209 C83.472,64.066 83.172,63.908 82.884,63.735 C82.741,63.676 82.607,63.583 82.487,63.454 C82.367,63.325 82.224,63.231 82.057,63.173 C81.816,63.058 81.576,63 81.337,63 C81.096,63 80.855,62.956 80.616,62.871 C80.592,62.843 80.514,62.784 80.383,62.698 C80.25,62.612 80.16,62.569 80.112,62.569 C80.04,62.511 79.921,62.446 79.753,62.375 C79.584,62.302 79.488,62.265 79.464,62.265 C79.343,62.209 79.243,62.201 79.159,62.245 C79.075,62.289 79.008,62.222 78.961,62.049 L78.528,61.877 C78.313,61.82 78.181,61.777 78.134,61.748 C77.94,61.69 77.7,61.639 77.412,61.597 C77.125,61.554 76.921,61.475 76.802,61.359 C76.753,61.331 76.687,61.258 76.603,61.143 C76.519,61.029 76.471,60.963 76.459,60.949 C76.446,60.934 76.406,60.927 76.333,60.927 C76.213,60.927 76.117,60.978 76.046,61.079 C75.974,61.18 75.937,61.302 75.937,61.446 C75.937,62.049 75.956,62.64 75.991,63.216 C76.027,63.793 76.046,64.369 76.046,64.944 C76.046,64.973 76.058,65.008 76.08,65.051 C76.104,65.095 76.117,65.138 76.117,65.181 C76.117,65.224 76.104,65.355 76.08,65.571 C76.058,65.786 76.046,65.922 76.046,65.98 C76.022,66.096 76.01,66.355 76.01,66.759 C76.01,67.162 76.022,67.434 76.046,67.579 C75.997,67.751 75.925,67.86 75.829,67.903 C75.733,67.946 75.619,67.989 75.487,68.032 C75.356,68.076 75.235,68.155 75.128,68.271 C75.021,68.385 74.953,68.586 74.929,68.874 L74.895,68.874 C74.726,68.874 74.63,68.845 74.606,68.788 C74.581,68.729 74.534,68.659 74.461,68.571 L74.355,68.571 L74.355,68.571 Z M72.518,50.605 C72.518,50.921 72.573,51.23 72.681,51.534 C72.788,51.835 72.877,52.131 72.95,52.418 L73.022,52.246 L73.094,52.548 C73.189,52.375 73.243,52.196 73.255,52.009 C73.268,51.821 73.274,51.641 73.274,51.468 L73.274,51.036 C73.203,51.008 73.172,50.943 73.184,50.842 C73.195,50.742 73.203,50.625 73.203,50.496 C73.203,50.368 73.178,50.252 73.13,50.151 C73.081,50.05 72.987,50 72.841,50 C72.697,50 72.608,50.065 72.573,50.194 C72.536,50.324 72.518,50.46 72.518,50.605 L72.518,50.605 Z" id="Fill-48" fill="#DA302F" sketch:type="MSShapeGroup"></path>
                <path d="M56.573,70.3 C56.573,70.213 56.609,70.121 56.681,70.018 C56.753,69.917 56.829,69.868 56.916,69.868 C57,69.868 57.076,69.939 57.149,70.084 C57.076,69.881 57.07,69.731 57.132,69.63 C57.191,69.529 57.275,69.45 57.383,69.393 C57.491,69.334 57.605,69.298 57.725,69.286 C57.845,69.27 57.929,69.234 57.978,69.177 C58.073,69.061 58.133,68.889 58.157,68.659 C58.18,68.428 58.192,68.271 58.192,68.183 L58.337,68.097 C58.385,68.068 58.433,68.025 58.481,67.967 C58.913,67.651 59.267,67.262 59.543,66.802 C59.818,66.34 60.052,65.822 60.243,65.247 L60.389,64.901 L60.496,64.772 C60.52,64.772 60.544,64.764 60.568,64.749 C60.591,64.736 60.627,64.67 60.677,64.554 C60.724,64.382 60.766,64.181 60.802,63.951 C60.838,63.721 60.929,63.562 61.073,63.475 L61.073,62.482 C60.977,62.482 60.844,62.497 60.677,62.526 C60.507,62.554 60.37,62.597 60.262,62.655 C60.155,62.713 60.07,62.778 60.011,62.849 C59.95,62.922 59.866,62.956 59.759,62.956 C59.65,62.956 59.561,62.929 59.489,62.871 L58.157,62.871 C57.964,62.698 57.773,62.619 57.581,62.633 C57.389,62.648 57.196,62.625 57.006,62.569 C56.934,62.54 56.825,62.475 56.681,62.375 C56.537,62.274 56.405,62.158 56.286,62.028 C56.165,61.899 56.057,61.769 55.961,61.639 C55.864,61.509 55.817,61.423 55.817,61.38 C55.817,61.337 55.829,61.281 55.853,61.207 C55.876,61.137 55.89,61.086 55.89,61.057 C55.938,60.97 56.003,60.848 56.087,60.69 C56.171,60.532 56.225,60.452 56.25,60.452 L57.401,60.064 C57.473,59.949 57.599,59.826 57.778,59.696 C57.958,59.567 58.157,59.444 58.372,59.33 C58.589,59.214 58.799,59.121 59.003,59.049 C59.206,58.977 59.374,58.913 59.506,58.854 C59.638,58.796 59.759,58.697 59.866,58.552 C59.974,58.408 60.1,58.336 60.243,58.336 L60.243,58.422 C60.437,58.422 60.579,58.373 60.677,58.27 C60.772,58.171 60.905,58.09 61.073,58.033 C61.312,57.947 61.54,57.875 61.755,57.816 C61.972,57.76 62.08,57.53 62.08,57.126 C62.08,57.011 62.031,56.954 61.935,56.954 C61.768,56.954 61.618,57.018 61.485,57.148 C61.355,57.277 61.216,57.314 61.073,57.255 C60.712,57.487 60.382,57.724 60.083,57.968 C59.782,58.214 59.422,58.336 59.003,58.336 C58.582,58.336 58.233,58.114 57.958,57.667 C57.683,57.22 57.545,56.782 57.545,56.349 C57.545,56.206 57.647,56.011 57.852,55.765 C58.054,55.521 58.216,55.341 58.337,55.226 C58.408,55.168 58.505,55.075 58.625,54.945 C58.744,54.816 58.815,54.75 58.841,54.75 L58.913,54.75 L58.913,55.14 C59.032,55.082 59.141,55.009 59.237,54.923 C59.332,54.837 59.44,54.78 59.561,54.75 C59.608,54.722 59.687,54.715 59.794,54.729 C59.903,54.744 59.968,54.75 59.992,54.75 L60.243,54.449 C60.34,54.275 60.447,54.174 60.568,54.146 C60.688,54.118 60.748,54.074 60.748,54.016 L60.64,54.016 C60.64,53.959 60.688,53.894 60.784,53.823 C60.88,53.75 60.987,53.678 61.108,53.607 C61.229,53.535 61.336,53.442 61.433,53.326 C61.528,53.21 61.575,53.088 61.575,52.958 C61.575,52.83 61.552,52.75 61.504,52.72 C60.953,52.779 60.503,52.634 60.155,52.288 C59.807,51.943 59.476,51.526 59.164,51.036 C59.141,50.633 59.074,50.252 58.967,49.892 C58.858,49.532 58.805,49.151 58.805,48.747 C58.805,48.603 58.913,48.532 59.128,48.532 C59.248,48.532 59.362,48.596 59.471,48.725 C59.577,48.855 59.692,48.892 59.813,48.833 L60.929,50.129 L61.036,50.129 C61.372,50.129 61.708,49.957 62.044,49.611 C62.38,49.265 62.71,48.871 63.034,48.423 C63.358,47.977 63.67,47.531 63.97,47.085 C64.269,46.638 64.564,46.314 64.851,46.113 L65.032,45.896 C65.128,45.839 65.212,45.811 65.283,45.811 C65.595,45.811 65.89,45.948 66.165,46.22 C66.441,46.495 66.682,46.839 66.885,47.258 C67.089,47.674 67.244,48.106 67.353,48.553 C67.461,48.999 67.515,49.395 67.515,49.741 L67.515,50.129 C67.515,50.158 67.496,50.208 67.461,50.28 C67.425,50.352 67.412,50.41 67.425,50.453 C67.438,50.496 67.564,50.547 67.803,50.605 C68.042,50.663 68.198,50.763 68.271,50.907 C68.343,51.05 68.444,51.251 68.576,51.512 C68.708,51.77 68.775,52 68.775,52.203 C68.775,52.404 68.576,52.641 68.181,52.915 C67.784,53.19 67.34,53.469 66.849,53.758 C66.356,54.045 65.907,54.326 65.5,54.6 C65.092,54.875 64.869,55.125 64.834,55.356 C64.798,55.585 64.847,55.723 64.978,55.765 C65.109,55.809 65.247,55.831 65.392,55.831 C65.608,55.831 65.775,55.774 65.896,55.658 C66.015,55.543 66.123,55.42 66.219,55.291 C66.315,55.161 66.423,55.04 66.542,54.923 C66.662,54.808 66.843,54.75 67.084,54.75 C67.155,54.75 67.292,54.832 67.496,54.988 C67.7,55.147 67.91,55.333 68.127,55.55 C68.343,55.765 68.534,55.968 68.702,56.155 C68.87,56.341 68.955,56.45 68.955,56.478 C68.955,56.709 68.905,56.861 68.812,56.932 C68.716,57.004 68.62,57.112 68.522,57.255 C68.403,57.457 68.355,57.573 68.379,57.601 C68.403,57.63 68.343,57.717 68.198,57.861 C68.006,58.005 67.809,58.141 67.605,58.27 C67.401,58.4 67.204,58.552 67.011,58.724 L66.867,58.897 C66.817,58.983 66.782,59.035 66.759,59.049 C66.735,59.063 66.651,59.056 66.507,59.026 L66.256,59.026 C66.135,59.056 66.039,59.128 65.968,59.242 C65.896,59.358 65.8,59.387 65.68,59.33 C65.608,59.387 65.487,59.517 65.319,59.717 C65.15,59.92 65.042,60.064 64.995,60.15 C64.851,60.466 64.785,60.848 64.798,61.293 C64.809,61.741 64.791,62.123 64.743,62.439 C64.695,62.929 64.611,63.375 64.491,63.779 C64.372,64.181 64.24,64.614 64.097,65.074 C64.047,65.218 64.017,65.383 64.005,65.571 C63.993,65.757 63.963,65.922 63.917,66.067 C63.794,66.585 63.543,67.075 63.159,67.535 C62.776,67.997 62.44,68.415 62.151,68.788 C61.648,69.42 61.175,69.875 60.729,70.149 C60.286,70.422 59.669,70.559 58.876,70.559 C58.612,70.559 58.36,70.53 58.121,70.472 C57.882,70.414 57.641,70.386 57.401,70.386 C57.28,70.386 57.18,70.436 57.096,70.537 C57.011,70.637 56.909,70.688 56.789,70.688 C56.717,70.688 56.663,70.637 56.627,70.537 C56.591,70.436 56.573,70.357 56.573,70.3 L56.573,70.3 Z M57.149,46.717 C57.101,46.775 57.034,46.747 56.95,46.631 C56.865,46.516 56.825,46.415 56.825,46.329 L56.825,45.896 C56.825,45.752 56.885,45.653 57.006,45.594 C57.34,45.45 57.658,45.393 57.958,45.421 C58.259,45.45 58.576,45.421 58.913,45.335 C59.032,45.278 59.212,45.213 59.453,45.141 C59.692,45.069 59.872,44.991 59.992,44.903 C60.017,44.903 60.064,44.868 60.136,44.795 C60.209,44.723 60.268,44.659 60.315,44.601 C60.484,44.457 60.64,44.4 60.784,44.427 C60.929,44.457 61.085,44.414 61.253,44.297 C61.349,44.242 61.516,44.154 61.755,44.04 C61.995,43.925 62.235,43.788 62.477,43.628 C62.716,43.471 62.926,43.305 63.105,43.132 C63.285,42.96 63.375,42.786 63.375,42.614 C63.496,42.614 63.628,42.592 63.772,42.549 C63.917,42.505 63.987,42.384 63.987,42.182 C63.867,42.182 63.772,42.154 63.701,42.096 C63.628,42.038 63.53,42.008 63.412,42.008 L63.339,42.008 L63.088,42.527 L63.016,42.527 L63.016,42.312 L62.908,42.312 C62.884,42.312 62.841,42.328 62.782,42.355 C62.721,42.384 62.679,42.398 62.656,42.398 C62.631,41.419 62.524,40.426 62.331,39.417 C62.261,39.361 62.17,39.202 62.062,38.943 C61.954,38.683 61.899,38.497 61.899,38.381 L61.899,37.993 C61.923,37.964 61.948,37.884 61.972,37.754 C61.995,37.626 62.009,37.546 62.009,37.518 C62.009,37.489 61.995,37.446 61.972,37.388 C61.948,37.331 61.923,37.301 61.899,37.301 L61.899,37.085 C61.899,36.884 61.979,36.784 62.134,36.784 C62.29,36.784 62.495,36.876 62.746,37.064 C62.998,37.251 63.255,37.46 63.519,37.69 C63.783,37.921 64.035,38.151 64.276,38.381 C64.516,38.613 64.707,38.785 64.851,38.899 L65.247,39.159 C65.487,39.274 65.631,39.361 65.68,39.417 C65.823,39.503 65.968,39.72 66.111,40.066 C66.256,40.412 66.327,40.686 66.327,40.886 C66.327,40.945 66.291,41.052 66.219,41.209 C66.148,41.369 66.069,41.52 65.985,41.664 C65.9,41.808 65.812,41.931 65.716,42.03 C65.618,42.132 65.547,42.154 65.5,42.096 C65.547,42.154 65.618,42.268 65.716,42.441 C65.812,42.614 65.907,42.801 66.003,43.002 L66.256,43.608 C66.327,43.809 66.362,43.925 66.362,43.953 C66.362,44.098 66.303,44.234 66.183,44.364 C66.064,44.493 65.985,44.572 65.949,44.601 C65.913,44.629 65.823,44.665 65.68,44.708 C65.536,44.751 65.451,44.788 65.427,44.817 C65.331,44.875 65.302,44.918 65.337,44.946 C65.373,44.976 65.343,45.032 65.247,45.12 C65.224,45.148 65.157,45.184 65.05,45.227 C64.941,45.27 64.875,45.299 64.851,45.314 C64.827,45.328 64.798,45.364 64.761,45.421 C64.726,45.479 64.695,45.507 64.671,45.507 L63.917,46.113 C63.844,46.055 63.777,46.091 63.718,46.22 C63.657,46.35 63.592,46.386 63.519,46.329 C63.327,46.443 63.081,46.603 62.782,46.804 C62.481,47.005 62.164,47.207 61.827,47.408 C61.492,47.61 61.169,47.783 60.857,47.926 C60.544,48.071 60.292,48.143 60.1,48.143 C60.028,48.143 59.986,48.135 59.974,48.121 C59.962,48.106 59.914,48.084 59.83,48.055 C59.747,48.027 59.692,48.014 59.669,48.014 C59.645,48.014 59.549,48.043 59.38,48.1 L58.984,48.229 L58.841,48.316 L58.769,48.316 C58.72,48.316 58.648,48.273 58.552,48.185 L58.337,48.014 L57.149,46.717 L57.149,46.717 Z M58.66,55.226 C58.589,55.284 58.499,55.341 58.392,55.399 C58.282,55.457 58.229,55.543 58.229,55.658 C58.325,55.658 58.421,55.629 58.517,55.572 C58.612,55.514 58.66,55.414 58.66,55.27 L58.66,55.226 L58.66,55.226 Z M62.151,51.684 L62.151,51.857 C62.151,51.943 62.182,51.995 62.241,52.009 C62.302,52.023 62.331,51.943 62.331,51.77 C62.331,51.684 62.319,51.612 62.296,51.555 L62.44,51.555 C62.536,51.583 62.62,51.612 62.692,51.641 C62.765,51.669 62.818,51.713 62.855,51.77 C62.89,51.828 62.884,51.885 62.836,51.943 C62.956,51.885 63.088,51.749 63.232,51.534 C63.375,51.318 63.514,51.08 63.646,50.821 C63.777,50.561 63.898,50.309 64.005,50.065 C64.114,49.82 64.192,49.64 64.24,49.526 L64.42,49.611 C64.564,49.323 64.659,48.984 64.707,48.596 C64.755,48.207 64.779,47.84 64.779,47.494 C64.779,47.466 64.767,47.436 64.743,47.408 L64.743,47.235 C64.743,47.149 64.719,47.106 64.671,47.106 C64.527,47.106 64.378,47.258 64.221,47.56 C64.065,47.862 63.963,48.043 63.917,48.1 C63.867,48.215 63.747,48.438 63.555,48.768 C63.363,49.1 63.159,49.454 62.944,49.827 L62.403,50.95 C62.235,51.294 62.151,51.54 62.151,51.684 L62.151,51.684 Z M74.355,68.571 C74.209,68.342 74.138,68.082 74.138,67.795 C74.138,67.507 74.077,67.262 73.958,67.061 C73.909,66.745 73.856,66.305 73.796,65.743 C73.735,65.181 73.706,64.714 73.706,64.339 L73.778,64.252 L73.778,64.124 C73.778,64.096 73.771,64.001 73.76,63.843 C73.747,63.685 73.73,63.518 73.706,63.346 C73.682,63.173 73.652,63.015 73.616,62.871 C73.58,62.727 73.537,62.655 73.49,62.655 L73.454,62.655 C73.383,62.713 73.239,62.877 73.022,63.152 C72.806,63.425 72.667,63.599 72.608,63.67 C72.549,63.743 72.523,63.793 72.536,63.822 C72.549,63.85 72.518,63.893 72.446,63.951 C72.374,64.008 72.23,64.109 72.015,64.252 C71.799,64.398 71.666,64.499 71.618,64.554 L71.51,64.554 C71.414,64.554 71.354,64.541 71.33,64.512 L71.077,64.512 C71.077,64.541 71.09,64.57 71.113,64.598 C71.138,64.627 71.102,64.642 71.006,64.642 L70.862,64.554 C70.718,64.499 70.599,64.469 70.501,64.469 C70.479,64.469 70.399,64.512 70.268,64.598 C70.136,64.685 70.059,64.743 70.034,64.772 C69.77,64.858 69.446,64.929 69.063,64.987 C68.679,65.044 68.343,65.074 68.056,65.074 C67.935,65.074 67.755,65.03 67.515,64.944 C67.275,64.858 67.028,64.749 66.777,64.621 C66.525,64.49 66.303,64.339 66.111,64.166 C65.919,63.994 65.823,63.806 65.823,63.606 C65.823,63.518 65.848,63.461 65.896,63.432 L66.075,63.432 C66.219,63.432 66.362,63.461 66.507,63.518 C66.651,63.576 66.795,63.621 66.939,63.648 C66.939,63.59 67.022,63.497 67.191,63.368 C67.358,63.238 67.545,63.109 67.749,62.979 C67.952,62.849 68.146,62.727 68.325,62.612 C68.505,62.497 68.62,62.411 68.666,62.352 C68.787,62.265 68.931,62.209 69.099,62.18 C69.267,62.152 69.41,62.109 69.531,62.049 C69.554,62.049 69.59,62.006 69.639,61.92 L69.782,61.748 C69.927,61.604 70.106,61.503 70.321,61.446 C70.538,61.388 70.712,61.323 70.845,61.25 C70.975,61.18 71.126,61.049 71.293,60.863 C71.461,60.676 71.63,60.466 71.799,60.236 C71.966,60.006 72.116,59.782 72.248,59.567 C72.38,59.351 72.47,59.171 72.518,59.026 L72.518,58.724 C72.542,58.697 72.565,58.681 72.589,58.681 C72.661,58.681 72.697,58.666 72.697,58.638 C72.841,58.322 72.896,58.126 72.86,58.055 C72.824,57.983 72.806,57.789 72.806,57.472 L72.771,57.428 C72.771,57.457 72.757,57.493 72.734,57.538 C72.709,57.581 72.697,57.617 72.697,57.645 C72.602,57.444 72.47,57.342 72.302,57.342 L71.799,57.342 C71.63,57.342 71.481,57.358 71.349,57.385 C71.216,57.415 71.077,57.428 70.934,57.428 C70.718,57.428 70.567,57.342 70.484,57.169 C70.399,56.997 70.358,56.795 70.358,56.566 C70.358,56.249 70.388,55.924 70.448,55.593 C70.508,55.262 70.538,54.939 70.538,54.622 C70.538,54.478 70.508,54.377 70.448,54.319 C70.388,54.261 70.358,54.174 70.358,54.06 L70.358,53.93 C70.358,53.873 70.37,53.707 70.395,53.433 C70.419,53.16 70.431,52.988 70.431,52.915 C70.431,52.842 70.424,52.665 70.413,52.375 C70.399,52.088 70.382,51.9 70.358,51.814 C70.358,51.785 70.328,51.692 70.268,51.534 C70.208,51.375 70.179,51.267 70.179,51.208 L70.179,50.821 C70.179,50.763 70.172,50.625 70.16,50.41 C70.148,50.194 70.13,49.957 70.106,49.697 L70.034,49.005 L70.034,48.575 C70.034,48.229 70.07,47.884 70.142,47.537 C70.215,47.192 70.442,47.019 70.826,47.019 L70.862,47.019 C71.149,47.308 71.349,47.581 71.456,47.84 C71.563,48.1 71.823,48.229 72.23,48.229 C72.638,48.229 72.901,48.106 73.022,47.862 C73.142,47.618 73.203,47.278 73.203,46.847 C73.203,46.587 73.195,46.366 73.184,46.177 C73.172,45.991 73.142,45.739 73.094,45.421 C72.974,45.479 72.89,45.45 72.841,45.335 C72.794,45.479 72.703,45.543 72.573,45.53 C72.439,45.515 72.313,45.537 72.194,45.594 C72.146,45.623 72.043,45.696 71.888,45.811 C71.732,45.926 71.644,45.998 71.618,46.027 L71.546,46.027 C71.546,45.969 71.528,45.912 71.492,45.853 C71.456,45.796 71.439,45.739 71.439,45.68 C71.439,45.623 71.45,45.567 71.474,45.507 C71.497,45.45 71.51,45.393 71.51,45.335 C71.366,45.335 71.24,45.385 71.133,45.486 C71.024,45.586 70.91,45.637 70.79,45.637 C70.671,45.637 70.491,45.58 70.251,45.464 C70.011,45.35 69.77,45.199 69.531,45.01 C69.29,44.824 69.087,44.623 68.919,44.407 C68.75,44.19 68.666,43.996 68.666,43.824 C68.666,43.651 68.702,43.55 68.775,43.52 C69.374,43.29 69.969,43.104 70.556,42.96 C71.145,42.816 71.713,42.527 72.267,42.096 C72.577,42.182 72.771,42.067 72.841,41.749 C72.914,41.434 72.95,41.145 72.95,40.886 C72.95,40.771 72.933,40.613 72.896,40.412 C72.86,40.21 72.824,39.995 72.788,39.764 C72.753,39.534 72.697,39.317 72.626,39.116 L72.518,38.597 C72.47,38.424 72.416,38.288 72.356,38.187 C72.296,38.086 72.267,37.936 72.267,37.733 L72.267,37.69 C72.29,37.632 72.308,37.518 72.319,37.345 C72.332,37.171 72.35,37.056 72.374,36.998 C72.47,36.971 72.529,36.956 72.554,36.956 L72.661,36.827 C72.686,36.797 72.745,36.754 72.841,36.697 C72.89,36.668 72.95,36.647 73.022,36.631 C73.094,36.618 73.152,36.611 73.203,36.611 C73.296,36.582 73.447,36.553 73.652,36.525 C73.856,36.496 73.982,36.481 74.029,36.481 C74.341,36.481 74.581,36.639 74.749,36.956 C74.917,37.273 75.049,37.647 75.146,38.08 C75.241,38.51 75.313,38.936 75.361,39.353 C75.409,39.771 75.47,40.08 75.541,40.281 C75.541,40.311 75.565,40.325 75.613,40.325 L75.685,40.325 C75.805,40.325 75.864,40.311 75.864,40.281 C75.913,40.281 76.01,40.238 76.153,40.152 C76.298,40.066 76.393,40.022 76.442,40.022 C77.017,39.965 77.508,40.161 77.917,40.606 C78.325,41.052 78.528,41.621 78.528,42.312 C78.528,42.398 78.487,42.499 78.401,42.614 C78.317,42.729 78.222,42.852 78.115,42.981 C78.007,43.111 77.887,43.234 77.755,43.349 C77.623,43.463 77.521,43.55 77.449,43.608 C77.378,43.665 77.227,43.751 76.999,43.867 C76.771,43.982 76.622,44.069 76.549,44.125 C76.356,44.04 76.148,44.111 75.92,44.342 C75.69,44.572 75.529,44.759 75.434,44.903 L75.541,45.032 C75.47,45.032 75.434,45.09 75.434,45.206 L75.434,45.335 C75.434,45.364 75.445,45.378 75.47,45.378 L75.505,45.378 C75.505,45.407 75.517,45.421 75.541,45.421 L75.613,45.507 C75.613,45.537 75.601,45.573 75.577,45.616 C75.553,45.66 75.535,45.702 75.523,45.745 C75.511,45.788 75.493,45.853 75.47,45.94 C75.445,46.027 75.434,46.083 75.434,46.113 C75.434,46.199 75.482,46.242 75.577,46.242 C75.673,46.242 75.8,46.193 75.956,46.091 C76.111,45.991 76.267,45.875 76.423,45.745 C76.579,45.616 76.73,45.486 76.873,45.357 C77.017,45.227 77.125,45.12 77.196,45.032 C77.269,44.946 77.407,44.875 77.611,44.817 C77.814,44.759 78.036,44.703 78.277,44.644 L78.961,44.558 C79.177,44.529 79.343,44.514 79.464,44.514 C79.73,44.514 79.921,44.708 80.04,45.098 C80.16,45.486 80.22,45.818 80.22,46.091 C80.22,46.366 80.136,46.646 79.969,46.933 C79.801,47.221 79.657,47.481 79.536,47.71 C79.464,47.884 79.368,48.084 79.249,48.316 L78.961,49.093 C78.864,49.38 78.78,49.661 78.708,49.935 C78.637,50.208 78.601,50.431 78.601,50.605 C78.601,50.835 78.667,51.008 78.8,51.123 C78.93,51.239 79.008,51.411 79.033,51.641 C79.008,51.669 78.99,51.706 78.98,51.749 C78.966,51.791 78.961,51.842 78.961,51.9 L78.961,52.332 C78.983,52.391 79.044,52.476 79.141,52.592 L79.356,52.851 L79.356,52.937 C79.429,53.024 79.464,53.117 79.464,53.217 C79.464,53.319 79.441,53.455 79.393,53.628 C79.343,53.799 79.284,53.902 79.213,53.93 L78.205,54.319 C78.013,54.607 77.821,54.78 77.629,54.837 C77.437,54.895 77.209,54.966 76.945,55.053 C76.993,55.255 76.951,55.42 76.819,55.55 C76.687,55.679 76.622,55.846 76.622,56.047 C76.622,56.364 76.693,56.523 76.837,56.523 C76.982,56.523 77.094,56.594 77.179,56.738 C77.263,56.882 77.299,56.983 77.286,57.04 C77.274,57.099 77.328,57.169 77.449,57.255 C77.712,57.401 77.971,57.516 78.222,57.601 C78.475,57.688 78.721,57.803 78.961,57.947 C79.008,57.976 79.104,58.062 79.249,58.207 C79.393,58.351 79.488,58.437 79.536,58.465 C80.064,58.782 80.628,59.063 81.228,59.308 C81.828,59.552 82.38,59.863 82.884,60.236 C83.34,60.582 83.771,60.957 84.18,61.359 C84.588,61.762 84.995,62.195 85.402,62.655 L85.476,62.655 C85.524,62.944 85.631,63.123 85.8,63.195 C85.967,63.267 86.052,63.461 86.052,63.779 C86.052,64.008 85.925,64.26 85.673,64.535 C85.422,64.807 85.211,64.987 85.043,65.074 C84.995,65.044 84.923,64.996 84.827,64.922 C84.732,64.852 84.672,64.8 84.647,64.772 C84.384,64.541 84.096,64.355 83.782,64.209 C83.472,64.066 83.172,63.908 82.884,63.735 C82.741,63.676 82.607,63.583 82.487,63.454 C82.367,63.325 82.224,63.231 82.057,63.173 C81.816,63.058 81.576,63 81.337,63 C81.096,63 80.855,62.956 80.616,62.871 C80.592,62.843 80.514,62.784 80.383,62.698 C80.25,62.612 80.16,62.569 80.112,62.569 C80.04,62.511 79.921,62.446 79.753,62.375 C79.584,62.302 79.488,62.265 79.464,62.265 C79.343,62.209 79.243,62.201 79.159,62.245 C79.075,62.289 79.008,62.222 78.961,62.049 L78.528,61.877 C78.313,61.82 78.181,61.777 78.134,61.748 C77.94,61.69 77.7,61.639 77.412,61.597 C77.125,61.554 76.921,61.475 76.802,61.359 C76.753,61.331 76.687,61.258 76.603,61.143 C76.519,61.029 76.471,60.963 76.459,60.949 C76.446,60.934 76.406,60.927 76.333,60.927 C76.213,60.927 76.117,60.978 76.046,61.079 C75.974,61.18 75.937,61.302 75.937,61.446 C75.937,62.049 75.956,62.64 75.991,63.216 C76.027,63.793 76.046,64.369 76.046,64.944 C76.046,64.973 76.058,65.008 76.08,65.051 C76.104,65.095 76.117,65.138 76.117,65.181 C76.117,65.224 76.104,65.355 76.08,65.571 C76.058,65.786 76.046,65.922 76.046,65.98 C76.022,66.096 76.01,66.355 76.01,66.759 C76.01,67.162 76.022,67.434 76.046,67.579 C75.997,67.751 75.925,67.86 75.829,67.903 C75.733,67.946 75.619,67.989 75.487,68.032 C75.356,68.076 75.235,68.155 75.128,68.271 C75.021,68.385 74.953,68.586 74.929,68.874 L74.895,68.874 C74.726,68.874 74.63,68.845 74.606,68.788 C74.581,68.729 74.534,68.659 74.461,68.571 L74.355,68.571 L74.355,68.571 Z M72.518,50.605 C72.518,50.921 72.573,51.23 72.681,51.534 C72.788,51.835 72.877,52.131 72.95,52.418 L73.022,52.246 L73.094,52.548 C73.189,52.375 73.243,52.196 73.255,52.009 C73.268,51.821 73.274,51.641 73.274,51.468 L73.274,51.036 C73.203,51.008 73.172,50.943 73.184,50.842 C73.195,50.742 73.203,50.625 73.203,50.496 C73.203,50.368 73.178,50.252 73.13,50.151 C73.081,50.05 72.987,50 72.841,50 C72.697,50 72.608,50.065 72.573,50.194 C72.536,50.324 72.518,50.46 72.518,50.605 L72.518,50.605 Z" id="Stroke-49" stroke="#FFFFFF" sketch:type="MSShapeGroup"></path>
            </g>
        </g>
    </g>
</svg>