<?xml version="1.0" encoding="UTF-8" standalone="no"?>
<svg width="120px" height="120px" viewBox="0 0 120 120" version="1.1" xmlns="http://www.w3.org/2000/svg" xmlns:xlink="http://www.w3.org/1999/xlink" xmlns:sketch="http://www.bohemiancoding.com/sketch/ns">
    <!-- Generator: Sketch 3.3.2 (12043) - http://www.bohemiancoding.com/sketch -->
    <title>Mobile Portrait Copy 4</title>
    <desc>Created with Sketch.</desc>
    <defs></defs>
    <g id="food" stroke="none" stroke-width="1" fill="none" fill-rule="evenodd" sketch:type="MSPage">
        <g id="Mobile-Portrait-Copy-4" sketch:type="MSArtboardGroup">
            <g id="Imported-Layers" sketch:type="MSLayerGroup" transform="translate(21.000000, 29.000000)">
                <path d="M8.786,4.157 L12.041,22.785 L3.751,24.233 L0.498,5.605 C0.124,3.833 0.95,2.77 2.971,2.417 L5.823,1.919 C7.614,1.667 8.604,2.413 8.786,4.157 L8.786,4.157 Z M3.769,5.401 L6.445,20.732 L8.317,20.405 L5.812,6.054 C5.696,5.401 5.341,5.126 4.747,5.229 L3.769,5.401 L3.769,5.401 Z M20.44,6.713 C22.535,7.143 23.016,8.499 21.884,10.778 L17.315,18.281 C17.258,18.659 17.467,18.806 17.946,18.723 L24.718,17.54 L24.951,18.877 C25.139,19.946 24.637,20.585 23.449,20.792 L15.427,22.193 C14.179,22.412 13.298,22.106 12.787,21.277 C12.393,20.427 12.357,19.699 12.682,19.091 L17.759,10.305 L11.252,11.441 L10.721,8.411 L20.44,6.713 L20.44,6.713 Z M12.772,5.94 C11.047,6.241 10.052,5.621 9.781,4.075 L9.461,1.191 L12.759,0.614 L13.014,2.591 L21.837,1.049 L22.399,4.258 L12.772,5.94 L12.772,5.94 Z" id="Fill-1" fill="#EB8B2D" sketch:type="MSShapeGroup"></path>
                <path d="M29.701,0.86 C29.127,2.103 28.305,3.065 27.232,3.748 L28.819,3.781 L28.768,6.307 C28.756,6.894 28.182,7.176 27.046,7.153 L26.164,7.135 L26.221,4.374 L24.982,4.643 L25.028,2.352 C25.896,2.057 26.592,1.542 27.116,0.808 L29.701,0.86 L29.701,0.86 Z M35.289,15.017 L32.389,13.136 C30.912,14.517 28.434,15.055 24.953,14.749 L24.988,13.046 C27.571,13.137 29.26,12.917 30.054,12.384 C30.489,12.158 30.716,11.654 30.732,10.87 L30.754,9.754 L33.221,9.804 L33.173,12.154 L34.466,12.18 L38.99,15.092 L35.289,15.017 L35.289,15.017 Z M36.674,7.641 C37.651,7.661 38.149,8.2 38.168,9.258 L38.094,12.958 L35.628,12.909 L35.684,10.148 C35.693,9.64 35.365,9.377 34.698,9.364 L28.181,9.232 L28.11,12.757 L25.643,12.707 L25.717,9.006 C25.738,7.91 26.355,7.394 27.568,7.457 L36.674,7.641 L36.674,7.641 Z M32.689,7.149 C31.708,7.13 31.209,6.649 31.189,5.709 L31.213,4.534 L29.679,4.797 L29.718,2.859 L31.252,2.596 L31.287,0.833 L33.813,0.884 L33.782,2.412 L38.853,1.516 L38.812,3.513 L33.744,4.291 L33.731,4.938 C33.727,5.172 33.861,5.293 34.135,5.298 L39.068,5.398 L39.03,7.278 L32.689,7.149 L32.689,7.149 Z" id="Fill-2" fill="#EB8B2D" sketch:type="MSShapeGroup"></path>
                <path d="M47.879,5.677 C47.864,6.382 47.388,6.745 46.447,6.765 L44.803,6.731 L44.833,5.204 L45.186,5.211 C45.459,5.216 45.597,5.122 45.602,4.926 L45.624,3.81 C45.63,3.496 45.438,3.336 45.048,3.328 L44.46,3.316 L43.686,6.767 L41.336,6.719 L42.111,3.269 L41.17,3.249 L41.198,1.84 L42.374,1.864 L42.506,1.161 L44.856,1.208 L44.723,1.912 L46.368,1.945 C47.427,1.928 47.944,2.446 47.922,3.503 L47.879,5.677 L47.879,5.677 Z M50.046,14.769 L40.939,14.585 L40.975,12.882 L51.371,13.093 L51.36,13.68 C51.346,14.424 50.905,14.787 50.046,14.769 L50.046,14.769 Z M53.956,7.387 C54.774,7.56 55.135,8.096 55.039,8.995 L54.362,10.509 C54.95,10.521 55.236,10.899 55.22,11.643 L55.166,14.344 C55.151,15.088 54.575,15.469 53.437,15.485 L51.501,15.446 L51.537,13.683 L52.652,13.706 L52.664,13.119 C52.713,12.611 52.425,12.35 51.798,12.337 L42.401,12.147 C41.624,11.779 41.44,11.187 41.85,10.373 L42.455,9.445 L45.157,9.499 L44.611,10.311 L51.603,10.454 L52.215,9.114 L41.174,8.891 L41.209,7.128 L53.956,7.387 L53.956,7.387 Z M55.14,6.94 L48.855,6.814 L48.928,3.23 C48.951,2.095 49.549,1.539 50.725,1.562 L53.543,1.62 C54.679,1.643 55.236,2.203 55.214,3.299 L55.14,6.94 L55.14,6.94 Z M51.163,3.099 L51.117,5.331 L52.938,5.368 L52.971,3.782 C53.019,3.313 52.749,3.093 52.16,3.119 L51.163,3.099 L51.163,3.099 Z" id="Fill-3" fill="#EB8B2D" sketch:type="MSShapeGroup"></path>
                <path d="M70.003,1.998 L69.672,4.681 L64.465,4.038 L62.094,7.027 L64.538,7.329 C65.327,7.426 65.648,7.2 65.503,6.648 L65.383,5.672 L68.145,6.015 L69.078,10.774 L66.238,10.423 L65.962,9.428 C65.43,9.843 64.87,10.041 64.285,10.021 L59.868,9.476 C58.276,9.387 57.711,8.568 58.169,7.023 L60.834,3.589 L58.472,3.297 L58.802,0.614 L70.003,1.998 L70.003,1.998 Z M56.569,19.319 L56.891,16.715 L60.755,17.194 L60.872,16.246 C60.99,15.3 60.499,14.758 59.392,14.621 L57.262,14.358 L57.595,11.677 L61.379,12.144 L61.575,10.567 L65.046,10.995 L64.853,12.574 L68.558,13.033 L68.227,15.714 L64.521,15.255 L64.228,17.622 L68.092,18.1 L67.984,18.968 C67.842,20.123 67.164,20.628 65.956,20.478 L56.569,19.319 L56.569,19.319 Z M70.98,2.52 L73.817,2.87 L71.615,20.697 L68.777,20.346 L70.98,2.52 L70.98,2.52 Z M74.763,2.346 L77.921,2.737 L75.834,19.617 C75.663,20.984 74.921,21.586 73.608,21.425 L72.424,21.278 L74.763,2.346 L74.763,2.346 Z" id="Fill-4" fill="#EB8B2D" sketch:type="MSShapeGroup"></path>
                <path d="M52.809,47.004 L52.809,26.117 L28.849,26.117 L28.849,47.004 L27.546,47.004 L27.546,54.54 C27.546,56.408 29.062,57.924 30.93,57.924 L50.734,57.924 C52.603,57.924 54.115,56.408 54.115,54.54 L54.115,47.004 L52.809,47.004" id="Fill-5" fill="#FFFFFF" sketch:type="MSShapeGroup"></path>
                <path d="M52.809,26.117 L28.849,26.117 L28.849,34.727 C29.225,34.82 29.608,34.888 30.003,34.927 L30.003,31.607 L31.23,31.607 L31.23,34.962 C31.809,34.939 32.379,34.858 32.932,34.726 L32.932,31.607 L34.158,31.607 L34.158,34.332 C34.764,34.087 35.336,33.775 35.86,33.403 L35.86,31.607 L37.087,31.607 L37.087,33.991 C37.627,34.229 38.198,34.411 38.79,34.533 L38.79,31.607 L40.017,31.607 L40.017,34.698 C40.215,34.711 40.415,34.717 40.616,34.717 C40.988,34.717 41.356,34.695 41.719,34.651 L41.719,31.607 L42.944,31.607 L42.944,34.414 C43.54,34.253 44.111,34.031 44.647,33.749 L44.647,31.607 L45.874,31.607 L45.874,33.732 C46.405,34.054 46.978,34.317 47.577,34.518 L47.577,31.607 L48.804,31.607 L48.804,34.831 C49.316,34.922 49.84,34.97 50.37,34.97 C50.415,34.97 50.46,34.97 50.505,34.969 L50.505,31.607 L51.731,31.607 L51.731,34.867 C52.101,34.81 52.461,34.731 52.809,34.631 L52.809,26.117" id="Fill-6" fill="#EAE5DC" sketch:type="MSShapeGroup"></path>
                <path d="M30.003,34.927 L30.003,47.028 L31.23,47.028 L31.23,34.962 C31.107,34.968 30.985,34.97 30.862,34.97 C30.57,34.97 30.284,34.956 30.003,34.927" id="Fill-7" fill="#EAE5DC" sketch:type="MSShapeGroup"></path>
                <path d="M31.23,31.607 L30.003,31.607 L30.003,34.927 C30.284,34.956 30.57,34.97 30.862,34.97 C30.985,34.97 31.107,34.968 31.23,34.962 L31.23,31.607" id="Fill-8" fill="#D6CFC2" sketch:type="MSShapeGroup"></path>
                <path d="M34.158,34.332 C33.763,34.493 33.353,34.624 32.932,34.726 L32.932,47.028 L34.158,47.028 L34.158,34.332" id="Fill-9" fill="#EAE5DC" sketch:type="MSShapeGroup"></path>
                <path d="M34.158,31.607 L32.932,31.607 L32.932,34.726 C33.353,34.624 33.763,34.493 34.158,34.332 L34.158,31.607" id="Fill-10" fill="#D6CFC2" sketch:type="MSShapeGroup"></path>
                <path d="M35.922,33.358 C35.901,33.373 35.881,33.388 35.86,33.403 L35.86,47.028 L37.087,47.028 L37.087,33.991 C36.68,33.811 36.29,33.601 35.922,33.358" id="Fill-11" fill="#EAE5DC" sketch:type="MSShapeGroup"></path>
                <path d="M37.087,31.607 L35.86,31.607 L35.86,33.403 C35.881,33.388 35.901,33.373 35.922,33.358 C36.29,33.601 36.68,33.811 37.087,33.991 L37.087,31.607" id="Fill-12" fill="#D6CFC2" sketch:type="MSShapeGroup"></path>
                <path d="M38.79,34.533 L38.79,47.028 L40.017,47.028 L40.017,34.698 C39.601,34.671 39.191,34.615 38.79,34.533" id="Fill-13" fill="#EAE5DC" sketch:type="MSShapeGroup"></path>
                <path d="M40.017,31.607 L38.79,31.607 L38.79,34.533 C39.191,34.615 39.601,34.671 40.017,34.698 L40.017,31.607" id="Fill-14" fill="#D6CFC2" sketch:type="MSShapeGroup"></path>
                <path d="M42.944,34.414 C42.546,34.52 42.136,34.6 41.719,34.651 L41.719,47.028 L42.944,47.028 L42.944,34.414" id="Fill-15" fill="#EAE5DC" sketch:type="MSShapeGroup"></path>
                <path d="M42.944,31.607 L41.719,31.607 L41.719,34.651 C42.136,34.6 42.546,34.52 42.944,34.414 L42.944,31.607" id="Fill-16" fill="#D6CFC2" sketch:type="MSShapeGroup"></path>
                <path d="M45.311,33.358 C45.097,33.499 44.875,33.63 44.647,33.749 L44.647,47.028 L45.874,47.028 L45.874,33.732 C45.681,33.615 45.493,33.491 45.311,33.358" id="Fill-17" fill="#EAE5DC" sketch:type="MSShapeGroup"></path>
                <path d="M45.874,31.607 L44.647,31.607 L44.647,33.749 C44.875,33.63 45.097,33.499 45.311,33.358 C45.493,33.491 45.681,33.615 45.874,33.732 L45.874,31.607" id="Fill-18" fill="#D6CFC2" sketch:type="MSShapeGroup"></path>
                <path d="M47.577,34.518 L47.577,47.028 L48.804,47.028 L48.804,34.831 C48.385,34.755 47.975,34.651 47.577,34.518" id="Fill-19" fill="#EAE5DC" sketch:type="MSShapeGroup"></path>
                <path d="M48.804,31.607 L47.577,31.607 L47.577,34.518 C47.975,34.651 48.385,34.755 48.804,34.831 L48.804,31.607" id="Fill-20" fill="#D6CFC2" sketch:type="MSShapeGroup"></path>
                <path d="M51.731,34.867 C51.332,34.928 50.922,34.963 50.505,34.969 L50.505,47.028 L51.731,47.028 L51.731,34.867" id="Fill-21" fill="#EAE5DC" sketch:type="MSShapeGroup"></path>
                <path d="M51.731,31.607 L50.505,31.607 L50.505,34.969 C50.922,34.963 51.332,34.928 51.731,34.867 L51.731,31.607" id="Fill-22" fill="#D6CFC2" sketch:type="MSShapeGroup"></path>
                <path d="M50.366,22.235 C48.515,22.235 46.839,22.877 45.626,23.918 C44.395,22.732 42.61,21.979 40.614,21.979 C38.621,21.979 36.834,22.732 35.606,23.918 C34.392,22.877 32.717,22.235 30.864,22.235 C27.158,22.235 24.153,24.814 24.153,27.996 C24.153,31.177 27.158,33.757 30.864,33.757 C32.86,33.757 34.646,33.006 35.876,31.82 C37.089,32.861 38.765,33.504 40.614,33.504 C42.467,33.504 44.142,32.861 45.356,31.82 C46.587,33.006 48.371,33.757 50.366,33.757 C54.073,33.757 57.078,31.177 57.078,27.996 C57.078,24.814 54.073,22.235 50.366,22.235" id="Fill-23" fill="#FFFFFF" sketch:type="MSShapeGroup"></path>
                <path d="M51.709,62.065 C51.709,62.065 51.709,64.741 46.609,62.701 C42.968,61.245 41.284,63.36 40.614,64.69 C39.946,63.36 38.263,61.245 34.62,62.701 C29.523,64.741 29.523,62.065 29.523,62.065 C29.523,62.065 28.791,64.629 30.511,66.049 C32.231,67.472 37.728,68.729 40.614,66.009 C43.503,68.729 48.999,67.472 50.721,66.049 C52.439,64.629 51.709,62.065 51.709,62.065" id="Fill-24" fill="#3C3C34" sketch:type="MSShapeGroup"></path>
            </g>
        </g>
    </g>
</svg>