<?xml version="1.0" encoding="UTF-8" standalone="no"?>
<svg width="120px" height="120px" viewBox="0 0 120 120" version="1.1" xmlns="http://www.w3.org/2000/svg" xmlns:xlink="http://www.w3.org/1999/xlink" xmlns:sketch="http://www.bohemiancoding.com/sketch/ns">
    <!-- Generator: Sketch 3.3.2 (12043) - http://www.bohemiancoding.com/sketch -->
    <title>Mobile Portrait Copy</title>
    <desc>Created with Sketch.</desc>
    <defs></defs>
    <g id="food" stroke="none" stroke-width="1" fill="none" fill-rule="evenodd" sketch:type="MSPage">
        <g id="Mobile-Portrait-Copy" sketch:type="MSArtboardGroup">
            <path d="M94.041,67.19 C94.041,85.151 79.482,99.71 61.521,99.71 C43.559,99.71 29,85.151 29,67.19 C29,63.596 29.581,60.141 30.657,56.911 C31.733,53.68 33.302,50.674 34.409,48.047 C37.247,45.292 39.624,42.915 33.836,38.372 C45.005,38.971 48.011,37.401 41.196,20.971 C54.473,35.25 57.929,34.668 68.457,20 C65.114,34.668 68.569,35.25 77.016,33.521 C75.03,37.401 78.036,38.971 80.728,40.943 C88.8,46.861 94.041,56.413 94.041,67.19 L94.041,67.19 Z" id="Imported-Layers" stroke="#0C100F" stroke-width="4" sketch:type="MSShapeGroup"></path>
            <path d="M89.698,66.955 C89.698,82.8 76.852,95.644 61.009,95.644 C45.164,95.644 32.319,82.8 32.319,66.955 C32.319,63.785 32.833,60.737 33.782,57.888 C34.731,55.036 36.116,52.385 37.093,50.068 C39.595,47.638 41.692,45.541 36.587,41.532 C46.438,42.061 49.091,40.677 43.079,26.183 C54.792,38.779 57.84,38.265 67.128,25.325 C64.179,38.265 67.228,38.779 74.679,37.253 C72.927,40.677 75.579,42.061 77.952,43.801 C85.073,49.02 89.698,57.448 89.698,66.955" id="Fill-1" fill="#DA3232" sketch:type="MSShapeGroup"></path>
            <g id="Group-6" sketch:type="MSLayerGroup" transform="translate(36.000000, 26.000000)">
                <path d="M36.144,11.588 C35.878,11.661 35.619,11.73 35.367,11.794 C35.602,11.771 35.846,11.743 36.096,11.709 C36.111,11.669 36.127,11.629 36.144,11.588 M28.704,2.095 C28.469,2.365 28.236,2.626 28.006,2.879 C27.41,3.528 26.825,4.122 26.238,4.659 C25.465,5.818 24.736,6.803 24.031,7.613 C25.447,6.502 26.935,4.859 28.629,2.687 C28.652,2.493 28.678,2.296 28.704,2.095" id="Fill-3" fill="#FFFFFF" sketch:type="MSShapeGroup"></path>
                <path d="M28.629,2.687 C26.935,4.859 25.447,6.502 24.031,7.613 C22.404,9.481 20.9,10.417 19.251,10.417 C16.728,10.417 13.864,8.231 9.691,3.851 C10.087,5.441 10.299,6.834 10.303,8.11 C10.303,8.155 10.302,8.2 10.302,8.246 C12.701,15.929 10.301,17.181 3.953,17.181 C3.613,17.181 3.262,17.178 2.899,17.171 C7.561,20.899 5.814,23.024 3.727,25.491 C2.974,27.792 1.879,30.434 1.175,33.255 C0.606,35.527 0.292,37.915 0.266,40.377 L0.266,41.046 C0.269,41.418 0.28,41.793 0.298,42.169 C0.996,57.293 12.325,69.168 25.811,69.168 C26.132,69.168 26.455,69.162 26.777,69.148 C40.687,68.567 51.383,55.544 50.667,40.061 C50.238,30.771 45.8,22.706 39.313,17.866 C37.177,16.273 34.817,15.029 36.096,11.709 C35.846,11.743 35.602,11.771 35.367,11.794 C34.047,12.131 32.901,12.349 31.94,12.349 C28.911,12.349 27.711,10.176 28.629,2.687" id="Fill-5" fill="#E9856C" sketch:type="MSShapeGroup"></path>
            </g>
            <path d="M49.224,69 C48.642,69 48.151,68.982 47.716,68.945 L47.319,68.912 L47.264,68.517 C47.224,68.229 47.221,67.943 47.221,67.654 L47.221,67.196 L47.678,67.156 C47.934,67.134 48.196,67.112 48.47,67.098 L48.343,65.622 C47.468,65.665 46.529,65.685 45.432,65.685 L45.111,65.685 L45.031,65.972 C44.919,66.374 44.744,66.741 44.513,67.064 L44.298,67.364 L43.948,67.247 C43.551,67.114 43.195,66.983 42.873,66.851 C42.783,67.04 42.683,67.219 42.596,67.365 C42.519,67.606 42.346,67.924 42.126,68.219 L41.912,68.504 L41.573,68.395 C41.1,68.245 40.736,68.051 40.43,67.786 L40.153,67.547 L40.296,67.211 C40.476,66.787 40.657,66.371 40.837,65.964 C39.937,65.547 39.167,65.149 38.491,64.752 L38.132,64.542 L38.274,64.15 C38.662,63.082 39.057,62.096 39.415,61.231 C39.097,61.196 38.783,61.155 38.468,61.113 L38.033,61.055 L38.033,60.617 C38.033,60.212 38.072,59.841 38.154,59.483 L38.247,59.072 L40.299,59.182 C40.542,58.65 40.794,58.136 41.033,57.659 L41.221,57.283 L41.624,57.404 C42.053,57.533 42.431,57.72 42.75,57.96 L43.053,58.189 C43.053,58.189 42.707,59.075 42.609,59.334 C43.509,59.396 44.389,59.47 45.267,59.555 L45.72,59.599 L45.72,60.053 C45.72,60.355 45.671,60.71 45.565,61.169 L45.477,61.557 L45.078,61.557 C43.859,61.557 42.781,61.52 41.796,61.446 C41.605,61.934 40.924,63.649 40.924,63.649 L41.745,64.005 C42.067,63.328 42.387,62.677 42.708,62.048 L42.868,61.734 L43.218,61.779 C43.705,61.843 44.105,61.976 44.443,62.186 L44.801,62.409 L44.641,62.799 C44.352,63.512 44.059,64.214 43.757,64.904 C43.97,65.005 44.99,65.494 44.99,65.494 L44.945,65.297 C44.865,64.951 44.825,64.563 44.825,64.144 L44.825,63.676 L45.293,63.645 C45.886,63.607 46.484,63.574 47.094,63.541 C47.435,63.521 47.78,63.502 48.129,63.482 C48.011,62.568 47.889,61.655 47.757,60.741 L47.728,60.543 C47.728,60.543 48.736,59.116 49.19,58.469 C47.934,58.323 46.58,58.1 45.081,57.79 L44.605,57.691 L44.69,57.212 C44.76,56.824 44.838,56.416 44.966,56.082 L45.105,55.714 L45.496,55.764 C47.647,56.038 49.777,56.342 51.825,56.666 L52.447,56.764 L52.21,57.348 C51.689,58.629 50.93,59.957 49.953,61.294 C50.104,61.984 50.232,62.671 50.34,63.38 C50.563,63.371 51.823,63.328 52.235,63.31 L52.713,63.288 L52.77,63.928 C52.799,64.228 52.828,64.541 52.828,64.867 L52.828,65.324 L52.374,65.365 C51.766,65.421 51.172,65.465 50.588,65.499 L50.64,66.196 C50.731,67.442 50.782,68.128 50.782,68.377 L50.782,68.775 L50.394,68.865 C50,68.956 49.616,69 49.224,69" id="Fill-8" fill="#1A1918" sketch:type="MSShapeGroup"></path>
            <path d="M45.432,56.26 C47.511,56.525 49.628,56.824 51.747,57.16 C51.217,58.465 50.44,59.805 49.415,61.181 C49.628,62.116 49.788,63.016 49.91,63.898 C50.688,63.863 51.463,63.845 52.258,63.809 C52.288,64.144 52.328,64.498 52.328,64.867 C51.55,64.938 50.791,64.991 50.052,65.026 C50.193,66.966 50.282,68.077 50.282,68.377 C49.98,68.447 49.628,68.5 49.224,68.5 C48.659,68.5 48.181,68.483 47.759,68.447 C47.722,68.183 47.722,67.919 47.722,67.654 C48.129,67.619 48.553,67.584 49.013,67.584 C48.942,66.754 48.872,65.925 48.8,65.097 C47.636,65.167 46.522,65.185 45.432,65.185 C45.359,64.867 45.325,64.515 45.325,64.144 C46.418,64.074 47.53,64.021 48.693,63.949 C48.553,62.856 48.409,61.763 48.252,60.669 C48.852,59.823 49.47,58.941 50.089,58.06 C48.534,57.918 46.895,57.654 45.182,57.3 C45.255,56.895 45.325,56.541 45.432,56.26 L45.432,56.26 Z M41.48,57.883 C41.833,57.989 42.167,58.147 42.448,58.359 C42.254,58.852 42.078,59.329 41.901,59.788 C43.032,59.858 44.127,59.947 45.22,60.053 C45.22,60.334 45.167,60.669 45.078,61.057 C43.88,61.057 42.662,61.022 41.464,60.917 C41.072,61.939 40.667,62.927 40.28,63.916 C40.846,64.163 41.427,64.409 41.991,64.656 C42.38,63.826 42.766,63.034 43.153,62.275 C43.561,62.328 43.895,62.433 44.179,62.61 C43.827,63.473 43.471,64.321 43.102,65.149 C43.597,65.379 44.071,65.609 44.55,65.837 C44.461,66.155 44.321,66.473 44.106,66.773 C43.578,66.596 43.065,66.402 42.609,66.19 C42.573,66.296 42.537,66.384 42.504,66.455 C42.398,66.702 42.272,66.932 42.167,67.107 C42.078,67.355 41.937,67.636 41.725,67.919 C41.339,67.796 41.021,67.636 40.756,67.407 C41.003,66.826 41.25,66.261 41.495,65.715 C40.473,65.255 39.556,64.797 38.744,64.321 C39.206,63.05 39.68,61.887 40.14,60.792 C39.591,60.757 39.063,60.687 38.533,60.617 C38.533,60.247 38.569,59.912 38.641,59.594 C39.31,59.629 39.962,59.664 40.614,59.7 C40.896,59.064 41.197,58.447 41.48,57.883 L41.48,57.883 Z M44.779,55.169 L44.498,55.903 C44.355,56.278 44.271,56.712 44.198,57.125 L44.027,58.083 L44.98,58.28 C46.17,58.525 47.27,58.718 48.305,58.86 C48.012,59.276 47.722,59.688 47.435,60.091 L47.205,60.417 L47.262,60.812 C47.367,61.546 47.467,62.28 47.563,63.014 C47.396,63.023 47.231,63.032 47.066,63.041 C46.455,63.075 45.855,63.108 45.261,63.146 L45.034,63.161 L45.104,62.988 L45.423,62.207 L45.181,62.057 L45.875,62.057 L46.053,61.281 C46.167,60.784 46.22,60.394 46.22,60.053 L46.22,59.145 L45.315,59.057 C44.635,58.992 43.973,58.934 43.316,58.884 L43.379,58.726 L43.657,58.019 L43.051,57.561 C42.685,57.285 42.254,57.071 41.769,56.925 L40.964,56.683 L40.587,57.435 C40.428,57.752 40.213,58.185 39.988,58.665 L38.694,58.595 L37.852,58.551 L37.666,59.373 C37.576,59.767 37.533,60.174 37.533,60.617 L37.533,61.493 L38.402,61.608 C38.502,61.622 38.602,61.635 38.704,61.648 C38.414,62.363 38.107,63.146 37.805,63.98 L37.52,64.763 L38.238,65.184 C38.813,65.522 39.455,65.86 40.183,66.208 C40.067,66.474 39.951,66.743 39.836,67.016 L39.55,67.688 L40.102,68.165 C40.458,68.471 40.889,68.702 41.422,68.872 L42.099,69.089 L42.526,68.519 C42.756,68.212 42.939,67.883 43.072,67.54 L43.107,67.479 C43.321,67.56 43.548,67.64 43.789,67.721 L44.488,67.955 L44.919,67.355 C45.17,67.006 45.361,66.613 45.49,66.185 C46.373,66.185 47.156,66.171 47.887,66.143 C47.9,66.306 47.914,66.47 47.929,66.633 C47.83,66.641 47.732,66.649 47.635,66.658 L46.722,66.738 L46.722,67.654 C46.722,67.935 46.722,68.253 46.768,68.586 L46.879,69.376 L47.674,69.444 C48.121,69.482 48.629,69.5 49.224,69.5 C49.655,69.5 50.075,69.452 50.508,69.352 L51.282,69.172 L51.282,68.377 C51.282,68.12 51.24,67.546 51.138,66.16 L51.123,65.966 C51.556,65.937 51.989,65.902 52.42,65.863 L53.328,65.78 L53.328,64.867 C53.328,64.511 53.297,64.176 53.268,63.881 L53.168,62.767 L52.213,62.81 C51.803,62.829 51.397,62.842 50.995,62.856 L50.765,62.864 C50.683,62.373 50.592,61.89 50.488,61.407 C51.428,60.097 52.161,58.797 52.674,57.536 L53.147,56.369 L51.903,56.172 C49.85,55.847 47.716,55.543 45.559,55.268 L44.779,55.169 L44.779,55.169 Z M41.908,62.525 C41.981,62.341 42.055,62.156 42.127,61.97 L42.185,61.974 C42.093,62.155 42,62.339 41.908,62.525 L41.908,62.525 Z" id="Fill-9" fill="#FFFFFF" sketch:type="MSShapeGroup"></path>
            <path d="M65.298,63.873 C62.486,63.705 61.759,63.408 61.497,62.982 L61.38,62.792 L61.443,62.577 C61.74,61.585 62.203,60.259 62.821,58.63 C61.473,58.609 60.302,58.528 59.262,58.383 L58.964,58.342 L58.86,58.06 C58.789,57.865 58.759,57.645 58.759,57.323 C58.759,57.047 58.789,56.81 58.85,56.601 L58.956,56.242 L59.33,56.242 C61.173,56.242 63.187,56.331 65.317,56.508 L65.932,56.559 L65.756,57.149 C65.292,58.705 64.777,60.207 64.225,61.622 C64.646,61.712 65.096,61.795 65.585,61.873 L66.006,61.94 L66.006,62.367 C66.006,62.762 65.935,63.158 65.798,63.542 L65.671,63.895 L65.298,63.873 L65.298,63.873 Z M55.415,59.376 C54.442,59.376 53.655,59.315 53.009,59.19 L52.63,59.117 L52.604,58.732 C52.556,58.002 52.533,57.15 52.533,56.053 C52.533,55.617 52.557,55.139 52.605,54.63 L52.644,54.224 L53.05,54.181 C53.731,54.107 54.516,54.072 55.451,54.072 C56.284,54.072 57.021,54.121 57.643,54.219 L58.047,54.282 L58.065,54.69 C58.104,55.526 58.138,56.415 58.138,57.359 C58.138,57.924 58.1,58.413 58.023,58.854 L57.963,59.207 L57.607,59.263 C57.118,59.338 56.4,59.376 55.415,59.376 L55.415,59.376 Z M54.751,57.299 L55.868,57.299 L55.868,56.2 L54.751,56.2 L54.751,57.299 Z M60.072,56.021 C59.576,55.877 59.179,55.69 58.855,55.449 L58.557,55.227 L58.685,54.877 C59.164,53.56 59.764,52.138 60.516,50.532 L60.673,50.201 L61.036,50.249 C61.498,50.311 61.933,50.438 62.333,50.627 L62.743,50.822 L62.588,51.249 C62.488,51.524 62.385,51.789 62.282,52.049 L67.08,52.454 L67.08,53.479 C67.08,53.754 67.029,54.025 66.925,54.306 L66.799,54.644 L66.437,54.63 C64.629,54.564 62.924,54.436 61.363,54.249 C61.131,54.764 60.898,55.26 60.664,55.755 L60.481,56.141 L60.072,56.021 L60.072,56.021 Z" id="Fill-10" fill="#1A1918" sketch:type="MSShapeGroup"></path>
            <path d="M60.97,50.745 C61.36,50.797 61.747,50.903 62.118,51.079 C61.939,51.573 61.747,52.032 61.572,52.491 C63.228,52.631 64.904,52.772 66.58,52.914 L66.58,53.479 C66.58,53.725 66.528,53.937 66.456,54.131 C64.516,54.06 62.717,53.919 61.058,53.707 C60.777,54.342 60.495,54.942 60.212,55.542 C59.789,55.419 59.438,55.26 59.154,55.048 C59.681,53.602 60.3,52.172 60.97,50.745 L60.97,50.745 Z M55.451,54.572 C56.297,54.572 57,54.624 57.566,54.713 C57.604,55.542 57.638,56.423 57.638,57.359 C57.638,57.888 57.604,58.347 57.531,58.769 C57.074,58.839 56.368,58.876 55.415,58.876 C54.515,58.876 53.739,58.822 53.103,58.699 C53.052,57.923 53.033,57.041 53.033,56.053 C53.033,55.683 53.052,55.224 53.103,54.678 C53.758,54.607 54.534,54.572 55.451,54.572 L55.451,54.572 Z M54.251,57.799 L56.368,57.799 L56.368,55.7 L54.251,55.7 L54.251,57.799 Z M59.33,56.742 C61.165,56.742 63.14,56.829 65.276,57.006 C64.745,58.788 64.165,60.445 63.546,61.98 C64.199,62.139 64.852,62.262 65.506,62.367 C65.506,62.738 65.435,63.074 65.327,63.374 C63.247,63.25 62.118,63.038 61.923,62.72 C62.239,61.663 62.77,60.146 63.546,58.135 C61.995,58.135 60.598,58.064 59.33,57.888 C59.278,57.747 59.259,57.57 59.259,57.323 C59.259,57.112 59.278,56.918 59.33,56.742 L59.33,56.742 Z M60.376,49.656 L60.064,50.32 C59.461,51.607 58.954,52.777 58.529,53.872 L58.527,53.852 L57.721,53.725 C57.073,53.623 56.309,53.572 55.451,53.572 C54.499,53.572 53.696,53.608 52.996,53.684 L52.186,53.77 L52.107,54.583 C52.059,55.107 52.033,55.602 52.033,56.053 C52.033,57.162 52.057,58.024 52.105,58.766 L52.157,59.535 L52.914,59.681 C53.593,59.812 54.41,59.875 55.415,59.875 C56.426,59.875 57.169,59.836 57.684,59.757 L58.393,59.647 L58.516,58.939 L58.557,58.684 L58.598,58.796 L59.193,58.879 C60.066,59 61.028,59.077 62.105,59.113 C61.606,60.455 61.224,61.568 60.965,62.434 L60.836,62.863 L61.071,63.244 C61.443,63.848 62.193,64.188 65.267,64.372 L66.016,64.417 L66.268,63.711 C66.426,63.272 66.506,62.82 66.506,62.367 L66.506,61.514 L65.664,61.379 C65.399,61.337 65.146,61.293 64.904,61.248 C65.381,59.985 65.827,58.659 66.234,57.292 L66.587,56.112 L65.359,56.01 C63.918,55.89 62.529,55.81 61.209,55.77 C61.363,55.446 61.516,55.12 61.668,54.788 C63.141,54.954 64.736,55.069 66.42,55.13 L67.141,55.157 L67.393,54.48 C67.518,54.143 67.58,53.815 67.58,53.479 L67.58,51.995 L66.664,51.917 L64.796,51.76 L62.989,51.607 L63.058,51.419 L63.367,50.565 L62.547,50.176 C62.101,49.964 61.615,49.822 61.102,49.753 L60.376,49.656 L60.376,49.656 Z" id="Fill-11" fill="#FFFFFF" sketch:type="MSShapeGroup"></path>
            <path d="M74.084,64.063 C72.13,64.063 71.968,63.981 71.848,63.922 L71.653,63.825 L71.592,63.614 C71.543,63.444 71.519,63.243 71.519,62.981 C71.519,62.786 71.535,62.529 71.659,62.282 L71.786,62.028 L72.069,62.007 C72.419,61.981 72.786,61.964 73.18,61.95 C73.19,61.758 73.204,61.569 73.22,61.382 C72.742,61.344 72.254,61.291 71.739,61.219 L71.307,61.16 L71.307,60.21 C71.307,60.048 71.309,59.884 71.332,59.72 L71.391,59.288 L71.827,59.288 C72.327,59.288 72.849,59.299 73.402,59.322 L73.496,58.39 L73.732,58.331 C72.906,58.24 72.14,58.105 71.438,57.927 L71,57.815 L71.067,57.369 C71.263,56.059 71.541,54.794 71.896,53.6 C71.709,53.586 71.024,53.529 71.024,53.529 L70.844,53.224 C70.772,53.031 70.742,52.8 70.742,52.451 C70.742,52.174 70.809,51.917 70.943,51.666 L71.094,51.389 L71.409,51.404 C73.528,51.511 75.698,51.635 77.889,51.776 L78.357,51.806 L78.357,52.751 C78.357,53.076 78.311,53.331 78.273,53.487 L78.18,53.874 L77.781,53.869 C76.719,53.855 75.556,53.815 74.238,53.75 C74.076,54.55 73.922,55.351 73.768,56.161 C74.417,56.253 75.309,56.365 76.433,56.495 C76.295,56.073 76.208,55.605 76.174,55.096 L76.15,54.744 L76.474,54.603 C76.781,54.47 77.124,54.369 77.554,54.288 L77.893,54.224 L78.073,54.519 C78.386,55.03 78.603,55.75 78.74,56.72 L78.789,57.068 L78.478,57.232 C78.091,57.437 77.697,57.562 77.311,57.605 L77.023,57.636 C77.01,57.776 76.982,57.923 76.953,58.069 L76.873,58.471 L76.463,58.471 C76.121,58.471 75.787,58.465 75.459,58.454 L75.586,58.504 L75.541,59.424 C76.066,59.458 76.613,59.502 77.183,59.556 L77.635,59.599 L77.635,60.054 C77.635,60.362 77.604,60.709 77.541,61.117 L77.476,61.54 L77.047,61.54 C76.501,61.54 75.956,61.53 75.428,61.51 L75.393,61.972 C75.808,61.993 76.176,62.023 76.49,62.061 L76.807,62.101 L76.904,62.404 C76.957,62.567 76.98,62.756 76.98,63.017 C76.98,63.352 76.952,63.541 76.879,63.692 L76.786,63.884 L76.585,63.95 C76.481,63.984 76.241,64.063 74.084,64.063 L74.084,64.063 Z M82.97,62.653 C82.555,62.653 82.236,62.627 81.969,62.571 L81.714,62.518 L81.611,62.277 C81.491,61.995 81.433,61.677 81.433,61.305 L81.433,60.953 L81.765,60.834 C81.93,60.775 82.101,60.732 82.282,60.704 C82.154,58.662 82.076,56.697 82.012,54.867 L81.997,54.434 L82.424,54.357 C82.807,54.289 83.219,54.225 83.641,54.225 L84.094,54.225 L84.138,54.676 C84.485,58.168 84.654,60.562 84.654,61.994 L84.654,62.365 L84.299,62.472 C83.895,62.594 83.461,62.653 82.97,62.653 L82.97,62.653 Z M79.502,60.801 L79.444,60.366 C79.262,58.971 79.156,57.597 79.122,56.167 L79.111,55.72 L79.555,55.66 C80.014,55.597 80.432,55.567 80.838,55.567 L81.308,55.567 L81.337,56.036 C81.42,57.371 81.488,58.673 81.555,59.945 L81.59,60.607 L81.156,60.686 C80.728,60.764 80.329,60.801 79.94,60.801 L79.502,60.801 L79.502,60.801 Z" id="Fill-12" fill="#1A1918" sketch:type="MSShapeGroup"></path>
            <path d="M71.384,51.904 C73.501,52.01 75.669,52.134 77.857,52.275 L77.857,52.751 C77.857,53.015 77.822,53.229 77.788,53.369 C76.48,53.351 75.159,53.298 73.835,53.229 C73.605,54.338 73.393,55.449 73.182,56.579 C73.835,56.683 74.926,56.825 76.463,57.002 C76.498,57.143 76.532,57.301 76.532,57.46 C76.532,57.62 76.498,57.796 76.463,57.971 C74.593,57.971 72.953,57.796 71.561,57.442 C71.788,55.926 72.126,54.48 72.563,53.139 C72.141,53.122 71.72,53.085 71.312,53.051 C71.261,52.911 71.242,52.715 71.242,52.451 C71.242,52.275 71.278,52.099 71.384,51.904 L71.384,51.904 Z M83.641,54.725 C83.977,58.113 84.154,60.547 84.154,61.994 C83.803,62.1 83.413,62.153 82.97,62.153 C82.619,62.153 82.319,62.133 82.071,62.081 C81.966,61.834 81.932,61.571 81.932,61.305 C82.179,61.217 82.461,61.165 82.813,61.165 C82.671,59.03 82.585,56.931 82.512,54.85 C82.903,54.779 83.27,54.725 83.641,54.725 L83.641,54.725 Z M77.646,54.779 C77.927,55.238 78.121,55.909 78.245,56.79 C77.909,56.967 77.575,57.072 77.256,57.107 C76.923,56.56 76.727,55.873 76.673,55.062 C76.959,54.937 77.275,54.85 77.646,54.779 L77.646,54.779 Z M80.838,56.067 C80.926,57.478 80.997,58.854 81.067,60.194 C80.679,60.264 80.308,60.301 79.94,60.301 C79.762,58.941 79.655,57.566 79.622,56.155 C80.009,56.102 80.415,56.067 80.838,56.067 L80.838,56.067 Z M74.559,58.748 C74.807,58.783 74.983,58.801 75.069,58.835 C75.052,59.207 75.033,59.559 75.016,59.895 C75.686,59.93 76.392,59.983 77.135,60.054 C77.135,60.37 77.098,60.706 77.047,61.04 C76.34,61.04 75.633,61.023 74.966,60.988 C74.926,61.482 74.893,61.975 74.857,62.452 C75.477,62.47 76.006,62.505 76.429,62.558 C76.463,62.664 76.48,62.805 76.48,63.017 C76.48,63.263 76.463,63.404 76.429,63.475 C76.269,63.527 75.492,63.563 74.084,63.563 C72.849,63.563 72.177,63.527 72.072,63.475 C72.036,63.351 72.02,63.192 72.02,62.981 C72.02,62.805 72.036,62.646 72.106,62.505 C72.583,62.47 73.094,62.452 73.659,62.435 C73.676,61.905 73.713,61.411 73.767,60.917 C73.094,60.88 72.442,60.812 71.807,60.724 L71.807,60.21 C71.807,60.07 71.807,59.93 71.827,59.788 C72.46,59.788 73.13,59.807 73.851,59.842 C73.889,59.489 73.924,59.135 73.959,58.783 C74.154,58.766 74.347,58.748 74.559,58.748 L74.559,58.748 Z M70.804,50.874 L70.504,51.429 C70.328,51.755 70.242,52.089 70.242,52.451 C70.242,52.863 70.281,53.145 70.374,53.396 L70.594,53.995 L71.229,54.048 L71.248,54.049 C70.967,55.089 70.74,56.176 70.572,57.294 L70.439,58.189 L71.315,58.412 C71.83,58.542 72.379,58.65 72.959,58.736 L72.957,58.752 L72.952,58.806 C72.56,58.794 72.187,58.788 71.827,58.788 L70.955,58.788 L70.836,59.651 C70.808,59.861 70.808,60.047 70.808,60.21 L70.808,61.595 L71.402,61.678 L71.212,62.058 C71.041,62.399 71.019,62.731 71.019,62.981 C71.019,63.291 71.049,63.537 71.111,63.754 L71.234,64.174 L71.625,64.37 C71.833,64.473 72.012,64.563 74.084,64.563 C76.32,64.563 76.573,64.48 76.74,64.425 L77.144,64.292 L77.329,63.91 C77.436,63.687 77.48,63.429 77.48,63.017 C77.48,62.701 77.449,62.465 77.381,62.251 L77.312,62.04 L77.904,62.04 L78.035,61.193 C78.102,60.76 78.135,60.388 78.135,60.054 L78.135,59.145 L77.229,59.058 C76.882,59.025 76.541,58.996 76.208,58.97 L76.463,58.971 L77.282,58.971 L77.459,58.09 C77.869,58.033 78.281,57.898 78.685,57.687 C78.741,58.607 78.828,59.515 78.949,60.432 L79.063,61.301 L79.94,61.301 C80.263,61.301 80.59,61.277 80.933,61.228 L80.933,61.305 C80.933,61.746 81.004,62.128 81.151,62.474 L81.355,62.954 L81.867,63.061 C82.169,63.123 82.52,63.153 82.97,63.153 C83.511,63.153 83.992,63.087 84.443,62.951 L85.154,62.737 L85.154,61.994 C85.154,60.545 84.984,58.135 84.636,54.626 L84.546,53.725 L83.641,53.725 C83.18,53.725 82.74,53.792 82.335,53.865 L81.482,54.019 L81.513,54.885 L81.519,55.067 L80.838,55.067 C80.41,55.067 79.969,55.099 79.487,55.165 L78.931,55.24 C78.829,54.914 78.709,54.628 78.57,54.379 L78.76,53.605 C78.805,53.423 78.857,53.126 78.857,52.751 L78.857,51.337 L77.922,51.277 C75.786,51.139 73.603,51.014 71.434,50.905 L70.804,50.874 L70.804,50.874 Z M74.358,55.737 C74.452,55.246 74.547,54.757 74.645,54.27 C75.068,54.29 75.477,54.307 75.87,54.321 L75.628,54.426 L75.675,55.129 C75.693,55.401 75.725,55.663 75.771,55.914 C75.234,55.85 74.763,55.791 74.358,55.737 L74.358,55.737 Z" id="Fill-13" fill="#FFFFFF" sketch:type="MSShapeGroup"></path>
            <path d="M57.688,85.586 C57.264,85.586 56.831,85.562 56.398,85.514 L56.068,85.477 L55.974,85.157 C55.92,84.973 55.884,84.776 55.864,84.569 C55.572,84.773 55.277,84.965 54.981,85.144 L54.708,85.31 L54.443,85.131 C54.071,84.88 53.785,84.579 53.569,84.21 L53.337,83.813 L53.174,83.977 L52.906,83.917 C52.419,83.808 52.024,83.582 51.733,83.244 L51.513,82.987 L51.669,82.687 C52.038,81.977 52.516,81.24 53.094,80.489 L52.532,80.489 L52.501,80.288 C52.432,80.605 52.313,80.947 52.195,81.272 L52.059,81.643 L51.668,81.597 C51.227,81.545 50.814,81.457 50.434,81.332 L50.18,82.388 L49.07,82.211 C48.842,82.189 48.601,82.109 48.428,81.99 L48.177,81.817 L48.215,81.515 C48.361,80.338 48.567,79.132 48.829,77.923 C48.179,77.691 47.6,77.405 47.107,77.07 L46.79,76.855 L46.915,76.494 C47.084,76.003 47.24,75.656 47.422,75.367 L47.641,75.019 L48.025,75.167 C48.485,75.345 48.929,75.542 49.344,75.734 C49.504,75.122 49.681,74.497 49.872,73.852 L49.996,73.43 L50.431,73.499 C50.806,73.559 51.173,73.657 51.519,73.79 L51.893,73.935 L51.833,74.331 C51.729,75.025 51.615,75.716 51.49,76.412 C51.712,76.246 51.954,76.073 52.22,75.891 L52.527,75.68 L52.817,75.914 C53.143,76.177 53.39,76.495 53.572,76.885 L53.572,76.673 C53.572,76.504 53.574,76.333 53.615,76.119 L53.693,75.714 L54.613,75.714 L54.613,75.592 C54.406,75.579 53.573,75.514 53.573,75.514 L53.555,75.071 C53.519,74.2 53.501,73.224 53.501,72.141 C53.501,71.76 53.519,71.292 53.555,70.749 L53.585,70.314 L54.02,70.284 C55.03,70.212 56.252,70.176 57.652,70.176 C58.891,70.176 59.994,70.224 60.931,70.32 L61.362,70.364 L61.381,70.797 C61.418,71.702 61.452,72.679 61.452,73.71 C61.452,74.258 61.415,74.742 61.338,75.189 L61.276,75.543 L60.921,75.598 C60.661,75.637 60.35,75.661 59.987,75.675 L59.985,75.819 L61.644,75.871 L61.644,76.356 C61.644,76.727 61.605,77.116 61.529,77.509 L61.45,77.914 L61.038,77.914 C60.661,77.914 60.293,77.914 59.933,77.908 L59.919,78.253 C60.604,78.249 61.295,78.236 62.005,78.223 L62.571,78.212 L62.669,78.596 C62.715,78.774 62.757,78.972 62.757,79.214 C62.757,79.517 62.734,79.737 62.714,79.859 L62.648,80.259 L62.171,80.281 C62.46,80.609 62.73,80.937 62.988,81.272 L63.257,81.622 L62.943,81.932 C62.728,82.146 62.461,82.398 62.109,82.652 L61.819,82.862 L61.44,82.593 L61.449,82.618 L61.094,82.822 C60.966,82.896 60.836,82.963 60.706,83.025 C60.999,83.125 61.277,83.228 61.545,83.337 L61.896,83.481 L61.851,83.858 C61.813,84.188 61.692,84.561 61.504,84.94 L61.342,85.264 L60.983,85.211 C60.296,85.109 59.714,84.931 59.204,84.666 L59.264,85.283 L58.898,85.415 C58.58,85.53 58.183,85.586 57.688,85.586 L57.688,85.586 Z M54.359,82.73 C54.048,83.082 53.718,83.433 53.368,83.782 L53.352,83.798 L53.716,83.546 C54.02,83.335 54.339,83.117 54.666,82.914 L54.359,82.73 L54.359,82.73 Z M56.719,83.716 L56.847,83.712 C56.809,83.433 56.773,83.161 56.742,82.896 C56.668,83.025 56.59,83.157 56.506,83.29 L56.432,83.406 L56.719,83.716 L56.719,83.716 Z M55.668,81.087 C56.002,81.222 56.313,81.367 56.61,81.525 C56.593,81.274 56.58,81.033 56.571,80.8 L56.559,80.442 L56.097,80.451 C55.961,80.663 55.818,80.875 55.668,81.087 L55.668,81.087 Z M58.67,80.609 C58.721,80.849 58.771,81.136 58.823,81.473 C59.149,81.327 59.482,81.2 59.819,81.093 C59.62,80.866 59.427,80.625 59.239,80.373 C59.034,80.379 58.829,80.385 58.624,80.391 L58.67,80.609 L58.67,80.609 Z M52.424,79.724 C52.402,79.492 52.392,79.239 52.392,78.949 L52.392,78.47 L52.869,78.449 C53.3,78.43 53.74,78.416 54.191,78.402 L54.786,78.381 C54.76,78.197 54.737,78.001 54.719,77.787 L53.572,77.73 L53.572,77.395 L53.507,77.468 C53.157,77.853 52.616,78.27 51.897,78.706 L51.572,78.903 L51.296,78.644 L51.096,78.441 C51.044,78.688 50.99,78.936 50.936,79.186 C51.185,79.274 52.424,79.724 52.424,79.724 L52.424,79.724 Z M56.969,78.322 C57.204,78.318 57.442,78.312 57.682,78.305 C57.682,78.159 57.684,78.017 57.685,77.879 C57.436,77.878 57.186,77.875 56.936,77.867 C56.947,78.022 56.958,78.174 56.969,78.322 L56.969,78.322 Z M57.772,75.755 L57.778,75.687 C57.398,75.685 57.041,75.68 56.703,75.673 L56.712,75.735 C57.059,75.739 57.415,75.747 57.772,75.755 L57.772,75.755 Z M59.183,73.686 L59.183,72.253 L57.924,72.253 L57.924,72.634 C57.924,73.016 57.868,73.361 57.754,73.686 L59.183,73.686 L59.183,73.686 Z" id="Fill-14" fill="#1A1918" sketch:type="MSShapeGroup"></path>
            <path d="M57.652,70.676 C58.94,70.676 60.015,70.729 60.881,70.817 C60.918,71.716 60.952,72.686 60.952,73.71 C60.952,74.222 60.918,74.68 60.845,75.103 C60.386,75.174 59.716,75.191 58.799,75.191 C56.965,75.191 55.377,75.158 54.055,75.051 C54.02,74.186 54.001,73.216 54.001,72.141 C54.001,71.77 54.02,71.312 54.055,70.782 C55.042,70.712 56.24,70.676 57.652,70.676 L57.652,70.676 Z M57.264,73.57 C56.435,73.57 55.748,73.516 55.201,73.41 L55.201,74.186 L59.682,74.186 L59.682,71.753 L55.201,71.753 L55.201,72.369 C55.871,72.406 56.61,72.494 57.424,72.634 C57.424,72.987 57.371,73.287 57.264,73.57 L57.264,73.57 Z M50.352,73.993 C50.684,74.046 51.02,74.134 51.339,74.257 C51.058,76.125 50.72,77.872 50.352,79.513 C50.878,79.69 51.442,79.901 52.026,80.112 C51.972,80.395 51.867,80.712 51.725,81.1 C51.126,81.03 50.577,80.888 50.086,80.66 C49.978,81.065 49.893,81.453 49.803,81.824 C49.803,81.824 49.575,81.789 49.153,81.718 C48.975,81.7 48.813,81.647 48.711,81.577 C48.869,80.307 49.099,78.983 49.415,77.591 C48.604,77.343 47.934,77.027 47.388,76.656 C47.527,76.25 47.668,75.915 47.845,75.634 C48.481,75.88 49.08,76.161 49.679,76.444 C49.874,75.649 50.102,74.839 50.352,73.993 L50.352,73.993 Z M56.171,75.474 C56.208,75.739 56.24,75.985 56.278,76.233 C56.913,76.233 57.581,76.25 58.251,76.268 C58.251,76.021 58.269,75.792 58.289,75.597 C58.464,75.58 58.659,75.561 58.904,75.561 C59.098,75.561 59.292,75.597 59.487,75.668 C59.487,75.88 59.47,76.092 59.47,76.303 C60.015,76.321 60.58,76.339 61.145,76.356 C61.145,76.691 61.11,77.043 61.038,77.414 C60.492,77.414 59.962,77.414 59.452,77.397 C59.435,77.854 59.416,78.296 59.398,78.755 C60.314,78.755 61.231,78.737 62.184,78.72 C62.221,78.861 62.257,79.02 62.257,79.214 C62.257,79.479 62.238,79.671 62.221,79.778 C61.816,79.796 61.427,79.812 61.057,79.812 C61.604,80.377 62.116,80.959 62.592,81.577 C62.378,81.789 62.134,82.018 61.816,82.247 C60.97,81.647 60.193,80.853 59.487,79.866 C58.269,79.901 57.053,79.936 55.817,79.956 C55.113,81.1 54.177,82.266 53.015,83.429 C52.625,83.342 52.325,83.165 52.112,82.918 C52.607,81.965 53.297,80.978 54.16,79.971 C53.755,79.989 53.348,79.989 52.96,79.989 C52.907,79.653 52.891,79.301 52.891,78.949 C53.684,78.914 54.515,78.895 55.377,78.861 C55.271,78.367 55.218,77.838 55.182,77.309 C54.796,77.29 54.424,77.273 54.072,77.255 L54.072,76.673 C54.072,76.533 54.072,76.391 54.106,76.214 L55.13,76.214 C55.113,76.003 55.113,75.774 55.113,75.561 C55.466,75.509 55.817,75.474 56.171,75.474 L56.171,75.474 Z M56.504,78.826 C57.053,78.826 57.618,78.808 58.181,78.789 C58.181,78.279 58.181,77.802 58.2,77.38 C57.601,77.38 57.001,77.38 56.402,77.343 C56.435,77.872 56.47,78.367 56.504,78.826 L56.504,78.826 Z M52.503,76.303 C52.767,76.516 52.977,76.779 53.136,77.132 C52.817,77.484 52.309,77.872 51.638,78.279 C51.354,78.013 51.144,77.731 51.038,77.414 C51.442,77.061 51.937,76.691 52.503,76.303 L52.503,76.303 Z M58.181,80.712 C58.355,81.542 58.535,82.953 58.728,84.944 C58.481,85.034 58.145,85.086 57.688,85.086 C57.194,85.086 56.77,85.052 56.454,85.017 C56.382,84.77 56.349,84.505 56.349,84.222 C56.701,84.222 57.071,84.205 57.424,84.187 C57.227,82.918 57.106,81.77 57.071,80.783 C57.438,80.748 57.811,80.712 58.181,80.712 L58.181,80.712 Z M55.182,81.436 C55.661,81.612 56.136,81.824 56.595,82.088 C56.49,82.317 56.328,82.634 56.083,83.023 C55.572,82.829 55.095,82.599 54.671,82.335 C54.796,81.965 54.972,81.665 55.182,81.436 L55.182,81.436 Z M60.369,81.453 C60.58,81.752 60.738,82.07 60.845,82.388 C60.351,82.671 59.839,82.865 59.311,82.953 C59.079,82.634 58.904,82.335 58.799,82.035 C59.311,81.789 59.839,81.594 60.369,81.453 L60.369,81.453 Z M55.342,83.094 C55.604,83.288 55.854,83.517 56.098,83.781 C55.679,84.099 55.218,84.417 54.723,84.716 C54.409,84.505 54.177,84.257 54.001,83.957 C54.457,83.641 54.899,83.342 55.342,83.094 L55.342,83.094 Z M59.751,83.252 C60.245,83.394 60.794,83.57 61.355,83.8 C61.322,84.081 61.215,84.399 61.057,84.716 C60.457,84.627 59.911,84.47 59.435,84.222 C59.506,83.852 59.61,83.535 59.751,83.252 L59.751,83.252 Z M57.652,69.676 C56.24,69.676 55.006,69.712 53.984,69.785 L53.114,69.846 L53.056,70.716 C53.019,71.275 53.001,71.754 53.001,72.141 C53.001,73.209 53.019,74.201 53.056,75.091 L53.071,75.476 L52.551,75.057 L52.186,75.307 C52.235,75.006 52.283,74.706 52.328,74.405 L52.447,73.612 L51.698,73.324 C51.32,73.178 50.92,73.071 50.51,73.005 L49.64,72.866 L49.392,73.71 C49.247,74.204 49.123,74.639 49.014,75.036 C48.752,74.921 48.482,74.808 48.205,74.701 L47.437,74.404 L46.998,75.101 C46.795,75.423 46.624,75.803 46.442,76.331 L46.193,77.055 L46.826,77.484 C47.248,77.77 47.725,78.022 48.252,78.237 C48.029,79.32 47.85,80.398 47.719,81.454 L47.643,82.058 L48.145,82.402 C48.439,82.603 48.774,82.68 49.016,82.708 C49.428,82.778 49.65,82.812 49.65,82.812 L50.555,82.952 L50.774,82.062 L50.8,81.953 C51.005,82.001 51.217,82.04 51.433,82.071 C51.361,82.2 51.291,82.329 51.225,82.456 L50.912,83.057 L51.354,83.57 C51.713,83.985 52.211,84.274 52.797,84.405 L53.15,84.483 C53.404,84.909 53.735,85.257 54.164,85.545 L54.693,85.903 L55.24,85.572 C55.334,85.515 55.429,85.457 55.523,85.397 L55.681,85.937 L56.344,86.01 C56.794,86.06 57.246,86.086 57.688,86.086 C58.242,86.086 58.694,86.02 59.068,85.885 L59.799,85.621 L59.782,85.446 C60.129,85.56 60.503,85.645 60.91,85.706 L61.627,85.812 L61.951,85.163 C62.169,84.728 62.303,84.308 62.349,83.917 L62.437,83.162 L62.322,83.115 L62.402,83.058 C62.781,82.783 63.066,82.515 63.296,82.288 L63.923,81.667 L63.384,80.967 C63.291,80.846 63.195,80.725 63.098,80.605 L63.207,79.94 C63.239,79.747 63.257,79.488 63.257,79.214 C63.257,78.917 63.207,78.682 63.153,78.472 L62.957,77.705 L62.166,77.72 L61.996,77.723 L62.019,77.605 C62.102,77.18 62.144,76.76 62.144,76.356 L62.144,75.386 L61.812,75.376 L61.83,75.274 C61.912,74.799 61.952,74.287 61.952,73.71 C61.952,72.668 61.918,71.684 61.88,70.776 L61.844,69.911 L60.982,69.823 C60.027,69.725 58.907,69.676 57.652,69.676 L57.652,69.676 Z M58.422,72.753 L58.682,72.753 L58.682,73.186 L58.387,73.186 C58.406,73.046 58.418,72.901 58.422,72.753 L58.422,72.753 Z" id="Fill-15" fill="#FFFFFF" sketch:type="MSShapeGroup"></path>
            <path d="M76.648,83.772 C76.41,83.772 76.2,83.756 75.996,83.739 L75.573,83.706 L75.478,83.278 C75.38,82.116 75.336,80.536 75.336,78.157 C75.336,76.685 75.336,75.547 75.356,74.731 C75.222,74.722 75.09,74.712 74.959,74.701 C74.642,75.574 74.376,76.264 74.11,76.903 L73.944,77.3 L73.526,77.195 C73.001,77.063 72.607,76.891 72.289,76.652 L72.152,76.549 C71.811,76.845 71.384,77.15 70.859,77.473 L70.522,77.68 L70.243,77.4 C70.141,77.296 70.049,77.196 69.967,77.097 C69.884,77.573 69.798,78.048 69.71,78.522 C70.12,78.64 70.536,78.769 70.959,78.899 L71.717,79.133 L71.635,79.571 C71.578,79.878 71.467,80.224 71.287,80.659 L71.144,81.003 L70.773,80.964 C70.279,80.913 69.787,80.813 69.302,80.667 C69.214,81.106 68.944,82.412 68.944,82.412 L67.815,82.231 C67.616,82.21 67.409,82.144 67.21,82.031 L66.926,81.87 L66.96,81.545 C67.122,79.975 67.375,78.268 67.713,76.464 C66.969,76.196 66.288,75.84 65.683,75.405 L65.384,75.19 L65.502,74.84 C65.657,74.38 65.809,74.023 65.977,73.717 L66.196,73.323 L66.61,73.5 C67.12,73.716 67.631,73.953 68.16,74.219 C68.358,73.289 68.575,72.335 68.806,71.357 L68.913,70.899 L69.376,70.978 C69.746,71.042 70.115,71.143 70.443,71.271 L70.805,71.412 L70.758,71.798 C70.613,72.962 70.448,74.133 70.264,75.303 C70.584,75.045 70.945,74.772 71.363,74.471 L71.661,74.257 L71.955,74.477 C72.157,74.628 72.327,74.798 72.467,74.991 C72.98,73.423 73.546,71.861 74.153,70.335 L74.298,69.972 L74.686,70.024 C75.109,70.082 75.513,70.193 75.954,70.374 L76.381,70.549 L76.241,70.988 C76.068,71.532 75.894,72.06 75.723,72.57 C77.374,72.602 79.05,72.698 80.82,72.861 L81.274,72.903 L81.274,73.359 C81.274,73.709 81.242,74.086 81.18,74.479 L81.111,74.9 L80.686,74.9 C79.485,74.9 78.527,74.881 77.662,74.84 C77.666,75.284 77.676,75.73 77.691,76.181 C78.354,76.215 79.072,76.264 79.851,76.336 L80.305,76.379 L80.305,76.834 C80.305,77.193 80.267,77.568 80.19,77.982 L80.115,78.392 L79.699,78.392 C78.966,78.392 78.326,78.365 77.731,78.31 C77.733,78.507 77.744,79.322 77.746,79.534 C78.551,79.493 79.265,79.473 79.962,79.473 L80.397,79.473 L80.457,79.905 C80.479,80.067 80.5,80.249 80.5,80.449 L80.5,81.419 L80.063,81.476 C79.228,81.583 78.467,81.646 77.751,81.666 C77.752,81.834 77.763,83.605 77.763,83.605 L77.368,83.691 C77.115,83.746 76.88,83.772 76.648,83.772" id="Fill-16" fill="#1A1918" sketch:type="MSShapeGroup"></path>
            <path d="M74.618,70.52 C75.009,70.573 75.377,70.678 75.765,70.837 C75.519,71.613 75.269,72.354 75.026,73.06 C76.966,73.077 78.869,73.183 80.774,73.359 C80.774,73.712 80.739,74.065 80.686,74.4 C79.487,74.4 78.305,74.382 77.159,74.312 C77.159,75.088 77.176,75.864 77.209,76.658 C77.989,76.693 78.852,76.746 79.805,76.834 C79.805,77.169 79.768,77.522 79.699,77.892 C78.852,77.892 78.041,77.857 77.229,77.751 C77.229,78.527 77.249,79.286 77.249,80.063 C78.128,80.01 79.03,79.973 79.962,79.973 C79.981,80.115 80,80.273 80,80.449 L80,80.98 C79.045,81.103 78.128,81.173 77.249,81.173 C77.249,81.844 77.263,82.514 77.263,83.202 C77.104,83.236 76.895,83.272 76.648,83.272 C76.401,83.272 76.187,83.253 75.976,83.236 C75.872,82.002 75.836,80.309 75.836,78.157 C75.836,76.358 75.836,75.07 75.872,74.259 C75.446,74.242 75.026,74.206 74.618,74.171 C74.303,75.052 73.986,75.899 73.648,76.71 C73.225,76.604 72.872,76.464 72.589,76.252 C73.187,74.329 73.86,72.424 74.618,70.52 M69.292,71.471 C69.607,71.525 69.945,71.613 70.262,71.736 C69.945,74.276 69.559,76.658 69.133,78.88 C69.788,79.057 70.456,79.268 71.143,79.48 C71.091,79.763 70.986,80.079 70.825,80.467 C70.154,80.397 69.522,80.238 68.923,80.01 C68.798,80.644 68.673,81.261 68.552,81.844 C68.552,81.844 68.322,81.808 67.897,81.737 C67.723,81.719 67.581,81.667 67.457,81.596 C67.636,79.867 67.918,78.033 68.286,76.128 C67.369,75.847 66.612,75.458 65.975,75 C66.118,74.577 66.259,74.242 66.415,73.96 C67.159,74.276 67.846,74.611 68.514,74.964 C68.747,73.835 69.01,72.672 69.292,71.471 M71.655,74.877 C71.937,75.088 72.151,75.352 72.29,75.705 C71.937,76.128 71.372,76.57 70.598,77.047 C70.315,76.764 70.104,76.481 69.998,76.181 C70.473,75.759 71.019,75.335 71.655,74.877 M73.978,69.423 L73.689,70.15 C73.177,71.438 72.693,72.75 72.246,74.07 L71.666,73.637 L71.07,74.065 L70.943,74.158 C71.055,73.391 71.159,72.624 71.254,71.86 L71.35,71.088 L70.625,70.805 C70.265,70.665 69.863,70.554 69.46,70.485 L68.533,70.328 L68.318,71.242 C68.124,72.071 67.955,72.808 67.807,73.489 C67.47,73.33 67.138,73.18 66.807,73.039 L65.976,72.686 L65.54,73.475 C65.355,73.808 65.193,74.191 65.028,74.68 L64.792,75.379 L65.391,75.811 C65.924,76.194 66.512,76.519 67.146,76.781 C66.844,78.447 66.613,80.029 66.463,81.493 L66.395,82.144 L66.964,82.466 C67.21,82.606 67.476,82.693 67.758,82.728 C68.173,82.796 68.396,82.832 68.396,82.832 L69.337,82.979 L69.531,82.047 C69.582,81.8 69.635,81.546 69.688,81.287 C70.029,81.367 70.375,81.426 70.721,81.462 L71.463,81.54 L71.749,80.85 C71.943,80.383 72.062,80.005 72.127,79.663 L72.29,78.786 L71.437,78.523 L71.106,78.421 C70.92,78.364 70.734,78.307 70.55,78.25 L71.122,77.898 C71.522,77.652 71.871,77.413 72.172,77.179 C72.508,77.394 72.906,77.555 73.404,77.68 L74.24,77.891 L74.571,77.095 C74.66,76.883 74.748,76.667 74.838,76.44 C74.836,76.951 74.836,77.523 74.836,78.157 C74.836,80.551 74.881,82.143 74.98,83.321 L75.052,84.167 L75.898,84.233 L75.956,84.238 C76.173,84.255 76.395,84.272 76.648,84.272 C76.916,84.272 77.185,84.242 77.473,84.18 L78.263,84.009 L78.263,83.202 C78.263,82.852 78.26,82.507 78.256,82.164 L78.256,82.146 C78.844,82.115 79.463,82.057 80.128,81.971 L81,81.859 L81,80.449 C81,80.213 80.976,80.007 80.953,79.837 L80.834,78.973 L79.962,78.973 C79.41,78.973 78.848,78.985 78.24,79.01 L78.238,78.894 L78.238,78.851 C78.689,78.878 79.171,78.892 79.699,78.892 L80.531,78.892 L80.683,78.073 C80.765,77.629 80.805,77.224 80.805,76.834 L80.805,75.923 L79.897,75.839 C79.335,75.786 78.766,75.743 78.178,75.707 C78.174,75.592 78.172,75.477 78.17,75.361 C78.904,75.388 79.717,75.4 80.686,75.4 L81.538,75.4 L81.673,74.559 C81.74,74.139 81.774,73.735 81.774,73.359 L81.774,72.448 L80.866,72.364 C79.325,72.221 77.855,72.129 76.411,72.086 C76.514,71.777 76.615,71.461 76.718,71.139 L76.996,70.261 L76.143,69.912 C75.668,69.717 75.214,69.592 74.753,69.529 L73.978,69.423" id="Fill-17" fill="#FFFFFF" sketch:type="MSShapeGroup"></path>
        </g>
    </g>
</svg>