<?xml version="1.0" encoding="utf-8"?>
<!-- Generator: Adobe Illustrator 16.0.0, SVG Export Plug-In . SVG Version: 6.00 Build 0)  -->
<!DOCTYPE svg PUBLIC "-//W3C//DTD SVG 1.1//EN" "http://www.w3.org/Graphics/SVG/1.1/DTD/svg11.dtd">
<svg version="1.1" id="Layer_1" xmlns="http://www.w3.org/2000/svg" xmlns:xlink="http://www.w3.org/1999/xlink" x="0px" y="0px"
	 width="120px" height="120px" viewBox="0 0 120 120" enable-background="new 0 0 120 120" xml:space="preserve">
<g>
	<g opacity="0.5">
		<g>
			<defs>
				<rect id="SVGID_1184_" x="38.909" y="54.981" width="7.559" height="3.006"/>
			</defs>
			<clipPath id="SVGID_2_">
				<use xlink:href="#SVGID_1184_"  overflow="visible"/>
			</clipPath>
			<path clip-path="url(#SVGID_2_)" fill="#865A25" d="M38.909,54.981c0.292,1.299,2.245,2.666,3.278,2.91
				c1.513,0.355,3.777-0.283,4.272-1.982c0.002-0.01,0.004-0.016,0.007-0.023C43.188,57.749,40.645,56.612,38.909,54.981"/>
		</g>
	</g>
	<path fill="#875C25" d="M39.752,51.841c-0.01,0.002-0.022,0.004-0.035,0.004c-0.115-0.006-0.206-0.104-0.204-0.221
		c0.005-0.115,0.104-0.205,0.22-0.203c0.056,0.002,0.107,0.025,0.147,0.066c0.038,0.043,0.058,0.096,0.056,0.152
		C39.933,51.743,39.855,51.827,39.752,51.841 M39.708,51.507c-0.061,0.008-0.108,0.059-0.109,0.121
		c-0.002,0.07,0.052,0.127,0.12,0.131c0.072,0.004,0.13-0.053,0.132-0.121c0.002-0.035-0.011-0.066-0.033-0.09
		c-0.023-0.025-0.056-0.039-0.088-0.041C39.721,51.507,39.715,51.505,39.708,51.507"/>
	<path fill="#875C25" d="M39.133,50.95c-0.011,0.002-0.021,0.002-0.035,0.002c-0.055-0.002-0.107-0.027-0.146-0.068
		c-0.038-0.041-0.059-0.096-0.056-0.15c0.003-0.115,0.093-0.205,0.218-0.203c0.057,0.002,0.107,0.025,0.146,0.066
		c0.04,0.041,0.06,0.094,0.059,0.15C39.314,50.851,39.236,50.937,39.133,50.95 M39.09,50.616c-0.061,0.008-0.108,0.059-0.109,0.119
		c-0.002,0.035,0.01,0.066,0.032,0.09c0.023,0.025,0.055,0.039,0.089,0.041c0.072,0.002,0.129-0.053,0.131-0.121
		c0-0.033-0.011-0.066-0.034-0.09c-0.023-0.025-0.055-0.039-0.089-0.039C39.104,50.614,39.096,50.614,39.09,50.616"/>
	<g opacity="0.5">
		<g>
			<defs>
				<rect id="SVGID_1186_" x="47.383" y="26.267" width="5.277" height="27.627"/>
			</defs>
			<clipPath id="SVGID_4_">
				<use xlink:href="#SVGID_1186_"  overflow="visible"/>
			</clipPath>
			<path clip-path="url(#SVGID_4_)" fill="#BF9B4C" d="M52.55,26.282l-1.05-0.018c-0.196,1.578,0.529,7.639-0.093,13.506
				c-0.44,4.158-1.009,7.168-2.343,11.115c-0.125,0.375-0.548,1.557-1.684,3.008C51.982,49.833,53.046,37.854,52.55,26.282"/>
		</g>
	</g>
	<g>
		<path fill="#D5DBDF" d="M85.856,94.825c0.288,0.318,0.588,0.576,0.897,0.76c4.728,2.816-5.045,3.799-5.045,3.799
			c-6.574,1.25-4.486-1.549-4.486-1.549c0.391-0.449,0.705-0.975,0.957-1.566c-3.627,1.305-5.994,3.252-5.676,4.941
			c0.422,2.217,5.318,3.148,10.934,2.082c5.617-1.068,9.827-3.732,9.405-5.949C92.525,95.669,89.658,94.728,85.856,94.825"/>
		<path fill="#F2F4F6" d="M79.746,102.187c-0.024-0.016-0.047-0.029-0.066-0.037c-0.79-0.391-1.457-0.564-2.449-1.143
			c-0.801-0.465-1.467-1.402-1.413-2.184c0.056-0.805,1.165-1.785-0.071-1.305c-0.561,0.217-2,1.057-2.322,1.611
			c-1.568,2.705,0.901,3.904,3.268,4.215c0.959,0.127,1.909,0.057,2.864,0.127c0.338,0.023,1.073,0.359,1.228,0.068
			C80.975,103.181,80.1,102.405,79.746,102.187"/>
		<path fill="#A0A9AE" d="M85.856,94.825c0.11,0.121,0.224,0.234,0.337,0.338c3.229-0.043,5.602,0.709,5.857,2.051
			c0.359,1.877-3.562,4.201-8.754,5.189c-5.191,0.986-9.689,0.264-10.048-1.615c-0.255-1.344,1.687-2.918,4.719-4.066
			c0.075-0.146,0.146-0.297,0.212-0.453c-3.627,1.305-5.994,3.252-5.676,4.941c0.422,2.217,5.318,3.148,10.934,2.082
			c5.617-1.068,9.827-3.732,9.405-5.949C92.525,95.669,89.658,94.728,85.856,94.825"/>
		<g>
			<g opacity="0.5">
				<g>
					<defs>
						
							<rect id="SVGID_1188_" x="64.527" y="19.953" transform="matrix(-0.9821 0.1885 -0.1885 -0.9821 161.3354 104.5146)" width="22.343" height="79.95"/>
					</defs>
					<clipPath id="SVGID_6_">
						<use xlink:href="#SVGID_1188_"  overflow="visible"/>
					</clipPath>
					<path clip-path="url(#SVGID_6_)" fill="#E4EFF6" d="M78.26,19.202c7.432,23.932,5.494,33.039,2.289,38.236
						c-3.203,5.197-1.669,11.896-1.307,13.795c0.359,1.896,2.782,21.535,7.512,24.352c4.728,2.816-5.045,3.801-5.045,3.801
						c-6.574,1.248-4.486-1.551-4.486-1.551c3.87-4.451,0.535-16.49-1.431-26.82c-1.36-7.168-5.491-10.973-5.491-10.973
						C58.337,48.114,58.453,22.53,58.453,22.53L78.26,19.202z"/>
				</g>
			</g>
			<g opacity="0.5">
				<g>
					<defs>
						
							<rect id="SVGID_1190_" x="64.527" y="19.953" transform="matrix(-0.9821 0.1885 -0.1885 -0.9821 161.3354 104.5146)" width="22.343" height="79.95"/>
					</defs>
					<clipPath id="SVGID_8_">
						<use xlink:href="#SVGID_1190_"  overflow="visible"/>
					</clipPath>
					<path clip-path="url(#SVGID_8_)" fill="#E4EFF6" d="M78.26,19.202c7.432,23.932,5.494,33.039,2.289,38.236
						c-3.203,5.197-1.669,11.896-1.307,13.795c0.359,1.896,2.782,21.535,7.512,24.352c4.728,2.816-5.045,3.801-5.045,3.801
						c-6.574,1.248-4.486-1.551-4.486-1.551c3.87-4.451,0.535-16.49-1.431-26.82c-1.36-7.168-5.491-10.973-5.491-10.973
						C58.337,48.114,58.453,22.53,58.453,22.53L78.26,19.202z"/>
				</g>
			</g>
			<g opacity="0.5">
				<g>
					<defs>
						
							<rect id="SVGID_1192_" x="71.019" y="58.977" transform="matrix(-0.9821 0.1886 -0.1886 -0.9821 160.1627 105.9183)" width="8.049" height="3.2"/>
					</defs>
					<clipPath id="SVGID_10_">
						<use xlink:href="#SVGID_1192_"  overflow="visible"/>
					</clipPath>
					<path clip-path="url(#SVGID_10_)" fill="#865A25" d="M70.791,59.765c0.566,1.299,2.883,2.336,4.014,2.385
						c1.652,0.068,3.894-1.055,4.07-2.932c0-0.01,0-0.018,0.001-0.025C75.822,61.8,72.934,61.12,70.791,59.765"/>
				</g>
			</g>
			<g>
				<defs>
					<path id="SVGID_1194_" d="M67.187,56.274c0,0,6.534,9.732,13.362,1.164c3.205-5.197,5.143-14.305-2.289-38.236L58.453,22.53
						C58.453,22.53,58.359,43.448,67.187,56.274"/>
				</defs>
				<clipPath id="SVGID_12_">
					<use xlink:href="#SVGID_1194_"  overflow="visible"/>
				</clipPath>
				
					<linearGradient id="SVGID_14_" gradientUnits="userSpaceOnUse" x1="-2814.0317" y1="319.9297" x2="-2813.5942" y2="319.9297" gradientTransform="matrix(50.1337 -9.6197 -9.6197 -50.1337 144216.9531 -10985.7422)">
					<stop  offset="0" style="stop-color:#ECECEB"/>
					<stop  offset="1" style="stop-color:#AEBBBB"/>
				</linearGradient>
				<polygon clip-path="url(#SVGID_12_)" fill="url(#SVGID_14_)" points="54.491,23.29 80.911,18.222 89.499,62.978 63.079,68.048 
									"/>
			</g>
			<path fill="#E4EFF6" d="M59.4,23.417c0,0,3.644,35.326,14.518,35.881c11.95,0.609,8.49-22.275,3.435-39.102
				C66.593,25.14,59.4,23.417,59.4,23.417"/>
			<g>
				<defs>
					<path id="SVGID_1197_" d="M73.918,59.298c10.18,0.613,9.122-16.479,5.381-32.289l-18.967,3.465
						C62.145,41.472,65.183,58.771,73.918,59.298"/>
				</defs>
				<clipPath id="SVGID_16_">
					<use xlink:href="#SVGID_1197_"  overflow="visible"/>
				</clipPath>
				
					<linearGradient id="SVGID_18_" gradientUnits="userSpaceOnUse" x1="-2851.1572" y1="351.3926" x2="-2850.7197" y2="351.3926" gradientTransform="matrix(-11.4094 -59.4605 59.4605 -11.4094 -53348.2422 -165462.9531)">
					<stop  offset="0" style="stop-color:#FFFFFF"/>
					<stop  offset="0.0239" style="stop-color:#FFFEF6"/>
					<stop  offset="0.1059" style="stop-color:#FDF7D5"/>
					<stop  offset="0.1899" style="stop-color:#FBF0B8"/>
					<stop  offset="0.2749" style="stop-color:#F9ECA0"/>
					<stop  offset="0.3616" style="stop-color:#F8E88E"/>
					<stop  offset="0.4508" style="stop-color:#F7E683"/>
					<stop  offset="0.5465" style="stop-color:#F7E57F"/>
					<stop  offset="1" style="stop-color:#DFCB7A"/>
				</linearGradient>
				<polygon clip-path="url(#SVGID_16_)" fill="url(#SVGID_18_)" points="86.241,59.501 79.949,26.708 59.773,30.581 66.065,63.372 
									"/>
			</g>
			<g opacity="0.5">
				<g>
					<defs>
						
							<rect id="SVGID_1200_" x="62.864" y="29.297" transform="matrix(-0.9821 0.1882 -0.1882 -0.9821 137.631 74.9621)" width="4.784" height="29.437"/>
					</defs>
					<clipPath id="SVGID_20_">
						<use xlink:href="#SVGID_1200_"  overflow="visible"/>
					</clipPath>
					<path clip-path="url(#SVGID_20_)" fill="#BF9B4C" d="M70.381,58.021c-0.143-0.27-0.295-0.525-0.434-0.738
						c-2.111-3.221-3.846-6.594-5.079-10.27c-0.655-1.953-1.172-3.934-1.569-6.006c-0.369-1.922-0.806-3.857-1.077-5.789
						c-0.103-0.729-0.981-5.334-0.981-5.334c-1.431-0.459-0.411,3.557-0.332,4.002c0.563,3.225,1.189,6.445,2.009,9.617
						c0.765,2.955,1.673,5.91,3.006,8.668c0.59,1.219,1.259,2.414,2.085,3.492C68.597,56.433,69.969,57.233,70.381,58.021"/>
				</g>
			</g>
			<g opacity="0.5">
				<g>
					<defs>
						
							<rect id="SVGID_1202_" x="76.612" y="27.233" transform="matrix(-0.9821 0.1882 -0.1882 -0.9821 165.3235 68.1929)" width="5.624" height="29.426"/>
					</defs>
					<clipPath id="SVGID_22_">
						<use xlink:href="#SVGID_1202_"  overflow="visible"/>
					</clipPath>
					<path clip-path="url(#SVGID_22_)" fill="#BF9B4C" d="M79.299,27.009l-1.102,0.193c0.111,1.689,2.087,7.883,2.613,14.143
						c0.373,4.438,0.383,7.701-0.219,12.098c-0.058,0.414-0.262,1.738-1.158,3.482C83.432,51.755,82.14,39.013,79.299,27.009"/>
				</g>
			</g>
			<g opacity="0.5">
				<g>
					<defs>
						
							<rect id="SVGID_1204_" x="60.22" y="26.378" transform="matrix(-0.9821 0.1884 -0.1884 -0.9821 143.9291 44.2876)" width="19.279" height="5.214"/>
					</defs>
					<clipPath id="SVGID_24_">
						<use xlink:href="#SVGID_1204_"  overflow="visible"/>
					</clipPath>
					<path clip-path="url(#SVGID_24_)" fill="#BF9B4C" d="M79.344,27.253c0.258,1.414-3.777,3.338-9.014,4.295
						c-5.238,0.957-9.695,0.586-9.953-0.83c-0.259-1.416,3.777-3.34,9.015-4.297C74.63,25.464,79.084,25.837,79.344,27.253"/>
				</g>
			</g>
			<path fill="#E7DCBE" d="M79.299,27.009c0.232,1.279-3.822,3.094-9.06,4.049c-5.237,0.959-9.674,0.695-9.907-0.584
				c-0.234-1.281,3.822-3.096,9.06-4.053S79.064,25.728,79.299,27.009"/>
			<g opacity="0.3">
				<g>
					<defs>
						
							<rect id="SVGID_1206_" x="60.229" y="26.97" transform="matrix(-0.9821 0.1883 -0.1883 -0.9821 137.8118 45.5634)" width="13.025" height="4.717"/>
					</defs>
					<clipPath id="SVGID_26_">
						<use xlink:href="#SVGID_1206_"  overflow="visible"/>
					</clipPath>
					<path clip-path="url(#SVGID_26_)" fill="#CAA544" d="M64.275,29.29c0.553-0.721,1.727-1.311,2.585-1.545
						c1.27-0.35,2.557-0.729,3.837-1.127c0.553-0.17,1.391-0.289,1.896-0.645c-1.009,0.096-2.087,0.244-3.201,0.447
						c-5.237,0.957-9.294,2.771-9.06,4.053c0.233,1.279,4.67,1.543,9.907,0.584c1.179-0.215,2.298-0.475,3.321-0.76
						c-0.147-0.055-0.316-0.098-0.512-0.129c-1.383-0.223-2.771,0.098-4.148,0.168C68.387,30.364,63.132,30.778,64.275,29.29"/>
				</g>
			</g>
			<path fill="#875C25" d="M73.105,41.372c-0.333,0.027-0.629-0.219-0.658-0.555s0.221-0.631,0.553-0.66
				c0.337-0.029,0.632,0.219,0.662,0.553C73.69,41.048,73.442,41.343,73.105,41.372 M73.021,40.394
				c-0.205,0.018-0.355,0.199-0.339,0.402c0.018,0.207,0.199,0.357,0.403,0.34c0.205-0.02,0.358-0.197,0.341-0.404
				C73.408,40.526,73.228,40.374,73.021,40.394"/>
			<path fill="#875C25" d="M73.983,38.446c-0.38,0.033-0.716-0.25-0.75-0.631c-0.033-0.379,0.25-0.715,0.63-0.748
				s0.716,0.25,0.749,0.629C74.646,38.077,74.362,38.413,73.983,38.446 M73.884,37.302c-0.25,0.021-0.435,0.244-0.413,0.494
				s0.242,0.436,0.492,0.414s0.436-0.244,0.414-0.494S74.134,37.28,73.884,37.302"/>
			<path fill="#875C25" d="M72.543,33.868c-0.46,0.039-0.865-0.305-0.905-0.764c-0.04-0.461,0.301-0.865,0.761-0.904
				c0.457-0.039,0.862,0.301,0.902,0.762C73.341,33.419,73,33.827,72.543,33.868 M72.419,32.437c-0.33,0.029-0.575,0.32-0.546,0.648
				c0.028,0.33,0.318,0.574,0.648,0.545c0.33-0.027,0.573-0.32,0.545-0.648C73.037,32.653,72.748,32.407,72.419,32.437"/>
			<path fill="#875C25" d="M75.863,47.044c-0.26,0.021-0.488-0.17-0.511-0.428c-0.022-0.26,0.17-0.486,0.431-0.51
				c0.257-0.021,0.484,0.17,0.507,0.428C76.312,46.794,76.121,47.022,75.863,47.044 M75.795,46.247
				c-0.182,0.018-0.316,0.176-0.3,0.357c0.017,0.18,0.175,0.312,0.356,0.297c0.18-0.014,0.313-0.174,0.299-0.354
				C76.134,46.366,75.975,46.231,75.795,46.247"/>
			<path fill="#875C25" d="M76.287,44.331c-0.335,0.029-0.631-0.219-0.66-0.553c-0.029-0.336,0.22-0.633,0.555-0.66
				c0.335-0.031,0.631,0.219,0.66,0.553C76.871,44.007,76.622,44.304,76.287,44.331 M76.202,43.354
				c-0.205,0.018-0.356,0.199-0.339,0.402c0.018,0.205,0.199,0.357,0.404,0.342c0.204-0.02,0.355-0.201,0.338-0.406
				C76.588,43.489,76.406,43.337,76.202,43.354"/>
			<path fill="#875C25" d="M75.711,50.769c-0.078,0.008-0.156-0.006-0.227-0.039c-0.226-0.104-0.326-0.371-0.222-0.6
				c0.068-0.146,0.21-0.248,0.372-0.262c0.076-0.006,0.154,0.008,0.227,0.041c0.226,0.105,0.326,0.373,0.223,0.602
				C76.016,50.655,75.873,50.755,75.711,50.769 M75.643,49.962c-0.129,0.012-0.241,0.092-0.294,0.207
				c-0.081,0.182-0.005,0.393,0.175,0.475c0.057,0.027,0.118,0.037,0.181,0.031c0.128-0.012,0.239-0.092,0.293-0.207
				c0.084-0.178,0.003-0.391-0.175-0.473C75.764,49.968,75.704,49.958,75.643,49.962"/>
			<path fill="#875C25" d="M76.481,52.173c-0.065,0.006-0.129-0.004-0.189-0.033c-0.089-0.039-0.157-0.113-0.191-0.205
				c-0.033-0.096-0.03-0.195,0.011-0.285c0.055-0.121,0.172-0.203,0.307-0.215c0.061-0.006,0.127,0.004,0.186,0.033
				c0.091,0.041,0.158,0.113,0.193,0.207c0.034,0.094,0.031,0.195-0.012,0.285C76.729,52.079,76.613,52.163,76.481,52.173
				 M76.426,51.528c-0.1,0.008-0.188,0.068-0.229,0.16c-0.031,0.066-0.033,0.143-0.01,0.211c0.026,0.068,0.078,0.125,0.145,0.154
				c0.135,0.062,0.307-0.002,0.367-0.135c0.031-0.066,0.034-0.141,0.008-0.211c-0.025-0.07-0.076-0.125-0.143-0.156
				C76.52,51.532,76.472,51.522,76.426,51.528"/>
			<path fill="#875C25" d="M76.688,53.798c-0.144,0.012-0.271-0.096-0.284-0.24c-0.012-0.145,0.095-0.271,0.238-0.283
				c0.144-0.014,0.271,0.094,0.283,0.238C76.938,53.655,76.832,53.782,76.688,53.798 M76.65,53.368
				c-0.092,0.008-0.16,0.09-0.151,0.182c0.007,0.092,0.089,0.16,0.181,0.152s0.162-0.09,0.154-0.182
				C76.825,53.429,76.742,53.36,76.65,53.368"/>
			<path fill="#875C25" d="M76.34,55.269c-0.145,0.012-0.27-0.094-0.283-0.24c-0.012-0.143,0.094-0.27,0.238-0.283
				c0.145-0.012,0.272,0.096,0.285,0.238C76.592,55.128,76.485,55.255,76.34,55.269 M76.303,54.841
				c-0.092,0.008-0.16,0.088-0.152,0.18c0.008,0.094,0.09,0.162,0.182,0.154c0.093-0.008,0.163-0.088,0.154-0.184
				C76.479,54.899,76.396,54.833,76.303,54.841"/>
			<path fill="#875C25" d="M77.261,56.3c-0.145,0.014-0.271-0.094-0.284-0.236c-0.012-0.145,0.095-0.271,0.238-0.285
				c0.145-0.012,0.271,0.096,0.283,0.24C77.51,56.161,77.404,56.288,77.261,56.3 M77.223,55.874
				c-0.092,0.008-0.16,0.088-0.152,0.182c0.008,0.092,0.09,0.16,0.182,0.152s0.16-0.09,0.152-0.182
				C77.396,55.935,77.315,55.866,77.223,55.874"/>
			<path fill="#B4BFC6" d="M78.251,19.218c0.253,1.33-3.96,3.248-9.407,4.281c-5.446,1.037-10.067,0.799-10.318-0.531
				c-0.254-1.332,3.956-3.248,9.404-4.283C73.376,17.649,77.997,17.888,78.251,19.218"/>
			<g opacity="0.5">
				<g>
					<defs>
						
							<rect id="SVGID_1208_" x="73.846" y="19.406" transform="matrix(-0.9821 0.1884 -0.1884 -0.9821 170.3787 102.2316)" width="12.972" height="79.61"/>
					</defs>
					<clipPath id="SVGID_28_">
						<use xlink:href="#SVGID_1208_"  overflow="visible"/>
					</clipPath>
					<path clip-path="url(#SVGID_28_)" fill="#BF9B4C" d="M74.354,25.312c0.999,3.898,2.263,7.729,3.022,11.686
						c0.908,4.734,1.321,9.449,1.404,14.254c0.068,3.865-1.65,7.189-1.847,10.988c-0.198,3.84,0.739,7.951,1.38,11.721
						c0.775,4.561,1.354,9.186,2.592,13.65c0.616,2.223,1.003,4.438,2.037,6.498c0.918,1.828,0.591,3.822-1.156,5.068
						c-0.121,0.086-0.234,0.172-0.342,0.256c0.087-0.014,0.174-0.031,0.264-0.047c0,0,9.772-0.984,5.045-3.801
						c-0.643-0.383-1.243-1.078-1.802-1.996c-0.007-0.012-0.015-0.021-0.021-0.033s-0.013-0.021-0.019-0.033
						c-0.039-0.064-0.078-0.133-0.117-0.201c-2.047-3.473-2.92-7.764-3.74-11.654c-0.002-0.006-0.003-0.014-0.004-0.02
						c-1.049-4.979-1.645-9.549-1.809-10.414c-0.362-1.898-1.896-8.6,1.307-13.795c3.206-5.197,5.143-14.305-2.289-38.236
						l-5.232,0.879C73.237,22.042,74.102,24.329,74.354,25.312"/>
				</g>
			</g>
			<g>
				<defs>
					<path id="SVGID_1210_" d="M59.47,22.786c0.205,1.076,4.362,1.189,9.288,0.254c4.924-0.936,8.752-2.566,8.549-3.643
						c-0.205-1.076-4.363-1.186-9.289-0.252c-0.022,0.006-0.044,0.01-0.066,0.014C63.059,20.097,59.266,21.718,59.47,22.786"/>
				</defs>
				<clipPath id="SVGID_30_">
					<use xlink:href="#SVGID_1210_"  overflow="visible"/>
				</clipPath>
				
					<linearGradient id="SVGID_32_" gradientUnits="userSpaceOnUse" x1="-2805.4546" y1="319.5195" x2="-2805.0166" y2="319.5195" gradientTransform="matrix(40.7335 -7.8456 -11.1311 -58.1644 117892.0781 -3403.0508)">
					<stop  offset="0" style="stop-color:#CBD9DA"/>
					<stop  offset="0.0031" style="stop-color:#CDDADB"/>
					<stop  offset="0.041" style="stop-color:#DEE4E5"/>
					<stop  offset="0.0854" style="stop-color:#E9ECEC"/>
					<stop  offset="0.1423" style="stop-color:#EFF0F0"/>
					<stop  offset="0.2543" style="stop-color:#F1F1F1"/>
					<stop  offset="0.5079" style="stop-color:#EFEFEF"/>
					<stop  offset="0.7084" style="stop-color:#E6EAEA"/>
					<stop  offset="0.8901" style="stop-color:#D8E0E2"/>
					<stop  offset="1" style="stop-color:#CBD9DA"/>
				</linearGradient>
				<polygon clip-path="url(#SVGID_30_)" fill="url(#SVGID_32_)" points="59.099,20.858 76.931,17.423 77.68,21.339 59.848,24.772 
									"/>
			</g>
			
				<linearGradient id="SVGID_34_" gradientUnits="userSpaceOnUse" x1="-2809.3179" y1="319.3848" x2="-2808.8804" y2="319.3848" gradientTransform="matrix(44.4936 -8.5375 -8.5375 -44.4936 127782.2969 -9749.7695)">
				<stop  offset="0" style="stop-color:#FFFFFF"/>
				<stop  offset="1" style="stop-color:#D1DFE0"/>
			</linearGradient>
			<polygon fill="url(#SVGID_34_)" points="58.547,22.427 78.023,18.69 78.729,22.368 59.253,26.104 			"/>
			<path fill="none" d="M75.803,18.495c0.934,0.145,1.54,0.426,1.627,0.879c0.253,1.334-4.229,2.941-8.572,3.775l-0.077,0.014
				c-4.382,0.832-9.177,0.992-9.434-0.354c-0.077-0.404,0.285-0.834,0.947-1.262c-0.044-0.092-0.092-0.162-0.147-0.209
				c-1.045,0.598-1.582,1.168-1.498,1.607c0.107,0.572,1.236,0.953,3.095,1.049c1.938,0.1,4.452-0.119,7.077-0.617l0.091-0.018
				c5.771-1.107,9.426-3.023,9.217-4.119c-0.093-0.49-0.965-0.85-2.415-0.998C75.739,18.319,75.771,18.401,75.803,18.495"/>
			<g opacity="0.8">
				<g>
					<defs>
						
							<rect id="SVGID_1214_" x="64.556" y="20.252" transform="matrix(-0.9821 0.1885 -0.1885 -0.9821 161.4205 104.8034)" width="22.343" height="79.648"/>
					</defs>
					<clipPath id="SVGID_36_">
						<use xlink:href="#SVGID_1214_"  overflow="visible"/>
					</clipPath>
					<path clip-path="url(#SVGID_36_)" fill="#A0A9AE" d="M78.26,19.202l-0.091,0.014c0.028,0.271-0.072,0.559-0.364,0.738
						c-0.037,0.021-0.076,0.041-0.115,0.062l0.075-0.012c7.374,24,5.046,32.414,2.18,37.062c-3.192,5.178-1.935,11.58-1.46,13.99
						c0.023,0.113,0.043,0.217,0.061,0.309c0.039,0.203,0.107,0.65,0.2,1.271c1.361,8.969,3.634,21.168,7.646,23.557
						c0.892,0.531,0.945,0.832,0.945,0.834c-0.002,0.004-0.288,0.703-3.51,1.32c-1.176,0.227-2.178,0.328-2.188,0.33l-0.031,0.002
						l-0.03,0.006c-3.459,0.658-3.95,0.057-3.954,0.051c-0.03-0.047,0.035-0.283,0.158-0.465c3.478-4.049,1.543-13.465-0.326-22.574
						c-0.328-1.594-0.666-3.24-0.966-4.816c-1.366-7.199-5.4-11.076-5.696-11.352c-6.045-6.033-8.887-15.754-10.205-22.846
						c-1.119-6.02-1.359-11.201-1.41-13.232c-0.311-0.109-0.549-0.326-0.723-0.611c0.033,2.936,0.653,26.045,11.846,37.201
						c0,0,4.131,3.805,5.491,10.973c1.966,10.33,5.301,22.369,1.431,26.82c0,0-2.088,2.799,4.486,1.551c0,0,9.772-0.984,5.045-3.801
						c-4.729-2.816-7.152-22.455-7.512-24.352c-0.362-1.898-1.896-8.598,1.307-13.795C83.754,52.241,85.691,43.134,78.26,19.202"/>
				</g>
			</g>
			<g opacity="0.4">
				<g>
					<defs>
						
							<rect id="SVGID_1216_" x="59.364" y="20.217" transform="matrix(-0.9821 0.1885 -0.1885 -0.9821 128.7324 31.5568)" width="7.003" height="3.369"/>
					</defs>
					<clipPath id="SVGID_38_">
						<use xlink:href="#SVGID_1216_"  overflow="visible"/>
					</clipPath>
					<path clip-path="url(#SVGID_38_)" fill="#BF9B4C" d="M59.47,22.786c0.107,0.562,1.295,0.861,3.105,0.887
						c-0.014-0.256-0.018-0.512,0-0.77c0.13-1.922,1.668-2.5,3.177-3.203c0.078-0.035,0.156-0.074,0.234-0.115
						C62.084,20.536,59.294,21.866,59.47,22.786"/>
				</g>
			</g>
			<g opacity="0.6">
				<g>
					<defs>
						
							<rect id="SVGID_1218_" x="67.077" y="23.456" transform="matrix(-0.9821 0.1885 -0.1885 -0.9821 152.5728 107.5903)" width="8.185" height="75.189"/>
					</defs>
					<clipPath id="SVGID_40_">
						<use xlink:href="#SVGID_1218_"  overflow="visible"/>
					</clipPath>
					<path clip-path="url(#SVGID_40_)" fill="#F7F7F7" d="M76.4,67.642c-0.513-2.15-0.814-3.52-2.144-5.297
						c-1.896-2.533-2.769-6.014-3.731-8.979c-2.081-6.412-3.792-12.959-5.072-19.629c-0.104-0.545-0.197-1.094-0.287-1.643
						c-0.238-1.469-0.441-2.941-0.732-4.402c-0.128-0.648-0.344-1.289-0.465-1.93c-0.086-0.453-0.133-1.031-0.626-1.238
						c-0.334-0.141-0.715-0.107-1.063-0.039c-0.259,0.049-0.742,0.078-0.896,0.314c-0.255,0.389-0.197,0.883-0.162,1.316
						c0.051,0.617,0.023,1.236,0.061,1.854c0.109,1.771,0.285,3.539,0.521,5.299c0.592,4.412,1.561,8.77,2.812,13.039
						c1.24,4.111,2.974,7.678,5.053,11.479c1.508,2.688,3.664,5.064,5.004,7.832c1.374,2.84,1.757,6.238,2.383,9.297
						c0.843,4.131,2.029,8.203,2.458,12.41c0.199,1.965,0.042,3.881,0.06,5.84c0.009,1.033-0.898,3.512,0.017,4.236
						c0.608,0.48,1.036,0.045,1.335-0.486c0.699-1.244,0.286-3.438,0.148-4.766c-0.333-3.223-1.205-6.336-1.656-9.533
						c-0.485-3.432-1.396-6.838-2.053-10.26C77.104,71.001,76.718,68.974,76.4,67.642"/>
				</g>
			</g>
		</g>
	</g>
	<g>
		<path fill="#D5DBDF" d="M42.094,90.106c0.162,0.371,0.351,0.689,0.57,0.945c3.36,3.926-5.629,1.865-5.629,1.865
			c-6.224-0.861-3.526-2.727-3.526-2.727c0.481-0.279,0.921-0.654,1.323-1.105c-3.619,0.072-6.311,1.092-6.533,2.691
			c-0.292,2.102,3.784,4.398,9.101,5.137c5.317,0.736,9.863-0.369,10.154-2.467C47.773,92.86,45.506,91.161,42.094,90.106"/>
		<path fill="#F2F4F6" d="M34.448,94.821c-0.017-0.021-0.034-0.039-0.048-0.055c-0.586-0.584-1.127-0.939-1.836-1.75
			c-0.574-0.654-0.885-1.689-0.602-2.369c0.291-0.697,1.572-1.236,0.328-1.182c-0.562,0.025-2.098,0.34-2.549,0.738
			c-2.209,1.934-0.371,3.742,1.641,4.73c0.813,0.4,1.682,0.623,2.51,0.971c0.293,0.125,0.846,0.643,1.071,0.43
			C35.242,96.073,34.697,95.122,34.448,94.821"/>
		<path fill="#A0A9AE" d="M42.094,90.106c0.062,0.143,0.129,0.275,0.199,0.402c2.886,0.932,4.771,2.312,4.595,3.584
			c-0.245,1.777-4.431,2.668-9.346,1.986s-8.699-2.674-8.454-4.453c0.177-1.273,2.377-2.092,5.419-2.201
			c0.11-0.107,0.22-0.221,0.325-0.34c-3.619,0.072-6.311,1.092-6.533,2.691c-0.292,2.102,3.784,4.398,9.101,5.137
			c5.317,0.736,9.863-0.369,10.154-2.467C47.773,92.86,45.506,91.161,42.094,90.106"/>
		<g>
			<g opacity="0.5">
				<g>
					<defs>
						
							<rect id="SVGID_1220_" x="33.05" y="18.475" transform="matrix(-0.9908 -0.1356 0.1356 -0.9908 79.0826 117.4046)" width="20.978" height="75.07"/>
					</defs>
					<clipPath id="SVGID_42_">
						<use xlink:href="#SVGID_1220_"  overflow="visible"/>
					</clipPath>
					<path clip-path="url(#SVGID_42_)" fill="#E4EFF6" d="M58.047,20.55c-0.576,23.52-5.035,31.041-9.447,34.703
						c-4.41,3.66-5.057,10.084-5.305,11.879c-0.25,1.797-3.992,19.994-0.631,23.92c3.36,3.926-5.629,1.865-5.629,1.865
						c-6.223-0.863-3.526-2.727-3.526-2.727c4.78-2.795,5.429-14.508,6.782-24.289c0.943-6.785-1.59-11.41-1.59-11.41
						c-7.062-14.203,0.725-36.93,0.725-36.93L58.047,20.55z"/>
				</g>
			</g>
			<g opacity="0.5">
				<g>
					<defs>
						
							<rect id="SVGID_1222_" x="33.05" y="18.475" transform="matrix(-0.9908 -0.1356 0.1356 -0.9908 79.0826 117.4046)" width="20.978" height="75.07"/>
					</defs>
					<clipPath id="SVGID_44_">
						<use xlink:href="#SVGID_1222_"  overflow="visible"/>
					</clipPath>
					<path clip-path="url(#SVGID_44_)" fill="#E4EFF6" d="M58.047,20.55c-0.576,23.52-5.035,31.041-9.447,34.703
						c-4.41,3.66-5.057,10.084-5.305,11.879c-0.25,1.797-3.992,19.994-0.631,23.92c3.36,3.926-5.629,1.865-5.629,1.865
						c-6.223-0.863-3.526-2.727-3.526-2.727c4.78-2.795,5.429-14.508,6.782-24.289c0.943-6.785-1.59-11.41-1.59-11.41
						c-7.062-14.203,0.725-36.93,0.725-36.93L58.047,20.55z"/>
				</g>
			</g>
			<g>
				<defs>
					<path id="SVGID_1224_" d="M37.062,50.204c0,0,2.89,10.619,11.537,5.049c4.413-3.662,8.871-11.184,9.447-34.705l-18.621-2.986
						C39.426,17.562,33.061,36.144,37.062,50.204"/>
				</defs>
				<clipPath id="SVGID_45_">
					<use xlink:href="#SVGID_1224_"  overflow="visible"/>
				</clipPath>
				
					<linearGradient id="SVGID_46_" gradientUnits="userSpaceOnUse" x1="-2813.79" y1="318.9834" x2="-2813.3525" y2="318.9834" gradientTransform="matrix(47.4901 6.4976 6.4976 -47.4901 131589.8906 33470.0352)">
					<stop  offset="0" style="stop-color:#ECECEB"/>
					<stop  offset="1" style="stop-color:#AEBBBB"/>
				</linearGradient>
				<polygon clip-path="url(#SVGID_45_)" fill="url(#SVGID_46_)" points="35.673,17.048 60.699,20.472 54.898,62.868 29.872,59.444 
									"/>
			</g>
			<path fill="#E4EFF6" d="M40.002,18.634c0,0-7.367,32.521,2.141,36.281c10.448,4.131,14.242-17.268,14.799-33.754
				C45.885,22.327,40.002,18.634,40.002,18.634"/>
			<g>
				<defs>
					<path id="SVGID_1227_" d="M42.143,54.915c8.872,3.602,13.064-11.92,14.483-27.109l-17.914-2.613
						C37.021,35.522,34.528,51.823,42.143,54.915"/>
				</defs>
				<clipPath id="SVGID_47_">
					<use xlink:href="#SVGID_1227_"  overflow="visible"/>
				</clipPath>
				
					<linearGradient id="SVGID_48_" gradientUnits="userSpaceOnUse" x1="-2851.9414" y1="351.5723" x2="-2851.5039" y2="351.5723" gradientTransform="matrix(7.7095 -56.3477 56.3477 7.7095 2220.5293 -163355.4375)">
					<stop  offset="0" style="stop-color:#FFFFFF"/>
					<stop  offset="0.0222" style="stop-color:#FDFCF7"/>
					<stop  offset="0.1111" style="stop-color:#F4EDD2"/>
					<stop  offset="0.2018" style="stop-color:#ECE0B3"/>
					<stop  offset="0.2935" style="stop-color:#E6D79A"/>
					<stop  offset="0.3865" style="stop-color:#E2D088"/>
					<stop  offset="0.4815" style="stop-color:#E0CC7E"/>
					<stop  offset="0.5818" style="stop-color:#DFCB7A"/>
					<stop  offset="1" style="stop-color:#D8B33A"/>
				</linearGradient>
				<polygon clip-path="url(#SVGID_47_)" fill="url(#SVGID_48_)" points="53.046,58.796 57.295,27.733 38.183,25.118 33.933,56.181 
									"/>
			</g>
			<path fill="#875C25" d="M42.172,38.815c-0.026,0-0.055-0.004-0.082-0.008c-0.129-0.021-0.242-0.096-0.317-0.201
				s-0.106-0.236-0.083-0.367c0.046-0.264,0.293-0.449,0.567-0.402c0.268,0.047,0.448,0.301,0.403,0.568
				C42.617,38.644,42.414,38.815,42.172,38.815 M42.176,38.042c-0.137,0-0.254,0.098-0.277,0.232
				c-0.012,0.074,0.005,0.148,0.047,0.209c0.044,0.062,0.107,0.102,0.182,0.115c0.157,0.029,0.296-0.078,0.322-0.229
				c0.026-0.152-0.076-0.297-0.228-0.324C42.207,38.046,42.191,38.044,42.176,38.042"/>
			<path fill="#875C25" d="M40.725,48.104c-0.068,0-0.135-0.023-0.186-0.066c-0.062-0.051-0.101-0.121-0.109-0.201
				c-0.006-0.078,0.017-0.154,0.067-0.217c0.057-0.07,0.141-0.109,0.23-0.109c0.069,0,0.134,0.025,0.187,0.07
				c0.062,0.049,0.1,0.119,0.107,0.199c0.008,0.078-0.016,0.154-0.065,0.217C40.898,48.065,40.814,48.106,40.725,48.104
				 M40.728,47.597c-0.063,0-0.124,0.029-0.163,0.078c-0.037,0.045-0.055,0.098-0.049,0.154s0.031,0.105,0.076,0.143
				c0.087,0.07,0.228,0.059,0.299-0.027c0.035-0.045,0.052-0.1,0.047-0.156c-0.006-0.057-0.033-0.107-0.077-0.143
				C40.823,47.614,40.775,47.597,40.728,47.597"/>
			<path fill="#875C25" d="M40.545,49.378c-0.011,0-0.022-0.002-0.033-0.002c-0.116-0.021-0.191-0.131-0.172-0.246
				c0.019-0.113,0.127-0.191,0.242-0.172c0.056,0.01,0.105,0.041,0.138,0.086c0.032,0.047,0.045,0.102,0.035,0.158
				C40.738,49.304,40.647,49.378,40.545,49.378 M40.547,49.04c-0.061,0-0.114,0.045-0.123,0.105
				c-0.013,0.068,0.033,0.133,0.102,0.145c0.07,0.014,0.135-0.037,0.146-0.102c0.006-0.033-0.002-0.066-0.021-0.096
				c-0.02-0.027-0.049-0.045-0.082-0.051C40.562,49.042,40.555,49.04,40.547,49.04"/>
			<path fill="#875C25" d="M43.473,33.298c-0.035,0-0.072-0.002-0.108-0.01c-0.364-0.062-0.609-0.408-0.548-0.771
				c0.061-0.361,0.402-0.611,0.772-0.549c0.177,0.031,0.33,0.127,0.434,0.273s0.144,0.322,0.113,0.498
				C44.08,33.065,43.801,33.3,43.473,33.298 M43.479,32.171c-0.225,0-0.416,0.16-0.452,0.379c-0.043,0.248,0.124,0.486,0.374,0.529
				c0.254,0.041,0.483-0.131,0.525-0.373c0.021-0.121-0.006-0.242-0.076-0.342s-0.175-0.166-0.297-0.186
				C43.527,32.173,43.502,32.171,43.479,32.171"/>
			<path fill="#875C25" d="M43.291,37.403c-0.031,0.002-0.062-0.002-0.093-0.008c-0.146-0.025-0.274-0.105-0.36-0.227
				c-0.086-0.123-0.119-0.27-0.096-0.416c0.053-0.299,0.338-0.506,0.643-0.455c0.147,0.023,0.275,0.105,0.362,0.227
				c0.085,0.121,0.12,0.27,0.093,0.414C43.795,37.21,43.562,37.405,43.291,37.403 M43.293,36.501c-0.169,0-0.312,0.121-0.34,0.287
				c-0.016,0.09,0.006,0.182,0.058,0.258c0.054,0.076,0.133,0.125,0.224,0.139c0.19,0.035,0.365-0.096,0.396-0.279
				c0.015-0.092-0.004-0.182-0.058-0.258s-0.132-0.125-0.223-0.141C43.33,36.505,43.312,36.501,43.293,36.501"/>
			<path fill="#875C25" d="M43.093,30.515c-0.038,0-0.077-0.004-0.116-0.012c-0.186-0.029-0.347-0.133-0.456-0.287
				c-0.11-0.152-0.153-0.34-0.12-0.525c0.065-0.379,0.422-0.641,0.813-0.576c0.186,0.033,0.347,0.135,0.456,0.289
				c0.109,0.152,0.15,0.342,0.119,0.525C43.73,30.269,43.438,30.517,43.093,30.515 M43.098,29.317
				c-0.242-0.002-0.447,0.172-0.488,0.408c-0.021,0.131,0.008,0.262,0.084,0.369s0.188,0.178,0.32,0.199
				c0.275,0.049,0.521-0.137,0.565-0.402c0.024-0.129-0.009-0.258-0.083-0.365c-0.075-0.109-0.188-0.18-0.318-0.203
				C43.151,29.319,43.123,29.317,43.098,29.317"/>
			<path fill="#875C25" d="M40.516,43.585c-0.02,0-0.041-0.004-0.061-0.006c-0.102-0.018-0.188-0.072-0.246-0.156
				c-0.058-0.08-0.08-0.18-0.064-0.279c0.035-0.205,0.229-0.344,0.438-0.309c0.203,0.035,0.342,0.23,0.308,0.434
				C40.857,43.454,40.701,43.585,40.516,43.585 M40.519,42.956c-0.122,0-0.227,0.086-0.248,0.209
				c-0.011,0.064,0.005,0.131,0.042,0.186c0.039,0.055,0.098,0.092,0.162,0.102c0.141,0.025,0.266-0.068,0.29-0.205
				c0.023-0.133-0.069-0.264-0.205-0.289C40.547,42.956,40.534,42.956,40.519,42.956"/>
			<path fill="#875C25" d="M42.621,40.515c-0.027,0.002-0.054-0.002-0.08-0.006c-0.131-0.023-0.244-0.092-0.32-0.201
				c-0.076-0.107-0.105-0.238-0.083-0.367c0.046-0.266,0.292-0.449,0.567-0.402c0.13,0.021,0.242,0.094,0.318,0.203
				c0.076,0.105,0.105,0.236,0.084,0.365C43.066,40.345,42.862,40.517,42.621,40.515 M42.623,39.745
				c-0.137-0.002-0.252,0.096-0.274,0.232c-0.014,0.074,0.003,0.146,0.046,0.207s0.107,0.102,0.181,0.115
				c0.153,0.025,0.298-0.078,0.322-0.23c0.014-0.074-0.004-0.146-0.046-0.207c-0.044-0.061-0.107-0.102-0.183-0.115
				C42.654,39.745,42.638,39.745,42.623,39.745"/>
			<path fill="#875C25" d="M41.741,46.04c-0.083,0-0.163-0.029-0.226-0.082c-0.154-0.127-0.175-0.354-0.051-0.508
				c0.07-0.084,0.172-0.133,0.28-0.131c0.083,0,0.163,0.027,0.228,0.08c0.153,0.127,0.174,0.354,0.049,0.508
				C41.951,45.991,41.851,46.04,41.741,46.04 M41.745,45.403c-0.083,0-0.161,0.037-0.214,0.102
				c-0.096,0.117-0.079,0.289,0.039,0.387c0.111,0.094,0.293,0.076,0.386-0.039c0.097-0.117,0.079-0.289-0.038-0.387
				C41.869,45.427,41.809,45.405,41.745,45.403"/>
			<g opacity="0.3">
				<g>
					<defs>
						
							<rect id="SVGID_1230_" x="36.783" y="24.9" transform="matrix(-0.9908 -0.1353 0.1353 -0.9908 72.4604 82.3629)" width="4.49" height="27.64"/>
					</defs>
					<clipPath id="SVGID_49_">
						<use xlink:href="#SVGID_1230_"  overflow="visible"/>
					</clipPath>
					<path clip-path="url(#SVGID_49_)" fill="#BF9B4C" d="M39.379,52.716c-0.044-0.281-0.104-0.555-0.164-0.787
						c-0.911-3.498-1.441-7.02-1.434-10.662c0.004-1.932,0.139-3.85,0.407-5.812c0.249-1.82,0.441-3.674,0.78-5.475
						c0.127-0.678,0.729-5.039,0.729-5.039c-1.135-0.838-1.434,3.041-1.497,3.459c-0.467,3.041-0.878,6.092-1.101,9.16
						c-0.207,2.859-0.287,5.762,0.071,8.613c0.158,1.264,0.394,2.527,0.806,3.734C38.27,50.769,39.248,51.894,39.379,52.716"/>
				</g>
			</g>
			<g opacity="0.5">
				<g>
					<defs>
						
							<rect id="SVGID_1232_" x="38.584" y="24.281" transform="matrix(-0.9908 -0.1355 0.1355 -0.9908 91.209 59.6657)" width="18.103" height="4.895"/>
					</defs>
					<clipPath id="SVGID_50_">
						<use xlink:href="#SVGID_1232_"  overflow="visible"/>
					</clipPath>
					<path clip-path="url(#SVGID_50_)" fill="#BF9B4C" d="M56.592,28.036c-0.193,1.336-4.361,1.836-9.309,1.113
						c-4.946-0.721-8.799-2.391-8.605-3.727c0.196-1.338,4.365-1.836,9.312-1.115C52.937,25.028,56.787,26.698,56.592,28.036"/>
				</g>
			</g>
			<path fill="#E7DCBE" d="M56.626,27.806c-0.177,1.207-4.329,1.604-9.275,0.881c-4.946-0.721-8.815-2.287-8.639-3.494
				c0.177-1.211,4.33-1.605,9.277-0.885C52.937,25.03,56.803,26.595,56.626,27.806"/>
			<g opacity="0.3">
				<g>
					<defs>
						
							<rect id="SVGID_1234_" x="38.643" y="23.886" transform="matrix(-0.9908 -0.1356 0.1356 -0.9908 85.5676 58.0255)" width="12.233" height="4.428"/>
					</defs>
					<clipPath id="SVGID_52_">
						<use xlink:href="#SVGID_1234_"  overflow="visible"/>
					</clipPath>
					<path clip-path="url(#SVGID_52_)" fill="#CAA544" d="M42.575,25.323c0.71-0.475,1.93-0.646,2.765-0.598
						c1.234,0.07,2.493,0.119,3.752,0.15c0.542,0.014,1.323,0.158,1.88-0.004c-0.927-0.219-1.93-0.412-2.982-0.564
						c-4.947-0.721-9.101-0.326-9.278,0.885c-0.176,1.209,3.693,2.773,8.64,3.496c1.113,0.162,2.187,0.268,3.183,0.32
						c-0.115-0.094-0.251-0.182-0.416-0.27c-1.163-0.613-2.494-0.746-3.741-1.096C45.91,27.515,41.111,26.304,42.575,25.323"/>
				</g>
			</g>
			<path fill="#B4BFC6" d="M58.033,20.56c-0.174,1.26-4.497,1.701-9.654,0.984c-5.156-0.715-9.195-2.312-9.021-3.57
				c0.175-1.262,4.495-1.703,9.652-0.988C54.168,17.702,58.207,19.302,58.033,20.56"/>
			<g opacity="0.5">
				<g>
					<defs>
						
							<rect id="SVGID_1236_" x="41.784" y="19.388" transform="matrix(-0.9908 -0.1356 0.1356 -0.9908 87.6065 119.4968)" width="12.181" height="74.75"/>
					</defs>
					<clipPath id="SVGID_54_">
						<use xlink:href="#SVGID_1236_"  overflow="visible"/>
					</clipPath>
					<path clip-path="url(#SVGID_54_)" fill="#BF9B4C" d="M52.737,24.812c-0.281,3.768-0.308,7.555-0.819,11.303
						c-0.614,4.484-1.663,8.803-3.031,13.102c-1.101,3.459-3.629,5.902-4.944,9.223c-1.328,3.355-1.729,7.295-2.292,10.842
						c-0.68,4.289-1.554,8.578-1.793,12.922c-0.119,2.162-0.44,4.248-0.139,6.393c0.266,1.902-0.623,3.576-2.551,4.162
						c-0.134,0.039-0.262,0.082-0.382,0.125c0.082,0.012,0.164,0.023,0.249,0.035c0,0,8.989,2.061,5.629-1.865
						c-0.457-0.533-0.782-1.332-1.004-2.318c-0.002-0.012-0.006-0.021-0.008-0.033c-0.003-0.012-0.006-0.023-0.008-0.035
						c-0.016-0.07-0.029-0.143-0.043-0.215c-0.778-3.705-0.266-7.785,0.172-11.492l0.003-0.02c0.562-4.742,1.404-8.986,1.519-9.807
						c0.248-1.795,0.895-8.217,5.305-11.879c4.412-3.662,8.871-11.184,9.447-34.703l-4.92-0.791
						C52.726,21.567,52.809,23.862,52.737,24.812"/>
				</g>
			</g>
			<g>
				<defs>
					<path id="SVGID_1238_" d="M40.254,18.095c-0.141,1.02,3.523,2.367,8.186,3.016c4.662,0.646,8.559,0.344,8.699-0.674
						s-3.525-2.367-8.188-3.014c-0.021-0.004-0.042-0.006-0.063-0.01C44.254,16.78,40.393,17.083,40.254,18.095"/>
				</defs>
				<clipPath id="SVGID_56_">
					<use xlink:href="#SVGID_1238_"  overflow="visible"/>
				</clipPath>
				
					<linearGradient id="SVGID_58_" gradientUnits="userSpaceOnUse" x1="-2805.1646" y1="318.7266" x2="-2804.7266" y2="318.7266" gradientTransform="matrix(38.5937 5.2529 7.5646 -55.0873 105890.875 32311.082)">
					<stop  offset="0" style="stop-color:#CBD9DA"/>
					<stop  offset="0.0031" style="stop-color:#CDDADB"/>
					<stop  offset="0.041" style="stop-color:#DEE4E5"/>
					<stop  offset="0.0854" style="stop-color:#E9ECEC"/>
					<stop  offset="0.1423" style="stop-color:#EFF0F0"/>
					<stop  offset="0.2543" style="stop-color:#F1F1F1"/>
					<stop  offset="0.5079" style="stop-color:#EFEFEF"/>
					<stop  offset="0.7084" style="stop-color:#E6EAEA"/>
					<stop  offset="0.8901" style="stop-color:#D8E0E2"/>
					<stop  offset="1" style="stop-color:#CBD9DA"/>
				</linearGradient>
				<polygon clip-path="url(#SVGID_56_)" fill="url(#SVGID_58_)" points="40.502,16.267 57.398,18.565 56.889,22.274 39.993,19.976 
									"/>
			</g>
			<g>
				<defs>
					<path id="SVGID_1241_" d="M56.072,19.183c0.787,0.408,1.242,0.84,1.184,1.27c-0.176,1.264-4.645,1.348-8.761,0.783l-0.071-0.01
						c-4.148-0.574-8.463-1.873-8.287-3.146c0.053-0.385,0.506-0.658,1.223-0.84c-0.012-0.096-0.033-0.17-0.07-0.23
						c-1.107,0.219-1.757,0.564-1.814,0.98c-0.075,0.541,0.813,1.221,2.438,1.863c1.696,0.672,3.998,1.23,6.482,1.574l0.086,0.012
						c5.467,0.748,9.293,0.143,9.437-0.895c0.064-0.465-0.603-1.045-1.849-1.613C56.068,19.007,56.072,19.089,56.072,19.183"/>
				</defs>
				<clipPath id="SVGID_60_">
					<use xlink:href="#SVGID_1241_"  overflow="visible"/>
				</clipPath>
				
					<linearGradient id="SVGID_62_" gradientUnits="userSpaceOnUse" x1="-2809.0317" y1="318.3457" x2="-2808.5938" y2="318.3457" gradientTransform="matrix(42.147 5.7665 5.7665 -42.147 116595.9609 29634.0332)">
					<stop  offset="0" style="stop-color:#FFFFFF"/>
					<stop  offset="1" style="stop-color:#D1DFE0"/>
				</linearGradient>
				<polygon clip-path="url(#SVGID_60_)" fill="url(#SVGID_62_)" points="39.652,16.685 58.101,19.208 57.624,22.69 39.176,20.167 
									"/>
			</g>
			<g opacity="0.5">
				<g>
					<defs>
						
							<rect id="SVGID_1244_" x="33.031" y="18.759" transform="matrix(-0.9908 -0.1356 0.1356 -0.9908 79.0255 117.6839)" width="20.978" height="74.784"/>
					</defs>
					<clipPath id="SVGID_64_">
						<use xlink:href="#SVGID_1244_"  overflow="visible"/>
					</clipPath>
					<path clip-path="url(#SVGID_64_)" fill="#A0A9AE" d="M58.047,20.55l-0.086-0.014c-0.056,0.248-0.232,0.475-0.545,0.545
						c-0.039,0.008-0.08,0.014-0.122,0.021l0.071,0.012c-0.648,23.566-5.246,30.354-9.191,33.627
						c-4.396,3.648-5.198,9.721-5.5,12.008c-0.014,0.107-0.027,0.205-0.039,0.291c-0.026,0.193-0.101,0.611-0.203,1.191
						c-1.482,8.389-3.125,19.924-0.273,23.254c0.634,0.74,0.592,1.023,0.59,1.025c-0.002,0.004-0.467,0.539-3.518,0.121
						c-1.115-0.152-2.037-0.363-2.046-0.365l-0.028-0.004l-0.029-0.006c-3.274-0.453-3.531-1.137-3.532-1.143
						c-0.013-0.051,0.117-0.24,0.281-0.365c4.309-2.559,5.417-11.516,6.487-20.18c0.188-1.518,0.382-3.086,0.588-4.576
						c0.946-6.814-1.479-11.477-1.658-11.809c-3.566-7.184-3.175-16.684-2.218-23.391c0.812-5.689,2.153-10.371,2.719-12.195
						c-0.243-0.191-0.391-0.455-0.459-0.76c-0.853,2.619-7.241,23.365-0.634,36.652c0,0,2.533,4.625,1.59,11.41
						c-1.354,9.781-2.002,21.494-6.782,24.289c0,0-2.696,1.863,3.526,2.727c0,0,8.989,2.061,5.629-1.865
						c-3.361-3.926,0.381-22.123,0.631-23.92c0.248-1.795,0.895-8.219,5.305-11.879C53.012,51.591,57.471,44.069,58.047,20.55"/>
				</g>
			</g>
			<g opacity="0.6">
				<g>
					<defs>
						
							<rect id="SVGID_1246_" x="35.33" y="20.348" transform="matrix(-0.9908 -0.1355 0.1355 -0.9908 70.4456 116.0902)" width="7.685" height="70.601"/>
					</defs>
					<clipPath id="SVGID_66_">
						<use xlink:href="#SVGID_1246_"  overflow="visible"/>
					</clipPath>
					<path clip-path="url(#SVGID_66_)" fill="#F7F7F7" d="M41.846,63.083c0.189-2.066,0.332-3.377-0.316-5.355
						c-0.926-2.824-0.658-6.182-0.624-9.107c0.075-6.332,0.519-12.668,1.384-18.984c0.07-0.52,0.15-1.035,0.236-1.549
						c0.229-1.379,0.49-2.752,0.672-4.135c0.08-0.619,0.08-1.252,0.165-1.859c0.06-0.43,0.19-0.957-0.186-1.289
						c-0.255-0.225-0.603-0.311-0.935-0.355c-0.244-0.033-0.684-0.15-0.892,0.012c-0.343,0.27-0.44,0.727-0.54,1.123
						c-0.139,0.562-0.35,1.105-0.502,1.666c-0.436,1.609-0.81,3.236-1.128,4.871c-0.799,4.104-1.244,8.271-1.412,12.445
						c-0.133,4.029,0.339,7.723,1.048,11.729c0.534,2.842,1.738,5.605,2.099,8.471c0.37,2.938-0.311,6.078-0.673,8.986
						c-0.489,3.928-0.657,7.908-1.539,11.779c-0.412,1.807-1.128,3.465-1.701,5.213c-0.301,0.922-1.854,2.855-1.257,3.771
						c0.396,0.611,0.908,0.354,1.333-0.029c0.996-0.898,1.286-2.973,1.563-4.195c0.673-2.967,0.831-6,1.389-8.979
						c0.601-3.199,0.812-6.502,1.256-9.744C41.462,66.282,41.729,64.364,41.846,63.083"/>
				</g>
			</g>
			<g opacity="0.4">
				<g>
					<defs>
						
							<rect id="SVGID_1248_" x="40.287" y="16.933" transform="matrix(-0.9908 -0.1356 0.1356 -0.9908 87.6832 42.3882)" width="9.997" height="2.551"/>
					</defs>
					<clipPath id="SVGID_67_">
						<use xlink:href="#SVGID_1248_"  overflow="visible"/>
					</clipPath>
					<path clip-path="url(#SVGID_67_)" fill="#BF9B4C" d="M50.405,17.653c-0.472-0.084-0.956-0.162-1.454-0.23
						c-4.662-0.645-8.558-0.344-8.697,0.672c-0.035,0.248,0.156,0.514,0.528,0.783c0.103-0.238,0.298-0.439,0.688-0.637
						c0.785-0.398,1.747-0.48,2.611-0.537c1.607-0.105,3.221,0.17,4.818,0.072C49.335,17.749,49.88,17.737,50.405,17.653"/>
				</g>
			</g>
		</g>
	</g>
	<path fill="#F18A1D" d="M33.705,67.466l1.334,3.658v0.688l-0.285,0.342h-0.096c-0.891,0-1.684-0.531-2.383-1.602l-1.238-0.686
		c-0.826,0-1.873,1.869-3.144,5.602c-1.018,2.594-1.493,4.881-1.429,6.861c-0.191,1.525,0.633,2.441,2.477,2.744
		c1.65,0,3.334-1.219,5.051-3.658c0.252-1.066,0.762-1.6,1.523-1.6l0.096,0.113v0.229c0,1.449-1.207,3.277-3.621,5.488
		c-0.762,0.533-1.905,0.914-3.43,1.143H28.18c-1.844,0-3.525-1.295-5.051-3.887l-0.381-2.744c0-2.896,1.08-5.945,3.24-9.146
		c1.968-1.982,3.557-2.973,4.764-2.973l2.668,0.457V68.38l-0.191-0.572L33.705,67.466z"/>
	<path fill="#F18A1D" d="M40.661,66.665c0.381,0.457,0.698,2.479,0.953,6.061c0.126,0,0.19,0.229,0.19,0.686
		c-0.064,1.756-0.19,2.82-0.381,3.203h0.285c0.444-0.305,0.889-0.459,1.334-0.459h0.096c0.824,0,1.43,1.105,1.811,3.316
		c-0.51,5.336-0.953,8.004-1.334,8.004h-0.191c-0.254,0-0.413-0.801-0.476-2.402c0.443-2.439,0.667-4.305,0.667-5.602v-0.344
		l-0.286-1.371h-0.286l-1.619,2.059c-0.953,0-1.652,1.676-2.096,5.029c-0.382,1.221-0.668,1.869-0.858,1.945
		c-0.571,0-1.048-1.678-1.429-5.033c0-2.818,0.92-6.859,2.763-12.119l0.286-2.172l-0.286-0.344
		C39.93,66.819,40.216,66.665,40.661,66.665"/>
	<path fill="#F18A1D" d="M50.475,74.669l0.096,0.113h0.096l0.096-0.113h0.095c0.825,0,1.716,0.801,2.668,2.402l0.857,1.371v0.686
		l-1.144,0.914c0,0.459-0.795,0.84-2.382,1.145l-1.048-0.229h-0.381c-0.51,2.211-0.891,3.469-1.144,3.773v0.229
		c0.381,0.686,1.015,1.027,1.905,1.027c0.824,0,1.842-0.723,3.049-2.172l0.572-0.229L54,83.815v0.23
		c-1.143,1.676-2.255,2.514-3.334,2.514l-0.953,0.229c-1.017-0.15-1.779-0.533-2.286-1.143c-0.7-1.143-1.049-2.018-1.049-2.629
		v-0.572c0.127-1.83,1.11-4.117,2.954-6.859C49.84,74.974,50.221,74.669,50.475,74.669 M49.522,79.243
		c1.778-0.609,2.858-0.916,3.239-0.916v-0.113c-0.318-1.219-0.953-2.059-1.905-2.516c-0.636,0-1.081,1.029-1.334,3.088V79.243z"/>
	<path fill="#F18A1D" d="M59.812,74.669l0.096,0.113h0.095l0.096-0.113h0.095c0.825,0,1.716,0.801,2.668,2.402l0.857,1.371v0.686
		l-1.143,0.914c0,0.459-0.795,0.84-2.383,1.145l-1.048-0.229h-0.381c-0.509,2.211-0.891,3.469-1.144,3.773v0.229
		c0.381,0.686,1.016,1.027,1.906,1.027c0.824,0,1.841-0.723,3.049-2.172l0.571-0.229l0.19,0.229v0.23
		c-1.144,1.676-2.256,2.514-3.335,2.514l-0.952,0.229c-1.018-0.15-1.779-0.533-2.287-1.143c-0.699-1.143-1.049-2.018-1.049-2.629
		v-0.572c0.127-1.83,1.111-4.117,2.954-6.859C59.177,74.974,59.559,74.669,59.812,74.669 M58.859,79.243
		c1.778-0.609,2.859-0.916,3.24-0.916v-0.113c-0.318-1.219-0.953-2.059-1.906-2.516c-0.635,0-1.08,1.029-1.334,3.088V79.243z"/>
	<path fill="#F18A1D" d="M66.578,74.897c1.396,0,2.223,0.535,2.477,1.6l0.381,1.717c0.699-0.838,1.396-1.297,2.097-1.373
		c0.317,0.076,0.477,0.191,0.477,0.344V77.3l-1.144,0.686c-0.445,0-0.952,0.99-1.525,2.973c0,2.439-0.73,4.307-2.19,5.602
		l-0.857,0.23c-0.509-0.688-0.763-1.678-0.763-2.975c1.525-2.59,2.287-4.496,2.287-5.717c-0.826,0-1.619-0.607-2.382-1.828
		l-0.477-0.572v-0.115C64.958,75.28,65.496,75.052,66.578,74.897"/>
	<path fill="#F18A1D" d="M78.583,75.013l0.19,0.457l0.191,1.602c0,0.303-0.191,0.533-0.572,0.686
		c-0.636-0.533-1.048-0.801-1.239-0.801h-0.189c-1.018,0.076-1.524,0.496-1.524,1.258v0.113c0,0.154,0.793,0.459,2.382,0.916
		c1.968,1.525,2.954,2.896,2.954,4.115v0.914c0,1.449-1.145,2.287-3.431,2.516c-1.208-0.074-2.351-0.416-3.431-1.027
		c-0.318,0-0.604-0.268-0.857-0.801v-0.457l1.049-0.23c0,0.764,0.984,1.145,2.953,1.145c1.842-0.305,2.764-0.801,2.764-1.486
		c0-0.99-1.398-1.791-4.192-2.4c-1.271-0.609-1.905-1.525-1.905-2.744s0.697-2.324,2.096-3.316L78.583,75.013z"/>
	<path fill="#F18A1D" d="M84.604,86.972c-1.068-0.297-1.438-0.984-1.109-2.072c0-1.279,0.533-1.871,1.603-1.773
		c0.656,0.295,1.149,1.035,1.479,2.219C86.41,86.626,85.753,87.171,84.604,86.972 M84.974,74.103l0.123-1.775
		c0.164-2.07,0.286-3.846,0.37-5.326c-0.412-1.279,0-1.676,1.232-1.184c0.82,0.496,1.313,1.383,1.479,2.664
		c0,0.197-0.083,0.789-0.247,1.775c-0.246,1.678-0.535,3.156-0.863,4.438c-0.328,1.184-0.738,2.713-1.232,4.586
		c-0.083,0.887-0.166,1.479-0.246,1.773c-0.246,0.592-0.412,0.791-0.493,0.592l-0.493-0.738c0.081-0.494,0.247-1.529,0.493-3.107
		C85.014,76.519,84.974,75.286,84.974,74.103"/>
</g>
</svg>
