<?xml version="1.0" encoding="utf-8"?>
<!-- Generator: Adobe Illustrator 16.0.0, SVG Export Plug-In . SVG Version: 6.00 Build 0)  -->
<!DOCTYPE svg PUBLIC "-//W3C//DTD SVG 1.1//EN" "http://www.w3.org/Graphics/SVG/1.1/DTD/svg11.dtd">
<svg version="1.1" id="Layer_1" xmlns="http://www.w3.org/2000/svg" xmlns:xlink="http://www.w3.org/1999/xlink" x="0px" y="0px"
	 width="120px" height="120px" viewBox="0 0 120 120" enable-background="new 0 0 120 120" xml:space="preserve">
<g>
	<defs>
		<path id="SVGID_1368_" d="M27.458,69.524c0,0,0.035,0.508,0.579,1.16c0.141,0.166,0.287,0.307,0.427,0.422
			c0.259,0.287,0.402,0.338,0.478,0.322c0.186,0.102,0.31,0.145,0.31,0.145l22.393-19.759l-0.51-0.601l-0.207-0.335
			c0,0-0.015,0.014-0.045,0.039l-0.781-0.916L27.458,69.524z"/>
	</defs>
	<linearGradient id="SVGID_2_" gradientUnits="userSpaceOnUse" x1="39.0293" y1="60.7876" x2="41.6652" y2="60.7876">
		<stop  offset="0" style="stop-color:#F7F8F8"/>
		<stop  offset="0.0416" style="stop-color:#EFEAE5"/>
		<stop  offset="0.1706" style="stop-color:#D5C2AF"/>
		<stop  offset="0.3029" style="stop-color:#BFA283"/>
		<stop  offset="0.4365" style="stop-color:#AF8963"/>
		<stop  offset="0.5717" style="stop-color:#A3774D"/>
		<stop  offset="0.709" style="stop-color:#9B6B3E"/>
		<stop  offset="0.85" style="stop-color:#966437"/>
		<stop  offset="1" style="stop-color:#956134"/>
	</linearGradient>
	<use xlink:href="#SVGID_1368_"  overflow="visible" fill="url(#SVGID_2_)"/>
	<clipPath id="SVGID_4_">
		<use xlink:href="#SVGID_1368_"  overflow="visible"/>
	</clipPath>
	
		<linearGradient id="SVGID_6_" gradientUnits="userSpaceOnUse" x1="-2739.0459" y1="832.7959" x2="-2738.8203" y2="832.7959" gradientTransform="matrix(9.357 10.7341 10.7341 -9.357 16729.041 37253.9375)">
		<stop  offset="0" style="stop-color:#F7F8F8"/>
		<stop  offset="0.0416" style="stop-color:#EFEAE5"/>
		<stop  offset="0.1706" style="stop-color:#D5C2AF"/>
		<stop  offset="0.3029" style="stop-color:#BFA283"/>
		<stop  offset="0.4365" style="stop-color:#AF8963"/>
		<stop  offset="0.5717" style="stop-color:#A3774D"/>
		<stop  offset="0.709" style="stop-color:#9B6B3E"/>
		<stop  offset="0.85" style="stop-color:#966437"/>
		<stop  offset="1" style="stop-color:#956134"/>
	</linearGradient>
	<polygon clip-path="url(#SVGID_4_)" fill="url(#SVGID_6_)" points="41.974,39.061 61.341,61.279 37.083,82.426 17.713,60.209 	"/>
</g>
<path fill="#E6D0A8" d="M51.549,52.031c-0.235,0.188-0.824-0.154-1.309-0.768c-0.487-0.611-0.434-1.02-0.195-1.21
	c0.237-0.189,0.571-0.085,1.056,0.527S51.786,51.842,51.549,52.031"/>
<path fill-rule="evenodd" clip-rule="evenodd" fill="#D82730" d="M63.27,39.653c4.25,5.071,3.587,12.628-1.485,16.878
	c-5.07,4.25-12.626,3.586-16.875-1.484c-4.253-5.072-3.588-12.629,1.483-16.879S59.021,34.583,63.27,39.653"/>
<path fill="none" stroke="#B81C25" stroke-miterlimit="10" d="M63.27,39.653c4.25,5.071,3.587,12.628-1.485,16.878
	c-5.07,4.25-12.626,3.586-16.875-1.484c-4.253-5.072-3.588-12.629,1.483-16.879S59.021,34.583,63.27,39.653z"/>
<path fill-rule="evenodd" clip-rule="evenodd" fill="#FFFFFF" d="M60.745,57.473c-3.672-1.947-6.303-5.672-6.656-10.124
	c-1.92,4.031-1.506,8.573,0.703,12.097C56.865,59.326,58.925,58.676,60.745,57.473"/>
<path fill-rule="evenodd" clip-rule="evenodd" fill="#FFFFFF" d="M66.188,46.645c-3.526,2.208-8.067,2.622-12.099,0.704
	c2.53,3.681,6.674,5.591,10.83,5.438C65.878,50.877,66.308,48.753,66.188,46.645"/>
<path fill-rule="evenodd" clip-rule="evenodd" fill="#FFFFFF" d="M59.528,36.519c0.15,4.156-1.76,8.298-5.439,10.83
	c4.451-0.352,8.176-2.984,10.123-6.658c-0.253-0.386-0.534-0.763-0.837-1.126C62.278,38.256,60.963,37.237,59.528,36.519"/>
<path fill-rule="evenodd" clip-rule="evenodd" fill="#FFFFFF" d="M47.433,37.226c3.469-2.29,6.302,5.672,6.656,10.123
	c1.921-4.031,1.505-8.573-0.705-12.098C51.311,35.371,49.253,36.023,47.433,37.226z"/>
<path fill-rule="evenodd" clip-rule="evenodd" fill="#FFFFFF" d="M41.993,48.052c3.522-2.208,8.065-2.622,12.096-0.703
	c-2.532-3.68-6.674-5.591-10.831-5.439C42.301,43.822,41.871,45.945,41.993,48.052"/>
<path fill-rule="evenodd" clip-rule="evenodd" fill="#FFFFFF" d="M48.651,58.18c-0.151-4.156,1.758-8.298,5.438-10.831
	c-4.451,0.354-8.177,2.985-10.123,6.659c0.254,0.385,0.532,0.762,0.84,1.123C45.901,56.441,47.215,57.459,48.651,58.18"/>
<g>
	<defs>
		<path id="SVGID_1372_" d="M91.257,76.284c0,0,0.358-0.074,0.771-0.527c0.105-0.117,0.191-0.234,0.259-0.346
			c0.18-0.213,0.2-0.32,0.183-0.373c0.055-0.143,0.073-0.234,0.073-0.234L76.229,60.783l-0.377,0.424l-0.22,0.18
			c0,0,0.013,0.01,0.034,0.029l-0.576,0.646L91.257,76.284z"/>
	</defs>
	<linearGradient id="SVGID_8_" gradientUnits="userSpaceOnUse" x1="83.4395" y1="68.5337" x2="85.3415" y2="68.5337">
		<stop  offset="0" style="stop-color:#F7F8F8"/>
		<stop  offset="0.0416" style="stop-color:#EFEAE5"/>
		<stop  offset="0.1706" style="stop-color:#D5C2AF"/>
		<stop  offset="0.3029" style="stop-color:#BFA283"/>
		<stop  offset="0.4365" style="stop-color:#AF8963"/>
		<stop  offset="0.5717" style="stop-color:#A3774D"/>
		<stop  offset="0.709" style="stop-color:#9B6B3E"/>
		<stop  offset="0.85" style="stop-color:#966437"/>
		<stop  offset="1" style="stop-color:#956134"/>
	</linearGradient>
	<use xlink:href="#SVGID_1372_"  overflow="visible" fill="url(#SVGID_8_)"/>
	<clipPath id="SVGID_10_">
		<use xlink:href="#SVGID_1372_"  overflow="visible"/>
	</clipPath>
	
		<linearGradient id="SVGID_12_" gradientUnits="userSpaceOnUse" x1="-2718.0659" y1="795.9805" x2="-2717.9033" y2="795.9805" gradientTransform="matrix(9.3474 -10.7425 -10.7425 -9.3474 34041.1641 -21689.5918)">
		<stop  offset="0" style="stop-color:#F7F8F8"/>
		<stop  offset="0.0416" style="stop-color:#EFEAE5"/>
		<stop  offset="0.1706" style="stop-color:#D5C2AF"/>
		<stop  offset="0.3029" style="stop-color:#BFA283"/>
		<stop  offset="0.4365" style="stop-color:#AF8963"/>
		<stop  offset="0.5717" style="stop-color:#A3774D"/>
		<stop  offset="0.709" style="stop-color:#9B6B3E"/>
		<stop  offset="0.85" style="stop-color:#966437"/>
		<stop  offset="1" style="stop-color:#956134"/>
	</linearGradient>
	<polygon clip-path="url(#SVGID_10_)" fill="url(#SVGID_12_)" points="68.087,68.942 82.022,52.928 99.51,68.142 85.574,84.156 	"/>
</g>
<path fill="#E6D0A8" d="M76.394,60.828c0.157,0.15-0.028,0.604-0.418,1.01c-0.389,0.408-0.685,0.41-0.844,0.26
	c-0.158-0.15-0.117-0.398,0.271-0.807C75.792,60.885,76.234,60.678,76.394,60.828"/>
<path fill-rule="evenodd" clip-rule="evenodd" fill="#D82730" d="M66.403,53.691c3.197-3.534,8.654-3.809,12.188-0.609
	c3.534,3.197,3.807,8.652,0.609,12.185c-3.197,3.535-8.654,3.809-12.188,0.611C63.479,62.68,63.207,57.225,66.403,53.691"/>
<circle fill="none" stroke="#B81C25" stroke-miterlimit="10" cx="72.802" cy="59.479" r="8.628"/>
<path fill-rule="evenodd" clip-rule="evenodd" fill="#FFFFFF" d="M79.365,53.729c-1.025,2.814-3.423,5.059-6.563,5.752
	c3.066,0.971,6.265,0.225,8.56-1.699C81.072,56.314,80.404,54.91,79.365,53.729"/>
<path fill-rule="evenodd" clip-rule="evenodd" fill="#FFFFFF" d="M71.104,50.918c1.923,2.297,2.668,5.494,1.698,8.562
	c2.375-2.17,3.328-5.314,2.81-8.266C74.152,50.72,72.596,50.623,71.104,50.918"/>
<path fill-rule="evenodd" clip-rule="evenodd" fill="#FFFFFF" d="M64.538,56.67c2.95-0.518,6.093,0.436,8.264,2.811
	c-0.691-3.143-2.938-5.539-5.751-6.564c-0.25,0.219-0.492,0.457-0.721,0.709C65.505,54.537,64.908,55.574,64.538,56.67"/>
<path fill-rule="evenodd" clip-rule="evenodd" fill="#FFFFFF" d="M66.238,65.229c-1.978-2.247,3.424-5.058,6.563-5.749
	c-3.065-0.973-6.266-0.227-8.56,1.699C64.532,62.646,65.201,64.048,66.238,65.229z"/>
<path fill-rule="evenodd" clip-rule="evenodd" fill="#FFFFFF" d="M74.501,68.038c-1.925-2.293-2.67-5.493-1.699-8.558
	c-2.374,2.17-3.327,5.312-2.81,8.263C71.452,68.237,73.009,68.333,74.501,68.038"/>
<path fill-rule="evenodd" clip-rule="evenodd" fill="#FFFFFF" d="M81.067,62.287c-2.951,0.52-6.094-0.434-8.266-2.807
	c0.692,3.141,2.938,5.536,5.752,6.562c0.249-0.219,0.49-0.455,0.719-0.709C80.098,64.421,80.693,63.382,81.067,62.287"/>
<g>
	<g>
		<path d="M31.108,85.25l-0.139-0.275c-0.137-0.273-0.213-0.588-0.231-0.963l-0.022-0.434l0.427-0.084
			c0.261-0.051,0.514-0.088,0.764-0.115c-0.048-0.338-0.095-0.672-0.139-1.002c-0.887,0.107-1.802,0.189-2.781,0.25l-0.384,0.023
			l-0.121-0.365c-0.106-0.32-0.156-0.697-0.156-1.183v-0.443l0.439-0.055c0.903-0.109,1.807-0.219,2.699-0.318
			c-0.064-0.428-0.129-0.855-0.188-1.277c-0.703,0.021-1.405,0.033-2.108,0.033h-0.43l-0.064-0.424
			c-0.05-0.322-0.072-0.674-0.072-1.104v-0.479c0,0,2.098-0.098,2.374-0.111l-0.181-1.283l0.436-0.109
			c0.492-0.125,0.861-0.18,1.196-0.18h0.413l0.078,0.406c0.056,0.289,0.117,0.576,0.178,0.861l0.045,0.217
			c0,0,1.649-0.062,2.007-0.074c-0.024-0.064-0.245-0.637-0.245-0.637l0.435-0.191c0.312-0.139,0.697-0.264,1.145-0.371l0.415-0.102
			c0,0,0.39,0.939,0.516,1.232l2.868-0.1l0.098,0.393c0.037,0.152,0.08,0.357,0.08,0.609c0,0.316-0.021,0.521-0.039,0.633
			l-0.062,0.389l-0.391,0.031c-0.541,0.045-1.081,0.074-1.622,0.1c0.155,0.332,0.32,0.674,0.493,1.025
			c0.301-0.189,0.611-0.371,0.927-0.545l0.266-0.146l0.253,0.168c0.365,0.244,0.622,0.555,0.762,0.924l0.116,0.307l-0.236,0.229
			c-0.339,0.328-0.703,0.656-1.127,1.013c0.146,0.293,0.295,0.586,0.445,0.879c0.098-0.051,0.192-0.096,0.285-0.135l0.327-0.141
			l0.239,0.264c0.228,0.252,0.392,0.557,0.474,0.883l0.07,0.281l-0.21,0.201c-0.423,0.404-1.02,0.719-1.772,0.936l-0.32,0.092
			l-0.208-0.26c-0.349-0.438-0.713-0.99-1.085-1.652c-0.407,0.281-0.768,0.512-1.11,0.711l-0.286,0.166l-0.265-0.197
			c-0.334-0.25-0.578-0.512-0.748-0.797l-0.19-0.316l0.249-0.275c0.419-0.461,0.855-0.88,1.328-1.271
			c-0.356-0.742-0.688-1.482-1.007-2.242c-0.836,0.043-1.665,0.072-2.499,0.096c0.056,0.369,0.107,0.738,0.159,1.107
			c0.034-0.004,0.068-0.006,0.102-0.01c0.193-0.021,0.387-0.041,0.584-0.059l0.497-0.041l0.053,0.604
			c0.029,0.334,0.057,0.654,0.057,0.947v0.419c0,0-0.878,0.152-1.046,0.182c0.081,0.783,0.158,1.553,0.214,2.346l0.027,0.393
			l-0.376,0.119c-0.632,0.199-1.429,0.299-2.367,0.299H31.108z M40.596,76.177c-0.844-0.387-1.595-0.855-2.232-1.391l-0.315-0.268
			l0.201-0.359c0.154-0.277,0.339-0.596,0.568-0.883l0.237-0.297l0.349,0.148c0.789,0.336,1.564,0.809,2.303,1.408l0.3,0.242
			l-0.158,0.352c-0.175,0.387-0.409,0.705-0.715,0.971l-0.243,0.211L40.596,76.177z M28.492,74.675
			c-0.189-0.379-0.306-0.785-0.345-1.205l-0.039-0.43l0.419-0.102c2.011-0.49,4.214-0.92,6.546-1.279l0.376-0.059l0.156,0.348
			c0.18,0.4,0.271,0.826,0.271,1.264v0.396L35.491,73.7c-2.14,0.502-4.259,0.91-6.477,1.246l-0.359,0.055L28.492,74.675z"/>
		<path fill="#FFFFFF" d="M35.149,72.153c0.146,0.326,0.228,0.686,0.228,1.059c-2.151,0.506-4.287,0.914-6.438,1.24
			c-0.163-0.326-0.261-0.668-0.294-1.027C30.65,72.937,32.818,72.513,35.149,72.153 M39.208,73.587
			c0.766,0.326,1.499,0.783,2.184,1.338c-0.147,0.326-0.343,0.586-0.587,0.799c-0.782-0.359-1.499-0.799-2.119-1.32
			C38.85,74.108,39.013,73.833,39.208,73.587 M32.427,75.853c0.098,0.506,0.212,1.012,0.311,1.5c1.01-0.033,2.069-0.082,3.146-0.113
			c-0.114-0.262-0.229-0.555-0.343-0.848c0.293-0.131,0.652-0.244,1.059-0.344c0.148,0.359,0.311,0.75,0.49,1.158
			c0.913-0.033,1.858-0.064,2.804-0.098c0.032,0.131,0.065,0.293,0.065,0.488c0,0.277-0.018,0.457-0.033,0.555
			c-0.783,0.064-1.564,0.098-2.348,0.131c0.311,0.684,0.669,1.434,1.061,2.217c0.439-0.295,0.896-0.572,1.367-0.832
			c0.294,0.195,0.473,0.424,0.571,0.684c-0.473,0.457-0.945,0.865-1.401,1.239c0.277,0.57,0.57,1.141,0.863,1.711
			c0.229-0.146,0.457-0.277,0.686-0.375c0.162,0.18,0.293,0.406,0.358,0.668c-0.358,0.344-0.881,0.619-1.564,0.816
			c-0.392-0.49-0.832-1.176-1.305-2.072c-0.521,0.375-1.026,0.719-1.532,1.012c-0.261-0.195-0.473-0.406-0.619-0.652
			c0.473-0.521,0.994-1.01,1.581-1.466c-0.406-0.832-0.848-1.793-1.304-2.9c-1.141,0.064-2.266,0.098-3.406,0.129
			c0.114,0.719,0.212,1.418,0.311,2.137c0.391-0.033,0.766-0.082,1.157-0.115c0.031,0.359,0.064,0.701,0.064,1.012
			c-0.375,0.063-0.733,0.128-1.093,0.177c0.098,0.947,0.195,1.859,0.262,2.805c-0.57,0.18-1.305,0.275-2.217,0.275
			c-0.098-0.193-0.163-0.439-0.18-0.764c0.424-0.082,0.831-0.131,1.239-0.148c-0.098-0.684-0.196-1.367-0.277-2.021
			c-1.093,0.148-2.167,0.246-3.243,0.311c-0.098-0.293-0.131-0.634-0.131-1.024c1.076-0.131,2.152-0.262,3.21-0.377
			c-0.112-0.75-0.228-1.498-0.325-2.232c-0.848,0.033-1.694,0.049-2.542,0.049c-0.05-0.326-0.066-0.668-0.066-1.027
			c0.783-0.031,1.599-0.08,2.446-0.113c-0.066-0.457-0.131-0.93-0.195-1.385C31.743,75.919,32.102,75.853,32.427,75.853
			 M35.749,71.05l-0.752,0.115c-2.347,0.361-4.562,0.795-6.588,1.287l-0.839,0.205l0.079,0.859c0.045,0.482,0.178,0.947,0.396,1.383
			l0.324,0.65l0.719-0.109c0.414-0.062,0.824-0.129,1.23-0.195l-0.083,0.021l0.126,0.891l0.041,0.295
			c-0.09,0.004-0.181,0.01-0.271,0.014c-0.363,0.018-0.721,0.035-1.071,0.051l-0.959,0.039v0.959c0,0.457,0.024,0.83,0.078,1.178
			l0.13,0.85h0.858c0.56,0,1.12-0.006,1.677-0.021c0.016,0.109,0.031,0.219,0.048,0.328c-0.726,0.082-1.457,0.172-2.188,0.26
			l-0.879,0.107v0.887c0,0.54,0.058,0.968,0.182,1.341l0.243,0.729l0.767-0.047c0.811-0.049,1.578-0.113,2.321-0.195
			c0.001,0.008,0.002,0.014,0.003,0.021c-0.097,0.016-0.195,0.033-0.293,0.053l-0.854,0.164l0.044,0.869
			c0.022,0.445,0.116,0.826,0.284,1.162L30.8,85.75h0.617c0.99,0,1.837-0.107,2.518-0.322l0.752-0.236l-0.055-0.787
			c-0.046-0.646-0.104-1.266-0.168-1.896c0.017-0.004,0.034-0.008,0.052-0.01l0.121-0.021l0.327-0.057l-0.141,0.154l0.38,0.637
			c0.204,0.342,0.491,0.648,0.877,0.938l0.529,0.398l0.573-0.332c0.223-0.129,0.452-0.271,0.696-0.432
			c0.292,0.484,0.579,0.902,0.858,1.252l0.416,0.52l0.64-0.184c0.832-0.238,1.498-0.594,1.98-1.055l0.42-0.402l-0.142-0.562
			c-0.102-0.406-0.305-0.785-0.588-1.098l-0.479-0.527l-0.516,0.221c-0.018-0.033-0.033-0.066-0.051-0.1
			c0.31-0.268,0.588-0.522,0.853-0.778l0.474-0.457l-0.234-0.615c-0.144-0.381-0.383-0.711-0.711-0.982l0.112-0.705
			c0.03-0.188,0.046-0.434,0.046-0.713c0-0.311-0.054-0.564-0.095-0.729l-0.005-0.02l0.115,0.053l0.487-0.424
			c0.356-0.311,0.64-0.693,0.842-1.141l0.317-0.703l-0.599-0.486c-0.775-0.629-1.59-1.127-2.422-1.48L38.9,72.37l-0.474,0.594
			c-0.254,0.316-0.449,0.656-0.614,0.951l-0.403,0.721l0.633,0.531c0.413,0.348,0.87,0.668,1.366,0.957l-0.095,0.004l-1.576,0.055
			c-0.074-0.178-0.146-0.352-0.215-0.518l-0.327-0.789l-0.831,0.201c-0.477,0.115-0.891,0.25-1.229,0.4l-0.87,0.385l0.164,0.426
			c-0.121,0.006-0.242,0.01-0.363,0.016c-0.175,0.006-0.35,0.014-0.522,0.02c-0.046-0.219-0.092-0.439-0.134-0.66l-0.157-0.811
			h-0.755c1.04-0.201,2.072-0.424,3.108-0.666l0.771-0.182v-0.793c0-0.51-0.106-1.004-0.315-1.469L35.749,71.05L35.749,71.05z
			 M34.089,79.427c0.527-0.016,1.062-0.035,1.6-0.061c0.229,0.537,0.467,1.064,0.715,1.594c-0.326,0.285-0.638,0.587-0.938,0.909
			v-0.376c0-0.324-0.03-0.664-0.059-0.992l-0.01-0.105l-0.087-0.992l-0.992,0.082c-0.073,0.006-0.145,0.014-0.217,0.02
			C34.097,79.479,34.093,79.454,34.089,79.427L34.089,79.427z"/>
	</g>
	<g>
		<path d="M54.334,85.055c-2.714-0.197-5.332-0.527-7.782-0.986l-0.459-0.086l0.054-0.463c0.123-1.051,0.284-2.087,0.479-3.085
			l0.076-0.389c-0.21,0.002-1.07,0.012-1.07,0.012l-0.068-0.424c-0.048-0.293-0.071-0.629-0.071-1.025v-0.475
			c0,0,1.873-0.098,2.588-0.133c-0.35-0.049-0.676-0.115-0.98-0.199l-0.334-0.092l-0.032-0.344c-0.114-1.252-0.182-2.762-0.198-4.49
			l-0.005-0.463l0.46-0.041c0.393-0.035,0.757-0.066,1.121-0.066h0.469l0.03,0.467c0.021,0.346,0.036,0.689,0.049,1.033
			c0.04,0,0.08,0,0.121,0c0.689,0,1.301,0.039,1.817,0.119l0.328,0.049l0.081,0.322c0.043,0.168,0.082,0.352,0.082,0.562
			c0,0.189-0.018,0.34-0.038,0.49l-0.058,0.434H48.73l0.009,0.215c1.57,0.082,3.106,0.129,4.581,0.137
			c0.01-0.676,0.041-1.402,0.091-2.166c-1.494-0.068-2.862-0.178-4.072-0.324l-0.44-0.053v-0.443c0-0.346,0.001-0.674,0.036-0.984
			l0.052-0.459l0.461,0.014c1.904,0.061,3.762,0.162,5.679,0.312l0.461,0.035v0.463c0,2.236-0.112,3.936-0.335,5.053l-0.026,0.135
			c0.344-0.01,1.44-0.043,1.44-0.043l0.097,0.391c0.034,0.139,0.08,0.352,0.08,0.594c0,0.281-0.021,0.486-0.039,0.6l-0.063,0.393
			l-0.396,0.027c-1.149,0.08-2.365,0.145-3.704,0.195c0.002,0.057,0.004,0.113,0.005,0.17c0.811,0.051,1.678,0.135,2.635,0.254
			l0.438,0.055v0.441c0,0.32-0.036,0.666-0.107,1.024l-0.079,0.402H55.12c-0.874,0-1.691-0.045-2.438-0.135
			c0.003,0.113,0.005,0.646,0.005,0.646l-0.198,0.098c0.687,0.086,2.605,0.328,2.605,0.328l-0.033,0.514
			c-0.052,0.342-0.119,0.666-0.205,1.008l-0.103,0.406L54.334,85.055z M50.586,82.592l-0.006-0.057
			c-0.089-0.906-0.145-1.753-0.171-2.577c-0.989,0.035-2.049,0.062-3.206,0.08c0.393,0.049,0.785,0.098,1.145,0.164l0.48,0.088
			l-0.076,0.482c-0.076,0.479-0.152,0.997-0.228,1.569C49.198,82.422,49.886,82.506,50.586,82.592z"/>
		<path fill="#FFFFFF" d="M49.432,72.218c2.103,0.066,3.993,0.18,5.655,0.311c0,2.25-0.114,3.895-0.325,4.955
			c-0.62,0.098-2.251,0.131-4.907,0.131c-1.043,0-1.905-0.1-2.623-0.295c-0.115-1.254-0.18-2.738-0.196-4.449
			c0.358-0.031,0.718-0.064,1.076-0.064c0.032,0.506,0.048,1.01,0.065,1.516c0.162,0,0.374-0.016,0.604-0.016
			c0.749,0,1.32,0.049,1.742,0.113c0.033,0.131,0.066,0.277,0.066,0.439c0,0.164-0.016,0.293-0.033,0.424H48.73
			c-0.211,0-0.392,0-0.521-0.016c0.016,0.408,0.031,0.814,0.048,1.205c2.021,0.115,3.864,0.164,5.559,0.164
			c0-0.799,0.031-1.842,0.13-3.146c-1.679-0.064-3.194-0.178-4.548-0.342C49.398,72.821,49.398,72.513,49.432,72.218 M56.277,78.185
			c0.032,0.129,0.065,0.293,0.065,0.473c0,0.244-0.018,0.424-0.033,0.521c-1.402,0.098-2.787,0.162-4.188,0.211
			c0.015,0.391,0.031,0.766,0.031,1.125c1.012,0.049,2.021,0.146,3.064,0.277c0,0.293-0.033,0.602-0.098,0.927
			c-1.043,0-2.038-0.064-2.95-0.21c0,0.308,0.017,0.618,0.017,0.911c-0.131,0.066-0.311,0.1-0.57,0.1c-0.213,0-0.392,0-0.538-0.033
			c-0.098-0.993-0.164-2.005-0.181-3.048c-1.597,0.064-3.211,0.098-4.841,0.115c-0.048-0.295-0.064-0.621-0.064-0.945
			C49.023,78.444,52.463,78.298,56.277,78.185 M47.116,80.532c0.392,0.047,0.783,0.096,1.142,0.162
			c-0.099,0.619-0.196,1.304-0.294,2.085c2.071,0.244,4.271,0.521,6.603,0.814c-0.05,0.326-0.114,0.637-0.196,0.963
			c-2.706-0.197-5.28-0.521-7.727-0.979C46.774,82.453,46.938,81.444,47.116,80.532 M48.542,71.19l-0.07,0.615h-0.36
			c-0.394,0-0.772,0.033-1.138,0.066l-0.92,0.082l-0.019,0.926c0.017,1.742,0.085,3.268,0.2,4.531l0.017,0.182
			c-0.104,0.006-0.209,0.012-0.313,0.016l-0.946,0.051v0.949c0,0.424,0.025,0.785,0.077,1.105l0.139,0.848l0.859-0.008
			c0.008,0,0.018,0,0.026-0.002c-0.18,0.945-0.328,1.921-0.443,2.909l-0.108,0.928l0.918,0.172c2.468,0.461,5.105,0.795,7.838,0.992
			l0.837,0.061l0.205-0.812c0.094-0.371,0.162-0.707,0.215-1.057l0.155-1.014l-0.084-0.012h0.316l0.158-0.805
			c0.078-0.392,0.117-0.769,0.117-1.122v-0.605c0.054-0.004,0.107-0.008,0.161-0.012l0.793-0.055l0.125-0.783
			c0.029-0.186,0.046-0.426,0.046-0.68c0-0.297-0.054-0.549-0.095-0.713l-0.193-0.785l-0.808,0.025
			c-0.141,0.004-0.28,0.008-0.421,0.012c0.173-1.129,0.261-2.695,0.261-4.668v-0.926l-0.922-0.072
			c-1.925-0.15-3.79-0.252-5.703-0.311L48.542,71.19L48.542,71.19z M51.521,75.606l0.026-0.189c0.021-0.152,0.042-0.332,0.042-0.559
			c0-0.188-0.023-0.352-0.055-0.502c0.436,0.033,0.885,0.061,1.348,0.086c-0.023,0.408-0.04,0.805-0.051,1.188
			C52.399,75.626,51.962,75.616,51.521,75.606L51.521,75.606z M49.302,80.493c0.213-0.006,0.422-0.012,0.627-0.018
			c0.023,0.502,0.057,1.016,0.103,1.546c-0.317-0.039-0.632-0.078-0.943-0.115c0.051-0.363,0.103-0.714,0.157-1.056L49.302,80.493
			L49.302,80.493z"/>
	</g>
	<g>
		<path d="M63.938,84.684c-0.049-0.305-0.072-0.645-0.072-1.041v-0.467l0.465-0.031c0.558-0.039,1.135-0.078,1.74-0.109
			c-0.004-0.264-0.004-1.252-0.004-1.252c-1.011-0.027-1.979-0.061-2.826-0.119l-0.281-0.02l-0.129-0.249
			c-0.065-0.127-0.105-0.297-0.105-0.75c0-0.262,0.037-0.488,0.114-0.695l0.121-0.326h0.348c0.931,0,1.862,0.012,2.805,0.035
			c0.016-0.5,0.036-0.949,0.063-1.369c-0.851-0.033-1.676-0.088-2.46-0.162l-0.219-0.021l-0.133-0.176
			c-0.141-0.186-0.167-0.432-0.167-0.822c0-0.18,0.013-0.447,0.12-0.711l0.127-0.311h0.336c2.461,0,5.066,0.104,7.746,0.311
			l0.462,0.035v0.936c0,0.238-0.03,0.473-0.086,0.662l-0.104,0.359h-0.375c-1.103,0-2.113-0.012-3.03-0.033
			c-0.009,0.463-0.017,0.92-0.021,1.363c0.979,0.033,1.945,0.076,2.901,0.133l0.471,0.027v0.928c0,0.314-0.045,0.539-0.083,0.674
			l-0.039,0.136l0.023,0.027c0.385,0.463,0.661,1.125,0.823,1.969l0.069,0.365L72.21,84.15c-0.396,0.209-0.753,0.328-1.09,0.365
			l-0.273,0.029l-0.172-0.215c-0.148-0.186-0.277-0.385-0.386-0.6c0.003,0.039,0.004,0.082,0.004,0.125
			c0,0.26-0.02,0.463-0.038,0.594l-0.059,0.395l-0.398,0.031c-1.567,0.119-3.27,0.191-5.357,0.23l-0.434,0.008L63.938,84.684z
			 M68.338,82.127c0,0.27-0.01,0.539-0.03,0.822c0.468-0.014,0.925-0.027,1.397-0.051l0.278-0.012
			c-0.048-0.203-0.082-0.414-0.102-0.633l-0.033-0.371l0.099-0.039c-0.559,0-1.093-0.004-1.604-0.008
			C68.34,81.934,68.338,82.029,68.338,82.127z M61.709,78.276c-0.285,0-0.644-0.031-0.89-0.275l-0.148-0.146v-0.209
			c0-1.791,0.067-3.18,0.201-4.127l0.055-0.389l0.39-0.039c0.177-0.02,0.372-0.035,0.621-0.035c0.261,0,0.504,0.045,0.725,0.133
			l0.312,0.127v0.338c0,1.223-0.066,2.602-0.197,4.102l-0.027,0.314l-0.295,0.109C62.271,78.249,62.055,78.276,61.709,78.276z
			 M73.267,77.901c-0.141,0-0.331,0-0.575-0.018l-0.379-0.027l-0.075-0.373c-0.083-0.41-0.156-1.006-0.231-1.896
			c-2.74-0.008-5.259-0.084-7.686-0.229l-0.321-0.02l-0.115-0.301c-0.07-0.182-0.1-0.396-0.1-0.717c0-0.178,0.003-0.375,0.043-0.572
			l0.081-0.4c0,0,2.213,0.012,2.464,0.014c-0.02-0.359-0.029-0.742-0.029-1.16v-0.459l0.457-0.039
			c0.227-0.02,0.408-0.035,0.614-0.062c0.034,0,0.065,0,0.097,0c0.258,0,0.43,0.014,0.589,0.031l0.449,0.045
			c0,0,0.012,1.566,0.014,1.689c1.68,0.035,3.346,0.094,4.998,0.154l0.432,0.016l0.048,0.428c0.134,1.195,0.199,2.291,0.199,3.348
			v0.379l-0.363,0.102C73.716,77.88,73.511,77.901,73.267,77.901z"/>
		<path fill="#FFFFFF" d="M67.479,72.138c0.228,0,0.406,0.016,0.569,0.031c0,0.588,0.017,1.158,0.017,1.729
			c1.842,0.033,3.668,0.098,5.478,0.162c0.13,1.158,0.196,2.25,0.196,3.293c-0.115,0.033-0.279,0.049-0.473,0.049
			c-0.132,0-0.311,0-0.539-0.016c-0.099-0.49-0.18-1.256-0.261-2.299c-2.69,0-5.396-0.064-8.116-0.229
			c-0.05-0.129-0.066-0.309-0.066-0.537c0-0.146,0-0.311,0.033-0.473c0.864,0,1.729,0.016,2.592,0.016
			c-0.05-0.553-0.066-1.107-0.066-1.662C67.022,72.187,67.234,72.169,67.479,72.138 M61.938,73.556c0.196,0,0.375,0.031,0.537,0.098
			c0,1.205-0.064,2.559-0.195,4.059c-0.13,0.049-0.309,0.064-0.57,0.064c-0.261,0-0.439-0.033-0.538-0.131
			c0-1.775,0.065-3.129,0.196-4.059C61.529,73.571,61.709,73.556,61.938,73.556 M63.78,76.587c2.59,0,5.166,0.113,7.708,0.309v0.473
			c0,0.229-0.032,0.408-0.065,0.521c-1.303,0-2.477-0.016-3.52-0.049c-0.018,0.816-0.033,1.613-0.033,2.363
			c1.141,0.033,2.265,0.082,3.374,0.146v0.457c0,0.246-0.032,0.424-0.064,0.537c-1.208,0-2.315,0-3.325-0.016
			c0,0.276-0.017,0.536-0.017,0.798c0,0.473-0.033,0.914-0.081,1.338c0.635-0.018,1.287-0.033,1.972-0.066
			c0.031,0.115,0.064,0.262,0.064,0.457c0,0.229-0.017,0.406-0.033,0.521c-1.726,0.131-3.504,0.195-5.328,0.229
			c-0.05-0.311-0.066-0.637-0.066-0.963c0.702-0.049,1.435-0.098,2.218-0.129c-0.017-0.424-0.017-0.85-0.017-1.273v-0.944
			c-1.256-0.031-2.347-0.064-3.292-0.129c-0.033-0.064-0.05-0.246-0.05-0.521c0-0.164,0.017-0.344,0.083-0.521
			c1.091,0,2.182,0.016,3.292,0.049c0.017-0.783,0.048-1.582,0.114-2.363c-1.126-0.033-2.104-0.098-2.95-0.18
			c-0.05-0.066-0.066-0.244-0.066-0.521C63.697,76.929,63.714,76.749,63.78,76.587 M71.261,81.965
			c0.325,0.391,0.57,0.979,0.717,1.742c-0.311,0.164-0.619,0.279-0.912,0.311c-0.392-0.488-0.621-1.092-0.686-1.809
			C70.624,82.111,70.917,82.029,71.261,81.965 M67.479,71.138h-0.065l-0.065,0.008c-0.197,0.027-0.372,0.041-0.523,0.055
			l-0.069,0.006l-0.913,0.078v0.918c0,0.229,0.003,0.445,0.009,0.656c-0.076,0-0.152-0.002-0.228-0.002
			c-0.436-0.004-0.871-0.008-1.307-0.008H63.5l-0.026,0.129l-0.625-0.252c-0.279-0.113-0.586-0.17-0.911-0.17
			c-0.27,0-0.482,0.018-0.672,0.037l-0.779,0.08l-0.109,0.775c-0.139,0.984-0.206,2.357-0.206,4.197v0.418l0.297,0.293
			c0.424,0.42,1.018,0.42,1.241,0.42c0.3,0,0.62-0.016,0.922-0.129l0.505-0.189l0.095,0.125l0.438,0.043
			c0.635,0.061,1.297,0.107,1.979,0.143c-0.006,0.123-0.012,0.25-0.018,0.379c-0.785-0.016-1.552-0.023-2.322-0.023h-0.695
			l-0.242,0.652c-0.098,0.264-0.146,0.547-0.146,0.869c0,0.486,0.044,0.752,0.161,0.978l0.258,0.5l0.562,0.039
			c0.72,0.051,1.521,0.082,2.361,0.107c0,0.098,0,0.195,0,0.293c-0.437,0.025-0.858,0.055-1.271,0.082l-0.931,0.066v0.932
			c0,0.424,0.026,0.789,0.079,1.121l0.138,0.857l0.868-0.016c2.098-0.039,3.809-0.113,5.385-0.232l0.799-0.061l0.035-0.244
			l0.506-0.057c0.4-0.043,0.814-0.182,1.268-0.418l0.656-0.346L72.96,83.52c-0.158-0.826-0.424-1.502-0.79-2.011
			c0.05-0.213,0.074-0.447,0.074-0.701v-0.457v-0.943l-0.941-0.055c-0.794-0.047-1.606-0.084-2.425-0.115
			c0.001-0.123,0.003-0.246,0.006-0.371c0.782,0.016,1.633,0.023,2.539,0.023h0.75l0.155-0.531l0.327,0.025
			c0.259,0.018,0.462,0.018,0.611,0.018c0.295,0,0.539-0.027,0.746-0.086l0.727-0.207v-0.756c0-1.076-0.066-2.189-0.203-3.404
			l-0.096-0.855l-0.861-0.031c-1.395-0.051-2.944-0.107-4.523-0.145c-0.004-0.246-0.007-0.496-0.007-0.748v-0.902l-0.898-0.092
			C67.96,71.155,67.746,71.138,67.479,71.138L67.479,71.138z M68.834,82.434c0.001-0.031,0.001-0.062,0.002-0.094
			c0.181,0,0.365,0.002,0.552,0.002c0.003,0.023,0.005,0.047,0.008,0.07C69.206,82.42,69.019,82.428,68.834,82.434L68.834,82.434z"
			/>
	</g>
	<g>
		<path d="M80.241,84.684c-0.049-0.305-0.072-0.645-0.072-1.041v-0.467l0.465-0.031c0.558-0.039,1.135-0.078,1.74-0.109
			c-0.004-0.264-0.004-1.252-0.004-1.252c-1.011-0.027-1.979-0.061-2.827-0.119l-0.281-0.02l-0.129-0.249
			c-0.064-0.125-0.104-0.295-0.104-0.75c0-0.268,0.036-0.488,0.113-0.695l0.121-0.326h0.348c0.932,0,1.863,0.012,2.806,0.035
			c0.015-0.498,0.035-0.947,0.062-1.369c-0.85-0.033-1.674-0.088-2.459-0.162l-0.216-0.021l-0.133-0.172
			c-0.143-0.186-0.17-0.434-0.17-0.826c0-0.18,0.013-0.449,0.119-0.711l0.127-0.311h0.336c2.46,0,5.066,0.104,7.747,0.311
			l0.462,0.035v0.936c0,0.24-0.03,0.477-0.085,0.662l-0.104,0.359h-0.375c-1.104,0-2.114-0.012-3.031-0.033
			c-0.01,0.475-0.018,0.928-0.021,1.363c0.979,0.033,1.948,0.076,2.902,0.133l0.471,0.027v0.928c0,0.316-0.047,0.543-0.086,0.678
			l-0.038,0.128l0.025,0.031c0.385,0.463,0.662,1.127,0.822,1.971l0.069,0.363l-0.327,0.172c-0.396,0.209-0.753,0.328-1.091,0.365
			l-0.273,0.029l-0.172-0.215c-0.148-0.186-0.276-0.385-0.385-0.6c0.003,0.041,0.004,0.082,0.004,0.125
			c0,0.26-0.02,0.463-0.038,0.594L86.5,84.844l-0.398,0.031c-1.568,0.119-3.271,0.191-5.357,0.23l-0.434,0.008L80.241,84.684z
			 M84.642,82.127c0,0.27-0.01,0.539-0.03,0.822c0.467-0.014,0.924-0.027,1.397-0.051l0.279-0.012
			c-0.048-0.203-0.082-0.414-0.102-0.633l-0.033-0.369l0.1-0.041c-0.559,0-1.095-0.004-1.605-0.008
			C84.644,81.934,84.642,82.029,84.642,82.127z M78.013,78.276c-0.285,0-0.645-0.031-0.891-0.277l-0.146-0.146v-0.207
			c0-1.822,0.065-3.172,0.2-4.127l0.055-0.389l0.39-0.039c0.177-0.02,0.372-0.035,0.621-0.035c0.261,0,0.504,0.045,0.725,0.133
			l0.312,0.127v0.338c0,1.223-0.066,2.602-0.197,4.102l-0.027,0.314l-0.295,0.109C78.575,78.249,78.358,78.276,78.013,78.276z
			 M89.567,77.901c-0.138,0-0.329,0-0.573-0.018l-0.38-0.027l-0.074-0.373c-0.083-0.414-0.155-1.008-0.23-1.896
			c-2.739-0.008-5.258-0.084-7.687-0.229l-0.323-0.02l-0.114-0.305c-0.067-0.18-0.098-0.398-0.098-0.713
			c0-0.176,0.003-0.373,0.042-0.57l0.079-0.402c0,0,2.216,0.012,2.467,0.014c-0.02-0.359-0.029-0.742-0.029-1.16v-0.459l0.456-0.039
			c0.23-0.02,0.411-0.035,0.615-0.062c0.034,0,0.066,0,0.097,0c0.258,0,0.43,0.014,0.59,0.031l0.45,0.045
			c0,0,0.01,1.566,0.011,1.689c1.682,0.035,3.347,0.094,4.999,0.154l0.432,0.016l0.048,0.428c0.134,1.199,0.198,2.295,0.198,3.348
			v0.377l-0.362,0.104C90.021,77.88,89.814,77.901,89.567,77.901z"/>
		<path fill="#FFFFFF" d="M83.783,72.138c0.228,0,0.406,0.016,0.571,0.031c0,0.588,0.014,1.158,0.014,1.729
			c1.844,0.033,3.669,0.098,5.479,0.162c0.129,1.158,0.195,2.25,0.195,3.293c-0.114,0.033-0.278,0.049-0.475,0.049
			c-0.129,0-0.309,0-0.537-0.016c-0.098-0.49-0.179-1.256-0.26-2.299c-2.69,0-5.395-0.064-8.117-0.229
			c-0.049-0.129-0.065-0.309-0.065-0.537c0-0.146,0-0.311,0.032-0.473c0.865,0,1.729,0.016,2.593,0.016
			c-0.05-0.553-0.066-1.107-0.066-1.662C83.325,72.187,83.538,72.169,83.783,72.138 M78.241,73.556c0.195,0,0.375,0.031,0.537,0.098
			c0,1.205-0.064,2.559-0.195,4.059c-0.13,0.049-0.309,0.064-0.57,0.064c-0.261,0-0.439-0.033-0.537-0.131
			c0-1.775,0.064-3.129,0.195-4.059C77.833,73.571,78.013,73.556,78.241,73.556 M80.083,76.587c2.591,0,5.166,0.113,7.709,0.309
			v0.473c0,0.229-0.031,0.408-0.064,0.521c-1.305,0-2.479-0.016-3.521-0.049c-0.017,0.816-0.033,1.613-0.033,2.363
			c1.141,0.033,2.268,0.082,3.375,0.146v0.457c0,0.246-0.033,0.424-0.066,0.537c-1.205,0-2.313,0-3.323-0.016
			c0,0.276-0.017,0.536-0.017,0.798c0,0.473-0.033,0.914-0.081,1.338c0.635-0.018,1.286-0.033,1.972-0.066
			c0.031,0.115,0.064,0.262,0.064,0.457c0,0.229-0.017,0.406-0.033,0.521c-1.727,0.131-3.504,0.195-5.328,0.229
			c-0.05-0.311-0.066-0.637-0.066-0.963c0.701-0.049,1.435-0.098,2.217-0.129c-0.016-0.424-0.016-0.85-0.016-1.273v-0.944
			c-1.256-0.031-2.348-0.064-3.293-0.129c-0.033-0.064-0.049-0.246-0.049-0.521c0-0.164,0.016-0.344,0.082-0.521
			c1.092,0,2.184,0.016,3.293,0.049c0.016-0.783,0.047-1.582,0.113-2.363c-1.125-0.033-2.102-0.098-2.949-0.18
			c-0.051-0.066-0.066-0.244-0.066-0.521C80.001,76.929,80.017,76.749,80.083,76.587 M87.564,81.965
			c0.325,0.391,0.57,0.979,0.716,1.742c-0.31,0.164-0.618,0.279-0.912,0.311c-0.391-0.488-0.619-1.092-0.684-1.809
			C86.928,82.111,87.222,82.029,87.564,81.965 M83.783,71.138h-0.065l-0.064,0.008c-0.196,0.025-0.37,0.041-0.52,0.055l-0.074,0.006
			l-0.913,0.08v0.916c0,0.229,0.003,0.445,0.009,0.656c-0.076,0-0.152-0.002-0.229-0.002c-0.436-0.004-0.871-0.008-1.307-0.008
			h-0.822l-0.025,0.127l-0.62-0.25c-0.28-0.113-0.587-0.17-0.911-0.17c-0.27,0-0.482,0.018-0.672,0.037l-0.779,0.08l-0.109,0.775
			c-0.138,0.979-0.205,2.352-0.205,4.197v0.414l0.293,0.293c0.424,0.424,1.02,0.424,1.244,0.424c0.301,0,0.619-0.016,0.922-0.129
			l0.508-0.191l0.098,0.129l0.432,0.041c0.637,0.061,1.299,0.107,1.979,0.143c-0.006,0.123-0.012,0.25-0.018,0.379
			c-0.784-0.016-1.551-0.023-2.322-0.023h-0.695l-0.242,0.652c-0.098,0.262-0.145,0.545-0.145,0.869c0,0.494,0.042,0.75,0.16,0.978
			l0.258,0.5l0.562,0.039c0.719,0.051,1.521,0.082,2.362,0.107c0,0.098,0,0.195,0,0.293c-0.437,0.025-0.859,0.055-1.271,0.082
			l-0.931,0.066v0.932c0,0.424,0.025,0.789,0.079,1.121l0.138,0.857l0.868-0.016c2.096-0.039,3.808-0.113,5.386-0.232l0.798-0.061
			l0.036-0.246l0.504-0.055c0.401-0.043,0.816-0.182,1.269-0.42l0.655-0.344l-0.139-0.727c-0.157-0.828-0.423-1.504-0.79-2.015
			c0.05-0.213,0.075-0.447,0.075-0.699v-0.457v-0.941l-0.941-0.057c-0.791-0.047-1.604-0.084-2.426-0.115
			c0.002-0.123,0.004-0.246,0.006-0.371c0.783,0.016,1.634,0.023,2.541,0.023h0.75l0.154-0.531l0.326,0.025
			c0.26,0.018,0.463,0.018,0.609,0.018c0.298,0,0.543-0.027,0.75-0.088l0.725-0.207v-0.754c0-1.072-0.066-2.186-0.201-3.402
			l-0.096-0.857l-0.862-0.031c-1.395-0.051-2.944-0.107-4.522-0.145c-0.003-0.246-0.006-0.496-0.006-0.748v-0.904l-0.9-0.09
			C84.275,71.157,84.062,71.138,83.783,71.138L83.783,71.138z M85.138,82.434c0.001-0.031,0.002-0.062,0.002-0.094
			c0.182,0,0.366,0.002,0.553,0.002c0.003,0.023,0.005,0.047,0.008,0.07C85.511,82.42,85.323,82.428,85.138,82.434L85.138,82.434z"
			/>
	</g>
</g>
<g>
	<polygon fill="#F39800" points="74.508,43.839 72.119,44.521 73.029,42.21 71.642,40.148 74.122,40.301 75.654,38.344 
		76.275,40.75 78.609,41.603 76.514,42.937 76.425,45.42 	"/>
	<path fill="#FFFFFF" d="M75.539,38.897l0.527,2.042l1.981,0.724l-1.779,1.134l-0.075,2.108l-1.628-1.343l-2.028,0.579l0.773-1.962
		l-1.179-1.751l2.106,0.13L75.539,38.897 M75.771,37.791l-0.625,0.798l-1.139,1.455l-1.844-0.114l-1.012-0.062l0.565,0.841
		l1.032,1.532l-0.677,1.718L71.7,44.901l0.975-0.278l1.775-0.508l1.425,1.176l0.782,0.645l0.036-1.013l0.065-1.846l1.558-0.992
		l0.854-0.544l-0.951-0.348l-1.734-0.633l-0.462-1.788L75.771,37.791L75.771,37.791z"/>
</g>
<g>
	<polygon fill="#EA5514" points="31.25,52.855 28.274,51.094 31.484,49.805 32.242,46.431 34.459,49.083 37.9,48.762 36.063,51.691 
		37.436,54.863 34.08,54.021 31.485,56.305 	"/>
	<path fill="#FFFFFF" d="M32.375,46.979l1.977,2.364l3.068-0.286l-1.638,2.612l1.223,2.828l-2.991-0.752L31.7,55.783l-0.21-3.074
		l-2.652-1.572l2.861-1.148L32.375,46.979 M32.109,45.882l-0.223,0.988l-0.617,2.752l-2.618,1.051l-0.94,0.378l0.872,0.516
		l2.427,1.438l0.191,2.812l0.069,1.012l0.76-0.67l2.116-1.863l2.736,0.688l0.983,0.248l-0.402-0.93l-1.118-2.588l1.498-2.39
		l0.537-0.857l-1.008,0.094l-2.807,0.262l-1.808-2.163L32.109,45.882L32.109,45.882z"/>
</g>
</svg>
