<?xml version="1.0" encoding="utf-8"?>
<!-- Generator: Adobe Illustrator 16.0.0, SVG Export Plug-In . SVG Version: 6.00 Build 0)  -->
<!DOCTYPE svg PUBLIC "-//W3C//DTD SVG 1.1//EN" "http://www.w3.org/Graphics/SVG/1.1/DTD/svg11.dtd">
<svg version="1.1" id="Layer_1" xmlns="http://www.w3.org/2000/svg" xmlns:xlink="http://www.w3.org/1999/xlink" x="0px" y="0px"
	 width="120px" height="120px" viewBox="0 0 120 120" enable-background="new 0 0 120 120" xml:space="preserve">
<polygon fill="#828282" points="36.707,60.665 38.718,60.665 38.718,63.444 36.707,63.444 36.707,66.221 26.656,66.221 
	26.656,69.002 36.707,69.002 36.707,71.782 38.718,71.782 38.718,85.678 36.707,85.678 36.707,88.458 34.698,88.458 34.698,91.237 
	16.605,91.237 16.605,88.458 14.596,88.458 14.596,80.12 16.605,80.12 16.605,77.34 30.678,77.34 30.678,74.561 16.605,74.561 
	16.605,71.782 14.596,71.782 14.596,63.444 16.605,63.444 16.605,66.221 18.616,66.221 18.616,63.444 20.626,63.444 20.626,60.665 
	18.616,60.665 18.616,57.883 36.707,57.883 "/>
<polygon fill="#828282" points="55.494,78.499 56.652,78.499 56.652,90.079 55.494,90.079 55.494,91.237 53.179,91.237 
	53.179,90.079 52.021,90.079 52.021,88.922 50.862,88.922 50.862,87.762 49.705,87.762 49.705,88.922 48.547,88.922 48.547,90.079 
	47.389,90.079 47.389,91.237 42.758,91.237 42.758,90.079 41.599,90.079 41.599,78.499 42.758,78.499 42.758,80.815 43.915,80.815 
	43.915,79.659 45.072,79.659 45.072,78.499 42.758,78.499 42.758,77.34 47.389,77.34 47.389,78.499 48.547,78.499 48.547,84.29 
	49.705,84.29 49.705,83.131 50.862,83.131 50.862,84.29 52.021,84.29 52.021,78.499 53.179,78.499 53.179,77.34 55.494,77.34 "/>
<polygon fill="#828282" points="71.705,78.499 72.863,78.499 72.863,79.659 71.705,79.659 71.705,80.815 65.915,80.815 
	65.915,81.973 71.705,81.973 71.705,83.131 72.863,83.131 72.863,84.29 71.705,84.29 71.705,85.448 65.915,85.448 65.915,86.606 
	71.705,86.606 71.705,87.762 72.863,87.762 72.863,90.079 71.705,90.079 71.705,91.237 60.125,91.237 60.125,90.079 58.968,90.079 
	58.968,78.499 60.125,78.499 60.125,80.815 61.283,80.815 61.283,79.659 62.441,79.659 62.441,78.499 60.125,78.499 60.125,77.34 
	71.705,77.34 "/>
<polygon fill="#828282" points="87.916,78.499 89.074,78.499 89.074,79.659 87.916,79.659 87.916,80.815 82.126,80.815 
	82.126,81.973 87.916,81.973 87.916,83.131 89.074,83.131 89.074,84.29 87.916,84.29 87.916,85.448 82.126,85.448 82.126,86.606 
	87.916,86.606 87.916,87.762 89.074,87.762 89.074,90.079 87.916,90.079 87.916,91.237 76.336,91.237 76.336,90.079 75.179,90.079 
	75.179,78.499 76.336,78.499 76.336,80.815 77.494,80.815 77.494,79.659 78.652,79.659 78.652,78.499 76.336,78.499 76.336,77.34 
	87.916,77.34 "/>
<path fill="#828282" d="M92.547,80.815h-1.158v-2.316h1.158V80.815z M104.125,78.499h1.159v2.316h-1.159v1.158h-2.314v8.105h-1.158
	v1.158h-4.631v-1.158h-1.158v-8.105h-2.316v-1.158h1.158v-1.156h1.158v-1.16h-2.316V77.34h11.578V78.499z"/>
<path fill="#828282" d="M76.721,74.418c-0.467,0.078-0.947,0.145-1.424,0.197c-2.67,0.295-5.02-0.018-7.291-0.324
	c-1.2-0.16-2.333-0.311-3.432-0.354c-1.773-0.059-3.398-1.154-4.132-2.801c-0.413-0.93-0.777-1.842-1.13-2.725
	c-0.983-2.467-1.831-4.59-3.2-6.129c-0.313-0.123-0.62-0.271-0.915-0.443c-5.424-3.152-7.327-9.982-4.336-15.551
	c2.08-3.869,5.496-7.473,9.66-10.203c0.014-1.869,0.775-3.727,2.094-5.104c-0.158-0.322-0.323-0.58-0.498-0.785
	c-0.227-0.264-0.402-0.441-0.529-0.557c-0.385,0.043-0.9,0.092-1.484,0.064c-2.391-0.105-4.299-1.982-4.443-4.367
	c-0.146-2.4,1.521-4.508,3.879-4.902c0.72-0.121,1.467-0.068,2.167,0.15c0.062,0.002,0.17,0.006,0.265,0.012
	c0.771,0.033,1.983,0.088,3.314,0.666c2.031,0.883,3.433,2.564,3.94,3.244c0.698,0.938,1.315,1.99,1.839,3.143
	c0.756,0.076,1.51,0.27,2.212,0.57c1.493,0.639,2.733,1.637,3.62,2.908c0.213-0.027,0.428-0.039,0.643-0.035
	c5.215,0.074,12.746,3.49,16.326,9.078c2.315,3.613,2.686,7.648,1.042,11.359c-0.64,1.443-1.638,2.625-2.97,3.512
	c-0.275,0.775-0.46,1.906-0.611,2.836c-0.043,0.262-0.085,0.518-0.129,0.764c-0.083,0.49-0.174,0.98-0.264,1.473l-0.036,0.197
	c-0.234,1.277-0.456,2.486-0.601,3.67l-0.028,0.238c-0.276,2.311-0.694,5.807-5.353,7.645l-0.264,0.102
	C82.109,72.971,79.708,73.918,76.721,74.418"/>
<path fill="#FFFFFF" d="M76.982,73.174c-0.47,0.078-0.949,0.146-1.427,0.197c-2.668,0.297-5.019-0.018-7.29-0.324
	c-1.201-0.158-2.335-0.311-3.432-0.354c-1.773-0.059-3.4-1.154-4.133-2.799c-0.412-0.932-0.776-1.844-1.129-2.727
	c-0.985-2.467-1.833-4.592-3.201-6.127c-0.312-0.123-0.619-0.273-0.914-0.445c-5.424-3.152-7.328-9.982-4.336-15.551
	c2.079-3.869,5.496-7.475,9.659-10.203c0.014-1.869,0.775-3.725,2.093-5.104c-0.156-0.322-0.321-0.58-0.496-0.785
	c-0.228-0.264-0.404-0.441-0.531-0.557c-0.385,0.045-0.899,0.09-1.484,0.064c-2.389-0.105-4.297-1.982-4.441-4.367
	c-0.146-2.4,1.521-4.508,3.877-4.904c0.721-0.119,1.467-0.066,2.167,0.152c0.062,0.002,0.17,0.008,0.267,0.01
	c0.769,0.035,1.981,0.09,3.314,0.668c2.032,0.883,3.432,2.562,3.938,3.244c0.698,0.936,1.315,1.992,1.84,3.143
	c0.757,0.074,1.51,0.27,2.212,0.568c1.494,0.641,2.732,1.639,3.619,2.908c0.213-0.023,0.43-0.037,0.643-0.033
	c5.215,0.074,12.747,3.49,16.327,9.078c2.315,3.615,2.685,7.65,1.042,11.359c-0.641,1.443-1.637,2.623-2.969,3.512
	c-0.275,0.775-0.461,1.906-0.611,2.836c-0.044,0.262-0.086,0.518-0.129,0.764c-0.084,0.49-0.176,0.982-0.265,1.473l-0.035,0.197
	c-0.236,1.277-0.458,2.486-0.601,3.67l-0.029,0.238c-0.276,2.311-0.694,5.807-5.353,7.643l-0.265,0.104
	C82.369,71.727,79.967,72.672,76.982,73.174"/>
<path fill="#737F90" d="M85.652,69.336l-0.125-0.25c0.34-0.17,0.658-0.359,0.947-0.559l0.158,0.23
	C86.333,68.965,86.004,69.161,85.652,69.336 M84.615,69.788l-0.062,0.025c-0.336,0.133-0.659,0.26-0.981,0.385l-0.101-0.262
	c0.322-0.125,0.643-0.252,0.968-0.379l0.073-0.029L84.615,69.788z M82.524,70.598c-0.351,0.131-0.702,0.26-1.055,0.383l-0.093-0.264
	c0.352-0.123,0.701-0.25,1.049-0.381L82.524,70.598z M87.514,68.036l-0.195-0.199c0.263-0.258,0.498-0.539,0.703-0.836l0.229,0.16
	C88.037,67.471,87.79,67.766,87.514,68.036 M80.403,71.334c-0.355,0.113-0.714,0.221-1.079,0.318l-0.074-0.27
	c0.361-0.1,0.719-0.203,1.068-0.314L80.403,71.334z M78.232,71.926c-0.367,0.086-0.738,0.162-1.104,0.227l-0.05-0.273
	c0.361-0.066,0.728-0.141,1.091-0.225L78.232,71.926z M76.818,72.208c-0.36,0.061-0.735,0.115-1.115,0.16L75.67,72.09
	c0.376-0.045,0.746-0.1,1.102-0.158L76.818,72.208z M88.807,66.159l-0.256-0.111c0.142-0.322,0.258-0.662,0.357-1.037l0.271,0.072
	C89.076,65.471,88.953,65.823,88.807,66.159 M74.58,72.473c-0.367,0.023-0.747,0.035-1.126,0.037l-0.001-0.279
	c0.375-0.002,0.747-0.014,1.11-0.037L74.58,72.473z M72.328,72.485c-0.38-0.018-0.754-0.045-1.125-0.076l0.024-0.279
	c0.366,0.033,0.737,0.059,1.112,0.076L72.328,72.485z M89.407,63.971l-0.276-0.045c0.059-0.373,0.104-0.742,0.146-1.098l0.279,0.021
	l-0.001,0.004C89.512,63.219,89.467,63.592,89.407,63.971 M70.086,72.293c-0.375-0.043-0.746-0.09-1.113-0.139l0.036-0.277
	c0.367,0.047,0.737,0.096,1.108,0.137L70.086,72.293z M89.701,61.75l-0.277-0.041c0.055-0.367,0.114-0.736,0.178-1.109l0.277,0.047
	C89.814,61.018,89.755,61.385,89.701,61.75 M67.862,72.006c-0.376-0.049-0.744-0.096-1.109-0.139l0.032-0.279
	c0.367,0.043,0.737,0.092,1.113,0.141L67.862,72.006z M65.643,71.76c-0.258-0.021-0.514-0.037-0.771-0.047
	c-0.118-0.004-0.236-0.014-0.353-0.029l0.036-0.275c0.108,0.012,0.217,0.021,0.325,0.025c0.262,0.01,0.522,0.025,0.784,0.047
	L65.643,71.76z M90.073,59.545l-0.274-0.051l0.201-1.1l0.275,0.049L90.073,59.545z M63.408,71.354
	c-0.35-0.168-0.67-0.389-0.954-0.656l0.19-0.203c0.264,0.246,0.562,0.451,0.885,0.605L63.408,71.354z M90.473,57.338l-0.275-0.045
	l0.019-0.109c0.04-0.242,0.083-0.494,0.126-0.752l0.039-0.242l0.276,0.045l-0.039,0.242c-0.042,0.26-0.084,0.512-0.127,0.756
	L90.473,57.338z M61.74,69.786c-0.039-0.072-0.076-0.145-0.111-0.219l-0.034-0.07c-0.109-0.25-0.217-0.498-0.319-0.744l0.257-0.109
	c0.104,0.246,0.21,0.492,0.319,0.738l0.029,0.066c0.033,0.068,0.067,0.137,0.104,0.201L61.74,69.786z M90.852,55.135l-0.275-0.053
	c0.082-0.426,0.164-0.787,0.249-1.102l0.271,0.072C91.012,54.362,90.932,54.717,90.852,55.135 M61.106,67.608l-0.261,0.105
	c-0.118-0.293-0.234-0.586-0.352-0.875l-0.064-0.164l0.259-0.105l0.067,0.166C60.87,67.024,60.986,67.315,61.106,67.608
	 M91.446,53.116L91.3,52.879c0.314-0.197,0.613-0.414,0.886-0.646l0.182,0.213C92.084,52.686,91.773,52.913,91.446,53.116
	 M93.174,51.639l-0.213-0.182c0.236-0.275,0.451-0.574,0.641-0.889l0.239,0.145C93.645,51.04,93.422,51.352,93.174,51.639
	 M94.354,49.696l-0.258-0.107c0.143-0.342,0.27-0.693,0.377-1.041l0.267,0.082C94.631,48.987,94.502,49.346,94.354,49.696
	 M60.271,65.53l-0.26,0.105c-0.144-0.35-0.285-0.693-0.432-1.029l0.258-0.111C59.984,64.833,60.127,65.178,60.271,65.53
	 M95.011,47.53l-0.275-0.053c0.068-0.359,0.119-0.727,0.146-1.096l0.278,0.023C95.131,46.782,95.081,47.161,95.011,47.53
	 M59.123,63.588c-0.172-0.359-0.336-0.684-0.504-0.992l0.246-0.133c0.169,0.312,0.337,0.641,0.51,1.006L59.123,63.588z
	 M95.188,45.27l-0.28,0.01c-0.012-0.365-0.044-0.734-0.096-1.1l0.277-0.039C95.143,44.516,95.175,44.895,95.188,45.27
	 M58.054,61.643c-0.206-0.316-0.425-0.619-0.647-0.895l0.219-0.178c0.229,0.285,0.451,0.594,0.663,0.92L58.054,61.643z
	 M94.869,43.028l-0.271,0.068c-0.089-0.352-0.197-0.707-0.323-1.057l0.262-0.096C94.666,42.303,94.777,42.667,94.869,43.028
	 M56.625,60.086c-0.229-0.096-0.457-0.209-0.678-0.336c-0.11-0.064-0.22-0.131-0.329-0.199l0.15-0.236
	c0.104,0.064,0.212,0.131,0.32,0.193c0.21,0.121,0.427,0.229,0.646,0.32L56.625,60.086z M93.848,41.02
	c-0.154-0.328-0.331-0.658-0.519-0.979l0.241-0.143c0.193,0.33,0.371,0.666,0.531,1L93.848,41.02z M54.692,58.897
	c-0.296-0.234-0.582-0.486-0.853-0.75l0.198-0.201c0.261,0.258,0.539,0.504,0.828,0.73L54.692,58.897z M92.729,39.11
	c-0.208-0.297-0.434-0.594-0.672-0.883l0.217-0.178c0.242,0.295,0.473,0.598,0.684,0.9L92.729,39.11z M53.075,57.309
	c-0.239-0.291-0.465-0.6-0.671-0.914l0.233-0.152c0.201,0.307,0.421,0.605,0.653,0.889L53.075,57.309z M91.323,37.393
	c-0.249-0.266-0.515-0.527-0.787-0.783l0.19-0.205c0.279,0.26,0.548,0.527,0.801,0.797L91.323,37.393z M51.836,55.413
	c-0.046-0.09-0.091-0.182-0.134-0.271c-0.117-0.248-0.226-0.506-0.324-0.766l0.261-0.1c0.098,0.254,0.203,0.504,0.316,0.744
	c0.043,0.09,0.087,0.178,0.131,0.266L51.836,55.413z M89.7,35.875c-0.282-0.234-0.577-0.465-0.876-0.686l0.167-0.225
	c0.303,0.223,0.602,0.457,0.888,0.695L89.7,35.875z M51.305,53.225l-0.272,0.07c-0.095-0.365-0.171-0.74-0.227-1.111l0.276-0.041
	C51.137,52.504,51.211,52.868,51.305,53.225 M87.911,34.555c-0.308-0.205-0.626-0.402-0.943-0.59l0.142-0.24
	c0.322,0.188,0.643,0.389,0.957,0.596L87.911,34.555z M50.979,51.043l-0.281,0.012c-0.014-0.377-0.01-0.758,0.015-1.135l0.278,0.02
	C50.967,50.305,50.962,50.678,50.979,51.043 M85.996,33.424c-0.33-0.172-0.666-0.338-1-0.49l0.117-0.254
	c0.339,0.154,0.68,0.322,1.012,0.496L85.996,33.424z M51.121,48.842l-0.275-0.047c0.064-0.371,0.148-0.742,0.253-1.105l0.269,0.076
	C51.267,48.12,51.185,48.483,51.121,48.842 M83.975,32.491c-0.344-0.139-0.694-0.271-1.043-0.391l0.092-0.266
	c0.353,0.123,0.707,0.256,1.057,0.396L83.975,32.491z M51.726,46.721l-0.261-0.104c0.141-0.35,0.302-0.695,0.477-1.029l0.248,0.131
	C52.019,46.045,51.861,46.381,51.726,46.721 M81.871,31.764c-0.358-0.102-0.721-0.195-1.077-0.273l0.062-0.275
	c0.363,0.082,0.73,0.176,1.093,0.281L81.871,31.764z M52.737,44.75l-0.24-0.143c0.19-0.318,0.395-0.639,0.603-0.951l0.233,0.154
	C53.126,44.12,52.926,44.436,52.737,44.75 M79.703,31.28c-0.374-0.059-0.744-0.102-1.102-0.131l0.022-0.279
	c0.364,0.029,0.741,0.074,1.122,0.135L79.703,31.28z M53.973,42.901l-0.227-0.166c0.221-0.301,0.451-0.6,0.686-0.891l0.219,0.174
	C54.418,42.305,54.19,42.602,53.973,42.901 M77.504,31.116c-0.121,0.008-0.24,0.023-0.357,0.041
	c-0.032,0.006-0.064,0.012-0.098,0.02c-0.188-0.004-0.342-0.008-0.496-0.01l-0.078-0.002l-0.04-0.068
	c-0.029-0.051-0.059-0.1-0.088-0.148l0.237-0.148c0.018,0.029,0.035,0.059,0.053,0.088c0.131,0.002,0.26,0.008,0.391,0.012
	c0-0.004,0.037-0.012,0.072-0.018c0.128-0.021,0.256-0.035,0.385-0.043L77.504,31.116z M55.367,41.167l-0.211-0.184
	c0.246-0.281,0.498-0.559,0.758-0.832l0.203,0.193C55.86,40.616,55.61,40.889,55.367,41.167 M56.9,39.551l-0.194-0.199
	c0.268-0.26,0.54-0.518,0.819-0.77l0.188,0.209C57.436,39.042,57.164,39.295,56.9,39.551 M75.699,30.063
	c-0.238-0.275-0.5-0.535-0.779-0.773l0.18-0.213c0.29,0.246,0.564,0.516,0.811,0.803L75.699,30.063z M58.554,38.061l-0.179-0.215
	c0.287-0.24,0.578-0.477,0.875-0.707l0.172,0.221C59.127,37.588,58.838,37.823,58.554,38.061 M60.313,36.692l-0.164-0.227
	c0.304-0.219,0.611-0.434,0.924-0.643l0.155,0.232C60.92,36.264,60.613,36.475,60.313,36.692 M62.051,35.233l-0.279,0.018
	c-0.022-0.379-0.01-0.762,0.038-1.145l0.278,0.035C62.041,34.506,62.029,34.874,62.051,35.233 M74.03,28.647
	c-0.31-0.189-0.638-0.359-0.976-0.506l0.11-0.258c0.351,0.15,0.691,0.328,1.013,0.525L74.03,28.647z M62.324,33.075l-0.268-0.084
	c0.114-0.361,0.262-0.717,0.438-1.057l0.248,0.129C62.573,32.389,62.433,32.727,62.324,33.075 M72.016,27.797
	c-0.356-0.086-0.72-0.137-1.082-0.158l0.016-0.279c0.379,0.021,0.76,0.078,1.131,0.166L72.016,27.797z M63.33,31.141l-0.224-0.17
	c0.231-0.305,0.491-0.588,0.771-0.844l0.189,0.205C63.8,30.579,63.551,30.85,63.33,31.141 M70.4,26.745l-0.255,0.117l-0.083-0.18
	c-0.131-0.279-0.271-0.553-0.412-0.814l0.246-0.135c0.145,0.268,0.285,0.547,0.419,0.83L70.4,26.745z M63.771,29.344
	c-0.178-0.367-0.363-0.67-0.567-0.928l0.219-0.174c0.218,0.273,0.415,0.594,0.601,0.98L63.771,29.344z M69.089,24.911
	c-0.194-0.307-0.401-0.607-0.614-0.893l0.209-0.188c0.232,0.311,0.443,0.617,0.642,0.93L69.089,24.911z M62.452,27.624
	c-0.146-0.127-0.25-0.203-0.321-0.248c-0.043,0.006-0.088,0.012-0.131,0.016l-0.062,0.008c-0.125,0.016-0.257,0.031-0.398,0.045
	l-0.028-0.277c0.141-0.014,0.269-0.031,0.386-0.045l0.068-0.008c0.062-0.008,0.123-0.016,0.186-0.021l0.043-0.004l0.041,0.021
	c0.078,0.047,0.212,0.135,0.402,0.303L62.452,27.624z M60.4,27.483c-0.392-0.018-0.773-0.096-1.136-0.234l0.099-0.26
	c0.336,0.125,0.688,0.197,1.05,0.215L60.4,27.483z M67.747,23.153c-0.257-0.271-0.524-0.529-0.799-0.764l0.183-0.211
	c0.28,0.24,0.557,0.502,0.82,0.783L67.747,23.153z M58.259,26.674c-0.303-0.242-0.564-0.533-0.776-0.859l0.233-0.152
	c0.196,0.301,0.438,0.568,0.718,0.795L58.259,26.674z M66.066,21.731c-0.316-0.207-0.639-0.383-0.962-0.527l0.114-0.256
	c0.335,0.15,0.673,0.334,1.001,0.547L66.066,21.731z M57.282,24.684l-0.27,0.07c-0.062-0.234-0.101-0.477-0.114-0.721
	c-0.01-0.143-0.011-0.289-0.003-0.432l0.28,0.016c-0.008,0.133-0.007,0.268,0,0.4C57.19,24.243,57.227,24.465,57.282,24.684
	 M64.07,20.846c-0.34-0.086-0.695-0.145-1.082-0.184l0.026-0.277c0.401,0.039,0.77,0.102,1.124,0.189L64.07,20.846z M61.876,20.598
	c-0.077-0.004-0.137-0.01-0.159-0.014c-0.318-0.109-0.627-0.17-0.94-0.191l0.019-0.277c0.338,0.02,0.671,0.088,0.991,0.199
	c-0.005-0.004,0.039,0,0.104,0.004L61.876,20.598z M57.398,22.569l-0.262-0.102c0.141-0.363,0.336-0.701,0.58-1.004l0.218,0.178
	C57.708,21.92,57.527,22.233,57.398,22.569 M59.711,20.497c-0.348,0.09-0.681,0.234-0.98,0.43l-0.151-0.236
	c0.325-0.211,0.687-0.367,1.062-0.465L59.711,20.497z"/>
<g>
	<defs>
		<path id="SVGID_1104_" d="M53.375,47.667c-1.174,2.611-0.518,6.529,1.666,8.316c0.758,0.721,1.439,1.1,2.09,1.254
			c1.811,0.414,3.371-0.971,5.612-1.738c4.219-2.057,3.438-0.309,7.878,0.559c3.829,0.432,4.523-1.832,7.438-3.668
			c3.053-2.117,8.758-0.93,12.203-2.338c1.178-0.473,2.088-1.25,2.553-2.551c2.778-7.443-8.541-14.137-14.51-14.477
			c-0.32-0.02-0.642-0.029-0.969-0.027C68.471,32.997,56.966,39.678,53.375,47.667"/>
	</defs>
	<clipPath id="SVGID_2_">
		<use xlink:href="#SVGID_1104_"  overflow="visible"/>
	</clipPath>
	
		<linearGradient id="SVGID_4_" gradientUnits="userSpaceOnUse" x1="-2846.0317" y1="500.3198" x2="-2845.6421" y2="500.3198" gradientTransform="matrix(9.4103 56.1702 56.1702 -9.4103 -1249.0566 164604)">
		<stop  offset="0" style="stop-color:#FAE3DB"/>
		<stop  offset="1" style="stop-color:#F3BDAC"/>
	</linearGradient>
	<polygon clip-path="url(#SVGID_2_)" fill="url(#SVGID_4_)" points="94.408,25.924 99.609,56.979 53.387,64.723 48.184,33.668 	"/>
</g>
<g>
	<defs>
		<path id="SVGID_1107_" d="M78.059,52.389c-2.914,1.836-3.608,4.1-7.438,3.668c-4.44-0.867-3.659-2.615-7.878-0.559
			c-2.241,0.768-3.802,2.152-5.612,1.738l0.001,0.004c4.077,2.92,5.197,8.113,7.226,12.436c1.436-0.012,2.843,0.215,4.258,0.439
			c1.859,0.297,3.732,0.594,5.707,0.352c2.609-0.318,5.651-0.498,7.955-1.869c1.424-0.857,4.581-1.273,4.648-3.377
			c0.046-1.615,0.391-3.135,0.655-4.758c0.295-1.816,0.571-3.631,0.965-5.424c0.302-1.369,0.748-3.885,1.759-4.877l-0.043-0.111
			C86.816,51.459,81.111,50.272,78.059,52.389"/>
	</defs>
	<clipPath id="SVGID_6_">
		<use xlink:href="#SVGID_1107_"  overflow="visible"/>
	</clipPath>
	
		<radialGradient id="SVGID_8_" cx="-2779.8682" cy="448.7974" r="0.3894" gradientTransform="matrix(34.3286 -5.7511 -5.7511 -34.3286 98085.0781 -519.2954)" gradientUnits="userSpaceOnUse">
		<stop  offset="0" style="stop-color:#DDA67B"/>
		<stop  offset="0.0061" style="stop-color:#DDA67B"/>
		<stop  offset="0.2189" style="stop-color:#D99F76"/>
		<stop  offset="0.5353" style="stop-color:#D08D67"/>
		<stop  offset="0.9146" style="stop-color:#C27151"/>
		<stop  offset="1" style="stop-color:#BF6A4D"/>
	</radialGradient>
	<polygon clip-path="url(#SVGID_6_)" fill="url(#SVGID_8_)" points="53.764,50.616 89.4,44.645 93.672,70.145 58.036,76.116 	"/>
</g>
<path fill="#96683D" d="M59.514,56.479c3.28,3.723,4.357,8.508,5.837,13.113c0.079,0.24,0.468,0.17,0.394-0.076
	c-1.412-4.574-2.588-9.676-6.082-13.168C59.573,56.26,59.429,56.383,59.514,56.479"/>
<path fill="#96683D" d="M62.121,55.383c1.264,2.201,2.256,4.473,3.117,6.859c0.257,0.713,1.354,7.088,1.934,7.139
	c-0.186-0.018-0.236,0.211-0.111,0.316c0.023,0.018,0.046,0.037,0.07,0.057c0.137,0.115,0.346-0.043,0.311-0.205
	c-1.082-4.922-2.108-10.113-5.206-14.242C62.188,55.243,62.082,55.315,62.121,55.383"/>
<path fill="#96683D" d="M69.348,69.92c0.397-5.301-1.791-10.523-3.404-15.473c-0.107-0.328-0.559-0.176-0.446,0.152
	c1.745,5.119,3.357,9.898,3.711,15.328C69.215,70.008,69.341,69.997,69.348,69.92"/>
<path fill="#96683D" d="M84.135,67.602c-0.447-5.727,0.811-11.162,2.113-16.705c0.077-0.326-0.387-0.422-0.447-0.094
	c-1.033,5.543-2.855,11.158-1.91,16.846C83.916,67.811,84.148,67.758,84.135,67.602"/>
<path fill="#96683D" d="M81.265,68.676c-1.007-2.746-0.834-5.643-0.747-8.52c0.085-2.807-0.176-6.195,0.511-8.922
	c0.071-0.287-0.365-0.441-0.435-0.154c-0.67,2.791-0.438,6.174-0.489,9.045c-0.049,2.727-0.547,6.207,0.948,8.656
	C81.133,68.913,81.316,68.821,81.265,68.676"/>
<path fill="#96683D" d="M78.475,69.352c-0.341-5.418-0.883-10.828-1.397-16.23c-0.026-0.297-0.484-0.207-0.453,0.086
	c0.563,5.396,0.96,10.812,1.53,16.207C78.178,69.627,78.488,69.557,78.475,69.352"/>
<path fill="#96683D" d="M75.367,70.053c-0.725-4.842-1.38-9.68-1.75-14.564c-0.021-0.283-0.457-0.195-0.434,0.084
	c0.393,4.873,1.008,9.729,1.871,14.541C75.092,70.315,75.397,70.256,75.367,70.053"/>
<path fill="#96683D" d="M72.539,70.258c-0.612-4.902-0.714-9.922-2.193-14.668c-0.092-0.295-0.572-0.205-0.479,0.092
	c1.52,4.77,1.465,9.754,2.356,14.637C72.261,70.524,72.566,70.461,72.539,70.258"/>
<path fill="#DDAD9F" d="M68.69,48.219c-2.334,0.344-4.829,0.604-7.163,0.123c-1.697-0.35-3.154-1.494-4.92-0.881
	c-2.709,0.941-3.942,5.496-0.961,6.861c2.6,1.189,5.285-2.115,7.72-2.475c1.716-0.252,3.062,0.514,4.716,0.543
	c2.746,0.053,2.707-0.66,5.029-2.096c3.028-1.875,6.769-1.375,10.199-2.129c0.541-0.119-2.875-1.652-3.256-1.701
	c-1.994-0.25-4.267,0.432-6.209,0.809C72.294,47.575,70.518,47.948,68.69,48.219"/>
<path fill="#442617" d="M78.306,32.567c-0.116-0.002-0.199,0.045-0.254,0.113c-9.413-0.732-20.288,5.836-24.675,14
	c-2.008,3.738-0.745,8.389,2.902,10.508c0.348,0.203,0.712,0.309,1.082,0.348c3.611,3.193,4.816,7.844,6.707,12.129
	c0.042,0.09,0.145,0.158,0.241,0.162c3.758,0.148,7.271,1.191,11.056,0.771c3.484-0.385,6.113-1.451,9.311-2.713
	c2.479-0.977,2.539-2.246,2.834-4.676c0.248-2.043,0.676-4.088,1.027-6.115c0.372-2.164,0.68-4.926,2.045-6.738
	c1.043-0.455,1.897-1.146,2.381-2.238C96.553,40.014,85.309,32.667,78.306,32.567 M87.116,60.286
	c-0.353,2.174-0.097,5.408-2.22,6.568c-1.973,1.076-4.436,2.053-6.587,2.525c-2.617,0.574-5.38,0.766-8.036,0.486
	c-1.315-0.139-2.621-0.381-3.937-0.537c-1.828-0.213-2.168-0.828-2.828-2.42c-1.438-3.479-2.753-6.889-5.607-9.367
	c0.947-0.059,1.906-0.482,2.728-0.859c1.473-0.678,2.976-1.432,4.55-1.838c1.282-0.33,3.09,0.857,4.274,1.223
	c5.08,1.568,7.757-3.91,12.439-4.619c1.941-0.295,4.922-0.068,7.365-0.654C87.768,53.518,87.578,57.438,87.116,60.286
	 M90.087,49.489c-3.091,1.488-7.11,0.625-10.4,1.52c-1.266,0.342-2.323,1.143-3.337,1.939c-2.701,2.123-4.508,3.199-8.13,1.842
	c-2.925-1.098-4.309-0.459-7.224,0.865c-0.873,0.396-1.654,0.805-2.59,1.07c-2.612,0.734-4.467-2.479-5.041-4.385
	c-0.877-2.902,0.54-5.523,2.153-7.807c4.933-6.988,14.122-11.227,22.528-11.459c0.047,0.057,0.115,0.102,0.21,0.117
	c3.644,0.586,7.062,2.209,9.99,4.428C91.576,40.137,95.598,46.831,90.087,49.489"/>
<path fill="#E94441" d="M74.252,32.008c0.383,2.285-1.464,4.498-4.122,4.943c-2.66,0.445-5.126-1.045-5.509-3.33
	c-0.215-1.285,0.498-2.635,1.636-3.271c0.565-0.314,1.214,0.23,1.809-0.043c0.536-0.244,0.713-0.959,1.23-1.273
	c0.722-0.434,1.71-0.34,2.45-0.021C73.007,29.549,74.021,30.631,74.252,32.008"/>
<path fill="#FFFFFF" d="M71.845,31.243c0.106,0.627-0.298,1.219-0.902,1.318c-0.603,0.102-1.177-0.324-1.282-0.951
	c-0.104-0.629,0.299-1.221,0.902-1.32C71.166,30.188,71.74,30.614,71.845,31.243"/>
<path fill="#442617" d="M59.414,21.196c0.606,0.025,1.167-0.109,1.778-0.137c1.601-0.072,3.017,1.289,3.964,2.395
	c1.645,1.924,2.229,4.543,2.867,6.916c0.022,0.086,0.154,0.062,0.136-0.025c-0.492-2.469-1.364-4.969-2.879-7
	c-0.577-0.775-1.454-1.605-2.346-1.992c-1.173-0.512-2.296-0.164-3.435-0.561C59.208,20.69,59.116,21.182,59.414,21.196"/>
<path fill="#6B431E" d="M58.259,49.733l1.171,0.254c-0.196,0.879-0.512,1.693-0.911,2.477l-1.064-0.549
	C57.809,51.221,58.096,50.475,58.259,49.733"/>
<path fill="#6B431E" d="M58.227,45.946l0.976,0.695c-0.479,0.66-1.088,1.082-1.627,1.479l-0.704-0.969
	C57.412,46.758,57.916,46.383,58.227,45.946"/>
<path fill="#6B431E" d="M63.062,47.79l0.975,0.693c-0.219,0.312-0.395,0.723-0.452,1.088l-1.184-0.188
	C62.505,48.788,62.725,48.278,63.062,47.79"/>
<path fill="#6B431E" d="M61.624,42.922l0.704,0.967c-0.28,0.209-0.578,0.498-0.96,0.785l-0.704-0.967
	C60.945,43.499,61.242,43.208,61.624,42.922"/>
<path fill="#6B431E" d="M65.791,43.586l0.975,0.695c-0.3,0.414-0.621,0.668-0.783,0.91l-0.976-0.693
	C65.308,44.083,65.629,43.829,65.791,43.586"/>
<path fill="#6B431E" d="M69.154,46.104l1.182-0.197c0.122,0.689,0.361,1.42,0.644,2.086l-1.097,0.479
	C69.56,47.706,69.307,46.946,69.154,46.104"/>
<path fill="#6B431E" d="M68.328,40.331l0.197,1.182c-0.611,0.1-1.172,0.203-1.655,0.414l-0.479-1.098
	C67.047,40.543,67.721,40.432,68.328,40.331"/>
<path fill="#6B431E" d="M75.705,43.932l-0.596,1.016c-0.266-0.127-0.315-0.254-0.436-0.357l-0.301-0.324
	c-0.199-0.227-0.375-0.42-0.585-0.695l0.97-0.705c0.131,0.174,0.332,0.404,0.508,0.602l0.272,0.297l0.131,0.133l0.052,0.047
	C75.697,43.926,75.706,43.934,75.705,43.932"/>
<path fill="#6B431E" d="M76.545,38.393l-0.351,1.146c-0.542-0.166-1.094-0.223-1.624-0.133l-0.198-1.18
	C75.109,38.1,75.863,38.184,76.545,38.393"/>
<path fill="#6B431E" d="M82.4,42.145l-0.873,0.82c-0.319-0.338-0.74-0.648-1.177-0.961l0.694-0.973
	C81.496,41.352,81.965,41.688,82.4,42.145"/>
<path fill="#6B431E" d="M83.42,38.059l-0.489,1.094c-0.593-0.268-1.011-0.705-1.344-0.943l0.694-0.975
	C82.764,37.6,83.073,37.909,83.42,38.059"/>
<path fill="#6B431E" d="M86.857,43.92l-1.182,0.197c-0.047-0.332-0.27-0.752-0.381-1.342l1.181-0.197
	C86.523,42.911,86.748,43.331,86.857,43.92"/>
<path fill="#6B431E" d="M81.051,45.635l0.821,0.873c-0.255,0.246-0.62,0.447-0.977,0.52c-0.357,0.078-0.679,0.068-0.975,0.047
	l0.095-1.193c0.236,0.018,0.452,0.018,0.617-0.021C80.799,45.821,80.919,45.756,81.051,45.635"/>
<g>
	<polygon fill="#E94441" points="17.441,89.952 17.441,87.172 15.431,87.172 15.431,77.834 17.441,77.834 17.441,75.055 
		31.512,75.055 31.512,73.276 17.441,73.276 17.441,70.497 15.431,70.497 15.431,61.159 18.441,61.159 18.441,63.938 19.451,63.938 
		19.451,61.159 21.461,61.159 21.461,59.379 19.451,59.379 19.451,55.6 38.542,55.6 38.542,58.379 40.553,58.379 40.553,62.159 
		38.542,62.159 38.542,64.938 28.491,64.938 28.491,66.717 38.542,66.717 38.542,69.497 40.553,69.497 40.553,84.393 38.542,84.393 
		38.542,87.172 36.532,87.172 36.532,89.952 	"/>
	<path fill="#FFFFFF" d="M38.042,56.1v2.779h2.011v2.779h-2.011v2.779H27.991v2.779h10.051v2.779h2.011v13.896h-2.011v2.779h-2.01
		v2.779H17.941v-2.779h-2.011v-8.338h2.011v-2.779h14.07v-2.779h-14.07v-2.779h-2.011v-8.338h2.011v2.779h2.01v-2.779h2.01v-2.779
		h-2.01V56.1H38.042 M39.042,55.1h-1H19.951h-1v1v2.779v1h1h1.01v0.779h-1.01h-1v1v1.779h-0.01v-1.779v-1h-1h-2.011h-1v1v8.338v1h1
		h1.011v1.779v1h1h13.07v0.779h-13.07h-1v1v1.779h-1.011h-1v1v8.338v1h1h1.011v1.779v1h1h18.091h1v-1v-1.779h1.01h1v-1v-1.779h1.011
		h1v-1V69.997v-1h-1h-1.011v-1.779v-1h-1h-9.051v-0.779h9.051h1v-1v-1.779h1.011h1v-1v-2.779v-1h-1h-1.011V56.1V55.1L39.042,55.1z"
		/>
</g>
<g>
	<path fill="#E94441" d="M53.447,90.993v-1.158h-1.158v-1.156h-1.157V87.52h-0.159v1.158h-1.157v1.156h-1.159v1.158h-5.631v-1.158
		h-1.158V77.256h1.158v-1.158h5.631v1.158h1.159v5.791h0.157v-1.16h2.159v1.16h0.157v-5.791h1.158v-1.158h3.316v1.158h1.157v12.578
		h-1.157v1.158H53.447z M44.184,79.571v-1.156h1.158v-0.158h-1.316v1.314H44.184z"/>
	<path fill="#FFFFFF" d="M56.264,76.598v1.158h1.157v11.578h-1.157v1.158h-2.316v-1.158h-1.158v-1.156h-1.157V87.02h-1.159v1.158
		h-1.157v1.156h-1.159v1.158h-4.631v-1.158h-1.158V77.756h1.158v2.314h1.158v-1.156h1.158v-1.158h-2.316v-1.158h4.631v1.158h1.159
		v5.791h1.157v-1.16h1.159v1.16h1.157v-5.791h1.158v-1.158H56.264 M57.264,75.598h-1h-2.316h-1v1v0.158h-0.158h-1v1v3.631h-0.157
		h-1.159h-0.157v-3.631v-1h-1h-0.159v-0.158v-1h-1h-4.631h-1v1v0.158h-0.158h-1v1v11.578v1h1h0.158v0.158v1h1h4.631h1v-1v-0.158
		h0.159h1v-1v-0.156h0.157h1h0.159h0.157v0.156v1h1h0.158v0.158v1h1h2.316h1v-1v-0.158h0.157h1v-1V77.756v-1h-1h-0.157v-0.158
		V75.598L57.264,75.598z"/>
</g>
<g>
	<path fill="#E94441" d="M60.395,90.993v-1.158h-1.158V77.256h1.158v-1.158h12.579v1.158h1.157v2.158h-1.157v1.156h-5.789v0.158
		h5.789v1.158h1.157v2.16h-1.157v1.156h-5.789v0.158h5.789v1.158h1.157v3.314h-1.157v1.158H60.395z M61.552,79.571v-1.156h1.158
		v-0.158h-1.315v1.314H61.552z"/>
	<path fill="#FFFFFF" d="M72.474,76.598v1.158h1.157v1.158h-1.157v1.156h-5.789v1.158h5.789v1.158h1.157v1.16h-1.157v1.156h-5.789
		v1.158h5.789v1.158h1.157v2.314h-1.157v1.158H60.895v-1.158h-1.158V77.756h1.158v2.314h1.157v-1.156h1.158v-1.158h-2.315v-1.158
		H72.474 M73.474,75.598h-1H60.895h-1v1v0.158h-0.158h-1v1v11.578v1h1h0.158v0.158v1h1h11.579h1v-1v-0.158h0.157h1v-1V87.02v-1h-1
		h-0.157v-0.158v-0.158v-1v-0.156h0.157h1v-1v-1.16v-1h-1h-0.157v-0.158v-0.158v-1v-0.156h0.157h1v-1v-1.158v-1h-1h-0.157v-0.158
		V75.598L73.474,75.598z"/>
</g>
<g>
	<path fill="#E94441" d="M76.604,90.993v-1.158h-1.157V77.256h1.157v-1.158h12.579v1.158h1.159v2.158h-1.159v1.156h-5.789v0.158
		h5.789v1.158h1.159v2.16h-1.159v1.156h-5.789v0.158h5.789v1.158h1.159v3.314h-1.159v1.158H76.604z M77.763,79.571v-1.156h1.158
		v-0.158h-1.316v1.314H77.763z"/>
	<path fill="#FFFFFF" d="M88.684,76.598v1.158h1.159v1.158h-1.159v1.156h-5.789v1.158h5.789v1.158h1.159v1.16h-1.159v1.156h-5.789
		v1.158h5.789v1.158h1.159v2.314h-1.159v1.158H77.104v-1.158h-1.157V77.756h1.157v2.314h1.158v-1.156h1.158v-1.158h-2.316v-1.158
		H88.684 M89.684,75.598h-1H77.104h-1v1v0.158h-0.157h-1v1v11.578v1h1h0.157v0.158v1h1h11.579h1v-1v-0.158h0.159h1v-1V87.02v-1h-1
		h-0.159v-0.158v-0.158v-1v-0.156h0.159h1v-1v-1.16v-1h-1h-0.159v-0.158v-0.158v-1v-0.156h0.159h1v-1v-1.158v-1h-1h-0.159v-0.158
		V75.598L89.684,75.598z"/>
</g>
<g>
	<path fill="#E94441" d="M96.289,90.993v-1.158h-1.157v-8.105h-2.316v-1.158h-1.158v-3.314h1.158v-1.158h12.579v1.158h1.158v3.314
		h-1.158v1.158h-2.315v8.105h-1.159v1.158H96.289z M93.974,79.571v-1.156h1.158v-0.158h-1.316v1.314H93.974z"/>
	<path fill="#FFFFFF" d="M104.895,76.598v1.158h1.158v2.314h-1.158v1.158h-2.315v8.105h-1.159v1.158h-4.631v-1.158h-1.157v-8.105
		h-2.316v-1.158h1.158v-1.156h1.158v-1.158h-2.316v-1.158H104.895 M93.315,77.756v2.314h-1.158v-2.314H93.315 M105.895,75.598h-1
		H93.315h-1v1v0.158h-0.158h-1v1v2.314v1h1h0.158v0.158v1h1h1.316v7.105v1h1h0.157v0.158v1h1h4.631h1v-1v-0.158h0.159h1v-1v-7.105
		h1.315h1v-1v-0.158h0.158h1v-1v-2.314v-1h-1h-0.158v-0.158V75.598L105.895,75.598z"/>
</g>
</svg>
